<?xml version="1.0" encoding="UTF-8"?>
<svg id="AbuBakr" xmlns="http://www.w3.org/2000/svg" width="226.8715" height="224.7341" viewBox="0 0 226.8715 224.7341">
  <defs>
    <style>
      @import url('../../CSS/SvgStyling.css');

    </style>
  </defs>
  
  <g class="content">


    <rect id="bg" class="bg" width="226.8715" height="224.7341"/>
    <path class="cls-2" d="M76.3235,23.2641c.1492-4.7215,2.8437-8.8473,5.0506-12.8595-.1395,1.6393-.606,3.221-1.3078,4.7057,1.8713,1.2762,4.7959,2.1278,4.9456,4.8038.3117,2.7308-.6986,6.1298-3.8677,6.513-2.2225.8773-4.8536-.723-4.8207-3.163M78.4837,18.3841c-.4612,1.3094-1.2507,3.165.1114,4.2082,1.7453,1.0498,3.8281.0151,5.4881-.7371-1.1986-1.9561-3.3768-3.0918-5.5996-3.4711Z"/>
    <path class="cls-2" d="M133.7631,18.0782c7.7486-3.0289,15.7336-5.6995,24.0068-6.845,2.8385-.397,6.8979.672,6.9842,4.1318-.1964,5.8764-2.3899,11.4801-4.7566,16.795-2.6076,4.2892-6.5805,7.5253-9.6358,11.4788-1.6538,1.9175-2.9086,4.1424-4.6321,6.0016,2.209-8.2246,8.8422-14.1978,13.8928-20.7541,1.4716-1.6584.5283-4.4288-1.3334-5.335-2.6446-.8672-5.4686-.2637-8.1281.2406-14.4115,2.5636-27.6888,8.963-40.8242,15.1692-7.8986,3.7821-15.8838,7.4201-23.4153,11.9152-6.196,3.4175-12.5116,6.7961-17.9717,11.3117,4.2371,3.4707,8.9319,6.3656,13.4827,9.4148,2.8184,1.279,4.6765,4.0246,7.7343,4.8496,15.5282,9.8307,32.296,18.1992,45.996,30.6898,4.276,4.3851,8.913,8.3974,13.6357,12.2988,3.8199,2.8189,8.4178,5.1917,13.3103,4.8215,7.0711.5274,12.7954-5.4441,15.0703-11.6135.8372-1.5378.9431-3.857,2.8625-4.477.4663,3.2552-.6443,6.3994-1.468,9.5013-1.6825,5.7847-4.3137,11.6322-9.0184,15.6094-4.6806,3.8199-11.5351,4.3427-16.8448,1.5151-12.8286-6.8205-20.7134-19.9289-33.1624-27.2718,1.4763,3.1201,4.0261,5.5843,5.4992,8.7083,3.0445,6.6626,3.1934,14.4794.6876,21.3386-1.463,4.5632-6.0759,6.9316-10.0203,9.0598-6.008,2.5486-12.0739,4.9653-18.2066,7.2088-1.6921.4696-1.8179,2.4775-2.5775,3.7857-4.0263,7.7358-6.4226,16.4646-5.826,25.2206-.7938,9.3417,7.6817,18.439,17.2114,17.6141,7.5565.5228,14.8394-2.3099,21.2855-6.0052,11.2027-6.7671,21.6593-14.9009,30.4724-24.573-.4574-1.4443-.9675-2.8679-1.52-4.2719-6.1714,1.3664-12.5977,2.9872-18.9434,1.7601-5.339-1.3181-8.139-7.1656-7.393-12.319.8909-6.6911,4.6323-13.6501,11.1649-16.2954,2.9295-1.3,6.2581-.2887,8.8841,1.2448,4.786,2.709,8.0997,7.3296,10.5351,12.1367,6.0217-2.2961,10.2783-7.6782,16.4304-9.7581,2.0828-1.0067,5.9226-.883,5.8593,2.1952-.2156,6.9927-2.5646,14.1015-7.1727,19.4634-2.0588,3.8593-5.5703,7.3102-6.0118,11.7965,4.0927,2.0465,7.8355,4.6924,11.7936,6.9786-2.2547,3.4321-3.8094,7.3044-6.4402,10.4916-3.872-2.8457-8.2108-5.0177-12.0205-7.9466,1.6543-3.2261,3.7999-6.1876,5.2998-9.4858,1.65-7.0542,5.1774-13.5545,9.6114-19.2533,1.814-1.7202-1.154-3.9923-2.9001-2.8814-4.4106,1.7989-7.8077,5.4032-11.7131,8.0488-1.7077,7.309-1.7504,16.0469-7.5471,21.6884-3.9444,4.0687-8.0093,8.0664-12.6598,11.3401-9.0401,7.5345-19.0481,14.5512-30.6851,17.3218-8.6099,2.1911-19.0188-.5989-23.8248-8.4453-2.7854-5.023-4.1365-10.7509-3.9586-16.4822-.0526-10.8859,3.2852-21.4457,7.8504-31.223-1.7271.0817-3.2474.9057-4.6848,1.7882-12.3674,6.7203-20.4207,18.678-28.6939,29.6167-2.6731,2.9081-5.4116,6.1916-9.3847,7.2946-4.7188,1.2223-9.7736-.1972-13.7518-2.8322-6.6331-5.1145-10.3418-13.6278-9.9093-21.934.3078-11.6513,5.6996-22.3975,11.7077-32.1224,1.6793-2.2195,3.0312-4.8546,5.417-6.4037-.1393,3.7295-2.7517,6.6096-4.4635,9.7346-5.5618,9.615-10.0437,20.4186-9.6353,31.7061.3985,5.5989,3.4963,12.4,9.6777,13.2566,2.9971.1597,6.1852.1257,8.7401-1.6768,9.9812-6.5036,15.2959-17.6281,23.8347-25.6327,7.9615-8.566,18.7599-13.7569,29.7938-17.1886,7.4893-2.8705,15.4033-5.4058,21.5886-10.7172,1.1356-.8094.4528-2.3485.0099-3.3593-.9284-1.7974-1.6402-3.7198-2.8146-5.3781-8.091-9.3603-17.2291-17.8205-27.0094-25.3839-4.0877-4.6497-9.4125-7.8362-13.8764-12.0736-2.545-1.7069-4.9926-3.5467-7.0328-5.8478-3.6888-2.4975-7.4318-5.3871-9.8023-9.1835-.1068-6.8927-.4049-16.0563,6.4117-20.064,20.2071-13.1851,42.666-22.3969,64.9279-31.5084M136.4568,153.6631c3.7366,3.2693,9.2592,1.2414,13.7711,1.6337-2.1173-2.4436-4.9117-4.8306-8.3169-4.9213-2.2898-.1063-4.2617,1.4611-5.4541,3.2875Z"/>
    <path class="cls-2" d="M41.2724,47.2345c.8414-6.6145,3.6171-12.8743,6.7828-18.6879-.4713,5.5113-4.0563,10.2711-4.4448,15.8016-.25,2.2874,1.2791,5.0808,3.8817,4.8602,1.1646-1.154,1.4657-2.8613,2.1692-4.2933.8562,2.9564-.6251,7.3904-3.6272,8.8907-3.5114.6425-5.218-3.7149-4.7616-6.5713"/>
    <path class="cls-2" d="M182.8988,42.0386c1.8469-3.0005,3.1985-6.2749,5.0309-9.2839,2.5833,6.484,4.8818,13.0852,6.7926,19.7998,1.3319,5.1715,3.871,10.0693,4.0741,15.4957-3.3822-1.3569-3.9924-6.1881-7.1424-8.0195.0036,13.7232,2.1393,27.3303,3.0008,41.0145,2.0343,13.5262,2.5389,27.2099,3.2558,40.8459.92,11.787.3377,23.6532-1.4086,35.3395-1.2563,4.2668-1.4814,9.4234-5.1518,12.4663-.3802-.7808-.5532-1.6484-.3994-2.5067,1.1206-15.3802-.8464-30.7187-1.2364-46.0743-2.0194-28.7437-4.6556-57.4456-6.0555-86.232-.0871-3.514.3271-7.2473-1.3662-10.4733-.5056-.834.2591-1.6441.6063-2.3718"/>
    <path class="cls-2" d="M95.6655,63.0126c10.0392-5.4638,20.5111-10.0744,30.7953-15.0446-.2935,1.159-.6298,2.3145-1.0151,3.4502-3.6277,1.0312-6.7869,3.1252-10.2265,4.5961-7.4505,3.8349-15.378,6.7828-22.2764,11.6046.4952-1.7355.8036-3.8629,2.7228-4.6063"/>
    <path class="cls-2" d="M134.979,53.929c-.1383-2.0938.8807-3.9586,1.848-5.7356.0233.3584.0711,1.0823.096,1.4469.966.8436,2.511,1.9083,1.6696,3.3738-.4285,1.6682-2.382,1.7356-3.6135.9149M136.0567,51.0489c-.1346.618-.2691,1.2414-.3952,1.8651.91.1425,1.8294.0864,2.6896-.2682-.7547-.5521-1.52-1.079-2.2944-1.5969Z"/>
    <path class="cls-2" d="M145.336,49.2844c1.3708,1.6599,2.7846,3.2841,4.0397,5.0333-.6829-.1477-1.3605-.2972-2.0388-.4448,2.3712,3.7524,4.4155,9.6334-.015,12.763.0526,3.2642-.2792,6.9158-2.8424,9.2643,3.0637,1.6443,3.7377,5.9684,1.7558,8.6616-3.6032,3.4121-8.2965,5.4315-12.0451,8.6516-.5667,1.093-.4272,2.4678-.23,3.6566,1.0151,1.7874,3.4724,1.6586,5.2228,1.3194,3.1751-1.0271,4.2479-4.4292,6.1429-6.8117.4428,1.6201,1.0199,3.2884,2.4436,4.3183,2.7849-4.4765,5.5604-10.4341,11.4584-11.1669,2.7228.3582,5.4592,2.0025,6.8253,4.4136.3267,1.9599-.3459,3.9063-.5674,5.8426,1.0912-.4934,2.4049-.7723,3.1748-1.7632.4563-9.2887-2.2225-18.3575-2.5632-27.6036-.01-3.0628-1.4494-6.4461.6242-9.1593,1.0871,2.9862,2.7078,5.7944,3.3046,8.9388-.6735-.6518-1.327-1.322-1.9913-1.9783.3508,8.1283,2.2077,16.1187,2.723,24.2372-.3025,3.7195-.4185,8.8621-4.734,10.2185-5.7762,2.2292-12.6498,4.3049-18.6779,1.932-.5672.652-1.1398,1.2989-1.717,1.9366.1397-.9873.3084-1.9648.4956-2.9423-.6449-.9882-1.2259-2.0095-1.742-3.0634-1.2023,2.3626-2.6788,4.8367-5.1654,6.0297-2.107,1.1351-5.2144.3015-6.0997-2.0179-.8602-1.8746-.5005-3.9745-.0478-5.9002-2.1257.9873-5.1324,2.8797-7.0517.5462-2.1783-2.9714-.6014-6.8633.0284-10.1128-2.7412-.336-5.6707-1.5733-6.7044-4.3324-1.8321-4.8329-.5161-10.277,1.6245-14.7918-.3459,4.4624-3.024,9.7873.5056,13.6697,5.1998,4.0835,12.1557.968,17.1204-1.9566-2.5494-1.9016-4.5317-4.4134-6.9357-6.4696.0133-1.0833.0319-2.1669.0421-3.2496,1.9006.9399,4.0654,1.5186,5.5846,3.0672-.6922.0041-1.3797.0041-2.0682.0092,1.8138,1.8784,4.002,3.7772,6.5757,4.4232,1.7987-1.0688,3.3-2.5876,4.545-4.2599-.3561-.7912-.6968-1.5869-1.0235-2.3812-2.1899.4596-4.6132,1.581-6.778.4887-2.2136-2.3779-.7798-6.85,2.1167-8.0006,2.2943-.4362,3.8234,1.7208,5.2913,3.0913,1.1295.3409,1.9518-.6802,2.7312-1.3031-1.462-3.241-3.0396-6.4131-4.2946-9.7433.3068-1.0271.6344-2.0434.9569-3.06M138.5925,64.4888c1.1873,1.1982,2.9428.6753,4.429.6518-.9517-1.5378-3.1024-2.0754-4.429-.6518ZM139.2514,79.5102c-3.5064,2.7555-7.8455,3.8772-12.113,4.822-.9233,2.104-2.0439,5.5828.1495,7.2272,2.2895.4887,4.5218-.5787,6.4273-1.744,4.1788-2.6986,8.605-5.047,12.4765-8.1914-1.4566-2.0565-4.6801-4.3815-6.9403-2.1139ZM156.2989,88.3541c-3.4251,1.7108-5.7294,5.0368-7.245,8.4487,5.6916.7775,11.9245-.1914,15.8972-4.6921-1.9384-2.5978-5.2668-5.012-8.6523-3.7566Z"/>
    <path class="cls-2" d="M174.4043,55.4392c1.2792,2.9763,2.861,5.8477,3.6789,8.997-.741-.6666-1.4477-1.3561-2.1541-2.0463.7355,7.2607,1.9001,14.4695,2.6019,21.7323.0184,3.9433.5923,8.2197-1.4665,11.8005-.1638-7.8664-.919-15.7075-2.2274-23.4674-.7885-4.5624-.5246-9.3135-1.9193-13.7609.4956-1.0833.9911-2.1714,1.4865-3.2552"/>
    <path class="cls-2" d="M158.919,56.8103c1.1697.1155,1.6365,1.0932,1.9349,2.0989-.6778-.1868-1.347-.3965-2.0112-.613-.4328,1.999-.3124,4.083-.9573,6.045-.6727-2.1293-2.1306-3.7773-4.1707-4.6884.313-.6571.6748-1.2895,1.1211-1.8653,1.3092.9349,2.2323,2.2489,2.92,3.6824.2406-1.5868.4519-3.2018,1.1632-4.6595"/>
    <path class="cls-2" d="M129.9141,60.5875c.4376-1.0166.8904-2.0225,1.3567-3.0205,1.2456.6669,2.4773,1.3713,3.6944,2.1004-.4425,1.0734-.8802,2.152-1.3283,3.221-1.2363-.7716-2.4765-1.544-3.7228-2.3008"/>
    <path class="cls-2" d="M124.8156,61.6856c.4906-1.0166.991-2.0279,1.5243-3.0255,1.1837.6329,2.3569,1.2844,3.5215,1.9514-.4855,1.069-.9809,2.138-1.4671,3.207-1.2167-.6768-2.4053-1.3897-3.5787-2.1329"/>
    <path class="cls-2" d="M157.3131,67.8354c1.2172.6275,2.4045,1.2981,3.5785,2.0016-.4379,1.0845-.9044,2.1535-1.3848,3.2174-1.2179-.6666-2.4302-1.3383-3.6032-2.0761-.5859,1.0549-1.1924,2.1002-1.8138,3.1351-1.15-.6801-2.2844-1.371-3.4198-2.0703.429-1.0688.8996-2.1145,1.4001-3.1495,1.1832.642,2.3961,1.2221,3.6122,1.7974.5531-.944,1.0874-1.9024,1.6308-2.8556"/>
    <path class="cls-2" d="M127.3172,74.3476c.1581-1.4951-.6494-3.2442.4035-4.5287.2892,1.3319.559,2.6697.9382,3.9776.2984.0624.8942.1783,1.1922.2406-.2162-1.2946-1.1873-2.8288-.1771-4.0026,1.3947,1.8547,1.1839,6.7486-2.0352,4.6546-.5672.4602-1.1208.9348-1.6687,1.408-1.919-1.1791-1.3526-4.0688-.6014-5.8371.0817,1.3846.1538,2.78.3375,4.161.533-.0291,1.0711-.0527,1.6109-.0733"/>
    <path class="cls-2" d="M27.3371,80.4159c-.7787-1.7392.2401-3.5856.6301-5.2967.3369,1.7601,3.2081,2.129,2.444,4.1464-.0823,1.415-2.1122,2.2054-3.0741,1.1503M27.8225,77.6552c-.0191.4696-.0528,1.4045-.0719,1.87.8041-.1922,1.6061-.3888,2.4047-.6047-.7644-.4459-1.543-.8672-2.3328-1.2654Z"/>
    <path class="cls-2" d="M159.4878,80.421c-.2074-1.4809-1.5539-3.1019-.6157-4.5391,1.0294,1.9224,1.9576,4.2658.3741,6.1924-.6484-.3787-1.2974-.7567-1.9431-1.1454-.63.9497-1.7746,2.7131-2.9246,1.3127-.6825-1.6341-1.0384-3.8912-.0233-5.4827.1196,1.4901.1055,3.0195.5861,4.4528.548-.0664,1.1015-.129,1.66-.1778.2113-1.6768-.2313-3.3261-.3554-4.9893,1.4615,1.2949.8073,4.1168,3.2419,4.3764"/>
    <path class="cls-2" d="M30.0019,85.2379c6.0319-2.9045,12.0778-5.8186,18.3124-8.2772-.7069,2.2231-3.3672,2.2279-5.1326,3.1724-5.9503,2.813-12.0112,5.4361-17.7401,8.6855.5962-2.0854,2.8966-2.603,4.5602-3.5807"/>
    <path class="cls-2" d="M52.9991,80.7892c3.0262,1.1845,5.1276,4.2948,4.517,7.5833-.7362-1.4285-.8708-3.2067-2.1159-4.3375-.9774-.9683-2.7093-1.557-2.4011-3.2458"/>
    <path class="cls-2" d="M17.9043,86.9062c-2.6503-1.3712-1.8714-4.7547.8515-5.4502,1.3847,1.8464.4141,4.2423,1.1303,6.346-.5052-.2205-1.0057-.4461-1.5051-.671-2.9735,4.5591-7.4946,7.8084-12.2185,10.3629,3.8431-3.6042,8.7973-6.092,11.7418-10.5877M17.0579,83.3497c-.7559,1.1017.9999,1.4663,1.7078,1.8211.1107-1.0108-.424-3.0678-1.7078-1.8211Z"/>
    <path class="cls-2" d="M40.5419,86.6568c4.0552-2.0089,9.2779-.9635,12.5782,2.008-5.0273-1.1456-10.4483-.5363-14.8449,2.2534,1.1733,4.6291,6.0471,8.617,10.9914,7.2851,3.4242-1.1742,6.5614-3.0192,9.8616-4.4914-.4869,1.544-.6835,3.6053-2.5207,4.1369-5.623,2.5108-10.9001,5.8233-16.7351,7.8362-3.0448,1.1218-5.4786-1.7632-5.9502-4.4863-1.635,3.0388-4.3869,6.687-8.3361,5.8436-3.5696-.7292-5.0029-4.4964-6.003-7.5542-5.4495.6666-5.7731,7.2847-7.8454,11.1725-1.0968,2.3478-4.1809,1.4422-5.1995-.4653-2.108-3.4752-2.0538-7.8261-1.6412-11.7479,1.8336,3.0529-.1482,8.139,3.4056,10.5399,1.9482,1.3812,3.3379-1.2846,3.7381-2.8557,1.332-4.1326,3.4723-9.6248,8.5046-10.0272.799,2.2571,1.2124,4.9803,3.3188,6.4566,1.9859,1.5378,4.9782,1.3173,6.8834-.245,1.8039-1.3078,2.7221-3.4175,4.3428-4.9035.1927,1.6919.2606,3.9454,2.132,4.6972,1.9093.2596,4.0446.4022,5.676-.814-2.5204-1.4238-4.8006-3.466-5.8784-6.2075-1.0865-3.1638.4855-6.9783,3.5218-8.431"/>
    <path class="cls-2" d="M202.3557,93.0647c5.5752-2.8713,11.2944-5.4832,17.1245-7.8125-.4371,1.103-.909,2.196-1.4338,3.2591-6.171,2.5986-12.4249,5.1763-18.0293,8.8766.3851-1.5858.6406-3.5798,2.3386-4.3232"/>
    <path class="cls-2" d="M72.9614,94.8771c.1586-1.7833.0974-3.8347,1.5496-5.1385.7788.6753,1.3853,1.5136,1.7747,2.4727-.7645-.1291-1.5241-.2729-2.2852-.4119-.2346,1.9369-.351,3.8922-.6541,5.8233-1.1837-1.84-2.1648-3.8487-4.2898-4.8163.0527-.4318.1632-1.2895.2157-1.7172,1.9336.3755,2.9145,2.1669,3.6891,3.7879"/>
    <path class="cls-2" d="M61.2483,94.5067c-.5483-1.6676.2697-3.197,1.1019-4.595,1.0826,3.187,2.7371,6.1783,3.4724,9.4752-.768-.8007-1.4949-1.6443-2.221-2.4827.3988,10.1562,3.3429,20.26,1.9193,30.4601-.2021.9144-.2021,2.0889-1.1221,2.6214,0-11.9017-2.4288-23.6156-3.1505-35.479"/>
    <path class="cls-2" d="M27.453,91.2964c1.1969.7143,2.3995,1.4185,3.6272,2.0754-.5057,1.1167-1.0969,2.1955-1.761,3.2259-1.1442-.7333-2.2617-1.5156-3.353-2.325.5005-.9875.9961-1.9841,1.4868-2.9763"/>
    <path class="cls-2" d="M71.3797,103.4705c4.4632-2.3004,9.0953-4.2412,13.6648-6.3181-.3551.5043-.4706,1.2764-1.0922,1.5393-5.2704,2.3243-10.5534,4.6783-15.5548,7.5447.1872-1.5869,1.7455-2.138,2.9822-2.7658"/>
    <path class="cls-2" d="M155.8133,106.1071c4.9387-2.1145,9.8549-4.3086,14.9447-6.0391-.6878,1.8257-2.7463,2.0365-4.3105,2.7313-4.007,1.7451-8.1194,3.2404-12.0397,5.1812.3851-.6802.5335-1.6528,1.4055-1.8735"/>
    <path class="cls-2" d="M144.9808,102.6897c2.9049.8431,3.7892,4.0741,3.78,6.7532-1.27-.7907-.596-2.674-1.6403-3.6566-.8996-.9262-2.2744-1.5917-2.1397-3.0966"/>
    <path class="cls-2" d="M209.0231,112.3911c.3943-4.2192,3.8531-7.5736,7.4945-9.3945,1.8222,1.8924.7695,4.5098-.0771,6.5895-.3902-.9247-.6789-1.8838-.9382-2.8515-1.7553.4703-3.338,1.4896-4.3388,3.0141,3.1122,3.0729,7.8269,3.2356,11.2803.6525-.3426,1.1456-.4578,2.416-1.1461,3.4177-4.583,2.3483-9.3991,4.4382-13.3854,7.7597-.4583-3.3115,2.3173-5.0526,4.8671-6.3454-1.3467-.8017-2.8666-1.4954-3.7563-2.8422"/>
    <path class="cls-2" d="M54.8757,103.5514c1.3133,1.7548,2.5734,3.5723,3.3669,5.6319-.5672-.1914-1.1311-.3779-1.6925-.5651.5137,4.2607,4.0887,7.913,3.0536,12.3572-.4521,1.9024-1.2657,4.256-3.4097,4.7785-1.6979.5887-3.3003-.5085-4.7433-1.2506-1.2514,4.0064-2.3278,8.8184.3325,12.5141,2.4182,3.1147,6.8731,2.8897,10.3848,2.3528,6.1761-1.6684,11.7849-4.9993,16.8406-8.833-3.0652-2.8099-8.9375-.2064-11.2224-4.281-.976-5.4014,3.4482-11.6087,8.9472-12.3317.8894,1.9601,1.6403,4.1222,3.4297,5.4725,2.8613-4.0299,5.397-8.8084,10.1158-10.9413,3.8099-1.2031,7.4845,1.6916,9.4893,4.6781.3572,2.1088-.4321,4.3373-1.4274,6.1922-2.8432,2.9134-6.8452,4.4716-10.8715,4.8546-2.1885-.0233-3.0981,2.2345-3.9053,3.8772-1.0403,2.4834-2.2473,5.6037-.5923,8.0912,1.5207,1.8174,4.3202.9494,5.7818-.5028,4.2713-3.8772,7.6874-8.7233,12.6648-11.7962,2.7948-1.8498,6.8503-3.2052,9.8521-1.0541,1.4867,1.0168,1.0578,2.9914.9762,4.5108-2.3861-2.7507-6.5514-2.2287-9.4949-.7335-5.786,2.7847-8.7837,8.89-13.795,12.6388-2.3204,1.8889-5.9172.4645-6.9416-2.1669-1.9776-4.1886.2555-8.785,2.4098-12.4367-1.5583-.5143-3.1116-1.0605-4.6323-1.6883-.4661.4364-.9335.872-1.4003,1.313.3326-2.6498-1.5447-4.6965-2.5258-6.9727-3.1349.6753-6.1796,2.985-7.0465,6.1244,2.6224,2.7704,6.8644,1.544,10.0783,2.8863,3.2085,2.0989,1.0866,6.8825-1.4676,8.6375-5.9883,3.8245-12.2463,8.5019-19.683,8.4495-3.8578.1829-7.4905-2.5445-8.529-6.2165-1.0728-4.0113-.3026-8.2297,1.0102-12.0885.7461-1.7923-.615-3.4367-1.2211-5.0361-.7069,2.233-1.2554,4.8255-3.2764,6.2882-2.6021,1.5817-6.5604.6853-7.8649-2.1855-2.1403-3.7686-.3368-8.0769-.1342-12.0599-2.3762,3.2492-2.7319,7.3715-3.1846,11.2251-.538,1.7591-1.2653,4.6306-3.6646,4.3-2.6229-.6618-4.0988-3.4224-4.6135-5.8859-.9965-2.66.3796-5.8092-1.2463-8.2068-2.8478,4.746-7.2296,8.2302-12.0353,10.8568,3.666-3.7282,8.4431-6.3889,11.3144-10.8805-2.8524-.9916-2.0502-4.768.7021-5.1285,1.5203.7534.846,2.7277.6538,4.0404,1.6976,2.3436.4663,5.3981,1.3994,7.9957.5299,2.0795,1.814,5.1572,4.5319,4.3666,1.5822-.8966,1.8036-2.9969,2.1932-4.6106.8417-4.3002,1.2794-9.2703,4.8776-12.2857,1.8425,4.4098-2.1787,9.5284.4325,13.9334,2.2087,3.6773,8.4378,1.9937,8.9378-2.1622,1.6406-5.2772-2.9437-10.5243-.3937-15.5382,2.2834,4.0218,2.3035,8.6847,2.895,13.1371.3175,2.919,2.8475,5.8919,6.0466,5.0521,2.2894.0437,1.5676-2.5636.9378-3.8723-1.7364-3.7721-2.5394-7.8516-3.8764-11.7614.4139-1.0263.8223-2.0564,1.236-3.0835M22.9888,110.4496c.6593.6326,1.3712,1.2113,2.1067,1.754-.0338-.7378-.0725-1.4762-.1254-2.2138-.6733.0992-1.337.2493-1.9813.4597ZM88.0415,112.4435c-2.6362,2.0889-5.5079,4.6829-6.3542,8.0281,5.8294,1.3278,12.521-.0582,16.9942-4.0986-2.0059-3.5033-6.7967-6.791-10.64-3.9295Z"/>
    <path class="cls-2" d="M75.7512,109.457c.466-1.0644.9722-2.1093,1.5398-3.1211,1.1252.706,2.2458,1.4154,3.3575,2.1431-.4819.9724-.9481,1.9556-1.4049,2.9431-1.1967-.6043-2.362-1.2614-3.4924-1.9652"/>
    <path class="cls-2" d="M55.5347,132.9721c-.486-2.3685,2.8083-3.7685,3.8869-1.4469.3317,2.3327-2.5691,3.2726-3.8869,1.4469"/>
    <path class="cls-2" d="M61.691,130.1775c2.3482-1.491,3.8006,2.7373,1.4812,3.4748-2.1346.8781-3.819-2.6217-1.4812-3.4748"/>
    <path class="cls-2" d="M71.7205,145.098c1.3758-3.5422,5.989-4.3419,8.9134-6.4272-1.9242,3.1104-6.162,4.0113-8.9134,6.4272"/>
    <path class="cls-2" d="M107.3837,173.6556c1.7118-3.6007,3.8048-6.9977,5.6229-10.5407,4.0077,2.6559,8.0042,5.3207,12.0305,7.9472-1.9875,3.6326-3.9679,7.2992-6.1569,10.8181-3.8874-2.6651-7.6342-5.5213-11.4965-8.2246"/>
    <path class="cls-2" d="M59.8009,200.6972c6.5085-3.024,13.2086-5.603,19.7991-8.4454-.5772,1.1167-.8419,2.5304-1.8564,3.3419-6.8938,2.9755-14.0568,5.5107-20.5739,9.2729.6827-1.4762.9226-3.4886,2.6311-4.1694"/>
    <path class="cls-2" d="M58.4405,206.0562c6.5223-3.0677,13.0542-6.1549,19.7985-8.7182-.6456,1.2453-.6985,3.2151-2.2509,3.7139-6.908,2.2861-13.4645,5.4927-19.9493,8.7665.5488-1.3763.7851-3.2111,2.4017-3.7622"/>
  </g>
</svg>