<?xml version="1.0" encoding="UTF-8"?>
<svg id="AbulHassanAlashari" xmlns="http://www.w3.org/2000/svg" viewBox="0 0 211.4137 205.5844">
  <defs>
    <style>


      @import url('../../CSS/SvgStyling.css');


    </style>
  </defs>
  
  <g class="content">

    <rect id="bg" class="bg" width="211.4137" height="205.5844"/>

    <g>
      <path class="cls-1" d="M203.2366,102.8464c-.1755,53.81-43.301,97.5012-97.5502,97.44-54.1931-.0612-97.7023-43.2268-97.5088-97.9067C8.3693,48.2536,51.6931,5.4579,105.4717,5.2985c54.3472-.1612,97.6879,43.6778,97.7649,97.5479ZM200.5579,102.6689c-.1911-52.3783-42.1292-94.3478-94.0665-94.6783C53.1589,7.6514,11.0841,49.9097,10.8558,102.2278c-.2326,53.3031,41.9174,95.1665,94.5117,95.3668,53.1288.2024,95.1048-42.389,95.1904-94.9257Z"/>
      <path class="cls-1" d="M197.7055,102.7695c.491,50.4312-41.1407,92.1054-91.947,92.0604-50.7508-.0449-91.968-41.2229-92.0548-91.8397-.0877-51.1811,41.5615-92.2073,92.1175-92.2357,50.5819-.0284,92.3974,41.6334,91.8843,92.015ZM107.1046,190.1109c2.596.03,6.4771-.2452,10.3354-.7612,6.9263-.9262,13.6566-2.6338,20.1808-5.1609,4.935-1.9116,9.6759-4.225,14.1475-7.0334,4.5281-2.8438,8.8159-6.0164,12.7847-9.645,4.9976-4.5692,9.4579-9.5896,13.2931-15.1402,3.3411-4.8354,6.1479-9.9913,8.4159-15.4331,4.8934-11.741,7.1984-23.9362,6.7713-36.6708-.2053-6.1238-1.0136-12.1268-2.4338-18.0848-2.2171-9.3014-5.9648-17.9254-11.0447-25.9964-4.4756-7.111-9.9184-13.406-16.2401-18.9202-6.1168-5.3354-12.8531-9.7548-20.2221-13.1911-5.0013-2.3322-10.1581-4.2258-15.5178-5.5484-8.4027-2.0736-16.9072-3.0289-25.5795-2.5904-4.4236.2237-8.8018.6988-13.1317,1.5619-9.9609,1.9855-19.3103,5.5608-28.0186,10.8329-6.0177,3.6432-11.5067,7.9405-16.4973,12.8755-4.3191,4.271-8.0797,9.0051-11.4576,14.0556-3.146,4.7039-6.1458,9.4899-8.4202,14.6831-1.4393,3.2866-2.7055,6.6374-3.7247,10.095-1.1902,4.0378-2.0082,8.149-2.4685,12.2995-.4518,4.074-.6443,8.1932-.3354,12.3121.1369,1.8251.169,3.6606.451,5.4709.5863,3.7644,1.2346,7.5111,2.2291,11.203.9438,3.5037,1.8222,7.0238,3.0069,10.4553,1.9715,5.7104,4.5851,11.1178,7.683,16.3042,2.4791,4.1505,5.2704,8.0826,8.4333,11.7184,5.6496,6.4943,12.0766,12.1132,19.3786,16.7251,5.2741,3.3311,10.8119,6.126,16.6575,8.255,9.6828,3.5265,19.7036,5.3001,31.3238,5.3285Z"/>
    </g>
    <g>
      <path class="cls-1" d="M123.5966,127.5332c-1.0869.9282-2.2022,1.6126-3.5136,1.9253-1.688.4024-3.312.3698-4.8083-.6643-.9475-.6549-1.2638-1.6442-1.4791-2.687-.0806-.3906-.0803-.7978-.1198-1.1972-.0473-.478-.2502-.5918-.6313-.3205-.2142.1524-.3876.3645-.5703.5584-1.2652,1.3428-2.4068,2.7971-3.9539,3.8698-1.4099.9776-4.3281,1.7347-5.845,1.3246,0,.4727-.0012.9273.0002,1.3819.0074,2.2913-.1601,4.5669-.7898,6.7788-.4332,1.5216-1.2348,2.8126-2.5332,3.7886-1.0779.8102-2.0535,1.7585-3.1452,2.5478-1.1881.8589-2.4344,1.6445-3.6969,2.3916-2.4128,1.4279-4.9762,2.5459-7.6703,3.3077-1.4585.4124-2.9405.8142-4.49.8094-.9557-.003-1.9155.1406-2.8666.0894-2.5449-.137-4.8429-.9231-6.8391-2.5946-1.2471-1.0443-2.1903-2.3087-2.9378-3.6984-.9245-1.7186-1.4935-3.5478-1.5098-5.5675-.0226-2.809.4376-5.5138,1.2799-8.1709.0886-.2795.2919-.5227.442-.7828l.2527.0864c-.1152.6607-.2116,1.3253-.3493,1.9813-.3145,1.4991-.6643,2.9876-.6031,4.5409.0792,2.0088.7744,3.7839,1.9181,5.4102,1.6817,2.3913,4.0635,3.6853,6.8739,4.0962,1.5092.2206,3.0777.0901,4.6168.0386,2.2705-.0761,4.4375-.7043,6.5613-1.4498,2.7297-.9582,5.3339-2.2072,7.7133-3.8561,1.6571-1.1483,3.2224-2.4308,4.8073-3.6805.4391-.3462.8007-.7905,1.1991-1.1885.5663-.5657.4946-1.2916.4158-1.9706-.1799-1.5502-.494-3.0777-1.0929-4.5298-.3108-.7536-.6269-1.506-.9733-2.2435-.32-.6812-.4801-1.3601-.2532-2.1071.2416-.7952.439-1.604.6833-2.3983.0524-.1704.2233-.3044.3396-.4552.1532.1364.3491.247.4509.4147.2167.3568.3929.7394.5707,1.1184.4613.9835,1.2907,1.3611,2.3153,1.4667,1.6476.1698,3.2282-.1271,4.6942-.8333.8885-.428,1.7266-1.0199,2.473-1.6696,1.1955-1.0406,2.2894-2.1973,3.441-3.2894.3351-.3178.7012-.6461,1.2957-.3516-.086.5765-.1686,1.1672-.2631,1.756-.2696,1.6797.7356,2.7205,1.9038,3.153,2.7019,1.0003,5.2258.4832,7.3777-1.2781,1.4768-1.2087,2.6704-2.762,4.0005-4.1519.5888-.6153,1.2379-1.176,1.7971-1.816,1.372-1.57,3.0848-2.7122,4.7862-3.8634.7486-.5065,1.5811-.8888,2.3726-1.3326.1961-.11.3809-.24.6328-.4002-.1396-.0234-.1897-.0385-.2399-.0392-2.7893-.0384-5.5787-.0721-8.3679-.1142-2.0485-.031-4.0974-.0588-6.1451-.12-.5093-.0152-1.015-.1539-1.6167-.251.5073-1.4324.9548-2.7452,1.4496-4.0399.0748-.1956.3479-.3759.5668-.446,1.3598-.4358,2.7373-.8167,4.0956-1.2568,1.7709-.5738,3.5428-1.1495,5.2862-1.7998.6447-.2405.989-.849.9926-1.5614.0122-2.426.0463-4.8531-.0093-7.278-.0407-1.7765-.2032-3.5504-.322-5.3247-.1027-1.535-.2214-3.0689-.3311-4.6034-.1123-1.571-.2266-3.142-.3325-4.7134-.1159-1.7189-.2272-3.4381-.3328-5.1576-.081-1.3186-.1137-2.6415-.2395-3.9556-.0666-.6961-.2152-1.4041-.4594-2.0571-.1807-.4833-.1923-.9354-.0454-1.37.3357-.9929.7353-1.9646,1.1256-2.9382.0544-.1358.2026-.234.3074-.3496.1078.1254.2579.2337.317.3789.7098,1.7428,1.4159,3.4873,2.1024,5.2395.4088,1.0435.8053,2.0934,1.1582,3.1567.1456.4387.1624.9201.2573,1.5015-1.0002-.3001-1.5042-.9951-2.1862-1.6053,0,.5738-.028,1.1494.0074,1.7211.0405.6546.1599,1.3041.2053,1.9586.1243,1.7924.2221,3.5867.341,5.3796.1029,1.553.2241,3.1047.3302,4.6575.08,1.1704.184,2.3406.2153,3.5125.0621,2.3256.175,4.6558.0896,6.9776-.0719,1.9547-.2286,3.9219-.8509,5.8135-.4679,1.4223-1.1252,2.735-2.1286,3.9759,1.2305,0,2.3705-.0139,3.5099.0034,1.5487.0236,3.0971.0672,4.6454.1096,1.1042.0302,2.2081.0695,3.312.1102.8819.0325,1.7645.1196,2.6449.0998,1.4852-.0333,2.9695-.1231,4.4531-.2067.7985-.045,1.0283.2357.7706,1.0104-.2514.756-.5658,1.4957-.7551,2.2665-.2059.8384-.7416,1.1804-1.5195,1.3942-3.1376.8621-6.2828,1.7047-9.3878,2.6741-2.2687.7083-4.4388,1.7255-6.4078,3.0526-2.0795,1.4016-4.0126,3.0143-5.5807,5.0233.5463,1.1305,1.3942,1.8634,2.7167,1.7869,1.2469-.0721,2.3491-.5489,3.2942-1.3919,1.2073-1.0768,2.0509-2.412,2.8158-3.8127.1527-.2796.2636-.7255.6944-.6156.4512.1152.2634.5686.2307.8479-.1012.8645-.0705,1.6866.3317,2.4842.6092,1.2078,1.6154,1.7667,2.9215,1.8265.7577.0347,1.5191-.0159,2.2775.0107,1.8984.0666,3.8032.0738,5.6652.5365,1.9019.4726,3.3184,1.609,4.4462,3.2762.7775-.4173,1.5703-.8049,2.3257-1.2555,2.0866-1.2445,4.1779-2.4833,6.226-3.7892,1.0385-.6622,2.0311-1.4143,2.9612-2.2217.5691-.494,1.0635-1.1221,1.4402-1.7769.4229-.7353.2525-1.5481-.0944-2.3425-1.6692.5228-3.3874.3679-5.0846.3217-1.2011-.0327-2.3932-.3197-3.2748-1.2545-.4961-.526-.7568-1.1592-.7999-1.9135-.1467-2.5681.9177-4.5939,2.8111-6.197,1.527-1.2929,3.2514-1.3385,4.7915.0207,1.3042,1.151,2.2869,2.5319,3.0699,4.0616.2489.4862.453.6464.9549.3008.7872-.5421,1.6228-1.0136,2.422-1.5392.3844-.2528.4553-.6132.2308-1.0336-.5377-1.0067-1.0791-2.0119-1.5924-3.0311-.7898-1.5681-1.5566-3.1478-2.3349-4.7217-.1268-.2564-.2011-.6425-.4062-.7367-.5884-.2705-.67-.7088-.5985-1.2473.1411-1.0625.2862-2.1246.4471-3.1842.0274-.1803.1419-.3474.2495-.5981.536.4401,1.0114.8021,1.4545,1.2001.9433.8473,1.8706,1.7125,2.802,2.5729.094.0868.1872.1819.2537.2899.2364.3839.1334.598-.3179.5788-.5388-.023-1.075-.1101-1.6731-.1761.4575.7639.9364,1.4885,1.3394,2.2532.6922,1.3137,1.5679,2.5793,1.7589,4.0775.1443,1.1321.127,2.3105-.006,3.4463-.2112,1.8043-.893,3.4577-2.2567,4.7156-.5651.5213-1.2747.8943-1.9458,1.2884-.2695.1582-.3129.3329-.3384.6122-.2379,2.6115-1.092,4.9696-2.8005,7.0093-1.272,1.5185-2.8088,2.7264-4.4235,3.8164-2.0868,1.4087-4.2727,2.6701-6.4013,4.018-.1476.0935-.2533.3819-.2447.5736.0867,1.9427-.2539,3.8136-.8996,5.6358-.6795,1.9175-1.7177,3.6242-2.9662,5.2291-1.4909,1.9166-3.2783,3.5115-5.2566,4.871-2.074,1.4253-4.3797,2.3696-6.8656,2.8831-1.6757.3461-3.3617.3931-5.0445.3-2.4198-.134-4.7482-.7002-6.7896-2.0804-2.205-1.4909-3.5864-3.6087-4.2797-6.1442-.3426-1.2529-.5376-2.5576-.6739-3.8521-.1289-1.2239-.1565-2.4671-.1163-3.6982.0661-2.0213.3753-4.0138.9735-5.9543.1319-.4278.2337-.8648.3748-1.3926ZM126.8364,125.0831c-.3139.5385-.6301,1.0757-.9415,1.6157-1.4558,2.5244-2.3275,5.1619-2.0287,8.1577.1675,1.6799.4104,3.3057,1.0324,4.8747.6297,1.5883,1.5858,2.953,2.9215,3.9993,1.9606,1.5359,4.2756,2.205,6.7195,2.3668,1.4835.0982,2.9744.0799,4.4639-.1848,2.6502-.471,5.0679-1.5154,7.3477-2.8782,2.0482-1.2243,3.8693-2.7442,5.4083-4.5933,1.0001-1.2016,1.8725-2.4519,2.1112-4.0388.1132-.7524-.0199-1.4742-.32-2.2085-.1904.0943-.3343.1664-.4788.2371-.9963.4873-1.9563,1.0819-2.9982,1.4345-1.3295.4499-2.7218.7182-4.0928,1.0401-4.2266.9925-8.4538,1.983-12.6868,2.9474-.6032.1374-1.2403.126-1.8617.1834-.0199-.0734-.0399-.1468-.0598-.2203,6.4418-2.804,12.8836-5.608,19.3254-8.4119-.0124-.0926-.0249-.1852-.0373-.2777-1.204-.2261-2.3995-.5484-3.614-.6543-1.5583-.1359-3.132-.0892-4.6984-.1401-.4733-.0154-.9542-.0498-1.415-.1511-1.4616-.3214-2.5004-1.1928-3.1457-2.5368-.311-.6478-.6126-1.3001-.9326-1.9804-.1056.1198-.2159.2022-.2688.3122-.3134.6507-.5736,1.3303-.927,1.9578-.6191,1.0992-1.4322,2.0414-2.5934,2.5945-.829.3948-1.7309.5489-2.6369.3502-.5537-.1214-1.1246-.2999-1.6058-.5891-1.1662-.701-1.5517-1.9094-1.9869-3.2061ZM165.0904,112.3197c.0505-.0701.101-.1402.1515-.2103-.2449-.1898-.5339-.3429-.7269-.5758-.7992-.9644-1.7785-1.4621-3.0519-1.3114-1.0356.1225-1.4725.6504-1.0983,1.4326.1181.2468.4427.4623.7188.5545,1.3206.441,2.6671.2277,4.0068.1104Z"/>
      <path class="cls-1" d="M105.5463,92.8283c-.2501.3808-.4636.7121-.6833,1.0391-1.1107,1.6526-2.5678,2.8753-4.5664,3.1858-1.5663.2433-3.1587.1469-4.4937-.8891-.8318-.6455-1.1575-1.6058-1.3442-2.6061-.07-.3749-.0887-.7604-.1163-1.142-.0401-.5555-.2484-.6925-.6638-.3549-.4204.3417-.7886.7517-1.1553,1.1541-.4804.5271-.9166,1.0954-1.4079,1.6115-1.0582,1.1114-2.3144,1.9522-3.7354,2.5203-1.55.6196-3.1595.6776-4.8048.4472-2.9205-.4091-5.3784-1.7749-7.6361-3.5819-.0428-.0342-.0864-.0679-.1326-.0972-.3621-.2298-.7323-.6486-1.0854-.6348-.3637.0142-.7339.4237-1.0611.7067-1.2604,1.0903-2.5712,2.1335-3.741,3.3152-2.3055,2.3288-4.1118,5.0042-5.0184,8.1918-.2952,1.038-.4577,2.1292-.5439,3.207-.0916,1.145-.1251,2.3154.0089,3.4519.1345,1.1402.42,2.2824.797,3.369.4667,1.3449,1.2049,2.5632,2.2087,3.6032.2171.2249.4015.279.6678.1156,1.8712-1.1478,3.7707-2.2518,5.6113-3.4467,1.9703-1.2791,3.7854-2.7663,5.3606-4.5176.5383-.5985.8967-1.2167.8198-2.1831-.1825-2.294-.8568-4.4063-1.8069-6.4634-.1598-.3459-.285-.7091-.4618-1.0457-.4296-.8183-.1196-1.594.1133-2.3721.2315-.7732.4865-1.5394.7817-2.4674.223.2742.3614.403.4488.5602.2031.3652.382.744.5702,1.1175.5046,1.0019,1.3022,1.5597,2.4367,1.5989,1.1592.0401,2.3227.0258,3.4769.1232,1.6509.1393,3.3269.2176,4.9337.5806,1.8574.4196,3.2937,1.5749,4.2733,3.2535.7291,1.2495.9446,2.5931.9846,4.0243.0773,2.7657-.5528,5.3477-1.8004,7.7889-1.153,2.2559-2.7396,4.1891-4.6064,5.8868-1.3615,1.2382-2.836,2.346-4.4631,3.2058-1.5872.8387-3.2785,1.4325-5.0434,1.814-1.7055.3687-3.4326.4101-5.1534.3106-2.3635-.1366-4.6232-.7189-6.6548-1.9968-.4129-.2597-.7821-.5889-1.0895-.8235-1.7236.8084-3.3336,1.7251-5.0542,2.3237-1.6303.5672-3.3799.7867-5.0711,1.1842-2.5536.6002-5.0956,1.2512-7.6552,1.8238-1.5022.3361-3.0286.5647-4.5456.8333-.1334.0236-.2778-.0145-.4572-.1289.3615-.2112.706-.4614,1.0871-.6273,2.4239-1.0555,4.8576-2.0885,7.2847-3.1368,1.9463-.8407,3.8914-1.6843,5.8303-2.5418,1.8733-.8285,3.7384-1.6757,5.606-2.5173.1797-.081.351-.1805.5247-.2707-2.2796-5.4218-2.0841-10.9242-.6305-16.4252,1.4688-5.5585,4.549-10.1352,9.094-13.8846-1.0564-.8469-2.0265-1.6702-3.0471-2.4252-.5794-.4286-1.2335-.76-1.8687-1.1082-.7046-.3863-1.4303-.3737-2.149-.0214-.5853.287-1.1643.5871-1.7536.8657-.1153.0545-.3414.0946-.3825.0402-.0837-.1107-.134-.3066-.097-.4391.3257-1.1661.6002-2.3554,1.0487-3.4742.1968-.4908.7005-.9322,1.1711-1.2258,1.3983-.8723,2.9912-1.2895,4.5749-1.6601,1.4941-.3497,3.0211-.5383,4.5701-.4698,1.8973.0839,3.7746.2874,5.625.7344,1.5834.3825,3.0854.9293,4.398,1.9275.517.3932.7037.8124.4726,1.4103-.3655.9459-.7609,1.8811-1.1788,2.805-.0857.1894-.3028.3542-.4983.4538-1.7185.8752-3.4459,1.7331-5.2118,2.6167.6962.7228,1.5715,1.1329,2.4516,1.4846,1.371.5479,2.822.8816,4.2945.8866,2.0027.0068,3.9278-.3955,5.6442-1.5345,1.7339-1.1505,3.0944-2.7061,4.5742-4.1335.1695-.1635.3454-.3377.5512-.4422.2633-.1337.5599-.2017.9913-.349-.1165.7838-.1952,1.3742-.2932,1.9613-.2848,1.7051.7818,2.7454,1.9289,3.1899,1.6246.6294,3.2444.6296,4.8403-.0214.9881-.4031,1.7307-1.168,2.3436-2.0194.7415-1.0301,1.4101-2.1125,2.1155-3.1687.1006-.1506.2086-.3146.3537-.412.1431-.0961.4431-.2058.4896-.1515.1336.1562.2646.4073.2336.5941-.0883.5321-.2438,1.0548-.398,1.5738-.2514.8459.1499,1.4624.7439,1.9486.982.8037,2.1189,1.0922,3.3673.7545.254-.0687.5234-.196.7034-.3778.1031-.104.1255-.4821.0389-.5493-.7504-.5823-.6472-1.2846-.3822-2.048.2371-.683.4222-1.3841.6591-2.0672.0616-.1777.2311-.3181.351-.4756.1677.1324.3955.2307.4934.4028.7173,1.2621.7918,2.6279.6181,4.0352-.1304,1.0566-.4269,2.0577-.9371,2.9887-.6798,1.2405-1.619,2.13-3.073,2.4471-1.8982.4139-3.104-.4771-4.0592-1.9563-.157-.2431-.3342-.473-.5549-.7832ZM80.2977,104.8001c-.0936,1.6922-.211,3.4871-.2868,5.2837-.0655,1.5527-.5189,2.9933-1.1862,4.3743-.6685,1.3836-1.7307,2.4482-2.9314,3.3621-1.3417,1.0212-2.7299,1.9818-4.107,2.9559-.5025.3554-1.031.6741-1.599,1.0429,2.0111.7323,3.9808.9839,5.9876.838,1.2307-.0895,2.4924-.1617,3.67-.4918,3.0641-.8589,5.8659-2.2746,8.3595-4.2894,1.6496-1.3329,3.1439-2.7969,4.2514-4.6132.7704-1.2635,1.1202-2.6056.6848-4.1042-.5673-1.9527-1.9733-2.9859-3.7789-3.6002-1.606-.5464-3.2899-.5909-4.9621-.6632-1.3729-.0593-2.748-.0656-4.1021-.0949ZM71.7769,86.0261c.8973.7939,1.7902,1.593,2.6985,2.3743.0969.0833.3236.1338.4224.0785,1.073-.6008,2.1324-1.2258,3.2716-1.8885-2.1164-1.0145-4.253-.9063-6.3925-.5642Z"/>
      <path class="cls-1" d="M32.3575,88.4398c-.1997.5733-.3542,1.1675-.6072,1.7162-.8662,1.8783-1.6052,3.7962-2.1327,5.8018-.4479,1.703-.6534,3.4342-.4834,5.166.1944,1.9797.9007,3.7754,2.303,5.2889,1.3163,1.4207,2.9389,2.2515,4.7768,2.5369,1.3422.2084,2.7439.1007,4.1149.0397,1.8792-.0837,3.6882-.5884,5.4431-1.2221,1.7009-.6142,3.3603-1.3468,5.0233-2.0614,2.7765-1.193,5.3142-2.8232,7.8866-4.3854.6344-.3852,1.2225-.8526,1.8041-1.317.4942-.3945.4517-.9063-.1143-1.2028-.4605-.2412-.9566-.4407-1.4597-.5699-2.3811-.6115-4.7812-1.1516-7.1515-1.8014-1.2149-.333-2.3628-.9026-3.0019-2.0777-.2754-.5065-.4816-1.1079-.5157-1.6784-.1516-2.5366.5761-4.9027,1.6668-7.1454,1.3848-2.8474,3.2012-5.4078,5.591-7.5087,1.1537-1.0142,2.3552-1.9963,3.9078-2.3879,1.2162-.3068,2.2048.1286,2.7666,1.2633.819,1.6542.6913,3.2816-.1785,4.8718-.1191.2178-.3289.386-.5877.681-.2362-.4217-.4685-.7593-.6247-1.1291-.5676-1.344-1.6622-1.4845-2.8111-.997-1.6636.706-2.9208,1.9572-4.1175,3.2865-1.0897,1.2104-2.091,2.4783-2.9401,3.8652-.293.4785-.5726.9691-.8111,1.4764-.4392.9343-.2242,1.6284.6476,2.1516,1.431.8587,3.0336,1.247,4.6225,1.6793,1.8468.5024,3.7252.9292,5.5128,1.5955,1.2875.4798,1.9625,1.5804,2.0172,3.0401.0695,1.8567-.3548,3.5731-1.4845,5.0233-.722.9267-1.6233,1.7373-2.5393,2.4832-1.1095.9035-2.2842,1.739-3.4929,2.5061-2.4864,1.578-5.0922,2.9423-7.8429,4.0053-1.2968.5012-2.6069.9899-3.9469,1.351-1.2893.3474-2.6185.5677-3.9425.7579-.8508.1223-1.726.1457-2.5866.1138-1.7439-.0647-3.3894-.49-4.902-1.4187-2.3426-1.4383-3.546-3.6098-4.1743-6.1972-.4582-1.8872-.414-3.8084-.2996-5.7065.162-2.689.7788-5.3097,1.8792-7.7813.6344-1.4249,1.3222-2.8378,2.3874-4.0155.0609-.0673.1351-.1225.2032-.1833.0648.0288.1296.0575.1945.0863Z"/>
      <path class="cls-1" d="M128.607,62.2087c-1.0454-.2168-1.3759-1.1105-2.1944-1.655.0533.8608.0897,1.5826.1447,2.3029.0697.9116.1378,1.8239.2371,2.7326.1226,1.1214.2815,2.2389.4156,3.3591.1256,1.0497.2327,2.1015.3601,3.151.1338,1.1015.2891,2.2004.422,3.302.1267,1.0499.2411,2.1013.3529,3.1529.1505,1.4146.3183,2.8281.4312,4.2459.0818,1.0263.1206,2.0589.1171,3.0885-.0048,1.4188.0691,2.8578-.1388,4.2512-.2845,1.9063-.6983,3.794-1.4797,5.5961-.8864,2.0443-2.064,3.8846-3.5755,5.4884-1.2128,1.2868-2.5959,2.4268-4.2376,3.1367-1.2067.5217-2.473.9199-3.7368,1.2912-1.2476.3666-2.521.6507-3.7917.932-.7946.1759-1.6044.2845-2.4096.4096-.1114.0173-.235-.0445-.353-.0697-.0245-.0561-.049-.1122-.0735-.1683.5021-.3284.996-.67,1.5075-.9829,3.2635-1.9966,6.5572-3.9454,9.7857-5.997,1.6095-1.0228,2.8959-2.4408,4.1435-3.8862.8423-.9757,1.5647-2.0074,2.0226-3.2103.1267-.3328.2302-.704.2206-1.0542-.0461-1.6899-.1241-3.3793-.2113-5.0677-.0548-1.0606-.1226-2.1215-.2264-3.1782-.1175-1.1959-.2883-2.3864-.4234-3.5807-.0903-.7983-.1474-1.6003-.2398-2.3983-.1297-1.1207-.2833-2.2387-.4173-3.3589-.1256-1.0499-.234-2.1019-.3594-3.1519-.1359-1.1385-.2878-2.2751-.423-3.4137-.0903-.7609-.1626-1.5238-.2449-2.2857-.1429-1.3229-.2943-2.6449-.428-3.9687-.0589-.5832-.0329-1.1788-.1348-1.7529-.1606-.9054-.4137-1.794-.5921-2.6968-.0707-.3578-.1297-.7538-.0493-1.0986.2256-.967.5177-1.9191.8062-2.8702.0527-.1738.2116-.3153.3215-.4718.1376.1277.3245.23.4051.387.7892,1.5365,1.595,3.0662,2.3261,4.6305.5509,1.1787,1.017,2.3984,1.4832,3.6143.1394.3636.1521.7759.2373,1.2456Z"/>
      <path class="cls-1" d="M155.4071,69.8365c.0848,1.0777.1557,2.02.2344,2.9616.0441.5276.1112,1.0534.1509,1.5813.1166,1.5517.2171,3.1046.3378,4.656.1404,1.8049.2941,3.6088.4448,5.4129.108,1.2932.2241,2.5856.33,3.8789.1522,1.8595.2999,3.7193.4464,5.5792.0776.9852.1767,1.9697.2158,2.9565.0613,1.5473.1513,3.0988.0957,4.6437-.0497,1.3812-.1755,2.7775-.4551,4.1283-.4208,2.0327-.9563,4.0458-1.5358,6.0402-.4274,1.4709-1.1292,2.8322-2.1592,3.9928-.7285.8209-1.7299,1.21-2.725,1.5354-1.8538.6062-3.7371,1.1225-5.6101,1.6695-.1104.0322-.2383.0042-.4177-.1166.2819-.2402.5473-.5037.8486-.7166,1.3921-.9839,2.8309-1.9056,4.1838-2.9402,1.805-1.3804,3.5306-2.8558,4.8403-4.7543.5609-.8131.7344-1.7257.824-2.6675.0953-1.0017.2061-2.0068.2103-3.0108.0041-.9862-.1155-1.9731-.1841-2.9595-.0406-.5845-.0935-1.1681-.1303-1.7529-.0783-1.2445-.1247-2.4916-.2296-3.7338-.1613-1.9101-.3686-3.8163-.5409-5.7255-.0938-1.0393-.1436-2.0825-.2346-3.122-.1354-1.5458-.2945-3.0894-.4341-4.6348-.0856-.9473-.1499-1.8966-.2306-2.8444-.1441-1.6934-.3051-3.3854-.4367-5.0798-.0951-1.2246-.1252-2.4546-.2367-3.6774-.1404-1.5403-.1291-3.1374-.5674-4.5945-.376-1.2498-.2089-2.3036.1802-3.4231.1898-.5462.4108-1.0821.6378-1.6142.0484-.1135.1837-.1898.2789-.2833.0794.0898.1877.1669.2337.2715.5333,1.2108,1.0745,2.4185,1.5793,3.6412.6906,1.6727,1.3532,3.3569,2.023,5.0381.0798.2003.1712.4109.1807.6202.0092.2023-.0805.4091-.1267.614-.1732-.0805-.3726-.1294-.515-.2472-.4666-.3861-.9124-.7973-1.5065-1.323Z"/>
      <path class="cls-1" d="M105.1013,61.3516c-1.0364.4469-1.9279-.1473-2.9778-.1098.4394.6124.7973,1.1742,1.2166,1.6857,3.6381,4.4376,7.9236,8.2527,11.9087,12.357.921.9485,1.9096,1.834,2.7962,2.8128,2.1067,2.326,4.0598,4.7704,5.3993,7.6404.897,1.9219,1.3023,3.9504,1.1101,6.064-.114,1.2539-.3569,2.496-.5418,3.7435-.0661.0039-.1322.0077-.1982.0116-.1559-.7429-.3793-1.4789-.4549-2.2299-.2095-2.0795-.8919-3.9994-1.9198-5.7914-1.0443-1.8206-2.2841-3.5132-3.7519-5.0195-1.6336-1.6764-3.299-3.3223-4.9634-4.9683-1.1418-1.1292-2.3049-2.2367-3.4598-3.3526-1.035-1.0001-2.1014-1.9697-3.1021-3.003-2.4558-2.5359-4.631-5.2902-6.3705-8.375-.5168-.9165-1.0377-1.8231-1.9093-2.49-.2514-.1924-.4027-.6582-.4089-1.0021-.0192-1.0655.0452-2.133.0949-3.1989.0176-.3766.2679-.48.6075-.2333,1.0284.7472,2.0452,1.5104,3.061,2.2747,1.0598.7974,2.1202,1.5943,3.1641,2.4123.2492.1953.4336.4733.7.7718Z"/>
      <path class="cls-1" d="M143.8545,106.283c.0797-.9614.1612-1.9227.238-2.8844.019-.2383.0314-.4777.0321-.7167.0034-1.1699.0376-2.3412-.0058-3.5095-.0858-2.3125-.2088-4.6238-.33-6.9348-.0566-1.079-.1449-2.1563-.2188-3.2344-.1114-1.6266-.2211-3.2532-.3347-4.8796-.1084-1.5524-.213-3.1052-.3335-4.6567-.1388-1.7868-.2983-3.572-.4385-5.3587-.0531-.6767-.0817-1.3554-.1144-2.0335-.1133-2.3485-.1812-4.7002-.3531-7.0443-.0842-1.1485-.1323-2.3144-.5894-3.4226-.1488-.3608-.0559-.886.0776-1.2855.3206-.9594.7272-1.8902,1.1097-2.8283.0427-.1047.1531-.1818.2321-.2717.0962.0927.2347.1678.2819.2809.4322,1.0353.8674,2.07,1.2653,3.1188.6413,1.6908,1.2704,3.3868,1.8713,5.0923.1888.5358.2705,1.1092.4012,1.6655l-.2162.1612c-.3311-.2458-.6811-.4704-.9881-.7434-.3103-.276-.5779-.5999-.8642-.9029-.0398.0234-.0795.0469-.1193.0703.04.8542.0646,1.7095.1248,2.5622.0475.6724.1605,1.3403.2058,2.0129.09,1.3362.1411,2.6751.2304,4.0114.1378,2.0643.293,4.1275.4429,6.191.1087,1.4967.2245,2.9929.3302,4.4898.1161,1.6447.2291,3.2897.3343,4.9351.0819,1.2812.1524,2.5631.2228,3.845.0423.7702.1308,1.5431.1015,2.3111-.1241,3.2535-.6139,6.4365-1.988,9.4281-.0997.2171-.2578.4075-.3887.6103l-.2191-.0787Z"/>
      <path class="cls-1" d="M176.552,127.187c.0512-.9254.1006-1.8508.1543-2.776.0265-.4567.0835-.9127.0875-1.3693.0118-1.3551.0452-2.7119-.0055-4.0652-.0735-1.9612-.2085-3.9201-.3271-5.8794-.062-1.0231-.1392-2.0455-.2198-3.0674-.1422-1.8046-.2937-3.6084-.438-5.4128-.0438-.5477-.0824-1.096-.114-1.6446-.0783-1.3553-.1354-2.712-.2299-4.0662-.1312-1.8793-.2907-3.7566-.4343-5.6351-.0447-.5848-.0855-1.1702-.1133-1.756-.0445-.9368-.0612-1.875-.1175-2.811-.1001-1.6635-.1946-3.3282-.3484-4.987-.0491-.5299-.4527-1.066-.3877-1.5589.1186-.9006.4494-1.7762.7248-2.6518.1243-.3953.3198-.7696.5007-1.1449.0479-.0993.161-.1672.2442-.2495.0813.0864.1958.1589.2387.2614.4401,1.0519.8899,2.1005,1.2954,3.1659.6431,1.6897,1.2699,3.386,1.8701,5.0913.1832.5206.2565,1.0799.3912,1.6697-.6106.0474-.8969-.2866-1.1959-.5871-.2971-.2986-.5846-.6067-.9973-.863.0408.8682.0665,1.7374.1275,2.6042.0447.6355.1588,1.2662.2016,1.9017.0901,1.3361.1341,2.6754.233,4.0108.1268,1.713.2913,3.4232.4342,5.1351.0472.566.0824,1.133.1155,1.7001.077,1.3188.1419,2.6384.2256,3.9567.1032,1.6266.2261,3.252.3299,4.8786.0829,1.2996.1525,2.6.2231,3.9004.0418.7702.1299,1.543.1009,2.3109-.1229,3.2543-.6292,6.4342-1.9953,9.427-.0961.2106-.2658.3877-.4012.5803-.0576-.0229-.1151-.0458-.1727-.0687Z"/>
      <path class="cls-1" d="M79.7631,71.4058c.6767-.4339,1.3362-.8977,2.0332-1.2959,1.9054-1.0888,3.8281-2.1472,5.739-3.2265.1826-.1031.3299-.2687.5113-.4201-.3855-.5487-.9626-.5229-1.4527-.5621-1.1546-.0923-2.3163-.1068-3.4756-.1253-1.1644-.0186-2.3294-.0041-3.6726-.0041.2098-.4104.345-.7446.5388-1.0405.5306-.8101.992-1.6984,1.6661-2.3696.4129-.411,1.1578-.6338,1.7699-.6708,1.531-.0925,3.0753-.0983,4.6064-.0072,1.0216.0608,2.0391.3084,3.0407.5468.7179.1708.9806.7603.5999,1.397-.6501,1.0871-1.3345,2.1623-2.1029,3.1672-.5772.7549-1.2151,1.5348-1.9953,2.0446-.9525.6223-2.0546,1.0553-3.1419,1.4224-1.5011.5067-3.0488.8753-4.5766,1.3031-.0293-.0529-.0585-.1059-.0878-.1588Z"/>
      <path class="cls-1" d="M44.9936,123.0927c-1.3471-.9323-2.5647-1.775-3.8208-2.6443.4451-.8984.8778-1.7751,1.3137-2.6503q.4666-.9367,1.3783-.3213c.4503.3038.9055.6004,1.3517.9101.4454.3093.8822.631,1.3764.9857.3267-.6867.6369-1.3519.9588-2.0113.3363-.689.4286-.7443,1.0457-.3362.9524.6298,1.8699,1.3128,2.796,1.9816.268.1936.3489.4296.176.7615-.4671.8967-.8922,1.8153-1.3616,2.7108-.1569.2993-.3922.2234-.6452.0435-.9449-.6717-1.9043-1.3231-2.8602-1.9793-.0709-.0487-.1567-.0757-.2633-.1258-.4803.8889-.9494,1.7571-1.4455,2.6753Z"/>
      <path class="cls-1" d="M99.0352,81.3636c-1.2423-.858-2.4624-1.7007-3.7428-2.585.5746-1.1602,1.1483-2.3185,1.7736-3.5811,1.2684.8533,2.452,1.6494,3.6749,2.472.3199-.6915.6433-1.377.9544-2.0679.2017-.448.452-.6307.9209-.2964.9303.6632,1.8807,1.2981,2.8176,1.9523.3201.2235.4533.5011.2478.8948-.4603.8817-.8852,1.7823-1.3682,2.651-.0567.102-.4462.1444-.5805.0579-.9598-.619-1.9083-1.2583-2.8274-1.936-.3266-.2409-.4237-.115-.5606.1537-.3297.6469-.666,1.2906-1.0106,1.9297-.0667.1237-.1835.2203-.2992.355Z"/>
      <path class="cls-1" d="M77.3544,74.4658c-1.2728,1.3673-2.7745,2.1341-4.5055,2.4009-.8452.1303-1.765.2606-2.5706.0629-1.6888-.4144-1.9291-1.3629-1.66-2.9087.2417-1.3887.8913-2.6342,1.7946-3.7325.0307-.0373.0253-.1042.0336-.143-.4282-.2739-.9203-.4715-1.2467-.8231-.6024-.6487-.553-1.4492-.1509-2.1818.6578-1.1986,1.5304-2.2225,2.7059-2.9565.3244-.2025.6738-.3412,1.0064-.0392.3987.3622.4448.8599.1643,1.3268-.0931.155-.165.3237-.2672.472-.1208.1752-.2639.335-.3985.503-.955-.8795-1.6701-.5973-2.1276.8088.7361.8327,1.8235,1.1562,2.5197.6773.5392-.3709,1.0135-.8368,1.5114-1.2666.1735-.1498.3312-.3179.5901-.5687.1095,1.3865-.3633,2.3606-1.3454,3.0843-1.5229,1.1222-2.788,2.4775-3.7203,4.1203-.6371,1.1226-.148,1.9162,1.3989,2.0233,1.9952.1382,3.9132-.2941,5.8134-.8349.0688-.0196.1388-.0392.2095-.0464.0538-.0055.1097.0086.2451.0218Z"/>
      <path class="cls-1" d="M171.5793,87.6712c.1618.1023.4381.2701.7073.4485.4356.2885.5355.6832.3042,1.1408-.2187.4328-.4694.8494-.6955,1.2543-.4521-.3515-.8792-.6835-1.342-1.0433-2.9624,3.8344-7.0553,5.6586-11.4254,7.0192-.0369-.057-.0739-.1141-.1108-.1711.4447-.2921.8803-.5995,1.3358-.8737,2.0488-1.2334,4.1346-2.4089,6.1438-3.7033,1.1532-.743,2.1855-1.6735,3.2579-2.5084-.648-.5278-1.2438-.9014-1.6924-1.4059-.5982-.6728-.505-1.5202-.1332-2.2559.5109-1.011,1.2809-1.8248,2.3728-2.2345.9069-.3403,1.6274.1501,1.5915,1.1247-.0378,1.0279-.1954,2.0515-.3141,3.2087ZM170.686,87.2568c0-.4695.0003-.7441,0-1.0186-.0015-1.1105-.4282-1.3485-1.4004-.812-.3961.2186-.4359.4893-.126.7484.4351.3638.9251.6618,1.5264,1.0822Z"/>
      <path class="cls-1" d="M99.0522,149.2243c1.0715-.7544,2.1336-1.3974,3.0685-2.1904.9181-.7786,1.7583-1.6657,2.5404-2.5839,1.146-1.3453,2.3365-2.6433,3.8755-3.5245,1.1194-.6409,2.3417-.7573,3.6335-.3812,1.3438.3913,1.957.0526,2.6516-1.1609.2127-.3716.496-.7027.747-1.0523.0703.0237.1406.0474.2109.0711-.0429.2957-.0394.6085-.1404.8828-.1294.3513-.0422.4811.3123.4989.4534.0227.9061.0584,1.5091.0984-.5478-.9729-.2864-1.6257.3419-2.2045.5198.2919.4945.806.4155,1.2589-.1292.7408-.3019,1.4849-.5622,2.1883-.2005.5417-.7923.764-1.3844.6494-.3002-.0581-.6309-.1006-.8782-.259-.413-.2645-.6355-.0929-.9299.191-.8338.804-1.799,1.2149-2.9816.8587-.3275-.0986-.6658-.1964-1.004-.2179-1.5542-.099-2.8398.5848-3.9509,1.5567-1.2206,1.0677-2.3724,2.2186-3.5041,3.3821-1.0037,1.0319-2.2534,1.5523-3.5906,1.9344-.102.0291-.2196.0038-.3797.0038Z"/>
      <path class="cls-1" d="M115.954,110.0961c-.0661,1.457-1.1676,1.7395-2.2057,2.1317-3.4313,1.2966-6.8556,2.6118-10.2777,3.9326-2.1362.8245-4.2637,1.6717-6.5642,2.5751.2933-.7458.4392-1.4233.8089-1.941.2189-.3066.787-.3724,1.2052-.5271,4.2368-1.5675,8.4744-3.1329,12.7133-4.6946,1.2542-.4621,2.5123-.9139,3.7716-1.362.1786-.0636.3742-.0794.5486-.1147Z"/>
      <path class="cls-1" d="M56.063,66.5768c.2379-.5962.4696-1.1949.7215-1.7851.0304-.0713.1653-.1068.2583-.1413,3.8323-1.4205,7.6654-2.839,11.4983-4.2579,2.0018-.741,4.0026-1.485,6.007-2.219.1617-.0592.3478-.0519.5114-.074-.0744,1.4417-1.1691,1.7293-2.2081,2.1204-3.4197,1.2874-6.8328,2.5924-10.2416,3.9085-2.1426.8272-4.2729,1.6862-6.4087,2.5309-.046-.0275-.092-.055-.138-.0825Z"/>
      <path class="cls-1" d="M44.4422,78.3356c.0553.3112.0715.5932.1577.852.2566.7702.5304,1.5352.8163,2.2951.4536,1.2053.2759,2.3287-.3075,3.4563-.4861.9396-1.7885.9926-2.397.1411-.2186-.3059-.3764-.6551-.5716-1.0017-.1845.3817-.344.8006-.5765,1.1741-.4933.7925-1.2948,1.1491-2.0309.954-.513-.1359-1.1588-1.118-1.1989-1.8387-.0428-.7694-.0606-1.5406-.1244-2.3081-.0151-.1812-.2014-.342-.2545-.5277-.0814-.2847-.229-.6225-.1439-.8664.1389-.3978.4267-.7502.687-1.095.0746-.0988.3125-.1827.4011-.135.1104.0594.1991.261.2016.4029.0172.962.0026,1.9244.0142,2.8866.0026.2134.0415.4353.1107.6372.1481.4314.315.8673.8462.9643.5551.1014.9222-.214,1.2674-.5833.5553-.594.4954-1.3197.3979-2.0266-.0736-.5332-.2819-1.0464-.381-1.5777-.1132-.6071.1195-1.1255.6601-1.6087.1797.7022.3879,1.3986.5301,2.1083.1175.5864.183,1.1866.2248,1.784.0591.8447.7241,1.442,1.5555,1.3508.548-.0601.7263-.3987.5054-.8958-.3373-.7591-.6813-1.5177-.966-2.2971-.2918-.7992-.045-1.7213.576-2.2448Z"/>
      <path class="cls-1" d="M102.788,110.2663c-.2704-.9476-.4762-1.845-.786-2.7049-.3174-.881-.7284-1.7291-1.1156-2.5838-.1335-.2947-.3561-.3963-.6708-.2002-.4859.3029-1.0134.0478-1.7342-.6903-.4061-.416-.2489-.8298-.0097-1.2459.0633-.1101.1447-.2097.2073-.3201.5949-1.0496,1.2867-1.1239,2.1967-.2721.9548.8938,1.4293,2.0446,1.7936,3.2538.1749.5806.2873,1.18.5337,1.7785.1574-.7547.2853-1.517.4788-2.2624.3115-1.1999.4575-2.4569,1.2721-3.4857.4681-.5912.8903-.8702,1.3939-.7478.4205.1023,1.2115.9466,1.1973,1.4026-.0143.46-.1386.9246-.272,1.37-.0866.2891-.2801.3422-.5068.0629-1.0092-1.2435-1.5751-.8457-1.9583.4374-.418,1.3998-.6627,2.8504-1.0329,4.2658-.1535.587-.4267,1.1443-.6696,1.7047-.045.1037-.2056.1573-.3176.2375Z"/>
      <path class="cls-1" d="M114.6424,56.6667c-.4727-.2158-.8477-.3992-1.2342-.5537-.0814-.0325-.2151.0221-.3079.0694-.4218.2153-.9766.3231-1.0181.9168-.0222.3168.8707.8317,1.4.8959.6719.0815,1.1894-.2593,1.7225-.5807.5964-.3597,1.2025-.7034,1.8551-.9961-.06.8515-.2471,1.5655-1.0127,2.0528-1.666,1.0605-3.2982,2.174-4.945,3.2647-.1473.0975-.3005.1862-.4645.2874-.1265-1.2116.6426-1.8354,1.5089-2.4645-.2753-.1236-.5142-.2045-.7262-.3306-.9078-.54-1.1291-1.2078-.6486-2.1581.6241-1.2345,1.5107-2.2554,2.7911-2.8293.3316-.1486.842-.1252,1.1804.0236.4625.2034.4521.746.3564,1.1762-.0999.449-.32.8713-.457,1.2262Z"/>
      <path class="cls-1" d="M165.8646,82.0998c-.1062-1.1537.616-1.7905,1.4949-2.4073-.1783-.0942-.3233-.174-.471-.2485-1.2209-.6165-1.382-1.0476-.8648-2.2598.5345-1.2526,1.4767-2.2304,2.7289-2.8088.3432-.1586.8817-.1467,1.2267.0123.4726.2178.4506.7727.3316,1.2278-.1121.429-.3129.8349-.4747,1.251-.0606.0301-.1213.0602-.1819.0904-.1374-.1913-.2356-.465-.4219-.5537-.254-.1208-.6339-.2215-.8547-.1143-.4037.1959-.7399.5405-1.0705.8584-.0259.0249.1736.3883.3343.4864,1.1399.6961,1.5707.6432,2.7566-.0727.6004-.3624,1.2033-.7205,1.8238-1.0917.1761.5821-.1613,1.5732-.6408,1.8972-1.8027,1.218-3.6178,2.4179-5.4307,3.6208-.0857.0568-.195.0779-.286.1128Z"/>
      <path class="cls-1" d="M100.4019,75.7044c-1.3674-.9301-2.6162-1.7795-3.8864-2.6435.4939-1.0177.9605-1.9776,1.4254-2.9383.2111-.4362.4379-.6244.9232-.2576.9379.7091,1.9218,1.3571,2.883,2.0357.2823.1993.3228.4453.1604.7638-.496.9732-.9713,1.9569-1.5056,3.0398Z"/>
      <path class="cls-1" d="M172.5175,126.3803c-1.1963-.8134-2.3518-1.5888-3.4894-2.3895-.1067-.0751-.1868-.3497-.1339-.4645.4332-.9391.8887-1.8686,1.3655-2.7864.1497-.2881.3855-.4088.7244-.1707,1.0206.7173,2.0628,1.4038,3.0826,2.1221.1041.0733.1913.3027.1561.421-.3534,1.1892-.9637,2.2452-1.7054,3.2679Z"/>
      <path class="cls-1" d="M83.8356,135.3909c-1.1928-.8203-2.2987-1.6073-3.4365-2.3452-.2985-.1936-.3117-.3353-.1711-.6083.4406-.8554.8698-1.7166,1.2989-2.5779.1981-.3976.41-.552.8476-.2352.9806.7099,1.9996,1.3667,2.9903,2.0631.1067.075.2113.2919.1795.404-.3402,1.1976-.9643,2.2498-1.7087,3.2994Z"/>
      <path class="cls-1" d="M140.2369,89.8567c0-.6007-.0245-1.2025.0044-1.8018.1053-2.1866-.8308-3.9356-2.2632-5.484-.3865-.4178-.7755-.8337-1.1463-1.2651-.0851-.099-.1772-.2967-.1341-.3837.2371-.4795.5152-.9387.7912-1.426,2.8008,2.04,3.8328,4.7842,3.6225,8.0551-.0525.8171-.1999,1.6532-.7041,2.3384-.0568-.0109-.1135-.0218-.1703-.0327Z"/>
      <path class="cls-1" d="M150.2384,89.2369c0-.7859-.022-1.4085.004-2.0291.0901-2.1449-.8404-3.8595-2.2341-5.3851-.3963-.4338-.8007-.8604-1.1839-1.3055-.0843-.098-.1698-.2986-.1254-.3865.2407-.4758.522-.9311.7916-1.3973,4.1011,2.7466,4.2887,8.4697,2.7477,10.5035Z"/>
      <path class="cls-1" d="M182.9102,107.1911c0-.6194-.021-1.2396.0038-1.858.0867-2.1637-.8464-3.895-2.2643-5.428-.3863-.4176-.7753-.8331-1.146-1.2643-.0851-.0989-.177-.2969-.1338-.3837.2381-.4792.5171-.938.7839-1.407,3.9956,2.6262,4.354,8.2811,2.7565,10.341Z"/>
      <path class="cls-1" d="M118.7861,62.9633c-.3156,1.05-.6375,2.0982-.9451,3.1506-.2829.9679-.4688,1.9522-.383,2.9672.0586.6934.3923,1.4223,1.0442,1.2251.3141-.095.5856-.3874.831-.6353.1974-.1993.3265-.4662.5333-.6817-.1038,1.1912-.3556,2.3338-1.2657,3.1944-.3489.3299-1.327.165-1.5838-.2639-.2162-.3612-.4016-.7911-.4342-1.2037-.1797-2.2746.3514-4.4075,1.3951-6.4241.2376-.4591.4553-.9285.6821-1.3931.0421.0215.0841.0429.1262.0644Z"/>
      <path class="cls-1" d="M161.4758,72.9682c-.2616.8208-.5469,1.635-.7791,2.4641-.3338,1.1916-.6877,2.3856-.5665,3.6491.0706.7361.4201,1.4229,1.043,1.2273.3147-.0988.5869-.3866.8328-.6342.1977-.1991.327-.4662.5338-.6819-.1062,1.1889-.351,2.3348-1.2649,3.1913-.3843.3602-1.421.1385-1.655-.3435-.1928-.397-.3346-.8504-.3668-1.2885-.1646-2.2399.3982-4.3263,1.4233-6.3043.2295-.4429.4387-.8963.6572-1.3448l.1423.0654Z"/>
      <path class="cls-1" d="M71.2524,102.51c-.1798.5408-.3817,1.0754-.5352,1.6236-.4105,1.4656-.9468,2.9094-.826,4.4747.0528.6847.3846,1.4632,1.0686,1.2611.3012-.089.5671-.3643.7979-.6042.2048-.2129.3388-.4938.5499-.7211-.1186,1.1653-.348,2.285-1.2103,3.1553-.3401.3432-1.3284.247-1.6274-.1968-.2158-.3203-.4158-.7109-.448-1.0852-.1834-2.1338.2495-4.1645,1.159-6.0962.2966-.6299.6153-1.2494.924-1.8737.0492.0208.0985.0416.1477.0624Z"/>
      <path class="cls-1" d="M162.2436,129.9574c-.2634.877-.524,1.7548-.7909,2.6307-.3405,1.1176-.6609,2.2441-.5322,3.4258.041.3772.1905.7726.3943,1.0938.2172.3423.7681.3437,1.0501.0385.3395-.3675.6365-.7743,1.0258-1.2554-.1834,1.2661-.4207,2.3903-1.2831,3.2638-.3391.3434-1.3326.2335-1.6288-.2117-.214-.3217-.4128-.7123-.4443-1.0868-.1794-2.1345.2524-4.1658,1.1669-6.0966.2956-.624.6101-1.2391.916-1.8582.042.0187.084.0374.1261.0561Z"/>
      <path class="cls-1" d="M58.9991,131.6402c-.3156,1.0503-.6371,2.0988-.9452,3.1513-.2833.9679-.4691,1.9525-.3823,2.9673.0634.7411.4204,1.4204,1.0433,1.2254.3144-.0984.5855-.388.8313-.6357.1975-.199.3274-.465.5315-.6813-.0902,1.1797-.3658,2.2949-1.2195,3.1724-.3651.3752-1.4554.1721-1.7011-.3293-.1938-.3955-.3328-.8496-.3649-1.2874-.1643-2.24.4007-4.3258,1.4253-6.3037.2291-.4423.4383-.8948.6566-1.3426.0417.0212.0833.0423.125.0635Z"/>
      <path class="cls-1" d="M120.4821,143.8498c-.1794.5404-.3806,1.0746-.5341,1.6222-.4111,1.4665-.9504,2.9113-.8263,4.4774.0574.724.4005,1.4582,1.069,1.2596.3012-.0895.5668-.3652.7974-.6055.2049-.2137.3391-.4953.5487-.7233-.1059,1.1898-.3651,2.3228-1.2417,3.1957-.3385.3372-1.3655.1634-1.6346-.2708-.1955-.3155-.3803-.6869-.4113-1.0471-.1807-2.0959.2457-4.0937,1.1066-6.0009.3015-.6678.6532-1.3129.982-1.9684.0481.0203.0962.0407.1443.061Z"/>
      <path class="cls-1" d="M42.0228,98.4189c-.0757,1.1694-.273,2.2875-1.1407,3.1455-.3646.3605-1.3522.2817-1.6577-.1969-.2168-.3396-.3985-.7546-.431-1.1496-.1378-1.675.0765-3.3166.7096-4.8809.4101-1.0134.8789-2.0031,1.3214-3.0035.0621.024.1241.048.1862.072-.1288.4109-.2604.821-.3859,1.2329-.4861,1.5959-1.0811,3.1722-.9566,4.8858.0524.7221.4125,1.4234,1.0391,1.2334.3026-.0917.5755-.35.8071-.5864.2084-.2127.3419-.4987.5085-.7523Z"/>
    </g>
  </g>
</svg>