<?xml version="1.0" encoding="UTF-8"?>
<svg id="AbuUbaidah" xmlns="http://www.w3.org/2000/svg" width="447.1316" height="434.1446" viewBox="0 0 447.1316 434.1446">
  <defs>
    <style>
      

      @import url('../../CSS/SvgStyling.css');

      
    </style>
  </defs>
  
  <g class="content evenOdd">

    <rect id="bg" class="bg" width="447.1316" height="434.1446"/>
    <path class="cls-1" d="M353.6603,162.1299c-.0261,0-2.5134-2.4532-2.6844-2.6144-1.9906-1.7694-4.3272-3.4584-7.0979-3.5594-1.5925-.0599-3.5691.3019-4.7454,1.4679-1.5562,1.5483-.4886,3.9013,1.3191,4.6652,3.6013,1.5689,9.3983.2009,13.2086.0407ZM371.0654,123.9455l6.3037-.181-14.9439-14.0952-3.3257,13.7125,3.6656,2.2325,13.2326,28.291-10.9888,6.334s-7.3633-13.3114-11.3245-15.9649c-3.4403-2.3126-8.9016-2.1517-12.4365.0199-3.6172,2.2116-7.9465,8.9676-9.2715,13.2707-1.2366,4.0016-.8546,9.3701,1.313,12.5068,2.1696,3.1169,7.3433,5.4695,11.6945,6.2334,4.3955.7844,14.6723-1.5682,14.6723-1.5682,0,0,1.4459,3.6597.5973,5.1875-1.7614,3.137-6.6556,9.893-11.1576,13.6735-6.3379,5.3483-18.8105,14.3358-26.8777,18.3374-6.6436,3.2979-15.889,5.4695-21.517,5.6909-4.3311.1605-9.169-2.0312-12.2515-4.3637-3.0583-2.3126-5.2962-5.9514-6.2393-9.6911-1.0375-4.0823-.6896-9.9735.0162-14.9001.8143-5.6704,4.866-19.0821,4.866-19.0821,0,0-2.435,4.504-3.2635,6.9175-1.2426,3.6189-3.2151,9.7719-4.1923,14.7985-.9792,5.0068-2.2862,10.1747-1.677,15.2622.6274,5.2477,2.2218,12.0434,5.4431,16.186,3.2234,4.1422,9.1952,7.359,13.8923,8.6863,4.5866,1.3272,9.7602.8447,14.2944-.6229,5.9478-1.9505,15.0967-6.0328,21.3843-10.9995,8.1335-6.4141,21.8991-19.8255,27.4065-27.5466,3.7903-5.3086,5.6381-18.7402,5.6381-18.7402,6.2535-2.1315,12.1128-9.9334,13.7676-15.4628,1.2688-4.2425,1.5665-10.7374.2594-15.8444-1.4538-5.6909-8.98-18.2778-8.98-18.2778Z"/>
    <path class="cls-1" d="M344.8875,127.2633l-7.4156,14.9196-57.1193,25.4356s-22.7114,6.6958-29.6666,5.952c-5.2982-.5829-12.0664-10.4961-12.0664-10.4961,0,0-9.6074,10.8178-14.1819,12.8487-4.0516,1.7896-10.1,1.729-13.2749-.6835-3.1749-2.4135-5.7728-13.7943-5.7728-13.7943,0,0-12.3298,14.5784-19.5987,17.0313-7.2688,2.4532-18.4647,2.775-24.0123-2.2719-5.5478-5.0475-9.2696-28.0298-9.2696-28.0298,0,0-7.1281,15.4628-19.0136,24.3301-8.8091,6.5749-22.5707,15.5833-30.7403,18.9609-5.6462,2.3328-13.7756,2.9762-18.2797,1.3272-4.4578-1.649-7.6167-6.6355-8.7447-11.26-1.3331-5.4493-.2333-15.1613.7379-21.4949.8747-5.7306,5.0851-16.6086,5.0851-16.6086,0,0-.378,5.9716-.6957,8.9474-.5147,4.8059-3.3539,15.3221-2.3887,19.8463.762,3.5988,4.5262,6.9976,8.1757,7.3594,4.9887.5028,15.8045-2.3324,21.7603-4.3431,5.045-1.7092,9.6073-4.7052,13.9767-7.7612,5.4371-3.7805,14.1577-9.5518,18.6416-15.0004,4.1382-5.0269,8.6543-11.2199,8.2581-17.7155-.8566-14.0952-16.838-51.3534-16.838-51.3534l2.2138-14.1359s12.155,16.2267,17.4392,32.1717c4.5967,13.8939,9.1771,51.415,9.1771,51.415,0,0,3.9351,12.2857,9.1027,13.7331,5.1696,1.448,15.2395-1.6281,21.909-5.0468,6.6898-3.418,14.7247-15.342,18.2416-15.523,3.5167-.2009.014,12.105,2.8592,14.3768,2.8453,2.2924,10.1644,1.7896,14.2139-.6636,4.7534-2.9153,11.3286-15.0603,14.3125-16.7295,1.2285-.7033-1.4497,7.8823,2.7447,13.0099,2.2521,2.7544,6.6094,3.9605,10.273,3.9006,5.4129-.0602,22.2026-4.3435,22.2026-4.3435,0,0-12.704-11.119-16.2187-16.6685-3.0946-4.9065-4.8016-11.0796-4.87-16.6891-.0685-5.6105.4262-12.7286,4.4578-16.9711,4.8378-5.0875,15.2193-13.4918,24.5693-13.5325,17.0149-.04,34.0359,12.1652,34.0359,12.1652,0,0-15.3239-.7444-22.8682.3419-9.2897,1.3673-28.5627,3.4588-32.8697,7.781-4.307,4.3233,2.5014,13.4925,7.0295,18.1375,5.3346,5.4695,15.33,15.0603,24.9795,14.6784,12.4145-.4826,49.5087-17.5536,49.5087-17.5536Z"/>
    <path class="cls-1" d="M93.5905,105.5066c-.1187-.2009-.3137.3224-.4746.4826-.5027.5028-1.0074,1.0052-1.4679,1.5487-1.2707,1.5079-2.4892,3.0563-3.581,4.7052-2.7849,4.1621-5.3587,8.9474-7.0216,13.693-.7338,2.0908-1.323,4.7251,1.1683,5.8312,5.3305,2.3725,15.7763-2.0713,19.8541-5.5701,1.3895-1.1862,4.122-3.2171,4.0959-5.3086-.0241-2.0508-2.2983-4.4027-3.4465-5.8511-2.9517-3.7199-6.1046-6.5951-9.1267-9.5309ZM115.6966,56.7063l-20.4192,33.3378-13.4599-12.1252,9.3519-.8238-19.0598-11.723-2.3385,12.6677,18.6617,22.5408s-9.1709,16.2664-11.045,23.1439c-1.5865,5.8107-1.7533,14.0952-.205,18.0564,1.3472,3.4588,5.8131,6.0924,9.5028,5.7707,3.9631-.3419,10.3694-4.5444,14.2843-7.8221,3.8365-3.2168,8.0369-7.0175,9.1971-11.8832,1.2728-5.3689.1327-14.7187-1.5563-20.2683-1.5161-4.9667-8.5859-13.0096-8.5859-13.0096l15.4747-25.2751.1971-12.5869Z"/>
    <path class="cls-1" d="M355.8219,264.8182c-4.9644,1.2872-8.7507,12.6478-8.7507,12.6478l27.3944.7437-25.0519,15.8649s15.9673-2.0915,22.2147-6.5749c6.2453-4.4841,17.8996-16.5484,15.2635-20.3289-2.634-3.7798-24.4324-4.0817-31.07-2.3526Z"/>
    <path class="cls-1" d="M174.8352,89.9374c-4.9645,1.2872-8.7507,12.6478-8.7507,12.6478l27.3944.7437-25.0519,15.8649s15.9673-2.0915,22.2147-6.5749c6.2453-4.4841,17.8996-16.5484,15.2635-20.3289-2.6341-3.7798-24.4325-4.0817-31.07-2.3526Z"/>
    <path class="cls-1" d="M372.6157,309.2958l-4.4699,13.3316s5.061,8.4245,3.2997,10.6169c-3.4586,4.3024-9.7964,3.2972-13.4077,2.0508-3.6093-1.2468-8.2581-9.5309-8.2581-9.5309l-3.8245,12.3261s9.8969,19.4839,7.2869,28.1702c-2.9879,9.9536-27.7121,23.1634-40.3316,28.8947-10.8681,4.926-13.7737,4.7049-35.3852,5.4691-6.4564.2211-13.3734-2.8557-18.1911-6.6964-4.8178-3.8397-9.1429-10.0128-10.7173-16.3266-1.6487-6.6157.8204-23.405.8204-23.405,0,0-4.1823,10.4554-4.4438,15.9649-.3096,6.5554-.6293,16.2068,2.5859,23.3051,3.2131,7.0976,8.7025,16.3876,16.6992,19.2826,9.2997,3.3578,26.4574,4.0214,39.101.8447,12.9673-3.2579,30.4004-15.1606,38.7009-20.3891,4.4035-2.775,8.5739-7.0575,11.0973-10.9783,2.3726-3.7004,3.3116-8.2044,4.0376-12.5277.8866-5.2676,1.2808-19.1218,1.2808-19.1218,0,0,7.1301.5428,9.8949-1.307,3.0302-2.0309,6.9954-6.4949,8.2822-10.8582,1.4337-4.8658,1.0054-13.5116.3297-18.3781-.5348-3.8205-4.3874-10.7374-4.3874-10.7374Z"/>
    <path class="cls-1" d="M239.8381,224.7241s7.4618,6.0927,7.0857,3.4985c-.7239-5.0266-7.3573-22.983-11.4311-33.64l-6.5067,12.9295,2.1395,6.474s2.2822,30.0207,4.1521,57.6888c1.307,19.3436,3.5269,37.1384-.0884,44.4177-3.2333,6.5349-25.1604,8.7065-31.6029,13.1502-4.1824,2.8749-7.0518,13.512-7.0518,13.512l59.1461-.8447s-50.1922,17.172-68.9585,28.5928c-6.8928,4.183-12.8508,11.8031-18.5612,17.2726-5.3084,5.067-10.7233,13.2707-15.6939,15.4625-4.3714,1.9104-11.232.4425-14.1356-2.3321-2.9035-2.775-3.7963-9.4505-3.2855-14.3166.7279-6.9774,7.661-27.5274,7.661-27.5274,0,0-6.5731,11.4818-8.6925,17.5738-2.1194,6.093-4.8781,12.9298-4.0215,19.002.8546,6.0722,4.9384,14.1551,9.1529,17.4328,4.2165,3.2579,11.4794,4.9667,16.1403,2.1716,7.8358-4.6649,20.4492-22.3194,30.873-30.2414,9.5732-7.2584,20.6102-12.5071,31.6733-17.1922,13.6388-5.7703,35.8134-12.5468,50.156-17.453,11.9398-4.082,35.9099-11.9842,35.9099-11.9842l4.7454-13.2912-72.3849,3.3985s7.3311-13.1906,7.5824-20.449c.5973-17.2928-4.0033-83.3054-4.0033-83.3054Z"/>
    <path class="cls-1" d="M129.4943,249.6977c-3.6274.4422-36.5594-3.66-48.5253-2.8355-2.057.1407-13.1966.3422-14.4955,1.5079-.4021.3823.5148.9251.734,1.086,3.4042,2.4327,7.0074,4.605,10.2748,7.2386,3.6415,2.9361,7.0437,6.2132,10.0217,9.8126.4865.5835,2.4088,3.8205,3.366,3.8205,1.7071,0,9.4283-5.6502,11.1415-6.6756,8.8875-5.3086,17.8112-10.1946,27.4829-13.9545ZM76.4166,296.3872c-2.5455.5024-6.7118,14.6986-7.3272,16.8701-4.4216,15.6031-4.2628,39.551,13.6691,47.5137,21.135,9.4101,45.9536,1.3471,62.3231-13.1499,8.0872-7.1591,18.2777-19.3234,9.9532-30.1815-10.1884-13.2714-28.2269-10.1145-42.7525-10.5768-12.6737-.422-24.7986-4.5642-35.8657-10.4756ZM153.5368,238.7789l-3.3619,12.9497-54.5517,26.8631s-.9832,7.882-1.9644,8.4655c-.9812.5633-3.921-5.0868-3.921-5.0868l-8.8875,8.4648s29.7671,2.433,41.1177,3.6193c9.0203.9248,20.5016.8447,26.9883,3.4382,5.2782,2.1315,10.5665,6.6964,11.9358,12.2049,1.7111,6.9175.9852,20.9117-1.6688,29.2564-2.5477,8.0028-8.6563,15.0011-14.2502,20.7916-5.5135,5.6902-11.9559,10.9181-19.3072,13.8741-7.8299,3.1569-18.5089,5.8312-27.682,5.0673-9.171-.744-21.2074-4.1628-27.3502-9.5915-6.1408-5.4092-8.4652-14.9196-9.4988-22.9023-1.2246-9.4509-.0744-24.4711,1.4035-33.117,1.134-6.6756,7.4558-18.861,7.4558-18.861l-3.1589-4.3031,5.6522-.8245,10.2669-12.4667s-16.7435-13.9744-20.6704-19.6047c-2.7688-3.9807-5.1515-10.1942-2.8915-14.256,2.2601-4.0615,10.0155-9.8527,16.4519-10.1343,15.7241-.6636,77.8923,6.1529,77.8923,6.1529Z"/>
    <polygon class="cls-1" points="219.1232 394.1553 225.0186 384.3026 235.4886 391.803 230.3048 400.7709 219.1232 394.1553"/>
    <polygon class="cls-1" points="31.153 202.0026 32.079 200.4418 33.7236 201.63 32.9094 203.0505 31.153 202.0026"/>
    <polygon class="cls-1" points="58.1492 187.9875 59.0753 186.4267 60.7199 187.6149 59.9056 189.0354 58.1492 187.9875"/>
    <polygon class="cls-1" points="293.7745 361.1624 299.6699 351.3098 310.14 358.8101 304.9561 367.7781 293.7745 361.1624"/>
    <polygon class="cls-1" points="364.6053 363.5551 370.5006 353.7024 380.9707 361.2025 375.7868 370.1708 364.6053 363.5551"/>
    <polygon class="cls-1" points="368.4437 193.1241 374.339 183.2715 384.8091 190.7715 379.6253 199.7398 368.4437 193.1241"/>
    <polygon class="cls-1" points="235.2153 189.2854 241.1107 179.4328 251.5807 186.9332 246.3969 195.9011 235.2153 189.2854"/>
    <polygon class="cls-1" points="198.7785 192.3003 204.6739 182.4477 215.1439 189.9477 209.9601 198.916 198.7785 192.3003"/>
    <polygon class="cls-1" points="214.5446 190.6638 220.44 180.8112 230.91 188.3112 225.7262 197.2795 214.5446 190.6638"/>
    <path class="cls-1" d="M93.9741,326.7451s2.4275-4.6245,4.8643-5.1807c2.8016-.6421,10.4006-.0427,11.9513,1.3706,1.5484,1.3908-1.1384,4.966-2.6559,7.0427-2.4131,3.2969-11.8704,10.0613-11.818,12.7588.0523,2.676,6.8224,4.1533,12.1348,3.4036,4.7643-.6636,13.6666-2.6969,13.6666-2.6969,0,0-7.1682,5.1373-15.3271,7.2998-3.6588.9635-9.1428.1928-11.3344-1.4131-2.1913-1.6055-2.9418-5.6515-1.815-8.2636,1.5935-3.7243,11.3249-11.5814,11.3795-13.9791.0549-2.3755-11.0461-.3422-11.0461-.3422Z"/>
    <path class="cls-1" d="M19.0544,251.841c-1.4347-.1356-3.4023,1.5207-3.8467,3.1357-.4444,1.6156.0254,5.4977,1.1934,6.5295,1.1806,1.0452,5.8776-.3123,5.8776-.3123,0,0,5.7254,13.3976,7.2235,14.7551,1.4979,1.3713,1.3455-4.3435,1.7518-6.5968.5713-3.1357.7744-9.787,1.6248-12.244.4953-1.3982,2.7168-2.783,3.5165-2.4842s.2286,4.3166,1.2695,4.2624c1.0283-.0545,4.5955-2.8372,4.9255-4.5612.3428-1.7102-1.3074-5.0088-2.8943-5.7421-1.5869-.7329-5.0525-.3661-6.6268,1.3575-1.6629,1.8192-2.6785,6.611-3.3768,9.6107-.6221,2.7285-.7744,8.3891-.7744,8.3891,0,0-3.5163-9.4747-5.1667-12.1491-1.0918-1.7916-3.2753-3.8145-4.697-3.9504Z"/>
    <path class="cls-1" d="M44.4443,104.8153c-1.4347-.1356-3.4023,1.5207-3.8467,3.1357-.4444,1.6156.0254,5.4977,1.1934,6.5295,1.1806,1.0452,5.8776-.3123,5.8776-.3123,0,0,5.7254,13.3976,7.2235,14.7551,1.4979,1.3713,1.3455-4.3435,1.7518-6.5968.5713-3.1357.7744-9.787,1.6248-12.244.4953-1.3982,2.7168-2.7827,3.5165-2.4842.7997.2988.2286,4.3166,1.2695,4.2624,1.0283-.0542,4.5955-2.8372,4.9255-4.5609.3428-1.7105-1.3074-5.0091-2.8943-5.7421-1.5869-.7333-5.0525-.3665-6.6268,1.3572-1.663,1.8192-2.6785,6.611-3.3768,9.611-.6221,2.7282-.7744,8.3888-.7744,8.3888,0,0-3.5163-9.4747-5.1667-12.1491-1.0918-1.7916-3.2753-3.8145-4.697-3.9504Z"/>
    <path class="cls-1" d="M184.6137,12.4915c-1.4347-.1356-3.4023,1.5207-3.8467,3.1357-.4444,1.6156.0254,5.4977,1.1934,6.5298,1.1806,1.0449,5.8776-.3126,5.8776-.3126,0,0,5.7254,13.3976,7.2235,14.7551,1.4979,1.3717,1.3456-4.3435,1.7518-6.5968.5713-3.1357.7744-9.787,1.6248-12.244.4953-1.3982,2.7168-2.7827,3.5165-2.4842.7997.2988.2286,4.3166,1.2695,4.2624,1.0283-.0542,4.5955-2.8372,4.9255-4.5609.3428-1.7102-1.3074-5.0091-2.8943-5.7421-1.5869-.7333-5.0525-.3665-6.6268,1.3575-1.663,1.8189-2.6785,6.6106-3.3768,9.6107-.622,2.7282-.7744,8.3888-.7744,8.3888,0,0-3.5163-9.4747-5.1667-12.1491-1.0918-1.7916-3.2754-3.8141-4.697-3.9504Z"/>
    <path class="cls-1" d="M223.8274,84.2953c-1.4347-.1356-3.4023,1.5207-3.8467,3.1357-.4444,1.6156.0253,5.4977,1.1934,6.5295,1.1806,1.0452,5.8776-.3123,5.8776-.3123,0,0,5.7254,13.3976,7.2235,14.7551,1.4979,1.3713,1.3455-4.3435,1.7518-6.5968.5713-3.1357.7744-9.787,1.6248-12.244.4953-1.3982,2.7168-2.783,3.5165-2.4845.7997.2988.2286,4.3169,1.2695,4.2627,1.0283-.0545,4.5955-2.8372,4.9255-4.5612.3427-1.7102-1.3074-5.0088-2.8943-5.7421-1.5869-.7329-5.0525-.3661-6.6268,1.3575-1.663,1.8192-2.6785,6.611-3.3768,9.6107-.6221,2.7282-.7744,8.3891-.7744,8.3891,0,0-3.5163-9.4747-5.1667-12.1491-1.0918-1.7916-3.2753-3.8145-4.697-3.9504Z"/>
    <path class="cls-1" d="M327.0251,231.9546c-1.4347-.1356-3.4023,1.5207-3.8467,3.1357-.4443,1.6156.0254,5.4977,1.1934,6.5298,1.1806,1.0449,5.8776-.3126,5.8776-.3126,0,0,5.7254,13.3976,7.2235,14.7551,1.4979,1.3717,1.3456-4.3435,1.7518-6.5968.5713-3.1357.7744-9.787,1.6248-12.244.4952-1.3982,2.7168-2.7827,3.5165-2.4842.7997.2988.2285,4.3166,1.2694,4.2624,1.0283-.0542,4.5955-2.8372,4.9255-4.5609.3428-1.7105-1.3074-5.0091-2.8943-5.7421-1.5869-.7333-5.0525-.3665-6.6268,1.3575-1.663,1.8189-2.6785,6.6106-3.3768,9.6107-.6221,2.7282-.7744,8.3888-.7744,8.3888,0,0-3.5163-9.4747-5.1667-12.1491-1.0918-1.7916-3.2754-3.8145-4.697-3.9504Z"/>
    <path class="cls-1" d="M68.8869,193.3772l-.0996-1.2121-1.664-2.0097-.248,2.3859,1.8533,3.978s-.7947,2.2372-1.5813,2.923c-1.0809.9392-3.3694,2.1308-4.8948,2.7066-1.3651.5196-4.2622.7474-4.2622.7474,0,0,3.0323.5462,4.5091.3271,1.4722-.2137,3.3404-.8241,4.3424-1.6136,1.4663-1.163,2.0851-2.5582,2.4955-3.5951.3125-.7898.1562-1.7809-.0331-2.6316-.1893-.8564-1.0982-2.5111-1.0982-2.5111l.6808.5051Z"/>
    <path class="cls-1" d="M61.1214,192.8707c-.0364-.1259.8239-1.3979.9049-1.5096.5231-.735,1.1536-1.6661,2.0517-1.9114.6673-.1767,1.9112.0639,1.6531,1.0348-.1436.5344-.6469.9002-1.0674,1.2007-.3868.2736-.7984.5475-1.2239.7424-.6355.2988-1.6466.3678-2.3184.4432ZM60.1524,192.7156s.9058-2.1945,1.4404-2.9695c.4606-.673,1.0481-1.3548,1.7589-1.6792.7107-.3241,1.9041-.4536,2.5021-.2608.5595.1817.95.8598,1.0826,1.4242.1327.5643-.2786,1.9609-.2786,1.9609,0,0-1.1051,1.9215-1.8852,2.4829s-1.9745.7161-2.798.8982c-.7634.1669-1.7147.383-2.3435.2086-.604-.174-1.4102-1.2714-1.4102-1.2714,0,0-.7375-.7128-1.0911-.602-.3571.1158-.9142.9073-1.0402,1.2855-.1126.321-.0321.8645.2778.9651.4096.139,1.6209-.3419,2.1784-.1427.554.2039.9693.7844,1.1693,1.3589.1995.5701.3343,1.4487.0293,2.0784-.4164.8615-1.4965,2.324-2.5422,3.1044-1.0417.7797-2.5633,1.4198-3.7081,1.5749-1.0801.1444-2.4527-.1679-3.1656-.6512-.6774-.4641-.9403-1.5086-1.1116-2.249-.1623-.7128.0072-1.5238.0906-2.2096.0764-.6424.4012-1.9047.4012-1.9047l.0968,1.3653s.0412,1.7452.3955,2.3661c.3503.6209,1.008,1.2243,1.7271,1.3622.7363.1434,1.8834-.2248,2.6949-.5024.7711-.2702,1.5506-.7383,2.1764-1.1798.5799-.4129,1.2939-1.0735,1.5746-1.4696.1791-.2514.3743-.7693.1173-.9083-.2528-.1403-1.1196.1252-1.6432.0649-.5161-.066-1.2217.002-1.497-.4489-.3028-.5058-.4133-1.4864-.3653-2.2557.0436-.773.3315-1.7698.6416-2.392.2745-.5438.87-1.1294,1.2409-1.3319.2937-.1605.6951-.0542.9759.1114.5479.3197,2.3083,1.8169,2.3083,1.8169Z"/>
    <path class="cls-1" d="M51.3196,182.6711l1.124.3251-1.9974-3.8925-.7897,1.4275s.7274,3.2215.9815,4.8496c.3036,1.9178.5467,4.6601.8339,6.6459.2585,1.7785.6558,6.1176.6558,6.1176,0,0,.7387-2.0605.7483-3.1158.0158-1.5201-.4022-4.0164-.6495-6.0217-.2614-2.0632-.9069-6.3357-.9069-6.3357Z"/>
    <path class="cls-1" d="M169.2717,233.9818l7.2676,3.342-11.3795-33.5319-5.8736,11.437s3.3088,27.2262,4.2314,40.9226c1.1152,16.1368,1.4492,39.0993,2.4252,55.7918.8826,14.9513,1.4945,51.2935,1.4945,51.2935,0,0,5.8299-16.7332,6.3821-25.5113.8083-12.6438-.7941-33.6602-1.4977-50.4923-.7689-17.3194-3.05-53.2514-3.05-53.2514Z"/>
    <path class="cls-1" d="M277.5704,254.4315l7.2675,3.342-11.3795-33.5319-5.8736,11.437s3.3088,27.2262,4.2315,40.9226c1.1152,16.1368,1.4493,39.0993,2.4252,55.7918.8826,14.9513,1.4945,51.2935,1.4945,51.2935,0,0,5.8299-16.7332,6.382-25.5113.8083-12.6438-.7941-33.6602-1.4977-50.4923-.7689-17.3194-3.05-53.2514-3.05-53.2514Z"/>
    <path class="cls-1" d="M406.158,163.9269l7.2675,3.3417-11.3795-33.5316-5.8736,11.437s3.3088,27.2262,4.2314,40.9226c1.1152,16.1368,1.4493,39.0993,2.4252,55.7918.8826,14.9513,1.4945,51.2935,1.4945,51.2935,0,0,5.8299-16.7332,6.382-25.5113.8083-12.6438-.7941-33.6602-1.4977-50.4923-.7689-17.3194-3.05-53.2514-3.05-53.2514Z"/>
    <path class="cls-1" d="M48.549,186.533l.7389-.1363-2.1254-2.1658-1.0016,1.1253s1.7233,4.5198,1.9127,5.7602c.0926.5987-.2745,1.4807-.7489,1.6994-.4745.2231-1.6466.0572-2.0924-.3698-.5615-.5337-1.044-1.8529-1.2596-2.8328-.2345-1.0876-.1712-3.6768-.1712-3.6768,0,0-.6598-1.1156-.9643-1.1307-.3041-.0108-.8636,1.0533-.8636,1.0533l.0463,4.9358s-.2765,1.6348-.8089,2.044c-.5324.4095-1.7852.6138-2.3859.4122-.6006-.2009-1.0373-1.0129-1.2187-1.6106-.2415-.7965-.2289-3.1734-.2289-3.1734l.1221-2.1117s-1.1498-.105-1.5148.1605c-.3937.286-.611,1.019-.8448,1.5463-.2438.5526-.4497,1.1748-.6188,1.7725-.1847.6535-.2517,1.5631-.4898,2.146-.1969.4809-.557,1.2007-.9361,1.333-.3786.1319-1.0404-.2383-1.3361-.5485-.3126-.3321-.434-.9534-.5406-1.4285-.1056-.4705-.0674-1.0345-.0983-1.4339-.0253-.3136.0115-.9675-.0892-.9497-.1009.0222-.4302.6916-.5163,1.0654-.0996.4331-.1109,1.024-.0806,1.5349.034.5664.0661,1.3599.2834,1.86.189.4351.5022.9261,1.0209,1.1415.5193.2154,1.5914.2961,2.0937.1427.5028-.1535.7215-.6724.9218-1.0725.2725-.5428.712-2.1847.712-2.1847l.2418-1.1522s.3578,2.5226.7153,3.272c.2435.5142,1.4293,1.2414,1.4293,1.2414,0,0,.8629.4119,1.3354.39.5655-.0269,1.5349-.2924,2.0586-.5522.4778-.2356.7787-.6491,1.0848-.9981.2976-.3362.7488-1.0742.7488-1.0742l1.1671,1.8317s.8462.5314,1.3572.5623c.6644.0407,1.9401.0128,2.629-.318.689-.3352,1.3673-1.0096,1.5165-1.6853.1757-.7817-.1844-2.0195-.4566-3.0102-.2719-.9991-1.1915-2.9886-1.1915-2.9886l-.3487-.7582.7963.3325Z"/>
    <path class="cls-1" d="M43.4367,200.0289l-2.0598-.354s-1.592-.2376-2.1307.0239c-.5388.2618-1.2088,1.0028-1.1011,1.5507.3306,1.6728,1.4193,2.144,2.0228,2.6881.4243.3803,1.5986.5637,1.5986.5637,0,0,1.6084-.2635,2.3241-.636.808-.4203,2.5391-1.8872,2.5391-1.8872l.0174,1.2384s-1.3704,1.2445-2.0857,1.8313c-.7494.6098-2.4059,1.8162-2.4059,1.8162,0,0-1.6158,1.06-2.3692,1.262-.6924.1871-1.5602.1168-2.1502-.0461-.5315-.1471-1.3873-.9217-1.3873-.9217,0,0-1.4157,1.3966-2.1129,1.7314-.6309.2995-1.4627.4668-2.0717.2699-.6096-.1975-1.102-.914-1.5838-1.4427-.4895-.5381-.7939-2.1319-1.3493-1.7772-.5559.3547-1.421,2.8665-1.9839,3.9003-.4287.7834-.8624,1.9555-1.3956,2.283-.5236.3214-1.3203.0471-1.805-.3284-.4843-.3698-.8658-1.2074-1.102-1.9034-.2614-.77-.468-2.0497-.4649-2.7083.0043-.7962.325-1.7651.4758-1.5423.1507.2228.2341,2.1245.4285,2.8796.1503.5849.3974,1.2751.7375,1.6466.3246.357.9387.8854,1.303.5815.4347-.3708.9494-1.9824,1.3074-2.7861.2981-.6663.5218-1.3676.8405-2.0248.3268-.6687.7166-1.6887,1.1177-2.006.339-.2712.9597-.1925,1.2871.0932.5027.4402,1.1624,2.0211,1.7281,2.5481.4373.4045,1.0988.7764,1.6663.6145.6191-.176,1.5716-1.235,2.0462-1.6759.3042-.2834.4037-1.0722.8-.9604.3997.1168,1.0073,1.3804,1.5954,1.6355.5891.2601,1.9368-.0801,1.9368-.0801,0,0-1.0079-.7016-1.438-1.1374-.4491-.4546-1.0073-.9621-1.2565-1.5954-.276-.703-.547-1.8199-.3981-2.6114.149-.7979.6652-1.685,1.2907-2.1675.625-.4826,1.6297-.7094,2.4608-.7336.8306-.0242,1.8577.3136,2.5241.5832.5528.2218,1.4753,1.022,1.4753,1.022l-.8715.563Z"/>
    <path class="cls-1" d="M177.0915,259.6947l-1.157,5.3709,53.9752-19.7982,2.3622-5.5358c-27.3583,10.486-28.9473,9.0773-55.1804,19.9631Z"/>
    <path class="cls-1" d="M205.5455,65.959l-1.157,5.3709,53.9752-19.7979,2.3622-5.5358c-27.3583,10.486-28.9473,9.0773-55.1804,19.9628Z"/>
    <path class="cls-1" d="M106.1743,41.9913l-1.157,5.3709,53.9752-19.7982,2.3622-5.5354c-27.3583,10.4857-28.9473,9.0773-55.1804,19.9628Z"/>
    <path class="cls-1" d="M213.6503,268.6842c-6.603,2.7056,5.4253,15.3278-.8411,16.8038-8.0119,1.8909-5.6778-15.0987-9.1474-16.0288-1.7245-.4634-1.3249,4.1708-1.2617,4.7332.4836,3.3867,4.1426,11.3892-2.5444,12.3231-7.1288.9914-5.6988-7.4852-5.5516-10.9585.021-.741.4415-4.5858-1.409-4.3277-5.8879.8147-1.6822,13.9273-.9041,16.6272.4206,1.4548,1.0724,3.0859,2.5234,4.0285,5.3202,3.4571,7.8436-4.3007,10.2198-4.5131,1.7873-.1605,3.3857,4.7076,7.0657,4.1056,1.6612-.2682,2.8389-1.5951,3.6588-2.7413,4.4792-6.265.5678-13.7613-1.8083-20.0519Z"/>
    <path class="cls-1" d="M320.3502,278.1946c-.0267.0892-.7597-.6794-.8013-.7309-.7473-.8423-1.5233-1.8468-1.9639-2.9129-.9023-2.1908.6268-4.6675,2.8749-4.7449,1.1445-.0387,1.6132,1.1008,1.6288,2.1706.0442,2.0504-.6505,4.2913-1.3687,6.1715l-.3698.0468ZM287.2546,303.932s8.7261-4.431,12.8242-7.1427c4.2755-2.8237,9.9025-7.215,12.8292-9.8207,1.8445-1.6459,4.7516-5.8009,4.7516-5.8009,0,0-3.4971-2.605-3.9023-4.3653-.4051-1.7597.3063-4.4801,1.4852-6.194,1.2941-1.8771,4.6776-4.7894,6.2793-5.0973,1.4854-.2854,3.2699,1.6328,3.3653,3.2478.1299,2.4627-.8562,7.6501-2.5455,11.5151l2.6528,3.3127-1.6067,3.0674-3.4235-3.6681s-5.2295,6.048-7.6457,8.2074c-2.0893,1.8758-4.47,3.3561-6.844,4.7847-2.8176,1.6903-7.0488,4.0564-10.0889,5.3793-2.6164,1.1432-8.1311,2.5747-8.1311,2.5747Z"/>
    <path class="cls-1" d="M361.0702,75.9715c-.0207.0902-.8037-.6273-.8485-.6761-.8021-.7902-1.6439-1.7398-2.1551-2.7739-1.0474-2.1258.3121-4.6988,2.5499-4.9273,1.1394-.1158,1.6835.9897,1.7709,2.0561.1818,2.0427-.3609,4.3256-.9513,6.2489l-.3658.0724ZM329.7767,103.8717s8.4091-5.0068,12.316-7.9873c4.0763-3.1044,9.3958-7.8628,12.141-10.6596,1.7298-1.7657,4.3516-6.1065,4.3516-6.1065,0,0-3.6642-2.3644-4.1866-4.0931-.5224-1.7287.0047-4.4909,1.0658-6.2802,1.1652-1.9596,4.3457-5.0922,5.9231-5.5075,1.4629-.384,3.3723,1.4104,3.5759,3.0149.2948,2.4489-.3406,7.6902-1.7667,11.6594l2.8693,3.1276-1.3972,3.1683-3.6621-3.4305s-4.8117,6.3855-7.0775,8.7021c-1.9587,2.0121-4.2346,3.6489-6.5075,5.2336-2.6978,1.8754-6.7608,4.5198-9.7051,6.0443-2.5338,1.3161-7.94,3.1145-7.94,3.1145Z"/>
    <path class="cls-1" d="M299.1059,35.5553c-.0207.0905-.8037-.6276-.8485-.6761-.8021-.7902-1.6439-1.7401-2.1551-2.7739-1.0473-2.1258.3121-4.6992,2.5499-4.9273,1.1394-.1158,1.6835.9897,1.7709,2.0558.1818,2.043-.3608,4.3256-.9513,6.2495l-.3658.072ZM267.8124,63.4556s8.4091-5.0068,12.316-7.9873c4.0763-3.1041,9.3958-7.8631,12.141-10.66,1.7298-1.7654,4.3515-6.1065,4.3515-6.1065,0,0-3.6642-2.3641-4.1866-4.0931-.5224-1.7287.0047-4.4909,1.0659-6.2802,1.1652-1.9596,4.3456-5.0922,5.9231-5.5072,1.4629-.3843,3.3722,1.41,3.5759,3.0149.2948,2.4485-.3407,7.6902-1.7667,11.6594l2.8693,3.1273-1.3972,3.1683-3.6621-3.4298s-4.8117,6.3851-7.0775,8.7014c-1.9587,2.0124-4.2346,3.6489-6.5075,5.2336-2.6978,1.8758-6.7607,4.5205-9.7051,6.0443-2.5338,1.3161-7.94,3.1148-7.94,3.1148Z"/>
    <path class="cls-1" d="M401.6146,299.1235s-1.7674,2.6743-3.2375,6.1321c-1.7011,3.9817-2.4871,9.8735-2.6761,12.1454-.2211,2.6942,1.1884,6.9973,3.0099,7.2789,2.4915.4021,3.9574-.6232,4.8438-1.9905,1.7698-2.7551,1.6248-7.1783,1.6248-7.1783,0,0-1.3855,2.5936-2.9718,3.7596-.9773.7043-2.244.6236-2.6764-.2009-1.5342-2.9351-.764-6.1523-.0119-10.878.7117-4.4841,2.0952-9.0682,2.0952-9.0682Z"/>
    <path class="cls-1" d="M424.4305,242.0923s-1.7674,2.6743-3.2375,6.1324c-1.7011,3.9814-2.4871,9.8732-2.6761,12.145-.2211,2.6942,1.1884,6.9976,3.01,7.2793,2.4914.4018,3.9573-.6236,4.8438-1.9909,1.7697-2.7551,1.6248-7.1783,1.6248-7.1783,0,0-1.3854,2.5936-2.9718,3.7599-.9773.704-2.244.6232-2.6764-.2012-1.5342-2.9351-.764-6.1523-.0119-10.878.7117-4.4838,2.0952-9.0682,2.0952-9.0682Z"/>
    <path class="cls-1" d="M381.6296,219.2604s-1.7674,2.6743-3.2375,6.1324c-1.7011,3.9814-2.4871,9.8732-2.6761,12.145-.2211,2.6942,1.1883,6.9976,3.0099,7.2793,2.4914.4018,3.9573-.6236,4.8438-1.9909,1.7697-2.7551,1.6248-7.1783,1.6248-7.1783,0,0-1.3855,2.5936-2.9719,3.7599-.9773.704-2.244.6232-2.6764-.2012-1.5342-2.9351-.764-6.1523-.0119-10.878.7117-4.4841,2.0952-9.0682,2.0952-9.0682Z"/>
    <path class="cls-1" d="M326.7484,313.9809s-1.7674,2.6743-3.2375,6.1324c-1.7011,3.9814-2.4871,9.8732-2.6761,12.145-.2211,2.6945,1.1884,6.9976,3.01,7.2793,2.4914.4018,3.9573-.6236,4.8438-1.9909,1.7697-2.7551,1.6248-7.1783,1.6248-7.1783,0,0-1.3854,2.5936-2.9718,3.7599-.9773.704-2.244.6232-2.6764-.2012-1.5342-2.9351-.764-6.1523-.0119-10.878.7117-4.4838,2.0952-9.0682,2.0952-9.0682Z"/>
    <path class="cls-1" d="M209.5154,398.9675s-1.7675,2.6743-3.2375,6.1324c-1.7011,3.9814-2.4871,9.8735-2.6761,12.145-.2211,2.6945,1.1884,6.9976,3.0099,7.2793,2.4915.4018,3.9573-.6236,4.8438-1.9905,1.7697-2.7551,1.6248-7.1787,1.6248-7.1787,0,0-1.3855,2.5936-2.9718,3.7599-.9773.7043-2.244.6236-2.6764-.2009-1.5342-2.9355-.764-6.1523-.0119-10.878.7117-4.4841,2.0952-9.0686,2.0952-9.0686Z"/>
    <path class="cls-1" d="M40.1557,292.6724s-1.7675,2.6743-3.2376,6.1324c-1.7011,3.9814-2.4871,9.8735-2.6761,12.145-.2211,2.6945,1.1884,6.9976,3.0099,7.2793,2.4914.4018,3.9573-.6236,4.8438-1.9905,1.7697-2.7551,1.6248-7.1787,1.6248-7.1787,0,0-1.3854,2.5936-2.9718,3.7599-.9773.7043-2.244.6236-2.6764-.2009-1.5342-2.9355-.764-6.1523-.012-10.878.7117-4.4841,2.0952-9.0686,2.0952-9.0686Z"/>
    <path class="cls-1" d="M134.3615,192.5938s-1.7674,2.6743-3.2375,6.1324c-1.7011,3.9814-2.4871,9.8732-2.6761,12.145-.2211,2.6942,1.1884,6.9973,3.01,7.2793,2.4914.4018,3.9573-.6236,4.8438-1.9909,1.7697-2.7551,1.6248-7.1783,1.6248-7.1783,0,0-1.3854,2.5936-2.9718,3.7596-.9773.7043-2.244.6236-2.6764-.2009-1.5342-2.9351-.764-6.1523-.0119-10.878.7117-4.4841,2.0952-9.0682,2.0952-9.0682Z"/>
    <path class="cls-1" d="M26.7723,136.029s-1.7675,2.6743-3.2375,6.1324c-1.7011,3.9814-2.4871,9.8735-2.6761,12.145-.2211,2.6945,1.1884,6.9976,3.0099,7.2793,2.4914.4018,3.9573-.6236,4.8438-1.9905,1.7697-2.7551,1.6248-7.1787,1.6248-7.1787,0,0-1.3854,2.5936-2.9718,3.7599-.9773.7043-2.244.6236-2.6764-.2009-1.5342-2.9355-.764-6.1523-.0119-10.878.7117-4.4841,2.0952-9.0686,2.0952-9.0686Z"/>
    <path class="cls-1" d="M161.4604,45.2343s-1.7675,2.6743-3.2375,6.1324c-1.7011,3.9814-2.4871,9.8735-2.6761,12.145-.2211,2.6945,1.1884,6.9976,3.0099,7.2793,2.4914.4018,3.9573-.6236,4.8438-1.9909,1.7697-2.7548,1.6248-7.1783,1.6248-7.1783,0,0-1.3854,2.5936-2.9718,3.7599-.9773.7043-2.244.6236-2.6764-.2009-1.5342-2.9355-.764-6.1526-.0119-10.8784.7117-4.4838,2.0952-9.0682,2.0952-9.0682Z"/>
    <path class="cls-1" d="M239.6746,8.2426s-1.7674,2.6743-3.2375,6.1324c-1.701,3.9814-2.4871,9.8735-2.6761,12.145-.2211,2.6945,1.1884,6.9976,3.01,7.2793,2.4914.4018,3.9573-.6236,4.8438-1.9905,1.7697-2.7551,1.6248-7.1787,1.6248-7.1787,0,0-1.3854,2.5936-2.9718,3.7599-.9773.7043-2.244.6236-2.6764-.2009-1.5342-2.9355-.764-6.1523-.0119-10.878.7117-4.4841,2.0952-9.0686,2.0952-9.0686Z"/>
    <path class="cls-1" d="M329.9816,40.9114s-1.7674,2.674-3.2375,6.1321c-1.7011,3.9814-2.4871,9.8735-2.6761,12.1454-.2211,2.6942,1.1884,6.9973,3.01,7.2789,2.4914.4018,3.9573-.6236,4.8438-1.9905,1.7697-2.7551,1.6248-7.1783,1.6248-7.1783,0,0-1.3855,2.5932-2.9719,3.7596-.9773.7043-2.244.6236-2.6764-.2009-1.5342-2.9355-.764-6.1523-.0119-10.878.7117-4.4841,2.0952-9.0682,2.0952-9.0682Z"/>
    <path class="cls-1" d="M185.6263,202.6436c-.0748-.0851-.4658.4799-.4936.5236-.6855.9389-1.9776,2.535-1.3905,3.8592,1.6846,3.8145,6.0632,5.3036,8.0114,11.3663.8249,2.605,1.1467,5.3901,1.2354,8.1414.0092.3416-.1788,4.1305.3387,3.9514,1.337-.46,1.7479-6.7483,1.7445-7.9513.01-8.2363-3.6312-15.199-9.4459-19.8907Z"/>
    <path class="cls-1" d="M251.8523,259.2461c-.0748-.0851-.4658.4799-.4936.5233-.6855.9392-1.9776,2.5353-1.3905,3.8596,1.6846,3.8141,6.0632,5.3036,8.0114,11.3663.8249,2.605,1.1467,5.3901,1.2354,8.1414.0092.3416-.1788,4.1305.3388,3.9514,1.337-.46,1.7479-6.7486,1.7445-7.9517.01-8.236-3.6312-15.199-9.446-19.8904Z"/>
    <path class="cls-1" d="M420.7997,183.9637c-.0748-.0851-.4659.4799-.4936.5236-.6855.9389-1.9776,2.535-1.3905,3.8592,1.6846,3.8141,6.0632,5.3036,8.0114,11.3663.8249,2.605,1.1467,5.3901,1.2354,8.1414.0092.3416-.1788,4.1305.3387,3.9514,1.337-.46,1.7479-6.7483,1.7445-7.9513.01-8.2363-3.6312-15.1993-9.4459-19.8907Z"/>
    <path class="cls-1" d="M397.4283,116.4452c-.6816.6037-1.9122-2.1113-3.6073-1.8098-2.1294.3621-5.5798,3.4588-1.9263,4.8459,3.1187,1.1664,6.8104-.281,9.4043-1.9098.4525-.2817,4.0456-3.0169,4.2648-1.9306,1.0295,5.0468-6.9452,8.7872-9.9613,10.9386-1.3251.9655-2.6361,1.9101-4.0054,2.7951-1.0033.6629-4.6186,4.1217-5.9618,3.1566-2.6522-1.9101,3.5752-5.6505,3.8687-7.0377.1528-.7037-2.7647-1.729-3.2152-2.1315-1.7071-1.5682-1.864-4.0016-1.114-6.0722,1.4277-3.9615,6.726-9.8126,11.3325-9.5111,5.6644.3624,2.6864,7.1585.921,8.6664Z"/>
  </g>
</svg>