<?xml version="1.0" encoding="UTF-8"?>
<svg id="AhlulHaq" xmlns="http://www.w3.org/2000/svg" viewBox="0 0 695.948 205.5844">
  <defs>
    <style>
      

      @import url('../../CSS/SvgStyling.css');


    </style>
  </defs>
  
  <g class="content">

    <rect id="bg" class="bg" width="695.948" height="205.5844"/>

    <path class="cls-1" d="M136.3851,22.1164c1.6734,2.8371,2.1824,5.6297,2.7817,8.3314,1.1766,5.3037,2.1705,10.6525,3.0816,16.0096,1.3223,7.7746,2.2274,15.6062,3.0928,23.4467,1.4837,13.4436,2.0414,26.9545,3.1483,40.4246.4159,5.0612.5036,10.1487.7835,15.2219.3999,7.2496.8341,14.5246,2.6451,21.5701,1.1225,4.3673,2.5885,8.8463,6.1809,11.8974,4.6335,3.9355,9.8873,6.0164,16.0759,3.7278,2.949-1.0905,5.0966-3.0991,6.6662-5.7313,2.4116-4.0439,4.3632-8.3573,7.1088-12.2068,2.322-3.2557,4.8918-6.2574,8.1804-8.6208,5.9748-4.2941,12.756-6.7636,19.6798-8.9412,4.9184-1.5469,9.8415-3.0789,14.7548-4.6418,3.4458-1.0961,7.0988-1.3562,10.524-2.6893-.2685-.6986-.9244-.6308-1.5055-.6685-8.9484-.581-17.8932-1.2361-26.8478-1.697-4.6201-.2378-9.2581-.1248-13.8879-.1755-3.6862-.0404-3.7746-.1775-2.2111-3.3807.3583-.734.8542-1.4256,1.0764-2.1972,1.0497-3.6458,4.0812-4.4468,7.2042-5.1258,5.4834-1.1921,10.9812-2.3196,16.4526-3.5638,2.6145-.5946,2.5383-.6892,2.6137-3.5251.1168-4.3968-.8306-8.6758-1.6189-12.9321-1.9162-10.3469-3.4192-20.7536-4.9965-31.1511-.9652-6.3618-1.9082-12.727-2.8859-19.0869-.2066-1.3439-.5014-2.6767-1.2017-3.8764-.8597-1.4726-.659-2.8964.0677-4.3784.917-1.8701,1.6471-3.8325,2.5811-5.6933.9389-1.8705,2.0762-1.9117,3.0776-.0796.8235,1.5066,1.5216,3.1054,2.076,4.7313,1.7323,5.0806,4.1412,9.871,6.2815,14.7727,1.7419,3.9893,3.0736,8.1529,5.1202,12.0113.2527.4764.3699,1.0229.581,1.5238.314.7447.3645,1.4633-.4236,1.8989-.7753.4285-1.2215-.2745-1.5242-.7548-1.6071-2.5502-4.005-4.4512-5.6434-6.9706-.3704-.5696-.6441-1.4566-1.6012-1.0255-.7204.3246-.605,1.0642-.5009,1.6847.8849,5.2737,1.447,10.5914,2.3991,15.8619,1.5141,8.3812,3.2037,16.7522,3.0478,25.3579-.0872,4.8132-.8623,9.3786-3.32,13.5769-.366.6251-.7082,1.274-.9698,1.9474-.2324.5984.011,1.0773.6675,1.223.7075.1571,1.4228.3184,2.1427.3741,6.056.4683,12.1123.9368,18.1723,1.3491,1.6876.1148,3.3426.7465,5.2963.2879-.3331-2.882-.609-5.806-1.0186-8.7112-1.1387-8.0773-2.2569-16.1588-3.5224-24.2168-2.0667-13.1598-3.7357-26.3741-5.5793-39.5644-.2139-1.5303-.4693-3.0593-1.1592-4.4586-.6927-1.4049-.6942-2.8274-.0936-4.2125.9743-2.2466,1.9839-4.4828,3.0978-6.6624.7425-1.4529,2.1041-1.4036,2.8197.1424.9859,2.1297,2.2297,4.1733,2.5649,6.567.062.4426.1881.9018.3958,1.2945,2.2538,4.2621,3.5124,8.9333,5.5208,13.3132,1.8356,4.0031,3.2366,8.265,4.1578,12.6276.0892.4224.3116.8603-.2611,1.3848-1.6159-1.3823-2.9638-3.034-4.2968-4.6974-.9077-1.1327-1.7703-2.3024-2.6991-3.4172-.3472-.4167-.8707-.7876-1.4212-.4299-.4108.2669-.2851.807-.2387,1.2565.7084,6.8528,1.5477,13.6871,2.6407,20.4918,1.3488,8.3978,2.6731,16.7984,3.7175,25.2444.5227,4.2272,1.1853,8.4411,1.4997,12.689.1028,1.3891.6717,1.8827,1.9289,2.0903,3.0604.5054,6.1479.49,9.2292.5977,1.9876.0695,3.978.0601,5.9659.123,1.2898.0408,1.8308.8481,1.2266,1.9453-1.4394,2.6133-2.9803,5.1705-4.4317,7.7773-.4793.8608-1.1893,1.0034-2.0501.994-3.1165-.0338-5.9838,1.3577-9.0519,1.6008-.9844.078-1.1336.7237-1.1223,1.5127.0208,1.4528-.0062,2.9083.0724,4.358.4592,8.4695-.0072,16.8688-1.8274,25.1715-.6697,3.0547-2.1521,5.7646-3.5947,8.4913-.3819.7218-.7942,1.4279-1.164,2.1558-.785,1.5453-.6865,1.607.816,2.4624,5.5825,3.1776,11.3654,2.4443,17.1147.7874,6.2503-1.8014,11.7201-5.2196,17.0739-8.8134.0751-.0504.1331-.1321.213-.1687,3.3172-1.5187,4.4968-3.9142,4.3077-7.6986-.235-4.7011.9657-9.3559,2.2401-13.9112.0873-.312.157-.726.9989-.8675-.3208,5.9458-2.216,11.7382-1.1545,17.6179.8783.2699,1.3211-.2805,1.7899-.6611,3.2396-2.6289,6.3768-5.3926,9.711-7.8941,3.7695-2.8279,1.9065-8.977-2.1677-9.9047-1.7903-.4076-3.5281-.6996-5.3485-.6577-4.0816.0941-8.1655.3119-12.2194-.4677-3.3589-.6459-5.8477-3.3724-5.9318-6.8043-.1392-5.6857,1.7084-10.7371,5.5531-14.8785,4.066-4.3796,8.6111-4.6691,13.4127-1.3489,3.8576,2.6674,6.6548,6.3492,8.675,10.6272.7615,1.6126,1.5052,3.1858,2.0492,4.909,1.7779,5.6321,1.8952,11.2218.1695,16.8573-1.2432,4.0597-3.3116,7.6313-6.3113,10.6559-2.1104,2.1279-4.197,4.2834-6.6043,6.0824-.8632.6451-1.1563,1.3424-.6068,2.3047.7628,1.3359,1.2819,2.7968,2.2415,4.0359,4.0413,5.2182,12.2928,4.8967,15.8621-1.1706,2.2607-3.8429,4.2558-7.8179,5.8909-11.9544,2.2095-5.59,4.9356-10.9321,8.1464-15.9696,1.818-2.8524,3.8329-5.6436,6.6147-7.8647,5.3117-4.2413,11.3592-3.1313,15.1646,2.4645,1.8827,2.7685,3.4637,5.7415,5.6434,8.3092,1.8383,2.1654,3.7996,4.1967,6.5953,5.0782,4.9219,1.5517,9.2826.2033,13.2631-2.782,5.577-4.1827,9.3608-9.7704,12.4624-16.1806.9642,1.556,1.2453,3.1161,1.0695,4.6997-1.0662,9.6031,8.5934,18.143,17.5114,17.7747,3.762-.1554,7.3041-.9149,10.8403-2.1759,6.6735-2.3795,11.4584-7.1088,15.9738-12.2454.6374-.7251,1.0449-1.7168,2.3808-1.9887.5821,1.5964.0985,3.1627-.0643,4.7174-.398,3.8027,1.8303,7.9641,5.0384,9.1535,2.3378.8668,4.7763.9558,7.2385.5038,7.0541-1.2948,11.8783-5.8699,16.2855-11.0548,1.4457-1.7008,2.2871-3.871,4.2318-5.5149.4473.8867.3065,1.6684.0696,2.3868-.3189.9668-.4216,1.9487-.4646,2.9476-.2116,4.918,3.2244,8.3313,8.2046,8.232,4.0306-.0804,7.3479-1.7551,10.2418-4.4204,2.6885-2.4761,5.0636-5.2014,6.6807-8.5254.4766-.9796,1.0351-1.9167,1.9331-2.5983.3088-.2343.5988-.435.9458-.1204.2907.2636.4699.8268.248.9554-1.0131.5868-.3918,1.6139-.7594,2.3829-2.6964,5.6407,3.2551,12.832,10.423,12.7652.8701-.0081,1.3351-.3973,1.4467-1.2705,1.0403-8.1423,4.2262-15.5155,8.1411-22.6224.5909-1.0728.7342-2.1178.5873-3.375-1.1787-10.0852-2.8515-20.097-4.3007-30.142-2.3817-16.5074-5.19-32.9544-6.8721-49.5653-.4341-4.286-.6672-8.687-2.2887-12.8109-.5112-1.3001-.419-2.6862.3682-3.9319,1.3117-2.0757,1.8017-4.564,3.3018-6.5464.8304-1.0973,1.9204-1.1036,2.3018.1702,1.0415,3.4786,3.0016,6.5874,3.8516,10.1547.4335,1.8193,1.5228,3.4731,2.2099,5.2428,2.1008,5.4112,4.0103,10.8968,6.366,16.209.432.9742,1.1637,2.3774.2234,2.9948-1.1311.7427-1.8403-.7624-2.5012-1.5361-1.352-1.5829-2.5863-3.2664-3.8766-4.9024-.3368-.4269-.6766-.857-1.0614-1.2388-.3255-.323-.7472-.5575-1.2249-.3882-.5666.2007-.4532.7446-.4196,1.157.1987,2.4401.3819,4.8835.6724,7.3136,1.269,10.6185,3.0089,21.1711,4.4858,31.7594,1.7035,12.213,3.9268,24.3579,5.0778,36.6431.4999,5.3364.6219,10.7283.0762,16.0583-.6673,6.5177-2.6922,12.5293-7.6926,17.2143-2.8995,2.7166-2.8249,3.2861-.4113,6.467,5.4083,7.1279,12.666,10.4384,21.5126,10.1285,6.8564-.2403,13.396-1.9685,19.685-4.758,8.0106-3.5532,15.3083-8.2783,22.2583-13.5262,3.2444-2.4498,6.1437-5.3705,8.8534-8.4472,2.0449-2.3219,2.016-5.1795,2.2039-7.9597.2951-4.364-.2485-8.7126-.6124-13.0489-.4774-5.6896-1.1814-11.3619-1.8759-17.0309-.7383-6.0252-1.5459-12.0425-2.3845-18.0547-.977-7.004-1.9529-14.0094-3.0541-20.9944-1.0998-6.9767-2.2808-13.9401-3.6049-20.8815-.6763-3.5453-1.7862-6.9817-2.3452-10.5425-.1397-.89-.3632-1.8602-.1544-2.6949.8075-3.229,1.7741-6.4182,2.7457-9.8494,1.0891.8911,1.3182,1.862,1.5722,2.7757,1.696,6.1007,3.2203,12.2376,4.466,18.4547.7483,3.7344,1.44,7.4763,2.0814,11.2271.7485,4.3769,1.41,8.7696,2.0536,13.1635,1.3134,8.9681,2.6103,17.9387,3.8753,26.9137,1.3159,9.3361,2.5159,18.6891,3.9059,28.0139.6949,4.6617,1.6217,9.2951,2.8681,13.8498,1.0364,3.7878,2.7617,7.2872,4.6386,10.7155.6218,1.1358,1.5227,2.0639,2.5178,2.8389,5.4039,4.2089,9.8868,5.5644,16.0956,2.8067,1.49-.6618,1.6833-1.0782,1.0371-2.5043-2.9341-6.4749-1.6633-12.7966.8182-18.9823,1.4173-3.5328,3.4613-6.7759,6.0517-9.611.817-.8941.9398-1.9103.9455-3.0192.014-2.735.6907-5.3587,1.2635-8.1533,2.3569.5967,4.2866,1.7932,6.3119,2.7457,1.9693.9263,3.8977,1.94,5.8412,2.9209.4856.2451.9791.4826,1.4353.7759.5632.362.9822.8957.8762,1.582-.1327.8598-.9119.6965-1.5139.7727-.8655.1095-1.7894-.2205-2.6046.3102-.1147.8262.5036,1.1684.9967,1.5042,3.5713,2.4315,7.0181,5.0412,10.8445,7.101,2.889,1.5552,5.4304,3.5813,7.3881,6.3104,2.6978,3.7608,2.7001,7.995,2.2745,12.2756-.2515,2.5282-1.199,4.9164-2.182,7.2572-1.2575,2.995-3.3423,4.9252-6.745,5.0918-5.5306.2709-11.0627.5723-16.5073-.8447-1.6408-.427-3.3794-.1899-4.9864-1.1126-.9119-.5236-1.7734.6116-2.5659,1.1919-3.0826,2.257-6.2788,4.3612-9.9663,5.4538-6.469,1.917-12.4176.7946-17.4209-3.8224-4.1401-3.8205-6.7557-8.647-8.3341-14.0498-.7849-2.6866-1.6143-5.3583-2.0929-8.1229-.1074-.6207-.1701-1.273-.9244-1.7582-.4357,1.5998-.9417,3.1313-1.2643,4.7004-1.2628,6.1432-4.2505,11.3-8.5854,15.7926-6.6807,6.9238-14.5543,12.1564-22.9147,16.7861-3.654,2.0234-7.6187,3.2914-11.3548,5.1129-1.8809.917-4.227.9126-6.3759,1.239-4.777.7255-9.535.8801-14.3382-.0384-3.8757-.7411-7.1062-2.6692-10.1286-4.9739-3.692-2.8154-6.2362-6.5867-7.8253-10.9208-.6123-1.6701-1.6428-3.2535-1.5426-5.1619.0514-.9799-.6567-1.1676-1.4464-1.2182-5.662-.3622-9.922-3.0682-13.0789-7.716-.4753-.6998-.9014-1.2905-.8826-2.1794.0258-1.2195-.5461-2.2328-1.3023-3.3049-2.1305,3.4319-4.1438,6.7502-7.1275,9.2937-2.2677,1.9331-4.7017,3.6238-7.7662,4.0037-4.1857.5188-7.6226-.545-10.1017-4.3183-1.4023-2.1344-1.8811-4.4489-2.3496-6.7903-.8593-.3111-.9268.425-1.2137.8137-2.925,3.9618-6.2802,7.5039-10.3228,10.3338-2.5868,1.8108-5.4874,2.8029-8.6861,2.6915-4.3099-.15-7.6616-2.0454-9.8521-5.7662-1.4828-2.5187-2.5522-5.216-2.3275-8.5017-1.3859.524-2.0774,1.4817-2.7423,2.328-4.1143,5.2365-9.283,9.1025-15.34,11.7475-2.2422.9791-4.7653,1.0041-7.1894,1.2822-4.636.532-8.7407-.6785-12.4626-3.5443-3.8301-2.949-6.1657-6.8049-7.642-11.3125-.3862-1.1794-.1298-3.1694-1.2288-3.3715-1.3255-.2437-1.2366,1.8311-1.9629,2.786-2.8013,3.6833-5.3764,7.5788-9.2555,10.2458-4.8867,3.3598-12.822,4.0147-17.6725-1.2475-2.3283-2.5259-4.8178-4.9323-6.2124-8.1731-.9512-2.2105-2.7192-3.837-4.2822-5.5521-1.84-2.019-5.513-1.9221-7.3331-1.1183-5.0423,2.2266-8.0045,6.3608-10.5288,10.9435-2.9745,5.3998-5.2095,11.1327-7.4797,16.8481-1.8571,4.6751-4.2028,9.0336-7.8364,12.6209-3.9331,3.883-7.4832,3.2788-10.8276.6154-3.1007-2.4692-4.8996-5.7655-6.2494-9.3894-.6577-1.7657-.8747-3.712-2.0992-5.3062-1.7965.2935-3.1707,1.4383-4.4395,2.4839-4.6459,3.8288-9.9243,6.6558-15.2702,9.1979-5.212,2.4785-10.9389,3.1956-16.737,1.8937-3.8798-.8712-6.9919-2.9281-9.2997-6.1508-1.1019-1.5387-2.2135-3.0479-3.0208-4.8184-2.9596-6.4911-2.3637-13.0964-.8448-19.724.7905-3.4489,1.9998-6.79,3.6684-9.93.9238-1.7385,1.0731-3.8182,2.4391-5.6517.6267,1.3969.1941,2.3922-.2581,3.4499-1.1039,2.5822-2.2718,5.1305-3.1843,7.804-1.2944,3.7923-1.5436,7.6578-1.2222,11.5597.3006,3.6495,1.9601,6.7596,4.6329,9.2749.9853.9272,1.52.8242,2.0072-.4073.9358-2.3654,1.6409-4.8105,2.0482-7.326,1.329-8.209,1.371-16.4312.2541-24.6701-.2069-1.5262-.2037-3.08-.3254-4.6188-.0912-1.1516-.5065-1.8999-1.8932-1.539-2.7986.7284-5.6072,1.4409-8.4145,2.1079-2.9904.7104-5.8642,1.8211-8.8665,2.4186-5.0708,1.0091-9.8631,2.9494-14.8385,4.277-2.8787.7681-5.6646,1.8883-8.4826,2.8773-.9389.3295-1.8581.7281-2.4752,1.5239-.0308.8001.5899,1.2266.9976,1.5962,3.7248,3.3768,4.3615,7.8109,4.1684,12.4238-.1791,4.278-2.1467,8.0181-4.2514,11.636-.9847,1.6927-2.7955,2.1808-4.7263,1.3862-2.7667-1.1386-5.5323-2.2898-8.2374-3.5651-3.0365-1.4315-6.1827-2.5674-9.3403-3.6693-2.1694-.757-2.2756-.5369-3.2601,1.7473-2.1745,5.0454-5.3056,9.5941-10.3761,11.7781-4.8721,2.0985-9.9754,1.7445-14.8399-1.1958-6.9422-4.1962-9.829-10.8208-11.7542-18.1552-1.5767-6.0066-1.8474-12.1912-2.2606-18.334-.6883-10.2308-.9827-20.4888-1.7217-30.7153-.7712-10.6726-1.6353-21.3427-2.9659-31.9678-.4846-3.8695-.7215-7.7697-1.1845-11.6424-.9908-8.2879-2.2538-16.5328-4.8361-24.5024-.6166-1.9031-.6927-3.6733-.081-5.5791.881-2.7449,1.3783-5.6166,2.8992-8.6641ZM640.2932,136.326c.1346-4.0836-1.5689-7.3001-4.56-9.9789-1.0974-.9828-2.2382-1.0751-3.4447-.5476-1.0584.4627-2.0116,1.0977-2.8669,1.9584-2.1338,2.1471-3.6783,4.6765-5.0808,7.3068-1.0398,1.9501-.6587,4.3666.8327,6.0283,2.0111,2.2408,4.6908,3.2991,7.4593,4.1897.54.1737,1.0692.001,1.5856-.1816,3.214-1.1359,6.0951-5.2954,6.0748-8.7752ZM644.4168,133.2291c.1095,4.1436-1.6216,7.7991-2.4329,11.669-.0557.2655-.1039.5329-.1677.7964-.2281.9422.035,1.4463,1.0564,1.7841,1.4865.4916,3.0272.5473,4.5319.7745,3.5864.5417,7.2134.63,10.7932-.1181,1.9694-.4116,2.6258-1.6083,2.2619-3.5777-.291-1.5742-1.3747-2.504-2.5995-3.2886-2.5086-1.6072-5.0306-3.1972-7.5964-4.7105-1.8497-1.0909-3.4744-2.5806-5.8469-3.329ZM515.6857,123.5803c-1.2003,2.6358-2.3881,5.0774-3.4337,7.5784-1.629,3.8969-2.3348,7.9953-2.3589,12.2107-.0078,1.3782.3619,1.6791,1.6155,1.1685,1.1703-.4767,2.2259-1.2375,3.3992-1.7041,2.5181-1.0013,3.297-2.9549,3.0905-5.4298-.3243-3.886-.7183-7.7665-1.1133-11.6462-.0732-.7196-.3658-1.3871-1.1994-2.1776ZM293.0267,126.6426c0,.0663,0,.1326.0001.199,1.7197,0,3.4401.0292,5.1589-.0099,1.2229-.0278,1.551-.5681.8164-1.4608-3.0869-3.7518-6.8284-6.1863-11.957-5.6208-1.4421.159-2.9603,1.487-3.2752,2.8406-.296,1.2721.3044,2.3851,1.796,3.3175.7877.4925,1.6678.7069,2.5781.7252,1.627.0328,3.2551.0092,4.8827.0092ZM205.7296,153.3414c-.1258-.3209-.2496-.6578-.3887-.9881-1.3431-3.1875-3.9072-5.1455-6.8966-6.5464-2.4484-1.1475-4.8101-.4053-6.8691,1.0862-1.5326,1.1102-1.3607,1.926.3859,2.6358,1.6714.6791,3.3614,1.3162,5.0622,1.9181,2.3833.8433,4.7781,1.6556,7.182,2.438.5616.1828,1.259.4172,1.5244-.5436Z"/>
    <path class="cls-1" d="M90.0616,139.6435c-3.2165-2.6725-5.6635-5.3068-8.0506-7.9962-7.6874-8.6609-8.5299-19.8528-2.0518-29.8466.8964-1.3829,1.886-2.6494,3.0041-3.8108,1.956-2.0318,4.3936-3.1545,7.2318-3.2719,3.4469-.1426,6.893-.174,10.3363.1566,5.2065.5,10.416.1078,15.3079-1.5808,4.0286-1.3907,7.6976-3.7355,9.2988-8.1628.1126-.3113.1728-.7342.6591-.7411.4646,2.8395-1.2705,5.0856-2.4246,7.2857-2.9688,5.6594-7.666,9.6619-13.7919,11.6493-3.4445,1.1175-7.0773,1.5516-10.7281,1.3399-4.1833-.2426-8.3738-.0944-12.5089.3648-5.7576.6395-6.2406,1.3844-4.772,6.8868,1.7196,6.4428,5.0023,12.0273,10.2101,16.3373,2.9016,2.4013,6.2363,4.0529,9.7822,5.2287,2.6534.8799,5.4725.6067,8.0811.0123,4.3193-.984,8.4411-2.5835,12.3295-4.8625,4.0591-2.379,8.0605-4.827,11.9193-7.5108,1.2492-.8689,1.9964-2.352,3.652-3.0183.4785.9379.0542,1.729-.3475,2.4629-1.303,2.3804-2.7794,4.6746-3.9476,7.1175-1.1697,2.446-3.24,3.8475-5.3331,5.2764-4.5022,3.0736-9.3796,5.466-14.229,7.9281-5.2728,2.677-10.7864,4.7831-16.2916,6.8463-4.5328,1.6987-9.1803,3.3043-14.239,3.0036-4.369-.2597-7.9927-1.7386-11.1927-4.7865-3.2911-3.1348-5.2897-7.1229-7.6637-10.8325-2.1111-3.299-6.8104-4.984-10.4324-1.7306-3.3535,3.0123-5.8991,6.5713-8.0503,10.521-2.6568,4.8781-4.3836,10.1362-6.6422,15.1723-1.2635,2.8173-2.7732,5.5215-4.7698,7.8914-1.5366,1.8239-3.3612,3.2551-5.9301,3.3508-3.07.1144-5.2453-1.4248-6.7241-3.8826-4.1988-6.9785-6.6547-14.4688-6.3515-22.7342.3242-8.8379,1.6277-17.5097,4.3137-25.9445.3091-.9706.0043-1.5743-.511-2.2126-3.5309-4.3734-4.723-9.431-4.7973-14.9668-.091-6.7774.8197-13.3602,2.5699-19.8969,1.988-7.4251,4.6415-14.6332,6.8364-21.9839,2.3831-7.9811,4.7724-16.0014,4.891-24.4547.0073-.5229-.0607-1.098.4898-1.4629.8168.0441.7047.7174.7195,1.1976.0808,2.6308.0481,5.244-.3935,7.867-1.4826,8.8051-4.5735,17.1557-7.0462,25.6838-2.0958,7.228-3.8285,14.5701-4.4438,22.0861-.451,5.51.4183,10.8874,3.3393,15.7293,1.5765,2.6133,3.7907,4.3971,7.0229,4.3781,2.5129-.0147,3.0297-.5278,3.0096-3.0659-.0156-1.9715-.402-3.9555.6727-5.8011.2312-.397.4091-.7989.9084-.9879.9182,1.0802,1.1098,2.3292,1.1961,3.7461.2697,4.4258-1.1211,8.3873-3.0317,12.2427-1.821,3.6747-3.827,4.4785-7.7513,3.1682-.6698-.2237-1.2573-.7205-2.0687-.6494-2.6423,9.2137-4.1469,18.5876-3.4711,28.1952.2772,3.9416,1.5818,7.7416,3.974,10.8672,3.7126,4.8507,9.5636,4.3099,13.3194-1.1674.509-.7423.8728-1.5916,1.2482-2.4168,2.1025-4.6225,4.2504-9.2253,6.3574-13.8446,2.5988-5.6974,5.8857-11.0313,10.7208-15.209.4115-.3556.8218-.7181,1.2669-1.0282,4.8748-3.3966,9.4672-2.2195,12.1535,3.0942.8977,1.7756,1.7921,3.5542,2.747,5.2992,2.616,4.7806,6.8158,7.4408,12.0062,8.5166,2.6819.5559,5.3673-.0039,8.4123-1.042Z"/>
    <path class="cls-1" d="M680.8289,56.5263c-.9151.0016-1.5381-.4599-2.0447-1.1413-1.6762-2.2551-3.8511-4.0994-5.3461-6.5063-.3251-.5234-.6486-1.2482-1.4268-.9956-.7556.2454-.6269,1.0054-.6199,1.6348.0223,2.0098.5779,3.9483.8037,5.9285,1.1091,9.7272,2.9889,19.3447,4.2253,29.0451,1.2149,9.5317,2.71,19.0275,3.6337,28.6027.8895,9.222,1.7855,18.4345,1.403,27.7024-.3772,9.1385-2.7512,17.7091-7.9804,25.3471-.0835.122-.2886.1608-.4425.2413-.4226-.7545-.0132-1.4117.2619-2.0673,1.2723-3.0312,1.9418-6.1937,2.459-9.4417,1.2539-7.875.9741-15.7265.117-23.5964-.638-5.8573-1.1261-11.7349-1.9272-17.5696-1.1587-8.4392-2.0746-16.9119-3.5873-25.3053-.9482-5.2615-1.6177-10.5749-2.3459-15.8741-1.6788-12.2159-3.3015-24.4396-4.9959-36.6533-.1721-1.2409-.6204-2.4559-1.0427-3.6467-.6451-1.8189-.5129-3.5699.3059-5.2748.8615-1.7939,1.7496-3.5765,2.6874-5.3313.278-.52.5538-1.1679,1.3866-1.0949.8215.072,1.344.4566,1.5855,1.2456.9565,3.1261,2.6738,5.9414,3.5759,9.111.7907,2.778,1.8284,5.5215,3.0808,8.1243,2.2862,4.7515,3.6071,9.8764,5.8806,14.6231.4357.9095.7001,1.8581.3534,2.8928Z"/>
    <path class="cls-1" d="M543.8082,52.3878c-2.0601-2.0841-4.087-3.7261-5.3606-6.0737-.6992-1.2889-1.573-2.38-3.3147-2.9812-.4614,1.8426-.1465,3.5304.0875,5.1589,1.3664,9.5092,3.0369,18.9753,4.4161,28.4778,1.3141,9.0544,2.6539,18.1125,3.7004,27.212,1.0479,9.1133,2.084,18.2144,1.8537,27.396-.2017,8.0466-1.583,15.8634-5.1976,23.1727-.8131,1.6442-1.985,2.9819-2.9822,4.5238-.542-.56-.4063-.9861-.2087-1.3864,1.9213-3.8949,2.5597-8.1122,3.0407-12.3538.9364-8.2567.2643-16.485-.6242-24.6966-.585-5.4062-1.172-10.818-1.9871-16.1925-2.2697-14.964-4.7188-29.9008-6.979-44.8662-1.4218-9.4142-2.644-18.8586-3.9224-28.2941-.1971-1.4555-.502-2.8897-1.1566-4.1727-.6014-1.1787-.573-2.1741-.0392-3.3413,1.056-2.3093,1.982-4.6814,3.3002-6.86.2916-.4819.4534-1.3021,1.3244-1.0921.6682.1613,1.1366.6663,1.2962,1.2925.6335,2.4873,1.9353,4.6919,2.8852,7.0435,3.2946,8.1562,6.5715,16.3195,9.8664,24.4756.4101,1.0148.8032,2.0081.0018,3.5577Z"/>
    <path class="cls-1" d="M347.3024,81.0671c-.4229-.5216-.2659-1.0639-.1615-1.585,1.1188-5.5853,1.1907-5.7361,6.2786-8.3286,5.729-2.9191,11.529-5.6999,17.2364-8.6598,9.0173-4.6764,18.3644-8.6241,27.5977-12.8308,8.322-3.7915,16.818-7.1726,25.1112-11.0219,1.6965-.7875,3.5859-1.0818,5.2516-2.0329.7305-.4171,1.4592-.0102,1.1789,1.0581-.7336,2.7958-1.9046,5.1792-4.9245,6.28-2.2817.8317-4.4254,2.0356-6.6553,3.0173-5.9412,2.6154-11.92,5.1468-17.8392,7.8107-7.7512,3.4884-15.5725,6.8219-23.1424,10.7115-5.9454,3.0548-12.0307,5.8375-17.9678,8.9076-4.0548,2.0968-8.1698,4.106-11.9636,6.674Z"/>
    <path class="cls-1" d="M321.1693,78.4555c.3347-5.6244,2.8685-10.0702,7.5614-13.1128,5.6278-3.6486,11.7525-6.4149,17.6752-9.5417,6.018-3.1771,12.2862-5.8112,18.3741-8.8351,6.1605-3.06,12.4952-5.773,18.785-8.567,5.0484-2.2425,10.1441-4.3785,15.2184-6.5625.4998-.2151.9929-.4463,1.4973-.6499.8332-.3364,1.2773.011,1.1471.8496-.2706,1.7423-.7754,3.3741-2.6189,4.1548-1.9187.8125-3.8236,1.6574-5.739,2.4776-8.499,3.6394-16.8482,7.5904-25.0927,11.7788-5.6026,2.8463-11.3541,5.3977-17.0087,8.1432-6.5726,3.1911-13.2058,6.2643-19.507,9.9916-2.3607,1.3964-4.4394,3.1545-6.4974,4.9235-1.9977,1.7173-1.8472,3.1897.1878,4.9609,1.8571,1.6165,4.2809,2.3628,6.0907,4.0615,1.4154,1.3285,1.5704,1.8552.6818,3.4711-1.0403,1.8918-1.3942,1.9651-3.3822,1.0174-1.5543-.7409-3.0972-1.4916-4.4778-2.5275-2.2743-1.7066-2.984-3.2259-2.8949-6.0337Z"/>
    <path class="cls-1" d="M332.1765,38.5631c.2772,3.2207-.8571,5.3096-3.744,6.6487-5.1733,2.3998-10.3745,4.7558-15.4996,7.2406-7.4156,3.5953-14.9329,6.9863-22.2086,10.8867-4.9365,2.6464-10.0371,4.9916-14.92,7.7566-4.2482,2.4055-8.5283,4.7528-12.4543,7.7323-.3909-.8689.2039-1.5973.2225-2.3915.0717-3.0587,1.5412-4.937,4.3178-6.5317,11.8031-6.7795,23.9901-12.798,36.2091-18.7529,8.376-4.0821,16.8873-7.8866,25.3493-11.7911.8042-.3711,1.597-.8711,2.7279-.7977Z"/>
    <path class="cls-1" d="M466.9287,85.8335c-1.5408-1.448-2.956-2.8381-4.4404-4.1498-.8475-.7489-1.4974-.8742-2.3533.3469-3.201,4.5667-7.3153,8.3114-11.6108,11.7987-3.1254,2.5374-6.5077,4.7759-9.8832,6.9826-4.2952,2.808-8.4405,5.861-13.0136,8.2305-2.5446,1.3184-5.0292,2.7793-7.8628,3.5771-.1787-1.0034.5444-1.3824.9946-1.5442,2.646-.9508,4.3077-3.2687,6.6653-4.6403,2.414-1.4044,4.5389-3.2963,6.8618-4.8694,5.4841-3.7138,10.7016-7.7847,15.9281-11.8403,3.207-2.4886,6.1943-5.2481,8.9456-8.2393,1.619-1.7602,1.4775-2.4026-.5059-3.7753-.67-.4637-1.3701-.9152-1.939-1.4888-3.7982-3.829-3.9579-5.2692-1.2475-9.9966,1.0003-1.7446,2.139-3.3636,3.7201-4.6449,3.552-2.8784,7.4147-1.6289,8.5834,2.7412.7036,2.631.6768,5.1825-.3782,7.7155-.3476.8346-.5568,1.7266-.9009,2.5628-.3653.8874-.2123,1.5808.5637,2.1439.146.1059.2671.2456.4029.366,2.7509,2.4374,3.924,5.1822,1.4701,8.7239ZM462.7458,70.2055c-.2234-1.3967-.2699-3.1345-2.1203-4.0442-1.7566-.8636-3.2807-.4502-4.7651.6262-1.0202.7398-1.1173,1.5035-.2829,2.4697,1.074,1.2435,2.5074,2.0409,3.7114,3.1185.7227.6468,1.3933,1.7504,2.4624,1.2828,1.1565-.506.7872-1.8808.9923-2.9061.0173-.0865.0023-.1794.0023-.5469Z"/>
    <path class="cls-1" d="M131.5875,159.1664c.6527,2.3944-.7559,3.6228-1.8634,4.8148-1.4779,1.5908-3.2812,2.8295-5.1829,3.9244-4.0511,2.3325-7.4526,5.4367-10.4139,9.0385-.9516,1.1574-1.487,2.398-1.41,3.977.1177,2.4123.1515,2.6813,2.4931,3.5597,3.3544,1.2584,6.829.9248,10.1966.245,5.6166-1.1338,10.8688-3.3279,15.8363-6.1958,1.9448-1.1227,3.3216-2.9078,5.092-4.257-2.1046,4.2466-4.7184,7.9611-9.0011,10.3732-3.9079,2.2011-8.122,3.624-12.3192,4.9707-3.2405,1.0398-6.7835,1.2474-10.2244.5516-2.9192-.5902-4.2919-2.3105-4.3894-5.2399-.2182-6.5601,3.0689-11.4643,7.5383-16.0506-.6769-.8994-1.9204-.9597-2.9138-1.4299-2.741-1.2974-3.3964-2.5204-2.4884-5.3957.8203-2.5976,1.9712-5.0206,4.0512-6.9463,1.2274-1.1362,2.1367-2.6064,3.5308-3.6005,1.3938-.9938,2.7626-1.0136,3.9738-.0292,1.335,1.0851,1.7249,2.4239,1.1477,3.93-.2251.5874-.4147,1.1908-.6783,1.76-.1466.3167-.4123.5783-.5802.8053-.6121.0687-.9148-.254-1.2565-.5611-2.5403-2.2835-5.2044-.9891-6.7902.5375-1.4326,1.3791-1.2563,2.7843.4799,3.756,3.1243,1.7484,6.4123,1.7137,9.6975.5393,1.8588-.6645,3.6212-1.5738,5.4745-3.077Z"/>
    <path class="cls-1" d="M554.2691,86.6249c-1.4798-1.3665-2.5498-2.8844-4.2763-3.628-1.055-.4544-.9077-1.4265-.9416-2.3333-.0589-1.5736-.0966-3.5353,1.0699-4.314,1.2088-.8068,2.5984.6872,3.7761,1.4834,4.1687,2.8183,8.0359,5.9104,9.8375,10.8769.0432.1192.2955.1624.4817.2571.9782-.8415.5984-2.0042.6365-3.0278.091-2.446-.0038-4.9039.6492-7.2971.5062-1.8551,1.2445-3.6108,2.6095-5.0001,1.2317-1.2537,2.2147-1.3825,3.6178-.3441,1.2904.9548,2.5155,1.94,3.2444,3.5518.894,1.9769.7453,3.6298-.598,5.5053-1.2185-1.6959-2.3999-3.2741-4.3279-4.0763-2.2072-.9184-2.9776-.5963-3.2896,1.8084-.1741,1.3414-.1325,2.7196-.0921,4.0783.1058,3.566-.2429,7.0676-1.5155,10.4176-.5244,1.3803-.235,2.164,1.1611,2.7281,1.9823.8011,3.3682,2.4179,4.8452,3.889.4558.4541.7652.9909,1.0407,1.5758,1.2235,2.5982.1033,4.7261-2.7224,4.9561-2.4551.1998-4.845.6085-7.1407,1.5352-2.6202,1.0576-3.0719,2.3783-2.2056,5.1037,2.1312,6.7046,4.7759,13.2766,5.6498,20.3278.3074,2.48.2939,4.9703-.2785,7.4535-1.0199-1.5704-.9665-3.3423-1.2378-5.0335-.9976-6.2204-3.2307-12.0794-5.4012-17.9346-2.0829-5.6188-.0796-11.5712,5.1934-14.3929.2391-.128.4927-.2298.7428-.3361.5712-.2428,1.3444-.3906,1.2394-1.1927-.1001-.7652-.72-1.234-1.4569-1.4463-1.5778-.4546-2.8293.071-3.9115,1.7858-.3636-2.3881.5823-3.9192,1.7831-5.1878,1.0421-1.1009,1.2219-2.2105.7141-3.463-1.2941-3.1918-2.7254-6.2952-5.5681-8.5032-1.6585-1.2881-1.6072-1.3541-3.3285.1774Z"/>
    <path class="cls-1" d="M605.0175,101.5126c6.5945-3.9371,13.6829-6.827,19.7668-12.3485-6.0503-1.3035-11.6475.4081-17.5193-.415,1.7945-3.6283,3.6319-6.798,5.6338-9.8823.3449-.5313.7867-.6886,1.3464-.7448,1.0811-.1087,2.1602-.3217,3.2415-.3312,4.903-.043,9.8065-.0549,14.7096-.0278,2.72.015,2.9762.4168,1.8323,2.7981-1.7712,3.6872-4.1906,6.9712-6.454,10.3581-1.7931,2.6831-4.1879,4.7643-6.4294,7.0021-1.9827,1.9795-4.7673,2.1131-7.2669,2.8045-2.3293.6443-4.7555.9444-7.1465,1.3527-.5079.0868-1.0842.1404-1.7144-.566Z"/>
    <path class="cls-1" d="M24.4296,79.4941c2.8914-1.6524,5.673-3.2825,8.492-4.8452,6.9701-3.8639,13.7714-7.9925,20.4572-12.3392,4.9477-3.2167,9.4711-6.943,14.0838-10.5756.5683-.4476,1.0926-.954,1.6158-1.4556.6558-.6288,1.5237-1.2935,1.4844-2.1929-.0505-1.1551-1.3707-.9199-2.1178-1.3049-1.9851-1.0229-2.5304-2.3173-2.0527-5.2555.0568-.349.2122-.6899.3653-1.014,1.0355-2.192,2.0849-4.3692,1.2296-6.9116-.0988-.2938.0997-.7058.2077-1.0481,1.0213-3.2372,1.8235-3.5033,4.5477-1.5625,1.1063.7882,2.2686,1.4983,3.3662,2.2978,4.8158,3.5079,7.4811,8.0432,6.6985,14.1994-.0343.2696-.0564.5429-.1185.8064-.6671,2.8299-1.7344,3.3768-4.4773,2.2921-1.3481-.5332-2.6921-1.0768-4.0365-1.6193-.75-.3027-1.3363-.2655-1.8649.5014-4.794,6.9558-11.5036,11.6941-18.531,16.1039-4.46,2.7987-9.2298,5.0392-13.704,7.7755-4.54,2.7766-9.6106,4.1651-14.401,6.2701-.3287.1444-.6767.2721-1.2448-.1222ZM74.4715,41.4991c0-1.0951.0449-1.5494-.0084-1.9918-.158-1.3099-1.1101-2.0194-2.1617-2.5343-1.1137-.5454-1.8379.2833-2.5447.9764-2.3657,2.3198-2.2082,3.545.6674,5.0954.5514.2972,1.1248.5678,1.7138.7784,1.2118.4332,1.9059.105,2.2137-1.0992.1529-.5983.1214-1.2438.1199-1.2249ZM76.6397,38.6888c-1.0276,1.8852-.7065,3.5292-1.3666,4.9347-.2685.5717-.0708,1.0813.5153,1.3338,1.8922.8152,3.5918,2.0672,5.8707,2.6107.1766-4.0283-2.6451-6.0829-5.0195-8.8793Z"/>
    <path class="cls-1" d="M490.0364,162.596c.7008.4695.353.937.3479,1.342-.0299,2.3867.098,2.5818,2.3102,3.3198,2.5748.8589,3.1878.4588,2.7213-2.1403-.427-2.3788,1.354-3.5443,2.3396-5.4541,1.0705,1.6706.4595,3.2402.6057,4.7103.2605,2.6186-.7248,4.8744-2.1347,6.9881-.8995,1.3484-2.0662,1.7875-3.5971,1.3594-.3473-.0971-.6725-.2719-1.0095-.4071-2.2864-.9176-4.2648-1.3207-6.2831,1.0003-1.3712,1.5769-3.6113,2.0202-5.7064.6094-3.4072-2.2944-6.5161-1.6349-9.7943.5918-5.0188,3.4089-9.7366,7.2402-14.9396,10.3927-4.9012,2.9696-9.9226,5.7721-15.3679,7.4489-4.0103,1.235-8.0799,2.7715-12.4412,2.5018-.6291-.0389-1.26-.1112-1.8785-.2292-.2466-.0471-.4615-.2602-.8393-.4869.7046-.5936,1.5256-.6041,2.2342-.7509,7.6318-1.58,14.6054-4.7609,21.3936-8.4923,3.9796-2.1876,7.7698-4.6758,11.6742-6.9788,2.7182-1.6033,5.229-3.5809,7.7304-5.5229,2.3059-1.7902,4.7215-3.3701,7.4028-4.5057,1.8067-.7652,3.6728-1.0084,5.5109.0003.3179.1745.6598.305.9786.4781,3.8915,2.1138,6.1714.3249,7.303-3.0399.3429-1.0197.8485-1.8832,1.4392-2.735Z"/>
    <path class="cls-1" d="M59.2192,111.0722c-2.3273-3.2698-6.1769-4.2507-8.7556-6.9823-1.2667-1.3417-1.5632-1.5514-.8998-3.1786.5259-1.29,1.5708-2.2078,2.3485-3.3169,1.6679-2.3789,1.5944-3.0363-.5278-5.0844-1.6873-1.6283-3.8155-2.7068-5.3909-4.4958-1.7115-1.9435-1.7829-2.0954-.669-4.5078.6873-1.4885,1.5135-2.887,2.405-4.2554.5861-.8995,1.2029-1.2779,2.1964-.4602,2.5123,2.0673,5.1119,4.0302,7.5891,6.1378,1.5171,1.2908,1.5153,1.6275.5929,3.5091-.6373,1.3-1.3795,2.5485-2.071,3.822-1.1606,2.1373-.9813,3.1705.9808,4.6003,1.676,1.2213,3.5637,2.1121,5.2344,3.3709,2.4537,1.8489,2.5377,1.9333,1.0884,4.5774-1.1318,2.0647-2.1994,4.1681-4.1214,6.2639Z"/>
    <path class="cls-1" d="M210.1541,53.966c-.5621,2.3268-1.8961,3.7388-3.8836,4.6794-6.7954,3.2161-13.4574,6.7436-20.3794,9.6546-7.6219,3.2053-14.9181,6.9985-22.1415,10.968-2.1419,1.1771-4.278,2.3953-6.0511,4.1221-1.5421,1.5019-1.4865,2.1153.266,3.4143,1.3814,1.0238,2.83,1.9664,4.1421,3.0718,1.4298,1.2046,1.4165,1.6494.5908,3.2415-.4091.789-.8671,1.1134-1.7001.5954-1.6155-1.0047-3.2762-1.9413-4.8505-3.0061-.9368-.6336-1.4091-1.5908-1.4028-2.7939.024-4.5742,1.7503-8.1247,5.6289-10.7906,7.8193-5.3746,16.4749-9.0922,25.0182-13.0416,7.15-3.3052,14.3425-6.5185,21.5059-9.795,1.007-.4606,1.9678-.956,3.2571-.32Z"/>
    <path class="cls-1" d="M631.9461,38.2735c-.0373-2.804.4637-5.207,3.1556-6.6995,1.7844-.9894,3.4844-2.1312,5.3594-3.2895-1.0252-1.0049-2.3815-1.2781-3.5223-1.9094-2.1056-1.165-2.8796-2.7069-2.0926-4.9462,1.422-4.0462,3.9006-7.3422,7.4786-9.7536.5159-.3477,1.1174-.6466,1.7199-.7721,1.6257-.3387,3.2903-.3935,4.5977.828,1.3816,1.2906.7454,2.8482.2601,4.3047-.3086.926-.4541,1.9646-1.3536,2.5944-3.2118-3.6074-6.8655-3.2015-9.9381,1.0944,4.0675,3.3761,9.6495,4.0403,14.131,1.5714,1.7544-.9665,3.5372-1.836,5.4295-2.4727.596-.2006,1.3303-.3731,1.8049.1395.5612.6062-.2128,1.1289-.3215,1.7032-.4325,2.2852-2.0357,3.3101-3.9755,4.3144-7.2156,3.7357-13.9819,8.245-20.9021,12.4884-.5242.3215-.9637.8248-1.8311.8046Z"/>
    <path class="cls-1" d="M345.8233,115.0424c-.3254-.2151-.768-.5247-1.2269-.808-2.4573-1.517-4.4816-3.6226-7.038-5.0341-1.2718-.7023-1.8663-.6032-2.5546.6333-.7467,1.3414-1.6088,2.609-2.2429,4.0256-.6977,1.5586-.9898,1.7044-2.4609.7713-2.8267-1.7933-5.5492-3.7523-8.2966-5.6689-1.0617-.7407-.7722-1.8033-.3575-2.7001.7956-1.7202,1.7233-3.3802,2.6214-5.0518.5715-1.0636,1.3096-.64,2.0481-.1857,2.3164,1.4246,4.6385,2.8398,6.9579,4.2594,2.4212,1.4819,2.68,1.4178,4.2072-1.0701.6132-.9989,1.1585-2.0461,1.8452-2.9909.5423-.7461,1.1163-1.2733,2.2356-.5041,2.9707,2.0415,5.9319,4.0835,8.6258,6.4871.4121.3677.7423.787.4413,1.4175-.9763,2.0454-1.8241,4.168-3.5207,5.7706-.3176.3-.5859.7077-1.2846.6489Z"/>
    <path class="cls-1" d="M69.4035,90.9292c.7699-2.922,1.6585-5.5804,4.376-7.1848,3.9861-2.3534,8.1786-4.299,12.3566-6.2799,6.3882-3.0289,12.8526-5.8776,19.3785-8.5953,3.6756-1.5307,7.477-2.7296,11.0632-4.5235,1.3737-.6871,3.0811-.8843,4.5791-1.5133,1.0956-.46,1.6509-.0503,1.3273,1.0277-.5776,1.9237-1.2847,3.7575-3.5202,4.4806-2.5865.8366-5.1146,1.8527-7.6751,2.7713-5.118,1.836-9.9735,4.2785-14.9269,6.4902-8.9261,3.9855-17.7998,8.0868-26.1248,13.2638-.1286.0799-.3374.0308-.8337.0631Z"/>
    <path class="cls-1" d="M244.8838,182.4819c-.0543.155-.0615.3852-.1702.4536-6.785,4.2709-13.7467,8.1155-21.9234,8.9961-2.4517.2639-4.9005.2999-7.3027-.3178-3.4541-.8885-4.1914-3.3782-1.8068-6.0459,1.8147-2.03,3.6741-4.02,5.5031-6.0373.1098-.1211.1263-.3268.1858-.4921-2.948-2.0584-11.795-2.02-15.4518.1914-.0727-.8018.4199-1.2084.7691-1.6334.5174-.63,1.1646-1.1638,1.6211-1.8313,2.4365-3.5627,5.989-3.977,9.856-3.6073,2.3565.2253,4.6423.8069,6.9185,1.3929,2.0376.5244,2.4728,1.6196,1.4086,3.4313-.496.8443-1.2334,1.5633-1.9328,2.2681-1.6603,1.6732-3.4131,3.2569-5.0328,4.9675-1.2398,1.3095-1.1213,1.8662.5648,2.5582,2.1309.8747,4.3979.9097,6.6796.8086,6.4607-.2864,12.3867-2.5755,18.3325-4.8064.4215-.1582.8448-.3198,1.28-.4291.1467-.0368.3329.0838.5012.1328Z"/>
    <path class="cls-1" d="M286.6597,51.2745c-.4978-4.6221-3.1618-8.0139-6.1532-11.2224-.4997-.536-1.0268-1.0174-1.7206-1.2964-.3468-.1395-.7608-.3068-.9678.0575-1.1242,1.9782-2.1242.5124-3.0434-.1463-1.1002-.7883-2.0256-1.8228-3.1335-2.5978-1.3389-.9367-1.6047-2.2833-1.2473-3.6032.4078-1.506.4206-3.6108,2.1131-4.132,1.3724-.4225,2.6317.9366,3.7039,1.9068,1.8109,1.6386,3.8886,2.9248,5.6171,4.7045,2.4163,2.4879,4.2128,5.3518,5.7577,8.4317.1838-.0417.3676-.0834.5514-.1251.0252-2.1048.0652-4.2095.0719-6.3143.0087-2.7501.4738-5.4062,1.5575-7.9426.1777-.4159.3465-.8379.5581-1.2365,1.8615-3.5075,4.2156-3.9486,7.2009-1.3575,2.8397,2.4648,3.4378,6.0619,1.3683,9.0032-1.0538-1.26-2.1375-2.4464-3.3736-3.4815-.6336-.5306-1.2769-1.0127-2.0416-1.3195-2.0841-.8361-3.1563-.2231-3.2285,2.042-.0953,2.9898-.0538,5.9853-.0143,8.9776.0406,3.068-1.0667,5.8526-2.0416,8.6716-.1735.5016-.4458,1.0044-1.5344.9801Z"/>
    <path class="cls-1" d="M460.8104,43.7166c.3263-1.0218.1499-2.0842.1979-3.1195.1175-2.5373.2266-5.0749.3404-7.6124.123-2.7425,1.6034-4.9816,2.817-7.2914.5947-1.1319,1.9141-1.4338,3.0988-1.2155,4.1472.7641,6.7986,5.8333,5.1875,9.7863-.0948.2328-.3275.4093-.6394.7844-.6683-.7354-1.3366-1.4029-1.9243-2.1351-.6905-.8601-1.5264-1.5486-2.3813-2.2225-.8666-.6831-1.9394-1.1538-2.9307-.7689-1.184.4598-1.6071,1.6437-1.5968,2.9211.0184,2.269-.0383,4.5413.0652,6.8063.1565,3.4229-.6313,6.6594-1.7436,9.8426-.2001.5727-.3136,1.2295-1.0365,1.7247-1.2123-.8512-1.2774-2.2869-1.5675-3.5223-.9303-3.9623-4.037-6.2611-6.657-8.9308-.5047-.5143-1.3587-.4639-1.6988.0849-.6899,1.1133-1.5544.6625-2.0159.1449-1.2227-1.3714-2.8352-2.221-4.1716-3.4283-.9925-.8967-1.3521-1.8733-.9735-3.1472.1548-.5209.2365-1.0635.391-1.5845,1.1147-3.7594.5807-3.996,4.2084-1.5547,1.8408,1.2387,3.8077,2.3585,5.421,3.9885,2.8197,2.8489,5.6834,5.6195,6.8156,9.6463.0714.254.2517.4808.402.7065.0334.0502.1546.0419.3922.0967Z"/>
    <path class="cls-1" d="M108.9145,43.5052c.7049-3.2847.4601-6.5329.9937-9.727.4372-2.6173,1.0705-5.1589,2.9351-7.1831,1.4951-1.6231,2.8973-1.8379,4.8659-.8151,3.4534,1.7941,4.7153,5.9955,2.9393,9.7909-.8625.2063-1.0171-.5648-1.3946-1.0201-.9835-1.186-1.9271-2.4115-3.1757-3.3423-1.0444-.7786-2.1999-.8101-3.3556-.3376-1.1843.4841-.996,1.6129-1.0245,2.5727-.0538,1.8131-.1085,3.6323-.021,5.4421.1873,3.8765-.719,7.5569-1.833,11.211-.0526.1724-.1297.3375-.1998.5042-.2084.4957-.3855,1.1325-1.0546,1.0177-.4536-.0779-.641-.5925-.6918-1.0712-.2266-2.1328-1.2655-3.9428-2.2645-5.7759-1.0181-1.8683-2.523-3.3205-4.0537-4.7301-.862-.7938-1.8263-1.5008-3.0601-.3125-.5316.5121-1.2349.3111-1.8531-.3689-.9058-.9964-1.906-1.923-3.0492-2.6873-1.5285-1.022-1.9905-2.5215-1.603-4.2851.1741-.7921.4222-1.568.6354-2.3515.4785-1.7589.8645-1.9949,2.4066-1.2507.8929.4309,1.7795.94,2.5396,1.5701,4.2291,3.5058,8.7945,6.7288,10.7364,12.2496.1153.3278.3846.6013.5822.9001Z"/>
    <path class="cls-1" d="M446.5425,103.6141c.8217.4232.6983,1.0861.6901,1.7116-.0228,1.7219-.1075,3.4462-.0457,5.1651.0862,2.3972,1.1326,3.5009,3.4903,3.6408,2.3112.1372,4.213-.7982,5.7697-2.5014.6267-.6857.6349-1.4989.5371-2.3-.1312-1.0742-.2155-2.2081-.6326-3.1825-.9377-2.1909-.7773-4.2223.5026-6.3316,1.2825.7612,1.4194,2.1436,1.7541,3.3799.2827,1.0444.4623,2.1196.6405,3.189.5515,3.3092,4.6685,5.6359,8.2074,4.9568,1.128-.2165,1.5824-.815,1.0803-1.9141-.8274-1.8106-1.6815-3.6093-2.5377-5.4066-1.1151-2.3406-.9411-4.5512.6067-6.6272.4202-.0497.7581.074.9205.4417,1.0961,2.482,2.2598,4.9385,3.2421,7.4653,1.196,3.0764.7542,6.0503-.9925,8.8271-.8179,1.3002-2.0735,2.0132-3.5557,2.17-2.5955.2746-5.0636-.0458-7.0806-1.9659-.379-.3609-.8665-.6077-1.4744-1.0239-1.2069,2.2329-2.6666,4.0788-4.7288,5.4876-2.925,1.9981-6.8157,1.0501-7.6774-2.7267-.7882-3.4548-.3019-7.0396.021-10.5549.0669-.7286.5811-1.4681,1.2629-1.9Z"/>
    <path class="cls-1" d="M387.7514,80.3749c2.3485,3.4427,3.8774,6.9854,4.6485,10.6491.6328,3.0065-.5859,5.9753-3.2343,7.9148-2.2633,1.6575-4.6939.7382-6.9969-.0374-1.2917-.4349-2.2942-1.4136-3.2307-2.7198-.9838,1.8477-2.1504,3.2896-3.4006,4.6753-1.8435,2.0432-3.643,2.6148-5.9664,1.7921-1.9711-.698-3.3299-2.622-3.392-5.0182-.0564-2.1779-.0762-4.3651.0643-6.5368.0885-1.3673.1829-2.858,1.6715-3.9593.6465,1.1174.3808,2.1166.4057,3.0535.041,1.5399-.0258,3.0725.3121,4.6055.2616,1.1873.9392,2.0038,1.9401,2.468,1.9375.8984,3.6914.1535,5.3914-.8323,1.4873-.8624,2.2174-2.0646,2.0045-3.821-.1319-1.088-.4661-2.1225-.6892-3.1828-.441-2.0962-.7666-4.233.7898-6.3333,1.3579,1.4539,1.4848,3.1453,1.6484,4.6721.3903,3.6431,2.4915,5.6897,5.716,6.8856.4137.1534.794.343,1.2913.2822,2.883-.3522,3.2315-.9317,2.0654-3.6047-.3627-.8314-.648-1.7209-1.1466-2.4645-1.8294-2.7282-1.6777-5.4335.1079-8.4881Z"/>
    <path class="cls-1" d="M208.7331,76.0916c-.0279,2.8391-.6821,4.983-3.6029,6.2638-9.5246,4.1764-18.804,8.8854-28.1181,13.5128-1.7431.866-3.5052,1.664-5.4839,1.9848,0-.3571-.0308-.5276.0045-.683.767-3.3746,2.7098-5.4182,5.9985-6.9033,8.4045-3.7952,16.5313-8.1975,25.0541-11.7588,1.9927-.8327,4.0973-1.3802,6.1477-2.4162Z"/>
    <path class="cls-1" d="M608.4781,34.9814c.0658-2.6074.1133-5.2132.509-7.7952.3034-1.98.6423-3.9444,1.6198-5.7101,1.2138-2.1928,3.9118-2.5326,5.6981-.7815,2.5587,2.5081,3.092,4.9466,1.6745,7.7162-.8247.1422-1.0301-.6091-1.39-1.0546-.5736-.71-1.1911-1.3376-1.9217-1.8953-1.0467-.799-2.1642-1.5927-3.4557-1.0242-1.3275.5844-.951,2.0166-.9806,3.1485-.0546,2.0826-.0389,4.1676-.022,6.2513.0192,2.3662-.4529,4.6477-1.083,6.9113-.1944.6982-.2161,1.5741-1.1594,1.5863-.951.0123-.6029-.9399-.8171-1.4586-1.0399-2.5186-2.1627-4.9885-4.0096-7.0404-.4798-.5331-1.0058-1.0471-1.5878-1.4613-1.6668-1.1863-1.6823-1.1644-3.1405.5629-1.2859-1.1387-2.5845-2.2615-3.8523-3.4179-1.7543-1.6003-1.8898-5.0379-.3217-6.8232.4587-.5222.8916-.4754,1.4167-.1533,3.9596,2.4278,7.7285,5.0639,10.1737,9.1732.6825,1.147,1.382,2.2838,2.0737,3.4253.1919-.0531.3839-.1062.5757-.1594Z"/>
    <path class="cls-1" d="M323.7613,186.6904c.3704-2.7502,1.1257-4.9422,3.6424-6.2938,9.5108-5.1076,19.157-9.9329,29.0576-14.2413.3187-.1386.6922-.151,1.0464-.2234.318,2.6303-.6267,4.7694-2.8091,5.8129-3.5983,1.7204-7.3275,3.1726-10.891,4.9585-5.672,2.8427-11.2472,5.8782-16.8787,8.8024-.9214.4784-1.7784,1.2182-3.1676,1.1848Z"/>
    <path class="cls-1" d="M589.3767,169.117c-.5218,3.4302-1.4154,5.6176-4.4636,6.7676-7.8854,2.9748-15.1815,7.2244-22.7142,10.9625-2.2816,1.1323-4.5797,2.2314-7.1492,3.4813.3118-1.897.7406-3.4247,1.5111-4.8531.2163-.4011.5081-.6926.9556-.8986,7.362-3.3895,14.278-7.6666,21.7106-10.9192,3.2133-1.4062,6.4045-2.8629,10.1497-4.5404Z"/>
    <path class="cls-1" d="M169.3713,112.658c-.1802,1.8863-.7998,3.2944-1.2609,4.7502-1.0926,3.4495-2.374,6.8784-2.0976,10.5896.1886,2.5323,1.1049,4.71,3.3043,6.2259,2.6232,1.8082,5.2231,1.4378,7.033-1.192.7663-1.1133,1.3197-2.3733,1.9757-3.5773.6216.2479.7048.7257.5288,1.3115-.8096,2.6946-1.5668,5.4204-3.03,7.8498-1.2664,2.1027-2.915,3.7283-5.6564,3.4869-2.4508-.2159-4.1955-1.4578-5.3244-3.6437-1.5448-2.9912-1.9668-6.1127-1.6762-9.4731.4149-4.799,2.1919-9.1334,4.0547-13.4602.4197-.9748.8504-2.0114,2.1491-2.8675Z"/>
    <path class="cls-1" d="M413.9177,122.2423c.7294,4.1859-2.7302,11.1646-5.9583,12.6252-2.6952,1.2194-4.5125.7064-6.467-1.5727-1.7362-2.0246-2.5285-4.3931-2.7946-6.9488-.3307-3.1764-.1348-6.3132.8513-9.4079,1.2053-3.7826,2.5224-7.5045,4.4209-11.0637,1.1453.6973.5014,1.547.2276,2.1731-1.0629,2.4299-1.5907,4.9977-2.2142,7.5514-.5021,2.0563-.562,4.0976-.5062,6.2016.0733,2.7615,1.4316,4.577,3.6608,5.905,2.3861,1.4215,5.091.8438,6.6384-1.4864.7467-1.1244,1.2929-2.3821,2.1413-3.9767Z"/>
    <path class="cls-1" d="M34.6147,193.6003c.2853-3.1628,1.7714-5.2165,4.4541-6.7562,6.7492-3.8736,13.7843-7.1429,20.857-10.3461.9572-.4335,2.0072-.6618,3.4221-1.1161-.6022,2.4127-.5458,4.6221-3.131,5.7158-3.6602,1.5485-7.3044,3.1702-10.8181,5.0213-4.3146,2.2731-8.7965,4.2473-12.8724,6.9673-.5035.336-1.0004.8271-1.9118.5141Z"/>
    <path class="cls-1" d="M153.1168,25.4675c3.142,1.1076,8.6983,8.4381,10.4448,13.5193,2.8719,8.3553,1.6014,17.7117-2.7413,24.4729-.3586-1.0877.2352-1.9944.6077-2.8573,2.0131-4.6623,1.6719-9.3865.4664-14.1235-1.2596-4.9495-3.9161-9.198-7.3983-12.8052-1.8438-1.91-2.2822-3.7626-1.7102-6.134.1471-.6099.2015-1.2422.3309-2.0722Z"/>
    <path class="cls-1" d="M501.1404,105.5287c.7317,1.0795.4329,1.8377.2077,2.6166-.8892,3.0732-2.1588,5.9467-4.5406,8.1678-2.2538,2.1019-4.806,1.9679-6.9269-.292-1.8232-1.9427-2.6344-4.407-2.8526-6.9316-.5735-6.6363,1.4418-12.7126,4.5355-18.485.109-.2033.4101-.3035.6611-.4794.4485,1.4031-.2287,2.5541-.6402,3.7181-.7574,2.1429-1.3851,4.3086-1.7422,6.5572-.3954,2.4895-.1579,4.9071.889,7.1879.8195,1.7854,2.0649,3.2652,4.1962,3.3856,2.1662.1224,3.862-.7652,4.8234-2.8318.3764-.809.8362-1.5792,1.3897-2.6133Z"/>
    <path class="cls-1" d="M421.0081,59.6377c.2473,1.6423-.4315,2.6806-.7704,3.7731-1.0794,3.4807-1.7982,6.9943-1.8561,10.6701-.0456,2.893,1.6174,4.7946,3.4695,6.4902,1.6216,1.4846,5.3736.3181,6.6399-1.7847.551-.9149.7063-2.0493,1.7018-2.9791.3759.6225.3292,1.2333.1768,1.7685-.8997,3.1588-2.0382,6.2065-4.3833,8.6345-2.1227,2.1976-4.6555,2.2013-6.9527.1562-2.1709-1.9326-3.1956-4.4316-3.4152-7.1796-.5598-7.0053,1.8349-13.2457,5.3898-19.5492Z"/>
    <path class="cls-1" d="M493.7351,55.0404c-.4925,3.3866-1.1915,6.7797-3.596,9.3971-3.352,3.6489-7.4186,2.0943-9.2811-1.1458-.9049-1.574-1.4066-3.2799-1.539-5.1479-.4578-6.4585,1.3472-12.3723,4.1198-18.0728.2581-.5306.4663-1.1978,1.2622-1.3867.5952,1.4202-.185,2.5941-.6574,3.8009-1.4036,3.5862-2.2145,7.2682-2.0319,11.1491.1179,2.5037,1.3691,4.2713,3.4333,5.5032,2.7079,1.6159,5.1417.9106,6.6078-1.862.4129-.7808.7499-1.6017,1.1218-2.4042.1869.0564.3737.1127.5606.1691Z"/>
    <path class="cls-1" d="M368.9744,111.5023c.353.171.8664.3582,1.3144.6471,2.3581,1.521,4.7364,3.015,7.0348,4.6226,1.7289,1.2092,1.8171,2.1056.4484,3.7977-1.0807,1.336-1.5824,3.0529-2.9425,4.2114-.6408.5458-1.0777.7316-1.8678.2485-2.6239-1.6043-5.2864-3.1477-7.968-4.6539-1.1734-.6591-1.5091-1.5598-.9402-2.7043.8452-1.7002,1.7715-3.3622,2.7216-5.0069.4284-.7415,1.1446-1.1376,2.1994-1.1622Z"/>
    <path class="cls-1" d="M234.6356,151.9184c.0772,1.0525-3.5771,6.5778-4.5531,6.9551-.4713.1822-.8931.0459-1.2901-.1816-2.5871-1.4825-5.225-2.8865-7.7333-4.4927-1.8082-1.1578-1.8944-1.7701-.9042-3.5927.7758-1.4281,1.72-2.7636,2.5372-4.1705.5801-.9985,1.359-1.0963,2.2931-.6398,2.9224,1.4283,5.7868,2.9643,8.532,4.7137.5422.3455,1.0088.7707,1.1184,1.4086Z"/>
    <path class="cls-1" d="M378.0133,159.8555c.1948,1.5609-.4956,2.8577-.9735,4.183-1.2752,3.5367-1.9401,7.156-1.6625,10.9265.2198,2.9847,3.2326,5.8992,6.027,5.8828,1.8978-.0111,3.2822-.7733,4.185-2.4595.5793-1.0821,1.034-2.2636,2.3264-3.3905-.6847,4.5016-1.8599,8.2913-5.0623,11.2069-2.604,2.3707-6.4095,1.8125-7.9827-1.347-1.5061-3.0246-2.3745-6.1474-1.8591-9.6692.7133-4.8737,1.7578-9.6069,3.9298-14.0496.1584-.3242.3239-.6493.5288-.9443.0902-.1299.2873-.1854.5431-.3391Z"/>
    <path class="cls-1" d="M303.9053,84.9065c.0442,2.4037-.8258,4.4871-1.732,6.5339-.6259,1.4139-1.644,2.603-2.9616,3.4775-2.709,1.7979-5.2069,1.4236-6.9743-1.3231-1.3665-2.1236-2.3582-4.4006-2.2316-7.122.2178-4.6823,1.0867-9.1623,3.1746-13.3731.473-.9539.9054-1.9592,1.8398-2.652.6393,1.0841-.1539,1.8155-.4464,2.6135-1.1896,3.2449-2.1023,6.5263-2.0663,10.0348.0244,2.3804,1.1843,4.1703,2.7963,5.6695,1.9023,1.7691,5.1035,1.2075,6.9202-1.1282.6524-.8387,1.1261-1.8166,1.6814-2.7309Z"/>
    <path class="cls-1" d="M193.347,38.0979c-.7824,3.8078-1.7264,7.1573-4.4606,9.5722-2.7946,2.4682-6.5373,1.2472-8.092-2.385-1.4887-3.478-1.5509-7.0915-.8247-10.6733.7963-3.9275,2.0672-7.7309,4.7649-11.2845.3939,1.3357-.2052,2.0875-.5231,2.8686-1.3125,3.226-2.068,6.5387-1.9186,10.0539.0593,1.3955.3692,2.6759.9612,3.9168.7505,1.5729,1.8241,2.682,3.7077,2.7055,1.9168.024,3.5586-.3765,4.5282-2.3086.3856-.7683.6598-1.6872,1.8569-2.4655Z"/>
    <path class="cls-1" d="M93.876,177.5799c-.0553,3.5292-1.2335,6.737-3.6199,9.2978-1.7468,1.8745-5.8124,1.3603-7.2955-.7783-1.3539-1.9521-2.326-4.1367-2.2726-6.58.1208-5.5241,1.3985-10.7699,4.033-15.653.2492-.4618.4484-1.0123,1.1855-1.1577.3628,1.0673-.335,1.9116-.632,2.7905-1.1954,3.5374-2.2021,7.0717-1.974,10.8916.1505,2.5191,1.6941,3.9874,3.5229,5.157,1.7606,1.1261,4.2324.3813,5.5664-1.424.5802-.7853.9959-1.6921,1.4864-2.5439Z"/>
    <path class="cls-1" d="M652.3635,76.7615c.5652.802.188,1.3618.0168,1.9405-.718,2.4271-1.5346,4.8315-2.1138,7.2916-.7559,3.2105-.6264,6.322,1.9705,8.8076,2.5519,2.4426,5.1428,2.1254,6.9691-.8338.5018-.8132.9214-1.6773,1.5562-2.4365.039,3.4429-.7704,6.6246-3.244,9.0904-2.8164,2.8074-7.2017,1.7052-8.8918-2.122-.8542-1.9342-1.0805-3.987-1.0865-6.0912-.0162-5.6926,1.9998-10.7197,4.8235-15.6465Z"/>
    <path class="cls-1" d="M644.3849,164.3423c-.1231,1.7692-.8133,3.0603-1.3356,4.3893-1.1182,2.8459-1.4197,5.8089-1.2751,8.8131.1787,3.7122,3.6072,6.0502,7.0446,4.9385.8114-.2624,1.4391-.5735,1.7731-1.4758.3305-.8929.921-1.6896,1.5931-2.4473.1223,2.7316-.6331,5.1662-2.2226,7.3877-1.1527,1.611-2.4442,2.8626-4.5965,2.9207-1.2659.0342-2.25-.2948-3.1143-1.2633-2.3801-2.6668-3.3779-5.8412-3.0052-9.2884.459-4.2468,1.7675-8.3139,3.5419-12.2107.2986-.6558.6648-1.2935,1.5966-1.7639Z"/>
    <path class="cls-1" d="M46.6391,172.9627c.5437-1.2551,1.6433-1.9813,2.726-2.7348,3.4221-2.3815,6.676-4.9669,9.5617-7.991.6864-.7193,1.4182-1.4011,1.683-2.4262.2503-.9693.6988-2.0067-.2971-2.754-1.0027-.7525-2.1569-1.0071-3.2445-.0951-.5957.4996-1.1125,1.0996-2.1682,1.0074.7521-2.7537,2.103-5.0077,4.4012-6.6255,2.3684-1.6673,4.5928-.6674,5.1552,2.1653.5439,2.7398-.9129,4.9255-2.0378,7.0946-.4618.8903-.9873,1.8759-1.5857,2.7622-3.2351,4.791-8.0824,7.3889-13.0835,9.7933-.219.1053-.512.0697-.7707.0707-.0702.0002-.1408-.1055-.3396-.2669Z"/>
    <path class="cls-1" d="M556.957,30.2837c-.7407,2.2493-1.407,4.0154-1.9002,5.8287-.7951,2.9233-1.1001,5.843.2486,8.7471.806,1.7356,2.0074,2.7932,3.941,2.7801,2.5626-.0173,3.1458-.4813,4.1304-3.0418.1287-.3348.1727-.6983.5128-.8999.0747-.0443.1735-.0479.5702-.1489-.4223,3.3019-1.3933,6.2603-3.7453,8.4758-2.2721,2.14-5.577,1.3619-7.109-1.3993-1.1697-2.1083-1.7152-4.3702-1.6107-6.7711.188-4.3196,1.4679-8.3443,3.4002-12.1796.1598-.3171.4084-.5959.6483-.8632.1129-.1259.3033-.1823.9137-.5279Z"/>
    <path class="cls-1" d="M48.6181,23.6204c-.8841,3.0659-1.5582,5.5825-2.3418,8.0645-.6284,1.9905-.4775,3.9653.0324,5.9018.8431,3.2025,4.1715,4.823,6.9373,3.5153,1.3234-.6257,1.8295-1.8879,2.4586-3.0948.8133.3478.4668.938.3102,1.3618-.9949,2.693-1.6732,5.5775-4.4813,7.1631-1.5856.8954-3.8601.9174-5.0439-.3145-1.4594-1.5189-2.6841-3.3754-2.7578-5.476-.2031-5.7856.7462-11.3642,3.9766-16.3472.0907-.1399.2613-.228.9097-.774Z"/>
    <path class="cls-1" d="M353.8515,28.2902c.8997-2.5735,2.224-4.7863,4.1181-6.5546,1.0024-.9357,2.355-1.3511,3.7849-.6904,1.4703.6794,1.789,1.923,1.7227,3.3839-.1283,2.8264-1.5433,5.1683-2.8229,7.562-2.9774,5.5695-8.3556,8.1058-13.6306,10.7615-.3772.1899-.8431.3432-1.3995.112-.0778-.7548.6054-.9547,1.0512-1.2587,2.1823-1.4876,3.7232-3.9333,6.5747-4.4222,1.446-2.7773,4.8449-3.6937,6.2167-6.5934.5163-1.0913.6741-2.0458.1796-3.0972-.5602-1.1911-1.414-1.5568-2.6455-1.0658-1.1174.4456-2.283.8365-3.1495,1.8628Z"/>
    <path class="cls-1" d="M617.2574,39.8983c.329,1.9015.3005,3.7834-.4127,5.5169-1.1379,2.7653-2.5485,5.3719-4.4858,7.72-4.7358,5.7402-11.1544,8.766-17.8363,11.4148-.1304.0517-.3314-.075-.6248-.1508,2.8968-2.2496,5.6544-4.5623,8.5864-6.6267,4.1352-2.9115,7.413-6.6839,10.5405-10.5367,1.7316-2.1331,3.0162-4.7175,4.2326-7.3374Z"/>
    <path class="cls-1" d="M605.5128,179.7837c1.0267-2.2183,2.1787-4.247,3.9493-5.8751,1.3064-1.2012,2.8235-1.681,3.874-1.1336,1.0348.5393,2.1131,3.0113,1.6692,4.3335-1.7824,5.3084-4.2575,10.1255-9.312,13.1707-2.0086,1.2102-3.9052,2.6055-6.0534,3.5802-.5535.2511-1.0824.754-1.7555.1661.0941-1.1545,1.0721-1.5609,1.8478-2.1385,2.6113-1.9447,5.2222-3.8901,7.833-5.8355,1.0993-.8192,2.0216-1.8068,2.7987-2.9342.2055-.2982.496-.5566.6307-.8817.4989-1.2037.7134-2.4954-.0301-3.6186-.5966-.9015-2.2601-.6721-3.6975.3486-.2929.2081-.5397.4806-.811.7196-.203.1789-.4194.3249-.9432.0985Z"/>
    <path class="cls-1" d="M425.364,161.9281c.0714,1.9029-.6843,3.5742-1.151,5.2969-.6936,2.5595-1.2335,5.1135-.2957,7.7238.9284,2.5841,3.2348,3.8603,5.493,3.1095,1.0089-.3354,1.6856-.9992,2.2284-1.873.3728-.6002.4313-1.4003,1.1278-1.8015.2726,2.6984-2.0292,7.4783-4.2131,8.7563-1.3616.7969-3.8297.3345-4.9364-1.0842-1.0016-1.2839-1.8232-2.7224-2.0104-4.3891-.6164-5.4905.6942-10.5912,3.2219-15.4287.0681-.1304.2965-.1769.5355-.3101Z"/>
    <path class="cls-1" d="M645.5989,43.5227c-.5978,2.3663-1.1123,4.7242-1.4935,7.1157-.3025,1.8982.0462,3.6603,1.1937,5.1374,1.3286,1.7104,2.4808,2.3131,4.6535,1.1747,1.0174-.5331,1.7718-1.3239,2.5608-2.1716-.5376,2.393-1.1169,4.7292-3.0206,6.4553-1.5791,1.4318-4.223,1.3966-5.546-.1809-.6899-.8226-1.2338-1.7955-1.4986-2.8642-.9579-3.8648.5609-11.3594,3.1508-14.6663Z"/>
    <path class="cls-1" d="M277.6432,142.9132c-.1491,2.9606-1.1352,5.2793-3.2906,7.0688-1.5951,1.3243-3.7881,1.1427-4.9698-.5427-1.333-1.9013-2.1196-3.9775-1.8275-6.3797.4627-3.8056,1.6477-7.3584,3.5277-10.8216.2697,1.4144.3136,1.4326-.3139,2.9472-.9953,2.4021-1.2419,4.9017-1.132,7.4633.0692,1.6125.9533,2.7204,2.2914,3.4543,1.8459,1.0125,3.3846.4788,4.4688-1.4275.3065-.5388.3744-1.23,1.246-1.7621Z"/>
  </g>
</svg>