<?xml version="1.0" encoding="UTF-8"?>
<svg id="AhmadIbnHanbal" xmlns="http://www.w3.org/2000/svg" viewBox="0 0 211.4137 205.5844">
  <defs>
    <style>
      

      @import url('../../CSS/SvgStyling.css');


    </style>
  </defs>
  
  <g class="content">

    <rect id="bg" class="bg" width="211.4137" height="205.5844"/>

    <g>
      <path class="cls-1" d="M204.4043,102.847c-.1776,54.4542-43.8194,98.6685-98.718,98.6065-54.8419-.0619-98.872-43.7443-98.6762-99.0789C7.204,47.6007,51.0464,4.2926,105.4689,4.1313c54.9978-.1631,98.8575,44.2007,98.9354,98.7158ZM201.6935,102.6675c-.1934-53.0054-42.6336-95.4774-95.1926-95.8118C52.5298,6.5124,9.9513,49.2765,9.7202,102.221c-.2354,53.9412,42.4193,96.3058,95.6432,96.5086,53.7649.2048,96.2434-42.8965,96.33-96.0622Z"/>
      <path class="cls-1" d="M198.8069,102.7692c.4968,51.035-41.6332,93.2081-93.0479,93.1626-51.3584-.0455-93.0691-41.7164-93.1568-92.9392-.0888-51.7939,42.0591-93.3113,93.2203-93.34,51.1875-.0287,93.5036,42.1319,92.9844,93.1166ZM107.1214,191.1562c2.6271.0303,6.5546-.2482,10.4591-.7703,7.0092-.9373,13.8201-2.6653,20.4224-5.2227,4.9941-1.9344,9.7918-4.2756,14.3169-7.1176,4.5823-2.8779,8.9214-6.0884,12.9377-9.7605,5.0574-4.6239,9.5711-9.7044,13.4523-15.3215,3.3811-4.8933,6.2215-10.1109,8.5166-15.6179,4.952-11.8816,7.2845-24.2227,6.8524-37.1099-.2078-6.1971-1.0258-12.272-2.4629-18.3013-2.2437-9.4128-6.0362-18.14-11.1769-26.3076-4.5292-7.1961-10.0371-13.5665-16.4345-19.1467-6.19-5.3993-13.007-9.8716-20.4642-13.349-5.0612-2.3601-10.2797-4.2764-15.7035-5.6149-8.5033-2.0984-17.1096-3.0652-25.8857-2.6214-4.4766.2264-8.9072.7072-13.2889,1.5806-10.0801,2.0092-19.5415,5.6274-28.354,10.9625-6.0897,3.6868-11.6445,8.0356-16.6948,13.0297-4.3708,4.3221-8.1764,9.1129-11.5947,14.2239-3.1837,4.7602-6.2194,9.6035-8.521,14.8589-1.4566,3.3259-2.7379,6.7168-3.7693,10.2159-1.2044,4.0861-2.0322,8.2466-2.4981,12.4467-.4572,4.1228-.652,8.2913-.3395,12.4595.1385,1.847.171,3.7045.4564,5.5364.5934,3.8094,1.2494,7.601,2.2558,11.3371.9551,3.5456,1.844,7.1079,3.0429,10.5804,1.9951,5.7788,4.64,11.2509,7.775,16.4994,2.5088,4.2002,5.3335,8.1793,8.5343,11.8587,5.7172,6.572,12.2212,12.2582,19.6106,16.9253,5.3373,3.371,10.9413,6.1993,16.8569,8.3538,9.7988,3.5687,19.9394,5.3636,31.6988,5.3923Z"/>
    </g>
    <g>
      <path class="cls-1" d="M83.7035,55.7063c-.7822.0955-1.4926.0708-2.1248.2812-1.5996.5325-3.1554,1.1948-4.7456,1.7576-.9654.3416-1.9488.6563-2.9481.8713-1.0882.2342-1.7488-.5356-2.3933-1.2434-.1611-.1769-.2792-.393-.4876-.6924,0,1.0974.0011,2.0879-.0003,3.0783-.0013.9279.0915,1.8685-.0275,2.7813-.2796,2.1452-1.5667,3.5597-3.5007,4.4251-.3467.1551-.7152.2616-1.1381.4137.0741.2357.1498.4752.2247.7148.8974,2.8705,1.5364,5.8012,1.9581,8.7752.3594,2.5346.7225,5.0735.9357,7.6229.2557,3.058.3898,6.1277.5107,9.1949.1306,3.3116.1197,6.6297.2962,9.9382.1179,2.2106.411,4.4157.7193,6.6101.1039.7396.4318,1.4706.7699,2.1495.702,1.4096,2.0435,1.7572,3.4343,1.6615,1.2311-.0847,2.5077-.2935,3.6443-.7476,1.173-.4686,2.282-1.1995,3.272-1.9979,1.1587-.9345,2.1509-2.0739,3.2322-3.1068.3173-.3031.6646-.5969,1.0475-.8035.4798-.2589.8309-.016.8362.5371.0078.8244-.0864,1.6567-.0032,2.472.1425,1.3975,1.2217,2.3396,2.6262,2.3434,1.2303.0033,2.4587-.0776,3.1743-1.3221.1349-.2346.235-.5083.2747-.7754.2059-1.3848-.0826-2.7182-.4144-4.0564-.4696-1.8936-.7273-3.8548-1.3645-5.6866-.4531-1.3026-.5246-2.5461-.3981-3.8512.0993-1.0247.4312-1.9805,1.0437-2.9903.2681.3225.5286.5283.6484.7968.9057,2.0308,1.5315,4.1425,1.9554,6.3324.4894,2.5281.9303,5.0929,1.7451,7.5235.938,2.7982,2.6983,5.1288,5.2116,6.8007.0282.0188.0775.006.1648.0102-.1551-.7715-.3253-1.5289-.457-2.293-.2705-1.569-.172-3.1255.0732-4.698.351-2.2505,1.546-3.8994,3.4918-4.944,1.7548-.9421,3.6611-1.0083,5.594-.5016,3.8752,1.0157,7.7552,2.0133,11.6361,3.0074,3.0151.7723,6.0767,1.2604,9.1852,1.4411.6641.0386.869.2589.6459.8841-.3915,1.0971-.8186,2.184-1.2951,3.2463-.1016.2265-.4792.4691-.7284.4679-2.5156-.0124-4.7805.8365-6.9819,1.9361-3.6359,1.816-7.2535,3.6706-10.9187,5.4255-1.9238.9211-3.9367,1.6515-6.0783,1.9309-.0401.0052-.0809.0216-.1197.0174-.8022-.0872-1.3214.1747-1.3526,1.0695-.004.1139-.0569.2464-.1308.3332-.1425.1676-.3161.3087-.4768.4607-.1125-.1675-.2404-.3271-.3316-.5055-.0526-.1029-.0538-.2353-.0647-.3557-.073-.806-.5105-1.2397-1.2607-1.5782-2.6136-1.179-4.8025-2.9096-6.2691-5.4134-.5942-1.0145-1.0106-2.1332-1.5321-3.2567-.17.5347-.3392,1.0562-.5016,1.5799-.3658,1.1799-1.0047,2.1812-1.8712,3.0657-1.3341,1.3617-3.5206.9504-4.6764.2939-.891-.5061-1.4307-1.2885-1.6928-2.263-.2035-.7564-.3749-1.5214-.5918-2.4103-.3228.2663-.6496.4822-.9099.7603-.966,1.0319-1.8502,2.1477-2.8755,3.115-1.822,1.7189-4.0052,2.7198-6.5437,2.6954-2.6782-.0258-4.71-1.329-5.5805-3.9856-.4219-1.2875-.672-2.6312-1.0133-4.0037-.2258.915-.4914,1.8096-.6608,2.7221-.2281,1.2284-.8794,2.2156-1.744,3.0378-1.4306,1.3604-2.8891,2.6998-4.4199,3.9447-3.279,2.6669-6.7714,5.0155-10.6492,6.7451-2.7739,1.2373-5.6489,1.9377-8.7053,1.5091-2.6098-.3659-4.6347-1.682-6.024-3.9265-1.4646-2.3661-1.9467-5.0099-2.0798-7.7354-.1139-2.3321.1088-4.6432.6759-6.9051.2327-.928.6628-1.8054.9808-2.7137.0939-.2682.2241-.5997.1463-.8403-.8286-2.5626-.0552-4.9314.8446-7.2817.2293-.5988.5527-1.1633.8563-1.731.1057-.1977.2825-.3573.5312-.4721-.3635,1.2888-.7557,2.5704-1.0815,3.8686-.2639,1.0516-.5931,2.126-.2114,3.2094.113.3208.403.6914.6986.7973.2055.0736.5947-.225.8353-.434.2033-.1766.3024-.4693.464-.6992.103-.1465.2357-.2722.4052-.4639.0826.1781.1514.2532.141.3148-.1787,1.0541-.3539,2.1204-1.0343,2.9892-.2213.2826-.5757.6224-.8855.6394-.5753.0317-.8317.1791-.9501.7727-.2591,1.2986-.7555,2.5645-.8873,3.8708-.2515,2.4926-.3477,5.0016.7817,7.3719,1.4137,2.967,3.8102,4.3323,7.0272,4.525,3.6006.2157,6.8712-.8702,9.9381-2.5596,2.4499-1.3495,4.8561-2.8244,7.0996-4.489,2.0497-1.5209,3.8658-3.3592,5.7632-5.0814.8792-.798,1.1791-1.9155,1.1898-3.0192.0484-5.013.0837-10.0282-.015-15.0399-.058-2.944-.3206-5.8879-.5941-8.8223-.2223-2.3858-.5838-4.7593-.9098-7.1347-.2629-1.9155-.6877-3.8182-.8036-5.7409-.0698-1.1574.3051-2.3437.4992-3.5138.0653-.3938.1897-.7778.2867-1.1648-.8374-.1126-1.6452-.202-2.4462-.3331-1.3713-.2245-2.7216-1.8218-2.8002-3.1969-.1009-1.7633.0252-3.4695.9895-5.0152.1665-.2669.359-.5177.5394-.776.052.0132.104.0264.156.0396-.0137.1548-.0175.3111-.0427.464-.179,1.0847-.4201,2.1628-.5307,3.2542-.1564,1.5422,1.444,2.9102,2.7652,2.8226.7047-.0467,1.4536.125,2.1134-.055,1.3501-.3683,2.7394-.7827,3.5024-2.1337.149-.2637.2169-.6191.1977-.9243-.1078-1.7119-.2247-3.4242-.3935-5.1309-.2402-2.4281-.5048-4.8544-.8032-7.2761-.234-1.899-.5869-3.7845-.777-5.687-.0635-.6359.2129-1.3058.334-1.9602.0837-.0077.1675-.0154.2512-.0231.1118.2738.2805.5385.3263.8229.3749,2.3279.6777,4.6685,1.1023,6.9869.3038,1.6585.579,3.3428,1.4141,4.854.1267.2293.2468.4632.3895.6824.4014.6165.9253.8833,1.7113.893,1.8295.0225,3.4539-.7215,5.1509-1.1983.3406-.0957.665-.2496,1.0095-.3815-.8317-.3779-1.6296-.7907-2.467-1.0945-.3044-.1104-.7041.0733-1.0587.0635-.9078-.0252-1.8146-.0878-2.7221-.1274-.4634-.0202-.6065-.2901-.3749-.6332.412-.6106.8512-1.2192,1.3719-1.7351.4343-.4303,1.0729-.5461,1.651-.3339,1.3958.5122,2.7988,1.0234,4.1418,1.6562,1.815.8552,3.6639,1.5678,5.6449,1.9145.178.0311.3522.0857.5262.1362.0333.0097.0573.0514.1653.1541-.2449.4634-.3906,1.1151-.7939,1.3931-.379.2613-1.0301.1279-1.6652.2876.2862.1885.5485.4477.8626.5535,1.4615.4923,2.8585.3474,4.1583-.5258.4019-.27.8072-.5386,1.2308-.7716.4077-.2242.7882-.2216,1.1267.1909.5309.6469,1.2142.7975,2.0172.5624.6746-.1975,1.3635-.3478,2.0494-.5042.3872-.0883.5044-.2891.4739-.6946-.0375-.4988.0798-1.0088.0468-1.5084-.157-2.3748-.291-4.7529-.5341-7.1195-.1871-1.8215-.5048-3.631-.8104-5.438-.0601-.3556-.3271-.6775-.5044-1.0119-.4548-.8584-.056-2.3891.666-2.836.4948.5681.9917,1.1092,1.4484,1.6824.1249.1568.2431.468.1709.6097-.653,1.2809-.3493,2.6018-.2108,3.9131.1946,1.8433.4772,3.6798.6018,5.5273.1002,1.4853.0302,2.9828.019,4.4747-.0065.8701.0814.9995.9188,1.3074.5852.2152,1.161.4575,1.7338.7043.1408.0607.3674.1943.3614.2809-.0516.7452-.1434,1.4879-.258,2.2259-.0025.0157-.4574.0352-.6375-.0636-.7568-.415-1.5136-.8058-2.4017-.4861-.4718.1698-.9223.4021-1.3736.6242-.4332.2132-.8489.462-1.2829.6734-1.267.6171-2.0016.4755-2.9646-.5537-.7733-.8266-1.0204-.8626-1.7121.0569-1.0984,1.4601-2.5464,1.7282-4.2069,1.4157-1.2419-.2338-1.7851-.9265-1.7394-2.1918.0152-.4196.0659-.8378.1118-1.3959ZM121.4924,110.9455c-.0049-.0737-.0098-.1473-.0146-.221-.4947-.1345-.9939-.2549-1.4835-.4059-3.7692-1.1621-7.5528-2.2477-11.4606-2.8776-2.0381-.3285-3.7434.1015-5.1848,1.5908-.682.7047-.8238,1.4461-.4486,2.3704.6133,1.5106,1.1814,3.0421,1.6936,4.5897.1547.4673.3535.5591.7932.5739,2.7416.0922,5.2098-.9431,7.6841-1.889,1.7991-.6878,3.5327-1.5469,5.2946-2.3317,1.0431-.4646,2.0844-.933,3.1265-1.3997Z"/>
      <path class="cls-1" d="M82.672,154.9205c-.0783.3818-.099.7874-.2445,1.1416-.8789,2.1393-1.7487,4.2819-2.1804,6.566-.1703.9011-.3235,1.7825-.1359,2.7456.3558,1.8259,1.5106,2.7678,3.3936,2.8047,1.2972.0254,2.6532-.0628,3.8877-.4248,1.7454-.5118,3.4726-1.1901,5.0835-2.0341,3.3405-1.7501,6.3325-4.0115,8.9087-6.7814.8095-.8704,1.5226-1.8328,2.2515-2.7751.5055-.6535.4629-1.446.4046-2.2072-.3196-4.1757-1.4406-8.1532-3.0444-12.0031-.7893-1.8946-1.6249-3.7698-2.4342-5.656-.0786-.1833-.1883-.3905-.1675-.5734.1606-1.4178.2979-2.8419.5528-4.2439.1189-.6538.532-.6782.9554-.1133,1.6347,2.1808,2.8395,4.5936,3.8089,7.1308,1.2713,3.3275,2.017,6.7893,2.6793,10.2782.6835,3.601,1.357,7.2082,2.2071,10.7717.4508,1.8894,1.1782,3.7379,2.6243,5.1689.1657.164.3517.3074.4477.3904.4001-1.0664.7484-2.1253,1.1917-3.1428.5256-1.2064,1.4843-2.0796,2.5771-2.7391,1.0786-.651,2.2479-1.1557,3.393-1.6912.7791-.3643,1.585-.6711,2.5255-1.0649-.7236-.6345-1.3533-1.1819-1.9777-1.7352-1.3894-1.2312-2.9011-2.3528-4.1364-3.7233-2.1291-2.3622-1.6626-5.5709.9216-7.4378.9491-.6857,1.9822-1.1017,3.1945-1.1202,2.4911-.0381,4.9635.0363,7.4077.5869,3.7099.8357,7.4388,1.5903,11.1356,2.4791,2.8728.6907,5.709,1.5334,8.5613,2.3094.1361.037.2728.0748.4044.1249.786.2995.8565.5524.5402,1.3276-.3635.8905-.6698,1.8054-.9738,2.7188-.2026.6088-.4207,1.0314-1.1827,1.2365-3.9444,1.0616-7.8755,2.1791-11.7803,3.3779-2.2679.6963-4.4764,1.5853-6.7145,2.3797-.3455.1226-.4279.3079-.3933.6841.072.7826.086,1.5746.0562,2.3602-.0103.2724-.2205.5372-.3394.8054-.0805.0061-.161.0122-.2415.0183-.4105-.5606-.8615-1.0964-1.2229-1.6871-.6986-1.1415-.7104-1.234-1.9468-.7256-2.7154,1.1165-5.3967,2.3163-8.0849,3.4982-.324.1424-.6043.3843-1.0717.6887.7216.5831,1.2841,1.2228,1.9901,1.5731,2.0177,1.001,4.0753,1.9283,6.1533,2.7985,1.3753.576,1.4114.51,1.3527,1.9691-.0243.6047-.0712,1.2103-.146,1.8108-.1462,1.1741-.401,1.311-1.5911,1.2132-2.0898-.1717-4.0909-.6897-6.0248-1.4623-2.0158-.8052-3.8922-1.8637-5.4958-3.3516-1.8244-1.6926-2.8706-3.8207-3.3506-6.2289-.385-1.9316-.6894-3.8792-1.0304-5.8195-.0276-.157-.0611-.313-.0786-.4018-.3742,1.0241-.6965,2.1186-1.1659,3.146-.9253,2.025-2.5122,3.55-4.0836,5.0619-2.7092,2.6067-5.784,4.6971-9.1715,6.3292-2.1526,1.0371-4.43,1.6131-6.8039,1.7598-2.1391.1322-3.8717-1.1515-4.6256-3.1948-.959-2.5992-.7522-5.1892-.0577-7.783.3369-1.2583.6922-2.5184,1.1522-3.735.3751-.9921.907-1.9265,1.3945-2.8736.1203-.2336.3381-.417.5111-.6235.0769.0328.1539.0655.2308.0983ZM139.1084,150.914c-.2329-.111-.3135-.1632-.4018-.1894-2.1567-.6407-4.2942-1.3602-6.4769-1.8956-2.4775-.6078-4.9847-1.1125-7.4989-1.5471-2.4708-.4271-4.9712-.6145-7.4795-.3038-.2627.0326-.5103.1866-.7649.2842.1245.2354.2329.4815.3796.702.0867.1303.2319.2228.3547.3277,2.6194,2.2389,5.437,4.2517,7.7399,6.8105,4.5875-1.7175,9.2398-3.1114,14.1476-4.1886Z"/>
      <path class="cls-1" d="M126.4226,83.1985c-.0222.4004-.0018.8086-.0742,1.1997-.2561,1.3835-.6041,2.7523-.807,4.1428-.4143,2.8393.3284,5.3939,2.0751,7.6614.9237,1.1991,2.0228,2.2158,3.364,2.9152,1.311.6837,2.7242,1.0962,4.2023,1.2587,3.1331.3443,6.1824-.0553,9.2081-.9042,3.2043-.899,6.1742-2.288,9.0245-3.9749,2.4054-1.4235,4.6277-3.08,6.7118-4.9469,1.1496-1.0298,1.4333-2.149,1.2246-3.6556-.3363-2.4277-1.1107-4.6732-2.1425-6.8705-.2277-.4848-.2512-1.1371-.1666-1.6809.1442-.9261.4303-1.8327.6989-2.735.0651-.2189.2942-.389.4479-.5816.2208.1817.4965.3263.6499.5534.2452.363.4203.7758.6055,1.1765.4158.8997,1.1444,1.3617,2.1017,1.3905.8629.0259,1.7295-.0527,2.5936-.0994.1779-.0096.3712-.0477.5254-.1315,1.1627-.6317,1.3887-.9135.8586-2.0015-.2736-.5615-.6498-1.0862-.8357-1.6731-.1544-.4874-.2084-1.0628-.112-1.5615.1823-.9429.4865-1.8645.7816-2.7816.0714-.222.3047-.3919.4635-.5858.1928.1814.4432.3297.5694.5494,1.2425,2.1638,1.39,4.5189,1.1268,6.926-.2107,1.9266-.8433,3.684-2.237,5.1021-.9282.9444-2.0208,1.4459-3.3688,1.3094-.2348-.0238-.4741-.0034-.7944-.0034,0,.4414-.0125.8391.0021,1.2358.0815,2.2128-.2485,4.3865-.6803,6.5416-.3574,1.7841-1.2098,3.2955-2.6024,4.528-2.2901,2.0269-4.7328,3.8177-7.4012,5.3198-2.2001,1.2384-4.4686,2.3049-6.8497,3.1383-2.4502.8577-4.9637,1.4026-7.5627,1.4834-4.8372.1503-8.8232-1.4719-11.5196-5.6656-.9622-1.4965-1.7868-3.085-2.0682-4.8587-.1632-1.0282-.0586-2.0962-.1206-3.1436-.1577-2.664.3834-5.2116,1.2539-7.7034.1207-.3455.3775-.6435.5713-.9635.094.0301.1881.0603.2821.0904Z"/>
      <path class="cls-1" d="M140.4499,117.0095c.5687.6192,1.1287,1.2467,1.7077,1.8562,1.7885,1.8825,3.3193,3.9639,4.7141,6.1453,2.2151,3.4644,3.9971,7.1371,5.2393,11.0651,1.2778,4.0403,1.8516,8.1617,1.6266,12.4074-.1628,3.072-.7429,6.0273-1.9654,8.8537-.9484,2.1927-2.3021,4.1112-3.9202,5.8538-.0823.0886-.1591.2068-.263.2454-.177.0658-.3735.0794-.5618.115.0057-.1828-.049-.3971.0272-.5431.4189-.8031.8542-1.5987,1.3126-2.38,1.2063-2.0559,2.2272-4.1966,2.8989-6.4864.7203-2.4554.7791-4.9344.3945-7.4765-.6404-4.2334-2.1491-8.1485-3.9822-11.9763-2.1924-4.5781-5.0522-8.7126-8.1928-12.6776-1.5161-1.9141-2.9169-3.9195-4.3807-5.8755-.241-.322-.5042-.6444-.816-.8925-.5993-.4769-.7637-1.0686-.7386-1.8105.0452-1.3329.0289-2.6689.0018-4.0029-.0112-.5506.2836-.6117.6328-.4096.4491.2599.8495.6109,1.2484.9491,2.4194,2.0511,4.8336,4.1084,7.2457,6.1681.2297.1961.4482.4104.6416.6417.092.1099.1975.3402.148.4095-.1039.1454-.3182.3225-.4661.3053-.4549-.053-.9043-.1759-1.3473-.3016-.3729-.1058-.734-.2533-1.1004-.3824-.0349.0665-.0699.1329-.1048.1993Z"/>
      <path class="cls-1" d="M134.9768,37.4186c.1326.2567.263.5147.3984.7699.204.3843.4595.75.6012,1.1558.1.2862.1023.6344.0533.9396-.1483.9244-.4326,1.8349-.4993,2.7626-.1128,1.5687.0185,3.1606-.1676,4.7171-.2567,2.1471-.4599,4.3256-1.4099,6.3323-.1235.2608-.0866.6168-.0636.9242.0835,1.118.2786,2.2351.2653,3.3505-.0109.9121-.213,1.1154-1.0945,1.2299-1.4581.1893-2.9318.2599-4.3993.3761-.4022.0318-.534-.2358-.5541-.5675-.0622-1.0243.0487-1.9086,1.0982-2.5328.9243-.5497,1.7154-1.3306,2.5386-2.0405.4661-.402.5443-.8647.3133-1.5057-1.0346-2.87-2.6135-5.4331-4.3218-7.9289-.0739-.108-.2842-.138-.4381-.1728-.3142-.0711-.6878-.0361-.9386-.1975-.4694-.302-.9031-.68-1.2907-1.0847-.9485-.9904-.6176-2.2235-.5738-3.3954.0052-.1379.0607-.2746.0979-.4105.155-.5667.3631-.6411.857-.329,1.5996,1.0108,2.6726,2.5018,3.6621,4.0565,1.6498,2.5921,2.9704,5.3478,3.9921,8.2463.0255.0725.0835.1335.1714.2697.1062-.1639.2245-.2756.2579-.4087.4418-1.7604.8505-3.5217.765-5.3634-.0861-1.8536-.0149-3.7194-.1954-5.562-.1287-1.3138.1533-2.4574.6805-3.5925.0648-.0129.1297-.0257.1945-.0386ZM131.8437,56.7971c.0227.0649.0454.1297.068.1946.3864-.0605.7727-.1209,1.2035-.1883-.127-.3497-.2181-.6003-.324-.8919-.3521.3291-.6498.6074-.9476.8856Z"/>
      <path class="cls-1" d="M77.9583,146.2545c-.3594-.5231-.7935-1.141-1.2118-1.7694-.2191-.3292-.498-.4341-.8154-.1991-.5807.4298-1.1748.8541-1.6901,1.3559-.4658.4536-.3338.8289.2979,1.0322.5938.1911,1.1968.354,1.798.5211,1.9223.5343,1.8502,1.786.7979,2.9303-1.4638,1.592-3.426,2.507-5.5401,3.0394-.8078.2034-1.5723.3289-2.4245.0438-.757-.2531-1.312-.6565-1.6107-1.3389-.346-.7904-.5689-1.6238-.4013-2.5226.1919-1.0289.2947-2.079.8623-2.9954.1222-.1973.2908-.3658.438-.5476.062.038.1241.076.1861.114-.2269.6938-.4384,1.3932-.6842,2.0803-.4644,1.2983-.1177,2.6764.9974,3.4435.3662.2519.8957.3296,1.3598.3648,1.5523.1175,2.9168-.5134,4.2426-1.207.6918-.3619,1.3371-.8147,1.9914-1.2446.1151-.0756.171-.2414.2543-.3656-.1327-.0713-.2581-.1663-.3994-.2099-.7667-.2367-1.56-.4043-2.3005-.7037-.8655-.35-1.1067-.9799-.8289-1.8632.4319-1.3732,1.2215-2.4828,2.4346-3.2802.8365-.5498,1.2344-.463,1.7849.3721.2186.3317.486.6313.7856,1.0153.4355-.6745.7803-1.3104,1.2236-1.8681.4986-.6272,1.0256-1.2598,1.648-1.7544,1.0957-.8707,2.4962-.5551,3.4895.6816.6763.842.5352,2.258-.4188,3.0393-1.6059,1.3152-3.4204,2.0182-5.5525,1.6212-.2261-.0421-.4947.1441-.7139.2148ZM78.9042,144.588c.4232.0879.6934.2014.958.1895,1.5422-.0692,2.9604-.5489,4.2396-1.4073.122-.0818.2048-.4147.1394-.5513-.3705-.7737-1.9053-1.3833-2.6845-1.0542-1.2412.5242-1.9111,1.6008-2.6525,2.8233Z"/>
      <path class="cls-1" d="M114.6619,35.9623c.1457.696.362,1.3856.425,2.0889.2785,3.1118.5291,6.2263.7567,9.3423.122,1.6706.1444,3.3488.2811,5.0179.0449.5483.268,1.0953.4831,1.6124.202.4857,1.3372.839,2.0593.6993,1.0209-.1975,1.9047-.6289,2.5673-1.4668.6327-.8001,1.3123-1.5637,1.929-2.3755.4242-.5584.9697-.7408,1.597-.5824.6119.1545.9535.6938.9863,1.2597.058,1.0014.0064,2.0146-.0808,3.0158-.0288.3304-.2491.7006-.4934.9377-.1904.1848-.5862.3175-.8341.2537-.7562-.1949-1.5008-.4594-2.2194-.7678-.5446-.2337-.8809-.1831-1.169.3773-.6025,1.172-1.5194,1.9118-2.9059,1.9423-1.386.0304-2.5764-.9774-2.6746-2.3853-.1898-2.7191-.3001-5.4438-.4922-8.1627-.1859-2.6316-.2437-5.28-.8709-7.8639-.2515-1.0365.0493-1.9857.4375-2.9199.0727-.0076.1454-.0153.2182-.0229ZM124.4931,53.5397c.0492-.0602.0984-.1203.1475-.1804-.0772-.2189-.1286-.4516-.2363-.6543-.37-.6967-.9516-.7967-1.4224-.2279-.0822.0993-.041.4699.0394.507.4749.2193.9781.3772,1.4719.5557Z"/>
      <path class="cls-1" d="M61.5202,147.7493c-.2544-.2431-.3705-.3717-.5039-.4786-.7744-.6201-1.2523-1.4287-1.4255-2.3917-.1972-1.096.4415-2.5762,1.8462-2.9713,1.4036-.3948,2.7617-.2078,3.9573.7088.1226.094.2178.2235.3768.39-.163.0534-.2811.1386-.3592.1109-1.4677-.521-2.9102-.2591-4.3297.1715-.8371.2539-.8852.4907-.4567,1.2423.4617.8098,1.0785,1.4922,1.9039,1.8983.7288.3586,1.5176.2879,2.2761-.0638,1.0308-.4779,2.0762-.9241,3.1464-1.3976.0883.6208-.3316,1.477-.7566,1.6607-2.0484.8851-4.0936,1.7783-6.1558,2.6299-.4761.1966-1.0098.2859-1.5261.3455-.7769.0896-1.2027-.3353-1.5061-1.4209-.2946.3082-.5925.5961-.863.9078-.5304.611-1.2967.8289-2.0003.8522-.4932.0164-1.0921-.3775-1.4798-.756-.367-.3583-.5281-.9318-.7639-1.4184-.1027-.2121-.1657-.4434-.2163-.5823-.6404.3548-1.2275.7236-1.8507,1.0151-.9493.444-1.5377-.0221-1.4348-1.0716.1219-1.2434.8408-2.1064,1.7598-2.8501.3948-.3195.7402-.5658.4627-1.2327-.1411-.3392.1999-.8791.323-1.3282.0709-.0069.1417-.0137.2126-.0206.2179.408.4358.8159.661,1.2375.3044-.1652.6466-.3509.9888-.5366.051.0557.1019.1115.1529.1673-.22.3442-.4681.6741-.6508,1.037-.1416.2811-.3232.6246-.2746.9034.1447.8306.3561,1.6549.6105,2.4599.5136,1.625,2.002,1.8037,3.2205.9334.4568-.3263.8332-.7634,1.2655-1.1271.105-.0883.286-.0863.4321-.1258.026.1258.0686.2508.0753.3776.0412.7723.3783,1.1017,1.1574,1.03.5284-.0486,1.0489-.1823,1.7253-.3057ZM52.0603,144.6994c-.4988.1974-1.6902,1.2695-1.7988,1.6906-.0308.1193.15.4209.244.4254,1.3314.0641,1.9691-.8195,1.5548-2.1161Z"/>
      <path class="cls-1" d="M70.132,139.8209c-.1038-1.0509-.2247-2.0285-.2921-3.0097-.1287-1.8727-.2341-3.747-.3331-5.6215-.0269-.5089-.0256-1.0237.0251-1.5296.0154-.1531.2406-.2852.3697-.4269.1123.1256.2702.233.3294.38.3149.7814.6051,1.5727.9143,2.3882-.2078.0877-.3684.1556-.639.2698.1642,2.4087.331,4.8562.4979,7.3057.6537-.0932,1.1771-.7528,1.1544-1.5944-.0216-.8023-.0289-1.6439-.2768-2.3904-.2527-.7612-.1425-1.4007.2037-2.271.2295.4014.4832.6824.5577,1.0047.2767,1.1959.4722,2.4104.743,3.6078.1546.6835.4718,1.2576,1.2094,1.5396.4624.1767.8341.042,1.0883-.2465.122-.1384-.0045-.541-.084-.8042-.3943-1.3054-.8263-2.5996-1.2112-3.9077-.1522-.5174.0117-.989.5003-1.4548.3847.588.7582,1.1456,1.1131,1.7148.0553.0887.0736.3073.0281.3357-.6315.393-.1993.8278-.052,1.2341.3533.9748.64,1.9533.4665,3.0104-.1593.9707-.6974,1.6451-1.4203,1.7486-.7691.1101-1.7528-.5149-2.1125-1.344-.0694-.1599-.133-.3223-.2487-.6039-.2448.4369-.3555.8798-.6389,1.0948-.9006.6834-1.1059,1.6777-1.366,2.6644-.0682.2589-.1508.5139-.2268.7707-.0704-.0067-.1408-.0134-.2112-.0201,0-.5614.0243-1.1245-.0132-1.6834-.0131-.1958-.1388-.5087-.2795-.552-1.4752-.4535-1.7495-1.6432-1.8644-2.9408-.0177-.1999-.0007-.4028-.0016-.6043,0-.0188-.0142-.0375-.09-.2245-.1553.7015-.2423,1.2745-.4154,1.8202-.143.4508-.3401.9006-.5995,1.294-.3094.4693-.7317.5184-1.1193.1076-.3216-.3408-.6395-.7662-.752-1.207-.2831-1.1086-.1037-2.2323.1843-3.3582.0322.1162.0903.2318.0925.3485.0127.687.0081,1.3743.0193,2.0613.0029.179-.0172.3997.0752.5275.2071.2862.4783.526.7234.7847.2291-.262.5422-.4891.6686-.7938.2209-.5323.2855-1.1278.4902-1.6686.3524-.9311.7455-1.8482,1.1634-2.7519.0713-.1541.3512-.2117.5348-.3138.0744.1952.2323.4011.2089.5838-.1096.8564-.2961,1.7032-.3993,2.5602-.0496.4121-.0384.854.0574,1.2557.1316.5518.5151.8895,1.2276.9098Z"/>
      <path class="cls-1" d="M81.8628,79.1268c.1612-.1774.2906-.4112.4888-.5231,1.3674-.7716,2.7517-1.513,4.1252-2.2738.7488-.4147,1.487-.8485,2.23-1.2736-.006-.0752-.012-.1504-.018-.2256-.3472-.0993-.6924-.2753-1.0421-.2849-1.8157-.0498-3.6326-.0563-5.449-.0809-.1767-.0024-.3532-.0247-.5089-.0362-.0325-.0829-.0597-.1195-.0592-.1557.0196-1.3652,1.7861-3.3708,3.1097-3.5038,2.0229-.2032,4.032-.0465,6.0318.279.0591.0096.1149.0383.1732.0543,1.2816.3509,1.5436.842.8049,1.9193-.863,1.2585-1.8346,2.4492-2.8305,3.6079-.7638.8887-1.8876,1.2085-2.9672,1.5377-1.2121.3696-2.4395.6892-3.6613,1.0266-.1085.0299-.2249.0309-.3377.0453l-.0899-.1125Z"/>
      <path class="cls-1" d="M151.9083,66.0858c.301-.2093.5867-.4462.9056-.6233,1.742-.9673,3.4948-1.915,5.2358-2.8842.2083-.116.3671-.321.5488-.4847-.2527-.1357-.4984-.3724-.7592-.3902-1.3675-.0931-2.7385-.1405-4.1089-.1831-.5644-.0175-1.1304.0272-1.6956.0241-.419-.0024-.6296-.1483-.3578-.5947.335-.5502.6592-1.1075.9738-1.6698.5229-.9346,1.3264-1.3842,2.3823-1.366,1.633.0282,3.2677.0446,4.8974.14.5681.0333,1.1342.2552,1.6812.4478.4681.1648.6733.5611.4375,1.0105-.3903.7439-.8279,1.4664-1.2902,2.1685-1.3822,2.0994-3.257,3.4696-5.7795,3.9103-.748.1307-1.4665.4248-2.2048.62-.2464.0651-.5126.0553-.7697.0798-.0322-.0684-.0644-.1368-.0966-.2052Z"/>
      <path class="cls-1" d="M124.2131,135.3994c.327-.257.6271-.5624.9861-.762,1.1438-.6358,2.3127-1.2261,3.4654-1.8461.6204-.3337,1.2333-.6827,1.8373-1.0451.1963-.1178.3538-.3003.6725-.5783-.6398-.1404-1.116-.3228-1.5971-.3364-1.6341-.0462-3.27-.0243-4.9049-.0513-.237-.0039-.472-.1323-.708-.2031.0812-.2162.1401-.4444.2481-.6463.2754-.5148.5696-1.0196.8619-1.5252.4478-.7744,1.1059-1.2326,2.0152-1.2207,1.8334.024,3.6669.0638,5.4992.1298.3735.0134.7504.1454,1.1109.2669.7859.2649,1.0142.7706.5988,1.4978-.9553,1.6723-2.0607,3.2552-3.6286,4.401-.6783.4957-1.5387.7732-2.351,1.0473-1.1615.392-2.3536.6941-3.5359,1.0226-.1436.0399-.3079.0055-.4626.0055-.0358-.0521-.0716-.1042-.1074-.1563Z"/>
      <path class="cls-1" d="M107.9677,69.6255c-.7976.1356-.7542-.3629-.8146-.6616-.259-1.2804-.4639-2.5716-.7051-3.8558-.3119-1.6606-.6927-3.3102-.9441-4.9796-.2074-1.3771-.241-2.7767.207-4.1325.4012-1.2142,1.0898-2.192,2.3104-2.7162.1796-.0771.3445-.1884.5354-.2946-.7303-.7121-1.1552-.0438-1.7897.4657-.0555-.4824-.1375-.8316-.1287-1.1785.048-1.8725,1.8121-2.9526,3.46-2.0687.7676.4118,1.4924.9477,2.1331,1.5393.6329.5845.5351,2.4967-.096,3.0819-.2188.2028-.5469.319-.8454.3993-1.4123.3803-2.8356.72-4.2466,1.1048-.6224.1697-.8134.58-.6952,1.25.3882,2.2003.754,4.4061,1.0543,6.6198.2428,1.7901.3785,3.5947.5652,5.4264Z"/>
      <path class="cls-1" d="M140.7327,70.5608c-3.1162,4.0564-7.5248,5.9006-12.2099,7.3869-.0743-.4967.259-.6609.556-.8381,2.0604-1.2294,4.1519-2.4098,6.1749-3.6977,1.375-.8754,2.6617-1.8909,3.9743-2.8621.4955-.3666.4444-.539-.0639-.8878-.4278-.2936-.8557-.6175-1.1921-1.007-.6398-.7407-.4845-1.6181-.1222-2.3931.4588-.9813,1.1949-1.7596,2.1734-2.2885,1.1963-.6466,2.2613-.0952,2.2517,1.2702-.0063.8964-.1908,1.7981-.3649,2.6838-.0732.3724.0264.5432.3093.7394,1.0241.7101,1.0347,1.9512.0205,2.7449-.0915.0716-.3473.0302-.4668-.0491-.3475-.2304-.6646-.5067-1.0404-.8017ZM140.655,67.8037c.2358-.6496.331-1.1708-.0723-1.6062-.1427-.154-.4715-.2547-.6735-.2061-.2915.0702-.5983.2555-.7838.4846-.0596.0736.1944.5018.3915.66.3198.2568.711.4247,1.1382.6677Z"/>
      <path class="cls-1" d="M110.7516,86.447c-1.1816-.4408-2.2424-.8177-3.3994-.2738-.1688.0794-.4013.0235-.6043.0302.0351-.1993.0279-.4192.1128-.5944.3465-.7146.7371-1.4056,1.5953-1.6133,1.0665-.2582,2.1326-.2382,3.1476.1883.9782.411,1.2363,1.1638.6266,2.0478-.6717.9739-1.4513,1.8771-2.2256,2.7752-.5268.611-1.1384,1.1481-1.6857,1.7427-.2272.2469-.4241.5391-.5672.8426-.3284.6959-.0779,1.2998.702,1.3747,1.197.115,2.4168.143,3.6149.0512,1.0155-.0778,2.0125-.3851,3.0209-.5737.263-.0492.538-.0344.8075-.0491l.0768.1827c-.4009.342-.7762.7213-1.2073,1.0197-1.8153,1.2564-3.876,1.8002-6.0271,1.5258-2.0635-.2633-2.7106-1.7461-1.8697-3.8456.6879-1.7176,2.2154-2.8,3.3673-4.1668.1606-.1906.306-.394.5145-.6642Z"/>
      <path class="cls-1" d="M98.9263,80.9713c-.1769-1.2008.424-2.2302,1.6188-2.683,1.7658-.6693,3.5512-1.2868,5.3216-1.9441,3.3924-1.2595,6.7805-2.5304,10.1694-3.7994.6964-.2607,1.3796-.5605,2.0866-.7868.2588-.0828.569-.0049.8558-.0003-.0513.2675-.0613.552-.1623.7992-.2188.5355-.5782.8812-1.1702,1.1065-4.815,1.8322-9.6136,3.7077-14.4138,5.579-1.439.561-2.867,1.1502-4.306,1.7289Z"/>
      <path class="cls-1" d="M143.857,114.6945c.0652-.3861.1051-.7227.1808-1.051.177-.7674.6451-1.2257,1.4051-1.4987,3.7835-1.3591,7.5559-2.7491,11.3263-4.1441,2.0742-.7674,4.1329-1.5764,6.2087-2.3394.3139-.1154.6825-.0816,1.0258-.1169-.0808.301-.1637.6014-.2419.903-.1617.6234-.6536.8753-1.1953,1.0823-4.6796,1.788-9.36,3.574-14.036,5.3716-1.4821.5698-2.9514,1.173-4.4274,1.7586-.0538.0213-.1176.0175-.2461.0347Z"/>
      <path class="cls-1" d="M170.2696,129.1672c.0546-.2027.1066-.4062.1642-.608.4009-1.4045.7547-2.8253,1.2301-4.2041.173-.5017.5753-.9734.9841-1.3321.4849-.4255,1.0481-.3344,1.5441.079.9262.772,1.1064,1.74.5223,2.7387-.2365.4043-.4806.5392-.8101.0954-.096-.1293-.2081-.2468-.3167-.3663-.4689-.516-.9928-.5114-1.2167.1288-.4283,1.2246-.7062,2.5008-1.0804,3.7454-.3271,1.0883-.6913,2.1659-1.0653,3.2392-.047.1349-.2537.2142-.3864.3193-.1117-.1518-.3105-.2975-.3215-.4562-.1111-1.6063-.8003-3.0208-1.4371-4.4532-.3547-.7979-.399-.8113-1.1878-.5075-.0188.0072-.0445.0298-.0537.0241-.5144-.3215-1.0526-.6125-1.5318-.9802-.3325-.255-.4959-.6371-.2803-1.0772.115-.2346.2273-.4705.3377-.7073.5489-1.1774,1.1406-1.336,2.222-.5798.9897.6921,1.5051,1.7158,1.9006,2.8085.2489.6877.4514,1.3921.6746,2.0891.0359.0015.0718.0029.1078.0044Z"/>
      <path class="cls-1" d="M42.6919,82.1458c.3968-1.4765.6811-2.8103,1.1272-4.0877.2571-.7363.725-1.4187,1.1934-2.055.3518-.4779.9171-.6022,1.45-.2419,1.0023.6777,1.4835,1.8445.7437,2.9742-.2426.3704-.4769.392-.7624.0659-.1064-.1215-.2174-.2389-.3282-.3564-.5761-.6113-1.1471-.5281-1.3808.2868-.4038,1.4076-.7016,2.8452-1.0718,4.263-.1922.7361-.4209,1.4651-.6807,2.1801-.1035.285-.3354.5234-.6003.9199-.1401-.3713-.252-.5775-.2954-.7972-.3297-1.6669-.8684-3.257-1.707-4.7393-.211-.3729-.4322-.7381-.8875-.2377-.048.0528-.178.1066-.2171.0805-.5385-.3583-1.1196-.6777-1.5737-1.125-.1836-.1809-.1297-.6528-.0986-.9843.0212-.2258.1746-.4469.2959-.6543.7348-1.2571.9653-1.2763,2.1942-.5036,1.3371.8409,1.8359,2.2933,2.2232,3.7591.0996.3768.2233.7472.376,1.2531Z"/>
      <path class="cls-1" d="M54.3273,105.5652c.0123.1686.0818.3589.0275.5024-.3464.9153-.6801,1.8393-1.0994,2.7218-.2566.5401-.7809.76-1.3826.6049-.6134-.1581-.8916-.6408-1.0528-1.2112-.5625-1.9896-.0612-3.8655.5997-5.7283.5515-1.5542,1.1593-3.0823,1.1167-4.7933-.0392-1.5741-.5531-2.9632-1.3738-4.2551-.3985-.6273-.8707-1.2205-1.3836-1.7586-.4509-.4731-.5115-.877-.1781-1.4422.6289-1.0658.7211-1.1101,1.5647-.1959,2.3695,2.5677,2.9956,5.622,2.2551,8.9429-.4142,1.8578-1.0996,3.6548-1.6549,5.4815-.2319.7629-.2282,1.5125.2043,2.2177.3462.5646.6934.6369,1.1542.1721.3093-.312.5447-.6978.8074-1.0548.0693-.0941.1173-.2038.1751-.3063.0735.0341.1469.0682.2204.1024Z"/>
      <path class="cls-1" d="M118.1136,126.468c-.2855,1.2161-.7684,1.9917-1.9521,2.3941-2.6862.913-5.3222,1.9752-7.9686,3.0024-.4649.1805-.9037.4541-1.315.7412-.6715.4687-.6295.8123.1092,1.1445.3858.1736.7873.312,1.1749.4819.7162.3139,1.0605,1.359.6519,2.0206-.0634.1026-.2565.1763-.3897.1766-1.0125.0021-1.8961-.4088-2.641-1.0356-.739-.6218-.5559-1.5023-.2589-2.2483.6576-1.6515,1.7318-2.9347,3.4899-3.5447,2.566-.8905,5.1209-1.8132,7.679-2.7265.2262-.0807.4341-.2164.6632-.2839.2246-.0662.4652-.0779.7571-.1224Z"/>
      <path class="cls-1" d="M85.6456,92.5737c-.2087,1.3494-.8085,2.0627-2.1023,2.4115-1.6621.4481-3.2462,1.1892-4.8577,1.8198-.936.3662-1.8723.7364-2.7847,1.1564-.5625.2589-1.0918.5969-1.6145.9328-.4417.2838-.3569.6125.0571.8292.4244.2221.8789.3919,1.331.5548.7303.2631,1.1554,1.3982.7273,2.0433-.0683.1029-.2741.1611-.4163.1611-1.0288-.0007-1.9329-.3578-2.6911-1.0459-.627-.5691-.5174-1.3188-.2648-1.9704.6521-1.6819,1.6409-3.067,3.4681-3.6988,2.8474-.9846,5.673-2.0318,8.5097-3.0477.1805-.0647.3761-.0873.6382-.146Z"/>
      <path class="cls-1" d="M86.3294,134.4671c3.0868-2.0871,6.3885-3.5084,9.0767-6.0023-.2423-.2166-.4499-.4191-.6747-.6002-1.002-.8068-1.2071-1.4626-.6844-2.6407.3985-.8982,1.0718-1.5588,2.0485-1.8439.7304-.2132,1.4225.1985,1.4171.944-.0053.7298-.1969,1.4566-.271,2.1884-.02.1975.0202.4957.1505.5987,1.0142.8013,1.0025,1.6405-.1046,2.4755-.301-.2384-.6113-.4842-.9849-.7802-2.4274,3.1317-5.8391,4.6241-9.4163,5.8396-.0964.0328-.2397-.0723-.5568-.1788ZM96.1467,126.4409c.2837-.5445.192-1.2712-.2312-1.3478-.2443-.0442-.6203.15-.7995.3563-.238.274.2663.7529,1.0307.9915Z"/>
      <path class="cls-1" d="M155.9071,118.3384c-.7255-.9863-1.5541-1.042-2.2614-.1969-.2543.3038-.2804.5328.0795.7959,1.0942.7998,1.4527.8306,2.6002.1244.5144-.3166,1.0135-.6595,1.5387-.9568.2486-.1408.5421-.2023.8252-.3033.1979.8641-.1847,1.7816-.8938,2.2524-1.7956,1.1923-3.5938,2.3807-5.3935,3.5667-.1388.0915-.2978.1523-.4718.2396-.3108-1.3086.5795-1.9323,1.3475-2.6178-2.0366-1.0308-1.9483-1.9007-.7811-3.6211.6615-.9751,1.4723-1.8737,2.6682-2.2806.9214-.3135,1.814.3959,1.6462,1.3532-.1121.6393-.3765,1.2131-.9038,1.6444Z"/>
      <path class="cls-1" d="M140.0627,167.4813c-.2116.2486-.3871.5443-.6406.7379-1.4851,1.1343-3.19,1.6292-5.0383,1.5222-1.5535-.0899-2.3619-1.6116-1.6628-3.1355.297-.6473.7465-1.2394,1.2015-1.7953.4971-.6074,1.0836-1.1412,1.624-1.7137.1036-.1097.1746-.2502.2787-.4029-1.0665-.5329-2.1109-.4208-3.1614-.1311,0-.88.6884-1.7526,1.497-1.8322.6545-.0644,1.3311-.03,1.9854.0558,1.1242.1475,1.4058.9566.8072,1.8995-.5134.8087-1.1942,1.5145-1.828,2.2422-.4762.5468-1.0312,1.0273-1.4864,1.5898-.5966.7371-.3082,1.3411.6392,1.4478,1.7092.1925,3.3768-.0048,5.0151-.5117.2154-.0666.4459-.0842.6694-.1244.0333.0505.0666.1009.0999.1514Z"/>
      <path class="cls-1" d="M84.2102,131.1419c-1.2547-.8777-2.4242-1.6982-3.5968-2.5145-.3162-.2201-.4493-.4114-.2165-.8348.5025-.914.9175-1.8764,1.3648-2.8205.1827-.3857.4279-.4933.8039-.2315,1.1052.7698,2.2276,1.5156,3.3131,2.312.1618.1187.2828.5022.2161.6896-.439,1.2325-1.0466,2.38-1.8846,3.3996Z"/>
      <path class="cls-1" d="M92.3902,85.894c-.0829.3-.0993.4676-.1722.6052-.4513.8525-.9044,1.7045-1.3796,2.5438-.2341.4134-.5317.4537-.9372.1462-1.0267-.7788-2.0758-1.5289-3.132-2.2675-.2472-.1729-.3108-.3036-.1773-.586.412-.8717.7834-1.7627,1.1935-2.6353.3667-.7803.6331-.8694,1.3445-.4024.942.6185,1.8685,1.2629,2.7742,1.9331.2303.1704.357.4808.4861.6629Z"/>
      <path class="cls-1" d="M170.7181,93.2013c-.0899.2654-.1287.4692-.223.643-.4604.8491-.9343,1.6909-1.4062,2.5337-.2117.3781-.4747.4309-.8369.168-1.0758-.7809-2.1703-1.5364-3.2386-2.3273-.1233-.0913-.2275-.3875-.1715-.5134.4576-1.0273.9671-2.0313,1.435-3.0543.1845-.4033.4529-.448.7701-.235,1.12.7524,2.2317,1.5175,3.3319,2.2984.1601.1137.2403.34.3391.4868Z"/>
      <path class="cls-1" d="M143.8457,84.3042c-.1982-.1232-.3557-.2083-.4993-.3123-1.0109-.7323-2.0105-1.4808-3.0332-2.1961-.3095-.2165-.3806-.4208-.2229-.7568.4091-.8719.7777-1.7634,1.2065-2.6252.3113-.6257.5662-.7374,1.1488-.3612,1.0778.6962,2.1116,1.4644,3.1255,2.2518.1702.1322.2825.5752.1924.7666-.4618.9803-.9919,1.929-1.5165,2.8785-.0779.1409-.2535.2278-.4013.3547Z"/>
      <path class="cls-1" d="M139.5613,58.5787c-.0535-.4313-.1163-.8618-.1588-1.2942-.1954-1.9875-.3893-3.9752-.5756-5.9636-.2561-2.7327-.5514-5.4631-.7283-8.201-.0529-.8186.2231-1.6612.3749-2.4879.0275-.1496.1842-.2754.4333-.3826.0785.6056.1749,1.2096.2325,1.8172.2324,2.4496.5079,4.8968.6629,7.3515.1741,2.7566.6533,5.5059.3095,8.2811-.0385.3111-.1753.61-.2665.9145-.0946-.0117-.1892-.0233-.2839-.035Z"/>
      <path class="cls-1" d="M102.6694,58.3499c-.0499-.2599-.1204-.5177-.1466-.7799-.3194-3.1882-.6322-6.3771-.9468-9.5658-.1761-1.785-.4435-3.5676-.4912-5.3561-.0248-.9315.3376-1.8734.5251-2.8106.0727-.0043.1453-.0086.218-.013.0623.1447.1653.2852.1808.4347.2525,2.4462.5143,4.8917.7315,7.3412.1764,1.9892.3101,3.9824.4365,5.9756.0931,1.4683.2288,2.943-.1803,4.3923-.0373.1323-.0944.2589-.1423.3882-.0616-.0022-.1232-.0044-.1847-.0066Z"/>
      <path class="cls-1" d="M87.9252,145.0721c.0356.2657-.0156.5917.1204.7876,1.1677,1.6809.4322,3.6347-1.0293,4.5781-.9768.6305-1.9565,1.2848-3.0104,1.7612-1.9674.8893-3.4919-.0848-3.5259-2.2596-.0139-.8875.2725-1.7811.4418-2.6682.0199-.1046.1636-.1855.2499-.2774.0609.0213.1218.0425.1827.0638-.0726.3507-.0744.7374-.231,1.0454-.4939.9713-.1444,1.7425.474,2.4848.5573.6689,1.2743.5501,1.9533.3396,1.6683-.5171,3.0537-1.5281,4.3498-2.6623.0953-.0834.0812-.4044.0028-.555-.4002-.768-.8411-1.5147-1.2609-2.2726-.097-.1751-.2468-.3708-.2337-.5467.0289-.3879.1461-.7692.2272-1.1532.2613.1699.5459.3134.7778.5168.2539.2228.4592.5009.6856.755-.058.0209-.1161.0417-.1742.0626Z"/>
      <path class="cls-1" d="M163.548,145.0599c.1102.1323.1508.1593.1588.1938.1979.8541-.6573,2.9816-1.3884,3.4611-.6303.4134-1.3292.3496-1.7296-.2913-.2868-.4591-.4958-1.0262-.5458-1.5631-.1863-2.0019.2091-3.9192,1.0314-5.7509.2465-.5491.4643-1.1127.739-1.6471.1477-.2873.3883-.5268.587-.7879.0567.0292.1134.0585.17.0877-.2361.7678-.5059,1.5273-.7003,2.3056-.2773,1.1101-.5509,2.2262-.7211,3.3556-.0743.493.0429,1.0465.1944,1.5349.2486.8012.7739.8931,1.3371.2803.189-.2056.3272-.4575.4925-.6854.1116-.154.23-.303.3751-.4932Z"/>
      <path class="cls-1" d="M176.095,102.1947c-.0511.2617-.0913.5261-.1552.7847-.3898,1.5775-.8176,3.1465-1.1589,4.7343-.1067.4965-.0593,1.06.0601,1.5586.0718.2999.3761.6661.6554.7562.2281.0736.6379-.1524.8532-.3623.351-.3423.6091-.7798,1.0217-1.3312.0523.3303.1289.489.088.607-.3144.9069-.5629,1.8547-1.02,2.6863-.2197.3998-.8289.7624-1.2935.8065-.5964.0566-1.0636-.4276-1.2808-1.0277-.4195-1.1595-.3063-2.3464-.1354-3.5287.292-2.0205,1.1111-3.8502,2.0766-5.6237.0261-.0479.0903-.0749.1367-.1117.0507.0173.1014.0345.1521.0518Z"/>
      <path class="cls-1" d="M71.8031,163.3519c.1447.1269.2031.156.2009.1794-.1185,1.2544-.3427,2.4946-1.2823,3.4136-.7937.7763-1.7603.4725-2.1925-.5964-.4313-1.0669-.4117-2.1524-.228-3.2672.3202-1.9437.9089-3.7874,1.9102-5.4897.1154-.1963.276-.366.5438-.483-.3555,1.2679-.7233,2.5325-1.0626,3.8047-.2873,1.077-.4975,2.1763-.1874,3.2762.0847.3005.3806.6693.6546.749.2267.0659.6285-.1869.8368-.4078.3164-.3354.5324-.7655.8065-1.1787Z"/>
      <path class="cls-1" d="M75.8661,74.1063c-.4484,2.0377-.91,3.9454-1.2648,5.8728-.0957.5199.0517,1.1278.2326,1.6445.2225.6357.9232.6612,1.2942.1042.2231-.335.4291-.6817.6627-1.009.055-.0771.1926-.1341.288-.1285.0553.0032.1295.1436.1487.2324.144.6661-.9039,3.0247-1.4976,3.3903-.8603.5297-1.8355.0499-2.1038-.9765-.2873-1.099-.197-2.1626-.0559-3.2812.2349-1.8622.9081-3.5317,1.7733-5.1533.1256-.2354.3224-.4328.5227-.6956Z"/>
      <path class="cls-1" d="M47.8473,61.1474c.2227-.9619.3936-1.7284,1.0925-2.2663.5778-.4447,1.1948-.4931,1.818-.2047.5258.2433.9252,1.2064.7673,1.8523-.5894,2.4106-2.0171,4.2252-4.0679,5.5744-.1189.0782-.2884.0796-.5356-.006.2644-.336.5326-.669.7924-1.0086.7216-.9433,1.4716-1.8678,2.1374-2.8492.1722-.2539.2144-.765.0725-1.0248-.2347-.4296-.7288-.4209-1.1908-.2679-.2356.078-.4857.1121-.8858.2007Z"/>
      <path class="cls-1" d="M42.1683,136.71c.2495-.8722.5222-1.4196,1.3198-1.6824,2.1912-.722,4.3542-1.5297,6.5266-2.3081.4798-.1719.9528-.3629,1.4782-.5639.1244.6865-.114,1.1263-.6072,1.3264-1.4491.5879-2.9226,1.1156-4.3848,1.6715-1.1618.4417-2.3193.8944-3.4825,1.3322-.231.087-.4792.1282-.8501.2244Z"/>
      <path class="cls-1" d="M42.1437,140.1472c.2778-.8307.4288-1.4111,1.2652-1.6887,2.4174-.8025,4.7935-1.7292,7.1882-2.6007.2763-.1006.5675-.1602.8569-.2401.1252.6611-.1576,1.1429-.8051,1.3857-1.8611.6981-3.7292,1.3773-5.5903,2.0756-.7143.268-1.4149.5724-2.126.8495-.1962.0765-.4075.1147-.789.2187Z"/>
      <path class="cls-1" d="M122.4681,59.9281c.4999.6474,1.1497.6421,1.8191.4932.6382-.142,1.2667-.3274,2.0656-.5373-.3494.7719-.5335,1.3543-1.2962,1.6458-.9317.356-1.7895.9052-2.6792,1.371-.2096.1097-.4191.2197-.6286.3296l-.145-.1167c.2606-.3976.5213-.7951.8076-1.2319-.0178-.0199-.0577-.0882-.1169-.1275-.9144-.6065-.9757-.8836-.4459-1.8792.4003-.7523.9092-1.4025,1.7572-1.6442.2276-.0649.7374.0844.7527.1888.0565.3856-.0181.7988-.1115,1.1852-.0097.04-.5012.0346-.7201-.0614-.4933-.2164-.74.0885-1.0588.3848Z"/>
      <path class="cls-1" d="M63.8446,49.021c-.1703-.1204-.3132-.2215-.4776-.3377-1.3659,1.3655-2.9029,2.3893-4.807,2.7274-.0357-.0582-.0715-.1165-.1072-.1748,1.4308-.9135,2.8616-1.8269,4.3283-2.7633-.1871-.196-.289-.2922-.3788-.3985-.5398-.6386-.4704-1.4337.1884-1.9787.3426-.2834.7999-.517,1.137-.1625.2232.2347.3262.7476.2396,1.0707-.1023.3816-.1097.5998.179.8829.2912.2854.2252.4465-.3017,1.1344Z"/>
      <path class="cls-1" d="M103.8941,45.1361c1.4844-1.1735,3.2041-1.7376,4.4113-3.0325-.8901-.903-.7893-1.9406.1885-2.4632.6295-.3364,1.0674-.0897,1.0795.6118.0095.5469-.1508,1.0933.2999,1.5981.2275.2549-.259.843-.5891.7123-.3533-.1399-.5058.021-.7161.2378-1.1811,1.2172-2.6309,1.9618-4.2641,2.3693-.072.018-.1557-.0108-.41-.0336Z"/>
      <path class="cls-1" d="M130.7545,38.074h-2.6281c-.0011-.5804.6838-1.5088,1.4372-1.7562.7883-.2588,1.5623-.0993,2.2872.2375.1728.0803.3487.3775.3471.5734-.0109,1.2879-1.9692,2.8115-3.2526,2.5601-.0734-.0144-.1379-.074-.2945-.1619.7557-.4656,1.4593-.899,2.163-1.3325-.0198-.0402-.0396-.0803-.0594-.1204Z"/>
      <path class="cls-1" d="M93.0262,35.3948l2.0345-1.2445c-.0223-.0479-.0446-.0958-.0669-.1437h-2.6008c.0589-.8263.9212-1.7765,1.8356-1.8127.5565-.022,1.134.028,1.6702.168.2225.0581.543.4728.5041.66-.1055.5083-.3151,1.0237-.6013,1.4589-.4301.654-1.1745.8849-1.8857,1.0984-.2595.0779-.562.0126-.8449.0126-.015-.0656-.0299-.1313-.0448-.1969Z"/>
      <path class="cls-1" d="M87.9855,45.7272c1.4159-.9122,2.8318-1.8244,4.27-2.751-.8813-.9726-.8985-1.8647-.0987-2.393.2681-.177.6911-.2418,1.0032-.1738.139.0303.2432.5144.2494.7951.0103.4676-.1803.9399.2442,1.3543.0859.0838-.0044.4225-.1026.5923-.058.1003-.2919.0956-.4445.1452-.221.0718-.5061.0864-.6492.2355-1.1061,1.1519-2.4624,1.8649-3.9622,2.3396-.1271.0402-.2703.0293-.4061.0422-.0346-.0622-.0691-.1243-.1037-.1864Z"/>
      <path class="cls-1" d="M79.1458,61.9482c.7615.4546,1.3714.7993,1.9557,1.183.1251.0822.2605.3481.2156.4572-.271.6589-.593,1.2969-.9185,1.9853-.6357-.411-1.2305-.7798-1.8066-1.1758-.2384-.1638-.3881-.3621-.2058-.7108.2813-.5379.491-1.1132.7595-1.7389Z"/>
      <path class="cls-1" d="M88.8671,61.9584c.7332.4371,1.3606.7911,1.9607,1.1866.1133.0746.2057.3484.1577.4721-.2528.6517-.5538,1.2847-.8576,1.9685-.6324-.4066-1.2179-.75-1.76-1.1522-.1587-.1178-.316-.4417-.2638-.6034.1997-.6191.4849-1.2106.763-1.8715Z"/>
      <path class="cls-1" d="M86.0594,34.8651c-.0724.2377-.135.4788-.2188.7124-.4408,1.2288-.9396,2.4489-.8089,3.7926.0233.2393.2231.4615.3414.6916.2049-.1336.4164-.2583.6123-.4039.141-.1048.2613-.2376.4798-.4406.0881.9575-.2858,1.6058-.7825,2.1547-.4027.445-1.3098.0576-1.3473-.6175-.0506-.9094-.0785-1.8648.145-2.7333.266-1.0335.8073-1.9965,1.2346-2.9877.0359-.0834.1122-.1493.1697-.2233.0583.0184.1165.0368.1748.0551Z"/>
      <path class="cls-1" d="M76.0177,42.5661c.0265.2734.0452.4465.0597.6199.0217.2592-.011.5359.388.5506.3568.0132.6288-.0257.7136-.451.0859-.431.219-.8525.3314-1.2782.0784.0043.1568.0086.2353.0129.0431.1894.0697.3846.1335.5666.0774.2207.1863.4304.2816.6448.1062-.1976.2824-.3881.3035-.5944.0397-.3889.2082-.5783.5798-.6198.2646.7318.0219,1.8275-.5054,2.2904-.1178.1034-.3036.2733-.3947.2398-.6215-.2282-1.0129.2191-1.466.4621-.4781.2564-.7793-.0096-1.0185-.3396-.3092-.4266-.1257-1.5873.3582-2.1041Z"/>
      <path class="cls-1" d="M62.6753,134.8226c.913-.5842,1.8259-1.1684,2.8016-1.7926-.6744-.5034-.456-1.1196-.3181-1.6966.039-.1631.2792-.3721.4486-.394.8307-.1074,1.6953.9029,1.4592,1.7179-.0562.1938-.3287.3542-.5357.4678-.2575.1413-.6045.1538-.8186.334-.872.7334-1.7983,1.3311-2.9405,1.5124-.0321-.0496-.0643-.0992-.0964-.1488Z"/>
      <path class="cls-1" d="M121.0171,65.6756c-.1931-.4797-.0934-.7875.3229-.947,1.4014-.5367,2.8062-1.0644,4.2101-1.5946.3558-.1344.7078-.283,1.0723-.3878.1284-.0369.2888.0378.4346.0615-.0288.1452-.0117.3308-.0963.4268-.1555.1765-.3498.3557-.5645.4374-1.7761.6759-3.5606,1.3296-5.379,2.0036Z"/>
      <path class="cls-1" d="M92.6665,48.4037c-.2194.2129-.4017.517-.6642.6236-1.4489.5883-2.9181,1.1267-4.3786,1.6868-.2413.0925-.4686.2229-.7124.3067-.1353.0465-.3965.083-.4184.037-.0697-.1462-.1275-.3806-.0546-.4942.1333-.2079.3348-.4293.5577-.5135,1.6516-.6239,3.3142-1.2191,4.9776-1.8113.1603-.0571.3494-.0332.5251-.0469.0559.0706.1119.1412.1679.2118Z"/>
      <path class="cls-1" d="M80.2233,38.5394c-.3625.2398-.6971.5495-1.0923.707-1.4901.5938-2.9987,1.1414-4.5038,1.6973-.2156.0796-.4494.1101-.686.1659-.2095-.6555.2013-.864.6172-1.0273.9699-.3809,1.9493-.7379,2.927-1.0988.5833-.2153,1.165-.438,1.7587-.6209.2694-.083.5661-.0775.8504-.1122.0429.0963.0859.1926.1288.2889Z"/>
      <path class="cls-1" d="M105.0985,37.1879c-.0361-.2921-.0956-.5835-.104-.8764-.0319-1.1107-.4799-2.0132-1.1364-2.911-.3143-.4298-.1717-1.1938-.1213-1.841,1.0479.4569,1.3532,1.3986,1.6527,2.2961.3739,1.1199.5803,2.2714-.0804,3.3524-.0702-.0067-.1404-.0134-.2106-.0201Z"/>
      <path class="cls-1" d="M116.604,47.4105c-.1094-.6382.18-.934.6334-1.1031,1.018-.3799,2.0414-.7455,3.0635-1.1145.6041-.2181,1.2044-.4494,1.8182-.6355.1732-.0525.3885.0334.5844.0558-.0955.2063-.1362.503-.2974.6006-.3729.2258-.8004.3652-1.2124.5218-1.2411.4717-2.4846.9373-3.7293,1.3997-.2613.0971-.5312.1707-.8604.2752Z"/>
      <path class="cls-1" d="M118.3253,32.5512c.9289.912,1.4539,1.9844,1.6362,3.2062.1268.8496.2276,1.736-.2088,2.5287l-.1636-.0107c-.1164-.6374-.1663-1.297-.3688-1.9058-.186-.5591-.4879-1.0973-.8269-1.5832-.4141-.5935-.5143-1.4335-.0681-2.2352Z"/>
      <path class="cls-1" d="M144.1636,47.0264c1.5344,1.4483,2.2257,4.9403,1.1718,5.5943-.0845-.4747-.1954-.9075-.2322-1.3466-.0649-.7763-.413-1.4219-.8601-2.025-.6041-.8147-.6312-1.2595-.0795-2.2227Z"/>
      <path class="cls-1" d="M77.2982,153.5544c-.1756-.1475-.3101-.2974-.4758-.393-.621-.3585-.6772-.6744-.2239-1.2251.2289-.2781.4542-.2963.7233-.0782.1378.1117.2807.2172.4187.3234.5767-.6184,1.0113-.608,1.5253.0117.1836.2213.1167,1.0173-.1705,1.1574-.1678.0819-.4836-.0302-.6823-.1435-.4268-.2434-.4134-.2669-1.1148.3473Z"/>
      <path class="cls-1" d="M62.4841,137.5515c-.3274.1786-.6406.3931-.9847.5295-1.3603.5395-2.7273,1.0624-4.0999,1.5695-.1919.0709-.4288.0198-.6449.0252.1305-.2114.2122-.5316.3998-.6157.8775-.3933,1.7831-.7243,2.6809-1.0721.5986-.2319,1.1931-.4799,1.8054-.6686.2466-.0759.5361-.0125.806-.0125.0124.0815.0249.1631.0373.2446Z"/>
      <path class="cls-1" d="M56.5331,144.5304c-.3609-.2433-.7212-.4302-1.0106-.6946-.423-.3865.1148-.6732.191-1.0077.0172-.0753.3375-.1588.4814-.1157,1.0765.3225,1.1517.6872.3382,1.818Z"/>
      <path class="cls-1" d="M80.0548,138.143c-.2327.2642-.4654.5285-.6981.7927-.3313-.3223-.7702-.5969-.9442-.989-.076-.1713.3305-.7067.6274-.8503.2831-.1369.9079.5954,1.0149,1.0466Z"/>
      <path class="cls-1" d="M70.471,147.1892c-.0961.5585-.1923,1.117-.2983,1.7324.295-.0296.4858-.0487.7198-.0721.046.4831-.0974.8353-.5766.8909-.5165.06-.6166-.3562-.556-.7281.1025-.629.2894-1.2442.4408-1.8653.0901.014.1802.0281.2703.0421Z"/>
      <path class="cls-1" d="M82.9978,147.1416c-.0308.2388-.0062.503-.1022.7119-.3735.8127-.3877.8062.7353.9491-.339.3529-.6358.8635-.8327.8275-.5087-.093-.5666-.6533-.5066-1.0853.0694-.499.2776-.9786.4255-1.4667.0936.0212.1871.0423.2807.0635Z"/>
    </g>
  </g>
</svg>