<?xml version="1.0" encoding="UTF-8"?>
<svg id="Aishah" xmlns="http://www.w3.org/2000/svg" width="418.6957" height="237.9843" viewBox="0 0 418.6957 237.9843">
  <defs>
    <style>
      

      @import url('../../CSS/SvgStyling.css');
      
    </style>
  </defs>
  
  
    <g class="content">
    


      <rect id="bg" class="bg" width="418.6957" height="237.9843"/>
      <path class="cls-1" d="M66.3511,160.7312c-.405.1255-.5687.4115-.7485.6666-1.7291,2.4525-3.6039,4.7904-5.5042,7.1114-1.1756,1.4359-2.2407,2.9617-3.3766,4.4307-.5741.7424-.5761.702-1.3033.1152-3.4792-2.8073-6.9711-5.5988-10.4556-8.3995-1.4051-1.1293-2.7964-2.2758-4.2077-3.3972-.403-.3202-.394-.5622-.0845-.9734,1.6029-2.129,3.1582-4.2937,4.7519-6.4297,1.2639-1.694,2.7228-3.236,3.9123-4.9892.0201-.0297.0429-.0582.0676-.0842.9499-.9979.9578-1.008,2.0729-.1406,3.5289,2.745,7.0657,5.4802,10.5687,8.2579,1.2783,1.0136,2.4865,2.1155,3.8078,3.0783.6948.5063.7804.5109,1.2381-.2039,1.5762-2.4614,3.3685-4.7675,5.2067-7.0295,1.1621-1.4301,2.3514-2.834,3.4037-4.3484.0203-.0292.0506-.0511.0749-.0777.922-1.0136,1.0195-1.0047,2.1236-.1672,4.2275,3.2066,8.3986,6.485,12.5428,9.7982.6452.5158,1.2745,1.0522,1.9311,1.5529.4384.3343.4218.6579.1466,1.0974-.6508,1.0394-1.581,1.8421-2.3112,2.8155-1.4613,1.9479-2.9567,3.8706-4.4616,5.7853-.8828,1.1231-1.8101,2.2113-2.719,3.3138-.5081.6164-.5721.6326-1.1815.133-1.1429-.937-2.2592-1.907-3.4126-2.8307-3.3211-2.6596-6.6549-5.3033-9.9853-7.9514-.166-.132-.3464-.2457-.491-.3475-.1705.027-.2388.1146-.2443.2229-.1582,3.0657-.709,6.0872-1.0295,9.135-.3982,3.786-.2347,7.5664.0066,11.3452.2323,3.6364.8012,7.2324,1.3638,10.8325.392,2.5086.966,4.9444,1.8275,7.3254.9218,2.5477,1.9474,5.0596,3.4046,7.3403,1.1949,1.8702,2.4545,3.7209,4.3618,5.0155,3.7417,2.5398,7.6238,1.5468,10.4368-.8874,3.2-2.769,5.2844-6.3119,7.0722-10.0677.9084-1.9084,1.8352-3.8084,2.7154-5.7298,1.2868-2.8089,2.6496-5.5903,3.7738-8.4642,1.0472-2.6772,2.4162-5.1691,3.7638-7.689,1.368-2.5581,2.9396-4.9853,4.6631-7.2992,1.3574-1.8224,2.8079-3.5935,4.5001-5.1436.8741-.8007,1.5916-1.7647,2.5091-2.5262,2.1611-1.7936,4.2697-3.6285,6.6992-5.1034,1.7986-1.0919,3.6671-1.8481,5.6644-2.3405,1.4976-.3692,2.8678.1201,4.1901.8514,1.4668.8113,2.2144,2.1984,2.9622,3.5657,1.2918,2.3621,2.1551,4.9094,2.9812,7.4619,1.0369,3.2039,2.2726,6.3193,3.8485,9.3004.8828,1.6699,1.7705,3.3354,2.9099,4.8452.883,1.1701,1.6358,2.4386,2.6874,3.4837,1.192,1.1848,2.5801,2.0633,4.053,2.8539,3.4123,1.8316,7.0524,1.9023,10.7605,1.4817,1.4543-.1649,2.9166-.3328,4.3432-.6455,1.0685-.2343,2.1165-.6333,3.1204-1.0789,4.0709-1.8069,7.6081-4.3393,10.4988-7.7643,1.6534-1.959,3.2403-3.962,4.6796-6.0832,1.1413-1.682,2.546-3.13,4.0516-4.4841.54-.4857,1.1335-.8988,1.8194-1.1478.6662-.2419,1.0424.006,1.1098.7123.0564.5911-.0919,1.1518-.3545,1.6734-.5509,1.0941-1.1217,2.1782-1.6861,3.2654-.2325.4478-.4691.8934-.7048,1.3395-.7811,1.4784-.6471,2.9487.1756,4.3331,1.4416,2.4261,3.3639,4.3577,6.1491,5.1566,4.1411,1.1878,8.3018,1.4475,12.4092-.1791,1.8601-.7366,3.5302-1.7977,4.9982-3.1656,3.4073-3.1749,6.6383-6.5165,9.5883-10.1247,1.073-1.3124,2.1713-2.6037,3.3819-3.7931.2811-.2762.5907-.5286.9118-.7574.2664-.1899.5902-.3517.9038-.141.3483.234.5179.6003.4673,1.0272-.056.4731-.2951.8863-.4916,1.3101-.5913,1.2753-1.1954,2.5411-1.5299,3.9208-.2136.8809-.121,1.7022.1836,2.541,1.5006,4.1321,5.0339,5.6602,8.4078,5.5267,2.4641-.0976,4.8684-.5395,7.1713-1.4613,1.972-.7894,3.3887-2.293,4.8231-3.762,2.4377-2.4968,4.3438-5.3736,5.9766-8.4471.6928-1.3041,1.4661-2.5658,2.216-3.8389.498-.8455,1.141-1.577,1.8691-2.2308.2399-.2154.4971-.4247.7786-.5772.3496-.1894.7477-.3364,1.1274-.0948.3876.2467.2276.644.1832.9898-.0689.5358-.1269,1.0765-.2492,1.6012-.2513,1.078-.2383,2.1508.0177,3.2165,1.1128,4.6339,3.5836,8.1228,8.2136,9.8462,1.8716.6967,3.7823,1.2762,5.753,1.4431,3.2505.2753,6.3895-.3144,9.3577-1.7285.4874-.2322.5728-.6003.5743-1.0517.0065-1.9147-.0746-3.8256-.505-5.6976-.8817-3.8356-2.1282-7.5631-3.425-11.2732-3.267-9.3464-5.7047-18.9021-7.3317-28.6693-.616-3.6986-1.3254-7.3886-1.6007-11.1269-.1797-2.4402-.8727-4.6615-2.0395-6.7635-.4105-.7395-.354-1.3746-.0097-2.1303,2.0623-4.5264,4.084-9.0715,5.9937-13.6653.0394-.0949.1195-.1728.2034-.2905.427.229.5255.6826.7236,1.0324,3.1798,5.6158,6.3461,11.2401,9.2103,17.026,1.2107,2.4458,2.1394,5.0051,2.8589,7.6384.0756.2768.1393.5618.1639.8469.081.937-.2837,1.1937-1.1577.7917-.6209-.2856-1.1914-.6682-1.7098-1.1144-1.0781-.928-2.3067-1.6782-3.2591-2.7556-.0334-.0378-.1333-.0167-.2893-.031-.2781,1.0218-.038,2.0366.1191,3.0388.4834,3.0827,1.4202,6.0592,2.2033,9.07,1.2427,4.778,2.505,9.5521,3.8518,14.3016.829,2.9234,1.6316,5.852,2.3801,8.7965.8287,3.26,1.2302,6.5713,1.2694,9.9313.0229,1.96-.325,3.8779-.6524,5.7966-.6113,3.5827-1.383,7.1247-2.74,10.5151-1.4797,3.6972-3.4789,7.1-6.1246,10.0604-1.8584,2.0796-4.3094,3.311-7.079,3.7776-2.7859.4694-5.564.633-8.3738-.0301-2.0318-.4795-3.9715-1.1117-5.592-2.4295-1.5819-1.2863-3.1351-2.6283-4.1983-4.4232-.8026-1.3548-1.3455-2.8308-1.984-4.2603-.4011-.8981-.7476-1.832-.8707-2.8303-.0267-.2168-.1309-.5294-.4138-.5555-.288-.0265-.4052.2508-.5105.4756-.6825,1.4575-1.3436,2.9253-2.0428,4.3747-1.2813,2.6561-2.6897,5.223-4.719,7.4176-1.3636,1.4746-2.7921,2.8476-4.5019,3.9089-3.1327,1.9444-6.5668,2.5526-10.1953,2.2788-1.9585-.1478-3.8444-.615-5.661-1.3522-.394-.1599-.7952-.3622-1.1139-.6367-1.211-1.0432-2.4143-2.0548-3.274-3.4854-.685-1.1399-1.3327-2.252-1.6353-3.5413-.1979-.8433-.33-1.7021-.4892-2.5544-.0263-.1409-.0189-.2914-.0643-.4248-.1509-.4435-.4559-.5095-.7669-.1373-.9216,1.1034-1.869,2.1893-2.7249,3.3425-2.1547,2.9033-4.6218,5.5002-7.3635,7.8542-1.2012,1.0313-2.5316,1.8061-3.9279,2.5297-1.4054.7282-2.9001,1.1694-4.3754,1.6874-.1351.0474-.2548.0896-.4005.0982-2.7719.1632-5.5461.2988-8.2813-.3261-.6081-.1389-1.1855-.4501-1.7501-.7354-2.4329-1.229-4.2316-3.1167-5.6733-5.4048-.6152-.9765-.9794-2.0462-1.4311-3.0858-.183-.4212.1245-.9287-.224-1.3512-.3741.049-.5264.3754-.6803.6191-1.2084,1.9142-2.6314,3.6284-4.2723,5.2038-1.677,1.6102-3.3453,3.212-5.2793,4.5097-.6753.4531-1.3655.9002-2.0965,1.2508-1.5703.7532-3.1164,1.6302-4.7724,2.1153-2.8891.8462-5.864,1.3733-8.9056.9274-1.9787-.29-3.9314-.7023-5.8154-1.4033-.748-.2783-1.3992-.6746-2.0236-1.1764-.9717-.781-2.0554-1.4177-2.9983-2.243-3.2492-2.8438-5.9534-6.1011-7.86-10.0123-2.4058-4.9355-4.3244-10.0796-6.5691-15.083-.2467-.5499-.4475-1.137-.7864-1.6259-1.3975-2.0158-3.0281-2.8201-5.6405-1.7243-1.1914.4997-2.2149,1.2727-3.2376,2.0205-2.4391,1.7835-4.6238,3.8324-6.5977,6.1487-1.5683,1.8402-3.0376,3.7536-4.5173,5.656-.9476,1.2183-1.7921,2.5364-2.6392,3.8403-.7144,1.0997-1.458,2.1965-2.1771,3.3023-.4279.658-.868,1.3298-1.0421,2.094-.1449.6359-.6308,1.0211-.8998,1.5561-.7245,1.4405-1.3206,2.9372-1.9725,4.4097-1.9144,4.3247-3.2571,8.8907-5.593,13.0399-1.4733,2.6169-3.0344,5.1537-5.1067,7.3508-.9935,1.0534-2.1302,1.8822-3.3705,2.6297-1.8644,1.1236-3.702.9553-5.5715.1534-1.6745-.7182-3.1193-1.8004-4.4672-3.0086-3.5811-3.2101-6.063-7.1896-8.0245-11.5292-1.6251-3.5952-2.8514-7.3347-3.7868-11.1557-.6782-2.7705-1.0157-5.6137-1.32-8.4558-.7163-6.6892-.9223-13.38-.1777-20.079.3944-3.5478.949-7.0674,2.0248-10.4853.0179-.0569-.0207-.1316-.0511-.2967Z"/>
      <path class="cls-1" d="M333.5698,179.398c-.2953-.8311-.7884-1.4556-1.1975-2.1124-1.2431-1.9963-2.4231-4.0185-3.3617-6.1816-.8498-1.9585-1.8337-3.8588-2.5519-5.8747-.7657-2.149-1.6311-4.2807-2.0593-6.5204-1.2005-6.2786-1.2075-12.5482.7628-18.6898,1.3055-4.0694,3.5416-7.6531,6.3952-10.8197,5.3404-5.9263,12.0385-9.5947,19.754-11.3377,5.2479-1.1856,10.5845-1.1876,15.9153-.3886,1.8889.2831,3.75.6535,5.5896,1.1791,2.1205.6058,4.1122,1.5115,6.1355,2.3607,2.6654,1.1186,5.1165,2.6036,7.5137,4.1834,1.9773,1.303,3.682,2.9186,5.2129,4.9378-.8184-.0114-1.4258-.308-2.0377-.4959-2.6296-.8078-5.3226-1.2691-8.0487-1.5539-1.8647-.1948-3.7358-.3277-5.603-.4995-2.5264-.2325-5.0447.0456-7.5654.12-2.3096.0682-4.6017.3585-6.8708.7931-1.5362.2942-3.11.5073-4.5913.9428-1.5682.461-3.1825.6747-4.7506,1.1388-1.8187.5383-3.6522,1.0619-5.4852,1.568-1.5082.4165-2.9721.9934-4.4559,1.4983-1.2729.4331-2.5598.8294-3.8166,1.3051-2.1048.7967-4.1268,1.7805-6.1289,2.8074-.5288.2712-.7487.6547-.6921,1.2119.0874.86.1451,1.7277.3066,2.5747,1.8911,9.918,5.6921,19.0156,11.5543,27.2668,1.4518,2.0435,3.1251,3.8438,4.8854,5.5864,2.4403,2.4158,5.384,4.1238,8.3003,5.8849,1.3579.82,2.8383,1.1483,4.3121,1.4535,1.2959.2683,2.6503-.0197,3.948-.3409,1.0019-.248,1.9914-.5455,2.9896-.8088,6.1207-1.6138,11.8414-4.183,17.4005-7.1715,3.4546-1.8571,6.8878-3.7498,10.1625-5.9035,4.6087-3.031,9.1551-6.1566,13.7247-9.2468.3735-.2526.7212-.5433,1.0694-.8075.3152.2831.132.52.0582.739-.9209,2.7329-1.8765,5.4569-3.0137,8.1051-.7788,1.8136-1.2202,3.7312-1.9377,5.5594-.2978.7588-.6871,1.3414-1.4014,1.8262-4.7138,3.1991-9.5028,6.2812-14.321,9.3183-2.3166,1.4602-4.5566,3.0501-7.0321,4.2477-4.0222,1.9459-8.0019,3.9841-12.1008,5.7655-4.1812,1.8171-8.3829,3.5762-12.8974,4.4601-3.3689.6596-6.7573,1.092-10.1813,1.2867-5.1671.294-10.2207-.3905-15.1665-1.8452-2.8548-.8396-5.3918-2.3248-7.7894-4.0897-2.2437-1.6516-4.1196-3.6675-5.9302-5.7418-1.4013-1.6055-2.5726-3.4236-3.4261-5.3684-1.1174-2.5461-2.1389-5.1415-2.8898-7.8353-.5501-1.9732-1.1765-3.9474-1.4349-5.9628-.5033-3.9253-1.1948-7.8312-1.4235-11.7903-.3866-6.6955-.6887-13.394-.8583-20.0994-.1842-7.2819-.2897-14.564-.3505-21.8479-.0481-5.7693-.2108-11.5378-.3366-17.3063-.114-5.2273-.2281-10.4548-.3756-15.6812-.2177-7.7135-.4383-15.4269-.8582-23.1334-.2157-3.9603-.3692-7.9242-.7021-11.8771-.5538-6.576-1.294-13.1306-2.3575-19.6452-.1447-.8862-.4778-1.7416-.6246-2.6276-.1198-.7235-.2997-1.4486-.2366-2.1996.0254-.3025.1465-.5217.3123-.7685.3945-.5872.7175-1.2272,1.0829-1.8279,1.1878-1.9526,2.0243-4.0991,3.3523-5.9711.836-1.1786,1.4503-2.4876,2.1334-3.7552.187-.3469.3212-.7229.5907-1.0232.1954.1504.218.3707.271.5794,1.5728,6.1883,2.9578,12.4194,3.7988,18.7506.6075,4.5736,1.0446,9.1709,1.4976,13.7636.577,5.85.9807,11.7146,1.2422,17.5869.2888,6.4846.4933,12.9724.564,19.4638.0809,7.4283.179,14.8564.2555,22.2847.0371,3.606.009,7.2128.0687,10.8183.1128,6.8149-.1158,13.6332.1649,20.4451.2405,5.8357.3305,11.6802.8821,17.5002.4275,4.5114.8316,9.0359,2.1612,13.3925.9403,3.0809,1.9964,6.1248,3.8553,8.8283.9978,1.4513,2.0804,2.7804,3.3841,3.9794,1.2652,1.1637,2.6683,2.1298,4.0028,3.1916.3112.2476.6585.563,1.2521.4447Z"/>
      <path class="cls-1" d="M282.7544,25.9116c.1129.3764-.0504.6639-.1618.9592-.598,1.5849-1.1997,3.1685-1.7941,4.7548-.3697.9866-.968,1.6988-2.0213,2.053-1.9147.6438-3.7159,1.5666-5.5495,2.4072-4.7304,2.1684-9.4465,4.3684-14.1933,6.5001-3.417,1.5345-6.8224,3.0968-10.2321,4.6457-2.6278,1.1938-5.2634,2.3803-7.8716,3.6222-2.5404,1.2097-5.1095,2.3592-7.6683,3.5299-3.6582,1.6737-7.3178,3.3442-10.9781,5.0133-3.1739,1.4473-6.3686,2.8503-9.5208,4.3433-11.8465,5.6108-23.8314,10.9268-35.5931,16.7182-3.3611,1.655-6.7467,3.2604-10.1051,4.9206-2.9665,1.4664-5.936,2.9302-8.8583,4.4815-3.2969,1.7501-6.6355,3.4198-9.8989,5.2362-2.5457,1.4169-5.1819,2.6708-7.7741,4.0046-6.359,3.2719-12.5292,6.8683-18.4968,10.8097-1.0228.6755-2.0129,1.4036-2.8791,2.28-.9366.9476-.9271,1.1444.1468,1.894,1.6795,1.1722,3.5189,2.0443,5.4054,2.8239.6931.2864,1.3749.602,2.0766.8651.3057.1146.4862.2479.4985.5972.0533,1.5132.1484,3.0254.1751,4.5389.0149.8476-.0661.9077-.8664.7579-2.0391-.3819-3.958-1.0457-5.7685-2.1204-1.572-.9331-3.1284-1.8591-4.5345-3.0343-.4288-.3584-.6409-.7514-.6192-1.2951.0849-2.1265.2078-4.2495.6198-6.3437.4642-2.3597,1.6449-4.2756,3.5284-5.779,2.3761-1.8965,4.9663-3.4739,7.5818-4.9933,5.3299-3.0966,10.5907-6.314,16.0257-9.2288,4.4486-2.3858,8.9664-4.6348,13.4794-6.8941,6.7692-3.3888,13.5643-6.7254,20.4003-9.9766,8.3661-3.979,16.7339-7.9562,25.1447-11.8392,10.9315-5.0467,21.9028-10.0075,32.8635-14.9909,7.4491-3.3868,14.9106-6.746,22.3638-10.1235,2.4496-1.1101,4.882-2.2587,7.3379-3.3543,2.8997-1.2936,5.8398-2.4939,8.7154-3.8448,2.6195-1.2306,5.2752-2.3844,7.9203-3.56.3451-.1534.6687-.4112,1.1014-.3785Z"/>
      <path class="cls-1" d="M341.0554,34.6735c1.2949.9187,2.43,1.6797,3.5176,2.5034,4.2179,3.1945,8.0357,6.7913,11.0974,11.1408,2.0608,2.9276,3.6818,6.067,4.9429,9.4298.8181,2.1815,1.5223,4.3973,2.2506,6.6027.8606,2.606,1.2441,5.3321,1.4378,8.0714.4462,6.3076.2037,12.61-.1941,18.9097-.0591.9359-.1535,1.8685-.3712,2.7839-.2113.8889-.5318,1.3243-.9606,1.2574-.761-.1187-.7907-.8164-.8436-1.3225-.2173-2.0768-.4468-4.1534-.5505-6.2422-.2056-4.1379-.345-8.2817-1.0415-12.3801-.9052-5.3267-2.9654-10.1664-5.9718-14.6438-2.3147-3.4472-4.9695-6.6008-7.8797-9.5467-1.5158-1.5344-3.1387-2.9483-5.0885-3.923-.5636-.2817-.8482-.6278-.8177-1.3194.1559-3.5295.2596-7.0612.3845-10.592.006-.1693.0398-.3377.0883-.7295Z"/>
      <path class="cls-1" d="M211.1016,108.4032c-.1071.1734-.2196.4015-.3732.5975-3.1321,3.9976-6.2744,7.9873-9.3969,11.9923-.3409.4372-.5405.4865-1.0067.1099-4.5392-3.6659-9.1054-7.2982-13.6609-10.9439-.4496-.3598-.8679-.7591-1.321-1.1142-.3729-.2923-.3306-.5536-.0765-.9113,2.9638-4.1724,6.143-8.1755,9.4283-12.0976.3976-.4746.6407-.3483,1.0434-.0384,4.7954,3.6904,9.5142,7.4776,14.2454,11.2492.2815.2244.5703.4397.8556.6595.1465.1128.2627.2438.2626.4969Z"/>
      <path class="cls-1" d="M228.16,126.823c-.0884.1148-.1946.2563-.3043.395-3.099,3.9184-6.1981,7.8367-9.2995,11.7531-.0888.1122-.2242.1901-.3026.3075-.3186.4771-.6534.4495-1.0706.1079-1.7475-1.4311-3.5015-2.8543-5.264-4.2669-2.8114-2.2533-5.6315-4.4956-8.4475-6.743-.2237-.1785-.4541-.3503-.6646-.5434-.8985-.8242-.9035-.8319-.1773-1.8542,2.682-3.7754,5.5198-7.4342,8.4791-10.9925.9937-1.1948.6997-1.2837,2.0852-.2348,4.8577,3.6774,9.628,7.4657,14.3524,11.312.2383.194.5726.3281.6137.7593Z"/>
      <path class="cls-1" d="M191.2957,140.2c-.1969-.1205-.4302-.2256-.6185-.384-4.6078-3.8744-9.3539-7.5768-14.0646-11.3232-.1129-.0898-.2329-.1708-.3428-.264-.7798-.6608-.8024-.7092-.1845-1.5754,2.7228-3.8171,5.6106-7.5079,8.5912-11.1259.924-1.1216.9514-1.102,2.1041-.2382,4.8486,3.6337,9.5744,7.4242,14.3054,11.2081.7112.5688.7268.5873.1445,1.3606-1.1061,1.4691-2.2144,2.9374-3.3611,4.3747-2.0012,2.5083-3.8818,5.1127-5.9915,7.5344-.155.1779-.2384.4656-.5822.4328Z"/>
      <path class="cls-1" d="M148.9792,48.622c.1112-.6636.2321-1.2587.308-1.8595.357-2.8256.8522-5.6277,1.3246-8.4354.3201-1.9026.9487-3.6768,1.6775-5.4189.5215-1.2465,1.2478-2.4219,2.1509-3.4535,1.3144-1.5014,2.7111-1.6934,4.4249-.6602,1.2685.7648,2.199,1.8516,2.9689,3.0889.3962.6368.5031,1.336.3612,2.0797-.2729,1.4303-1.1411,3.3593-2.1125,4.6208-.6279-1.1178-1.5058-2.0109-2.4001-2.8842-1.6659-1.6267-2.6738-1.4775-3.7633.5463-1.0713,1.9898-1.6359,4.1528-2.0829,6.3461-.6195,3.0393-.9072,6.1315-1.4131,9.1894-.3473,2.0994-.7246,4.1914-1.7261,6.1059-.1817.3474-.3289.7213-.7133.9161-.4508.2285-.8028.1435-.9156-.3461-.2746-1.1913-.7534-2.3253-.8516-3.5715-.0796-1.0106-.5135-1.9661-.7501-2.959-.3584-1.504-.8594-2.9794-1.3823-4.4373-.5206-1.4513-1.4261-2.7096-2.2201-4.0198-.3339-.5509-.7075-1.0783-1.075-1.6081-.2488-.3588-.5208-.3383-.7744.0016-.1073.1438-.2073.2949-.2933.4521-.2332.4263-.5181.3675-.8989.1743-1.6909-.8582-3.198-1.9826-4.7065-3.117-1.003-.7543-1.4127-1.6443-1.1218-2.8897.2206-.9445.2335-1.9391.4214-2.8768.1738-.8673.5203-1.8013,1.2539-2.4262.4805-.4092,1.078-.5337,1.7279-.3862,2.0917.4748,3.7544,1.6402,5.1167,3.2378,1.9115,2.2417,3.3367,4.7778,4.4213,7.5168.8577,2.166,1.6969,4.3382,2.4846,6.5305.0687.1913.1608.3982.5593.5429Z"/>
      <path class="cls-1" d="M242.4702,231.743c.6393-1.7391,1.2469-3.3809,1.8455-5.026.2073-.5697.5846-.9308,1.149-1.1706,4.806-2.042,9.5141-4.3013,14.2705-6.4534,2.3321-1.0551,4.6567-2.1272,6.9788-3.2043,4.936-2.2897,9.953-4.395,14.9315-6.5875,2.8803-1.2684,5.8001-2.441,8.6762-3.7177,1.669-.7408,3.371-1.4071,5.0816-2.1167.3049.4397-.0676.7835-.1384,1.1228-.2725,1.3056-.7354,2.5596-1.2368,3.7969-.2706.6676-.713,1.1197-1.3997,1.4026-7.1317,2.9374-14.188,6.0506-21.2683,9.1085-6.0114,2.5962-12.0266,5.184-17.9487,7.9743-3.2866,1.5485-6.6584,2.9125-9.8873,4.5841-.2794.1447-.5566.3356-1.0539.2872Z"/>
      <path class="cls-1" d="M281.2857,68.2556c-.1565.9337-.5575,1.5829-.8541,2.2703-.5138,1.1909-1.071,2.3639-1.5538,3.567-.254.6329-.6838.9384-1.3063,1.1553-2.0412.7114-4.0826,1.4295-6.0894,2.2311-5.5814,2.2295-10.8986,4.9363-15.5402,8.8267-.1356.1137-.2759.2358-.4977.1899.9274-5.0273,3.8644-8.4677,8.4104-10.543-.0532-.4439-.3442-.4638-.5482-.5762-.5715-.315-1.0927-.6997-1.5771-1.1337-2.0216-1.8112-2.5408-3.9121-1.564-6.4501.7179-1.8654,1.7069-3.5758,3.0529-5.065,1.4523-1.6069,2.9916-3.1253,4.6848-4.4795.9612-.7687,2.0061-1.4106,3.1412-1.8914,1.6018-.6786,2.6058-.2499,3.2392,1.3896.5678,1.4696.5851,2.957.0458,4.4399-.5744,1.5797-1.9963,3.3806-3.3179,4.1375.1166-1.0658.0475-2.0482-.1311-3.027-.3669-2.0111-.7381-2.259-2.6602-1.5122-1.4153.5499-2.7441,1.2782-3.8879,2.3008-.4311.3854-.8102.8164-1.139,1.2958-.3748.5465-.3684,1.0568.029,1.5913.8046,1.0821,1.7512,2.015,2.8902,2.7349,1.4057.8886,2.9101,1.5782,4.4667,2.1649,1.0228.3855,1.9632.2243,2.9226-.2164,2.2416-1.0295,4.497-2.0292,6.7502-3.0335.2905-.1295.6007-.2148,1.034-.367Z"/>
      <path class="cls-1" d="M202.4966,10.9829c.1.526.0153,1.0716-.1329,1.6196-.3129,1.1568-.8503,2.2178-1.3862,3.2797-1.0882,2.156-2.199,4.3009-3.2624,6.4691-1.0521,2.1452-1.8593,4.3792-2.2272,6.7529-.2198,1.4183.0221,2.7911.5396,4.1035.2863.726.9195,1.1974,1.6155,1.5168.7337.3366,1.686.2891,2.2268-.844.3692-.7734.8304-1.5027,1.2489-2.2526.1237-.2216.2384-.4606.5007-.54.2708-.0819.577-.2089.8269-.0269.2417.176.1235.4758.0583.706-.6489,2.2928-1.5109,4.4882-3.0612,6.3435-.5522.6609-1.1179,1.3097-1.7601,1.8945-.935.8516-2.0551,1.1067-3.2041.8299-1.1685-.2815-1.7701-1.2737-2.1503-2.3633-.5271-1.5104-.5549-3.0825-.4369-4.6474.1416-1.8786.607-3.6956,1.2751-5.4588.9848-2.5987,2.2305-5.0818,3.3457-7.6216.865-1.9701,2.0306-3.7533,3.0419-5.629.7249-1.3445,1.6914-2.5551,2.431-3.901.0799-.1454.1765-.3262.5108-.2308Z"/>
    
    
      <path class="cls-1" d="M97.9969,122.9254c-.5204.5621-1.0223.6571-1.4744.8239-3.5359,1.3046-7.2126,2.0204-10.922,2.6021-5.4225.8504-10.8877,1.2258-16.363,1.4942-.2161.0106-.4319.0333-.6479.0353-.4294.0038-.5579.238-.5213.6305.2851,3.0527,1.6288,5.5444,4.0123,7.4573.9687.7774,2.1362,1.11,3.3424,1.3894,2.4854.5758,4.794-.1804,7.0957-.866,3.8354-1.1425,7.0497-3.4419,10.2741-5.7114,2.0042-1.4107,3.8631-3.0044,5.7883-4.5141.5631-.4416,1.0299-1.0071,1.5339-1.5226.5737-.5868.6073-.6838.1652-1.3671-1.1615-1.7949-2.2481-3.6333-3.3088-5.489-1.0397-1.8188-2.0732-3.6358-2.9065-5.5651-.2459-.5694-.4946-1.1906-1.0125-1.6106-.4084-.3311-.5138-.7747-.432-1.2558.2586-1.5208.5398-3.0378.802-4.4995.2404-.1157.3661-.063.465.0553,1.2271,1.4691,2.6505,2.7508,3.9526,4.1479.3915.4201.7574.8686,1.0919,1.335.1342.1871.2617.4534.0754.702-.1539.2054-.3931.1464-.6002.1391-.1379-.0048-.2714-.095-.4108-.1095-.2462-.0255-.3273.1686-.2682.3388.1043.3005.2623.5848.4183.8644.8223,1.4734,1.8007,2.8497,2.6567,4.305,1.813,3.0822,1.8304,6.2624.7916,9.5673-.5543,1.7634-1.5983,3.1995-2.8482,4.5061-1.7804,1.8611-3.8482,3.3835-5.8791,4.9519-2.278,1.7592-4.6884,3.32-7.1689,4.7627-1.6762.9749-3.576,1.4386-5.4124,2.0471-2.2449.7438-4.5016.6448-6.72.1564-1.7492-.3851-3.1277-1.5401-4.3175-2.8873-1.3548-1.5341-2.0164-3.3642-2.4072-5.3328-.3439-1.7324-.3887-3.4811-.3748-5.2355.0094-1.1942.2509-1.2842-1.1773-1.2535-2.7037.0581-5.4077.1045-8.1109.1802-6.7471.1887-13.4829-.0018-20.2049-.607-1.1852-.1067-2.3334-.4534-3.4415-.897-.5396-.216-1.0064-.5591-1.44-.9455-.8567-.7635-1.1768-1.7191-.9375-2.8298.251-1.165.6387-2.2795,1.2281-3.3329.6994-1.2501,1.3732-2.5108,2.3992-3.5312,1.4165-1.4087,2.8959-2.7188,4.806-3.4652,1.778-.6948,3.5211-1.4792,5.277-2.2301,1.232-.5268,2.3675-1.2259,3.4684-1.9823,1.0491-.7208,1.9214-1.6003,2.5857-2.7049.6976-1.1598,1.4918-2.2611,2.2139-3.4068.5074-.8051,1.221-1.4118,1.881-2.071.1462-.146.3477-.2443.5368-.3384.6846-.3407.9417-.263,1.2805.4115.2759.5494.3917,1.1432.4785,1.7524.2282,1.6023.5358,3.1775,1.5529,4.5211.3076.4064.6526.7677,1.0109,1.1173.4738.4623.7581.448,1.1498-.0675.7771-1.0228,1.5083-2.0798,2.3538-3.0511.7966-.9152,1.5846-1.8448,2.3512-2.7774.8201-.9976,1.7897-1.8451,2.5901-2.8573.5495-.6949,1.2414-1.2945,1.9363-1.8537,1.518-1.2217,2.9767-2.5191,4.6232-3.58,3.176-2.0464,6.6067-2.5351,10.1834-1.4776,2.221.6567,3.9476,2.1762,5.4008,3.9608.7461.9162,1.4383,1.8786,1.9627,2.9489.3743.764.512,1.553.394,2.4033-.3057,2.2024-.9997,4.2659-2.0354,6.2353-.9269,1.7626-2.3642,2.9525-4.0476,3.9119-2.5942,1.4785-5.3452,2.5583-8.2018,3.428-2.3149.7048-4.6598,1.1434-7.061,1.3306-.8912.0695-.9877.0118-1.3082,1.0723-.4693,1.5528-.9064,3.1136-1.3337,4.6775-.3248,1.1889-.2884,1.2257.9157,1.2135,8.1487-.0826,16.2975-.1681,24.4462-.2485,1.1863-.0117,2.3729-.0016,3.8039-.0016ZM56.8804,114.447c-.0726-.3997.1197-.6545.2976-.8467.5431-.5867.3555-1.0659-.0906-1.5955-.879-1.0436-1.3814-2.256-1.6028-3.6083-.1451-.8863-.3591-1.7684-.6271-2.6258-.4149-1.3274-.7535-1.3814-1.6823-.3373-1.2209,1.3725-2.1802,2.9426-3.1848,4.464-.5043.7637-1.0606,1.4043-1.7114,2.0232-1.9246,1.8303-4.125,3.1906-6.603,4.1325-1.9219.7305-3.7743,1.6204-5.5887,2.5866-.5712.3042-1.1548.5952-1.609,1.0791-.485.5167-.5019.7717.0284,1.2574.2883.2641.6328.4786.9788.6659,1.0243.5544,2.1321.8801,3.2746,1.0677,2.2442.3686,4.5134.5395,6.7803.6097,6.9206.2144,13.8427.0351,20.7641-.0211.1802-.0015.3613-.0288.5402-.0171.5785.0376.8243-.259.9444-.8.3841-1.7291.9962-3.3867,1.6529-5.028.0268-.0669.0605-.1314.0834-.1995.2243-.6645.1671-.7598-.5027-.7973-.2877-.0161-.5767-.0132-.8651-.0108-1.5215.0128-3.0208-.1969-4.5093-.4785-1.7235-.326-3.2996-1.0293-4.7492-2.0043-.425-.2858-.7429-.3409-1.1249.0581-.2113.2208-.4633.463-.8939.4259ZM70.2201,110.7922c1.4096.0195,2.8042-.1438,4.1917-.3659,3.9352-.6298,7.7009-1.8134,11.3196-3.478,1.3734-.6318,2.762-1.2305,4.1338-1.8656.5739-.2657.6171-.444.3509-1.0104-.061-.1297-.1456-.2481-.2177-.3728-1.3078-2.2633-3.1683-3.993-5.2942-5.4608-1.6221-1.1199-3.4773-1.706-5.3973-1.6316-2.508.0972-4.8505,1.016-6.9038,2.4448-3.6565,2.5445-6.7855,5.6756-9.622,9.102-.1377.1664-.2696.3377-.4035.5072-.2277.2883-.2016.5281.1473.6874.2286.1044.463.1979.6996.2829,2.261.8128,4.6022,1.1456,6.9956,1.1608Z"/>
      <path class="cls-1" d="M88.8636,75.4435c-.5388,1.0624-1.1227,2.1226-1.6212,3.2216-.5142,1.1338-1.4312,1.6715-2.5349,2.1233-5.4847,2.2454-10.9434,4.5541-16.5021,6.6147-2.2071.8182-4.4045,1.6626-6.615,2.4715-2.6.9515-5.2993,1.2783-8.0277.8988-1.3992-.1946-2.489-1.1059-3.0702-2.43-.3786-.8626-.7222-1.7668-.7389-2.7373-.0052-.3007-.1561-.505-.3883-.5802-.3546-.1148-.3827.2615-.4868.4549-.6335,1.1758-1.5294,2.1595-2.3462,3.1968-.5745.7295-1.3308,1.2842-2.1302,1.7682-.2128.1289-.4189.2826-.5052.5384.7746.4498,1.5816.8495,2.3145,1.3564,2.8023,1.9381,3.9188,4.7957,3.1984,8.0934-.3413,1.5624-.8586,3.1064-1.8977,4.4029-.685.8548-1.4931,1.2927-2.6409,1.3299-2.9477.0955-5.2873-1.1746-7.2702-3.1564-2.1187-2.1175-3.7145-4.5777-4.3034-7.5955-.0811-.4154-.2314-.9395-.8903-.8746-.216.0213-.4097-.0259-.3863-.3568.0401-.5672-.2287-.5766-.7469-.4939-1.8891.3015-3.7936.3937-5.6756-.0804-1.4255-.3591-2.4146-1.3526-3.3094-2.4301-1.0195-1.2277-1.4692-2.7255-1.8408-4.2446-.7661-3.1315-.9659-6.3377-1.2337-9.5336-.3858-4.6038-.3042-9.2244-.4748-13.8359-.2587-6.9903-.5293-13.9805-.8641-20.9675-.226-4.7168-.5382-9.4302-.8738-14.1407-.2484-3.4875-.6662-6.9591-1.2942-10.402-.1147-.6287-.3077-1.2507-.5203-1.8357-.1844-.5073-.113-.829.0967-1.2638.4773-.9895,1.0744-1.9221,1.3982-2.9889.0961-.3167.2586-.6739.6927-.8323.4213,2.3872,1.2498,4.6559,1.6124,7.045.4169,2.747.7272,5.5046.9586,8.2694.3697,4.4187.7146,8.8406.9788,13.2666.2406,4.031.4021,8.0679.5229,12.1045.2005,6.7043.3129,13.4113.5177,20.1155.1013,3.3154.3878,6.6197.8255,9.9126.2376,1.7876.9603,3.3648,1.944,4.8007.6981,1.0189,1.8863,1.5227,3.0725,1.7979,1.7538.4069,3.516.2413,5.2351-.2725.7711-.2305,1.2576-.5383,1.3988-1.583.3182-2.3536,1.1646-4.6067,1.9607-6.8491.6592-1.8566,1.3911-3.6873,2.0927-5.5287.5275-1.3847,1.1082-2.7461,1.7577-4.079.2168-.4448.4144-.9066.5523-1.3806.2709-.931.8676-1.7007,1.2006-2.5931.3187.0532.2726.3068.3157.5015.7332,3.3154,1.0753,6.6889,1.4909,10.0515.0973.7871.1823,1.5757.2839,2.3622.2792,2.1609.0137,4.2407-.888,6.2349-.1073.2373-.3907.534-.0733.7697.2322.1723.4738-.0853.6802-.2076,1.9686-1.1662,3.7375-2.5708,5.1661-4.3756.5383-.6801,1.1416-1.2996,1.7599-1.9063.4473-.4389.9733-.7008,1.6916-.8608-.1634.6713-.2584,1.2632-.4519,1.8209-.7782,2.2436,1.0747,4.8753,3.4004,5.1186,1.3853.1449,2.7223.1555,4.0791-.1019.9697-.1839,1.9938-.1646,2.8386-.8137.0036-.4852-.4158-.626-.7199-.8468-2.1548-1.5643-3.9784-3.4388-5.2983-5.7614-1.1973-2.107-1.6546-4.3597-1.0911-6.7565,1.2761-5.4283,5.8934-9.3456,11.4614-9.747,4.2705-.3079,8.0957.9444,11.6094,3.2972.0895.0599.1789.1204.2646.1854.1253.0951.195.2291.1159.3693-.0452.0801-.1627.1605-.2528.1668-.3217.0227-.6833.1106-.9627.0016-2.4041-.9381-4.9076-.7748-7.3563-.491-3.9974.4633-7.7827,1.7095-11.2792,3.7515-.1557.0909-.3144.1771-.4657.275-.737.4771-.7734.5763-.5707,1.4134.4945,2.0418,1.398,3.8369,2.8308,5.421,1.6921,1.8709,3.5504,3.4579,5.8471,4.5347,2.1444,1.0053,4.2726,1.2922,6.5681.447,2.966-1.092,5.9392-2.1588,8.8625-3.3647,2.0316-.838,4.0612-1.6941,6.2008-2.2377.2349-.0597.4717-.2116.8008.0321ZM40.7043,73.8204c-.3075.0719-.3435.3572-.4343.5755-.4283,1.0305-.8331,2.0708-1.2542,3.1043-1.0901,2.6758-1.8842,5.4421-2.5109,8.258-.0662.2975-.304.6827-.0304.9121.3321.2784.6701-.0677.9711-.224,1.3418-.6969,2.6639-1.4321,4.0137-2.1128.5339-.2692.704-.6224.6453-1.2067-.2917-2.9022-.6438-5.7963-1.0847-8.6795-.036-.2354-.0352-.5057-.3156-.6269ZM45.8722,100.8497c1.0392.0306,1.143-.1229.7541-.8954-.2275-.452-.5067-.8678-.8674-1.229-1.9252-1.9283-4.3026-2.9583-6.9281-3.4972-.1048-.0215-.2139-.0339-.3207-.0318-.2873.0056-.3855.1691-.2863.4214.0644.1637.1739.3146.2844.4545.9871,1.2486,2.0895,2.3823,3.4124,3.2775,1.2415.84,2.6092,1.3601,3.9513,1.5001Z"/>
      <path class="cls-1" d="M64.0949,48.076c-.6888.5711-.6828,1.182-.7871,1.7195-.6342,3.2672-1.9023,6.2325-4.08,8.7773-.5924.6923-1.3336,1.2318-2.1232,1.6395-1.4449.7459-2.9628,1.1335-4.6487.8762-1.4029-.2141-2.7413-.4421-3.8554-1.4099-1.6839-1.4628-2.5792-3.3647-3.1301-5.4698-.686-2.6212-.4964-5.2599-.2164-7.9126.2918-2.7644.7336-5.5005,1.3011-8.2196.0911-.4364.3779-1.099-.1012-1.2741-.5949-.2175-.7473.5431-.9602.9432-1.3316,2.5023-2.1226,5.2017-2.7638,7.9455-.8196,3.5072-1.5681,7.0313-2.4186,10.5308-.398,1.6376-1.0259,3.1807-2.0053,4.6106-.6174.9014-1.4383.9327-2.2182.9035-1.2295-.0461-2.3098-.5381-3.1412-1.5848-.9182-1.1559-1.6839-2.3533-2.2145-3.7439-.6279-1.6458-1.1445-3.3329-1.4462-5.0425-.5221-2.9585-.9631-5.9482-.655-8.9792.0437-.4301.0643-.8631.0789-1.2954.006-.1791-.0269-.3724-.2619-.3946-.1365-.0129-.2812-.0253-.3848.1188-.5114.7116-1.3823.9818-1.9711,1.5984-.1155.1209-.2651.1731-.375.0793-.2036-.1738-.032-.3322.1035-.4304.8319-.6032,1.5918-1.2945,2.4338-1.8919.9212-.6536,1.725-1.4773,2.6096-2.1965,1.3641-1.1091,2.6915-2.274,3.9803-3.4633,1.6067-1.4827,3.1909-3.0137,4.5498-4.7472.2816-.3593.5895-.6979.9357-1.1054-1.0437-.5055-1.8827-1.1431-2.601-1.9552-.4391-.4964-.7075-1.1973-.406-1.8031.413-.8299.8166-1.6788,1.5539-2.3039.558-.473,1.195-.7282,1.8799-.4855.6917.2451,1.0391.8491,1.145,1.5771.1587,1.0903.023,2.1586-.2935,3.1998-.1229.4041-.1253.6473.3057.8614.3114.1547.5802.4303.8138.6992.4239.4879.4197,1.3191.0472,1.8144-.1746.2321-.4016.1853-.5652.0615-.3141-.2378-.5911-.5253-.8783-.7976-.5713-.5417-.6204-.5683-1.0319.0461-.7219,1.0776-1.5402,2.0789-2.3772,3.0616-1.2345,1.4495-2.5827,2.7842-4.0418,4.0209-1.3867,1.1754-2.8662,2.2094-4.3511,3.2441-.2835.1976-.447.4299-.3937.8148.4104,2.9626.4307,5.9705,1.0525,8.9099.4257,2.0127.9123,3.9988,2.1199,5.7161.7737,1.1002,1.606,2.1218,3.0575,2.3729,1.0777.1865,1.8541-.2084,2.4702-1.0726.8797-1.2337,1.1486-2.6994,1.5534-4.102.9765-3.3836,1.4994-6.8712,2.2324-10.3104.6625-3.1081,2.0634-5.8769,3.5786-8.6103.4769-.8604,1.2733-1.4616,1.953-2.1535.2604-.265.6499-.2885.9746-.4355.3053-.1382.4509-.0093.5689.2756.3721.8987.4071,1.8244.2457,2.7639-.2989,1.7398-.5907,3.4812-.9261,5.2141-.5494,2.8385-1.0121,5.6791-.7513,8.5893.2398,2.6753,1.3292,4.8966,3.428,6.6015,1.9442,1.5794,4.1777,1.7662,6.4367.5596,1.6031-.8563,2.9366-2.0137,3.9557-3.514.5633-.8293.7091-1.8316,1.0152-2.7654.7473-2.2793.57-4.6168.3516-6.9398-.2327-2.4749-.4981-4.9527-1.0631-7.3788-.2971-1.2759-.5643-2.5606-.8958-3.8263-.3423-1.307-.26-2.5171.3352-3.7311.3239-.6607.545-1.3748.7762-2.0767.124-.3764.2565-.7263.6265-1.0527.9087,1.749,1.4257,3.5649,1.9311,5.3882,1.1493,4.1462,1.5397,8.4057,1.9429,12.6661.1757,1.8569.4321,3.7105.8918,5.5184.4795,1.8858,1.2708,3.6012,2.8191,4.9215,1.22,1.0403,2.6463,1.4512,4.1507,1.6025,1.6877.1697,3.2925-.236,4.7684-1.1086.5115-.3024.7055-.6724.4727-1.2536-.2794-.6972-.4835-1.4159-.8134-2.1037-.4536-.9455-.7196-1.9802-1.0803-2.9714-.5893-1.6189-1.3193-3.1998-1.7522-4.8588-.4991-1.9127-1.0631-3.8112-1.4432-5.7614-.3378-1.7331-.7405-3.4557-1.0548-5.196-.0355-.1963-.0747-.4627-.1882-.5935-.6921-.7976-.4361-1.6211-.0994-2.4312.4801-1.1551,1.0055-2.2913,1.5269-3.4703,1.6827,1.7332,4.7728,7.4215,4.7599,8.7424-.8347-.0548-1.1986-1.0355-2.0855-1.0568-.0591,1.1237.4105,2.1174.6528,3.1521.6996,2.9875,1.9548,5.785,3.0146,8.6482.6243,1.6866.8903,3.4206.8079,5.199-.1053,2.2745-.4267,4.5041-1.494,6.5762-1.4588,2.8325-4.609,4.5039-7.8278,3.7184-3.2298-.7881-5.5183-2.5922-6.806-5.6874-.2502-.6014-.4254-1.1905-.5486-1.8212-.2152-1.1016-.5322-2.1817-.6808-3.4899ZM40.8978,27.0428c.444-.5329.3931-1.0501.3837-1.5454-.0242-1.2636-.6431-1.8049-1.919-1.7312-.4806.0278-.8265.2682-1.0195.6766-.1938.4099.129.6895.3948.9102.6837.5675,1.3982,1.0981,2.1601,1.6898Z"/>
      <path class="cls-1" d="M89.4192,10.9798c.6212,1.1905.9576,2.2897,1.339,3.3638.9885,2.784,1.935,5.5829,2.8881,8.3794.2912.8544.5025,1.7322.588,2.6324.0291.3068.1667.736-.1761.8852-.3934.1712-.4986-.2999-.678-.5325-.396-.5133-.7544-1.0554-1.1434-1.5744-.1447-.1931-.2967-.4011-.5105-.4535-.2505.069-.2373.2357-.2256.3663.4063,4.5226.8175,9.0447,1.2301,13.5668.5568,6.1025,1.1565,12.2015,1.6627,18.3082.6016,7.2568,1.1765,14.5197,1.1402,21.8081-.019,3.8109-.7109,7.52-2.2268,11.0438-.193.4487-.3414.958-.8857,1.1657-.2922-.3665-.1671-.7775-.1689-1.1558-.0204-4.434.0927-8.8687-.1137-13.3016-.2733-5.8704-.7999-11.723-1.2219-17.5829-.2952-4.0981-.6201-8.1944-.9648-12.2887-.5261-6.2491-1.0927-12.4949-1.6173-18.7441-.202-2.4062-.3356-4.8182-.5018-7.2274-.0644-.9348-.1316-1.8658-.436-2.7671-.2024-.5993-.1424-1.2161.0874-1.8027.5249-1.34,1.1603-2.6277,1.935-4.0888Z"/>
      <path class="cls-1" d="M70.1427,11.6574c.4939,1.0795.9959,2.0436.9686,3.2162-.0245,1.0535.169,2.0848.9276,2.9134.4394.4799.9539.759,1.6268.647.5855-.0975.7519-.3046.5901-.8926-.2671-.9707-.5819-1.9283-.8781-2.8909-.3033-.9855-.1883-1.898.5225-2.8678.379,1.309.7067,2.5013,1.0729,3.6817.2051.661.2931,1.3275.3014,2.0152.0096.7964-.3171,1.4852-.7572,2.0904-.8707,1.1971-2.4387,1.1323-3.2904-.0932-.1828-.263-.3114-.5631-.4865-.8321-.1135-.1745-.2349-.3743-.5002-.3312-.2309.0375-.2195.2488-.2855.4062-.1937.4614-.3596.9324-.6837,1.3327-.6818.8423-1.5676,1.1079-2.5959.8044-.2793-.0824-.4129-.2553-.5507-.4624-.3327-.5001-.4223-1.0654-.4187-1.6485.01-1.6201.0413-3.2403.0373-4.8603-.0013-.4982.2079-.8394.6039-1.1915.2269.4259.1932.8276.2005,1.2102.0191,1.0078-.0014,2.0162.0161,3.0241.0179,1.0274.4452,1.6622,1.1893,1.8219.687.1474,1.6506-.4044,2.0129-1.1676.2374-.5002.3029-1.0358.2439-1.5821-.0579-.5367-.1731-1.0617-.311-1.586-.2466-.9378-.1673-1.8435.4441-2.7571Z"/>
      <path class="cls-1" d="M65.5534,96.9197c-.1226.1979-.2431.4177-.3873.6206-.7461,1.0504-1.4953,2.0987-2.2494,3.1434-.4855.6727-.6093.7014-1.2684.2041-1.0545-.7954-2.0917-1.6137-3.1391-2.4186-.1945-.1495-.4042-.2792-.6038-.4224-.8214-.5894-.8207-.9301-.2542-1.8179.5584-.8751,1.2202-1.6694,1.8038-2.5227.6584-.9626.7008-.9273,1.6163-.2414,1.3171.9869,2.6764,1.9177,4.0195,2.8698.2021.1433.429.2605.4626.5849Z"/>
      <path class="cls-1" d="M47.8298,65.7839c.0946.0595.2474.1468.391.2472,1.53,1.0692,2.9485,2.2923,4.534,3.2844.2703.1691.3198.3644.1318.6199-.9147,1.2434-1.8338,2.4836-2.7417,3.732-.2099.2887-.3953.3471-.6991.1097-1.4991-1.1714-3.011-2.3263-4.5178-3.4878-.2653-.2045-.5011-.3739-.1898-.7711.8631-1.1013,1.682-2.237,2.5276-3.3522.1235-.1629.2289-.3769.5639-.3819Z"/>
      <path class="cls-1" d="M85.4654,67.138c.1402,1.2579-.1446,1.7817-1.2084,2.2647-5.2745,2.3943-10.5159,4.8582-15.6748,7.4946-.5988.306-1.182.6431-1.7865.9369-.1375.0668-.345.2046-.4926.0451-.1516-.1638-.1554-.3734-.0502-.5961.3538-.7494.7778-1.3823,1.589-1.7643,2.0703-.9749,4.0924-2.0517,6.1559-3.0417,3.7465-1.7974,7.5088-3.5616,11.2663-5.3359.0552-.0261.1335-.0032.2013-.0032Z"/>
      <path class="cls-1" d="M43.4754,142.118c.3163-1.2104.7705-2.0102,1.8831-2.5553,4.2406-2.0775,8.4863-4.1459,12.7124-6.2528,1.1754-.586,2.3841-1.0858,3.5706-1.6395.3012-.1405.6217-.3417,1.0768-.2843-.0978.9761-.3073,1.6921-1.3629,2.1676-5.4234,2.4427-10.7897,5.0103-16.0866,7.7198-.5401.2762-1.0358.6518-1.7933.8445Z"/>
      <path class="cls-1" d="M27.9471,102.5921c.1553.6101-.1176,1.0569-.3167,1.5078-.6824,1.5462-1.3934,3.0798-2.0757,4.626-.4841,1.0972-.7811,2.2412-.7429,3.4537.0184.5826.0969,1.1549.4566,1.6368.65.8708,1.4864.8227,2.0593-.0921.2822-.4506.3882-1.005.7827-1.3872.2859.1402.2465.3753.2011.5749-.3586,1.577-1.0472,2.9819-2.2793,4.0606-.8598.7527-1.9903.4853-2.4536-.5698-.292-.6649-.414-1.3878-.36-2.1118.1393-1.8691.4535-3.6817,1.2952-5.4071.9466-1.9405,1.9518-3.8489,2.9365-5.7687.0925-.1804.1566-.4015.4968-.523Z"/>
      <path class="cls-1" d="M55.3643,37.1039c-.0853.3509-.0987.4972-.1555.6241-.2963.6624-.1635,1.1785.483,1.5479.1846.1055.3481.2482.5206.3748,2.1346,1.5653,2.228,3.4445.5853,5.5633-.8225,1.0608-2.0181,1.1564-3.2238.9608-.7502-.1217-1.4164-1.2947-1.46-2.3165-.0452-1.0591.2025-2.06.766-2.9334.7867-1.2193,1.3446-2.5856,2.4844-3.8209ZM54.9914,44.0011c.5036-.0306.9323-.067,1.3328-.2401.6844-.2958.7736-.6948.2186-1.2105-.4693-.436-.986-.8242-1.5025-1.2056-1.0432-.7704-1.3514-.6571-1.7455.6178-.0628.2031-.1225.4164-.1273.6263-.0142.6168.3486,1.1053.9442,1.2636.3092.0822.6331.1085.8798.1485Z"/>
      <path class="cls-1" d="M25.5609,67.1405c2.2116,1.4182,3.9239,3.0445,4.8588,5.4232,1.074,2.7325,1.0853,5.5304.8643,8.3583-.0907.0101-.1815.0201-.2722.0302-.1045-.8904-.2062-1.7811-.3139-2.671-.4022-3.322-1.7791-6.078-4.6292-7.9825-.3398-.2271-.5426-.525-.5174-.981.037-.6692.0095-1.342.0095-2.1771Z"/>
      <path class="cls-1" d="M54.6408,26.6002c-.4156-.363-.3662-.6656-.3701-.928-.0207-1.3967-.2064-2.7949-.6452-4.0935-.7028-2.0803-1.857-3.9602-3.7285-5.1921-.8371-.5511-1.2075-1.1074-1.0848-2.0612.0533-.4139.0448-.8357.0698-1.3715,2.1853,1.361,3.8522,3.0014,4.7875,5.309,1.0692,2.6378,1.1723,5.3743.9712,8.3374Z"/>
      <path class="cls-1" d="M83.1684,100.4403c-.092,1.0483-.3356,1.8036-1.3154,2.24-4.2408,1.8889-8.4227,3.9046-12.5872,5.9562-.123.0606-.2471.1457-.4501.0266.1193-.9288.4002-1.6847,1.39-2.1619,3.825-1.8441,7.6111-3.7689,11.495-5.4898.4503-.1995.9185-.3587,1.4677-.5712Z"/>
    </g>
  
</svg>