<?xml version="1.0" encoding="UTF-8"?>
<svg id="Al-Haq" xmlns="http://www.w3.org/2000/svg" xmlns:xlink="http://www.w3.org/1999/xlink" viewBox="0 0 218.2782 205.5844">
  <defs>
    <style>
      
      @import url('../../CSS/SvgStyling.css');

      
    </style>
    
  </defs>
  
  <g class="content">

    <rect id="bg" class="bg" width="218.2782" height="205.5844"/>


    <path class="cls-1" d="M67.5291,105.3947c-2.7501-1.8642-4.319-2.7871-4.6974-2.7871l-.849.7752-4.1068,8.5088v.7844c3.4238,2.1595,6.7554,4.4759,9.9762,6.94.3784.3045.7475.1569,1.089-.4522,1.1628-1.9011,2.3441-4.2175,3.5438-6.9492,3.553,2.3349,6.7554,4.5682,9.5886,6.6908l1.0982-.4614c2.8793-4.6697,4.3098-7.7429,4.3098-9.2102,0-.3876-1.6335-1.7165-4.8912-3.9683-3.267-2.2518-5.1035-3.3777-5.5372-3.3777l-.8398.7844-3.2854,6.82c-.849-.8675-2.6579-2.2333-5.3988-4.0975"/>
    <path class="cls-1" d="M53.4185,66.7266c-5.1127,3.0731-10.1977,6.1278-15.2642,9.1548-1.1997.7752-1.7996,1.3012-1.7996,1.5596l.2584.1292c.3415,0,1.0521-.1938,2.1226-.5814,6.8661-2.5563,10.6407-4.0052,11.3328-4.3559,3.2577-1.4674,6.8384-3.6546,10.7514-6.5524,3.4238-2.5563,6.257-5.3895,8.4904-8.5088,1.938,1.1628,3.1562,2.1687,3.673,2.9901,1.7996-2.6025,2.704-4.439,2.704-5.5187-.5168-.8306-1.7904-1.8273-3.8022-2.9901.9506-2.8609,1.4212-5.4357,1.4212-7.7336,0-2.5563-.7106-4.0883-2.1226-4.6051-1.6796-.6091-3.7838.2399-6.3124,2.5287-2.5379,2.2979-3.8022,4.8266-3.8022,7.5952,0,2.2979,2.0026,4.4851,5.9894,6.5616-3.0085,3.1654-7.5491,6.6077-13.64,10.3269ZM64.7421,46.9772c0-.4245.4061-.8675,1.2274-1.3197.8121-.4522,1.4581-.6829,1.9288-.6829.9875,0,1.6058.6922,1.8642,2.0765.2123,1.2551.1292,2.5102-.2584,3.7653-3.1747-1.5596-4.762-2.8332-4.762-3.8391"/>
    <path class="cls-1" d="M85.3128,81.0495c19.9524-8.1397,37.3392-14.9597,52.142-20.46.4707-.3876,1.0982-1.532,1.8642-3.4423.2584-.6091.3045-.969.1384-1.1074-.1384-.0831-.5353,0-1.2274.2676-17.636,6.58-34.5522,12.8925-50.73,18.9557-1.0336,2.0765-1.7627,4.0145-2.1872,5.7864"/>
    <path class="cls-1" d="M136.7165,81.0495c19.9524-8.1397,37.3392-14.9597,52.1512-20.4507.4614-.3968,1.089-1.5412,1.8642-3.4423.2584-.6091.2953-.9782.1292-1.1167-.1292-.0738-.5445,0-1.2274.2676-17.636,6.58-34.5429,12.9017-50.73,18.9649-1.0336,2.0765-1.7534,4.0052-2.1872,5.7771"/>
    <g class="cls-4">
      <path class="cls-1" d="M120.1695,7.2016c-2.7501,0-4.5128.0738-5.2788.1938-2.0857.3507-3.5254,1.1997-4.319,2.5379l-2.7132,4.6143-.526,1.1997c0,.2584.7014.3507,2.0949.2861,2.8886-.1292,4.3467-.1938,4.3744-.1938,7.6044,0,11.4159.5076,11.4159,1.532l-.1846.3876c-.7383.646-3.2393,2.1134-7.5214,4.4113-4.4667,2.3718-7.1984,3.9314-8.1858,4.7066-.849.6737-1.3289,1.0705-1.4212,1.1997,0,.0923.6829-.0369,2.0395-.3876,7.6783-2.0488,12.1911-3.553,13.5569-4.5128,2.1318-1.532,4.3652-3.9499,6.7092-7.2353,2.0949-2.9532,3.1377-4.8358,3.1377-5.6664,0-2.0488-4.3928-3.0731-13.1785-3.0731"/>
    </g>
    <path class="cls-1" d="M76.1672,79.4991c-1.0428-2.7132-1.5873-4.116-1.6335-4.199-.2399-.7291-.4153-1.6519-.5353-2.7963-.0831-.8029-.203-1.209-.3691-1.209-.1569.0369-.443.3876-.8398,1.0244-.5999.9413-.9044,2.0119-.9044,3.23,0,2.1041,1.1259,5.1496,3.3777,9.1179-.2861,1.1259-.9875,1.7073-2.1134,1.7073-2.6117,0-3.913-1.7073-3.913-5.1127,0-1.172-.2953-2.9993-.8767-5.4726s-1.0521-3.7099-1.4212-3.7099c-.1938,0-.4983.4337-.8952,1.3105-.4061.8767-.6091,1.5135-.6091,1.9103,0,.4522.2215,1.6058.6645,3.47s.6645,3.1839.6645,3.9591c0,1.3289-.4707,2.4917-1.412,3.4884-.9506.9967-1.9657,1.4858-3.0455,1.4858-.849,0-1.5504-.6275-2.1134-1.8826-.4799-1.0982-.7198-2.2241-.7198-3.4054,0-.5629.0923-1.2366.2676-2.0026.1846-.7752.2769-1.7258.2769-2.8609,0-2.1872-.2861-3.2854-.849-3.2854-.4337,0-1.089.4707-1.9288,1.4028-.9229,1.0521-1.3843,2.1318-1.3843,3.23,0,.6829.2676,1.1074.8121,1.2736l.8121.849v4.9835c0,2.1041.4614,3.8114,1.3843,5.1035.8121,1.0982,1.7534,1.6427,2.8332,1.6427,2.8978,0,4.8912-2.0303,5.971-6.0725.969,3.1562,2.5933,4.7343,4.882,4.7343,1.4489,0,2.6302-1.089,3.553-3.2762.6829-1.7073,1.0244-3.35,1.0244-4.9281,0-.849-.323-2.0857-.9598-3.7099"/>
    <path class="cls-1" d="M169.7182,121.2865c2.1041,30.0393,3.1562,47.1493,3.1562,51.3022,0,4.5867-.1938,8.6196-.5814,12.0803-.3045,2.5102-.3691,4.1529-.1938,4.9373.1292.7383.4983.5906,1.0982-.4614.3784-.6922.8952-1.8088,1.5412-3.3685,3.0455-7.669,4.5682-16.5378,4.5682-26.6247,0-3.2946-.9413-18.0605-2.824-44.2976-1.8919-26.2371-4.3559-82.006-4.3559-82.3936,0-1.1351.2123-1.3935.646-.7844,3.6453,4.2083,5.4726,5.3526,5.4726,3.4423,0-.6091-.1753-1.5135-.5168-2.7225-.4337-1.6058-1.9473-5.8694-4.5774-12.8002-2.4825-6.6631-4.0698-10.7329-4.762-12.2095-.3415-.7291-.6368-1.0982-.8952-1.0982-.2215,0-.4799.3507-.7752,1.0336-2.4087,5.6756-3.5992,9.2656-3.5992,10.7883,1.2828,2.6763,1.9288,6.1002,1.9288,10.2531,0,3.59,2.5656,62.8842,4.6697,92.9235"/>
    <path class="cls-1" d="M20.7305,160.6006c0,10.3915,2.2795,18.9188,6.8292,25.5819,5.9617,8.7857,15.3657,13.197,28.1936,13.197,12.108,0,25.0928-3.9314,38.9542-11.7573,10.9821-6.1924,19.3156-12.6248,24.9728-19.2879,3.8207-4.5128,5.731-12.3203,5.731-23.4501l.5814-.2584v-.0185c4.4851-1.8919,8.961-3.7838,13.4462-5.6756,9.3948-3.8114,17.7006-6.8661,24.9082-9.1641,10.7329-3.4146,19.5371-5.1219,26.4032-5.1219,1.7996,0,2.9347-.6552,3.4146-1.9565l3.2762-8.961c.4707-1.2459-.6183-1.8734-3.2762-1.8734-7.2537,0-17.5622-.9413-30.9068-2.7963-8.9887-1.209-16.6762-2.4548-23.0717-3.7284,3.4238-3.6453,5.851-8.0289,7.2814-13.1416,1.6335-5.5464,2.4456-14.4613,2.4456-26.7632,0-4.3282.5168-.8121-.7291-17.7929-1.2366-16.9715-1.8642-14.4982-1.8642-14.7474,0-1.1259.2215-1.3843.646-.7844,3.5992,4.2452,5.408,5.4172,5.408,3.5069,0-.5999-.1292-1.5227-.3876-2.7225-.5168-1.6519-2.058-5.934-4.642-12.8648-2.4825-6.58-4.0698-10.6499-4.762-12.2095-.3415-.6922-.6368-1.0336-.8952-1.0336s-.5168.3415-.7752,1.0336c-2.3995,5.6295-3.6084,9.2194-3.6084,10.7883,1.292,2.6763,1.938,6.1002,1.938,10.2531,0,3.6361.7198,4.559,2.1872,24.9451,1.4581,20.3954,1.0428,18.3374,1.0428,22.1488,0,9.3486-.1292,14.5075-.3876,15.458-.2492,1.5596-1.5412,2.7778-3.8576,3.6361-4.7159,1.9011-10.7699,3.8945-18.1528,5.9802-5.4911,1.5504-8.4165,2.5933-8.758,3.1101h.0092c-1.6704,3.7653-2.7594,6.6631-3.2762,8.6934-.4707,1.209.3045,1.818,2.3164,1.818,1.6704,0,8.6288.8675,20.866,2.5933,13.9076,2.0026,22.5087,3.1654,25.8126,3.5069-13.8246,5.2419-24.5298,9.3117-32.1342,12.2095v.0092c-.7198.203-1.1628.323-1.3289.3599-2.1503-4.5867-4.5959-8.3704-7.346-11.3605-3.0455-3.3316-5.9433-5.0019-8.6842-5.0019-3.4423,0-6.7462,1.8919-9.9116,5.6572-3.4423,4.1068-5.1496,8.8503-5.1496,14.2122,0,6.9769,5.0573,10.4653,15.1904,10.4653,4.7159,0,8.3612-.4337,10.936-1.3105,1.2459,3.1285,1.8734,5.9802,1.8734,8.5827,0,2.1595-3.267,5.7495-9.7824,10.7791-7.2999,5.5833-15.458,10.29-24.4744,14.0922-11.1113,4.6328-21.6505,6.9492-31.599,6.9492-11.2036,0-19.7678-3.6822-25.6926-11.0467-4.4205-5.5372-6.6262-11.6004-6.6262-18.1805,0-1.3382.9875-7.4383,2.9624-18.3097.2584-1.4304.1661-2.1503-.2584-2.1503-.4337,0-.886.6183-1.3566,1.818-1.3751,3.5161-2.4456,7.7336-3.2208,12.671-.4707,3.027-.7106,6.174-.7106,9.4132ZM107.84,135.2772c-5.2419,0-7.8536-1.209-7.8536-3.6361,0-2.0395,1.8919-3.0547,5.6664-3.0547,2.5748,0,5.3434,2.0119,8.2966,6.0448-2.1872.4337-4.2267.646-6.1094.646"/>
  </g>
</svg>