<?xml version="1.0" encoding="UTF-8"?>
<svg id="Alala_" data-name="Alala&amp;apos;" xmlns="http://www.w3.org/2000/svg" viewBox="0 0 380.9467 333.4967">
  <defs>
    <style>
      

      @import url('../../CSS/SvgStyling.css');

      
    </style>
  </defs>
  
  <g class="content">

    <rect id="bg" class="bg" width="380.9467" height="333.4967"/>
    <path class="cls-1" d="M189.487,266.2716c-.1685.8366-.337,1.6732-.5395,2.6785,1.0619.8452,2.4477.4588,3.9829.5174-.7191-1.9571-.5929-3.6059,1.0224-4.9339.8978.5772,1.0077,1.5963.9913,2.5239-.0355,2.007-.4459,3.9797-1.6489,5.628-.3971.5441-1.2271,1.0314-1.8836,1.0647-.9349.0474-1.9403-.2299-2.8255-.5901-.7516-.3058-1.1891-.3644-1.8411.2653-2.2192,2.1435-4.7951,2.7304-7.8551,1.9046-1.3622-.3676-2.9933-.244-4.3869.1107-3.2981.8395-5.8905,2.9293-8.2564,5.3032-1.7732,1.7792-3.5706,3.5349-5.324,5.3333-2.2781,2.3367-5.1421,3.5153-8.2339,4.2641-.1614.0391-.3406.005-.7539.005,1.7326-1.1517,3.2746-2.1962,4.8361-3.2105,2.9438-1.9122,5.2936-4.4292,7.5421-7.0963,2.3845-2.8286,4.8472-5.6241,8.0154-7.6338,2.7697-1.7567,5.6741-2.5212,8.9617-1.3369,2.0302.7313,4.1194.4701,5.4666-1.8966.4661-.8189,1.0407-1.5799,1.609-2.3349.2188-.2907.5575-.4909.8417-.7324.0932.0555.1864.111.2797.1664Z"/>
    <path class="cls-1" d="M68.7379,86.9488c.1126-.3816.2233-.6894.2937-1.0061.5836-2.6254.891-5.3331,2.1373-7.7654.3414-.6663.8696-1.2778,1.4317-1.7805.8017-.717,2.1475-.1784,2.9062,1.0217.6565,1.0386.535,2.0619.0285,3.0852-.2054.415-.5379.5729-.935.1761-.1774-.1772-.3608-.3489-.5306-.5332-.8589-.9322-1.7863-.9076-2.2689.4278-.6618,1.8313-1.0468,3.7621-1.565,5.6462-.4082,1.4841-.8132,2.9702-1.2784,4.4368-.1049.3307-.454.584-.6906.873l-.2157-.0753c-.169-.7439-.2601-1.5166-.5221-2.2261-.7121-1.928-1.479-3.8366-2.2626-5.737-.2564-.6219-.6361-.9768-1.4249-.5425-.6345.3493-2.0115-.3886-2.6069-1.2146-.4727-.6559-.7086-1.2653-.0554-1.9841.3552-.3908.5985-.9001.8251-1.3871.3291-.7072.8485-.7106,1.4842-.5319,1.3267.373,2.2162,1.2853,2.8531,2.4249.5714,1.0224,1.0819,2.0946,1.4755,3.1962.3902,1.0922.6008,2.2486.9207,3.4957Z"/>
    <path class="cls-1" d="M54.0965,139.6541c-.2753,1.8944-.4368,3.8073-1.8918,5.2214-.9124.8868-2.5596.4887-3.1114-.6557-.7154-1.4836-.5693-3.0665-.3706-4.5482.258-1.9242.8452-3.8234,1.4696-5.673.4654-1.3787,1.2146-2.6617,1.8375-3.9873l.2339.0823c-.0764.2701-.1474.5418-.2304.8099-.0943.3044-.2116.602-.2975.9085-.5745,2.0503-1.253,4.0805-1.6665,6.1631-.1996,1.0051.0675,2.114.1914,3.1678.07.5954.5015.9375,1.0984,1.0368.6395.1064,1.1156-.211,1.4719-.6729.4561-.5912.8467-1.2329,1.2655-1.8528Z"/>
    <path class="cls-1" d="M272.5531,270.9056c.1971-.862.3903-1.7249.5921-2.5858.8366-3.5696,1.2159-7.2884,3.0247-10.5523.6003-1.0832,1.542-2.1349,2.5885-2.7728,1.2826-.7817,2.8361.0891,3.8636,1.6889.9943,1.5481.8228,3.0929.0623,4.6278-.3336.6734-.87.8885-1.4772.221-.2022-.2223-.436-.4162-.6356-.6406-1.461-1.6426-2.7185-1.2598-3.5943.7203-1.3381,3.0249-1.8095,6.2687-2.5072,9.4632-.4131,1.8915-1.0747,3.7344-1.721,5.5652-.169.4789-.6978.8309-1.1472,1.3379-.5867-2.1417-.9844-4.0458-1.6372-5.8579-.7593-2.1078-1.7188-4.1455-2.6383-6.1925-.4167-.9276-.907-1.6417-2.1852-.9291-.9411.5246-2.9155-.4898-3.8519-1.7128-.7906-1.0325-1.1442-2.0243-.1298-3.1724.5279-.5975.9313-1.3337,1.269-2.0637.4864-1.0513,1.2715-.9703,2.1521-.7334,1.9539.5254,3.2214,1.9044,4.2678,3.5129,1.9828,3.0481,2.9191,6.4714,3.7047,10.076Z"/>
    <path class="cls-1" d="M114.7093,305.0766c.0816-.3569.1616-.7143.2452-1.0708.3464-1.4782.5035-3.0181,1.2525-4.3697.2486-.4485.6385-.8841,1.0719-1.1482.5311-.3237,1.1744.0369,1.5999.6994.4117.641.3407,1.2808.0258,1.9164-.1382.2789-.3603.3679-.6117.0915-.0837-.0921-.1805-.1724-.2632-.2653-.605-.6802-1.1257-.5217-1.4884.2983-.5541,1.2526-.7493,2.5958-1.0382,3.9187-.1711.7833-.445,1.5464-.7127,2.3046-.07.1983-.289.3441-.475.554-.243-.8869-.4076-1.6753-.6779-2.4258-.3144-.8728-.7117-1.7166-1.0925-2.5643-.1726-.3841-.3756-.6798-.9049-.3848-.3897.2172-1.2073-.2028-1.5951-.7093-.3274-.4276-.4738-.8383-.0538-1.3137.2186-.2474.3857-.5523.5255-.8546.2014-.4353.5265-.4018.8912-.3037.8091.2175,1.334.7886,1.7673,1.4547.8211,1.2622,1.2088,2.6798,1.5341,4.1725Z"/>
    <path class="cls-1" d="M229.0176,288.963c-.6554,2.711-.8969,5.5828-3.0804,7.7071-1.3652,1.3282-3.8481.7344-4.6643-.9871-1.0724-2.2621-.8567-4.6679-.5445-6.933.3877-2.8126,1.2567-5.5862,2.1751-8.2893.7144-2.1026,1.8226-4.0715,2.7558-6.0998.1295.0482.2591.0963.3886.1445-.1513.4684-.3177.9326-.4515,1.406-.9691,3.4275-2.0873,6.8238-2.8248,10.3007-.3256,1.5355-.0031,3.2595.2902,4.8489.1093.5921.8886,1.258,1.5153,1.5104.9142.3681,1.7356-.2168,2.3008-.9571.5333-.6985.9559-1.4812,1.4361-2.221.1376-.2119.3062-.4037.4606-.6047.081.0582.162.1163.2429.1744Z"/>
    <path class="cls-1" d="M295.8926,226.3592c.1314-.5746.2601-1.1497.3946-1.7235.5577-2.3793.8104-4.8581,2.0161-7.0336.4001-.722,1.0278-1.423,1.7254-1.8482.8549-.5211,1.8904.0594,2.5753,1.1258.6627,1.0318.5484,2.0616.0416,3.0847-.2224.4489-.5799.5922-.9846.1473-.1348-.1482-.2906-.2774-.4237-.427-.9738-1.0949-1.812-.8397-2.3958.4801-.8919,2.0162-1.2061,4.1783-1.6712,6.3077-.2753,1.2607-.7164,2.4892-1.1471,3.7095-.1127.3192-.4651.5538-.7646.8918-.3911-1.4275-.6561-2.6967-1.0912-3.9046-.5061-1.4049-1.1456-2.7632-1.7586-4.1276-.2778-.6183-.6045-1.0943-1.4565-.6193-.6273.3497-1.9433-.3265-2.5675-1.1416-.527-.6882-.7627-1.3493-.0865-2.1145.3519-.3982.6208-.889.8459-1.3755.3242-.7007.8475-.6467,1.4345-.4889,1.3024.3502,2.1472,1.2694,2.8447,2.3415,1.3216,2.0317,1.9457,4.3135,2.4693,6.7161Z"/>
    <path class="cls-1" d="M175.7525,316.33c-.6265,2.5916-.8574,5.3369-2.9448,7.3676-1.3051,1.2697-3.6786.7021-4.4588-.9437-1.0252-2.1624-.819-4.4623-.5205-6.6276.3706-2.6887,1.2013-5.3402,2.0793-7.9242.6829-2.01,1.7423-3.8921,2.6344-5.8311.1238.0461.2477.0921.3715.1381-.1446.4478-.3037.8915-.4316,1.3441-.9264,3.2765-1.9954,6.5232-2.7003,9.847-.3113,1.4679-.003,3.1159.2774,4.6353.1044.566.8494,1.2026,1.4485,1.4438.8739.3518,1.6591-.2073,2.1995-.9149.5098-.6678.9138-1.416,1.3729-2.1232.1315-.2026.2927-.3859.4403-.5781.0774.0556.1548.1112.2322.1668Z"/>
    <path class="cls-1" d="M33.128,129.0024c-.5217-.4941-.9389-.9015-1.3692-1.2944-1.2528-1.1437-1.9674-1.0187-2.7456.5263-.2939.5835-.5457,1.2037-.7076,1.8351-.4448,1.7347-.8061,3.4907-1.2492,5.2258-.4427,1.7334-.8967,3.467-1.4385,5.171-.3263,1.0262-.4059,1.0009-1.3954,1.9417-.1608-.3232-.381-.5951-.4324-.8957-.5083-2.9698-1.5483-5.7624-2.8022-8.4821-.3193-.6926-.6003-1.4417-1.2637-1.8024-.1525-.0275-.2228-.0647-.2669-.0446-2.0337.9284-3.2324-.3988-4.4365-1.6607-.4423-.4636-.6058-1.0527-.2968-1.6549.4891-.9533.9903-1.9036,1.5486-2.8171.4327-.7081,1.0956-.8085,1.882-.5721,1.6363.4919,2.8062,1.5571,3.7112,2.9416,1.1214,1.7156,1.8368,3.6157,2.4078,5.5732.1655.5673.3127,1.1399.5565,2.0333.2135-.4993.3408-.7217.4059-.9609.6273-2.3046,1.1852-4.6302,1.8898-6.9106.3308-1.0706.8756-2.0926,1.4455-3.065.3206-.5469.84-1.0154,1.3589-1.3987.7269-.5371,1.5417-.5623,2.3598-.1029,2.4166,1.3572,2.8567,3.9894.8379,6.4141Z"/>
    <path class="cls-1" d="M44.5533,71.0245c.1169,1.2222-.273,1.9196-.4698,2.6494-.575,2.1324-1.2703,4.2381-1.7244,6.3951-.2791,1.3254-.2604,2.7257-.2581,4.0921.001.5675.2218,1.1804.4944,1.6918.5447,1.0223,1.5495,1.1728,2.3687.3647.4617-.4554.7988-1.0362,1.1992-1.5551.1731-.2244.3639-.435.6828-.8134.1293.3698.2685.5683.2526.7534-.1672,1.9403-.785,3.7333-1.8734,5.3486-.4035.5989-.9079,1.1083-1.6695,1.2683-1.1816.2481-2.3241-.1835-2.8389-1.3494-.4254-.9636-.6896-2.0372-.8118-3.0869-.194-1.6663-.0208-3.337.3314-4.9862.7419-3.4731,2.0191-6.7446,3.6689-9.8783.1054-.2001.266-.3712.648-.894Z"/>
    <path class="cls-1" d="M246.5165,48.8337l-1.5777,2.5374c3.9773,1.635,6.0462,3.8345,6.2067,6.5984-.0063,2.2583-.4571,3.7332-1.3545,4.4244-2.2429,1.6654-4.4155,2.2031-6.5198,1.6131-2.1861-.8846-3.0243-2.8479-2.517-5.8898.6898-3.2471,2.4144-6.4505,5.174-9.6101.4069-.4511.6491-.4667.7289-.0467l-.1405.3733ZM243.2124,54.6581c-.6046,1.4505-.9555,2.3629-1.0527,2.7372-.3401,1.4563.1692,2.3668,1.5279,2.7313,1.7103.4559,3.5901.2254,5.6393-.6914-.7559-1.7314-2.7948-3.3238-6.1144-4.777Z"/>
    <path class="cls-1" d="M103.6633,32.8577c4.2225-4.2812,16.8022-12.1984,37.7389-23.7518l-1.4075,4.8383c-23.048,12.9609-35.7733,21.4059-38.1788,25.3352.0586-3.0496.6744-5.1902,1.8474-6.4218Z"/>
    <path class="cls-1" d="M181.7333,78.899c4.2225-4.2812,16.8022-12.1984,37.7389-23.7518l-1.4075,4.8383c-23.048,12.9609-35.7733,21.4059-38.1788,25.3352.0586-3.0496.6744-5.1902,1.8474-6.4218Z"/>
    <path class="cls-1" d="M46.2137,267.5074l-1.3325,3.4211c-9.1825,4.3148-15.8555,7.9112-20.0211,10.789-.3125.2022-.4928.3447-.5387.4273l1.276-3.8615c5.0144-3.361,11.8865-6.9529,20.6163-10.7759Z"/>
    <path class="cls-1" d="M111.0279,229.7243l-.3928,2.8145c-.0893,4.0549,1.7031,6.792,5.3772,8.2113.9619.3558,2.1048.5691,3.4265.64,1.1895.068,1.787.9804,1.7924,2.7371.0075,1.6313-.8378,2.9929-2.5381,4.0847-.5374.3646-1.1599.56-1.8656.5863l-.1984-.0044c-3.1717-.1953-5.5667-1.6073-7.185-4.236-1.1093-1.7392-1.605-4.2386-1.4891-7.4983-23.6654,11.0224-43.9407,16.3269-60.826,15.9134-10.4933-.231-17.9314-2.9878-22.3144-8.2704-2.084-3.5172-3.0869-7.0525-3.0087-10.6058.0341-3.5543,1.5556-8.5815,4.5666-15.0815.3254-.7875.5293-1.0339.6118-.7394.1683.3383.2303.5279.186.5687-1.488,3.4386-2.2415,6.6425-2.2627,9.6115-.1767,8.0263,4.5384,13.2535,14.1452,15.6816,2.4122.5968,5.5802.9593,9.504,1.0875,17.3705.3824,38.0646-4.9129,62.0826-15.8857l.1998-.0583c.1765-.0379.2395.1098.1887.4433ZM61.7069,270.0442l4.97-6.3524,7.9414,5.9465-4.8335,6.1672-8.0778-5.7613Z"/>
    <path class="cls-1" d="M136.5332,273.3852l-1.3325,3.4211c-9.1825,4.3148-15.8555,7.9112-20.0211,10.789-.3125.2022-.4928.3447-.5387.4273l1.276-3.8615c5.0144-3.361,11.8865-6.9529,20.6163-10.7759Z"/>
    <path class="cls-1" d="M131.2807,191.6088c-.406.4093-1.1618.6436-2.2651.703-1.9748-.4617-3.3783-1.831-4.2104-4.1078-.6568,1.784-.9861,2.7178-.988,2.8014-.4641,1.0772-1.3218,1.9366-2.5711,2.5783-.5355.281-1.3091.3894-2.323.3253-.9683-.0631-1.7117-.3932-2.2278-.9901s-.8468-2.1098-.9918-4.5388c-.145-2.429-.3858-3.9818-.7245-4.6584l.9426-3.7434c.7008.2245,1.0783,2.1149,1.1323,5.6711s1.0065,5.3756,2.8573,5.4582c1.1507-.142,2.2412-.6198,3.2737-1.4336.1452-.5823.2692-1.207.3721-1.8739.0442-2.0066-.5707-4.1322-1.8446-6.3769l.8392-2.0518.6283-1.4918c.2138.3393.6888,1.7718,1.4272,4.2974.6906,2.6919,1.1422,4.1866,1.3569,4.4841,1.0241,1.57,2.0873,2.3672,3.1895,2.3914,1.0141.0223,1.7466-.1916,2.1976-.6417-.1626-.6309-.6464-1.729-1.4493-3.2942-.8036-1.5652-1.2376-2.8922-1.3019-3.981.9903-2.9059,1.4804-4.1289,1.4703-3.669s.0185,1.1296.0881,2.0095c.1111.9644.6513,2.4401,1.6229,4.4272.5467,1.1831.8013,2.6734.7617,4.471-.1193,1.3776-.54,2.4557-1.2622,3.2345Z"/>
    <path class="cls-1" d="M130.9919,236.5628c-2.4326,8.3112-7.154,12.3897-14.1642,12.2353-.6992-.2663-1.0836-.8394-1.1531-1.7192.0534-2.4246.8409-4.1011,2.3604-5.0296.6265-.4044,1.1158-.6237,1.4701-.6577,4.1547-.4104,7.2096-1.8907,9.1625-4.4407l.0179-.8152c.093-6.2297-1.0585-14.0343-3.4546-23.4137l2.6898-7.971c.5015,1.2658.8353,2.1305,1.0016,2.5942,1.4192,3.6281,2.6158,9.3843,3.5898,17.2686,1.0147,8.0107,2.3215,12.7655,3.9206,14.2646,1.6845,1.6264,3.9151,2.4911,6.6918,2.594.5282.0534.7954.9376.8018,2.6525.0102,1.5059-.7032,2.8913-2.1426,4.1561-.4501.4083-.8959.5867-1.3351.5352-2.5553-.1399-4.6583-1.3252-6.3067-3.5586-1.6492-2.2307-2.6991-5.1299-3.15-8.6948ZM128.9986,260.9858l-4.6365,6.2342-7.9427-5.8838,4.7729-6.4194,7.8118,5.8182,4.8349-6.2299,8.0722,6.0121-4.9672,6.227-7.9455-5.7584Z"/>
    <path class="cls-1" d="M190.7836,174.4532c-12.2065,5.4612-21.8825,10.1834-29.0279,14.1666-8.2175,4.6288-12.6426,7.2709-13.2753,7.9261.6023.7243,1.4926,1.3294,2.6728,1.8154l-.5264,2.8743-2.0336-.7976c-.5623-.4724-1.0124-1.0679-1.3502-1.7863-.3371-.7184-.198-1.991.4149-3.8177.7806-1.363,1.3956-2.2487,1.845-2.657,6.8901-4.4071,19.0478-10.6222,36.4709-18.6452,2.3177-1.12,4.3224-2.017,6.0142-2.6907l-1.2043,3.6122Z"/>
    <path class="cls-1" d="M181.3765,232.0884c-.4611.91-.7074,2.0756-.7386,3.4969.0228,2.97,1.5544,4.5303,4.5947,4.6808,3.1735.1117,5.6008-.9432,7.2818-3.1647.6825-.9469,1.1438-1.8987,1.3862-2.8553.4843-1.9969,1.135-3.4673,1.9498-4.4113-.1036.6669-.1645,1.4602-.1847,2.3799.0172,5.2284,2.7802,7.9241,8.2912,8.0872.6126.2226.924,1.1078.934,2.6555.0121,1.4223-.723,2.7863-2.2074,4.092-.4501.4083-.8968.6285-1.3379.6606-4.4052-.2643-6.9403-2.3276-7.6052-6.19.0028-.1254-.0039-.3235-.02-.5957-.0168-.2722-.0236-.4299-.0227-.4717-1.9161,4.8512-4.9227,7.2108-9.0221,7.0787-4.4089-.0971-6.5669-2.2567-6.474-6.4788l.0235-1.066c-.3599.2848-1.0392,1.0855-2.0379,2.4018-3.2637,3.9851-5.8706,6.1862-7.8206,6.6033-.9755.2295-1.8384.3569-2.5889.3822-3.5279-.0777-5.6763-1.6724-6.4451-4.7843-.2443-.9255-.3561-1.8592-.3354-2.7984.0207-.942.1493-1.8063.388-2.5957-.3544.034-1.9017,1.1919-4.6419,3.4738-4.9435,4.1154-9.7077,6.1644-14.2948,6.1471-.6992-.2663-1.0553-1.1525-1.0663-2.6584-.0139-1.3387.4842-2.4569,1.4964-3.3548s1.7393-1.3628,2.1811-1.3949c5.5617-.1703,10.8871-2.6671,15.9786-7.4902,1.6203-1.47,2.6514-2.221,3.0932-2.2531l.1295.1283-.5016,1.7456c-.3316,1.0383-.5043,1.871-.5182,2.498-.0718,3.2607,1.4494,5.2599,4.5658,5.9977.395.0923.7913.122,1.189.0889,1.4109.0311,2.8745-.334,4.3911-1.0953,2.097-1.0831,4.6196-3.4952,7.5699-7.2362,1.0426-1.2736,1.739-1.8856,2.0916-1.836.2636.0476.3722.0918.3279.1327Z"/>
    <path class="cls-1" d="M226.3216,182.6177c1.4053.2819,2.1557,1.2603,2.2512,2.9354.0991,1.5078-.2333,3.5499-.995,6.1262,2.2136,1.638,2.7164,3.8448,1.5084,6.6205-.5849-1.5185-1.5945-2.7118-3.031-3.5799-1.162,2.693-3.8158,6.0223-7.9613,9.9879-3.9232,3.8869-9.569,6.8785-16.9376,8.9748,5.6187-2.7622,10.6317-6.0604,15.039-9.8949,4.6316-4.0386,7.6576-7.2133,9.0759-9.5242-.5226-.3043-1.5789-.9131-3.1688-1.8264-1.5907-.9133-2.4437-1.7058-2.5612-2.3776-.1451-1.4252.5549-3.1664,2.1-5.2236,1.1328-1.3971,2.6275-2.1379,4.482-2.2226l.1984.0044ZM226.4632,191.2156l.2329-1.5633c-.2222-1.9288-.7893-3.2169-1.7014-3.8643-1.0056-.4404-2.207.0351-3.6044,1.4263.4666.8467,1.2877,1.6177,2.4634,2.3127s2.0455,1.2579,2.6095,1.6886Z"/>
    <path class="cls-1" d="M216.3447,236.6223c-3.7764,7.236-8.7761,10.9319-14.9991,11.0877-.9222-.1876-1.3934-.8253-1.4135-1.9132.0506-2.2992.859-3.9544,2.4251-4.9655.5374-.3646,1.0706-.5411,1.5996-.5294,5.2935-.0089,9.3985-2.1352,12.315-6.3789.5456-.7408,1.4596-2.1845,2.742-4.3311l.135-.1225c.2177.1303.4323.365.6462.7043,2.4664-3.8353,5.0292-6.0374,7.6883-6.6062l.5291.0116c2.1163.0466,4.6003,2.4225,7.4522,7.1277.1277.2119.2131.3393.2563.3821,2.8151,4.3698,6.6987,7.2575,11.653,8.6631.306.0904.5687.1798.7881.2683.7862.3519,1.1798,1.5107,1.1806,3.4765.0001,1.9657-.8206,3.1815-2.4623,3.6472-.3996.1167-.7544.1716-1.0623.1648l-.2645-.0058c-4.2031-1.4309-7.8816-3.6867-11.0331-6.7674-.259-.2566-.4761-.4496-.6489-.5789-.4694,1.2862-1.1138,2.5058-1.9332,3.6589l-.1323-.0029c-5.5966-.2487-10.5573-2.3654-14.8799-6.3502l-.5814-.6402ZM221.8037,232.1c2.4763,1.7275,5.5328,3.1122,9.1718,4.1542-1.6624-2.6297-2.9075-4.2143-3.7329-4.7567-.8262-.5396-1.6258-.8193-2.3967-.8363-.7716-.017-1.7864.4626-3.0422,1.4387Z"/>
    <path class="cls-1" d="M252.5219,170.9433l-1.5777,2.5374c3.9773,1.635,6.0462,3.8345,6.2067,6.5984-.0063,2.2583-.4571,3.7332-1.3545,4.4244-2.2429,1.6654-4.4155,2.2031-6.5198,1.6131-2.1861-.8846-3.0243-2.8479-2.517-5.8898.6898-3.2471,2.4144-6.4505,5.174-9.6101.4069-.4511.6491-.4667.7289-.0467l-.1405.3733ZM249.2177,176.7677c-.6046,1.4505-.9555,2.3629-1.0527,2.7372-.3401,1.4563.1692,2.3668,1.5279,2.7313,1.7103.4559,3.5901.2254,5.6393-.6914-.7559-1.7314-2.7948-3.3238-6.1144-4.777Z"/>
    <path class="cls-1" d="M248.1619,240.0203c2.1043.59,4.3028.9103,6.5955.9607l.2645.0058c2.0283.0028,4.3304-.3438,6.9042-1.04l.1323.0029c.349.175.5355.7228.5593,1.6434-.0589,2.6754-.9828,4.5372-2.7696,5.5852-.2682.1614-.4469.262-.536.3019-2.4406.6573-4.9406.9787-7.498.9642-2.2052-.0485-4.2913-.4291-6.2606-1.1416-.744-.2673-1.1183-1.3002-1.1228-3.0988.035-1.5885.791-2.8684,2.268-3.8397.3132-.2022.7128-.3189,1.1987-.35l.2645.0058Z"/>
    <path class="cls-1" d="M272.6994,162.3291l-.857-.1443-.1364.1852c3.0474,29.8874,4.5149,48.385,4.4026,55.4925-.185,8.4025-1.8187,15.4557-4.8989,21.1596-1.6985,3.0157-5.1973,5.6573-10.4963,7.9246-.5346.2392-1.0017.4171-1.4012.5338l-.1323-.0029c-.4381-.1351-.6186-.9547-.5414-2.4586.0304-1.3795.4958-2.5194,1.3986-3.4197.948-.9829,1.5776-1.5337,1.889-1.6523,5.2423-1.7248,8.4669-3.9333,9.6737-6.6252.0064-.2926-.0893-2.9924-.2849-8.0992-.1964-5.1068-.51-11.9003-.9409-20.3777-.4316-8.4802-1.8238-25.3547-4.1789-50.6263l-.8803-2.0897,4.0634-7.2506c.4611,1.0976,1.2247,2.9755,2.291,5.6339s1.914,4.7264,2.5432,6.2041c1.9087,5.4373,2.8572,8.4695,2.8434,9.0965-.0101.4598-.0818.7092-.215.7481-.6161-.0972-1.9959-1.5078-4.1415-4.2317Z"/>
    <path class="cls-1" d="M311.6504,246.5349l.5018-7.7682c.2587-13.7543-1.6475-42.3829-5.7185-85.8856l-.8831-1.9642,3.9973-7.2521c.5042,1.1403,1.3216,3.0822,2.4522,5.8257,3.637,9.114,5.4637,14.2985,5.4802,15.5536-.1369.2061-.2058.3301-.2067.3719-.7908-.1429-2.2595-1.5554-4.406-4.2375l-.5924-.1385-.2728.3704c3.5827,33.6215,5.2545,55.8668,5.0152,66.7357-.1582,5.1827-1.3239,11.0123-3.4948,17.4891-.5161,1.3688-.8419,2.1772-.9797,2.4251l-.2645-.0058c-.4363-.2187-.6457-.7252-.6282-1.5195Z"/>
    <g>
      <g>
        <path class="cls-1" d="M345.3675,157.0153l-.748,5.8251c-.1662,1.1752-.5825,2.5038-1.2467,3.9856l-6.2959,6.6682c-12.8828,12.4677-24.872,18.7271-35.9678,18.7782h-.6234c-11.262-.3066-18.0365-6.6426-20.3215-19.0081-.4987-2.7081-.7273-5.5951-.6857-8.661.0409-7.92,1.3922-15.4313,4.0518-22.5338.7065-1.8906,1.1844-2.5038,1.4337-1.8395.1655.4088.1247.9708-.1247,1.6862-2.0363,5.4674-3.0545,11.1392-3.0545,17.0153,0,9.0442,2.7836,15.6613,8.353,19.8512,3.4493,2.606,7.418,3.8834,11.9062,3.8323,3.0752,0,6.0466-.4088,8.914-1.2263,12.134-3.5257,22.6279-10.6026,31.4796-21.2308l1.2467-1.5329c-.9974-7.5624-3.2415-14.2305-6.7323-20.0045l2.1818-10.0406c.2493.511.8727,1.7373,1.8701,3.679,1.6207,2.4016,3.5317,3.679,5.7349,3.8323,1.0382.0511,1.5792.6387,1.6207,1.7628.0409,2.2994-.8519,4.471-2.6804,6.5149-.4987.5621-.8727.8942-1.122.9964.5396,5.0586.8104,8.431.8104,10.1172v1.5329ZM318.3137,119.5356l-4.4258,8.0478-7.792-7.128,4.5505-7.8179,7.6673,6.8981Z"/>
        <path class="cls-1" d="M356.8996,77.917l-1.4337,3.1425c3.781,1.8906,5.7758,4.5221,5.9842,7.8945.0409,2.7592-.3532,4.5732-1.1844,5.4418-2.0786,2.095-4.1142,2.8103-6.1089,2.1461-2.0779-1.0219-2.9083-3.398-2.4934-7.128.5825-3.9856,2.1409-7.9456,4.6752-11.8801.374-.5621.6019-.5876.6857-.0766l-.1247.4599ZM353.9075,85.1217c-.5396,1.7884-.8512,2.9125-.935,3.3724-.2902,1.7884.2085,2.887,1.4961,3.2958,1.6207.511,3.3869.1788,5.2986-.9964-.748-2.095-2.7019-3.9856-5.8596-5.6718Z"/>
        <path class="cls-1" d="M355.2789,139.3101c-2.8675,4.0367-6.4421,6.055-10.7218,6.055-.748-.3066-1.1428-1.0475-1.1844-2.2227,0-2.4527.7273-4.4965,2.1818-6.1316.4987-.4599.935-.6898,1.3091-.6898,4.6537-.2044,8.2283-2.3505,10.7218-6.4382.374-.5621,1.1428-2.2619,2.3064-5.0961,1.1629-2.8376,1.9947-4.4454,2.4934-4.8304.4987-.3815.8512-.5995,1.0597-.6506,1.3298,0,2.2441,1.4307,2.7428,4.2922.2078,1.1241.3117,2.376.3117,3.7556,0,3.3213-.5825,7.358-1.7454,12.11-.1662.7154-.3532,1.1752-.561,1.3796-.1662-.1533-.2909-.3832-.374-.6898.3325-1.6351.4987-3.2191.4987-4.752,0-3.7301-.748-6.0039-2.2441-6.8215-.8318-.3577-1.6.1277-2.3064,1.4563-2.0786,4.8031-3.5746,7.8945-4.4882,9.2741ZM358.7697,146.1316l7.605,7.2047-4.4258,7.7412-7.7297-7.0514,4.5505-7.8945Z"/>
      </g>
      <path class="cls-1" d="M329.2182,76.168c1.2836.2407,1.9855,1.1632,2.1058,2.7677.1203,1.444-.1411,3.4095-.7822,5.8964,2.0457,1.5242,2.5471,3.6301,1.5042,6.3175-.5622-1.444-1.5042-2.5671-2.8278-3.3693-1.0028,2.6072-3.3493,5.8562-7.0395,9.747-3.4897,3.8106-8.5637,6.7989-15.2222,8.9649,5.054-2.7677,9.5465-6.0367,13.4774-9.8072,4.1308-3.971,6.8189-7.0796,8.0624-9.3259-.4813-.2808-1.454-.8423-2.9181-1.6847-1.4647-.8423-2.2563-1.5844-2.3766-2.2262-.1604-1.3638.4412-3.0485,1.805-5.054,1.0021-1.3638,2.3465-2.1058,4.0312-2.2262h.1805ZM329.519,84.4109l.1805-1.5042c-.2407-1.8451-.7822-3.0685-1.6245-3.6702-.9232-.4011-2.0062.0802-3.249,1.444.4412.8022,1.2033,1.5242,2.2863,2.166s1.8852,1.1632,2.4067,1.5643Z"/>
    </g>
    <g>
      <path class="cls-1" d="M83.8841,122.1406c3.3016-4.7225,6.5823-7.2719,9.8421-7.648,2.1732.1254,3.2807,1.5463,3.3225,4.2628,0,2.0896-.5224,4.3464-1.5672,6.7703l-.8149-1.9433c-.9194-1.1702-1.8389-1.7762-2.7583-1.818s-2.0269.0933-3.3225.4082c-1.2956.312-2.7792,1.368-4.4509,3.1651.6687,3.1344,3.3016,5.0778,7.8987,5.83.9612.1254,2.0269.1881,3.1971.1881,1.5045,0,5.0778-1.1284,10.7197-3.3852l-2.3195,6.9584c-7.3554,2.424-15.9228,6.2479-25.7022,11.472-.5015.2925-.9403.5015-1.3165.6269l2.5702-7.5226c2.3404-1.1284,4.4509-2.1105,6.3315-2.9464-3.4688-1.212-5.2449-2.9881-5.3285-5.3285v-.3134c.209-2.006,1.2329-4.5971,3.0717-7.7734.2508-.3761.4597-.7105.6269-1.003Z"/>
      <path class="cls-1" d="M124.0673,107.8476c-2.3822-3.8031-7.9405-10.5316-16.6751-20.1857-10.8242-11.7018-18.0334-20.917-21.6275-27.6456l-2.2568-1.6926,1.1284-8.4002,1.2538.8776c6.7703,6.1853,10.6988,9.9048,11.7854,11.1585s1.6508,2.1941,1.6926,2.821c-.1672.209-.4904.2814-.9724.2201-.4792-.0641-1.9949-.8261-4.5442-2.2888-.2925-.1672-.5224-.1045-.6896.1881,4.0538,5.8091,10.3018,13.0392,18.7438,21.6902,7.648,7.8569,12.9138,14.0422,15.7975,18.5558,4.43,6.8539,6.1435,14.9616,5.1404,24.3231-.0418.2508-.1672.3134-.3761.1881-.0836-.0418-.4918-1.7441-1.2231-5.1084-.7314-3.3643-3.1233-8.2651-7.1771-14.7011ZM138.1722,114.6807c-.5851-18.6393-2.7374-41.5624-6.4569-68.7692.5015-1.5045,1.0546-3.1665,1.6605-4.983.606-1.8194.9933-3.0202,1.1604-3.6053,0,.0836.1463.7941.4388,2.1314,2.5075,12.2451,4.6807,30.7173,6.5196,55.4165.7523,10.5316,1.4418,18.6602,2.0687,24.3858.5851,5.9763,1.8807,9.9675,3.8867,11.9735,1.5463,1.5881,3.6359,2.4448,6.2688,2.5702,1.1284.1254,1.6926.7523,1.6926,1.8807.0418,2.006-.7314,3.6359-2.3195,4.8897-.5433.4179-1.0866.6478-1.6299.6896h-.1254c-3.5105-.1672-6.3315-2.5075-8.4629-7.0211-1.3791-2.8837-2.2777-7.1256-2.6956-12.7257-.7941,3.3434-1.7762,6.6032-2.9464,9.7794-2.424,5.7255-5.4539,9.9257-9.0898,12.6004-2.8001,2.006-6.7494,4.1374-11.8481,6.3942-5.6002,2.5911-8.9226,3.8031-9.9675,3.6359-.5015-.0418-.6687-.1045-.5015-.1881,13.2481-9.8212,20.917-15.7766,23.0066-17.8662,3.3434-3.3016,6.1226-6.6241,8.3376-9.9675.8358-2.5493,1.1702-6.2897,1.003-11.2212Z"/>
      <path class="cls-1" d="M153.7189,133.926c4.5554,1.1284,9.1943,1.6926,13.9168,1.6926h.3761c5.5584-.0418,12.1407-1.2956,19.7468-3.7613h.1254c.3343.1672.5015.6896.5015,1.5672,0,2.8419-.8149,4.7434-2.4448,5.7046-.209.1254-.3761.209-.5015.2508-7.5226,2.4657-14.3556,3.6986-20.4991,3.6986-5.642,0-10.1764-.606-13.6034-1.818-.7105-.2508-1.0657-1.2956-1.0657-3.1344,0-1.5463.6896-2.821,2.0687-3.824.2925-.209.6687-.3343,1.1284-.3761h.2508Z"/>
      <path class="cls-1" d="M224.9956,141.2605c-3.5941-1.1702-9.3824-5.0569-17.3647-11.66-7.6898,3.7195-15.087,6.9793-22.1917,9.7794-1.1284.4179-1.7135-.1045-1.7553-1.5672-.0836-1.8389.7523-3.4897,2.5075-4.9524.6269-.5433,1.1702-.8985,1.6299-1.0657l15.1079-6.3942c-3.9703-3.3434-7.5226-4.9942-10.657-4.9524-1.9224,0-3.9285.6896-6.0181,2.0687l2.2568-9.0271c5.8091-3.5941,12.5586-5.4121,20.2483-5.4539,5.0151,0,10.3227.7314,15.9228,2.1941,3.3434.8776,5.036,1.8598,5.0778,2.9464.0418,1.1702-.3552,2.7583-1.1911,4.7643-.7941,1.8807-1.2747,2.8001-1.4418,2.7583l-.1254.2508c-1.6299.209-5.8718,1.9433-12.7257,5.2031,5.0151,3.8449,9.3615,6.436,13.0392,7.7734.3343.1254.5015,1.2538.5015,3.3852,0,2.006-.7314,3.2807-2.1941,3.824-.2925.1254-.5015.1672-.6269.1254ZM202.0517,154.237c.9612.7105,2.3404,1.0866,4.1374,1.1284,3.3016,0,6.4987-1.2329,9.5913-3.6986-1.5045,2.215-3.1762,3.9076-5.0151,5.0778-2.2568,1.4209-4.2949,2.1523-6.1114,2.1941-1.8194.0418-2.9993-.4388-3.5426-1.4418-.3761-.7105-.2716-2.006.3134-3.8867.7105-2.5075,1.7971-4.6389,3.2598-6.3942-3.0926-.2508-4.2001-1.6926-3.3225-4.3255.0418-.0418.3552-.6687.9403-1.8807.8358-1.6717,1.8807-2.6956,3.1344-3.0717h.4388c.7105.1672,1.0866.8888,1.1284,2.1621.0418,1.2761-.1254,2.059-.5015,2.3515-1.1284-2.215-2.4866-2.4031-4.0747-.5642.2508,1.8389,1.7135,2.7374,4.3882,2.6956l3.1971-3.2598-.6269,2.9464c-.0418.1672-1.0964,1.4307-3.1665,3.7933-2.0673,2.3599-3.4576,4.4188-4.1681,6.1741ZM201.3621,116.7494c2.8837,1.9224,5.4539,3.8031,7.7107,5.642,4.1374-2.1314,7.5017-3.6568,10.0928-4.5763-3.8867-1.2956-7.1047-1.9433-9.654-1.9433-2.1732.0418-4.8897.3343-8.1495.8776Z"/>
      <path class="cls-1" d="M227.3778,133.926c4.5554,1.1284,9.1943,1.6926,13.9168,1.6926h.3761c5.5584-.0418,12.1407-1.2956,19.7468-3.7613h.1254c.3343.1672.5015.6896.5015,1.5672,0,2.8419-.8149,4.7434-2.4448,5.7046-.209.1254-.3761.209-.5015.2508-7.5226,2.4657-14.3556,3.6986-20.4991,3.6986-5.642,0-10.1764-.606-13.6034-1.818-.7105-.2508-1.0657-1.2956-1.0657-3.1344,0-1.5463.6896-2.821,2.0687-3.824.2925-.209.6687-.3343,1.1284-.3761h.2508Z"/>
      <path class="cls-1" d="M270.0059,53.9983l-.8149-.1254-.1254.1881c3.5105,29.7979,5.2867,48.2492,5.3285,55.3538,0,8.4002-1.4,15.484-4.2001,21.2514-1.5463,3.0508-4.8061,5.7673-9.7794,8.1495-.5015.2508-.9403.4388-1.3165.5642h-.1254c-.4179-.1254-.606-.9403-.5642-2.4448,0-1.3791.4179-2.5284,1.2538-3.4479.8776-1.003,1.4627-1.5672,1.7553-1.6926,4.9315-1.8389,7.9405-4.1165,9.0271-6.833,0-.2925-.1463-2.9881-.4388-8.0868s-.7314-11.8801-1.3165-20.3417c-.5851-8.4643-2.2568-25.2955-5.0151-50.4962l-.8776-2.0687,3.6986-7.3345c.4597,1.0866,1.2217,2.9464,2.2888,5.5793,1.0643,2.6329,1.9113,4.6807,2.5382,6.1435,1.9224,5.3912,2.8837,8.4002,2.8837,9.0271,0,.4597-.0627.7105-.1881.7523-.5851-.0836-1.9224-1.4627-4.0121-4.1374Z"/>
      <path class="cls-1" d="M293.5767,138.8784l.3134-7.7734c-.0418-13.7497-2.4448-42.3147-7.2092-85.695l-.8776-1.9433,3.6359-7.3345c.5015,1.1284,1.3165,3.0508,2.4448,5.7673,3.6359,9.0271,5.4748,14.1676,5.5166,15.4213-.1254.209-.1881.3343-.1881.3761-.7523-.1254-2.1732-1.5045-4.2628-4.1374l-.5642-.1254-.2508.3761c4.0956,33.5174,6.1435,55.7091,6.1435,66.5751-.0418,5.1822-1.0239,11.0332-2.9464,17.5527-.4597,1.3791-.7523,2.1941-.8776,2.4448h-.2508c-.4179-.209-.6269-.7105-.6269-1.5045Z"/>
    </g>
    <path class="cls-1" d="M174.7931,22.0138c-.2933.8751-.6135,1.7423-.8748,2.6269-.7029,2.3797-1.6112,4.7255-1.4071,7.2766.0405.5057.1356,1.0367.3435,1.4932.4223.9271,1.8359.913,2.4785-.001.3375-.48.6275-.9931.9544-1.4809.0902-.1346.236-.2321.4142-.3127-.4049,1.8368-.5486,3.7637-2.017,5.1781-.8548.8234-2.594.55-3.0391-.5481-.2793-.6889-.4371-1.4604-.4829-2.2051-.2048-3.3343.6822-6.442,2.0897-9.4268.4251-.9016.8551-1.8009,1.2828-2.7013.0859.0337.1719.0675.2578.1012Z"/>
    <g>
      <path class="cls-1" d="M56.0779,190.9327c-.0955.3388-.1818.6805-.2879,1.0159-.6382,2.0173-1.298,4.031-1.3029,6.18-.0092,4.0099,3.0144,6.5621,6.981,5.9065,4.5086-.7451,8.4479-2.7778,12.1421-5.3635.2289-.1602.4342-.3598.6277-.5628.09-.0943.1254-.2406.2462-.4871-.322-.1726-.6122-.3969-.9398-.4902-.8119-.2314-1.6461-.3836-2.4617-.6035-.9052-.2441-1.8409-.4356-2.6902-.8141-1.6782-.7481-2.2776-2.2172-1.7805-3.951.7456-2.6004,2.0707-4.8159,4.2214-6.4999.1849-.1448.3571-.3066.5478-.4429,2.0115-1.438,3.0131-1.2611,4.434.7603.4771.6787.8573,1.4558,1.7681,1.8836.803-1.2453,1.543-2.4905,2.3817-3.6653.7886-1.1048,1.592-2.2241,2.5448-3.1819,2.9075-2.923,7.1377-2.2814,9.1684,1.3123.4431.7841.5488,1.6061.3071,2.4492-.4788,1.6698-1.3129,3.1059-2.813,4.0881-3.392,2.221-7.0308,3.317-11.1044,2.4905-.1813-.0368-.3684-.0451-.6201-.0745-.2727.3472-.5504.7008-1.0223,1.3018,0-.495-.0443-.7354.0088-.9518.13-.5296-.1055-.8639-.451-1.2396-.6958-.7566-1.3385-1.5645-1.9705-2.3765-.6042-.7763-.8542-.903-1.6387-.4591-1.437.8131-2.7796,1.7631-3.8392,3.0544-.2061.2512-.3797.5403-.5143.8365-.3286.7228-.2616,1.0515.4613,1.3528.9941.4144,2.0351.7188,3.0631,1.0482.9393.301,1.907.5221,2.8282.8687,1.4194.534,1.8644,1.3296,1.7509,2.8397-.1225,1.6294-1.068,2.7754-2.2235,3.7834-1.8911,1.6498-4.0209,2.9458-6.2977,3.9746-2.2658,1.0239-4.5319,2.0634-7.0771,2.2674-3.72.2982-6.5923-1.9181-7.2283-5.6053-.3023-1.7525-.1828-3.4871.2895-5.167.4432-1.5767,1.0813-3.0994,1.6546-4.638.1238-.3322.3371-.631.5092-.9452.1091.035.2182.0701.3273.1052ZM81.3803,188.4488c3.1076.0032,5.877-1.0348,8.4455-2.6955.2702-.1747.5848-.3919.6999-.6648.1229-.2912.1796-.79.0139-.9953-1.598-1.9795-4.3936-3.4101-7.0817-1.8378-1.9942,1.1663-3.31,3.0077-4.4781,4.9425-.3476.5757-.1276.9546.5859,1.091.5934.1134,1.2089.1111,1.8146.16Z"/>
      <path class="cls-1" d="M33.1557,195.6345c-.5258.5632-.8326.9051-1.1537,1.2332-1.0982,1.1224-2.2979,2.0631-3.8767,2.4532-1.923.4751-3.481-.085-4.5658-1.6755-.6522-.9562-1.0766-2.0737-1.5534-3.1409-.2072-.4637-.2889-.9835-.4727-1.6384-.2886.2695-.5202.4507-.7098.6685-1.0227,1.1747-2.341,1.8896-3.7953,2.3309-1.6265.4936-2.5832-.2487-2.581-1.9361.0023-1.7352.743-3.1929,1.8558-4.4578.775-.8809,1.6203-1.7048,2.4812-2.5035.609-.565.9063-1.1621.654-1.9953-.3601-1.1892.2431-2.1466.8564-3.4309.5123,1.2045.9192,2.161,1.3707,3.2225.7528-.5108,1.3919-.9445,2.0311-1.3781-.0046,1.0855-.5577,1.8136-1.2193,2.4416-.5004.475-.6682.9411-.4809,1.6178.5139,1.8567.8789,3.7599,1.481,5.5859,1.2513,3.7946,4.2892,4.4731,7.408,2.1389.6746-.5049,1.2576-1.131,1.894-1.6884.4142-.3628.8486-.7025,1.4486-1.1962.112.5712.1988.9117.2432,1.2576.2089,1.6258,1.0681,2.3719,2.6537,2.1628,1.2326-.1625,2.4961-.2902,3.7111-1.0524-.345-.3267-.5939-.5859-.8668-.8168-1.2053-1.0197-2.1345-2.2357-2.749-3.6991-1.4658-3.4909.4255-7.2627,4.1029-8.1518,2.7208-.6578,5.7936.0915,8.1014,2.0106-.3389.4188-.7777.2355-1.1444.171-1.9724-.3465-3.9479-.2896-5.8938.0852-1.1392.2194-2.2683.602-3.3317,1.0707-.8915.3929-1.0442.8065-.6651,1.7196,1.1615,2.7971,3.1119,4.7956,6.1442,5.486.6486.1477,1.4284.05,2.0694-.1666,1.4209-.4802,2.7904-1.1118,4.1841-1.6736,1.2902-.5201,2.5846-1.0296,3.9486-1.5722-.0271,1.4155-.7694,2.7171-1.7229,3.1429-3.8619,1.7243-7.7177,3.4636-11.6036,5.1325-1.1589.4977-2.394.8449-3.623,1.142-.6695.1618-1.4083.1551-2.0999.0792-1.0072-.1107-1.7337-.6715-2.0591-1.6776-.1115-.3446-.2461-.6817-.4718-1.3015ZM20.2441,187.5123c-1.9538,1.601-3.5327,2.9933-4.625,4.8133.1743.204.2212.3145.2947.3366,1.3733.4125,3.9256-.3942,4.6971-1.504.1485-.2136.2854-.5253.247-.7626-.1385-.8567-.3541-1.7009-.6138-2.8833Z"/>
      <path class="cls-1" d="M49.0839,170.2618c0,1.7046-.0474,3.2961.0233,4.8823.0284.6372.2468,1.293.5045,1.8856.2741.6304.8303,1.0729,1.5405,1.0709.6981-.0019,1.0928-.5625,1.2944-1.145.368-1.0633.6317-2.1624.9546-3.2418.4711-1.5752.9185-3.1592,1.453-4.713.2257-.656.6083-1.2704.9932-1.8552.2808-.4266.6624-.8183,1.3531-.5754.3819.8839.1271,1.8053.0278,2.7209-.1722,1.5867-.3808,3.1706-.5001,4.7613-.0448.5972.0397,1.2313.2004,1.8111.3431,1.2375,1.2078,1.836,2.5415,1.8034.0178-.4035.073-.817.0483-1.2255-.3068-5.068-.6072-10.1365-.9522-15.202-.0983-1.4437-.3355-2.878-.5081-4.3167-.1177-.9812.5529-1.6232,1.0804-2.6845.9402,2.2041,1.8694,4.1078,2.3613,6.3632-.4464-.0497-.7759-.0864-1.3017-.1449.4448,5.6627.7996,11.2954,1.3641,17.1858,1.6989-1.0755,2.5844-2.3681,2.531-4.0576-.0576-1.8204-.213-3.6802-.6713-5.4323-.386-1.4756-.1851-2.7408.382-4.2331.278.2814.5812.4517.6658.6973.3811,1.1063.7737,2.2178,1.0244,3.3578.3733,1.697.5456,3.441.97,5.1229.2473.9802.7257,1.9376,1.2694,2.7983.6632,1.0497,1.7515,1.3772,2.9665,1.1795,1.2184-.1982,1.6695-.9718,1.261-2.1363-.1239-.3533-.2848-.6983-.4675-1.0255-1.142-2.0448-1.7161-4.2644-2.0468-6.5611-.0402-.279-.0221-.5888-.141-.8302-.5487-1.1138-.1206-2.0802.4662-3.2774,1.063,1.1876,1.937,2.3336,2.5463,3.7559-.2632.187-.6563.3201-.7243.5495-.0962.3247-.0032.7351.0976,1.0832.4054,1.4.8683,2.7835,1.266,4.1855.5,1.7627.5621,3.5118-.209,5.2405-1.0752,2.4105-3.6921,3-5.6319,1.1784-.5662-.5317-.9594-1.2592-1.3804-1.9293-.2438-.3881-.385-.8407-.5678-1.2538-.1496.0383-.2855.0354-.3079.0844-.726,1.5903-1.5219,3.1193-2.9506,4.2327-.2545.1983-.3526.64-.4497.9896-.2765.9957-.4908,2.0091-.7807,3.0006-.1192.4076-.3693.7769-.5598,1.1637-.1138-.0329-.2275-.0658-.3413-.0987,0-.3472-.0059-.6944.0012-1.0414.0173-.846.0404-1.6918.0616-2.5378.0139-.5537-.2378-.8557-.7977-.9688-2.0149-.407-2.9584-1.8316-3.4262-3.6859-.5077-2.0119-.3055-4.0138.0929-6.0124.0617-.3097.1131-.6215-.0687-1.0048-.2076.5993-.4545,1.1881-.6152,1.7997-.4658,1.7726-.8643,3.5634-1.3576,5.3279-.1999.7151-.5025,1.4265-.8905,2.0585-.631,1.0276-1.5569,1.1993-2.5041.463-.4663-.3624-.8777-.8665-1.1529-1.391-1.0572-2.0143-1.067-5.8392-.0374-8.1718Z"/>
      <path class="cls-1" d="M95.7524,185.8291c1.0437,1.149,1.8887,2.0793,2.8012,3.0839-.2703.2158-.5059.4039-.8066.6439.3747.6275.7412,1.2769,1.141,1.905,1.5804,2.4828.8133,5.6493-.737,7.3481-2.4897,2.7281-5.5425,4.6813-8.9752,5.9417-3.6052,1.3238-6.2638-.376-6.813-4.181-.3873-2.6831.2076-5.1937,1.6507-7.5303-.0281.2348-.0321.4756-.0886.7035-.2375.9579-.5023,1.9091-.7354,2.8681-.4004,1.6477.0974,3.0633,1.1728,4.3089.8677,1.0051,1.9586,1.4726,3.2762,1.1491,1.0915-.268,2.2035-.5273,3.231-.9668,2.5218-1.0787,4.8138-2.5582,6.8957-4.3456,1.2299-1.0559,1.2462-1.326.4369-2.7401-.7941-1.3874-1.5253-2.8138-2.3794-4.1627-.7984-1.2609-.5617-2.4706-.0703-4.0256Z"/>
      <path class="cls-1" d="M43.6342,166.7002c1.971-1.2294,3.942-2.4588,5.9923-3.7377-.2575-.3516-.4158-.5655-.5718-.7811-.5562-.7682-.5395-2.7499.093-3.4159.1896-.1996.5793-.2989.8742-.2926,1.0439.0221,2.5552,1.2323,2.8786,2.2106.3008.9097-.1657,2.3624-1.4272,2.1319-.7018-.1282-1.1455.251-1.5922.6909-1.6378,1.6131-3.6695,2.5745-5.7554,3.4398-.1136.0472-.2639.0061-.3971.0061-.0315-.084-.063-.168-.0944-.252ZM49.7862,160.127c-.1843.2798-.4234.516-.3784.6001.105.1963.329.3861.541.4422.0957.0253.4224-.3242.3907-.4166-.071-.2069-.301-.3593-.5532-.6258ZM52.1336,161.5104c-.1387-.5532-.1969-.9516-.8003-.827-.1532.6017.0869.8078.8003.827Z"/>
      <path class="cls-1" d="M30.5861,177.3307c-.0278-1.0928.6185-1.309,1.2337-1.5364,2.6451-.9779,5.2931-1.9478,7.94-2.9208.6176-.227,1.2289-.4741,1.8554-.673.2896-.092.609-.0904,1.003-.1429-.1839.8669-.8496.9763-1.3764,1.1802-2.2792.882-4.5772,1.7153-6.8617,2.584-1.2198.4638-2.4259.9634-3.794,1.509Z"/>
      <path class="cls-1" d="M78.5705,171.6085c.3436.1322.5254.1737.6774.2648,2.0016,1.1993,2.0504,1.4292.6408,3.5956-.6584-.461-1.3303-.9028-1.9624-1.3955-.1455-.1134-.2666-.444-.2067-.6019.2374-.6264.551-1.2239.8509-1.863Z"/>
      <path class="cls-1" d="M28.5474,183.6404c.3749.1793.6329.2718.8585.4153,1.8664,1.1876,1.9095,1.485.4155,3.4412-.5905-.3968-1.2338-.7542-1.774-1.229-.2146-.1886-.3391-.6757-.2609-.9598.1545-.5612.4789-1.0756.7608-1.6678Z"/>
      <path class="cls-1" d="M87.6067,193.0489c-.0305,1.5892-1.0725,2.9932-.1786,4.51.3645-.1177.6859-.2215,1.0532-.3401-.2658,1.129-.6434,1.628-1.165,1.6048-.547-.0243-.9166-.6865-.937-1.6787-.0267-1.3.389-2.7564,1.2274-4.096Z"/>
      <path class="cls-1" d="M59.8607,198.0307c.6314-.2047.9286-.3011,1.261-.4089.0153.1389.0544.2728.0371.3989-.0183.1338-.0695.2734-.1421.3877-.2897.4562-.6658.8292-1.2515.6574-.5832-.1711-.7554-.7077-.713-1.228.074-.9093.248-1.8104.6116-2.7041.0607.8924.1213,1.7847.1969,2.8969Z"/>
    </g>
  </g>
</svg>