<?xml version="1.0" encoding="UTF-8"?>
<svg id="Almaarri" xmlns="http://www.w3.org/2000/svg" viewBox="0 0 512.3363 205.5844">
  <defs>
    <style>
      

      @import url('../../CSS/SvgStyling.css');
      
    </style>
  </defs>
  
  <g class="content">

    <rect id="bg" class="bg" width="512.3363" height="205.5844"/>

    <path class="cls-1" d="M27.1263,89.9283c1.1106,6.2643,1.8719,13.4464-2.9188,17.3604-7.5823,6.1948-6.6243,14.0894-6.2191,21.5589,1.0341,19.0669,16.3878,30.6727,36.3405,28.6099,16.6233-1.7185,31.3818-8.4071,45.5907-16.6586,3.8511-2.2365,7.5433-4.6979,11.0494-7.4648,2.1805-1.7208,1.8131-3.1225-.0177-4.6598-1.4348-1.2047-3.1467-1.8379-4.942-2.2286-3.4544-.7519-6.9158-1.474-10.3837-2.1613-2.4693-.4894-4.9002-1.0957-7.21-2.1085-6.2024-2.7195-9.0366-7.0694-8.2296-13.8146,1.1328-9.4678,5.127-17.933,10.2629-25.847,3.3754-5.2012,7.4889-9.7689,12.7319-13.2168,1.9212-1.2634,3.9441-2.3328,6.1427-2.9668,3.2221-.9292,6.7125-1.8042,9.3197.9865,2.805,3.0025,3.765,6.731,2.1158,10.787-.5097,1.2536-1.0282,2.5037-1.4937,3.6366-1.3738.2857-1.4635-.7709-1.8792-1.3451-3.5263-4.87-6.7325-5.5604-12.0199-2.554-4.1329,2.3499-7.3842,5.7052-10.5228,9.1916-3.2247,3.582-5.9231,7.5348-8.1536,11.7966-3.5118,6.71-2.2893,9.8491,4.8715,12.5812,4.0691,1.5525,8.3792,2.1915,12.589,3.2095,1.6621.4019,3.3297.7837,4.9822,1.2218,4.6482,1.2322,7.1043,4.4185,7.6167,9.0498.9315,8.4191-1.2765,15.4444-8.6692,20.5389-8.9657,6.1784-18.3908,11.4767-28.3642,15.7742-2.253.9708-2.8274,2.1811-2.5959,4.3945.3935,3.7617.8591,7.4803,2.5509,10.9328,2.8842,5.8859,8.0298,7.7756,13.9633,4.9588,4.9679-2.3585,8.9966-6.0405,11.9238-10.5503,9.1266-14.0614,21.4498-24.4248,36.0552-32.306.6014-.3245,1.1464-.7585,1.7594-1.0553,2.2874-1.1074,2.1709-2.285.1958-3.6325-1.3184-.8994-2.5661-1.902-3.8761-2.8143-4.7282-3.293-9.4896-3.5402-14.2278.4299-.5034-6.2037,2.6741-11.8941,7.471-13.9996,13.7672-6.0431,27.6701-5.9071,41.716-1.0168,1.9818.69,2.7802,1.8105,2.3627,3.8326-.023.1116-.0465.2249-.0515.3382-.2201,4.9785-1.9254,8.7931-7.0397,10.7789-2.9322,1.1385-5.4884,3.2342-8.239,4.8563-1.34.7903-1.3506,1.3996-.2302,2.5665,8.6932,9.0541,21.6933,9.8861,31.9067,2.088,1.7137-1.3084,1.2527-2.7588,1.0181-4.2773-1.741-11.2728-3.8909-22.4965-5.2077-33.8177-2.4643-21.1883-4.4523-42.432-6.6406-63.6525-.0819-.7945.0496-1.7234-.3178-2.3586-3.5969-6.2183.677-11.2624,2.4145-17.7249,3.22,7.2024,6.0768,13.5468,8.8915,19.9098,1.1529,2.6062,2.2838,5.2268,3.2853,7.8931.4146,1.1038,1.1153,2.5297-.354,3.3792-1.3265.7669-2.0228-.5326-2.8252-1.2809-.3334-.3109-.6176-.6756-.9586-.9769-.673-.5945-1.3562-1.5857-2.2894-1.2144-1.1531.4587-.8911,1.7268-.7864,2.7195,2.9338,27.793,5.6892,55.6064,10.4891,83.1684.5887,3.3804,1.6599,3.8785,4.9014,3.0365,13.5486-3.5192,21.3084,4.4765,17.5911,17.9589-1.3352,4.8427-3.1534,9.8644-8.9195,10.5307-5.6363.6514-9.1366-3.3723-12.054-7.6334-.9591-1.4007-1.9583-2.9226-2.3497-4.5324-.831-3.4177-2.4703-3.018-4.8942-1.6588-3.6755,2.0611-7.3448,4.1625-11.3523,5.5732-7.3044,2.5713-13.9481,1.5174-19.7773-3.6552-3.2416-2.8764-6.3479-5.9057-9.4954-8.887-.9624-.9116-1.7609-1.5616-3.2324-.6369-8.1128,5.0986-16.2402,10.1521-23.9405,15.8905-6.1129,4.5555-9.9865,10.8907-14.3518,16.8539-2.766,3.7785-5.42,7.6432-8.9109,10.8046-8.3454,7.5577-19.4818,5.3642-24.368-4.8417-1.9347-4.0411-2.9467-8.3793-3.4265-12.8353-.1808-1.6796-.3776-3.3574-.5916-5.2528-10.0248,3.6919-19.8975,6.2662-30.369,5.5379-14.6285-1.0173-25.2004-9.8152-28.9664-23.973-2.6526-9.9718-2.0645-19.9307.0593-29.8243.8146-3.7946.7758-6.7568-1.9095-9.9835-3.343-4.017-3.8968-9.286-3.5467-14.3244,1.2387-17.8225,5.1807-35.1789,9.6041-52.4334.1069-.4169.4103-.7834.7162-1.3467,1.5793,1.5196.6581,3.1267.408,4.5454-2.0993,11.91-4.3229,23.798-6.409,35.7102-.7476,4.269-1.2856,8.5818-.7939,12.9421.2328,2.0644.7984,4.0332,1.7875,5.8582,1.0603,1.9565,2.3418,3.8973,4.8655,3.686,2.7322-.2288,4.614-1.8476,5.3713-4.5694.4972-1.7868.936-3.5899,1.401-5.3857ZM164.0202,124.9432c-5.9066-1.4161-10.8624-1.2777-15.8014-1.1946-1.9039.032-1.3904,1.0247-.5051,1.8803,1.6283,1.5738,3.3412,3.0605,4.9575,4.6462.796.781,1.4654.7826,2.3817.1968,2.6462-1.6916,5.3431-3.3038,8.9673-5.5287ZM209.4971,146.3766c-.5879,0-1.3864-.0551-2.1743.0127-1.2449.107-1.6857.7215-.7837,1.7517,2.3052,2.633,5.0167,4.5993,8.668,4.7964,2.2397.1209,2.6199-.9301,1.543-2.7111-1.5963-2.64-3.8858-4.0554-7.253-3.8496Z"/>
    <path class="cls-1" d="M376.4074,18.5752c4.1988,9.7297,8.0138,18.4998,11.7471,27.3046.4987,1.176,1.3346,2.8311-.1052,3.688-1.2149.7231-2.1901-.7583-3.1772-1.4814-1.0426-.7637-1.7354-2.8563-3.0542-2.1598-1.3973.7379-.5822,2.6994-.3972,4.1119,2.9175,22.2802,7.2152,44.3589,9.625,66.7171,1.1925,11.0647,2.0791,22.0537-1.4254,32.8906-.6677,2.0647-.3044,3.9985.716,5.9268,5.4394,10.2786,14.6104,14.3521,25.5631,15.0555,9.9225.6372,19.2562-1.9891,27.987-6.559,9.9159-5.1901,19.4887-10.9721,28.1813-18.0793,1.9832-1.6215,5.0987-3.3579,4.511-5.9126-.5336-2.3194-4.0645-2.4592-6.4306-3.1026-6.821-1.8548-13.9279-2.3485-20.7364-4.3676-2.8956-.8587-3.1852-2.131-2.6347-4.9097.7905-3.99,2.92-6.0837,6.6486-7.2342,3.5866-1.1067,7.0652-2.5712,10.5706-3.9314,2.8918-1.1221,3.4583-3.2109,1.9543-5.7482-2.3241-3.9208-4.6003-7.9005-7.2886-11.5681-4.1379-5.6451-6.1053-12.4678-10.205-18.1101-.6357-.8749,1.4946-9.4569,2.3376-10.1009.7095-.542,1.349-.1812,1.8465.2357,3.9357,3.2981,6.3721,7.7478,9.6965,11.5669-2.0117,1.3954-3.7501-1.336-4.5083.2353-.725,1.5024.9792,3.1213,1.8713,4.5371,1.1523,1.8288,2.4532,3.5736,3.7946,5.2721,7.1164,9.0107,8.4736,18.6722,3.4147,29.1065-1.6885,3.4827-1.5908,3.66,2.3345,4.6767,2.4281.6289,4.9189,1.0661,7.2849,1.8728,4.3365,1.4787,6.0001,3.907,5.9922,8.4875-.0097,5.6004-1.7104,10.595-5.8716,14.4836-12.3724,11.5616-26.2256,20.8865-42.1003,26.9303-8.6719,3.3016-17.6842,4.5733-26.8803,2.3526-11.0528-2.6691-18.6839-9.215-22.0061-20.2645-.7083-2.3557-1.3489-2.8395-3.5998-1.4788-5.6047,3.388-11.3361,2.6739-17.0027-.067-5.7193-2.7664-10.3479-7.0742-15.2689-10.9372-2.9577-2.3218-5.2346-2.5476-8.4053-.1838-6.0366,4.5003-12.5764,8.2596-19.5571,11.1909-4.9476,2.0776-10.0779,2.8219-15.4021,2.3443-9.3511-.8388-16.406-6.8165-18.787-15.9206-.4855-1.8563-.9372-3.7215-1.6-6.3614-1.2411,2.8788-1.0181,5.2207-1.3631,7.4303-.9574,6.1325-2.5173,12.051-5.624,17.4833-2.6486,4.6312-6.0495,8.5195-10.6653,11.3341-8.4817,5.172-17.2181,9.8682-26.127,14.2498-.9802.4821-2.0773.7265-3.4913,1.2074.1794-2.4798,1.857-3.2057,3.129-4.1255,11.043-7.9857,21.2337-16.8987,30.1094-27.278,8.2573-9.6561,12.4188-20.4158,10.4054-33.4101-3.5625-22.9926-6.8558-46.0297-9.9795-69.0864-1.343-9.9131-3.1816-19.8791-1.1276-29.951.2278-1.1171.4393-2.2382.7024-3.347.0702-.2958.3038-.5529.9521-1.6762.8245,4.1305,1.6553,7.4957,2.1515,10.9095,2.9371,20.2061,5.7624,40.4284,8.6947,60.6352,1.7526,12.0772,3.6311,24.1362,5.4568,36.2027.0853.5636.1925,1.1247.3129,1.6819,3.3407,15.467,14.1417,21.9498,29.4311,17.6405,5.6383-1.5891,10.8743-4.0715,15.8569-7.1466,2.4006-1.4816,2.8318-2.7905.1388-4.3522-2.2682-1.3154-4.5349-2.6376-6.7506-4.0384-3.0146-1.9058-5.8901-2.3372-8.6971.3916-.5298.5151-1.192,1.2898-2.0729.7423-.8807-.5473-.4223-1.468-.2578-2.1916.6566-2.8895,1.3728-5.7659,2.1022-8.6382.3617-1.4244,1.3051-2.3629,2.6474-2.9363,15.9588-6.8173,31.5562-5.6793,46.8445,2.1346,1.8012.9205,2.3275,2.2395,1.5079,4.2389-1.4826,3.617-2.9477,6.877-7.4642,7.895-2.5626.5776-4.85,2.4529-7.2055,3.8387-1.1183.6579-1.7586,1.5365-.2454,2.5804,4.5125,3.1127,9.0021,6.3186,14.3825,7.7503,4.4412,1.1818,8.8347.7226,13.01-1.2892,4.1695-2.009,5.5182-4.3888,4.8785-9.0957-1.6128-11.8659-3.3479-23.7152-4.9686-35.58-2.9795-21.811-6.3597-43.5689-8.7218-65.4623-.182-1.6874-.1795-3.4281-1.4894-4.7948-.6029-.6291-.5432-1.4657-.326-2.269,1.0308-3.8132,2.2473-7.5593,4.2303-12.1864ZM353.0382,128.9532c-.2678-.1923-.5748-.54-.9551-.666-4.3115-1.4282-8.725-1.5038-13.1456-.7335-1.8593.324-1.1037,1.4364-.2266,2.0806,2.0116,1.4776,4.0851,2.885,6.2261,4.1661.9964.5962,7.773-3.1891,8.0063-4.3196.022-.1067.0388-.2145.0949-.5277Z"/>
    <path class="cls-1" d="M232.4298,161.1199c-.9261-.4-.8492-1.0378-.8642-1.557-.747-25.8417-5.275-51.27-8.1972-76.8768-.921-8.0708-3.1021-14.8499-8.8669-20.7461-4.1987-4.2945-7.4853-9.4755-11.2394-14.2132-1.0965-1.3838-1.7864-3.233-3.8954-3.6248-.3989-.0741-.8979-.7981-.9659-1.2769-.5399-3.8004-1.8409-7.4897-1.8726-11.8247,6.2803,3.4989,11.6513,7.7066,17.3339,11.4275.5721.3746,1.1039.8105,1.674,1.1882.5444.3607,1.0591,1.0481,1.7903.6441.7679-.4243.3816-1.2269.3096-1.8612-.3456-3.0454-.2611-6.1867-1.8949-8.9602-.491-.8336-.5997-1.7054-.2947-2.6297,1.1703-3.5468,2.3368-7.0947,3.5143-10.6717,1.4222.4404,1.5671,1.5796,1.9627,2.4604,3.2246,7.179,6.4172,14.3725,9.5848,21.5767.503,1.144.9046,2.3456,1.2173,3.5556.2164.8373.6356,1.8923-.3327,2.4919-.7794.4826-1.46-.2965-2.1879-.5725-1.4356-.5443-2.1134-3.4007-3.6533-2.2383-1.3917,1.0506-.1361,3.4121-.1076,5.1981.154,9.6735,4.3526,17.0734,11.3685,23.7417,11.0736,10.5248,21.5579,21.6846,31.6875,33.1498,4.5632,5.1649,8.4328,10.7583,11.1115,17.1531,1.5831,3.7792,1.828,7.7422,1.9937,11.7381.0381.9184.0601,2.0439-1.099,2.1307-1.1075.083-.9146-1.1127-1.073-1.8201-1.4139-6.3156-4.9886-11.4605-8.9119-16.3956-12.2303-15.3849-26.802-28.5384-40.5352-42.9954-.9004,1.6481-.3337,2.862-.1737,4.0025,2.4891,17.7406,4.9505,35.4776,6.0648,53.3812.4522,7.2649-.0977,14.3527-1.9344,21.3645-.2815,1.0745-.3603,2.2761-1.513,3.0601ZM219.0735,56.5349c.1729-7.2813-.692-8.8095-5.0393-9.5148-.5258-.0853-1.2711-.2143-1.5812.0575-.6503.57-.0168,1.2559.3033,1.7664,1.663,2.6524,3.6079,5.0794,6.3173,7.6909Z"/>
    <path class="cls-1" d="M417.9883,159.627c-.2286-4.4934-.4416-8.9877-.6883-13.4802-1.2524-22.8045-4.6616-45.3794-7.2684-68.0394-1.4861-12.9184-3.0116-25.8323-4.562-38.7431-.2828-2.3552-.3114-4.803-1.8565-6.8418-.6081-.8024-.4672-1.7288-.166-2.623,1.1977-3.5552,2.4012-7.1085,3.5778-10.5891,1.1381-.1464,1.2862.6273,1.5327,1.1919,3.4679,7.9423,6.9202,15.8914,10.3611,23.8453.3158.7301.5735,1.493.7763,2.2623.2508.9514.9048,2.1068-.1912,2.7928-.8748.5475-1.6961-.295-2.4293-.8245-.3693-.2667-.6986-.5942-1.0845-.8314-1.0156-.6241-1.2946-2.8454-2.6476-2.1425-1.45.7532-.6934,2.7058-.5283,4.0929,2.494,20.9539,5.1615,41.8878,7.5323,62.8553.9733,8.6074,1.4172,17.2788,1.9481,25.9306.3366,5.4861-.0992,10.9456-1.4803,16.2954-.4487,1.7382-.803,3.5244-1.8806,4.9967-.315-.0494-.6301-.0987-.9451-.1481Z"/>
    <path class="cls-1" d="M498.1825,152.2094c-.4051-6.461-.6153-12.4708-1.1853-18.4463-2.4375-25.5523-4.9961-51.0931-7.4763-76.6414-.6723-6.9254-1.2068-13.8641-1.8448-20.7929-.1567-1.7016-.0603-3.5946-.7867-5.0461-2.8434-5.6815-.2915-10.5602,1.8979-15.5913,1.2877.4485,1.2959,1.7453,1.7089,2.7022,2.7109,6.2819,5.3666,12.5878,8.0076,18.8996.4829,1.1541.8624,2.3578,1.2055,3.5625.4555,1.5992,1.5404,3.8967.0398,4.6712-1.5044.7765-2.2944-1.657-3.2334-2.8642-.4094-.5264-.8335-1.0413-1.5039-1.8766-1.1564,1.9132-.7334,3.6889-.6125,5.3855,1.4271,20.036,4.3955,39.9122,6.2274,59.9073.8644,9.4354,1.5026,18.8765,1.6215,28.3538.0606,4.8333-.6897,9.5509-1.7761,14.2256-.2666,1.1471-.307,2.5145-2.2897,3.5511Z"/>
    <path class="cls-1" d="M54.5325,63.6041c-3.8374-3.9263-4.8063-4.1348-7.998-1.977-.7049-.3395-.5338-1.0579-.2986-1.4173,2.9842-4.5623.5892-8.6886-.979-12.8799-.439-1.1733-.7093-2.5161-1.4713-3.4391-1.3892-1.6827-.7575-6.1102-5.1147-4.055-2.0068-2.0873-5.2077-3.4231-5.5695-6.5649-.2988-2.5946-.7751-6.3853,1.5349-7.5448,1.848-.9276,3.6177,2.5018,5.1047,4.2401,3.5878,4.1941,6.1094,9.0403,7.9686,14.2464.4845,1.3567.7303,2.8763,1.8645,4.0039,1.1086-.6278.5459-1.633.5492-2.4198.0274-6.6265.257-13.2415,1.954-19.6839.8815-3.3466,2.0261-6.9396,6.226-7.2097,4.0454-.2602,5.955,3.0039,7.5195,6.0403,1.4588,2.8312,2.5702,5.9215-.0158,9.0492-1.8873-1.4474-2.0526-3.8171-3.3245-5.5059-1.505-1.9983-3.1239-3.8274-5.8972-3.2273-2.4796.5365-3.236,2.6505-3.6727,4.8635-1.4435,7.3143-.9858,14.7682-1.597,22.1443-.119,1.4358.8135,2.1646,2.0401,2.8232,1.5923.8551,3.0894,1.9333,4.4964,3.0768,2.0292,1.6491,3.3831,3.4811,2.488,6.4861-.8974,3.0129-2.5686,4.3383-5.6551,4.9591-13.6468,2.745-11.009,3.7407-9.6649,13.5032,1.3361,9.705,3.8423,19.2324,4.6304,29.0271.2683,3.3341.5767,6.6992-.3619,10.1672-1.5954-.8644-1.417-2.2836-1.5189-3.3971-1.1333-12.3892-3.5656-24.5862-5.3492-36.8782-.2446-1.6857-.3498-3.4049-.3575-5.1094-.0287-6.4009,2.5477-9.9907,8.5566-12.0451,1.1755-.4019,2.3622-.7713,3.9129-1.2758Z"/>
    <path class="cls-1" d="M362.449,43.3916c.6151,3.3897-.2362,5.7688-3.0015,7.5783-18.396,12.0373-37.0518,23.6783-55.1604,36.1561-1.2975.894-3.5273,2.9883-4.1963,1.8391-1.1276-1.9371-.1966-4.6313,1.2962-6.6221.5229-.6973,1.4163-1.1329,2.1758-1.6345,19.0132-12.5578,38.2156-24.8196,57.6037-36.7903.2746-.1695.6033-.2515,1.2824-.5265Z"/>
    <path class="cls-1" d="M170.3021,56.7942c.4087,2.2525-.157,3.8335-1.9946,5.0359-12.2245,7.9991-24.6218,15.7348-36.6554,24.0266-.8622.5941-2.344,1.9858-2.7885,1.2221-.7493-1.2873-.1307-3.0776.8614-4.4005.3475-.4634.9412-.7528,1.4459-1.0862,12.6347-8.3449,25.3951-16.4932,38.279-24.448.1825-.1127.4009-.1671.8522-.3499Z"/>
    <path class="cls-1" d="M247.2459,157.3829c-.4844-.6534-.2822-1.2081-.0807-1.7295,1.4246-3.6866,2.1734-7.0565-2.3785-9.3825-1.7855-.9124-1.8102-3.0756-1.4104-4.9368,1.533-7.1351,6.3625-11.3812,12.7925-13.9643,2.2718-.9126,4.5702-.458,5.5373,2.3565.6502,1.8922-1.007,6.1392-2.6305,6.9747-.9174.4722-1.5294.0209-2.1095-.5478-2.6367-2.5852-4.7695-.8195-6.85.8343-1.2382.9843-1.3879,1.9758.2672,2.8454,3.6126,1.898,7.2565,2.6013,11.1037.6991,1.9368-.9577,3.8986-1.8677,5.8716-2.7488,1.8819-.8404,2.3169.075,1.8408,1.7122-.6828,2.3483-1.8116,4.5567-3.9461,5.8136-5.9015,3.4752-11.3822,7.5339-16.8344,11.6466-.3276.2471-.8032.298-1.173.4272Z"/>
    <path class="cls-1" d="M311.8894,43.1898c1.1647-5.1564,1.2427-10.0443,1.8353-14.861.432-3.5109.8383-7.0333,2.4348-10.2605,1.793-3.6244,4.4177-4.0679,7.3381-1.2847,3.5374,3.3711,4.8754,9.1231,3.0445,13.5706-1.9421-1.3709-2.0059-3.787-3.2408-5.4676-1.1715-1.5945-1.8424-4.0653-4.3679-3.7473-2.463.3101-2.8609,2.6779-3.4253,4.6375-1.5389,5.3428-.8287,10.8831-1.3511,16.3189-.7422,7.7241-3.6371,14.2623-9.7762,19.2381-4.3385,3.5164-8.5308,7.2185-13.3082,10.1533-.6273.3853-1.1598,1.1864-2.3007.657.2156-1.6303,1.6445-2.2834,2.7064-3.1486,5.5679-4.5368,11.0456-9.166,16.1773-14.2062,2.4906-2.4462,3.1689-5.0264,1.9532-8.3354-1.218-3.3148-2.1221-6.7633-3.9318-9.8166-1.0791-1.8205-1.3609-3.9546-4.7436-4.185-3.8103-.2595-6.2361-8.3321-4.1254-11.9101,1.2692-2.1517,2.1477-.0973,2.7643.5554,4.9433,5.2332,8.0545,11.5459,10.4418,18.2587.4106,1.1546.3861,2.4925,1.8754,3.8334Z"/>
    <path class="cls-1" d="M52.9689,193.3216c-.4855-.3043-1.062-.6463-1.6188-1.0181-2.3659-1.5796-4.7853-3.0878-7.0699-4.7779-1.9067-1.4105-3.1114-1.1533-4.3621.9007-2.9594,4.8598-3.032,4.8162-7.9783,1.9729-.5915-.34-1.1833-.6799-1.7669-1.0332-6.0743-3.6767-5.9562-3.6088-2.3756-9.7425,1.2493-2.14,2.3729-1.9544,4.0384-.88,2.3905,1.5422,4.8592,2.969,7.1939,4.59,1.9844,1.3778,3.1573,1.3066,4.4797-1.0351,2.9652-5.2508,3.107-5.1709,8.2624-1.5964.8414.5835,1.733,1.1083,2.5103,1.7677,1.3111,1.1123,4.0169,1.3856,3.6097,3.5364-.5037,2.6613-2.6096,4.7271-4.1695,6.9584-.1078.1542-.3857.1895-.7534.357Z"/>
    <path class="cls-1" d="M494.8177,178.9693c-.9283,2.304-2.4592,4.428-4.3091,6.2819-.7048.7063-1.4352-.2526-2.0849-.6252-2.6654-1.5286-5.3752-2.9911-7.9534-4.6564-1.5971-1.0315-2.4234-.8534-3.4827.8013-3.0917,4.8297-3.1756,4.7783-8.4066,2.0477-.8069-.4213-1.6791-.7679-2.385-1.3222-1.4525-1.1407-4.3871-1.0867-4.2734-3.3222.124-2.4385,1.8729-4.5726,3.4108-6.5645.845-1.0944,1.7857-.637,2.7154-.0958,2.6553,1.5458,5.354,3.022,7.9571,4.651,1.924,1.204,3.0365,1.0444,4.3367-1.0868,3.5118-5.7564,2.2629-5.3206,7.9501-1.9275,1.8511,1.1044,3.555,2.458,5.3072,3.7241.6444.4657,1.2855.9746,1.2177,2.0946Z"/>
    <path class="cls-1" d="M349.9012,107.8132c-2.7303-3.6913-2.9229-8.1895-5.1817-11.752-1.0404-1.641-.8101-4.0709-4.4704-3.5853-3.4377.4561-6.3935-8.4489-4.1573-11.5954,1.0665-1.5007,1.833-.1113,2.4439.4362,4.6118,4.1327,7.5781,9.3485,9.6752,15.1044.4592,1.2602.8543,2.5438,1.4825,4.4269,1.1646-1.8929.9313-3.4585,1.0035-4.9169.2709-5.4698.4599-10.9445,2.1414-16.228.8397-2.6382,2.1731-5.0298,5.146-5.3145,2.9632-.2839,4.7299,1.8967,6.1563,4.1888,2.2703,3.6482,2.3616,6.2097.265,9.2352-1.1379-1.9012-1.7729-3.9839-3.2309-5.5651-1.2475-1.3529-2.387-2.9997-4.5439-2.2621-2.1483.7347-3.2672,2.4893-3.4592,4.6854-.4665,5.3368-.8134,10.684-1.2227,16.0259-.1811,2.3636-.0815,4.8096-2.0477,7.1165Z"/>
    <path class="cls-1" d="M128.2753,45.0139c.4205-4.8906.763-9.305,1.1977-13.7102.1674-1.6968.4929-3.3835.8375-5.0561.6393-3.1028,1.6098-6.1261,5.1061-7.0202,2.7771-.7102,4.4562,1.2887,5.9,3.2416,2.1701,2.9352,3.1057,6.1147,1.5865,10.2568-1.4859-2.2136-2.5345-3.9495-3.759-5.5507-1.1966-1.5647-2.6568-3.0907-4.8552-2.5133-2.1743.571-2.7136,2.5739-3.074,4.5321-.9538,5.1824-.8094,10.446-1.1457,15.6744-.1094,1.7017-.246,3.4126-.5541,5.0855-.1282.6962-.2166,1.769-1.2016,1.8676-.9341.0935-1.3369-.813-1.6264-1.5148-1.2143-2.9443-2.1514-6.0218-3.5857-8.8499-.9712-1.915-1.2267-4.2726-4.9298-4.2337-3.8054.0399-6.1959-8.3935-3.7925-11.7209,1.1447-1.5849,1.8456.031,2.3539.5322,4.3608,4.3003,7.5591,9.3681,9.6205,15.1468.4084,1.1449.4299,2.4643,1.9217,3.8328Z"/>
    <path class="cls-1" d="M166.7309,170.1195c-1.8733,7.8554-11.4503,15.1643-18.3379,14.8349-4.9287-.2358-6.7431-2.6985-5.4918-7.5.287-1.1014.61-2.2037,1.039-3.2555.544-1.3339.3805-2.1147-1.2115-2.4142-2.8495-.5362-2.9227-2.3559-2.0371-4.631,1.0183-2.6161,2.5554-4.8371,4.7811-6.5413.8977-.6874,1.9382-1.4884,2.9583-.185.8025,1.0253,1.2972,2.2308.63,3.4937-.6417,1.2149-1.6852,1.5511-2.8185.6221-.9762-.8002-1.6776-.3468-2.3691.3332-.5243.5156-.7308,1.1875-.455,1.8737.4475,1.1133,1.4825.872,2.3572.8527,1.9574-.0432,3.8408-.3599,5.5605-1.4314.6066-.378,1.4662-1.0955,2.1008-.1843.4998.7176-.0529,1.5472-.4388,2.2314-.5808,1.0298-1.5743,1.6125-2.5719,2.1845-1.4821.8497-2.9827,1.668-4.1364,2.991-1.242,1.4243-2.4097,2.9251-1.4778,4.8922.8762,1.8496,2.6502,2.4596,4.5767,2.4236,6.0033-.112,10.5989-3.0806,14.5259-7.332.7595-.8223,1.4666-1.6929,2.816-3.2583Z"/>
    <path class="cls-1" d="M347.0716,165.9697c-.147,2.7206-1.6028,3.7961-3.1183,4.781-1.527.9924-3.1636,1.8417-4.3236,3.2945-1.1328,1.4186-2.4765,2.8242-1.5131,4.8819,1.0413,2.2239,3.0325,2.589,5.1811,2.4329,5.9184-.4298,10.5075-3.3667,14.3733-7.6797.7273-.8115,1.0181-2.0852,2.3876-2.3745.5303,1.4146-.3982,2.3726-1.0186,3.3684-3.3489,5.3747-8.217,8.7291-14.2212,10.5134-1.7822.5297-3.5892.5446-5.3815-.0467-3.0635-1.0107-4.1804-2.8889-3.4589-6.0127.2807-1.2155.591-2.4614,1.1382-3.5697.9433-1.9106,1.0726-3.1758-1.5745-3.4929-1.9211-.2301-2.3202-1.6714-1.8709-3.3133.8734-3.1922,2.8195-5.6743,5.4325-7.639.8546-.6426,1.8717-1.0239,2.804-.1652,1.1022,1.0153.8597,2.2667.3401,3.4702-.6017,1.3932-1.5201.9971-2.4884.401-1.0924-.6724-1.9546-.1534-2.7142.6384-.4957.5168-.8168,1.1296-.4719,1.8463.5393,1.1209,1.6242,1.1378,2.6427,1.1518,2.69.0369,4.9815-1.3668,7.8555-2.4864Z"/>
    <path class="cls-1" d="M255.6855,80.7941c.5667-6.6509-.4438-12.6313-2.9915-18.3387-1.3126-2.9405-2.8099-5.7251-5.1165-8.0243-.5525-.5507-1.2776-1.1998-1.3777-1.8835-.3339-2.2806-.4579-5.3542,1.1799-6.3955,1.597-1.0154,3.0034,1.7593,3.9781,3.2755,5.7571,8.9558,8.7245,18.5303,5.9922,29.243-.1611.6317-.1398,1.3878-1.6646,2.1235Z"/>
    <path class="cls-1" d="M491.0602,117.5776c-.9914,2.5367-2.1895,5.2766-4.4174,7.2832-.9875.8894-11.5747-5.3319-11.2306-6.5857.7866-2.8658,2.4772-5.3309,4.4649-7.5368.5401-.5993,1.2971-.1438,1.8868.182,2.6864,1.4844,5.368,2.9783,8.0308,4.5045.7022.4025,1.2633.9774,1.2654,2.1528Z"/>
    <path class="cls-1" d="M94.4241,21.0831c.7604,1.4738-.1441,2.8243-.4718,4.1721-1.3185,5.4218-2.773,10.8147-3.1651,16.4105-.1602,2.2863-.025,4.563.8089,6.7333.6184,1.6096,1.6674,2.7586,3.5457,2.655,1.9206-.106,2.7365-1.3881,3.0608-3.1185.2412-1.2867.5055-2.569,1.0292-3.8004,1.1489,4.2195.4335,8.2536-1.5058,11.9886-1.3825,2.6626-4.6625,2.4157-6.72-.3728-2.3416-3.1735-3.0249-6.926-2.8064-10.7086.4559-7.8939,2.5334-15.4821,4.9801-22.9679.1752-.536.4221-1.0726,1.2444-.9912Z"/>
    <path class="cls-1" d="M267.0084,18.2618c-.2255,2.6157-.0825,4.3736-1.8395,5.4124-8.9871,5.3135-17.9877,10.6043-27.1784,16.0179-.4658-2.9935.2196-4.9039,2.8655-6.3752,8.533-4.7451,16.9358-9.7243,26.1524-15.055Z"/>
    <path class="cls-1" d="M444.4628,43.3747c.5072,3.3434.8378,6.7807-.8739,9.9041-2.0455,3.7325-4.8985,3.9003-7.3743.4802-1.2877-1.7788-2.1911-3.7753-2.4747-5.9327-1.3512-10.2783,2.6794-19.5334,5.3442-30.0526.8533,3.0575.8244,3.0501.0735,6.018-1.5326,6.0577-3.3498,12.0659-3.2707,18.4133.0186,1.4903.1048,2.9611.7132,4.3444.6681,1.5192,1.5293,2.8217,3.4489,2.8291,2.0883.0081,2.9896-1.3971,3.5974-3.0833.3418-.9484.5487-1.9454.8165-2.9205Z"/>
    <path class="cls-1" d="M430.4305,111.0699c1.4224-2.1431,3.4755-2.6535,5.1817-3.6447.9831-.5711,2.0606-.9957,2.9894-1.6395.7813-.5415,2.0903-1.0307,1.6192-2.2519-.3789-.9823-1.6197-.4934-2.4735-.6134-2.3911-.336-4.7801-.1528-7.1596.1929-1.4149.2056-1.9859-.2364-1.2931-1.6751,1.0195-2.1176,2.2642-4.0888,4.7957-4.4617,3.282-.4835,6.5951-.4842,9.8792.108,2.395.4319,2.9799,1.6338,1.7992,3.8633-3.203,6.0482-8.4211,8.9558-15.3383,10.122Z"/>
    <path class="cls-1" d="M469.5982,48.9132c.7568-3.2353,1.228-5.3958-1.359-6.821-.8505-.4685-.9476-1.7798-.6357-2.8413,1.1127-3.7864,3.7229-6.1782,7.2821-7.5967,1.0975-.4374,2.2647-.4664,2.9805.8194.5648,1.0146.3735,1.9898-.1843,2.9191-.6892,1.1482-1.6299,1.5945-2.8555.8015-1.8011-1.1655-3.2591.0889-3.57,1.3114-.4878,1.918,1.6248,1.6957,2.7869,1.9771,2.2734.5504,4.2093-.5965,6.1665-1.5316.6515-.3113,1.3482-1.2622,2.0594-.3368.5638.7335-.0771,1.5257-.4939,2.1791-.3633.5694-.7837,1.1662-1.3221,1.5496-3.3253,2.3673-6.6911,4.6775-10.8548,7.5704Z"/>
    <path class="cls-1" d="M460.5316,28.5711c-.3203-2.5809.0536-4.4941,1.9769-5.5044,6.8986-3.6241,13.8662-7.1168,21.091-10.8038.278,2.9233-.5782,4.7488-2.6985,5.8491-6.6405,3.4459-13.3084,6.8388-20.3694,10.4591Z"/>
    <path class="cls-1" d="M161.6229,50.4331c.4051-8.4572-2.983-15.5595-7.2019-22.4063-.3494-.5671-.6634-1.2507-.7006-1.897-.0916-1.5938-.0437-3.669,1.3568-4.2602,1.464-.6181,1.9708,1.4892,2.6118,2.5364,3.426,5.5961,5.7557,11.5774,5.9403,18.2484.0755,2.729-.2812,5.3397-2.0064,7.7788Z"/>
    <path class="cls-1" d="M69.902,126.994c.7071,4.0971.1159,7.088-1.1263,9.9348-1.4286,3.2741-4.5385,3.5154-6.6422.5745-1.0813-1.5117-1.5592-3.2536-1.8164-5.093-1.2128-8.6755,2.3762-16.4299,4.5399-24.4781.8617,1.5427.2531,3.0098-.0943,4.4595-1.0887,4.5428-2.1747,9.0839-2.5075,13.7622-.0484.6797-.0734,1.3729.0021,2.0474.256,2.2865.4184,5.0046,3.1648,5.4337,3.0583.4779,2.8296-2.6043,3.6483-4.4426.1773-.3981.311-.8157.8316-2.1985Z"/>
    <path class="cls-1" d="M189.4526,170.687c-.0822-2.0023.8564-3.3128,1.7109-4.6169,1.151-1.7566,2.5565-3.6016,4.9191-2.7519,2.2979.8264,2.467,3.2026,2.245,5.2314-.6459,5.9022-4.0052,10.3197-8.4687,13.88-2.2421,1.7884-4.6654,3.5168-7.8852,4.1419.1426-1.7373,1.4062-2.1722,2.3073-2.9004,2.5606-2.0692,5.1774-4.0749,7.6475-6.2473.9997-.8792,1.8204-2.0468,2.4654-3.2241.8785-1.6036.9638-3.2807-.5598-4.6655-1.8303-1.6637-2.7837.4157-4.3815,1.1526Z"/>
    <path class="cls-1" d="M294.6939,174.6289c.509-2.9214,1.577-4.7426,3.0148-6.3795.9336-1.0629,1.9678-1.9997,3.5171-1.471,1.4223.4854,2.1117,1.6516,2.3969,3.0707.5203,2.589-.2711,4.9988-1.2969,7.2691-2.9465,6.5219-8.0041,10.7434-14.9758,13.4536-.0078-1.9301,1.2268-2.4245,2.1147-3.112,2.7798-2.1523,5.8348-3.9651,8.2016-6.6231.7525-.845,1.5829-1.6816,2.0911-2.6695.8454-1.6432,1.4647-3.3892-.2891-4.9588-1.8917-1.6931-3.0319.0405-4.7745,1.4204Z"/>
    <path class="cls-1" d="M475.9114,61.5397c.2408,3.6619-.7971,7.1532-1.5685,10.6777-.6848,3.1286-1.2578,6.2531-1.0176,9.4725.1534,2.0555.6817,3.9414,3.0715,4.309,2.5655.3946,2.8352-1.6943,3.3925-3.421.162-.502.4301-.9697,1.0605-2.3583.0787,3.8849-.1254,6.6641-1.3397,9.2621-1.2529,2.6804-3.2183,3.057-5.4125,1.0406-1.761-1.6184-2.6465-3.801-2.7285-6.0925-.2843-7.9402,1.3766-15.5477,4.5425-22.89Z"/>
    <path class="cls-1" d="M260.909,158.2656c.2101,2.3767-.8151,3.8198-2.5274,4.9495-5.7906,3.8202-11.5641,7.6664-17.3687,11.4651-.6893.4511-1.5124,1.5179-2.3275.6761-.7447-.7691-.3257-2.0034.1219-2.8953.3358-.6691.9842-1.2662,1.6309-1.6811,6.3165-4.0518,12.659-8.0631,19.0071-12.0654.3482-.2195.8119-.2558,1.4637-.4491Z"/>
    <path class="cls-1" d="M221.0766,96.1375c.5586,2.0059.478,3.4095-1.0116,4.3832-6.7434,4.4084-13.4938,8.8061-20.4811,13.3637-.7523-2.4141-.4246-4.0077,1.5336-5.2244,6.5661-4.0797,13.0992-8.2126,19.9591-12.5226Z"/>
    <path class="cls-1" d="M171.534,91.5453c.9915,3.0269.5757,5.8993-.5833,8.679-.5952,1.4275-1.4446,2.6686-3.0991,2.8529-1.8603.2072-2.8832-1.0924-3.7503-2.479-.9211-1.473-1.4509-3.1082-1.5524-4.8313-.4899-8.3174,1.761-16.1137,4.9584-23.7187-.8059,3.623-1.6294,7.2422-2.4121,10.8703-.6488,3.0073-1.1662,6.0334-1.0185,9.1328.1204,2.5286.5823,5.0309,3.6337,5.2962,2.8448.2473,2.9007-2.3255,3.4368-4.2497.1431-.5135.2586-1.0348.3868-1.5525Z"/>
    <path class="cls-1" d="M444.107,141.7181c.4662,3.5753-.2548,6.4327-1.3667,9.1633-1.1956,2.9362-3.8895,3.1813-5.7564.6199-.8866-1.2165-1.3404-2.6553-1.5357-4.1286-.7794-5.8797,1.2472-11.0993,3.8974-16.1803.5275,1.5544-.157,2.9112-.5954,4.3115-.442,1.412-.8197,2.844-1.2527,4.2589-.6602,2.1571-.6742,4.2656.4322,6.293.5055.9263,1.1637,1.8368,2.2882,1.8322,1.2294-.005,1.5505-1.1205,1.956-2.0811.5089-1.2058.4577-2.6547,1.9331-4.0888Z"/>
    <path class="cls-1" d="M354.8324,27.4089c.3576,3.5947-.2762,6.765-1.811,9.6869-1.0801,2.0564-3.954,1.8988-5.3217-.2353-1.1187-1.7456-1.6882-3.7275-1.7415-5.8265-.1304-5.1262,1.6698-9.7382,3.6686-14.8782.5179,2.3486.4331,2.3257-.065,4.1756-.7906,2.9367-2.3865,5.7558-1.6745,8.9476.3689,1.6537.7596,3.6326,2.8342,3.8209,2.2648.2056,2.0047-2.0521,2.6219-3.3934.3124-.6788-.0296-1.6484,1.4891-2.2977Z"/>
    <path class="cls-1" d="M303.598,98.4842c-.7522,2.4778-1.5542,4.9418-2.2423,7.4373-.6456,2.3409-.9435,4.7064.27,6.9923.4968.9357,1.1111,1.8263,2.2725,1.8312,1.2467.0052,1.6593-1.0693,2.0549-2.01.4606-1.0953.8294-2.2291,1.5393-4.1699.8977,4.2798-.0766,7.3961-1.5743,10.2469-1.065,2.0271-3.0027,1.7954-4.6424.4093-.9809-.8292-1.525-2.0381-1.7365-3.273-1.0774-6.2899.2104-12.1337,3.1824-17.6296.2921.0552.5843.1104.8764.1655Z"/>
    <path class="cls-1" d="M223.9658,173.6493c.6846-1.1415.9488-1.7989,1.3976-2.2863,1.0225-1.1105,1.8399-3.1599,3.7021-2.2534,1.8917.9209,1.9058,3.0481,1.3987,4.8645-1.5875,5.686-5.5888,9.0659-11.239,10.7359,1.5034-1.2205,3.0328-2.4107,4.5021-3.671,1.2079-1.0361,2.4246-2.0829,3.4889-3.2594.9706-1.073,1.3328-2.3826.5477-3.7833-.8603-1.5351-2.1465-.5812-3.7981-.347Z"/>
  </g>
</svg>