<?xml version="1.0" encoding="UTF-8"?>
<svg id="Astrology2" xmlns="http://www.w3.org/2000/svg" viewBox="0 0 304.64 304.6438">
  <defs>
    <style>
      

      @import url('../../CSS/SvgStyling.css');

      
    </style>
  </defs>
  
  <g class="content">

    <rect id="bg" class="bg" width="304.64" height="304.6438"/>


    <path class="cls-1" d="M9.4054,147.4799c.4747-1.8513.3225-3.7589.4634-5.6369,1.19-15.8663,4.8286-31.1396,11.1905-45.7197,13.6806-31.3526,35.7377-54.9471,66.0804-70.7239,15.2824-7.9461,31.5483-12.7908,48.6664-14.7642,3.2156-.3707,6.4357-.6541,9.6692-.7929.3378-.0145.7196.1175.9897-.2205h11.7099c1.5787.4957,3.2262.3164,4.8371.4445,28.3594,2.2557,53.9435,11.8806,76.4254,29.2953,26.9389,20.867,44.304,48.0111,52.0919,81.2226,2.0897,8.9116,3.2461,17.9503,3.4856,27.1037.0078.2975-.0847.6308.2197.8564v7.4518c-.5029,2.0785-.3068,4.2119-.4601,6.3165-1.6616,22.8102-8.2198,44.1062-20.1727,63.5929-20.4992,33.4196-49.8858,55.0069-87.8254,64.8355-15.3181,3.9683-30.9247,5.1189-46.6924,3.6953-32.3966-2.9251-60.7165-15.2879-84.6365-37.3047-22.5994-20.8013-36.8702-46.4456-43.1177-76.5277-1.5525-7.4751-2.4778-15.0338-2.702-22.6716-.009-.3073.0317-.627-.2224-.8717v-9.5809ZM152.2607,292.0368c75.5332.03,138.405-60.0174,139.727-137.303,1.3315-77.834-60.8856-141.2328-138.4685-141.8648C75.4502,12.2331,13.4106,74.6538,12.5741,150.8277c-.8598,78.3005,62.3627,141.216,139.6866,141.2091Z"/>
    <path class="cls-1" d="M152.4075,22.9292c72.2685.2321,130.6161,58.7421,129.4307,131.6607-1.1386,70.0388-57.8745,127.0547-129.4282,127.094-72.0244.0395-129.7662-58.0192-129.5168-129.8143.2477-71.3278,57.7647-128.7098,129.5144-128.9404ZM203.1087,152.3186c-.1023-28.2405-22.6823-50.3042-49.9389-50.7527-27.6859-.4556-51.4659,21.5174-51.6087,50.6792-.1373,28.0517,22.5068,50.5557,50.6496,50.6052,28.172.0495,50.8979-22.5128,50.898-50.5317ZM106.3624,124.0462c.4956-.0882.5885-.5267.7925-.8452,4.1261-6.4398,9.3691-11.7752,15.8288-15.876.9753-.6191.9128-1.0668.3968-1.9581-11.6253-20.0806-23.2314-40.1724-34.7897-60.2916-.6776-1.1795-1.1171-1.2622-2.2407-.5648-9.6568,5.9942-18.4104,13.0828-26.1773,21.3819-6.0466,6.4609-11.3388,13.4931-15.9385,21.0542-.5453.8964-.4699,1.3113.4721,1.7811,1.3447.6707,2.6137,1.4926,3.9199,2.2414,18.8624,10.8138,37.7255,21.6263,56.589,32.4384.3835.2198.7723.4303,1.147.6387ZM242.4825,153.9104c-11.7077,0-23.4155.0105-35.1231-.02-.9329-.0024-1.2884.1776-1.3365,1.2022-.3323,7.0759-2.0266,13.8213-5.0947,20.2151-.397.8274-1.2074,1.7883-1.0257,2.4757.2175.8229,1.5063,1.0897,2.3416,1.5725,19.7496,11.4142,39.512,22.8063,59.2473,34.2452.9904.5741,1.3487.3064,1.7722-.5502,1.0987-2.2221,2.3-4.3947,3.3573-6.6357,7.6268-16.1656,11.699-33.1774,12.1404-51.0585.0286-1.1607-.2254-1.4806-1.4219-1.4756-11.6188.0488-23.2379.0293-34.8569.0293ZM260.9223,87.6288c-.1478-.245-.3005-.5134-.4675-.7727-1.3194-2.0481-2.5875-4.1317-3.9713-6.1354-10.2488-14.8403-23.0837-26.9426-38.5099-36.295-.6868-.4164-1.1255-.7724-1.7205.2615-11.6872,20.308-23.4123,40.5942-35.1593,60.8676-.488.8423-.3965,1.2035.4198,1.7206,6.4265,4.0707,11.6924,9.3339,15.7584,15.7575.6583,1.0401,1.1005.9851,2.0312.4459,12.3408-7.1497,24.7026-14.2632,37.0598-21.3846,7.8669-4.5336,15.7362-9.0629,23.5982-13.6051.3573-.2064.866-.2793.961-.8605ZM62.0973,150.6741c11.7041,0,23.4082-.0125,35.1122.022,1.0177.003,1.3348-.2457,1.3795-1.3046.3166-7.4972,2.221-14.6018,5.6657-21.2573.6463-1.2488.3677-1.6274-.7128-2.2428-8.4643-4.8209-16.8907-9.7083-25.3309-14.5717-11.7404-6.765-23.4876-13.5182-35.2129-20.3095-.8002-.4635-1.1561-.4247-1.5688.4252-1.0435,2.1491-2.2287,4.2298-3.2591,6.3847-7.7097,16.1243-11.8475,33.1179-12.2978,50.9924-.0559,2.2176-.2505,1.8526,1.7774,1.8551,11.4824.0136,22.9649.0066,34.4473.0066ZM150.7686,62.5739c0-11.6166-.0158-23.2332.025-34.8497.004-1.132-.2246-1.5468-1.4453-1.4921-4.8258.2166-9.6387.5161-14.4311,1.1659-15.3472,2.0811-29.7993,6.8668-43.4225,14.213-.8712.4698-.9702.8003-.459,1.6804,11.7217,20.1792,23.4173,40.3735,35.0698,60.5928.6072,1.0537,1.033,1.0693,2.0214.5609,6.632-3.4116,13.7043-5.2645,21.1457-5.5997,1.3381-.0603,1.5281-.4942,1.5234-1.6879-.0457-11.5277-.0274-23.0557-.0275-34.5836ZM153.8714,62.4086c0,11.706.0111,23.412-.0206,35.1179-.0026.955.1989,1.2406,1.2218,1.288,7.4376.345,14.5293,2.1125,21.1739,5.508,1.1283.5766,1.6933.6144,2.4192-.6468,11.5772-20.1145,23.2089-40.1977,34.864-60.2672.569-.9798.582-1.3754-.5059-1.9664-17.9994-9.7782-37.2339-14.8946-57.6982-15.4731-1.153-.0326-1.4878.2623-1.4829,1.4548.0478,11.6614.0288,23.3231.0288,34.9848ZM242.3533,150.8069c11.6172,0,23.2345-.025,34.8514.0343,1.3251.0068,1.5967-.3688,1.5586-1.6167-.1559-5.1-.5754-10.1712-1.3217-15.2178-2.2188-15.0027-6.9889-29.1414-14.2861-42.4381-.5065-.923-.8619-.9075-1.6832-.4323-20.2393,11.7106-40.49,23.4014-60.7577,35.0628-.9001.5179-.9705.9163-.5088,1.7951,3.4269,6.523,5.2702,13.4987,5.8148,20.832q.1471,1.9806,2.1463,1.9808c11.3955.0001,22.791,0,34.1864,0ZM153.8713,242.2838h.045c0,11.573.024,23.1461-.0337,34.7188-.0064,1.2869.4121,1.5172,1.5605,1.4818,4.6099-.142,9.1997-.476,13.7739-1.0761,15.4943-2.0328,30.0936-6.8085,43.8446-14.2162.8126-.4377,1.1732-.722.5731-1.7535-11.7811-20.2508-23.5153-40.529-35.2408-60.8121-.4246-.7345-.7043-.9785-1.5919-.508-6.7554,3.5804-13.9825,5.5062-21.6153,5.8431-1.119.0494-1.3448.4066-1.3411,1.4691.0411,11.6176.0258,23.2354.0258,34.8532ZM260.9088,216.9922c-.0934-.4768-.5748-.588-.9262-.7905-20.2988-11.6978-40.6058-23.3813-60.8937-35.0979-.8793-.5078-1.226-.3422-1.7353.465-4.0601,6.4345-9.3151,11.7004-15.7483,15.7624-.8953.5653-1.0502.9394-.4878,1.9077,11.7218,20.1827,23.4071,40.3866,35.0766,60.5996.486.8418.8065,1.0859,1.7608.5006,17.5523-10.7659,31.7104-24.9096,42.4425-42.4827.1615-.2644.3158-.5332.5114-.8641ZM124.1561,198.1996c-.0897-.57-.5912-.6686-.9411-.8917-6.4174-4.0922-11.6909-9.3346-15.7405-15.7745-.6015-.9565-.9928-.9677-1.9051-.4409-20.2515,11.6946-40.5185,23.3624-60.802,35.0015-.9854.5654-1.1759.9223-.5286,1.9662,10.827,17.4595,24.9937,31.5332,42.5506,42.2034.8192.4979,1.2285.5734,1.7888-.3995,11.6932-20.3036,23.4271-40.5838,35.1517-60.8694.1541-.2667.2915-.5431.4261-.7951ZM62.264,153.8218c-11.7039,0-23.4078.0145-35.1116-.0244-1.0623-.0035-1.3432.2978-1.3148,1.3329.0828,3.0133.2603,6.0168.5456,9.0175,1.644,17.2934,6.6982,33.5324,14.9951,48.7824.501.9208.8359,1.1557,1.8517.5648,20.2087-11.7553,40.4403-23.4713,60.6796-35.1739.7896-.4566,1.004-.7713.5218-1.6853-3.4573-6.5543-5.3497-13.5632-5.8441-20.9507-.1246-1.8614-.0984-1.8634-2.0096-1.8634-11.4379,0-22.8758,0-34.3137,0ZM150.7237,242.4082c0-11.7067-.0115-23.4134.0217-35.12.0027-.9434-.1883-1.2779-1.2016-1.3207-7.6342-.3231-14.8645-2.2284-21.6328-5.7883-.911-.4792-1.2722-.3191-1.7708.5488-6.5743,11.444-13.1929,22.8625-19.7966,34.2896-5.0968,8.8195-10.1659,17.6551-15.3112,26.4461-.6194,1.0584-.4659,1.4516.5788,1.9324,1.808.8321,3.5341,1.8403,5.3292,2.7025,16.5714,7.9594,34.0551,12.1106,52.4302,12.5651,1.1275.0279,1.3808-.3179,1.3772-1.4015-.0388-11.6179-.0241-23.2359-.0241-34.8539Z"/>
    <path class="cls-1" d="M90.8118,86.002c-3.2289.0002-3.1891-.0053-2.7464,3.2143.444,3.2288,1.293,6.3317,2.6478,9.2926.3693.8071.5468,1.6419-.4072,2.026-.907.3652-1.4387-.2966-1.8085-1.1097-1.781-3.9145-2.9121-7.9907-2.995-12.3068-.0181-.9438-.3015-1.238-1.215-1.1755-1.2785.0874-2.8721-.3744-3.7577.2336-.847.5815-.3663,2.3076-.5477,3.524-.5003,3.3545-1.4199,6.5736-2.7758,9.675-.3339.7637-.7449,1.583-1.743,1.1467-.9932-.4341-.8617-1.2523-.4425-2.1293,1.7347-3.6297,2.7755-7.4535,3.1611-11.4641.0748-.7775-.111-1.0138-.8827-.985-1.3288.0498-2.6608.0155-3.9914.0115-.8293-.0025-1.596-.2277-1.5815-1.1995.0148-.9967.8063-1.1215,1.6304-1.1077,1.1972.02,2.4018-.0744,3.5907.0274,1.1597.0993,1.4025-.3607,1.364-1.4288-.163-4.5262-1.0721-8.8706-2.9287-13.0101-.1787-.3985-.3956-.8199-.416-1.2394-.0257-.5257.322-.9276.8594-1.0408.7358-.1551,1.1584.2697,1.4444.8844,1.2195,2.6214,2.1261,5.3442,2.6632,8.1879.396,2.0967.6587,4.2098.5566,6.3439-.0451.9434.163,1.398,1.222,1.2982,1.1848-.1117,2.6819.335,3.489-.2396.7803-.5555.2468-2.1497.3526-3.2835.3778-4.0479,1.3458-7.9378,3.0039-11.6553.3475-.7792.7286-1.5544,1.7406-1.1239,1.0081.4288.733,1.2205.3835,2.0157-1.8032,4.102-2.7417,8.3978-2.9202,12.8775-.0455,1.1433.2437,1.6098,1.4579,1.5024,1.1881-.1051,2.3933-.0338,3.5905-.0126.7912.014,1.4573.3078,1.4117,1.2168-.0411.8192-.6467,1.0712-1.4143,1.0393-.6642-.0275-1.3304-.0057-1.9957-.0055Z"/>
    <path class="cls-1" d="M231.2958,176.7558c-2.1192-6.2858-1.2253-10.4324,2.7993-13.3028,3.5503-2.5321,8.3716-2.4517,11.7807.1963,3.9017,3.0307,4.7544,7.3013,2.5027,13.1062,1.5008,0,2.9336.0177,4.3657-.0067.8479-.0144,1.5802.1744,1.5883,1.1578.0085,1.0372-.7979,1.1153-1.6068,1.112-2.084-.0083-4.1679-.0024-6.2519-.0025-.6662,0-1.3872.0798-1.7261-.6816-.3377-.7588.1928-1.2178.6481-1.724,2.5495-2.8345,2.7259-6.8606.4501-9.7465-2.3215-2.944-6.2674-3.7807-9.5561-2.0264-4.2602,2.2725-5.2888,7.9844-2.0829,11.6015.4658.5256,1.1341.982.7977,1.8113-.3604.8887-1.1902.7679-1.9432.7668-2.084-.0031-4.168-.0083-6.2519.0006-.7976.0034-1.4857-.2134-1.4861-1.1237-.0004-.8878.6415-1.1563,1.4629-1.1445,1.49.0213,2.9806.006,4.5095.006Z"/>
    <path class="cls-1" d="M239.5984,181.857c4.3382,0,8.6765.004,13.0147-.0033.8545-.0014,1.6797.05,1.6623,1.1866-.016,1.0481-.7979,1.1218-1.6009,1.1217-8.6765-.0018-17.353-.0037-26.0295.0029-.8676.0007-1.6966-.1049-1.6736-1.1993.0236-1.1225.9136-1.112,1.7449-1.111,4.294.0051,8.588.0024,12.882.0024Z"/>
    <path class="cls-1" d="M227.3689,74.2472c-2.5185,0-4.8574.0015-7.1963-.0015-.3985-.0005-.8074.0328-1.1928-.0435-.5618-.1113-.9872-.418-.9528-1.0811.0293-.5639.3446-.8982.8898-.9975.3032-.0552.6151-.0873.9231-.0879,3.2364-.0062,6.4728-.0163,9.7091.0014,1.5966.0087,1.8516.2826,1.8549,1.8519.0069,3.3693-.0048,6.7388.0172,10.108.0051.7826-.0636,1.4653-1.0452,1.5014-1.0572.0389-1.193-.6764-1.1894-1.5135.0108-2.5219.0039-5.044.0039-7.569-.5751-.1447-.7434.3162-.9942.5655-3.616,3.5942-7.1896,7.2316-10.8445,10.7855-.8147.7922-.6182,1.219.0453,1.8999,3.0541,3.1343,5.4793,6.7207,7.4642,10.6118.1407.2758.2564.5641.389.8441.3133.6613.2246,1.2733-.4594,1.5641-.6232.2649-1.2259.0728-1.5747-.5894-.5155-.9786-1.0011-1.974-1.5445-2.9367-1.6845-2.9849-3.7554-5.6866-6.0335-8.2418-.5807-.6514-.9329-.6491-1.5514-.0187-2.6695,2.7213-5.4032,5.3795-8.0944,8.0796-.6227.6248-1.3258,1.1219-2.0475.3906-.7291-.7388-.186-1.4381.4283-2.0439,2.7142-2.6767,5.394-5.3888,8.1369-8.0356.653-.6302.5823-.9718-.034-1.5467-3.0978-2.8898-6.4971-5.3402-10.2819-7.2502-.3553-.1793-.7235-.3393-1.0582-.5516-.5692-.3612-.7478-.8678-.401-1.4784.3286-.5785.8181-.8116,1.4503-.5023,1.0336.5057,2.0702,1.0087,3.0776,1.5636,3.24,1.7848,6.1844,3.9798,8.8093,6.5816.6652.6593,1.0226.6176,1.6606-.0396,3.793-3.9068,7.6348-7.7663,11.6361-11.8199Z"/>
    <path class="cls-1" d="M60.6851,130.415c.739-2.9944,1.7179-5.8742,3.1943-8.5601,1.7784-3.2356,4.5531-4.9168,8.228-4.9163,4.6758.0006,7.7225,5.013,5.6891,9.2343-1.2552,2.6059-5.6911,4.0827-8.2024,2.7406-.6095-.3257-.792-.8168-.5994-1.4417.1872-.6075.6665-.7902,1.2573-.7137.5697.0738,1.1339.2154,1.705.2481,2.4936.143,4.0596-1.1387,4.1961-3.4.1503-2.4905-1.5891-4.4647-3.9894-4.562-2.9778-.1208-4.912,1.4809-6.3462,3.8583-1.8425,3.0544-2.6258,6.4639-3.1792,9.9339-.6298,3.9486-.8523,7.9296-.8506,11.9251.0001.3102.0243.6268-.0277.9291-.0975.5662-.3635,1.0232-1.0244,1.0154-.7009-.0082-1.041-.4196-1.0665-1.0969-.0666-1.771-.1036-3.5434-.1893-5.3134-.2492-5.1482-.7566-10.2538-2.6974-15.0994-.6309-1.5752-1.4707-3.0253-2.6794-4.2397-1.1787-1.1841-2.6074-1.8084-4.2683-1.9052-3.0469-.1775-5.1378,2.2903-4.4732,5.2727.3318,1.4888,1.4272,2.4448,3.1083,2.6582.8389.1065,1.6749.0783,2.4983-.1907.6722-.2197,1.2798-.0803,1.4973.6654.2056.7048-.11,1.2158-.8338,1.414-2.4835.6798-4.9426.5928-6.883-1.2007-1.9553-1.8072-2.105-4.2306-1.2604-6.6574.8443-2.426,3.145-4.0781,5.6919-4.0767,3.9648.0021,6.8426,1.8586,8.6215,5.3888,1.2908,2.5616,2.2003,5.2652,2.8836,8.09Z"/>
    <path class="cls-1" d="M137.8397,60.5837c-1.003-.0661-1.8728-.3777-2.7021-.8131-1.0358-.5438-1.8423-1.346-2.6219-2.2111-2.0831-2.3116-2.0218-2.5976-4.0875.0836-3.2754,4.2513-7.4726,3.8728-10.2263-.4144-1.421-2.2124-2.0327-2.1506-3.288.1062-.4062.7302-.726,1.5148-1.0213,2.2987-.2939.7801-.8638,1.0491-1.5687.7904-.7216-.2649-.7223-.8973-.4817-1.5563.5478-1.5004,1.1262-2.9848,2.1437-4.2443,1.4048-1.739,3.1993-1.9027,4.8095-.362.9571.9158,1.7692,1.9813,2.6996,2.9274,1.4257,1.4499,2.425,1.4604,3.851.0467.8479-.8407,1.5928-1.7859,2.4475-2.6189,2.0398-1.988,3.7905-1.9107,5.6603.1857.7657.8585,1.5034,1.7437,2.4288,2.4467,1.5993,1.215,2.3771,1.1356,3.7209-.402.6446-.7376,1.1867-1.5445,1.6204-2.4215.358-.7238.8925-1.1916,1.6912-.79.7949.3998.766,1.1367.3895,1.8345-.5665,1.0498-1.0992,2.1318-1.7903,3.0969-.892,1.2456-2.1834,1.9059-3.6744,2.0167Z"/>
    <path class="cls-1" d="M137.5934,68.0381c-2.0549-.3018-3.7523-1.2542-5.075-2.8601-2.1033-2.5537-2.4-2.5511-4.4146.1001-2.8842,3.7955-6.8789,3.7544-9.6464-.0993-1.9336-2.6925-2.4344-2.6527-3.835.3425-.2797.5982-.4706,1.2377-.7069,1.8565-.2919.7644-.8889.9835-1.6062.759-.7335-.2296-.8931-.8616-.6736-1.511.5392-1.5954,1.1797-3.1543,2.2659-4.4728,1.2929-1.5694,3.0177-1.7456,4.5129-.3687.9066.8349,1.6476,1.8471,2.4935,2.751,1.7172,1.8349,2.777,1.8415,4.5486.0553.9957-1.0039,1.8608-2.1404,3.0527-2.9438,1.5881-1.0705,2.6465-1.054,4.0569.232.9467.8632,1.768,1.8625,2.6921,2.7524,1.7147,1.6511,3.0983,1.5233,4.5451-.3804.5648-.7431,1.0011-1.5594,1.3697-2.4184.2544-.5931.7336-.9079,1.3854-.7161.5742.1689.8434.6075.7995,1.2203-.1455,2.0326-2.9563,5.2009-4.9647,5.5882-.2601.0502-.5251.0751-.7999.1135Z"/>
    <path class="cls-1" d="M169.5361,51.1812c.5303-.2841.6358-.7431.8672-1.1022.4344-.6739.9019-1.3144,1.5143-1.8413,3.7786-3.2514,7.3351-2.1176,8.4275,2.7188.6516,2.885.4815,5.8168.3579,8.7405-.1198,2.8328-.5171,5.6514-.4367,8.4944.0047.1647.0343.3287.0508.4797.3377.0924.4333-.1644.5816-.2972,1.6654-1.4915,3.5409-1.7339,5.2283-.6647,1.6693,1.0578,2.6005,3.5162,2.0318,5.3643-.6727,2.1862-3.2758,3.5804-5.9027,2.6769-1.8402-.6329-3.0442-.508-4.4409.8662-1.2441,1.2242-3.0121,1.6227-4.7678,1.8093-.8394.0892-1.4514-.1801-1.5286-1.0474-.0717-.8056.463-1.1679,1.2455-1.2256,1.8976-.1398,3.4554-1.013,4.824-2.2813.4463-.4135.7185-.8606.5596-1.5207-.8448-3.509-.5236-7.0364-.2089-10.5775.2983-3.3552.4809-6.728-.0576-10.0802-.1939-1.2071-.2848-2.692-1.7264-3.0265-1.3415-.3112-2.5028.5496-3.3382,1.5445-1.7472,2.0809-2.8872,4.4671-2.9228,7.2451-.041,3.1928-.0211,6.3866-.0022,9.5799.0053.8974-.0067,1.85-1.171,1.8277-1.0581-.0203-1.0945-.9296-1.1049-1.78-.0469-3.8123.1571-7.6279-.1183-11.4365-.1055-1.4592-.3303-2.9044-.7784-4.3054-.5113-1.5986-1.5241-2.5612-3.2757-2.6039-.8335-.0203-1.5635-.2459-1.4713-1.2715.0894-.9942.8822-1.1021,1.6764-1.1081,2.6949-.0204,4.7387,1.6355,5.8876,4.8226ZM185.7104,71.7231c-.0209-1.2744-1.0912-2.4331-2.2072-2.3894-1.1737.046-2.8885,1.8711-2.6424,3.0791.2546,1.2499,1.5353,1.1843,2.4865,1.2439,1.4488.0906,2.3822-.7689,2.3631-1.9336Z"/>
    <path class="cls-1" d="M248.1252,144.0554c1.7423-.6768,1.9329-.6055,2.7013.9211.2985.5932.5703,1.1999.8766,1.789.461.8865.1019,1.3418-.7818,1.5108-.87.1663-1.741.3422-2.6196.4454-1.1533.1354-1.8311-.7385-1.2764-1.7229.2725-.4837.2226-.7437-.044-1.1435-.6948-1.0417-.8272-2.2121-.7399-3.4384.4694-6.5895.7579-13.185.5492-19.793-.0265-.8385-.1241-1.6798-.2569-2.5089-.375-2.3405-2.2605-3.3446-4.4562-2.4149-.3684.156-.5353.2924-.443.7738,1.0036,5.2363.4372,10.5104.3003,15.7707-.0541,2.0789-.311,4.152-.4493,6.2295-.0534.8031-.2937,1.4413-1.2181,1.3972-1.027-.049-1.1153-.7743-1.0642-1.6183.3831-6.3217.9082-12.6417.4213-18.9818-.0573-.7461-.176-1.4997-.3744-2.2201-.3185-1.1571-1.1445-1.7271-2.341-1.8182-2.2495-.1714-2.9306.5058-2.58,2.6668,1.1204,6.9072.4476,13.7838-.331,20.6593-.0799.7054-.4215,1.2163-1.1947,1.1178-.764-.0973-.9714-.6811-.9163-1.3782.2374-3.0023.5043-6.0025.7104-9.0069.2554-3.7245.1718-7.439-.4746-11.1287-.4015-2.2916-1.1637-3.051-3.4802-3.3363-.6751-.0831-.9382-.5052-.9268-1.0761.0117-.5866.3577-.9833.9934-1.0412,1.2116-.1104,2.3209.197,3.1818,1.0428.5134.5044.8519.4533,1.4534.1567,2.0341-1.0032,4.1326-1.3297,6.2152-.1062.3682.2163.641.1565.9737-.0058,1.0231-.4992,2.1166-.5937,3.2385-.5662,2.4909.0609,4.1856,1.4085,4.6532,3.8939.71,3.7738.5542,7.5969.4061,11.4022-.1549,3.983-.4671,7.9598-.702,11.9399-.0285.4824-.0039.9678-.0039,1.5888Z"/>
    <path class="cls-1" d="M170.3804,233.1027c-.1297,3.5033.8896,6.454,2.8111,9.1363,1.6811,2.3468,1.6161,5.1496-.1102,7.2619-1.6102,1.9703-4.3843,2.6659-6.7484,1.6923-2.4034-.9898-3.8872-3.5194-3.5747-6.0941.3268-2.6925,2.3155-4.7528,5.1611-5.0906,1.1903-.1413,1.1317-.5261.8272-1.4533-1.0477-3.1905-1.2174-6.4485-.1568-9.6584,1.1814-3.5755,4.4101-6.2442,7.4584-6.3647,4.9581-.196,8.8752,3.9982,8.5662,9.0637-.2531,4.15-1.9449,7.8813-3.2187,11.7387-.7496,2.2698-1.546,4.5309-1.6834,6.9485-.0504.8875-.0154,1.7662.2657,2.6287.3852,1.182.9884,2.1041,2.3829,2.1145,1.2011.009,2.4336-1.0437,2.7251-2.3406.1054-.469.0472-.9727.1276-1.4498.1339-.794.6757-1.116,1.4386-1.0488.8139.0717.4856.7068.4807,1.1297-.0415,3.5647-2.1631,5.8931-5.295,5.8557-1.8376-.0219-3.1057-.9428-3.9059-2.5226-1.2344-2.4372-1.0081-4.9876-.4391-7.5355.7267-3.2536,2.0348-6.3154,3.1658-9.4355.7559-2.0854,1.4402-4.1914,1.5038-6.4402.0511-1.8075-.4329-3.4271-1.7497-4.7165-2.7094-2.6529-5.9072-2.4477-8.2565.5279-1.4444,1.8295-1.9559,3.9395-1.7759,6.0528ZM165.0515,245.2047c-.0625,1.9843,1.453,3.6217,3.3988,3.6724,1.8926.0492,3.5216-1.4693,3.601-3.357.0815-1.9365-1.4807-3.6143-3.4245-3.6778-1.878-.0614-3.5159,1.4791-3.5752,3.3624Z"/>
    <path class="cls-1" d="M224.441,210.043c.8713-.1262,1.5869-.3592,2.3534-.3389,3.1048.0823,4.9205,2.6844,3.8898,5.6177-.2821.8028-.725,1.5133-1.2486,2.1794-1.3973,1.7775-2.7421,3.5988-4.1955,5.329-1.9403,2.31-1.402,5.0298-1.2068,7.6099.091,1.2021,1.4836,1.5378,2.656,1.512,1.1627-.0256,1.7673-.7318,1.8581-1.8587.0659-.8184.3738-1.4456,1.2762-1.315.863.1249,1.0344.8409,1.0082,1.6225-.0567,1.698-1.1252,3.1227-2.7819,3.675-1.6449.5484-3.6534-.0515-4.8007-1.4464-.7602-.9241-1.1258-1.9988-1.1533-3.1892-.0119-.5167-.002-1.0339-.002-1.9653-1.1081,1.4078-1.9848,2.4899-2.8244,3.6-.5102.6747-1.1119,1.1492-1.89.5565-.779-.5934-.4798-1.3023.0435-1.9624,1.4045-1.7715,2.7729-3.5721,4.1973-5.3273.5248-.6466.8322-1.3276.9018-2.1554.4549-5.407.3812-10.8046-.2939-16.1886-.2407-1.9197-1.7843-2.7824-3.5882-2.0849-.3797.1468-.5391.3077-.4683.777.8399,5.5711.1779,11.1439-.0197,16.7163-.0393,1.1072-.1142,2.2135-.1329,3.3209-.0141.8372-.3723,1.4534-1.2162,1.4213-.9658-.0367-1.1768-.7869-1.0805-1.637.6458-5.7007.6487-11.4092.2026-17.1227-.0448-.5741-.0871-1.1497-.1661-1.7197-.2362-1.7038-1.1672-2.3379-2.874-2.063-1.001.1612-1.3809.6192-1.3731,1.6812.0466,6.3861.0245,12.7728.0197,19.1593-.0003.4412.0026.892-.0826,1.3212-.1107.5576-.5374.7881-1.0831.7784-.5513-.0098-.9412-.2889-1.0555-.8279-.0722-.3407-.0357-.706-.0358-1.0602-.0014-6.4309,0-12.8617-.0015-19.2926-.0005-2.0331-.3001-2.3477-2.284-2.2781-.7812.0274-1.3085-.2312-1.4487-1.0263-.1596-.9048.4696-1.1497,1.1712-1.2766,1.1902-.2153,2.3376-.0113,3.2795.7226.5792.4512,1.0332.4379,1.6672.2241,1.2988-.4379,2.6419-.4853,3.8636.2063.6254.354,1.11.276,1.7278.0602,2.3737-.8289,4.7341-.3161,5.9331,1.3396,1.0909,1.5064,1.0796,3.3353,1.2505,5.0921.0505.5185.0078,1.0462.0078,1.6139ZM224.3148,219.8358c1.5615-1.7374,3.2541-3.2896,3.9253-5.5067.3326-1.0989-.3041-1.9502-1.5161-2.1541-1.2232-.2057-2.3739.4384-2.3955,1.4338-.0451,2.0748-.0137,4.1513-.0137,6.2271Z"/>
    <path class="cls-1" d="M73.2048,237.4271c-.8661.0115-1.3147-.3263-1.4408-.9624-.1302-.657.22-1.1281.837-1.3287,1.1772-.3827,2.3572-.7695,3.5593-1.0578.6309-.1513.8593-.3944.8572-1.0571-.0219-7.0478-.0233-14.0957.0013-21.1434.0025-.7293-.2555-.9782-.9481-1.1222-1.0348-.2152-2.0367-.5888-3.0526-.8951-.7702-.2322-1.5119-.5662-1.2073-1.5465.3128-1.0067,1.0884-.9703,1.948-.6634,3.752,1.3395,7.6211,1.9315,11.608,1.8492,3.486-.0721,6.8637-.6765,10.1509-1.8219.6383-.2224,1.3513-.4899,1.7973.2262.4732.7598.3112,1.494-.6054,1.8148-1.1673.4085-2.3517.7877-3.555,1.0662-.6663.1542-.8547.4641-.8537,1.0903.0114,7.0035.0119,14.007-.0006,21.0105-.0011.6291.194.9528.8498,1.1051,1.0743.2494,2.1189.6246,3.1809.9295.8325.239,1.4211.711,1.0902,1.6228-.31.8542-1.082.9516-1.8885.7228-1.0639-.3018-2.1146-.6547-3.1872-.92-6.0438-1.4948-12.0209-1.2346-17.9277.7268-.4586.1523-.928.2717-1.213.3544ZM90.0005,222.3741c0-3.2816-.0106-6.5633.0086-9.8448.004-.6836-.0781-1.0805-.9423-.9677-2.9577.386-5.926.3796-8.8851.0038-.7454-.0947-.9219.1936-.9207.8656.0124,6.6076.0144,13.2152-.0036,19.8227-.0022.7886.2636.9517,1.0313.8414,2.8642-.4117,5.7454-.4223,8.6083-.0074.9269.1344,1.1315-.1275,1.1204-1.002-.0412-3.2368-.0164-6.4743-.0169-9.7116Z"/>
    <path class="cls-1" d="M66.0776,174.2547c7.0457,4.6566,6.591,12.6819,2.5961,16.9964-4.0385,4.3617-11.3205,4.5769-15.5181.3369-2.5407-2.5664-3.4919-5.715-3.0032-9.2526.483-3.4971,2.4043-6.1156,5.5031-8.0322-2.7376-1.8055-4.0329-4.311-4.6035-7.3083-.2852-1.4984-.7823-2.9344-2.7351-3.1108-.5672-.0512-.7741-.6752-.6727-1.272.0957-.5631.4651-.8048,1.0102-.8828,1.5122-.2166,3.0241.6677,3.8473,2.2962.6246,1.2356.8816,2.5958,1.2795,3.907,1.4357,4.7308,7.4372,6.7639,11.5204,3.8865,1.3494-.9509,1.9367-2.3809,2.3748-3.8907.3821-1.3168.6858-2.6621,1.3316-3.8847.7587-1.4363,1.8541-2.3386,3.596-2.2437.6955.0379,1.1157.3576,1.1779,1.0085.0627.6554-.2986,1.1308-.9749,1.1991-1.1657.1178-1.6601.8918-1.9779,1.875-.1497.4632-.359.9187-.4292,1.3942-.4302,2.9156-1.8004,5.2483-4.3222,6.9783ZM60.8541,192.5896c4.7712.021,8.6528-3.8179,8.6545-8.5593.0016-4.6692-3.844-8.5618-8.5025-8.6063-4.748-.0453-8.6785,3.7991-8.7095,8.5187-.0313,4.764,3.7907,8.6259,8.5575,8.6469Z"/>
    <path class="cls-1" d="M133.2681,252.2643c-2.8531-1.6619-4.3367-3.8802-4.4007-6.9351-.0787-3.7621,2.7851-7.1368,6.4238-7.6102,3.8545-.5015,7.6533,2.1208,8.5035,5.87.756,3.334-.5856,6.4795-3.5469,8.3158-7.7463,4.8033-18.2403,4.2855-25.4789-1.2457-.6389-.4882-1.2872-1.0048-.6514-1.8327.5935-.7728,1.2641-.452,1.9525.0635,4.679,3.5036,9.9238,4.6906,15.6711,3.724.4336-.0729.859-.1951,1.527-.3496ZM141.7629,245.4047c.0875-2.9366-2.35-5.475-5.304-5.5237-2.7729-.0457-5.2331,2.3793-5.3068,5.231-.0764,2.9552,2.2015,5.3779,5.157,5.4846,2.8951.1045,5.3662-2.2479,5.4539-5.1919Z"/>
    <path class="cls-1" d="M121.7619,232.7966c2.2369,1.2004,3.6291,2.8382,4.2164,5.0954.9695,3.7261-1.0264,7.6208-4.5892,8.9706-3.6915,1.3986-7.7238-.1184-9.5328-3.5865-1.7897-3.4311-.7367-7.8012,2.5676-9.8416,6.859-4.2356,14.0541-4.6808,21.4775-1.5796,1.6023.6694,3.0487,1.6127,4.4536,2.6259.6331.4567,1.1507,1.0131.6287,1.7564-.5738.8171-1.2816.4553-1.9473-.0367-4.9845-3.684-10.5056-4.9195-16.5787-3.5942-.1525.0333-.3016.0818-.6957.1902ZM118.531,234.5059c-2.904.0108-5.3186,2.4508-5.2886,5.3443.0299,2.8798,2.508,5.3201,5.3775,5.2953,2.901-.0251,5.2824-2.4591,5.2668-5.383-.0157-2.935-2.3922-5.2675-5.3557-5.2565Z"/>
  </g>
</svg>