<?xml version="1.0" encoding="UTF-8"?>
<svg id="Fat" xmlns="http://www.w3.org/2000/svg" viewBox="0 0 139.6133 237.5594">
  <defs>
    <style>
      


      @import url('../../CSS/SvgStyling.css');


    </style>
  </defs>
  
  <g class="content">

    <rect id="bg" class="bg" width="139.6133" height="237.5594"/>

    <path class="cls-1" d="M51.8424,183.8629v.0333-.0333ZM49.1778,87.5042c.1665-.8493.3719-1.6987.5773-2.5813-.7161-.816-1.1602-1.7653-1.6376-2.7867-.6495-1.3934-1.1602-2.7534-1.2657-4.2467-.0999-1.5988-.6162-2.6868-1.3989-4.1135-1.299-2.3815-1.5377-4.8962-2.0151-7.3776-.8882.4774-2.1206.816-3.2142.816.5163,1.1214.7217,2.6868.9271,3.5695.3386,1.6321,1.0547,3.464,1.5377,5.0627.4774,1.6987.8882,3.4695,1.4322,5.2015s.7883,3.5362,1.5377,5.3015c.3775.8827.9548,1.732,1.4655,2.5147.2054.272.4108.6439.6884.9881.8882-.544,1.1935-1.4988,1.3656-2.3482ZM89.9962,215.2331c.5829,1.1547-.8882,2.1095-1.9152,2.3815-1.2268.3053-2.3537.3053-3.5528.816-1.2934.544-2.5591.4385-3.958.4385-1.027,0-2.054-.0666-3.0421.0722,2.3926,1.2546,4.985,1.9707,7.6885,2.6813,1.4322.3775,2.7312.816,4.0635,1.4267,1.0603.5107,3.4473.544,3.9969,1.6321.7161,1.4655-.6828,2.276-2.0873,2.5869.5829.5052,1.027,1.188.5163,1.8652-.5163.7161-1.6099.8493-2.5647.7827-.1332,1.0214-1.5377,1.1547-2.5924.916-.2776.4441-.6884.816-1.1991.9548-.4774.0999-.9215-.0666-1.3323-.2387-.6495.4108-1.1602.6773-2.0817.5773-.8216-.0999-1.5044-.7827-2.2871-.9493-.8549.0666-1.6765.1332-2.5647-.0722-1.2268-.272-2.4592-.7439-3.6527-.9826-2.2594-.4441-4.4743-.7827-6.6282-1.6987-.8882-.3775-1.9152-.7827-2.8034-1.2601-1.9429-.4052-3.8248-.816-5.74-1.46-2.3204-.7827-2.6257-2.8867-2.2538-4.9961.1055-.6828.3442-1.3268.5829-1.9374-.6495-.4441-1.2324-.7827-1.3323-1.6321-.0999-.816.2054-1.5266.544-2.276.3775-.7494.9271-1.3934,1.299-2.1428.2776-.4774.4774-1.0214.7883-1.4933-.0333-.3775-.0722-.6828-.0722-.9548-.0999-1.3268-.0999-2.7534-.3719-4.0413-.9215-4.8296-1.9152-9.7203-3.3807-14.5165-.755-2.4814-1.5044-4.924-2.2927-7.3721-.5773-1.8375-.7827-3.6361-.8493-5.4735-.2443-1.4267-.2054-2.8533-.2054-4.3522,0-3.1254.1332-6.2174.544-9.2762.4108-3.1309,1.2657-6.2563,1.5377-9.3483.3053-3.2974.2054-6.5949-.1055-9.8923-.1332-1.4933-.3719-3.0921-.3386-4.5853,0-.7161.2054-1.9374.1388-2.9255-1.8486-.2387-1.0603-3.736-1.0603-4.9961,0-2.3093-.3775-4.552-.3775-6.828,0-.6828.1388-1.3601.272-2.0096-1.0936-1.2213-1.8763-2.5147-2.4259-4.0413-1.1269-3.2641-1.7042-6.6282-1.7764-10.0644-.0333-1.6654.3442-3.2253.5829-4.8907.2054-1.4988.3442-2.7867.9937-4.1135-1.1991-.272-2.5314-.9548-3.3141-1.5321-.8882-.6106-1.3656-1.4267-1.8097-2.276-2.1539-.7494-3.8637-3.0587-5.3292-4.552-1.7098-1.7709-3.6583-3.4029-5.2959-5.2348-1.7098-1.9041-7.311-10.8749-8.5045-13.2564-.483-.9881-1.4711-4.7907-1.6432-6.9002-.7161-.8827-1.299-1.8708-1.6709-2.8867-.9604-2.5869.9215-6.223,2.8311-8.127,1.9152-1.8652,4.2356-3.2974,5.9787-5.3015l.0333.0333c.9937-1.1214,2.1206-1.9374,3.4862-2.7534,2.8034-1.6654,5.6734-2.9533,8.2325-4.9573,2.2871-1.8042,4.8851-3.2974,7.1056-5.1682,2.1872-1.8708,4.3355-3.6694,6.8003-5.2015,1.1602-.7106,2.6257-1.2934,3.9914-1.5988.9271-.1998,2.326-.7106,3.4196-.7439.4108-.4774.9881-.816,1.571-1.1214,1.3989-.7161,2.8367-1.088,4.2356-1.7042.7827-.3386,1.5377-.6439,2.3537-.8827.3775-.0999.8882-.3386,1.4045-.5107.2387-.3053.4774-.544.6828-.7772,1.2268-1.3268,2.4925-2.7201,3.5861-4.1468,1.0603-1.3601,1.9818-2.3149,3.5861-2.5147.272-.9881.6828-1.9041,1.2324-2.7867,2.0817-3.4695,7.1389-8.0216,11.7853-6.1897,2.215-1.1547,5.085-.5773,7.4109.4108,3.2086,1.3212,4.985,3.7693,6.4894,6.6282,1.3656,2.5813,2.6979,5.2681,3.4862,8.0549.7494,2.648.9215,5.5068-.2387,8.0882-1.0936,2.4481-2.87,3.0254-5.2293,2.4481-.8549.816-1.5044,1.9374-2.3593,2.6813-1.088.9881-2.4203.9881-3.7193.6162-.7161.8827-1.1269,1.9374-1.3656,3.0587-.3109,1.3934-.5496,3.0254-2.4592,1.8985-.4441-.2332-.8216-.5773-1.1658-.916-.3053.5107-.4774,1.088-.9215,1.46-.4441.4108-.9548.3109-1.4322.0722-.5496.9493-1.6765,1.1547-2.6979.7106-.5496,1.1935-2.7368,1.6321-4.3078,1.2268.6162,1.1214,1.3323,2.1761,1.8486,3.3308.6495,1.3934,1.2601,2.648,2.3537,3.8415,1.9818,2.1039,4.4743,4.6186,5.2293,7.3721.3386,1.1547.1332,2.5147-.4774,3.6028,2.4592,2.4814,4.1968,5.1349,5.8066,8.1937,1.7375,3.3308,3.7915,6.6282,4.8851,10.1977,1.1935,4.008,1.2934,8.3602.9215,12.4737-.4108,4.3133-1.571,8.6655-3.4862,12.6069-1.6765,3.4695-4.0302,5.6789-7.9272,6.1841.3775,1.9041.2387,3.9803-.4441,5.7789-.4052,1.0214-1.0214,1.9041-1.1935,3.0254-.2054,1.1214-.272,2.2427-.7827,3.3308-.2054.4774-.5163.8827-.8549,1.2601,0,2.2094.0333,4.4188-.1721,6.6282-.1721,1.7653.6828,5.196-1.4378,6.1508-.4441.2054-.9548.3386-1.4655.3719-.3775,1.088-.6495,2.276-1.0603,3.3641-.5773,1.5655-.9881,3.1642-1.571,4.7241-.9215,2.4481-1.6043,5.1016-2.9033,7.3776-1.3989,2.5147-3.2086,4.824-4.713,7.2721-1.4378,2.3482-3.2808,4.5909-4.9906,6.8003-.1665.2387-.3719.4385-.544.6773.0666.8493-.5107,2.276-.6828,2.9588-.272,1.1547-.7494,2.2427-.8549,3.4307-.2054,2.4814-.3775,4.0469-.1721,6.6615.2054,2.6868-.3719,6.1175-.816,8.7377-.4441,2.7201-.5829,5.4735-.5496,8.2214.0333,1.4322.3109,2.8922.5496,4.3189.2387.5773.5107,1.1214.9548,1.6321.6828.7494,1.571,1.3601,2.4259,1.9041,2.0484,1.3934,4.3688,2.0373,6.8669,2.004.5773,0,2.4592.3053,3.0698.9548.8216,0,1.6765.3719,2.0873.9826.6828.1388,1.7098.4774,2.0817,1.0214,1.027.0333,2.6313.0333,3.0754.9493Z"/>
  </g>
</svg>