<?xml version="1.0" encoding="UTF-8"?>
<svg id="Fatimah" xmlns="http://www.w3.org/2000/svg" width="447.1316" height="434.1446" viewBox="0 0 447.1316 434.1446">
  <defs>
    <style>


      @import url('../../CSS/SvgStyling.css');
      
    </style>
  </defs>
  
  <g class="content">


    <rect id="bg" class="bg" width="447.1316" height="434.1446"/>
    <path class="cls-1" d="M275.9911,236.5013l1.2124-.6775c4.5348-4.4733,8.4869-8.5843,12.5808-12.5379,13.557-13.0421,27.4919-25.6431,42.8125-36.6216,6.3927-4.5836,12.9587-8.8838,20.1544-12.1442,5.5897-2.5359,11.3841-4.3316,17.5249-4.7725,6.7391-.4726,13.1476.945,19.2727,3.733,12.0297,5.4656,21.4613,13.9083,28.6256,24.9341l1.5903,2.9297c1.795,3.6543,2.3146,7.4346,1.417,11.4511-1.1495,5.198-2.9444,10.1911-5.0228,15.074-2.6296,6.1429-5.7315,12.0497-9.1167,17.8304-1.669,2.851-3.9049,4.7884-6.8651,6.1273l-18.3123,7.6077c-15.3364,5.7649-30.9717,10.5376-46.8434,14.5227-12.4548,3.1345-25.0828,5.324-37.7581,7.3873l-24.5947,4.0638c-5.6843.9137-11.3999,1.7011-17.1471,2.0635-6.314.4095-12.5335-.7089-18.7373-1.6382l-1.9367-.3149c-1.8108-.3938-2.1886-.1104-2.1414.7718l-.3779,7.0564c-.5826,7.0251-1.8895,13.8768-5.1803,20.2247-1.3698,2.6305-1.3542,2.6305-4.1411,1.5593-9.1167-3.4652-17.0998-8.6474-23.1777-16.3026-6.8336-8.6159-11.2738-18.3659-12.7382-29.3761-.6928-5.182-.2205-10.3013.6141-15.5464l-1.543.8348c-4.1253,3.733-6.9754,7.4819-9.6679,11.3567-3.1963,4.6309-6.062,9.498-9.6836,13.8296-4.2198,5.0404-9.1955,9.12-14.9268,12.2859l-.6771.4096c-1.8737.6771-2.3304,1.6695-2.2201,3.3078l.8345,17.6413c.3779,8.1119.8188,16.208,1.921,24.2727,1.2439,9.0885,3.1019,18.0194,6.7706,26.4622,4.2041,9.624,10.3606,17.6885,19.4774,23.233,5.4008,3.2763,11.3212,5.0562,17.4777,6.1902,12.7067,2.3312,25.508,2.5044,38.3564,1.6697l21.9023-2.1108c12.8957-1.6537,25.6497-4.1111,38.1202-7.8283l24.4845-7.9072c8.2036-2.9612,16.344-6.1271,24.2641-9.7973l9.0537-4.2529c1.1495-.5513,2.2359-1.26,3.3854-1.8113l.9604-.8978c-1.1337-3.2132-2.1729-5.45-4.1411-7.2299-3.3224-2.9927-7.1958-4.8198-11.3527-6.3477-5.1961-1.9059-10.4236-1.1184-15.6669-.7718-4.519.2836-9.0065.5198-13.5098-.1575l-5.6212-1.7957c-2.6926-1.2915-4.645-3.2761-6.503-5.3869-1.4801-1.6697-2.4406-3.7172-2.9602-6.0169-.6613-3.0085-1.3226-6.0013-1.4014-9.0885-.2834-10.2225,2.3776-19.5316,8.5027-27.8168l3.9364-4.804c4.4875-4.4892,9.6993-7.8443,16.1551-8.9468,6.2667-1.071,11.6046,1.0555,16.5801,4.5207,5.133,3.5756,9.0065,8.3167,12.3761,13.5303,4.1097,6.3635,7.2745,13.1837,9.7466,20.3034,4.8339,13.9083,5.3378,27.9268.5826,42.0085-1.8738,5.5286-3.7317,11.0415-6.5659,16.1766-1.6534,2.9927-3.905,5.3553-6.8967,7.0879-5.007,2.8825-10.3134,5.1193-15.6669,7.2457-18.6744,7.4188-37.6636,13.9712-56.8733,19.8938-9.8252,3.0243-19.9025,5.0247-30.0899,6.5368-11.6203,1.7326-23.3036,2.6461-35.0341,2.2052-11.5574-.4253-22.9257-1.9688-33.8532-6.08-9.3057-3.5125-16.6589-9.4192-22.658-17.2475-7.5264-9.8445-11.951-20.9807-14.2499-33.0619-1.2754-6.6942-2.0469-13.4516-2.4091-20.2718l-.8817-25.7218c-.0787-6.6155-.4251-13.2154-.6613-19.8309l-.1575-1.6853c-5.2433,1.0553-8.8963,1.7326-12.6595,1.6066l-2.0942-.0158c-4.5347-.8662-8.1247-1.197-11.3368-2.9139-6.6447-3.5283-12.2974-8.2065-16.6432-14.4281-3.5585-5.0876-5.6684-10.7424-6.9596-16.7593-2.0312-9.4192-3.1491-18.9803-4.0151-28.5728l-.803-7.3401c-.7243-.2835-.929.2047-1.1495.5671l-1.5903,3.5754c-1.0393,3.0401-2.047,6.08-3.4798,8.9625-1.4958,2.9928-3.5428,5.5287-6.2668,7.4346-8.0618,5.6233-16.7849,9.9233-26.1693,12.8372-2.9444.9137-5.9833,1.5751-9.0537,1.6697-4.8812.1575-8.6286-1.7326-10.7543-6.3793-1.606-3.4494-1.9052-7.0881-1.4171-10.7738,1.5746-11.6873,4.9914-22.8708,9.5419-33.7234,2.1099-5.0404,5.4952-9.183,9.227-13.0894,7.6681-8.0174,15.8716-15.4204,24.8624-21.9571l1.1652-1.5279c-1.1022-4.5049-1.8265-7.8914-2.6453-11.2622-.3937-1.6381-.3779-3.2132.1417-4.8356l6.7234-21.3587c.1575-.5197.189-1.1655.9605-1.575l8.5814,26.7298c.9919,0,1.3384-.8349,1.8107-1.3704l9.1482-10.5376c1.7163-1.9688,3.464-3.922,5.2118-5.8751l.8188-.8506.9133-.8978.7716.8348c-.5984,2.1579-1.3069,3.8434-2.0942,5.4973l-10.7385,21.8626c-.3622.6931-.6456,1.4335-1.0707,2.095-1.0392,1.6539-1.0865,3.3236-.5983,5.2451,2.2201,8.8996,3.4955,17.9722,4.7394,27.0607,1.3069,9.5294,2.0942,19.1378,3.8734,28.6043,1.0392,5.4815,2.2674,10.8998,4.6922,15.9717,5.7944,12.1286,15.5095,18.9016,28.6886,20.9178,2.4406.378,4.8181.2204,7.2272-.0316l1.3069-.4882c-.0315-1.843-.1103-2.8195-.1575-3.7961l-1.3226-26.2887c-.6613-12.5539-1.3384-25.1076-1.9997-37.6771l-1.1495-22.1777c-.4723-8.8994-.9133-17.799-1.2438-26.6984l-1.118-21.7839c-.5196-7.7654-1.2596-15.5307-2.1414-23.2646-1.7163-15.0425-4.5191-29.8959-8.0775-44.6075l-1.6376-6.6786c-.2834-1.1182-.2677-2.1737.0787-3.2763l5.1016-13.8138c1.118-2.7879,2.3146-5.5602,3.4641-8.3481l.2204-.9137,1.0077.3938c3.102,10.9629,5.3535,21.7209,7.1643,32.5735l4.4245,33.0777c1.1022,10.4904,2.0312,20.9806,2.787,31.5025l1.5431,24.115c.4881,9.2145,1.0077,18.4448,1.4801,27.6591l.866,19.4214c.3307,6.5368.7401,13.0735,1.0865,19.6103l.4724,11.5771c.3779,6.0011.5826,12.0182.803,18.0352l.8661,17.9722c.3149.1889.5511.2047.8188.0944,7.6366-3.3078,14.7064-7.4661,20.5953-13.4357l5.6842-7.2613c3.2122-4.7096,6.2353-9.5452,9.6679-14.0974,2.0154-2.6777,4.3143-5.1034,6.9281-7.2141l1.7005-1.2128c1.8108-.7089,2.2359-.378,2.3776.4409l.0787.5356c-.4566,2.4414.5039,4.2056,1.7163,5.8909,4.6922,6.4422,10.581,11.6086,17.2257,15.9087,9.7308,6.2848,20.4378,9.9233,31.8534,11.5929l5.448.6458c1.0707.1575,1.858-.0631,2.6138-.882l6.2982-6.7573c1.9525-2.1106,3.8419-4.2843,5.8102-6.395,1.1966-1.2759,1.9839-2.7408,2.535-4.3789,1.6376-5.0089,2.4406-10.1754,3.1019-15.3733l1.0393-14.2863c.1417-3.5756-.2205-7.1984-.4094-10.7896l-.6141-9.6083c-.4881-7.907-1.1337-15.7984-1.8738-23.6897l-1.732-18.9803c-.7085-7.2928-1.4643-14.5856-2.2201-21.8786l-2.1887-20.4451c-.7086-6.5682-1.4644-13.1366-2.1887-19.7049l-2.0784-18.933c-.7872-7.2928-1.5745-14.5856-2.3303-21.8784l-.1733-1.3073c-1.9209-2.9614-3.5112-5.3555-5.133-7.8126l12.8013-25.1232c.4723.1733.5668.4726.7085.7718,7.4949,16.4442,14.8009,32.9673,21.3826,49.8054,1.5746,4.0165,3.1176,8.0646,4.0151,12.3175l.1889,3.5125c-.0945.8506-.6771,1.1499-1.3856.6773l-1.4644-1.1026c-3.4011-3.1817-5.8574-6.0013-8.3452-8.7734l-1.1179-1.2917c-1.7163-1.6539-2.4564-1.5593-3.2909-.2678-.6928,1.0869-.9447,2.3155-.8503,3.5756l.4724,5.0876c.7558,6.9621,1.4958,13.9241,2.2831,20.8862l2.5666,22.6346c.7243,6.4422,1.4014,12.8845,2.1099,19.3267l2.1572,19.311c.5511,5.2136,1.1022,10.4116,1.4171,15.6411l.2677,11.388c-.1732,12.4435-1.7635,24.6665-5.511,36.5745l-4.7237,12.0653c-.1575.3624-.3779.6931-.3306,1.1026l-.3149.2047.2204.3309.2362-.3151M270.6375,260.648l3.5114-.2364c6.6918-.8033,13.3995-1.5279,20.06-2.4572,15.7299-2.2052,31.3023-5.2451,46.7331-8.9467,22.0911-5.2924,43.7257-12.1128,64.7934-20.6342,3.7475-1.5121,3.7632-1.5279,2.1099-5.2924-1.4643-3.355-3.6057-6.2375-6.1093-8.8365-6.4085-6.6628-13.8089-12.0339-21.9337-16.4286-8.4081-4.552-17.3517-5.6231-26.6574-3.7172-3.6057.7402-6.928,2.2524-10.1717,4.0009l-12.5177,7.5921c-8.3925,5.8437-16.2968,12.3017-24.1381,18.8699-11.2109,9.3878-21.8077,19.4212-31.3654,30.5101-1.4328,1.6697-3.0074,3.229-4.33,5.5602M70.7778,191.7835l-.6456.2205c-1.2911.9924-2.4406,1.8586-3.5586,2.7723-10.6126,8.5529-20.7685,17.6255-30.0899,27.5962l-5.6842,7.0092c-.929,1.4019-.9448,2.7881-.2204,4.2687,1.1179,2.2681,2.9129,3.6858,5.322,4.3158,2.1099.5513,4.2513.5828,6.4242.252,5.4638-.8348,10.707-2.473,15.8401-4.4576,5.9519-2.2997,11.5573-5.2294,16.6746-9.0885,1.6376-1.2286,2.2516-2.5988,1.8108-4.5363l-.1102-.5198c-.8503-6.9621-2.3776-13.5303-3.8577-20.1143l-1.8895-7.7337M335.242,318.518l-.1732-.5513c-2.7712-2.6621-5.4323-5.1822-8.6444-6.9935-6.4242-3.6228-13.1633-2.5675-18.1863,2.8037l-.9762,1.323c2.4248,2.1106,4.0151,3.0243,5.8102,3.481,3.7632.9451,7.5893,1.3862,11.4628,1.1499l10.707-1.1813"/>
    <path class="cls-1" d="M215.7954,85.2578c-2.0784-1.4017-4.1569-2.8352-6.7077-3.3234-2.4091-.4726-4.0151.7875-5.1961,2.6934l-2.2831,3.9063c-.2362.3938-.5039.7718-.8503,1.0711l-.8031.1575-.1417-1.7955c.5984-4.946,2.1729-8.8679,4.3301-12.5853.8503-1.4491,1.9682-2.6777,3.5113-3.3236l1.1967-.8662c-1.4486-4.82-2.8972-8.4585-4.7395-11.9395-2.85-5.3555-6.3298-10.254-10.4236-14.7116l-.4409-.4726-.4567-.3466c-.7715,1.5122-1.1966,3.1661-1.6218,4.7727l-.4251.0315c-3.653-3.2919-8.0618-4.9774-12.4548-6.71l-.8503-.3622c-1.7635-.6458-2.3619-1.6539-2.4721-3.0085l.2205-4.694c.4251-2.1894.9133-4.3473,1.4013-6.521l.5197-1.9059c1.2911-2.2368,2.0626-2.5359,3.6057-2.095,2.4248.6931,4.5663,1.9532,6.6762,3.2763,8.3295,5.2451,14.2026,12.6641,18.7216,21.28,1.795,3.4179,3.4325,6.9304,4.6135,10.6162l.1733.63.9132-2.1735c.2047-7.3244.2677-13.4201.5826-19.5001.3307-6.2375,1.3699-12.3646,3.8892-18.1454.8975-2.0635,2.0627-3.9536,3.7789-5.45,2.3934-2.0948,4.2985-2.2681,6.9281-.5198,3.3223,2.221,5.7314,5.3398,8.172,8.427l.3621.9451c-1.0234,3.8905-1.8895,7.2455-2.7555,10.5847l-.1575.1733-1.6376-1.0553c-2.4878-4.0954-5.4323-6.2217-8.786-7.9228l-1.2912-.252c-2.5351,1.008-3.8262,2.2366-4.3143,4.3945-.929,4.1111-1.3857,8.2537-1.5588,12.4592l-.7085,17.2635c-.1732,4.0796-1.2596,7.9857-2.3461,11.8921l-.3307,1.2917c4.5033,1.6539,7.3532,3.8749,10.1874,6.08l5.9361,4.8042c1.2596.9922,1.9052,2.079,1.6533,3.859-.2834,2.0792-.5039,4.1425-1.3542,6.0957l-.9762,1.3546c-8.172,1.0553-15.1001,2.6619-21.6818,5.5917l-4.1253,2.2683c-1.5431,1.008-2.0784,2.3154-1.7163,4.2056.8818,4.5993,2.5666,8.9309,4.1726,13.2939,3.7475,10.2698,7.7312,20.4452,11.0692,30.8725,2.3461,7.3086,4.0623,14.7747,4.8811,22.414.3779,3.4967.8345,7.025.2205,10.5691l-.0157,1.2915c12.628-4.8829,25.0356-10.6951,37.6636-15.8615l.1259,1.0239c-1.0549,2.7723-2.0942,5.1034-3.3695,7.3243l-1.1809,1.4964c-3.0389,1.1971-5.0859,2.1106-7.117,2.9928l-1.4958.7088c-2.661,5.8279-5.0701,10.6951-7.2273,15.6882-2.2359,5.1664-4.4088,10.38-5.448,15.956-.7086,3.7488.0315,7.2928,2.1572,10.506l.866,1.1499c3.2279,3.1346,6.0621,2.9297,8.4082-.0156l3.338-5.5287c.2205-.4726.4567-.9451.7086-1.4019l.3937-.3937.6455.4251.063.8033c-.7558,6.2533-2.787,11.6718-6.8494,16.2554-3.0862,3.4967-5.9991,3.5754-10.2819.2047-2.5508-2.0004-3.4325-5.0089-4.0151-8.0961-.9605-5.1822-.0945-10.1596,1.5116-15.074,1.9682-6.0486,4.4088-11.908,7.0698-17.673l5.0701-10.9471c-14.2026,6.0013-28.043,12.6797-41.789,19.5789-13.7932,6.9304-27.3975,14.1919-40.5608,22.2564l-.1103-1.0237c1.118-3.103,2.1572-5.7807,3.0862-8.5057l.929-1.6539c16.659-8.9781,32.562-17.1373,48.6541-24.9343l6.377-3.0399c.9763-.4411,1.3541-.9135,1.1337-2.0792-2.1572-10.9944-4.6607-21.8942-8.4869-32.4475l-1.6376-4.1427c-1.3226-2.3468-1.5903-5.056-2.535-7.5448-1.5116-4.048-3.527-7.8914-4.6922-12.0653l-4.5977-14.3652c-1.3542-5.3238-1.2439-10.6006.2991-15.8773.9291-3.1817,2.7083-5.5602,5.7-7.1195,3.8419-2.0162,7.857-3.5598,12.0139-4.8042l.8031-.0787"/>
    <path class="cls-1" d="M215.7954,85.2578c-2.0784-1.4017-4.1569-2.8352-6.7077-3.3234-2.4091-.4726-4.0151.7875-5.1961,2.6934l-2.2831,3.9063c-.2362.3938-.5039.7718-.8503,1.0711l-.8031.1575-.1417-1.7955c.5984-4.946,2.1729-8.8679,4.3301-12.5853.8503-1.4491,1.9682-2.6777,3.5113-3.3236l1.1967-.8662c-1.4486-4.82-2.8972-8.4585-4.7395-11.9395-2.85-5.3555-6.3298-10.254-10.4236-14.7116l-.4409-.4726-.4567-.3466c-.7715,1.5122-1.1966,3.1661-1.6218,4.7727l-.4251.0315c-3.653-3.2919-8.0618-4.9774-12.4548-6.71l-.8503-.3622c-1.7635-.6458-2.3619-1.6539-2.4721-3.0085l.2205-4.694c.4251-2.1894.9133-4.3473,1.4013-6.521l.5197-1.9059c1.2911-2.2368,2.0626-2.5359,3.6057-2.095,2.4248.6931,4.5663,1.9532,6.6762,3.2763,8.3295,5.2451,14.2026,12.6641,18.7216,21.28,1.795,3.4179,3.4325,6.9304,4.6135,10.6162l.1733.63.9132-2.1735c.2047-7.3244.2677-13.4201.5826-19.5001.3307-6.2375,1.3699-12.3646,3.8892-18.1454.8975-2.0635,2.0627-3.9536,3.7789-5.45,2.3934-2.0948,4.2985-2.2681,6.9281-.5198,3.3223,2.221,5.7314,5.3398,8.172,8.427l.3621.9451c-1.0234,3.8905-1.8895,7.2455-2.7555,10.5847l-.1575.1733-1.6376-1.0553c-2.4878-4.0954-5.4323-6.2217-8.786-7.9228l-1.2912-.252c-2.5351,1.008-3.8262,2.2366-4.3143,4.3945-.929,4.1111-1.3857,8.2537-1.5588,12.4592l-.7085,17.2635c-.1732,4.0796-1.2596,7.9857-2.3461,11.8921l-.3307,1.2917c4.5033,1.6539,7.3532,3.8749,10.1874,6.08l5.9361,4.8042c1.2596.9922,1.9052,2.079,1.6533,3.859-.2834,2.0792-.5039,4.1425-1.3542,6.0957l-.9762,1.3546c-8.172,1.0553-15.1001,2.6619-21.6818,5.5917l-4.1253,2.2683c-1.5431,1.008-2.0784,2.3154-1.7163,4.2056.8818,4.5993,2.5666,8.9309,4.1726,13.2939,3.7475,10.2698,7.7312,20.4452,11.0692,30.8725,2.3461,7.3086,4.0623,14.7747,4.8811,22.414.3779,3.4967.8345,7.025.2205,10.5691l-.0157,1.2915c12.628-4.8829,25.0356-10.6951,37.6636-15.8615l.1259,1.0239c-1.0549,2.7723-2.0942,5.1034-3.3695,7.3243l-1.1809,1.4964c-3.0389,1.1971-5.0859,2.1106-7.117,2.9928l-1.4958.7088c-2.661,5.8279-5.0701,10.6951-7.2273,15.6882-2.2359,5.1664-4.4088,10.38-5.448,15.956-.7086,3.7488.0315,7.2928,2.1572,10.506l.866,1.1499c3.2279,3.1346,6.0621,2.9297,8.4082-.0156l3.338-5.5287c.2205-.4726.4567-.9451.7086-1.4019l.3937-.3937.6455.4251.063.8033c-.7558,6.2533-2.787,11.6718-6.8494,16.2554-3.0862,3.4967-5.9991,3.5754-10.2819.2047-2.5508-2.0004-3.4325-5.0089-4.0151-8.0961-.9605-5.1822-.0945-10.1596,1.5116-15.074,1.9682-6.0486,4.4088-11.908,7.0698-17.673l5.0701-10.9471c-14.2026,6.0013-28.043,12.6797-41.789,19.5789-13.7932,6.9304-27.3975,14.1919-40.5608,22.2564l-.1103-1.0237c1.118-3.103,2.1572-5.7807,3.0862-8.5057l.929-1.6539c16.659-8.9781,32.562-17.1373,48.6541-24.9343l6.377-3.0399c.9763-.4411,1.3541-.9135,1.1337-2.0792-2.1572-10.9944-4.6607-21.8942-8.4869-32.4475l-1.6376-4.1427c-1.3226-2.3468-1.5903-5.056-2.535-7.5448-1.5116-4.048-3.527-7.8914-4.6922-12.0653l-4.5977-14.3652c-1.3542-5.3238-1.2439-10.6006.2991-15.8773.9291-3.1817,2.7083-5.5602,5.7-7.1195,3.8419-2.0162,7.857-3.5598,12.0139-4.8042l.8031-.0787"/>
    <path class="cls-1" d="M100.6001,374.167l.803-7.1353c.3464-4.1109.5669-8.2378.929-12.3332.5511-6.08,1.5746-12.0812,3.8892-17.7673,1.1337-2.8037,2.5823-5.45,4.9284-7.4661,2.5823-2.221,4.6922-2.3312,7.432-.2678,3.0862,2.3155,5.2748,5.4342,7.4162,8.5687l.3464,1.2444c-1.1652,3.7016-2.1099,6.773-3.0704,9.8287l-.1732.8033-1.055-.3149c-1.1809-2.1422-2.3146-3.859-3.5585-5.5129-1.4014-1.843-3.4168-2.7881-5.3535-3.7961-1.6533-.8664-3.9522.2362-5.0544,1.969-1.1022,1.7326-1.4958,3.7487-1.8737,5.7177-1.2755,6.773-1.8895,13.6248-2.3146,20.4767-.3621,5.5758-1.1809,11.0573-3.2121,16.3182-.5826,1.4964-1.1495,3.0243-2.661,4.4103-1.1022-4.0165-1.8265-7.8599-3.2909-11.4669l-5.1803-10.3642c-2.0469-3.3394-4.2198-6.5684-7.0068-9.6083l-1.5431,4.2054c-.2047.6931-.6141.8349-1.1337.3151-3.2278-3.2132-7.3218-4.9931-11.3841-6.8202-3.3066-1.4964-3.6687-2.1737-3.2751-5.7335.3621-3.3392,1.3226-6.5368,2.3461-9.7185l.3149-.8664c1.2596-2.4728,2.3776-2.8981,4.519-1.9373,5.0858,2.3155,9.3687,5.7335,13.1319,9.8131,6.4242,6.9777,10.5181,15.2629,13.557,24.1467l1.0865,3.3236c.1575-.0158.2992-.0158.4567-.0316"/>
    <path class="cls-1" d="M92.7588,105.2305l-8.298-5.0562c-5.3063-3.229-10.6283-6.458-15.9346-9.6871l-1.5903-.9924c4.8812-8.1118,8.7703-14.554,12.6595-20.9964l.7243-1.1655c9.1482,5.5444,17.084,10.3644,25.0198,15.1842l1.3069.8033c-4.3458,7.1668-7.8571,12.9317-11.3369,18.6967-.5984.9924-1.7163,2.0477-1.4801,3.0874.2362,1.0395,1.7635,1.3861,2.7555,1.9846l21.4456,13.0735c1.4171.8664,1.4171.882.4881,2.3943l-11.8249,19.4841c-.6771,1.1184-.6929,1.1499-1.7636.504l-15.2733-9.2616c-2.6295-1.591-5.2433-3.229-7.8886-4.7884-2.6138-1.5437-2.1571-1.0711-.866-3.229l11.0692-18.303c.2992-.4884.7086-.9451.7873-1.717"/>
    <path class="cls-1" d="M275.2195,347.2955l-.2519.63c-4.0781,5.5129-7.9673,10.7738-11.8722,16.0189l-1.0865,1.4649q-1.3541,1.8428-2.5036,1.008l-4.7709-3.4496c-1.7005-.9922-3.2594-2.1264-4.7867-3.3392l-6.2038-4.5049c-.8188-.504-1.4644-1.2286-2.1886-1.843l-3.5271-2.3941c-1.1495-.63-1.1652-.7875-.5669-1.969l3.7003-5.2136c.8503-.8978,1.5273-1.9532,2.2516-2.9612l7.4791-10.3329c.5669-.8033.9763-.5828,1.5746-.1417l7.9044,5.8122c4.5347,3.3392,9.0695,6.6784,13.5885,10.0178l1.0077.63"/>
    <path class="cls-1" d="M171.1092,368.9219l2.0469-6.3793c.6929-2.2366,2.0942-3.7645,4.2199-4.7569l11.7935-5.6704c6.8179-3.1817,13.62-6.3793,20.4852-9.4509l20.7527-8.8521c.0472-.0156.1102.0315.1889.0473l-.0315.8664c-1.0235,2.5832-1.9998,4.7253-3.0075,6.8517-.6298,1.3389-1.6532,2.095-2.9601,2.6621l-16.218,7.151c-7.6367,3.4338-15.2418,6.8991-22.784,10.5533l-13.1004,6.4897c-.3307.1731-.7243.252-1.3699.4724"/>
    <path class="cls-1" d="M426.6298,268.7441l-2.6925,6.1271c-.8031,2.2368-2.2989,3.607-4.3458,4.7727l-46.5442,27.0133c-1.3226.7877-2.598,1.6539-4.0466,2.5832l.3936-1.4175c1.0707-2.6305,1.9998-4.6623,2.787-6.7415.4723-1.2444,1.2596-2.0477,2.3934-2.7092l31.1765-17.8935c6.6918-3.8432,13.3837-7.7023,20.0914-11.5613l.2518-.0631"/>
    <path class="cls-1" d="M70.3684,301.3176c-.6141,6.0328-2.1886,11.7031-6.1565,16.4758-2.1414,2.5674-4.1569,3.1188-7.306,1.9532-3.8734-1.4177-5.8101-4.4891-6.8809-8.2537-1.5273-5.3238-1.1809-10.632.2362-15.8929,3.1019-11.5299,7.3217-22.6502,12.5493-33.377l.3937-1.3546,1.3384,1.2129c-.3149,1.5121-.5669,2.3941-.8818,3.2447l-6.8651,17.9722c-1.1494,3.6227-2.2989,7.2455-3.0389,10.9629-.6771,3.3707-.4409,6.647.9763,9.7973.9605,2.1421,2.3618,3.9378,4.4403,5.0876,2.1257,1.1655,3.8104.882,5.4795-.8664l2.5981-3.922c.6298-1.2917,1.1809-2.6305,1.795-3.9221l.3779-.9451.9447.8348.0158.7877"/>
    <path class="cls-1" d="M39.5856,120.0681c.3937,1.4177-.1575,2.5203-.6298,3.5598l-3.653,7.6079c-3.2121,6.3162-6.2353,12.6955-8.4869,19.4212-1.2439,3.6858-1.7792,7.3873-.7243,11.1835.6141,2.1894,1.7005,4.1111,3.5113,5.5602,2.4406,1.9532,4.5977,1.8272,6.7864-.4096,1.7635-1.7955,2.9444-4.0007,4.1253-6.1902l.4409-1.3702,1.1809,1.008c-.9133,6.5997-3.1649,11.971-7.4477,16.334-2.7398,2.8037-4.6135,3.0243-8.0775,1.1971-3.5271-1.843-4.9442-5.0876-5.6527-8.7419-1.0865-5.5129-.1102-10.8369,1.7793-16.0033,4.0151-10.8998,9.0538-21.3115,14.9899-31.2978l.6771-1.071"/>
    <path class="cls-1" d="M182.6979,280.6047c.8818,1.1184.4251,2.2052.1103,3.229l-3.6057,9.3405c-2.787,6.8675-5.2591,13.8296-6.7706,21.1067-.7715,3.7016-.2992,7.3086,1.543,10.6635.8031,1.4491,1.8895,2.6777,3.2436,3.6228,2.3776,1.6539,4.5347,1.3704,6.4242-.8348l3.1019-5.2136c.3937-.8978.8031-1.7957,1.2125-2.6935l.3464-.4095.7085.3307.0787,1.1971c-.551,5.8909-1.984,11.0258-5.3063,15.452-3.5899,4.8042-5.3377,4.5363-10.4078,2.0634-1.795-.8664-2.9601-2.8983-3.7948-4.8671-1.4958-3.4968-1.9996-7.1826-1.795-10.9471.2834-5.4815,1.9682-10.6794,3.7159-15.8142,2.6453-7.8126,5.4481-15.5623,9.1168-22.9811.551-1.134.8974-2.4415,2.0784-3.2763"/>
    <path class="cls-1" d="M163.3623,150.7829c.063-3.6385.7085-6.9777,1.6376-10.254,2.9759-10.6164,6.9123-20.8704,11.5887-30.8252l.8345-1.4806.8031-.9766.6299.2993-.1417,1.3231c-.8817,3.7803-2.2674,6.8202-3.527,9.9074-2.8657,7.0251-5.4953,14.129-7.0068,21.5793-.929,4.5994-.4724,8.9939,2.4878,12.8845l2.8342,2.3784c2.1414,1.1026,3.8262.8349,5.4953-.9135,1.3856-1.4333,2.2988-3.1661,3.1176-4.9616l1.4171-3.229c.1102-.2364.2991-.4726.5983-.3307l.2992.2677.2362,1.0711c-.5197,6.2375-2.0784,11.6717-5.7945,16.2553-2.913,3.5912-4.7709,4.0009-9.2112,1.6697-3.3695-1.7642-4.6607-5.0089-5.5582-8.427l-.7401-6.2217"/>
    <path class="cls-1" d="M355.9475,153.5238l5.0859,2.6934c.6455.3466.7715.7562.3779,1.4335l-1.6218,3.1345c-.3779.8348-.8188.8506-1.5274.4253l-3.4483-1.8588c-1.1809-.5828-1.3856-.504-1.9997.6144l-.8031,1.4964c-.7085,1.6066-1.2124,1.8586-2.0311,1.4019l-3.8105-2.0162c-.7243-.3622-.9605-.8033-.5353-1.5593l1.7792-3.2763c.3307-.63.7242-.6142,1.2754-.2993l3.7947,2.0477c.7401.4253,1.1966.2678,1.5588-.4726l1.9211-3.7645"/>
    <path class="cls-1" d="M339.2413,111.2632l-2.2358-4.8514c-.4724-.6615-.5669-2.0477-2.0784-1.0868l-.992-.6931c-1.2596-.6144-2.2359-.7246-2.3146-1.6853l.189-2.095c.8344-1.7011,1.4013-1.4649,1.9524-1.1184,1.5746.9766,2.976,2.1264,3.9679,3.733l1.732,3.7174.4567-1.7799c.2677-2.6148.3937-4.442,1.2596-6.1115l.5196-1.0711,1.2125-.882c1.7635.6142,2.8027,2.3784,2.5508,3.733l.0945.945-1.4171-.378c-.866-.8662-1.3541-1.4962-2.0312-1.2759l-.7872.9924c-.2835,1.5437-.3937,2.4414-.5039,3.355l-.8345,5.6075c-.0945.3149-.1575.63-.7401.9135"/>
    <path class="cls-1" d="M369.4573,90.0619l1.2911,5.0247c.5983,1.5751.4251,3.103-.4094,4.5363-.9919,1.7168-2.3933,1.7799-3.527.1733l-.3149-.5671-1.0865.63c-1.1966,1.1499-1.9997,1.9375-3.1806,1.6066l-1.5745-1.4962c-.2362-2.7565.1258-4.4261-.2835-6.0169l-.0787-1.7957.4724-.9137.9132,1.0239c.0473,1.8902.0315,3.0716.0945,4.2529l.7872,2.4886c2.3461-.2835,3.2122-1.4962,3.0704-2.8981l-.2992-1.8115c-.3621-1.5593-.2677-2.1894-.0473-2.8194l.2992-.4726.7243.2362c.3307,1.7011.6299,3.103.8503,4.5207l.6456,1.8586c1.3384.9451,1.7162.7718,1.8108.1418l-.2677-1.8115c-.9448-2.3626-1.181-3.859-.378-5.3869l.252-.2835"/>
    <path class="cls-1" d="M305.0418,137.4732c-.1103,2.5044-.6929,4.5678-2.2989,6.2217-.8661.8978-2.9444.4569-3.5743-.6929-.8345-1.5122-1.3226-3.1503-1.0707-4.8987.6141-4.2371,2.0312-8.2379,3.5743-12.1915l.2362-.4724.3149,1.5908c-1.1336,3.0716-1.858,5.45-2.4406,7.8599l-.2834,1.8113c.2047,1.9373.6298,2.7879,1.4644,3.4181l1.6218.6457c.9604-1.3388,1.1179-1.7955,1.3226-2.1894l.2834-.7404"/>
    <path class="cls-1" d="M368.7015,76.3898c-.1259,1.4491-.5353,2.2997-1.4014,2.8668l-12.2973,7.9859c-.0944.0629-.2361.0315-.5039.0471l.3149-2.0634c5.0229-3.5598,9.2899-6.1744,13.8877-8.8365"/>
    <path class="cls-1" d="M358.3724,63.6156l.2519,1.7011c-.7401,2.5832-1.4014,4.568-1.921,6.584-.3779,1.4806-.4252,2.9928.7558,4.2529l1.5746.882c1.1179-1.6224,1.1966-2.3154,2.0154-2.9927-.063,2.1106-.3936,3.8118-1.6375,5.2136l-1.858.5986c-1.6376-1.3073-1.9998-2.2052-2.1573-3.1976l-.1889-2.095c.8818-4.2685,1.8895-7.4188,3.1649-10.9313"/>
    <polyline class="cls-1" points="318.2366 85.6831 317.4808 86.5022 317.4494 85.6674 318.1579 85.6201"/>
    <polyline class="cls-1" points="389.1866 130.7317 389.1236 130.8104 389.1709 130.7946 389.1866 130.7317"/>
    <path class="cls-1" d="M343.4769,122.856l.126.4884-.063,1.7326c2.976,1.5279,3.3854,2.5517,2.9287,4.4891-.5196,2.2368-2.0312,3.7647-3.8577,3.9221l-2.0784-.4567c-.4251-2.221-.2362-3.0716.0158-3.859l1.9524-5.5445c.1259-.3466.2834-.756.9604-.756M341.6662,129.0935l-.0315.3624.8345,1.2286c1.4329-.0158,2.1257-.2678,2.3619-.8978l-.6456-.8191-.8345-.63-.8345-.7246-.8345.9924"/>
    <path class="cls-1" d="M298.8853,95.4016l-.063,1.3389c-.6771,2.4886-1.3541,4.3316-1.795,6.2375-.3465,1.5121-.6613,3.103.5039,4.4891l1.5903,1.0711c1.2281-1.7011,1.1966-2.473,1.9997-2.8825.2361,1.9846-.2992,3.5754-1.4171,4.9773l-1.5273.9137c-1.9525-1.3073-2.5036-2.3312-2.598-3.5756l.1732-3.7172c.5669-2.7565,1.4013-5.4342,2.3934-8.0646l.1574-.6458"/>
    <path class="cls-1" d="M317.9847,85.4627l4.4718-3.7961c.7243-.5986,1.055-1.134.8661-2.1422l-1.1337-7.5763c-.4881-3.0085-.1417-5.1822,1.5588-8.5687,1.7478,4.6623,2.3933,9.3405,3.1176,14.0501l.4094.0787c2.535-2.0004,4.7394-4.1425,6.7549-6.458l.6455-1.134-1.1494-.4567c-2.8342-1.7484-3.0862-3.103-1.1023-5.6075l1.3541-1.4177c2.047-1.0711,2.6453-.882,3.2436.3307.5511,1.0869.6771,2.2368.4409,3.4339l-.3464,1.8428c1.7005,1.4806,1.3226,3.4338.5197,4.0009l-.5984.0945-.7242-1.1184-1.2282.7246c-2.2831,2.8667-4.519,5.1664-7.0068,7.1983l-.992.9451c.4724,4.1111.7558,7.3715,1.0865,10.632l.1103.5042.7715.1575c1.0865-.5671,2.2831-.5198,2.6453-1.3546l-.6141-1.4806c-1.6375-3.5914-1.1652-6.7259.8975-8.7736,1.6376-1.6223,3.0547-1.9059,5.1803-1.008l4.9441,3.1661c1.2754,1.0237,2.4406,2.1735,3.6215,3.3078l.8503,1.2915-.5195.9293c-.6141,1.2917-.6299,2.9612-1.7006,3.7645-1.0393.7718-2.535.9137-3.8419,1.3389l-1.1337.3151c-1.2281.4253-2.0626.4095-2.535.945l.1417,1.2444-.2677,1.008-.3621.0631-.3621-1.4177c-1.5116-.3466-2.2202.2047-2.9287.4884l-3.4168,1.4806c-.6613.2835-1.055.6615-.992,1.4648.3779,4.4261.4094,8.8994,1.4958,13.2468,1.3226,5.2294,5.6842,7.1195,10.4551,4.6623,1.8265-.9451,3.3695-2.2524,4.7709-3.733l2.6452-2.347c.2205-.1417.4567-.3149.7086-.1417l.2677.4253-.1575.5198c-.5669,2.5832.0315,3.6385,2.4721,4.4574l.6141.1576.5984-.9609c-.7559-8.033-1.5274-15.578-2.2044-23.1385l-2.3303-23.249c-.0788-.7088-.1103-1.4175.1574-2.1263l1.3542-3.9694c.7872,1.0239,1.9524,8.8994,2.7397,17.0901l1.9052,17.3737c.5984,5.7807,1.1023,11.5615,1.6849,17.6886,2.3776-2.3312,2.6452-5.828,5.511-7.6708l-.1417,2.0634c-.5983,2.8352-.4881,3.1345.9447,3.7016,1.5117.5986,3.0704.1575,3.7003-1.1971l.5984-1.8586c.4723-1.6066.4723-2.3784,1.1966-2.7879l.7557,1.0553c1.1967,1.8901,2.2516,3.0243,3.7948,3.6228l1.7793.4095c2.6609-.6144,3.0388-1.1813,2.8184-3.0085l-2.4091-14.1132c-1.0392-5.5286-2.1414-11.0417-3.2121-16.5702l.0157-.5829c-1.7793-2.5201.0472-4.6151.0315-6.7888l1.0078.3466c5.2905,5.1349,10.0142,10.2069,13.7931,16.082,3.4011,5.2767,5.9834,10.9156,6.8494,17.2004,1.1966,8.6474.4724,17.1059-2.787,25.265l-.4094,1.2442-.5039.4726c-.2518-1.2759.3149-2.4414.5669-3.6385,1.732-7.8441,2.047-15.6882-.2519-23.4694-1.9367-6.5682-5.5268-12.2544-9.7623-17.5626l-4.1884-4.9302c-.2677.9608-.0315,1.5593.0945,2.1737l3.4797,18.0981c.6299,4.4576-.0472,8.7577-2.2516,12.7113-1.6375,2.9297-4.2355,3.4967-7.1485,1.7799l-2.7398-2.4572c-.6613.4409-.7557,1.1182-1.0234,1.7011-.6613,1.4648-1.3542,2.8981-3.2752,2.9454-1.9997.0473-3.3538-.8978-4.0623-2.7565l-.189-.2993c-2.0941,1.9532-2.4248,4.3631-2.0784,7.1353l1.3699,11.4827c.4723,2.3154,1.1179,4.5678,2.4563,6.5682.6613.9766,1.3857,1.8901,2.4721,2.4414l.2047.5356.2833-.6302c-.8975-1.8428-1.5903-3.5281-2.2516-5.2451-1.3698-3.4652.8502-8.9781,4.4875-11.0258,1.6532-.9293,3.5112-.9293,5.3535-1.008l5.2904-.2678c3.4641-.5671,6.0464-2.3626,7.7942-5.3713l.4094-.9608.7086.378c-1.2912,5.0247-3.6216,8.8994-8.5027,10.6322-2.4249.8662-4.9599,1.1499-7.5422,1.071l-4.2513.6616c-.7086.2362-.9448.5986-.7243,1.3073,1.4328,4.6151,3.9207,8.3954,8.3452,10.6636,1.4486.756,2.8658.7402,4.2985-.0631,4.6922-2.6461,9.2427-5.4815,12.7697-9.6554l.2992-.2047c-.1733,2.5516-2.047,6.5839-3.7789,8.2378-4.0939,3.8749-8.5971,7.0724-14.2027,8.3797-2.9601.6773-5.8731.378-8.6758-.7246-2.5193-.9922-4.456-2.7092-5.6527-5.1978l-.3307-.9924-1.3385,1.4019c-1.6218,4.4891-3.9521,6.2217-7.4949,6.2689-2.3776.0158-3.59-.882-4.3143-3.1817l-.3464-1.5121c-.1259-2.0477-.4251-2.2524-1.4643-1.7326l-6.5974,3.3865c.3779.8033,1.0549,1.2444,1.606,1.7799,2.047,1.9373,2.6295,4.3158,2.1414,6.9935l-1.7163,4.3631c-.9133,1.5595-2.2674,2.0477-3.9836,1.843-2.8028-.3307-4.8339-1.8744-6.4242-4.0954-1.2282-1.7011-2.2202-3.5598-2.8028-5.5917l-.6141-1.3861-1.7793.1733q-2.4406.0156-2.0312-2.095l-1.7635-.3149c-5.448-1.3075-8.2665-4.2056-9.4631-8.7105l-.866-4.0323c-.2519-1.2444-.5039-1.4177-1.7006-1.008-1.5745.5669-3.0703,1.4175-4.8024,1.4962l.3307-.8033c1.7478-1.0553,3.1649-1.8586,4.5663-2.6934l.9289-.6773c-.3779-5.6389-.6928-10.5849-1.0234-15.6567l-1.3541.945c-2.535,1.9848-4.5977,3.1661-7.2115,2.977-2.2202-.1575-4.0309-1.0711-5.4008-2.8194-1.543-1.969-2.3304-4.2056-2.472-6.71-.3937-7.2613,1.9209-13.6563,6.0935-19.4687l.5983-.8662c1.055-1.1813,1.4801-1.8113.9291-3.0872-.5983-1.4019-.0945-3.0874-.0945-4.7885,2.0154.2678,3.3223,1.8744,5.133,2.3155l.1103.2205-.0788-.1733-.0157-1.0869c-1.4643-2.9454.0473-5.056.5669-7.3401,1.2282,1.6539,1.669,3.5599,2.1257,5.4342l1.4643,7.1039c.1575.9293.5511,1.5437,1.3226,2.0319l3.7475,2.473c1.5116-4.3316,2.5823-8.4899,1.1495-12.9003-.7559-2.3155-1.9998-4.2529-3.9837-5.6862l-.9448-.4096c.2047-1.3073.3937-2.0792.7086-2.7879l.5669-.1102c1.9209,1.3231,3.3065,2.6619,4.2828,4.426,1.732,3.1503,1.8737,6.4897,1.3069,9.9076l-1.984,6.1273c-.8031,1.6223-.7558,1.6695.7243,2.6461,1.0234.6773,1.9524,1.7957,3.1491,1.9059,1.2439.1104,2.0942-1.1813,3.1649-1.7799l4.4403-2.4886c.6141-.3151.8346-.6458.7401-1.3704l-.992-8.1748c-.1574-1.2444-.3621-1.3073-1.4643-.6144l-4.2199,2.4572c-.0787-.0787-.1731-.1575-.2518-.2204M307.4194,97.7171l-.063-.1104.0787.0945c.1417,2.9928.2835,5.9855.9133,9.372l5.0071-6.0169c-1.3541-.8506-2.4878-1.6066-3.6845-2.2839l-1.3226-1.0868M330.1088,144.4983l1.6061-.3938c4.456-1.4964,8.1562-3.1188,11.6989-5.1507l1.6061-1.3546.5826,2.095c-.6929,3.3865,1.2124,5.7177,3.8419,5.5758l3.1648-.945c1.795-.9609,2.3776-2.095,2.1887-4.1741l-.6141-7.8126c-.2835-3.5125-.6141-7.0408-.8818-10.5533l-.2361-1.1499c-3.1492.6142-4.708-.4253-5.889-2.221l-.3936-1.4019-1.8265.4726c-1.8108,1.7011-3.1019,2.8825-4.6293,3.8118-3.7317,2.2683-8.2507,1.3075-10.7385-2.2839l-1.732-3.7172c-.1732-.504-.2047-1.134-.929-1.4177l-1.8107,6.3162c-2.2044,5.5287-5.3851,10.1754-11.3212,12.2861l-1.3069.5986c-1.9997.9766-2.0154.9766-1.606,2.3468l.5353,1.7484c1.9367,4.7569,4.6135,6.5526,8.8176,6.584l1.4486-.0629c1.732.1417,2.2359-.2678,2.4878-1.2759l2.4249-7.4662c1.6533-3.8432,3.3696-7.6708,5.0544-11.4826l.2205-.4882c.6141,1.6853.5668,3.3078.803,4.8827.8345,5.6705.126,11.0733-2.5508,16.6333M309.8914,130.5899l.866-.1102c4.5978-3.2921,8.3768-6.9779,11.5574-11.2622,1.2911-1.7484,2.1729-3.6858,2.724-5.8122.7873-3.0872.9448-6.1902.8345-9.3247-.063-1.7957.0787-3.6385-.551-5.5129-1.5588.8662-3.2122,1.4333-4.5505,2.7406,3.4483,3.2606,4.2985,7.2141,3.7475,11.6875l-.8188-.7875c-1.0707-2.7408-2.4721-4.694-4.2356-6.3793-2.472-2.3626-3.1649-2.3312-5.3378.4567l-3.5743,4.9144c-1.4328,1.8272-2.4406,3.7016-1.6848,6.1115l.0157.6458c.1889,4.4261.4409,8.5372,1.0235,12.6324M298.8853,90.2667c-3.4484,5.1034-6.3612,10.2383-7.5737,16.1766l-.3307,3.3078c.126,4.1741,3.3538,6.6786,7.4477,5.8122,2.4091-.5197,4.2041-1.9846,5.9676-3.5754,1.118-1.0082,1.5117-2.2052,1.3541-3.6858l-1.1808-11.7033c-.063-.5986-.1103-1.2286-.5511-1.6381l-5.1646-4.694M325.4482,143.0019c2.1099-.4411,3.464-1.4019,4.645-2.6305l.4094-.6458c.3936-1.8744.0156-6.8361-.5984-8.5214-2.0627,3.6858-3.653,7.3873-4.456,11.7977M328.2194,151.6651c1.5903,3.8747,5.5582,6.2217,8.1877,4.9931-1.7478-3.1188-4.645-4.3158-8.1877-4.9931M339.7924,87.2109l-4.0309-2.9454c-.8817-.4567-1.8422-.6773-2.8342-.3307l-.929.6615c1.2439,1.5908,1.9525,2.5203,2.661,3.4496l.7715.6457c1.7478-.6142,2.913-.9922,4.3616-1.4806M335.856,66.9864l-.0472-1.1026-.9605-.9137-.8187.3151.1731.8191.9133.8348"/>
  </g>
</svg>