<?xml version="1.0" encoding="UTF-8"?>
<svg id="Fiqh" xmlns="http://www.w3.org/2000/svg" viewBox="0 0 211.4137 205.5844">
  <defs>
    <style>
      

      @import url('../../CSS/SvgStyling.css');

      
    </style>
  </defs>
  
  <g class="content">

    <rect id="bg" class="bg" width="211.4137" height="205.5844"/>


    <path class="cls-1" d="M198.0809,102.8435c-.1662,50.9654-41.012,92.347-92.3933,92.289-51.3283-.058-92.5375-40.9417-92.3541-92.7311.1815-51.2647,41.215-91.7981,92.1507-91.9491,51.4742-.1526,92.5238,41.3689,92.5968,92.3912ZM195.5438,102.6755c-.181-49.6094-39.9022-89.3603-89.0938-89.6733-50.5132-.3214-90.3638,39.703-90.58,89.2554-.2203,50.4853,39.7015,90.1357,89.5155,90.3254,50.3203.1917,90.0772-40.1482,90.1583-89.9076Z"/>
    <path class="cls-1" d="M192.7784,102.7736c.465,47.7652-38.9659,87.2364-87.0864,87.1938-48.0679-.0425-87.1063-39.0437-87.1884-86.9848-.0831-48.4755,39.3644-87.333,87.2479-87.3598,47.908-.0269,87.513,39.4326,87.027,87.1508ZM106.967,185.4978c2.4588.0284,6.1347-.2323,9.789-.721,6.5601-.8772,12.9347-2.4946,19.1139-4.8881,4.6741-1.8105,9.1644-4.0017,13.3996-6.6616,4.2888-2.6935,8.3498-5.6984,12.1088-9.1352,4.7334-4.3276,8.9579-9.0827,12.5904-14.3399,3.1645-4.5798,5.8229-9.4631,7.971-14.6173,4.6347-11.1203,6.8178-22.6708,6.4133-34.7323-.1945-5.8-.9601-11.4857-2.3051-17.1287-2.0999-8.8097-5.6495-16.9778-10.4608-24.6222-4.239-6.7351-9.394-12.6973-15.3816-17.92-5.7934-5.0534-12.1736-9.2391-19.1531-12.4937-4.7369-2.2089-9.6211-4.0024-14.6974-5.2551-7.9585-1.9639-16.0134-2.8688-24.2273-2.4535-4.1898.2119-8.3365.6619-12.4375,1.4793-9.4343,1.8805-18.2895,5.2668-26.5374,10.2602-5.6996,3.4506-10.8984,7.5207-15.6252,12.1949-4.0908,4.0452-7.6526,8.529-10.8519,13.3126-2.9797,4.4552-5.8209,8.9882-7.9751,13.9069-1.3633,3.1128-2.5625,6.2865-3.5278,9.5614-1.1273,3.8243-1.902,7.7182-2.338,11.6493-.428,3.8586-.6102,7.7601-.3177,11.6612.1296,1.7287.1601,3.4671.4272,5.1817.5554,3.5654,1.1693,7.1141,2.1113,10.6108.8939,3.3185,1.7259,6.6525,2.8479,9.9026,1.8673,5.4086,4.3428,10.5301,7.2769,15.4423,2.3481,3.9311,4.9918,7.6553,7.9875,11.099,5.3509,6.151,11.4382,11.4729,18.3542,15.841,4.9953,3.155,10.2403,5.8021,15.7769,7.8186,9.171,3.3401,18.662,5.0199,29.6679,5.0468Z"/>
    <path class="cls-1" d="M135.3151,114.2039c.2679,2.5316-.7464,4.8139-2.3462,6.9064-.77,1.0071-.7353,1.1647.4741,1.6246,3.2469,1.2348,6.5534,1.5253,9.884.391,2.2126-.7535,3.6123-2.7143,3.4695-5.0344-.1892-3.0732-.5035-6.1413-.8531-9.2014-.5908-5.1708-1.2368-10.3355-1.887-15.4993-.6767-5.3745-1.4401-10.7388-2.0595-16.1197-.3479-3.0226-.4833-6.0698-.709-9.1064-.0349-.4698-.1355-.9227-.4081-1.3041-.6021-.8423-.7138-1.7451-.4424-2.7272.3111-1.1258.5926-2.2598.9058-3.3849.0628-.2255.0957-.5351.3826-.5902.3129-.06.4117.2409.5102.4514,1.6792,3.5887,3.7637,7.0011,4.7561,10.8886.0892.3493.432.8194-.0416,1.04-.4396.2048-.6201-.3376-.8741-.6073-.3159-.3353-.6246-.6777-.9481-1.0055-.2179-.2208-.4311-.5609-.7899-.4075-.3977.17-.1979.5481-.1604.8478.3031,2.4252.6208,4.8486.9145,7.2749.6426,5.3087,1.2992,10.6159,1.9025,15.9291.6111,5.382,1.0526,10.7858,1.78,16.1514.5557,4.0991.3245,8.1001-1.1147,11.9297-1.393,3.7067-4.0199,6.3746-8.1441,6.75-3.0603.2786-6.0719-.3935-8.773-2.0178-.6969-.4191-1.382-.8769-2-1.4022-.5241-.4455-.9479-.4525-1.5184-.1033-1.9056,1.1665-3.8671,2.2095-5.9926,2.9553-4.429,1.5539-9.6804.166-12.6826-3.9598-.4787-.6579-.9549-1.326-1.3465-2.0367-.4351-.7897-.8669-.814-1.6132-.3473-4.4416,2.7779-9.2127,4.8824-14.1836,6.4779-4.1535,1.3332-7.9613.2142-11.4683-2.1955-2.2903-1.5737-3.4534-3.9884-4.7679-6.2946-.2982-.5231-.5668-1.0679-.9118-1.5586-.9702-1.3803-2.2389-1.7896-3.7003-.9813-3.4383,1.9016-6.1226,4.5348-7.6475,8.2482-1.2512,3.0469-2.3166,6.1724-3.8012,9.1214-.4174.8291-.9853,1.5574-1.662,2.1935-1.3752,1.2926-3.3774,1.5007-5.009.5304-2.8084-1.6703-4.1557-4.4016-5.1496-7.3192-1.751-5.1401-1.5576-10.3872-.5742-15.6389.1114-.5949-.1193-1.6737.6616-1.6429.5269.0208.2708,1.1163.25,1.7186-.0537,1.5561-.2722,3.1081-.291,4.6634-.0529,4.3822.4981,8.6676,3.044,12.38,2.0033,2.9211,5.527,2.6863,7.4104-.3566,1.4094-2.2771,2.1941-4.8359,3.2233-7.2816,1.6104-3.8271,3.5968-7.3888,6.667-10.258,1.1-1.028,2.3326-1.8416,3.7512-2.363,1.5236-.56,2.8438-.3214,3.9421.9417,1.1502,1.3229,1.9437,2.8753,2.841,4.3584,2.4094,3.9826,5.8636,6.2585,10.5517,6.5383,2.1712.1296,4.2015-.5596,6.2236-1.2053,3.0769-.9825,6.0615-2.1966,8.9296-3.6957.7211-.3769.9214-.7573.6707-1.5926-1.2989-4.3282-1.6548-8.6926-.1555-13.0586.4732-1.3778,1.3604-2.3789,2.8119-2.8217,1.3458-.4106,2.4797-.0969,3.3263.9983,2.7935,3.6138,3.9384,7.6395,2.9342,12.1773-.4514,2.0398-1.9276,3.3388-3.3663,4.6586-.8857.8126-.8783.9769.0146,1.7968,2.8151,2.5848,6.1871,3.091,9.8171,2.6979,1.5943-.1726,3.1183-.6187,4.6405-1.0952.768-.2404.9953-.6471.7501-1.4328-1.5777-5.057-.1342-9.4914,2.88-13.5751.6406-.8679,1.4845-1.5108,2.5164-1.8929,1.4413-.5338,2.3103-.2642,3.0004,1.1084,1.1333,2.2545,1.6516,4.6607,1.5559,7.3657ZM107.277,106.7456c-.5624.0114-1.1028.1816-1.367.6759-.7424,1.3893-1.2961,2.8911-.84,4.455.4232,1.451,1.1222,2.821,1.6902,4.2306.2592.6432.6845.808,1.242.4013,1.341-.9782,2.6901-1.9486,3.7992-3.2057.6137-.6955.7018-1.4457.2872-2.2535-.8778-1.71-2.1846-3.0252-3.7954-4.0495-.3045-.1937-.6535-.2631-1.0162-.254ZM126.0386,116.0291c.0185.0736.0292.2602.109.4102.688,1.2944,1.6275,2.3987,2.6541,3.431.3394.3414.7076.2274,1.0547-.0286,1.4316-1.0555,2.7593-2.2189,3.8275-3.6556.1995-.2684.3163-.5427.2379-.887-.2862-1.2578-.7216-2.453-1.5564-3.4557-.4882-.5864-1.0968-1.0537-1.9155-.9538-1.6853.2056-4.3712,3.3026-4.4111,5.1394Z"/>
    <path class="cls-1" d="M164.1173,130.6752c0-1.2236-.131-2.4645.0276-3.6672.3196-2.4244.048-4.827-.2341-7.2028-.6093-5.1321-1.2399-10.2615-1.7997-15.3999-.4064-3.7296-.9425-7.4454-1.3227-11.1774-.4019-3.9443-.9468-7.8722-1.239-11.83-.271-3.6709-.6832-7.3319-1.0717-10.9932-.0544-.5132-.2414-1.0583-.5178-1.4928-.6673-1.0489-.7079-2.0946-.2994-3.2362.3218-.8992.5487-1.8322.8252-2.748.0609-.2019.1372-.4295.3857-.4547.2564-.0259.3639.1953.4534.3837,1.7479,3.6804,3.5968,7.3157,5.0106,11.146.0966.2617.2297.595-.0279.7955-.301.2344-.5112-.1066-.7161-.2679-.3888-.306-.7538-.6424-1.1262-.9689-.2075-.1819-.3793-.51-.6944-.3959-.3749.1357-.2955.5284-.2902.8357.011.6371.0109,1.2785.0862,1.9097.604,5.0611,1.215,10.1213,1.8435,15.1794.432,3.477.9605,6.9432,1.3274,10.4268.4152,3.9424.8892,7.8784,1.2683,11.8256.2617,2.724.3834,5.4378.3605,8.1663-.0179,2.1345-.3268,4.2351-.8017,6.3084-.2361,1.0308-.6791,1.9939-1.4475,2.8579Z"/>
    <path class="cls-1" d="M60.4669,92.9983c-2.7318,2.0845-5.8483,3.0699-9.2533,3.0805-.8069.0025-1.7112-.1501-1.9579-1.1383-.327-1.3102.3187-2.3467,1.1568-3.2544.9702-1.0508,2.2704-1.6856,3.3871-2.5552.6458-.5029,1.2258-1.0665,1.7933-1.6541.5099-.5279.4849-.8654-.1867-1.2039-2.1993-1.1086-2.4201-1.6628-1.5683-4.004.2407-.6616.1895-1.3232.1901-1.9936.0011-1.3295.7582-2.0507,2.0262-1.6911,2.4954.7078,4.4339,2.2196,5.5809,4.5733.6351,1.3032-.0998,2.4739-.7181,3.5884-.1767.3186-.5484.435-.9368.3632-.2439-.0451-.4925-.0714-.7315-.1342-1.5435-.4056-2.6176-.0332-3.4852,1.4727-.9487,1.6466-2.5765,2.6948-4.2594,3.5767-.3764.1972-.7689.364-1.1434.5646-.3334.1786-.5632.4503-.5087.8545.05.3709.3467.5357.6671.5991.449.0888.9074.1553,1.3643.1756,2.6136.1165,5.1325-.4997,7.6634-1.0168.3077-.0629.6135-.1351.9202-.2029ZM57.0531,83.5774c-.0295-1.0055-.1518-1.7891-1.179-1.899-.6469-.0692-1.8187,1.1091-1.7822,1.722.0358.6016.9906,1.1891,1.912,1.2212.8891.0309,1.0911-.4786,1.0492-1.0442ZM57.8425,83.6611c.0343.5075-.2689,1.0867.444,1.3875.7902.3334,2.5669.3355,2.6075-.0595.1003-.9775-.6436-1.4964-1.2939-2.0413-.027-.0226-.0577-.0414-.0885-.0588-.4189-.2354-.7983-.7343-1.3261-.4737-.5013.2475-.2545.8262-.343,1.2457Z"/>
    <path class="cls-1" d="M105.1989,91.7502c-.1863,1.1236-.3611,2.245-.9433,3.251-.331.572-.7775.8246-1.4143.5101-1.6225-.8014-3.1851-1.7038-4.6397-2.786-.6997-.5205-.8491-1.1265-.4619-1.9433.4847-1.0226.8618-2.0957,1.3055-3.1385.16-.3761.4047-.7654.8705-.3761,1.3935,1.1645,3.0582,1.9262,4.476,3.0522.4677.3715.7663.8252.8071,1.4306Z"/>
    <path class="cls-1" d="M113.9119,89.3311c-.2065,1.5079-.7246,2.8582-1.4056,4.1483-.2321.4397-.6098.5833-1.0688.3027-1.3585-.8302-2.8228-1.4808-4.1124-2.4283-.5332-.3917-.841-.8565-.5718-1.5445.3997-1.0215.7765-2.0525,1.1967-3.0655.28-.6751.7436-.876,1.443-.5022,1.1855.6335,2.4077,1.1987,3.5884,1.8407.4895.2662.9831.6063.9306,1.2488Z"/>
    <path class="cls-1" d="M129.9725,97.3635c-.1873,1.2576-.4533,2.4947-1.1073,3.6201-.3085.5308-.671.6499-1.2239.3538-1.0289-.5509-2.0794-1.0615-3.1174-1.5956-.7796-.4012-1.0121-1.0062-.7478-1.8563.3566-1.1474.6593-2.3116.9828-3.4693.1801-.6447.4633-.8865,1.139-.4698.9916.6115,2.0409,1.1286,3.0577,1.7001.6599.3709,1.1124.8815,1.017,1.7169Z"/>
    <path class="cls-1" d="M101.4038,66.4838c-.0164.8122-.3692,1.4406-.6464,2.0603-.3817.8536-.2126,1.4111.5126,2.0136,2.3542,1.9557,2.8315,4.7389,1.3527,7.3221-.3452.6031-.8087,1.0748-1.4376,1.3665-.9157.4249-1.8706.7963-2.832.2087-1.0058-.6148-1.0393-1.6739-.8772-2.658.5421-3.2906,1.3197-6.5191,2.9818-9.4607.1835-.3247.2986-.7339.9461-.8526ZM100.0339,77.1665c.6484-.0678,1.534-.5566,2.3264-1.2213.4509-.3783.4725-.8431.0898-1.3017-.6659-.7979-1.5134-1.3667-2.4164-1.852-.4288-.2304-.8252-.1758-1.046.33-.3822.8756-.6943,1.7691-.7136,2.7407-.0184.9228.4105,1.3821,1.7597,1.3044Z"/>
    <path class="cls-1" d="M134.151,89.4907c-.2096,1.0018-.4501,1.8004-.8425,2.5586-.3566.6891-.896.96-1.6522.8717-.7648-.0894-1.0602-.6066-1.2247-1.2736-.6256-2.5368.1051-4.9153.8781-7.2758.6364-1.9432,1.4024-3.8073,1.3103-5.9549-.1125-2.6233-1.1515-4.772-2.7167-6.7574-.2844-.3608-.61-.6893-.8914-1.0522-.4887-.6304-.3622-1.5833.2456-2.037.419-.3129.6505.0385.9017.2592,1.7255,1.5161,2.5913,3.4881,3.0237,5.6961.7098,3.6242-.2501,7.0145-1.412,10.3832-.288.8351-.526,1.6881-.7686,2.538-.077.2698-.1356.5572-.1315.8356.0144.9764.0901,2.0149,1.0879,2.4776,1.0558.4896,1.417-.6168,2.1922-1.2689Z"/>
    <path class="cls-1" d="M142.0749,144.1023c.9491-1.2076,1.9179-2.4005,2.8378-3.63.3786-.506.6809-1.0762.9657-1.6434.3686-.7341.4977-1.5202-.0703-2.2017-.551-.6611-1.3243-.5466-2.0748-.4114-.2992.0539-.6192.4095-.8816.1429-.2813-.2858-.0377-.6798.0813-.9964.1732-.461.3615-.931.6328-1.3375.5693-.8529,1.9501-1.2959,2.9311-1.0009,1.1396.3427,1.3314,1.2723,1.3678,2.2676.0941,2.5692-1.227,4.5272-2.8476,6.3138-.86.948-1.7465,1.8951-2.9423,2.4972Z"/>
    <path class="cls-1" d="M68.8965,136.6212c.7169-.9134,1.4573-1.8097,2.1417-2.7468.3935-.5388.7139-1.1342,1.0348-1.7218.3089-.5657.3448-1.147-.0585-1.6982-.4218-.5767-1.0253-.5283-1.6363-.4826-.302.0226-.6463.3675-.8876.0654-.2789-.3491.0094-.7346.1525-1.088.3048-.7525.7716-1.3426,1.5786-1.6062,1.2796-.418,2.2583.2378,2.3872,1.5795.1461,1.5211-.3178,2.8769-1.1566,4.0988-.9621,1.4015-2.1699,2.5888-3.556,3.6Z"/>
    <path class="cls-1" d="M80.5981,101.6006c-.1809.7059-.3536,1.414-.5449,2.1171-.2058.7567-.2951,1.5234-.2715,2.307.0606,2.0187.8738,2.4735,2.6978,1.3914-.1037.9989-.4084,1.8488-1.1163,2.4565-.8617.7397-2.0814.011-2.1953-1.3305-.1661-1.9552.0058-3.8836.7011-5.7399.158-.422.3308-.8385.4968-1.2575.0774.0186.1549.0373.2323.0559Z"/>
    <path class="cls-1" d="M63.3385,108.4515c.058.818-.3132,1.2838-.5335,1.7893-.294.6744-.8068,1.0844-1.5966.9391-.8554-.1573-1.1229-.822-1.18-1.5595-.1515-1.9588-.0123-3.8919.7068-5.7472.1624-.4189.3502-.828.6914-1.1942-.2304,1.0769-.4788,2.1505-.6826,3.2324-.0844.4479-.1153.9156-.096,1.3712.032.7582.1629,1.512.9355,1.897.7278.3627,1.1683-.2319,1.7551-.7282Z"/>
    <path class="cls-1" d="M130.354,138.8666c-.0606.9914-.3904,1.7674-1.0057,2.3512-.8297.7872-2.0861.1539-2.265-1.1698-.1129-.8353-.095-1.6987-.0429-2.5438.1008-1.6327.6201-3.1595,1.3937-4.615-.2283,1.1579-.4582,2.3154-.6841,3.4737-.1232.6319-.1526,1.2697-.0066,1.8987.2989,1.2877,1.0557,1.5765,2.1597.8447.1075-.0713.2284-.1224.451-.2398Z"/>
    <path class="cls-1" d="M106.8839,133.898c-.3011.7501-.484,1.2414-.6943,1.7207-.2885.6576-.7067,1.1918-1.5205,1.0458-.8093-.1452-1.1967-.7288-1.2463-1.5092-.1381-2.1698-.0507-4.3142.8621-6.344.1276-.2837.2444-.5722.5048-.818-.2481,1.1424-.4948,2.285-.7449,3.4269-.0907.4144-.1755.8202-.1193,1.2569.2561,1.9939,1.0013,2.3812,2.9583,1.221Z"/>
  </g>
</svg>