<?xml version="1.0" encoding="UTF-8"?>
<svg id="Gossip" xmlns="http://www.w3.org/2000/svg" viewBox="0 0 197.009 237.9843">
  <defs>
    <style>
      

      @import url('../../CSS/SvgStyling.css');

      
    </style>
  </defs>
  
  <g class="content">

    <rect id="bg" class="bg" width="197.009" height="237.9843"/>

    <path class="cls-1" d="M105.0158,93.4437c-.2482.6359-.508,1.2676-.743,1.9083-4.2967,11.7112-7.349,23.7361-8.9572,36.1096-.4669,3.5925-.6944,7.2165-1.0163,10.8275-.359,4.0265-3.7758,7.1407-7.6082,6.9152-4.3672-.2569-7.4988-3.4833-7.2599-7.7594.2317-4.1479.5714-8.3005,1.1116-12.4185,1.8712-14.2654,5.5245-28.0834,10.6809-41.5113,3.1509-8.2054,6.8866-16.1315,11.2606-23.7546,1.2338-2.1503,3.1354-3.375,5.5673-3.815,4.6431-.84,9.2897-1.6622,13.9237-2.5499,7.2797-1.3944,14.5636-2.7734,21.8172-4.2947,2.4257-.5087,4.6893-.6048,6.7945.8242,2.7861,1.8912,5.0006,4.3782,7.0125,7.0431,4.8673,6.4469,8.388,13.6251,11.3474,21.0999,4.233,10.6916,7.2239,21.7486,9.5755,32.9839,1.0688,5.1065,1.9827,10.2458,2.9388,15.3754.7457,4.0008-2.017,8.0202-5.9432,8.7058-4.2298.7386-8.0479-1.8637-8.7648-6.0384-1.9472-11.3401-4.2085-22.6094-7.584-33.625-.9889-3.2274-2.0986-6.4179-3.153-9.6252-.0932.0201-.1865.0403-.2797.0604.1606,1.5904.3374,3.1794.4791,4.7714.6605,7.4218,1.4668,14.8347,1.9296,22.269.7195,11.5557,1.5589,23.0965,2.7544,34.6142,1.0405,10.025,1.9223,20.0665,2.8871,30.0994.8948,9.3044,1.8292,18.6051,2.6972,27.912.2558,2.7423.6512,5.5231.4471,8.2461-.4294,5.7311-5.334,10.2319-11.2943,10.3514-6.1809.124-11.2536-4.4767-11.8396-10.4716-1.0292-10.528-2.0201-21.0598-3.0363-31.5891-.9683-10.0325-1.9502-20.0637-2.9228-30.0959-.5393-5.5625-1.0715-11.1256-1.6086-16.6883-.0126-.1308-.0455-.2596-.0671-.3792h-4.9779c-.198,2.3188-.3901,4.5274-.5745,6.7367-.5757,6.8959-1.1495,13.7919-1.7223,20.6881-.493,5.9348-.9826,11.8698-1.4755,17.8046-.5755,6.9292-1.153,13.8583-1.7294,20.7874-.3502,4.2107-.7184,8.42-1.0456,12.6325-.4831,6.2207-5.7868,11.0184-12.0227,10.8436-6.5285-.183-11.7891-5.9733-11.2659-12.4895.8547-10.6448,1.7671-21.285,2.6464-31.9279.7642-9.2506,1.5131-18.5024,2.2748-27.7532.6661-8.0902,1.4148-16.1747,1.9677-24.2726.1734-2.5389-.0997-5.1184-.2903-7.6702-.54-7.2321-1.1149-14.4619-1.7344-21.6877-.2612-3.047-.6687-6.0815-1.0097-9.1216-.0625-.0236-.125-.0472-.1874-.0708Z"/>
    <path class="cls-1" d="M54.0453,82.315c-.9385,3.855-2.0713,7.6506-2.7632,11.5249-1.5594,8.7324-2.3886,17.5325-1.5817,26.4197.1623,1.7876.2453,3.5823.3891,5.3718.0286.3558.1303.7178.2623,1.0516,3.6651,9.2639,5.9398,18.8742,7.1818,28.743,1.2218,9.7079,1.4499,19.4349.55,29.1821-1.1556,12.5167-3.9946,24.6531-8.3658,36.4269-2.0086,5.4101-7.8139,8.5705-13.2128,7.3494-6.0594-1.3704-9.9173-6.4549-9.2927-12.5339.1836-1.7871.843-3.5476,1.44-5.2663,4.2136-12.1298,6.567-24.5983,6.6078-37.4446.0397-12.4967-1.7641-24.7173-6.0896-36.5055-.3016-.822-.733-1.2629-1.5708-1.5622-5.0437-1.8014-8.0213-5.5768-9.8368-10.4496-1.0576-2.8386-1.4244-5.798-1.6874-8.7839-.4908-5.5719-.7998-11.1449-.5745-16.7462.3472-8.6338,2.0305-17.0142,4.5763-25.2416,1.1678-3.7739,2.179-7.6169,4.2689-11.0299,3.5205-5.7492,8.375-9.6357,15.1781-10.788,7.3588-1.2464,12.9288,2.135,15.168,9.2525.2487.7906.7917,1.7559.541,2.3735-.3746.923.0584,1.5308.2453,2.25.0717.2761.324.583.5782.722,3.1074,1.6994,6.3369,3.082,9.8902,3.5211,2.9681.3668,5.5265-.3985,7.475-2.8044,2.1719-2.6817,3.2176-5.862,4.0583-9.1259,1.1162-4.3337,1.6112-8.7588,1.8126-13.22.0859-1.9017.1774-3.7769,1.314-5.4411,1.8124-2.6537,5.0301-3.918,8.1244-3.1144,2.9574.768,5.5109,3.4342,5.4819,6.3864-.1042,10.5977-1.333,21.0175-6.7512,30.4137-3.7321,6.4722-9.2627,10.6617-16.8267,11.6919-4.2433.5779-8.4296.0293-12.5124-1.2461-1.4492-.4527-2.8784-.9699-4.0777-1.3766Z"/>
    <path class="cls-1" d="M137.3177,30.4444c-.0761,11.6323-9.5615,21.0428-21.0981,20.9316-11.834-.1141-21.0665-9.497-20.9629-21.3456.0997-11.3984,9.6071-21.028,21.6136-20.6827,11.0471.3177,20.4121,9.2939,20.4473,21.0967Z"/>
    <path class="cls-1" d="M42.8891,33.1309c.0266-11.8491,7.1776-20.3918,17.3344-22.3104,13.5454-2.5587,26.0823,9.0885,24.5815,22.8103-.0811.7417-.3515,1.0552-1.0458,1.2836-3.535,1.1633-6.0485,4.5167-6.2503,8.2366-.0685,1.2624-.0857,2.5313-.2385,3.7836-.056.4584-.3293,1.0139-.6853,1.294-7.6969,6.0572-19.2335,5.645-26.5846-.9235-4.7061-4.2051-6.9971-9.5033-7.1114-14.1742Z"/>
  </g>
</svg>