<?xml version="1.0" encoding="UTF-8"?>
<svg id="History" xmlns="http://www.w3.org/2000/svg" width="380.9467" height="452.8151" viewBox="0 0 380.9467 452.8151">
  <defs>
    <style>
      
      @import url('../../CSS/SvgStyling.css');

      
    </style>
  </defs>
  <g class="content">

    <rect id="bg" class="bg" width="380.9467" height="452.8151"/>
    <path class="cls-2" d="M119.1461,420.4513c-6.3646,2.4433-14.2976,7.9934-11.1807,15.8762,5.2686,2.8656,14.9813,4.0721,21.0744,3.0063,6.0629-5.9825-3.1974-17.0325-9.8937-18.8825ZM158.2986,433.7535c10.0747,1.9305,17.0023-7.4907,15.474-14.5792-6.2338,2.6846-14.4384,8.0537-15.474,14.5792ZM86.8809,428.6056c-.0402-9.391-4.4542-15.112-12.4777-18.0078-3.5794,9.4111.6737,18.4703,12.4777,18.0078ZM174.205,432.0442c-.2614.2916-1.4076-.2514-1.7193,0-1.5384,1.2367-2.5036,3.5493-3.871,4.2833-1.9506,1.0557-6.9176,2.393-9.4614,2.574-3.137.2212-3.6297-.9049-6.0227-2.574-.2212-3.1169,1.1864-6.0126,2.1517-9.0089,4.3436-2.5237,10.1752-10.2456,17.6358-11.5728,5.4999-.9753,7.5108-3.9112,4.3034-9.4312-7.5007-2.7751-12.9805.2916-17.6358,3.4286-4.2631,2.8555-10.678,8.5363-10.7584,11.9951-3.9816,1.0457-3.3381,6.6863-6.8773,8.1543-2.584-.8245-1.84-3.3381-2.584-5.5702-2.393-7.189-9.5116-11.2008-14.6294-15.8661-7.008-.0201-14.0463,5.158-17.6358,11.1405.1609,2.7851-.5128,3.6599-1.7193,5.5803-1.1764-.3117-.8647.8546-1.7193.8546-3.3985-1.6892-3.9816-5.3189-4.3034-8.1442-4.5447-5.902-10.5473-10.3663-15.0517-16.2985-2.2422-.0603-3.7705-.8044-5.158-1.7093-2.5438.8848-6.0428,2.403-5.6004,3.8509,7.8426,5.6306,18.1284,15.9064,18.9227,26.162-1.4881,1.0859-2.6645,2.4835-3.861,3.861-6.807-1.0557-23.206-5.0575-18.9328-19.7171-2.1416,3.6096-4.3737,5.6205-3.4387,10.7081,2.5338,13.8452,30.013,14.5088,41.7266,16.2985-1.3373-1.3875-2.6041-2.8454-3.871-4.2833-2.1115-12.4375,8.2146-18.239,18.9227-20.5817,6.9779,5.3893,20.2801,23.5277,5.5904,27.8613,15.5947,1.1965,29.4097-2.1919,41.7366-6.8472,3.0365-4.1626,9.7127-9.1296,7.732-15.4539-.734,2.8756-1.1965,7.36-3.871,10.306ZM219.3803,394.7317c6.9176,3.0868,14.2976-.4625,14.187-9.8636-5.8618.5429-9.5217,6.7165-14.187,9.8636ZM218.5156,383.5811c-.0101,3.6498-.1005,4.786-.8647,7.2896,3.9414-1.649,6.3143-4.8664,9.4714-7.2896.2514-1.5082-2.031-1.4076-.8647-2.574-2.956.1005-3.9414,1.0859-7.742,2.574ZM212.0605,379.7302c4.7659.3821,9.4714-.6033,9.4614-5.148-4.2028.6435-5.3792,4.3436-9.4614,5.148ZM167.76,402.4435c1.4278-.9954,3.5995-1.2669,4.7257-2.5639-2.8656-9.9641-7.0382-26.1721-15.0517-29.5907-1.7797,1.0055,1.6389,7.2996-.4323,8.5766-2.0712-1.0758-2.3729-3.9414-3.0063-6.4349-15.0919,2.7047-31.2597,4.4542-47.7493.4223-1.0055,5.5803-2.5539,10.6176-5.1681,14.5892-.8446-5.701,1.4881-10.0948,1.7193-15.4439-6.9377,5.9523-8.9888,16.7711-14.6194,24.0104-.181-8.4861,6.9377-16.2784,9.4614-24.865-1.659-.9351-3.2778-.5329-4.7257-.8546-5.4094,8.4861-13.9256,16.1276-15.4941,27.0066.0603-.925,1.0859-.915,2.1517-.8546,11.06,3.8509,16.2281,13.5636,24.5231,20.1595,4.8966-3.9615,8.476-9.6021,15.0517-10.7182,1.3574-.8647,3.1873-3.6699,5.158-3.4387,2.1215.2614,2.8555,3.4889,4.3034,4.7156,1.0356.8848,2.6444,1.0758,3.8811,2.1517,4.414,3.861,7.4806,9.6323,10.7484,13.2922,5.2988-7.0684.4525-19.3249,1.287-28.736,2.5639,5.0675,3.5694,13.8251,3.871,19.7271,2.1316.3117,3.69-3.3884,6.0328-4.2833.4424-5.7512-2.9359-9.944-1.7294-15.0115,3.2275,2.9359,2.5136,9.7932,5.6004,12.8598,2.2623-2.7751,8.4056-5.4194,9.4614-4.7156ZM159.5856,356.9968c1.5082,2.6242,1.3775,6.9176,3.0063,9.4312,8.6671.744,3.0667-12.89-3.0063-9.4312ZM306.6944,352.2711c-1.1261,4.9066.1408,8.9184,1.297,12.4375,3.308-.2715,6.5656-.6033,9.4614-1.287-2.6041-2.5136-2.1919-8.4559-3.4387-11.1505-2.9259.6234-4.6653-.3419-7.3197,0ZM122.5847,355.7098c10.4166-1.4278,15.3936-1.8299,24.5231-1.297,1.1161,1.2267.5429,3.7504.8647,4.7257-2.8253.7641-5.8317,2.5941-9.4614,2.9963-5.4798.6133-14.3781,1.8601-19.7874,1.287-8.7676-.925-17.8268,1.5585-18.9328-7.2795,2.3126-1.3071,3.4487-3.4387,6.8773-2.584-.1106-1.4479.3419-3.4688-.4223-4.2833-8.3453-1.1261-16.2181,3.1672-16.7811,13.2922.7742-.0603,1.0055.4223.8647,1.287,17.8268,8.4056,48.0408,11.1707,65.8174,3.0063,3.8509-4.7055-2.021-8.5363-3.0164-12.4476-12.0353-4.6754-19.0635-3.0968-30.1135-1.7093-.3217.5832-.9552,2.9862-.4323,3.0063ZM196.1441,366.428c1.4378,3.2879,6.3847,3.0667,9.4714,4.7156-4.8262,2.6846-9.9239.4122-12.4878-2.9963-.7139.8446-2.4634.6737-3.0063,1.7093,2.8957,3.9414,7.8526,6.0026,13.3424,5.148-5.158,5.0273-14.358.4022-16.3488-4.2933-1.4479,2.2824-5.9222,1.5384-7.742,3.4387,10.859,4.2933,24.2215,6.636,34.4169,0,2.2422-3.9213,1.1362-9.5116,2.574-12.4375,2.7851,1.5786.9652,6.1132,1.7193,8.9989,3.0968-2.393-.4625-9.5418,1.7193-11.1405.9753,1.4579,1.9908,2.8756,2.1517,5.1379,4.3134-3.4889,6.9477-15.1221,3.8811-20.5817-7.1991,10.1149-18.3396,16.3186-29.6912,22.3011ZM298.0977,343.2723c-5.4898,10.6579-3.3381,28.545.8647,38.1572,4.796-1.287,9.2904-1.2669,14.1971-2.9963-9.4815-6.2439-12.5682-26.5341-6.8874-36.8903-2.2321,1.0758-5.9825.6234-8.1744,1.7294ZM177.6537,341.5429c-12.9503-.9853-26.5642,2.5036-36.5685,4.2933.5329,1.2568,3.1169.6636,4.7357.4323,2.9762,4.1727,10.9092,3.4186,12.9,8.5766.8044-3.5995,6.8472-3.3482,8.1744-.8546,2.1316-5.3088,7.9733-9.21,10.7584-12.4476ZM325.6271,359.9931c2.1718-8.5967-4.8061-23.9601-13.7647-18.8725-2.2422,1.287-2.7047,4.5547-4.3034,7.2896,5.0876.3419,8.8078-1.478,11.1807.4323-.8647,5.4295-1.478,11.6131,3.4487,14.1468,1.0457-1.096,2.2723-2.021,3.4387-2.9963ZM36.5577,335.128c-3.3582,1.5886-8.1844,1.6992-11.1908,3.8509-13.7044,9.8334-12.0957,40.5401.8647,49.3178,15.0919.1307,33.522,3.3482,49.4686,3.4286,3.6297-8.3755,9.1497-14.8908,13.3324-22.7234-3.0465-2.0914-2.1617-5.7512-3.0063-10.2959,1.8098-1.3574,1.3875-3.9414,2.584-6.0026,1.649-2.8756,6.0026-4.7257,5.158-6.8673-17.6156-3.2376-38.6096-4.4039-57.2106-10.7081ZM231.4257,339.8336c-.1709,1.5585-1.1663,2.9661-.8647,4.7257.2313,1.3272,1.2267,1.8199,1.287,3.4286.3318,8.1442-2.8756,16.3588-7.3097,22.3011,1.8098.2111.9652,5.3088,2.584,4.2933-.4927-1.3473,1.1764,1.3473,1.7193,1.7093,7.1187.0603,8.9989,5.7713,8.6067,10.7182-.6535,8.2146-6.8673,13.6742-15.9265,13.2922-2.7851-.1106-8.9084-2.6444-9.4614-5.5702-.7843-4.2028,4.5648-5.902,3.4487-11.5829-2.5036.0101-4.8966-.6234-6.8874-2.1416-11.0802,4.1827-20.4611-.6938-29.6812-2.574-.3519-1.5182-2.6242-1.096-2.584-2.9963-4.4039,1.0859-5.9825-2.4835-7.742-6.4349-1.0658.6535-3.3381.1005-4.3034.8546,6.5656,12.6386,10.6277,24.0405,16.3488,34.7286,11.6332-1.2669,22.5726.1508,33.5522,0,21.0945-.2514,38.4085-3.9313,54.6366-3.4186,15.9868.4927,27.5596.8546,42.1488,1.7093-7.4505-3.127-12.0957-11.1204-15.0517-19.7271-2.4935-7.2594-4.7257-18.2591-4.3034-27.0066.6033-12.3772,7.5309-21.6475,12.9101-29.5907-8.4157-.191-15.5746,2.2522-24.0908,3.4186-14.9311,2.0511-29.2689,4.6352-44.3106,6.4349-1.85-.744-3.7403-.2212-5.5904.8647.1005.8546.9552,1.6791.8647,2.5639ZM222.3967,325.2645c-7.2896,14.4183-19.5059,22.5223-31.8429,30.4453.3318.0905.5027.3519.4323.8546-5.2384.3921-11.6533,7.0885-20.6421,6.0026-.5932,6.1232,2.8052,7.7521,8.1744,7.7219,18.1284-8.3755,37.2824-15.7153,47.3169-32.1646.2413-1.3875-.3016-1.9908-.4323-2.9963,1.0658-.6636,2.5539-.8848,3.0063-2.1416-.8546-2.584.0704-8.8078-6.0126-7.7219ZM317.8851,376.7239c1.7797-.9954,6.6964-2.031,8.6067-3.4387,13.262-9.753,11.05-45.0446-5.6004-48.8854-2.946,2.1718-7.2795,2.8756-11.1807,3.0063-3.9816,2.8756-6.8271,6.9176-9.029,11.5728,4.5849.5731,9.0391-2.2623,13.3324-4.2833.0804.4927.6737.4625,1.287.4323.5832.2815.8044.9049.8647,1.7093,2.8354-1.2166,4.0922,1.9606,6.445,2.574,4.2732,6.1232,8.0236,13.8552,5.6004,24.0104-3.4186.8044-2.9259,4.5949-6.455,5.148-1.3473.2212-2.956-1.1362-4.7257-1.287-2.9862-.2413-5.5803.4022-7.3197,2.1416,1.7394,3.4186,3.9816,6.3344,8.1744,7.2996ZM217.6509,324.3998c-10.0546,4.1123-20.4209,7.9331-27.9518,14.5792-9.0089,4.3134-16.3287,10.316-21.0845,18.8725.8044.4826.915,1.659,1.7294,2.1416,1.3674-.2313,3.2879-1.6288,5.5904-2.1416-.2514-1.3976.2916-2.0009.4223-3.0063,1.468-.6737,2.1215-2.1718,3.871-2.574.2514-1.2367.3217-.744.8647-2.1416,10.0848-6.1836,22.834-18.048,34.4169-19.7271,1.2166-1.9305,2.212-4.0721,3.4387-6.0026h-1.297ZM180.6601,158.4387c-.6133,1.8299-3.7604,3.3884-3.0063,5.148,3.0767-2.7851,8.6369-5.3792,10.7484-7.7119-2.5639.6535-4.6754,3.8006-7.742,2.5639ZM190.5538,155.0101c1.7897-1.2166,5.8819-2.4232,6.0227-3.861-1.8802,1.4076-4.5949,1.9908-6.0227,3.861ZM269.2812,67.0928c-30.2442,7.6415-47.9503,31.0687-65.3951,53.1787,5.2083-13.1011,14.0664-22.5726,22.8038-32.1646-18.0078,7.1991-28.3539,24.3422-39.5749,36.8903,3.6498-7.551,7.742-13.7949,13.3324-20.1595-20.3706,15.7153-37.3528,34.7989-47.3169,60.8906-6.4852,8.5464-7.2494,22.7938-12.0454,33.0193.734-6.0026,1.84-10.9092,3.0164-17.5754-4.5949,4.6754-7.8727,12.0957-7.742,20.1494-3.7604,3.4085-2.4433,11.8644-5.1681,16.2985.744-4.2933,1.4177-7.4907.8546-11.1505-9.401,17.9474-15.2428,39.3838-16.3387,63.4746-.3016,6.6159.925,13.2821-1.7193,18.8624-.6938-4.8161-.3217-15.2729-.4323-20.5817-4.7558,14.5188-4.2129,31.5312-5.1681,47.5984-.5631,9.6021-1.7998,19.8075.8647,27.8713,1.9908-22.7334,5.0776-45.5272,11.1807-67.3155.6133-2.1617,1.8702-3.8207,2.1517-6.0126.7742-5.9121-1.1764-14.7601,1.297-21.0141,1.5585,2.5438.2614,10.3361,1.287,12.4375,4.052-8.2548,2.0009-19.8377,5.1681-30.013,2.1316,4.4341-.4726,8.5766.8546,14.1468,3.3281-4.4542,1.8903-14.7903,4.7257-18.4502.8044,1.2166.2313,3.7805,1.297,4.7257,4.2028-9.3809,7.7521-19.4255,12.9101-27.8814,1.4479-7.5309,1.0557-16.2683,3.871-23.578.3821,3.1571-.6435,10.7584.4323,14.5892,5.2083-7.742,6.6159-16.952,9.4513-26.5944-.4525,3.4387.5832,6.1836-.4223,9.4312,4.4039-3.1169,1.9104-12.156,5.5904-16.7308.2815,2.3025-.5631,5.7211.4323,7.2996,3.5895-5.5602,7.2192-11.1103,11.6131-15.8661,1.7897-6.7868,4.7156-14.73,8.1744-18.4401-.4826,3.9615-2.6142,8.5363-2.584,11.5728,4.3335-4.1123,4.1023-12.7794,9.4614-15.8561.3519,2.3427-1.4278,2.5639-1.287,4.7055,10.6277-11.6834,21.4364-24.2014,33.5522-36.0256,11.5326-11.241,25.8604-25.1767,41.7266-31.2899-.1709-.744.6435-1.106,0-1.297-.1005.4223-.4525.7541-.8546.8546ZM258.0905,102.6961c4.0621-3.7705,7.6214-8.3453,10.3261-12.4476-1.9204,2.0109-4.0822,4.1324-6.455,6.0126-4.7659,3.7805-10.2356,7.8929-14.6194,10.2858,7.9431-9.9038,20.079-17.123,28.8165-26.152,1.7596-1.8199,3.8006-4.4743,3.871-7.2996-13.9658,11.9549-29.2488,22.5927-42.5812,35.171-3.2476.4022-4.5045,4.8664-6.8874,4.7156,13.996-18.6312,36.5786-28.7159,50.3333-47.5984-23.6082,9.0592-39.8866,25.4281-56.7883,41.1635-10.9394,14.5389-25.7398,27.5194-35.2715,42.0282,3.4085-1.7294,6.083-3.9012,9.8937-3.861-4.0922,2.9259-9.1396,4.9066-12.0454,9.0089,6.6461-2.2422,13.3223-6.7265,19.3551-8.1543-2.0511,2.6745-6.5757,2.8756-8.6067,5.5803,5.2988-3.4387,13.8351-5.9222,20.6521-8.5766,3.2476-1.2568,7.0684-5.4194,8.6067-1.7093-18.9931,6.1031-37.8053,16.0572-51.6203,28.726-1.4881.3519-1.8098-.7943-2.584,0-3.4487,7.5611-9.7429,14.5892-12.0454,21.8687,4.6653-3.7906,10.5875-6.3143,16.7811-8.5766-7.2091,6.6863-20.3002,9.7831-22.3715,20.1595,9.0089-6.1735,20.5817-12.0655,31.8328-14.5892-13.7647,4.8564-25.2974,11.9549-35.7039,20.1595-.4726,2.2522-1.5182,3.9213-2.584,5.5803,8.1543-2.7348,15.1523-8.9184,22.3715-11.1505-7.6918,6.2037-16.5901,11.1908-24.9454,16.7208.372,1.8299-1.8702,3.2577-.8647,4.2933,6.6662-1.3674,12.5481-5.7914,18.5004-6.4349-5.7914,5.0876-14.6998,7.0784-21.5068,11.1505-5.9724,14.6294-13.8854,29.6208-16.7811,45.8791,2.8957-3.3985,6.254-8.6268,10.3261-9.4312-4.6854,4.9167-7.4404,11.7538-12.9101,15.8661-.2413,2.9058-1.3775,4.9066-1.7193,7.7219,5.1178-1.6288,6.9879-8.7575,12.4777-8.5766-3.7504,4.4039-7.6717,8.6369-11.6131,12.8699-1.3272.3016-.8245.3016-2.1517,0-.0503,3.6699-2.8253,6.8974-1.7193,10.2858,2.2522-1.6188,5.1681-4.8463,7.742-4.7156-2.584,3.4286-5.0172,7.008-9.029,8.9989-2.0813,16.8817-5.0675,33.9141-5.1681,51.4694,2.1517-.2916,3.3281.3921,5.1681.4323,2.2422-3.9716,5.1278-9.3809,4.7257-14.5892,3.2476-3.6197,5.6105-10.4065,8.1744-13.2922-2.4131,1.1864-6.998,2.403-7.3097-.8647,3.2175-4.7759,8.2347-7.7823,12.9-11.1405-3.7403.6234-4.796,2.3427-8.1744,2.574-.1005-.6234-.7038-.7239-.8546-1.287.3519-.5027.5631-1.1462.4323-2.1416,8.0336-4.9569,14.8607-10.4467,17.6358-21.4464-4.414,3.7504-5.7412,10.5875-11.6131,12.8699,8.0135-12.3068,16.6202-24.0204,21.9391-39.0219-7.8627,5.8819-14.0664,13.4229-19.3651,21.8687-1.2066-1.2468-.9351-2.2723-2.1517-1.7193,1.5283-2.4835,3.8911-4.1324,4.7357-7.2896,7.4907-10.7484,19.164-18.601,29.2488-24.4528-4.5346.8546-7.7621,3.9917-12.9,3.4387,3.5191-9.0692,13.443-11.7538,20.2097-17.5754-.4022-10.1954,13.2017-11.4823,12.9101-21.4464-4.9368,4.6452-11.9046,9.572-16.7711,12.8598,6.9879-10.4668,19.5361-15.3936,26.2324-26.162-16.3186,9.1798-29.3192,21.6676-43.0135,33.4617,4.5849-7.8225,11.5527-14.2574,18.5004-19.7372,7.551-5.9624,15.4941-11.9046,24.0807-16.7208.0804-.6435-.1508-1.5786.4323-1.7093,6.1132-.9552,8.5866-5.6909,12.0454-9.4312,3.7906-4.1123,5.9523-5.4395,5.1681-12.4476,2.1617-2.5539,6.4349-3.0164,6.445-7.7219-5.0876,2.3628-9.9239,4.9871-15.4841,6.8673,8.1141-7.6415,22.2307-11.5628,27.5295-20.5817-10.6176,4.424-18.9529,11.1204-30.1135,15.0014-.2212-.6133,1.6791-1.0457.4323-1.287-4.6251,2.6946-7.0483,3.308-12.0454,4.2933,14.4887-6.1635,28.5953-14.921,41.7266-21.0141,1.659-3.0164,4.8564-3.9816,6.0227-7.2896.5731-1.6389-.3318-3.6297.4323-5.148,1.5987-3.1773,5.3088-4.3737,6.455-7.2795,1.1663-2.9762-.0905-6.8271,1.287-10.306,1.0557-2.6544,4.2028-4.2229,6.0227-5.9925,1.4076-3.9213,2.021-10.8187,3.4387-13.3022,2.9963-1.4479,4.786-4.0922,6.0227-7.2896-5.8317,4.1928-11.6332,10.688-18.4904,12.4476,3.7805-5.0273,9.8636-8.4559,14.6194-12.8699ZM332.9469,53.8107c-.9954,1.7998-1.7897,4.3436-.8647,6.8572,2.6041-.372,4.7156.4726,6.8874-.8546-1.5384-2.0511-1.3574-5.8015-3.871-6.8673.4323,1.4479-1.3473.6636-2.1517.8647ZM316.1658,55.9422c-.4625,3.4387,1.649,10.6679,3.4387,14.5892,6.1836.3921,8.4157,1.3976,13.7647,1.287-2.8153-4.7558-5.2384-12.5582-3.871-18.8725-4.1827,1.2669-11.3617-.4625-13.3324,2.9963ZM307.1368,40.0861c-3.499,12.7693-6.9879,25.3376-6.0328,41.5858,7.0885-.0804,17.6559,1.8702,24.5231,3.4387-11.2813-9.2603-17.4447-32.9187-7.3097-47.1761-4.3637,1.0155-8.104-.0101-11.1807,2.1517ZM337.2402,70.5314c4.0721,1.0557,8.0839-.9552,9.4614-2.574,6.5154-7.6415.6435-24.5634-8.1744-29.5907-4.8061-2.7449-11.3014-2.8656-15.0517-.4323-3.8107,2.4835-5.1379,6.5355-7.3097,13.2922,9.0391-1.1965,21.0744-4.1324,25.3778,4.2933.3821.744-.1005,2.2924.4323,3.4387.8949,1.9104,2.031,1.3574,2.1517,2.9963.0704.915-1.3674,2.3025-1.7193,2.574-2.6343.0905-7.4303-2.1416-9.4614-.4323.6938,2.8756,2.6444,4.5045,4.2933,6.4349ZM341.5436,85.9652c7.1689-.5228,11.6935-6.7868,13.7647-12.0052,5.7412-14.4585-2.5338-32.2049-10.3261-42.8828-2.7047-3.7001-5.6808-7.8325-8.1643-9.4312-10.0345-6.4852-24.1712,4.0922-28.3942,14.1468,7.6717-.0201,13.6944-3.4487,21.0744-3.4286,7.3499.0201,15.7153,6.2137,18.9328,12.0052,2.6946,4.8664,4.6251,16.2583,2.574,21.8687-2.031,5.5904-7.5812,6.8773-12.0353,9.8736-4.1626-1.1965-13.0207-.7742-17.2135-1.287,3.7303,6.2439,10.2255,11.8343,19.7874,11.1405ZM167.76,336.8373c4.7458-.2514,9.4413.8446,14.1971.4323,3.9012-.3419,6.5355-2.2723,9.8937-4.2833,5.9121-3.5694,12.2666-6.8773,17.6358-9.8736,2.8756-.2212,8.3956-2.1919,9.029-3.861,8.8581.1307,13.1715,5.2485,14.1971,13.2922,2.9862-1.4278,5.6004-.7139,7.742-.8546,22.5927-1.4881,48.3626-10.6378,70.9754-8.5766,7.6113-3.5392,14.3881-2.755,18.5004,2.574,8.5464,11.0802,11.9449,35.1106,2.584,46.7438-3.7202,4.5949-10.0244,6.5858-15.0618,9.8636-5.8719-.2514-11.7035.3016-17.6358,2.574,5.0977,15.5042,21.2152,21.6576,36.1362,13.2821,2.2321-1.2468,4.8664-3.9213,6.455-5.5602,7.6113-7.9029,11.231-17.7866,14.6294-28.736,3.5392-11.4321,3.3884-22.4921,4.7257-35.1609,2.1316-20.2499-1.2367-42.1287-6.0227-61.333-7.0181-28.1227-15.3835-56.2856-26.6748-82.7593-11.3416-26.6447-20.7728-53.1486-27.9618-79.7631-3.7001-13.7145-4.7458-29.3996-3.4387-42.8828,2.9963-18.6915,7.6013-37.765,24.0908-45.0345-18.2792-2.5338-32.7076-1.297-52.4749.8647-19.2847,2.1014-40.1781,3.3582-55.4913,2.9963-42.541-1.0055-87.304-2.3025-139.8091-4.2933-1.0256,1.1362-1.3272,2.9762-3.4487,3.0063-28.2433,32.5568-24.7142,102.5568-9.8837,144.5247v2.9963c6.0931,19.9986,13.0609,42.6616,17.2034,65.6163,3.6197,20.0287,7.2695,42.8627,2.1517,62.1776-4.2833,16.1577-12.3269,31.7926-24.9555,41.1735,14.9311,1.9606,35.734,5.6306,50.7656,5.5602-2.755-26.2324.8345-58.4876,5.5904-79.3207.5128-1.2066,3.2175-.2313,3.0164-2.1517,1.6087-15.4036,3.6498-30.3749,8.5967-42.4505,3.5292-5.6306,6.8472-11.4723,8.6067-18.8725.8546-.8546,2.202-1.2367,3.0164-2.1316,4.8061-18.792,16.4493-30.767,22.7938-48.0408,3.0465-1.8098,3.2074-5.349,5.158-8.5665,6.455-10.6478,14.5088-17.8368,23.2261-26.5944,5.2183-5.2384,12.6286-12.9704,17.2135-14.5892,1.1764-.4122,2.2924-.6535,3.871,0,5.5803-6.6662,13.0207-10.6277,20.6521-14.5691,2.393-1.2468,5.3591-1.7596,7.742-3.0063,3.1471-1.649,5.9222-4.9066,9.029-6.8572,11.0098-6.9276,24.9153-9.3307,35.7039-15.8661,2.4232,1.0256,5.9724.8949,6.455,3.8509-.9552,4.3637-1.6791,4.5748-4.3034,6.8673-.1408,2.1416,1.6389,2.3729,1.287,4.7156-1.5384,5.0373-5.5602,7.6013-8.6067,11.1505-.4826,3.8509-4.052,7.8225-6.8773,10.7182-.8848,9.7027-6.9377,14.2474-10.7584,21.0141,1.659,7.4404-4.6653,9.7127-6.8773,13.7245-1.9908,3.6197-.8747,7.6314-2.584,12.4375-9.0089,8.285-8.2448,24.503-21.9291,29.1583-2.4131,5.3189-4.0621,11.3919-8.6067,14.5792-1.0658,11.3717-9.0089,15.8963-16.3488,21.0141,1.0758,6.817-5.7311,8.6469-9.029,12.4375.4223,9.0491-7.6113,15.4338-13.7748,20.5817-.3117,11.9851-14.9009,12.0152-18.9227,18.8624,6.1031-2.5237,12.5883-4.424,17.2034-2.5639-1.9305,6.8874-11.5427,6.5355-17.2034,10.7182-4.0017,7.5912-6.817,16.3588-11.6131,23.1557,1.106,10.0345-6.2741,18.8524-11.6231,25.2974,2.6946-.5329,4.3335-1.3272,4.7458,1.287.8446,5.5803-13.5435,7.0483-12.9101,12.0152,3.2677-.362,3.5191-1.4378,6.445-2.1416.4726,1.2468,1.8299,1.6087,1.7193,3.4186-3.5593,3.308-7.5409,6.2137-9.029,11.5929,14.1569,1.8702,27.1776-4.8463,40.8719-5.5803ZM73.5485,396.8733c-12.7593-3.4588-24.8248-2.3528-38.7102-3.0063-7.1287-.3318-9.8434.1508-13.7748-4.7055-5.9523-7.3801-11.3315-21.7883-9.029-34.7487,1.4177-7.9934,6.2741-13.0911,9.8937-18.4301,4.6151-1.9305,8.1342-5.5602,13.7647-4.7257,1.5987.2514,2.393,1.287,3.871,1.7294,3.2979.9753,7.189.1307,10.3261,2.1416,5.4697-3.7101,10.3361-7.9934,14.1971-13.3022.0804-3.7303,3.2476-5.5904,4.7357-8.5766,4.4642-9.0089,6.817-19.9785,8.1744-29.1583,1.7495-12.0454.9954-27.3887-.8647-39.4442-2.4935-16.1175-8.7073-32.1144-12.4777-47.1761-6.7667-27.0871-15.8963-52.9877-17.2034-81.4824-.2916-6.3847-.3419-18.9127-.4323-27.0167-.2212-20.0187,4.414-49.1669,17.2034-66.0486,2.3025-3.0264,5.8317-6.1635,4.3034-9.4312,30.2241-.8446,59.7544,1.7294,88.6212,2.9963,31.9233,1.4177,60.8403,2.1517,95.0662.4323,11.422-.5731,21.8185-3.0063,32.6875-3.8509,1.1462-.0905,2.3327.553,3.4387.4223,2.6343-.3016,5.0172-1.5987,7.7521-1.7093,4.6352-.2011,11.0399-.4022,16.3387,0,1.84.1408,4.2229,1.4479,6.455,1.7093,4.6352.553,10.1149-.4424,12.9101.4323,1.2568.3921,4.0218,3.9213,6.8773,3.861,8.4961,8.2347,18.8322,22.0698,21.9391,36.8802,1.4278,6.817-.1709,18.9227-3.0063,24.4427-2.2321,4.3235-7.2192,9.7127-13.7748,10.7182-2.3327.362-5.6708-.4726-9.029-.8546-9.7127-1.096-21.0744-2.212-31.4005-3.861,1.3674,23.7288,10.6176,46.6131,18.4904,66.4709,2.755,6.9377,4.7055,14.1166,7.3197,21.0141,11.8443,31.2798,23.6886,60.8604,32.2551,94.3422,2.0612,8.0035,3.4487,16.4996,5.6004,25.7196.6435,2.765,1.8199,6.0428,2.1517,8.5866.2715,2.0914-.5832,4.0721-.4323,5.5702.5429,5.3993,2.6745,9.3307,2.1517,15.4439-1.3373,15.7656-5.1178,36.3876-11.1908,51.4493-4.2028,10.4568-8.3051,17.7262-15.4841,25.7398-4.9167,5.4999-10.6478,8.7374-15.9164,11.5728-1.287-.6234-2.393-.9753-3.871,0-4.8262-3.0968-9.3106-.8446-12.9-4.2833-16.9822-.2715-31.7826-2.031-49.0463-1.7193-10.5372.191-21.3861,2.1115-32.2551,2.584-16.2784.6938-32.0641.3217-46.4623.8546,1.3071,3.2879-.8245,5.5099-.8546,8.1442-.0302,1.4378.915,2.8454.8546,4.7156-.5932,19.5662-20.7527,22.0799-34.8392,26.5944-7.8426.4424-14.6998.4826-24.0908-.8546-4.8363-.7038-10.0848-2.1919-15.0618-2.584-3.9414-.3117-8.285.7843-14.1971-.4323-13.2318-2.7047-25.8805-5.1982-31.4005-16.7208-1.9808-8.0839,3.1773-13.5536,3.871-17.1531-.9652-4.5045,2.4131-9.954,6.455-13.2922"/>
    
  </g>
</svg>