<?xml version="1.0" encoding="UTF-8"?>
<svg id="HoneyAndCupping" xmlns="http://www.w3.org/2000/svg" viewBox="0 0 380.499 200.2842">
  <defs>
    <style>
      

      @import url('../../CSS/SvgStyling.css');

      
    </style>
  </defs>
  
  <g class="content">

    <rect id="bg" class="bg" width="380.499" height="200.2842"/>

    <path class="cls-1" d="M24.6613,181.4169c-7.6515-2.2684,14.8573,9.4515,39.1491,1.3091.4119-.1411,3.6678-1.3486,3.5775-1.5743-.0056-.0226-6.3368,1.6138-6.444,1.6307-11.8723,2.7029-23.6373,2.4772-36.2826-1.3655"/>
    <path class="cls-1" d="M53.6761,183.4257c2.037-.3611,3.2671-.7448,3.2333-.9085-.0508-.3047-5.0784.4119-11.2967.4627-6.2183.079-11.2516-.5699-11.3024-.2314-.0903.5417,10.0779,2.3361,19.3658.6771"/>
    <path class="cls-1" d="M44.4785,175.6557c-3.6395-.4909-6.8785-1.484-10.518-3.4928-1.6138-.9085-2.5674-1.58-2.6859-1.4389-.2709.316,2.5223,2.4941,5.1518,3.837,7.6064,3.6057,14.4115,1.817,14.3325,1.422-.0226-.1241-3.6395-.1129-3.7693-.1129-.9028-.0282-2.1894-.1806-2.511-.2144"/>
    <path class="cls-1" d="M35.5799,171.2657c.7787.7279,1.343,1.0778,1.8508,1.3994,5.0389,3.0076,9.8183,1.58,9.7393,1.1963-.0282-.158-.8238-.1185-2.0652-.1919-3.2333-.1975-6.0998-1.089-9.0227-3.0358-1.027-.6997-1.642-1.2075-1.7662-1.089-.1129.0959.2991.8126,1.264,1.721"/>
    <path class="cls-1" d="M42.3794,162.3558c-.9367-1.3204-1.326-2.2909-1.4953-2.2345-.8351.2201,3.1317,9.8973,12.3463,8.3061,1.7267-.2934,2.6577-.8746,2.5956-1.0157-.0508-.1524-1.0552.1354-2.6803.2088-4.153.2088-8.1989-1.5856-10.7663-5.2647"/>
    <path class="cls-1" d="M44.5801,162.5364c-.4458-.4683-.7223-.8069-.8803-.7448-.6263.2483,1.422,4.2715,5.0841,3.9612.7505-.0621,1.1737-.2991,1.1455-.4571-.0282-.1524-.4627-.2144-1.0947-.3555-.316-.0677-.6828-.1806-1.0778-.3103-1.1511-.4345-2.2232-1.0778-3.1768-2.0934"/>
    <path class="cls-1" d="M54.6297,110.2736c-.3893-.711-.8633-1.4615-1.3994-2.2458-6.0885-8.4471-15.7601-11.5845-23.0674-10.4785-3.7806.5586,1.106.3668,3.7524.6546,7.059.7561,13.5482,4.0684,18.5476,10.3882.553.7336,1.0495,1.4332,1.4671,2.0991,1.4107,2.2232,3.4026,6.6979,2.2402,3.0753-.2709-.8577-.7674-2.0709-1.5405-3.4928"/>
    <path class="cls-1" d="M55.826,108.1914c-.2144-.4006-.4458-.869-.7618-1.3486-.1524-.2483-.316-.5022-.4853-.7674-.1749-.2652-.3781-.5191-.5756-.7956-.9875-1.4163-2.8834-3.4308-5.022-5.0615-2.8496-2.1217-5.4226-3.2558-8.0409-4.0289-1.9975-.6433-5.2985-.9423-2.7649-.1072,3.7016,1.1568,6.8954,2.6521,10.1174,5.0559,2.0427,1.5574,3.9781,3.4872,4.9656,4.7342.2088.2483.4176.4853.6038.7279s.3611.474.5304.6997c.3498.4345.6207.8633.8859,1.2245.1241.1806.2483.3498.3611.5078,1.1229,1.7041,1.2527,1.5969.474-.2709-.079-.1749-.1806-.3668-.2878-.5699"/>
    <path class="cls-1" d="M68.46,103.649c-2.3643-6.8051-8.5318-14.293-18.525-18.4235-.474-.2031-.474-.1975-1.5405-.5417-2.037-.6263-4.0515-1.1285-6.1957-1.2978-.3047-.0113-.5812-.0226-.8295-.0282-3.5041-.1016-.2821.3555,1.7041.7843,1.958.4683.1467-.0621,3.6113.9423.2596.079.1411.0395,2.1273.7674.3216.1072.3668.1411,2.2853.9931,7.5387,3.7129,13.2773,9.4741,16.8548,17.0128.1185.2765.2314.5248.3329.7505.8126,1.7944,1.0213,1.896.4176-.158-.0734-.2426-.1524-.5078-.2426-.8013"/>
    <path class="cls-1" d="M66.8688,95.6138c-.948-1.4897-2.7367-3.6734-4.7794-5.5468-5.5186-4.9825-11.2403-6.5738-11.3475-6.2521-.0621.1636,1.264.7505,3.2784,1.8734.2539.1467.5191.2934.79.4514.2709.1524.5473.3329.8351.5135,1.4163.8351,3.7073,2.4884,5.6709,4.2659,1.9467,1.7831,3.8088,3.9104,4.7794,5.2477.5699.7731.1016.0903,1.106,1.5292,1.3035,1.9016,2.0088,3.1656,2.1894,3.0809.1072-.0508-.3386-1.4558-1.5066-3.5154-.7674-1.326-.4401-.7618-1.0157-1.6477"/>
    <path class="cls-1" d="M62.0161,71.4969c-2.1386-.9141-8.0804-2.2007-3.0978-.4288,1.9749.7505,3.4477,1.4671,5.101,2.3361,2.0201,1.01,5.2082,3.1768,7.9054,5.6653,3.7975,3.5888,6.839,7.8208,9.1468,13.1249,1.6646,3.7298.4514-2.3304-3.775-8.6841-3.8483-5.3775-8.8421-9.4515-15.2805-12.0133"/>
    <path class="cls-1" d="M125.0113,18.1563c-.1636.1636-1.8621,1.9693-1.6928,2.1273.1072.1016,1.9862-1.58,2.0991-1.6702,5.4114-4.328,9.3613-.5868,7.7757,2.5561-.3498.6997-.7731,1.2245-1.0383,1.5969-1.3599,1.8395,1.7831-.7279,2.116-2.6577.6771-3.2333-4.232-6.8051-9.2597-1.9524"/>
    <path class="cls-1" d="M137.0303,19.7758c-.9931,4.9374-4.3675,8.1255-44.1994,45.4351-.2596-.3216-.5304-.632-.7956-.9367,11.0597-11.6353,18.6266-19.0949,34.8325-33.4218,12.081-10.7719-15.7206,11.4321-35.7522,32.423-.3047-.316-.6094-.6207-.9254-.9141,18.8974-17.2046,16.7589-16.962-1.01-.9085-1.5348-1.3035-3.2107-2.4264-4.9994-3.3461,8.4246-8.4076,7.7926-9.6942-1.2978-.6151-.1467-.0677-.2934-.1411-.4458-.2088,2.1442-2.7762,38.9855-37.8175,39.3071-38.1222,10.5801-9.965,16.2736-4.2885,15.2861.6151ZM97.0573,81.033c-.1016,6.1111-2.2289,6.9518-2.8778,9.2766,1.6759-5.9982-.4853-13.2209-3.7129-18.1752-9.4064-14.4171-23.389-12.3745-22.1815-12.2842,2.3022.1806,7.7136,1.8,11.8553,4.3392,7.2396,4.4465,13.4579,13.0685,12.8992,22.0348-.6884-3.7693-2.2966-6.365-2.5279-6.2408-.1129.0564.4119,1.1906.9085,3.1204.4796,1.8395.6376,3.3631.6489,4.7737-.7505-5.0051-3.9668-16.0027-15.5852-23.6543-1.9129-1.264-3.9499-2.3417-6.0828-3.1938-1.0326-.4119-2.0878-.7674-3.1543-1.0608-1.027-.2821-2.1386-.3611-3.1373-.6884,1.7718-1.8339,4.5198-2.3474,6.9631-2.5279,2.669-.1975,5.9474-.0056,8.4359,1.0665,10.1343,4.3787,17.7294,12.1939,17.5488,23.2141ZM88.881,99.9192c-1.2696,2.7819-3.4082,4.5424-5.7838,6.3481,3.8483-4.7963,6.664-19.2811-8.8139-31.2042-7.5669-5.8233-20.8329-13.1757-26.8875-5.8402-.2483-.0056-.4966-.0056-.7448,0,3.9217-5.8289,8.1876-4.249,8.1311-5.1857,0-.0451-.3047-.1072-.8633-.1185-2.8552-.0508-6.3424,1.5969-8.4584,4.6609,1.1906-6.3706,13.2096-10.1682,23.0787-6.6471,17.515,6.2521,25.8662,25.9226,20.342,37.9867ZM83.7631,98.5988c-.316-1.9524-.8746-3.0301-.9705-2.9906-.1241.0339.1749,1.185.2426,3.0696.0508,1.3768-.0621,2.5505-.2878,3.6452.237-14.9814-18.8184-32.1973-34.6011-33.0719,7.7982-4.9261,17.9438,1.4163,24.4386,6.1957,10.9186,8.0296,13.5933,18.6943,11.3419,25.7421.0226-.869-.0226-1.738-.1636-2.59ZM78.2388,110.3977c.6433-2.511.2031-4.5537-.0056-4.5142-.1298.0056-.079.9875-.4063,2.4884-.2426,1.185-.8013,2.7198-1.817,4.1418.8972-3.3405.0282-6.2803-.2201-6.2126-.1298.0226.0395,1.0665-.1185,2.7254-.1241,1.3599-.5586,3.1599-1.5348,4.8979-.0056.0056-.0113.0056-.0169.0113,5.2308-17.2836-18.9708-37.1911-32.9422-36.3109-2.5054.158-5.6653,1.1455-7.9788,2.9116.7223-1.1229,1.6533-2.1047,3.1261-3.2051.5812-.3893,1.1455-.7336,1.6872-.9875,1.0834-.5248,2.0257-.8126,2.6803-.9705.6546-.1524,1.0326-.2314,1.027-.3047,0-.0451-.3837-.0903-1.089-.0564-.6997.0395-1.721.2144-2.9173.6546-.6038.2201-1.2358.5361-1.9016.9085-.6376.4006-1.326.852-1.958,1.4445-.8633.7674-1.6025,1.6533-2.2176,2.6577.3893-1.2245.9085-2.5561,1.5292-3.5549,5.3662-8.6503,24.3257-10.1738,39.7303,7.4935,9.5475,10.9412,9.3613,20.3645,5.3436,25.7816ZM71.4168,116.4806c1.5235-3.4533,1.4445-6.9631.7223-9.2258-.2031-.6207-.3724-.9423-.4232-.9254-.1411.0282.2596,1.422.158,3.696-.0169.5643-.0903,1.1793-.1919,1.8339-.7223,3.6621-1.9524,5.1574-2.7762,6.3311l.1129.0903c-.2257.1185-.4627.2314-.6997.3386,1.9185-2.9173,2.3587-6.5568,1.4558-9.2033-.8577-2.5054.1975,1.2753-.7223,4.7173.5812-15.1733-23.8856-33.371-38.1617-29.3985,15.557-20.1896,52.7876,19.0724,40.526,31.7459ZM64.2788,121.164c1.1342-3.0132.6658-5.6314.4176-5.6032-.1241.0113-.1241.931-.4458,2.3474-.2426,1.106-.7392,2.511-1.6082,3.8822.0282-.0734.0621-.1524.0903-.2314,1.2753-3.3631.8126-6.6584.5361-6.6133-.1354.0056-.0677,1.2075-.4683,3.0696-.4458,2.0765-1.1963,3.5831-2.1442,4.9487.7166-1.5517,1.1285-3.2389,1.2188-4.7342.9875-17.278-22.0912-27.6944-30.8261-26.0975-1.9524.3611-4.1192,1.4953-5.7556,3.0809.9818-2.9963,3.0753-5.0728,5.8289-6.1675.553-.2201.8746-.3329.8577-.4063-.0056-.0451-.3498-.0508-.9649.0564-2.7254.4796-5.7386,2.7988-7.0082,6.2578.5586-5.7725,7.2735-13.6666,23.3665-5.8797,8.2835,4.0063,18.0398,12.8823,19.7495,21.747.7787,4.0458-.3668,7.6741-2.8439,10.3431ZM58.0492,124.2675c.1129-.2934.2144-.5925.2991-.8915.6094-1.9975.4909-4.407-.1524-5.9982-.8577-2.1047-.1467.4853-.2201,2.3869-.0677,2.7536-1.185,4.7455-2.5956,6.4327-.4571.1806-.931.3103-1.4332.3781,9.4967-12.4253-19.4561-34.7027-29.9459-24.5966.3273-4.1869,3.1938-7.5951,7.4653-8.3456,5.0446-.8859,10.0779,1.5743,14.4002,3.8935,15.54,8.3512,16.7701,21.4197,12.1826,26.7408ZM53.6761,144.096c-.5981,3.7975.3668,3.6226-4.1756,8.9381-1.422,1.6646-3.3743,3.9386-3.3743,6.2973-.1016.0564-.1241.1524.0113.2765.0113.2031.0339.395.079.5981.0846.3611.4514.3837.6884.2144.0564.0113.1129.0113.1636,0,3.6565,2.9681,6.4891.9141,6.7713-1.1624,2.1555.6433,3.854,2.116,3.9104,4.5819.0677,3.1825-2.3361,5.2534-5.2534,5.8966-3.9555.869-9.4741-2.6634-11.7481-5.7838-3.0753-4.2264-.5022-8.1086,2.1047-11.5393,1.185-1.563,1.7436-3.6283,2.5449-5.417-.2257,2.4659-.9423,4.8922-2.0934,7.0872.8464-1.6195,4.232-4.1305,2.7762-9.0453-1.2075-4.0571-5.575-13.0742-11.8102-20.483,1.1511.852,2.3587,1.659,3.6113,2.3643,1.3543,2.3361,6.128,10.4898,6.4327,10.3205.2314-.1241-2.7029-5.9531-4.4126-9.2992.852.3837,1.721.711,2.6126.9705,1.185,3.0696,4.9938,10.7381,1.5517.3781.5135.0959,1.0326.1693,1.5574.2144l-.6376.1749c.6151,2.2007,3.1035,8.6728,1.422.2314l.5473.0395c0-.0846,0-.1636.0056-.2483,2.0991.5756,4.2715-.395,5.9023-1.9242.1806.0282.4006.0282.6433.0169-.7731.9141-1.3881,1.9185-1.8339,2.9737-.8013,1.7944-1.168,4.232-.8182,6.0885.4401,2.2853.2483-.4458.6376-2.3756.5361-2.7706,1.8847-4.7399,3.7637-6.585l-.2201-.2483c.4966-.0451,1.0044-.0621,1.4558.0113-7.2114,10.5744-2.3925,13.8359-2.8157,16.4372ZM50.4598,158.3269c2.985.5248,1.6872,4.1192-2.906,1.7492.2878-.3555,1.0383-2.0765,2.906-1.7492ZM58.9182,162.796c2.2797,2.1273,4.8358,5.2308,2.9399,8.3681-6.664,11.0146-37.5071,5.0389-31.6895-4.0063.0226.2031.0564.4063.1185.5925.1241.3893.316.6658.4853.8182.1636.1524.2878.1975.3329.158.0959-.0677-.1129-.474-.0959-1.106.0056-.3103.079-.6771.2426-1.027.2426-.5304.4458-.5981.7618-.869l-.2483-.3498c2.0991-1.7831,4.5762-2.2966,6.3763-4.7624.7956,5.6935,7.375,9.903,11.8158,10.4334,4.9317.5868,9.745-3.2615,8.9606-8.2496ZM73.6626,174.5102c11.7763,13.4579-46.4113,15.7319-53.0754,5.654-.6771-1.0213-.9254-2.3022-.5756-3.6113.2596.9423.8069,1.738,1.4953,2.1386,1.1173.6489.0169-.3781-.3386-1.3486-.1975-.5022-.2934-1.2358-.237-1.7267.0564-.7674.316-1.2301.5304-1.5517.3498-.3724.7618-.7336,1.2414-1.0778-.395,1.8113.1524,3.6847,1.1793,4.6552.2991.2765.5022.3781.5417.3386.1016-.0903-.5078-.7392-.7787-2.0201-.0734-.316-.1016-.6715-.1129-1.0439.0508-1.5517.4571-2.3192,1.0326-3.0245.6376-.3047,1.3486-.5925,2.1329-.852.6151-.1975,1.2922-.3442,1.8113-.6997,1.7323,6.585,18.9313,9.8465,28.2079,6.4496,3.5718-1.3091,7.9619-4.3336,7.4202-8.6672,1.326,1.5574,6.3086,2.7085,9.5249,6.3876ZM44.7663,128.2118c-.6433-4.2377-4.3054-6.9123-7.2283-7.0365-.5756-.0226-.8915.0395-.8915.0959,0,.0621.3047.1241.8351.2652,1.9129.5191,3.6565,1.8339,4.5706,3.1881.8238,1.1285,1.1116,2.1047,1.2753,2.9963-3.6226-1.422-9.1581-4.723-9.824-5.2477-1.01-.79-2.0878-1.7718-3.1261-2.8665-1.3373-1.7436-2.5674-3.3236-3.4477-4.4634-.3498-.5812-.6602-1.168-.9254-1.7492.6884.1072,1.3091.3386,1.7549.5812.6151.3216.9762.6207,1.0778.5361.079-.0564-.0734-.5361-.632-1.1229-.5248-.5643-1.484-1.1906-2.7424-1.3825-.0621-.1919-.1185-.3837-.1693-.5756.9141-.2539,1.8677-.1975,2.669.0564,1.4502.4627,2.4941,1.5969,3.0866,3.0132.1636.4063.2426.6489.3103.6433.0508-.0056.0959-.2652.0451-.7336-.1298-1.0157-.6771-2.1499-1.6364-3.0189-.3893-.3498-.8746-.6771-1.4276-.9141-.9141-.395-2.0314-.5586-3.1768-.3611,0-.158,0-.3216.0113-.4853.3442-.1749.8013-.3103,1.343-.3386.5473-.0395,1.185.0339,1.8282.2765,2.432.8295,3.7693,4.0233,4.8979,6.0208,2.3079,4.0345,4.0797,4.1812,6.4948,4.7907.6658.1749,1.3035.4571,1.879.79.8013.6207,1.2922,1.1342,1.9185,1.9072.2878.4006.5812.8182.8464,1.2809.1016.7956.4401,1.5517.9141,2.2176.158.5699.2596,1.1737.3047,1.7887-.2426-.0169-.5191-.0677-.8351-.1524ZM32.121,101.1211c16.0253,1.4897,27.1922,19.0159,20.1276,25.4204-.0169,0-.0282-.0056-.0451-.0056-.0395.0395-.0734.0846-.1016.1354-.0508.0451-.1072.0846-.158.1298.5756-1.0439.9085-2.2289.9085-3.4928-.0056-.632-.0959-1.2132-.2314-1.721-.2709-1.0157-.7053-1.7492-1.0495-2.2007-.3498-.4571-.6038-.6433-.6489-.6094s.1072.3047.3386.7956c.2201.4966.5078,1.2301.6376,2.1724.3273,2.3587-.6207,4.5311-2.2684,5.9079-.2765-.0903-.5361-.1749-.7731-.2709,3.9725-5.2929-3.3123-19.1457-15.2974-21.2956-1.6195-.2878-3.0922-.0226-4.7117-.0339-.1016,0-.1016.1524,0,.158,1.3204.0113,2.6859.5473,3.9555.8972,11.3193,3.1656,15.7319,12.3519,15.5344,16.5783-.0564,1.2075-.5191,2.1837-.9705,2.9229-.6263-.4683-1.1285-1.1173-1.7267-2.1612-.1693-.316-.0734-.0564-.4627-.869-.0564-.1072-.1354-.1693-.2201-.1975-1.2019-1.6138-2.2966-2.7593-4.2546-3.538-1.7323-.7053-3.1881-.4966-4.864-2.1499-2.1273-2.0934-2.8834-5.3041-5.1349-7.4089-.6546-.6151-1.4107-1.089-2.1612-1.2978-1.3655-.4232-2.59-.1862-3.3348.2257.079-.6828.2596-1.3486.5868-1.7605-.0282-.0395-.0508-.0846-.0734-.1241-.5304.2765-.9818.6771-1.3373,1.1455-.0621-1.501.6376-3.2615,2.8214-4.2997.3611-.1693.5756-.2596.5699-.3216-.0113-.0508-.2483-.0903-.6771-.0282-2.1104.3047-3.775,2.2514-3.9499,4.5029-.8859-4.8697,4.2941-7.6459,8.9719-7.2057ZM31.0432,82.8331l.0056.0056c-.0056.0056-.0113.0113-.0169.0226.0056-.0113.0056-.0169.0113-.0282ZM45.3813,69.189l.1241.0734c-.0451,0-.0903,0-.1354.0056,0-.0282.0056-.0508.0113-.079ZM139.846,19.0309c-.1072-6.6189-7.4766-8.2271-13.2039-5.2252-2.8891,1.5179-4.6778,2.8101-21.5044,19.5689-.316.3216-23.2762,22.6442-24.1621,23.3439-6.1957-2.1781-13.2886-2.1329-18.0736,2.4377-8.0127-.7956-18.621,2.6239-17.8423,10.1343-4.4408.3781-8.9493,2.2007-11.782,5.7781-1.6195,2.0427-2.511,4.7399-2.5279,7.3637-.0395.0846-.079.1749-.1129.2596l.1129.0395c0,.1919.0113.3781.0226.5699-.2709.5191-.4796,1.0778-.5981,1.6646-2.1217.7674-3.9555,2.2402-5.2139,4.1135-1.4727,2.1894-1.563,4.39-1.2527,6.8108-.0846.3386-.1636.6828-.2144,1.0383l.3442.0395c-1.721,2.7029-1.089,5.5073-.4966,5.7161-2.7141,2.7706-1.168,5.7499.1749,8.007-.6715,3.5606,3.4985,7.3355,5.496,9.7957,1.5574,1.9129,3.0978,3.8483,4.7399,5.6935,1.106,1.2414,2.0144,2.2402,2.7536,3.0414,2.7367,3.8145,5.0446,7.7813,7.313,13.187-.0451.0113-.079.0564-.0621.1072,2.7367,6.523-5.0277,9.9312-5.654,16.1269-3.3461,4.1812-9.9481,5.8853-9.728,10.7945-1.326-.2483-3.1204.5643-4.3054,1.1229l-.0734-.079c-.0564.0621-.0959.1241-.1467.1806-.0451.0169-.0846.0395-.1241.0564-6.2239,2.9004-7.1832,9.6378-1.0495,12.9331,5.8007,3.1148,22.6837,5.9756,38.6526,3.0866,5.3211-.9649,18.0962-2.4207,14.8516-10.8735-1.3825-3.5944-6.2691-6.8446-9.8635-7.7192-3.0358-.7448-2.9568-3.7919-5.5073-5.4509-.7053-.4514-2.4659-.6489-2.8834-1.4445-1.9129-3.6452-6.5963-5.0897-10.1117-2.8891,2.2853-5.5637,7.4822-8.165,7.3637-12.2785-.0846-3.1656-5.022-11.2459,5.1067-20.6128.0395-.0395.1016-.0677.1693-.0959l.0395.0339c.0169-.0169.0339-.0395.0508-.0621.2652-.0846.6376-.1298.8182-.1975,2.6746-.9423,4.723-2.7141,5.7951-5.4791-.0282.0677,1.879-.1241,2.0596-.1806.553-.1693,1.2019-.3611,1.7041-.6489,1.2075-.6997,1.9242-1.8734,2.4884-3.1035-.0113.0282.553-.0169,1.0213-.0734l.158.1016c.0226-.0395.0508-.0903.079-.1354.1919-.0282.3442-.0508.3893-.0734.4063-.1919.8182-.4966,1.2132-.7279.8859-.5135,1.6872-1.1624,2.3869-1.9016,1.3486-1.4107,2.9173-3.5267,3.1938-5.5016-.0395.2596,2.4264-.3216,2.6239-.4063.7053-.3216,2.0201-.7618,3.696-2.669,2.4151-2.748,3.0414-5.6201,3.5098-7.6007.2426-1.0326.5981-1.9467.6376-3.0301,0,.0169,2.0934-1.0552,2.2966-1.2583.3047-.2934.5812-.6602.8464-.9931,1.5292-1.9129,2.9004-5.1462,3.2051-8.9776.4627-5.7612-1.6195-11.3644-4.9035-16.0309,3.4477-3.0414,41.9479-40.0238,42.2639-40.3228,1.6985-1.5969,3.4477-3.7355,3.7637-6.0546.1467-.3893.3103-.8182.0564-1.0495"/>
    <path class="cls-1" d="M354.9631,162.7395h-.2765v-54.012c0-2.5561.1072-5.1574,0-7.7192v-.1129c-.0113-2.0709-.1636-4.1361-.4401-6.1901-.2821-2.0539-.6941-4.0797-1.2358-6.0828-.5361-2.0032-1.2019-3.9612-1.9975-5.8741-.79-1.9185-1.7041-3.775-2.7311-5.575-1.0326-1.8-2.1724-3.5211-3.4251-5.1744-1.247-1.6533-2.6013-3.222-4.0515-4.7004-1.4558-1.4784-2.9963-2.8609-4.627-4.1418-1.6251-1.2809-3.3348-2.4546-5.1123-3.5154-2.6182-1.5461-5.3549-2.8326-8.2158-3.854.3386-.3273.6263-.6941.8633-1.1003.5078-.9367.7448-1.9355.711-3.0019,0-.1524-.0169-.2991-.0508-.4458-.0508-.5699-.1862-1.1173-.4119-1.6477-.2257-.5248-.5248-.9988-.9028-1.4332-.3724-.4288-.8069-.79-1.3035-1.0834-.4909-.2878-1.0157-.4966-1.5687-.6207-.6433-.1129-1.2865-.1524-1.9355-.1241h-.5135v-2.1217c0-.9423-.1298-1.8677-.3893-2.7762-.2539-.9028-.6376-1.7549-1.1342-2.5561s-1.1003-1.5179-1.8-2.1499-1.4727-1.1511-2.3192-1.563c.6094-.9988.9254-2.0822.948-3.2558-.0056-.6489-.1129-1.2865-.316-1.9072s-.4966-1.1963-.8803-1.7267c-.3781-.5304-.8295-.9931-1.3543-1.3881-.5191-.3893-1.089-.6997-1.7041-.9141-.5981-.2031-1.2132-.316-1.8452-.3329-.6263-.0169-1.247.0621-1.8565.2314-.6038.1693-1.1737.4288-1.7041.7731-.5304.3386-.9988.7561-1.3994,1.2358-.4119.4966-.7392,1.0383-.9818,1.6307-.2426.5981-.395,1.2132-.4514,1.8508s-.0169,1.2696.1185,1.896c.1354.632.3611,1.2245.6715,1.7831.0282.0395.0621.079.0959.1298-.8182.4063-1.5687.9085-2.2514,1.5066-1.0326.931-1.8452,2.0257-2.432,3.2897-.5868,1.2583-.8972,2.5844-.9423,3.9781-.0226.79-.0226,1.5856,0,2.3756h-1.326c-.6094.0113-1.2019.1185-1.7775.3273s-1.0947.5078-1.5687.8915-.8746.8351-1.1963,1.3543c-.316.5191-.5473,1.0778-.6771,1.6702-.2088.9423-.1806,1.8677.079,2.7931s.7223,1.7323,1.3825,2.4264c-5.2477,1.9016-10.0215,4.627-14.3325,8.1706-4.311,3.5493-7.9054,7.7136-10.7832,12.4986-3.38,5.6766-5.496,11.7933-6.3424,18.3501-.3103,2.6239-.4458,5.259-.4063,7.9054v46.1348c0,4.644-.0959,9.3048-.0226,13.9544-1.8621.1354-3.6001.5643-5.1631,1.9862-3.1656,2.8834-3.1938,8.0747-.1129,11.0202.7392.6997,1.58,1.2358,2.5279,1.6082s1.9298.553,2.9511.5417h83.8112c3.9386,0,7.8885.079,11.8215,0,.4909-.0056.9818-.0564,1.4615-.1524.4796-.1016.948-.2426,1.3994-.4288.4571-.1919.8859-.4232,1.2978-.6941.4063-.2709.7843-.5812,1.1342-.9254.3498-.3498.6602-.7223.9367-1.1285s.5078-.8351.7053-1.2865c.1919-.4514.3386-.9198.4401-1.3994s.158-.9649.1693-1.4558c.0056-.4909-.0339-.9818-.1185-1.4615-.0846-.4853-.2144-.9593-.395-1.4163-.1749-.4571-.395-.8915-.6546-1.3091-.2652-.4176-.5643-.8013-.9028-1.1568-.3329-.3611-.6997-.6828-1.1003-.9705-.4006-.2821-.8238-.5304-1.2696-.7336s-.9085-.3668-1.3881-.4796c-.474-.1129-.9593-.1806-1.4502-.2031l.0226-.0113ZM298.9423,60.5444c-.2483,0-.5191-.0226-.7843-.0339,0-.2201-.0226-.4401-.0339-.6546-.0113-.2088,0-.4683,0-.6997v-1.8h17.2949v3.1599c-.2257,0-.4571.0395-.6433.0395h-15.4385c-.1298,0-.2652-.0056-.395-.0113ZM298.1241,61.3682c-.0056-.0169-.0056-.0339,0-.0508.0226.079,0,.1862,0,.0508ZM309.3587,31.6762c-.0056-.0677-.0169-.1354-.0282-.2031.0226.0621.0339.1354.0282.2031ZM308.8227,30.3163c-.0451-.0451-.0846-.0846-.0734-.0846.0056,0,.0339.0395.0734.0846ZM304.7373,30.3163l.0282-.0339c.0846-.079.158-.1636.237-.2483.079-.079.1241-.1072.1862-.1693.1806-.1129.3668-.2314.5473-.3273.0282,0,.1016-.0395.1467-.0621h.0508c.1411-.0451.2821-.0903.4288-.1241h.7731c.1975.0508.4006.1129.6038.1636.1016.0564.2031.1016.3047.158.0959.0621.158.0959.2314.1467l.1241.079c.1354.1241.3668.3668.3668.395l.0508.0508c.0621.0959.1354.2201.1411.2314.0508.079.0903.158.1354.2426s.0621.1185.0903.1806c.0564.1241.0395.0846-.0508-.1185.1016.0903.1467.4683.1749.5981v.0677c0,.1016.0226.1467.0226.1411v.5191c-.0451.1806-.079.3668-.1354.5304-.0169.0339-.0846.2201-.0959.2426-.0903.1693-.1919.3273-.2991.4853-.0734.0734-.1467.158-.2201.237l-.2031.1919-.0621.0677c-.1185.0734-.237.1467-.3611.2088l-.0621.0339c-.3103.1185-.632.2031-.9649.2483-.3893.0056-.7731-.0564-1.1398-.1862l-.158-.0734c-.158-.0846-.2991-.1806-.4401-.2709l-.1467-.1241-.2201-.2201-.0226-.0339c0-.0169-.079-.0903-.1072-.1298-.0226-.0451-.0903-.1411-.1354-.2088l-.1467-.2765c-.0169-.0282-.0339-.0508-.0508-.0677-.0339-.1129-.0621-.2483-.079-.3103-.0169-.0677-.0395-.1693-.0621-.2539v-.0339c-.0113-.1749-.0113-.3555,0-.5304v-.2144c.0395-.1806.0903-.3668.1411-.5361,0-.0339,0-.0564.0169-.079.0451-.079.0846-.1636.1298-.237.0677-.1241.1467-.2426.2314-.3498ZM305.7756,34.2832l-.0846-.0226c-.1016-.0282.0113-.0056.0846.0226ZM304.2069,31.5577c-.0056-.0282-.0056-.0564,0-.0846.0056.0282.0056.0564,0,.0846ZM304.2069,31.6085c0,.0508,0,.0734,0,0ZM300.7254,40.4507c.5078-.7053,1.1342-1.2865,1.879-1.738.3893-.237.7956-.4345,1.2245-.5868.237-.0734.474-.1467.7336-.2031l.316-.0677.1016.0508c.6433.2031,1.2978.2878,1.9693.2596.3047-.0113.6094-.0451.9085-.0959h.1806c.0508,0,.1919-.0395.3273-.079.1411-.0339.2878-.079.4232-.1241.9141.1693,1.7436.5248,2.4941,1.0721.869.6038,1.5461,1.3712,2.037,2.3022.4909.9367.7392,1.9298.7448,2.985v2.1217h-14.5751c-.0621-2.0878.0056-4.1643,1.2245-5.8966h.0113ZM294.1121,50.0546c.3724-.0508.7448-.0621,1.1173-.0395h21.8599c1.4615,0,3.5831-.3216,3.6565,1.6533,0,1.0947-.5135,1.9298-1.6815,1.9919-.395.0226-.8013,0-1.2019,0h-21.6342c-1.1003.0339-2.5223.2088-3.1486-.7561s-.1862-2.5787,1.0213-2.8496h.0113ZM262.5524,126.1409v-25.2568c0-6.1393,1.2301-12.0133,3.7016-17.6278,4.9656-11.1895,14.4792-20.1388,26.0806-24.1452.6941-.2426,1.3994-.4627,2.1104-.6715v.711c-.0226,1.0157-.1524,2.2797.1975,3.2841.0395.1298.0959.2483.1524.3668.2257.4514.553.8013.9931,1.0552.7561.4401,1.6138.3611,2.4489.3611h12.6622c1.3712,0,2.7706.0621,4.1587.0451.4571,0,.9085,0,1.3599-.0451.7279-.0282,1.3486-.2991,1.8734-.8069.0677-.079.1354-.158.1975-.2426.0451-.0564.0959-.1129.1411-.1749.0451-.0677.0395-.079.0621-.1185.0734-.1185.1354-.237.1862-.3668.0734-.158.1241-.3273.158-.4966v-.0564c.0339-.1467.0564-.2934.0677-.4458v-.0621c.0339-.5868,0-1.185,0-1.7775v-1.2132c14.0673,4.2095,25.5276,15.2861,29.9064,29.4098,1.3091,4.2433,1.9637,8.5882,1.9693,13.029v61.8385h-86.5197c-.632,0-1.2696-.0226-1.9072-.0339v-36.5591ZM354.602,174.2507h-93.5731c-1.4332,0-3.0245.1862-4.2885-.6207-.6207-.4176-1.089-.9649-1.3994-1.642-.3103-.6828-.4176-1.3937-.3273-2.1329.0959-.7448.3781-1.405.852-1.9862.4683-.5812,1.0552-.9931,1.7662-1.2414.5981-.1636,1.2019-.2314,1.8226-.1975h82.0676c3.7129,0,7.4484.1298,11.1613,0h1.9693c.5191.0056,1.0157.1072,1.4953.3103s.8972.4909,1.264.8577c.3668.3724.6433.7956.8408,1.2809.1919.4796.2878.9818.2821,1.501,0,.5191-.1072,1.0157-.3103,1.4953-.2031.474-.4909.8972-.8577,1.2583-.3724.3668-.7956.6433-1.2809.8408-.4796.1919-.9818.2878-1.501.2821l.0169-.0056Z"/>
  </g>
</svg>