<?xml version="1.0" encoding="UTF-8"?>
<svg id="Hussain" xmlns="http://www.w3.org/2000/svg" width="447.1316" height="434.1446" viewBox="0 0 447.1316 434.1446">
  <defs>
    <style>
      

      @import url('../../CSS/SvgStyling.css');

      
    </style>
  </defs>
  
  <g class="content" >

    <rect id="bg" class="bg" width="447.1316" height="434.1446"/>

    <path class="cls-2" d="M166.5603,410.7667c-1.2565-4.5819-2.6585-8.6473-4.788-12.4345-2.1294-3.7873-4.6821-7.2834-7.7374-10.5541-1.0846,1.0063-.7936,2.4233-1.283,3.549-1.0713-.2648-1.6004-1.0594-2.3543-1.5229l-6.2428-3.0457c-.7803-.3178-1.5475-.6357-2.3146-.9799-.9523-.4369-1.521-1.1786-1.5078-2.2512.0132-3.4828.7671-6.8198,2.0898-10.0244.5555-1.3375,1.3226-1.5494,2.8701-.9932,2.3146.821,4.3912,2.1188,6.3619,3.5357,4.8012,3.4694,8.4252,7.9453,11.3482,13.0303l4.4308,9.4683c.119.2781.1455.6224.6613.7813l.4233-7.5349c.1587-4.4495.119-8.912.82-13.3218l1.0449-5.6014c.7142-2.7412,2.1824-5.244,4.325-7.2436,1.8649-1.7347,3.2404-1.8407,5.3567-.384,2.4204,1.642,4.2589,3.8669,6.0444,6.1445l.3307.927c-.7539,2.7941-1.3623,5.0717-1.9707,7.3363l-.1587.6487-.8465-.2382c-.7804-1.3242-1.6004-2.3042-2.4336-3.2843l-2.8966-2.5159c-2.632-1.6289-4.9731-.8079-5.9386,2.1054-.7671,2.3175-.9787,4.7408-1.2036,7.1377l-.5687,10.1038c-.1058,4.0654-.3439,8.1441-1.4946,12.0903-.4761,1.642-.9391,3.2972-2.394,5.0982"/>
    <path class="cls-2" d="M288.3352,368.8019c1.2433,2.8604,2.2617,5.5221,1.4417,8.5942-.701,2.622-1.6665,5.0719-3.3595,7.2303-1.1243,1.4434-2.4866,2.622-4.1795,3.337-3.2272,1.3641-6.0445.5694-8.4252-1.9068l-.9523.8873c-1.9443,2.1318-3.5579,3.6548-5.7138,4.542-2.4469,1.0063-4.8805,1.0726-7.0099-.5032-3.9415-2.9265-7.7374-2.132-11.5466.106-3.1876,1.867-5.9254,4.2904-8.5971,6.8197l-6.6661,6.396c-4.0208,3.9198-8.9146,6.2503-14.3241,7.6276-6.0709,1.5494-12.2344,2.6088-18.4508,3.4298-1.1242.1456-2.2353.5429-3.5314.2781l1.0317-.821c7.0364-2.2247,13.4115-4.4759,19.6014-7.2303,7.5655-3.3767,14.2448-7.985,20.1305-13.7321,3.3066-3.2312,6.6131-6.4624,10.3694-9.1902,2.0897-1.5229,4.325-2.7544,6.9041-3.337,2.804-.6357,5.3964-.384,7.7374,1.3375,3.9547,2.9001,9.9197.9137,11.8905-3.5225l3.0949-5.6413c.291-.5561.529-1.642,1.3491-1.2844l.1058,1.2447c-.4629,1.5891-.9258,2.503-1.2565,3.4694-.4365,1.2713-.291,1.9997.7539,2.6486,1.8385,1.152,3.8356,1.3904,5.9386.6884l1.0978-.821c-1.8385-2.7941-.7936-4.6612.1587-6.5416.6745-1.3507,1.2168-2.7809,2.3675-4.1051"/>
    <path class="cls-2" d="M194.3356,108.896c.5291-3.0191.582-5.9987.5952-8.9915l.1455-11.6532c.1587-3.827.9258-7.5745,2.222-11.2028.6481-1.8142,1.5343-3.5093,2.7643-5.0056,2.1559-2.6088,4.2986-2.9133,7.1026-1.0462,2.4865,1.6684,4.4573,3.8535,6.2825,6.1842l.6216.821c-.8465,3.4562-1.5475,6.3431-2.2749,9.3755-1.23-.4239-1.5739-1.4965-2.103-2.2247-1.5739-2.185-3.7166-3.6151-6.0047-4.8996-1.5475-.8741-3.8092-.0531-4.7747,1.7083l-.6745,1.4963c-.4629,2.6352-.7539,4.4627-.8465,6.3034l-.3968,16.9898c.0265,4.039-.6348,7.9718-1.9972,11.7856-.3307.9402-.6084,1.9334-1.693,2.7015-2.4998-9.6404-7.5126-17.7314-14.7077-24.8028-.7142,1.4434-.8068,2.7809-1.2036,3.9991l-.3306.1324c-3.0156-2.5293-6.5735-3.8403-10.1446-5.1512-3.1611-1.152-3.5711-1.7215-3.3859-5.0054.1587-2.8075.701-5.5617,1.5475-8.2368.7671-2.4233,1.6533-2.8602,4.034-1.9996,4.1795,1.5229,7.7506,4.0257,11.0175,6.9655,6.0841,5.4822,10.1711,12.2888,13.3321,19.6913l.582,1.3771"/>
    <path class="cls-2" d="M187.4579,38.7386c-4.3779-1.5494-8.941-1.5096-13.5173-1.5494-4.5896-.0397-9.1129.5561-13.5967,1.2183l.0794-.927c2.5262-4.9658,4.8805-9.5609,7.4861-14.0368l.82-1.2978c.82-1.2844,1.3888-1.5891,2.1559-1.6684,4.1134-.3973,8.24-.7416,12.3666-.5828l10.2504.5563c1.7988.2382,3.5844.5297,5.2641,1.1918,2.3278.9137,3.0156,2.3438,2.2882,4.7009l-1.9046,4.1714c-2.6717,4.8732-5.5154,9.6404-8.65,14.2486-2.0369,2.9928-4.6028,5.0056-8.1342,6.0518-6.5603,1.9467-13.147,3.7211-19.8395,5.0983l-1.2565.3045-.119-1.5096c3.1082-3.006,6.1238-4.9527,9.3378-6.6211l12.8957-6.5947c1.4152-.7284,2.7775-1.5494,4.1663-2.3307l-.0661-.2913"/>
    <path class="cls-2" d="M248.1932,112.5245c5.6873-3.9594,11.1101-8.25,16.4007-12.6993l12.1021-9.9185c5.5815-4.8335,11.1498-9.6668,16.5065-14.752l11.0837-11.4809c.8333-.9668,1.5607-2.0262,2.394-3.006l.4497-1.0594c-2.8437-1.2845-4.8144-2.3968-6.6925-3.6417l-2.7246-2.132c-1.8914-1.6023-2.4072-3.6151-1.6665-5.8663,1.8517-5.6677,5.4889-9.9185,10.9779-12.4743,3.1876-1.4831,5.608-.3973,6.7058,2.8868,1.2697,3.7609,1.2565,7.6276.5952,11.5075-.1984,1.1918-.8465,2.4102-.5423,3.549.3042,1.1653,1.6401,1.7347,2.5262,2.5425,1.4681,1.3376,1.9972,2.8604,1.6665,4.7938l-.9655,6.6079c-.2116,1.0858.119,1.6552,1.0581,2.132l4.7747,2.5425c3.7959,1.7215,4.8541,4.8069,4.6953,8.5942-.1455,3.549-1.3226,6.7535-3.505,9.5476-2.3014,2.9397-5.3964,4.5024-9.1923,4.5288-2.7379.0132-4.5102-1.3639-5.2244-3.9594l-.3042-3.5886c.5158-5.8134,2.0501-11.3883,3.8224-16.9236l.8465-2.5425c.8465-2.026.1323-3.5754-1.4417-4.8996l-.701-.5694c-1.6665-1.205-2.2617-1.1521-2.8833.2781-1.8781,4.2772-4.9334,7.7466-7.9623,11.2028-5.3302,6.0916-11.4276,11.4017-17.5381,16.7118-9.7611,8.4883-20.8712,14.9637-32.0077,21.4392l-.8862.5165-1.0449.331-.1587.3311-.8333-.2119M312.4204,81.7891c-.0265,2.6088,1.3888,4.5687,3.6637,4.8335,3.0421.3444,5.4625-1.1257,7.711-2.9001l.3835-.6621-1.0448-1.0858c-2.9892-2.1188-5.846-3.4562-8.7426-4.7011l-1.0846-.0529c-.6613,1.9334-.9126,3.231-.8994,4.5819M310.4893,51.9808c-.0926-2.1849-.3703-3.933-.9655-5.6014-1.4284-4.0257-4.1663-4.5554-7.1819-1.4302l-.172.1853-.582,1.0329c3.1082,2.4101,5.8725,3.9991,8.9013,5.8266"/>
    <path class="cls-2" d="M279.8704,71.8309c-.3439,2.5955-.9655,5.0851-2.2749,7.376l-1.0317.9534c-5.727,3.337-10.8456,6.3166-15.9642,9.3093l-40.8429,24.1804c-6.0841,3.7078-12.1021,7.5084-18.1465,11.2957l-13.7554,8.7531c-7.9226,5.3366-15.8319,10.6865-23.1858,16.7912l-6.547,6.2371c-1.4549,1.6554-1.4549,2.0392-.0264,3.7475,1.8781,2.2247,4.1266,4.0919,6.6528,5.5088,2.4072,1.3507,3.4918,2.8338,2.3807,5.5882l-.82,4.3038c-.119.715-.4894.8342-1.0846.4766-2.7114-1.6023-5.4889-3.1251-7.83-5.2571-2.2882-2.0923-3.624-4.5554-3.6108-7.7203.0132-2.9001.3968-5.7206,1.3094-8.4618.7936-2.3836,2.0898-4.4625,3.8753-6.3164,7.42-7.654,16.0171-13.8514,24.7729-19.8501l14.8135-9.8259c6.4412-4.052,12.9221-8.0513,19.5089-11.8783l51.5166-29.7155c3.0156-1.7347,6.0444-3.443,9.0733-5.1512l.6349-.4503"/>
    <path class="cls-2" d="M208.1042,338.305l8.3458,5.0321c3.8621,2.3175,7.7242,4.6216,11.5863,6.939l.529.3574,1.0845,1.0065c-1.8385,2.9133-3.1876,5.1512-4.5631,7.376l-5.9122,9.6138c-.4761.7945-.8068.9402-1.6268.4371l-19.8527-11.9048c-1.1772-.7018-1.1639-.7282-.5158-1.8671l6.6264-11.2957c.9788-1.4831,2.1427-2.847,3.0288-4.3964l.7142-1.2713c-5.7667-3.4562-10.1843-6.2106-14.7341-8.7531l-6.5206-3.5886c-.8068-.4503-.7936-.8741-.3703-1.4699,3.8224-5.3498,6.9967-11.097,10.4752-16.6588l.8862-.7018c3.796,2.3041,6.9439,4.1712,10.0917,6.0516l10.2636,6.1445c1.4152.8607,1.402.8607.5158,2.3173l-8.8087,14.3679c-.4233.7018-.7936,1.4434-1.2433,2.238"/>
    <path class="cls-2" d="M164.1663,196.573l2.0236,2.0262c2.8437,3.2178,5.7005,6.4224,8.5045,9.6801.8729,1.0197,1.9311,1.5096,3.214,1.4699,5.5815-.1721,10.9382-1.205,15.5674-4.5024,5.0922-3.6151,7.8565-8.6473,8.9013-14.6857l.6878-8.5546c.3703-4.0786.9655-8.1042,2.923-11.7856.4365-.821.701-2.0657,1.7988-2.0392,1.2168.0265,1.4152,1.3507,1.7591,2.2644,1.6136,4.3169,2.5262,8.8326,3.2404,13.3482l4.3647,29.4773c1.3888,9.4152,3.4785,18.6583,7.2877,27.4511,1.7194,3.9594,3.9944,7.5613,7.2084,10.5409l2.5924,1.9996c1.0581.6753,1.1639.6753,1.521-.596l4.2985-13.4806c5.727-15.3346,13.8877-29.2654,24.601-41.7395l4.325-4.8996c.9391-1.0728.9258-1.086-.1852-2.0659-5.1583-4.5819-10.9382-8.3162-16.8901-11.7988l-13.266-7.9057c-9.4304-5.9458-12.7767-14.6061-11.7053-25.253.3307-3.3106,1.1639-6.5152,2.2088-9.6668,2.5791-7.7732,8.0019-12.2358,16.1361-13.6395,5.1715-.8873,10.3959-1.0594,15.6203-1.2449,9.6949-.3442,19.3898-.0529,29.0715.1855l20.7257.7549c8.9013.4369,17.8027.9931,26.704,1.5228l8.3062.596c1.7459.1058,1.7459.0661,1.4813-1.5626l-4.6292-29.0536c-1.0317-6.7403-1.9178-13.4939-2.8172-20.2474-.1719-1.2581-.5291-2.3439-1.6268-3.112l-.8597-.8607c2.0633-7.0581,3.8885-13.3614,5.7138-19.6516l.1852-.1456,4.444,5.4824c6.0179,7.3626,12.8824,13.9308,19.6543,20.5916l24.4026,24.0612c10.9646,11.1765,19.7998,23.8228,26.2146,38.0715,4.5102,9.998,7.6052,20.4195,9.4965,31.1988,1.4681,8.4221,2.1692,16.9104,2.2882,25.4648.1455,10.5409-.7539,20.9758-2.5395,31.3578-3.1479,18.3803-8.8881,35.966-16.8636,52.8498l-2.8701,5.4559c-.41-.7947.0529-1.3508.238-1.907,4.3515-12.6198,7.5787-25.5311,9.9198-38.6541,1.23-6.8993,2.0104-13.8514,2.5659-20.8434l.5159-11.2559c.1057-5.35-.1852-10.6998-.6878-16.0231-.7274-7.6144-1.9442-15.1624-3.8753-22.5649-3.9943-15.2815-10.7265-29.305-19.9586-42.1766-5.317-7.4024-11.2291-14.3016-17.591-20.8432-6.9967-7.1774-14.5754-13.719-22.2467-20.168l-2.0633-1.7083.1587,2.4234c2.1692,11.8253,4.2325,22.5779,6.2032,33.3572l.6481,1.6684c6.8777.7019,12.4592,1.3376,18.0407,1.9599l4.1133.5297c.3042.596-.0396.9668-.1984,1.3641l-7.3142,17.2811c-.3571.8476-.8465,1.311-1.7062,1.6421l-6.2693,2.5425c-1.931.821-1.9046.8474-1.5607,2.8073l.9391,5.2704c.8729,4.4627.5026,8.8723-.3704,13.2821-1.6003,8.0645-4.0604,15.8376-8.6632,22.7502-5.9915,8.9913-14.4167,14.3942-25.302,15.9436-3.7563.5429-7.4729.3973-11.1366-.6224-5.8593-1.6287-9.4568-5.4822-11.1366-11.1632-1.1242-3.8138-1.0316-7.6805-.582-11.5606l1.3623-8.5808c-.6613-.3708-1.0052.0397-1.3491.2382-8.6103,4.9527-16.9165,10.3157-24.72,16.447l-.9126,1.1652c.3174,4.8732-.291,8.6473-1.6665,12.2756l-.1852.1456-4.0869-7.3758c-.6216-.159-.9258.2118-1.23.5032-9.2717,8.475-17.7497,17.6254-24.7068,28.0736-4.8012,7.2169-8.7955,14.8445-11.5202,23.068l-.3836,1.2183c-.4497,1.3508-.2778,1.8407.5687,2.0129l1.2565.2781c8.3987,1.7479,15.4748-.1456,22.1145-4.0786,4.034-2.3968,7.42-5.4956,10.3298-9.1504l10.0388-11.6399c.701-.7416,1.4417-1.4566,2.2088-2.1452l.7804-.8211.9523,1.2183c-.1852,1.5626-.3439,2.6354-.5555,3.6948l-1.7591,6.0516c-.82,2.3439-.4365,4.2509,1.4417,6.0518,3.4785,3.337,7.3935,5.7605,12.2608,6.4622,3.1743.4634,6.3222.0795,9.3775-.8873,5.5683-1.7744,10.6075-4.3567,14.2448-9.0841l3.7695-6.224c1.4417-2.6086,2.4336-5.4558,4.2986-7.8526l5.6609-6.6608c.529-.5429,1.1243-1.0197,1.9443-1.2316l.1323,1.417c-1.0978,4.1582-2.3014,7.6011-3.624,10.9778-1.111,2.8472-.3704,4.8732,1.8385,6.7271,3.1876,2.7015,6.719,4.648,11.0572,4.2111,3.6505-.3708,6.719-2.1718,9.3907-4.6083,2.3014-2.0923,3.743-4.648,4.3515-7.707.648-3.3106,1.3887-6.6211,3.1082-9.6007l2.1559-2.9265c.7407-.5958,1.1243-.4768,1.3491.4105l.3307,3.9859c-.0794,2.7676.9787,5.0851,2.8569,7.0847,1.9972,2.1188,4.2853,3.8667,6.7719,5.3896,4.0209,2.4497,7.949,4.979,11.2557,8.3823,5.436,5.6014,8.3458,12.3153,9.3642,19.9297.9523,7.1376-.1719,14.0897-1.9311,20.9757-2.5527,9.9185-6.1371,19.4661-11.3085,28.3518-3.095,5.3101-6.9174,10.1435-10.8323,14.8974-5.9254,7.2039-12.565,13.6926-20.157,19.2013-11.1234,8.0778-23.2519,13.9574-36.9279,16.4867-7.2877,1.3507-14.6151,1.7347-21.9954,1.2315l-8.0549-1.0991c-3.3992-.4502-6.7322-1.1918-9.9462-2.3572l-5.6212-2.3572c-3.0024-1.1916-5.846-2.6617-8.4384-4.5156-11.9037-8.4883-21.1357-19.0953-26.4924-32.748-3.1214-7.9453-5.026-16.1688-5.9386-24.6307-.5555-5.1379-.7936-10.2891-.6613-15.4536l.3307-5.5221c.0661-.8474-.119-1.4169-.9126-1.8936-5.2641-3.1385-8.8352-7.76-11.5466-13.0834-3.1611-6.1974-5.0128-12.8053-6.547-19.5324-1.9839-8.7134-3.0949-17.5461-3.9679-26.4184-.5687-5.7603-.9788-11.5472-2.2353-17.2281-.1984-.927-.3439-1.8804-1.0184-2.7412l-.7936,1.4302c-.5158,3.6019-.6877,6.4622-1.2829,9.2696-1.2433,5.7869-3.1743,11.2825-7.0364,15.957-2.2088,2.6749-4.9334,4.7009-8.1078,6.065l-1.3755.8871c2.3146,6.9258,3.8092,12.7127,4.9334,18.6054,1.3359,6.9919.7142,13.7985-1.1904,20.5918l-4.5102,12.5934c-1.7459,4.0786-4.5234,7.4024-7.7771,10.3688l-12.5253,10.4746c-7.6184,5.7206-15.3955,11.2427-23.7148,15.9171-9.2055,5.1777-18.7285,9.7596-28.7938,13.123-7.6184,2.5559-15.4219,4.1846-23.4635,4.7011-7.6581.49-15.1177-.5165-22.2996-2.9928-7.8697-2.7146-13.8877-7.9718-18.9004-14.4208-7.5919-9.7993-11.7714-20.9492-13.6893-33.0659-2.1427-13.4674-.7539-26.6566,2.8437-39.7003l1.1904-4.1845c-.2778-.0398-.4232-.106-.4894-.0663-2.1823,1.5362-4.5499,1.5362-7.0364.927-4.4308-1.0991-7.8168-3.5091-10.0785-7.4687-1.931-3.3899-2.8437-7.0845-3.3595-10.8983-.701-5.1909-.9391-10.4085-.3968-15.6258.3968-3.8006,1.1507-7.5349,2.1427-11.2162,3.9679-14.6592,9.7081-28.696,15.5939-42.6665,3.2934-7.8263,6.7058-15.5862,10.5546-23.1741l1.5078-2.8868c.1852-.3442.3703-.715.8465-.609l.5952.5032c.3042,1.5625.2248,2.7543-.0926,3.9461-1.2168,4.6482-3.1214,9.0313-4.9863,13.441-4.616,10.8719-9.1659,21.7571-12.8163,32.9866l-3.333,10.9778c-1.4681,4.4758-1.9178,9.0576-2.0236,13.7321-.0661,3.0325.3571,6.0385,1.0978,8.8723,1.0052,3.8138,3.1479,7.2039,6.6264,9.4551,3.6637,2.3704,7.0496,1.9334,10.1182-1.1918,2.2353-2.2776,3.6637-5.0719,4.8276-7.9983l2.7246-7.151c.2116-.5429.2778-1.5228,1.0317-1.4036l.7936,1.0462c.3439,4.2375-.3174,7.6671-1.2168,11.0704-1.6401,6.1709-4.0208,12.0504-7.1025,17.6652l-.41.7018c-.0132,4.9791-1.3226,9.4154-1.9972,13.931-.6481,4.3433-1.23,8.7002-1.2168,13.1098.0397,14.4737,4.5366,27.3982,13.9538,38.5878,2.7379,3.2444,5.608,6.3298,9.1923,8.7002,5.0392,3.3372,10.6604,5.0719,16.6123,5.9458,3.5976.5297,7.2084.5828,10.8324.4105l1.6136-.0794c-.7804-5.6413-1.5739-9.6404-2.4204-13.6263-2.0501-9.6139-5.4096-18.857-8.4781-28.1795l-4.8541-14.9771c-1.283-4.5817-1.4681-9.1504-.2248-13.7719l1.6401-4.0256c.3968-.7549.992-1.417,1.693-1.801,3.0421-1.6155,6.0973-3.2178,9.523-3.9859l3.7298-1.2315c-2.0369-1.6818-4.0208-2.953-6.5206-3.2312-1.0317-.119-1.8517.4768-2.5527,1.1653l-1.6665,2.3307c-.41.6489-.7804,1.3242-1.2168,1.9599l-.582.9799-.9523-1.0462c.701-4.9261,2.2617-9.0576,5.4889-12.4079l.9126-1.3376c-1.2036-5.9324-3.5579-10.2759-6.1899-14.5002l-3.6372-5.1248c-.2645-.3442-.3968-.8342-.9655-.7945l-.5291.6357c-.7936,2.3439-.7407,2.2909-2.4072,1.0329-1.5872-1.1918-3.2669-2.2247-5.2376-2.8073l-2.923-1.3641c-.82-.5694-1.5343-1.3242-1.4549-2.516.1984-3.2178,1.0052-6.29,2.3014-9.2167.6745-1.5228,1.3094-1.6684,2.9759-.8739,4.3382,2.026,7.9358,4.979,10.9646,8.6339,3.5579,4.3038,5.9783,9.2034,7.8829,14.3811l1.3623,2.847c.1719-1.7081.3703-3.4031.5291-5.1114l1.111-12.3551c.4762-3.0986,1.2168-6.1179,2.4866-9.0047.8068-1.8275,1.8252-3.5223,3.4124-4.8069,1.8517-1.5097,3.1611-1.5494,5.0789-.1853,2.2353,1.6021,3.796,3.8004,5.4096,5.9456l.3703.8211c-.8862,2.7543-1.6401,5.0585-2.4072,7.3494l-.1852.1324-.7142-.5165c-1.1242-1.6818-2.0501-2.9794-3.214-4.1051l-1.0449-.9402c-3.0817-1.7347-5.0657-1.0726-6.018,1.5362-.9655,2.6484-1.3094,5.4425-1.6136,8.2366l-1.0052,10.8322c-.3307,3.9594-1.2168,7.7865-2.8304,11.6399,4.4044-.0397,7.3803,2.5557,10.3827,5.0321l5.846,5.0188c.6349.5429.873,1.0991.8068,1.9863-.1323,1.9333-.529,3.7607-1.2697,5.5485l-.9258,1.2447c-5.0657.5431-9.1394,1.1786-13.147,2.2644-3.0156.8079-5.9519,1.801-8.7029,3.2973-1.1771.6357-1.6268,1.5097-1.6004,2.7544.0397,1.9996.5423,3.9065,1.1507,5.7869l7.5919,23.068c2.3014,7.0316,4.4044,14.1163,5.436,21.4658.6481,4.6082,1.2168,9.2165.7274,13.8911l-.0397,1.8407c9.5759-1.0462,17.0884-2.8472,24.4555-5.3101,6.309-2.1055,12.4725-4.5819,18.3846-7.6144l12.4328-7.2303c5.8725-3.8136,11.7318-7.654,17.353-11.8121l9.2055-7.4024c1.2036-1.1123,2.6982-1.9202,3.8092-3.1781l4.5366-5.363c.5026-.6224.6613-1.2316.5555-1.9334-.6084-3.8933-1.3226-7.7334-2.9495-11.3883l-2.0633-5.6148c-1.402-3.3106-3.1479-6.4622-4.7615-9.6801-2.3808-4.754-5.4757-9.0578-8.8617-13.1495l-6.4412-7.1376c-.5687-.5695-.9655-1.0462-.7407-1.9731l4.3647-18.6054c.0397-.1853.1323-.3576.2778-.715M363.1302,243.8348c-.9655.5429-1.1904,1.5494-1.4946,2.516-1.23,3.9198-2.8701,7.6408-5.3567,10.9514-3.9018,5.1909-8.9013,7.9055-15.6864,7.111-1.8914-.225-3.4124-1.0726-4.8673-1.9068-2.6585-1.5362-4.7879-3.8138-6.8512-6.0914l-1.8517-2.6484c-.291-.5032-.0926-1.4434-.8862-1.4963l-.8597.8474c-.6216.6886-.7539.9931-.8861,1.2845-1.5475,3.443-3.5579,6.6211-6.0841,9.4284-4.034,4.4759-8.822,7.7466-14.9855,8.7531l-5.4096.2781c-8.6236-.0265-15.6071-4.648-18.8872-12.5138l-1.4681-3.9861c-.7803.4106-1.23,1.0329-1.6665,1.6421l-3.3198,4.7009c-1.2697,1.8539-2.6321,3.6285-4.2324,5.2175-7.9887,7.9718-17.6572,11.1235-28.8863,9.7197l-1.6401-.225c.7407,8.1836,1.8649,14.5797,3.8621,20.7903,3.6637,11.4016,9.2849,21.6511,18.3714,29.7951,11.5862,10.3952,25.3813,15.5597,40.8562,16.6323,7.7903.5429,15.4616-.3444,23.0535-2.1452,8.4516-2.0128,16.4139-5.2971,23.9794-9.402,13.6364-7.4024,25.183-17.3077,34.9572-29.2391,3.624-4.4228,6.9174-9.0444,9.3775-14.2089,1.0978-2.2909,1.5078-4.6745,1.0846-7.2436-.7936-4.7937-2.6585-9.1504-5.0128-13.3614-1.984-3.5356-4.6557-6.3695-8.1474-8.5015l-8.7029-6.065c-3.3595-2.7544-6.3619-5.8001-7.7904-10.0244l-.2381-.4369M338.5689,144.6767l-11.8111-.8873c-7.6713-.4369-15.3426-.8474-23.0138-1.1653l-25.3549-.8739c-7.8035-.1324-15.6203-.2252-23.4371.1986-4.7747.2648-9.5362.6224-14.2051,1.6686-1.7062.3708-3.3992.821-4.8012,1.9467l-1.1904,1.4036c2.1691,2.3439,3.5711,3.2709,4.9996,4.1317l15.8584,9.5741c6.0577,3.7078,11.7847,7.8262,16.8371,12.8185l6.8645,7.5216c.6216.8078,1.111.8607,1.8649.1986l3.1743-2.5028c11.5466-9.0576,23.9926-16.8044,36.6105-24.2862,4.7482-2.8207,9.6552-5.4293,14.7341-7.6805.9788-.4371,2.0501-.7945,2.8701-2.0659M354.3611,156.6874l-1.1639.1721c-10.5811,4.7143-20.567,9.6272-30.4074,14.8313l-8.121,4.4627c-.582.3178-1.0713.6224-.8994,1.4699,1.1904,5.5485,3.4124,10.3952,11.335,12.2624,3.1611.7415,6.3619.927,9.6023.6489,7.8961-.6887,15.0384-3.3769,21.5722-7.76,1.6797-1.1257,2.3675-2.5028,1.984-4.5288l-1.5872-9.6007c-.7274-3.9991-1.5475-7.9718-2.3146-11.9577"/>
    <path class="cls-2" d="M89.0804,125.5814c-.7936,4.4361-2.2353,8.6207-4.8276,12.3814-1.931,2.8073-4.325,4.9659-7.5919,6.2769l-12.6973,4.6612c-.0794-.9137.6613-1.0065,1.1242-1.2713,7.1025-4.0786,13.4644-9.0047,18.6359-15.3478,1.8781-2.3041,1.9443-2.7014.6745-5.3763-1.5343-3.2577-3.8092-5.9988-6.2825-8.7929l-3.7298,5.138c-1.2433,1.7083-2.6585,3.2841-4.2589,4.7011-1.9178,1.6949-4.0473,2.8867-6.7851,2.741-2.222-.1192-3.9944-.9666-5.3699-2.622-1.7591-2.1055-2.513-4.5817-2.5659-7.2568-.119-5.7603,1.4813-11.0704,4.6028-15.9304l3.3463-4.6877c.4497-.596.6878-1.1124-.1852-1.5097l-.8333-.8607c.0529-2.1586.0265-3.6152.0265-4.9527l.582-.3045c3.333,2.2115,6.5074,4.1712,9.2849,6.6873.7142.6489,2.0369,1.3641,1.5343,2.3439l-1.6268-.1324c-1.23-.2384-1.6004-.4369-2.1427-.0265,2.4072,3.5886,5.3831,6.7271,8.1606,10.223l2.3543-2.1452c1.7062-1.4566,3.4785-2.8604,5.4625-3.9462l1.23-.8474c-.4232-4.2774-.3836-7.654-.8729-11.1367-1.8517.5694-3.095,2.1055-5.026,2.6749l.41-.8873c1.4549-1.1918,2.5791-2.1452,3.7431-3.0457l.9391-1.1387c-.3174-2.7412-.4761-4.6482-.6613-6.5418-.1719-1.7612-.2778-3.4959.6216-5.1777.4762-.8741.6481-1.9068,1.0978-3.337,1.1771,4.3169,1.4813,8.3426,2.1427,12.2622l.41.0531c2.5395-1.8407,4.7218-3.9065,6.7322-6.1709l.7671-1.0063-1.2697-.8476c-2.3278-1.4302-3.0156-2.2115-1.0052-5.2042l2.1823-1.8539c1.3623-.6489,2.1824-.3047,2.6585,1.1387l.1323,3.218c-.0661.8474-.1058,1.5891.6745,2.238.6216.5165.3439,2.5954-.291,3.0722l-.6216.1589-.7803-.9534-1.4152.7813c-2.394,2.8338-4.6424,4.9261-7.0232,6.8992l-.9258.9931c.4232,4.2774.7407,7.76,1.0846,11.2427l.0926.2252c1.2433.1853,2.1691-.6092,3.2537-.9005l.82-.3574c2.0104-.8078,2.0633-.8211,1.1639-2.3572-1.5872-2.7147-1.521-5.3764.3439-7.8792,1.4549-1.9599,3.2669-2.7146,5.7402-1.5626,3.3992,1.5891,6.1106,4.0125,8.5707,6.7403l.4365.7549-.2248.5694c-1.283,3.933-1.283,3.9462-5.3038,5.1512l-2.6056.7416c-1.0581.2252-1.6004.715-1.3755,1.8539l.0661.6357-.6481.1986c-.8729-1.536-.8729-1.5625-2.4733-.9666l-6.5735,2.8073c-.8994.4105-1.1375.9534-1.0317,1.9467l.6349,8.3823c.172,1.8937.3836,3.8006.7142,5.6809.8597,4.9527,3.6901,7.5481,8.7691,8.25,5.0789.7018,10.0388.0265,14.9325-1.2978l1.1507-.5297c-.3571-4.7275-.5026-8.5413-.7936-12.3419l-2.1162-23.7698c-.582-4.8732-1.1904-9.7331-1.9178-14.5797l.0132-1.6554c.8068-2.132,1.0978-3.5622,1.9972-5.085.7274,1.8407.9391,3.5356,1.23,5.1777l2.4997,19.5058c.7539,7.9852,1.3755,15.9702,1.9972,23.9685.1719,2.2778.0794,4.5819.5952,6.8331l.0661.5032,1.0978.0794c3.7166-1.3108,6.8248-2.847,9.8933-4.5024,1.4285-.7679,1.9972-1.7876,1.7326-3.4031l-1.2036-8.7002c-.8862-6.3695-1.7723-12.739-2.6453-19.0953l-1.111-7.9455c-.0397-.2515-.0265-.6223-.1719-.7282-1.3491-.8741-.7275-1.9996-.41-3.0589l1.0846-3.3106c1.5078.8739,2.7246,2.026,3.9944,3.0722,5.0657,4.158,10.0388,8.4354,14.3241,13.4011,4.7615,5.5353,7.4597,11.9843,8.7162,19.0688,1.1375,6.4358.1984,12.6729-1.7591,18.8306l-3.5843,9.4681c-.1587.3311-.1984.7681-.7275.7681l.0265-1.0991c1.4285-4.1978,2.6849-7.8658,3.3992-11.7062,1.8252-9.6933,0-18.5788-5.6609-26.7229-3.9547-5.6809-8.8352-10.4614-14.2845-14.7121l-.4762-.4502-.5026,1.3375c1.402,8.3955,2.5395,16.2084,3.4521,24.048l.3836,3.9859c.1058,6.2106-2.3808,10.9646-8.121,13.8647l-6.0312,2.5954c-.7936.2781-1.1242.7018-1.0449,1.5494.3571,3.3502.4365,6.7403,1.1771,10.0377.5952,2.622,1.8914,4.8333,4.2986,6.5152l-.2381-1.0726c-.8597-1.7878-1.4417-3.2046-1.8252-4.6877-1.0713-4.2243.582-8.1573,4.4441-10.2231,4.735-2.5293,9.4568-2.0923,14.086.2913l3.3066,2.1983c-.3174.6621-.7274.4636-1.0581.3708-5.7535-1.4037-11.2821-.4237-16.6784,1.642l-1.5607.8078c2.0501,5.959,4.8805,9.2299,9.4172,10.9646,1.7326.6621,3.3727.6489,5.0392-.2384,3.5447-1.8936,6.7719-4.1977,9.8669-6.7269l.5291-.7284c-.3571,2.3439-.82,4.7804-2.923,6.5947-2.9892,2.5822-6.0577,4.9791-9.7478,6.4755-4.206,1.7083-8.4516,2.3439-12.7899.5032l-1.2697-.596c-1.9707,2.0923-2.9495,4.5422-3.4785,7.1774l-.0132.7679c.4365,1.0594.7142,1.907,1.5475,2.0526l1.1904-.7681c.5158-.8873.5026-1.2845,1.0713-1.3639.4629.9534-.0794,1.8009-.41,2.622l-.7671,1.6552c-1.8781.927-3.1082.3576-3.4785-.7813-.41-1.2844-.5687-2.5822-.2248-3.9462l2.4336-6.8329c.4232-1.0329.582-1.8539-.41-2.7147-.9126-.7945-1.3755-1.9731-1.9575-3.0589l-.9391.5032c-.3439,3.4959-2.0369,5.244-4.6424,6.2635-3.1876,1.2449-5.8064.1324-7.0364-3.0059l-.0926-1.0462c-1.3623.7679-2.0765,1.8936-2.8701,2.9662-3.6769,5.0188-8.3855,4.4627-11.6392-.2384l-2.103-3.1517c-.9523-1.3242-1.5475-1.43-2.8966-.4634-1.5343,1.0991-2.7511,2.4896-3.6108,4.1712l-2.0765,5.1512c-.3439.8873-.6878,1.7878-1.3094,2.5426-1.3094,1.5891-3.1214,1.8009-4.7879.5826l-1.23-1.1387c-3.0685-4.5819-4.3779-8.8326-3.915-13.5337l.1323-1.4963c.9523.9666.992,2.5557,1.3094,4.1183l1.4681,4.7408c.4894,1.1255,1.1904,2.1188,2.1427,2.9133,1.7327,1.4434,3.6637,1.1255,4.6292-.8608l1.7856-4.6348c.8333-2.3704,2.0236-4.542,3.6769-6.449l2.2353-1.8009c1.4417-.7284,2.3807-.5032,3.3066.8342l3.0156,4.2111c3.5843,4.0522,8.4252,2.3836,10.343-.7416l2.3278-3.3106c.3042-.4105.6746-.7679,1.0317-1.1255l.4497-.2913.5423.5297-.1719.7415c-.5423,2.5028.7407,4.3699,3.0156,4.6083,1.8252.1987,3.4256-.49,4.907-1.4434l.7803-.8342c0-1.3905.0529-2.1584,0-2.9133l-.8994-11.6135c-.119-1.5362-.1455-1.5891-1.7326-1.1918-4.3382,1.0858-8.7294,1.7744-13.2131,1.801-2.0898.0132-4.1134-.3444-6.0973-.98-2.4733-.7945-4.2457-2.357-5.2509-4.7408-.8729-2.0789-1.2962-4.264-1.5343-6.4887-.0132-.8342.1323-1.6949-.41-2.847-.5819,1.1521-.4365,2.026-.4497,2.8604M85.9854,127.8855l.8994-1.2315c.8068-3.5754,1.2168-6.4755.9126-9.4154l-.2645-5.1379c-.0265-.4768.1323-1.0065-.3042-1.5097-1.7459.7152-3.2405,1.801-4.7086,2.9265-1.9972,1.5362-1.9972,1.0992-.3968,3.1385,2.6188,3.3238,4.325,6.9256,3.8753,11.2559l-.4762.2648.4365-.106M64.9158,100.4342c-2.5791,2.7412-6.7322,10.5938-7.6184,15.0433l-.4365,4.542c.1587,3.0988,2.3543,5.1779,5.4625,5.2837,2.8701.0927,5.0789-1.2315,7.0496-3.0722l5.3699-6.2503c.6745-.8476.5687-1.3773-.1058-2.1055l-5.9254-7.7732c-1.2697-1.8407-2.4998-3.6946-3.8224-5.6677M104.661,97.5475c-1.4417-1.2184-2.8304-2.3307-4.5499-2.9796l-1.4814-.3576c-1.3755.6357-1.521,1.0197-1.111,1.5494l2.4336,2.9796c.291.3574.6084.3973,1.0184.2382l3.6901-1.4168M96.5929,76.6777l1.0846,1.1123.7671-1.7347"/>
    <path class="cls-2" d="M125.5189,245.2914l10.2769,5.0321c3.4389,1.7215,6.8512,3.5091,10.2636,5.2704l1.3755.715c-3.4256,6.6476-6.2428,12.0769-9.06,17.5194l-.6613,1.1786c-1.3888-1.4302-2.2353-1.7479-2.9892-2.1188l-17.5778-8.8326c-1.1639-.5694-1.2301-.7547-.6613-1.8009l8.0416-15.4405c.2645-.5032.3836-1.0858.9787-1.5362"/>
    <path class="cls-2" d="M383.1416,203.4722c0-4.4758.9788-8.3028,2.1294-12.0769,2.4733-8.1174,5.8593-15.8907,9.2849-23.6507,1.6533-3.7343,3.3595-7.4421,5.5418-10.9115l.4629-1.4302,1.2697,1.4963c-.6084,2.5691-1.4417,4.4362-2.2882,6.3034-3.4389,7.5481-6.8645,15.0962-9.3114,23.0283-1.0581,3.4033-2.222,6.8065-1.9972,10.4481.2249,3.6681,1.3227,6.9919,3.9943,9.6801l1.1375,1.0329c2.9759,1.7347,5.1186,1.4831,7.0099-.384,1.3755-1.3639,2.4072-2.9794,3.2669-4.7141l1.9311-3.9596c.1455-.2913.3836-.5826.7274-.5031l.4233.4369c.1323,1.6818-.0926,3.006-.3439,4.317-.873,4.4228-2.4733,8.5544-5.0128,12.3153l-3.3595,3.6814c-1.4681,1.2447-3.0685,1.6949-5.026,1.1784-3.2405-.8474-5.7006-2.5822-7.3009-5.5087-1.9179-3.5225-2.4336-7.3363-2.513-10.7661"/>
    <path class="cls-2" d="M193.2378,174.6704c.7803,1.3242.6084,2.6352.5158,3.8535-.2381,3.1251-.9787,6.1576-2.4204,8.9783l-.5423,1.0197c-2.3675,3.4562-4.9863,4.0256-8.1474,2.1717-2.6188-1.5362-3.8489-4.0124-4.6821-6.7535-1.2168-3.9991-1.0713-8.0381-.2777-12.0903,1.5872-8.1174,3.7034-16.1157,6.5206-23.9154l.5158-1.2978c.4365-.9932.6613-1.4037,1.111-1.311l.463.5429c-.1587,1.4831-.3836,2.5293-.6878,3.5754l-3.9679,14.3547c-.7407,3.4827-1.5475,6.9653-1.4152,10.5673.1058,3.0325,1.3226,5.5617,3.6108,7.5481,2.7114,2.357,5.026,1.9068,6.7719-1.1786l1.7194-4.2507c.1852-.5695.1587-1.2581.9391-1.801"/>
    <path class="cls-2" d="M167.129,340.7283c-.0661,3.827-.9655,7.4421-2.9362,10.7528-2.1427,3.6019-4.2589,4.4228-8.7426,1.92-1.3226-.7415-2.1691-1.9863-2.8437-3.3106-1.8781-3.6946-2.4733-7.6142-2.0104-11.6929.4762-4.2509,1.5739-8.3692,2.4733-12.5405l3.9018-13.8514c.3307-.9402.6613-1.8936,1.0449-2.8073l.2116-.9402,1.4946.7549c-.4761,2.0525-.7803,3.5488-1.23,5.0054-1.7856,5.7605-3.3727,11.5738-4.4176,17.5064l-.5687,5.1114c0,2.7941.9655,5.2308,2.6717,7.4024l2.2353,1.801c2.0898,1.0594,3.4653.7813,4.9202-1.0329,1.111-1.3771,1.6004-3.0325,2.2353-4.6348l.0661-2.185,1.3491,1.576c.1587.9003.1323,1.0328.1323,1.1652"/>
    <path class="cls-2" d="M257.3988,47.9286l.4365.4239c.2778,4.542-.3703,8.5808-2.3675,12.355l-.3174.5561c-2.4601,4.2774-5.3964,4.423-9.2188,1.8142-1.9311-1.3242-2.8701-3.3901-3.6108-5.5353-1.2962-3.7741-1.3491-7.6408-.6481-11.5075,1.5475-8.5942,3.8489-17.0164,6.7983-25.253l.582-1.417c.4497-.927.7142-1.0328.992-.9799l.4233.3178-.1587,1.3905c-1.2829,4.6612-2.4601,8.7663-3.5579,12.8847-1.0316,3.8801-1.8781,7.7997-2.3543,11.7856-.4497,3.827.5687,7.1906,3.3727,9.9451l.5687.5297c2.6982,1.8407,4.6821,1.4168,6.1899-1.0197l2.2088-5.2837c.119-.4105.119-.9137.6613-1.0462"/>
    <path class="cls-2" d="M114.1707,105.6121c-.1323,1.5492-.6216,2.4232-1.7194,2.9397l-17.8026,9.1901c-.2248.1192-.4497.2252-.7936.0927-.1455-1.3375.5291-2.1584,1.693-2.8206l13.2131-6.7403c1.7062-.8476,3.4256-1.695,5.4096-2.6751"/>
    <path class="cls-2" d="M107.8089,116.1396l1.0978,5.1909c.1587.7681.4629,1.4566.992,2.0394l.6613.4105.8862-.7152c-.3042-1.1123-.5291-1.8407-.8068-2.5425-.5952-1.5228-.8862-3.0457-.1455-4.5817l.41.0265c.5952,1.8141,1.111,3.443,1.6533,5.085.4232,1.2845.2645,2.516-.3042,3.7078-.9126,1.8937-2.394,2.0394-3.7166.3973l-.3307-.5429-1.1904.9137c-2.1162,2.0791-3.7827,1.6818-4.4176-.4634l-.2381-2.6484c-.0265-1.0728.1323-2.1454-.3042-3.2047l.1058-1.5625,1.2962,1.2976c.1058,1.9467-.0661,2.9796.1984,3.9727l.9655,1.6289c1.5078-.1324,2.6056-1.1124,2.7114-1.8937.1587-1.0991-.1058-2.1584-.4629-3.1914-.3968-1.1387-.1852-2.0923.9258-3.3106"/>
    <path class="cls-2" d="M111.7635,173.4256l-4.1928-3.1118c-.5952-.4636-.992-.4237-1.4285.1589l-1.8252,2.4499c-.4365.6886-.8333.8871-1.521.3574l-3.8753-2.8206c-.2778-.1987-.5555-.4503-.3307-.7681.7936-1.1389,1.23-2.4763,2.3675-3.4165l1.0581-.5297c1.6665,1.2845,2.7643,2.0526,3.8489,2.8604l1.111.49c1.0449-1.5494,1.7062-2.3439,2.3014-3.1649l.7936-.7152c1.8781,1.4699,3.1743,2.3968,4.4705,3.3504l.7142.5561c-1.4284,1.7347-2.4204,2.9794-3.4653,4.2904"/>
    <path class="cls-2" d="M80.6949,96.6735l-.8729.8607c.2381,4.6482-.6481,8.3029-2.6717,11.8122-.0132-1.5626.701-2.8736.8994-4.2774.3174-2.3438.5026-4.6745-.0661-7.0184-.6349-2.6484-2.0236-4.7937-4.2457-6.4092-1.0184-.7416-1.2168-1.9202-.5026-2.9133l.82-.2252c1.6268,1.1257,2.7908,2.132,3.6769,3.4033.82,1.1653,1.4681,2.3968,1.7459,3.8006l.3836.927.7804-.0134"/>
    <path class="cls-2" d="M83.0888,78.558c.3042,1.1389,0,1.9863-.9523,2.6484l-3.7695,2.6881c-3.7298,2.7544-7.4464,5.4956-10.5943,8.9121l-.2248.0794c-.1852-1.2712-.0661-2.5028,1.0316-3.4694,4.3911-3.8667,9.0997-7.3361,13.8612-10.7394l.3571-.0795"/>
    <path class="cls-2" d="M135.2932,131.408c.1984-1.4566.5291-2.4234,1.7988-3.0988l14.3638-7.8129c.1587-.0927.3439-.106.6349-.1853.2513,1.205-.2645,1.9863-1.1904,2.5557l-2.8304,1.642c-3.9811,2.2115-7.9622,4.4098-11.9434,6.6213l-.3571.119"/>
    <path class="cls-2" d="M105.8911,145.4315c-.0265,2.0789-.82,3.4827-2.2882,4.4758-.8994.6092-1.931.7416-2.923.1987l-.8861-1.4699c.2513-3.3901,1.3491-5.6545,2.1162-7.9984l.3836-.7679.7274.715c-.4762.9799-.2248,1.4037.3703,1.7215l.5423.3311c1.4946.7679,2.1294,1.6949,1.9707,2.7807M101.4338,144.8355l-.2645.821c-.0794,1.1918.3174,1.7481,1.0846,1.9202l1.402-.1324.6878-1.2449c-1.1639-.6487-1.8649-1.2447-2.9098-1.3639"/>
    <path class="cls-2" d="M64.5058,141.2469c.0794,1.9334-.5423,3.3901-1.8781,4.4627-.8862.7018-2.5659.106-2.8304-1.0197-.3174-1.2845-.5555-2.6088-.2116-3.9594l2.8172-7.7202c.1323-.3179.291-.7284.8333-.6886l-.119,1.0858c-.8862,2.1452-1.5607,3.7872-2.0765,5.5087l-.1852,2.8339c.1719.7813.5687,1.4963,1.4549,1.5891l1.0713-.5694c.3836-.8873.4497-1.2052,1.1242-1.5229"/>
    <path class="cls-2" d="M125.7306,86.1724c-.119,1.8141-.6613,3.1781-1.6136,4.3567l-1.5739.821c-1.5475-1.2581-1.9972-2.0394-2.0369-2.9664-.0529-1.311-.1455-2.6352.3836-3.9196l2.7114-6.7139c.0661-.1853.1852-.3311.5423-.3311l-.1058,1.2581c-1.0317,2.4763-1.7591,4.3699-2.2353,6.3563-.2778,1.1389-.0397,2.1452.7539,3.006l1.0845.6753c1.0846-1.2316,1.2433-1.9599,2.0898-2.5425"/>
    <path class="cls-2" d="M144.0887,101.3611l.0397,1.6025c-.9258,2.3305-1.7459,4.0653-2.1559,5.9324-.2513,1.1257-.3836,2.2646.41,3.2841l1.2301.9668,1.0845-1.4434c.3439-.4503.5158-.6224.7275-.8476.1984,1.5097-.4497,3.443-1.3888,4.2641l-1.1507.5694c-1.5739-.8741-2.222-1.6155-2.2485-2.7544l.4232-4.1448c.7804-2.4631,1.7459-4.8335,3.0288-7.429"/>
    <path class="cls-2" d="M127.3442,103.427l-1.7459,4.3699c-.4497,1.1257-.82,2.2644-1.0184,3.4562l-.1587,1.1389c.6216,1.205.9126,2.0525,1.7988,2.0923l.9258-.7681.6349-.9137.5687,1.0858c-.873,1.9202-1.3094,2.7015-2.1691,3.1252l-1.0184.0265c-1.4284-.927-1.7856-1.9467-1.8517-3.0589-.0926-1.417.1719-2.7809.6613-4.1051l2.103-5.3101c.2116-.5032.4365-1.0329.8994-1.3641l.2513.1456"/>
    <path class="cls-2" d="M88.7497,170.8434c-.1058-1.4037.529-2.0791,1.2829-2.6749l6.1502-4.1714c.2513-.2119.7407-.3708,1.0449,0l.0397.6224c-.4232.8739-.9258,1.2844-1.4681,1.642l-7.0629,4.5951"/>
    <path class="cls-2" d="M248.1932,112.5245l.701.5032c-1.3491,1.5096-2.8833,2.3305-4.2324,2.4233,1.0052-1.2978,2.3807-1.9863,3.5314-2.9265"/>
    <path class="cls-2" d="M89.0804,125.568c.0132-.8474-.1323-1.7081.4497-2.8602.5423,1.1521.3968,2.0128.41,2.847l-.5687.0132"/>
    <polyline class="cls-2" points="249.3572 113.0409 249.7672 112.6172 249.6878 113.0542"/>
    <polyline class="cls-2" points="407.0152 284.7401 406.8961 284.6473 406.9623 284.4222 407.121 284.4091 407.0549 284.6341"/>
    <polyline class="cls-2" points="80.5229 96.4881 80.7742 96.157 80.8404 96.5939 80.5758 96.5543"/>
    <path class="cls-2" d="M272.8339,310.152l-1.3888,4.2111c-.9787-.5429-1.5475-1.4037-2.394-1.9202-2.7379-1.642-5.3434-3.5091-8.3458-4.6745-1.521-.5826-2.222-1.5891-2.1691-3.2178.0926-3.6285,1.1242-7.0316,2.4733-10.3556.6613-1.6287,1.7459-1.9731,3.4917-1.2976,2.7379,1.0594,5.0789,2.7676,7.3406,4.5817,6.0577,4.8864,10.0256,11.2427,13.1337,18.1949l2.8966,7.8792c.529-.5297.5555-1.0728.6084-1.5891l1.1507-13.7058c.3571-5.1116,1.3226-10.1038,3.1346-14.8976.9126-2.4101,2.1559-4.6348,4.1002-6.4092,2.2617-2.0659,4.1663-2.1718,6.5603-.2913,2.394,1.8804,4.2324,4.2772,5.9783,6.7402l.529,1.1124c-1.1375,3.4033-1.9972,6.1311-2.8966,8.8855l-.82-.5297c-1.2565-2.1055-2.5262-3.6283-3.9018-5.0585l-2.7775-2.0526c-2.1823-.9931-4.3382-.225-5.2905,1.9599-1.0316,2.3572-1.4549,4.8732-1.8252,7.4024l-1.6268,16.341c-.3042,3.6944-1.1507,7.2965-2.4469,10.7791l-.6878,1.5096c-.6481,1.1389-.8597,1.7613-1.4681,1.6818l-.3306-.7282c-1.111-2.0129-1.2962-3.8801-1.8517-5.6413-.9391-2.9664-2.4204-5.6413-3.7034-8.4486-1.6136-3.5356-4.1927-6.449-6.2428-9.6933l-.4762-.7681"/>
    <path class="cls-2" d="M330.9373,295.1087c.0794-2.7809,1.1375-4.9393,1.8252-7.2037.4365-1.4302,1.3623-2.4499,2.632-3.1649,3.8753-2.1849,8.0813-3.006,12.4857-2.6484,2.6188.2119,3.743,1.5626,3.7563,4.1978.0132,2.2113-.7142,4.2507-1.6533,6.2371l-4.0869,7.1508c-.8597,1.417-1.6797,2.8604-2.3278,4.3964-.582,1.417-.2513,2.6088.6877,3.7211,1.7591,2.0526,4.0341,2.9001,6.719,2.7015,3.7298-.2781,7.1951-1.4831,10.4885-3.1649,5.6476-2.9001,10.4355-6.8198,14.0463-12.0372l.3174-.3973.4365-.2119.2909.715c-3.4918,7.2966-7.7241,13.5469-14.0993,18.1685-3.7033,2.6749-7.7506,4.5156-12.3137,5.2969-2.8569.49-5.5551-.0132-8.1078-1.1123-1.3359-.5828-2.3278-1.9467-2.5659-3.3769-.5026-2.953-.5555-6.0119.7275-8.7399,1.6136-3.443,3.0421-6.9919,5.0789-10.2496l1.4284-2.4896c.7274-1.3639.5423-1.7215-1.0185-2.0789-2.8701-.6621-5.6476-.159-8.3723.7681-2.2485.7547-4.2324,2.026-6.3619,3.5488"/>
  </g>
</svg>