<?xml version="1.0" encoding="UTF-8"?>
<svg id="IbnAlmussayeb" xmlns="http://www.w3.org/2000/svg" viewBox="0 0 380.9467 404.6005">
  <defs>
    <style>
      

      @import url('../../CSS/SvgStyling.css');


    </style>
  </defs>
  
  <g class="content">

    <rect id="bg" class="bg" width="380.9467" height="404.6005"/>
    <path class="cls-1" d="M326.4879,52.2556c4.334-2.7432,8.8482-4.6456,10.2654-9.7705.9696-3.506,1.6427-7.0938,2.6054-10.6019.2529-.9214,1.0896-1.6825,1.6582-2.5173.4077.8791,1.0418,1.7227,1.1866,2.6431.9812,6.2366.9769,12.5003-.54,18.6317-.6689,2.7035-1.8152,5.4058-3.2937,7.7646-2.223,3.5464-5.8927,4.9003-9.975,4.9463-1.2633.0143-2.1125.2323-2.9632,1.2691-5.887,7.1748-13.1476,10.8423-22.6215,8.4657-1.6367-.4106-2.919.2117-3.8771,1.3449-2.1622,2.5573-4.1444,5.2658-6.2784,7.848-4.8815,5.9067-10.7726,10.5241-17.9576,13.2694-4.8962,1.8708-9.824,1.5141-14.4397-1.0162-2.5265-1.3851-4.8562-3.1261-7.3239-4.6256-.3832-.2329-1.1975-.2515-1.5301.0017-5.3297,4.0571-10.5268,8.2934-15.94,12.2336-3.2651,2.3766-6.765,4.5129-10.8396,5.3061-1.2309.2396-2.5333.3423-3.7783.2313-2.6452-.2359-4.3054-1.7048-4.6168-4.3729-.2659-2.2786-.074-4.6091-.1124-6.9162-.0258-1.5504.1409-3.1566-.2069-4.6372-.5789-2.4644-2.3484-3.3811-4.6044-2.2008-1.952,1.0213-3.9162,2.3667-5.311,4.0392-3.8133,4.5726-7.2998,9.4163-10.9696,14.1105-4.8461,6.1988-9.4523,12.6131-15.4147,17.8442-3.7818,3.318-7.8487,6.2145-12.9726,6.9634-1.9134.2797-3.9562.2671-5.8559-.0768-3.9164-.7092-5.8962-3.5677-7.0628-7.1331-1.3793-4.2154-1.3291-8.5506-1.1228-12.9016.1398-2.949.4834-5.9077.3442-8.8436-.0931-1.9655-.6486-3.9911-1.4045-5.8216-.8734-2.1152-2.7071-2.3988-4.2777-.7231-1.0826,1.1551-1.9908,2.5712-2.6361,4.0223-3.1265,7.0311-6.0812,14.1385-9.2036,21.1714-4.243,9.5571-9.8691,18.082-18.6238,24.1753-7.7146,5.3694-16.3233,8.4094-25.5802,9.7011-11.9227,1.6637-23.7896,1.5217-35.5499-1.2949-1.1191-.268-2.2229-.666-3.2677-1.1471-.4583-.2111-.7505-.783-1.118-1.191.4535-.3734.8618-.9862,1.3677-1.0817,3.4677-.6541,6.9431-1.2951,10.4398-1.7629,11.9792-1.6025,23.7001-4.13,34.9281-8.7798,13.7139-5.6792,24.271-14.9292,31.78-27.651,4.2053-7.1247,8.0735-14.4482,12.2618-21.5833,2.4596-4.1901,5.1306-8.3061,8.9961-11.3876,4.1797-3.332,6.4181-2.7605,8.8148,1.9774,2.0084,3.9704,1.6489,8.1831,1.4899,12.4235-.1425,3.8023-.0334,7.6184.1013,11.4236.0355,1.002.4929,2.0221.8997,2.9726,2.4538,5.7334,6.8788,7.4985,12.5531,5.0007,5.9198-2.6058,10.5515-6.9189,14.6962-11.6992,4.8502-5.594,9.3206-11.5155,14.098-17.1749,2.642-3.1298,5.5711-6.0177,8.3827-9.0034.2746-.2915.6248-.5155.9539-.7514,4.3617-3.1274,7.466-1.8222,8.2864,3.4732.2747,1.7731.4908,3.5613.8852,5.3085.7436,3.2937,3.132,5.3085,6.4937,5.06,6.183-.4571,11.7875-2.5564,16.1591-7.1105,3.3144-3.4528,3.2767-6.4797-.4656-10.2527-1.3089-1.3196-2.9052-1.6972-4.7885-1.3546-2.1002.382-4.2454.5263-6.3751.7321-1.0354.1-1.6043-.3532-1.2296-1.4455,2.8944-8.438,7.6453-15.4312,16.1681-18.9224,7.9824-3.2698,15.7191-2.0015,22.8131,2.7204,4.0885,2.7214,5.4234,6.4072,3.5193,11.0766-1.8646,4.5728-4.5389,8.8159-6.8685,13.1979-.3162.5947-.6948,1.1562-1.1253,1.8664,3.5012.8678,6.8463,1.1306,10.1349.2738,9.3724-2.4418,17.2695-7.0671,21.8616-15.9879,1.524-2.9606,2.4193-6.2414,3.6753-9.3462.2675-.6612.8533-1.1935,1.2924-1.7853.4568.6611,1.2108,1.279,1.3144,1.9914.3072,2.1133.3583,4.2638.5091,6.3998.0435.6165.0856,1.2331.1236,1.7804.2855.0951.4227.1928.4953.1576,5.6096-2.7246,12.0667-4.4237,14.8842-10.8113,1.3651-3.0949,1.9827-6.5142,3.0438-9.7522.2782-.8489.9489-1.5691,1.4394-2.3484.4133.8783,1.1219,1.7368,1.1825,2.6388.1577,2.3493.0305,4.7177.0184,7.0784-.0029.5657-.0004,1.1315-.0004,2.2476Z"/>
    <path class="cls-1" d="M211.1004,261.0982c3.1884.8675,6.3083.6657,9.3578-.5029,4.801-1.8397,9.2307-4.3595,12.9735-7.8919,1.2586-1.1878,2.1315-2.8428,2.9758-4.3956.9912-1.8228,1.7164-3.7887,2.6569-5.6417.2121-.4178.8374-.6259,1.2725-.9305.1576.4534.4711.9159.4454,1.3588-.1032,1.7775-.3114,3.5489-.5402,5.9455,1.5052-.9935,2.6644-1.6466,3.6975-2.46,4.4401-3.4957,7.6618-7.7889,8.9671-13.4282.2858-1.2347,1.2884-2.3036,1.9609-3.4488.2228.0669.4456.1337.6685.2006v7.9113c.8408-.4375,1.4438-.6786,1.9679-1.0356,4.064-2.7686,6.0949-7.0107,8.1091-11.2609.52-1.0973.9856-2.224,1.5704-3.2854.3076-.5583.8187-1.0045,1.498-1.8094.2278.8361.4563,1.2517.4335,1.6531-.5481,9.6675-3.4445,18.4938-9.5253,26.1395-.7472.9396-1.6594,1.7926-2.6321,2.4962-1.0565.7641-1.322,1.5567-.9639,2.811,1.2093,4.2359,4.6195,6.7151,9.7272,6.8618,9.3917.2697,16.7622-3.7513,22.5947-10.8574,2.8568-3.4806,5.5669-7.0821,8.3197-10.6472.2244-.2906.4188-.7456.3682-1.0855-.502-3.3701.8021-6.3939,1.8171-9.4516,2.3686-7.1355,5.6703-13.8271,10.2639-19.7899,2.9037-3.7693,3.2642-7.7857,1.9545-12.1198-.7853-2.5987-1.7063-5.1572-2.6042-7.7205-.1749-.499-.5241-.937-.7929-1.4031-.1533.0227-.3067.0454-.46.0682-.3742,2.4317-.6472,4.8843-1.146,7.2902-.7843,3.7834-1.7161,7.5364-2.6005,11.2987-.0782.3326-.1924.7131-.42.942-.4121.4143-.9223.7309-1.3915,1.0883-.1544-.5162-.4748-1.0447-.4378-1.5468.4161-5.6541.4646-11.3789,1.4479-16.9368,1.2961-7.3265,3.3324-14.5224,5.0704-21.7697.1164-.4855.401-.9308.6959-1.594.4505.3736.8882.5804,1.0875.9251,3.6029,6.2306,7.0215,12.5399,8.0102,19.8285.8217,6.0576-.4078,11.8972-2.1022,17.6289-2.2733,7.6905-5.5392,14.9676-9.8058,21.7796-.4114.6569-.705,1.3877-1.135,2.2477,3.7504.427,7.2342.9044,10.7337,1.1883,1.7625.143,2.7515.913,2.3164,2.5993-.918,3.5576-2.0297,7.0686-3.1964,10.5538-.1314.3925-1.1121.6425-1.7254.7071-2.523.266-5.0738.3117-7.5815.6688-3.6229.516-6.1019,2.6847-8.0629,5.7244-2.7557,4.2714-5.4776,8.6074-8.6788,12.5369-3.4865,4.2796-7.6542,7.9365-13.17,9.5341-3.9411,1.1414-7.9903,1.6197-12.0206.7483-5.9532-1.2871-10.3293-6.593-10.9997-13.0746-.2235-2.1605-.2676-4.3396-.3938-6.5102-.2514-.2071-.5028-.4141-.7541-.6211-.2558.5581-.4261,1.1787-.781,1.6643-2.7146,3.7153-5.6538,7.2195-9.9278,9.2418-1.5893.752-3.1459,1.6997-5.1086,1.2385-.4945-.1162-1.2633.424-1.7454.8461-4.0566,3.5517-8.4134,6.5486-13.8507,7.5261-5.5853,1.0041-10.543.1754-13.7904-5.0534-2.3911,1.3274-4.6268,2.7565-7.015,3.8539-4.5923,2.1102-9.3764,1.0336-12.0521-2.5768-1.9083-2.5749-3.0187-5.4616-3.0379-8.7082-.0127-2.1339-.0024-4.268-.0024-6.7343-.6741.5081-1.2459.8406-1.6966,1.2936-6.3258,6.3591-12.6461,12.7236-18.9455,19.1088-7.936,8.0441-16.1133,15.8277-25.3399,22.3933-8.121,5.7789-16.7304,10.7284-26.7589,12.2477-13.2271,2.0038-25.0018-1.1091-33.3115-12.1319-9.6539-12.8058-11.8508-27.0778-5.737-42.1378,5.1565-12.7019,13.6208-22.6148,25.8923-29.0699,8.2343-4.3315,17.0638-6.1159,26.2856-6.1715,5.7307-.0346,11.4638.1723,17.1932.0886,10.3758-.1516,20.2526-2.8157,29.9553-6.2519,1.4177-.5021,2.7955-1.1321,4.2366-1.5468.7795-.2243,1.654-.1185,2.4856-.1616-.6351.5742-1.177,1.3612-1.9209,1.6871-3.9207,1.7179-7.9153,3.2669-11.8418,4.972-9.4584,4.1072-19.3447,5.6132-29.6253,5.6298-9.9813.0161-19.9005,1.1315-29.4633,4.2447-11.5409,3.7572-21.2175,10.0114-27.2357,20.9705-4.9169,8.9537-6.5834,18.2982-1.9959,27.7809,5.4158,11.1947,17.8117,21.2873,35.0908,18.2708,11.2742-1.9683,21.1416-6.9417,30.3437-13.5026,9.0911-6.4818,16.8264-14.4957,24.9842-22.0319,7.1006-6.5594,14.153-13.1711,21.2837-19.6973.8776-.8032,2.1074-1.2215,3.174-1.8181-.0256,1.2592.1602,2.5682-.1224,3.7668-.5295,2.2457-1.4238,4.4033-1.9997,6.6404-1.4524,5.6418,2.605,10.5433,8.4285,10.099,4.395-.3353,8.0823-2.1859,10.9463-5.6421,2.4373-2.9412,4.9774-5.798,7.5094-8.6591.3002-.3392.8356-.4703,1.262-.6979.1396.468.4114.9396.3985,1.4033-.1373,4.9662-2.0786,9.3172-4.6634,13.4418-.4294.6852-.8362,1.385-1.2317,2.0902-.0779.139-.0557.3341-.09.5761Z"/>
    <path class="cls-1" d="M348.5857,198.0827c-.5243,5.9746-1.0618,11.948-1.5667,17.9243-.2191,2.5936-.2256,5.2155-.6234,7.7789-.1659,1.0692-1.016,2.7917-1.7014,2.866-1.5314.1659-1.4992-1.6043-1.7501-2.7131-1.3406-5.9244-1.3714-11.9607-1.1421-17.9741.291-7.6313.5988-15.2801,1.4022-22.8681.6315-5.9644,2.0143-11.8502,3.0988-17.7643.1056-.5756.4606-1.1055.8372-1.973.6152.9056,1.0815,1.4813,1.43,2.1212,9.5462,17.5328,16.3963,36.0143,19.4414,55.8049,1.9201,12.4795,1.6698,24.9121-1.0012,37.2905-1.9658,9.1104-6.9425,15.9836-14.7878,20.9377-5.2297,3.3024-10.8158,5.7692-16.6804,7.6453-.6022.1926-1.318.0303-1.9811.0326.1593-.6948.1077-1.5614.5115-2.057,3.0657-3.7631,6.0998-7.564,9.3751-11.1413,5.2039-5.6834,10.4786-11.2983,14.5429-17.8926,4.8517-7.8718,6.3819-16.203,3.7678-25.2711-3.1345-10.8733-7.0301-21.4429-11.7746-31.7073-.1854-.401-.4656-.7583-.7015-1.1359-.2321.0322-.4642.0644-.6963.0966Z"/>
    <path class="cls-1" d="M22.2772,209.6656c-4.7201.2081-7.6609,2.9259-10.1406,6.4265-.1338-.1213-.2676-.2427-.4014-.364,0-.5897-.1321-1.2163.0206-1.7634,1.3877-4.9723,4.068-9.1325,8.4642-11.8713,1.5094-.9404,3.5654-1.1922,5.4064-1.3481,1.3184-.1117,2.1471.858,1.6065,2.3487-1.2019,3.314-2.5536,6.5787-3.6224,9.9342-.7839,2.4609-1.5549,5.0109-1.7289,7.5623-.3104,4.5516,2.9632,7.7888,7.5365,7.9372,2.9852.0969,5.5617-1.0253,7.8325-2.8403,5.285-4.2244,9.2216-9.2434,9.5403-16.3939.097-2.1753-.3234-4.1429-1.6367-5.8775-.7754-1.024-.9687-2.0716-.3957-3.2372.9163-1.8637,1.8133-3.7372,2.755-5.588.6157-1.2102,1.3639-1.1889,1.9891-.0275.7396,1.374,1.4378,2.7764,2.0499,4.2108.4146.9716,1.0623,1.1626,1.941.8496,3.7462-1.3347,6.9303-3.4937,9.2396-6.7528,1.9378-2.7349,1.4665-8.1718-.8662-10.8045-.8037.7426-1.6125,1.49-2.4213,2.2374-.1762-.1337-.3523-.2675-.5285-.4012,1.0515-3.9641,2.2257-7.9083,4.8328-11.2088.746-.9445,1.4494.0423,1.7971.7823,1.5989,3.4037,2.6744,6.9039,1.8977,10.741-1.1157,5.512-2.383,10.9385-5.3633,15.851-2.4921,4.1078-5.9631,6.6811-10.5897,7.7418-.9797.2246-1.4522.635-1.6028,1.6812-1.3443,9.3414-6.083,16.9028-12.6916,23.3484-3.1639,3.0859-6.9087,5.2733-11.6428,4.8634-3.8217-.3309-6.0815-2.4809-7.2103-6.0328-1.3432-4.2265-.6553-8.3915.5125-12.4793.7753-2.7139,1.9268-5.3201,2.9044-7.9765.1689-.459.3103-.9281.5161-1.5486Z"/>
    <path class="cls-1" d="M183.4827,161.4631c-5.3841-.3283-11.5215-1.6848-17.5801-3.4739-1.3662-.4034-1.4902-1.2264-.675-2.1752,3.686-4.2897,5.179-9.6171,7.0785-14.7539.8364-2.2618,1.032-2.3332,3.4156-2.1062,7.0213.6686,14.0483,1.2764,21.0722,1.9185,1.1497.1051,2.2955.2561,3.4414.3994,1.0707.1339,1.7222.7278,1.6945,1.8292-.1589,6.3131-1.7244,12.0953-7.1823,15.9205-3.0152,2.1132-6.6795,2.4517-11.2648,2.4417Z"/>
    <path class="cls-1" d="M139.2684,63.6415c.7438-.1553,1.4881-.308,2.2312-.4663,5.6476-1.203,11.303-2.3717,16.9347-3.6447.9647-.2181,1.8285-.8825,3.3178-1.6322-1.6036-1.1034-2.689-2.2605-4.0095-2.6833-4.2325-1.3553-8.5242-2.5597-12.8554-3.5502-1.2285-.281-2.6853.3008-4.008.6118-.9652.227-1.8823.6589-3.2456,1.1535.3528-.8078.4048-1.1888.623-1.3858,2.2298-2.0138,4.3247-4.2284,6.7685-5.9434,5.6719-3.9803,11.8014-3.4528,17.9209-1.127,2.0444.777,4.0401,1.7561,5.9198,2.8749,2.6326,1.5669,3.0238,3.3968,1.7529,6.1941-2.2244,4.8958-6.1368,7.8932-10.9992,9.7634-5.9336,2.2821-12.0472,2.706-18.2675,1.399-.7339-.1542-1.4241-.5165-2.1346-.7823.0169-.2605.0339-.521.0508-.7815Z"/>
    <path class="cls-1" d="M168.1295,363.7508c-.5778,1.178-1.1328,2.3681-1.74,3.5307-.5972,1.1434-.2909,1.9683.7847,1.7124,2.4624-.5859,4.824-1.4845,6.562-3.7341-.3901-.208-.6119-.4076-.8582-.4449-2.5033-.3798-2.5618-.4043-1.2837-2.7031.5888-1.059,1.3243-2.6382,2.216-2.8073,2.1587-.4094,4.454-.2054,6.6779-.035.2914.0223.7894,1.3627.6558,1.9759-.1996.9166-.9346,1.7032-1.3294,2.5949-.3241.732-.9104,1.8186-.6258,2.2486.5434.8212,1.5648,1.692,2.4927,1.8283,3.6419.5348,7.3127-4.0443,6.1338-7.5022-.1464-.4294-.5771-.9789-.9683-1.0681-1.2776-.2914-1.2475-1.0074-.8302-1.9362.4497-1.0012.8702-2.0223,1.415-2.9707.2281-.3971.7621-.8892,1.1227-.8632.3603.026.8693.5956.9785,1.0142.3335,1.2779.7433,2.6063.6973,3.8999-.1512,4.252-1.2725,8.2399-4.1027,11.5418-3.2726,3.8179-7.7377,3.2436-9.9504-1.2024-.1249-.251-.3085-.4728-.5912-.8987-.9604.8247-1.7903,1.6925-2.767,2.3381-1.3339.8817-2.7029,1.8847-4.2033,2.2815-1.069.2827-2.5242-.0827-3.5437-.6403-1.1587-.6337-2.0369-1.0145-3.0905-.0112-.2038.1942-.4905.4527-.7254.4395-2.3071-.1302-2.5224,1.4995-2.9878,3.1906-1.2709,4.6178-3.7084,8.5948-7.3084,11.7694-.9685.854-2.202,1.5347-3.4308,1.9428-3.7351,1.2402-7.008-.8636-6.9273-4.8093.0578-2.8245,1.0509-5.6318,1.6518-8.4413.113-.5281.3446-1.0308.5657-1.6737-2.6951-.4087-3.5266,2.2442-5.4991,2.8873-.1247-.3312-.3158-.5751-.2594-.7275,1.1772-3.1795,2.8666-5.9651,6.2291-7.218.6705-.2498,1.6563-.1941,2.2574.145.2886.1629.1657,1.3576-.0242,2.0114-.7085,2.44-1.6328,4.8212-2.2605,7.2795-.4914,1.9243-.3466,3.8598,1.5338,5.1295,1.7459,1.1788,3.6084.8736,5.2737-.0684,3.9205-2.2177,6.293-5.5872,6.6953-10.1264.079-.8911-.4593-1.8675-.8222-2.7601-.607-1.4931-.0232-4.2934,1.303-5.1265.2716-.1706,1.2762.2522,1.4823.6439,1.3224,2.5125,1.3272,2.6081,3.7209,1.0745,1.2959-.8302,2.4027-1.9568,3.5878-2.958.4577-.3868.8958-.7969,1.3428-1.1964.2498.1478.4997.2956.7495.4435Z"/>
    <path class="cls-1" d="M277.4479,112.8377c-1.9086,3.3682-3.5317,6.0649-7.3403,6.6024-6.3608.8976-12.71,1.9074-19.0301,3.0569-11.0422,2.0084-22.0572,4.1662-33.0898,6.2277-.5554.1038-1.1702-.1104-1.7573-.1766.2376-.5503.4353-1.1231.7285-1.6419.1636-.2894.6337-.4472.7149-.7351,1.3229-4.6888,5.668-4.371,9.0256-5.0048,11.1394-2.1028,22.3544-3.81,33.5522-5.5951,3.9418-.6284,7.9218-1.0144,11.8752-1.5762,1.0154-.1443,1.9892-.5628,2.9944-.8041.6064-.1456,1.2364-.1925,2.3266-.3532Z"/>
    <path class="cls-1" d="M275.5762,27.6005c2.0708-2.9184,3.2405-6.0921,7.4466-6.7003,14.9914-2.1681,29.9406-4.6271,44.905-6.9813,2.1708-.3415,4.3305-.7638,6.5093-1.0361.6148-.0768,1.2796.2462,1.9215.3858-.2451.6017-.4049,1.2577-.7488,1.7963-2.5586,4.0084-6.0819,5.4036-10.9553,5.368-10.6255-.0777-21.0067,2.295-31.3983,4.3217-5.503,1.0733-11.0352,1.9971-16.5569,2.9732-.2583.0457-.5428-.0564-1.1231-.1274Z"/>
    <path class="cls-1" d="M253.2333,215.9361c.865-.6192,1.6941-1.2976,2.6008-1.8481,6.8225-4.1427,13.6914-8.2101,20.4746-12.416,2.0544-1.2738,3.906-2.8823,5.8064-4.393.6595-.5242,1.1859-1.216,1.9246-1.9902-.8333-.572-1.4886-1.0103-2.1321-1.4653-3.6975-2.6149-4.465-5.5924-2.4081-9.6119,1.3401-2.6187,3.4091-4.5221,6.116-5.6588,2.9349-1.2324,5.2254-.0011,5.3693,3.2139.1065,2.3801-.359,4.8293-.8842,7.1773-.2952,1.3196-.1063,1.9946,1.0252,2.6867,2.6152,1.5998,2.7833,2.5463,1.1646,5.186q-1.5766,2.571-3.9733.5687c-.347-.2883-.7766-.4772-1.3808-.8399-8.56,10.9783-20.5886,16.107-33.2084,20.2206-.1649-.2767-.3297-.5534-.4946-.8301ZM286.4338,189.1889c.2291-.0946.4581-.1893.6872-.2839-.1074-1.2343-.0727-2.5065-.3871-3.6856-.1406-.5272-1.1044-1.3104-1.4821-1.2063-.9889.2726-1.8744.9495-2.7524,1.5379-.0666.0446.1513.7857.4071.9926,1.142.9235,2.3458,1.7706,3.5272,2.6452Z"/>
    <path class="cls-1" d="M269.358,362.1386c-.1564,1.3004-.4276,2.5992-.446,3.9015-.041,2.9076,1.6079,4.1434,4.2651,2.8402,2.2424-1.0998,4.1841-2.8198,6.235-4.2983.531-.3828.9727-.8893,1.7796-1.6409.3183,2.4185-1.1742,3.7712-1.7338,5.3937,2.9333,1.6472,7.1056-1.3868,11.9204-8.7435.2441.8511.4317,1.5051.6736,2.3486,2.7345-1.4464,2.9111-4.2834,4.217-6.6501.1594.8322.3188,1.6643.514,2.6834,3.2554-1.5505,2.9777-5.3065,4.8895-7.6174-.6094,4.9476-1.4484,9.6937-6.0216,12.8071-3.13,2.1308-6.0462,4.575-9.0691,6.8643-.873.6612-1.7263,1.3834-2.6893,1.8839-2.6132,1.3581-4.4675,1.0846-6.7065-.8524-1.4313.6753-2.8865,1.342-4.3244,2.0442-3.5156,1.717-5.6187.5248-5.8885-3.3498-.0378-.5429-.1011-1.0841-.5487-1.718-.4499.707-.9011,1.4132-1.3495,2.1211-1.793,2.8307-3.4445,5.7644-5.4141,8.4664-2.329,3.1952-5.6894,4.6266-9.628,4.6684-2.2656.024-4.5316.0044-6.7975.0044-.0256-.2277-.0513-.4554-.0769-.6832.6704-.1589,1.3328-.3962,2.0123-.465,8.1534-.8259,13.6217-5.4758,17.693-12.2335,1.3993-2.3226,3.0265-4.5102,4.6004-6.7234.3704-.5209.9465-.8954,1.4279-1.3372.1553.0952.3107.1904.466.2856Z"/>
    <path class="cls-1" d="M211.6456,370.3487c-1.6846,2.3082-4.096,2.5166-6.5364,1.9447-2.3965-.5616-3.1152-2.7419-3.3047-4.8313-.3812-4.2019-.5221-8.4279-.6785-12.6471-.1115-3.0072-.0861-6.0195-.1226-9.0295-.0187-1.5391.4733-2.8736,1.8319-3.9977.078.8196.1937,1.6375.2281,2.4589.2566,6.1255.4242,12.256.7802,18.3756.1346,2.3141.8662,4.7342,3.4801,5.239,2.5268.488,4.6651-.8599,6.3805-2.7398.6275-.6877,1.2365-1.3921,1.854-2.0889.2368.1382.4736.2765.7103.4148-.6584,1.7397-1.3168,3.4793-2.1441,5.6652,5.5141-.7377,8.8067-4.0482,11.5218-7.939,2.9526-4.2312,2.7566-11.532-.3562-15.3579-.6903,3.142-1.3245,6.0288-1.9587,8.9155-.2143-.0247-.4286-.0495-.6429-.0742-.0359-.5065-.1805-1.0332-.0907-1.5163.8137-4.3763,1.6541-8.7479,2.5359-13.1109.0786-.3888.5657-1.03.7561-.9936.4405.084,1.0264.4273,1.1818.8146.8355,2.0826,1.9651,4.1577,2.2475,6.3323,1.2076,9.2979-.8321,17.6388-8.2007,24.0213-1.2648,1.0955-2.9294,1.8806-4.5419,2.3851-2.0496.6412-3.8937-.3702-4.9308-2.2407Z"/>
    <path class="cls-1" d="M220.2861,281.2161c-2.0922,4.9807-2.3309,10.8978-8.074,13.9774-4.9929,2.6774-9.816,5.6709-14.721,8.513-.4348.252-.9204.4164-1.8617.8344.2741-1.195.3549-2.0213.6521-2.7606,1.2724-3.166,2.5055-6.3558,3.9784-9.4287.5025-1.0483,1.5221-2.039,2.5524-2.6121,5.1492-2.8649,10.3784-5.5861,15.5864-8.3446.4668-.2473.9834-.4003,1.4769-.5971.1368.1395.2736.2789.4105.4184Z"/>
    <path class="cls-1" d="M274.6598,283.5867c-.6055,2.6051-1.6294,4.2996-3.8714,5.1381-5.2012,1.9453-10.396,3.9095-15.5693,5.9276-9.4346,3.6804-18.8517,7.406-28.2767,11.111-.646.2539-1.2862.5322-1.9496.73-.9954.2968-1.3845-.2093-1.0427-1.0852.8826-2.2619,1.8394-4.1914,4.5996-5.1261,8.2701-2.8005,16.4079-5.9919,24.5953-9.036,6.5584-2.4383,13.1121-4.8892,19.6746-7.3163.4567-.1689.9695-.1862,1.8402-.3432Z"/>
    <path class="cls-1" d="M237.1381,217.7233c-.6362.7865-1.1901,1.4239-1.6913,2.1004-1.2464,1.6821-2.8958,2.4868-4.9685,2.1481-1.9614-.3205-2.6894-1.8804-3.0838-3.5683-.3003-1.2852-.4957-2.6166-.5409-3.9342-.0574-1.6764.004-3.2652-1.0785-4.7812-.8909-1.2476,1.1463-4.6244,2.7419-4.6774.3626-.012,1.0589.7088,1.0721,1.1097.0548,1.668-.2638,3.3575-.1198,5.0108.1552,1.783.5047,3.5933,1.0925,5.2791.4005,1.1487,1.46,1.2707,2.5854.554,2.0172-1.2847,3.0007-3.0017,2.5398-5.4089-.2716-1.4184-.6483-2.8184-.8755-4.243-.1439-.9025-.2904-1.8834-.0735-2.7371.147-.5786.9231-.9973,1.4178-1.4875.3583.5128.9388.9866,1.0369,1.5451.4596,2.6169.8036,5.2549,1.154,7.89.214,1.6097.8283,2.9509,2.5203,3.3492.6567.1546,1.6702.1044,2.0603-.2986.3692-.3815.3236-1.4056.1268-2.0442-.4236-1.3744-1.2757-2.6391-1.559-4.0288-.3738-1.8338-.4609-3.7441-.4688-5.6223-.0021-.5071.7282-1.0173,1.1223-1.526.3061.4843.7158.9324.9001,1.4594.7605,2.1749,1.3621,4.4087,2.1918,6.5552,1.1619,3.0057.7132,5.7857-.8569,8.4738-.7233,1.2382-1.6096,2.3088-3.2336,2.2503-1.6083-.058-2.6945-.9023-3.3685-2.3365-.14-.2979-.3486-.5635-.6433-1.0307Z"/>
    <path class="cls-1" d="M237.9481,336.6209c.5086.6229.8326.8894.9906,1.2324,2.8669,6.2212,5.5812,12.5337,6.0948,19.4446.2503,3.3683.0343,6.8361-.4799,10.1806-.7208,4.6875-5.4101,9.0003-10.0095,9.7451-.2553.0414-.5371-.0817-1.1859-.1937.4984-.7134.812-1.2732,1.2294-1.7405,1.733-1.9406,3.519-3.8339,5.2452-5.7804,3.2428-3.6564,4.0799-7.8422,2.4964-12.4469-1.046-3.0417-2.2515-6.0286-3.3856-9.04-.2289.0356-.4579.0712-.6868.1069-.2307,2.9292-.4613,5.8585-.6919,8.7877-.2558.0301-.5116.0602-.7674.0903-.2032-.6325-.6105-1.2757-.5777-1.8957.2966-5.5965.6587-11.1897,1.0422-16.781.0323-.4713.3603-.9223.6861-1.7092Z"/>
    <path class="cls-1" d="M122.856,338.0892c-.4375-.2481-.75-.3984-1.0342-.5907-1.8148-1.2289-3.5945-2.5125-5.4458-3.6832-.9501-.6009-1.1033-1.1897-.5066-2.1226,2.0863-3.2618,4.1054-6.5673,6.2443-9.7937.2788-.4206,1.309-.8347,1.6481-.6435,2.1047,1.1868,4.1333,2.515,6.1404,3.8657.8338.5611.976,1.3757.3903,2.2696-2.1525,3.2853-4.2838,6.5846-6.453,9.8589-.232.3502-.6602.5705-.9835.8396Z"/>
    <path class="cls-1" d="M246.0224,21.5637c-1.006,1.0618-1.9973,2.138-3.0212,3.1824-2.1662,2.2097-4.0294,4.6037-5.0339,7.5937-.787,2.3424-.3341,4.4351,1.4537,6.0243,1.7319,1.5394,3.8094,2.1295,6.1033,1.041.4812-.2283,1.0573-.2565,1.8137-.03-.2577.3209-.4558.7315-.7825.9486-2.5369,1.6861-4.9964,3.5287-7.6796,4.9441-3.0476,1.6076-7.1263-.9233-7.3348-4.3791-.1482-2.4575.1994-4.8107,1.6518-6.9465,3.039-4.4688,6.3197-8.706,10.698-11.9658.5119-.3812,1.1126-.6432,1.6721-.9605.1531.1826.3062.3652.4594.5478Z"/>
    <path class="cls-1" d="M62.3028,120.9511c-.3971.4995-.7865,1.0053-1.1925,1.4975-1.9037,2.308-3.8829,4.5589-5.6805,6.9466-.6333.8411-.9729,1.983-1.1947,3.0404-.9421,4.492,2.878,7.846,7.2607,6.4506.622-.1981,1.2755-.297,1.9144-.4418.0875.1308.175.2616.2625.3924-.2845.3649-.4983.8386-.8651,1.077-2.4638,1.6014-4.8471,3.3851-7.474,4.6624-3.3827,1.6448-7.3017-.8161-7.3877-4.6526-.0436-1.944.3161-4.1601,1.2621-5.8133,2.6823-4.6878,6.142-8.8265,10.3671-12.2571.6839-.5553,1.485-.966,2.232-1.4436l.4958.5417Z"/>
    <path class="cls-1" d="M312.706,113.4042c-.5675.8941-.9931,1.9334-1.7305,2.6535-1.8028,1.7605-3.6679,3.4806-5.6679,5.0074-1.2978.9908-2.6092.4924-3.6418-.7607-1.2896-1.565-2.0985-3.3891-1.4126-5.2992,1.1234-3.1286,2.2533-6.3453,3.9969-9.1402,2.7755-4.4487,6.0184-8.6107,9.1566-12.8247.6937-.9314,1.7757-1.5736,2.6789-2.3489l.6122.5588c-.4212.6713-.8178,1.3595-1.2676,2.011-3.2126,4.6536-6.4948,9.2608-9.6145,13.9756-.7729,1.1682-1.1818,2.6464-1.4698,4.0416-.1868.9049-.033,1.9837.2883,2.8683.6721,1.8502,2.4137,2.3484,4.0458,1.259.7653-.5108,1.4321-1.1667,2.1708-1.7206.4115-.3085.8788-.5427,1.3209-.8103.1781.1765.3562.3531.5342.5296Z"/>
    <path class="cls-1" d="M141.1256,146.7826c-.6694,1.0172-1.2335,2.1276-2.0322,3.0305-1.2986,1.4682-2.6826,2.8779-4.1533,4.1728-2.4173,2.1285-5.4404,1.1969-5.7014-2.0277-.212-2.6189.0887-5.5115,1.0293-7.9479,2.7957-7.2417,7.8098-13.0453,13.1226-18.5758.3987-.4151.9711-.6634,1.4627-.9893.1315.1233.2629.2466.3944.3699-.3904.5578-.7488,1.1415-1.1763,1.6693-3.5593,4.3949-7.7063,8.3845-9.9645,13.6909-.7528,1.769-1.2224,3.7719-1.2741,5.6827-.0304,1.1228.7836,2.5101,1.6373,3.354,1.0732,1.0608,2.274.0404,3.2732-.6123,1.024-.6689,1.9752-1.4493,2.9582-2.1809.1414.1212.2827.2425.4241.3637Z"/>
    <path class="cls-1" d="M58.8668,223.5223c-.7516-.6004-1.3569-1.1184-1.997-1.5891q-2.3221-1.7077-.7572-4.2171c.6098-.9787,1.2632-1.9351,1.8029-2.9515.6512-1.2262,1.4341-1.523,2.6318-.7088,3.0189,2.0524,3.974,1.3103,1.3389,5.1743-.6817.9996-1.2548,2.0729-1.9228,3.0826-.27.4081-.6607.7364-1.0966,1.2096Z"/>
    <path class="cls-1" d="M164.9271,384.8364c.9329,2.5124-3.3458,6.5742-7.0967,6.893-.1626-2.5758,2.1354-4.8293,7.0967-6.893Z"/>
    <path class="cls-1" d="M216.377,346.038c-.0006,1.9257-.6993,3.204-1.7624,4.0839-1.3566,1.1229-2.9415,1.9832-4.4833,2.8592-.3517.1998-.93.0007-1.4041-.0147.0799-.4265.0701-.8974.2552-1.2719.8106-1.6405,1.9826-2.8854,3.7407-3.6088,1.1718-.4822,2.2315-1.2368,3.6538-2.0477Z"/>
    <path class="cls-1" d="M274.3292,382.3816c.4671-3.0558,4.1751-6.1895,7.4655-6.4168.1335,2.6148-4.2567,6.4581-7.4655,6.4168Z"/>
    <path class="cls-1" d="M188.348,377.9675c-1.3289,1.3191-2.3264,2.3091-3.3238,3.2992-.5486-.5733-1.4088-1.0702-1.5723-1.7378-.2427-.9908,1.925-3.3196,2.7274-3.0752.6468.1969,1.172.7929,2.1688,1.5138Z"/>
  </g>
</svg>