<?xml version="1.0" encoding="UTF-8"?>
<svg id="Ibrahim" xmlns="http://www.w3.org/2000/svg" viewBox="0 0 299.1763 293.7299">
  <defs>
    <style>
      

      @import url('../../CSS/SvgStyling.css');
      
    </style>
  </defs>
  
  <g class="content">

    <rect id="bg" class="bg" width="299.1763" height="293.7299"/>

    <path class="cls-1" d="M66.9503,41.6419c.3508.7026.7775,1.3781,1.0402,2.1123,1.6977,4.7437,3.4275,9.4776,5.0173,14.2578,2.3179,6.9691,4.6088,13.9515,6.1629,21.1439.3597,1.6649.7374,3.3441.4317,5.1178-1.0397.2728-1.7176-.3332-2.2646-.9359-1.2588-1.3871-2.4229-2.8605-3.6142-4.3081-.3314-.4027-.6235-.8377-.975-1.3139-.373,1.6911.9731,18.3479,2.9146,38.3003,1.236,12.7025,2.2785,25.4238,3.4167,38.2364.2024-.0487.4303-.0378.5627-.1449,7.5214-6.086,14.7777-12.4466,20.7373-20.1394.5198-.671.9969-1.3749,1.5923-2.1999-.5623-.2424-.9865-.4085-1.3964-.6048-1.7857-.8549-3.6616-1.5707-5.3193-2.6278-1.2344-.7871-2.3335-1.9063-3.2276-3.0796-1.5319-2.0101-1.7472-4.3622-.9864-6.7419,1.2277-3.8402,3.1868-7.2822,6.14-10.0528.9084-.8522,2.099-1.5001,3.2721-1.9511,1.7214-.6619,3.2094-.1757,4.2366,1.3492.7076,1.0503,1.2929,2.2437,1.6527,3.4562,1.2042,4.0591,1.59,8.2019.8714,12.4099-.0696.4074-.0934.8226-.1451,1.2946,2.5551.8413,5.2243,1.0021,7.5499,2.119.087,1.8087-.8541,4.6991-2.0337,6.3212-2.8179.063-5.5535-.7673-8.3457-1.2987-.2021.2843-.3813.4828-.5007.7124-3.5147,6.7585-8.4797,12.3763-13.9773,17.5414-3.0083,2.8264-6.1831,5.4784-9.3334,8.1494-.7302.6191-.984,1.1788-.9147,2.1659.6303,8.9883,1.1817,17.9821,1.759,26.9741.0368.5728.0971,1.1441.1715,2.0056.6655-.4689,1.1311-.7874,1.5868-1.1196,7.8911-5.7525,15.742-11.5611,23.6827-17.2442,6.9111-4.9463,14.2077-9.2533,22.1271-12.4109,2.3873-.9518,4.8598-1.69,7.2935-2.5254.4463-.1532.8936-.3037,1.4751-.5011-.261-.5015-.4524-.9268-.6926-1.3225-3.3526-5.5215-4.4279-11.4902-3.9082-17.9016.9368-11.5574,5.7351-21.4406,12.8231-30.3538,1.2884-1.6201,2.9117-2.9956,4.4898-4.3573,1.3943-1.2032,3.0828-1.9239,4.8861-2.3589,1.9067-.46,3.5163-.052,4.7069,1.5679.6339.8625,1.2991,1.7225,1.7862,2.6681.932,1.8092,1.8107,3.652,2.5962,5.5291,1.3316,3.1819,2.8472,6.2438,5.0662,8.9188,3.6644,4.4176,8.3911,6.575,14.0966,6.5146,1.4875-.0157,2.9698-.4049,4.457-.6042.7695-.1031,1.04-.6158,1.2292-1.2864,1.374-4.8708,3.3014-9.5373,5.5935-14.0292,2.8026-5.4923,5.7138-10.9361,8.7837-16.2828,2.2253-3.8757,4.1848-7.8528,5.836-11.995.3968-.9954.8333-1.9764,1.2902-2.9457.1432-.3039.4132-.5481.7868-1.0266.0991.5098.1679.7502.1903.995.727,7.959,1.5657,15.91,2.1358,23.8802.4568,6.3869-.9415,12.4778-3.8026,18.2147-1.8533,3.7162-4.264,7.0674-6.8259,10.3174-.3867.4905-.7517.9982-1.2762,1.6971.8296.2324,1.4281.4068,2.0302.5676,4.1511,1.109,8.252,2.3669,12.1468,4.2095,3.775,1.7859,7.1183,4.1898,9.9922,7.2171,4.317,4.5473,6.2499,9.8911,5.3944,16.1893-.686,5.0501-2.3187,9.6981-5.6242,13.641-2.3053,2.7499-5.2054,4.5213-8.8957,4.463-1.472-.0232-3.0105-.3056-4.3923-.8136-6.4376-2.3665-12.0911-5.8614-16.6383-11.1617-5.2432-6.1116-8.6237-13.0094-9.963-20.9302-.0794-.4697-.229-.9276-.3695-1.4846-.8946,0-1.7407-.003-2.5868.0009-.7182.0033-1.1047-.3441-1.1145-1.0657-.0115-.8541-.0027-1.7084-.0027-2.6505-.3161-.0736-.6168-.2233-.9022-.1985-8.0041.6975-13.7423-2.8542-17.7517-9.5349-.9892-1.6483-1.7143-3.455-2.5599-5.1894-1.0571-2.1681-2.0862-4.3505-3.1845-6.4975-.3877-.7579-.8999-1.4646-1.4316-2.1341-1.2527-1.5771-2.0722-1.8246-3.9071-.9311-1.1924.5807-2.3558,1.3105-3.358,2.1753-3.4739,2.9977-6.4618,6.4448-8.8305,10.3785-3.0101,4.9989-2.8171,7.8541,1.0247,12.2446,5.5465,6.3387,12.2396,11.0483,20.3219,13.6495,2.6035.8379,5.2121,1.6604,7.8191,2.4877,1.8062.5732,3.4857,1.3948,4.972,2.5783,1.0938.8709,1.8212,1.9527,1.8714,3.4094.1509,4.3794-.5294,8.6579-1.5654,12.8917-.0859.3511-.2915.6729-.5129,1.1679-.6848-.1832-1.3688-.2801-1.9793-.5458-1.819-.7915-3.631-1.6054-5.4067-2.4889-7.8131-3.8869-16.0712-4.826-24.6073-3.6037-8.5794,1.2286-16.3323,4.7509-23.8135,8.9441-8.1243,4.5536-15.5643,10.0948-22.8659,15.8394-4.0481,3.1848-8.1324,6.3245-12.2391,9.4333-.7331.5549-.9742,1.1361-.9646,2.0212.0689,6.327.092,12.6545.1326,18.9819.0003.049.0416.0977.1102.2492.2663-.0927.5675-.1458.8146-.2911,6.2925-3.6993,12.5347-7.4821,18.2379-12.0639,1.4552-1.169,2.791-2.5119,4.0462-3.8976,1.3844-1.5283,2.2008-3.373,2.7363-5.3935.9162-3.4568,2.5699-6.5965,4.7292-9.438,2.1577-2.8395,4.3912-3.1067,7.1398-.8379,3.0736,2.5372,4.9731,5.7566,5.0737,9.8334.0381,1.544.0033,3.116-.2489,4.6337-.2637,1.5868-.9237,2.0032-2.5467,2.147-4.1312.366-7.9964-.5018-11.6172-2.5037-.4613-.255-.9245-.5065-1.5031-.8233-.1465.6568-.2766,1.2093-.3925,1.7647-.7912,3.7919-2.4945,7.0254-5.5397,9.5369-4.3604,3.5961-9.0948,6.6406-13.8766,9.6201-2.1847,1.3613-4.3965,2.6811-6.6263,3.9672-.7221.4165-1.0261.9021-1.1114,1.7587-.6775,6.8007-2.0205,13.4643-4.4802,19.8608-.5922,1.54-1.3999,3.0054-2.2038,4.4523-.415.747-1.0319,1.3894-2.0933,1.3062-.6599-.4568-.6115-1.2052-.6059-1.8694.0186-2.1982.1103-4.3957.1636-6.5937.0975-4.0199.189-8.04.2768-12.0602.0046-.2105-.0482-.4223-.0844-.7149-.2212.0243-.454-.0169-.6038.076-4.4749,2.7741-9.4972,4.1999-14.4361,5.8067-3.9738,1.2928-7.9935,2.4471-12.0098,3.6043-.8133.2343-1.71.6368-2.8062-.0484,1.0642-1.19,2.5068-1.4056,3.6422-2.1011,1.2327-.7551,2.5439-1.3818,3.8185-2.069,1.2274-.6617,2.4519-1.3289,3.6775-1.994,1.2727-.6907,2.5443-1.3836,3.8181-2.0723,1.2266-.6633,2.4559-1.3214,3.6828-1.9838,1.227-.6625,2.4528-1.327,3.6787-1.9915,1.273-.6901,2.547-1.3786,3.8178-2.0728,1.2212-.667,2.4388-1.3405,3.8336-2.1077-.2236-6.1112-.4484-12.2577-.6744-18.4362-.8305-.113-1.3043.3869-1.8328.6863-3.4677,1.9645-7.0491,3.7011-10.9689,4.4999-7.3185,1.4914-14.1305.4458-19.8589-4.7145-3.9044-3.5171-6.1761-8.0099-7.3715-13.1116-2.0649-8.8122-.131-16.9034,4.2785-24.5636,3.695-6.4189,8.1892-12.2029,13.9012-16.9673,1.3527-1.1283,2.8377-2.1095,4.3244-3.0606.6921-.4427,1.5136-.851,2.6019-.1776-.2777.5473-.461,1.1539-.8351,1.601-1.2383,1.48-2.5149,2.9309-3.8319,4.3416-3.849,4.1229-7.5683,8.3525-10.6951,13.0612-2.9038,4.373-5.2264,9.0229-5.9157,14.2916-.2618,2.0008-.3262,4.0931-.053,6.085.6509,4.7449,3.5568,7.7807,7.931,9.4974,2.8767,1.129,5.8651,1.1662,8.8819.8305,3.8888-.4327,7.5232-1.7049,10.9939-3.45,2.2027-1.1075,4.3374-2.3496,6.5221-3.4939.7611-.3986,1.0518-.9035.9847-1.7918-.3551-4.7046-.6347-9.4149-.9676-14.1213-.314-4.4398-.6601-8.8773-.9967-13.3155-.0309-.4075-.0952-.8124-.1668-1.4094-5.4952,2.8149-10.6607,5.9379-16.2186,8.2472-.0933-.1221-.1865-.2441-.2798-.3661.4112-.4276.7766-.9144,1.241-1.2732,2.8862-2.2298,5.781-4.4489,8.7006-6.6348,1.7606-1.3181,3.5525-2.5967,5.3681-3.8378.7142-.4881.912-1.0292.835-1.8877-.8525-9.5072-1.6492-19.0194-2.4858-28.5281-.907-10.3089-1.8672-20.6133-2.7537-30.9239-.7258-8.442-1.4094-16.8879-2.0508-25.3368-.4221-5.5603-.7376-11.1286-1.0968-16.6936-.0555-.8598-.1055-1.6918-.7374-2.3997-.4638-.5196-.46-1.1623-.1412-1.8081.4744-.9611.8858-1.9538,1.3716-2.9088,1.629-3.2023,3.2731-6.3969,4.9268-9.5865.289-.5574.6521-1.0764.981-1.6131.1435.0043.2871.0087.4306.013ZM192.5963,123.4563c.5714-.0439.7828-.026.9739-.0799,2.8508-.8045,5.598-1.8477,8.1147-3.4477,4.7946-3.0482,7.0969-7.2879,6.4041-13.042-.3718-3.0878-.6241-6.1899-.9465-9.2839-.0337-.3238-.1777-.6361-.3702-1.2947-5.362,8.8725-10.4467,17.4829-14.176,27.1482ZM196.1701,145.3357c.5156.9875.8204,1.6507,1.1933,2.2732,3.3462,5.5862,8.1838,9.5654,13.7785,12.7164,3.215,1.8108,6.6312,3.0076,10.3423,3.232.6606.0399,1.3278-.0298,2.1525-.0535-1.2368-2.8976-2.9706-5.1368-5.1408-6.9867-5.7422-4.8948-12.2616-8.4003-19.5027-10.5427-.7991-.2365-1.6281-.3717-2.8231-.6387ZM104.3669,124.6272c.4602-2.118.4516-4.025.1164-5.9377-.5984-3.4154-2.5308-4.6169-5.8933-3.6689-.2059.058-.4154.1088-.6139.1866-1.4391.5636-2.4593,1.4744-2.6632,3.1116-.2092,1.6805.4437,2.9034,1.8602,3.7802,2.1729,1.3451,4.5605,2.0489,7.1937,2.5282ZM120.7752,203.6627c-.4909-1.2953-.7413-2.3459-1.2591-3.2421-1.1163-1.932-4.3775-2.3543-6.0601-.8778-.8198.7193-.9211,1.8611-.0984,2.2851,2.1887,1.1282,4.5111,1.8104,7.4176,1.8348Z"/>
    <path class="cls-1" d="M204.411,189.9614c.6348.8048,1.1482,1.3307,1.5136,1.9447.7948,1.3357,1.4712,2.7422,2.2718,4.0742,3.0127,5.0126,7.6189,6.9981,13.2874,6.8054,1.3822-.047,2.7861-.2635,4.1254-.6119,4.5677-1.1883,7.8822-3.9903,10.0759-8.1401,1.5288-2.8919,2.9765-5.829,4.5858-8.6751.647-1.1443,1.5254-2.2126,2.4958-3.0997.628-.5741,1.5842-.8851,2.4463-1.0836,1.0883-.2506,1.9015.2151,2.3349,1.2525.3045.7288.5446,1.5383.5719,2.3201.1534,4.3999.1387,8.7993-.6866,13.1479-.1688.8897-.4328,1.7744-.771,2.6138-.1906.473-.5625.9205-.9594,1.2517-.5899.4921-1.075.3621-1.4271-.33-.2163-.4251-.3313-.9034-.4751-1.3631-.1918-.6134-.3221-1.2499-.5587-1.8448-.673-1.6917-1.769-1.8938-3.0374-.5583-.4035.4248-.7729.9018-1.0652,1.4084-.7496,1.2991-1.4356,2.6346-2.1679,3.944-1.4117,2.5241-2.671,5.1538-4.2934,7.5355-3.2152,4.7199-7.8195,7.1966-13.5111,7.6542-.5253.0422-1.049.1039-1.6452.1637,0,.639-.0155,1.1642.0024,1.6884.2346,6.8725-.8465,13.5767-2.6333,20.1817-1.2691,4.6914-4.1733,8.4235-7.2961,11.9903-4.302,4.9138-9.303,9.0488-14.6585,12.7518-7.9121,5.4706-16.1748,10.3329-25.0338,14.1348-5.5934,2.4004-11.3478,4.2635-17.4268,4.8846-5.495.5614-10.9531.2096-16.2197-1.5523-7.8263-2.6181-12.701-8.1106-15.0304-15.9396-1.0452-3.5128-1.5363-7.1262-1.6181-10.7814-.2311-10.3287.9607-20.445,4.7593-30.1372.7227-1.844,1.5407-3.6589,2.445-5.4205.5067-.9871,1.2324-1.8775,1.9506-2.7351.4843-.5783,1.1512-.9519,2.1974-.6642-.0699.6187-.0644,1.2427-.2181,1.8247-1.15,4.3527-2.4025,8.6794-3.4854,13.0484-1.4037,5.6635-1.9646,11.4049-1.174,17.2303.595,4.3841,1.9471,8.4609,4.8429,11.8998,3.2986,3.9173,7.6524,5.951,12.5828,6.884,8.3421,1.5785,16.4378.4944,24.3702-2.3145,6.9668-2.467,13.4422-5.9117,19.6286-9.9092,6.9427-4.4862,13.7303-9.1997,20.0693-14.5175,1.802-1.5117,3.4343-3.2303,5.0991-4.8991,1.3403-1.3434,1.731-2.968,1.4826-4.8699-.4914-3.7626-1.5713-7.3613-3.1531-10.7655-2.3028-4.9559-4.8553-9.7956-7.2749-14.6978-.2237-.4532-.432-1.031-.3506-1.4995.7338-4.2231,1.5242-8.4365,2.3289-12.6468.084-.4396.3674-.8411.703-1.5782Z"/>
    <path class="cls-1" d="M186.4807,13.7805c.2161.1629.5005.3205.7128.5461,2.2047,2.3424,4.3935,4.6997,6.5953,7.0449,2.0944,2.2308,4.2217,4.4384,5.7441,7.1243,3.6196,6.3856,4.9098,13.1159,2.8061,20.2815-.4812,1.6392-1.1942,3.2144-1.8565,4.7957-2.0897,4.9897-5.997,7.3749-11.2656,7.7334-2.087.142-4.1811.1773-6.269.3086-.635.0399-1.2735.193-1.8862.3756-.7156.2133-1.133.7293-.7931,1.4729,1.4885,3.2562,3.439,6.1234,7.1209,7.1497,1.7364.484,3.522.1795,5.2333-.3797,2.8591-.9344,5.2537-2.6421,7.5285-4.5478.7272-.6092,1.4078-1.3082,2.4581-1.4836.507.5842.255,1.1547.0836,1.6894-.5886,1.8364-1.6398,3.4299-3.1181,4.6065-4.3623,3.472-9.3058,5.8869-14.8613,6.4352-4.4863.4428-8.042-1.7896-10.7822-5.2949-.2886-.3691-.5281-.7766-.8661-1.2787-.7568.9319-.7634,1.97-.9279,2.9323-.4455,2.6069-3.2243,5.014-5.985,5.1241-2.7636.1102-4.881-1.6018-5.6149-4.5514-.1508-.6063-.2694-1.2206-.4537-2.0642-.76.3306-1.3441.5457-1.8922.83-2.3804,1.2345-4.6936,2.6157-7.1364,3.7086-4.367,1.9538-8.8759,3.5414-13.6673,4.0867-3.8465.4378-7.6071.0933-11.1487-1.638-1.7643-.8626-3.2435-2.0783-4.4783-3.6013-.8108-1.0001-1.6059-2.0152-2.4615-2.9759-.8768-.9846-1.2282-1.058-2.3571-.3595-2.1475,1.3289-3.8601,3.0827-4.7781,5.4811-.709,1.8521-1.327,3.739-1.9946,5.6071-.2164.6055-.4165,1.2231-.7018,1.7966-1.1351,2.2819-3.6411,2.7789-5.4554.959-.805-.8075-1.4567-1.8789-1.8671-2.9496-2.0486-5.344-2.509-10.8298-1.1661-16.4293.0853-.3556.1451-.7174.2425-1.2046-.3267-.0346-.5736-.0486-.8159-.09-.242-.0414-.4793-.1102-.8104-.4827.8229-.4344,1.6435-.8733,2.4693-1.3023,2.2351-1.1612,4.5075-2.2561,6.6997-3.4932,2.496-1.4085,6.5865-4.8144,8.0073-6.9506-3.0412-6.3895-7.7655-11.4313-12.5607-16.4224-2.3411-2.4367-4.698-4.8622-6.9448-7.3844-1.8918-2.1237-3.6012-4.3958-4.6817-7.0807-.1837-.4564-.625-.849-1.0283-1.1691-.9189-.7294-1.3601-1.6414-1.2519-2.8033.1119-1.2022-.0525-2.4736.8346-3.5974,1.4606.2972,2.3535,1.4353,3.4231,2.2623,1.1018.8519,2.1758,1.758,3.1522,2.7486.9499.9638,2.262,1.5769,3.0201,2.8642-1.1838.8377-2.1644-.187-3.3563-.0063.5744.7321,1.052,1.4206,1.609,2.0375,3.2716,3.6238,6.6195,7.1804,9.8255,10.8609,2.2155,2.5433,4.3024,5.2054,6.3364,7.8978,1.6296,2.1571,2.4824,4.6164,2.193,7.3831-.0433.4135-.006.8355-.006,1.3258,1.4581-.9198,2.3478-3.0746,2.1064-5.0827-.1983-1.6498-.4412-3.2966-.7338-4.9323-1.3877-7.7567-2.8069-15.5077-4.1967-23.264-.3213-1.793-.6733-3.594-.2096-5.4234.1589-.6269.2738-1.275,1.1387-1.4709.924.5311.9971,1.5586,1.2122,2.4526.9025,3.7524,1.7786,7.5118,2.6084,11.281,1.2218,5.5497,2.4636,11.0965,3.5747,16.6688,1.8069,9.062,7.6993,13.2147,15.3185,14.5646,4.9757.8815,9.9422.593,14.9122.0075,4.9639-.5848,9.8636-1.4866,14.6303-3.0262.4546-.1468.9006-.3199,1.4425-.5136-.0209-.4454.0081-.8675-.0668-1.2703-1.8629-10.0152-3.7121-20.033-5.6263-30.0384-.4693-2.4531.4814-4.4523,1.452-6.491.1293-.0174.2587-.0349.388-.0523.2302.4991.545.9769.6768,1.5008.7715,3.0658,1.6568,6.1144,2.213,9.2208,1.4646,8.1791,2.7795,16.385,4.1555,24.58.0613.365.1374.7274.2263,1.1945.4054-.0821.7652-.1184,1.1008-.2285,4.04-1.3244,7.9283-2.9887,11.5676-5.2038.5039-.3067.979-.6637,1.4952-.9467,1.7201-.9432,2.3753-2.2902,1.9386-4.2679-.7162-3.2438-1.2653-6.5242-1.9583-9.7734-.7938-3.7216-1.6442-7.4316-2.5153-11.136-.5452-2.3183.4047-4.1834,1.6583-5.9813.0571-.082.1661-.1355.2611-.1812.0937-.0451.2004-.0633.3742-.115ZM170.1365,57.6724c-.3949.0274-.5595.0153-.7111.0541-.3632.093-.7217.2053-1.0795.318-5.0764,1.5978-10.2368,2.8292-15.5292,3.4371-5.2409.6019-10.4849.7768-15.7199-.1133-7.3292-1.2462-12.767-4.8268-15.146-12.2087-.0522-.1621-.1842-.2985-.3112-.4974-.9038,2.0212-1.6812,3.9611-2.6194,5.8198-2.7757,5.499-7.1926,8.8162-13.3156,9.7958-1.0484.1678-2.0914.3699-3.171.5622-1.1239,4.5713-1.0707,9.016.4265,13.3897.32.9347.9283,1.8268,1.5882,2.5763,1.0379,1.179,2.429,1.2138,3.5375.098.6233-.6274,1.135-1.432,1.4873-2.2474.6581-1.5231,1.1331-3.124,1.7392-4.671,1.0353-2.643,2.4844-5.0074,4.9125-6.6065,2.1562-1.4199,3.5281-1.1235,5.1294.8546,1.0081,1.2453,2.032,2.5179,3.242,3.5526,4.0692,3.4798,8.9027,4.2643,14.0517,3.6273,5.0117-.62,9.6696-2.3894,14.169-4.5942,2.6001-1.274,5.1398-2.6707,7.7218-3.9823.979-.4973,1.362-.2826,1.5312.7912.1251.7939.1421,1.6075.3031,2.3927.382,1.8627,1.5349,2.9637,3.3529,3.2085,1.7877.2408,3.4067-.1956,4.8137-1.3504.8886-.7293,1.3697-1.6322,1.221-2.8133-.1139-.9043-.1968-1.8129-.3285-2.7145-.4175-2.8573-.8515-5.7122-1.2957-8.6791ZM178.9228,70.7811c-.2896-.7375-.4205-1.1798-.6281-1.5825-1.8997-3.6835-1.0852-7.0651,1.1593-10.2664,1.3771-1.9641,3.2333-2.8247,5.6889-2.5354,1.6364.1928,3.3341.3036,4.9562.0884,3.3799-.4484,6.4446-1.6676,8.5002-4.6191,1.4717-2.1131,2.2896-4.4663,2.4839-7.0396.3692-4.891-1.1783-9.1429-4.091-13.0332-2.6803-3.5798-5.856-6.6909-8.9301-9.9036-.037-.0387-.1705.0149-.3329.0342.0835.4727.1587.9427.2502,1.4095.8759,4.4686,1.7921,8.9298,2.6102,13.4089.2578,1.4114.4252,2.881.338,4.3059-.2531,4.1376-2.2495,7.2888-5.7423,9.5241-3.132,2.0045-6.5087,3.5016-9.9339,4.907-.6344.2603-1.2628.535-2.0672.8766.3699,1.8485.6032,3.6573,1.11,5.3859.6454,2.2012,1.4518,4.3618,2.3107,6.4908.3869.9591,1.0321,1.8331,2.318,2.5485Z"/>
    <path class="cls-1" d="M255.5193,45.9731c.2749.5099.5928,1.0015.8183,1.5324,4.6551,10.96,9.0755,22.01,12.6481,33.3793.3682,1.1718.6079,2.3901.8153,3.6025.0618.3618-.0751.9557-.3291,1.1183-.2617.1675-.8995.0815-1.1604-.1416-1.0934-.9354-2.1623-1.9131-3.1363-2.9709-1.2706-1.3798-2.4493-2.8446-3.6523-4.2856-.2712-.3249-.4792-.7025-.7162-1.0559l-.3766.2234c0,.4414-.0395.8869.0058,1.3236,1.156,11.149,2.3412,22.2949,3.4776,33.4459.8429,8.2703,1.6673,16.5429,2.4169,24.822.4256,4.7001.7472,9.4119,1.0028,14.1245.3862,7.1236.6287,14.255,1.014,21.3786.5842,10.8028-1.7855,21.1008-5.2348,31.2165-.4109,1.2051-1.0075,2.3747-1.6905,3.4515-.6841,1.0785-1.5644.9381-1.9325-.2936-.2875-.9622-.454-1.9995-.4505-3.0027.0123-3.4862.2257-6.9736.172-10.4576-.0933-6.0577-.1766-12.1223-.5386-18.1676-.6092-10.1709-1.3936-20.3319-2.1814-30.4912-.5058-6.5233-1.1203-13.0387-1.7395-19.5526-.6395-6.7269-1.3714-13.4451-2.0118-20.1719-.6352-6.6733-1.252-13.3489-1.7928-20.0303-.5149-6.3612-.9021-12.7328-1.4048-19.0951-.0501-.6349-.3844-1.349-.8077-1.8333-1.1627-1.33-1.3828-2.6162-.569-4.2587,1.8326-3.6987,3.5007-7.4786,5.282-11.2033.4506-.9424,1.0747-1.802,1.6191-2.6996l.4529.093Z"/>
    <path class="cls-1" d="M169.3472,237.4081c-2.6188,4.642-5.1147,9.0662-7.7164,13.6781-5.168-2.976-10.2473-5.9008-15.5237-8.9391,2.4694-4.5262,4.8915-8.9658,7.4117-13.5852-4.1908-2.462-8.32-4.8877-12.5678-7.3831,2.4913-4.5655,4.9169-9.0105,7.4172-13.5927,5.314,3.1231,10.4703,6.1534,15.7585,9.2613-2.4677,4.4103-4.8648,8.6946-7.3775,13.1853,4.1824,2.4486,8.3135,4.8671,12.598,7.3754Z"/>
    <path class="cls-1" d="M31.5697,90.0271c.6502.4622.7213,1.0947.5646,1.7393-.3032,1.2462-.5384,2.5319-1.0304,3.7054-3.2384,7.7257-5.7306,15.7068-8.1822,23.7007-1.1621,3.7892-2.3402,7.5843-3.2423,11.4396-1.0063,4.3007-1.371,8.6871-.5595,13.0923.3438,1.8661.9722,3.6319,2.0647,5.1934,1.393,1.991,3.3145,3.0099,5.7699,2.8751,1.5884-.0872,2.8948-.8191,3.8649-2.0506,1.2593-1.5987,2.4418-3.2579,3.6549-4.8928.0955-.1288.1616-.2797.2595-.4063.3514-.4543.6212-1.1227,1.3463-.9279.7911.2125.996.9111,1.0223,1.6471.0153.427.0376.8713-.056,1.2821-1.0937,4.8019-2.7486,9.3717-5.8567,13.2747-2.1147,2.6554-4.8049,4.2618-8.3366,4.0362-3.2575-.208-5.6466-1.683-7.1389-4.681-2.9418-5.9099-3.8086-12.122-2.926-18.6109,1.183-8.6978,3.6196-17.0854,6.4529-25.3615,2.1721-6.3445,4.7623-12.528,7.6459-18.5819.8268-1.7358,1.8527-3.3812,2.8544-5.0272.4078-.6701.941-1.3025,1.8283-1.4457Z"/>
    <path class="cls-1" d="M45.8647,91.8422c-2.5204-1.1739-3.7288-.814-4.9095,1.2286-.3004.5196-.6945.9851-1.1223,1.5825-1.1641-2.7764.9683-7.2385,4.3101-9.1675-1.8425-3.8948-3.6796-7.785-6.7882-10.8521-.2368.077-.3936.0833-.4167.1421-.5809,1.4777-.8324,1.6707-2.4029.7886-1.7715-.995-3.4644-2.1307-5.1819-3.2204-1.0153-.6442-1.3948-1.5992-1.2135-2.7667.172-1.1078.2726-2.2455.6117-3.3038.4004-1.2496,1.0688-1.5501,2.3749-1.3026,2.8614.5421,5.0998,2.1824,7.1019,4.175,2.3387,2.3275,4.1666,5.0331,5.6713,7.9619.2644.5147.5381,1.0245.9928,1.8889.0786-.7774.1466-1.171.1537-1.5656.05-2.7888.0668-5.5782.1359-8.3665.0522-2.1048.4257-4.1593,1.2291-6.1147,1.2335-3.0025,3.4824-3.7949,6.3535-2.258.3301.1767.6475.3801.9584.5896,2.5351,1.7077,3.0687,3.4762,1.9046,6.3448-.0737.1815-.254.3197-.5261.6495-.4582-.4253-.8951-.7708-1.2586-1.1811-.6899-.7787-1.4412-1.418-2.4985-1.6532-2.1367-.4752-3.6232.5236-3.8821,2.6886-.1145.9573-.1645,1.9234-.2166,2.8869-.2516,4.6579-.4949,9.3162-.7371,13.9746-.011.2118.016.4255.027.6777,2.3718,1.2033,4.3334,2.9469,6.2073,4.7903,1.6378,1.6111,1.5719,4.4738-.1442,5.9768-.3265.286-.8721.3378-1.327.4586-2.6889.7143-5.4015,1.3487-8.0621,2.1552-1.1628.3525-2.2659.975-3.3162,1.6075-1.5278.92-1.7205,1.4667-1.3696,3.2085.7726,3.8348,1.5974,7.6593,2.3385,11.5001,1.6243,8.4186,3.2327,16.8404,4.7917,25.2712.3103,1.6781.4171,3.3994.5222,5.1067.0363.5894-.2181,1.1966-.3612,1.9017-.9392-.4703-.9471-1.1953-1.0768-1.859-1.0076-5.1542-1.9619-10.3196-3.0403-15.459-1.3094-6.2405-2.7441-12.4547-4.0815-18.6895-.438-2.042-.8011-4.1043-1.0946-6.1721-.8361-5.8895,2.5282-11.2911,8.1738-13.2164.2957-.1009.5901-.2057,1.1689-.4076Z"/>
    <path class="cls-1" d="M253.4767,238.1721c-.0897-.1758-.1116-.3001-.1846-.3503-3.1858-2.1867-3.7583-5.4209-3.5673-8.9444.0433-.7993.1643-1.603.3377-2.3851.8678-3.9113,3.1896-6.4489,7.1106-7.4829,1.8328-.4833,3.685-.709,5.5718-.56,3.0537.2412,4.669,1.9744,4.6405,5.0412-.0084.8997-.1339,1.8263-.3824,2.6898-.4735,1.6459-1.4381,2.3177-3.3976,2.5154-.1258-.3075-.2854-.6356-.3964-.9794-.5533-1.7138-1.7398-2.7184-3.5082-2.8519-1.1553-.0872-2.3652-.0587-3.4891.193-1.5263.3418-2.1924,1.3938-2.1749,2.9672.0187,1.6799.6531,3.1015,2.1866,3.8495,2.9255,1.4272,5.9704,2.0951,9.1225.6943,1.7128-.7611,3.3892-1.6043,5.0811-2.4122.5317-.2539,1.0435-.5641,1.5969-.7531.3746-.128.9302-.2568,1.1752-.0754.2184.1618.2575.795.1407,1.1409-.5815,1.7231-1.2465,3.4179-1.8699,5.1272-.2781.7625-.9558.9439-1.6129,1.1849-2.664.9766-5.3472,1.9064-7.9792,2.9633-3.3392,1.341-6.5398,2.9708-9.459,5.0976-.9077.6612-1.7273,1.4425-2.6249,2.1187-.2723.2052-.8216.436-.9791.3138-.2779-.2156-.4817-.6901-.4916-1.0621-.0755-2.8432,1.19-5.051,3.3693-6.782.5734-.4553,1.1974-.847,1.784-1.2581Z"/>
    <path class="cls-1" d="M223.3216,232.3132c5.4156,3.1624,10.6687,6.23,16.1033,9.4035-2.5837,4.6576-5.1121,9.2155-7.7524,13.9752-5.3898-3.1584-10.6678-6.2513-16.1013-9.4353,2.6107-4.6968,5.1447-9.2557,7.7504-13.9434Z"/>
    <path class="cls-1" d="M221.4985,47.9862c-.6582.9285-1.4382.8822-2.2034.4659-1.5031-.8176-3.0075-1.6409-4.4508-2.5572-.9028-.5732-1.3791-1.4725-1.3353-2.5978.0375-.9632-.0529-1.9404.0773-2.889.28-2.0411,1.5626-2.9698,3.5192-2.406,1.155.3328,2.3632.8616,3.2552,1.6379,1.4026,1.2206,2.6809,2.6337,3.7907,4.1293,1.6936,2.2823,3.1426,4.7308,4.158,7.4153.422,1.1157.9831,2.1788,1.481,3.2658.1185-.0269.237-.0539.3555-.0809.2615-1.7287.4718-3.4669.7955-5.1839.6153-3.2643,1.2139-6.5359,1.9869-9.7644.3314-1.3842.9411-2.7518,1.6729-3.9788,1.1992-2.0108,2.7745-2.4194,4.9773-1.5727,1.6063.6174,2.8102,1.7532,3.8758,3.0474.2234.2713.3959.6772.398,1.0223.0101,1.6784-.2938,3.3045-1.0749,4.8084-.1105.2129-.3818.3423-.6892.6048-.445-.5443-.8354-1.04-1.2459-1.5185-.3835-.447-.7473-.9235-1.1914-1.3034-1.4941-1.2783-2.8912-1.0959-3.8681.5948-.5294.9162-.9892,1.9345-1.1954,2.9638-.6207,3.0973-1.1136,6.2206-1.6333,9.3376-.4318,2.5901-.8219,5.1871-1.2532,7.7772-.0786.4718-.2217.9449-.4129,1.3836-.4183.9602-.9936,1.0471-1.6644.2079-.3956-.495-.7251-1.0735-.9538-1.6649-.5604-1.4488-1.0596-2.922-1.5573-4.3942-1.1174-3.3056-2.7993-6.2447-5.614-8.7505Z"/>
    <path class="cls-1" d="M84.1326,96.7054c.5069-.446,1.0048-.9028,1.5226-1.3358,1.4801-1.2377,3.0022-2.4274,4.4467-3.7049,3.7124-3.2832,4.0982-7.301,2.5184-11.7395-2.1756-6.1123-4.3413-12.2282-6.4948-18.3483-.7221-2.0521-.9726-4.1806-.7827-6.3435.3045-3.4689,1.7399-6.2699,4.8937-8.0113.278-.1535.5468-.3236.9497-.5632-1.1073-.8427-1.1331-1.8998-.7906-3.0309.4654-1.5372.8545-3.1035,1.4237-4.6014.5351-1.4084,1.0844-1.6842,2.327-.9762,1.8992,1.0822,3.696,2.3531,5.4831,3.6187.8398.5947,1.1939,1.5582,1.0602,2.5668-.1394,1.0522-.3773,2.1077-.7181,3.1123-.3678,1.084-1.2581,1.6759-2.336,2.0385-1.8805.6326-3.7499,1.2999-5.6112,1.9869-.7526.2777-1.4994.5954-2.2011.9817-1.8623,1.0252-2.4633,2.1987-1.991,4.2543.4553,1.982,1.0069,3.9513,1.6651,5.8753,1.5447,4.5152,3.2176,8.9866,4.7639,13.5013,1.2759,3.7252,1.5213,7.5551.8259,11.4343-.9667,5.3923-4.6105,8.895-10.0332,9.6563-.2541.0357-.5176.0046-.7768.0046-.0481-.1254-.0963-.2507-.1444-.3761Z"/>
    <path class="cls-1" d="M187.2866,239.742c0-.6639-.0817-1.3401.0164-1.9891.2317-1.5347.6005-3.049.8224-4.5848.8636-5.9763-.594-11.4878-3.4374-16.7065-2.3822-4.3722-5.4859-8.1984-9.0464-11.645-.9811-.9497-1.2807-1.8944-.9488-3.1414.534-2.007,1.06-4.016,1.6487-6.2491.761.3065,1.3392.4283,1.7801.7426.6931.494,1.3669,1.0543,1.9219,1.6963,4.8615,5.6228,8.8181,11.7857,10.54,19.1071,1.5768,6.7042,1.4036,13.4053-.8249,19.9824-.239.7055-.553,1.4033-.9481,2.0318-.2533.4029-.7194.6721-1.0901,1.0012-.1446-.0819-.2891-.1637-.4337-.2456Z"/>
    <path class="cls-1" d="M99.3731,232.4763c.7839.8534.4986,1.6404.308,2.4059-.7893,3.1697-1.6039,6.333-2.3826,9.5052-1.229,5.0066-2.1005,10.0823-2.3518,15.2275-.1086,2.2231.2698,4.4746.4955,6.7062.0574.5674.3167,1.1395.5859,1.6559,1.1186,2.1452,3.5913,2.5188,5.174.6761.7082-.8245,1.1038-1.9334,1.5664-2.9474.3289-.7209.4066-1.6348,1.4351-1.7108.538-.0397.7831.7065.7173,2.0637-.1201,2.4805-.5503,4.9145-1.4823,7.2117-.9812,2.4185-2.8112,3.8842-5.4702,4.1178-1.4976.1316-2.6896-.4532-3.5921-1.7043-1.5767-2.1858-2.3816-4.6578-2.8484-7.268-.757-4.2326-.4719-8.4408.4251-12.6098,1.2281-5.7076,2.5178-11.4021,3.8121-17.0952.4447-1.9563,1.2652-3.7587,2.5647-5.3091.2889-.3446.6774-.6058,1.0431-.9256Z"/>
    <path class="cls-1" d="M242.5693,120.9068c.1129.648.3177,1.2109.2888,1.7615-.1328,2.5251-.5271,5.0166-1.4663,7.3756-.8264,2.0756-2.3886,3.3934-4.5685,3.9252-1.8054.4405-3.2671-.1105-4.3333-1.6546-2.1104-3.0564-2.8717-6.5331-3.1075-10.1685-.2417-3.7281.3003-7.3813,1.0937-11.0011,1.1124-5.0751,2.2898-10.1359,3.4264-15.2057.4173-1.8618,1.1799-3.5573,2.3711-5.0467.3078-.3848.7108-.6936,1.2084-1.1696.5818,1.1452.289,2.0094.0779,2.8676-.9467,3.8479-1.9912,7.6746-2.8232,11.547-1.0469,4.8731-1.9625,9.7856-1.7915,14.8039.0561,1.6451.3063,3.3086.6915,4.91.3491,1.4515,1.152,2.7173,2.8797,2.8362,1.7099.1177,2.8321-.8412,3.5795-2.2625.3709-.7054.6154-1.4799.8869-2.2339.2275-.6315.5104-1.1743,1.5864-1.2846Z"/>
    <path class="cls-1" d="M274.4346,99.0743c.9502.1771,1.3372.8564,1.7472,1.4564,3.1657,4.6318,5.2342,9.7084,6.029,15.2712.4949,3.4638.6589,6.9496.0433,10.414-.2423,1.364-.7199,2.6876-1.112,4.0232-.8653,2.9478-1.429,5.9473-1.3951,9.0254.0116,1.0612.1589,2.1458.4241,3.1733.3752,1.4541,1.2559,2.0521,2.545,1.9628,1.2107-.084,1.8988-.7478,2.1534-2.1983.1195-.6811.0351-1.4008.181-2.0731.0741-.3415.4538-.6168.6954-.922.2216.2631.5822.4977.6429.7938.4593,2.2377.4908,4.4773-.2565,6.6688-.3571,1.0473-.9756,1.9017-2.0467,2.3525-1.4806.6232-2.7683.3209-3.8821-.9901-1.8417-2.1678-2.7305-4.6978-2.803-7.5327-.1054-4.1169.6977-8.0825,1.7658-12.0403,1.813-6.7179,1.101-13.1871-2.4868-19.2178-.7593-1.2763-1.7655-2.4304-2.7898-3.5166-.7879-.8355-1.068-1.6592-.7744-2.7587.3537-1.3245.4908-2.7209,1.3193-3.8917Z"/>
    <path class="cls-1" d="M193.2317,170.1508c.4276,2.1147-.2217,3.6606-1.837,4.6184-7.7052,4.5693-15.4613,9.0559-23.095,13.7417-4.0168,2.4657-7.8195,5.28-11.7198,7.9355-.2582.1758-.5243.34-.7868.5096-1.1241-1.7517-.7451-4.0279.806-5.0801,11.5119-7.8089,23.5103-14.8029,35.7832-21.3365.2339-.1245.4824-.2217.8494-.3887Z"/>
    <path class="cls-1" d="M128.573,36.0014c.2066-.325.5005-1.0326,1.0075-1.5175.5271-.5041,1.2323-.8527,1.9073-1.167,8.2612-3.8472,16.6442-7.4045,25.2192-10.4989.6025-.2174,1.2224-.4172,1.8515-.5227.9067-.1521,1.3806.2664,1.187,1.1653-.1233.5728-.5338,1.1202-.9274,1.5841-.2167.2554-.6559.3415-1.0098.4584-7.6509,2.5284-14.953,5.8851-22.2156,9.3366-1.7907.851-3.5693,1.7314-5.39,2.5134-1.0641.457-1.6244.0689-1.6297-1.3517Z"/>
    <path class="cls-1" d="M215.5674,251.6609c-.0975.6496-.1303,1.317-.3029,1.946-1.0918,3.9784-2.0665,7.9849-2.4015,12.1043-.1332,1.6382.0193,3.3025.0944,4.9526.0187.4113.1884.8404.3799,1.2147.6238,1.2195,1.9862,1.4363,2.9069.4213.3806-.4195.5998-.9977.8418-1.5267.2167-.4738.2624-1.068,1.0838-1.1114.093.2512.3147.5442.2777.7998-.2214,1.5266-.3327,3.103-.8292,4.5427-.2813.8158-1.1221,1.5689-1.8961,2.0566-1.4345.9039-2.7942.4744-3.692-.9804-1.0952-1.7746-1.64-3.7497-1.6178-5.8038.0201-1.8595.196-3.7398.5343-5.5682.5737-3.1007,1.2728-6.1818,2.038-9.2414.2796-1.1182.8706-2.1649,1.3792-3.2154.1451-.2998.4995-.4983.7579-.7433.1485.0509.2971.1019.4457.1528Z"/>
    <path class="cls-1" d="M157.6903,46.684c-.7032-1.9362-1.5778-3.8307-.565-5.9089.1814.0726.3955.0903.4392.1859.8232,1.7988,1.6771,3.5864,2.4152,5.4203.4796,1.1919.2333,2.3081-.7693,3.2116-.8793.7924-1.8681,1.0012-2.9806.6496-.4512-.1426-.889-.3277-1.3968-.5172-.9796,1.4527-2.2833,2.0553-4.017,1.7366-1.3119-.2411-2.1676-.9665-2.4804-2.2111-.4936-1.964-.3225-3.9292.2731-5.857.0445-.144.1751-.2615.2759-.4061.8507.3154.7868,1.0233.9163,1.6066.1736.7819.2372,1.5959.4832,2.3522.3534,1.0863,1.0274,1.435,1.9527,1.1642.742-.2172.9842-.712.8003-1.8323-.1299-.7912-.3628-1.5651-.5109-2.354-.1754-.9344-.2866-1.8752.0557-2.8605.8731.0791.9439.7223,1.152,1.2334.4834,1.1873.887,2.4143,1.4644,3.5536.4294.8472,1.1313,1.46,2.4921.8331Z"/>
    <path class="cls-1" d="M154.446,87.5343c-.4722.9869-.8449,1.8062-1.2521,2.608-.6747,1.3284-.9765,1.4496-2.2276.7309-.9722-.5584-1.8903-1.2125-2.8216-1.84-.7235-.4875-.8643-1.098-.5382-1.9424,1.1229-2.9078,1.6651-3.1216,4.3928-1.6256.6923.3797,1.4189.6967,2.2833,1.1171.5924-.9538,1.1124-1.8117,1.653-2.6564.7657-1.1965.969-1.2752,2.1853-.598,1.205.6708,2.3667,1.4192,3.7185,2.2371-.8666,1.5776-1.6481,3.0003-2.5202,4.588-1.6745-.8998-3.1636-1.7001-4.873-2.6187Z"/>
    <path class="cls-1" d="M135.3892,27.8706c-.3548-.5755-.7023-1.1557-1.0659-1.7255-.9497-1.4882-1.8767-2.9922-2.875-4.4472-.3961-.5773-.876-.8789-1.7595-.5632-1.1734.4192-2.1146-.1783-2.4997-1.381-.2068-.646-.2839-1.3705-.2467-2.0502.0851-1.5541,1.0856-2.1452,2.4064-1.2978.9678.6209,1.8088,1.5079,2.5402,2.4108.9031,1.1148,1.634,2.369,2.6202,3.8313.1704-1.3291.268-2.4068.4549-3.4688.2317-1.3164.4453-2.6479.8342-3.9217.5095-1.6691,1.2905-2.2174,2.4561-1.9946,1.4311.2736,2.4986,1.7004,2.35,3.1989-.0341.3441-.2156.6735-.3892,1.187-.4681-.2952-.8236-.4858-1.1419-.7258-1.4182-1.069-2.2124-.7773-2.4678,1.0088-.1664,1.1634-.1816,2.3491-.2482,3.5258-.1,1.7645-.1735,3.5306-.288,5.2942-.0225.3464-.1799.6841-.275,1.0258-.135.0312-.27.0623-.405.0935Z"/>
    <path class="cls-1" d="M150.3256,9.4816c.2012.736.4514,1.1902.4187,1.6232-.0801,1.0616.4823,1.6566,1.2487,2.2364,2.134,1.6144,2.5987,3.6109,1.4758,6.0622-.8474,1.8499-3.2555,2.8178-5.1493,2.0674-1.0534-.4174-1.6187-1.2609-1.7211-2.3226-.0912-.9457-.2077-2.0036.1124-2.8515.7878-2.087,1.8116-4.0857,2.7674-6.1072.0972-.2057.3776-.3248.8474-.7078ZM150.3877,18.8208c.1671-.0102.4786.0554.692-.0601.4412-.239,1.0061-.4975,1.1804-.8964.1222-.2796-.2424-.8696-.5278-1.2025-.3027-.353-.7416-.622-1.169-.8286-.9271-.4483-1.7013-.0464-1.9468.9524-.3253,1.3236.2406,2.0124,1.7712,2.0353Z"/>
    <path class="cls-1" d="M109.0784,28.6841c-.699-.7346-.471-1.6356-.4812-2.4527-.0357-2.8559-.655-5.5613-2.3831-7.8513-1.0183-1.3494-2.3077-2.5123-3.5718-3.6521-.8364-.7542-1.2684-1.5695-1.0928-2.6719.1691-1.0616.7792-1.3711,1.7053-.8663.3255.1775.6265.4157.9022.6663,3.4403,3.1257,5.8129,6.8539,6.281,11.5713.1195,1.2037-.0197,2.4507-.1847,3.658-.0884.6467-.3469,1.3575-1.1749,1.5987Z"/>
    <path class="cls-1" d="M177.0894,13.0292c.1668,1.0457-.314,1.7782-.6595,2.5306-.8085,1.7606-1.4914,3.5501-1.4754,5.5266.003.3724-.0591.8062.106,1.1012.2119.3786.5896.8402.9588.9044.3523.0613.8656-.2623,1.1619-.5615.3449-.3483.531-.8539.7596-1.2459.2999.0844.4551.0813.491.1451.9127,1.6208-.1171,4.232-1.8539,4.7246-.8749.2481-1.7952-.112-2.2162-1.1337-.4624-1.1222-.8759-2.3208-.9935-3.5173-.2601-2.644.5893-5.0664,1.9621-7.3002.3473-.5651.7329-1.1993,1.7592-1.1741Z"/>
    <path class="cls-1" d="M138.4268,36.8145c-.2509.8064-.3878,1.4116-.6239,1.9753-.792,1.8907-1.4512,3.8109-1.4919,5.8877-.0084.4268-.0669.903.0952,1.269.1737.392.5425.8909.8965.955.3481.063.8583-.2871,1.1623-.5911.341-.341.5305-.8334.8381-1.3472,1.1998,1.7308.1158,4.6101-1.6484,4.9629-.7941.1588-1.5281-.2616-2.0367-1.2413-.9456-1.8218-1.3424-3.7934-.8707-5.7735.3924-1.6475,1.108-3.2263,1.7715-4.7971.2608-.6173.7136-1.2011,1.9082-1.2996Z"/>
    <path class="cls-1" d="M171.9651,39.3351c-.3985-1.5736-.1089-2.5511,1.2139-3.2814,2.0528-1.1334,4.1682-2.1551,6.2721-3.1937.8921-.4405,1.8223-.804,2.7895-1.2261.429,1.1505.2558,2.0449-.6246,2.5563-3.0427,1.7674-6.1318,3.4551-9.2076,5.1652-.0771.0429-.2054-.0062-.4433-.0203Z"/>
    <path class="cls-1" d="M112.0401,88.9367c-.1156-1.2596-.0392-2.2483.9268-2.7464,2.9853-1.5396,6.0163-2.9907,9.0352-4.4645.1266-.0618.3098-.0079.4639-.0079.2999,1.1428.0674,1.8807-.8924,2.5641-.4746.3379-1.0125.5907-1.5334.8595-2.039,1.0519-4.0751,2.11-6.1296,3.1309-.5383.2675-1.1391.4093-1.8705.6644Z"/>
    <path class="cls-1" d="M177.5475,91.4161c-.1466-.5936-.2759-.8804-.2798-1.1689-.0404-2.965-1.5041-5.1794-3.672-7.0279-.3667-.3126-.7495-.6064-1.1232-.911-.6793-.5537-.7556-1.2447-.4731-2.0276.284-.787.5869-.9718,1.3196-.6112,2.9468,1.4505,6.2824,6.3808,4.8783,10.5817-.1062.3177-.3282.5967-.6499,1.1649Z"/>
    <path class="cls-1" d="M96.6642,51.4057c.6992.9902.3206,1.6043.0713,2.2359-.2934.7433-.6372,1.4786-.8212,2.2502-.2342.9826.1259,1.7557,1.1621,2.2691.4086-.5976.7715-1.1282,1.3148-1.9229.2428.6276.485.9834.5032,1.3503.0606,1.223-.3271,2.3255-1.1607,3.2331-.855.931-1.828.9648-2.5727-.0662-.5447-.7542-1.0524-1.6774-1.1626-2.5761-.3211-2.6171.9555-4.6754,2.6658-6.7735Z"/>
    <path class="cls-1" d="M135.33,74.6805c-.399-.6523-.6739-1.0878-.9352-1.5314-.7052-1.197-1.3861-2.4088-2.1136-3.5919-.4098-.6664-.9372-1.1121-1.8477-.9651-.4438.0716-.9615-.091-1.4017-.2615-1.4827-.5741-1.9147-2.7699-.7856-3.8837.478-.4715,1.0895-.5887,1.6132-.2177.7739.5483,1.5628,1.1376,2.1565,1.8637.9046,1.1066,1.6476,2.3451,2.6151,3.7546.0727-.5857.1313-.9653.165-1.347.0983-1.1161.0867-2.2541.3148-3.3423.1461-.6969.5622-1.3791.9981-1.9626.5121-.6855,1.2622-.7162,2.0269-.3525,1.6687.7936,2.2951,2.3875,1.5987,4.4947-.4003-.3184-.7514-.579-1.0818-.8637-1.2884-1.1104-2.1172-.8743-2.3873.8348-.2322,1.4697-.2164,2.9782-.3197,4.4689-.0609.8793.1849,1.8137-.6159,2.9027Z"/>
    <path class="cls-1" d="M197.5815,36.2492c-.1796.5159-.3483,1.0359-.5407,1.5469-.5265,1.398-1.1479,2.7679-1.5584,4.1986-.1943.6775-.1112,1.5.0736,2.1966.1125.4242.5971.8887,1.0242,1.0569.5878.2315.9398-.2814,1.2205-.7796.2448-.4345.5598-.8295.8067-1.1882.8334.2284.8741.7338.8066,1.2094-.1759,1.2404-.6072,2.392-1.4995,3.3048-.8421.8614-1.78.8846-2.7032.0668-.9108-.8069-1.5848-1.8072-1.5795-3.0493.005-1.163.0084-2.3986.3868-3.4701.5286-1.4967,1.3746-2.8875,2.1514-4.2867.2285-.4115.6826-.6979,1.0333-1.0416.126.0785.2521.157.3781.2355Z"/>
  </g>
</svg>