<?xml version="1.0" encoding="UTF-8"?>
<svg id="Islam" xmlns="http://www.w3.org/2000/svg" viewBox="0 0 303.0502 204.4206">
  <defs>
    <style>
      

      @import url('../../CSS/SvgStyling.css');

      
    </style>
  </defs>
  
  <g class="content">

    <rect id="bg" class="bg" x="-.9025" width="304.8551" height="204.4206"/>

    <path class="cls-1" d="M139.5695,89.2315c1.0571-1.2441,1.9164-2.2499,2.7697-3.2607,1.8253-2.1622,3.6916-4.2921,5.4472-6.5096.6149-.7768,1.0703-1.7318,1.3949-2.6754.643-1.8693-.3273-3.2413-2.2972-3.336-.6755-.0324-1.3781.0512-2.0354.2144-.6522.162-1.2629.4909-2.1164.8379.2419-2.344.794-4.3609,2.3817-5.9152,1.4391-1.4087,3.2494-1.5371,5.1075-1.0418,1.1961.3188,1.909,1.1918,2.2202,2.3647.4937,1.8608.38,3.7141-.3715,5.4746-2.4921,5.8385-6.5526,10.3456-11.8543,13.7747-.0579.0375-.1514.02-.6464.0725Z"/>
    <path class="cls-1" d="M246.9256,141.4971c-1.523,2.0281-2.8178,3.9985-4.3557,5.7563-5.6855,6.4984-12.7962,8.6914-21.1646,6.6217-4.2289-1.0459-7.1355-3.6093-8.1343-7.9666-.4416-1.9263-.6789-3.9047-.9165-5.8705-.1743-1.4422-.825-1.8612-2.0751-1.1135-.4397.263-.8082.6693-1.1555,1.0581-1.8094,2.0254-3.5675,4.0976-5.406,6.0959-5.5352,6.0165-12.0043,10.1963-20.376,11.2867-6.5954.859-13.1891-1.9323-16.3618-7.7745-.9007-1.6585-1.6796-3.4569-2.1003-5.2863-.7878-3.4263-1.2745-6.9219-1.8821-10.3894-.0662-.3775-.1038-.7599-.1547-1.1401l-.3334-.0461c-.1301.465-.2637.9291-.3898,1.3952-1.5126,5.5879-2.8575,11.2281-4.5822,16.7497-1.7686,5.6622-5.7988,9.8723-9.8979,13.9427-5.5594,5.5205-12.3376,8.856-19.8709,10.73-6.6051,1.6432-13.2242,3.2321-19.8532,4.7756-.9196.2141-1.9321.0296-2.9015.0296-.0638-.1723-.1276-.3447-.1914-.517.8623-.6689,1.6667-1.4345,2.596-1.9917,9.5239-5.7106,19.1099-11.3188,28.5969-17.0897,14.3561-8.7327,22.4211-21.59,23.9294-38.2612.6621-7.3182.3335-14.7298.3672-22.0994.0165-3.6051-.1649-7.2112-.2609-10.8167-.5921-22.235-2.7334-44.3134-6.819-66.1854-.5602-2.9993.1898-5.7948.7078-8.6476.3398-1.8717.7861-3.7267,1.2576-5.5705.1597-.6244.5427-1.1917.8236-1.7851.1333.0016.2666.0032.3999.0048.2924.6796.6485,1.3393.8673,2.0418,2.1864,7.0184,3.6543,14.202,4.8265,21.4476,2.4037,14.8586,3.8244,29.8175,4.4202,44.8538.361,9.1109.5679,18.2284.9819,27.3366.3715,8.1741.82,16.3483,1.4562,24.5052.3058,3.9203,1.2761,7.7432,3.2855,11.2324,1.8074,3.1386,4.6177,4.9306,8.0631,4.8286,7.6396-.226,15.0487-1.6308,20.9639-7.0446,3.8255-3.5012,7.4435-7.2283,11.1926-10.8143.7804-.7464,1.6653-1.4369,2.615-1.9396,1.2578-.6658,2.0834-.0946,2.0213,1.3135-.0298.6745-.2097,1.358-.418,2.0065-1.7366,5.4078-.0546,9.448,5.0257,12.012,7.3977,3.7335,16.5962,1.7679,21.6781-4.8896,2.6501-3.4716,4.8853-7.2586,7.3447-10.8781.4695-.691,1.0346-1.3647,1.6917-1.8692.9322-.7158,1.6022-.4188,1.8309.7204.0847.4217.0618.8958-.0348,1.3179-.4248,1.8561-.9506,3.6909-1.3178,5.5574-.1302.6621-.1015,1.4786.174,2.0778,2.1855,4.7535,9.2253,7.1582,13.9016,4.8059.2521-.1268.4965-.2773.7225-.4463,1.2586-.9416,1.3838-1.2607.1801-2.1977-1.8922-1.4731-2.0478-3.0956-1.2476-5.2228.8821-2.3452,1.427-4.8155,2.2001-7.2049.1788-.5526.688-.9984,1.0451-1.4933.5195.4132,1.3396.7305,1.5074,1.256.7951,2.4888,1.8169,5.0051,2.003,7.5665.3252,4.4747-.4993,8.8827-2.2182,13.0787-2.2424,5.4737-7.5922,8.9467-13.4997,8.7944-2.6334-.0678-4.8265-1.1407-6.5538-3.02-1.3347-1.4522-2.4253-3.1292-3.6164-4.7124-.2088-.2775-.3775-.5852-.5877-.9152Z"/>
    <path class="cls-1" d="M102.4989,128.6353c-.9888-2.0841-1.9064-4.0614-2.8608-6.0208-1.7129-3.5161-1.8328-7.2167-1.0761-10.9374,1.4192-6.9776,7.9335-10.812,14.7754-8.7566,4.4483,1.3363,8.322,3.81,12.0349,6.5013,2.256,1.6353,4.3353,3.5196,6.4445,5.3491.6018.522,1.0472,1.2309,1.5355,1.8758,1.1318,1.4945,1.4316,3.0805.739,4.8996-.9653,2.5353-1.8167,5.1146-2.6819,7.6868-.3259.9688-.9305,1.517-1.9115,1.8282-5.4849,1.7401-10.9478,3.5499-16.4373,5.2749-.9991.3139-1.4585.6708-1.357,1.8376.1107,1.2732-.0487,2.5871-.2436,3.8598-.0641.4189-.5471.9485-.9501,1.0768-.2512.0799-.8771-.4211-1.0477-.793-.5853-1.2767-1.044-2.6114-1.6162-4.0931-1.0656.4341-2.1429.8594-3.2095,1.3097-8.2161,3.4686-16.435,6.94-24.1139,11.5238-7.0422,4.2037-13.258,9.4985-19.0172,15.2689-6.7561,6.7693-13.2132,13.837-19.8022,20.7731-2.7427,2.8871-5.5868,5.6536-9.0873,7.6416-6.4339,3.654-12.6704,2.9326-18.0903-2.1193-4.7217-4.401-6.7895-9.9662-7.0596-16.2943-.2384-5.5857.9181-10.9638,2.5398-16.259,1.916-6.256,4.4823-12.2518,7.3944-18.1018.5329-1.0705,1.0802-2.1756,2.4799-2.8148,0,.6051.1093,1.0843-.0174,1.4897-.9656,3.0905-1.8885,6.1988-2.9936,9.2403-2.1039,5.7908-4.3375,11.5366-5.4353,17.6339-.6501,3.6103-.9906,7.2197-.1281,10.8612,1.2859,5.4286,5.7274,8.4651,11.2398,7.6004,3.3937-.5324,6.4094-1.9791,9.2276-3.8822,5.088-3.4359,9.2329-7.8976,13.3322-12.3907,5.9064-6.4738,11.8899-12.8811,18.5689-18.561,11.211-9.5339,23.5981-17.1285,37.5494-22.023.4079-.1431.8085-.3072,1.2752-.4855ZM120.1106,121.6394c-.9876-.8119-1.6198-1.4411-2.3524-1.9149-2.9458-1.9046-6.1262-3.3215-9.5443-4.0995-1.4004-.3187-2.8815-.3279-4.3293-.3766-.9061-.0305-1.3687.366-.8853,1.3742,1.4165,2.9539,2.8007,5.9233,4.1886,8.8908.2718.5812.6407.7284,1.264.5091,2.8237-.9936,5.6686-1.9273,8.4865-2.9368.9701-.3475,1.8838-.8524,3.1722-1.4463Z"/>
    <path class="cls-1" d="M150.2333,145.9294c-.3337-1.8672-.7163-3.5025-.9065-5.16-.8026-6.9944-2.3464-13.7875-6.1251-19.8155-2.6635-4.249-5.5169-8.404-8.5872-12.3674-5.5808-7.2042-12.3606-13.2819-18.9428-19.5413-11.819-11.2395-23.2356-22.8715-33.4702-35.595-2.7372-3.4028-4.9935-7.1884-7.617-10.6884-1.4469-1.9303-3.1508-3.6783-4.8354-5.415-.6673-.6879-1.0965-1.3386-1.0858-2.311.0397-3.6081.0272-7.2167.072-10.8247.0165-1.3242.3772-1.5458,1.545-.8314,1.482.9066,2.9282,1.8897,4.2996,2.9559,4.9928,3.8816,9.9486,7.8108,14.9162,11.7247.35.2758.7453.5257,1.009.8718.3692.4844.6345,1.0479.9442,1.5776-.5968.164-1.2171.5245-1.786.4562-1.9257-.2311-3.8337-.6115-5.7473-.9417-.3093-.0534-.6126-.1414-1.2379-.2885.3419.5028.5087.7816.7073,1.0355,5.6632,7.2376,12.2797,13.5919,18.7005,20.1242,10.1743,10.3512,20.4932,20.5623,30.5537,31.0223,5.687,5.9128,10.5788,12.4966,14.488,19.7579,3.3819,6.2817,5.5851,12.9203,5.1739,20.1162-.2605,4.5571-1.1016,9.0811-1.6908,13.6188-.0128.0984-.1286.1834-.3775.5188Z"/>
    <path class="cls-1" d="M274.646,10.4653c.5815,1.2508,1.1015,2.2103,1.4859,3.2213,2.9234,7.6881,5.842,15.3782,8.7054,23.0887.5186,1.3966.8219,2.8806,1.1253,4.3448.0833.402-.1931.8786-.3045,1.321-.4069-.1195-.915-.1244-1.2034-.3784-1.2743-1.1222-2.4994-2.3021-3.7098-3.494-.3081-.3033-.4972-.7274-.741-1.096-.1671.0829-.3341.1659-.5012.2488,0,.6101-.0416,1.2234.0061,1.8297.9828,12.4861,2.0038,24.9692,2.959,37.4573,1.0263,13.4178,2.1723,26.8301,2.9297,40.2638.6416,11.3794-.971,22.4884-5.5112,33.0535-.3345.7785-.7771,1.5109-1.1773,2.2605-.1132.212-.2547.409-.3831.6129-.1268-.0329-.2536-.0658-.3805-.0987-.0787-.4693-.2496-.9443-.2207-1.4068.1442-2.3044.2999-4.6097.5266-6.9072.8086-8.1932.2094-16.3647-.3724-24.5328-.8955-12.5744-1.8555-25.1443-2.7795-37.7167-.9448-12.8554-1.9021-25.7099-2.8043-38.5682-.2751-3.9211-.3896-7.8536-.5712-11.7812-.1283-2.776-.6525-5.4635-1.6719-8.0587-.1974-.5026-.3688-1.1663-.2061-1.6356,1.2854-3.7067,2.6485-7.3866,4.011-11.0662.1007-.2718.3826-.4766.7891-.9619Z"/>
    <path class="cls-1" d="M248.5558,98.4613c.1607-.5669.3509-1.1273.4776-1.7018,1.2303-5.5794,2.3811-11.1776,3.699-16.7361.7642-3.2231,2.5182-5.9737,4.9065-8.2533,2.3673-2.2596,4.9428-2.2012,7.1436.2218,1.0157,1.1183,1.828,2.4791,2.4885,3.8477.8343,1.7287-.1354,5.9215-1.5584,7.1523-.2653.2295-1.0303.2393-1.3103.0223-.6619-.5131-1.1487-1.2456-1.7454-1.8507-2.5636-2.5996-4.6524-2.4443-6.1031.882-1.3653,3.1305-2.3048,6.4751-3.1494,9.7972-1.0573,4.1585-1.6818,8.4286-2.7815,12.5741-.5401,2.0358-1.6921,3.9185-2.6578,5.8246-.1985.3919-.7996.5799-1.2151.8619-.1835-.4592-.519-.9161-.526-1.378-.0462-3.0667-1.0517-5.9024-2.1151-8.7014-1.3517-3.558-2.8163-7.0757-4.3348-10.5661-.4259-.979-1.1379-1.8675-1.856-2.6754-.6323-.7113-1.4875-.88-2.2209-.0531-.9586,1.0809-2.1337,1.0824-3.1815.402-1.4167-.9199-2.6858-2.068-4.0115-3.1266-.2767-.221-.5242-.4786-.8821-.8088-.2297.3942-.4336.6815-.5754.9967-3.109,6.9103-8.15,12.1401-14.014,16.8165-9.3722,7.4742-20.2244,11.83-31.3799,15.6509-1.861.6374-3.7047,1.325-5.5565,1.9894-.0695-.0997-.1391-.1994-.2086-.2991.3305-.3523.6059-.7907,1.0004-1.0426,2.2863-1.4596,4.609-2.8619,6.904-4.3081,10.0118-6.3091,20.0779-12.535,29.9916-18.9949,3.1358-2.0433,5.9217-4.6484,8.7505-7.1301,2.2096-1.9384,3.8404-4.359,5.1873-6.9908.9939-1.9422,2.1837-3.7859,3.3232-5.651.5194-.8501,1.2806-1.0774,2.2996-.892,3.5642.6485,6.0343,2.8265,8.0499,5.6373,2.6583,3.7071,4.3703,7.849,5.4078,12.2715.4068,1.734.6846,3.4981,1.0346,5.2457.0661.33.1955.6474.2957.9706.1412-.0016.2825-.0032.4237-.0048Z"/>
    <path class="cls-1" d="M176.3314,53.05c1.7562-1.13,3.4647-2.3439,5.2773-3.3748,6.0565-3.4447,12.1584-6.8094,18.217-10.2503.6088-.3458,1.0422-1.0006,1.5569-1.5119-.6886-.3802-1.3426-.9881-2.0721-1.0988-2.438-.3702-4.8986-.7203-7.3587-.7894-4.8599-.1364-9.7252-.0747-14.5882-.1087-.6244-.0044-1.2482-.0903-1.7936-.1324-.0742-.2371-.1084-.288-.095-.3118,1.8085-3.184,3.3702-6.5494,5.521-9.483,1.4134-1.9277,3.8941-2.7234,6.4191-2.6573,5.9921.157,11.9891.2445,17.9714.5838,1.9792.1122,3.989.7265,5.8595,1.4397,2.1643.8252,2.5298,2.1407,1.3625,4.1514-3.1442,5.4163-6.7893,10.4567-11.2362,14.9042-2.0466,2.0468-4.5009,3.305-7.2132,4.0913-5.7934,1.6796-11.608,3.2863-17.4151,4.9184-.0693.0195-.1553-.0209-.2335-.0333-.0597-.1124-.1195-.2248-.1792-.3372Z"/>
    <path class="cls-1" d="M40.1114,141.3107c.5747-2.5349,1.0928-4.854,1.6278-7.1692.4836-2.0926.9299-4.1961,1.4955-6.2667.5743-2.1025,1.5961-3.9963,3.1958-5.5083,1.7272-1.6324,3.3819-1.6257,5.186-.0693,2.353,2.03,2.7605,5.1114,1.0459,7.75-.4137.6366-.8205.7134-1.3397.1401-.5714-.6308-1.1181-1.2908-1.7431-1.8645-1.1775-1.0808-2.4837-.9962-3.2677.3758-.7761,1.3583-1.4763,2.8196-1.8705,4.3245-.9337,3.5645-1.656,7.184-2.4856,10.7763-.3099,1.3418-.5656,2.7142-1.0607,3.9894-.3879.9993-1.1066,1.8702-1.6783,2.7982-.1717-.0414-.3433-.0829-.5149-.1243-.1351-.4641-.3301-.9198-.396-1.3934-.6313-4.5393-2.0775-8.8262-3.99-12.9687-.2708-.5865-.5936-1.155-.9469-1.6963-.9664-1.4807-1.2571-1.5111-2.754-.6663-.3837.2166-.9171.2184-1.3822.2206-.2605.0012-.5316-.1804-.7814-.311-4.2173-2.2053-4.5331-6.5769-.6424-9.4527.3885-.2872,1.0796-.3407,1.59-.2571,2.2283.3648,3.9573,1.5841,5.3144,3.3568,2.6131,3.4132,3.7718,7.4007,4.5508,11.5386.1272.6755.2778,1.3469.4361,2.0158.0236.0995.1498.1747.4111.4618Z"/>
    <path class="cls-1" d="M275.7464,174.2655c-.1387-3.605,1.6396-5.7984,4.6105-7.5011-.7691-.3677-1.2911-.6097-1.8067-.8649-2.564-1.2693-3.3602-2.8556-2.7284-5.6288.1865-.8187.4598-1.6621.893-2.3725,1.7971-2.9467,4.1425-5.3907,7.1138-7.1711,1.5201-.9108,3.2462-1.4936,4.7538-.1823,1.4336,1.2469,1.1875,3.019.6441,4.6441-.3143.94-.8665,1.8005-1.2925,2.6582-.2343-.0434-.343-.0298-.3816-.0755-1.9696-2.3324-5.3532-2.1083-7.1596.4506-.5293.7498-.3662,1.3365.2097,1.9367,1.5963,1.6635,4.7775,2.3686,6.8062,1.3373,1.5802-.8034,3.0434-1.8342,4.5798-2.7276,1.1344-.6596,2.3027-1.2608,3.5223-1.9241.4312,1.9711-.5215,4.6353-1.8752,5.5482-5.5045,3.7123-11.0185,7.4106-16.5338,11.107-.3872.2595-.8129.4615-1.3552.7657Z"/>
    <path class="cls-1" d="M146.635,58.7947c.0908-1.1831.1138-2.3761.2836-3.5478.9825-6.7795-1.5746-12.3987-5.7526-17.4513-1.3905-1.6816-2.9541-3.2271-4.5116-4.7607-.7587-.7471-.9381-1.4678-.4219-2.3709.6577-1.1506,1.3263-2.2951,2.0378-3.5245,6.605,4.525,10.0964,10.7175,11.1157,18.4332.6209,4.7003-.2259,9.1019-2.1787,13.317-.1908-.0316-.3815-.0632-.5723-.0948Z"/>
    <path class="cls-1" d="M256.8044,21.8049c-.5037,1.5687-1.0881,3.1167-1.4945,4.7102-.8992,3.5261-1.8829,7.0459-2.4811,10.627-.2959,1.7712-.0756,3.7398.3784,5.4986.6472,2.5073,2.7243,2.8449,4.3968.8771.7315-.8607,1.3378-1.8278,2.0018-2.7459.2226-.3079.448-.6138.6721-.9206.1053.0431.2106.0861.3159.1292-.2215,1.0774-.3168,2.2011-.6913,3.2224-.7339,2.0014-1.5045,4.0079-2.4893,5.8924-.6849,1.3107-1.9444,2.0682-3.5503,1.8387-1.6563-.2367-2.6774-1.262-3.2267-2.7825-.936-2.5907-.7963-5.2778-.5333-7.9387.6145-6.2188,2.706-11.9786,5.6542-17.4502.204-.3786.4773-.7199.7183-1.0786.1097.0404.2193.0807.329.1211Z"/>
    <path class="cls-1" d="M67.2906,63.5196c-.576,1.7926-1.2381,3.5629-1.7091,5.3827-.841,3.2496-1.6427,6.5135-2.312,9.8017-.3984,1.9572-.3166,3.9635.4379,5.866.9139,2.3043,2.7779,2.6502,4.3473.7661.9909-1.1896,1.8486-2.4903,2.8908-3.6817-.5545,3.5533-1.1359,7.111-3.6535,9.9025-1.5565,1.7258-4.1143,1.4505-5.4726-.4506-1.0867-1.521-1.2896-3.3-1.3315-5.0947-.1576-6.7573,1.6725-13.0477,4.5632-19.0767.5827-1.2154,1.2513-2.3896,1.8803-3.5828.1197.0558.2393.1116.3589.1674Z"/>
    <path class="cls-1" d="M198.8807,58.1997c-.794,2.5359-1.6822,5.047-2.3556,7.6145-.6761,2.5776-1.3031,5.1907-1.6333,7.8281-.2055,1.6418.1107,3.367.3374,5.0351.0803.591.5008,1.2032.9197,1.667.9523,1.0545,2.0954,1.1203,3.0629.0879.9621-1.0266,1.7564-2.2112,2.6147-3.3338.2352-.3077.436-.6417.7845-.9004-.605,3.4875-1.1186,7.025-3.5763,9.7865-1.8588,2.0885-5.1478,1.3571-6.0161-1.4419-.5866-1.8909-.8521-3.98-.7733-5.9611.2802-7.0444,2.469-13.5711,5.8656-19.7133.1506-.2724.3616-.5113.5444-.7658.0752.0324.1504.0647.2256.0971Z"/>
    <path class="cls-1" d="M123.2982,32.6222c-.4156,1.2585-.9162,2.4961-1.2309,3.7792-1.002,4.0849-2.0785,8.1611-2.8188,12.2957-.2703,1.5097.1011,3.2427.5713,4.7518.7399,2.3745,2.6905,2.7072,4.3163.8429,1.0005-1.1472,1.8462-2.4294,2.8534-3.6146-.595,3.4364-1.1486,6.9114-3.564,9.6562-1.5616,1.7746-4.3481,1.5562-5.4993-.5068-.6837-1.2251-1.0853-2.7304-1.1818-4.1393-.4424-6.4573,1.1351-12.5446,3.7524-18.393.7365-1.6458,1.5957-3.2367,2.3986-4.8528.1343.0602.2685.1205.4028.1807Z"/>
    <path class="cls-1" d="M223.7453,63.6868c1.0571-1.2441,1.9164-2.2499,2.7697-3.2607,1.8253-2.1622,3.6916-4.2921,5.4472-6.5096.6149-.7768,1.0703-1.7318,1.3949-2.6754.643-1.8693-.3273-3.2413-2.2972-3.336-.6755-.0324-1.3781.0512-2.0354.2144-.6522.162-1.2629.4909-2.1164.8379.2419-2.344.794-4.3609,2.3817-5.9152,1.4391-1.4087,3.2494-1.5371,5.1075-1.0418,1.1961.3188,1.909,1.1918,2.2202,2.3647.4937,1.8608.38,3.7141-.3715,5.4746-2.4921,5.8385-6.5526,10.3456-11.8543,13.7747-.0579.0375-.1514.02-.6464.0725Z"/>
    <path class="cls-1" d="M76.5385,125.4086c.7535-.9155,1.4972-1.8393,2.2625-2.7449,1.9323-2.2861,3.923-4.5252,5.7855-6.8665.6391-.8035,1.0952-1.8137,1.4089-2.8012.5314-1.6731-.2769-2.9576-2.0232-3.135-.9648-.098-1.9791.1854-2.9571.3706-.459.0869-.8849.3479-1.3463.5385-.6611-4.1164,3.1005-7.8117,6.9133-6.9281,1.3662.3166,2.2199,1.1319,2.5736,2.4568.5558,2.0817.3031,4.1172-.593,6.0441-2.5419,5.4659-6.4006,9.7984-11.4405,13.0886-.1206.0787-.2767.1031-.4162.1529-.0558-.0586-.1116-.1172-.1674-.1758Z"/>
    <path class="cls-1" d="M112.7804,163.6817c.827-.9857,1.6406-1.9829,2.4838-2.9546,1.6435-1.8939,3.3964-3.7021,4.9215-5.6861.8945-1.1637,1.606-2.5385,2.0935-3.9259.5494-1.5636-.4169-2.8873-2.0777-2.9636-1.0151-.0466-2.0524.2544-3.0695.4519-.4114.0799-.7956.2997-1.2334.4721-.2456-3.9646,2.4981-7.1112,5.9724-7.0067,2.2391.0673,3.4875,1.2336,3.7574,3.4895.2547,2.1292-.2657,4.0998-1.2197,5.9761-2.5908,5.0956-6.3059,9.179-11.1062,12.2771-.0885.0571-.2153.0547-.3243.08-.0659-.0699-.1318-.1399-.1977-.2098Z"/>
  </g>
</svg>