<?xml version="1.0" encoding="UTF-8"?>
<svg id="Jafar" xmlns="http://www.w3.org/2000/svg" viewBox="0 0 461.4673 452.8151">
  <defs>
    <style>
      

      @import url('../../CSS/SvgStyling.css');
      
    </style>
  </defs>
  
  <g class="content">


    <rect id="bg" class="bg" width="461.4673" height="452.8151"/>
    <path class="cls-1" d="M78.9267,259.1194c-1.5022-.6372-2.8396-.8937-3.9889-2.1468-.4731-.5158-1.578-3.6071-1.7655-3.6173-.5642-.0304-3.4105,4.3263-4.2808,5.0196-2.6103,2.0793-5.4076,2.7166-8.668,2.1729-7.3471-1.2252-10.9786-8.5702-11.936-15.3654-.8003-.1561-2.2097,3.0174-2.7788,3.5561-1.6022,1.5166-4.502,2.7606-6.7121,3.0522-6.0281.7956-5.4539-5.6268-3.4271-9.7073.868-1.7474,2.2515-3.5162,3.6284-4.9058,1.36-1.3725,4.417-2.6394,5.3408-4.1869.5033-.8431-.6895-9.9604,1.2653-10.1539,1.954-.1934,2.0255,5.4101,3.2308,5.8636,2.0587.7745,3.371-4.4136,5.2217-3.8869,1.09.3102-1.0888,3.8081-1.226,4.0301-1.6512,2.6722-2.5846,2.9714-2.5274,6.0344.0862,4.6156,1.2716,10.9711,3.857,14.825,2.6982,4.0221,7.9796,5.7428,12.6555,4.2904,1.5196-.472,9.0122-7.8469,8.6803-8.2713,1.657,2.1189-.5154,4.8424,3.0298,6.5178,1.9342.9141,6.7191.7378,8.2635-.9691-6.7983-6.7384-9.9981-15.9363-1.2423-22.864,4.1249-3.2637,9.4171-3.5061,14.2382-1.6788,1.3123.4974,7.6292,3.4897,6.1363,4.6458-.5181.4012-4.2622-.9029-5.3784-1.0051-2.3053-.211-4.529.0634-6.8065.5318-4.5536.9365-11.9683,1.7643-9.3684,7.538,1.7394,3.8626,5.3464,8.0571,9.6906,8.9171,4.746.9395,10.5383-2.5021,14.6573-4.5323,2.2159-1.0922,6.8605-4.7065,6.454-1.0757-.5383,4.8079-8.069,6.6187-11.5551,8.2491-5.1683,2.417-10.4003,4.8456-15.7964,6.7144-3.6222,1.2545-4.2174,1.2043-5.2605,4.4776-1.326,4.1612-2.2972,8.0664-3.1217,12.4021-1.0972,5.7698-2.8943,12.4326-2.2477,18.4959.7126,6.682,2.2977,14.1609,6.9315,19.6448,1.6038,1.898,6.9905,6.8779,9.6828,6.6677,3.5387-.2763,1.4777-5.5059,3.7218-7.2633.9879-3.4358,2.5399-7.8271,4.5396-10.7701,1.9576-2.8811,3.6974-2.7194,3.2694,1.1914-.5119,4.6781-2.6539,9.8128-3.6979,14.3937-.7274,3.192-1.1661,3.5738,1.3489,4.7078,3.1847,1.4359,9.8788.8495,13.4962.4498,3.2053-.3542,11.0977-1.4397,12.6341-4.1768.953-1.6978-.0012-6.0033-.002-7.9946-.0012-2.9269-.0024-5.8538-.0034-8.7807-.0022-6.2418-.4909-12.7864.191-18.9688,1.2526-11.3562.5919-23.2994.5898-34.8409-.0033-18.0966-.7449-35.6144-.7854-53.3582-.0206-9.0319-.4331-17.7677-1.2927-26.5423-.6013-6.1386-.5556-12.41-1.7637-18.4713-1.2918-6.4814-2.6721-12.7921-4.067-19.3153-.7644-3.575.8971-5.674,2.3452-8.9936,1.3467-3.087,2.1738-6.8779,4.0372-9.7383,2.6127-4.0105,3.316.1842,4.3942,3.8141,1.1352,3.8218,2.2643,7.8157,3.0015,11.6986,1.0786,5.6811,1.9649,11.2132,2.5657,16.9894,1.4587,14.0239,3.0532,28.7397,3.0603,42.9587.0034,6.7968.0067,13.5936.0103,20.3904.0022,4.1129.8572,8.8593.796,12.5901-.1919,11.7045-.7856,24.0884-.7891,36.0839-.0042,14.3694-.0142,28.7388.0051,43.1082.0043,3.195.0095,6.39.0144,9.585.004,2.645-.8911,5.0791,1.4377,5.2773,2.0384.1736,4.6142-3.6349,6.536-3.6202,2.2894-1.5343,5.1267-2.5104,7.3117-4.1145,3.6234-2.66,1.2593-5.0582.0781-9.045-2.5893-8.7395-4.014-17.3625-3.9791-26.4466.058-15.095,3.1072-28.695,6.2707-43.2182,1.2787-1.4438,1.7348-5.2031,2.3493-6.9902.9757-2.8377,2.2504-5.5293,3.3764-8.3002,2.6282-6.4673,5.3283-13.2647,9.2834-19.0849.1654-1.3736,2.2101-3.7636,3.1108-4.7178.4544-3.8636,6.0409-9.275,8.4734-12.2101,1.5475-1.8673,3.066-3.7524,4.6236-5.6172,2.1837-2.6143,2.4727-3.1092-.8368-4.386-3.6052-1.3909-7.5728-2.1605-11.247-3.6996-5.9366-2.4869-10.9897-5.9481-16.0641-9.8653-11.8162-9.1215-20.0994-21.6057-22.0071-36.5935-1.2766-10.0302,4.4399-20.1215,10.8744-27.6236,12.4396-14.5035,28.15-20.8555,46.9539-19.4038,8.7211.6733,17.434,3.5246,25.6448,7.1144,4.7034,2.0564,9.1486,4.8244,13.4702,7.5018.8545.5294,5.1225,2.2512,4.4286,3.7621-.6488,1.4128-5.2946-.5666-6.2388-.8194-11.7891-3.1557-23.2741-2.1919-35.3635-1.8398-4.7562.1385-9.5318,1.1873-14.1421,2.3448-1.7973.4513-3.7627.8554-5.4898,1.2499-1.195.273-5.337.4491-6.1375,1.4838-6.5941,2.1216-12.7609,4.8412-19.051,7.9572-4.849,2.4021-4.6158,2.8904-3.2671,7.8446.8476,3.1136,1.8383,6.1504,3.2614,9.0882,6.3948,13.2017,18.3152,23.4428,31.8324,28.9387,9.3278,3.7926,21.4187,5.4248,30.598.8098,4.449-2.2368,8.5707-5.2,12.7857-7.7813,2.0146-1.2338,3.8995-2.5496,5.9019-3.7829,1.4142-.871,4.8546-3.8578,6.4388-3.8572,3.2386-3.0306,8.0152-5.053,11.8626-7.1755,3.4253-1.8897,6.9627-4.3025,10.2873-6.4499,3.1836-2.0563,9.2195-7.3024,12.9858-7.4814,2.7662-.1314,1.7255.9304,1.0688,3.1476-.8498,2.8692-2.1543,5.5321-3.3996,8.3223-1.6489,3.6941-2.6991,8.0246-5.7577,10.8518-2.5772,2.3822-8.0781,3.1528-10.0982,5.824-1.4569,1.9265-.8107,8.5239-.3719,10.8583.663,3.5276,3.0959,6.6528,5.6729,9.024,9.0149,8.2948,23.6774,7.0177,34.3098,4.5024,4.4343-1.0491,8.824-2.3552,13.3195-3.8215,3.0433-.9927,10.7057-2.8542,12.7784-5.2485,2.8377.1068,7.3557-2.8552,9.9579-3.8128,4.2769-1.5738,8.2641-3.1732,12.4726-4.9678-1.1389-2.0408-7.4819-2.1792-9.6677-2.7483-3.0483-.7936-6.205-1.5391-9.291-2.293-3.4998-.855-7.0705-1.8598-10.5697-2.847-4.1209-1.1626-5.6612-2.8717-8.0334,1.224-2.2728.6812-4.1445-.4223-6.0626-.6796-3.0843-.4136-5.7544-.3496-8.69-.7841-4.4575-.6597-8.7501-1.2251-13.2849-1.5484-5.0353-.359-7.9201-1.2052-5.948-6.6715,1.6981-4.7068,4.3943-11.0627,9.2073-12.6089,6.6256-2.1285,15.0124-4.8403,21.7986-2.5796,6.9197,2.3052,14.4619,4.6602,21.6252,6.5514,7.0463,1.8603,14.0633,4.7797,21.2651,5.7236,3.6603.4797,7.2424,2.2396,10.7414,2.7175,1.7762.2426,12.1068,2.6895,13.1499,1.4976,1.3873-1.585-1.1846-10.6313-1.4046-13.0383-.3563-3.8992-.568-8.2181-1.8237-11.8465-1.2874-3.72-3.5382-3.8761-1.9303-7.938,1.035-2.6147,2.1728-5.1662,3.185-7.8015.8499-2.2127,3.0513-10.0097,5.3587-9.7207,2.4796.3106,7.5516,14.9716,8.6052,17.4008,2.3568,5.4338,4.559,10.9311,6.6945,16.4358,1.4274,3.6794,4.0335,8.2398,4.5625,12.0595,1.237,8.9326-8.9469-5.458-10.2012-5.382-.5442.0328,1.062,8.528,1.3103,9.1744.8519,2.2181.0044,2.4277,3.0576,2.9889,2.9959.5507,6.6071-.1204,9.664.0154,3.1889.1417,5.1023.341,8.3309.0046,2.2411-.2335,5.0305-.1918,7.3032.0232,3.2198.3046,2.5798-.4244,2.4712,2.0763-.0907,2.0852-2.0594,5.6193-2.7895,7.6143-.9814,2.6817-2.5472,8.196-5.0955,9.3058-1.739.7573-3.0852-.6272-4.6246-.6463-2.1913-.0272-2.108.5511-3.7165.7071-3.7243.3612-10.9474-2.1165-11.5531,2.2445-.3884,2.7964,1.1946,6.2981,1.5346,8.9589.3859,3.02,1.1628,6.3291,1.497,9.1166.7063,5.8916,1.4441,11.6495,2.3014,17.5963,1.6241,11.2658,3.9871,22.8377,5.0814,34.1095.369,3.8008.6127,7.2671,1.1122,11.102.2446,1.8773.6045,7.0392,1.9175,8.7128,1.9223,2.4503,8.0617,3.6783,10.8,5.6547,2.1727,1.5681,7.7165,5.6993,8.0534,8.5829,3.8273,3.6202,4.1999,13.467,3.6598,18.1884-.5815,5.0839-1.3289,9.8791-3.2844,14.8133-.9144,2.3074-1.8583,4.3997-3.358,6.5286-2.114,3.0008-6.1354,5.2762-6.3619,9.1086-.1107,1.8731,1.3293,4.8165,1.5251,6.5549.3289,2.9202.2078,5.317.7644,8.0623.9444,4.6578,1.7917,10.1964,2.2548,14.7575.5922,5.8325,1.5179,11.6002,2.0565,17.2964.5343,5.6504-.5923,12.614-1.2605,18.2394-.6244,5.2564.1387,12.9258-3.7558,17.3795-.1282,2.4623-4.6777,6.7661-6.1177,8.4453-3.1776,3.7055-7.1514,7.0703-12.0221,8.8026-1.6455,1.78-5.0875,1.6432-7.1645,2.1064-1.3444.2998-1.8253.8243-3.4476.7743-2.2831-.0703-3.1162-1.4427-4.8574-.4708-1.3132.733-3.3678,4.5922-4.278,5.8359-1.8124,2.4765-3.8375,4.4945-6.3486,6.3063-9.4543,6.8212-22.2022,11.538-33.2425,14.1741-11.8202,2.8224-25.1904,4.4876-37.593,2.4373-2.2857-.3779-5.1536-1.267-7.4369-1.9636-2.3667-.7221-7.2493-4.1341-9.3511-3.9373-3.4477.3227-4.4514,10.9825-8.4023,9.7036-4.1693-1.3496,2.3132-10.9275,1.8827-13.3348-.4803-2.6858-6.0973-6.6497-7.8323-9.075-.9988-1.3962-4.2822-10.7984-5.5647-11.1083-.7221-.1745-2.0703,2.2326-2.1087,2.5913-.5616.5992-.5953,1.4855-1.1382,2.0949-.6284,4.4461-10.7434,15.5212-15.1749,16.0188-6.118,5.5189-16.6988,5.0768-23.9158,6.9265-7.5771,1.942-16.6446,2.8092-24.6571,2.9152-11.3782.1505-25.8645,1.3503-37.4351-1.1468-10.7922-2.329-18.7253-10.1679-22.9882-20.1956-.8699-2.0461-1.1825-4.3179-3.0995-5.4597-.566-.3372-4.3296-.9159-5.336-1.2228-5.3885-1.6435-10.488-3.5646-15.2664-6.8891-9.2734-6.4518-15.2189-17.1788-18.4709-27.8872-1.2919-4.2541-2.3796-9.0344-2.8503-13.3129-.35-3.1816-.0327-6.6064-.0349-9.7941-.001-1.4894.6542-5.3573-.0025-6.6633-1.2344-2.455.9353.1413-2.153-1.8906-5.2007-3.4218-9.334-5.2374-13.2033-10.5449-3.8894-5.3352-5.4129-11.6586-6.075-18.0445-1.8761-18.0922.8927-35.3821,8.7028-51.5397ZM354.7525,209.1288c4.2572,5.1523,11.8156,10.1652,17.6495,13.4334,3.6857,2.0648,7.2818,4.2752,10.967,6.2967.5631.3089,5.1623,3.1236,5.8357,2.8284,1.1902-.5217-.0369-1.9759-.1029-2.9378-1.5706-22.8626-6.9439-45.5375-9.9103-68.3913-.2295-1.7679.0072-8.8155-1.3455-10.0382-1.2526-1.1323-6.9893.6911-8.6366,1.007-4.2755.82-8.1636,2.5424-12.3749,3.8491-4.584,1.4224-9.51,2.9199-14.0959,4.7073-2.6614,1.0373-5.2848,2.3331-8.0069,3.3174-1.8735.6774-6.0301,3.0492-7.9342,2.751-2.8727,2.5734-8.8968,3.8125-12.4459,5.1766-4.813,1.8498-9.7576,3.3036-14.6365,4.9664-9.4033,3.2048-20.3069,5.3768-30.2399,2.6086-12.0413-3.3557-19.6314-14.8262-19.2461-27.2671.0926-2.9905.8436-5.8329,1.456-8.7233.9948-4.6953-.7214-3.0028-3.9082-1.1516-5.4411,3.1608-11.8946,5.8079-16.7957,9.7604-2.3993-.0137-8.0095,5.1793-9.9309,6.4428-3.2129,2.1128-6.2435,4.5982-9.3235,6.8952-7.1741,5.3502-14.65,10.934-20.5744,17.7765-4.6518,5.3728-8.6645,10.9124-12.1781,16.9229-2.1013,3.5945-4.0267,7.1866-5.9073,10.9538-1.7625,3.5306-5.8686,9.7121-5.7358,13.7596-1.5891,2.7819-2.2307,6.7992-2.9452,9.8832-.7963,3.4374-1.8372,7.5416-2.1824,10.8791-.9809,9.4824-1.6721,19.5041.6175,28.7519,1.113,4.4954,5.2049,20.9829,9.9255,20.3592,2.326-.3073,7.9216-6.0809,9.7282-7.6578,2.8001-2.444,7.8477-6.0894,8.5356-10.1861.9183-5.4682-2.7946-12.9062-4.9203-17.748-2.3428-5.3361-5.1023-10.454-7.5152-15.7516-2.1173-4.6488-.5891-8.2821.2082-12.9174.2181-1.2677.3482-7.4536,2.0833-7.9842,2.2408-.6852,7.0867,10.022,8.8218,12.029,3.4367,3.9752,8.7439,5.4622,13.6171,6.3404,3.8007.6849,7.5598.965,11.3147-.0679,2.5365-.6977,4.9635-1.6841,7.5543-2.3041,5.669-1.3566,10.9484-3.1986,16.461-5.0266,2.4181-.8019,5.1347-1.5667,7.4289-2.6024,1.8391-.8302,4.5227-3.0347,6.6307-3.2008,3.2592-3.6699,10.9067-6.9933,4.2579-12.7559-3.134-2.7163-8.5257-3.0774-12.4676-3.0885-6.9248-.0196-13.3036,1.0544-19.9547,1.274-3.2212.1063-8.573-.7172-11.6051-2.7348-16.6001-11.0463-1.6042-42.356,13.8794-46.3154,12.1341-3.1029,21.8173,8.3194,28.1992,17.1493,2.3752,3.2863,4.4709,9.3418,7.9935,10.6631,3.61,1.3541,9.7543-.2078,13.6429.0252.5382.0322,1.1603.3284,1.607.3505.6209.0306,1.7124-.4368,2.2705-.3688,17.698,2.1561,35.7833,8.2187,44.0113,26.1473,4.4095,9.6083,5.5544,20.5817,3.8539,31.2162-1.043,6.5228-2.5908,15.3396-6.4686,21.1627-.6468,5.6204-6.2922,12.5506-9.5241,17.0395-4.6583,6.4699-9.3603,13.0773-14.9328,18.781-.2386,7.4115-3.0908,14.4242-.4336,22.0341,2.9294,8.3892,11.1829,9.3151,19.0483,8.1501,3.8068-.5638,7.5612-2.8785,11.2408-4.2268,2.6239-.9614,5.1408-2.0258,7.6413-3.3209,1.7509-.9068,5.26-1.5665,6.501-3.0207,1.6767.0168,7.4176-3.8108,9.1495-4.7887,2.3855-1.347,4.6452-2.7195,7.0145-3.8916,5.1508-2.5483,9.7547-5.691,14.6772-8.5317,5.1122-2.9502,10.122-5.9808,15.3175-8.8818,2.4953-1.3933,5.0902-2.9608,7.4932-4.4681,3.7133-2.3293,2.7914-2.2582,2.3835-6.2521-.8399-8.2247-2.3857-16.1472-3.3214-24.2993-.2291-1.9959-.662-4.5524-1.0606-6.65-.6925-3.6439-1.1912-3.8775-4.4913-5.5517-5.2741-2.6757-10.6787-5.2133-15.6904-8.2361-7.602-4.585-14.3449-9.0478-20.9696-14.9188-4.1644-3.6906-7.6887-7.6363-11.5672-11.5868-3.3339-3.3957-5.4858-5.4639-5.5718-10.4433-.0585-3.3884-2.2744-14.7822,2.1335-15.4994,2.5775-.4194,9.3431,4.9396,11.5818,6.1532,3.6963,2.0038,6.8655,4.3616,10.2136,6.7718,7.189,5.175-2.3867,2.1139-3.9948,5.1731ZM408.1701,373.5955c-2.1009-1.4374-1.1732-12.937-1.4809-15.5606-.5081-4.332-.2459-8.4117-.8116-12.6043-.9295-6.8898-2.1198-13.5983-3.0568-20.4769-.4809-3.5308-.9933-7.1321-1.5409-10.691-.7452-4.8438-.9581-4.9879-5.0063-2.3446-2.5365,1.6562-5.1726,3.2783-7.7244,4.8867-1.5214.959-5.7718,4.5278-7.5297,4.4967-1.4223,1.1079-3.3548,1.7893-4.7689,2.9337-1.5269-.0582-2.8081,2.4736-4.56,2.5039-4.6072,3.8511-10.8541,5.9011-15.8892,9.1556-4.5337,2.9304-10.6992,4.7756-14.609,8.2298-2.8962-.0246-8.1806,3.6944-10.7644,4.8545-3.8412,1.7246-7.5685,3.6009-11.4007,5.1664-6.6347,2.7103-14.4112,4.3023-21.1823,1.2466-6.9533-3.1379-10.4733-14.5294-9.7049-21.6281.4691-4.3336.4856-9.0365,1.5268-13.3196.2739-1.1268,2.1697-8.6711,1.4003-9.0637-.2269-.1158-13.1673,10.0209-14.094,11.4181-1.4343,2.1622-1.555,5.7254-2.1833,8.3242-.8846,3.6586-1.9639,7.1797-4.1247,10.4655-.2291,1.994-3.3767,5.2859-4.6423,6.7384-3.0594,3.5115-6.7053,6.7821-10.2118,9.7317-4.5126,3.7958-9.5498,6.8582-14.136,10.5743-2.2876-.0122-5.0783,4.4323-7.5985,4.7981-2.1356,1.704-4.7965,2.7592-6.9687,4.3946-2.0097.0343-7.8845,4.4925-9.542,5.4444-2.7944,1.6047-5.3298,3.4552-8.2301,4.9028-7.5032,3.7448-14.8101,7.4673-22.5423,10.5344-5.5523,2.2024-11.4247,4.5811-17.1314,5.9049-2.3404.543-4.7193,1.038-7.0409,1.5639-1.3493.3056-7.597.382-8.1201,1.7217-1.4873,3.809,19.2199,6.6242,21.3331,6.6264,11.1774.0118,22.0179-.1081,32.5739-1.4963,6.6652-.8765,12.8429-2.4127,19.5183-3.1169,2.6501-.2796,5.6364-1.6518,8.3996-1.9792,4.2557-.5042,7.9568-.646,11.7575-3.2248,3.2798-.4879,6.8831-5.6695,8.6766-8.0399,1.951-2.5785,3.5676-5.1213,5.3212-7.8647,1.3037-2.0396,2.5093-4.3647,4.1105-6.1784,3.8603-4.3725,5.4108-.9885,5.9385,3.2197.9064,7.2295,4.9939,15.1794,12.2883,18.4193,3.6255,1.6103,3.9955-.6728,5.8566-3.6288,1.3159-2.0899,2.3607-4.391,3.9343-6.3994-.049-1.5233,3.182-4.9678,4.0307-6.1493,1.2796-1.7816,2.3977-3.7519,3.6696-5.536,3.3775-4.7376,7.6018-11.2331,11.8612-14.7499,7.9613-6.5733,14.646-12.4751,24.2247-16.0166,10.1327-3.7463,20.568-1.6695,29.7624,3.566,5.2689,3.0003,10.6852,7.4089,14.4097,12.3065,2.1103,2.775,4.3439,5.8879,5.3899,9.212.6318,2.0078.7386,4.7931,1.565,6.5829.9655,2.091-.5475,2.1385,2.8731,1.7874.4352-.0447,2.1284-.4075,2.5951-.5815,1.4861-.5541,3.0949-1.5188,4.4609-2.2551,1.8371-.9902,3.7549-2.1024,5.4027-3.4418,1.9233-1.5632,2.0985-3.9893,3.7158-5.3636ZM272.0268,210.2558v-.0136c-2.7614,0-4.9532-.8651-6.0067,1.2909-.5042,1.0318-.3848,4.4762-.5135,5.6846-.3145,2.9525-.8842,5.2625-1.6801,8.0114-2.4174,8.3498-8.2032,14.1253-15.3163,18.7077-.9382-.0175-3.2731,1.911-4.1297,2.3686-2.1492,1.148-4.3557,2.3493-6.5911,3.3195-2.5338,1.0997-5.1134,2.1166-7.6636,3.0407-2.7698,1.0037-5.6847,1.8894-8.4136,2.769-1.9688.6346-7.0199,1.2244-8.2292,2.9908-1.1431.0486-1.6735,1.268-2.7514,1.5969-1.3642.4162-4.3411.2198-5.5613.2435-1.5117.0293-3.2084-.3543-4.7787-.5679-2.1451-.2918-2.2979-.8211-3.2057.9138-1.0605,2.0266-.0072,7.1909-.0092,9.5652-.0035,4.1937-.7116,7.9436-1.8229,11.8996-.6957,2.4765-1.4948,6.9533-3.4386,9.0009-.1994,2.7891-5.32,7.4522-6.9142,9.3118-1.1204,1.307-3.6354,3.4323-3.3498,4.906.2803,1.4462,4.0602,3.5338,5.1633,4.347,7.5215,5.5451,15.4921,9.3739,24.533,10.9267,8.2258,1.4128,15.9826.8882,24.4501-.2869,1.3646-.1894,21.3476-5.2976,20.8743-6.4831-1.0034-2.5132-17.7918.8474-20.6743.5264-4.6898-.5223-9.5156-1.3341-13.296-4.693-8.85-7.8633-7.5026-20.8055-1.8208-30.4924,3.4448-5.873,9.341-12.7632,16.4213-13.7907,11.8806-1.7241,21.5073,6.1341,28.6736,14.9148,3.2495,3.9815,5.2271,8.6527,7.2529,13.3.7894,1.8109,1.2746,9.4085,3.1026,10.0215,1.9963.6694,8.0067-5.2718,9.457-6.4185,3.3542-2.6522,6.6771-5.3311,9.9249-8.1196,14.2012-12.193,30.579-31.379,25.091-51.4343-5.9567-21.7678-29.5309-27.357-48.7773-27.357ZM151.6112,386.239v-.0011c9.1172,0,16.507-2.5325,24.898-4.6487,3.3431-.8431,6.7729-1.9909,10.1472-3.1489,2.7664-.9494,6.6449-3.773,9.5422-3.9056,1.785-1.9301,5.7097-2.491,7.9258-3.657,2.7483-1.4461,5.6257-2.8922,8.4692-4.2791,6.0062-2.9295,13.305-5.8226,18.7475-10.1681,1.9568-.1322,5.5779-3.2483,7.213-4.3232,1.9652-1.2918,4.0433-2.4666,6.0307-3.7763,5.2374-3.4516,10.7558-7.1269,15.506-11.1952,2.7857-2.3858,5.7069-4.4618,8.2784-7.1688,2.607-2.7443,2.3676-3.0637-.7784-1.4415-6.0579,3.1237-12.0285,6.0048-18.4398,8.353-10.2035,3.7371-21.402,5.4083-32.2361,5.4785-10.3103.0667-22.1049-2.2431-31.4562-8.0541-5.6832-3.5316-10.7136-7.7865-15.023-13.0292-3.0447-3.704-2.6414-5.534-7.0907-2.6321-1.3234.8632-4.1314,3.3279-5.6558,3.5142-1.9821,1.9102-5.279,3.7573-7.661,5.0994-2.1637,1.2191-6.8935,2.419-8.3371,4.6524-1.805,2.7924-.29,10.2967-.2903,13.7546-.0004,4.9692-.0005,9.9384-.0006,14.9075,0,6.1967.85,11.8124,1.4104,17.7202.196,2.0663-.654,5.4244.8081,7.0816,1.4855,1.6837,5.5408.8674,7.9928.8674ZM317.9531,413.7944v.0087c14.8609,0,29.1446-2.9502,42.8804-8.0906,5.47-2.047,20.0224-5.3917,17.9482-13.1371-1.4044-5.2442-7.0838-9.3741-10.8082-12.6082-1.5687-1.3622-2.9789-2.7215-4.6293-3.8621-1.1744-.8117-3.5028-1.7452-4.5041-2.7637-2.0257-.1383-5.1844-2.4692-7.3339-3.1605-3.6181-1.1636-8.4167-1.2178-12.2235-.7491-4.9349.6076-10.6842,2.216-14.9892,5.2811-2.0052.2426-5.2721,3.3989-6.7428,4.6872-3.5568,3.1158-7.3687,6.1659-10.5016,9.7509-4.002,4.5796-7.7911,9.5419-11.3479,14.4241-1.4358,1.9708-3.6667,3.7019-2.0591,5.6997.8707,1.0821,5.341,1.9098,6.5674,2.2288,5.9434,1.546,11.2613,2.2907,17.7435,2.2907ZM129.1454,347.2036h-.0307c0-1.1767.7188-9.1735-.1337-9.7531-.9206-.6258-7.8641,2.573-9.1461,2.8843-2.6563.6449-5.9214,1.2457-8.4663,1.533-2.0155.2275-9.5213-1.2889-10.8933.0505-.752.7341.1476,3.9745.3679,4.9746.7994,3.6287.7808,8.4673,2.9997,11.7718.1766,4.0749,4.9987,9.5478,7.573,12.528,2.7571,3.1918,9.0165,9.9309,13.6049,10.6501,1.2682,1.4372,3.9847,1.328,4.8565.4956,1.151-1.099.0184-11.6198.0181-13.3183-.001-7.5218-.7502-14.3527-.7502-21.8165ZM235.3242,191.8478v-.0087c8.9328,0-1.3751-6.6952-4.6187-7.6319-3.0741-.8877-7.5913-1.2443-10.3323,1.0705-2.9552,2.4956-1.9651,6.5195,1.7174,7.271,4.5505.9286,8.995-.7008,13.2336-.7008ZM412.0042,282.6319c-.084.3855-.0015.7162.2475.9921.9867.4158,8.6031-6.2233,8.8915-7.3438.7833-3.0429-4.347-9.8052-7.2979-10.3226-.4188-.3996-3.6012-3.6534-4.581-2.8667-1.0015.8042.2517,5.4628.4878,6.5351.5109,2.3201.9383,4.9228,1.1875,7.2793.1491,1.4102,1.3708,4.5181,1.0645,5.7265ZM248.7049,292.8607v-.02c5.2008,0-3.4453-5.3865-5.2912-6.266-3.5693-1.7007-9.5231-2.7086-12.2836,1.0141-6.0123,8.108,14.9814,5.2719,17.5748,5.2719ZM46.4522,235.658c-2.9108.9987-14.557,10.4162-6.7719,10.0427,6.3997-.307,8.0632-4.6621,6.7719-10.0427Z"/>
    <path class="cls-1" d="M440.2797,325.689c0-25.8363-6.6261-50.7527-9.4091-76.3342-1.3853-12.7341-4.3688-26.0113-6.6382-38.7592-2.1486-12.069-4.4971-24.2469-6.0716-36.2577-.508-3.8754-1.0793-7.9486-1.5089-11.7175-.4467-3.9194-1.1516-5.6267-2.4166-9.0245-1.4347-3.8537.4597-6.4975,1.84-10.1342.7498-1.9755,4.2981-13.7066,6.4708-11.0003,1.275,4.5662,5.1358,9.8993,7.1182,14.3452,2.594,5.8173,5.6313,11.3698,8.2168,17.199,1.4872,3.353,2.6779,6.9752,4.0018,10.3468.9926,2.5278,3.3314,7.9239-1.6157,4.8355-2.7402-1.7107-10.1895-13.0497-9.0671-3.9234.5195,4.224,1.7001,8.376,2.2179,12.6417.7536,6.2071,3.2241,12.4665,3.8489,18.684,1.4224,14.1545,5.2442,27.9027,6.8486,41.9332,1.8681,16.3365,4.0318,32.6896,5.8865,49.0748,1.0075,8.9009-1.2014,17.5287-2.7739,25.8463-.6471,3.4227-.7231,8.5254-2.6801,11.4985-4.3534,6.6137-4.2396-6.7735-4.2396-9.254h-.0287Z"/>
    <path class="cls-1" d="M32.3494,219.9004c-.4513-.5464-.6961-.9999-.3026-1.5478.0547-2.4282,2.8339-2.7801,4.5223-3.6424,3.3095-1.6903,2.2515-.5911,1.7987-3.607-.4903-3.265-3.1857-9.5619-.8871-12.7596.249-4.3892,1.5043-2.421-1.6618-4.4272-2.263-1.4339-3.7726-1.6619-5.142-4.3115-1.3626-2.6364-2.6953-9.5231-.9262-12.2288-.125-1.1616.8669-2.8047.5483-3.8968.1551-.3624.8258-2.583.3003-2.9549-1.1189-.7916-3.5482,11.6809-3.6936,12.4721-.6119,3.3291-1.011,9.5317-4.4596,11.3314-8.9234,4.6568-12.6434-13.9254-10.757-18.942,1.7169-4.5657,1.5364.4077,1.6253,2.3478.1601,3.4938.4536,11.4596,5.2197,12.2527,7.728,1.2861,8.0207-17.6475,9.9069-22.3392,1.3555-3.3717,4.2309-7.0814,4.4621-.9477.1249,3.315-.8922,6.6876-1.0602,10.0118-.1492,2.9526-.417,6.7091,1.7659,9.1255.9682,1.0718,2.3752,1.9103,3.861,1.8667,2.9679-.0871,1.8573-.3749,1.8785-3.132.069-8.9768-3.2383-18.9231-4.5795-27.7572-.6822-4.4937-1.0896-9.1409-2.0289-13.584-.8056-3.8107-1.9993-6.9143,1.2345-10.3947,1.364-.0447,7.8043,14.0938,6.6712,15.0073-1.0719.8642-2.4518-2.6375-3.5287-2.2491,1.1302,6.7155,1.656,14.3456,3.7593,20.8345-.2057,4.202,1.4627,9.0263,2.0925,13.1814.1475.973.2585,6.1297,1.4479,6.1539,1.5007.0306,3.0496-3.4579,3.3933-4.5568.7272-2.3254-5.0853-24.1088-1.7434-24.1841,3.9762-.0896,6.2862,19.9999,7.5331,22.7356,1.8235,4.0009,12.6994,10.9535,12.0454,2.7685-.5818-7.2805-8.3077-13.5139-9.2769-20.9062-.2169-1.6543-.5949-1.0464.358-3.5059,1.3451-3.4721.8553-2.2165,2.7014-.8316,1.0677.8009,6.2415,6.7699,2.0298,5.629-.2739,3.6008,4.3749,9.3002,5.6478,12.5241,1.3079,3.3125.9674,5.5229,1.3949,8.8108-1.4544,5.3725-4.908,10.9864-11.3205,7.7542-2.2786-1.1485-3.9833-3.5362-5.0751-5.7484-.1867-.3783-1.2799-5.1693-1.9958-5.3242-.2806.2931-.5087,2.2074-.4237,2.5487-1.0196,3.2932-3.5857,5.449-4.7152,8.2882-.9337,2.347.1116,6.432-.2325,9.0903-.4644,3.5886-4.7419,10.1726,1.7213,9.8157,2.8686-.1584,14.1509-7.3658,16.2591-5.4073,2.3911,2.2213-13.1365,7.1594-14.2741,7.7327.6018,3.2552,14.2038.5048,15.7884.0954,6.075-1.5696,12.0671-4.443,17.4361-7.6598.8877-.5319,4.5882-2.2289,4.3635-3.6611-.3021-1.9257-5.002-2.1215-6.2766-2.315-3.1968-.4853-14.9607-1.9075-11.8218-8.2403-.2954-4.5144,3.6992-10.4945,6.7914-13.4649,4.3097-4.1398,6.1643-3.2639,9.2507.7785,4.2714,5.5943,4.8634.8511,7.7997-3.3617,2.66-3.8163,6.1418-8.1111,10.5118-10.0444,4.7489-2.1009,10.3911-.0961,13.8377,3.6187,3.403,3.6678,2.5825,8.875.1681,12.9378-4.4566,7.4994-17.7174,9.8363-25.6703,8.2134-2.0211-.4125-2.7289-1.0632-4.2329-.4776-3.0838,1.2007.0524,2.5332-2.0562.9783.6152-.9377.7355-1.8944.3608-2.8701-.9454-.8821-1.835-1.8173-2.6687-2.8056-1.481-1.7807-1.3078-3.6402-4.0062-3.3182-2.5685.3065-8.4072,6.0114-7.1616,8.4656,1.6159,3.1838,10.6681,2.4092,13.5088,3.4164,5.1146,1.8134,5.8827,6.2699,3.7144,11.0324-2.0464,4.4949-7.3633,7.2033-11.4305,9.6309-4.7334,2.8252-9.8567,3.9414-14.6993,6.2472-4.5087,2.1468-4.1332,5.8716-5.557,10.4907,3.0416,15.7365,18.7643-3.1216,23.7759-8.4335,4.2813-4.5379,8.6405-9.0067,14.4945-11.4446,4.3272-1.8021,13.6892-2.72,14.3788,3.8023.0886.8385-.4304,4.6796-1.219,5.0036-.7729.3176-3.0613-2.1928-4.1119-2.6671-5.1927-2.3444-10.384.5786-14.5467,3.6437-4.6259,3.4061-8.3568,7.7622-12.2522,11.9356-2.9547,3.1656-9.8685,11.7779-15.0929,9.406-4.7855.2232-7.4677-6.2213-7.5341-10.0794-.0475-2.7607,1.1515-5.3065,1.9287-7.8646.8751-2.8803,1.7396-1.9746-.0705-3.0153-.8734-.5021-4.681.0323-6.0055-.225-2.4862-.483-4.4476-1.3516-6.5441-2.757-1.4202-.952-1.7269-1.7541-3.3701-1.8329-2.1371-.1025-5.9551,2.7992-7.8757,3.745ZM90.1098,182.8347c2.2621,2.9948,13.4316.2487,16.3131-.5834,4.5016-1.3,11.2024-2.9706,6.3042-7.7509-8.9914-8.7749-17.7174.1254-22.6173,8.3344ZM40.4336,194.2285c-.5125,1.4669-.9347,13.3128,1.4362,12.7054.2542-1.6447.0183-12.2189-1.4362-12.7054Z"/>
    <path class="cls-1" d="M254.03,23.8956c-1.3787.2568-2.0747,2.9436-2.9527,3.7844-1.392,1.3329-4.4365,2.4684-6.7189,2.9721-5.6371,1.2439-11.5789,2.5137-17.2709,3.7006-5.9411,1.2388-11.5398,2.9173-17.2936,4.3605-2.4686.6192-4.3738,1.8384-7.1166,2.1664-2.278.2724-5.193.9571-7.5495,1.5458-2.2816.57-4.0711,1.1758-6.5846,1.5734-2.6094.4128-6.0956,1.6343-8.6212,2.3277-2.13.5847-4.7742,1.5969-6.6516,1.8108-1.7206.196-3.0284.7698-4.5131,1.2331-1.6942.5286-3.2757.2091-4.9443.691-3.891,1.1238-7.8792,2.7664-11.8642,3.9241-4.6393,1.3479-9.1297,2.5712-13.9029,3.721-4.5679,1.1004-9.4748,3.5222-13.9301,4.817-2.0358.5917-4.1977,1.1583-6.2371,1.9077-1.7069.6272-4.6179,2.9777-6.5282,3.0406-4.065.1339-2.0367-7.4777-1.15-10.0857-.0707.208,1.6519-2.7134,1.4849-2.4778.9547-1.3467,1.1366-2.1512,2.9743-3.1088,4.3881-2.2866,9.6029-2.9693,14.1361-4.4855,9.1276-3.0528,18.2232-6.186,27.5218-8.4891,9.6941-2.4011,18.8927-5.1563,28.5308-7.0985,5.5421-1.1168,11.4587-3.2487,17.1133-4.7035,6.2752-1.6145,12.6873-2.5431,19.1-4.2822,6.0385-1.6376,12.9227-2.7705,19.2014-3.9358,3.7705-.6998,8.0144-2.443,11.8403-2.741,6.5248-.5082,3.2009,4.263,1.9266,7.8317Z"/>
    <path class="cls-1" d="M275.9163,55.6502c9.9462,0,20.7244,1.018,29.8949,4.9775,7.5363,3.2539,5.7184,10.798,1.5033,16.5337-1.5838,2.1552-3.3648,4.3304-5.2124,6.2565-1.6879,1.7595-7.0209,9.0519-9.6451,9.0939-7.3211,4.9518-18.5925,6.869-26.9397,7.5442-1.1068.0895-7.207,1.23-8.2649.5725-3.9627-2.463,2.6191-4.6116,4.5243-5.4,4.1384-1.7125,8.1003-3.4233,12.2343-5.4015,3.1876-1.5253,6.1484-3.3134,9.3736-4.5886,1.8841-.7449,3.662-1.4166,5.4911-2.3988,2.8103-1.5091,4.2427-1.928.3365-3.4223-5.8557-2.24-11.9996-1.677-18.1383-2.3686-3.0618-.3449-6.5413-.727-9.9586-.7207-1.6661.0031-9.003,1.0417-9.7528.2989-1.7967-1.7797,6.7216-11.4275,8.2592-13.4404,1.8346-2.4018,3.491-5.436,6.0267-6.7764,2.8612-1.5124,7.016-.7962,10.268-.7962v.0363Z"/>
    <path class="cls-1" d="M28.8455,330.485c0-14.1395,3.91-30.1736,8.3685-43.5982,1.8386-5.5358,3.6172-11.2043,5.4615-16.6438.6574-1.939,5.4596-14.0169,6.6536-8.6149.702,3.176-2.3158,9.1168-3.3472,12.1824-1.3247,3.9374-2.3483,8.182-3.1569,12.1261-1.8338,8.9442-4.8402,18.0093-6.1529,27.3548-1.1316,8.0563-1.8859,18.1025,3.2361,25.1714,3.9377,5.4345,9.5987,4.4214,14.0126.4527-.0114-1.2956,1.7736-1.8889,1.7695-3.15,1.415-.7998,1.4056-3.4824,2.3906-4.2808,2.2478-1.8219,1.257.0273,2.7038.6849,1.2236,3.6132-1.7519,9.7736-2.8501,13.0086-1.5996,4.712-4.4036,9.7121-9.3721,11.6629-15.0521,5.9098-19.7077-15.871-19.7077-26.3561-.0031,0-.0063,0-.0094,0Z"/>
    <path class="cls-1" d="M204.0554,97.6402c3.1405.898,6.9809,4.308,9.9233,5.9725,1.7355.9818,8.7838,3.8963,9.4332,5.3955,1.0048,2.3197-5.579,11.6838-7.1301,14.4067-2.0333,3.5695-2.2845,3.6436-6.0386,1.5132-3.8403-2.1793-7.6199-4.5484-11.4108-6.8241-1.8521-1.1118-4.4341-1.5301-4.5086-4.0355-.0466-1.5681,2.3781-4.201,3.1336-5.5611,1.4045-2.5283,3.9358-9.8486,6.5981-10.8673Z"/>
    <path class="cls-1" d="M24.5629,210.0989c-2.1272-1.335-2.0993-6.361-1.1713-8.4544,1.9197-4.3304,7.6317.5583,9.365,3.2257,1.0182,1.567,1.9776,4.3763.7083,6.1163-1.2947,1.7748-2.4566.8137-4.4333.8084-3.1075-.0083-4.3584.9818-6.9907,2.831-.6552.4603-5.825,4.1226-5.41,4.4089,1.9072,1.3155,6.6152-.4833,8.5875-1.3158.8674-.3661,4.8949-3.5792,5.006-3.5521,1.7412.4254-2.2409,4.6533-2.7073,5.0419-2.3657,1.971-7.8612,4.3288-10.9426,3.05-7.2409-3.0051,5.4493-10.4599,7.9885-12.16ZM26.4717,207.6044c2.3761.0179.7827-3.1922-1.1021-3.0065-2.3741.234-.7802,3.3827,1.1021,3.0065Z"/>
    <path class="cls-1" d="M100.8889,152.7267c-2.2203,0-4.17-.3606-4.7704-2.7198-.7554-2.9681,3.3332-5.12,3.394-7.3445.0732-2.6805-2.7556-2.8125-.5904-6.1973,3.0474-4.7639,7.9861-1.2339,4.4162.9717.1055-.0652-3.7531-1.9497-2.8665,1.0039.9634,3.2094,6.0417-1.5472,6.8691-.9638,2.3583,1.6628-9.1765,7.6547-8.9443,9.9616.5852,5.8135,11.3031-1.6319,12.7714.0931,1.9748,2.32-9.255,5.153-10.279,5.153,0,.014-.0001.028-.0002.0421Z"/>
    <path class="cls-1" d="M90.6711,202.8652c.8008-4.7357,11.7291-6.9712,15.7678-8.5077,3.7685-1.4337,7.5389-2.8369,11.3787-4.0711,1.7492-.5622,4.6062-1.9921,3.0229,1.1261-1.6554,3.2602-12.6814,5.3336-16.1122,6.6054-1.7794.6596-13.9735,6.2715-14.0573,4.8474Z"/>
    <path class="cls-1" d="M64.647,155.2126c1.3315-4.8223,12.5144-7.2133,17.0135-8.8944,3.0989-1.1579,6.1951-2.3012,9.3414-3.3246,1.7748-.5772,5.02-2.6979,4.1357.2781-1.0253,3.4503-12.9699,5.8766-15.9873,7.0178-3.1409,1.1879-6.2221,2.4505-9.2861,3.8225-1.1003.4927-5.1975,3.4336-5.2173,1.1006Z"/>
    <path class="cls-1" d="M73.0882,138.4507c-1.7909.2797-3.2124-1.4875-4.813-1.3045-1.2884.1473-2.744,2.7692-3.6181,2.516-1.4048-.4069,1.3213-4.014,1.6124-4.3178,1.5035-1.5693,2.248-1.3602,4.2307-1.5821,3.2679-.3658.823,1.2097,2.5911.3488,1.0496-.5111,1.9836-3.4047,3.0929-4.2835,3.8274-3.0325,7.3905-1.4306,5.3878,3.343-1.3834,3.2975-4.9696,5.3908-8.4838,5.2802ZM74.7681,134.7423c1.357.2192,7.5143-2.1263,4.419-3.672-1.8802-.939-3.9103,2.4738-4.419,3.672Z"/>
    <path class="cls-1" d="M83.2696,160.4652c-1.7785-.2301-1.2928-2.5199-3.4368-1.1471-1.4297.9155-1.4265,6.2001-1.6365,7.5017-1.4227,8.8182-2.0102.6728-4.8141-2.2047-1.171-1.2017-8.6669-3.0969-5.4048-6.5271,3.9759-4.1808,6.9759,7.8085,8.668,7.7672.4415-2.6349.5159-8.5137,2.9042-10.1221,2.8989-1.9523,6.0653,2.0678,3.72,4.7321Z"/>
    <path class="cls-1" d="M35.9997,230.417c-3.8651-1.7802-5.2103-6.7732-.009-8.7623,4.8076-1.8384,3.6027,4.9224,3.8806,7.3409.1057.9204,1.5166,1.0472.8395,2.4411-1.2133,2.4978-1.0792-.8503-2.7919-.0408-3.3729,1.5942-7.7885,8.9094-12.6305,7.5327-.9336-.2655,4.6575-3.6094,4.783-3.6865,2.1611-1.3279,4.4238-2.7224,5.9284-4.8252ZM37.5012,226.3522c0-2.2791-2.952-2.8598-2.9961-.7593-.0245,1.1657,2.8152,2.9981,2.9961.7593Z"/>
    <path class="cls-1" d="M23.3318,154.7915c-1.5055-1.7661-3.6957-1.141-3.4677-4.2053.1453-1.9537,3.0059-5.3572,5.1756-4.956,2.2723.4201,2.0044,1.9808,2.095,4.0389.0451,1.0259-.5413,1.9309-.3298,2.9275.1299.612,1.334.9024,1.3668,1.3808.0902,1.3174.0784,2-.9571,2.6924-.29.1939-1.4213-1.4539-1.9557-1.2333-.5632.2324-.6837,1.0753-1.1681,1.3169-.5444.2715-11.008,8.4813-11.5163,6.302-.3019-1.2943,9.3971-6.7384,10.7574-8.2638ZM23.6142,148.5108c-1.7215,0-1.9358,1.1673-1.1959,2.3081,2.3187,3.5748,3.9195-2.2057,1.1959-2.3081Z"/>
    <path class="cls-1" d="M51.1668,151.1919c-6.2983,9.0023-7.0878-7.0124-4.5734-6.1463,1.3236.4561-.8445,3.7339,1.3277,4.2349,2.8935.6674,1.9598-4.8687,3.3025-4.7916,1.2795.0734.06,3.3774,2.057,3.3016,2.0664-.0784.6823-3.5431,1.3654-4.4769.7998-1.0932,1.7755,4.788,1.6061,5.4008-.7655,2.77-2.4056,3.4814-5.0855,2.4774Z"/>
    <path class="cls-1" d="M64.7758,222.5202c1.0831.6315,5.3159,2.2658,5.8484,3.4745.416.9443-1.4356,5.0478-2.4379,5.4647-.7388.3073-5.5428-1.8148-6.0426-2.8765-.813-1.7268,1.5919-4.6165,2.6321-6.0627Z"/>
    <path class="cls-1" d="M91.3374,154.8233c.8944.3846,5.5263,2.3931,5.8543,3.4113.302.9374-2.0164,5.154-2.8439,5.4235-.7556.246-5.8519-2.6041-6.0625-3.2179-.3492-1.0175,2.0584-5.5798,3.0521-5.6168Z"/>
    <path class="cls-1" d="M67.4725,203.2113c-.0065-.0774-.3976,5.1742-1.5405,4.5263-.8786-.498-.1734-4.0088-.3651-4.8617-.4475-1.9908-3.3468-4.1434-3.5064-5.6776-.1655-1.5914.0753-3.0758,2.0385-2.5747,2.3666.604,3.5299,7.1041,3.3735,8.5877Z"/>
    <path class="cls-1" d="M50.946,138.5723c.0598.4464-.176,5.0972-1.5756,4.2167-.4406-.2772-.2879-5.3546-.8026-6.5046-.7461-1.6669-3.4012-3.3753-3.0162-5.1433,1.213-5.5705,5.4681,5.142,5.3944,7.4312Z"/>
    <path class="cls-1" d="M363.0028,274.202c-.5617.7302-1.4314,1.1576-1.5317,2.2019-.627.602-.5966,1.5745-1.2259,2.1752-.3782,1.7047-2.5381,2.76-2.5693,4.6806-1.3944,1.6212-3.1898,7.5407-5.0749,7.9347-.9753.2038-7.4013-4.7868-8.4771-5.4196-2.7187-1.5994-5.3993-3.2758-8.0978-4.8741-3.2257-1.9105-2.7071-1.2839-.9654-4.5105,1.8284-3.3873,3.5644-6.8356,5.37-10.1781.2493-.4615,1.2252-2.9553,1.6491-3.2074,2.2315-1.3267.7389-.1734,3.0479.615,2.191.748,18.144,9.463,17.8752,10.5823Z"/>
    <path class="cls-1" d="M283.208,253.87c7.9793,0,11.977,6.3762,9.6084,13.8769-1.0784,3.415-3.2393,5.4179-6.7842,6.314-1.689.427-6.6979.8391-8.0704-.8645-4.0006-.7024-5.5848-7.9333-4.958-11.1637,1.0472-5.3971,5.1504-8.1689,10.2042-8.1689v.0062Z"/>
    <path class="cls-1" d="M291.231,239.8251c0,12.8095-18.628,14.0014-19.9054.9005-.5382-5.5202,2.2609-10.2574,7.5269-11.3838,7.4782-1.5997,12.3646,3.5868,12.3646,10.4832h.0139Z"/>
    <path class="cls-1" d="M155.8806,357.0283c0-4.8358,1.0727-10.313,3.2715-14.7279.6519-1.3089,7.0377-13.4399,7.2809-13.2667.8443.6015-.5246,3.0661-.5489,3.8411-.108,3.4455.0155,1.6214,1.751,3.5239,2.2064,2.4188,5.9422,3.8509,8.3985,6.1174,4.6954,4.3325,6.6851,12.6385,2.173,18.0663-.31,4.929-9.6583,7.2888-13.2035,7.2998-7.0436.0218-9.0933-4.102-9.0933-10.8539h-.0292ZM165.2352,357.8947v-.0158c2.0487,0,9.0277-1.4852,10.0461-3.7133,1.1227-2.4561-4.2751-5.3777-6.1526-6.8795-3.706-2.9644-5.6232-4.277-7.7491,1.0222-1.7004,4.2385-1.843,9.5865,3.8557,9.5865Z"/>
  </g>
</svg>