<?xml version="1.0" encoding="UTF-8"?>
<svg id="Kalaam" xmlns="http://www.w3.org/2000/svg" viewBox="0 0 208.4208 205.5844">
  <defs>
    <style>
      

      @import url('../../CSS/SvgStyling.css');


    </style>
  </defs>
  
  <g class="content">

    <rect id="bg" class="bg" width="208.4208" height="205.5844"/>


    <g>
      <path class="cls-1" d="M150.7261,119.2492c.7574-.9726.766-1.3599-.6627-2.6682-2.3153-2.0657-5.7409-4.5101-10.2855-7.316-8.7448-5.4311-14.6406-9.0633-19.4262-15.3292.3701,8.2714.6025,24.2806,1.5321,28.7821.5939,2.8145,1.4804,4.7081,2.6682,5.6979,6.111,4.6736,21.5865-3.9248,26.1741-9.1665ZM153.1705,117.0286c0,6.4811-2.5821,9.8465-8.1337,13.823-3.1588,2.2723-6.1627,3.8301-9.0288,4.665-5.0437,1.5407-12.5233,2.3669-15.596-3.1072-1.0415-1.7731-1.7558-4.7081-2.1432-8.7964-1.3341,6.55-2.6424,10.7244-3.9248,12.4975-2.8662,3.9937-6.111,6.8254-9.7604,8.5038-1.4804.6886-3.9679,1.489-7.4709,2.41-2.3497.6111-8.805,2.1604-8.805,1.4374,0-.198.3443-.525,1.0415-.964,3.2018-1.8247,8.4005-4.9577,15.6046-9.3903,8.082-5.2331,12.1274-12.945,12.1274-23.153,0-13.3582-.6197-25.0208-1.8505-34.9792-.3443-3.2535-1.0328-7.8927-2.0743-13.909.5939-3.4945,1.0156-5.586,1.2652-6.2832.3529-.9382.6714-1.007,1.0328,0,1.5751,5.1298,2.8575,11.6626,3.8388,19.5983.0602.4562.1205.9296.1635,1.4374.2238-.3701.4648-.68.7316-.9124,4.0884-3.6494,12.8676-8.5124,26.329-14.5804,12.2479-5.4999,26.8971-11.2925,29.6514-8.3919.4906.525.7402,1.3943.7402,2.6252,0,2.9178-1.7214,6.4811-5.1729,10.7244-2.7457,3.2793-6.2315,6.6361-7.9874,10.208-1.0673,2.169-1.1792,1.9108-.6627-.5164.2754-1.3341,2.7457-6.1024,3.6924-7.1697,3.8474-4.3982,6.1627-7.2558,6.9545-8.5813.0516-.1549.0689-.3012.0689-.4476,0-.8349-1.0759-1.2566-3.2535-1.2566-3.4514,0-11.5851,2.935-24.4097,8.805-12.7299,5.8528-21.4833,10.6642-26.2516,14.4513.0258.284.043.5853.0689.8865l6.8168,3.1502c3.9162,1.8161,2.2809,2.935-1.7731,2.2206,1.4718,1.971,4.7769,4.4843,9.9067,7.5398,6.3606,3.701,10.449,6.2832,12.2737,7.7636,3.9937,3.2104,5.9905,6.4295,5.9905,9.6916Z"/>
      <path class="cls-1" d="M113.0099,124.052c-.5422,4.4929-.9124,6.7307-1.1017,6.7307-.198,0-.5681-1.8419-1.1189-5.543-.8779-5.9217-5.2761-12.6524-13.1602-20.1922-9.5625-9.1751-16.5858-16.4912-21.0787-21.9653-1.1361-1.6267-2.6596-3.8215-4.579-6.5844-.6455-.9382-1.3083-1.6009-1.9968-1.9968-.3443-.241-.525-.6111-.525-1.1103v-4.8027c0-.9898.1807-1.4804.525-1.4804.1894,0,.6111.2238,1.248.6714l9.1751,7.0234c.7402.5336,1.1103.9296,1.1103,1.1792s-.3012.3701-.8951.3701c-.7316,0-1.9968-.198-3.7699-.5939,1.489,2.0227,5.104,5.9389,10.8793,11.7573,4.1916,4.1916,8.3833,8.3833,12.5663,12.5749,8.5296,8.6845,12.7987,16.1038,12.7987,22.2665,0,.5422-.0258,1.1017-.0775,1.6956Z"/>
      <path class="cls-1" d="M94.9436,120.1444c-1.0931-5.4741-6.068-2.7801-6.068-2.0915.8349.7746,6.5328,5.4913,6.068,2.0915ZM31.6644,151.6463c0-1.1964,41.2279-15.4841,49.0775-27.2758.5939-.921,1.2825-2.2809,2.0743-4.1142,3.8646-8.719,15.6304-13.8316,15.6304-.2926,0,3.1072-2.0313,7.557-3.8043,7.557-2.6079,0-6.0938-2.1173-10.4576-6.3692-3.1244,10.3113-9.0546,14.6923-19.4262,20.657-10.01,5.7581-7.9529,4.3982-18.9614,7.0922l-14.1328,2.7457Z"/>
    </g>
    <path class="redcircle" d="M168.4701,168.9464c-.9281,0-1.8546-.3659-2.544-1.0914L43.1291,38.7177c-1.3364-1.4055-1.2814-3.6283.1241-4.9647,1.4055-1.3356,3.6275-1.2806,4.9639.1248l122.797,129.1373c1.3364,1.4055,1.2814,3.6283-.1241,4.9647-.68.6462-1.5499.9666-2.4199.9666Z"/>
    <path class="redcircle" d="M104.3996,1.7083C48.5579,1.7083,3.1259,47.1434,3.1259,102.9899s45.4319,101.2737,101.2737,101.2737,101.2816-45.4312,101.2816-101.2737S160.2462,1.7083,104.3996,1.7083ZM104.4001,192.6793c-49.5613,0-89.8836-40.3215-89.8836-89.8836S54.8387,12.9051,104.4001,12.9051s89.8906,40.3251,89.8906,89.8906-40.3251,89.8836-89.8906,89.8836Z"/>
  </g>
</svg>