<?xml version="1.0" encoding="UTF-8"?>
<svg id="Layth" xmlns="http://www.w3.org/2000/svg" viewBox="0 0 333.0911 333.4967">
  <defs>
    <style>
      
      @import url('../../CSS/SvgStyling.css');
      
    </style>
  </defs>
  
  <g class="content">

    <rect id="bg" class="bg" width="333.0911" height="333.4967"/>

    <path class="cls-1" d="M127.0406,255.2463c4.101-7.2367,9.6799-13.1378,15.899-18.7538-1.556-1.373-2.9707-2.8426-4.6028-4.0079-2.2484-1.6054-4.6569-2.9873-7.0042-4.4532-1.9853-1.2399-3.971-.8908-5.9241.0751-1.0818.535-2.1122,1.1749-3.1985,1.6998-.4157.2009-.9225.2134-1.3878.3117-.0355-.5335-.2088-1.1027-.0811-1.5938.4026-1.5487.9296-3.0647,1.3858-4.6.3425-1.1526.6074-2.3297.9838-3.4705.5252-1.5918,1.8654-2.4304,3.245-3.1135,4.4463-2.2015,9.1375-3.661,14.0632-4.2918,2.3327-.2987,4.6884-.6872,7.025-.6363,6.7694.1474,13.4608.9979,19.776,3.5986,1.8995.7822,3.6261,2.0377,5.3305,3.2223,1.2415.8628,1.4246,2.199.8343,3.5596-.9737,2.2442-1.9982,4.4667-3.0356,6.6824-.1166.249-.4284.4466-.6939.5798-4.2511,2.1327-8.5095,4.251-12.9109,6.4448,1.4976,1.3891,3.0577,2.482,4.8358,3.1354,2.3182.8519,4.667,1.8004,7.0842,2.1604,3.4626.5156,6.9846.6899,10.4905-.1194,3.0025-.6931,5.7149-1.9831,8.265-3.6286,1.1356-.7327,2.1467-1.6815,3.1329-2.6179,2.5889-2.4584,5.1277-4.9693,7.7012-7.444.339-.326.7286-.6702,1.1586-.8111.4387-.1438,1.1133-.2375,1.3962-.0038.3003.248.3978.9225.3439,1.3826-.1311,1.1195-.4534,2.2156-.6053,3.3338-.3904,2.8757.7692,5.1097,3.1835,6.5571,2.598,1.5575,5.4398,1.992,8.5205,1.746,5.2395-.4183,8.7086-3.2312,11.3591-7.4698,1.3569-2.1699,2.8141-4.2769,4.2246-6.4133.0799-.121.1168-.3105.2257-.3657.577-.293,1.1706-.5532,1.7584-.8249.147.6371.4929,1.3047.4006,1.905-.2093,1.3617-.6525,2.6859-.9667,4.0333-.3403,1.4591.3562,2.6422,1.3133,3.5531,1.1819,1.1249,2.4845,2.235,4.1946,2.4548,2.0769.267,4.1966.5328,6.0507-.8502.6296-.4695,1.0381-.9742.1722-1.6726-.4491-.3622-.8125-.8593-1.1246-1.3524-.203-.3207-.4259-.8007-.3288-1.1125.8438-2.7103,1.7564-5.3992,2.6564-8.0918.0442-.1324.1615-.2403.2815-.4124,1.2089.2429,1.5265,1.3048,1.9013,2.1837,1.7143,4.0204,1.2559,8.0843.1524,12.1644-.6429,2.3774-1.7646,4.5206-3.3371,6.3486-1.5251,1.7728-3.5153,3.0014-5.9335,3.2268-1.1523.1074-2.3239.0555-3.4846.0143-1.5271-.0541-2.7092-.9699-3.678-1.9561-1.1954-1.217-2.1117-2.7081-3.1498-4.0798-.1534-.2026-.3128-.4007-.3428-.439-1.6027,1.975-3.0819,4.0613-4.8317,5.8886-2.2831,2.3844-5.1617,3.712-8.4756,4.204-2.7716.4114-5.4708.1492-8.006-.8316-2.9912-1.1572-4.8418-3.4964-5.4153-6.7115-.2942-1.6495-.4882-3.3168-.7315-5.0042-1.0987-.0492-1.795.5343-2.4202,1.2227-2.0622,2.2708-4.0418,4.6223-6.1952,6.8025-1.174,1.1886-2.5851,2.1669-3.9755,3.1134-4.2559,2.8969-9.0495,3.9053-14.0762,3.344-6.9626-.7775-13.0798-3.7256-18.5902-7.9836-1.2789-.9882-2.5356-2.005-3.8213-3.0235-5.5424,3.3385-14.7195,11.7805-15.4366,14.2673.7537.1215,1.4965.2911,2.2481.3528,2.1694.1779,4.3403.3942,6.5143.4489,7.4682.1879,14.9381.3066,22.407.4665,2.2617.0484,4.5286.0634,6.7823.2356,5.2588.4019,10.5547.5396,15.6465,2.1977,3.3907,1.1041,6.011,3.2025,8.0341,6.0562,2.4402,3.4422,3.5491,7.3039,3.6297,11.541.0878,4.6098-.5009,9.0805-2.0062,13.4355-1.6767,4.8508-4.0729,9.2956-7.4251,13.2016-1.4642,1.7061-2.8338,3.5134-4.444,5.0703-3.2756,3.1672-6.8086,6.0285-10.755,8.3571-4.2829,2.5271-8.8413,4.3134-13.6908,5.3961-4.2388.9462-8.5451.9391-12.8244.7038-3.4198-.1881-6.8001-.8895-10.0266-2.1681-5.1646-2.0465-9.3436-5.2501-12.288-10.0382-2.0549-3.3417-3.3867-6.9685-4.1605-10.7529-.5933-2.9016-.7677-5.9026-.9487-8.8703-.1478-2.4242-.1986-4.8791.0084-7.2946.3318-3.87.7678-7.7439,1.4349-11.5683.5107-2.9278,1.4462-5.7815,2.1782-8.6123-2.0612-.8256-4.3018-1.5176-6.3408-2.5923-2.4796-1.307-4.879-2.8124-7.1507-4.4564-3.0857-2.2331-5.5968-5.1069-7.1078-8.5947-1.2664-2.9232-2.1999-6.0304-2.921-9.1396-.8241-3.5529-1.2485-7.1983-1.8509-10.8028-.1175-.703-.2547-1.4027-.3572-1.9633-.8867,2.4422-1.5598,5.0614-2.7674,7.4052-1.1935,2.3166-2.8864,4.3849-4.4419,6.5022-.7191.9788-1.6199,1.8268-2.46,2.7137-4.1997,4.4334-8.9117,8.2321-13.9916,11.626-4.5582,3.0454-9.3218,5.6211-14.5281,7.3425-3.1372,1.0373-6.3267,1.7283-9.6702,1.8259-2.5909.0757-4.9597-.2263-7.1243-1.762-2.656-1.8843-3.8867-4.6187-4.6203-7.6181-.7185-2.9374-.4452-5.9227-.2979-8.9207.237-4.8252,1.4768-9.3971,3.2317-13.8172,1.2282-3.0936,2.5095-6.2204,4.6002-8.887.1086.0265.2171.053.3257.0794-.1432.6643-.2133,1.355-.442,1.9884-1.1134,3.0842-2.3603,6.1232-3.3842,9.2361-1.0029,3.049-1.9434,6.1176-2.0816,9.3899-.1126,2.6655.0652,5.1597,1.9224,7.2741,1.4743,1.6783,3.4286,2.3294,5.5359,2.4498,5.7986.3312,11.2696-1.0721,16.5586-3.3398,5.3459-2.2921,10.1564-5.4582,14.8281-8.8859,3.7467-2.749,7.1619-5.8571,10.2938-9.2596,1.8826-2.0453,3.696-4.2187,5.1344-6.5818.7361-1.2092.8525-2.9784.7643-4.4657-.149-2.511-.6078-5.0132-1.0704-7.4941-1.1721-6.2861-2.87-12.4298-5.3534-18.3327-2.08-4.9441-4.3308-9.8192-6.2857-14.8111-.4974-1.2702-.3186-2.8857-.1635-4.3114.2204-2.0267.6779-4.0304,1.0986-6.0304.106-.5038.4573-.956.6959-1.4318.4347.3517.9718.6292,1.2885,1.0663,4.1245,5.6928,7.1311,11.9448,9.4564,18.5714,1.8394,5.2418,3.2099,10.602,4.3599,16.0146,1.1986,5.6412,2.193,11.3276,3.1887,17.0096.9517,5.4306,1.8642,10.8644,3.8235,16.0507,1.3795,3.6515,3.2025,7.019,6.2252,9.6122,3.4761,2.9821,7.3334,5.31,11.6559,6.8491,1.1647.4147,2.3292.8302,3.5281,1.2576ZM122.8657,289.0294c-.0494.0074-.0988.0148-.1482.0222.2737,1.8106.4536,3.6414.8393,5.4278.9974,4.6201,3.0317,8.7551,6.6177,11.8817,5.1676,4.5056,11.52,5.9939,18.1566,6.492,1.9731.1481,3.9802.1681,5.9479-.0125,2.8753-.2639,5.815-.4529,8.5755-1.2201,7.3164-2.0334,14.0078-5.4084,19.9456-10.2061,3.7823-3.0562,7.208-6.4372,9.8642-10.5425,1.887-2.9164,3.0599-6.0818,2.2263-9.5458-1.2723-5.2874-4.7847-8.7562-9.6419-10.9804-3.6103-1.6532-7.515-1.8196-11.3603-2.2124-2.7914-.2851-5.6063-.4074-8.4133-.4582-6.884-.1247-13.7696-.1661-20.6545-.2408-.3356-.0036-.6741.0225-1.0063-.0124-2.7384-.2876-5.4792-.5569-8.212-.891-2.2887-.2798-4.5875-.5423-6.8419-1.0066-1.028-.2117-1.521.0356-1.826.9259-.7192,2.0994-1.4921,4.1835-2.1223,6.3096-1.1808,3.9839-1.9734,8.0405-1.9476,12.2226.0083,1.3489.0013,2.698.0013,4.047ZM142.8773,224.2636c2.3156,1.9984,4.6173,3.9963,6.9412,5.968.1791.152.5913.2538.7655.1536,2.5979-1.4946,5.174-3.0273,7.9184-4.6473-5.1458-2.4588-10.4134-2.1509-15.6251-1.4743Z"/>
    <path class="cls-1" d="M187.3834,22.2633c.3557,1.1113.7748,2.2068,1.0557,3.3367.9759,3.9255,1.986,7.8456,2.8228,11.8016.6123,2.8946.982,5.8411,1.4426,8.7671.3812,2.4217.7713,4.8429,1.0925,7.2729.2168,1.6407.3607,3.2937.4672,4.9456.2497,3.8719.4564,7.7467.6825,11.6202.1464,2.5085.3375,5.0152.4343,7.5255.1187,3.0803.1569,6.1637.2357,9.2456.0702,2.7463.1468,5.4924.2229,8.2385.073,2.6343.1292,5.2693.2288,7.9026.1288,3.4038.188,6.815.4681,10.2072.3859,4.6732.3087,9.4265,1.7972,13.9437.553,1.6781,1.2821,3.3676,2.2775,4.8133,1.3164,1.9122,3.5253,2.2394,5.7098,2.6228,4.2851.7518,7.6368-1.1717,10.7605-3.6002.7667-.5961,1.15-1.9383,1.3142-2.9987.2646-1.7089.2713-3.469.2601-5.2067-.02-3.1197-.0791-6.2413-.2238-9.3574-.1592-3.429-.4284-6.8529-.6584-10.2785-.2175-3.2397-.4421-6.4788-.6711-9.7177-.2185-3.0901-.449-6.1795-.6703-9.2694-.2267-3.1645-.4518-6.3291-.6716-9.4941-.2275-3.2761-.4603-6.5519-.6681-9.8293-.2385-3.7607-.4659-7.5223-.6721-11.285-.1701-3.1036-.242-6.214-.4791-9.3121-.1021-1.3344-.2878-2.7473-.8332-3.943-.8184-1.794-.6238-3.4705.0005-5.1642.7438-2.018,1.5997-3.9953,2.4346-5.9786.1118-.2657.3843-.4637.5823-.6931.2178.223.5282.4075.639.6749,1.1724,2.8298,2.3501,5.6583,3.4532,8.5155,1.4831,3.8416,2.9508,7.6907,4.3201,11.5736.4405,1.2491.5492,2.6152.638,4.0263-2.286-.4108-3.1282-2.5323-4.9258-3.6882,0,1.3257-.0547,2.6049.0134,3.8776.0906,1.6903.289,3.3746.42,5.0631.3022,3.896.5943,7.7927.8848,11.6896.0878,1.1785.1647,2.3579.2328,3.5377.1554,2.694.2864,5.3895.4564,8.0826.2069,3.2779.4514,6.5535.6652,9.831.2332,3.5744.5048,7.1474.6601,10.7254.2044,4.7069.49,9.4211.4105,14.1265-.0792,4.6879-.7208,9.3256-2.1398,13.8553-1.0613,3.3881-2.458,6.5604-4.4897,9.4621-2.019,2.8836-4.5899,4.9945-8.0884,5.817-.2133.0502-.4368.1254-.648.106-2.7266-.2507-5.4958-.3616-8.002-1.6283-3.7507-1.8956-5.8956-5.0841-6.7678-9.0857-.6917-3.1733-1.1029-6.4077-1.5583-9.1341-1.9751,9.6496-8.3034,13.7801-15.8328,13.7104-6.2036-.0573-12.1184-4.1445-14.0969-13.7881-.2959,1.2899-.4904,2.3578-.7885,3.3959-.8906,3.1017-2.2824,5.9035-4.559,8.2826-2.0059,2.0962-4.3894,2.7311-7.1331,2.4195-1.6313-.1853-3.2184-.5294-4.7323-1.2501-2.9542-1.4063-4.8824-3.6854-5.6928-6.7941-.6227-2.3887-.9427-4.8564-1.4029-7.3187-1.475.6496-3.0576,1.3847-4.6691,2.0496-6.2677,2.586-12.5128,5.2315-18.8266,7.7005-7.2737,2.8443-14.8045,4.8839-22.4066,6.6328-2.773.6379-5.608,1.0175-8.4241,1.4543-3.5356.5485-7.0912.7948-10.6733.9601-5.7514.2655-11.3505-.1789-16.8185-2.0471-4.9918-1.7055-9.0493-4.6049-11.9109-9.09-1.9591-3.0706-3.1337-6.4107-3.3836-10.0473-.1346-1.9582-.298-3.9305-.2057-5.885.2084-4.4107,1.1029-8.6903,2.8623-12.7688,1.0277-2.3824,2.0565-4.7581,3.9107-7.0268.1037.465.264.7446.1971.9506-.82,2.5256-1.7615,5.0151-2.4916,7.5654-.6496,2.2692-1.2201,4.5821-1.5505,6.9147-.2444,1.7257-.2117,3.5347.0073,5.2675.164,1.298.6276,2.6477,1.2931,3.7768,2.5356,4.3021,6.4805,6.9032,11.0383,8.6642,3.5649,1.3774,7.2676,2.209,11.0778,2.4598,3.3605.2212,6.7332.4808,10.094.411,3.1165-.0648,6.2231-.5585,9.3365-.8357,5.6644-.5044,11.1926-1.7741,16.6358-3.3036,5.8851-1.6538,11.7073-3.5639,17.4735-5.5985,4.6025-1.6239,9.0805-3.6006,13.6124-5.4243,2.4343-.9796,4.8583-1.9858,7.3069-2.9281.337-.1297.8856-.0876,1.1572.115.2029.1513.1777.6938.1509,1.0544-.2364,3.1828-.8284,6.3794.6304,9.4563,1.1392,2.4029,3.2447,3.51,5.6608,3.8725,2.2593.339,4.5456.3018,6.8042-.5532,2.5494-.9651,3.8503-3.2103,3.7815-5.6188-.0769-2.6909-.5509-5.3938-1.092-8.0425-.7655-3.7469-1.7442-7.4505-2.647-11.1689-.2234-.9202-.4432-1.8494-.7714-2.7349-1.6727-4.5129-.5714-8.8003,1.0232-13.0461.1567-.4171.503-.763.9655-1.4415.8008,1.7638,1.5501,3.2122,2.1292,4.7257,2.1056,5.5028,3.3514,11.2347,4.5184,16.9948.8459,4.1748,1.7532,8.3506,2.9397,12.4369.5557,1.9139,1.6762,3.7288,2.8329,5.3844,1.0987,1.5726,2.8766,2.3915,4.7837,2.6607,4.3516.6142,8.3695-.2792,11.9608-2.8821,1.9077-1.3826,2.9993-3.306,3.3928-5.5675.3515-2.0202.6365-4.0779.6669-6.1233.0877-5.8931.0875-11.7889.0137-17.6824-.0524-4.1869-.2601-8.3723-.4366-12.5568-.1105-2.6213-.2743-5.2408-.4455-7.8591-.2047-3.1287-.3868-6.2605-.6822-9.3812-.2973-3.141-.7376-6.2683-1.0852-9.4049-.2551-2.3021-.4281-4.6136-.6997-6.9136-.2664-2.2564-.5857-4.5074-.9282-6.7537-.4076-2.6735-.7469-5.3655-1.3324-8.0014-.6132-2.761.1197-5.3366.6679-7.9612.2384-1.1416.4335-2.2941.7245-3.422.1463-.5671.4633-1.0902.7031-1.6332.1499-.0017.2998-.0034.4497-.0051Z"/>
    <path class="cls-1" d="M309.7764,159.6906c0,1.6829.0944,3.5519-.0184,5.4083-.291,4.793-.5497,9.5971-1.9918,14.2328-.8128,2.6128-1.9415,5.0799-3.9057,7.0124-1.8121,1.7828-3.7098,3.5043-5.7276,5.0463-3.0187,2.307-6.0925,4.5635-9.2925,6.6071-5.3686,3.4285-11.0072,6.4004-17.0402,8.4795-3.6763,1.2669-7.4531,2.2995-11.2501,3.1433-4.0246.8944-8.1676.9323-12.2717.6989-3.6642-.2084-7.2407-1.0906-10.5426-2.697-3.2532-1.5827-6.1972-3.674-8.3967-6.6324-1.3517-1.818-2.8323-3.5781-3.9126-5.5516-1.7849-3.2608-3.4508-6.6275-3.6129-10.464-.1207-2.8551-.3744-5.729-.1724-8.5664.2094-2.9412.7903-5.871,1.409-8.763.4706-2.2,1.2247-4.3426,1.9218-6.4883.1559-.4798.6011-.8656.9131-1.2947.1802.0734.3604.1467.5406.2201-.3094,1.5367-.57,3.0851-.9379,4.6076-.9321,3.8573-1.9192,7.7047-1.6628,11.7253.1662,2.6056.7441,5.1109,1.7731,7.5285,1.3386,3.1451,3.1717,5.9666,5.5957,8.3409,3.7982,3.7202,8.4092,5.9764,13.6806,6.6135,3.1492.3806,6.3572.5502,9.5249.4347,4.2041-.1533,8.3491-.9385,12.4133-2.0779,5.7118-1.6013,11.1782-3.8032,16.438-6.5495,5.3997-2.8194,10.5214-6.0588,15.2277-9.9259,2.0517-1.6859,3.9573-3.5484,5.9812-5.2697,1.6869-1.4347,2.2564-3.2404,1.9461-5.3496-.3082-2.095-.5121-4.2353-1.1146-6.2502-.9685-3.2391-1.9999-6.4983-3.4328-9.5478-1.2283-2.614-1.5687-5.0424-.5397-7.7248.5201-1.3557.8421-2.7863,1.3063-4.1653.1286-.3819.4462-.7003.6771-1.0477.3639.28.8414.4894,1.0683.8545.5008.8054.9072,1.675,1.2954,2.5437,1.3188,2.9514,3.6834,4.1451,6.7869,3.9523,1.526-.0948,3.0431-.3897,4.5543-.651,1.5286-.2643,2.8339-1.0068,3.6474-2.3284.2529-.4108.1358-1.1839-.0529-1.7036-.3718-1.0235-.8144-2.0488-1.4028-2.9604-1.2921-2.002-1.7446-4.0302-.8846-6.3468.6695-1.8035,1.1124-3.69,1.7149-5.5203.1216-.3694.5074-.6519.7715-.9744.2814.2713.6641.492.8285.8216,1.6779,3.3642,2.9873,6.8118,2.9499,10.681-.028,2.8875.0965,5.8053-.739,8.5749-1.4998,4.9716-3.7242,9.4977-9.3206,10.9773-1.4722.3892-3.0866.241-4.743.3464Z"/>
    <path class="cls-1" d="M246.7505,144.4447c.1678-2.3837.3349-4.7674.5046-7.1509.0131-.1837.0594-.3655.065-.549.0783-2.5967.2745-5.197.1998-7.7895-.1256-4.3614-.4135-8.7183-.654-13.076-.122-2.2105-.2729-4.4198-.4404-6.6274-.2843-3.7478-.5965-7.4935-.8874-11.2409-.0915-1.1778-.1441-2.3587-.2283-3.5371-.2944-4.1197-.5965-8.2389-.892-12.3586-.0819-1.1412-.1594-2.2827-.2243-3.4249-.1551-2.7307-.269-5.4641-.4593-8.1922-.2641-3.7866-.5883-7.5691-.8755-11.3542-.095-1.2523-.1702-2.5065-.2274-3.761-.0895-1.9617-.1051-3.928-.2435-5.8859-.2596-3.6718-.5841-7.339-.8842-11.0079-.0119-.1458-.0113-.3121-.081-.4309-1.266-2.1574-.7768-4.287.0791-6.4171.6796-1.6914,1.3404-3.3904,2.0285-5.0783.1317-.3229.3513-.61.7406-1.27.5754,1.1767,1.0855,2.0393,1.4344,2.9628,2.3699,6.2722,4.7346,12.5468,7.0241,18.8486.3768,1.0373.375,2.2121.591,3.5986-2.4127-.7158-3.408-2.6461-5.0016-4.0686-.0425.4055-.1118.6811-.0934.9508.213,3.1276.4414,6.2542.6608,9.3814.0826,1.1785.1594,2.3576.2268,3.5371.1541,2.6936.2801,5.389.4562,8.0812.1998,3.0542.4439,6.1054.665,9.1582.2264,3.1269.4493,6.254.6716,9.3812.225,3.1643.454,6.3284.6691,9.4934.2328,3.4247.4789,6.8488.6695,10.2759.2505,4.5063.6317,9.0155.6266,13.5231-.0055,4.8089-.488,9.6202-1.8809,14.2528-.9205,3.0617-2.1374,6.0347-3.2408,9.0403-.1157.3152-.3612.5829-.5465.8726-.1507-.0459-.3014-.0917-.4521-.1376Z"/>
    <path class="cls-1" d="M128.0893,57.874c.3609-.6964.6878-1.4132,1.0895-2.0852.9558-1.5985,1.9081-3.2015,2.9338-4.7551,1.2864-1.9483,3.3492-2.6119,5.4828-2.7009,3.687-.1538,7.3948-.2056,11.0751.014,2.4547.1465,4.9661.5724,7.2907,1.3535,2.8131.9453,2.3732,2.1309,1.2777,4.0582-2.4102,4.2401-5.4063,8.0698-9.0246,11.3809-1.7793,1.6282-3.9418,2.4643-6.2108,3.1269-4.3909,1.2822-8.7694,2.6068-13.202,3.7737,2.4453-2.3237,5.4051-3.7657,8.2708-5.3602,3.6093-2.0083,7.2093-4.0334,10.7967-6.0804.3064-.1749.4878-.5689.7272-.8612-.2952-.2384-.5624-.6303-.8901-.6899-1.9017-.3462-3.8106-.7939-5.7303-.8694-3.5015-.1377-7.0123-.0518-10.5191-.0315-1.0348.006-2.0691.105-3.1036.1613-.0879-.145-.1758-.2899-.2637-.4349Z"/>
    <path class="cls-1" d="M279.9758,120.0165c2.3937-1.4489,4.758-2.9493,7.1878-4.335,3.9978-2.2798,8.0427-4.4769,12.0507-6.7391.3023-.1707.4688-.582.6984-.8815-.3036-.231-.5802-.6059-.9154-.6689-1.8252-.343-3.6579-.7941-5.5009-.8623-3.6106-.1337-7.2298-.0508-10.8453-.0316-.9956.0053-1.9908.1026-3.2031.1698.164-.639.178-1.015.3467-1.2993,1.1917-2.0083,2.3713-4.0261,3.6408-5.9851,1.269-1.9584,3.3457-2.6101,5.4761-2.6999,3.6836-.1554,7.3881-.2051,11.0652.0138,2.4513.1459,4.9577.5728,7.2814,1.3476,2.8501.9503,2.3894,2.1529,1.3126,4.0401-2.4327,4.2633-5.4389,8.1256-9.0846,11.4562-1.8954,1.7316-4.2405,2.5335-6.6273,3.2429-4.2129,1.2521-8.4334,2.4785-12.6508,3.7157-.0774-.1611-.1548-.3223-.2323-.4834Z"/>
    <path class="cls-1" d="M110.5111,183.422c.4717-.8935.7922-1.5746,1.1779-2.2166.9782-1.6281,1.9468-3.264,2.9913-4.8494,1.262-1.9156,3.3-2.5747,5.3877-2.6664,3.7235-.1635,7.4685-.2043,11.1866.0119,2.4168.1405,4.8831.5793,7.1808,1.3316,2.9004.9497,2.4302,2.1905,1.3253,4.1133-2.3915,4.1618-5.329,7.9382-8.869,11.2275-1.9473,1.8094-4.3307,2.675-6.7894,3.4086-4.2153,1.2579-8.4419,2.4784-12.6637,3.7146-.0461-.0916-.0921-.1831-.1382-.2747.5751-.4403,1.1382-.8975,1.7287-1.3161.6255-.4434,1.2522-.8949,1.9212-1.2655,4.6717-2.5882,9.3562-5.1531,14.0314-7.7349.5738-.3169,1.1355-.6634,1.6695-1.043.7354-.5228.6575-1.1807-.2229-1.4487-1.0054-.3061-2.0474-.6264-3.0847-.6695-3.5638-.1479-7.1323-.2047-10.6995-.2377-1.3645-.0126-2.7298.1651-4.096.1909-.5709.0108-1.145-.1483-2.0371-.2758Z"/>
    <path class="cls-1" d="M92.6741,87.0528c.7232-1.5483,1.5266-3.2244,2.2907-4.9182.6206-1.3758.9665-1.5699,2.2476-.7424,2.3606,1.5245,4.673,3.1259,6.9695,4.7464.8373.5909.7377,1.5038.3545,2.2986-1.1061,2.2941-2.2772,4.5569-3.5384,7.0617-3.041-2.0594-5.8775-3.9803-8.7734-5.9415-.9955,1.8649-1.9491,3.5812-2.8312,5.3334-.4364.8668-.8444,1.0266-1.6872.4231-2.6392-1.8899-5.3325-3.7042-8.091-5.6072.6059-1.3285,1.2091-2.6879,1.8443-4.0323.5008-1.0601,1.038-2.1031,1.5644-3.151.6445-1.283.913-1.4012,2.0901-.6197,2.5265,1.6774,5.0157,3.4111,7.5602,5.1492Z"/>
    <path class="cls-1" d="M171.9565,172.2731c-1.2333-.8142-2.2313-1.4598-3.2154-2.1257-1.6631-1.1254-3.3456-2.2255-4.9615-3.4156-.6442-.4744-.8169-.1104-1.0522.3379-.8157,1.5544-1.6348,3.1071-2.4357,4.6691-.3641.7101-.6747,1.0002-1.5058.4035-2.6654-1.9137-5.4062-3.7223-8.2145-5.6372.5719-1.2663,1.1351-2.5602,1.7385-3.8351.5324-1.1249,1.109-2.229,1.667-3.3418.6553-1.3068.9013-1.4276,2.0675-.6567,2.5294,1.672,5.0189,3.4042,7.5545,5.1321.8511-1.7078,1.8009-3.5482,2.6844-5.42.3356-.7111.8185-.8502,1.3875-.4717,2.583,1.718,5.1771,3.4258,7.6584,5.2828.3639.2723.3978,1.4415.1473,1.9994-1.0419,2.3208-2.2512,4.5664-3.5201,7.0791Z"/>
    <path class="cls-1" d="M94.6699,42.6302c-.9831-.7505-1.835-1.4559-2.7536-2.0598-.2046-.1345-.7693-.0296-.9545.1666-.985,1.0435-1.8318,2.2227-2.8544,3.2244-4.884,4.7843-10.57,8.301-17.0133,10.5933-2.0927.7445-4.1772,1.5124-6.2708,2.2542-.3578.1268-.7432.1758-1.1159.2608-.0555-.1125-.1111-.225-.1666-.3374.9881-.6527,1.9601-1.3317,2.9671-1.9539,5.5613-3.436,11.1807-6.7814,16.6744-10.3219,2.2714-1.4639,4.2798-3.3358,6.2739-4.916-1.4391-1.2144-2.778-2.2137-3.9583-3.3742-1.3957-1.3723-1.2874-3.1541-.6519-4.7779,1.1833-3.024,3.3081-5.2211,6.4556-6.25,1.5242-.4983,2.6834.1249,3.1334,1.6826.6798,2.3531.2891,4.6948-.393,6.9773-.3361,1.1246-.6676,2.1161.8666,2.5468.0314.0088.0512.0534.0805.0761,2.123,1.6532,2.1854,2.1032.6647,4.5184-.3487.5538-.6597,1.1314-.9838,1.6907ZM91.2858,34.4727c.154-.0384.3079-.0767.4619-.1151,0-.8244.1367-1.6796-.0403-2.464-.1611-.7139-.51-1.6749-1.0565-1.9327-.572-.2699-1.5696-.0053-2.2178.3359-1.1052.5818-1.0896,1.6817-.0372,2.4123.9254.6424,1.9237,1.1798,2.8898,1.7636Z"/>
    <path class="cls-1" d="M243.8417,271.5713c-.1825.9062-.3651,1.8125-.5844,2.9014,1.1503.9155,2.6514.497,4.3144.5604-.779-2.1201-.6422-3.906,1.1076-5.3446.9725.6252,1.0916,1.7291,1.0738,2.734-.0385,2.174-.483,4.311-1.7862,6.0965-.4301.5893-1.3293,1.1173-2.0404,1.1534-1.0128.0514-2.1018-.249-3.0607-.6392-.8142-.3313-1.2881-.3948-1.9944.2874-2.404,2.3219-5.1943,2.9577-8.509,2.0632-1.4756-.3982-3.2425-.2643-4.752.12-3.5726.9094-6.3809,3.1731-8.9437,5.7447-1.9208,1.9274-3.8678,3.8291-5.7672,5.7773-2.4678,2.5313-5.5701,3.8079-8.9193,4.619-.1749.0424-.3689.0054-.8167.0054,1.8768-1.2476,3.5471-2.379,5.2387-3.4778,3.1888-2.0714,5.7342-4.7979,8.1699-7.6871,2.583-3.064,5.2507-6.0923,8.6827-8.2692,3.0002-1.903,6.1464-2.731,9.7077-1.4482,2.1992.7922,4.4624.5092,5.9216-2.0545.5049-.8871,1.1274-1.7114,1.7429-2.5292.237-.3149.604-.5318.9117-.7933.101.0601.202.1202.303.1803Z"/>
    <path class="cls-1" d="M167.6462,204.6647c.6864-1.7603,1.0427-3.3868,1.9204-4.6513.508-.7318,1.8419-.9184,2.8281-1.2859,7.9867-2.9759,15.9786-5.938,23.97-8.9011,5.2936-1.9628,10.5869-3.9262,15.8874-5.8703.4488-.1646.9505-.1845,1.5868-.3007-.6203,2.1313-1.3583,3.7333-3.5006,4.4999-6.275,2.2454-12.5118,4.6009-18.7302,6.9998-6.2209,2.3999-12.4021,4.9029-18.5997,7.3633-1.678.6661-3.3523,1.3414-5.3624,2.1462Z"/>
    <path class="cls-1" d="M172.3841,9.5798c.0959.4662.1396.8928.2724,1.2896.7725,2.3074,1.5236,4.6235,2.3664,6.9055.6129,1.6594.6077,3.3161.1972,4.9829-.2161.8774-.5015,1.7634-.9169,2.5615-1.551,2.9804-4.384,2.8109-6.1892.4185-.491-.6507-.771-1.4608-1.1146-2.1327-.6497,1.1475-1.2206,2.3364-1.9561,3.4128-1.113,1.629-4.4648,2.6261-6.0692.1133-.6387-1.0004-.9841-2.2776-1.1462-3.4717-.2379-1.7532-.1811-3.5456-.2779-5.3198-.0137-.2517-.1187-.565-.2941-.7301-.895-.842-1.1384-1.6957-.5339-2.7521.4398-.7685,1.0238-1.4679,1.6238-2.1247.2329-.255.6865-.3085,1.0395-.4538.1382.3972.3886.7923.3959,1.1919.0395,2.1623-.0693,4.3309.0585,6.4863.0581.9808.4121,2.0038.8666,2.8867.6088,1.1825,2.0758,1.3967,3.1856.6385,1.889-1.2906,2.6755-3.3721,2.0922-5.5965-.2304-.8788-.5561-1.7349-.7482-2.6209-.5356-2.4707-.7676-2.3492.8794-5.1645.3052.5314.7099.9565.8008,1.4406.5056,2.6903.9133,5.3988,1.3972,8.0935.4198,2.3379,1.7661,3.4189,3.9836,3.1162,1.0073-.1375,1.4026-1.1424.9847-2.1034-.8127-1.8691-1.6472-3.7339-2.3397-5.6485-.7192-1.9883-.0695-4.2997,1.442-5.419Z"/>
    <path class="cls-1" d="M20.351,184.1982c.1675-.5676.3321-1.0253.4368-1.4964.8681-3.9049,1.3253-7.9324,3.179-11.5502.5078-.9911,1.2934-1.9005,2.1295-2.6483,1.1925-1.0665,3.1942-.2653,4.3227,1.5197.9765,1.5448.7958,3.0668.0424,4.5889-.3055.6173-.8.8521-1.3908.262-.2639-.2636-.5367-.519-.7892-.793-1.2775-1.3866-2.6569-1.3499-3.3748.6364-.9844,2.7239-1.5569,5.5957-2.3277,8.3981-.6072,2.2075-1.2095,4.4179-1.9015,6.5993-.156.4919-.6752.8687-1.0272,1.2984l-.3208-.1119c-.2514-1.1065-.3868-2.2557-.7766-3.3111-1.0592-2.8677-2.1999-5.7065-3.3653-8.5332-.3814-.925-.9462-1.4529-2.1194-.807-.9437.5196-2.9919-.578-3.8775-1.8066-.7031-.9755-1.054-1.882-.0823-2.9511.5283-.5813.8902-1.3387,1.2273-2.0632.4896-1.052,1.2621-1.0569,2.2076-.7911,1.9733.5548,3.2963,1.9118,4.2437,3.6068.8499,1.5207,1.6092,3.1155,2.1946,4.754.5804,1.6246.8936,3.3446,1.3694,5.1995Z"/>
    <path class="cls-1" d="M298.6688,245.6606c.1954-.8546.3869-1.7101.587-2.5636.8294-3.5389,1.2054-7.2258,2.9987-10.4617.5951-1.0739,1.5287-2.1166,2.5663-2.749,1.2716-.775,2.8117.0883,3.8304,1.6744.9857,1.5348.8157,3.0663.0618,4.5881-.3308.6677-.8625.8809-1.4645.2191-.2005-.2204-.4322-.4126-.6301-.6351-1.4484-1.6285-2.6951-1.2489-3.5634.7141-1.3266,2.9989-1.794,6.2148-2.4857,9.3819-.4095,1.8752-1.0655,3.7023-1.7062,5.5174-.1676.4748-.6918.8237-1.1373,1.3265-.5817-2.1233-.9759-4.011-1.6231-5.8076-.7527-2.0897-1.704-4.1099-2.6157-6.1393-.4132-.9197-.8992-1.6276-2.1664-.9211-.9331.5201-2.8905-.4856-3.8188-1.6981-.7838-1.0237-1.1344-2.0069-.1287-3.1451.5234-.5923.9233-1.3223,1.2581-2.046.4822-1.0423,1.2605-.9619,2.1337-.7271,1.9371.5208,3.1937,1.888,4.2311,3.4827,1.9658,3.0219,2.8941,6.4158,3.6729,9.9895Z"/>
    <path class="cls-1" d="M270.0656,159.0878c-.2087.6435-.3236,1.2638-.6,1.8011-.9361,1.8194-1.9184,3.6154-2.9068,5.4073-.3335.6045-.6887.7973-1.4018.2827-2.5135-1.814-5.099-3.5281-7.6529-5.2863-.4708-.3241-.681-.6676-.3504-1.2959,1.1441-2.1741,2.2421-4.3736,3.3084-6.5871.4297-.892,1.0185-1.0286,1.765-.5178,2.4695,1.6896,4.9278,3.3961,7.3577,5.1417.265.1904.3174.6767.4808,1.0544Z"/>
    <path class="cls-1" d="M324.0231,184.1316c-.2237.6842-.3481,1.3416-.6418,1.9116-.9201,1.786-1.8941,3.5446-2.8691,5.3018-.324.584-.6536.8527-1.3895.3209-2.5428-1.8375-5.1698-3.5584-7.7211-5.3847-.2508-.1796-.3996-.8712-.2603-1.1674,1.0598-2.2536,2.2221-4.4587,3.3108-6.6991.4163-.8567.9993-.9393,1.6922-.4652,2.4717,1.6911,4.9318,3.3998,7.3654,5.145.2678.1921.3363.6621.5133,1.0371Z"/>
    <path class="cls-1" d="M91.7795,82.2632c-2.6823-1.8219-5.1295-3.4824-7.574-5.1468-.3021-.2057-.5661-.4811-.8893-.6393-.6048-.296-.6626-.7788-.4272-1.2797,1.0735-2.2835,2.1703-4.5565,3.2871-6.8192.3897-.7895,1.0389-.7548,1.6772-.3282,2.1257,1.4204,4.2856,2.797,6.3389,4.3166,1.9599,1.4505,1.9645,1.5475.8753,3.7659-.9926,2.0217-2.1245,3.9751-3.288,6.1308Z"/>
    <path class="cls-1" d="M271.2748,76.6264c0-1.7697-.0469-3.5409.0098-5.3088.1188-3.7034-1.2909-6.8902-3.4505-9.7344-1.4245-1.8761-3.1446-3.5309-4.769-5.2502-.5693-.6026-.7244-1.0977-.1835-1.8278.4953-.6687.7828-1.4893,1.2599-2.1747.1441-.2069.7564-.3674.9163-.2431,4.4017,3.4209,7.2891,7.7454,8.0248,13.3924.4248,3.2604.3045,6.4558-.7114,9.5874-.1987.6126-.6208,1.1528-.9398,1.7263-.0522-.0557-.1044-.1114-.1566-.1671Z"/>
    <path class="cls-1" d="M128.2898,10.6286c-.4363,1.3016-.9125,2.5915-1.3011,3.9072-1.0455,3.5396-2.3965,7.0287-2.0929,10.8231.0602.7522.2017,1.542.511,2.221.6281,1.3789,2.7306,1.3579,3.6864-.0014.502-.7139.9333-1.4771,1.4196-2.2027.1342-.2003.351-.3452.6161-.4652-.6022,2.732-.816,5.598-3.0001,7.7018-1.2714,1.2247-3.8582.818-4.5203-.8152-.4154-1.0247-.6502-2.1722-.7182-3.2798-.3046-4.9594,1.0147-9.5817,3.1081-14.0214.6323-1.341,1.2718-2.6787,1.908-4.0179.1278.0502.2556.1003.3834.1505Z"/>
    <path class="cls-1" d="M22.393,122.6515c-.4095,2.8176-.6497,5.6629-2.8139,7.7663-1.3572,1.319-3.8072.7268-4.6279-.9752-1.064-2.2067-.8467-4.561-.5512-6.7649.3837-2.862,1.2572-5.6869,2.1859-8.4379.6923-2.0507,1.8066-3.9589,2.733-5.9306l.348.1224c-.1136.4017-.2193.8059-.3428,1.2046-.1402.4527-.3147.8953-.4425,1.3513-.8545,3.0496-1.8636,6.0693-2.4788,9.1669-.2969,1.4949.1004,3.1443.2847,4.7118.1041.8856.7459,1.3944,1.6338,1.5422.9511.1583,1.6593-.3138,2.1893-1.0008.6784-.8793,1.2593-1.8337,1.8822-2.7558Z"/>
    <path class="cls-1" d="M56.8695,202.0237c-.6278,2.6875-.8827,5.5207-3.0336,7.6253-1.3549,1.3256-3.8267.7437-4.6336-.954-1.066-2.243-.8494-4.63-.5428-6.8744.3859-2.8246,1.248-5.6132,2.1729-8.3257.7069-2.0731,1.8308-4.0041,2.7692-5.9983.1242.0532.2484.1064.3726.1596-.4299,1.302-.8899,2.595-1.2839,3.9078-1.0617,3.537-2.4019,7.0273-2.1113,10.8221.0577.754.1994,1.5409.4965,2.2288.5985,1.3856,2.707,1.3887,3.6865.0541.3456-.4708.6851-.9468,1.0084-1.433.2925-.4398.559-.8969.837-1.3464.0874.0447.1748.0895.2622.1342Z"/>
    <path class="cls-1" d="M275.3532,277.455c-.6497,2.6878-.8892,5.5349-3.054,7.6409-1.3535,1.3168-3.8151.7281-4.6242-.9787-1.0632-2.2427-.8493-4.6278-.5398-6.8734.3844-2.7884,1.2459-5.5382,2.1564-8.2181.7083-2.0846,1.807-4.0365,2.7321-6.0474.1284.0478.2569.0955.3853.1432-.15.4644-.3149.9246-.4476,1.3939-.9607,3.398-2.0694,6.7652-2.8005,10.2122-.3228,1.5223-.0031,3.2315.2877,4.8073.1083.587.8809,1.2472,1.5023,1.4974.9063.3649,1.7206-.215,2.281-.9489.5288-.6925.9477-1.4685,1.4238-2.202.1364-.2101.3036-.4002.4566-.5995.0803.0577.1606.1153.2408.1729Z"/>
    <path class="cls-1" d="M89.7842,271.6382c-.5023,1.51-1.0494,3.0068-1.4977,4.5327-.9794,3.3333-2.1964,6.6329-1.8922,10.1991.0642.7524.2018,1.5436.5144,2.2205.6353,1.3758,2.7337,1.346,3.6879-.0154.5008-.7145.9315-1.4777,1.4176-2.203.1341-.2002.3532-.3433.7862-.7504-.7683,3.023-1.0439,5.8376-3.1502,8.0173-.9769,1.0109-3.6497,1.0243-4.5389-.8465-.4689-.9865-.6545-2.1669-.722-3.2747-.3018-4.9591,1.0142-9.582,3.1111-14.0205.6337-1.3415,1.2749-2.6795,1.9126-4.0191.1238.0534.2476.1068.3714.1602Z"/>
    <path class="cls-1" d="M149.4705,290.3556c-.8587-.4483-1.6231-.779-2.3155-1.2223-1.7371-1.1122-2.311-3.1186-1.4982-4.9485.6589-1.4834,1.4301-2.9911,2.4759-4.2095,1.2731-1.4833,2.8384-2.7341,4.3728-3.9668.7427-.5967,1.6849-.9369,2.5573-.0054.7918.8455.9908,2.1463.3924,3.0531-.5412.8202-1.097,1.6307-1.7103,2.5403-.2449-.2295-.4226-.3458-.5336-.5079-.961-1.4043-1.8664-1.5139-3.0443-.3174-.437.4439-.8517.9229-1.2009,1.4373-.6477.9542.0008,2.3194,1.4049,2.8841,2.0292.8161,3.9165.7115,5.581-.9188,1.1599-1.136,2.3978-2.1925,3.697-3.3718.4631,1.2279.1326,2.3304-.1957,3.4476-.6,2.0414-2.1692,3.2352-3.7777,4.4001-3.4237,2.4795-6.0363,5.6894-8.272,9.2293-.2844.4502-.4781.997-.5668,1.5238-.2455,1.4581.39,2.4802,1.8107,2.9383,2.5296.8157,5.1618.6436,7.6994.3283,2.9856-.3709,5.9101-1.2308,8.8636-1.8669.2288-.0493.4775-.0065.9446-.0065-2.7318,2.8482-5.7562,4.7109-9.3827,5.5863-2.6704.6446-5.3619.9961-8.0796.4341-2.3666-.4894-4.0153-2.3317-3.9137-4.9763.1571-4.0898,1.8392-7.5447,4.2251-10.7407.1722-.2306.3076-.4886.4664-.7439Z"/>
  </g>
</svg>