<?xml version="1.0" encoding="UTF-8"?>
<svg id="Lion" xmlns="http://www.w3.org/2000/svg" viewBox="0 0 287.9123 208.7012">
  <defs>
    <style>
      

      @import url('../../CSS/SvgStyling.css');

      
    </style>
  </defs>
  
  <g class="content">

    <rect id="bg" class="bg" width="287.9123" height="208.7012"/>


    <path class="cls-1" d="M142.6844,134.9107c.0744-1.9415,1.0756-3.7139.8253-5.7163-2.6789,3.7545-5.2224,7.5969-9.146,10.8305.23-2.0836.8456-3.7139.7238-5.6013-.9133.4262-.9809,1.2109-1.2177,1.8333-1.3936,3.7951-3.9439,6.5686-7.4481,8.4899-.3585.1962-.778.6156-1.15.345-.5074-.3518-.0338-.8524.0474-1.2853.115-.6156.3315-1.2312.3856-1.8536.2029-2.2189-.8727-3.5786-3.0848-3.7612-1.8874-.1556-3.7883-.2029-5.6825-.1962-2.1715,0-2.8277.663-2.848,2.8683-.0474,5.2563.8321,10.4178,1.725,15.5726,1.0824,6.2642,2.6721,12.3999,5.121,18.2785.6765,1.61.3788,3.0848-.2097,4.6001-1.265,3.2403-2.8886,6.3657-3.2268,9.9105-.1015,1.0012-.1759,1.9956-.2232,3.0036-.1894,3.9507-3.0239,6.7039-6.9339,6.7107-4.6407,0-9.2746-.0474-13.9085.0135-1.3191.0135-2.0227-.5209-2.53-1.6709-2.2595-5.1007.9403-10.1472,6.4807-10.1405.2097,0,.4194.0068.6291,0,3.8965-.0879,3.6327.9133,3.6259-3.7545-.0068-4.9248-1.6777-9.4369-3.7883-13.7935-1.6506-3.4162-3.6462-6.6228-5.8516-9.8631-1.0959,1.6574-1.7859,3.308-2.4286,4.9789-1.8942,4.9451-3.5042,9.9849-4.5527,15.1667-.5953,2.963-2.1242,5.1007-4.6136,6.6836-.8862.5615-1.725,1.2177-2.53,1.8942-.9674.8185-1.4138,1.9144-1.6371,3.1592-.6765,3.9371-4.3024,7.2113-8.3275,7.2925-5.3713.115-10.7493.0541-16.1273.0068-1.8874-.0203-3.5042-2.043-3.6936-4.4445-.3653-4.458,3.8492-8.1719,8.2057-7.2316.0541.0068.1082.0271.1556.0338,5.0127,1.1433,7.4142-.2232,8.8957-5.2495,1.1906-4.0183,1.5221-8.199,2.0092-12.339.92-7.8201,1.6709-15.6606,2.273-23.5145.2841-3.7071.0406-7.306-2.3-10.4314-.2097-.2909-.4397-.5682-.6562-.8524-.5885.2841-.5074.8456-.6427,1.265-.5209,1.5627-1.265,3.0171-2.2324,4.3498-.3653.5006-.7915,1.2921-1.3868,1.1568-.7644-.1759-.3179-1.0756-.3991-1.6439-.3721-2.4692-1.3124-4.6745-2.9833-6.5348-1.5086-1.6912-3.1051-3.308-4.573-5.0398-2.7059-3.193-4.0386-6.8798-3.7951-11.1078.0271-.4262.3382-1.0147-.2435-1.265-.4668-.1962-.92.1421-1.3191.3856-1.7724,1.0688-2.7736,2.7127-3.3486,4.6474-.4059,1.3462-.7306,2.7127-1.2988,4.113-3.3283-5.1616-6.1492-10.4719-6.2101-17.0609-1.2853,1.0553-1.4883,2.503-2.4015,3.3418-.4668-.0135-.4871-.2977-.5209-.548-.5953-4.4107-.9335-8.8416-.2368-13.2726.548-3.4906-.0812-6.616-2.4353-9.3219-.69-.7915-.9606-1.8265-1.4274-2.8818-.7441.7441-.5344,1.6844-1.0553,2.6518-.8727-2.4827-1.0756-4.7827-.778-7.1369.345-2.8074,1.3462-5.4254,2.3609-8.0366.5074-1.2921.8794-2.618.8591-4.0048-.0135-1.1771-.3653-2.2189-1.6236-2.6383-1.1906-.3991-2.1647.0135-2.963.9268-.5277.5885-.9944,1.238-1.5559,1.7859-1.9956,1.9415-4.6204,2.388-6.8122,1.1838-1.9077-1.0485-3.1795-3.8965-2.6518-6.3183.1759-.8185.1015-1.3394-.4532-1.9686-.778-.8794-1.15-1.9889-1.3394-3.1659-.1894-1.1703.1218-1.6439,1.3259-1.1027.8659.3856,1.7318.7712,2.6112,1.1297.5818.2435,1.1838.4735,1.8333.4194,1.1635-.0879,2.2933-.3856,2.503-1.725.2097-1.2786-.7306-1.9415-1.7994-2.2527-1.61-.4668-3.2877-.7306-4.9045-1.2041-3.5921-1.0553-5.0263-3.0983-4.9045-6.8663.0203-.6697-.1421-1.238-.6088-1.7318-.3653-.3788-.7103-.7847-1.0215-1.2109-1.9077-2.5977-1.6303-3.9845,1.1365-5.5945,3.423-1.9889,7.0016-3.6733,10.6681-5.1548,1.4477-.5885,2.5436-1.4477,3.1321-2.9224.8794-2.185,2.5097-3.5718,4.6204-4.5257,2.0633-.9335,4.0589-2.0294,6.2372-2.6789.6494-.1962.9606-.5615,1.0756-1.1974,1.1838-6.4469,7.1775-11.1214,13.5499-11.6355,4.3768-.3518,8.801.3924,13.2929-.8321-.3585,1.6236-1.8062,1.9212-2.4218,2.8818.3179.4329.6494.2638.9335.2368,2.7668-.2638,5.3307.3518,7.7593,1.6641,1.6777.9065,3.2606,1.955,4.7692,3.1118,3.9574,3.0306,8.2598,5.4389,12.8329,7.421,4.3836,1.8942,8.4899,4.2618,11.3649,8.2869.8524,1.1906,1.6709,2.4083,2.1242,3.9777-1.1568.0338-1.9686-.9741-3.0442-.7306-.0068.115-.0609.2774-.0203.3044,2.8953,2.1647,4.201,5.3374,5.3983,8.571,1.4409,3.9033,3.8695,6.8528,7.8201,8.4357,1.7656.7103,3.3756,1.7318,4.7827,3.0374.7712.7103,1.5627,1.4138,1.928,2.645-1.8197-.0879-3.1253-1.583-4.891-1.5559.0135.1759-.0068.3179.0406.3585,2.9833,2.1647,5.926,4.3971,8.9837,6.4469,1.9212,1.2853,4.2348,1.5288,6.4942,1.7994,6.5686.778,13.0358-.1082,19.4895-1.1703,9.5181-1.5627,18.9889-3.3418,28.4528-5.1751,5.8516-1.1433,11.622-.805,17.3721.7171,8.1178,2.1444,16.4385,4.086,23.0883,9.4437,3.998,3.2133,8.3613,3.193,12.8329,3.7004,7.3195.8185,14.727,1.1568,21.7895,3.5245,9.5452,3.193,16.885,8.9837,20.0306,18.8941,2.503,7.8878,1.4341,15.6809-2.0159,23.1492-.92,1.9821-2.2865,3.6665-3.8492,5.1954-.7306.7171-2.3068,5.6351-.2503,5.1886.7103-.1556.5885.4127.345.805-.6765,1.0959-1.7183,1.8468-2.9224,1.9889-3.3689.3991-6.2575,1.698-8.6928,4.0589-.2097.2097-.5074.3856-.8659.2909-.0406-.0879-.1556-.2097-.1285-.2571,1.3597-2.2053,1.4612-4.6542,1.6033-7.1572.2435-4.3295,3.1795-6.8189,7.5766-6.6363.548.0203.9133-.0744,1.1838-.5344.4329-.7238.9538-1.4071,1.2853-2.1783,4.0724-9.5181,4.4783-18.928-1.6033-27.7628-3.6598-5.3172-9.2813-8.0163-15.3291-9.7413-6.9272-1.9686-14.0708-2.5977-21.228-3.0509-.1421-.0068-.2977.0676-.4397.1082-.1353.548.2097.9335.4262,1.3394,5.1616,9.8902,8.9363,20.2809,11.1755,31.2264,1.3191,6.4672,4.1942,12.3932,6.5754,18.4883.5209,1.3259,1.1771,2.6045,1.6506,3.9439,1.1094,3.1186,3.2471,5.263,6.1357,6.7242,2.5368,1.2921,5.0669,2.5909,7.6442,3.7951,2.7803,1.2988,4.3498,3.4365,4.7083,6.4604,1.2447,10.4449,2.7803,20.8424,4.343,31.2399.2503,1.6709.5074,3.3418.7171,5.0195.3112,2.4759-.5141,4.5933-2.1647,6.3928-1.4003,1.5221-3.0848,2.7059-4.8301,3.8086-.6968.4465-1.4747.5277-2.273.5277-4.1671,0-8.3275-.0406-12.4879.0135-1.1365.0135-1.7453-.46-2.1647-1.4409-.7374-1.7521-.9877-3.5651-.6427-5.4322.5412-2.963,2.6721-4.891,5.6757-5.0127,1.468-.0609,2.9495.0879,4.4107.2165.7374.0541,1.1027-.0271.9538-.9065-1.1297-6.7242-2.1647-13.4823-4.9586-19.7736-1.7656-3.9777-4.228-7.4751-8.0366-9.7481-6.4672-3.8559-12.0414-8.8822-17.9471-13.4891-1.9956-1.5559-4.1807-2.8345-6.3657-4.1265-.8253-.4871-1.2312-.2706-1.4815.6021-.4871,1.7521-.2638,3.4636.2435,5.1548.893,2.9562,2.6248,5.3848,4.8166,7.5157,2.3474,2.2865,4.8504,4.3971,7.4142,6.4266,1.7453,1.38,2.1309,2.9698,1.4274,5.033-.8727,2.5571-1.9212,5.033-2.963,7.5157-2.9156,6.9407-5.1819,14.0708-6.7242,21.4445-.7644,3.6598-3.7545,5.9936-7.4887,6.0072-5.0601.0271-10.1202-.0338-15.1735.0406-1.3056.0135-1.9009-.5547-2.3203-1.6641-1.7656-4.6677,1.9483-10.1269,6.9948-10.154,1.3597-.0135,2.7398.1691,4.086.3991.9335.1624,1.4747-.0068,1.7994-.9674,1.6303-4.8977,2.6045-9.9105,2.53-15.0856-.0338-2.8548-1.3259-5.0263-3.6192-6.6972-2.8953-2.1174-5.7772-4.2483-8.5846-6.4807-5.5607-4.4242-9.2813-10.3299-12.8464-16.337-3.4771-5.8583-6.8595-11.7776-10.3231-17.6359-2.3474-3.9777-5.7095-6.271-10.4855-6.1289-2.185.0676-4.1062.8388-5.8854,2.043-4.6339,3.1389-8.9499,6.7039-13.4011,10.0728-1.6844,1.2718-3.4095,2.4827-5.148,3.6801-.6291.4262-1.2853.92-2.2324.8862l-.0271.0203Z"/>
  </g>
</svg>