<?xml version="1.0" encoding="UTF-8"?>
<svg id="Maalik" xmlns="http://www.w3.org/2000/svg" viewBox="0 0 333.0911 333.4967">
  <defs>
    <style>
      
      @import url('../../CSS/SvgStyling.css');
      
    </style>
  </defs>
  
  <g class="content">

    <rect id="bg" class="bg" width="333.0911" height="333.4967"/>

    <path class="cls-1" d="M110.3136,267.368c.1483.112.2138.1405.2117.1628-.2429,2.5843-.8653,5.0349-2.6533,7.0255-.3268.3639-.8376.5569-1.239.8611-.3163.2398-.7459.4743-.8665.8054-.9853,2.7049-2.2889,5.3107-2.6794,8.2078-.1491,1.1057-.2689,2.2158-.3804,3.3261-.4885,4.8664,1.603,8.5556,5.2791,11.5126,3.3946,2.7305,7.3417,4.1716,11.5878,4.8407,6.8784,1.0839,13.628.3663,20.3016-1.504,9.0035-2.5232,17.3129-6.5404,25.0745-11.6893,2.51-1.665,4.8904-3.5675,7.1385-5.5758,3.6308-3.2434,5.401-7.4325,5.3134-12.2968-.1123-6.234-.3296-12.4668-.5712-18.6974-.155-3.9979-.3544-7.9976-.6797-11.9846-.4388-5.3773-.9096-10.7563-1.5668-16.1101-.6686-5.4469-1.5454-10.8694-2.4039-16.291-.2964-1.8721-.2986-3.7004.1079-5.5411.3711-1.6805.7021-3.3707,1.1158-5.0406.1614-.6512.5005-1.2583.8482-2.1031.371.4597.6378.6659.7357.9338.3666,1.0035.7269,2.0142,1.002,3.0455,1.4763,5.5343,2.6052,11.1432,3.5126,16.7966,1.1365,7.0801,1.9534,14.1984,2.2812,21.3623.3296,7.2039.566,14.4123.8251,21.6194.2892,8.0451.5502,16.0924,1.404,24.1029.2907,2.7269.687,5.4332,1.7261,8.0229,1.4397,3.5882,4.0974,5.0961,7.8525,5.0403,3.3566-.0498,6.2396-1.324,8.8967-3.2485.7929-.5743,1.2969-1.3823,1.4448-2.3172.2754-1.7403.6324-3.5022.6026-5.2491-.0651-3.8116-.3201-7.6214-.5555-11.4284-.2986-4.8296-.6452-9.6565-.9887-14.4833-.4095-5.7549-.8605-11.5069-1.2511-17.2631-.3717-5.4777-.7256-10.9572-1.0183-16.4396-.248-4.6462-.3275-9.3022-.6254-13.9447-.1151-1.7935-.5096-3.5942-.9946-5.3308-.3796-1.3592-.5076-2.6499-.0389-3.9633.719-2.0145,1.478-4.015,2.2499-6.0099.1425-.3682.4262-.6817.7916-1.2481.3625.6042.6779.9906.8472,1.4331,2.3435,6.1263,4.6775,12.2562,6.983,18.3968.3252.866.5231,1.7861.7077,2.6957.0834.4109-.0104.8579-.0303,1.4999-2.0446-.6186-2.9621-2.3454-4.4657-3.3834,0,1.4506-.0759,2.7795.0126,4.0974.5046,7.5204,1.0402,15.0388,1.5817,22.5567.3677,5.1047.8004,10.2049,1.134,15.3117.3335,5.1067.5585,10.2204.8712,15.3285.2685,4.3869.0624,8.7549-.6671,13.0766-.907,5.373-2.5327,10.5059-5.9289,14.8937-.8765,1.1323-1.8806,2.1913-2.951,3.1437-4.5201,4.0218-14.2921,3.058-17.9237-3.6674-1.1849-2.1943-2.0174-4.4966-2.4393-6.9478-.3471-2.0169-.7176-4.032-.9796-6.0606-.2617-2.0268-.4014-4.0694-.6115-6.284-.1873.3444-.3463.5748-.4447.8286-.4202,1.0844-.8445,2.168-1.2272,3.2659-1.0872,3.1196-3.0438,5.6049-5.4799,7.7873-3.4131,3.0576-7.1616,5.6311-11.0756,7.9911-7.3713,4.4448-15.116,8.0224-23.4439,10.2871-6.3428,1.7248-12.7694,2.1943-19.2138.8902-6.9371-1.4037-12.4061-4.9314-15.3529-11.6734-1.6562-3.7892-2.1585-7.7756-1.9756-11.8707.2338-5.2337,1.5095-10.1994,3.8649-14.8843.1436-.2857.2436-.5934.3804-.9317-1.3393-1.3411-1.5318-3.0382-1.5987-4.7815-.1988-5.1787,1.4166-9.8976,3.6568-14.4572.2866-.5833.6262-1.1409.9533-1.7034.0384-.066.1537-.0871.4632-.2501-.3381,1.1618-.6433,2.1551-.9155,3.1573-.5724,2.1077-1.2294,4.2-1.6537,6.3379-.2776,1.3986-.2153,2.8657-.2874,4.3031-.0138.275.0305.56.0914.8306.2222.9869.5751,1.9412,1.6672,2.2128,1.04.2584,1.6035-.563,2.1528-1.2452.5387-.6691,1.0091-1.3932,1.5079-2.091Z"/>
    <path class="cls-1" d="M101.8809,183.209c.499.7243.8498,1.1884,1.1527,1.6819.7783,1.2681,1.4529,2.6085,2.3167,3.8141,2.4329,3.3956,5.6649,4.9802,9.9566,4.6837,3.9481-.2727,7.2178-1.7184,9.8254-4.613,1.2727-1.4128,2.3289-3.0196,3.4967-4.5282.6835-.883,1.3707-1.7652,2.1029-2.6072.2961-.3405.6813-.7142,1.0901-.8164.4467-.1116,1.0258-.0451,1.4417.1588.5397.2646.4624.8604.3138,1.372-.2466.8485-.5288,1.6867-.7723,2.5361-.3477,1.2131-.0747,2.2892.728,3.2592,1.6054,1.94,3.4381,3.3997,6.1633,3.2225,1.0118-.0658,1.8941-.3477,2.715-.9494,1.8105-1.3271,3.0785-3.1007,4.1435-5.0223.9692-1.7488,1.8229-3.5613,2.7467-5.3358.2339-.4493.4729-.9306.8284-1.2742.6424-.621,1.3709-.3409,1.4872.5398.0541.4101.0003.835-.0097,1.2531-.0189.7905-.0855,1.5826-.0547,2.371.1186,3.0333,1.9174,5.3437,4.8901,6.0294,3.0226.6973,6.0156.4189,8.8771-.8292.5894-.2571,1.1438-.631,1.6516-1.0309,1.1749-.9252,1.679-2.108,1.1005-3.5738-.5115-1.2963-.9704-2.6296-1.6358-3.8463-4.3872-8.0225-6.9671-16.6163-8.3142-25.6251-.2937-1.9645-.4938-3.9794-1.5993-5.7437-.1933-.3085-.2317-.8361-.1201-1.1933.5963-1.9079,1.2325-3.805,1.9246-5.6801.1976-.5353.628-.9846.9852-1.5242.9251.4458,1.4058,1.1341,1.8722,1.8101,1.9821,2.8728,3.977,5.7378,5.8911,8.6556.6297.96,1.1265,2.0371,1.5039,3.1232.3082.8869-.1186,1.2564-1.0162.9871-.6625-.1988-1.2872-.5263-1.9233-.8088-.4067-.1806-.8034-.3838-1.2045-.5769-.089.0622-.1781.1243-.2671.1865.1771.6401.3302,1.2879.535,1.919,1.6371,5.0451,3.3692,10.0614,4.8936,15.1401.8137,2.7108,1.41,5.5055,1.8654,8.3013.9491,5.8267-.5352,11.1762-3.6337,16.1063-.6101.9708-1.4222,1.8545-2.2803,2.6229-5.0764,4.546-12.0743,1.8956-14.5238-1.8094-.7154-1.082-1.2849-2.2608-1.9155-3.3984-.1529-.2758-.2827-.5644-.5096-1.0214-.2577.4584-.4347.76-.5994,1.0681-.9629,1.8023-1.8054,3.6824-2.9128,5.3908-1.4786,2.2811-3.6496,3.6791-6.3634,4.1498-1.1237.1949-2.2286.0884-3.2993-.3036-3.1707-1.1609-5.5091-3.2295-6.8911-6.3379-.1307-.294-.2786-.5805-.4249-.8672-.0182-.0358-.0756-.0516-.2071-.1357-4.858,6.1265-10.5794,10.5891-19.2273,9.1535-.0346.6959-.0637,1.2857-.0933,1.8755-.2087,4.1545-.7568,8.2474-2.2361,12.1676-.899,2.3823-2.2404,4.4809-4.0048,6.3236-4.2459,4.4343-9.0899,8.1184-14.2913,11.3362-4.7945,2.9661-9.758,5.6285-15.0081,7.7098-7.336,2.9082-14.9032,4.7198-22.853,4.4662-3.51-.112-6.9324-.8354-10.2258-2.0488-5.3986-1.989-9.2982-5.7092-12.0564-10.694-2.0543-3.7126-3.2645-7.6891-3.7889-11.8958-.644-5.1661-.5965-10.3137.4089-15.4241.4125-2.0964,1.0245-4.1547,1.5786-6.2216.2275-.8487.1906-1.5626-.3041-2.3691-1.3147-2.1434-1.2035-4.5502-.9335-6.9234.5016-4.4091,2.097-8.4713,4.1052-12.3884.1474-.2876.3438-.553.541-.8106.0765-.0999.2186-.1495.5212-.345-.1271.5026-.1756.8411-.2968,1.1511-1.1566,2.9582-1.9771,6.0146-2.5253,9.1341-.2232,1.2702-.2743,2.597-.1914,3.8844.0477.7407.3996,1.5371.8289,2.161.7279,1.058,1.5174,1.074,2.4184.1467.5477-.5637.9931-1.2263,1.4916-1.8386.1655-.2032.3531-.3884.6914-.7571.0502.5132.1314.8119.0993,1.098-.2619,2.3386-1.2403,4.3694-2.728,6.1659-.2014.2433-.464.5418-.7414.5967-.8658.1714-1.0588.7861-1.1885,1.5056-.6108,3.3884-1.3023,6.7642-1.827,10.1658-.5533,3.5868.0682,7.0582,1.5125,10.3656,2.5812,5.9111,6.6821,10.3981,12.6861,12.9122,3.148,1.3182,6.5055,1.9694,9.9237,2.1045,6.2511.2473,12.344-.8264,18.3105-2.5603,10.0637-2.9247,19.3122-7.5502,27.7177-13.8101,2.0467-1.5243,3.9202-3.2831,5.8497-4.9612.4523-.3934.8003-.9048,1.2103-1.349,1.1796-1.2779,1.5902-2.7443,1.3961-4.4926-.541-4.8729-1.9634-9.4602-4.2026-13.8086q-1.817-3.5284-.639-7.2576c.3777-1.1983.7306-2.4055,1.1482-3.5898.1907-.541.5108-1.0363.9022-1.8087Z"/>
    <path class="cls-1" d="M298.0359,139.9163c.3671.567.7618,1.1183,1.094,1.705.3892.6873.736,1.3995,1.0804,2.111.9598,1.983,2.6349,2.9756,4.7227,3.2906,2.5396.3832,5.0162.0879,7.3561-1.027.457-.2178.8868-.5121,1.2867-.8253.6045-.4735.8674-1.1078.5789-1.8561-.3501-.9082-.7221-1.8106-1.1401-2.6892-.319-.6705-.7433-1.29-1.0872-1.9497-.5801-1.1129-.7959-2.2871-.4243-3.5127.634-2.0917,1.2747-4.1818,1.9497-6.2604.1353-.4167.4364-.7795.7978-1.4032.4735.6657.878,1.0998,1.1302,1.6093,3.6045,7.281,3.5274,14.6279.1975,21.9514-1.098,2.4149-2.8659,4.3322-5.2735,5.5868-1.3975.7283-2.8422,1.1288-4.4346.8895-.587-.0882-1.1884-.0802-1.9312-.1251-.0353.6525-.0857,1.1942-.0906,1.7362-.038,4.2377-.124,8.4816-.9065,12.6537-.4181,2.2294-1.1042,4.4205-1.822,6.5781-.5942,1.7862-1.7217,3.2943-3.0799,4.6011-5.1587,4.9634-10.8508,9.2258-17.1455,12.627-3.5153,1.8994-7.1294,3.636-10.7846,5.2524-6.0097,2.6576-12.3566,4.0749-18.8906,4.6576-4.6155.4116-9.1134-.2667-13.474-1.745-4.6813-1.5871-8.4094-4.5433-11.3448-8.4793-2.439-3.2704-4.3207-6.848-5.3839-10.8078-.3362-1.2523-.6256-2.5436-.7111-3.8321-.2998-4.5164-.3102-9.0325.8536-13.4552.6977-2.6512,1.4808-5.2805,2.2642-7.9081.163-.5467.3346-1.1655,1.2228-1.4938-.0251.5027.0024.8874-.07,1.2524-.5793,2.9208-1.2231,5.8294-1.7607,8.7577-1.2036,6.5562.3681,12.4891,4.325,17.7671,3.3797,4.5081,7.8107,7.4393,13.3775,8.7419,5.2765,1.2346,10.5096,1.0864,15.7955.2553,9.8606-1.5503,18.8302-5.3908,27.3059-10.5214,4.3064-2.6068,8.4635-5.4275,12.1898-8.8287,1.336-1.2194,2.5389-2.5837,3.8205-3.8639.9434-.9424,1.1139-2.0817,1.0011-3.3441-.4383-4.9044-1.5422-9.6396-3.5399-14.1513-.452-1.0208-.9161-2.0376-1.4173-3.0349-.6355-1.2647-.8029-2.5479-.3873-3.9194.5532-1.8256,1.0415-3.6709,1.603-5.4938.1566-.5086.4731-.968.7162-1.45.1435-.0156.2869-.0312.4303-.0468Z"/>
    <path class="cls-1" d="M245.5139,304.2664c-.6.2336-1.1238.4043-1.6192.6357-3.2818,1.5332-6.7066,1.8097-10.2326,1.175-3.5943-.6471-6.3623-2.4572-8.1646-5.7072-2.0062-3.6177-2.9529-7.5405-3.263-11.6016-.4073-5.3334-.6874-10.6789-.9047-16.0239-.5992-14.7391-1.0946-29.4826-1.7171-44.2207-.3213-7.6062-1.6092-15.082-3.7412-22.3877-.662-2.2685-.5772-4.4009.1875-6.5516.5397-1.5176,1.1911-2.9955,1.842-4.6137.9539.5056,1.2334,1.256,1.5251,1.9565,1.4006,3.3638,2.3223,6.8612,3.0267,10.4366,1.1727,5.9523,1.7106,11.9646,2.0665,18.0093.7084,12.0325,1.1841,24.0718,1.4354,36.1228.1445,6.9306.4899,13.857.7297,20.7858.0894,2.5833.578,5.0925,1.4855,7.4983.4218,1.1179,1.0336,2.1862,1.6968,3.1858.9384,1.4142,2.3185,2.2827,3.9886,2.6057,3.3456.6468,6.6663.487,9.948-.4292.2185-.061.4175-.1911.7765-.3602,0-1.111-.0109-2.2642.0018-3.4171.0717-6.5296,1.5504-12.7245,4.4722-18.565.939-1.8771,2.0127-3.678,3.5122-5.1767.4249-.4246.8862-.8327,1.3907-1.1543,2.6132-1.6662,5.1125-1.2363,6.7336,1.4085,1.0085,1.6454,1.8478,3.4749,2.3526,5.3333,1.3831,5.0922,1.2062,10.2133-.2415,15.2954-1.186,4.1631-3.7559,7.3635-7.0894,9.9469-1.976,1.5315-4.1357,2.8465-6.3045,4.1004-1.1581.6696-1.9406,1.3614-1.8063,2.792.0382.4066-.0342.8461-.1607,1.2366-.0688.2126-.335.437-.5554.4969-.138.0375-.4245-.1822-.5238-.3556-.182-.3178-.2841-.6836-.4024-1.0351-.145-.431-.2726-.8679-.4449-1.4219ZM247.036,293.9405c.6712-.1854,1.2253-.2595,1.7076-.4861,1.4695-.6906,2.9632-1.3537,4.3514-2.1876,1.9444-1.1678,3.8362-2.4321,5.6837-3.7489,1.0381-.7399,1.6246-1.8551,1.3374-3.1611-.3876-1.7626-.8089-3.5337-1.4282-5.2232-.3554-.9696-.9981-1.9239-1.7458-2.6407-1.4812-1.4201-2.9441-1.453-4.2348.0194-.4874.556-1.0437,1.0872-1.3873,1.727-.9197,1.713-1.8142,3.4471-2.5861,5.2302-1.4053,3.2464-1.8645,6.6726-1.6979,10.471Z"/>
    <path class="cls-1" d="M153.8117,103.9445c.7422.4433,1.167.624,1.5036.9089,6.0732,5.14,12.1398,10.288,18.1945,15.4498.5882.5015,1.1985,1.0326,1.3355,1.8795-.5779.604-1.2291.5067-1.8574.3239-.9819-.2857-1.9426-.6435-2.9224-.937-.5504-.1649-1.1211-.2619-1.6826-.3895l-.1701.281c.3984.4855.7618,1.0054,1.2004,1.4512,5.2801,5.3656,9.8362,11.3005,13.7889,17.6928,4.7975,7.7586,8.5883,15.9794,11.0435,24.7862,2.7059,9.7061,3.7433,19.5626,2.3015,29.575-.9074,6.3012-2.6316,12.3818-5.9086,17.9212-1.7831,3.0141-3.8643,5.8119-6.2965,8.3364-.423.439-.7987,1.0362-1.8015,1.0019.2512-.6956.3938-1.3123.6821-1.8509,1.3611-2.543,2.7867-5.0517,4.144-7.5967,3.0905-5.7945,5.4912-11.8115,5.9183-18.4665.1891-2.9468-.1593-5.8564-.5302-8.7618-.7662-6.0006-2.6653-11.6917-4.8667-17.2906-3.6796-9.3583-8.4929-18.1135-14.2788-26.3219-2.6792-3.801-5.5931-7.4359-8.3802-11.1614-2.5088-3.3534-4.959-6.7511-7.4981-10.0812-.9839-1.2904-2.1074-2.4808-3.2315-3.6554-.6509-.6802-1.0036-1.3839-.9909-2.3485.0376-2.8386-.0084-5.6782.0139-8.5171.0049-.6232.1566-1.2453.2894-2.2293Z"/>
    <path class="cls-1" d="M146.4049,28.9944c1.1978,1.3274,2.2974,2.4985,3.3292,3.7266.2253.2681.3134.7502.2779,1.1155-.0532.5473-.2248,1.0971-.4285,1.6133-.6066,1.5368-.5703,3.0615-.1622,4.6473,1.3822,5.3708,2.2564,10.8362,2.9085,16.3385.3524,2.9739-.0145,5.8746-1.2148,8.6102-1.1095,2.5288-3.0217,4.0813-5.9036,4.1975-.4056.0163-.8096.0694-1.3056.1135.6104,3.2747-.4111,6.2386-1.2416,9.2286-.1115.4016-.285.7866-.4392,1.1755-.3471.8755-.9901,1.2666-1.9367,1.32-2.0651.1165-3.7177-.7675-5.1392-2.1167-2.0026-1.9006-3.0462-4.3014-3.3809-7.0238-.116-.9431.052-1.9862-1.1015-2.51-.2218-.1007-.2817-.5579-.4517-.9277-.3837-.0364-.7945-.0653-1.2025-.1164-.5994-.0751-1.2093-.115-1.7927-.259-2.4784-.6115-3.4874-2.035-3.2648-4.5549.0614-.6946.1918-1.3866.203-2.0812.014-.8752-.217-1.0939-1.0812-1.0313-.9728.0704-1.983.0771-2.9015.3583-2.7079.8289-5.3921,1.7417-8.0583,2.6979-1.4863.533-2.915,1.2257-4.3756,1.8319-2.1283.8833-4.3495,1.3219-6.7429,1.2238-.1592.5225-.3016.9512-.4205,1.3863-1.0515,3.8477-2.5506,7.487-5.0373,10.6511-.5433.6912-1.1596,1.335-1.8041,1.9342-.8805.8186-1.9558,1.306-3.1647,1.2737-3.9137-.1045-7.7867-.5863-11.6163-1.403-.146-.0312-.2679-.1757-.3542-.5514.4798,0,.9595-.0002,1.4393,0,8.1969.0041,14.0988-3.7447,17.8878-10.9436.7695-1.4619.8225-2.9091-.011-4.3908-.7751-1.3778-1.4481-2.8128-2.2084-4.1994-.3783-.6898-.5234-1.3612-.316-2.136.3446-1.2875.637-2.5889,1.016-4.1502.4375.4346.73.639.9086.9167,1.0309,1.603,2.0749,3.1999,3.0332,4.8462.5846,1.0045,1.347,1.5176,2.501,1.3124,2.0545-.3655,4.1375-.6364,6.1459-1.179,2.2819-.6165,4.4951-1.4876,6.8879-2.2988-.2739-.2081-.4445-.3948-.6562-.4895-1.5278-.6833-3.0581-1.3617-4.6021-2.0072-.3196-.1336-.7036-.187-1.0509-.1654-.8241.0513-1.648.2719-2.465.2406-1.8919-.0723-3.7796-.2534-5.6735-.3907.3661-3.3117,3.2343-5.7968,6.2579-5.3928,1.5002.2005,3.0029.6635,4.4059,1.2454,2.2747.9435,4.4571,2.1073,6.6989,3.1334,3.1852,1.4579,6.502,2.521,9.943,3.1919.4877.0951.9665.2358,1.6253.3989-.4233.9858-.7696,1.8328-1.1501,2.6642-.254.5548-.7585.6019-1.3016.5858-.8122-.0241-1.6257-.0063-2.3857-.0063-.2398.7873.1875,1.0614.5735,1.2904,1.8085,1.0731,3.8163,1.0818,5.8242.998.6508-.0272.7088-.6642.8801-1.1264,1.171-3.1599,2.7821-6.0892,4.6601-8.875.4929-.7311,1.0544-1.4193,1.6236-2.0941.2875-.3409.6625-.6079,1.0905-.9911.2672.3633.5003.5832.6155.8534.5074,1.1898.5591,2.4408.3864,3.703-.3973,2.9038-.7444,5.8205-1.9836,8.5299-.0535.117-.0416.2638-.0744.4985.3469.1037.68.2593,1.0263.2979,2.8791.3209,5.7558.5548,8.5028-.7105,1.7484-.8053,2.1346-1.4311,2.0282-3.3754-.0355-.6482-.1284-1.2965-.2415-1.9366-.7444-4.2136-1.4635-8.4322-2.268-12.6344-.5068-2.6472-1.1202-5.2753-1.7484-7.8969-.1459-.6089-.4842-1.1996-.8436-1.7234-.6516-.9497-.9109-1.9223-.4899-3.026.4391-1.1511.8788-2.302,1.3116-3.4356ZM134.947,71.0903c-.149,1.4186.9003,2.1503,1.7618,2.9328,1.3291,1.2072,3.2111,1.8312,4.3823,1.5725-.136-2.2828-3.5945-4.8541-6.1441-4.5053ZM138.9187,56.4049c-2.0211,1.1049-4.3002,4.5512-4.2635,6.4515,1.4167-.2009,2.8521-.4351,3.5604-1.7767.7392-1.4002.5889-3.0215.7031-4.6748Z"/>
    <path class="cls-1" d="M295.6674,265.9172c-.13-.5481-.2653-.8402-.2581-1.1286.1788-7.0854-1.2523-13.9639-2.6326-20.8525-.3559-1.776-.612-3.5748-.8416-5.3723-.1996-1.5632.1729-3.0589.8345-4.4689.6174-1.3158,1.6508-2.2274,2.9765-2.8132.8342-.3687,1.6664-.7421,2.7987-1.2467-.8525-.4032-1.4-.727-1.9898-.9239-.6787-.2266-1.1385.221-1.5491.6933-.4985.5733-.8751,1.2782-1.739,1.7319-.0584-.4327-.1382-.6919-.1206-.9442.1629-2.3253.6835-4.5144,2.5046-6.1631.3951-.3577.5056-.7279.3295-1.2381-1.0617-3.0758-2.006-6.1969-3.5488-9.0844-.175-.3275-.3665-.647-.5649-.9611-.3485-.5513-.7851-.7737-1.3941-.3612-.8773.5943-1.6808.3125-2.4504-.2343-2.8188-2.0026-2.4831-2.8221-1.2707-5.083,1.2222-2.2794,2.4767-2.5846,4.6141-1.1023,1.7399,1.2067,2.8545,2.9358,3.6037,4.8661.787,2.0279,1.4236,4.1141,2.1426,6.2235.079-.2277.1946-.4919.2625-.7679.5559-2.2572,1.0281-4.5385,1.6796-6.7674.4132-1.4141,1.0556-2.7665,1.6645-4.1153.2239-.496.608-.9385.986-1.3428,1.4461-1.5466,2.9958-1.5138,4.4342.0606,1.7414,1.906,1.7217,4.0933-.1782,5.8931-.3485-.3148-.7335-.6155-1.0628-.9681-1.7185-1.84-2.8371-1.6718-3.7047.7263-.6618,1.8294-1.1353,3.7307-1.6252,5.6175-.5835,2.2471-1.0941,4.513-1.6387,6.7702-.0755.3131-.1646.6229-.2806,1.0587.3523.2003.6945.4088,1.0488.5942,1.9569,1.0239,3.668,2.3559,5.1404,4.0064.8453.9475,1.0077,1.9475.4178,3.0751-.1722.3292-.3334.6673-.4636,1.0149-.3722.9936-1.0654,1.584-2.0974,1.8472-1.1253.287-2.2559.5815-3.3423.9855-1.3432.4995-2.6841,1.0377-3.9497,1.704-1.1136.5863-1.0429.6824-.725,1.8973.7058,2.6969,1.4414,5.3883,2.0506,8.1076,1.0645,4.7518,1.2952,9.5807,1.0352,14.4292-.0667,1.2441-.3816,2.4766-.6132,3.7087-.0455.2421-.232.4577-.4829.9283Z"/>
    <path class="cls-1" d="M128.551,277.3558c.2826-.211.5431-.4643.8515-.6261,2.265-1.1878,4.5342-2.3677,6.8128-3.5291,1.6993-.8662,3.4264-1.6783,5.1179-2.5591.9005-.4689,1.7871-.9913,2.366-2.0201-.8308-.4696-1.7142-.3815-2.5553-.4933-1.4257-.1895-2.8774-.2815-4.267-.6227-2.4794-.6086-3.6301-2.2489-3.5071-4.8196.1015-2.1215.7214-4.1279,1.6483-6.0207,1.8822-3.8442,4.3712-7.2518,7.6384-10.0375.801-.6829,1.7476-1.2521,2.7151-1.6708,1.9426-.8408,3.6407.3084,3.6236,2.4096-.0175,2.1541-.7343,4.105-1.9453,5.8765-.1299.19-.2976.3588-.4677.5157-.7707.7107-1.1868.6952-1.8752-.055-1-1.09-1.2316-1.2068-2.404-.3323-1.2579.9382-2.4585,1.992-3.5152,3.1496-.9454,1.0357-.6723,1.7988.6132,2.3769,1.5967.718,3.3163.8558,5.0244,1.0861,1.2349.1664,2.4957.3715,3.6574.7977,1.8439.6766,2.2921,1.767,1.7397,3.6463-.6939,2.3604-2.0784,4.3626-3.4096,6.3779-.8431,1.2764-1.7893,2.4978-2.8047,3.6413-.4687.5279-1.165.9972-1.8413,1.1732-3.6001.9371-7.202,1.9046-10.9394,2.146-.7203.0465-1.4461.0067-2.1694.0067-.0357-.1391-.0713-.2781-.107-.4172Z"/>
    <path class="cls-1" d="M131.0929,238.0139c3.5628-1.4978,13.3622-10.5089,14.5485-13.3329-.53-.3907-1.0919-.786-1.6334-1.2075-1.9222-1.4965-2.3764-3.2176-1.3301-5.415.8248-1.7322,2.0936-3.0804,3.9074-3.8096,1.8326-.7368,3.2563.017,3.3717,1.9834.0826,1.4082-.2141,2.8557-.4722,4.2617-.2362,1.287-.3134,1.2728.7718,2.053,1.4431,1.0375,1.5204,1.2736.7744,2.87-.2705.5788-.6313,1.1155-1.0355,1.8186-.8554-.5619-1.6093-1.0571-2.3355-1.534-2.1503,2.5005-4.1764,5.0265-6.3867,7.3794-2.271,2.4176-4.9909,4.3305-7.7905,6.0927-2.7409,1.7252-5.5358,3.3717-8.6109,4.5623-.4289-.8142.0526-1.222.3772-1.6185,1.2676-1.548,2.5672-3.0697,3.8561-4.6002,1.6594-1.9703,1.6317-2.3871-.1559-4.3339-.6268-.6825-1.2484-1.3893-1.7479-2.1651-1.0405-1.6159-1.0892-3.3336-.2241-5.0472.8145-1.6135,1.9911-2.8949,3.5549-3.8368,2.5031-1.5075,6.6367-.2904,6.6235,3.798-.0066,2.0554-.4628,4.0032-1.528,5.7294-1.1691,1.8943-2.5247,3.6738-3.8068,5.4978-.1761.2505-.3974.4692-.7281.8545ZM131.2165,234.5609c1.0725-.8064,1.6083-1.5739,2.0627-2.3401.6566-1.1071,1.2966-2.2663,1.6726-3.4868.4578-1.4859-.3191-2.9613-1.7141-3.3597-.8598-.2455-1.8684-.332-2.7302-.1368-2.1658.4906-2.7129,2.3493-1.2303,3.9691,1.3105,1.4317,2.5678,2.8515,1.9393,5.3543ZM147.3499,220.8029c.5276-1.5412.3285-2.7532-.4397-3.1309-.687-.3378-1.5826.0789-2.2871,1.093.5471,1.097,1.5511,1.5988,2.7268,2.0379Z"/>
    <path class="cls-1" d="M56.2113,154.6755c-.0945.3353-.1799.6735-.2849,1.0054-.6316,1.9965-1.2845,3.9893-1.2894,6.1162-.0091,3.9685,2.9833,6.4943,6.9089,5.8455,4.462-.7374,8.3606-2.7491,12.0167-5.3081.2266-.1586.4297-.3561.6212-.557.089-.0933.1241-.2381.2436-.482-.3186-.1708-.6059-.3928-.9301-.4851-.8035-.229-1.6291-.3797-2.4363-.5973-.8959-.2416-1.8219-.4311-2.6624-.8057-1.6609-.7404-2.2541-2.1943-1.7621-3.9102.7379-2.5735,2.0493-4.7662,4.1778-6.4327.1829-.1433.3534-.3034.5421-.4383,1.9908-1.4231,2.982-1.2481,4.3882.7524.4721.6716.8484,1.4408,1.7498,1.8641.7947-1.2324,1.5271-2.4647,2.3571-3.6274.7805-1.0934,1.5756-2.2011,2.5185-3.149,2.8775-2.8928,7.0639-2.2579,9.0737,1.2987.4385.776.5431,1.5895.3039,2.4239-.4738,1.6526-1.2993,3.0738-2.784,4.0459-3.357,2.1981-6.9581,3.2828-10.9897,2.4648-.1794-.0364-.3646-.0446-.6137-.0737-.2698.3436-.5447.6936-1.0118,1.2883,0-.4899-.0439-.7278.0087-.942.1287-.5242-.1044-.8549-.4464-1.2268-.6886-.7487-1.3247-1.5483-1.9501-2.352-.5979-.7683-.8454-.8937-1.6218-.4544-1.4221.8047-2.7509,1.7449-3.7995,3.0229-.2039.2486-.3758.5347-.509.8278-.3252.7153-.2589,1.0407.4565,1.3388.9838.4101,2.0141.7114,3.0315,1.0374.9296.2979,1.8873.5167,2.799.8597,1.4047.5285,1.8452,1.3159,1.7328,2.8103-.1212,1.6126-1.057,2.7467-2.2005,3.7443-1.8716,1.6328-3.9794,2.9154-6.2326,3.9336-2.2424,1.0133-4.4851,2.0421-7.004,2.244-3.6816.2951-6.5242-1.8983-7.1536-5.5473-.2992-1.7344-.1809-3.4511.2865-5.1136.4387-1.5604,1.0702-3.0673,1.6375-4.5901.1225-.3288.3336-.6245.5039-.9355.108.0347.2159.0694.3239.1041ZM81.2524,152.2174c3.0755.0032,5.8163-1.0241,8.3583-2.6677.2674-.1729.5787-.3878.6927-.6579.1216-.2882.1778-.7819.0137-.9851-1.5815-1.959-4.3482-3.3748-7.0085-1.8188-1.9736,1.1543-3.2758,2.9767-4.4318,4.8914-.344.5698-.1263.9448.5798,1.0797.5872.1122,1.1964.1099,1.7958.1584Z"/>
    <path class="cls-1" d="M231.4946,28.5954c.1466.5095.3588,1.0102.4294,1.53.5064,3.73,1.1438,7.4515,1.435,11.1993.4969,6.3953.7636,12.8084,1.1436,19.2131.0854,1.4381.1865,2.8791.3733,4.3065.3459,2.6439,1.5931,3.6959,4.2631,3.8349,2.286.119,4.1557-.7399,5.8418-2.1989.9756-.8442,1.6301-2.0363,2.8711-2.6016.2027-.0923.2586-.4758.4184-.6989.8094-1.1305,1.5344-2.3413,2.4709-3.3561,1.2923-1.4003,2.5868-1.2972,3.7614.2002.4171.5318.7382,1.1961.913,1.8507.6583,2.4653.3759,4.8967-.5233,7.2528-.5688,1.4907-1.2747,1.8557-2.8348,1.4623-.9871-.2489-1.9365-.6496-2.8993-.9918-.7445-.2646-1.4794-.5565-2.2265-.8133-.6034-.2074-1.0829-.054-1.4169.5285-.3004.5239-.62,1.0394-.9659,1.5343-1.4259,2.0396-3.3861,3.1195-5.8757,3.2492-2.1663.1129-3.6895-.9195-4.5743-2.7898-.4874-1.0303-.8228-2.2001-.9222-3.3337-.2881-3.2868-.4557-6.5856-.6092-9.8826-.2725-5.8505-.3922-11.7115-1.1626-17.5268-.2807-2.1189-.6205-4.2352-1.0634-6.3251-.2515-1.1865-.2187-2.2935.1602-3.4209.2466-.7338.4719-1.4748.7067-2.2125.0954-.0032.1909-.0064.2863-.0097ZM253.0757,66.2649c.5004-1.2782-.1315-2.0531-.7143-2.796-.6844-.8726-1.4035-.9866-2.2892-.3525-.4487.3213-.7775.81-1.3122,1.3866,1.5901.6492,2.9268,1.1949,4.3158,1.7619Z"/>
    <path class="cls-1" d="M294.3006,111.1847c.5175-.3738,1.0045-.8022,1.5579-1.1119,2.2316-1.2485,4.4852-2.4577,6.7278-3.6868,1.6313-.894,3.2671-1.7805,4.882-2.7033.5868-.3353,1.2454-.6431,1.5048-1.6071-.5853-.1781-1.1213-.4282-1.6795-.4969-3.7008-.4551-7.4147-.5801-11.1382-.3359q-1.4989.0983-2.5091-.3724c.1002-.324.1483-.6961.3201-.9976.7594-1.3324,1.5287-2.6606,2.3434-3.9596.9355-1.4916,2.3648-2.3225,4.0784-2.3158,3.8553.0149,7.7135.1216,11.5626.3341,1.0755.0594,2.1665.522,3.1719.9743,1.0064.4527,1.1735,1.0236.8176,2.06-.1948.5673-.4204,1.1589-.777,1.63-1.7093,2.258-3.4032,4.5334-5.231,6.6939-1.3088,1.5471-3.0252,2.6236-4.9799,3.2213-3.333,1.019-6.6813,1.988-10.0258,2.969-.1581.0464-.3418.006-.5135.006-.0375-.1004-.075-.2009-.1125-.3014Z"/>
    <path class="cls-1" d="M33.5259,159.3288c-.5204.5574-.824.8958-1.1417,1.2205-1.0869,1.1108-2.2741,2.0418-3.8367,2.4279-1.9031.4702-3.445-.0841-4.5187-1.6582-.6455-.9463-1.0654-2.0522-1.5374-3.1085-.2051-.4589-.2859-.9733-.4678-1.6214-.2856.2667-.5148.4461-.7025.6616-1.0121,1.1625-2.3168,1.8701-3.7561,2.3068-1.6097.4885-2.5565-.2461-2.5543-1.9161.0023-1.7173.7353-3.1599,1.8367-4.4118.767-.8718,1.6035-1.6872,2.4556-2.4776.6027-.5591.897-1.1501.6473-1.9747-.3564-1.1769.2406-2.1244.8476-3.3955.5071,1.1921.9097,2.1387,1.3565,3.1892.7451-.5055,1.3776-.9347,2.0101-1.3639-.0046,1.0743-.5519,1.7948-1.2067,2.4164-.4952.4701-.6613.9314-.4759,1.6011.5086,1.8375.8698,3.721,1.4657,5.5282,1.2384,3.7554,4.2449,4.4269,7.3315,2.1168.6676-.4996,1.2446-1.1193,1.8744-1.671.4099-.359.8398-.6952,1.4336-1.1838.1109.5653.1967.9022.2407,1.2446.2068,1.6091,1.0571,2.3474,2.6263,2.1405,1.2198-.1608,2.4703-.2872,3.6728-1.0415-.3414-.3233-.5878-.5799-.8578-.8083-1.1928-1.0092-2.1125-2.2126-2.7206-3.6608-1.4507-3.4548.4211-7.1877,4.0606-8.0676,2.6927-.651,5.7338.0905,8.0177,1.9898-.3354.4144-.7696.233-1.1326.1693-1.952-.3429-3.9071-.2866-5.8329.0843-1.1275.2172-2.2449.5958-3.2973,1.0596-.8823.3888-1.0334.7982-.6582,1.7018,1.1495,2.7682,3.0797,4.7461,6.0807,5.4294.6419.1462,1.4137.0495,2.048-.1649,1.4062-.4752,2.7616-1.1003,4.1409-1.6563,1.2768-.5147,2.5579-1.019,3.9078-1.556-.0268,1.4009-.7615,2.6891-1.7051,3.1104-3.822,1.7065-7.638,3.4279-11.4837,5.0795-1.147.4926-2.3693.8362-3.5856,1.1302-.6626.1601-1.3938.1535-2.0782.0784-.9967-.1096-1.7158-.6645-2.0378-1.6602-.1103-.341-.2435-.6747-.4669-1.288ZM20.7477,151.2905c-1.9336,1.5845-3.4962,2.9624-4.5772,4.7636.1725.2019.2189.3113.2916.3331,1.3591.4082,3.8851-.3901,4.6486-1.4884.147-.2114.2824-.5199.2445-.7548-.137-.8478-.3504-1.6833-.6075-2.8535Z"/>
    <path class="cls-1" d="M215.7452,101.2581c-.1753-.6477-.3884-1.2878-.5196-1.9442-.8474-4.2391-1.6976-8.4779-2.5044-12.7248-.4681-2.4639-.9421-4.932-1.258-7.4179-.3181-2.5042-.2342-5.0088.6303-7.4385.8983-2.5246,2.4477-4.4582,4.892-5.6329.5346-.2569,1.0466-.5607,1.7419-.9363-.9231-.4932-1.7923-.7106-2.4985-.4989-.6614.1983-1.1663.9181-1.8772,1.5257-.1523-.4676-.2956-.746-.3289-1.037-.1701-1.4869.1534-2.8683.9833-4.1175,1.2627-1.9008,3.3408-2.5991,5.4715-1.8162,1.85.6798,3.5573,1.5995,4.9455,3.0439.9962,1.0365,1.4893,2.2282,1.265,3.6765-.0284.1837-.0395.37-.0681.5536-.4672,3.005-.6649,3.2304-3.6551,3.778-2.5183.4612-5.0224.9574-7.412,1.9167-2.4719.9924-2.6453,1.2-2.2567,3.7971.674,4.5055,1.4818,8.9921,2.0908,13.5058.4347,3.2214.6509,6.473.9282,9.7143.0565.6607-.0497,1.3354-.0809,2.0036-.163.0163-.3259.0327-.4889.049Z"/>
    <path class="cls-1" d="M49.2895,134.2182c0,1.687-.0469,3.262.023,4.8319.0281.6306.2443,1.2796.4993,1.8661.2713.6239.8218,1.0618,1.5246,1.0598.6909-.0019,1.0815-.5567,1.2811-1.1332.3642-1.0523.6252-2.14.9447-3.2083.4663-1.5589.909-3.1266,1.438-4.6643.2234-.6492.602-1.2573.9829-1.836.2779-.4222.6556-.8098,1.3391-.5694.3779.8748.1258,1.7866.0275,2.6928-.1704,1.5703-.3769,3.1379-.495,4.7121-.0443.591.0393,1.2186.1984,1.7924.3395,1.2247,1.1954,1.8171,2.5152,1.7848.0176-.3993.0723-.8085.0478-1.2129-.3036-5.0156-.601-10.0318-.9424-15.0449-.0973-1.4288-.3321-2.8483-.5028-4.2721-.1165-.9711.5472-1.6064,1.0692-2.6568.9304,2.1813,1.8501,4.0654,2.3369,6.2974-.4418-.0492-.7679-.0855-1.2882-.1434.4402,5.6042.7913,11.1787,1.35,17.0083,1.6814-1.0644,2.5577-2.3437,2.5048-4.0157-.057-1.8016-.2108-3.6421-.6644-5.3762-.382-1.4604-.1832-2.7125.378-4.1894.2752.2785.5752.447.6589.6901.3772,1.0949.7657,2.1949,1.0138,3.3231.3695,1.6795.5399,3.4055.96,5.07.2448.97.7182,1.9176,1.2563,2.7694.6563,1.0388,1.7334,1.363,2.9359,1.1674,1.2058-.1961,1.6523-.9618,1.248-2.1143-.1226-.3496-.2818-.6911-.4627-1.0149-1.1302-2.0237-1.6984-4.2203-2.0256-6.4934-.0398-.2761-.0218-.5828-.1395-.8216-.543-1.1023-.1194-2.0587.4614-3.2436,1.052,1.1753,1.917,2.3095,2.52,3.7171-.2605.185-.6495.3168-.7168.5439-.0952.3213-.0032.7275.0966,1.0721.4012,1.3855.8593,2.7547,1.2529,4.1423.4949,1.7445.5563,3.4755-.2069,5.1864-1.0641,2.3856-3.654,2.969-5.5737,1.1662-.5603-.5262-.9495-1.2462-1.3661-1.9094-.2413-.3841-.3811-.832-.5619-1.2408-.148.0379-.2826.0351-.3047.0835-.7185,1.5738-1.5062,3.0871-2.9201,4.1889-.2519.1963-.3489.6334-.445.9794-.2737.9854-.4857,1.9883-.7726,2.9696-.118.4034-.3654.7689-.554,1.1516-.1126-.0326-.2252-.0651-.3378-.0977,0-.3436-.0058-.6873.0012-1.0307.0171-.8373.04-1.6744.061-2.5116.0137-.548-.2353-.8469-.7895-.9588-1.9941-.4028-2.9278-1.8127-3.3908-3.6478-.5024-1.9912-.3023-3.9723.092-5.9503.0611-.3065.112-.615-.068-.9944-.2054.5931-.4498,1.1759-.6088,1.7811-.461,1.7542-.8554,3.5266-1.3436,5.2729-.1979.7077-.4973,1.4118-.8813,2.0372-.6244,1.017-1.5408,1.1869-2.4782.4582-.4614-.3587-.8686-.8575-1.141-1.3766-1.0463-1.9934-1.0559-5.7788-.037-8.0874Z"/>
    <path class="cls-1" d="M211.7759,127.414c.4655-.3442.9065-.7289,1.4003-1.0261,4.2245-2.5428,8.5149-4.9815,12.6711-7.6309,3.0141-1.9214,5.8654-4.1005,8.7627-6.2013.5816-.4217,1.0436-1.0084,1.6399-1.5973-.4411-.2917-.743-.4898-1.0434-.6904-.4249-.2838-.8674-.5453-1.27-.858-2.518-1.9559-3.0059-4.1702-1.5467-6.9971.9679-1.8751,2.4241-3.2838,4.241-4.3214.4385-.2504.9303-.4429,1.4219-.5582,1.3546-.3177,2.5055.3055,3.0333,1.5904.4382,1.0671.4744,2.184.2936,3.2966-.2161,1.3297-.4566,2.6605-.7917,3.9638-.1817.7066-.0473,1.1389.5568,1.5225.5459.3467,1.0574.7554,1.5492,1.1772.4648.3986.6026.9312.4124,1.5207-.4017,1.2449-.9903,2.3824-1.9101,3.3953-.9954-.7047-1.9246-1.3625-2.9082-2.0588-.4098.4342-.7514.7456-1.0341,1.1035-2.4842,3.1452-5.5544,5.6072-8.9399,7.7046-3.1343,1.9418-6.4119,3.584-9.9048,4.7874-1.803.6212-3.5885,1.2926-5.386,1.9298-.3368.1194-.6928.1843-1.04.2744-.0691-.109-.1382-.2179-.2073-.3268ZM234.544,103.5558c.8976,1.2222,2.085,2.0484,3.7913,2.6393.0719-1.0557.2562-1.9197.1587-2.7505-.1561-1.3289-1.2217-1.865-2.4309-1.3213-.626.2815-1.241.6165-1.5191,1.4326Z"/>
    <path class="cls-1" d="M193.5557,55.5228c-1.1553-2.0027-.7702-4.8328.7184-6.189.7283-.6635,1.5753-.9341,2.4196-.3771.9599.6333,1.9592,1.3003,2.6956,2.1625,2.8296,3.3135,4.3381,7.2373,4.9104,11.524.2714,2.0328-.2207,3.9757-.9471,5.866-.3735.972-1.011,1.6835-2.0302,1.956-2.6029.6959-5.1985,1.4333-7.8303,1.9999-.9182.1977-1.9434.0138-2.9018-.1224-1.0079-.1432-1.636-.793-1.9062-1.8004-.3447-1.2851-.2741-3.5274.2125-4.9644.1241,0,.302-.0565.3883.0085,1.3726,1.0343,2.9482,1.0134,4.5423.8945,2.3338-.174,4.6035-.6617,6.8005-1.4624.5159-.188.9886-.4945,1.5529-.7832-.0625-.4065-.0612-.7807-.1803-1.1116-.7602-2.1134-1.7192-4.1244-3.1963-5.8461-.3324-.3874-.6748-.7795-1.0708-1.0968-1.2343-.9891-2.5033-1.9069-4.1776-.6581Z"/>
    <path class="cls-1" d="M206.4719,86.0177c-.5022,1.5625-.8339,3.1144-2.7929,3.8418-6.8874,2.5573-13.7428,5.203-20.5822,7.887-6.1466,2.412-12.2557,4.9196-18.3831,7.3807-.4529.1819-.9195.3297-1.6694.5964.3479-1.7039.6793-3.0979,1.4328-4.3088.2756-.4429.9645-.6887,1.5138-.8919,4.4925-1.6619,9.0034-3.2742,13.4957-4.9366,8.1124-3.0019,16.2149-6.0308,24.3246-9.04.8066-.2993,1.6347-.5406,2.4527-.8088.0694.0934.1387.1868.2081.2802Z"/>
    <path class="cls-1" d="M276.4053,239.3201c-.4194,2.0038-.9841,3.4022-2.9245,4.1331-9.6208,3.6243-19.2025,7.3526-28.7849,11.0779-3.295,1.281-6.5512,2.6618-9.8275,3.9913-.5095.2067-1.0316.3821-1.8525.684.1939-.7682.3308-1.271.4472-1.7786.4616-2.0136,1.6247-3.1459,3.6634-3.8722,9.641-3.4345,19.2184-7.0476,28.8161-10.6035,2.9228-1.0829,5.834-2.197,8.7601-3.2709.4813-.1767,1.0119-.219,1.7027-.3611Z"/>
    <path class="cls-1" d="M146.7964,107.536c-.535,1.5878-1.0078,3.0794-2.9506,3.7921-6.4631,2.3709-12.8858,4.8549-19.2942,7.3715-6.6681,2.6186-13.3011,5.3266-19.9514,7.9906-.3269.1309-.6728.2142-1.2141.3836.2452-1.669.7821-3.0341,1.5583-4.2878.2148-.347.7417-.5489,1.166-.7104,3.0428-1.1581,6.0954-2.2904,9.1462-3.4275,8.5008-3.1685,17.0011-6.3384,25.5044-9.5001,1.4824-.5512,2.9755-1.0745,4.4706-1.5905.4237-.1462.8722-.2209,1.3093-.3283.0851.1023.1702.2045.2553.3068Z"/>
    <path class="cls-1" d="M63.3107,202.1511c.7607-3.0081,1.4638-5.7976,2.172-8.5857.4056-1.5968,1.077-3.0725,2.1178-4.3544.3757-.4628.817-.8958,1.3005-1.2417.5919-.4235,1.2897-.5133,1.9955-.2526,2.8348,1.0469,3.6829,4.6013,1.6194,6.7923-.0565.06-.1674.0689-.3998.1578-.2445-.217-.544-.4803-.8407-.7466-.4139-.3714-.7909-.7964-1.2465-1.1059-.6917-.4698-1.1714-.3963-1.6951.2706-.3389.4316-.5952.9404-.8237,1.444-1.0468,2.3077-1.4402,4.79-1.9717,7.2439-.4407,2.0346-1.0901,4.0265-1.7046,6.0196-.1989.6452-.5239,1.2761-1.1172,1.6576-.6469-.2329-.5503-.7724-.6282-1.195-.5505-2.9894-1.5165-5.8443-2.7776-8.6007-.3268-.7142-.7361-1.3962-1.1621-2.0577-.3471-.5389-.8562-.7524-1.4114-.2842-.8238.6947-1.5579.3963-2.2587-.1635-3.0594-2.4438-2.7406-2.6182-1.2195-5.4893.0434-.082.0966-.1588.1449-.2382,1.1138-1.8329,2.014-2.0299,3.8647-.856,2.0135,1.2771,3.2662,3.1632,4.0836,5.3285.6548,1.7346,1.1319,3.5364,1.6858,5.309.0799.2557.1485.5151.2726.9481Z"/>
    <path class="cls-1" d="M269.2725,119.3076c.8446-3.1907,1.6047-6.1097,2.3927-9.0211.471-1.7403,1.3226-3.2765,2.6498-4.515,1.296-1.2093,2.3893-1.2113,3.6548.0271.4932.4826.9409,1.0398,1.2943,1.6318.8737,1.4635.3726,3.431-1.1884,4.5989-.2681-.2803-.5405-.5783-.8275-.8614-.3302-.3257-.6426-.6814-1.017-.9478-.8758-.6231-1.5827-.5383-2.1057.402-.5606,1.0081-1.0507,2.0848-1.3722,3.1896-.4666,1.6036-.7134,3.2697-1.1286,4.89-.5416,2.1136-1.1069,4.2239-1.7594,6.3051-.3479,1.1096-.6095,1.2748-1.5473,1.74-.0903-.3715-.2016-.7144-.2548-1.0661-.5143-3.393-1.7512-6.5463-3.1834-9.6349-.1167-.2518-.2722-.4873-.4253-.7201-.7208-1.0965-.8097-1.1506-1.9997-.6169-.6245.2801-1.162.2322-1.7156-.1048-.0794-.0483-.1607-.0938-.2392-.1434-2.6186-1.6523-2.8758-2.6535-1.3669-5.3184,1.2771-2.2553,2.331-2.5553,4.4482-1.0089.9521.6954,1.7755,1.6384,2.4648,2.6062,1.1426,1.6042,1.7686,3.4707,2.2952,5.3619.2838,1.0192.5894,2.0323.9312,3.2061Z"/>
    <path class="cls-1" d="M197.6409,112.2763c-.1349,1.8876-.2106,3.4477-1.7977,4.4858-2.9935,1.9579-5.9611,3.9557-8.9336,5.9455-.8877.5942-1.7509,1.2248-2.6359,1.8232-.3302.2232-.6905.4019-1.2229.7075-.461-2.803,1.372-4.087,3.103-5.5523-.3119-.207-.549-.3787-.7999-.5268-.2395-.1413-.501-.2455-.7399-.3877-2.0209-1.2026-2.4908-2.5364-1.4974-4.6765,1.2393-2.6698,3.0853-4.8509,5.6077-6.4094.5084-.3141,1.069-.5812,1.6412-.747,1.3955-.4045,2.6296.4359,2.8467,1.8731.2095,1.3866-.2638,2.9033-1.3322,4.1658-.1688-.1298-.3646-.2396-.5081-.3972-1.1753-1.2907-2.1924-1.4649-3.6741-.4718-1.8807,1.2606-1.8711,1.9149-.083,3.1171,1.634,1.0986,3.1244,1.1801,4.7515.0309,1.1356-.8021,2.3637-1.4756,3.5673-2.1778.4631-.2702.9725-.4608,1.7076-.8022Z"/>
    <path class="cls-1" d="M76.0664,62.6377c.1992-1.095.3207-2.2112.6123-3.281.834-3.06,1.9793-6.0034,3.538-8.7748.6282-1.1169.8563-1.2115,1.9815-.6712,1.4388.6908,2.7358,1.5999,3.7567,2.8389,1.3689,1.6613,2.0742,3.5371,1.4951,5.702-.3947,1.4753-.7021,3.0182-1.3798,4.3641-1.248,2.4781-3.2467,4.0216-6.1965,4.0143-2.1402-.0053-3.5122-1.2137-3.6907-3.3377-.0233-.277-.0032-.5576-.0032-.8365-.0378-.006-.0756-.012-.1134-.018ZM81.8186,61.5573c.5681-.1656,1.3135-.2784,1.9582-.5959.923-.4544,1.1373-1.1854.642-2.0871-.7784-1.4172-1.9558-2.4588-3.4148-3.1355-.7753-.3596-1.2367-.1826-1.5801.5935-.3341.755-.5936,1.5578-.7686,2.365-.2815,1.2983.2356,2.1545,1.4935,2.5592.4767.1534.9931.1835,1.6699.3007Z"/>
    <path class="cls-1" d="M168.5148,56.9278c.3279.4253.7077.8207.9737,1.2817.7199,1.2473,1.4031,2.5162,2.0794,3.788.9505,1.7874,1.1837,3.7063.9389,5.6882-.5631,4.5581-2.2511,8.711-4.6816,12.5677-.9433,1.4969-2.0602,2.8989-3.6718,3.7415-.6371.3332-1.4067.6549-2.0928.6119-3.7562-.2351-7.4892-.6945-11.1495-1.6178-.1562-.0394-.296-.1439-.6882-.3412.4243-.0748.5828-.133.7383-.1258,7.1458.3276,12.8455-2.3731,17.033-8.1805.6741-.9349,1.2295-1.9647,1.759-2.9922.6339-1.2301.6152-2.5202.0344-3.7707-.5866-1.263-1.1679-2.5346-1.8573-3.7419-.6837-1.1975-.9378-2.38-.5324-3.7292.3017-1.0042.4656-2.0499.6908-3.0771.142-.0341.2839-.0683.4259-.1025Z"/>
    <path class="cls-1" d="M75.6054,115.662c.4182-.3362.7179-.6685,1.0899-.862,3.8822-2.02,6.8602-5.0519,9.5751-8.4065,1.6446-2.0322,3.5393-3.8177,5.7233-5.2792,2.262-1.5137,4.6795-1.964,7.306-1.1275.4394.1399.9025.216,1.3601.2861,1.1708.1793,2.0976-.234,2.7797-1.199.5637-.7975,1.1168-1.6026,1.6933-2.3907.1528-.2089.3745-.3676.6491-.6301.5273.7909-.1347,1.4216-.038,2.1636.8787.5539,1.8478.4676,2.9396.2479-.0272-.3598-.0916-.6682-.0643-.9683.0489-.537.077-1.0963.2563-1.5951.1642-.4571.4725-1.101,1.0544-.8695.37.1472.7367.7525.7832,1.1869.2227,2.0808-.4445,3.9578-1.6966,5.587-.2821.3671-.9689.5478-1.4835.5786-.5825.0349-1.2495-.067-1.758-.3379-1.017-.5418-1.7245-.238-2.4579.4979-.4198.4212-.9451.7578-1.4687,1.0508-1.0581.5921-2.2013.8369-3.3496.3223-2.8554-1.2796-5.3956-.3427-7.7778,1.1719-1.3228.841-2.5076,1.9215-3.6709,2.9856-1.5093,1.3806-2.9458,2.8418-4.3944,4.2875-1.8418,1.8381-4.1799,2.7206-6.5895,3.4716-.067.0209-.1649-.0577-.4606-.1717Z"/>
    <path class="cls-1" d="M259.8565,154.702c-2.7196-1.8949-5.4873-3.8233-8.4013-5.8537,1.3575-2.6006,2.2624-5.3778,3.9728-7.8992.5176.23.9662.3575,1.3343.6048,2.159,1.4498,4.302,2.9234,6.4439,4.3984.6177.4253.989.94.7062,1.7682-.8492,2.4866-2.1448,4.7249-3.7056,6.8212-.0472.0634-.1616.0769-.3503.1604Z"/>
    <path class="cls-1" d="M144.4178,138.9679c-1.1066-.7699-2.0905-1.4519-3.0717-2.1378-1.4854-1.0383-2.9687-2.0796-4.4533-3.1192-.9125-.639-1.0021-.776-.5316-1.8413.882-1.9969,1.8107-3.9744,2.7715-5.9348.4589-.9363.7624-1.0587,1.6467-.4803,2.3689,1.5497,4.6824,3.1843,7.0144,4.7903.6325.4356.7012,1.0002.4547,1.7105-.862,2.4835-2.2392,4.6743-3.8308,7.0126Z"/>
    <path class="cls-1" d="M179.9726,325.4318c.1246-1.353.4217-2.4323,1.0614-3.3296.3126-.4384.9576-.699,1.5033-.9031,7.0546-2.639,14.1152-5.2621,21.1814-7.8697,3.2273-1.1909,6.4697-2.3412,9.7077-3.5029.2989-.1072.6159-.1638.9342-.2464.1122,1.3417-.4696,2.4267-1.5989,2.9228-1.0637.4674-2.1497.8844-3.2302,1.3126-9.2927,3.6823-18.5859,7.3633-27.881,11.0398-.4965.1963-1.0104.3485-1.6781.5765Z"/>
    <path class="cls-1" d="M36.0118,106.3703c.5696-2.3139,1.066-4.4321,1.6212-6.5348.2127-.8057.4828-1.616.8674-2.3506.3599-.6876.8293-1.3575,1.3873-1.8926.889-.8526,1.8453-.8537,2.7411-.0174,1.5809,1.476,2.3158,2.6542.4485,5.066-.3751-.2935-.7598-.5821-1.1309-.8873-1.2287-1.0105-2.1267-.8623-2.6831.6438-.5615,1.5198-.9133,3.1185-1.332,4.6893-.4789,1.7968-.9079,3.6072-1.4048,5.3989-.1947.7023-.466,1.4009-1.3026,2.0107-.1619-.5274-.3204-.9296-.4076-1.3466-.517-2.4726-1.3122-4.8497-2.4546-7.1023-.304-.5994-.7238-1.14-1.1162-1.7476-.4091.2269-.6387.3728-.884.4846-.2044.0932-.4608.2544-.6363.1997-1.1109-.3462-1.9377-1.1071-2.5725-2.0407-.4947-.7274-.0641-1.4271.2877-2.0899.1308-.2465.2679-.49.4117-.7291.9943-1.6526,1.4187-1.7565,3.1306-.7833,1.1254.6397,2.0166,1.5364,2.5674,2.6873.6806,1.422,1.2473,2.8998,1.8324,4.3658.2357.5906.3897,1.2139.6292,1.9762Z"/>
    <path class="cls-1" d="M245.8556,212.084c.6592.4634,1.0869.7288,1.4755,1.0426,4.0707,3.2876,6.2677,7.5891,7.0581,12.7258.4624,3.0053-.0584,5.8236-1.0982,8.6025-.3136.838-.3384.8287-1.2194,1.2487-.0208-.2435-.1017-.469-.0469-.6543,1.4863-5.0315.0595-9.4736-2.8966-13.5127-1.2261-1.6753-2.7562-3.1351-4.2047-4.6384-1.0788-1.1196-1.1381-1.1438-.4076-2.4911.3909-.7209.8183-1.422,1.3398-2.3231Z"/>
    <path class="cls-1" d="M178.118,27.8168c.0646.4519.1451.9022.1913,1.356.5275,5.1825,1.1045,10.3608,1.5554,15.55.3342,3.8451.508,7.7042.7424,11.5577.0819,1.3465.1128,2.6961.1999,4.0421.1385,2.1402-.0987,4.2403-.7288,6.3579-.0849-.2719-.219-.5388-.2473-.8165-.6887-6.755-1.3531-13.5126-2.0509-20.2666-.3633-3.5159-.7254-7.0337-1.1983-10.5357-.25-1.8516-.1614-3.604.5863-5.3252.273-.6284.4462-1.3003.6649-1.9523.095.0109.19.0217.285.0326Z"/>
    <path class="cls-1" d="M159.6786,63.5502c-.2882-2.719-.5876-5.4369-.8623-8.1573-.8172-8.0914-1.6094-16.1853-2.4505-24.2742-.1476-1.4193-.0868-2.7694.4463-4.1033.3157-.7899.5447-1.6143.8127-2.4232.0989.0093.1978.0185.2967.0277.0966.7561.1951,1.5119.2895,2.2683,1.0198,8.1678,1.5546,16.376,2.0472,24.5878.1057,1.7628.1772,3.5304.3658,5.2848.2324,2.161-.1242,4.2644-.4466,6.3769-.0245.1603-.1448.3059-.2206.4584-.0927-.0153-.1855-.0306-.2782-.046Z"/>
    <path class="cls-1" d="M261.2053,31.8275c.9521,7.5435,3.784,36.2468,2.0335,38.927-.2047-1.0687-.4414-1.9522-.535-2.8507-.5823-5.5936-1.1175-11.1921-1.6985-16.7859-.3938-3.7908-.7702-7.5855-1.2814-11.3612-.3465-2.5593-.2076-4.9979.9686-7.3282.0824-.1633.1737-.3223.2691-.4784.0193-.0315.0757-.0403.2437-.1227Z"/>
    <path class="cls-1" d="M95.476,149.6246c1.0329,1.1372,1.8692,2.0578,2.7723,3.052-.2675.2135-.5007.3997-.7983.6373.3708.6211.7335,1.2637,1.1293,1.8853,1.5641,2.4571.8049,5.5909-.7294,7.2722-2.4639,2.6999-5.4853,4.6329-8.8825,5.8803-3.568,1.3101-6.1991-.3721-6.7426-4.1378-.3833-2.6554.2055-5.1401,1.6336-7.4525-.0278.2324-.0318.4707-.0876.6962-.235.948-.4971,1.8894-.7278,2.8385-.3963,1.6307.0964,3.0316,1.1607,4.2644.8588.9947,1.9384,1.4574,3.2423,1.1372,1.0802-.2653,2.1808-.5219,3.1976-.9568,2.4958-1.0676,4.7641-2.5317,6.8245-4.3007,1.2172-1.045,1.2333-1.3123.4324-2.7118-.7859-1.373-1.5096-2.7847-2.3549-4.1197-.7902-1.2479-.5559-2.4451-.0696-3.984Z"/>
    <path class="cls-1" d="M54.86,272.5887c.1405-1.5381.5275-2.7666,1.1929-3.8839.2206-.3704.6598-.6589,1.0604-.8665,5.2509-2.7212,10.6558-5.0966,16.2076-7.1352.3841-.1411.793-.2144,1.1942-.3202.3296,1.5767-.5397,3.4493-1.9336,4.0974-1.6442.7645-3.3377,1.4228-4.9837,2.1836-3.9664,1.833-7.9175,3.6991-11.8754,5.5506-.2047.0957-.4145.1804-.8625.3744Z"/>
    <path class="cls-1" d="M55.7671,265.9964c.4635-1.1507.8506-2.3416,1.4256-3.4335.254-.4822.8372-.8759,1.3597-1.1182,3.923-1.8189,7.8612-3.6054,11.8103-5.3669,1.273-.5678,2.5869-1.047,3.8949-1.532.499-.185,1.0342-.2726,1.5874-.4133.0556,2.1405-.8434,3.6504-2.5162,4.3542-2.9148,1.2264-5.8598,2.3843-8.7481,3.6699-2.5463,1.1335-5.0321,2.4027-7.5455,3.6101-.3259.1566-.6572.3021-.986.4527-.094-.0743-.188-.1487-.282-.223Z"/>
    <path class="cls-1" d="M281.0733,259.3452c-.5335,1.7711-1.122,3.528-1.5855,5.3172-.489,1.8879-.9673,3.7913-1.2409,5.7177-.1732,1.2194.0039,2.4955.0928,3.7412.0283.3971.2207.8144.4372,1.1603.6892,1.1012,1.7445,1.2391,2.6802.3269.4609-.4494.8146-1.0094,1.2122-1.5229.3287-.4245.6506-.8542,1.0692-1.405.1086.3453.1979.4761.1773.5864-.3869,2.0675-.9596,4.0761-2.0348,5.9028-.2318.3938-.5562.7511-.8975,1.0593-1.2103,1.0931-2.7287.9936-3.8259-.2283-.6816-.759-.9462-1.6953-1.082-2.6758-.4354-3.1445-.0307-6.2101.8424-9.2397.8551-2.9673,2.099-5.7653,3.5815-8.4643.0822-.1496.206-.2762.3104-.4136.0878.0459.1756.0918.2634.1377Z"/>
    <path class="cls-1" d="M207.0775,143.5938c-.1151.3819-.2199.7672-.3469,1.1451-1.0837,3.2241-2.0458,6.4855-2.4624,9.8674-.1393,1.1306.02,2.3081.1353,3.4548.044.4378.2878.8902.5442,1.2651.6689.9778,1.6347,1.1065,2.4853.2812.5944-.5767,1.0671-1.2803,1.5822-1.9366.1942-.2475.3549-.5213.5765-.8511.1295.1809.2713.2878.2621.3796-.224,2.2481-.7285,4.4171-2.1228,6.2538-.3771.4968-.9241.9475-1.4908,1.2006-1.3235.5911-2.845.0391-3.383-1.3287-.434-1.1036-.7314-2.3207-.789-3.5022-.2369-4.8592,1.0879-9.3858,3.1912-13.7145.3655-.7522.7757-1.4837,1.1911-2.21.0963-.1684.2984-.2762.4518-.4119l.1753.1073Z"/>
    <path class="cls-1" d="M288.3949,56.4989c-.2305.7386-.3888,1.1932-.5143,1.6567-.7896,2.9158-1.6292,5.8199-2.3263,8.7578-.2531,1.067-.2599,2.2224-.1907,3.3256.0477.7601.3051,1.5622.6719,2.2347.6264,1.1485,1.7066,1.2954,2.6629.3974.5687-.534.9972-1.217,1.4917-1.8306.1936-.2402.3953-.4739.7862-.941,0,.5824.0381.8838-.0062,1.1725-.285,1.8552-.777,3.6489-1.8678,5.2063-.7408,1.0577-1.6313,1.9875-3.1026,1.6956-1.4117-.28-2.033-1.3575-2.4161-2.6206-.4664-1.5379-.5565-3.1136-.3888-4.6979.4805-4.5379,1.7692-8.8344,3.9327-12.8595.1976-.3677.4307-.7176.6669-1.0623.0688-.1004.2057-.1541.6006-.4348Z"/>
    <path class="cls-1" d="M121.2796,143.2821c-.1378.4522-.2721.9055-.4139,1.3565-1.1141,3.5443-2.3466,7.0693-2.5932,10.8088-.0711,1.0777.0836,2.253.4635,3.2595.6825,1.808,2.0181,1.9435,3.2723.4777.5393-.6302,1.0597-1.2765,1.5933-1.9117.0185-.022.0858-.0028.2347-.0028.0338.2366.1341.4975.095.7355-.3117,1.8992-.9246,3.6945-1.9986,5.3042-.6497.9738-1.4923,1.6727-2.7655,1.541-1.3251-.137-2.0275-1.0221-2.4922-2.1562-.8428-2.0571-.7056-4.2053-.4365-6.3246.3703-2.9157,1.2285-5.7177,2.3553-8.4301.5164-1.2431,1.0957-2.4606,1.6721-3.6777.1866-.394.4547-.7493.6855-1.1224.1093.0474.2187.0948.328.1422Z"/>
    <path class="cls-1" d="M79.5453,39.8088c.5314-1.127,1.0384-2.2023,1.6212-3.4382,1.408.6264,2.742,1.2349,3.8183,2.2631.2399.2292.3698.7973.2681,1.1205-.3723,1.1833-.8637,2.3291-1.3826,3.6769-1.5662-.8359-2.9391-1.5686-4.4569-2.3787-.6515,1.1146-1.2713,2.1752-1.9963,3.4155-1.1661-.7414-2.3117-1.4136-3.3802-2.1917-.243-.1769-.3688-.7586-.2859-1.0879.1683-.6681.4924-1.3023.7945-1.9302.7434-1.545.7966-1.5549,2.2573-.7681.5734.3089,1.1421.6272,1.7238.9195.2809.1412.5869.2324,1.0187.3992Z"/>
    <path class="cls-1" d="M131.5348,32.9353c-1.7309-1.4152-1.9104-2.3306-.977-4.3003.5734-1.2099,1.1139-2.4356,1.6561-3.66.2907-.6564.536-.8104,1.1752-.4406,2.1489,1.2432,3.588,3.0748,4.1513,5.4997.217.9342-.1237,1.8649-.7572,2.5877-.2733.3117-.7446.5308-1.1615.6146-.4881.0981-1.0406.0991-1.5202-.0277-1.1604-.3069-1.8624.1986-2.6133,1.0297-1.5335,1.6972-3.284,3.1513-5.518,3.8835-.1756.0576-.3519.1197-.5329.1504-.0726.0123-.1586-.0546-.3953-.1461,2.1565-1.7629,4.6823-2.9552,6.4927-5.1908ZM136.7243,31.3447c-.4843-1.3858-1.0936-2.11-2.3272-2.4103-.0991.7112-.1843,1.3228-.2921,2.0965.8583.1029,1.5596.1869,2.6194.3139ZM132.5747,30.64c.5595-.5719.5498-1.1727.4311-1.7631-.1061-.5279-.6627-.8199-1.0374-.4938-.3876.3373-.7393.8324-.8674,1.3212-.1536.5867.4732.6832.8865.8439.1637.0636.3544.058.5871.0918Z"/>
    <path class="cls-1" d="M265.4327,77.8702c-.3576-.1225-.6505-.2647-.9588-.3186-.4491-.0785-.9151-.1584-1.3634-.1185-.5249.0467-1.0342.2876-1.1021.8862-.0684.6026.3877.9995.8815,1.1033.8956.1883,1.8435.3891,2.7328.2811,1.1347-.1378,2.2333-.575,3.3464-.8868.2524-.0707.5005-.1565.9173-.2878-.2686,1.3045-.5775,2.3546-1.8109,2.8611-2.6627,1.0934-5.2153,2.3965-7.7675,4.2273.3059-1.3764,1.2139-2.1066,1.9622-3.0726-.4667-.2791-.8832-.5301-1.3015-.7777-.733-.434-1.0251-1.0773-.8002-1.8914.5964-2.1594,1.8417-3.8269,3.8424-4.8847.2414-.1276.5234-.2.7953-.2441.7426-.1204,1.1755.1775,1.2615.9193.0868.7486.0177,1.4834-.635,2.204Z"/>
    <path class="cls-1" d="M67.8604,96.2843c-.328,1.9465-.8069,3.8507-2.2326,5.3642-.8759.9299-2.159.8282-3.0604-.1685-.6874-.7601-.9826-1.7099-.9715-2.6939.0172-1.5247.0426-3.0675.2835-4.5674.4217-2.6264,1.3923-5.0952,2.5507-7.4847.2157-.4449.4856-.8634.7304-1.2941.1027.0402.2054.0804.3081.1205-.1845.6301-.3371,1.2717-.5592,1.8883-.773,2.1454-1.4713,4.3158-1.6486,6.5986-.0742.9558-.0302,1.9647.1988,2.8904.3952,1.5976,1.6437,1.8534,2.7849.6514.4397-.4632.8305-.9728,1.2435-1.4613.1241.0522.2482.1044.3723.1565Z"/>
    <path class="cls-1" d="M141.9332,21.3564c1.2504-1.3942,3.2063-1.7792,4.5332-3.504-2.1786-.1293-4.1417-1.1093-6.0552.4407.2973-2.2075,2.2857-4.0469,4.3009-4.0193.8788.012,1.7651.0985,2.6315.2474,1.487.2556,1.8878.9293,1.3631,2.376-.8931,2.4619-2.8189,3.7131-5.2713,4.2711-.4896.1114-1.0008.1278-1.502.188Z"/>
    <path class="cls-1" d="M110.7445,39.5615c1.4488-1.2509,3.3011-1.762,4.8204-3.3309-2.2784-.3108-4.2296-.9952-6.1939.2843.3884-2.2362,2.2994-3.9275,4.3947-3.8819.966.021,1.9484.1356,2.8866.361,1.0809.2597,1.3331.7632,1.1025,1.8672-.0938.449-.2527.8985-.4617,1.307-1.0408,2.0345-4.0046,3.5977-6.5486,3.3933Z"/>
    <path class="cls-1" d="M217.2372,39.4375c-.4396-.4035-.7942-.6903-1.1028-1.0201-.6944-.7419-.7923-1.3719-.3466-2.286.4397-.9017,1.1035-1.6053,2.0165-2.0392.8516-.4047,1.494-.0981,1.6071.8308.0717.5888.0042,1.2055-.0782,1.799-.0864.6221-.1062,1.1435.415,1.6485.4167.4038.3112,1.242-.0695,1.6525-.5255.5666-.9005-.1042-1.1862-.163-1.6708,1.2727-3.1841,2.5682-4.8392,3.6457-1.6199,1.0546-3.3758,1.9064-5.4246,2.2.5479-.4214,1.0656-.8913,1.6499-1.2541,1.2213-.7584,2.4934-1.4351,3.7145-2.1939.8654-.5377,1.6961-1.1352,2.513-1.7452.3931-.2935.7186-.6776,1.1311-1.0751ZM217.8432,37.4968c.5634-.7104.5253-1.225.0622-1.9011-.3459.2324-.6499.4368-1.2457.8372.4788.4304.8008.7199,1.1835,1.0639Z"/>
    <path class="cls-1" d="M110.1676,80.1632c.6562-1.4816,1.25-2.8225,1.9222-4.3401,1.635.7369,3.1982,1.3491,4.5591,2.6753-.5802,1.432-1.1623,2.8685-1.8253,4.5049-.8491-.5497-1.551-1.0258-2.2745-1.4667-.7445-.4537-1.5101-.8729-2.3814-1.3733Z"/>
    <path class="cls-1" d="M186.8482,8.178c-.3242.9025-.6513,1.804-.972,2.7078-.6989,1.9699-1.4146,3.9414-1.3186,6.0776.0245.5454.1123,1.124.3301,1.617.4221.9552,1.1378,1.0178,1.8106.2151.3179-.3794.5925-.7952,1.0064-1.1296-.0393,1.7086-.5893,3.2039-1.871,4.3565-.5549.499-1.2431.306-1.7672-.4395-.6645-.9451-.9567-2.0587-.8703-3.1709.2878-3.705,1.5677-7.1049,3.2926-10.3469.1198.0377.2396.0754.3595.113Z"/>
    <path class="cls-1" d="M143.3206,95.2742c.084-1.0619.5081-1.7078,1.3918-2.0222,3.7663-1.3397,7.5342-2.6747,11.3038-4.0051.0742-.0262.1756.0245.4216.0657-.1273.2908-.1687.6505-.3641.7832-.6472.4393-1.3159.8818-2.0373,1.1713-3.3645,1.3504-6.749,2.651-10.129,3.9627-.1192.0463-.2656.0228-.5868.0445Z"/>
    <path class="cls-1" d="M188.0648,39.5327c-.1477-1.1137.4224-1.6086,1.279-1.922,1.7439-.638,3.4818-1.2924,5.2268-1.9277,1.8317-.6669,3.6677-1.3219,5.5045-1.9745.2092-.0743.4356-.1001.8538-.1924-.1009.4122-.0801.7822-.2526.9374-.3702.3334-.8111.6295-1.2739.8122-3.4971,1.3811-7.0056,2.7333-10.514,4.0857-.2415.0931-.5105.1144-.8237.1813Z"/>
    <path class="cls-1" d="M251.6841,41.5732c.0675.8859-.3849,1.2101-.8983,1.4587-.5837.2827-1.1809.5417-1.7856.7766-3.0708,1.1932-6.1454,2.3765-9.2204,3.5587-.2515.0967-.5164.1583-.7871.2398-.1265-1.1414.0168-1.4538.9775-1.8428,1.4622-.5921,2.9368-1.1553,4.4182-1.6978,2.1349-.7817,4.2797-1.5368,6.4232-2.2947.2439-.0862.5072-.1173.8726-.1986Z"/>
    <path class="cls-1" d="M43.8962,130.6934c1.9506-1.2167,3.9013-2.4334,5.9304-3.6991-.2549-.348-.4115-.5597-.5659-.773-.5505-.7602-.5339-2.7215.0921-3.3806.1876-.1976.5734-.2958.8652-.2896,1.0331.0219,2.5288,1.2196,2.8489,2.1877.2977.9003-.164,2.338-1.4125,2.1099-.6945-.1269-1.1337.2484-1.5757.6838-1.6209,1.5965-3.6316,2.5479-5.6959,3.4043-.1125.0467-.2612.006-.393.006-.0312-.0831-.0623-.1663-.0934-.2494ZM49.9846,124.1881c-.1824.277-.419.5107-.3745.5939.104.1943.3256.3821.5354.4377.0947.0251.4181-.3209.3866-.4123-.0703-.2048-.2979-.3556-.5475-.6193ZM52.3078,125.5572c-.1373-.5475-.1949-.9418-.792-.8185-.1516.5955.086.7994.792.8185Z"/>
    <path class="cls-1" d="M223.7286,26.5272c-.0345-.2602-.109-.5222-.0973-.7803.1121-2.4778-.9306-4.5272-2.4762-6.3274-.6753-.7865-.9714-1.5109-.6703-2.5135.1534-.5108.1507-1.0684.2245-1.6522,2.8884,1.4685,4.7416,8.1668,3.0193,11.2734Z"/>
    <path class="cls-1" d="M90.918,40.3112c.0258-1.0032.5057-1.4593,1.1493-1.7648.6278-.298,1.2745-.5625,1.929-.7969,3.1023-1.1107,6.2095-2.2078,9.3176-3.3021.1588-.0559.3422-.042.6004-.0699.025.787-.3971,1.1541-.9661,1.404-.8494.373-1.6976.7518-2.5633,1.0839-2.6434,1.014-5.2929,2.012-7.945,3.0029-.4546.1698-.9338.2739-1.5219.4429Z"/>
    <path class="cls-1" d="M271.7209,85.1891c.0461.9158-.3812,1.2645-.8896,1.5155-.582.2873-1.1856.5343-1.7916.7684-3.2079,1.2393-6.419,2.4702-9.6317,3.6971-.1175.0449-.2626.0177-.3955.0241-.0355-1.2185.0651-1.4297,1.0387-1.8053,1.6045-.6191,3.2186-1.214,4.8345-1.8029,1.8348-.6687,3.6752-1.322,5.5151-1.9763.3817-.1357.7721-.2469,1.3201-.4206Z"/>
    <path class="cls-1" d="M75.3773,69.4145c.026.8371-.6,1.1868-1.2079,1.4665-.9267.4265-1.8905.774-2.8447,1.1391-2.6889,1.0289-5.3807,2.0503-8.0723,3.0721-.2105.0799-.4283.1406-.6868.2245-.3834-.6653-.1009-1.1173.3594-1.4635.3278-.2466.7194-.4298,1.1081-.5707,3.6666-1.3292,7.3385-2.644,11.0114-3.9556.0678-.0242.1677.0414.3328.0875Z"/>
    <path class="cls-1" d="M138.8728,85.2301c-.0966,1.1965-.7971,1.5816-1.5925,1.8728-2.225.8146-4.4556,1.6141-6.6779,2.4359-1.4714.5441-2.9324,1.1163-4.4184,1.6837-.0645-1.1933.0444-1.416,1.0607-1.8208,1.467-.5843,2.9455-1.1409,4.4288-1.6831,1.9635-.7177,3.935-1.4136,5.9061-2.1103.3713-.1312.7566-.2227,1.2933-.3782Z"/>
    <path class="cls-1" d="M77.4874,166.9933c.5938.445,1.053.8254,1.5482,1.1508.6179.406.7777.8714.3432,1.5074-.231.3382-.4286.6991-.7097,1.1626-.7209-.3564-1.3983-.6912-2.0506-1.0136-1.415,1.2963-1.6253,1.3024-2.9826.137-.7044-.6048-.646-.9669.5027-2.636.6914.3361,1.4096.6852,2.1833,1.0613.3734-.4389.7217-.848,1.1654-1.3695Z"/>
    <path class="cls-1" d="M30.9829,141.2141c-.0275-1.0815.6121-1.2955,1.2209-1.5206,2.6178-.9678,5.2384-1.9277,7.858-2.8906.6112-.2247,1.2162-.4692,1.8363-.6661.2867-.091.6027-.0894.9926-.1414-.182.858-.8408.9662-1.3622,1.168-2.2557.8729-4.5299,1.6976-6.7908,2.5573-1.2072.459-2.4008.9535-3.7548,1.4934Z"/>
    <path class="cls-1" d="M78.4716,135.551c.3401.1308.5199.1719.6704.2621,1.9809,1.1869,2.0292,1.4144.6342,3.5585-.6516-.4562-1.3165-.8934-1.9421-1.3811-.1439-.1122-.2638-.4394-.2046-.5956.235-.6199.5453-1.2112.8421-1.8438Z"/>
    <path class="cls-1" d="M28.9652,147.4586c.3711.1774.6264.269.8496.4111,1.8471,1.1753,1.8897,1.4697.4112,3.4056-.5844-.3927-1.2211-.7464-1.7556-1.2163-.2123-.1867-.3356-.6687-.2582-.9499.1529-.5554.4739-1.0645.7529-1.6505Z"/>
    <path class="cls-1" d="M87.4144,156.7699c-.0302,1.5728-1.0615,2.9622-.1768,4.4634.3607-.1165.6788-.2192,1.0423-.3366-.2631,1.1174-.6367,1.6112-1.1529,1.5882-.5413-.024-.9071-.6794-.9273-1.6614-.0264-1.2865.385-2.728,1.2147-4.0537Z"/>
    <path class="cls-1" d="M59.9551,161.7002c.6249-.2026.919-.298,1.248-.4046.0151.1375.0538.27.0367.3948-.0181.1324-.0688.2705-.1407.3837-.2867.4515-.659.8206-1.2386.6506-.5772-.1693-.7476-.7004-.7057-1.2153.0733-.8999.2455-1.7917.6053-2.6761.06.8831.1201,1.7663.1949,2.867Z"/>
  </g>
</svg>