<?xml version="1.0" encoding="UTF-8"?>
<svg id="Magic" xmlns="http://www.w3.org/2000/svg" version="1.1" viewBox="0 0 240.5 238">
  <!-- Generator: Adobe Illustrator 29.6.1, SVG Export Plug-In . SVG Version: 2.1.1 Build 9)  -->
  <path d="M140.7,181.9v-2.2h-.8v-15.3h-18.4c0-.1,0-84.6,0-84.6h4.8v-2.2h-4.8v-2.4s4.8,0,4.8,0v-2.2h-4.8v-2.4h4.9v-2.2h-4.9v-5.9s11.3,0,11.3,0v-13.1h-2.2v10.9h-9.1v-10.9h-2.2v10.9s-9,0-9,0v-10.9h-2.2v13.1h11.3v5.9h-4.8v2.2h4.8v2.4h-4.9v2.2h4.9v2.4h-4.9v2.2h4.9v84.5s-16.2-.1-16.2-.1h0s-2.2,0-2.2,0v15.6h-.9v2.2h.9v4.4h-.9v2.2h4v-2.2h-.9v-4.4h.9v-2.2h-.9v-13.3h1.1v2.3h2.2v-2.2h12.9v5.4h-8.3v10.8h2.2v-8.5h6.1v12.4s-.9,0-.9,0v2.2h4v-2.2h-.8v-12.4s6,0,6,0v8.5h2.2v-10.8h-8.3v-5.2h13.1v2.1h2.2v-2h.9v13.1h-.9v2.2h.9v4.4h-.9v2.2h4v-2.2h-.8v-4.4h.8"/>
  <path d="M73.7,74.7c-1.4,0-2.6-1.2-2.6-2.6s0-.7.2-1l3.4,3.4c-.3.1-.7.2-1,.2ZM76.3,72c0,.2,0,.5-.1.7l-3.2-3.2c.2,0,.5,0,.7,0,1.4,0,2.6,1.2,2.6,2.6ZM176.4,160.1l1.6-1.6-9.2-9.4-1.6,1.6-6.5,6.4-4.2-4.2,3.6-3.5-1.5-1.6-3.6,3.5-1.7-1.7,3.6-3.6-1.5-1.6-3.6,3.6-1.7-1.7,3.7-3.6-1.6-1.6-3.7,3.6-56.7-56.6c3.9-3.1,9.6-2.9,13.2.7l1.6-1.6c-2.3-2.3-5.3-3.6-8.6-3.6s-5.6,1-7.7,2.8l-2.9-2.9,10.6-10.6-1.6-1.6h0l-13.4-13.4-1.6,1.6,13.4,13.4-9,9-4.4-4.4,3.4-3.4-1.6-1.6-3.4,3.4-1.9-1.9c.4-.7.6-1.5.6-2.4,0-2.7-2.2-4.8-4.8-4.8s-4.8,2.2-4.8,4.8,2.2,4.8,4.8,4.8,1.9-.3,2.7-.8l1.9,1.9-3.5,3.5,1.6,1.6,3.5-3.5,4.4,4.4-9.1,9.1-13.4-13.4-1.6,1.6,13.4,13.4,1.6,1.6,1.6-1.6,9.1-9.1,2.9,2.9c-1.8,2.2-2.8,4.9-2.8,7.7s1.3,6.3,3.5,8.6l1.6-1.6c-3.6-3.6-3.8-9.3-.7-13.1l56.7,56.6-3.2,3.2,1.5,1.6,3.2-3.2,1.7,1.7-3.3,3.2,1.5,1.6,3.3-3.2,1.7,1.7-3.3,3.3,1.6,1.6,3.4-3.3,4.2,4.2-6.4,6.3-1.6,1.5,9.2,9.4,1.6-1.5-7.6-7.8,6.4-6.3,7.7,7.7,1.6-1.6-7.7-7.7,6.5-6.4,7.6,7.8"/>
  <path d="M178.3,119.5h11v-2.2h-11v-9.1h10.9v-2.2h-13.1v11.3h-11.2c.4-5.1,4.7-9.1,9.9-9.1v-2.2c-6.4,0-11.7,5-12.1,11.3h-2.9v-4.8h-2.2v4.8h-2.9c-.6-6.1-5.7-11-12-11v2.2c5.1,0,9.3,3.8,9.8,8.8h-88.2s0-22.6,0-22.6h-13.1v2.2h10.9v9.1h-10.9v2.2h10.9v9.1h-10.9v2.2h0c0,0,10.8,0,10.8,0v9h-10.9v2.2h10.9v9.1h-10.9v2.2h13.1v-22.5h88.2c-.5,4.9-4.7,8.8-9.8,8.8v2.2c6.3,0,11.5-4.9,12.1-11h2.9v4.9h2.2v-4.9h2.9c.7,6,5.8,10.7,12,10.7v-2.2c-5,0-9.1-3.7-9.8-8.5h11.1s0,11.3,0,11.3h13.1v-2.2h-10.9v-9.1"/>
  <path d="M177.7,78.4l-1.6-1.6-7.7,7.7-6.4-6.4,7.8-7.8-1.6-1.6-7.8,7.8-6.4-6.4,7.7-7.7-1.6-1.6-9.3,9.3,1.6,1.6,6.4,6.4-4.5,4.5c-2-2.4-2.8-5.5-2.1-8.6l-2.2-.5c-.8,3.8.2,7.7,2.7,10.6l-1.7,1.7c-4.8-4-11.9-3.8-16.3.7l1.6,1.6c3.6-3.6,9.3-3.8,13.2-.7l-53,53c-2.8-3.9-2.4-9.3,1-12.8l-1.6-1.6c-2.3,2.3-3.5,5.3-3.5,8.6s.9,5.3,2.5,7.4l-4.2,4.2-3.4-3.4-1.6,1.6,3.4,3.4-3.4,3.4-7.8-7.8-14.9,14.9,1.6,1.6,13.4-13.4,6.3,6.3-1.8,1.8-3.4-3.4-1.6,1.6,3.4,3.4-1.7,1.7-3.4-3.4-1.6,1.6,3.4,3.4-1.7,1.7-3.5-3.5-1.6,1.6,3.5,3.5-3.8,3.8,1.6,1.6,3.8-3.8,3.4,3.4,1.6-1.6-3.4-3.4,1.7-1.7,3.4,3.4,1.6-1.6-3.4-3.4,1.7-1.7,3.5,3.5,1.6-1.6-3.5-3.5,1.8-1.8,6.6,6.6-13.4,13.4,1.6,1.6,13.4-13.4,1.6-1.6-8.1-8.1,3.4-3.4,3.5,3.5,1.6-1.6-3.5-3.5,4.1-4.1c2.2,2,5.1,3.1,8.1,3.1s6.3-1.3,8.6-3.5l-1.6-1.6c-3.7,3.7-9.6,3.8-13.5.4l53-53.1c3.1,3.9,2.8,9.5-.8,13.1l1.6,1.6c2.3-2.3,3.5-5.3,3.5-8.6s-1-5.5-2.8-7.7l1.7-1.7c2.2,1.7,4.8,2.6,7.5,2.6s3.1-.3,4.6-.9l-.8-2c-3.2,1.3-6.9.8-9.6-1.2l4.5-4.5,8,8,9.3-9.3"/>
  <path d="M143.3,89.7c0-.8-.6-1.4-1.4-1.4s-1.5.6-1.5,1.4.6,1.5,1.5,1.5,1.4-.6,1.4-1.5"/>
  <path d="M151.1,96.9c0-.8-.6-1.4-1.4-1.4s-1.5.6-1.5,1.4.6,1.5,1.5,1.5,1.4-.6,1.4-1.5"/>
  <path d="M120.3,7.4C58.7,7.4,8.7,57.5,8.7,119s50,111.6,111.6,111.6,111.6-50,111.6-111.6S181.8,7.4,120.3,7.4ZM120.3,232.6c-30.3,0-58.9-11.8-80.3-33.3C18.5,177.9,6.7,149.3,6.7,119s11.8-58.9,33.3-80.3C61.4,17.2,89.9,5.4,120.3,5.4s58.9,11.8,80.3,33.3c21.5,21.5,33.3,50,33.3,80.3s-11.8,58.9-33.3,80.3c-21.5,21.5-50,33.3-80.3,33.3"/>
  <path d="M120.1,43.5c-41.6,0-75.5,33.9-75.5,75.5s33.9,75.5,75.5,75.5,75.5-33.9,75.5-75.5-33.9-75.5-75.5-75.5ZM120.1,196.5c-42.8,0-77.5-34.8-77.5-77.5S77.4,41.5,120.1,41.5s77.5,34.8,77.5,77.5-34.8,77.5-77.5,77.5"/>
  <path d="M124,36.8c-.4,0-.8-.2-.9-.7l-8.1-21.6c-.2-.5,0-1.1.6-1.3.5-.2,1.1,0,1.3.6l8.1,21.6c.2.5,0,1.1-.6,1.3-.1,0-.2,0-.4,0"/>
  <path d="M116,36.8c-.1,0-.2,0-.4,0-.5-.2-.8-.8-.6-1.3l8.1-21.6c.2-.5.8-.8,1.3-.6.5.2.8.8.6,1.3l-8,21.6c-.1.4-.5.7-.9.7"/>
  <path d="M65.3,29.4l4.2,7.9,4-7.9h-8.2ZM73.5,49.3l-10.7-20.4c-.2-.3-.1-.7,0-1,.2-.3.5-.5.9-.5h11.5c.3,0,.7.2.9.5.2.3.2.7,0,1l-4.8,9.6,12.3,5.5-.8,1.8-11.5-5.1,4,7.7-1.8.9"/>
  <path d="M90.1,31.2l-1.7-1,9.4-16,1.7,1-9.4,16"/>
  <path d="M103.8,40.9l-15.3-10.5,1.1-1.7,15.3,10.5-1.1,1.7"/>
  <path d="M58.9,66.6l-17-17.1c-.2-.2-.3-.6-.3-.9,0-.3.3-.6.7-.7l11.1-3.6.6,1.9-9.5,3.1,15.8,15.9-1.4,1.4"/>
  <path d="M48.7,55.5l-.6-1.9,8.7-2.9.6,1.9-8.7,2.9"/>
  <path d="M45.8,83.1l-20.1-12.1,1-1.7,20.1,12.1-1,1.7"/>
  <path d="M39.9,77.7h-2v-8.5l-5.7,4.9-1.3-1.5,7.4-6.3c.3-.3.7-.3,1.1-.1s.6.5.6.9v10.7"/>
  <path d="M40.4,102.8l-25.7-7.2c-.4-.1-.7-.4-.7-.8,0-.4.1-.8.4-1l9.9-6.6c.2-.2.5-.2.8-.1l17.7,4.6-.5,2-17.2-4.5-7.7,5.1,23.6,6.6-.5,2"/>
  <path d="M39.9,123.6H12.9v-2h27v2"/>
  <path d="M18.7,123.3l-8-8,1.4-1.4,8,8-1.4,1.4"/>
  <path d="M23.2,123.3l-6.5-8,1.6-1.3,6.5,8-1.6,1.3"/>
  <path d="M20,140.2l8.9,1.2,6.7-5.6-15.6,4.3h0ZM29.4,143.6l-5.8,4.8,13.9-3.7-8.1-1.1h0ZM19.4,151.6c-.4,0-.7-.2-.9-.5-.2-.4-.1-.9.3-1.2l8-6.5-11.8-1.7c-.5,0-.8-.5-.9-.9,0-.5.3-.9.7-1l24.9-6.9c.5-.1.9,0,1.2.5.2.4.1.9-.3,1.2l-9,7.4,11.2,1.6c.5,0,.8.5.9.9,0,.5-.3.9-.7,1l-23.2,6.1c0,0-.2,0-.3,0"/>
  <path d="M28.1,172.8l9.5.5,3.3-8.4-8.7-.8-4.1,8.7h0ZM38.2,175.3h0l-11.7-.6c-.3,0-.6-.2-.8-.5-.2-.3-.2-.6,0-1l5.1-10.7c.2-.4.6-.6,1-.6l9.9.9,3.3-8.5,1.9.7-3.1,7.9,10.7.9-.2,2-11.3-1-3.7,9.6c-.2.4-.5.6-.9.6"/>
  <path d="M45.2,193.9h8.2v-8.2h-8.2v8.2ZM54.5,195.9h-10.2c-.6,0-1-.4-1-1v-10.2c0-.6.4-1,1-1h10.2c.6,0,1,.4,1,1v10.2c0,.6-.5,1-1,1"/>
  <path d="M70.4,217.8l-4.3-7.7,1.8-1,2.5,4.4,11.8-22.9,1.8.9-13.6,26.2"/>
  <path d="M86.9,223.2c-.2,0-.5,0-.7-.3-.3-.3-.4-.7-.3-1l8.3-25.6,1.9.6-7.6,23.5,10.6-4.3.8,1.9-12.6,5.1c-.1,0-.3,0-.4,0"/>
  <path d="M97.2,226.2c-.3,0-.6-.2-.8-.4l-7.6-11.3,1.7-1.1,6.4,9.5,6.8-23.8,1.9.6-7.4,25.9c-.1.4-.4.7-.8.7,0,0-.1,0-.2,0"/>
  <path d="M114.7,228.7c0,0-.2,0-.3,0-.5-.1-.8-.6-.8-1v-27.4h2.2v23.2s2.8-5.1,2.8-5.1c.2-.3.5-.5.9-.5s.7.2.9.5l2.8,5.1v-23.2h2.1v27.4c0,.5-.3.9-.8,1-.5.1-1,0-1.2-.5l-3.9-7-3.9,7c-.2.3-.6.5-.9.5"/>
  <path d="M138.9,205.8l7.2,1.4-1.9-8.3-5.3,6.9h0ZM142.8,217.2l7.3,3.1-3-9.3-4.3,6.2h0ZM151.9,223.2c-.1,0-.3,0-.4,0l-10.7-4.5c-.3-.1-.5-.4-.6-.7s0-.6.1-.9l5.4-7.8-8.9-1.7c-.4,0-.7-.3-.8-.7-.1-.3,0-.7.1-1l7.4-9.7v-.5c-.1,0,2-.5,2-.5l3.3,14,4.1,12.6c.1.4,0,.8-.3,1.1-.2.2-.5.3-.7.3"/>
  <path d="M174.7,213.3c0,0-.1,0-.2,0l-7.7-1.6.4-2.1,5.2,1.1-13.5-21.3,1.8-1.1,14.9,23.5c.2.4.2.8,0,1.2-.2.3-.5.5-.9.5"/>
  <path d="M174.6,213.4c-.4,0-.7-.2-.9-.5l-14.6-23.6,1.8-1.1,13.3,21.4,1.3-5.2,2.1.5-1.9,7.6c-.1.4-.4.7-.9.8,0,0-.1,0-.2,0"/>
  <path d="M193,200.5h-2.1v-17.1l-7.9,7.2c-.3.3-.7.3-1.1.2s-.6-.5-.7-.9l-1-20.1h2.2c0-.1.9,17.7.9,17.7l8-7.3c.3-.3.8-.4,1.2-.2.4.2.6.6.6,1v19.5"/>
  <path d="M213.4,173.5l-24.2-14.5,1.1-1.8,24.2,14.5-1.1,1.8"/>
  <path d="M207.4,177.8l-2.8-9.9c0-.3,0-.6.1-.9s.5-.4.8-.5l11.2-1.1.2,2.1-10,1,2.4,8.6-2.1.6"/>
  <path d="M221,152.5l-3-6c-.3-.5,0-1.1.4-1.4l5.3-2.8-23.4-6.7,2,4c.3.5,0,1.1-.4,1.4l-6.1,3.4-1-1.9,5.2-2.9-2.6-5.3c-.2-.4-.1-.8.1-1.2.3-.3.7-.5,1.1-.3l28.2,8.1c.4.1.7.5.8.9,0,.4-.2.8-.6,1.1l-6.6,3.6,2.5,5.1-1.9.9"/>
  <path d="M225.6,125.3l-1.9-1.1,2.6-4.5-28,1.3c-.4,0-.8-.2-1-.5s-.2-.8,0-1.1l4.3-6.6,1.8,1.2-3.2,4.9,27.8-1.3c.4,0,.8.2,1,.5.2.3.2.8,0,1.1l-3.6,6.2"/>
  <path d="M200.9,101.8l-2-.8,5-11.5c.2-.5.8-.8,1.4-.6l8,3.1-.8,2-7.1-2.7-4.6,10.5"/>
  <path d="M214.5,101.2c-.1,0-.3,0-.4,0l-8-3.1.8-2,7.1,2.7,4.6-10.6,2,.9-5,11.5c-.2.4-.6.6-1,.6"/>
  <path d="M176.6,62.5l-1.4-1.6,19.8-17.1,1.4,1.6-19.8,17.1"/>
  <path d="M189,59.7l-2.1-.3,2.3-17.4,2.1.3-2.3,17.4"/>
  <path d="M157.6,47.8l-1.9-1,12.3-22.3,1.9,1-12.3,22.3"/>
  <path d="M165.8,51.7l-1.9-1,12.3-22.3,1.9,1-12.3,22.3"/>
  <path d="M168.9,45c-.5,0-.9-.3-1.1-.9l-2.8-13.6c-.1-.6.2-1.2.8-1.3s1.1.2,1.3.8l2.8,13.6c.1.6-.2,1.2-.8,1.3,0,0-.1,0-.2,0"/>
  <path d="M145.8,16.7l-2,6.6,7.8-1.6-5.8-5h0ZM139.3,38.1l-2.1-.6,7-22.9c.1-.3.4-.6.7-.7s.7,0,1,.2l8.7,7.5c.3.3.4.7.3,1.1,0,.4-.4.7-.8.8l-11.1,2.2-3.8,12.4"/>
  <path d="M190.7,79.5l-1-1.9,22.8-11.6,1,1.9-22.8,11.6"/>
  <path d="M111.1,113.8c-2.9,5-1.2,11.3,3.8,14.2s11.3,1.2,14.2-3.8c2.9-5,1.2-11.3-3.8-14.2-2.4-1.4-5.2-1.8-7.9-1-2.7.7-4.9,2.4-6.3,4.8ZM120.1,131.4c-2.1,0-4.2-.5-6.2-1.7-5.9-3.4-8-11-4.5-16.9,1.7-2.9,4.3-4.9,7.5-5.8s6.5-.4,9.4,1.2c5.9,3.4,8,11,4.5,16.9-2.3,4-6.5,6.2-10.8,6.2"/>
  <path d="M109.6,26.3c0,1.3-1,2.3-2.3,2.3s-2.3-1-2.3-2.3,1-2.3,2.3-2.3,2.3,1,2.3,2.3"/>
  <path d="M134,26.7c-.3,1.2-1.6,2-2.9,1.7s-2-1.6-1.7-2.9,1.6-2,2.9-1.7,2,1.6,1.7,2.9"/>
  <path d="M157.4,33.5c-.6,1.1-2.1,1.5-3.2.9-1.1-.6-1.5-2.1-.9-3.2.6-1.1,2.1-1.5,3.2-.9,1.1.6,1.5,2.1.9,3.2"/>
  <path d="M178.2,46c-.9.9-2.4.9-3.3,0-.9-.9-.9-2.4,0-3.3s2.4-.9,3.3,0c.9.9.9,2.4,0,3.3"/>
  <path d="M195.1,63.5c-1.1.6-2.6.3-3.2-.9-.6-1.1-.3-2.6.9-3.2,1.1-.6,2.5-.3,3.2.9.6,1.1.3,2.5-.9,3.2"/>
  <path d="M206.9,84.8c-1.2.3-2.5-.4-2.9-1.7-.3-1.2.4-2.5,1.7-2.9s2.5.4,2.9,1.7c.3,1.2-.4,2.5-1.6,2.9"/>
  <path d="M212.8,108.5c-1.3,0-2.3-1-2.3-2.3s1-2.3,2.3-2.3,2.3,1,2.3,2.3-1,2.3-2.3,2.3"/>
  <path d="M212.4,132.8c-1.2-.3-2-1.6-1.7-2.9s1.6-2,2.9-1.7c1.2.3,2,1.6,1.7,2.9s-1.6,2-2.9,1.7"/>
  <path d="M205.7,156.2c-1.1-.6-1.5-2.1-.9-3.2.6-1.1,2.1-1.5,3.2-.9,1.1.6,1.5,2.1.9,3.2-.6,1.1-2.1,1.5-3.2.9"/>
  <path d="M193.1,177.1c-.9-.9-.9-2.4,0-3.3s2.4-.9,3.3,0,.9,2.4,0,3.3-2.4.9-3.3,0"/>
  <path d="M175.6,194c-.6-1.1-.3-2.5.9-3.2,1.1-.6,2.6-.3,3.2.9.6,1.1.3,2.6-.9,3.2-1.1.6-2.5.3-3.2-.9"/>
  <path d="M154.3,205.8c-.3-1.2.4-2.5,1.7-2.9s2.5.4,2.9,1.7-.4,2.5-1.7,2.9-2.5-.4-2.9-1.7"/>
  <path d="M130.6,211.7c0-1.3,1-2.3,2.3-2.3s2.3,1,2.3,2.3-1,2.3-2.3,2.3-2.3-1-2.3-2.3"/>
  <path d="M106.3,211.3c.3-1.2,1.6-2,2.9-1.7s2,1.6,1.7,2.9-1.6,2-2.9,1.7c-1.2-.3-2-1.6-1.7-2.9"/>
  <path d="M82.9,204.5c.6-1.1,2.1-1.5,3.2-.9,1.1.6,1.5,2.1.9,3.2-.6,1.1-2.1,1.5-3.2.9-1.1-.6-1.5-2.1-.9-3.2"/>
  <path d="M62,192c.9-.9,2.4-.9,3.3,0,.9.9.9,2.4,0,3.3-.9.9-2.4.9-3.3,0s-.9-2.4,0-3.3"/>
  <path d="M45.1,174.4c1.1-.6,2.6-.3,3.2.9.6,1.1.3,2.5-.9,3.2-1.1.6-2.5.3-3.2-.9-.6-1.1-.3-2.5.9-3.2"/>
  <path d="M33.3,153.1c1.2-.3,2.5.4,2.9,1.7.3,1.2-.4,2.5-1.7,2.9-1.2.3-2.5-.4-2.9-1.7s.4-2.5,1.7-2.9"/>
  <path d="M27.4,129.5c1.3,0,2.3,1,2.3,2.3s-1,2.3-2.3,2.3-2.3-1-2.3-2.3,1-2.3,2.3-2.3"/>
  <path d="M27.9,105.2c1.2.3,2,1.6,1.7,2.9s-1.6,2-2.9,1.7c-1.2-.3-2-1.6-1.7-2.9s1.6-2,2.9-1.7"/>
  <path d="M34.6,81.8c1.1.6,1.5,2.1.9,3.2-.6,1.1-2.1,1.5-3.2.9-1.1-.6-1.5-2.1-.9-3.2.6-1.1,2.1-1.5,3.2-.9"/>
  <path d="M47.1,60.9c.9.9.9,2.4,0,3.3-.9.9-2.4.9-3.3,0s-.9-2.4,0-3.3,2.4-.9,3.3,0"/>
  <path d="M64.7,44c.6,1.1.3,2.5-.9,3.2-1.1.6-2.5.3-3.2-.9s-.3-2.6.9-3.2c1.1-.6,2.6-.3,3.2.9"/>
  <path d="M86,32.2c.3,1.2-.4,2.5-1.7,2.9s-2.5-.4-2.9-1.7c-.3-1.2.4-2.5,1.7-2.9s2.5.4,2.9,1.7"/>
</svg>