<?xml version="1.0" encoding="UTF-8"?>
<svg id="Maimunah" xmlns="http://www.w3.org/2000/svg" viewBox="0 0 411.096 237.9843">
  <defs>
    <style>
      

      @import url('../../CSS/SvgStyling.css');
      
    </style>
  </defs>
  
  <g class="content">

    <rect id="bg" class="bg" width="411.096" height="237.9843"/>
    <path class="cls-1" d="M373.6444,134.9274c-1.4538.2981-2.8465.5764-4.2358.87-4.1195.8706-8.292,1.5135-12.484,1.0097-7.3795-.8868-13.7874-3.7364-18.1232-10.1113-2.4365-3.5823-3.8993-7.6108-5.0095-11.7826-.382-1.4356-.9433-2.8269-1.4785-4.2169-.2898-.7526-.854-1.1108-1.7328-1.1508-2.6524-.1209-4.9871.7813-7.1702,2.1328-3.6931,2.2862-6.6428,5.3964-9.389,8.7112-1.015,1.2252-1.9782,2.4933-2.9626,3.7438-.5472.695-.7821,1.4562-.6536,2.3621.6937,4.8942,2.1189,9.5698,4.1717,14.0565.725,1.5846.7495,1.5338,2.4111,1.1262,4.7986-1.1774,9.615-2.3002,14.5673-2.5742,4.7212-.2613,9.1335.7177,12.8434,3.8339,3.3882,2.846,4.5794,6.7177,4.9391,10.9724.4493,5.3149-.926,10.2314-3.052,15.016-1.1418,2.5696-2.4908,4.9877-4.4211,7.0668-4.391,4.7296-9.731,5.457-15.1842,1.9844-6.8318-4.3505-11.9946-10.2853-16.1156-17.1768-1.2069-2.0182-1.1353-2.0336-3.4536-1.3568-6.1099,1.7835-12.2179,3.5748-18.3489,5.2833-.9535.2657-.9689.7397-1.1116,1.5444-.5376,3.0332-1.1022,6.0743-1.9083,9.0442-1.2194,4.4927-2.9963,8.786-5.2367,12.8778-1.4885,2.7186-3.7028,4.8416-5.818,7.0362-8.8437,9.1754-18.6106,17.2854-28.9667,24.6745-7.4387,5.3075-15.4194,9.6575-24.1919,12.3912-5.334,1.6622-10.79,2.7296-16.4053,2.4152-8.9907-.5034-15.6734-4.8946-20.1749-12.573-4.5601-7.7783-5.7588-16.2999-5.3262-25.188.3302-6.7858,1.3845-13.4356,3.0573-20.0036.2725-1.0701.5156-2.1482.8127-3.2113.1529-.5469.0461-.8233-.5379-.9982-7.6415-2.2885-13.4188-7.0808-17.5676-13.7351-2.8456-4.5641-5.2147-9.4252-7.7959-14.1541-.0778-.1425-.1354-.2966-.2197-.4347-1.5353-2.5147-1.0502-2.6546-4.2278-1.5389-3.6138,1.2689-6.4762,3.6775-9.1125,6.3617-7.3022,7.4349-12.4464,16.1919-15.7591,26.0375-2.1544,6.4034-4.1584,12.8577-6.3441,19.2501-1.3723,4.0135-3.1886,7.822-6.1083,11.0013-1.8202,1.9821-3.9372,3.499-6.5702,4.1695-3.0964.7885-5.8136-.3377-8.4567-1.7837-3.9753-2.1746-6.9697-5.3827-9.5083-9.0545-5.5752-8.0641-8.3856-17.1727-9.9321-26.7286-1.5647-9.6681-1.9409-19.3879-.9896-29.1469.0431-.4422.1012-.8829.1737-1.5089-.4529.148-.7752.2417-1.0891.3578-3.6254,1.34-7.2164,2.7854-10.8885,3.9817-1.7634.5745-3.6712.8759-5.5284.9559-3.4817.15-5.3664-1.5313-5.9752-4.9684-.0493-.2784-.11-.5549-.1428-.7192-1.7328,1.8795-3.4747,3.7689-5.2765,5.7232.3091.2008.7531.5017,1.2091.7835,4.5922,2.8376,5.5524,9.0823,2.0188,13.1687-.9,1.0408-2.064,1.4065-3.4083,1.31-3.1021-.2228-5.388-1.9428-7.3856-4.1126-1.6982-1.8446-2.8189-4.0307-3.4887-6.4544-.0901-.3261-.4152-.596-.6597-.8665-.1019-.1127-.3767-.1328-.4045-.2391-.3192-1.2172-1.1589-.6859-1.8955-.6136-2.792.274-5.4864.1356-7.589-2.0892-1.1936-1.263-1.8003-2.8396-2.2951-4.4666-1.069-3.5152-1.2776-7.1566-1.5209-10.7855-.1607-2.3979-.1825-4.805-.2686-7.208-.0149-.4156-.0401-.8308-.06-1.2335-.8282,0-1.5674-.0239-2.3047.0042-2.9858.1136-5.862-.4196-8.4739-1.8476-4.3498-2.3783-6.7352-6.1559-7.0454-11.0834-.3737-5.9369,1.0719-11.5418,3.5843-16.889.3676-.7825.5086-1.4126.0009-2.2554-.3482-.578-.3451-1.4368-.3135-2.1621.1236-2.8387,1.4256-5.3021,2.6169-7.7924.4195-.8768.8659-1.7421,1.3352-2.5932.2256-.4091.5329-.773.8032-1.1574.096.0472.1921.0944.2881.1416-.2655.6513-.5226,1.3061-.798,1.9531-.6993,1.6425-1.5125,3.2465-2.0715,4.935-.336,1.0149-.3545,2.1579-.3757,3.246-.0147.7557.5479,1.2531,1.265,1.4214.7598.1784,1.0784-.414,1.3999-.9608.1592-.2707.3708-.5107.5587-.7645.1091.0487.2181.0974.3272.1461-.1444.5288-.1646,1.143-.4576,1.5698-.7431,1.0825-1.6073,2.082-2.4261,3.1124-.1395.1756-.3419.3165-.4347.5118-1.9001,3.9966-3.3226,8.1355-3.3147,12.6185.0116,6.5818,5.0137,11.8435,11.586,12.266,1.101.0708,2.2079.044,3.3115.0796.6098.0196.8753-.2048.8442-.8573-.3686-7.7239-.6384-15.4536-1.1023-23.1716-.3351-5.5751-.8973-11.1374-1.4133-16.7003-.1377-1.4839-.5595-2.9418-.6911-4.4259-.0672-.7579.1281-1.5775.3724-2.3136.2318-.6983.664-1.335,1.0443-1.9772.2024-.3419.4817-.6383.853-1.1193.1652.47.2806.7238.3441.99,1.5366,6.4381,2.3132,12.9918,2.6738,19.5798.5149,9.4065.8271,18.8241,1.2266,28.2369.0163.3833.0395.7663.0587,1.1349,3.6113.4826,20.8596-8.1717,21.8141-11.0981-1.6148-.4519-3.2028-.9961-4.8341-1.3277-2.0667-.4201-4.1638-.7036-6.2564-.9807-3.4498-.4569-5.1316-2.6163-4.7658-6.0537.4378-4.1132,2.5842-7.3842,5.1457-10.4057,1.246-1.4698,2.8009-2.6779,4.2196-4.0006.0933-.087.2159-.1442.3287-.2086,2.1377-1.2215,3.2814-.8336,4.2701,1.4163.535,1.2175,1.1074,2.4185,1.6684,3.6245.0818.1759.1629.37.2978.5001.5826.5618,1.0994,1.3462,1.8009,1.5933.9967.3511,1.2133-.8566,1.6596-1.4066,2.9915-3.6869,5.9645-7.3945,9.6798-10.3887,1.6595-1.3373,3.4222-2.6068,5.3006-3.5998,4.076-2.1546,9.0437-1.3702,12.3566,1.8213,1.0466,1.0082,1.958,2.1644,2.8711,3.3013.9401,1.1705,1.2705,2.5143,1.0008,4.0233-.8152,4.561-2.619,8.3638-7.1377,10.4638-3.4056,1.5827-6.8611,2.9431-10.5363,3.7187-3.5942.7585-7.2262,1.0672-10.8294.2394-1.5821-.3635-3.1099-1.082-4.5672-1.8258-.8635-.4407-1.5261-.8328-2.2976.0461-.1201.1369-.4025.1313-.8905.2733.23-.5325.4333-.8412.4894-1.1747.0669-.3976.1499-.893-.022-1.2127-.7018-1.3052-1.5579-2.5281-2.2479-3.8389-1.6989-3.2277-1.8033-3.3825-4.9473-1.2974-2.3104,1.5323-3.9786,3.7043-5.5191,5.9756-.4648.6854-.2197,1.2295.366,1.5633.7829.4462,1.6158.8804,2.4828,1.0873,1.7635.4209,3.5605.7089,5.3511,1.0069,1.0555.1757,2.1283.2453,3.1882.398,3.2272.4647,4.5655,2.4873,4.6258,5.5409.0555,2.8085-1.0627,5.2497-3.3319,6.9491-6.049,4.5302-12.6435,8.0572-19.8376,10.4242-.4401.1448-.8578.2118-.808.8687.3604,4.7587.5596,9.5342,1.0842,14.274.2943,2.6592,1.6372,4.9182,4.3869,5.8291,2.1068.6979,4.2512.3953,6.2975-.3788.3258-.1233.6141-.6804.6898-1.0804,1.3355-7.0627,4.3911-13.5057,7.1806-20.0444.097-.2273.2701-.4222.5367-.8291.1734.4939.339.796.3823,1.1147.5952,4.3751,1.2059,8.7486,1.7405,13.1313.22,1.8039-.1109,3.5619-.9051,5.2149-.0699.1456-.1426.2909-.1962.4426-.0178.0503.0204.1204.0738.3789.6285-.4064,1.2708-.7004,1.7583-1.159,1.6966-1.5962,3.3246-3.2652,5.0122-4.8713.4849-.4615,1.0521-.8604,1.639-1.1836.4764-.2623.756.0192.6764.5422-.0631.4143-.2063.8161-.3077,1.225-.4383,1.7677.231,3.3503,1.8605,4.1718.657.3313,1.39.5831,2.1155.6942,2.1284.3259,4.1718-.061,6.3442-.9037-.3535-.3073-.5479-.5056-.7703-.6651-2.3058-1.6544-4.1914-3.6918-5.5448-6.1899-1.6747-3.0912-1.3728-6.2157.0704-9.2682,2.3539-4.9785,7.7622-7.7916,14.0131-6.9454,2.856.3866,5.4433,1.4543,7.8727,2.9621.3278.2035.6846.3601,1.028.5384-.1132.1665-.2263.333-.3395.4995-.4238-.019-.8553.0075-1.2701-.0637-6.5908-1.1319-12.7083.2491-18.5023,3.4277-.919.5041-1.2697,1.1617-.872,2.1534.3014.7514.5394,1.5432.9447,2.2355,1.9747,3.3736,4.6798,5.9492,8.3227,7.4889,2.4718,1.0447,4.8504.5178,7.2012-.3713,4.0693-1.5391,8.1201-3.1268,12.1883-4.6688.7076-.2682,1.4623-.412,2.2849-.4849-.9664,2.0659-1.2652,4.4795-3.8137,5.4331-2.5537.9555-5.0431,2.0817-7.5717,3.106-.6415.2599-.9573.5187-.8569,1.3467.1312,1.0826-.013,2.2029-.0797,3.3045-.4703,7.7673.0233,15.4704,1.7724,23.0549,1.7834,7.7333,4.3002,15.2101,8.8719,21.8019,1.2079,1.7417,2.6985,3.3513,4.3008,4.7438,5.0236,4.3657,10.319,3.0555,14.4094-1.0549,3.3456-3.3619,5.158-7.6146,6.5256-12.0558,1.2996-4.2202,2.5516-8.4598,3.6562-12.7344,1.8658-7.2207,5.1103-13.8028,8.9418-20.1423,2.8645-4.7395,5.9486-9.3009,9.9199-13.2107,3.3277-3.2762,7.0842-5.882,11.4226-7.6443,3.4159-1.3876,5.1297-1.1068,7.2857,1.8536,1.4589,2.0032,2.6068,4.2597,3.6999,6.4975,2.8768,5.8895,6.3713,11.2852,11.2951,15.7213,5.9343,5.3466,12.7372,7.3444,20.6193,6.081,8.6378-1.3846,16.1759-4.8812,22.0049-11.4793,2.5886-2.9302,4.702-6.2806,7.0251-9.4447.9606-1.3084,1.8843-2.6444,2.8684-3.9345.3601-.4722.8464-.8482,1.4839-1.4726,0,.5771.0346.8538-.0051,1.1194-.6824,4.5596-1.247,9.1428-2.1349,13.6624-.2978,1.5158-1.2889,2.962-2.1961,4.2796-3.613,5.2469-7.2891,10.4721-12.2773,14.5442-6.7563,5.5153-14.491,8.5444-23.2607,8.7803-.3567.0096-.712.0682-1.0688.0812-1.9527.0711-2.0503.0485-2.4323,1.898-1.3946,6.7521-2.6922,13.5237-1.8574,20.4783.8031,6.6906,3.2823,12.54,8.6095,16.9362,4.5465,3.752,9.7495,5.7575,15.6589,5.8545,6.3434.1041,12.2355-1.7727,18.0029-4.1619,12.1056-5.015,23.0701-11.9115,33.1224-20.2708,6.0208-5.0068,11.9436-10.1349,17.3026-15.8646,1.4166-1.5146,2.6797-3.175,3.9734-4.8001.1805-.2268.2587-.6773.1684-.9536-.4739-1.4493-1.052-2.8646-1.5233-4.3146-.2784-.8563-.7485-1.0713-1.6128-.9047-3.3164.6393-6.6273,1.3441-9.9713,1.7946-3.9622.5338-7.965.8124-11.9542.2639-4.4875-.617-8.2795-2.4923-10.6228-6.5639-1.4453-2.5113-1.8431-5.3249-1.86-8.1815-.0314-5.3072,1.7116-10.0598,4.5693-14.4693,2.1228-3.2756,4.502-6.2904,7.954-8.2735,4.1795-2.4011,8.4248-2.5513,12.7461-.3558,3.9977,2.031,7.1436,5.0482,9.9063,8.5045,2.4835,3.107,4.5995,6.4519,6.2916,10.0563.2181.4647.447.7275,1.0306.6081,5.8613-1.1989,11.672-2.5748,17.2749-4.7216.5807-.2225.7158-.53.5794-1.1098-1.4273-6.0664-1.1617-12.1355.1291-18.1735,1.2816-5.9947,3.5432-11.6186,6.8893-16.7646,3.4865-5.3619,7.4137-10.3619,12.5849-14.2367,2.9727-2.2275,6.1396-4.0095,10.0092-4.1377,2.2666-.0751,3.8304.832,4.8879,2.8403,1.5749,2.991,2.5485,6.1869,3.331,9.4421,2.1623,8.9966,8.0053,14.3269,16.7069,16.7199,2.8901.7948,5.8914.9602,8.8878.3823,1.1445-.2208,2.3003-.3912,3.457-.5362.6404-.0803.8479-.3898.8855-1.0142.1929-3.2102.3823-6.4217.6541-9.6259.6427-7.5739,2.7422-14.7395,6.2536-21.4754,1.7359-3.3299,3.9103-6.3627,6.6407-8.9668,1.3162-1.2553,2.8407-2.1485,4.6292-2.5705,1.8879-.4455,3.5374.0174,4.9902,1.2607,1.8632,1.5945,3.2415,3.5708,4.1961,5.7964,5.2155,12.1601,4.5661,24.1235-1.5017,35.7911-1.9998,3.8454-5.2619,6.5456-8.9956,8.6929-3.418,1.9658-6.9661,3.6387-10.7071,4.8845-.9405.3132-1.3864.7769-1.4545,1.8556-.0909,1.4401-.4435,2.8715-.7845,4.2823-.0864.3573-.5554.6222-.8486.9296-.299-.3454-.7705-.6492-.8656-1.0438-.3182-1.3201-.5018-2.6726-.7691-4.1956ZM376.4669,119.076c.604-.1554.9286-.2021,1.2245-.3206,3.3397-1.3377,6.7311-2.5644,9.9947-4.0682,2.9762-1.3713,5.7242-3.1718,8.2745-5.2675.9915-.8147,1.3634-1.6462.9045-2.8586-.3443-.9097-.5887-1.8572-.9325-2.7671-1.3441-3.5575-3.3257-6.6847-6.3786-9.023-2.3364-1.7895-4.4472-1.5139-6.2474.8249-.8864,1.1516-1.6974,2.3829-2.3827,3.6636-1.8635,3.4829-2.6442,7.3159-3.3073,11.156-.4836,2.8005-.7565,5.6374-1.1497,8.6605ZM54.8251,92.2697c.9785.3294,1.6325.6342,2.3197.7668,3.9293.7581,7.8714.8069,11.8003.0093,4.774-.9692,9.2269-2.8338,13.5826-4.9603.6088-.2972.7562-.6654.3421-1.2193-.6602-.883-1.2608-1.8194-1.9923-2.6388-4.756-5.3269-10.279-5.8934-16.1047-1.7557-3.0189,2.1442-5.4607,4.8829-8.0022,7.5229-.6385.6632-1.201,1.3995-1.9454,2.2751ZM271.3221,153.0731c.0197-.114.0393-.228.059-.342-2.7979-2.9932-5.9734-5.4139-10.0615-6.4073-3.3206-.807-5.8199.5077-7.7603,3.1315-.7323.9903-.5902,1.7231.3992,2.4941,1.144.8914,2.4886,1.2909,3.8943,1.3558,2.6221.1211,5.2499.2038,7.8738.1713,1.8666-.0231,3.7305-.2612,5.5956-.4033ZM324.7325,155.6205c.4324.5554.6647.8953.938,1.1982,1.9367,2.1461,4.2225,3.8401,6.7733,5.1846,2.056,1.0837,4.2343,1.3731,6.5071.946.8246-.155,1.1412-.7375.818-1.5131-.2735-.6563-.5768-1.3091-.9472-1.9142-.9372-1.5311-2.3457-2.5233-3.9953-3.1216-3.1829-1.1544-6.472-1.1014-10.0939-.78ZM43.7584,142.2742c.2253.0276.3363.0783.4047.044,1.5943-.7988,3.1967-1.5834,4.7594-2.4404.2138-.1172.3374-.6124.3121-.9167-.1317-1.5855-.305-3.1683-.5031-4.7471-.1759-1.4019-.4032-2.7974-.6079-4.1957-.0996-.0085-.1991-.0171-.2987-.0256-1.7525,3.9443-3.197,7.9915-4.0665,12.2814ZM45.6087,151.1585c.1786.4051.2049.5862.3093.6832,1.3235,1.2305,2.5614,2.5861,4.0263,3.6189.8758.6174,2.0933.8219,3.1917,1.0269.746.1392.9681-.3025.5201-.9333-1.9137-2.6945-4.6988-3.8092-8.0474-4.3958Z"/>
    <path class="cls-1" d="M401.4703,10.8169c-.8113,2.0681-1.5032,3.8978-2.2627,5.699-.1184.2808-.5202.4831-.8331.6351-10.5194,5.1095-21.0631,10.1695-31.5613,15.3221-7.6097,3.7349-15.1485,7.6138-22.7402,11.3855-7.1847,3.5695-14.4073,7.0626-21.5951,10.6259-9.7213,4.8192-19.3925,9.7406-29.1458,14.4936-9.6197,4.6879-18.8767,10.0296-28.1191,15.3932-6.0368,3.5033-11.9362,7.2463-17.8481,10.96-1.3619.8555-2.5172,2.0381-3.7787,3.0562-.6211.5012-.5173.9474.1201,1.266,1.5343.7669,3.0731,1.5301,4.6443,2.2166,2.9626,1.2944,2.4455.4417,2.7981,3.6599.0071.0646.0125.1294.0184.1941.2255,2.4619.1159,2.5827-2.2378,1.9236-2.7546-.7714-5.2249-2.1287-7.5016-3.8455-.5758-.4342-.8815-.9692-.8095-1.7549.1566-1.7113.1159-3.4469.3636-5.1422.364-2.4913,1.8154-4.4,3.8776-5.7272,7.0987-4.5685,14.0462-9.4239,21.4232-13.4965,12.2491-6.7622,24.7364-13.1008,37.2177-19.432,10.6862-5.4207,21.5025-10.5848,32.2649-15.8551,9.304-4.5561,18.6159-9.0957,27.9189-13.6539,8.4849-4.1573,16.9462-8.3632,25.4505-12.4802,3.769-1.8246,7.6179-3.4841,11.433-5.213.164-.0743.3533-.0927.9027-.2303Z"/>
    <path class="cls-1" d="M52.9972,68.5394c-.1111-1.98-.1836-3.8211-.3226-5.6572-.6795-8.9743-1.3582-17.9488-2.0736-26.9203-.5759-7.2222-1.1977-14.4408-1.8196-21.6592-.0548-.6366-.3089-1.2545-.3831-1.8913-.0586-.5032-.1181-1.0749.0577-1.5243.5751-1.4697,1.2577-2.8974,2.0892-4.3401,1.844,4.962,4.0915,9.7339,4.9506,14.9521-.1224.0801-.2448.1603-.3672.2404-.6887-.7841-1.3774-1.5682-2.0662-2.3523-.072.0188-.144.0377-.2159.0565,0,.493-.0376.9893.0057,1.4785.5782,6.5371,1.2142,13.0694,1.743,19.6104.7042,8.7102,1.3266,17.427,1.9885,26.1406.0185.2442.0875.4845.1733.9415,1.5724-1.2064,2.9194-2.3607,3.6602-4.0869,1.1377-2.6513,1.2261-5.4309.9505-8.2375-.4098-4.1733-.963-8.3239-2.1388-12.3691-.1379-.4744-.1557-1.0707.0045-1.5287.4918-1.4056,1.0898-2.7747,1.6675-4.1492.0796-.1894.2781-.3288.5325-.617.214.4395.4009.7596.5315,1.1012,2.041,5.3389,2.7799,10.9303,3.2518,16.5807.2325,2.7841.5478,5.5592,1.7635,8.1456,1.3332,2.8364,4.0886,4.4635,7.2066,4.045,1.1078-.1487,2.1816-.5695,3.2627-.8935.8262-.2476.8605-.7763.587-1.5231-1.2174-3.3237-2.5151-6.6261-3.5393-10.0101-.9201-3.04-1.523-6.1761-2.2616-9.2708-.1203-.5041-.1105-1.0722-.3475-1.5095-.8174-1.5083-.3826-2.8874.2907-4.2695.3242-.6655.6519-1.3293,1.1124-2.2677,2.1807,2.8343,3.917,5.6612,5.1303,8.7956-.0691.0785-.1382.1571-.2073.2356-.3323-.1289-.6744-.2376-.9942-.3924-.3015-.1459-.5796-.3402-1.094-.6488.104.6304.1176,1.0116.2319,1.3597,1.0839,3.3002,2.1091,6.6224,3.3003,9.8839,1.4498,3.9697,1.2162,7.8784-.3074,11.7075-2.0509,5.1542-8.8452,6.1197-12.8413,1.8952-1.6062-1.698-2.5362-3.7496-3.0436-6.0097-.1554-.6921-.3112-1.3842-.6707-2.1164-.0705.2739-.1622.5443-.2083.8223-.5718,3.4466-1.8965,6.586-4.2791,9.1334-1.0807,1.1555-1.6673,2.2278-1.7474,3.8456-.1578,3.1872-.8391,6.3081-2.1776,9.2409-.1368.2996-.4662.5114-.7063.7639-.1258-.3403-.3543-.6785-.3613-1.0213-.0631-3.0854-.1084-6.1716-.1077-9.2576.0002-.7411-.2658-1.0369-.9661-.9176-2.7539.4693-5.9286-2.016-7.1137-4.8071-1.0268-2.4182-1.4582-4.9509-1.1925-7.5316.3752-3.6452.9552-7.2692,1.4349-10.9039.0474-.3594.0063-.7304.0063-1.0961-.0899-.0323-.1799-.0645-.2698-.0968-.2174.3551-.4643.6956-.6475,1.0676-1.5925,3.232-2.4646,6.6926-3.2411,10.1871-.8088,3.6399-1.2108,7.3775-2.6774,10.8604-1.497,3.5551-3.9767,4.0498-6.6575,1.2775-1.4877-1.5384-2.3348-3.4194-2.863-5.4623-1.1108-4.2963-1.9282-8.6267-1.5049-13.1.0117-.1233-.0264-.2514-.0634-.5651-.8872.4965-1.6917.9468-2.4962,1.397l-.1486-.2204c.2986-.2644.5827-.5478.8981-.7903,4.6698-3.5886,9.1261-7.4084,13.053-11.8216.622-.699.5294-1.0791-.2235-1.4655-.0867-.0445-.1736-.0898-.2549-.1432-.923-.6065-2.0189-1.1481-1.8907-2.4793.1469-1.5252,1.0095-2.6566,2.3664-3.3554.9618-.4954,1.8198-.2171,2.0762.8285.2386.9727.2721,2.0438.1495,3.0413-.0939.7638-.1633,1.2967.4831,1.8972.4064.3776.5236,1.1102.661,1.7087.0455.1983-.2074.6169-.4026.6762-.1974.06-.5939-.1324-.7267-.3318-.6002-.9008-1.0555-.7733-1.673.0241-3.0064,3.8817-6.5671,7.1847-10.6094,9.9684-.5816.4005-.6391.8208-.5083,1.5532.3129,1.7526.3291,3.5558.5718,5.3239.3936,2.8669.7954,5.7626,2.422,8.2497.5304.811,1.3079,1.5386,2.1259,2.0661,1.4495.9347,3.0862.4999,3.7329-1.1047.7342-1.8216,1.2216-3.7537,1.6904-5.6686.8182-3.3423,1.4109-6.7445,2.341-10.0533.8268-2.9415,1.9965-5.7844,4.2103-8.0355.3175-.3229.6534-.6337,1.0126-.9084,1.0338-.7906,1.5275-.659,1.6256.6606.0996,1.339-.0613,2.7125-.2374,4.0539-.4264,3.2466-1.0545,6.4714-1.3627,9.7276-.29,3.0646.5312,5.8722,2.8498,8.0806,1.0078.9599,2.1528,1.6403,3.8101,1.7566ZM40.2517,38.6883c-.1656-.5232-.2002-1.0771-.4884-1.4138-.2699-.3153-.8121-.548-1.2279-.5383-.3088.0073-.8424.4522-.8519.7173-.0125.351.3461.7549.6244,1.0652.2543.2835.5989.498.9325.694.2059.121.5676.2796.6785.1921.1883-.1485.2337-.4781.3329-.7164Z"/>
    <path class="cls-1" d="M127.1872,90.6104c5.5035,4.0104,11.0287,8.0368,16.6411,12.1266-2.5088,3.437-4.9325,6.7676-7.3688,10.089-.7489,1.0209-1.5423,2.009-2.2946,3.0275-.3047.4125-.5791.5307-1.0365.1896-5.258-3.9212-10.5255-7.8297-15.7887-11.744-.0487-.0362-.0729-.1053-.2353-.3503,3.1701-4.3986,6.3874-8.8628,9.6762-13.4264-1.5413-1.1626-3.1083-2.3548-4.686-3.5325-3.5395-2.6422-7.091-5.2683-10.6228-7.9206-1.0518-.7899-1.0739-.8567-.2906-1.9502,2.8161-3.9312,5.669-7.836,8.4957-11.7597.3903-.5418.7456-.7192,1.3555-.2707,4.1341,3.0401,8.288,6.0533,12.4292,9.0837.9433.6903,1.8397,1.4464,2.7999,2.1113.6486.4491.6191.8048.1698,1.4153-3.0599,4.1573-6.0802,8.3437-9.1098,12.5232-.053.0731-.0633.1773-.1344.3882Z"/>
    <path class="cls-1" d="M329.1998,204.6713c-3.3249,4.5676-6.5894,9.0523-9.9146,13.6203-1.1635-.8242-2.2505-1.5662-3.308-2.3482-4.1776-3.0889-8.3401-6.1985-12.525-9.2774-.5468-.4023-.7254-.7239-.2866-1.3355,2.5166-3.5084,4.9958-7.0436,7.5139-10.551.5629-.784,1.2304-1.493,1.9137-2.3133,5.533,4.0454,10.9986,8.0416,16.5714,12.1161,3.1795-4.6449,6.2557-9.2495,9.8913-13.4649,2.8751,2.0986,5.6278,4.1001,8.3719,6.1132,2.4356,1.7867,4.8405,3.6164,7.3057,5.361.6901.4884.698.9263.2778,1.5065-2.3996,3.3137-4.8037,6.6243-7.2167,9.9282-.6672.9135-1.3702,1.801-2.1301,2.7965-5.511-4.0673-10.9804-8.1039-16.4647-12.1514Z"/>
    <path class="cls-1" d="M268.0238,40.9283c-2.5566-2.1663-4.8718-4.1281-7.2945-6.1808-.3318.5085-.5787.9075-.8456,1.2927-5.0185,7.2453-10.2741,14.2877-16.6842,20.4055-6.0575,5.7813-12.5508,10.9978-19.4762,15.7002-4.7567,3.2298-9.4162,6.6024-14.1532,9.8617-1.3879.9549-2.8816,1.7595-4.3541,2.5844-.2498.14-.6382.0324-.9626.0392.0856-.3158.0745-.7254.2739-.9309.7671-.7906,1.5731-1.5495,2.4152-2.2603,10.3029-8.695,20.7199-17.2586,30.8847-26.1118,6.045-5.2651,11.875-10.8064,16.9822-17.0332,1.1731-1.4303,2.2461-2.9423,3.3869-4.3996.4497-.5744.2596-.8711-.3057-1.2123-1.8627-1.1242-3.7577-2.2114-5.5199-3.48-1.2233-.8806-2.39-1.9231-3.3289-3.096-1.416-1.7689-1.8081-3.8765-1.1163-6.0789,1.4085-4.4844,3.9655-8.1834,7.8967-10.7924,3.772-2.5034,7.5216-1.1596,9.1312,3.101,1.2295,3.2544,1.0935,6.5697.4526,9.8951-.3006,1.5595-.7216,3.0991-1.1572,4.628-.2046.7182-.1407,1.2038.5133,1.6685.9512.6758,1.8531,1.4289,2.7267,2.2045,1.8879,1.676,2.6887,3.7126,1.8859,6.2112-.4033,1.2552-.8455,2.498-1.351,3.9843ZM261.6564,26.3014c.1193-.0386.2387-.0771.3581-.1157.0943-1.8231.3835-3.661.2451-5.4663-.3655-4.7685-5.4704-6.2632-8.6185-4.4215-1.5091.8828-1.7943,1.912-.7979,3.3254.2406.3413.5196.6773.8458.933,1.8846,1.4774,3.772,2.9525,5.6949,4.3793.7064.5241,1.512.9144,2.2724,1.3658Z"/>
    <path class="cls-1" d="M223.1917,10.2033c-.5238,1.7602-.9949,3.5391-1.6071,5.268-.1609.4543-.699.8742-1.1652,1.1067-10.9002,5.438-21.8223,10.8321-32.7237,16.2677-11.1055,5.5374-22.1928,11.1114-33.2909,16.6636-.2985.1493-.63.2326-1.188.4339.3426-1.2893.7134-2.3249.8807-3.3924.3105-1.9816,1.4256-3.0999,3.2185-3.9778,8.9537-4.3841,17.8447-8.896,26.7634-13.3519,9.2636-4.6281,18.5327-9.2452,27.8012-13.8635,3.2827-1.6357,6.5697-3.263,9.858-4.8874.3699-.1827.7612-.3218,1.1426-.4811.1035.0714.207.1428.3105.2143Z"/>
    <path class="cls-1" d="M198.1433,127.63c-5.0784-3.7734-9.945-7.3949-14.8181-11.0075-1.8623-1.3806-1.9309-1.415-.6075-3.2922,2.6182-3.7139,5.3186-7.3698,7.9681-11.0618.4385-.611.7733-.6351,1.4015-.173,5.0995,3.7511,10.2215,7.472,15.3662,11.1609.639.4582.475.8024.1461,1.2636-1.5832,2.2202-3.1553,4.4485-4.7565,6.6558-1.4479,1.9961-2.9291,3.968-4.3924,5.9529-.114.1546-.2023.3282-.3076.5012Z"/>
    <path class="cls-1" d="M387.1253,155.5907c-1.2886-1.8166-4.4884-2.0322-5.9398-.553-.5671.5779-1.1298,1.1666-1.7523,1.6803-.2066.1705-.5939.1218-.8986.1733-.0327-.2722-.1546-.5704-.0842-.8126.6938-2.3841,1.6271-4.6624,3.2035-6.6168,1.3978-1.7329,2.6415-2.1223,4.7116-1.2861,2.9664,1.1982,5.3312,3.1932,7.123,5.8442.8037,1.1889.8014,2.4697.4132,3.828-.9482,3.3185-1.1212,3.4968-4.5382,3.7026-3.0832.1857-6.0719.6857-8.6762,2.5122-.3707.26-.7078.5674-1.0689.8417-.6947.5277-.8097,1.2009-.546,1.9949.8487,2.5549,1.6578,5.1233,2.5374,7.6674,2.8572,8.2644,5.5669,16.5578,6.4173,25.3373.2667,2.7537-.1552,5.3663-.9929,7.9523-.0828.2557-.2575.4815-.6151.6975-.0688-.3262-.1812-.6499-.1998-.9789-.2778-4.8974-1.3682-9.6597-2.7546-14.3222-1.6451-5.5323-3.6642-10.9526-5.4719-16.4378-.6392-1.9394-1.1996-3.9106-1.6803-5.8953-1.222-5.0452,2.1119-13.2776,9.5178-14.9504.401-.0906.7911-.2299,1.2949-.3786Z"/>
    <path class="cls-1" d="M69.0179,174.5658c-.2126,1.2866-.2212,2.6514-.6785,3.8441-1.1016,2.8728-2.4115,5.6658-3.6405,8.4897-1.7998,4.1353-3.7306,8.2196-5.3641,12.4195-1.3551,3.4842-1.7838,7.1578-1.2782,10.9186.3249,2.4164,2.1885,4.6688,4.5021,5.2088,1.2275.2865,1.9241.0722,2.5776-1.0025.588-.9669,1.016-2.0295,1.5641-3.0226.4675-.847.9286-1.7208,1.5503-2.4477.2465-.2882.9895-.3917,1.3732-.2407.2687.1057.5055.8262.4262,1.2024-1.0378,4.9227-3.1249,9.3445-6.5273,13.0863-.6701.7369-1.4484,1.4178-2.2868,1.9515-2.736,1.7416-5.6548,1.0321-7.3744-1.7248-1.1492-1.8424-1.5571-3.8989-1.7124-6.0292-.3959-5.428.7729-10.5653,2.6906-15.6105,2.7644-7.273,6.145-14.2464,9.8734-21.0619.9037-1.652,1.7855-3.3166,2.725-4.948.2709-.4704.708-.845,1.069-1.2636.1703.0769.3405.1537.5108.2306Z"/>
    <path class="cls-1" d="M46.6352,118.8827c.4746-.2272.945-.4638,1.4245-.6802,7.3399-3.3124,14.7369-6.5049,22.0065-9.9649,7.6341-3.6334,15.0104-7.7512,21.6504-13.0537,1.2416-.9915,2.3692-2.1245,3.5715-3.1667.5159-.4472.6583-.9463.3931-1.5591-.8116-1.8757-1.6709-3.7319-2.4369-5.6259-.8142-2.013-1.3658-4.1516-2.3521-6.0709-1.3462-2.6199.2829-4.8047.5252-7.2581,1.435.9358,5.0953,6.0554,5.1576,7.2136h-1.5375c.1241.3422.2047.6322.3308.9008.6483,1.3818,1.2775,2.7738,1.9701,4.1333,1.8932,3.7158,1.6131,10.0407-2.875,14.054-5.5905,4.9991-11.7396,9.1397-18.3569,12.5813-3.5361,1.8391-7.1707,3.5784-10.9293,4.8742-3.5118,1.2108-7.2408,1.8003-10.8848,2.6158-2.0917.4681-4.2022.8545-6.31,1.2467-.413.0768-.8525.011-1.2798.011-.0225-.0837-.0449-.1674-.0674-.2511Z"/>
    <path class="cls-1" d="M108.83,25.6414c-.2189.0503-.2588.0474-.2793.0659-1.2205,1.1022-1.2518,1.1528-2.742.2234-1.4017-.8743-2.7425-1.8497-4.0804-2.8215-.7333-.5326-1.0643-1.2521-.8688-2.2102.2525-1.2375.3012-2.5262.6464-3.7331.6391-2.2348,1.5875-2.6876,3.8055-1.9201,1.6893.5845,3.0827,1.635,4.2804,2.9614,2.233,2.473,3.6721,5.418,5.0301,8.41.6709,1.4781,1.2878,2.9806,1.9407,4.4669.1256.2859.3051.548.6137,1.0931.1359-.6306.2321-.9796.2845-1.3351.521-3.5326.9554-7.0804,1.5778-10.5949.4273-2.4129,1.3939-4.6665,2.7737-6.712,1.5084-2.2361,3.0723-2.6129,5.2425-1.0184,1.0963.8055,1.9341,1.9767,2.8278,3.0342.2248.266.3825.7837.2841,1.0949-.4952,1.5653-1.0475,3.1159-1.6619,4.6385-.2288.5669-.6264.2341-.9166-.0588-.7994-.8066-1.5564-1.6607-2.4037-2.4131-1.2504-1.1104-2.1589-.9611-2.9833.4923-1.2877,2.2699-1.8485,4.7807-2.1906,7.3318-.5264,3.9257-.9189,7.87-1.4905,11.7886-.1743,1.1946-.7094,2.3472-1.1683,3.4832-.1359.3364-.5962.7815-.8707.7572-.2973-.0263-.675-.4988-.8011-.8536-.3793-1.0678-.6817-2.1657-.9634-3.2649-1.1616-4.5329-2.7326-8.8773-5.6874-12.5995-.0806-.1016-.1425-.2181-.1993-.3061Z"/>
    <path class="cls-1" d="M370.4431,65.15c-.8575-.8145-1.4543-1.3943-2.0659-1.9581-.5005-.4613-.9857-.9493-1.5361-1.344-1.006-.7215-1.7387-.6508-2.375.4127-.6261,1.0466-1.2112,2.1851-1.4867,3.3601-.5688,2.4263-.9664,4.8965-1.3486,7.3619-.5211,3.3618-.9299,6.7412-1.462,10.1011-.1187.7497-.5096,1.47-.8566,2.163-.1345.2686-.4949.424-.7525.6309-.1942-.2719-.4726-.5168-.5698-.8199-1.0187-3.1778-1.9489-6.3852-3.0263-9.5425-.7601-2.2275-2.0422-4.1881-3.5389-6.01-.4324-.5263-.7575-.5931-1.0865.012-.2671.4913-.6032.6836-1.0914.3663-1.7913-1.1643-3.6152-2.2865-5.3274-3.5585-.4492-.3337-.779-1.1635-.7476-1.743.0801-1.4801.2843-2.975.6429-4.4132.4708-1.8881,1.2689-2.334,3.1604-1.8794,2.0236.4863,3.6322,1.6956,4.9841,3.2353,2.7668,3.1513,4.4814,6.8877,5.9125,10.7764.3491.9486.7077,1.8937,1.062,2.8404.1263-.0196.2525-.0392.3788-.0587.1062-.8715.2103-1.7433.319-2.6145.4739-3.7984.7547-7.6309,2.0263-11.2871.6768-1.9458,1.513-3.7924,2.9395-5.3308.9376-1.0112,2.0256-1.2538,3.2669-.7524,1.8954.7656,3.2435,2.1578,4.0753,3.984.2392.5252.1815,1.2924.0109,1.8758-.3922,1.3421-.9374,2.6396-1.5075,4.1921Z"/>
    <path class="cls-1" d="M309.2045,3.3194c-.0923.5829-.1256,1.183-.289,1.7453-.3531,1.2155-.7066,2.4391-1.1908,3.6051-.2837.6833-.0773.9712.4513,1.3393,1.571,1.0942,3.1571,2.1769,4.6436,3.3798,3.1417,2.5424,4.1296,5.8395,3.2543,9.7604-.5974,2.676-1.5064,5.1936-3.5708,7.1016-.6766.6253-1.4936,1.1571-2.3349,1.534-2.0925.9375-4.3215.9622-6.5015.4455-3.854-.9134-5.9386-4.4971-5.1637-8.6725.6314-3.4026,2.071-6.4903,3.8085-9.4414,1.5979-2.7139,3.2916-5.3711,4.9237-8.0651.4534-.7483.8284-1.5437,1.2597-2.3059.112-.198.301-.3524.4547-.5269.085.0335.17.0671.255.1006ZM307.3426,25.6267c1.6887-.2322,4.2521-.9915,5.5345-1.8085.5322-.339.3707-.6331.0599-1.0175-2.2043-2.7256-5.1019-4.5798-8.0441-6.3661-.2314-.1405-.9243.0108-1.0385.2227-.658,1.2217-1.3401,2.4599-1.759,3.7739-.5603,1.7575.1211,3.2588,1.7913,4.051,1.0881.5161,2.2996.772,3.4559,1.1445Z"/>
    <path class="cls-1" d="M191.5762,55.275c-.1215.736-.119,1.521-.3873,2.1988-.859,2.17-1.825,4.2975-2.7372,6.4467-1.2532,2.9526-2.8936,5.7932-3.1813,9.0534-.1279,1.4497.0822,2.9681.3948,4.3994.1338.6125.8314,1.2357,1.4299,1.5842,1.1402.664,1.9203.3046,2.5109-.8964.3571-.7263.6757-1.4921,1.1602-2.1266.241-.3156.8167-.3757,1.241-.5514.0421.3937.1846.8076.1102,1.1779-.5283,2.6293-1.655,4.9889-3.4161,7.0123-.5232.6011-1.1675,1.1321-1.8428,1.5584-1.5149.9564-3.3467.4957-4.2975-1.0321-1.2188-1.9586-1.2086-4.1429-1.0434-6.3264.2104-2.7805,1.0636-5.3977,2.0993-7.9736,1.9066-4.7424,4.3016-9.2379,6.7989-13.6839.2039-.3631.5259-.66.793-.9876.1225.049.2449.0979.3674.1469Z"/>
    <path class="cls-1" d="M148.3439,188.096c-.2473,1.1392-.331,2.3471-.7741,3.4043-1.1157,2.6619-2.4057,5.2502-3.6026,7.8786-1.0805,2.3726-2.0216,4.7957-2.1205,7.4438-.0521,1.3963-.0496,2.7893.887,3.9944,1.3709,1.7642,2.903,1.6616,3.905-.3109.3232-.6362.5433-1.3353.9366-1.921.1905-.2836.6725-.3714,1.0225-.5479.0979.3472.333.7207.2724,1.0376-.5823,3.0423-1.9482,5.6948-4.1261,7.9066-1.2988,1.3191-2.9415,1.7769-4.1033.8906-.801-.611-1.6319-1.5683-1.8294-2.5021-.3696-1.747-.4668-3.5999-.3593-5.3897.2424-4.035,1.9671-7.6502,3.647-11.2331,1.5556-3.3176,3.2986-6.5477,4.9781-9.8066.1953-.379.5117-.6956.7719-1.0412l.4949.1964Z"/>
    <path class="cls-1" d="M61.1853,125.1797c-1.0606,1.4316-2.0254,2.7697-3.0443,4.0652-.1334.1696-.65.2668-.8107.1507-1.55-1.1201-3.0773-2.2738-4.5647-3.4753-.1859-.1501-.2568-.732-.1192-.9441.6697-1.0329,1.4301-2.0069,2.1551-3.0041.4847-.6669.917-.806,1.6658-.205,1.4852,1.1922,3.0834,2.2436,4.718,3.4127Z"/>
    <path class="cls-1" d="M64.6681,29.8266c-.6805.8416-1.167,1.7095-1.89,2.2753-1.1075.8667-2.301.3952-2.7575-.9381-.1141-.3333-.2017-.6965-.1993-1.0453.0113-1.6544.0384-3.3095.1138-4.9619.0109-.2391.3138-.465.4816-.697.1314.2327.3598.4584.3774.6994.0735,1.0029.0905,2.0103.115,3.0164.0342,1.4058.4612,1.976,1.4744,1.943.9317-.0304,1.8787-1.2489,1.7536-2.3114-.1025-.8701-.3003-1.7296-.3861-2.6007-.0599-.6089-.3541-1.5126.4914-1.6537.9011-.1503.6771.8338.8132,1.3639.2821,1.0985.4048,2.2452.7679,3.3125.1926.5662.6948,1.0746,1.1695,1.4765.2254.1908.7866.2007,1.0578.0479.1897-.1069.2499-.6493.1875-.9611-.2288-1.1434-.6102-2.2605-.7758-3.4103-.0806-.5597.1889-1.1699.3-1.7572.3157.4687.761.8973.9209,1.4142.3725,1.2038.7202,2.4366.8708,3.6827.2033,1.681-1.068,3.0796-2.535,3.0174-.7826-.0332-1.3538-.3793-1.7607-1.0374-.1989-.3218-.4228-.6281-.5904-.8751Z"/>
    <path class="cls-1" d="M73.6774,133.1598c-.2359-1.0849.3661-1.6126,1.0393-1.9992,1.5456-.8877,3.1056-1.759,4.7086-2.5363,4.1432-2.0089,8.312-3.965,12.4733-5.9362.3085-.1461.6392-.2452.9744-.3718.2424,1.1424-.0265,1.7041-1.1252,2.245-2.7653,1.3613-5.5435,2.6967-8.3209,4.0334-3.0691,1.477-6.1426,2.9449-9.2163,4.4122-.1364.0651-.294.0858-.5332.1529Z"/>
    <path class="cls-1" d="M77.3448,98.953c.065,1.3059-.557,1.966-1.4989,2.4184-3.8327,1.8406-7.6666,3.6788-11.4976,5.5229-1.6077.7739-3.2069,1.5657-4.8157,2.3375-.4306.2066-.8822.3694-1.3192.5503-.398-.9075-.2103-1.4459.785-1.9931,1.4779-.8126,2.9753-1.5942,4.4947-2.3259,4.2656-2.0542,8.5461-4.0774,12.823-6.1081.2867-.1361.5923-.2328,1.0287-.4019Z"/>
    <path class="cls-1" d="M93.227,110.8769c-.2824.6962-.5941,1.2257-.7101,1.7952-.3494,1.7162-.6097,3.4503-.9348,5.1718-.0785.4154-.2728.809-.4139,1.2126-.0957.0038-.1913.0076-.287.0114-.1416-.2908-.3128-.5712-.4193-.8743-.3009-.8564-.5224-1.7445-.8754-2.5776-.3458-.816-.7121-1.5409-1.8154-1.7775-1.4996-.3216-2.1717-1.4061-1.9515-2.5584.2294-1.1999.98-1.6282,1.9327-.8681.8799.702,1.5617,1.6827,2.2235,2.6166.4103.5791.6207,1.2999.9208,1.957.0886-.0151.1771-.0301.2657-.0452.1225-.7865.1725-1.5933.3859-2.3543.2683-.957.5885-1.9183,1.038-2.8004.4405-.8645,1.1371-.9884,1.8594-.5233.9423.6068,1.3481,1.5875.8531,2.2853-.1445.2037-.6521.3105-.919.2263-.3416-.1078-.6081-.4537-1.1528-.8972Z"/>
    <path class="cls-1" d="M19.5851,106.9526c.0623-.7698.0248-1.5649.2115-2.3032.2505-.9909.5909-1.9806,1.0547-2.888.2841-.5558.8521-1.0414,1.6203-.6694.7504.3634,1.2718.9096,1.1863,1.8206-.0798.8499-.7138,1.1509-1.4491.7053-.9694-.5875-1.0799-.5922-1.3309.5294-.417,1.8639-.715,3.7542-1.0813,5.6298-.0823.4213-.2398.8278-.3627,1.2411-.0882.0032-.1765.0064-.2647.0095-.1441-.2972-.3173-.5841-.4266-.8936-.2694-.7634-.4966-1.5417-.7643-2.3057-.4092-1.1678-1.1125-1.9633-2.4028-2.2943-1.4775-.379-1.9216-1.7513-1.1522-3.0659.3484-.5952.8108-.4575,1.2508-.2085,1.1992.6784,2.0123,1.6964,2.5564,2.9593.2785.6463.6483,1.2533.9768,1.8781.1259-.0481.2519-.0963.3778-.1444Z"/>
    <path class="cls-1" d="M95.2746,63.3695c-.1491,1.1944-.4439,1.9766-1.4432,2.4387-4.0954,1.8938-8.1672,3.8387-12.2513,5.757-.251.1179-.5339.168-.8997.2794-.0856-1.1199.4453-1.757,1.2457-2.191,1.6264-.8819,3.2523-1.77,4.9189-2.5713,2.3691-1.1392,4.7727-2.2071,7.1672-3.2929.3445-.1562.7207-.2423,1.2624-.4199Z"/>
    <path class="cls-1" d="M40.6567,20.6969c.5499.5079,1.0531,1.0421,1.6255,1.4873,1.2831.9979,1.9111,2.6216,1.5007,4.0388-.4329,1.4952-1.6957,2.5397-3.1613,2.6148-1.5029.077-2.6858-.9503-2.4866-2.425.1518-1.1239.6205-2.2276,1.0856-3.2795.3897-.8813.9782-1.6748,1.4361-2.4364ZM40.9243,26.9232c.6502-.3963,1.6418-.7073,1.6586-1.0643.0572-1.2128-1.3061-1.3925-2.0167-2.067-.1258-.1194-.9227.1565-1.0556.4251-.2358.4763-.4361,1.2202-.2176,1.6072.2661.4712.9804.6892,1.6313,1.0989Z"/>
    <path class="cls-1" d="M39.3531,140.3635c-.1006-.7825-.2278-1.4262-.2592-2.0746-.1564-3.2339-1.3206-5.9885-3.7943-8.1372-.171-.1486-.3363-.3057-.5192-.4384-.8956-.6502-1.3307-1.823-1.0022-2.8554.2212-.6951.6433-.3347.9855-.1133,2.1139,1.3681,3.6342,3.2066,4.4265,5.6198.773,2.3543.896,4.7704.7002,7.2174-.0126.1577-.056.319-.1186.4641-.031.0719-.1386.1108-.4187.3176Z"/>
    <path class="cls-1" d="M63.0317,19.9534c-.1081-.388-.2053-.6437-.2479-.9083-.1031-.6408-.2226-1.2831-.2616-1.9292-.1923-3.1901-1.9179-5.5103-4.2218-7.5039-.9407-.8141-1.1664-1.758-.677-3.0211,3.708,1.1303,7.2604,9.6711,5.4082,13.3625Z"/>
    <path class="cls-1" d="M87.2046,59.9477c.3163,1.0946-.6995,2.8634-1.5049,3.1724-.6487.2488-1.4576-.0938-1.5512-.8835-.1192-1.0063-.1971-2.1345.1382-3.0529.6512-1.7835,1.5968-3.4603,2.4395-5.1718.0849-.1725.3007-.2805.6236-.3121-.4863,1.0786-1.0507,2.1302-1.4347,3.244-.3217.9331-.4976,1.9318-.6037,2.916-.0406.3763.2924.7929.4552,1.1911.38-.2027.7755-.3822,1.1325-.6195.145-.0964.2062-.3186.3056-.4836Z"/>
    <path class="cls-1" d="M35.4397,78.1444c-.1848.5697-.28.9487-.4285,1.3056-.4853,1.1662-1.0828,2.2958-1.4521,3.4964-.2171.7057-.1855,1.5339-.0789,2.2803.1087.7606.5857.8581,1.1709.3556.2571-.2207.507-.4498.8178-.7264.184,1.1463-1.1563,3.1063-2.1093,3.0358-.4121-.0305-1.0837-.6688-1.1066-1.0619-.0644-1.1055-.0757-2.3093.2989-3.3241.6473-1.7537,1.6-3.3949,2.4326-5.0794.0339-.0686.1495-.0967.4551-.2819Z"/>
    <path class="cls-1" d="M22.1811,135.1994c.0284,1.2571-.8415,2.6094-1.7616,2.9353-.6231.2207-1.0796-.0804-1.2442-.6059-.1881-.6007-.2985-1.2749-.2359-1.8964.2573-2.5543,1.6837-4.6324,2.7825-6.8418.1061.0316.2122.0633.3183.0949-.1243.3788-.2387.7613-.3748,1.1359-.5172,1.4233-1.0759,2.833-1.5409,4.273-.1308.405-.0482.9063.0322,1.3459.1422.7771.5424.8918,1.1331.3708.2716-.2396.5359-.4875.8911-.8117Z"/>
    <path class="cls-1" d="M70.1596,91.3585c-.2447-.1193-.4032-.1699-.5309-.2629-1.4397-1.0484-2.8742-2.1039-4.3111-3.1563-.5786-.4238-.6884-.7534-.0995-1.381.8134-.8668,1.4389-1.9121,2.1257-2.8944.3723-.5325.7538-.6166,1.2968-.2171,1.3045.9598,2.6226,1.9022,3.9586,2.8176.645.4419.8742.8542.3172,1.5601-.7623.9659-1.4354,2.0018-2.1664,2.9932-.1591.2158-.4009.3706-.5904.5407Z"/>
  </g>
</svg>