<?xml version="1.0" encoding="UTF-8"?>
<svg id="MenAndWoman" xmlns="http://www.w3.org/2000/svg" viewBox="0 0 253.2949 237.9843">
  <defs>
    <style>
      

      @import url('../../CSS/SvgStyling.css');

      
    </style>
  </defs>
  
  <g class="content">

    <rect id="bg" class="bg" width="253.2949" height="237.9843"/>


    <path class="cls-1" d="M216.3202,215.2792c-.0468.4579-.0937.869-.0937,1.2853-.0468,2.1595-.9211,3.3512-3.0442,3.6738-1.4726.1821-3.039.0468-4.5636-.0937-1.0147-.0885-1.5195-.869-1.5195-1.9254,0-.8274-.0937-1.6548,0-2.4353.1405-1.2385-.51-1.5611-1.8005-1.5143,0,1.1916.0468,2.3417,0,3.4865-.0885,1.7901-.8742,2.6643-2.6695,2.7111-1.3373,0-2.7215-.0937-4.012-.4579-2.3052-.6921-2.9037-2.1595-2.0763-4.4075.0937-.2342.1873-.4631.0468-.8742-.4111.2758-.9211.5048-1.2437.8742-2.2116,2.5706-5.1621,2.7059-8.2062,2.3833-.9211-.0885-1.8889-.3643-2.81-.4579-1.15-.0885-1.4258-.6401-1.4258-1.7432,0-23.5571-.0468-47.1143-.0468-70.7182,0-1.2385.1353-2.3885-1.5247-2.7996-.5048-.1405-1.0147-.9211-1.2437-1.5195-.4163-.9627-.6921-1.9722-.8274-2.9817-.2758-2.3-.5984-4.4075-2.8568-5.7865-1.1552-.7337-1.4778-2.0242-1.2489-3.4917,1.5715-11.1099,3.1378-22.225,4.6105-33.3401,1.1552-8.7214,2.1647-17.448,3.32-26.1746.3226-2.5238,1.5195-4.7302,2.9973-6.7492.9679-1.3321,1.9826-2.7111,3.039-3.9964,2.8152-3.398,3.5958-7.2071,2.4926-11.5262-1.1084-4.2254-1.2905-8.5393.1353-12.8115,1.1084-3.3512,2.9505-6.1039,6.3641-7.5297,4.6053-1.9306,9.8142-.2758,12.7178,4.0849,2.0294,3.0338,2.862,6.4318,3.1847,9.9651.1821,1.9306.2758,3.8611.229,5.8333-.1405,3.9496,1.1968,7.254,4.012,9.9651,2.9037,2.8464,5.5315,6.0623,6.7284,10.1004.8274,2.8048,1.4258,5.698,1.7484,8.5913,1.8005,15.7048,3.4605,31.4095,5.1621,47.0674.3278,2.9869.6036,6.0155.7858,9.044.0468,1.0564-.1821,2.1595-.5048,3.1691-.8794,2.529-1.8941,4.9591-2.862,7.4413-.1821.4111-.2758.9627-.5516,1.1916-1.4726,1.15-1.1968,2.6643-1.1032,4.1786.8742,12.1246,1.7016,24.2024,2.581,36.327.6453,8.9087,1.2437,17.8175,1.8421,26.773.1405,2.3417.1405,2.477-2.1231,2.8933-3.6374.7337-7.28,1.2853-10.9226,1.8785-1.0147.1405-1.8421.2758-2.7163.4163Z"/>
    <path class="cls-1" d="M19.2042,103.7536c.6973,1.6704,1.4414,3.2991,2.1856,4.9695.1873.4631.229.8378.0468,1.3009-.0937.1873-.1405.3747-.2342.6036-.791,1.8109-1.5767,3.6218-2.3677,5.4847-.1873.3695-.3747.7389-.4631,1.1604-.1873.6036-.0468.9731.51,1.3478.229.1353.51.229.7441.3695,1.6236.6036,3.1118,1.3478,4.548,2.274.2342.1405.4683.281.7441.4215,2.6955,1.3946,5.391,2.784,8.0865,4.1786.51.281,1.0199.6036,1.5299.8846.0468.1873.0468.3226.0468.4631.0468,2.0919.3747,4.1838.7441,6.2236.4163,2.4197.6505,4.8342.7441,7.2487.0937,3.1118.0937,6.1768.0937,9.2938,0,3.065-.2342,6.13-.4215,9.1949-.1821,2.6955-.4631,5.391-.7858,8.0813-.2342,2.2324-.562,4.4179-.562,6.6451,0,3.5333,0,7.1082.0937,10.6364.0937,3.9964.1873,7.9929,0,11.9893-.0937,1.993-.1821,4.0381-.2758,6.0363,0,.4631-.0468.9783,0,1.4414.0468.6505.3695,1.2073,1.0199,1.4414.1873.0468.3278.1821.51.2758-.1821.3747-.3226.6973-.4631,1.0251-.6036,1.4362-1.1136,2.9245-1.2073,4.5064-.0468.6453-.1405,1.2957-.4163,1.9046-.0937.1821-.1405.4163-.1873.6036-.2342,1.0668.0937,1.7172,1.0668,2.2272.3747.1873.7441.3747,1.1604.51.791.281,1.4414.6505,2.0919,1.1604,1.1604.8846,2.4613,1.5819,3.9496,1.7693.1873.0468.4163.0937.6036.1353,1.7641.3278,3.4865.6973,5.2974.4683,2.0867-.281,4.2254-.3747,6.3173-.8846.3695-.4631.4631-.9731.3695-1.5767-.1821-.9783-.51-1.8577-1.0668-2.6955-.51-.791-1.1136-1.4883-1.8577-2.0919-1.3478-1.1604-2.555-2.4613-3.627-3.9028-.6453-.8794-1.2957-1.7172-1.9046-2.6018-.1821-.229-.3695-.51-.51-.7858-.229-.3747-.3226-.7441-.1821-1.1656.1353-.4163.1353-.8794.0885-1.3478-.0468-1.2957-.0885-2.6435-.1821-3.9444-.0937-1.6288-.281-3.2523-.281-4.8811,0-2.0867.0937-4.1786.281-6.2705.229-3.1586.6036-6.3173.9263-9.4759.4215-4.1369.791-8.3155,1.3009-12.4524.281-2.5082.6973-5.0164,1.1604-7.5245.791-4.5064,2.0919-8.8723,3.2055-13.285.0468-.1405.0937-.2758.1405-.4163.1873.4631.2342.9263.281,1.3478.0468.5568.0937,1.1136.1353,1.6704.2342,2.5082.4683,5.0632.6505,7.5714.281,4.1369.3747,8.2687.281,12.4056-.0468,2.274-.1405,4.6001-.2342,6.8741-.229,5.4327-.0885,10.8705.281,16.2563.2342,3.2523.4631,6.4578.3695,9.7101,0,.281,0,.5568.0937.8378.1405.3695.0937.6505-.0937,1.0199-.1821.4215-.3226.8378-.4631,1.3009-.4631,1.4414-.6036,2.9297-.6036,4.4127,0,.6973-.0468,1.3946-.1873,2.0919-.229.9783-.229,1.9982.0937,2.9713.1873.0468.3278.1405.51.1405,1.7224.3278,3.4396.51,5.2037.3747.6505-.0468,1.2541.0468,1.8109.3695.3278.1873.6973.3278,1.0251.51,1.3946.5568,2.784,1.072,4.2722,1.3009,2.8828.4215,5.7605,0,8.6433-.4163.229-.0468.5568-.1873.6921-.3747.6088-.7389.9783-1.5299.4215-2.4613-.0937-.1353-.0937-.229-.1873-.3695-.4631-1.1604-1.3009-2.0451-2.4613-2.6018-2.3677-1.1136-4.5532-2.555-6.7804-3.9028-.791-.51-1.4883-1.1136-2.2324-1.7172-.3226-.281-.6505-.6036-.791-.9783.1405-.51.281-.9731.3278-1.3894.1873-1.4883.3226-2.9765.4163-4.4648.2342-3.2003.281-6.4057.281-9.6112,0-2.836.0937-5.672.4163-8.456.4163-3.2991.7441-6.6451,1.3946-9.9443.51-2.6435.7441-5.3858,1.0668-8.0813.2342-1.9982.4631-3.9964.7441-5.9947.3695-2.4613.791-4.9227,1.1604-7.4309.3278-2.3208.5568-4.6469.8846-6.9209.4631-3.5333.9263-7.0146,1.3946-10.5479.3695-2.9245,1.3009-5.6668,2.3208-8.404.791-.4215,1.5351-.791,2.3208-1.2541.1405-.0937.2342-.2342.3278-.4215.0937-.2758.2342-.6036.2342-.8794,0-.6973.3695-1.1656.8794-1.4414.4163-.2342.51-.51.51-.9315v-.9263c-.0468-1.4414-.0468-2.9297-.1353-4.3659-.1405-2.4666-.3278-4.9279-.562-7.3892-.1821-2.2272-.4631-4.4127-.6921-6.6399-.2342-2.1856-.5152-4.3711-.791-6.5515-.281-2.3208-.6505-4.6001-.9315-6.9209-.229-1.6756-.4631-3.2991-.8326-4.9279-.2342-1.0199-.4215-2.0398-.6088-3.065-.229-1.5299-.4631-3.1118-.6921-4.6417-.3278-1.9098-.6505-3.8559-1.0251-5.7605-.1873-1.1188-.3695-2.1856-.5568-3.2991-.0937-.5568-.3226-.9783-.791-1.3009-.6973-.51-1.3478-.9783-1.9982-1.4883-.3695-.2758-.7858-.5568-.8794-1.0668-.0468-.1873-.2342-.3278-.3747-.51-.6973-.8378-1.5299-1.4414-2.4613-1.9046-1.1604-.562-2.3208-1.1656-3.4813-1.7224-1.072-.51-2.0451-1.2073-2.7892-2.1335-.7441-.8846-1.5351-1.7224-2.4145-2.4197-.1405-.1353-.281-.2758-.4215-.4163.4683-.8846,1.072-1.6236,1.2125-2.555.1353-.9315.2758-1.8577.4163-2.7892.2342-.1821.4631-.3695.6973-.6036.7441-.7441,1.3946-1.5767,1.3946-2.6903,0-.1405.0937-.3278.1821-.4683.0937-.2758.1873-.51.281-.7858.3695-1.3009.6036-2.6487.6036-3.9964,0-.5568,0-1.1136.281-1.6288.1821-.4163.1353-.7858,0-1.2073-.4215-1.2541-.9783-2.3677-1.8161-3.3876-.2758-.3747-.5568-.6973-.8326-1.072-.2342-.2758-.3747-.6036-.3747-.9263,0-.6973-.4163-1.072-.9731-1.3478-1.9046-.9783-3.9028-1.4883-6.0415-1.1604-.5568.0885-1.1136.1821-1.6704.229-.3278.0468-.6973.0937-.9783-.1821-.2758-.2342-.6036-.1873-.8794-.0468-.1873.0885-.3747.1353-.6036.229-3.1118,1.3478-5.2974,3.5333-6.5515,6.6451-.1405.2758-.2342.6036-.3226.8794q-.7441.2342-.9783.791c-.0937.281-.1873.51-.2342.791-.3226,1.4414-.2758,2.9245-.0885,4.3659.0885,1.0251.4163,1.9514.9263,2.836.1405.1821.2342.4631.2342.6505,0,.6973.2758,1.2073.791,1.6236.2758.2342.4163.51.5568.8378.1821.3695.3695.7441.51,1.1136.3226.7441.7441,1.4414,1.3946,1.9514.1821.1405.3226.4163.4631.6036-.0937.0937-.1405.1873-.1873.1873-1.4831.4631-2.784,1.2541-3.9028,2.3208-.51.51-1.1136.791-1.8577.8846-.8326.0937-1.6704.229-2.4613.3695-1.9046.3747-3.3928,1.3946-4.3659,3.1118-.2342.3747-.4163.791-.6505,1.2073-.2342.4683-.51.9315-.7441,1.3946-.5568,1.1136-1.3946,1.9514-2.5082,2.6018-.9731.5568-1.9046,1.2541-2.8776,1.9046-.1873.0937-.3747.281-.4215.4631-.2758.7441-.51,1.5351-.6973,2.2792-.4631,1.7641-.7441,3.5281-1.0199,5.339-.51,3.2991-.9783,6.5983-1.5819,9.8974-.7389,4.0901-1.5299,8.1282-2.3208,12.2183-.4631,2.3677-.4163,4.6885.51,6.9677.6973,1.3478,1.2541,2.9245,1.9046,4.4596ZM70.3513,114.671c.0468.1873.0937.3695.2342.51-.1405-.1405-.2342-.3226-.2342-.51.1405-.3747.3278-.791.4631-1.1604-.1353.3695-.3226.7858-.4631,1.1604ZM34.4406,124.7974c.0468.0937.0468.2342.0468.3695-.0468-.1353-.0468-.2758-.0468-.3695Z"/>
  </g>
</svg>