<?xml version="1.0" encoding="UTF-8"?>
<svg id="Musa" xmlns="http://www.w3.org/2000/svg" width="425.4058" height="452.8151" viewBox="0 0 425.4058 452.8151">
  <defs>
    <style>
      

      @import url('../../CSS/SvgStyling.css');
      
    </style>
  </defs>
  
  <g class="content">

    <rect id="bg" class="bg" width="425.4058" height="452.8151"/>
    <path class="cls-1" d="M298.3429,214.5732c-.9598,1.6917-1.6645,2.821-2.2608,4.005-2.318,4.6029-4.4476,9.3082-6.9357,13.816-3.4069,6.1724-7.9659,11.4231-14.331,14.6499-12.2849,6.2278-24.6217,6.1999-36.4824-1.0132-8.6464-5.2583-14.6969-12.7838-17.8151-22.5832-.9398-2.9537-2.2531-5.8423-3.7805-8.5427-2.2955-4.0586-5.1075-5.0636-9.6238-3.935-3.9244.9806-7.3472,3.0152-10.5464,5.3737-8.7529,6.4528-16.5683,13.9087-23.1053,22.6164-1.651,2.1992-2.9375,4.7316-4.0487,7.2615-1.2833,2.9217-.2456,5.5348,2.1527,7.4256,1.6415,1.2942,3.4792,2.4469,5.3994,3.2615,9.0719,3.8484,18.4985,6.4049,28.3422,7.2797,7.9886.7099,16.005,1.1714,23.8666,2.9307,5.9693,1.3358,11.7631,3.1462,16.9524,6.4767,7.0887,4.5495,10.8381,10.9458,10.483,19.523-.0664,1.6045-.058,3.2137-.1751,4.8141-.52,7.1064-1.601,14.0802-4.4203,20.7162-3.0779,7.2447-7.6658,13.2442-13.8979,18.0603-18.2245,14.0837-37.2585,26.9042-57.824,37.356-2.1835,1.1097-4.4027,2.1489-6.6005,3.2307-.8204.4038-1.6269.836-2.4655,1.2686.1032,2.9271,1.2168,5.4258,2.1906,7.9095,3.0165,7.6937,7.6691,14.2583,14.0852,19.5139,5.9146,4.8447,12.789,7.4692,20.2775,8.6001,11.7525,1.7748,23.0515-.2899,34.1023-4.191,11.6153-4.1005,22.4034-9.8783,32.7367-16.5191,15.9586-10.2559,30.9655-21.7554,44.796-34.7567,3.8822-3.6495,7.5548-7.5051,10.4173-12.0523,3.5516-5.6418,3.0138-13.6116-1.3789-18.9963-1.4827.427-3.0015.9313-4.5526,1.3005-12.4418,2.9614-25.0423,3.7411-37.7477,2.4425-4.4852-.4584-8.7552-1.8501-12.5818-4.352-4.718-3.0847-7.4596-7.5142-8.5419-12.9702-1.2423-6.2627-.7271-12.468,1.1504-18.5311,3.0103-9.7211,8.0474-18.2458,15.7528-24.9723,5.909-5.1583,12.7976-7.4093,20.6749-5.7605,4.906,1.0269,9.1791,3.3787,13.0236,6.5139,5.4875,4.475,9.9175,9.9075,13.7384,15.823,2.3772,3.6805,4.4968,7.5277,6.8853,11.5588.644-.1206,1.4672-.1996,2.2442-.4326,4.5301-1.3583,9.0295-2.8236,13.5817-4.1016,1.9483-.547,2.6406-1.5704,2.7226-3.5891.4329-10.6603,1.7317-21.23,4.0864-31.6374,2.7929-12.344,6.8217-24.2421,13.692-34.9949,2.7117-4.2443,6.0114-7.9545,10.5577-10.3558,6.0236-3.1815,12.6852-2.0847,17.3599,2.8988,4.2896,4.573,6.4771,10.2334,8.1379,16.1323,2.645,9.3944,2.2544,18.9225.9062,28.4309-1.5074,10.6313-5.2371,20.4225-11.7003,29.0924-4.4588,5.9811-9.955,10.8381-16.366,14.563-5.7641,3.3491-11.6873,6.4375-17.6455,9.4313-1.8291.9191-2.5896,1.8642-2.5996,3.9745-.0175,3.704-.4174,7.4111-.7799,11.1049-.0912.9289-.6478,1.8122-.9714,2.6659-1.6166-.2122-1.852-1.3227-2.0593-2.2521-.6061-2.717-1.0808-5.4636-1.5935-8.2011-.1836-.9802-.3286-1.9676-.5148-3.094-.6636.1213-1.1618.1367-1.6016.3048-3.5505,1.3567-7.068,2.8039-10.6445,4.0867-1.3326.478-1.4793,1.3503-1.5514,2.524-.269,4.3846-.4785,8.7793-.9561,13.1433-.8786,8.028-2.5783,15.9109-6.4383,23.0575-2.3962,4.4363-5.2966,8.648-8.352,12.6708-8.4767,11.1607-18.5504,20.7985-29.3248,29.6988-11.68,9.6484-23.9748,18.4417-37.1856,25.898-10.1267,5.7157-20.6767,10.4285-32.1418,12.7322-12.7928,2.5705-25.3906,2.1369-37.4852-3.2759-8.9325-3.9978-15.6057-10.5646-20.5669-18.9048-6.0686-10.2018-8.5416-21.4156-9.0891-33.1459-.0473-1.0121-.0972-2.025-.1869-3.0338-.0202-.2275-.2125-.4396-.409-.8204-1.9841.7125-3.9643,1.402-5.9293,2.1328-15.8493,5.893-32.1592,9.8137-49.0478,10.9393-12.4424.8293-24.8291.3322-36.948-3.0862-13.5464-3.821-24.9554-11.0076-34.1784-21.6474-9.8046-11.3107-15.2754-24.5831-17.6357-39.2362-1.6898-10.4903-1.7935-21.0295-.7966-31.5941,1.3443-14.2477,5.1326-27.8836,10.254-41.1894.2934-.7623.531-1.546.8474-2.4747-.918-.2886-1.6218-.5145-2.3285-.7313-3.1829-.9769-5.4136-3.0245-6.777-6.0402-3.9808-8.805-5.1848-17.9452-3.4007-27.4746,1.9969-10.666,5.2092-20.9804,8.851-31.1771,3.845-10.7657,8.7217-21.0756,13.828-31.2808.9416-1.8818,2.0897-3.6758,3.2936-5.4051.7439-1.0686,1.7734-1.9382,2.6503-2.8712,1.3955.6904,1.3706,1.6302,1.1165,2.5331-.4792,1.7032-.8972,3.4544-1.6351,5.0492-5.0484,10.9111-8.9276,22.2676-12.8996,33.5886-2.3766,6.7738-4.9637,13.4886-6.1325,20.6239-.9763,5.9601-1.6148,11.9378.3767,17.8021.6401,1.8849,1.6256,3.724,2.786,5.3458,2.4956,3.4882,9.2758,5.0486,13.0781.4196,1.768-2.1524,3.5114-4.325,5.2627-6.4911.3711-.459.6752-.9862,1.1017-1.3836.9211-.8583,2.0463-.5999,2.3036.6263.2022.9632.2579,2.0677-.0054,3.0009-2.2711,8.0483-5.1979,15.7448-11.9884,21.261-.4936.401-.9246,1.0056-1.1394,1.6036-1.7991,5.0087-3.7299,9.9812-5.261,15.0729-3.3851,11.2573-3.887,22.7734-2.5097,34.3981,1.3436,11.3399,4.7938,21.9848,11.2918,31.4203,7.597,11.0315,17.4626,19.4419,30.0216,24.4391,10.209,4.0622,20.8905,5.3719,31.7927,5.2673,16.8778-.1618,33.2194-3.5,49.274-8.4542,4.0337-1.2447,7.9878-2.7462,12.0164-4.0088,1.5681-.4915,2.2646-1.3643,2.6304-2.9622,1.6033-7.0054,3.5322-13.9252,6.3007-20.5741.7437-1.7859,1.6732-3.5034,2.6313-5.1875.4858-.8538,1.1179-1.7352,2.4728-1.5172.74.7997.2885,1.6887.0923,2.5589-1.2079,5.3568-2.4636,10.7035-3.6008,16.0754-.5178,2.4462-.8008,4.9421-1.2693,7.9165,1.9646-.7549,3.4431-1.287,4.8939-1.886,15.8008-6.5241,30.9827-14.3153,45.813-22.7753,5.9303-3.383,11.553-7.3127,17.2491-11.094,1.3897-.9225,2.6067-2.1581,3.7457-3.3948,2.4892-2.7027,2.4831-5.2707-.2727-7.7194-1.5456-1.3734-3.4311-2.4871-5.3402-3.305-5.7117-2.447-11.7941-3.5546-17.9127-4.3769-6.8627-.9222-13.7576-1.6061-20.6169-2.5512-6.9604-.959-13.7965-2.5146-20.3389-5.1469-3.7747-1.5187-7.3287-3.4447-10.5071-6.0327-5.9335-4.8314-8.5482-11.0629-8.3219-18.6846.3833-12.9159,3.8417-25.0017,9.6506-36.444,5.9723-11.7641,13.6304-22.3435,22.9654-31.6789,4.3271-4.3274,9.1419-8.0209,14.6692-10.7155,3.6983-1.803,7.5859-2.7876,11.7306-2.7306,2.3677.0326,4.2203.9703,5.7082,2.7776,1.8626,2.2622,3.0278,4.84,3.779,7.6604,3.1846,11.9561,10.6068,20.6041,21.2395,26.5452,11.3125,6.321,26.2581,4.5502,36.3371-3.8781,5.5546-4.6449,9.6117-10.3984,12.8844-16.7597,1.6228-3.1543,2.9945-6.4384,4.6312-9.5849,1.2838-2.4682,2.7068-4.8777,4.2522-7.19.7788-1.1653,1.8706-2.1905,3.0117-3.0149.5576-.4028,1.7636-.5248,2.2875-.1811.511.3352.8066,1.4686.6991,2.1758-.2005,1.3179-.7232,2.5949-1.1851,3.8623-.4045,1.11-.9429,2.1707-1.3639,3.2753-1.2301,3.2272-.8617,6.2474,1.0202,9.1773,4.0497,6.3048,9.2061,11.2221,16.518,13.4918,4.6018,1.4284,9.3062,1.5381,14.0436.8529.6632-.096,1.321-.2988,1.953-.5297,2.8652-1.0464,3.619-2.4349,3.0976-5.4682-.5119-2.9789-1.8254-5.6453-3.4183-8.1296-1.3017-2.03-1.5426-3.9819-.8598-6.2391,2.0299-6.7104,3.9727-13.447,5.9733-20.1663.2102-.7057.5787-1.3642.92-2.1511,1.6016.3467,2.1005,1.5678,2.5976,2.6689,2.1297,4.717,3.7894,9.6012,4.4877,14.7427,1.5731,11.5824.6506,22.9463-3.5104,33.9262-1.8921,4.9929-4.3178,9.7076-8.1138,13.6201-6.9155,7.1279-15.2602,8.6016-24.2128,5.3743-10.8933-3.927-18.364-11.457-21.2463-23.0097-.0955-.3826-.3198-.7331-.7644-1.7225ZM361.896,290.3745c.6279-.1292,1.0522-.1509,1.4235-.3025,8.1304-3.3205,16.1419-6.8944,23.6696-11.4554,3.5409-2.1454,6.9775-4.4362,9.7207-7.6218,2.0209-2.3467,3.1383-4.9224,2.7454-8.1092-.8414-6.824-3.5378-12.8296-7.9792-18.0124-2.6393-3.0799-5.4076-3.6017-9.0995-1.9761-1.2183.5364-2.3792,1.2835-3.4278,2.1099-3.1132,2.4534-5.2035,5.7128-6.995,9.194-5.5562,10.797-8.45,22.3721-10.0481,34.3261-.0744.5566-.0095,1.1318-.0095,1.8474ZM311.8508,305.0333c-.116-.6076-.094-.8111-.1849-.9224-4.3942-5.3781-9.4284-9.8171-16.267-11.942-4.5571-1.416-8.1391.1501-11.2961,3.1354-2.6013,2.4599-2.197,5.6604.9424,7.3375,1.7506.9352,3.7589,1.5106,5.72,1.9046,4.9928,1.0029,10.0687.9671,15.1366.8059,1.9225-.0612,3.8423-.2035,5.949-.319Z"/>
    <path class="cls-1" d="M230.6471,101.5006c-.376,1.6064-.919,3.196-1.0838,4.8238-.1863,1.8401-.9994,3.2216-2.3955,4.2742-1.073.8089-2.2174,1.5608-3.4216,2.1509-3.982,1.9509-8.0413.8017-10.2938-3.0187-.751-1.2738-1.1007-2.8022-1.5247-4.2463-.4504-1.5341-.9-1.9035-2.3246-1.2287-2.2116,1.0475-4.3906,2.1806-6.5074,3.4086-6.7904,3.9392-14.1233,6.4605-21.7154,8.2252-5.2981,1.2315-10.6775,1.5677-16.0835.4883-5.1684-1.032-9.4598-3.494-12.7969-7.5944-1.2263-1.5068-2.4219-3.0432-3.7224-4.4839-1.3436-1.4885-2.0312-1.6149-3.7589-.5958-3.2053,1.8906-5.774,4.4398-7.1868,7.9358-1.1381,2.8164-2.0723,5.7151-3.1075,8.5734-.4025,1.1114-.7398,2.2597-1.2692,3.3092-1.7215,3.4125-5.5086,4.171-8.1504,1.3877-1.4018-1.477-2.4732-3.443-3.1747-5.3767-2.0069-5.532-2.9269-11.292-2.4375-17.1865.2433-2.9299.8153-5.8326,1.2603-8.8965-.5635-.172-1.1786-.3598-1.8636-.5689.1048-.2273.1447-.5439.3039-.6244,2.1845-1.1041,4.3803-2.186,6.5833-3.253,6.2104-3.0079,11.8548-6.8191,16.6926-11.7702.8758-.8963,1.6846-1.8582,2.4049-2.6573-4.5976-9.3488-11.2701-16.8265-18.2038-24.1179-4.4229-4.6509-8.8183-9.3325-13.0839-14.1268-2.4713-2.7776-4.576-5.8499-5.9277-9.3836-.2492-.6515-.8624-1.2389-1.4438-1.6735-1.5733-1.1761-2.2298-2.6872-2.0401-4.6211.1686-1.7189-.1432-3.557,1.2158-4.9686,2.3852.8563,12.414,9.2326,14.1585,11.8342-1.603,1.1006-3.0421-.4695-4.7451-.226.0294,1.0958.8768,1.7403,1.4809,2.4174,5.1734,5.7999,10.442,11.5154,15.5751,17.3504,3.0656,3.4848,6.0452,7.0572,8.8705,10.7384,3.0436,3.9656,5.2249,8.3124,4.538,13.5764-.0531.4074.038.8403.1083,1.2534.0228.1341.1935.2431.2969.3633,2.028-1.3978,3.327-3.9395,3.198-6.915-.0984-2.2689-.4317-4.5407-.8279-6.7816-2.1762-12.3118-4.4494-24.6066-6.5779-36.9265-.4563-2.6411-.5744-5.36-.6152-8.0466-.0249-1.6367.2935-1.8529,1.6033-2.9203,1.3504.7501,1.456,2.1835,1.753,3.4483,1.6997,7.2371,3.3851,14.4779,5.0022,21.7337,1.6906,7.5852,3.2592,15.1976,4.9519,22.7823,2.5648,11.4922,10.0087,17.9837,21.2267,20.5819,6.5883,1.5259,13.2793,1.4605,19.9258.9418,9.272-.7236,18.4339-2.2686,27.3301-5.1222,2.7647-.8868,2.7922-.8653,2.2746-3.6489-2.8106-15.1151-5.5847-30.2372-8.4832-45.3355-.6908-3.5982.6043-6.5716,2.0201-9.7367,1.2692.4448,1.3724,1.4613,1.578,2.2818,1.1086,4.4234,2.3654,8.8255,3.164,13.3076,2.1779,12.2221,4.1507,24.4808,6.2086,36.7244.1799,1.07.388,2.1353.6146,3.3763.7055-.0691,1.284-.0284,1.7984-.1908,7.2886-2.3,14.1652-5.46,20.5646-9.6785,2.4244-1.5982,3.3678-3.5709,2.7501-6.4207-1.735-8.0043-3.4017-16.0234-5.0978-24.0362-.5946-2.8091-1.2412-5.6081-1.783-8.4273-.6463-3.3631.6182-7.0027,3.1722-9.2103.3079.1878.719.3332.9839.6158,3.637,3.8808,7.2321,7.801,10.8816,11.67,3.7231,3.947,7.2534,8.0279,9.6059,12.9843,6.3715,13.4243,5.6689,26.4798-2.039,39.1733-3.4674,5.7102-8.9673,7.6601-15.2034,8.166-3.2808.2661-6.5825.2774-9.8623.5525-4.3125.3617-5.1007,1.9053-2.7675,5.5328,1.181,1.8362,2.5735,3.57,4.0702,5.1621,3.154,3.3551,7.099,4.3677,11.5738,3.4761,5.4912-1.0942,9.8925-4.1909,14.0938-7.6603,1.0162-.8392,1.934-1.8614,3.4077-2.0756.6374,1.34.0785,2.4344-.4142,3.4653-1.2926,2.7045-3.0323,5.1026-5.5036,6.8429-5.7226,4.03-11.9891,6.9048-18.8118,8.4993-6.0328,1.4098-11.162-.6764-15.7391-4.4115-1.3504-1.102-2.3839-2.5962-3.5419-3.9288-.3724-.4286-.678-.9153-1.0141-1.3754-.2325.0128-.4649.0256-.6973.0384ZM226.5377,81.7357c-.9132.2157-1.5736.3247-2.2038.5275-9.6022,3.0888-19.4066,5.1869-29.4738,5.9505-7.2727.5517-14.5239.4169-21.6673-1.2396-9.6404-2.2356-16.6221-7.6039-19.9527-17.1957-.2142-.6169-.5452-1.1933-.9522-2.0692-.4062.7799-.7066,1.2672-.9235,1.7891-.7452,1.793-1.3835,3.6343-2.2028,5.3919-2.5021,5.368-5.7948,10.1201-10.9371,13.3157-4.1012,2.5486-8.6866,3.6478-13.4044,4.3024-2.014.2795-2.0021.2755-2.4249,2.2054-1.3311,6.0759-1.0772,12.1149.777,18.0178.5626,1.7911,1.656,3.5314,2.8883,4.9667,1.5489,1.804,3.6453,1.8213,5.3794.181,1.0085-.9539,1.824-2.2236,2.3995-3.4988.9701-2.1496,1.5694-4.4661,2.5307-6.6204.9925-2.2243,1.9932-4.5156,3.4311-6.4498,1.3295-1.7883,3.0837-3.3776,4.9374-4.6306,2.4947-1.6863,4.5253-1.1878,6.4644,1.0848.6571.7702,1.2371,1.6058,1.8731,2.3948,5.5716,6.9123,13.0304,9.7398,21.6528,9.5567,5.6844-.1206,11.17-1.6011,16.5251-3.5342,6.7016-2.4191,12.9174-5.8343,19.1793-9.165.9347-.4972,1.9352-.8705,2.7917-1.2506,1.3839,1.1826.9764,2.5483,1.1017,3.7613.4921,4.7632,3.3748,7.1089,8.0906,6.5345,5.1481-.6271,7.3349-3.2582,6.7195-8.3803-.5739-4.777-1.3304-9.5322-2.0313-14.2934-.0699-.4752-.312-.9249-.5677-1.6527ZM253.4289,26.5961c.1441.8749.2369,1.527.3603,2.1732,1.4256,7.4604,2.9556,14.9025,4.2584,22.3843,1.4814,8.5069-1.3141,15.2654-8.6882,19.9854-4.9309,3.1562-10.2692,5.4695-15.6719,7.656-.7635.309-1.508.6648-2.2782,1.0065.0452.7735-.0061,1.3743.1267,1.9313.9775,4.0982,1.8332,8.236,3.0587,12.2604.6524,2.1424,1.8955,4.123,3.0109,6.0981.4982.8822,1.1636,1.8171,2.3945,1.9132.082-.2954.2019-.4801.1559-.6024-.2663-.7086-.5413-1.4172-.8687-2.0991-2.8935-6.0262-1.2903-11.3408,2.6607-16.2084,1.9543-2.4077,4.5805-3.3483,7.6837-2.8793,1.167.1763,2.3423.3991,3.5161.4138,11.6483.1461,19.2826-5.4706,21.0422-16.8212.9986-6.4413-.2969-12.5685-3.7847-18.2084-4.4003-7.1154-10.3894-12.8347-16.1388-18.7729-.0975-.1006-.3089-.0908-.8376-.2303Z"/>
    <path class="cls-1" d="M370.0947,107.4848c-.1315,1.3164-.006,2.4544-.3842,3.3883-1.0427,2.5741-2.2665,5.0772-3.4779,7.5797-.6781,1.4007-2.0279,1.9166-3.4073,2.4243-16.9641,6.243-33.902,12.5574-50.8803,18.7614-18.4864,6.755-36.9207,13.6491-54.9697,21.5059-8.1252,3.5369-16.0349,7.5693-24.0414,11.379-.6707.3192-1.3339.6543-2.0045.9839-.2561-.3103-.5252-.4849-.5508-.6899-.494-3.9547.2201-7.7344,1.7303-11.3853.5222-1.2625,1.6027-1.9014,2.7948-2.4242,6.342-2.7812,12.6563-5.6268,19.0186-8.3608,24.2182-10.4069,48.7317-20.0759,73.5522-28.9425,13.3612-4.773,26.8608-9.1585,40.3024-13.7057.6154-.2082,1.2746-.2869,2.3178-.514Z"/>
    <path class="cls-1" d="M322.5642,79.9807c.4817-2.4598.884-4.9383,1.4599-7.3758,1.8056-7.642,3.5859-15.2921,5.5648-22.8899.8505-3.2653,2.2209-6.3857,4.235-9.1568,2.6815-3.6895,5.4721-4.5524,9.7023-2.9584,3.64,1.3716,6.2173,4.0134,8.2036,7.2402.4488.7291.6763,1.8358.5022,2.6625-.5547,2.6323-1.2947,5.2304-2.0829,7.805-.2005.6548-.8449,1.1737-1.5216,2.067-.7548-.946-1.3048-1.6384-1.858-2.328-1.0549-1.3147-1.9788-2.7693-3.1942-3.9137-2.9932-2.8184-6.0735-2.506-8.2741.9839-1.2908,2.0471-2.2589,4.3503-3.0524,6.6488-2.1865,6.3337-3.0976,12.9654-4.3392,19.5222-.9577,5.0573-2.14,10.0731-3.2873,15.0925-.2419,1.0581-.6762,2.0989-1.1827,3.0632-.6382,1.2151-1.477,1.332-2.3861.2993-.6564-.7457-1.2453-1.6379-1.5755-2.5674-.9598-2.7016-1.9069-5.4207-2.6185-8.1947-1.5691-6.1159-3.8006-11.9159-7.6453-16.9835-1.1558-1.5234-2.5101-2.8962-3.7378-4.2974-2.5815,1.6519-2.708,1.8031-5.2663.3457-2.8492-1.6231-5.5922-3.4589-8.2489-5.385-1.7963-1.3023-2.7294-3.1956-2.4614-5.526.2595-2.2564.2558-4.5787.8172-6.7562.8181-3.173,2.7087-4.1052,5.9298-3.5747,3.3205.5469,5.9646,2.2945,8.2932,4.5696,4.7213,4.6126,8.0659,10.2056,10.8554,16.0997,1.9816,4.1872,3.5127,8.5873,5.2587,12.8868.3714.9146.8022,1.8051,1.2057,2.7067.2348-.0285.4696-.057.7045-.0856Z"/>
    <path class="cls-1" d="M82.4077,201.9746c-1.5897,2.1157-3.2515,1.7559-4.8863.7529-2.7278-1.6736-5.475-3.3287-8.0936-5.1634-2.0565-1.4408-3.1365-3.5088-2.8453-6.1234.2328-2.0902.2502-4.2373.7681-6.2553.8644-3.3683,2.6316-4.3369,6.0204-3.8043,3.3234.5222,5.9465,2.3157,8.277,4.5885,4.6629,4.5472,7.9659,10.0649,10.7314,15.8702,2.0273,4.2559,3.5863,8.7346,5.3677,13.1084.3736.9174.8069,1.8104,1.2732,2.8494,1.2121-.7986,1.0256-1.9225,1.2326-2.826,1.7526-7.6521,3.3024-15.3546,5.2396-22.9588.9729-3.8191,2.5714-7.4856,4.0002-11.1773.4182-1.0805,1.1575-2.0616,1.8665-2.9999,2.3693-3.1359,4.9715-3.9323,8.6996-2.6846,3.7894,1.2683,6.4652,3.9165,8.5184,7.2143.4528.7273.7039,1.8273.5343,2.6497-.5428,2.6317-1.2836,5.2265-2.0506,7.805-.1717.5771-.7613,1.0298-1.3464,1.7812-.6675-.8457-1.1654-1.4843-1.6716-2.1163-1.0537-1.3156-1.978-2.7702-3.1944-3.9132-3.0755-2.8898-6.1763-2.5229-8.5333.9498-.799,1.1772-1.4387,2.4885-1.9837,3.8077-2.4033,5.8172-3.4468,11.9847-4.6023,18.1265-1.108,5.8895-2.2608,11.7719-3.5081,17.633-.3656,1.718-1.0199,3.3978-1.7329,5.0106-.4973,1.1249-1.3674,1.2238-2.202.3068-.6678-.7337-1.2903-1.6102-1.6159-2.535-1.0357-2.941-2.0541-5.9-2.8399-8.9145-1.5059-5.7769-3.6498-11.2487-7.2267-16.067-1.2399-1.6702-2.7005-3.1765-4.1958-4.9153Z"/>
    <path class="cls-1" d="M153.638,179.445c.7185-.4809,1.3999-1.033,2.1614-1.4319,7.7755-4.0727,15.5663-8.1163,23.3454-12.1822.7223-.3776,1.394-.8521,2.055-1.2605-.2784-1.3926-1.268-1.5872-2.1366-1.7161-3.3292-.4937-6.6669-1.2085-10.0108-1.263-5.8975-.0961-11.8019.2329-17.7035.3795-.6297.0157-1.2601.0021-2.1957.0021.4138-.9334.5981-1.5796.9528-2.1123,2.5715-3.8627,5.1815-7.6998,7.7698-11.5513.7462-1.1104,1.7294-1.6784,3.0828-1.9492,5.7921-1.1588,11.5884-1.0008,17.3773-.1676,3.4195.4921,6.8067,1.2148,10.2005,1.8746.9059.1761,1.8084.4366,2.6678.7726,2.499.9769,3.7524,3.0645,3.01,5.6509-.5978,2.0825-1.3792,4.2469-2.6273,5.98-2.655,3.6868-5.5944,7.1788-8.5581,10.6296-1.909,2.2228-4.5407,3.4801-7.2375,4.5233-6.3381,2.4518-12.9544,3.749-19.664,4.62-.7532.0978-1.5426-.0831-2.3151-.1347-.0581-.2213-.1162-.4426-.1742-.6639Z"/>
    <path class="cls-1" d="M65.1501,148.7601c-.7865-1.203-.4108-2.4488-.2012-3.6597.4753-2.7463,1.0827-5.4728,1.472-8.2305,1.2991-9.2031-.2287-17.9962-3.9486-26.467-3.9596-9.0165-9.7907-16.7362-16.427-23.9051-.9754-1.0537-1.9065-2.1884-3.0381-3.0485-2.1391-1.6259-2.4474-3.7043-1.856-6.0855.7732-3.1134,1.5007-6.2427,2.421-9.3133.6425-2.1438,1.4943-2.4771,3.3354-1.2335,1.591,1.0747,3.0926,2.3728,4.3679,3.8084,5.4136,6.0937,9.8497,12.8686,13.61,20.0931,3.3024,6.3449,5.7543,13.0091,6.7268,20.0973,1.4732,10.7375,1.2404,21.4132-2.216,31.8266-.503,1.5155-1.1693,2.9878-1.8848,4.4176-.4387.8766-1.0223,1.766-2.3613,1.7002Z"/>
    <path class="cls-1" d="M153.0732,284.7813c-.1082-2.5008-.7602-3.1456-3.0264-2.5072-1.9396.5464-3.8778,1.2555-5.6526,2.2008-6.0365,3.2153-12.0081,6.5532-17.9826,9.8835-.7706.4296-1.4129,1.0897-2.4469,1.9051,1.4789,1.0275,2.6385,1.8237,3.787,2.6355.5109.3611,1.2095.5158.9132,1.523-.1021.3468.6201,1.0822,1.1129,1.4335,2.4074,1.7162,4.901,3.3124,7.2899,5.053,1.3574.9891,2.7107,2.0498,3.825,3.2942,3.1125,3.476,2.6646,8.2675-.9783,11.1716-2.3589,1.8804-5.0816,3.0079-8.0619,3.4606-3.3275.5055-4.7733-.2691-6.319-3.2799-.152-.2961-.3273-.5802-.6215-1.0984-.4694.6202-.8507,1.1084-1.2153,1.6087-1.0935,1.5006-2.5279,2.4634-4.3672,2.796-2.5393.4591-3.8272-.275-4.6837-2.676-.1654-.4636-.314-.9332-.5521-1.6439-9.0798,4.1474-18.3584,5.9371-28.1504,3.1094-.3542,1.4829-.6574,2.7518-.9923,4.1538-2.6656-.6332-4.2616-1.9898-4.9331-4.4352-.6009-2.1886-1.0761-2.5317-3.3154-2.6364-2.2108-.1035-4.2386.5991-5.9095,1.9279-2.3697,1.8844-4.6064,3.9488-6.7898,6.0507-1.579,1.52-2.9161,3.2896-4.4753,4.8324-1.8303,1.811-3.987,3.0318-6.6186,1.8771-2.5441-1.1163-3.3723-3.4103-3.4907-6.0066-.1577-3.4575,1.7694-7.9911,4.4252-10.0669-.3016.8146-.4648,1.3465-.6917,1.8496-.5207,1.1543-1.1628,2.2624-1.5863,3.4497-.4221,1.1833-.774,2.4255-.9101,3.6688-.1792,1.6363.0017,3.2801,1.7006,4.1735,1.6262.8551,3.1961.4269,4.4815-.6762,2.1109-1.8116,4.0971-3.7686,6.1379-5.6619,2.288-2.1225,4.4835-4.3584,6.8945-6.3306,2.3468-1.9196,5.0844-2.966,8.238-2.5896.7043.0841,1.4494-.174,2.3004-.2919,5.0992,3.5703,11.0414,4.574,17.2157,4.6044,6.0852.0299,11.8303-1.4951,17.2927-4.2742.1958.3653.3966.5691.403.7789.0516,1.6913.6547,2.9517,2.4525,3.3658,1.9011.4379,4.8046-.3226,5.4779-1.7694.4627-.9942.549-2.2968.4119-3.4136-.5145-4.1918-1.1453-8.371-1.8151-12.5416-.9777-6.0872-2.0096-12.1658-3.0566-18.2416-.2814-1.6328-.2367-3.1821.8283-5.1075.9689,2.6613,1.1522,5.1313,1.6307,7.5177.4794,2.3905.872,4.7983,1.2987,7.1766.3539-.0277.6014.0156.645-.0595,1.5004-2.5831,3.8131-4.3222,6.3566-5.6546,6.0549-3.172,12.1813-6.2097,18.3229-9.2115,1.2702-.6208,2.7084-.9859,4.1107-1.2258,1.7184-.294,2.6613.6311,2.3398,2.3297-.2287,1.2083-.8619,2.3399-1.3146,3.5057l.0644.0628ZM123.7264,300.2171c0,.8169-.0754,1.3978.0122,1.9529.5649,3.5776,1.1221,7.1574,1.7717,10.72.3464,1.8995.7561,3.804,1.3491,5.6376.6689,2.0683,2.1954,3.0988,4.4408,3.0012,3.6831-.1603,6.8578-1.6319,9.7296-3.806,1.171-.8865,1.2951-1.7995.5824-3.1253-.3925-.7302-.9081-1.4438-1.5207-1.9954-1.1862-1.0682-2.4647-2.0369-3.7325-3.0111-3.7357-2.8706-7.4815-5.728-11.2339-8.5766-.371-.2817-.8143-.4682-1.3987-.7974ZM84.1534,323.6527c-.4444-1.1234-1.1708-1.3593-2.3581-1.5517.5871,1.1601,1.1409,1.6743,2.3581,1.5517Z"/>
    <path class="cls-1" d="M409.388,102.2155c.8594,2.055.2052,3.447-.3062,4.8382-1.7756,4.8318-3.6678,9.6232-5.3347,14.4919-3.009,8.7887-5.8421,17.6443-7.0387,26.8991-.4089,3.1625-.4631,6.3915-.4056,9.5851.028,1.5572.5091,3.173,1.0922,4.64,1.3701,3.4468,5.06,4.4562,8.1281,2.3362,1.8757-1.2962,2.9531-3.201,3.8805-5.2172.3496-.7599.6921-1.5501,1.201-2.1984.2546-.3243.936-.5728,1.3136-.4655.3512.0998.7242.6922.7869,1.1127.11.7371.0758,1.5229-.0477,2.2634-.6696,4.0149-1.7275,7.9354-3.5729,11.5687-1.9412,3.822-5.1579,5.9053-9.4592,6.2781-2.8269.245-4.8995-.8704-6.2837-3.3383-2.7672-4.9337-3.5544-10.3008-3.6433-15.8634-.1151-7.2045,1.5617-14.074,3.7852-20.8282,2.9557-8.9782,6.0535-17.9096,9.0946-26.8596.9386-2.7621,2.4371-5.1933,4.4572-7.2871.6196-.6422,1.3761-1.1525,2.3528-1.9559Z"/>
    <path class="cls-1" d="M95.1071,141.7441c.7544-.6193,1.481-1.2769,2.2682-1.8512,3.1446-2.2941,6.1868-4.6989,8.643-7.757,1.8938-2.3579,3.4186-4.974,3.2049-8.0553-.1906-2.7482-.6187-5.5638-1.491-8.1656-3.1921-9.5211-6.6292-18.9598-9.9388-28.4419-1.0144-2.9063-1.3139-5.9302-1.0789-8.9928.4141-5.3961,2.612-9.7253,7.5366-12.3888.4368-.2362.8416-.5314,1.4839-.9412-2.1024-1.6788-1.5813-3.7318-.9929-5.7603.5869-2.0236,1.1353-4.0713,1.9174-6.0215.7831-1.9529,1.5989-2.3609,3.3128-1.3634,2.9001,1.6879,5.6811,3.6012,8.3947,5.581,1.4677,1.0708,1.8367,2.7686,1.6062,4.563-.478,3.7212-1.9842,6.515-5.9983,7.529-2.6076.6587-5.1181,1.7157-7.6501,2.6539-1.1028.4086-2.2033.8773-3.2126,1.4745-2.6771,1.584-3.6552,3.3423-2.9003,6.3354,1.1327,4.4911,2.5177,8.9271,3.9858,13.323,1.8177,5.4425,3.891,10.7992,5.7416,16.2313,1.9952,5.8567,2.5313,11.8606,1.4289,17.9814-1.4138,7.8497-6.2181,12.824-14.0068,14.4586-.6385.134-1.3033.1422-1.9559.2088-.0995-.2003-.1989-.4007-.2984-.601Z"/>
    <path class="cls-1" d="M86.8002,286.2251c1.1821,1.8715.7119,3.7374.5797,5.5359-.1174,1.5965-.4658,3.175-.6152,4.7705-.1018,1.0874-.1155,2.1965-.0315,3.2853.2982,3.8638,3.5791,6.6118,7.9232,5.0833,0-.7278.109-1.5495-.0167-2.3336-1.3491-8.4185-2.7342-16.8311-4.1116-25.245-.7636-4.6644-1.5297-9.3285-2.2991-13.992-.1374-.8329-.1702-1.7116-.4711-2.4834-.7503-1.9247-.0048-3.3645,1.4787-5.1361,1.4896,3.4175,2.8497,6.5379,4.4258,10.154-1.0626-.3608-1.621-.5504-2.5394-.8622.09,1.0884.0952,1.9779.2454,2.8422,1.7349,9.9794,3.5002,19.9535,5.2349,29.9329.314,1.8066.5262,3.6309.8236,5.7151,2.1719-.98,2.7149-2.6158,2.644-4.3927-.0701-1.7565-.3834-3.5278-.807-5.2389-.4445-1.796-.9712-3.6141-1.7802-5.2667-1.0272-2.0984-.9161-4.0327.0659-6.1383,1.1544.1707,1.4556,1.136,1.7396,1.9344,1.2419,3.4919,2.4352,7.0024,3.5665,10.5317.5659,1.7654.8151,3.6403,1.465,5.3689,1.1983,3.1873,4.9092,4.7156,7.9326,3.4286,1.66-.7066,2.149-1.4838,1.5678-3.1634-.6883-1.9893-1.6301-3.8895-2.4204-5.8451-1.3898-3.4394-2.8-6.8722-4.0942-10.3478-.5406-1.4518.2699-2.727,1.0041-4.2535,1.6563,1.3721,2.5133,3.0843,3.7422,4.6939-.5419.3425-.9294.5875-1.5226.9624.6454,1.5129,1.2965,3.0497,1.956,4.5828.8671,2.0157,1.834,3.9943,2.5895,6.0508,1.1006,2.9956.9144,5.9941-.5308,8.8489-2.1401,4.2275-7.162,4.8225-10.2357,1.1993-.6985-.8234-1.169-1.8457-1.7075-2.7974-.3596-.6354-.6539-1.3077-1.2366-2.4889-.537,1.2815-.7308,2.2028-1.2427,2.8854-2.1107,2.814-2.2544,6.0174-2.2132,9.3438.0286,2.3115-.4433,3.3851-1.7299,5.3966-.1995-3.2619-.3745-6.1214-.5596-9.1487-.9223.1312-1.4868.1976-2.0462.2934-3.1588.5409-5.4571-.5358-6.9284-3.3851-1.408-2.7267-1.5386-5.6659-1.2074-8.6524.2207-1.9897.4466-3.9789.6886-6.1323-1.3884.1624-1.5092,1.0868-1.7026,1.8228-1.0072,3.8322-1.9436,7.6829-2.943,11.5171-.2748,1.0543-.5423,2.15-1.0565,3.0941-1.0559,1.9389-3.0899,2.4283-4.9856,1.2864-1.5-.9035-2.6534-2.2289-3.0662-3.8971-.5218-2.1093-.8552-4.293-.9899-6.462-.1244-2.0045.0763-4.0353.233-6.0469.0421-.5407.3235-1.1778.7072-1.5539.9246-.9063,1.9747-1.6844,2.9742-2.5142.1121.1318.2243.2635.3364.3953-1.1183.9597-2.2366,1.9195-3.5577,3.0533,2.2525,1.2852,3.6285-.4791,5.506-.771-1.3752,1.8136-3.2704,2.1466-5.0186,2.9497-.3373,2.9598-.2744,5.8805.6653,8.7354.2345.7124.5644,1.424.9923,2.0369,1.8737,2.6838,4.5219,2.4646,5.7732-.5696.7014-1.7009,1.0173-3.5598,1.5193-5.3441.9813-3.4879,1.9266-6.987,2.984-10.4518.3328-1.0903.7677-2.2498,2.303-2.8169Z"/>
    <path class="cls-1" d="M389.7537,345.6159c-.2812.6873-.4528,1.067-.5938,1.4576-1.1035,3.0574-2.9706,5.5287-5.8708,7.0265-5.0953,2.6314-10.2518,5.1445-15.3892,7.6939-.7549.3747-1.5629.6425-2.3172,1.0182-8.4979,4.2323-17.6267,6.2135-26.9324,7.558-.9462.1366-1.9084.1626-2.8631.2399-.0436-.1813-.0871-.3627-.1308-.5441.8119-.3552,1.6154-.7311,2.4369-1.0623,11.3483-4.5761,22.7372-9.0545,34.028-13.7682,3.8006-1.5867,7.3958-3.6908,11.006-5.7003,2.9423-1.6378,5.0742-3.9899,6.4758-7.1885.9594-2.1895,2.5567-4.1663,4.1501-5.9928,1.717-1.968,3.3279-1.9076,5.2973-.2709,2.9915,2.4861,4.272,8.1244,2.6712,11.6599-.4788,1.0575-1.2539,1.4828-2.4023,1.4678-2.7006-.0353-5.1226-.938-7.4213-2.2594-.6458-.3712-1.2663-.7866-2.1442-1.3353ZM398.4314,343.8648c.1318-2.9675-1.6981-4.5826-4.0469-3.7293-1.1147.4049-1.4015,1.415-.4795,2.052,1.3422.9274,2.7645,1.7894,4.5264,1.6773Z"/>
    <path class="cls-1" d="M254.8816,331.5903c.5111,1.9128-.1107,3.1401-.5707,4.3712-2.9008,7.7622-5.399,15.647-7.2183,23.736-.9665,4.2972-1.6314,8.6422-1.2715,13.0619.1078,1.3237.3955,2.6891.8995,3.9124,1.136,2.7576,4.2128,3.4779,6.413,1.4252,1.0725-1.0006,1.7542-2.4346,2.5518-3.7106.4697-.7516.5315-1.8492,2.1398-1.8734.1026.6292.3662,1.3223.2975,1.9806-.3442,3.2994-1.1644,6.4999-2.6773,9.4522-1.3073,2.5512-3.4672,4.0743-6.3694,4.471-2.6046.3559-4.1163-.3634-5.436-2.6993-2.054-3.6353-2.6553-7.6182-2.7571-11.7142-.1168-4.699.7713-9.2541,2.1482-13.7087,2.169-7.0167,4.439-14.0021,6.6703-20.9994.7256-2.2755,1.7232-4.4088,3.3902-6.1617.4434-.4662.976-.8475,1.7899-1.5433Z"/>
    <path class="cls-1" d="M163.2064,48.5644c.2879-.4252.7347-1.4646,1.5054-2.1267.9417-.8089,2.1166-1.3838,3.2571-1.9178,12.2348-5.7289,24.7147-10.8738,37.3733-15.586,1.1821-.44,2.4143-.7635,3.6441-1.0521,1.0967-.2573,1.5542.3689,1.5793,1.3946.0343,1.4-.6355,2.2485-2.3647,2.8839-3.2468,1.1933-6.5877,2.1683-9.744,3.5633-10.0304,4.4329-19.994,9.0174-29.9834,13.5432-1.0758.4874-2.1231,1.0573-3.2346,1.4413-1.4665.5066-2.1164-.0216-2.0325-2.1437Z"/>
    <path class="cls-1" d="M203.0348,69.6108c-1.3376,2.4507-3.5162,2.9831-6.0438,2.6166-1.5389-.2232-2.7249-1.0035-3.2622-2.468-1.2084-3.2935-.714-6.546.0831-9.7692.2174-.0478.4349-.0956.6524-.1434.2349.5365.5509,1.0531.6881,1.6135.3001,1.2258.4316,2.4966.7855,3.704.2049.6994.605,1.4074,1.1014,1.9398.7234.7759,1.6816.6478,2.5838.238.8856-.4023,1.246-1.1672,1.1159-2.0684-.1803-1.2481-.5009-2.4756-.7496-3.7143-.3092-1.5397-.5464-3.0799-.0498-4.7725,1.2668.4964,1.3098,1.5104,1.636,2.3146.5695,1.4039,1.0222,2.8609,1.6762,4.2225.3517.7323.9028,1.52,1.579,1.9012.6367.359,1.6863.509,2.319.2255.8926-.3999.3859-1.3592.0659-2.0078-.9355-1.8959-1.0784-3.8819-.8131-5.9242.0471-.3628.2904-.7.7195-1.6811,1.4269,3.6496,3.3281,6.4728,4.0196,9.7711.6638,3.1659-2.3595,5.7265-5.5484,4.8867-.8013-.211-1.5716-.5394-2.5585-.8847Z"/>
    <path class="cls-1" d="M195.2877,123.1848c1.8126.9184,3.5229,1.8211,5.2651,2.6576,1.7864.8577,2.0175.7793,3.0714-.8639.5925-.9237,1.1433-1.8745,1.7002-2.8206.5746-.9761,1.3634-1.2243,2.3481-.6685,1.543.8711,3.0729,1.7657,4.5982,2.6677.8709.515,1.0932,1.237.5951,2.1462-.0404.0738-.0662.1555-.1043.2309-2.8565,5.6613-2.8088,5.3563-7.4763,2.5236-.2888-.1752-.5737-.3592-.8735-.5136-1.6811-.8663-2.0195-.7548-2.9303,1.0073-.4647.8991-.8672,1.831-1.3476,2.7211-.535.9914-1.3422,1.2424-2.3306.6627-1.528-.8963-3.058-1.7911-4.5541-2.739-1.0909-.6912-1.3024-1.7343-.8444-2.8852.5932-1.491,1.2613-2.9496,2.883-4.1263Z"/>
    <path class="cls-1" d="M173.2784,35.8365c-.4938-.8549-.9636-1.7248-1.4862-2.5616-1.3396-2.145-2.645-4.3152-4.0807-6.3948-.7236-1.0481-1.5894-1.7445-3.1982-1.241-1.7668.553-3.1937-.4274-3.6286-2.2374-.2687-1.1185-.2878-2.3565-.1335-3.5023.1941-1.4407,1.2542-2.0238,2.6031-1.411,1.048.4761,2.1141,1.1543,2.854,2.016,1.4782,1.7215,2.7542,3.619,4.08,5.468.5224.7286.9545,1.5221,1.9434,2.211.1939-1.6195.3208-3.2506.5981-4.8556.3727-2.1576.7046-4.3428,1.3394-6.4293.8217-2.7006,2.2781-3.5247,4.201-2.7461,2.466.9986,3.3493,3.2016,2.1718,5.9865-.773-.5201-1.4809-1.0436-2.2333-1.4923-1.3066-.7791-2.3289-.5407-2.8497.8626-.4025,1.0846-.5737,2.2918-.6424,3.4567-.2088,3.5391-.3017,7.0848-.4798,10.626-.0362.7203-.2472,1.4318-.3776,2.1473-.2269.0325-.4539.065-.6808.0975Z"/>
    <path class="cls-1" d="M196.0939,8.4181c.246.7338.5984,1.272.5678,1.7873-.1028,1.7286.7063,2.8753,2.0765,3.7506,3.6417,2.3263,3.514,6.2199,2.2103,9.1451-1.1489,2.5776-4.5001,4.1012-7.1815,3.3031-1.8222-.5424-2.8953-1.8546-3.0071-3.655-.1076-1.7323-.1577-3.6212.4129-5.209,1.0161-2.8277,2.5047-5.4874,3.8388-8.1962.1593-.3235.5875-.5145,1.0823-.9259ZM196.3444,22.5461c1.6062.0245,2.9466-.6285,3.1337-1.6308.2687-1.4389-.837-2.0848-1.7702-2.7997-.2669-.2045-.5524-.397-.8553-.54-1.5719-.7419-2.8747-.1253-3.2901,1.5408-.5297,2.1245.5008,3.395,2.7818,3.4297Z"/>
    <path class="cls-1" d="M132.7486,37.0258c-.1219-.9778-.3581-1.9569-.3476-2.9332.0813-7.5456-2.9228-13.5569-8.9161-18.0871-1.3095-.9898-2.1026-2.1605-1.8752-3.8672.2155-1.6173,1.0115-2.0561,2.4167-1.2934.3669.1992.7103.4578,1.0257.7335,5.8316,5.099,9.4571,11.357,9.9616,19.2095.0749,1.1652.0103,2.3789-.2427,3.5138-.222.9962-.7989,1.9133-1.219,2.8653-.2678-.0471-.5356-.0942-.8034-.1413Z"/>
    <path class="cls-1" d="M177.7484,50.575c-.3069.827-.651,1.6424-.9135,2.4833-.7012,2.2468-1.4339,4.4876-2.0158,6.7661-.2453.9605-.1966,2.0103-.185,3.0184.0141,1.2227.2226,2.4666,1.6488,2.7937,1.3798.3164,1.8967-.7467,2.3664-1.7876.1329-.2946.3867-.5346.8009-1.0881.3212.6444.8103,1.1561.721,1.5295-.3453,1.4445-.6154,3.0115-1.3937,4.2246-1.3236,2.0631-3.8281,1.9087-4.8177-.3315-.8336-1.8869-1.3987-3.9945-1.5742-6.0479-.3111-3.639.9671-6.9754,2.8477-10.0518.4496-.7355,1.1757-1.3019,1.7746-1.9461.2468.1458.4936.2916.7404.4373Z"/>
    <path class="cls-1" d="M236.8463,13.2876c.6389,1.7664-.2079,2.8364-.6985,3.9263-1.1141,2.4755-2.0565,4.9888-2.2192,7.7235-.0495.8317-.1436,1.7598.1609,2.4848.2851.6789.979,1.3528,1.6592,1.6572.8773.3926,1.5842-.2033,2.0342-1.0313.3075-.5658.6562-1.1093,1.1183-1.8839,1.4665,1.7668.85,3.3367.1807,4.8018-.6649,1.4558-1.8105,2.4391-3.543,2.4032-1.1614-.024-1.9222-.7688-2.2604-1.7482-.6002-1.7384-1.2933-3.5154-1.4547-5.3204-.3656-4.0873.9964-7.8048,3.1606-11.2221.4053-.6399,1.1147-1.0871,1.8619-1.791Z"/>
    <path class="cls-1" d="M137.7069,129.664c-.3504-1.545-.0425-2.9045,1.2531-3.5859,4.5488-2.3922,9.1746-4.6381,13.7816-6.9183.1892-.0936.4842.0267.8583.058.4422,1.6457-.3222,2.9236-1.5829,3.6046-4.4475,2.4025-8.9883,4.6322-13.5004,6.9143-.1239.0627-.3231-.0233-.8097-.0727Z"/>
    <path class="cls-1" d="M229.6117,53.704c-.4256-1.9885-.0136-3.4886,1.3435-4.3396,4.4227-2.7735,9.1413-4.9735,14.0157-6.9479.4793,2.1823.3391,2.6972-1.3191,3.7458-1.6386,1.0361-3.3561,1.9481-5.0462,2.9018-2.2047,1.244-4.4046,2.4977-6.6324,3.6992-.6931.3738-1.4702.5917-2.3614.9407Z"/>
    <path class="cls-1" d="M237.9664,132.4425c-.0617-5.1799-2.6843-8.9195-6.5382-11.9791-.9237-.7333-1.8569-1.4806-1.7257-2.8785.1198-1.2762.8788-1.8161,2.0575-1.3938.2332.0835.4477.2288.6582.3651,3.9932,2.5878,7.7219,8.4456,6.5757,14.5766-.087.4652-.3504.8973-.5318,1.3448-.1652-.0117-.3305-.0235-.4957-.0352Z"/>
    <path class="cls-1" d="M114.4362,73.1752c-.1704.825-.2736,1.6713-.527,2.4699-.38,1.1977-.9913,2.3324-1.2757,3.5474-.3997,1.708.1315,2.5373,2.0384,3.6143.2785-.3573.5735-.7301.8622-1.1077.2832-.3703.56-.7456.8881-1.1833,1.2419,2.4269.2766,5.8426-1.8248,6.8671-1.1645.5677-2.1321.2048-2.91-.7372-1.2229-1.481-1.8869-3.1739-1.7775-5.1193.1875-3.3367,1.7591-6.0397,3.7146-8.5624l.8117.2113Z"/>
    <path class="cls-1" d="M111.2369,334.5439c-1.3686-.7209-2.398-1.263-3.5381-1.8636-.6061.7552-1.1655,1.4524-1.8734,2.3346-1.0397-.6813-2.0551-1.3467-3.2794-2.149.5214-.9387.9466-1.7042,1.5136-2.7249,1.2471.6386,2.3326,1.1945,3.5657,1.8259.5994-.8258,1.1667-1.6075,1.8684-2.5742,1.0837.7211,2.0924,1.3923,3.287,2.1871-.5439,1.0444-.992,1.9047-1.5437,2.9641Z"/>
    <path class="cls-1" d="M101.2702,272.7895c1.553,1.0976,1.1686,4.393,4.6614,3.166-.7706-1.466-1.4784-2.8125-2.3978-4.5618,1.8918,1.1914,3.3163,3.775,3.129,5.1431-.1626,1.1873-1.0455,1.636-2.0015,1.398-1.3459-.3351-2.3246-.1982-3.4045.7874-.9556.8722-2.0639.4178-2.4635-1.0213-.436-1.5706-.5382-3.2338-.5817-4.9012.9176.7658.8311,1.8396.9901,2.8439.2201,1.3905.7711,1.8948,1.6833,1.6362.9459-.2682,1.3376-1.0577,1.049-2.202-.1942-.7696-.4407-1.526-.6639-2.2883Z"/>
    <path class="cls-1" d="M125.2156,284.8384c1.0496-2.157,12.9945-7.6994,17.9422-8.773-.0087,1.0134-.827,1.1827-1.4252,1.4466-2.698,1.1904-5.4315,2.3007-8.1233,3.5047-2.2293.9972-4.4142,2.0932-6.6274,3.127-.5721.2672-1.1767.4651-1.7663.6948Z"/>
    <path class="cls-1" d="M85.34,270.8221c-.6472.1315-1.2901.2621-2.1984.4467-.1159,1.9519-.2317,3.9044-.3744,6.3083-.5914-.6494-.9541-.9349-1.171-1.3057-.8345-1.4273-1.726-2.6638-3.6731-2.5876-.4165.0163-1.0771-.5527-1.2288-.9898-.1559-.4492.0324-1.1802.3439-1.5677.1821-.2266.9738-.1704,1.3592.0225.5826.2917,1.0781.7844,1.5591,1.2455.5354.5133,1.0131,1.087,1.856,2.0046.1913-1.0377.2805-1.7109.4453-2.3649.1839-.7293.2846-1.555.7093-2.1236.3183-.4261,1.1152-.7467,1.6578-.6933.8007.0787.9647.7918.715,1.605Z"/>
    <path class="cls-1" d="M80.0945,286.9797c.0982.9276-.5737,1.0513-1.4499.889-2.8727-.5322-3.301-.6828-3.9917-5.1381,1.7218-.6173,2.7605.517,3.904,1.3906-.3557.5953-.6585,1.1019-.9612,1.6085.7911.3958,1.5822.7915,2.4989,1.25Z"/>
    <path class="cls-1" d="M95.0832,255.6153c3.145.8925,5.4771,4.0496,6.1173,8.0577-1.0324-1.5258-1.9537-2.8998-2.8882-4.2648-.8813-1.2874-2.697-1.849-3.2291-3.7929Z"/>
    <path class="cls-1" d="M61.2166,303.7279c-.1039,1.3162-.5491,1.9593-1.4421,1.7795-.4455-.0897-.9021-.6888-1.1344-1.1646-.624-1.2784-.4899-2.7024.4608-5.3508,0,1.3461-.0149,2.1944.0035,3.042.0273,1.2554.3811,2.2025,2.1122,1.6939Z"/>
    <path class="cls-1" d="M153.0088,284.7185c-.9118,2.891-2.6605,5.2792-4.5571,7.5773,1.1228-2.7602,2.5444-5.3378,4.6221-7.513-.0006-.0015-.065-.0643-.065-.0643Z"/>
    <path class="cls-1" d="M124.1034,269.8005q.5612,2.5114,2.7264,3.5117c-.558.3846-.9769.8916-1.4019.8968-.3375.0041-.9065-.5625-.9819-.9515-.2194-1.132-.2425-2.302-.3426-3.4571Z"/>
    <path class="cls-1" d="M106.4802,296.1116c.7946.5113,1.5135.9739,2.3516,1.5133.0686.5967-.2376,1.3093-1.0382,1.1005-1.2437-.3245-1.5271-1.3903-1.3134-2.6137Z"/>
    <path class="cls-1" d="M179.6948,96.4375c-.6241-.5411-1.2081-1.1392-1.8807-1.6111-1.3287-.9321-2.4557-.6287-2.9714.9122-.3689,1.1024-.5423,2.2986-.616,3.4648-.1115,1.764-.0193,3.5401-.0945,5.3076-.0413.9721-.2478,1.9372-.4678,3.5504-.7643-.9682-1.2017-1.4076-1.5038-1.9259-1.0177-1.7462-1.9808-3.5241-2.9773-5.2828-.8404-1.4834-1.9311-2.2947-3.8288-2.3178-3.0093-.0367-4.2916-1.967-3.5123-4.7463.4696-1.6749,1.8171-2.3983,3.2909-1.4761,1.1838.7407,2.2504,1.7848,3.1156,2.8923,1.3836,1.7708,2.5571,3.7058,4.0659,5.9357.1956-.902.3773-1.4115.4045-1.929.0707-1.3455.0474-2.6959.1145-4.0417.0334-.669.1228-1.348.2912-1.9953.5342-2.054,1.8663-3.4301,3.2433-3.4255,1.5252.0051,3.6376,1.987,3.9115,3.803.1314.8712.0227,1.7786.0227,2.6696-.2026.0719-.4052.1439-.6078.2158Z"/>
    <path class="cls-1" d="M268.5574,49.539c-.3476.8062-.7294,1.5997-1.036,2.4212-.7641,2.0473-1.6667,4.0663-2.1685,6.1788-.273,1.1489-.0863,2.5551.3285,3.6853.6497,1.7703,2.4243,1.8461,3.48.2973.4141-.6075.7779-1.2493,1.4119-2.2759.4113.833.8555,1.304.822,1.7381-.1535,1.9892-.9015,3.7774-2.3412,5.1867-1.1676,1.143-2.329,1.1583-3.6093.0874-1.4845-1.2418-2.309-2.8295-2.4953-4.7985-.3991-4.2185,1.3446-7.7293,3.5367-11.0991.4198-.6452.998-1.1873,1.503-1.777.1894.1186.3787.2372.5681.3558Z"/>
  </g>
</svg>