<?xml version="1.0" encoding="UTF-8"?>
<svg id="NoSleeping" xmlns="http://www.w3.org/2000/svg" viewBox="0 0 188.5119 200.2842">
  <defs>
    <style>
      

      @import url('../../CSS/SvgStyling.css');


    </style>
  </defs>
  
  <g class="content">

    <rect id="bg" class="bg" width="188.5119" height="200.2842"/>

    <path class="redcircle" d="M19.8899,113.2138c0,10.09,1.967,19.8833,5.849,29.1043,3.7467,8.9035,9.1065,16.9016,15.9337,23.7653,6.8325,6.8637,14.7837,12.2547,23.6352,16.0222,9.1741,3.9028,18.9102,5.8802,28.9482,5.8802s19.774-1.9774,28.9482-5.8802c8.8515-3.7623,16.8079-9.1585,23.63-16.0222,6.8325-6.8689,12.1923-14.8618,15.9389-23.7653,3.882-9.2209,5.849-19.0091,5.849-29.1043,0-10.09-1.967-19.8833-5.849-29.1043-3.7467-8.9035-9.1065-16.9016-15.9389-23.7653-6.8272-6.8637-14.7785-12.2547-23.63-16.0222-9.1741-3.9028-18.9102-5.8802-28.9482-5.8802s-19.774,1.9774-28.9482,5.8802c-8.8515,3.7623-16.8079,9.1585-23.6352,16.0222-6.8272,6.8689-12.1871,14.8618-15.9337,23.7653-3.882,9.2209-5.849,19.0143-5.849,29.1043ZM53.9325,169.0338l85.1273-108.0651c14.5912,12.6658,23.8381,31.3887,23.8381,52.2451,0,38.0546-30.7955,69.0166-68.6419,69.0166-15.0543,0-28.995-4.8967-40.3234-13.1966ZM25.614,113.2138c0-38.0546,30.7955-69.0166,68.6419-69.0166,15.0543,0,28.995,4.8967,40.3182,13.1966l-85.1273,108.0651c-14.586-12.6658-23.8329-31.3887-23.8329-52.2451Z"/>
    <path class="cls-1" d="M30.6668,132.6132c-.9054-3.7987.8898-7.6963,4.3555-9.4603l41.3121-21.1218c2.0815,4.0277,5.4014,7.2956,9.4551,9.3042l-17.8122,9.1065,34.6826-7.025.51-.0989.0833.4111,2.0503,10.2253h-33.8552v8.6381l-32.0131,6.4838h-.6244c-3.8924,0-7.2383-2.6591-8.1438-6.463ZM104.3095,111.4393l28.5006,15.0387h-58.859v12.5981h75.7502c3.8924,0,7.2383-2.6591,8.1386-6.463.9002-3.7831-.8638-7.6494-4.3035-9.4343l-39.673-20.9293c-2.1231,3.9964-5.4795,7.2279-9.554,9.1897ZM95.1562,111.0074c10.3137,0,18.7021-8.4352,18.7021-18.801s-8.3884-18.801-18.7021-18.801c-10.3085,0-18.6969,8.4352-18.6969,18.801s8.3884,18.801,18.6969,18.801ZM31.2912,144.8158v8.201h125.9294v-8.201H31.2912Z"/>
    <path class="cls-1" d="M123.8286,67.8271l.8638,2.5654-11.8488,4.0277-.6869-2.0398,4.4023-11.547-7.2748,2.477-.869-2.5706,11.4065-3.8768.6869,2.0398-4.3867,11.5366,7.7067-2.6123ZM124.8693,41.6994l4.3815-19.0091-1.5143-3.0494-17.0213,8.5497,1.9046,3.8351,10.8653-5.4587-4.4127,19.0299,1.5143,3.0494,17.6874-8.8827-1.9046-3.8351-11.5002,5.7709ZM168.6168,17.1327l-17.7758-4.8342-1.0772,4.0068,11.3493,3.091-15.3717,10.8965-.8534,3.1899,18.4731,5.0216,1.0772-4.0068-12.0153-3.2679,15.3405-10.9069.8534-3.1899Z"/>
  </g>
</svg>