<?xml version="1.0" encoding="UTF-8"?>
<svg id="Nuh" xmlns="http://www.w3.org/2000/svg" viewBox="0 0 303.0502 303.4317">
  <defs>
    <style>
      

      @import url('../../CSS/SvgStyling.css');

      
    </style>
  </defs>
  
  <g class="content">

    <rect id="bg" class="bg" x="0" width="303.0502" height="303.4317"/>


    <path class="cls-1" d="M164.3277,229.2444c-.3285.4234-.6754.8338-.9826,1.2721-6.451,9.204-14.4766,16.8615-23.3111,23.7182-6.6352,5.1498-13.6839,9.6372-21.3083,13.1953-10.3149,4.8138-21.1225,7.5911-32.5327,7.7286-9.0745.1095-17.733-1.631-25.682-6.2427-4.7235-2.7403-8.7447-6.286-12.2493-10.4573-4.4453-5.291-7.7793-11.2135-10.0499-17.7227-1.6551-4.7447-2.7328-9.6345-3.2335-14.6422-.5433-5.4335-.7154-10.8815-.595-16.3391.4483-20.3105,4.8707-39.6137,14.5947-57.572.3407-.6292.6629-1.2685.9835-1.9082.0456-.091.0332-.2112.0684-.4705-.59-.4413-1.2507-.9182-1.8918-1.4201-.596-.4666-1.1711-.9598-1.762-1.4468.4123-.8853,1.1601-.8285,1.7562-.8698.8711-.0604,1.7682-.0153,2.63.1293,1.0395.1745,1.6629-.0717,2.309-1.0134,2.3975-3.4943,4.8375-6.9689,7.4515-10.3018,1.9331-2.4646,4.1607-4.6981,6.258-7.0338.359-.3998.7224-.7955,1.2069-1.3286-.787-.6049-1.434-1.1923-2.1633-1.6482-5.3233-3.3275-10.6532-6.6447-16.0019-9.9311-2.6746-1.6434-5.4092-3.1887-8.0873-4.8266-2.9328-1.7937-5.5632-3.9615-7.7493-6.6306-3.4301-4.1879-4.3827-8.9166-2.935-14.1128.9251-3.3205,2.3516-6.4143,4.5759-9.0801,2.5959-3.1112,6.0563-4.8707,9.8155-6.139,3.9986-1.3491,8.1451-1.8841,12.3239-2.2154,17.5958-1.3953,35.2128-1.4494,52.839-.7813,9.0817.3442,18.1654.6594,27.2411,1.1258,5.7729.2967,11.5338.8342,17.2974,1.297.9136.0734,1.8131.3231,2.9039.5256-.1795.9225-.2286,1.6913-.4806,2.3865-1.6331,4.5047-3.3201,8.9899-4.9643,13.4907-.2888.7905-.8474,1.2616-1.542,1.6346-3.3965,1.8241-6.7666,3.6999-10.1957,5.4604-9.8976,5.0816-19.9114,9.9449-29.7052,15.218-9.7938,5.2731-19.3772,10.9373-29.0512,16.4328-.331.188-.6449.4061-1.0568.6672.2502.9165.525,1.7975.7249,2.6952.1548.6952.29,1.4102.3004,2.1183.0132.8972-.4097,1.2617-1.2601,1.0093-.8317-.2469-1.6235-.6653-2.389-1.0877-.7161-.3952-1.3748-.8945-2.1459-1.4057-5.6625,4.5472-10.5251,9.857-15.8075,15.0602.5517.19.8763.3504,1.2188.4125,7.1051,1.288,14.2701,2.1102,21.4609,2.7217,12.5717,1.069,25.1742,1.5768,37.776,2.1244,8.0909.3516,16.1623,1.0273,24.1252,2.5999,2.1573.426,4.2991.9682,6.4091,1.5893,7.1663,2.1097,12.9577,6.2263,17.3827,12.2306,3.2326,4.3863,5.1044,9.3634,5.9924,14.708,1.7179,10.3391.5155,20.3746-2.8908,30.2653-1.1728,3.4055-1.7266,7.0556-2.2725,10.6382-.7074,4.6421-.8263,9.3433-.0584,13.9969,1.3893,8.4197,5.1855,15.3951,12.553,20.0873,3.4664,2.2078,7.3356,3.2017,11.3957,3.5695,6.2132.5628,12.1685-.6025,17.9915-2.652,8.804-3.0987,16.7722-7.7806,24.3749-13.0989,7.4531-5.2136,14.6395-10.779,21.2384-17.0636,2.3168-2.2065,4.5429-4.502,6.2081-7.2658,1.9645-3.2606,1.6377-7.4503-.8942-10.6085-.6055.2194-1.2668.4509-1.9223.6977-6.3066,2.3739-12.806,3.6436-19.5647,3.3609-3.0428-.1273-6.0172-.6021-8.8254-1.8878-4.2657-1.953-6.486-5.3037-6.8384-9.9267-.4434-5.816,1.217-11.1143,4.123-16.0668,2.0443-3.4839,4.3294-6.7926,7.6739-9.1948,4.8476-3.4818,9.9522-4.0677,15.1564-.9514,6.0256,3.6081,10.9275,8.337,13.8486,14.875.2435.5449.5244,1.073.8556,1.7463.7334-.2124,1.4153-.3837,2.0799-.6067,4.7056-1.5782,9.2972-3.4373,13.6984-5.7364,1.0656-.5567,2.0902-1.2402,3.0138-2.0094,1.4885-1.2396,1.7148-1.9864.9031-3.7602-1.3732-3.001-2.8156-5.9779-4.3893-8.8778-3.5492-6.54-7.0297-13.1055-9.4719-20.1628-.288-.8324-.4994-1.6963-.8491-2.5009-.388-.8929-.8206-1.7846-1.3671-2.5857-.6866-1.0065-1.1131-2.0245-.7995-3.2473,1.025-3.9981,2.042-7.9984,3.098-11.9883.1624-.6136.5142-1.177.8742-1.9766.6941.4269,1.3034.6758,1.7513,1.0967,4.1417,3.8916,8.0181,8.0275,11.3757,12.6266.3553.4867.667,1.0189.9138,1.5683.5677,1.2642.2216,1.9361-1.1489,2.0178-1.034.0617-2.0826-.1039-3.1235-.1849-.5762-.0449-1.1497-.124-2.0111-.2194.6491,1.234,1.1579,2.1947,1.6607,3.1585,3.1618,6.0597,6.2886,12.1535,8.2133,18.735,2.6792,9.1614,1.4077,17.893-3.5829,26.0131-2.1782,3.5442-5.4368,6.0597-8.9214,8.2183-2.334,1.4459-4.7867,2.7151-7.2554,3.9217-1.036.5063-1.4758,1.082-1.4835,2.2407-.0272,4.0835-.4594,8.1329-1.1826,12.1552-1.1397,6.3387-3.9846,11.8128-8.004,16.8117-6.9595,8.6554-15.1325,15.9802-24.0105,22.577-5.9778,4.4418-12.1351,8.6-18.8254,11.9063-6.9143,3.417-14.0789,6.0295-21.8934,6.3044-4.7199.1661-9.3437-.4315-13.7852-2.1304-5.9523-2.2768-10.3596-6.3467-13.627-11.7453-3.1772-5.2496-4.6719-11.0086-5.2338-17.0623-.5743-6.1867-.2011-12.3246.8579-18.4335.0834-.4809.1032-.9727.1526-1.4595-.0971-.0361-.1942-.0722-.2912-.1082ZM55.8854,153.7338c-.4319.5689-.7514.9438-1.0208,1.3517-2.9515,4.4687-5.511,9.1546-7.6085,14.0809-4.5673,10.727-6.8589,21.9299-6.9151,33.5919-.0229,4.7474.2244,9.4685,1.264,14.118,2.275,10.1748,6.955,19.1076,14.0348,26.7418,7.4657,8.0502,16.814,12.2397,27.6975,13.0635,4.8472.3668,9.6814.0669,14.4996-.5744,11.5652-1.5393,22.3537-5.3542,32.3929-11.2365,11.4632-6.7167,21.3876-15.2958,29.9841-25.4123,2.9332-3.4518,5.5265-7.1453,7.449-11.272,2.0493-4.3987,3.1635-8.994,2.0029-13.8006-2.256-9.343-8.0494-15.7586-16.883-19.3605-4.3092-1.757-8.9394-2.3557-13.5311-2.908-9.6889-1.1653-19.4256-1.6105-29.1806-1.6509-5.5128-.0228-11.0071-.2666-16.4785-.9949-7.3687-.9808-14.4399-2.9795-21.1897-6.0904-5.2157-2.4038-10.0904-5.408-14.8718-8.5703-.498-.3294-.9991-.6541-1.6456-1.077ZM76.6329,119.3055c.5403-.3943,1.0304-.7295,1.4963-1.0955,6.6787-5.2473,13.7507-9.9109,21.0722-14.2028,8.4573-4.9577,17.1263-9.5174,25.9487-13.7881.5166-.25,1.0119-.5438,1.8404-.9922-.9529-.1616-1.4862-.2993-2.0265-.3366-6.4781-.4466-12.9512-1.0787-19.4373-1.2755-17.7306-.5381-35.4449-.1045-53.111,1.5956-2.7838.2679-5.5392.8669-8.2923,1.394-.8282.1586-1.7435.3648-2.265,1.4537.3785.3377.7363.7412,1.1715,1.027.8267.5429,1.6867,1.038,2.5521,1.5184,2.7903,1.5488,5.6232,3.024,8.3785,4.6323,7.3781,4.3067,13.9859,9.5599,19.4807,16.1464,1.051,1.2598,2.0716,2.5449,3.1917,3.9233ZM252.9347,198.8743c-1.7125-2.1264-3.4655-3.7668-5.5921-4.9331-1.1869-.651-2.4851-1.159-3.7917-1.5189-2.7361-.7536-4.9599.3129-6.7766,2.3089-1.3015,1.4298-1.0007,3.0993.7366,3.9305.9199.4401,1.9653.7096,2.9816.8394,3.2286.4124,6.4614.2235,9.682-.1715.8405-.1031,1.6727-.2737,2.7601-.4553Z"/>
    <path class="cls-1" d="M240.273,35.0398c.7842.8592,1.3484,1.5188,1.9562,2.1353,1.6628,1.6867,3.3532,3.3461,5.0158,5.0329,3.4362,3.4862,5.5594,7.6332,6.1734,12.5082.6152,4.8847-.7748,9.2815-3.4931,13.2726-1.5451,2.2685-3.9978,3.012-6.5832,3.3024-1.5851.178-3.1887.1837-4.7789.3244-2.4293.2149-2.7007.838-1.2851,2.845.2536.3596.547.6909.8099,1.0443,2.0108,2.7027,4.6505,3.45,8.2261,2.0457,1.9235-.7554,3.5242-2.0187,5.0907-3.3342.5199-.4366,1.1156-.7831,1.7046-1.19.6313.7396.3728,1.3145.161,1.8591-.6128,1.5754-1.5709,2.9226-2.9379,3.9129-2.7944,2.0244-5.8836,3.4778-9.2372,4.2665-3.6434.857-6.5556-.6411-9.072-3.1512-.1933-.1928-.3356-.4361-.5087-.6502-.1334-.1649-.278-.3209-.6118-.7033-.1723.7492-.3365,1.2964-.4198,1.8556-.31,2.0805-2.3237,3.9596-4.481,4.1501-2.1002.1855-3.8256-1.0715-4.5373-3.3127-.1308-.412-.2387-.8313-.4192-1.4648-.8072.3949-1.5523.6921-2.2294,1.1017-3.7978,2.2973-7.8325,4.0332-12.145,5.0757-2.8087.6789-5.651.8702-8.5098.2093-2.3913-.5528-4.3846-1.7301-5.9517-3.6272-.5611-.6792-1.1194-1.364-1.726-2.0016-.7656-.8048-1.0796-.8526-1.9967-.2433-1.6517,1.0973-2.8719,2.5543-3.5059,4.4626-.5034,1.5155-.9601,3.0494-1.5388,4.5357-.2502.6426-.6598,1.2918-1.1668,1.75-.7967.72-2.2046.6922-3.0211-.1752-.7687-.8166-1.4476-1.8217-1.8442-2.8662-1.3764-3.6241-1.7336-7.3765-1.0015-11.2089.0817-.4276.1243-.8627.1905-1.3332-.342-.1792-.6515-.3413-1.2098-.6339.9148-.4868,1.6058-.9001,2.3332-1.2337,3.4372-1.5765,6.5589-3.6059,9.196-6.3388.4559-.4724.8785-.977,1.4407-1.6055-1.3095-1.9175-2.4634-3.9279-3.9291-5.6768-2.0837-2.4862-4.3923-4.7841-6.6129-7.155-1.8066-1.9289-3.7052-3.7788-5.4087-5.7943-1.0542-1.2472-1.819-2.7389-2.7154-4.1199-.1772-.273-.3259-.5759-.5486-.8061-1.4984-1.5485-1.7175-2.8293-.7261-5.0139.3709.1493.7822.2493,1.1224.4628,1.6649,1.0443,5.4806,4.4368,6.1351,5.5331-.8027-.042-1.4502-.0758-2.3539-.1231.465.5805.7967,1.0542,1.1875,1.4727,2.4059,2.5764,4.841,5.1256,7.2336,7.7142,1.345,1.4552,2.6785,2.927,3.9253,4.4659,1.864,2.3006,3.4655,4.7389,2.9952,8.1462,1.1275-.6309,1.3568-1.5413,1.4112-2.4037.065-1.0312-.0125-2.0974-.206-3.1146-1.2969-6.8154-2.6538-13.6193-3.9539-20.434-.1629-.8541-.1908-1.7565-.1222-2.624.0427-.5394.3847-1.0552.6098-1.6256,1.1153.4834,1.1548,1.3925,1.3497,2.1487.9208,3.5725,1.8059,7.1544,2.6727,10.7404.9055,3.7464,1.6935,7.5232,2.6824,11.2469,1.1776,4.4344,4.0162,7.3967,8.4296,8.7334,1.3089.3965,2.674.6588,4.0325.8314,5.0451.6409,10.0014-.1048,14.9141-1.1625,2.4058-.518,4.7695-1.231,7.3061-1.8961-.4471-2.2668-.8404-4.3072-1.253-6.3437-1.1587-5.7193-2.2905-11.4444-3.5084-17.1511-.4008-1.8781.2855-3.41,1.0308-5.0789.8838.3314.9384,1.0592,1.0854,1.6367.801,3.147,1.6523,6.2869,2.2903,9.4685.9848,4.9116,1.8084,9.8555,2.7089,14.7841.0862.4717.2325.9324.3804,1.5146,3.9675-1.3048,7.5852-2.9872,10.8729-5.3585.8106-.5847,1.0791-1.3628.8914-2.3082-.5031-2.5355-.9803-5.0773-1.5481-7.5984-.6407-2.8452-1.3786-5.6683-2.056-8.5054-.4601-1.9269.1914-3.5251,1.5889-5.222ZM177.7278,75.0309c-.8861,3.5092-.6941,6.8608.4954,10.1509.2189.6054.6117,1.1822,1.0403,1.6702.9229,1.0509,2.0618,1.0516,2.9842.0009.3891-.4432.6825-1.0021.9032-1.5548.4283-1.0728.7767-2.1778,1.1541-3.2708.6213-1.7995,1.5418-3.4245,2.9615-4.7056,2.2871-2.0638,3.7468-1.5071,4.9599.3207.091.1372.2022.2614.3079.3883,2.3491,2.822,5.3475,4.3367,9.0236,4.5125,2.4498.1171,4.8296-.2543,7.1664-.959,3.3932-1.0234,6.5664-2.541,9.6401-4.2859,1.0054-.5708,2.0158-1.1378,3.055-1.6426.8444-.4101,1.2102-.1988,1.3873.7202.1038.5386.0997,1.1004.2279,1.6315.4545,1.8832,1.6938,2.6358,3.7322,2.3089,2.1496-.3448,3.1981-1.4797,2.9736-3.3839-.2385-2.0223-.5836-4.0322-.8958-6.0454-.0982-.6332-.2405-1.2596-.3835-1.9969-.5665.1367-.989.2074-1.3909.3403-4.2478,1.4047-8.5779,2.4434-13.0346,2.8966-4.1267.4197-8.2436.5072-12.318-.4899-4.3523-1.0651-7.5137-3.5414-9.2507-7.7345-.1487-.3588-.3667-.6889-.6611-1.233-1.2142,3.3852-2.5356,6.3982-5.0283,8.7263-2.5392,2.3716-5.7527,3.0964-9.0496,3.6351ZM234.2725,77.3416c.1108-.0285.2217-.057.3326-.0855-.0502-.202-.0751-.4145-.1544-.6043-.953-2.2814-.5127-4.4294.6577-6.4828,1.1335-1.9888,2.7222-3.1115,5.1582-2.6749,1.9385.3475,3.841.0532,5.6778-.621,2.0424-.7496,3.6168-2.03,4.5774-4.0378,2.0088-4.199,1.508-8.235-.8111-12.1129-1.8823-3.1476-4.5238-5.6655-7.1119-8.2158-.2384-.2349-.5339-.4118-1.0126-.7747.1302.7099.1999,1.1359.2873,1.5582.7131,3.447,1.5268,6.8767,2.1197,10.3441.709,4.146-.6789,7.5361-4.3184,9.744-2.2491,1.3644-4.6672,2.4505-7.0134,3.6538-.5211.2673-1.0589.5019-1.6238.7679.7249,3.4213,1.2995,6.7182,3.235,9.5417Z"/>
    <path class="cls-1" d="M207.7241,137.7347c-1.0586-.2228-2.1099-.5857-3.1774-.6418-3.0744-.1616-6.159-.3335-9.2328-.2504-3.5179.0951-7.0319.4201-10.5406.7266-1.4749.1289-2.9312.4691-4.3968.7077-.575.0936-1.1524.1723-2.0545.3062.1827-.7232.2233-1.1942.4145-1.593,2.146-4.4763,4.6409-8.7533,7.373-12.8965.4695-.7121,1.1165-1.0078,1.8749-1.2211,3.8413-1.0804,7.7683-1.5719,11.7453-1.621,5.1899-.0642,10.3377.463,15.4364,1.4,4.0546.7451,5.5455,3.1873,4.4801,7.2071-.831,3.1354-2.5346,5.8481-4.2916,8.5192-.8463,1.2865-1.8147,2.492-2.7065,3.7493-2.5979,3.6627-6.07,6.1561-10.2137,7.8132-5.4912,2.1959-11.1894,3.6504-16.9534,4.886-.2667.0572-.5808.1457-.812.0584-.376-.1421-.8959-.3538-.9945-.6544-.1007-.307.1485-.8283.3995-1.1244.2713-.3199.7208-.4894,1.0944-.7217,7.1069-4.4187,14.215-8.8355,21.3192-13.2586.4516-.2812.8736-.6098,1.3094-.9164-.0243-.1581-.0487-.3162-.073-.4742Z"/>
    <path class="cls-1" d="M131.1511,42.7857c.3169-2.2811.558-4.5758.9657-6.8405.9652-5.3614,1.9459-10.7216,3.0498-16.0555.5139-2.4831,1.4512-4.8504,2.9226-6.9644,1.7067-2.4519,3.5359-3.1386,6.4211-2.4036,2.9989.764,5.0964,2.7645,6.8682,5.1389.3903.523.6075,1.3761.5151,2.0215-.2872,2.0073-.7531,3.9897-1.1733,5.9767-.0547.2585-.2226.5054-.3803.7277-.584.8237-1.0196.8607-1.6874.0934-.7949-.9135-1.5021-1.9071-2.3349-2.7826-.56-.5887-1.2139-1.1431-1.9277-1.5192-1.597-.8415-3.0088-.566-4.1136.87-.6949.9032-1.2625,1.9438-1.6964,3.0012-1.2626,3.0769-1.8416,6.3383-2.316,9.6091-.8139,5.6116-1.5317,11.2373-2.3681,16.8454-.226,1.5153-.6493,3.017-1.1374,4.4728-.4359,1.3001-1.319,1.5016-2.2005.4679-.7719-.9051-1.4347-1.9698-1.8816-3.0712-.8058-1.986-1.4384-4.0442-2.1003-6.0863-1.4615-4.5089-3.5617-8.6513-6.8617-12.1131-.5262-.552-1.1029-1.0558-1.7708-1.6908-1.0296,1.7223-2.3987,1.3615-3.7193.6746-1.999-1.0397-3.9812-2.121-5.9068-3.2898-1.9298-1.1714-2.9578-2.9119-2.8197-5.2392.0814-1.3713.0016-2.7748.2707-4.108.6637-3.2879,2.4254-3.7681,4.6235-3.5418,2.3571.2427,4.2711,1.3747,6.0477,2.8054,2.7388,2.2054,4.7755,5.0197,6.6717,7.934,2.166,3.3289,4.0563,6.8055,5.5117,10.5157.6176,1.5745,1.4025,3.0833,2.1113,4.6219.1389-.0234.2778-.0468.4167-.0703Z"/>
    <path class="cls-1" d="M146.6947,124.1147c-.7456,1.0697-1.5998.9215-2.4444.4515-1.4273-.7941-2.8601-1.5857-4.233-2.4681-.953-.6126-1.4201-1.5624-1.3425-2.734.0701-1.0581.0126-2.1412.2242-3.1694.3357-1.6306,1.2135-2.1299,2.8552-1.9374,2.1294.2497,3.7216,1.4487,5.1109,2.9321,2.7704,2.9579,4.873,6.359,6.4684,10.0811.5924,1.3822,1.2215,2.7486,1.8339,4.1222.0934-.0086.1867-.0172.2801-.0258.0797-.2797.186-.5549.235-.8399.7215-4.1965,1.3758-8.4057,2.181-12.5859.3151-1.6358.9527-3.2111,1.4716-4.8048.1252-.3845.3433-.7438.5513-1.0953,1.3887-2.3462,3.15-2.8943,5.6096-1.7295,1.3632.6456,2.4643,1.6311,3.3072,2.8642.2805.4104.491,1.0126.4277,1.4862-.1672,1.2516-.4733,2.4881-.7879,3.7142-.0909.3541-.398.6527-.711,1.1402-.5094-.6195-.8623-1.112-1.28-1.5416-.6233-.6412-1.224-1.3402-1.9576-1.8298-1.0838-.7233-2.1474-.5427-2.9485.478-.5211.664-.9355,1.4473-1.2425,2.2375-1.0166,2.6162-1.3822,5.3842-1.7733,8.1435-.4768,3.3644-.9524,6.7292-1.473,10.087-.118.7611-.3661,1.5148-.652,2.233-.2464.619-.6932.7089-1.1378.2153-.4305-.4779-.8223-1.0386-1.0617-1.6315-.5666-1.4031-1.063-2.837-1.5329-4.2764-.8861-2.7142-2.1096-5.2449-3.9685-7.4306-.6024-.7082-1.2899-1.3439-2.0096-2.0861Z"/>
    <path class="cls-1" d="M195.7318,194.3339c.8782-.8131,1.7106-1.6833,2.6424-2.4294,4.2544-3.4064,8.542-6.7714,12.8077-10.1637,7.1626-5.696,14.0668-11.684,20.1957-18.5,2.0186-2.2449,3.7744-4.7265,5.638-7.1097.2316-.2962.3864-.6525.6521-1.1109-.5756-.2249-1.0917-.3816-1.5669-.6202-1.7632-.8854-3.6388-1.6177-5.24-2.7393-2.9239-2.048-3.8053-4.8407-2.8338-8.2778.9112-3.2239,2.4374-6.1519,4.8047-8.5454.7888-.7975,1.8196-1.4449,2.8564-1.8872,1.6419-.7004,3.082-.306,4.0604,1.1944.7976,1.2232,1.4451,2.6112,1.8414,4.0158.8864,3.1423,1.3061,6.3602.7869,9.6375-.0504.3183-.0067.6516-.0067,1.1356.4436.1157.8955.2526,1.3558.3502,1.5063.3193,3.0175.6152,4.5229.9383.7974.1711,1.1048.6649.8575,1.4618-.3913,1.2608-.7929,2.5185-1.1804,3.7805-.2316.7544-.7171,1.0356-1.4995.9322-1.5808-.209-3.1674-.3744-4.7501-.5704-.5404-.0669-1.0762-.1714-1.6606-.2663-.2411.3647-.4859.6578-.6477.9912-2.4066,4.96-5.7973,9.2126-9.5212,13.2185-5.1878,5.5806-10.8553,10.6523-16.9642,15.1826-4.9115,3.6424-10.2974,6.5658-15.7481,9.3399-.3706.1886-.7951.2715-1.1945.4035-.0694-.1205-.1389-.2411-.2083-.3616ZM239.7984,148.4705c.2183-2.4738.181-4.679-.8318-6.7661-.4683-.965-1.3359-1.4661-2.3863-1.5186-1.2264-.0613-2.4115.2016-3.4498.8876-1.8938,1.2513-2.0038,3.8424-.1427,5.1376,1.9738,1.3736,4.2916,1.791,6.8107,2.2594Z"/>
    <path class="cls-1" d="M35.8079,152.0407c-2.6007-.9585-5.0467-1.5826-6.7322-3.8007-.3333.5856-.5928,1.0446-.8552,1.5018-.7933,1.3822-1.9151,2.3967-3.3774,3.0376-2.8601,1.2536-5.3447.0105-6.0628-3.0108-.5359-2.255-.3403-4.4878.1492-6.7107.9478-4.3039,2.913-8.1743,5.15-11.9221,1.8129-3.0373,3.8262-5.9228,6.504-8.28,1.6412-1.4448,3.4848-2.4911,5.6847-2.8272,2.6519-.4051,4.5238.8971,5.0479,3.5281.4751,2.3853.174,4.7324-.5203,7.0106-.6566,2.1547-1.4646,4.2661-2.2788,6.3683-.3108.8023-.4278,1.528-.2376,2.3912.2833,1.2859.4522,2.6069.5458,3.9217.0891,1.253.0192,2.5173.0192,3.9356.8999.1767,1.7399.3416,2.7538.5406.1902,1.601-.3122,3.0938-.8973,4.5487-.0972.2416-.626.3961-.972.4324-.6469.0678-1.306.0195-2.0202.0195-.1837.3207-.4123.6329-.5543.9806-1.8637,4.5647-4.8156,8.3855-8.1752,11.9164-4.928,5.1793-10.6662,9.3621-16.569,13.3317-.5911.3975-1.3021.6166-2.1452,1.0049-.0109-1.2075.6769-1.643,1.2126-2.1331,3.2502-2.974,6.5636-5.8803,9.7703-8.9002,4.4909-4.2292,8.9398-8.5099,12.5258-13.5757.6928-.9787,1.2622-2.0449,2.0343-3.3094ZM37.4102,136.6942c1.3433-2.5326,2.0612-5.0699,1.6992-7.8407-.4395-3.3645-2.2787-4.4415-5.4604-3.2217-.4599.1763-.9412.3646-1.3238.6618-1.1678.9068-2.4316,1.7444-3.4086,2.8329-3.5058,3.9058-5.8634,8.4981-7.5306,13.4411-.3609,1.0699-.4741,2.265-.4766,3.403-.0027,1.2361.7048,1.8943,1.9003,2.1448,2.0793.4357,4.7459-.9155,5.594-2.8858.4779-1.1104.8113-2.2848,1.3151-3.382.6387-1.3909,1.2436-2.8315,2.115-4.0738,1.5348-2.1881,3.028-2.4431,5.5764-1.0796ZM36.3871,146.8382c.1467-1.7265.0985-3.3401-.6636-4.8662-.7145-1.4308-2.0423-1.7528-3.2354-.6991-.5124.4526-.8739,1.115-1.1906,1.7396-.3023.5962-.1365,1.1953.4066,1.6227,1.3459,1.0592,2.7721,1.9562,4.6829,2.203Z"/>
    <path class="cls-1" d="M265.9728,117.2268c-2.936,5.1198-5.7229,9.9794-8.6302,15.049-5.7935-3.3545-11.4358-6.713-17.0588-10.0199.2889-1.3189,7.112-13.6393,8.4027-15.1803,5.6865,3.3394,11.4004,6.6948,17.2862,10.1512Z"/>
    <path class="cls-1" d="M211.9921,197.5364c.5218,1.2544.095,2.1626-.2342,3.0778-1.322,3.6747-2.767,7.3106-3.9365,11.0332-1.169,3.7209-2.2262,7.4941-3.0209,11.3094-.5338,2.5627-.6165,5.235-.7152,7.8653-.0397,1.0587.2874,2.186.6755,3.1943.804,2.0882,3.0439,2.6514,4.8784,1.3251,1.1131-.8048,1.721-1.9697,2.274-3.1845.2227-.4893.4977-.9964.8773-1.3621.4832-.4656,1.1025-.2494,1.246.4158.1013.4696.1342,1.0078.0087,1.4632-.6266,2.2747-1.1505,4.5983-2.0244,6.7789-1.1016,2.7489-3.3711,4.1368-6.3109,4.3118-1.5619.0929-2.7322-.6546-3.5305-2.0091-1.4028-2.3803-1.9936-4.9924-2.2071-7.7061-.3551-4.5135.3576-8.8994,1.7689-13.1688,1.9511-5.9022,3.982-11.778,5.9742-17.6666.5923-1.7505,1.5157-3.3007,2.8252-4.6012.3945-.3918.899-.6728,1.4514-1.0763Z"/>
    <path class="cls-1" d="M79.7151,19.817c.6743,1.4866.0847,2.4757-.274,3.4879-1.3972,3.9429-2.8836,7.8564-4.1798,11.8321-1.3655,4.1881-2.5737,8.4331-2.9712,12.8488-.1329,1.4769-.1777,2.9703-.1279,4.4516.0272.8075.3045,1.6145.5254,2.406.7298,2.6153,3.7202,2.6608,5.0131,1.2447.7985-.8746,1.3595-1.9736,1.9803-3.0002.3648-.6032.5736-1.5176,1.4618-1.2833.9286.2449.6497,1.1845.5542,1.8435-.365,2.5198-1.0264,4.9728-2.2296,7.2247-1.1128,2.0829-2.9326,3.2204-5.2868,3.5038-1.7858.215-3.1051-.4499-3.9947-2.0114-1.3392-2.3505-1.9078-4.915-2.0841-7.5784-.2578-3.8927.2317-7.7116,1.4332-11.4113,1.9384-5.9687,3.9661-11.9084,5.9569-17.8601.5676-1.6967,1.4315-3.222,2.7003-4.4907.4044-.4044.8991-.7186,1.523-1.2078Z"/>
    <path class="cls-1" d="M273.6379,68.1395c.6663,1.0831.1761,1.8888-.1062,2.6757-.8733,2.4335-1.9028,4.8174-2.6555,7.2864-1.1539,3.7853-2.233,7.6009-3.1326,11.4531-.4327,1.8529-.4556,3.8162-.5174,5.7343-.0274.8515.1991,1.7556.501,2.5646.73,1.9564,2.7037,2.4417,4.2131,1.0015.6548-.6248,1.0835-1.5013,1.5558-2.2985.355-.5993.5392-1.5705,1.42-1.2839.8626.2807.5855,1.2631.4205,1.8961-.4844,1.8578-.9704,3.7348-1.6994,5.5037-.7863,1.9078-2.3923,2.9659-4.439,3.2952-1.7322.2787-2.8628-.2551-3.7105-1.7954-1.1086-2.0143-1.5966-4.2049-1.7398-6.4829-.1956-3.1117.1615-6.1747,1.1092-9.1294,1.7306-5.395,3.5125-10.7756,5.4095-16.1137.4451-1.2524,1.4016-2.3346,2.1927-3.4453.2508-.3522.7284-.5427,1.1786-.8613Z"/>
    <path class="cls-1" d="M164.2242,99.4109c.5475-.5023.9214-.8606,1.3115-1.2002.9955-.8666,2.0211-1.6998,2.9937-2.591,2.8472-2.6089,3.1754-5.7155,1.8437-9.1946-1.7116-4.4715-3.4129-8.9489-4.9946-13.4672-.4821-1.3772-.7331-2.8924-.7772-4.3539-.0851-2.8195.9655-5.1609,3.4963-6.667.1411-.084.2705-.1887.3995-.2912.0398-.0316.0602-.0877.146-.2193-.6686-.8665-.5585-1.8745-.2695-2.8896.256-.899.4732-1.8149.8099-2.6836.4691-1.2104.8869-1.4239,1.9992-.8387,1.3073.6878,2.6209,1.4318,3.7542,2.3668,1.8652,1.5388,1.2823,4.9624-.9545,5.9351-1.4618.6357-2.9884,1.1204-4.4677,1.718-3.2378,1.3079-3.7324,2.2065-2.6405,5.543,1.0776,3.2927,2.4044,6.503,3.5347,9.7796.7338,2.1273,1.4554,4.2781,1.9202,6.4739.5068,2.3943.3155,4.8281-.4858,7.1709-1.0975,3.2088-3.9006,5.2656-7.6192,5.409Z"/>
    <path class="cls-1" d="M155.5334,282.8962c.1073.2339.2351.3822.234.5295-.0219,2.8743-.7307,5.5543-2.4743,7.8695-.8634,1.1466-2.1301,1.701-3.5619,1.8643-1.4747.1681-2.5784-.3726-3.293-1.6786-1.0219-1.8676-1.532-3.8857-1.677-5.9941-.1865-2.7133.0101-5.4128.8378-8.0037,1.7074-5.3439,3.4617-10.6744,5.3196-15.9672.4236-1.2067,1.3119-2.2624,2.06-3.3363.2474-.3553.7258-.5495,1.1771-.8739.5417,1.1807.0007,2.004-.2816,2.8645-1.56,4.7534-3.1869,9.4865-4.6417,14.2719-.8494,2.7939-1.3073,5.6917-1.1086,8.6379.0547.811.1923,1.6515.4834,2.4043.6447,1.6668,2.3846,2.1502,3.7404.9676.7149-.6236,1.1726-1.5584,1.6881-2.3888.3403-.5481.5021-1.2494,1.4976-1.1669Z"/>
    <path class="cls-1" d="M220.3656,42.9241c-.0649.9301-.5466,1.3784-1.2902,1.648-1.4492.5253-2.9246,1.0007-4.3216,1.6437-5.0013,2.3018-9.974,4.6656-14.9583,7.0042-.5975.2803-1.1807.6106-1.8051.8089-.665.2111-1.1496-.1621-1.0161-.84.1084-.5503.4149-1.133.8041-1.5369.4047-.4201.9887-.7004,1.5379-.9431,6.1429-2.7146,12.2925-5.4143,18.4467-8.1033.5004-.2186,1.0386-.3848,1.5761-.4759.7167-.1214,1.051.2135,1.0265.7944Z"/>
    <path class="cls-1" d="M218.8289,55.7292c.8142,1.8771,1.6109,3.3795,2.1151,4.9743.4646,1.4694-.8616,2.8726-2.4115,2.7445-.4839-.04-.9568-.2145-1.5323-.3506-.7162.8083-1.5809,1.418-2.8074,1.3161-.98-.0814-1.717-.5055-2.068-1.393-.6747-1.7059-.4485-3.4025.093-5.165.9083.3049.832.9818.9829,1.5289.1601.5801.2721,1.1814.5047,1.7313.221.5224.7642.7478,1.2327.4842.2902-.1633.5494-.6921.527-1.0377-.0492-.7603-.3347-1.5024-.4304-2.2636-.0766-.609-.0155-1.2354-.0155-1.8541.1481-.0404.2963-.0807.4444-.1211.2314.3775.5012.7372.686,1.1363.346.7473.5987,1.5399.9738,2.2708.3015.5875.7332,1.0981,1.6564.8287-.1328-1.4821-1.2102-2.9259.0491-4.8301Z"/>
    <path class="cls-1" d="M220.9418,93.5757c-1.353-.6879-2.4619-1.2517-3.6958-1.8791-.3641.7398-.6949,1.4172-1.0305,2.0923-.3306.665-.8222.8544-1.4837.4745-.6667-.3829-1.3408-.7556-1.985-1.1739-.5014-.3255-1.1976-.7051-.9467-1.3813.3327-.8965.869-1.7365,1.4422-2.5084.1141-.1536.8183.037,1.1983.1947.8009.3323,1.5673.7478,2.4698,1.1888.6449-.9888,1.2304-1.8866,1.8507-2.8376,1.5604.4067,2.7516,1.2235,4.0266,2.2422-.589,1.1449-1.1553,2.2454-1.8459,3.5878Z"/>
    <path class="cls-1" d="M205.37,38.8308c-.5959-.3211-1.2-.6467-1.7502-.9432-.8967.5769-.8804,1.3822-.9061,2.1356-.0505,1.481-.022,2.9648-.0738,4.4457-.0243.6934-.1591,1.3829-.2413,2.0539-.8446.0975-.91-.5067-1.1523-.8814-.6844-1.0582-1.3126-2.1541-2.0258-3.1919-.4089-.5949-.8915-1.0414-1.7926-.7153-.7814.2828-1.3533-.2426-1.7076-.9397-.4401-.8659-.4501-2.2762.1039-2.638.3393-.2216,1.0285-.312,1.3276-.1122.8058.5384,1.5449,1.2108,2.2001,1.9307.6123.6728,1.0828,1.4746,1.8297,2.5189.1506-1.1734.2252-2.0185.375-2.8499.1648-.9146.3537-1.8301.6171-2.7201.2068-.699.5846-1.3638,1.4363-1.3843.9128-.0221,1.5704.5,1.9484,1.2872.3076.6405.5433,1.3483-.1882,2.0039Z"/>
    <path class="cls-1" d="M212.8844,32.7751c.1667.1686.2998.2386.309.3223.1341,1.2143.7623,2.0459,1.7298,2.8087,1.2241.9652,1.2156,2.374.7866,3.777-.4206,1.3757-1.4305,2.0372-2.7937,2.1969-1.3953.1634-2.3242-.5229-2.6484-1.8932-.0377-.1595-.0547-.3246-.0724-.4881-.2055-1.8906,1.1396-5.3113,2.6891-6.7235ZM213.1653,39.5528c.8682.0138,1.3677-.3061,1.3312-.8527-.0363-.544-1.0465-1.4036-1.659-1.3743-.6891.0329-.9198.5098-.9486,1.1122-.036.7542.374,1.1005,1.2764,1.1149Z"/>
    <path class="cls-1" d="M176.821,34.2379c.3485.1404.6396.1875.8389.3485,3.4662,2.7988,5.6204,6.2746,5.5201,10.8822-.0178.8151-.1313,1.6193-1.1344,2.1958-.1231-.5247-.2962-.9202-.2962-1.3158,0-3.8432-1.5116-6.8936-4.6125-9.1958-1.1542-.8569-1.1789-1.535-.3158-2.9149Z"/>
    <path class="cls-1" d="M232.9886,34.7273c.6178.816.1458,1.3431-.0184,1.8787-.3201,1.0445-.7007,2.0705-1.0172,3.1159-.1092.3607-.1322.7557-.1419,1.1365-.0157.6137.0102,1.2821.6962,1.5232.7148.2512.9-.3991,1.1823-.8584.1029-.1674.2957-.2796.5074-.4713.9014.8573.57,1.737.2186,2.5669-.3149.7437-.879,1.2624-1.7472,1.294-.6929.0252-1.203-.375-1.3894-.9667-.3575-1.1353-.7796-2.3059-.8163-3.4731-.0504-1.5991.52-3.1321,1.3327-4.5201.2713-.4633.7647-.7964,1.1931-1.2257Z"/>
    <path class="cls-1" d="M205.1867,59.471c.762,1.5203.325,3.1931-.7882,3.7431-.7227.357-1.5646.1648-1.9282-.698-.439-1.0416-.7803-2.1743-.8885-3.2942-.1744-1.8062.5072-3.4581,1.4283-4.9854.224-.3714.6413-.6261.9697-.9345.1261.0769.2522.1539.3783.2308-.1531.5448-.3236,1.0855-.4558,1.6353-.3191,1.3273-.6437,2.6542-.9131,3.9919-.0727.361-.0184.7787.0874,1.1381.2141.7279.8405.8444,1.3587.2656.2442-.2727.4211-.6058.7514-1.0928Z"/>
    <path class="cls-1" d="M229.5984,54.795c-.3211-.9408-.0547-1.7657.6297-2.2396,2.2021-1.5249,4.6166-2.6593,7.1434-3.66.552.8694.3087,1.5635-.3234,1.9481-2.2867,1.3912-4.6274,2.6934-6.9534,4.0194-.0727.0414-.2064-.0243-.4964-.0678Z"/>
    <path class="cls-1" d="M234.547,94.139c-.1193-.4241-.2529-.7106-.2741-1.0051-.1515-2.1084-1.1814-3.7187-2.78-5.0223-.381-.3107-.7769-.6145-1.1043-.9772-.523-.5796-.432-1.2497-.0017-1.8077.4634-.601.9976-.2205,1.4388.0978,2.3112,1.6673,3.7366,3.8253,3.6144,6.785-.028.6787-.0881,1.3941-.8931,1.9297Z"/>
    <path class="cls-1" d="M193.0013,87.2355c.3277,1.1802.0278,1.8613-.6052,2.2228-2.2675,1.2949-4.5841,2.5037-6.9345,3.7734-.5676-.9301-.4124-1.674.1837-2.0844,2.2497-1.5491,4.7387-2.6516,7.356-3.9118Z"/>
    <path class="cls-1" d="M173.2934,65.1598c0,.4533.0719.8079-.0156,1.1176-.1626.576-.4706,1.1119-.6218,1.6898-.2021.7723-.197,1.5255.7646,1.9816.3081-.3506.6111-.6955.9376-1.067.709,1.2695.2613,3.0761-.8766,3.5176-.3335.1294-.9047.0466-1.1815-.1729-.4069-.3226-.7357-.8178-.9425-1.3053-.7256-1.7109.1603-4.4365,1.9357-5.7613Z"/>
    <path class="cls-1" d="M96.4295,195.2805c-1.8893,0-3.479-.1078-5.049.0227-3.1393.261-6.2044.9133-9.1169,2.171-1.5869.6853-3.0451,1.5447-4.1221,2.9427-.1005.1305-.1964.3122-.3325.3589-.4369.1497-.9297.4158-1.3305.3252-.6004-.1357-.8195-.745-.6934-1.3301.7835-3.6341,1.7887-7.1713,4.5049-9.9352,1.1691-1.1895,2.6947-1.6964,4.2036-2.1975,3.5154-1.1674,7.1355-1.8861,10.8261-2.1571,1.3045-.0958,2.644.0217,3.9449.204,1.9263.2701,2.799,1.2138,3.0562,3.1361.4246,3.1723-.378,6.1346-1.7021,8.9681-1.9358,4.1425-4.8614,7.5763-7.8754,10.9618-1.8253,2.0502-3.5028,4.2425-5.1191,6.4639-.6995.9613-1.1932,2.1177-1.5778,3.2542-.9404,2.7792-.2043,4.4203,2.4775,5.5812,2.8802,1.2467,5.8842,1.8242,9.0273,1.2959,6.4128-1.0777,12.5329-2.9968,18.0334-6.5567,1.8439-1.1934,3.5353-2.6206,5.3235-3.903.6164-.4421,1.2795-.8703,1.9867-1.1194.6412-.2259,1.1136.2457.9439.9135-.1875.7376-.4601,1.4847-.85,2.1352-5.451,9.0951-13.3028,14.8131-23.7742,16.8097-3.2066.6114-6.4257.9917-9.678.3509-4.4099-.869-6.8172-3.375-7.5798-7.8184-.9953-5.7987.3222-11.1648,3.0706-16.238.7296-1.3468,1.6249-2.6245,2.5836-3.8221,2.4787-3.0963,5.0373-6.1286,7.5589-9.1905.379-.4602.7311-.9425,1.2595-1.6266Z"/>
    <path class="cls-1" d="M201.8425,77.9336c.1229-1.2473.1508-2.1197.3056-2.9689.2574-1.4116.9973-2.1724,1.9207-2.1043,1.0123.0745,2.0148,1.234,2.058,2.4522.0125.3513-.1421.7086-.2498,1.1981-.4001-.2571-.6703-.4179-.9271-.5978-1.0952-.7671-1.5161-.6276-1.7026.7285-.1491,1.0843-.1067,2.1942-.1682,3.2916-.0352.6282-.1083,1.2544-.1967,2.2441-.5219-.5202-.8183-.7276-.9961-1.0098-.4986-.7912-.948-1.6134-1.4172-2.4232-.4375-.7552-.9797-1.1679-1.9633-1.209-1.5558-.0649-2.1875-1.054-1.8228-2.4649.256-.9902.9642-1.3444,1.8681-.8307.5128.2915.9511.7359,1.3711,1.1625.345.3505.6164.7742.915,1.1695.2618.3465.5162.6986,1.0051,1.362Z"/>
    <path class="cls-1" d="M249.0614,52.3164c-.1881.5426-.3791,1.0841-.5637,1.6279-.2997.8828-.6651,1.7516-.8652,2.6567-.113.5107-.05,1.1135.1097,1.6192.2562.8115.9182.8646,1.4421.1844.2299-.2984.4571-.5989.6936-.892.0251-.0311.1041-.0187.3401-.0528.1183.2586.3678.5637.3723.8724.0062.4234-.1308.8654-.2813,1.2716-.4826,1.3028-1.1842,1.9609-2.0344,1.8425-1.1234-.1564-1.6658-1.0243-2.0179-1.9645-.206-.5501-.2638-1.1887-.2464-1.7833.0594-2.0261,1.3619-4.5975,3.0511-5.382Z"/>
  </g>
</svg>