<?xml version="1.0" encoding="UTF-8"?>
<svg id="Abdurrahman" xmlns="http://www.w3.org/2000/svg" width="447.1316" height="434.1446" viewBox="0 0 447.1316 434.1446">
  <defs>
    <style>
      

      @import url('../../CSS/SvgStyling.css');
      
    </style>
  </defs>
  
  <g class="content evenOdd">

    <rect id="bg" class="bg" width="447.1316" height="434.1446"/>
    <path class="cls-1" d="M239.249,111.7398c-.5917-.5252,1.5719-.2053,2.358-.3198,1.5902-.2286,3.1919-.3654,4.7912-.4799,4.4852-.3654,8.9931-.5252,13.3845.6633,1.8278.4792,3.5734,1.2104,5.2276,2.1243.3222.1604.9527.5484.9527.5484,0,0-1.5011.846-2.23,1.3026-3.0753,1.9422-11.4515,6.2832-11.4515,6.2832,0,0-1.8325-.9598-4.2109-3.0158-2.8286-2.4451-7.645-5.3697-8.8217-7.1062ZM397.8451,108.2437l-4.6519,15.1945s4.6542,3.9526,3.4294,5.4838c-2.9176,3.6325-7.9877,3.1752-11.1887,2.3988-3.2033-.7764-6.5665-3.8152-8.022-7.06-1.4622-3.2674,1.8782-13.7775-.7585-12.5664-2.6368,1.2104-9.1484,15.8338-15.0639,19.8317-5.7554,3.8844-15.4705,4.935-20.4216,4.113-4.2773-.7085-7.6519-5.0948-9.2925-9.0937-1.6473-4.0445,2.1524-15.1256-.5963-15.103-2.7508.0459-9.8703,11.0811-15.9046,15.2857-6.3974,4.4552-15.3197,10.9447-22.478,11.4239-18.1048,1.211-29.024-7.2427-29.024-7.2427,0,0,16.2291-5.8036,20.9037-9.6874,3.955-3.3133,11.086-10.3962,7.1401-13.7315-5.3762-4.5244-21.6692-12.7268-39.3994-13.412-13.6975-.5255-42.6895,8.3851-42.6895,8.3851l-6.1804,18.3471s9.5116-5.4376,14.3624-4.2498c5.7988,1.417,20.4422,12.7494,20.4422,12.7494,0,0-18.964,9.3216-25.8185,10.0302-5.415.5714-13.0508-.7764-15.2945-5.7348-4.3686-9.6651-7.3206-34.7976-10.9146-52.2311-6.7493-32.6956-25.8184-62.8094-25.8184-62.8094l-5.4265,17.0901s11.8056,23.1224,15.2009,35.346c3.3952,12.201,8.8011,26.6417,5.1705,37.9055-3.6282,11.2412-16.0142,21.9566-26.9448,29.6339-11.1088,7.8137-30.3467,14.9878-39.7179,17.1587-5.5172,1.3032-13.3401-.4107-16.5085-4.0205-3.1682-3.6335-2.7777-11.7218-2.5013-17.6392.3347-7.1748,4.5096-25.43,4.5096-25.43,0,0-6.3653,12.2696-7.7431,18.9644-1.5689,7.6077-3.614,19.2377-1.672,26.7322,1.8861,7.2659,4.6324,15.7872,13.3257,18.1408,7.785,2.1256,23.1934-1.0047,33.4637-5.7577,11.0838-5.1404,24.7057-16.6102,33.0408-25.0413,7.1835-7.2659,16.9647-25.5218,16.9647-25.5218,0,0,3.7128,25.1331,8.7692,31.8506,4.6451,6.1461,13.9443,9.5283,21.5687,8.3625,9.5893-1.4617,35.9674-17.2049,35.9674-17.2049,0,0,12.7219,13.9375,21.3517,16.3363,8.849,2.4677,22.7818,2.1482,31.7361-1.5528,8.9519-3.6787,21.9845-20.5409,21.9845-20.5409,0,0,3.8933,12.9548,9.1301,16.0621,5.2368,3.085,16.2679,4.5014,22.2907,2.4677,6.0251-2.0337,13.8574-14.6913,13.8574-14.6913,0,0,6.8088,9.4824,11.2596,10.6934,4.4509,1.1878,11.6434.1365,15.4431-3.5187,3.8247-3.6787,6.7539-13.001,7.5125-18.622,1.6678-12.3604-4.7936-17.5247-4.7936-17.5247Z"/>
    <path class="cls-1" d="M128.4947,50.2559c-.1598-.389-1.1446-.8683-1.4553-1.0969-1.227-.9139-2.8515-1.9425-3.473-3.4048-.7562-1.7592,1.0236-4.9803,3.1577-4.5463,1.1538.2513,1.9283,1.3708,2.3282,2.3995.8088,2.1016.2856,4.569-.5576,6.6486ZM91.7254,81.2376c-.2166-1.6909-8.596-12.6806-8.4567-16.1992.1388-3.5193,2.8219-8.2484,5.6173-10.762,2.7889-2.5126,7.675-4.5463,10.6986-3.5187,3.0234,1.0513,6.8353,5.8496,7.4428,9.7569.6072,3.8841-1.4826,9.5503-3.7993,13.663-2.5797,4.5923-11.6799,13.8919-11.6799,13.8919,0,0,11.5477-7.9971,16.6236-12.795,5.4217-5.141,14.4556-13.5721,15.9065-18.0499.4821-1.4856-1.6771-1.7831-3.1301-2.9246-2.0575-1.5997-3.7924-3.93-4.0725-5.781-.4784-3.1529,1.9544-7.86,4.3329-10.2362,2.3763-2.3988,7.741-4.6611,9.9345-4.0438,2.1934.617,3.0434,4.9577,3.2261,7.7452.201,3.0621-2.0244,10.6934-2.0244,10.6934l5.166,3.8152-5.0928,7.1059-4.8872-4.3869s-3.7745,7.6543-6.5802,10.7846c-3.9482,4.4099-10.7353,11.3098-17.1042,15.7197-6.758,4.6838-21.3838,13.1601-23.4449,12.3378-2.0609-.8453,8.5923-11.7441,12.1716-16.8389,3.1851-4.5473,7.7691-9.1389,9.3058-13.8001,1.2507-3.8162-.9021-7.5861-4.8924-8.5459-1.1683-.2739-2.4183-.2286-3.5831.0459-.7453.1827-1.4819.4573-2.1505.8227-.4218.2286-.8241.5025-1.1897.8223-2.259,1.9652-1.4067,5.0725.0041,7.1521,1.5809,2.3076,2.8051,3.5413,3.7033,6.237.6482,1.9422-1.8599,7.1744-2.045,7.2886Z"/>
    <path class="cls-1" d="M317.3806,187.9615l8.0791-.4346-17.5565-18.0499-4.3526,15.0577,3.9184,4.1127c5.0198,14.6907,13.7821,28.5826,24.0021,42.7028-11.0013,8.4537-27.1208,11.2186-35.8008,15.5596-4.2657,2.1243-5.0015,11.4466-1.1561,14.2574,7.389,5.4375,47.0855,10.1213,45.4861,18.2785-1.597,8.1565-39.5091,24.8809-55.0778,30.7078-12.041,4.5017-28.4529,6.192-38.3324,4.2498-8.5932-1.6683-16.7432-9.0937-20.9449-15.8564-4.1995-6.7634-5.1889-16.4049-4.2588-24.7228,1.2018-10.738,12.0615-38.0876,11.4652-39.6411-.594-1.5305-12.0799,19.5348-15.0318,30.411-2.952,10.8765-5.5201,24.3334-2.6801,34.8668,2.8423,10.5101,9.5916,23.351,19.7317,28.2401,10.1423,4.9124,27.7994,4.4332,41.1153,1.1658,15.0867-3.7014,37.992-16.2225,49.3978-23.3057,7.6701-4.7756,15.0729-12.6117,19.0348-19.3065,3.6398-6.1467,8.3967-15.6964,4.7387-20.906-4.8165-6.8546-24.8383-11.584-24.8383-11.584,0,0,7.6747-6.8087,9.5985-11.4016,3.3359-7.9279,3.8477-17.0908,1.4097-25.1102-2.7578-9.0701-17.9472-29.2911-17.9472-29.2911Z"/>
    <path class="cls-1" d="M210.0536,327.061c-.0342-.1145-.9162-.9139-.9688-.9818-.2878-.3661-.61-.7318-.9344-1.0746-.9596-1.0051-1.9604-1.9875-2.968-2.9473-4.0076-3.8388-7.9603-6.5804-13.389-3.4727-1.1995.7079-2.8903,1.9189-3.2148,3.3586-.4912,2.2164,2.6778,3.4508,4.2497,3.9986,5.1957,1.8044,11.8765,1.7592,17.2253,1.1192ZM218.0345,349.6582c1.5765-5.5976-10.7775-5.781-16.0326-6.9235-6.0205-1.3252-14.552,1.0283-20.5976-8.887-3.2011-5.2552,2.6115-20.4494,6.7813-25.7511,3.9619-5.0266,12.9025-9.6415,18.2351-6.0769,6.1896,4.1124,16.6403,20.1522,18.9023,30.8223,2.2619,10.6472.6809,23.6708-5.3306,33.107-7.2771,11.4239-26.2639,27.6002-38.3392,35.3916-10.0669,6.4885-24.6897,11.0811-34.1077,11.3098-8.166.2053-17.76-5.3237-22.4004-9.939-4.3959-4.3643-5.0535-11.607-5.4509-17.7986-.481-7.4719,1.0731-19.4204,2.5651-27.1436,1.275-6.5801,6.1279-21.5692,6.3861-19.1009.2582,2.4674-5.4859,25.1105-4.8371,33.907.5096,6.8999,3.4181,14.9878,8.7281,18.8496,5.3099,3.8382,15.5207,6.0769,23.1337,4.2039,9.9824-2.4447,26.3737-11.2871,36.7673-18.9411,9.9869-7.3578,24.002-21.3626,25.5968-27.0294Z"/>
    <path class="cls-1" d="M155.7595,315.3172c-.0617.0453-2.5727-2.8794-3.233-3.4727-2.8333-2.5362-5.7578-5.8715-9.7974-6.2376-3.4478-.2972-10.1172,2.7649-5.7463,6.6257.4752.4117,1.0214.7544,1.5902,1.0283,5.3556,2.6507,11.5522.9139,17.1865,2.0564ZM159.1752,332.0193c-5.0014-2.1023-17.0126.5714-22.7088-1.0057-4.5719-1.2563-10.2863-3.8152-11.4721-8.4084-1.2452-4.8206.7768-14.8514,3.9985-20.5402,3.2216-5.6662,8.5406-13.5036,15.331-13.5488,11.4949-.0912,20.0973,10.3273,25.0874,18.7351,4.9923,8.3851,5.7349,22.758,4.8598,31.6227-.7791,7.9053-4.5034,15.9473-10.1104,21.5682-5.9359,5.964-16.3273,11.8812-25.5054,14.1425-9.1781,2.263-22.6081,2.697-29.5689-.5711-6.8262-3.1988-11.2246-11.584-12.1971-19.0546-2.6074-20.061-1.9691-77.7526-3.4482-101.2864-.8433-13.4347-3.8618-30.9361-5.4271-39.9845-.8442-4.8891-3.9649-14.3252-3.9649-14.3252l5.5585-13.8234s7.7551,19.055,9.2961,29.1084c2.1118,13.8007,2.5624,35.7806,3.376,53.6934.929,20.4267.5877,54.0818,2.1971,69.0011.7805,7.244,1.072,17.4568,7.4593,20.5182,6.3871,3.084,21.775.2972,30.864-2.079,8.584-2.2391,20.9449-8.2031,23.673-12.1784,2.5933-3.7473-3.0868-9.8242-7.2978-11.584Z"/>
    <path class="cls-1" d="M174.0723,219.103c-.2878-.9139,2.1317-3.4947,2.6138-4.1806,2.9954-4.341,6.3815-8.3389,9.8681-12.2922,7.8712-8.911,16.6403-19.7638,29.4193-20.4723,10.3342-.5937,19.83,4.0674,27.4247,10.7387,1.5377,1.3705,7.3297,5.6429,5.7828,8.477-2.9587,5.4146-17.5702,9.5503-23.0424,12.0173-6.8042,3.0847-13.3867,6.4206-20.9037,7.2207-9.9915,1.051-21.0705,1.3711-30.8427-1.3711l-.3199-.1374ZM167.1561,216.4989s15.3038-26.7089,23.8535-35.6665c7.5627-7.9046,18.0455-16.7703,27.4452-18.0266,9.3997-1.2799,22.4278,5.5288,28.9487,10.4192,5.7416,4.318,10.4598,11.812,10.1856,19.009-.2924,7.5628-4.2794,20.5402-11.9313,26.4587-10.1423,7.8597-35.1268,17.8892-48.9317,20.7-11.1408,2.2623-33.893-3.8385-33.893-3.8385,0,0,1.0441,22.0711-4.5491,30.822-6.4408,10.0764-21.0728,22.0714-34.0986,29.6345-13.664,7.9279-33.6741,16.1763-47.8854,17.9354-12.6001,1.5765-28.2205-2.1016-37.3825-7.3112-8.6147-4.9124-14.4529-14.5775-17.5902-23.9903-3.3073-9.8934-3.05-26.3898-2.2532-35.4835.5904-6.7405,6.2602-18.6672,7.0329-19.033.7727-.3648-1.8276,12.0416-2.3961,16.8169-2.0245,17.0216.0818,23.0528,5.749,31.4393,5.6673,8.3851,16.9874,17.7527,28.2541,18.8267,14.3489,1.3711,41.8398-3.9986,57.8403-10.6701,14.8001-6.1467,33.0947-17.9813,38.1624-29.2458,5.07-11.2638-7.7477-38.2936-7.7477-38.2936l5.3534-15.1945c3.9206,6.6949,8.5178,12.4985,15.8336,14.692Z"/>
    <path class="cls-1" d="M163.1143,171.7853c-.0481.022-.0982.0686-.144.0905l.0731-.1138c.0228,0,.0481,0,.0709.0233ZM163.1143,171.7853c.5301-.4346,1.1492-1.4849,1.5628-1.9422,1.4349-1.5771,2.9269-3.0844,4.5765-4.4099,1.8141-1.4853,4.0578-3.0155,6.514-2.8101,1.6587.1371,3.2604,1.4849,2.7258,3.2674-.4684,1.5758-2.3054,2.6727-3.6602,3.4039-3.4319,1.8051-7.8278,3.6335-11.7189,2.491ZM159.6345,170.0937s8.2139-9.0471,11.5108-10.9893c2.3808-1.3938,6.3815-1.8963,8.2642-.64,1.885,1.2796,4.4075,5.6436,3.0388,8.2251-1.8553,3.4727-8.4744,11.8812-14.1589,12.7265-8.6321,1.257-13.9511-2.1472-18.9915-1.2566-4.2772.7774-7.8826,3.8388-11.2505,6.5807-4.7638,3.8841-12.7401,13.2516-17.328,16.7024-2.9172,2.1928-10.3,4.7976-10.1989,3.9986.101-.8233,7.4117-5.7125,10.8067-8.911,4.0441-3.8165,8.9017-9.8248,13.469-13.9841,4.3686-3.9753,9.8042-8.8418,13.942-10.9207,3.2787-1.6457,10.8963-1.5315,10.8963-1.5315Z"/>
    <path class="cls-1" d="M395.8594,187.767c-5.1628,1.2898-9.1001,12.6766-9.1001,12.6766l28.4882.7456-26.0522,15.901s16.6049-2.096,23.1016-6.5896c6.4948-4.4948,18.6144-16.5869,15.8731-20.3759-2.7393-3.7886-25.408-4.0911-32.3106-2.3578Z"/>
    <path class="cls-1" d="M257.5066,19.7006c-5.1628,1.2901-9.1001,12.6766-9.1001,12.6766l28.4882.7459-26.0522,15.901s16.6049-2.096,23.1016-6.5896c6.4948-4.4948,18.6144-16.5869,15.8731-20.3759-2.7393-3.7889-25.408-4.0911-32.3106-2.3581Z"/>
    <path class="cls-1" d="M408.2578,239.0344l-5.079,15.1482s5.7508,9.5736,3.7494,12.0639c-3.9299,4.8891-11.1317,3.7466-15.2353,2.3302-4.1013-1.4164-9.3836-10.8299-9.3836-10.8299l-4.3458,14.0061s11.2458,22.1396,8.2801,32.0097c-3.3952,11.3101-31.6515,26.07-46.8776,30.411-14.3257,4.0674-35.1702.3428-44.4763-4.3636-7.8597-3.9759-9.8703-16.1769-11.3532-23.8535-1.4166-7.3342,2.454-22.2771,2.454-22.2771,0,0-7.5903,20.5861-6.8019,29.9081.7859,9.3223,3.9252,20.3349,11.5245,26.0021,8.1523,6.0775,24.4726,11.3324,37.3842,10.4638,13.1399-.8676,31.9074-10.9444,41.4533-15.7656,6.121-3.084,11.8675-8.0647,15.8269-13.1149,3.8956-4.9803,6.7906-11.3554,7.9284-17.2269,1.14-5.8722-1.0921-18.0046-1.0921-18.0046,0,0,8.102.6167,11.2436-1.4849,3.4432-2.3076,7.949-7.3801,9.4112-12.3384,1.629-5.5291,1.1424-15.3539.3746-20.8827-.6077-4.3413-4.9855-12.201-4.9855-12.201Z"/>
    <polygon class="cls-1" points="56.3539 138.3759 57.4061 136.6026 59.275 137.9524 58.3497 139.5666 56.3539 138.3759"/>
    <polygon class="cls-1" points="112.6766 234.3172 119.0784 222.0562 130.4474 231.3893 124.8184 242.5492 112.6766 234.3172"/>
    <polygon class="cls-1" points="118.4527 256.0363 124.8544 243.7753 136.2234 253.1084 130.5944 264.2683 118.4527 256.0363"/>
    <polygon class="cls-1" points="255.4255 351.6903 261.8272 339.4296 273.1963 348.7624 267.5673 359.9226 255.4255 351.6903"/>
    <polygon class="cls-1" points="274.7731 351.8667 281.1748 339.6057 292.544 348.9388 286.915 360.0987 274.7731 351.8667"/>
    <polygon class="cls-1" points="332.177 315.1421 338.5787 302.881 349.9479 312.2142 344.3189 323.374 332.177 315.1421"/>
    <polygon class="cls-1" points="335.0864 248.6231 340.8694 236.0593 352.6892 244.8145 347.6231 256.241 335.0864 248.6231"/>
    <polygon class="cls-1" points="397.4325 300.9201 403.2154 288.356 415.0353 297.1115 409.9692 308.538 397.4325 300.9201"/>
    <polygon class="cls-1" points="47.9491 184.5062 49.0014 182.7329 50.8702 184.0827 49.9449 185.6969 47.9491 184.5062"/>
    <path class="cls-1" d="M268.6162,205.9022c-1.63-.1542-3.8659,1.7277-4.3709,3.5629-.5047,1.8353.029,6.2468,1.3561,7.4195,1.3415,1.1874,6.6789-.3549,6.6789-.3549,0,0,6.5058,15.224,8.2079,16.7664,1.7022,1.5584,1.529-4.936,1.9907-7.4962.6491-3.5629.8798-11.1212,1.8464-13.9129.5626-1.5886,3.0871-3.1618,3.9957-2.8226.9089.3392.2596,4.9049,1.4425,4.8432,1.1685-.0617,5.222-3.2238,5.5971-5.1824.3895-1.9435-1.4858-5.6918-3.289-6.525s-5.7412-.4166-7.53,1.5427c-1.8896,2.0668-3.0437,7.5116-3.8371,10.9204-.7069,3.1004-.88,9.5322-.88,9.5322,0,0-3.9957-10.7659-5.871-13.805-1.2406-2.0357-3.7217-4.3341-5.3374-4.4883Z"/>
    <path class="cls-1" d="M257.6811,390.903c-1.6301-.1542-3.866,1.7277-4.371,3.5629-.5047,1.8356.029,6.2468,1.3561,7.4195,1.3415,1.1878,6.6789-.3549,6.6789-.3549,0,0,6.5058,15.2243,8.2079,16.7667,1.7023,1.5581,1.5291-4.936,1.9907-7.4965.6491-3.5626.8798-11.1208,1.8464-13.9129.5626-1.5886,3.0871-3.1618,3.9958-2.8226.9088.3395.2596,4.9052,1.4425,4.8435,1.1684-.062,5.2219-3.2241,5.597-5.1827.3895-1.9435-1.4858-5.6918-3.289-6.5246-1.8031-.8332-5.7412-.4166-7.53,1.5423-1.8896,2.0668-3.0437,7.512-3.8371,10.9207-.7069,3.1001-.8799,9.5322-.8799,9.5322,0,0-3.9958-10.7662-5.871-13.8053-1.2407-2.0357-3.7218-4.3341-5.3374-4.4883Z"/>
    <path class="cls-1" d="M73.0983,141.724l.3095-1.3465-1.1101-2.7491-1.0899,2.4982.6374,4.9455s-1.6308,2.1492-2.7188,2.6212c-1.4938.6446-4.3823,1.1471-6.2324,1.2458-1.6573.0928-4.8729-.658-4.8729-.658,0,0,3.0958,1.6352,4.7703,1.9064,1.6678.2755,3.9011.2575,5.258-.2522,1.9882-.7544,3.1387-2.0524,3.9401-3.0338.6103-.7476.7822-1.8746.8702-2.8613.0897-.9923-.3247-3.0968-.3247-3.0968l.5634.7807Z"/>
    <path class="cls-1" d="M59.7593,143.7164c-.0413-.1427.9362-1.5883,1.0282-1.7152.5944-.8348,1.3108-1.8933,2.3314-2.1721.7583-.2004,2.1716.0728,1.8783,1.1759-.1632.6075-.7349,1.0228-1.2129,1.3642-.4395.3113-.9071.6219-1.3908.844-.7221.3395-1.8709.4176-2.6342.5032ZM58.6582,143.5402s1.0292-2.4936,1.6367-3.3743c.5234-.7646,1.191-1.5394,1.9985-1.9078.8077-.3684,2.1637-.5156,2.8432-.2972.6357.207,1.0794.9775,1.2302,1.6191.1507.6409-.3166,2.2279-.3166,2.2279,0,0-1.2557,2.1833-2.142,2.8213-.8865.6377-2.2436.8141-3.1793,1.0205-.8674.1903-1.9485.4356-2.6629.2375-.6863-.1981-1.6024-1.4449-1.6024-1.4449,0,0-.8381-.8102-1.2399-.6842-.4056.1312-1.0388,1.031-1.1819,1.461-.1278.3644-.0364.9821.3157,1.0966.4655.1581,1.8418-.3884,2.4753-.162.6296.2316,1.1015.8916,1.3288,1.544.2266.6478.3798,1.6463.0333,2.3624-.4732.9782-1.7004,2.6399-2.8886,3.5272-1.1837.8863-2.9127,1.6132-4.2136,1.7893-1.2273.164-2.7869-.1909-3.597-.7403-.7698-.5271-1.0686-1.7136-1.2631-2.5549-.1845-.8099.0082-1.7316.1028-2.511.0868-.7298.4559-2.1643.4559-2.1643l.1101,1.5519s.0467,1.9829.4495,2.6878c.398.7059,1.1454,1.3911,1.9625,1.5482.8365.163,2.1399-.2555,3.0621-.5708.8761-.3077,1.7618-.8387,2.473-1.3409.6589-.4687,1.4702-1.2196,1.7891-1.6699.2035-.2854.4253-.8738.1333-1.0319-.2873-.1594-1.2721.142-1.8672.0735-.5864-.0745-1.3883.003-1.7011-.5097-.3441-.5747-.4696-1.689-.415-2.5631.0494-.8781.3766-2.0111.7289-2.7183.3119-.618.9885-1.2832,1.41-1.5138.3337-.1821.7898-.061,1.1089.1266.6226.3638,2.623,2.0649,2.623,2.0649Z"/>
    <path class="cls-1" d="M66.3338,158.7416l1.2955.2982-2.509-4.2915-.8069,1.6693s1.0263,3.6095,1.4161,5.4409c.4641,2.1571.9109,5.2529,1.3609,7.4883.4042,2.0016,1.1257,6.8996,1.1257,6.8996,0,0,.7096-2.3837.6546-3.5816-.0769-1.7257-.707-4.5319-1.1126-6.7916-.4252-2.3243-1.4243-7.1315-1.4243-7.1315Z"/>
    <path class="cls-1" d="M366.2015,218.7009l8.973,3.9753-14.5829-41.0601-6.9857,14.1881s4.5695,33.451,5.9588,50.2919c1.6712,19.8422,2.5132,48.1014,4.0245,68.6288,1.3632,18.3861,2.7978,63.1105,2.7978,63.1105,0,0,6.833-20.7075,7.344-31.5223.7533-15.5789-1.6075-41.418-2.7868-62.1245-1.2694-21.3035-4.7427-65.4877-4.7427-65.4877Z"/>
    <path class="cls-1" d="M62.0031,162.2071l.8114-.3293-2.8989-2.4027-.8922,1.6775s2.9609,5.5675,3.4506,7.1531c.2376.7649.0144,1.995-.4776,2.3778-.4911.3887-1.8627.4104-2.4647-.0584-.7574-.5845-1.5982-2.2138-2.0603-3.4531-.5074-1.3764-1.007-4.7796-1.007-4.7796,0,0-.9978-1.3262-1.348-1.2842-.3487.0479-.7509,1.5548-.7509,1.5548l1.1429,6.4538s.0461,2.1971-.4698,2.8416c-.5158.6446-1.8978,1.1668-2.6263,1.0257-.7284-.141-1.4052-1.1159-1.7437-1.8615-.451-.9939-.9615-4.1084-.9615-4.1084l-.3274-2.7901s-1.3327.0968-1.6898.5186c-.3853.4546-.4707,1.459-.6206,2.1967-.1556.7731-.2527,1.6299-.3133,2.4477-.0661.8925.0585,2.0977-.0839,2.9092-.118.6701-.3692,1.686-.7717,1.936-.402.2503-1.2375-.0997-1.6429-.4458-.4293-.3716-.7047-1.1605-.9311-1.7608-.2244-.5944-.3053-1.3406-.4286-1.8576-.0981-.4054-.2006-1.2691-.3114-1.2255-.1101.0499-.3373.9932-.3528,1.5-.0177.5881.0999,1.3636.2471,2.0265.1639.7348.3757,1.7674.7337,2.3781.3112.5311.7763,1.11,1.4147,1.2868.639.1761,1.8779.0636,2.416-.2395.5387-.3037.6732-1.028.813-1.5922.1904-.7663.3283-3.0056.3283-3.0056l.0209-1.5581s.9646,3.2303,1.5373,4.1389c.3909.6236,1.902,1.3347,1.902,1.3347,0,0,1.0737.3631,1.607.2385.6381-.1509,1.6836-.6954,2.2226-1.1425.4922-.4061.7435-1.0083,1.0151-1.5279.2646-.5009.6156-1.5587.6156-1.5587l1.7337,2.161s1.0809.5232,1.6699.4596c.7656-.082,2.2124-.3779,2.924-.9516.7107-.5796,1.3343-1.6004,1.355-2.5156.0274-1.0592-.6561-2.6071-1.1848-3.8483-.5302-1.253-2.0172-3.6715-2.0172-3.6715l-.5644-.9214.9803.2732Z"/>
    <path class="cls-1" d="M61.3664,178.5051l-2.85.0174s-2.1958.0584-2.8732.5068c-.6774.4487-1.4398,1.5276-1.1892,2.1905.7679,2.0232,2.3289,2.3696,3.2485,2.9174.6461.3815,2.2673.349,2.2673.349,0,0,2.1217-.6905,3.0167-1.3177,1.0105-.7079,3.0666-2.9341,3.0666-2.9341l.2615,1.5486s-1.6116,1.8674-2.4651,2.7629c-.8948.9322-2.9003,2.8147-2.9003,2.8147,0,0-1.9784,1.6909-2.9573,2.1121-.8992.3894-2.0846.496-2.9127.4238-.7462-.0656-2.0509-.8453-2.0509-.8453,0,0-1.6437,2.0675-2.5209,2.6438-.7945.5163-1.8858.9122-2.7463.801-.8611-.1109-1.664-.8988-2.4162-1.4535-.7646-.5652-1.4818-2.4949-2.1638-1.9261-.6826.5691-1.3685,3.9116-1.93,5.3336-.4285,1.0782-.7891,2.6442-1.4462,3.1739-.6455.5206-1.7743.3549-2.501-.0075-.7252-.3556-1.4015-1.3203-1.854-2.1397-.501-.9073-1.026-2.4651-1.1483-3.2913-.1472-.9991.0997-2.2856.3462-2.04s.7244,2.6107,1.1322,3.5141c.3154.6997.7817,1.5095,1.3124,1.8989.5069.3753,1.4379.9004,1.8715.4379.5158-.5622.9012-2.698,1.2303-3.7857.2746-.9017.442-1.831.7462-2.7265.3129-.9112.6432-2.2774,1.1241-2.7649.4056-.4159,1.2591-.4559,1.7561-.1709.7635.4392,1.9584,2.2735,2.8237,2.8078.6683.409,1.6332.7272,2.3685.3972.8023-.3592,1.8852-1.9002,2.4415-2.5582.3562-.4241.3391-1.4348.8959-1.3833.5624.0567,1.5938,1.5325,2.4691,1.6929.8773.1666,2.787-.7246,2.787-.7246,0,0-1.2615-.4589-1.8064-.8312-.6206-.4212-1.4707-.9788-1.9183-1.6932-.5089-.8125-1.1638-2.1672-1.1281-3.1641.0343-1.0031.5986-2.1272,1.3359-2.8488.738-.7216,2.0581-1.2786,3.0882-1.4869,1.021-.2063,2.24.0702,3.0991.2477.728.1496,2.0552.8112,2.0552.8112l-.9658.6902Z"/>
    <path class="cls-1" d="M275.8981,83.479l-1.1749,6.1999,72.1448-27.5815,2.8065-6.5013c-36.534,14.4912-38.8074,13.0453-73.7765,27.8829Z"/>
    <path class="cls-1" d="M55.4048,157.8451c-.5583.2516.4588,1.4259-.0711,1.563-.6774.1758-.4801-1.4042-.7735-1.4908-.1458-.0433-.1121.3877-.1067.4402.0408.3152.3503,1.0592-.2152,1.1461-.6029.0922-.4819-.6964-.4695-1.0195.0018-.0689.0374-.4261-.1192-.4022-.4979.0758-.1423,1.2953-.0764,1.5463.0355.1355.0907.2873.2134.3749.4499.3215.6633-.4002.8642-.4199.1512-.0148.2864.4376.5976.3818.1404-.0249.24-.1483.3094-.2549.3787-.5829.048-1.2803-.153-1.8651Z"/>
    <path class="cls-1" d="M322.7375,372.257s-2.0084,3.0388-3.6787,6.9688c-1.9329,4.5244-2.8262,11.2186-3.0411,13.8007-.2512,3.0614,1.3505,7.9512,3.4204,8.271,2.8309.4566,4.4966-.7085,5.5041-2.2623,2.0108-3.1306,1.8461-8.1568,1.8461-8.1568,0,0-1.5742,2.9473-3.3768,4.2731-1.1105.7991-2.5499.7079-3.0413-.2286-1.7433-3.336-.8682-6.9914-.0135-12.3611.8088-5.0951,2.3808-10.3047,2.3808-10.3047Z"/>
    <path class="cls-1" d="M219.1141,395.6671s-2.0084,3.0388-3.6786,6.9688c-1.933,4.5244-2.8262,11.2186-3.0411,13.8007-.2512,3.0614,1.3505,7.9512,3.4204,8.271,2.8309.4566,4.4966-.7085,5.5041-2.262,2.0108-3.1309,1.8461-8.1572,1.8461-8.1572,0,0-1.5742,2.9476-3.3768,4.2731-1.1105.7994-2.5499.7079-3.0413-.2286-1.7433-3.336-.8682-6.9914-.0135-12.3611.8088-5.0948,2.3808-10.3047,2.3808-10.3047Z"/>
    <path class="cls-1" d="M76.6508,333.3576s-2.0084,3.0388-3.6787,6.9688c-1.933,4.5244-2.8262,11.2186-3.0411,13.8007-.2512,3.0614,1.3504,7.9512,3.4204,8.271,2.8309.4566,4.4966-.7085,5.5041-2.262,2.0108-3.1309,1.8461-8.1572,1.8461-8.1572,0,0-1.5742,2.9473-3.3768,4.2731-1.1105.7991-2.5499.7079-3.0413-.2286-1.7433-3.336-.8682-6.9914-.0135-12.3611.8088-5.0951,2.3808-10.3047,2.3808-10.3047Z"/>
    <path class="cls-1" d="M253.6857,253.9068s-2.0085,3.0388-3.6787,6.9688c-1.933,4.5244-2.8262,11.2186-3.0411,13.8007-.2511,3.0614,1.3505,7.9512,3.4204,8.2713,2.831.4566,4.4966-.7085,5.5041-2.2623,2.0108-3.1306,1.8461-8.1572,1.8461-8.1572,0,0-1.5742,2.9476-3.3768,4.2731-1.1105.7994-2.5499.7079-3.0413-.2286-1.7433-3.336-.8681-6.9914-.0135-12.3611.8088-5.0948,2.3808-10.3047,2.3808-10.3047Z"/>
    <path class="cls-1" d="M129.3297,96.3104s-2.0084,3.0388-3.6787,6.9688c-1.933,4.5244-2.8262,11.2186-3.0411,13.8007-.2511,3.0614,1.3505,7.9512,3.4204,8.271,2.831.4566,4.4966-.7085,5.5042-2.262,2.0108-3.1309,1.8461-8.1572,1.8461-8.1572,0,0-1.5742,2.9473-3.3768,4.2731-1.1105.7991-2.5499.7079-3.0413-.2286-1.7433-3.336-.8682-6.9914-.0135-12.3611.8088-5.0951,2.3808-10.3047,2.3808-10.3047Z"/>
    <path class="cls-1" d="M179.9401,284.3781s3.0937-1.9235,6.2521-4.7973c3.6448-3.3038,7.2515-9.0143,8.5243-11.2707,1.5065-2.6766,2.0924-7.7888.3453-8.9438-2.3821-1.5971-4.3822-1.233-5.9459-.2424-3.1342,2.0052-5.083,6.6417-5.083,6.6417,0,0,2.6607-2.0209,4.852-2.4733,1.3433-.2631,2.6128.4208,2.6684,1.4777.1913,3.7584-2.1298,6.7149-5.1481,11.2373-2.8621,4.2928-6.4652,8.3707-6.4652,8.3707Z"/>
    <path class="cls-1" d="M57.4548,237.0227c-.109-.1135-.683.6409-.7239.699-1.0061,1.2547-2.9013,3.3868-2.0473,5.1496,2.4505,5.079,8.85,7.0488,11.6785,15.1243,1.1973,3.4695,1.6582,7.181,1.7782,10.8489.0123.455-.2759,5.5065.4819,5.266,1.9572-.618,2.5801-9.0022,2.5793-10.6058.0435-10.9795-5.258-20.2486-13.7465-26.482Z"/>
    <path class="cls-1" d="M344.8082,172.2665c-.7745.6852-2.1728-2.3988-4.0989-2.0564-2.4196.4113-6.3404,3.93-2.1889,5.5065,3.5438,1.3249,7.7387-.3195,10.686-2.1705.5141-.3198,4.5972-3.4271,4.8462-2.1935,1.1699,5.7348-7.8918,9.9849-11.319,12.4296-1.5057,1.0966-2.9954,2.1702-4.5513,3.1762-1.1401.7531-5.2482,4.6838-6.7745,3.5866-3.0137-2.1702,4.0624-6.4203,4.396-7.9964.1736-.8-3.1416-1.9652-3.6535-2.4224-1.9397-1.7821-2.118-4.5463-1.2657-6.8999,1.6222-4.5011,7.6428-11.15,12.8771-10.8072,6.4365.411,3.0526,8.1336,1.0465,9.8475Z"/>
    <path class="cls-1" d="M213.443,15.2753c.7978.9522,1.5435,5.4028,1.5435,5.4028,0,0,1.4934-4.4306,1.528-6.231.0312-1.6155-.0329-4.0586-1.3164-4.5969-1.7152-.6829-6.4014-.8076-8.9785.3936-2.5772,1.2009-5.2308,4.2442-6.4812,6.832-1.2227,2.5467-1.4672,6.3357-1.0128,8.6955.4423,2.2981,2.4802,4.3482,3.7393,5.4661,1.0597.9522,3.8241,1.2425,3.8241,1.2425,0,0-3.819,3.312-5.2254,5.5278-1.5575,2.4431-3.8122,6.1281-4.1225,9.1717-.3087,3.064.4734,7.101,2.2666,9.1301,1.7951,2.0085,5.5586,2.6711,8.5,2.94,2.9934.2903,6.4032-.3516,9.4643-1.2419,3.061-.8899,6.7327-2.5671,8.9006-4.0786,1.691-1.2012,5.3834-4.0579,4.1086-5.0315-.3399-.2483-4.381,1.0769-10.576,2.754-2.5842.6833-5.3191,1.0146-7.9987.9522-2.7853-.083-7.3067.145-8.7097-1.4075-1.4032-1.5325-.8984-5.6734.2913-7.8889,1.443-2.6911,8.3611-8.2398,8.3611-8.2398l6.5473-6.7703,4.3203-4.8442-1.117-3.0647-4.2629,3.416s-4.6083,2.5054-6.3825,2.6504c-1.5002.1246-3.3176-.6836-4.2628-1.7598-.9471-1.0972-2.0032-3.2303-1.4102-4.7619.6349-1.6148,3.8068-4.2236,5.217-5.0108.9867-.5376,2.4802-.5793,3.2448.3529Z"/>
  </g>
</svg>