<?xml version="1.0" encoding="UTF-8"?>
<svg id="SahihAlBukhari" xmlns="http://www.w3.org/2000/svg" viewBox="0 0 691.0594 237.9843">
  <defs>
    <style>
      
      
      @import url('../../CSS/SvgStyling.css');

      
    </style>
  </defs>
  
  <g class="content">


    <rect id="bg" class="bg" width="691.0594" height="237.9843"/>


    <path class="cls-1" d="M169.9545,156.7257c-2.5284,2.3204-4.9747,4.3577-7.1799,6.6292-6.1893,6.3753-12.2128,12.9121-18.4358,19.2536-3.153,3.2129-6.4646,6.3017-9.9466,9.1506-2.9888,2.4454-6.4357,4.1892-10.3955,4.6648-6.7108.806-12.391-2.4914-15.4922-7.6525-2.951-4.9111-3.4635-10.2438-2.3531-15.7589.3901-1.9376,1.0932-3.8124,1.6566-5.715.2563-.8656.5204-1.7289.7809-2.5932-.1072-.0877-.2144-.1754-.3216-.2631-.5861.3681-1.1934.7066-1.7552,1.1086-9.4577,6.7679-19.814,11.7192-30.7354,15.6592-4.817,1.7378-9.6654,3.2453-14.6229,4.4816-6.6893,1.6681-13.4812,2.4894-20.3208,1.7355-7.963-.8777-14.9756-3.9198-20.1116-10.4217-4.7389-5.9992-7.3537-12.683-7.6615-20.4483-.3795-9.5754,1.7285-18.5638,5.2229-27.3291.6559-1.6453,1.6652-3.1498,2.6356-4.9498-.6842-.3341-1.2853-.6911-1.9304-.929-1.1668-.4302-2.0311-1.1791-2.768-2.1702-2.0767-2.793-3.2819-5.8929-3.4668-9.375-.45-8.4726.2449-16.8032,2.6889-24.9852,1.7074-5.7159,3.1005-11.5262,5.4218-17.0446.6166-1.4659,1.2187-2.9409,1.9127-4.3703.4304-.8865,1.027-1.6879,2.3877-1.8704,0,.7299.1125,1.3742-.0234,1.9611-.2832,1.2236-.6529,2.4324-1.0662,3.6197-1.5709,4.5125-2.9439,9.0691-3.8889,13.7676-.7571,3.7646-1.9514,7.4401-2.7452,11.1987-.9526,4.5107-1.1437,9.0983-.2736,13.6432.5293,2.7649,1.9908,5.0541,4.5619,6.443,1.9007,1.0267,3.2229.9178,4.6171-.7162,1.3658-1.6006,2.5525-3.3761,3.6414-5.1813.5307-.8797,1.0144-1.3314,2.1201-.9978.4285,1.0489.2632,2.1747-.0629,3.2251-.7657,2.4662-1.5376,4.941-2.5098,7.3297-.9481,2.3295-2.604,4.1501-4.847,5.3598-.8467.4567-1.4918.9955-1.8271,1.965-1.8015,5.2083-3.4367,10.4709-4.2422,15.9278-.9681,6.5586-.454,12.9876,2.5415,19.0349,2.4221,4.8899,6.0054,8.7372,10.8031,11.3509,4.8443,2.6391,10.0179,4.0319,15.5848,4.2589,7.7562.3163,15.1601-1.3431,22.5092-3.4509,8.1095-2.3259,16.031-5.1756,23.5133-9.1125,6.3399-3.3358,12.5342-6.9299,18.4365-11.0042.542-.3741,1.0572-.81,1.5069-1.2903,1.2261-1.3094,1.2371-2.2453-.1738-3.3413-.8104-.6296-1.8353-1.1285-2.8365-1.3379-2.3947-.5009-4.8389-.7587-7.2512-1.1825-3.2555-.5719-6.6147-.8627-9.721-1.899-4.2878-1.4305-8.8132-2.662-11.7231-6.6675-1.0139-1.3956-1.6288-2.8581-1.7035-4.5709-.1555-3.5674.5537-6.989,1.697-10.3424,1.6631-4.8778,4.2379-9.2728,7.0907-13.53,3.1908-4.7617,6.9503-9.0555,11.0108-13.0627,2.2083-2.1793,4.7241-4.0651,7.2103-5.9386,1.7167-1.2936,3.7875-1.9007,5.9173-2.1807,5.3215-.6996,9.4906,2.8715,9.6941,8.2413.0895,2.3621-.3714,4.6318-1.1985,6.8113-.3646.9609-1.0526,1.7991-1.5821,2.6737-1.1856-.1251-1.539-.9453-2.0776-1.5949-1.1789-1.4216-2.3722-2.8408-3.6712-4.1502-1.0294-1.0376-2.3517-1.2221-3.6779-.5508-1.7695.8957-3.645,1.6688-5.228,2.8309-5.7957,4.2546-11.1191,9.0585-15.498,14.7857-1.5543,2.0328-2.7701,4.3624-3.8928,6.6767-1.1826,2.4378-.997,3.0011,1.1094,4.7985,3.7335,3.1859,7.9667,5.0519,12.984,5.3475,4.7601.2804,9.4352,1.2484,13.9969,2.7814,4.9495,1.6633,5.998,5.489,5.8077,8.8842-.2916,5.2025-1.6409,10.0711-5.1595,14.1208-.1735.1997-.3501.4073-.473.6389-3.3813,6.3743-5.7776,12.9817-4.6379,20.3773.3605,2.3393,1.2232,4.4519,3.0163,6.125,3.1452,2.9349,7.2431,3.4883,11.2283,1.7626,4.6443-2.0111,8.6312-4.9346,12.2213-8.4066,4.3854-4.241,8.6476-8.6099,12.9441-12.9422,3.97-4.0032,7.9194-8.027,11.8691-12.0503,1.809-1.8428,3.5908-3.7123,5.3979-5.5569.6039-.6164.7554-1.2326.591-2.1408-1.0856-5.9973-2.2397-11.9895-3.0644-18.0253-1.7142-12.5461-3.1457-25.1309-4.8735-37.6751-1.0486-7.6128-1.9577-15.2606-3.885-22.7293-1.6709-6.4752-2.9169-13.0767-5.9176-19.1478-.3568-.7218-.579-1.7302-.3748-2.471.8618-3.126,1.9015-6.2034,2.8999-9.2909.0953-.2948.3551-.5364.7401-1.0951,1.1918,2.7975,2.4273,5.3165,3.3536,7.9444,2.6263,7.4506,4.7043,15.052,5.9223,22.8754,1.3769,8.8439,2.9082,17.6652,4.1748,26.5246,1.0414,7.2843,1.6995,14.6229,2.7,21.9138,1.0813,7.8798,2.3314,15.7371,3.5842,23.5921.2477,1.5533.8416,3.0513,1.3235,4.7418.5326-.3759.9464-.6736,1.3659-.963,7.1601-4.9405,14.9637-7.3253,23.6925-5.8311,2.9978.5132,5.6412,1.8892,8.0079,3.7966,1.32,1.0638,2.0842,2.4276,2.051,4.126-.0692,3.5321-.8975,6.9153-2.1512,10.524-.8582-.6996-1.6727-1.1675-2.2272-1.8475-3.6451-4.4697-8.6234-5.376-13.9649-5.3091-4.361.0546-8.3215,1.5022-12.0523,3.6545-1.3857.7994-1.4006,1.1409-.5479,2.2697,4.5267,5.9927,10.5959,9.8235,17.6235,12.0359,3.5732,1.1249,7.3625,1.7552,11.102,2.1229,9.732.9567,19.475.4617,29.2192-.1488,9.8315-.6159,19.4592-2.4371,29.0931-4.3328,8.538-1.68,16.8837-4.0931,25.1616-6.6838,6.6312-2.0753,13.062-4.7897,19.5875-7.2052,1.8645-.6902,3.7472-1.3317,5.6246-1.9865.9105-.3176,1.6946-.7339,1.7237-2.0247-.5151-.0986-1.008-.2241-1.5088-.2842-5.1974-.6231-10.411-1.1313-15.591-1.8744-8.8644-1.2716-17.7196-2.5807-26.678-3.0129-1.1727-.0566-2.3377-.2729-3.6758-.436.1834-.62.2215-1.0927.445-1.4492,1.7596-2.8076,3.5517-5.5948,5.3402-8.3841.7193-1.1219,1.7524-1.7124,3.0613-2.0048,4.7393-1.0585,9.3084-2.6365,13.7059-4.7016,7.7012-3.6166,14.0646-8.9199,19.5963-15.3332,2.5956-3.0092,5.363-5.8792,8.1834-8.6806,1.0077-1.0009,2.3414-1.735,3.6348-2.3697,1.3229-.6492,1.7728-.3874,2.1798,1.016.3127,1.078.4318,2.2105.6962,3.3045.3733,1.5441.7083,3.1069,1.2234,4.6054,1.4692,4.2745,4.6302,6.5707,9.0094,7.0585,4.6395.5167,8.8109-.8885,12.3924-3.8523,2.1882-1.8107,3.1093-4.2812,2.8754-7.0941-.2307-2.7742-.539-5.5469-.9458-8.3007-1.1429-7.7374-2.3314-15.4683-3.5445-23.1951-1.234-7.8593-2.571-15.7028-3.7624-23.5684-.7637-5.0426-1.3765-10.109-1.989-15.173-.1727-1.428-.4747-2.7445-1.5152-3.7894-.7976-.801-.8824-1.6237-.4453-2.6944,1.102-2.6997,2.0751-5.4518,3.1098-8.1792.164-.4322.3211-.8861.584-1.2573.4649-.6565,1.1509-.6726,1.6557-.03.3227.4108.5505.906.7699,1.3867,3.0563,6.696,6.1213,13.3881,9.1385,20.1017.5959,1.3261,1.0363,2.7271,1.4736,4.117.1819.578.1678,1.2176.2817,2.1465-1.8662-.698-2.7453-1.983-3.804-3.0197-1.0294-1.0082-1.9972-2.0793-3.1748-3.3146-.4691,1.1335-.1898,2.0123-.0283,2.8707,1.716,9.1217,3.5081,18.2296,5.1414,27.366.9682,5.416,1.9331,10.8528,2.4562,16.3226.542,5.6672,1.0171,11.405.1624,17.0808-1.16,7.7041-4.2152,14.4906-10.4945,19.4701-4.3095,3.4174-9.3658,4.0411-14.5367,3.2225-5.4889-.869-9.464-5.8402-9.9214-11.7114-.0412-.5288.0046-1.0704-.0897-1.5879-.312-1.7125-2.0976-2.6844-3.6099-1.8266-1.1898.6748-2.3812,1.4942-3.2784,2.5089-2.3268,2.6315-4.4386,5.4519-6.7333,8.1133-3.6974,4.2882-7.7389,8.1965-12.7127,11.0313-.7043.4014-1.2877,1.0151-2.2039,1.7538.7448.249,1.0865.4631,1.4277.4625,5.6029-.0097,11.0619,1.2416,16.5726,1.9681,16.8452,2.2207,33.6974,2.9048,50.6119.9722,1.3671-.1562,2.7368-.2889,4.3175-.4548-.0708.7403-.0115,1.276-.183,1.7232-1.0676,2.7852-2.1679,5.5583-3.296,8.3196-.6905,1.6901-1.8254,2.5291-3.8249,2.4531-10.341-.3932-20.2668,1.7829-30.0832,4.8439-8.3077,2.5906-16.3044,5.9774-24.3958,9.1123-11.7645,4.5581-23.7356,8.3591-35.949,11.5428-10.6995,2.7891-21.5804,4.3078-32.4905,5.6728-9.9536,1.2454-19.9941,1.3875-30.0068.8286-5.6246-.314-11.2133-1.2324-16.5398-3.2228-8.0894-3.0228-14.3979-8.0855-18.1041-16.0669-.4948-1.0656-1.0288-2.1131-1.662-3.4092Z"/>
    <path class="cls-1" d="M557.3613,152.8984c-1.3818.69-2.6835,1.1952-3.829,1.9404-2.9267,1.9038-6.1614,3.0443-9.427,4.1786-8.3451,2.8989-16.8772,5.1061-25.5001,6.9621-7.2456,1.5595-14.6021,1.7027-21.9829,1.4241-5.2572-.1984-10.4357-.8266-15.5136-2.253-5.1227-1.439-9.7532-3.8055-13.8312-7.2156-2.4866-2.0794-4.3133-4.7286-5.5905-7.6518-3.1941-7.3102-3.313-14.7847-.7074-22.3123.195-.5633.4042-1.1217.5904-1.6878.039-.1185.0057-.2607.0057-.5682-.4404.0884-.8631.1325-1.2596.259-4.7886,1.5274-8.9587,4.2778-13.2401,6.7892-2.6289,1.5421-5.1292,3.3024-7.7007,4.9438-1.1262.7189-1.9963,1.5082-1.6859,3.0501.0923.4586-.1623.987-.3215,1.8135-.9704-.6068-1.7138-1.0716-2.6964-1.686-2.5717,2.6338-5.4653,5.1196-7.7801,8.0608-6.0422,7.6776-10.6968,16.1432-12.9289,25.7439-1.7192,7.3943-1.2064,14.6325,2.2703,21.5104,1.799,3.5589,4.4686,6.4363,7.5103,8.9219,6.5995,5.3929,14.2207,8.6949,22.5112,10.479,1.6773.361,3.4172.4426,5.1319.6163,12.1791,1.2337,24.3684,1.1937,36.5738.395,5.6917-.3725,11.3988-.5062,17.0975-.7763,2.1074-.0999,4.211-.2806,6.2788-.4219.5468,1.1894-.1495,1.537-.8235,1.8025-1.6651.6559-3.3393,1.2936-5.0325,1.8723-4.8277,1.6499-9.6582,3.2931-14.5062,4.8818-1.6344.5356-3.3295.8832-4.9881,1.3482-1.0207.2862-2.0722.5291-3.0276.9697-3.3273,1.5343-6.8279,2.0824-10.4536,2.0369-7.0306-.0883-14.0946.2236-21.0834-.3628-8.9606-.7518-17.6687-2.8146-25.5056-7.6238-5.5262-3.3913-9.8116-7.8683-12.5099-13.7802-2.8685-6.2848-4.4558-12.8386-4.5252-19.8123-.0817-8.2134,1.3532-16.1301,4.2039-23.763,3.1437-8.4172,7.9355-15.8729,14.0903-22.4365,1.3544-1.4444,2.7023-2.8949,4.183-4.4816-.5849-.608-.9989-1.0992-1.4737-1.5222-3.2829-2.9248-6.9616-5.2849-10.6812-7.6078-3.3726-2.1062-6.665-4.3494-9.9082-6.6514-2.3787-1.6884-3.2687-4.3762-3.6985-7.0535-.3289-2.0496-.2277-4.254.1309-6.3113.8896-5.1036,4.2891-8.1495,9.0328-9.6117,2.4438-.7533,5.0676-1.1898,7.6237-1.258,5.8975-.1573,11.8076-.1312,17.7048.0602,6.6944.2172,13.3956.5216,20.0662,1.1044,8.452.7384,16.8756,1.7999,25.3127,2.7112,1.7143.1852,3.432.3476,5.1516.4721,1.1516.0834,2.2021.3769,3.2529,1.1498-.1498.5121-.2514,1.0157-.442,1.4829-.7267,1.7804-1.5456,3.5256-2.2117,5.3277-.9087,2.4587-2.6033,4.0777-4.9411,5.1669-3.2445,1.5117-6.4408,3.1264-9.6796,4.6506-3.5386,1.6653-7.0961,3.2908-10.6591,4.9036-.83.3757-1.4812.8479-1.7337,1.7703-1.4434,5.2746-1.997,10.5425.0158,15.8165,1.4314,3.7507,4.1383,6.4104,7.3077,8.702,4.1238,2.9816,8.8004,4.5436,13.7386,5.4846,6.7922,1.2943,13.6044,2.1366,20.5559,1.8873,6.0664-.2176,11.9633-1.5135,17.9417-2.2847,7.3554-.9489,14.3328-3.2707,21.3441-5.4819,4.5647-1.4396,8.9607-3.2933,12.8853-6.1204.9082-.6542,1.861-1.328,3.2499-.8511.0473.4538.1442.9608.1447,1.468.0019,1.5919.0179,3.1864-.0643,4.7752-.1211,2.3387.9677,4.0124,2.646,5.5065,3.2216,2.868,7.0141,3.4637,10.9926,2.5493,4.2539-.9777,8.5014-2.1189,12.5987-3.6092,5.4775-1.9923,10.8097-4.3845,16.1988-6.6181.7832-.3246,1.5995-.6547,1.8942-1.9007-14.5773-3.1063-29.2034-5.0136-44.3575-4.8064.1363-.9347.0785-1.7541.382-2.4052,1.2035-2.5816,2.4785-5.1328,3.8286-7.6406.2755-.5117.9407-.9081,1.5142-1.1421.7889-.3219,1.655-.4716,2.4993-.6377,7.8632-1.5476,14.4884-5.4241,20.192-10.918,4.4-4.2383,8.4397-8.8066,12.006-13.791,1.2294-1.7184,2.6591-3.3223,4.1746-4.7961.872-.848,2.0446-1.458,3.1805-1.945,1.3614-.5838,2.0918-.289,2.7277,1.0989.6028,1.3159,1.0755,2.7171,1.4047,4.1277.8585,3.6791,2.3056,7.0485,4.7807,9.939.2134.2492.377.5412.7523,1.0882.6702-.9414,1.1637-1.5946,1.6155-2.2756,2.4915-3.7556,4.7808-7.6638,7.4997-11.2461,4.8356-6.371,10.3966-12.0555,17.2421-16.3358,5.977-3.7372,12.1587-3.6391,18.4282-.8295,3.9936,1.7897,7.3568,4.4613,10.3102,7.662,1.8364,1.9903,3.0976,4.332,3.7148,6.9458.281,1.1899.3333,2.5382.0839,3.7298-.8162,3.8998-2.014,7.6921-3.8242,11.2675-1.7342,3.4252-4.2985,6.0683-7.6759,7.8393-12.5442,6.5776-25.8389,9.4711-39.9869,7.8176-3.0878-.3609-6.171-.9618-8.626-3.0489-1.29.4239-1.515,1.5558-2.0827,2.4134-.4316.6521-.5895,1.9741-1.7281,1.4284-.9542-.4573-.0707-1.4105-.0017-2.1374.0366-.3864.2055-.7686.3588-1.1343.6088-1.4523.414-2.609-.8884-3.6869-2.2155-1.8336-2.944-4.4723-3.5667-7.1586-.4324-1.8651-.9623-3.7168-1.5951-5.5232-.5464-1.5601-1.2538-1.7767-2.4834-.6416-1.5478,1.4288-3.1141,2.9231-4.2943,4.6479-3.184,4.6534-6.2923,9.3543-10.093,13.5403-.6602.7271-1.4929,1.3012-2.2652,1.9222-.6554.527-1.4282.9533-1.5249,1.9541.2251.1346.3758.288.5485.3189,6.9779,1.2489,13.9494,2.5363,20.9393,3.715,11.6192,1.9593,23.3215,2.6412,35.0951,2.1109,1.3642-.0614,2.7335-.0083,4.3452-.0083-.3127,1.0067-.5085,1.8331-.8229,2.6116-.943,2.3356-1.911,4.6618-2.9109,6.9736-.7184,1.661-.7805,1.6932-2.5238,1.5349-4.3321-.3935-8.5845.0956-12.8548.8494-9.4959,1.6762-18.3057,5.191-26.9989,9.2521-6.1121,2.8553-12.5351,5.0471-18.8307,7.5057-1.4806.5782-3.0132,1.0222-4.512,1.5554-3.4856,1.24-7.0997,1.6759-10.7664,1.579-3.2698-.0864-5.8334-1.4734-7.5124-4.4156-1.4643-2.566-2.6013-5.2168-2.8942-8.1848-.0574-.582-.1704-1.1585-.2964-1.9932ZM672.5856,105.5236c-.9528-2.1661-1.998-4.2061-3.8114-5.7665-.9549-.8216-1.8343-1.7305-2.7764-2.5677-2.2417-1.9923-4.6144-3.8274-7.4168-4.9463-6.5914-2.6318-12.7699-2.0924-18.5656,2.3124-6.418,4.8778-11.6568,10.8051-16.1918,17.4071-.4622.673-.8033,1.4292-1.2343,2.2079.4727.2302.6965.4141.9405.4467,3.4138.4562,6.8189,1.0488,10.2487,1.2958,5.2616.3788,10.4524-.5175,15.6326-1.3193,6.2671-.97,12.1419-3.3003,18.0973-5.3298,2.0193-.6881,3.7584-1.916,5.0772-3.7403ZM475.8124,109.7728c-.4908-.1159-.8464-.2484-1.2105-.2785-4.7515-.3933-9.5026-.7914-14.2567-1.1508-12.2314-.9246-24.4747-1.5636-36.7472-1.2783-3.1118.0724-6.2233.2503-9.3287.4684-1.4939.1049-2.9882.3753-4.3557,1.5338.9797,1.0874,2.1628,1.6701,3.2826,2.3216,4.469,2.5999,8.9049,5.2465,13.0305,8.383,3.7974,2.8871,7.1213,6.1447,8.9118,10.7072.2428.6186.7718,1.1248,1.1925,1.7171.5556-.3251.9419-.4684,1.2213-.7273,3.6921-3.4209,8.1975-5.626,12.5147-8.0267,7.6357-4.246,15.3424-8.3976,23.4626-11.6965.8916-.3622,1.7817-.8171,2.2828-1.973Z"/>
    <path class="cls-1" d="M677.8101,11.2809c.2166-.5368.4183-1.0836.6245-1.6273-.446.077-.8937.1644-1.3313.2883-3.381.9568-6.7474,1.9649-10.1223,2.9435-16.551,4.7992-33.1255,9.5193-49.645,14.4246-8.0037,2.3766-15.9086,5.0873-23.8517,7.6669-7.1859,2.3337-14.3836,4.6336-21.5372,7.0629-5.8359,1.9818-11.6215,4.1126-17.4161,6.2138-6.1069,2.2144-12.261,4.316-18.2814,6.7472-9.2196,3.7231-18.383,7.5935-27.4882,11.5885-4.3041,1.8884-8.4569,4.1385-12.5964,6.3762-1.4293.7726-2.8165,1.8306-3.8565,3.0666-1.4853,1.7651-2.6596,3.797-3.9134,5.7492-.5279.822-.9223,1.7306-.7958,3.0538.8071-.3302,1.4695-.5649,2.1006-.8653,4.4888-2.136,8.9297-4.3782,13.4648-6.4101,8.0464-3.6052,16.1331-7.1219,24.2347-10.6017,3.8359-1.6476,7.7371-3.1452,11.6235-4.6731,4.8132-1.8923,9.6261-3.7877,14.4677-5.6054,6.8876-2.586,13.7745-5.1783,20.7117-7.6262,6.1872-2.1832,12.4315-4.2071,18.6702-6.2413,7.4998-2.4454,15.0132-4.8499,22.5344-7.2288,4.8027-1.519,9.6082-3.0361,14.4506-4.4208,13.8276-3.954,27.5864-8.1616,41.6038-11.4262,1.4592-.3398,2.6873-.9601,3.7028-1.8539.7122-2.2475,1.7616-4.4092,2.6459-6.6016Z"/>
    <path class="cls-1" d="M371.7294,16.3282c.8787,1.9873,1.7988,3.9576,2.6288,5.9651,2.9363,7.1016,6.183,14.0867,8.1986,21.5378.2647.9786.8052,1.9792.0127,3.2423-1.7509-1.7252-3.4112-3.3613-5.0716-4.9974-.1377.0626-.2755.1252-.4132.1877.1547,1.331.2592,2.67.4723,3.9916,1.5621,9.6832,3.127,19.366,4.7296,29.0426,1.0396,6.2773,2.2882,12.5232,3.188,18.8196,1.566,10.9584,3.0967,21.9269,4.3337,32.9258.9403,8.3611,1.4959,16.7699,2.0466,25.169.4366,6.658-.1814,13.2516-2.0413,19.6926-.2571.8905-.5254,1.7817-.8593,2.6452-.5722,1.4796-.5957,1.4705-2.5873,1.3165-.0323-.7298-.0815-1.4945-.0975-2.2599-.1075-5.1051.0573-10.2328-.3733-15.3102-.6325-7.4593-1.6746-14.8845-2.5691-22.3209-.6887-5.7258-1.3295-11.4596-2.1543-17.1663-.9191-6.3603-2.055-12.689-3.0352-19.0409-.8491-5.5026-1.5571-11.0273-2.4281-16.5262-.9848-6.2164-2.1217-12.4085-3.1193-18.6229-1.0503-6.5428-2.0205-13.0985-3.014-19.6503-.8833-5.8253-1.7666-11.6507-2.6041-17.4827-.1-.6963-.0789-1.4984.1704-2.1412,1.0765-2.7758,2.2532-5.5129,3.4094-8.2574.1492-.3542.3908-.6694.5896-1.0027.196.0811.392.1622.588.2433Z"/>
    <path class="cls-1" d="M335.8517,13.4392c-1.1674,2.3458-2.1319,4.8538-3.8945,6.8095-.7983.8858-2.2797,1.2739-3.526,1.6141-2.8095.7669-5.6919,1.2686-8.4978,2.0471-7.7274,2.144-15.4527,4.3012-23.1381,6.5898-9.9699,2.9689-19.9332,5.9677-29.8386,9.1431-9.7176,3.1151-19.4294,6.2745-29.0148,9.7684-10.2696,3.7433-20.4194,7.8233-30.5638,11.8997-8.057,3.2376-16.0644,6.6057-24.0209,10.083-4.3068,1.8823-8.4582,4.1195-12.6866,6.1824-.5555.271-1.0361.9156-1.9019.4087,0-.191-.0753-.4646.0111-.6705,1.7631-4.2016,4.1953-7.8241,8.4908-9.8574,5.6318-2.6657,11.1941-5.4864,16.8905-8.0048,5.3291-2.3561,10.7759-4.4511,16.2041-6.5761,5.9243-2.3192,11.8619-4.6093,17.8397-6.7855,5.9777-2.1762,11.9986-4.2366,18.0256-6.2737,7.093-2.3973,14.1915-4.7826,21.3273-7.0479,7.0728-2.2453,14.1947-4.3356,21.2959-6.4912.8245-.2503,1.6621-.4592,2.4804-.7278,12.4068-4.0722,25.0301-7.3988,37.5997-10.909,2.1538-.6015,4.344-1.0728,6.5173-1.6043l.4005.4022Z"/>
    <path class="cls-1" d="M398.1134,81.7207c.295-1.0732,1.0728-1.4805,1.82-1.8624,8.3897-4.2881,16.5516-8.9765,24.6071-13.8596,5.0636-3.0694,9.8609-6.4881,14.307-10.3992,1.6436-1.4458,3.3134-2.8624,4.9347-4.3326.8293-.7519,1.5779-1.5926,2.5679-2.6022-.6493-.3548-1.1091-.674-1.6164-.8714-2.1534-.8377-3.8949-2.2589-5.4957-3.8641-2.0744-2.08-2.6054-4.6164-1.7226-7.3421,1.2242-3.7799,3.8175-6.6381,6.7757-9.1515.7247-.6158,1.7446-.9662,2.6873-1.227,2.1697-.6001,4.0368.4383,4.5981,2.6124,1.0439,4.0432,1.1225,8.1281.2336,12.222-.1807.8327-.3126,1.676-.5019,2.7042.804.1782,1.5114.2776,2.1799.4959,1.1242.3671,2.2834.698,3.3177,1.2505,1.1597.6195,1.3099,1.1186.6674,2.2807-2.977,5.3846-3.8453,11.4052-5.2049,17.2621-.9763,4.2053-1.3447,8.5209-1.1222,12.8489.0673,1.3086.3068,2.6469.7137,3.891.7381,2.2573,3.196,2.6397,4.6306.7385.5431-.7198.9117-1.6162,1.1784-2.4877.3058-.9992.8276-1.4534,1.9748-1.2482.0631.1938.2121.43.2042.6609-.0853,2.4828-.6698,4.8671-1.7327,7.094-.3816.7993-1.0874,1.5234-1.8076,2.0667-2.2093,1.6668-3.893,1.4153-5.6848-.7177-1.7311-2.0606-2.5339-4.4518-2.6521-7.132-.2301-5.2166.3837-10.3213,1.7607-15.3542.6995-2.5568,1.1998-5.1687,1.9168-7.7201.5681-2.0219,1.3292-3.9897,2.0769-6.1947-1.8399-.7417-3.8331-1.5452-5.7813-2.3305-1.2576,1.7047-2.308,3.307-3.5361,4.7592-3.4029,4.0238-7.3459,7.4779-11.6465,10.505-5.8064,4.087-11.6421,8.1781-18.1446,11.0831-5.1976,2.322-10.5828,4.2244-15.8882,6.3041-.1035.0406-.2502-.0292-.6147-.0818ZM449.1635,43.1739c.1459-2.4505.328-4.479.3666-6.5103.0266-1.4-1.1504-2.846-2.5162-3.1678-.6904-.1627-1.4406-.1321-2.1599-.1005-1.8387.0809-3.1762,1.0445-3.6055,2.5322-.3397,1.177.4375,3.0995,1.7764,3.9007,1.8536,1.1092,3.7919,2.077,6.1386,3.3457Z"/>
    <path class="cls-1" d="M46.4608,120.5971c-.8993-1.0926-1.1723-2.4619-1.4421-3.7935-1.1974-5.9094-2.3008-11.8379-3.516-17.7434-1.3756-6.6853-2.8604-13.348-4.2422-20.032-.4825-2.334-1.0522-4.6926-1.1409-7.0565-.189-5.0417,2.1433-8.9072,6.2528-11.722.8702-.5961,1.8645-1.0089,2.7879-1.5302.559-.3156,1.0918-.6776,1.7018-1.0597-2.2891-1.5713-3.5847-1.4844-5.1958.2501-.6579.7084-1.2774,1.4524-2.0783,2.0634.3269-3.8398,1.4298-7.222,5.2647-9.2984-2.0659-4.5364-4.0032-9.1462-7.9606-12.7389-.1531.1861-.3138.3506-.4392.5387-.7647,1.147-1.0498,1.2797-2.2233.7734-.6649-.2869-1.2888-.6815-1.9011-1.0745-1.2834-.8237-2.485-1.8008-3.8364-2.4852-1.3108-.6639-1.8861-1.5388-1.6855-2.9756.1555-1.114.1512-2.2637.4264-3.3445.4767-1.8727,1.6504-2.467,3.4228-1.762,3.2513,1.2932,6.0714,3.2133,8.3627,5.8988,2.0782,2.4358,3.8801,5.0386,5.2183,7.9561.2903.6329.6698,1.2248,1.0082,1.8355.152-.0285.3041-.057.4561-.0855.0547-.6166.153-1.2329.1563-1.8497.0107-2.0562.0134-4.1131-.0287-6.1688-.076-3.7084.84-7.2321,2.0078-10.6965.7174-2.1283,2.6249-3.0563,4.7438-2.4477.7001.2011,1.3819.4658,2.0733.6974,2.3234.7783,4.5516,4.2536,2.7368,8.0167-.9288.158-1.1818-.6245-1.5941-1.1862-1.2945-1.7634-3.9648-2.4934-5.8331-1.6148-.7627.3587-1.3376.8527-1.4763,1.733-.0927.5882-.2506,1.1728-.2778,1.7636-.2715,5.8962-.5029,11.7943-.793,17.6896-.0644,1.3088.3031,2.0993,1.4942,2.8915,2.0804,1.3837,3.9924,3.0565,5.8232,4.7704,2.0427,1.9123,1.0895,5.4476-1.6246,6.303-.8791.2771-1.8093.4127-2.7259.5461-2.9778.4333-5.8083,1.3397-8.5264,2.6083-.5984.2793-1.1678.6276-1.7286.9791-1.6465,1.0322-2.2471,2.4245-1.8127,4.4019,1.2937,5.8896,2.5301,11.793,3.6978,17.709,1.6682,8.4519,3.2621,16.9185,4.8691,25.3823.1976,1.0405.3574,2.1.3935,3.1555.0302.8812-.1464,1.7695-.2314,2.6546-.1945.0159-.3891.0317-.5836.0476Z"/>
    <path class="cls-1" d="M229.1351,98.7105c-1.6223-1.4187-2.6381-1.4368-4.1801-.0903-.731.6383-1.4261,1.3177-2.2699,2.1014-.2095-3.0918,1.4748-6.438,3.8095-7.6509.8114-.4215,1.0428-.9716.8769-1.7564-.108-.5109-.2676-1.0389-.5308-1.4843-1.4503-2.4548-2.8855-4.9218-4.4422-7.3088-.6318-.9687-1.5574-1.7459-2.4906-2.7645-.5114.7424-.866,1.2571-1.3547,1.9666-2.2584-1.3188-4.5467-2.6183-6.7945-3.9844-.9913-.6025-1.3849-1.6423-1.3222-2.7438.0672-1.1823.3153-2.3569.524-3.5278.1671-.9375.7922-1.2888,1.7179-1.2897,1.6517-.0017,3.1513.5116,4.4992,1.3947,2.2286,1.4603,4.2716,3.1289,5.7755,5.3931,1.7419,2.6227,3.5564,5.1972,5.4035,7.886.0544-.4026.157-.8187.1594-1.2355.0144-2.5211.0084-5.0423.0042-7.5635-.0043-2.5462.4206-5.0198,1.3002-7.4067.25-.6783.5398-1.3674.9475-1.9575,1.4153-2.0483,2.809-2.4454,5.1319-1.5263.5529.2188,1.103.4699,1.6077.7817,3.1682,1.9573,3.048,2.8193,2.5939,6.1351-.1399,1.0218-.9251,1.2408-1.7116.5494-.2952-.2595-.5204-.6005-.7679-.9119-.9507-1.1954-2.2333-1.62-3.7014-1.5464-1.81.0907-2.5027.6681-2.7148,2.4988-.2286,1.9739-.3178,3.9649-.437,5.9502-.2424,4.0389-.4681,8.0789-.6898,12.119-.0323.5884-.0045,1.1802-.0045,1.7844,2.8767,1.1308,4.7612,3.4083,6.8919,5.3562.9913.9063,1.4086,2.1323.7633,3.4417-.6577,1.3345-1.138,2.7612-3.0444,3.0237-3.2095.4421-6.4392.9199-9.3899,2.4202-.4724.2402-.9769.4185-1.4428.6696-2.2453,1.2101-2.828,2.3582-2.3179,4.8598,1.4435,7.0789,3.0052,14.1345,4.3728,21.2278,1.4555,7.5491,2.7565,15.1283,4.0801,22.7022.1372.7852.4852,1.9829-.6239,2.2214-1.1683.2512-1.2377-1.0603-1.3934-1.7916-.4823-2.2656-.7104-4.5851-1.1849-6.8527-1.9679-9.4047-4.0175-18.7923-5.976-28.1988-.6076-2.9179-1.1141-5.8646-1.4821-8.8211-.1592-1.2792-.1269-2.7151.2978-3.9095,1.3148-3.6979,3.2036-7.0026,7.2382-8.434.9138-.3242,1.8621-.7078,2.2723-1.7268Z"/>
    <path class="cls-1" d="M518.0483,81.5264c-.4678,1.7492-.8079,3.6476-1.481,5.4196-1.9366,5.0979-3.2315,10.3628-4.3949,15.6722-.8787,4.0103-1.8929,7.9931-2.6789,12.0208-.6639,3.4021-.7914,6.8442.1555,10.2483.5429,1.9519,1.4935,3.6851,2.8248,5.1955,2.2275,2.5272,5.4759,2.4222,7.4513-.274,1.2822-1.75,2.4491-3.5845,3.7317-5.4754.8848.0383,1.5685.4533,1.3231,1.5812-.8455,3.886-1.6875,7.804-3.8457,11.2147-2.3136,3.6563-5.8452,4.7827-9.827,3.4023-1.1133-.3859-1.9762-1.0219-2.5909-2.0377-3.107-5.134-4.746-10.5772-3.9609-16.6687,1.2827-9.9524,3.2939-19.7212,6.7839-29.1555.8961-2.4222,1.6567-4.896,2.5976-7.2998.5035-1.2862,1.2313-2.4893,1.9103-3.7006.4464-.7964,1.0892-.8876,2.0013-.1429Z"/>
    <path class="cls-1" d="M605.0852,202.3986c.6303-.6073.9231-.9102,1.24-1.1855.1473-.1279.3312-.2298.5156-.2964,7.6469-2.7651,13.262-8.397,19.183-13.5952,3.6562-3.2098,7.6569-5.9104,11.9845-8.1251,2.1405-1.0955,4.411-1.7998,6.7934-2.1533,1.5008-.2227,2.8643-.0664,4.1367.9031.6026.4592,1.4107.7233,2.1666.8903,1.3974.3087,2.4553-.0946,3.3816-1.3725,2.179-3.0062,4.592-5.8259,7.4672-8.2265,1.7849-1.4903,3.7722-2.1769,6.0664-1.9291,2.4853.2684,3.3725,1.3264,3.3076,3.7838-.0568,2.1482-.7774,3.9402-2.3331,5.5093-3.4577,3.4879-7.3914,6.0362-12.3373,6.722-2.4978.3463-4.9649.4228-7.453-.4251-3.5684-1.216-7.1517-1.0629-10.683.4095-4.3959,1.833-8.2019,4.5889-11.9535,7.4375-2.9571,2.2454-5.8536,4.5709-8.8212,6.8021-3.22,2.421-6.7611,4.1781-10.7774,4.8405-.4666.0769-.957.0104-1.884.0104ZM656.3607,178.124c.9809,1.0787,1.7261.5276,2.4157.2378,2.0149-.8469,4.0204-1.7192,6.0015-2.6418.8336-.3882,1.6428-.8662,2.3779-1.4171.6334-.4746,1.1887-1.0923.8989-2.0222-2.3009-1.0861-4.5299-.9075-6.2948.5948-1.4124,1.2023-2.7717,2.4685-4.1227,3.7403-.4644.4371-.8323.9767-1.2766,1.5081Z"/>
    <path class="cls-1" d="M87.0892,207.9553c-2.5998-1.6241-5.0099-3.128-7.4178-4.6353-.5611-.3513-1.1062-.7288-1.6733-1.0699-2.0219-1.2158-3.0702-.8378-4.0172,1.2942-.8316,1.8723-1.7725,3.6963-2.6769,5.5359-.1131.23-.2976.4248-.5123.7241-3.8274-2.3379-7.6153-4.6517-11.5666-7.0653.61-1.1379,1.0941-2.0616,1.597-2.9748,1.0212-1.8545,2.1001-3.6792,3.0595-5.5649.4682-.9202,1.0667-1.1194,1.9214-.7191.9567.448,1.9178.9014,2.8221,1.4439,1.7597,1.0556,3.4689,2.195,5.2238,3.2589.7781.4717,1.6164.8442,2.6777,1.3906.6521-1.2215,1.2406-2.2993,1.8061-3.389.7303-1.4073,1.3698-2.8677,2.1859-4.2224.6039-1.0024,1.2741-1.1896,1.9461-.5682,2.4225,2.2402,5.6385,3.1818,8.2242,5.1428.621.471,1.3033.8611,2.0991,1.381-.9794,1.7222-1.8882,3.3182-2.7951,4.9155-.9105,1.6036-1.8189,3.2083-2.9038,5.1221Z"/>
    <path class="cls-1" d="M525.7074,182.8448c3.1805,1.9814,5.9907,3.711,8.779,5.4753,2.6708,1.69,3.086,1.5744,4.3757-1.3141.3508-.7857.7089-1.5716,1.1236-2.3244.6334-1.1498,1.319-2.271,1.9717-3.3861,1.8003.5911,10.4036,5.8399,11.4859,7.0854-1.4838,2.7493-3.0039,5.5957-4.5564,8.4244-.4721.86-1.2748.941-2.0641.5417-.8229-.4163-1.5733-.9741-2.3645-1.455-2.4848-1.5106-4.974-3.0141-7.5953-4.6014-1.3589,1.1525-1.9462,2.718-2.7305,4.1333-.7664,1.383-1.4691,2.8014-2.2736,4.3461-3.9157-2.3592-7.6817-4.6281-11.6027-6.9906,1.7975-3.2758,3.5322-6.4374,5.4512-9.9346Z"/>
    <path class="cls-1" d="M310.9945,62.9526c-.7969-.4228-1.2462-.6824-1.7131-.9051-2.1411-1.0213-3.851-2.5344-5.2992-4.4082-1.1977-1.5497-1.2959-3.1826-.5024-4.8482,1.3222-2.7753,3.1378-5.2421,5.3082-7.4021.7127-.7092,1.7499-1.2357,2.732-1.5019,2.2788-.6179,3.4627.1872,4.1166,2.4681,1.0459,3.6478,1.3192,7.2939.0975,10.9618-.1414.4244-.1796.8832-.2964,1.485.7589.2171,1.4542.3872,2.1293.6166.8121.276,1.6359.5443,2.4011.9239.7456.3698,1.0219,1.0118.635,1.8301-.0282.0597-.0447.1249-.0683.1868-1.2621,3.3105-2.5495,3.7764-5.6746,2.0339-.6309-.3518-1.2337-.7539-2.0277-1.2425-.7612.9383-1.558,1.8028-2.2206,2.76-1.7143,2.4762-3.7723,4.6179-6.0972,6.5158-6.0779,4.9616-12.4779,9.4779-19.5119,12.9565-4.0261,1.9911-8.3224,3.4375-12.5082,5.1013-.3938.1566-.8673.1128-1.4104.174.0254-1.1686.8853-1.3876,1.5273-1.732,2.8031-1.5036,5.6582-2.9122,8.4379-4.4572,7.4201-4.1242,14.8023-8.3211,21.4281-13.6836,2.318-1.8761,4.5242-3.8919,6.7526-5.8763.5756-.5126,1.0422-1.1477,1.7643-1.9568ZM313.6682,57.8671c.1575-1.5839.4243-2.9394.3987-4.2893-.0519-2.74-1.4345-3.9049-4.182-3.7797-1.2837.0585-2.3129.404-2.7777,1.7686-.5026,1.476-.3051,2.52.8844,3.5578,1.5148,1.3215,3.2672,2.1902,5.6766,2.7427Z"/>
    <path class="cls-1" d="M69.5693,43.9914c-.4606-1.2619-.1895-1.744.8707-2.171,4.5443-1.8304,9.041-3.7797,13.5425-5.7148.45-.1934.8153-.5838,1.189-.8598-.3388-1.1813-1.1518-1.405-2.0382-1.4925-2.5052-.2473-5.0085-.5274-7.5187-.7077-2.8181-.2024-5.643-.3099-8.6339-.4676.1795-.3847.3453-.9344.6592-1.3796,1.4891-2.1117,3.0246-4.1906,4.5311-6.2901.6912-.9632,1.7032-1.2387,2.7863-1.2762,3.7831-.1309,7.5589-.121,11.2468.9263,1.7204.4885,3.4467.9574,5.1601,1.4695,2.5882.7737,3.2325,2.2472,2.061,4.6696-1.677,3.4679-4.2724,6.2193-7.0719,8.7652-.9038.8219-2.1179,1.3719-3.2749,1.8338-4.2959,1.7148-8.8783,1.9997-13.5091,2.695Z"/>
    <path class="cls-1" d="M538.0211,31.2403c.9601-1.466,1.6741-2.6431,2.4762-3.7567.8122-1.1276,1.786-2.1431,2.5507-3.2992.6874-1.0391,1.5515-1.5737,2.7738-1.625,5.0629-.2124,10.0718.0153,14.8977,1.7787.4351.159.8708.3229,1.2888.5214,2.7747,1.3176,3.1986,2.5397,1.6655,5.1599-1.9278,3.2946-4.4757,6.0741-7.4236,8.4768-.6543.5333-1.4514.9674-2.2538,1.2306-4.3657,1.432-8.9193,1.825-13.4212,2.4502-.1239-.3066-.2252-.482-.2622-.67-.0365-.1853-.008-.3834-.008-.5173,4.5478-1.9597,9.0393-3.8866,13.521-5.836.6558-.2852,1.3752-.5648,1.8693-1.0475.7057-.6893.3892-1.5805-.5957-1.7545-1.2367-.2185-2.4951-.3579-3.7498-.4233-4.0343-.2103-8.0712-.3699-12.1069-.5528-.2538-.0115-.5063-.0548-1.2219-.1353Z"/>
    <path class="cls-1" d="M567.7417,197.1157c-.5926-3.2139.3723-5.3877,3.0321-6.5341,4.9232-2.122,9.8764-4.1782,14.855-6.1667,5.5927-2.2337,11.1921-4.4593,16.8528-6.5111,6.7192-2.4356,13.5042-4.6903,20.2691-6.9989.7141-.2437,1.4845-.3223,2.6014-.5552-.9455,2.7556-1.649,4.9001-4.5547,5.8672-6.9703,2.3201-13.8156,5.0128-20.7386,7.4789-7.3,2.6004-14.5354,5.3526-21.5783,8.5957-3.1228,1.438-6.4469,2.4495-9.2963,4.4701-.3736.265-.9515.2419-1.4426.3541Z"/>
    <path class="cls-1" d="M135.4851,211.4581c-.892-3.0989-.1103-5.2625,2.4883-6.3934,6.0694-2.6413,12.1601-5.2414,18.3098-7.6879,6.2734-2.4957,12.6093-4.8385,18.9528-7.1524,4.7872-1.7462,9.6253-3.3538,14.4513-4.9917.7996-.2714,1.654-.3814,2.5688-.5851.3989,1.2408.0689,2.1935-.5279,3.0993-.8348,1.267-2.0267,2.0884-3.4161,2.6164-1.7946.682-3.6103,1.3086-5.4166,1.9598-5.8536,2.1103-11.7442,4.1243-17.5518,6.3544-8.4022,3.2264-16.869,6.3095-24.9469,10.3232-1.0072.5005-1.9716,1.0867-2.9736,1.5983-.6211.3171-1.2759.5684-1.938.859Z"/>
    <path class="cls-1" d="M122.7467,44.7895c.2325-1.4186.5214-2.8307.687-4.2571.5143-4.4314,1.5231-8.7469,2.9203-12.9771.1456-.4407.3037-.8772.4531-1.3167,1.4667-4.3142,4.6251-4.7962,8.1017-2.2433,1.9539,1.4347,3.0721,3.2876,2.0797,5.8539-.3021.7813-.4631,1.6173-.7855,2.7764-1.1832-1.0267-2.1228-1.826-3.0448-2.6452-2.4325-2.1613-3.5362-2.0393-4.8603.9756-.8137,1.8529-1.2787,3.9024-1.6157,5.9114-.548,3.2666-.8073,6.5807-1.2962,9.8587-.3122,2.0931-.7945,4.1628-1.2634,6.2287-.0712.3136-.4815.7662-.7404.7699-.3784.0055-.9475-.2396-1.1098-.5488-.5829-1.1103-1.0698-2.2768-1.5172-3.451-.6371-1.672-1.1864-3.3774-1.8114-5.0542-.7276-1.9521-1.8606-3.6541-3.2778-5.1785-.8686-.9343-1.6432-1.8204-3.1997-1.299-.5489.1839-1.4043-.2783-2.0215-.6219-1.389-.7734-2.7321-1.6337-4.0591-2.5113-.3609-.2386-.829-.649-.8529-1.0069-.1185-1.7721-.2236-3.5618-.0954-5.3279.0847-1.1663,1.1403-1.5437,2.2015-1.6203,1.9998-.1444,3.6045.7881,5.0232,2.0382,2.1045,1.8543,3.9172,3.9808,5.2068,6.4825,1.3345,2.5888,2.5453,5.2413,3.8183,7.8619.2212.4554.483.891.726,1.3358.1112-.0112.2224-.0224.3337-.0337Z"/>
    <path class="cls-1" d="M195.9578,73.854c.0509.8256.2066,1.5194.1059,2.1737-.1296.8423-.4335,1.6639-.716,2.4757-2.7709,7.9612-4.7461,16.1425-6.3055,24.4021-.5408,2.8644-.1465,5.934.0341,8.8968.1458,2.3912,1.6219,4.1623,3.4126,5.626,1.555,1.2711,3.2274,1.2695,4.6292-.2003,1.1764-1.2334,2.0961-2.7143,3.1054-4.1031.3418-.4703.6098-.9942.9224-1.5115,1.016.2289,1.1919.8959,1.0844,1.6635-.5997,4.2805-1.9106,8.2075-5.0399,11.425-2.5558,2.6279-7.6004,2.0516-9.1775-1.2248-1.6982-3.528-3.733-6.9625-3.3341-11.0701.3646-3.7546.7849-7.5183,1.4708-11.2242,1.4619-7.8983,3.6109-15.6118,6.713-23.046,1.0676-2.5585,1.3308-3.0948,3.0952-4.2829Z"/>
    <path class="cls-1" d="M142.8432,149.6317c-1.3136-.0966-1.7851-1.0093-2.1241-1.9439-.496-1.3678-.8723-2.7791-1.296-4.173-.8183-2.6921-2.007-5.187-3.886-7.3151-.2631-.298-.5193-.604-.802-.8827-1.2249-1.2072-1.322-1.2155-2.9822-.2669-1.5585-.9564-3.2377-1.8844-4.7893-2.9911-.5915-.4219-1.1791-1.2186-1.263-1.9062-.1735-1.4222-.1546-2.908.06-4.3261.2091-1.3817.8388-1.8476,2.2216-1.7406.9487.0734,2.0005.3429,2.7743.8671,2.4835,1.6824,4.7279,3.6489,6.0857,6.4215,1.2793,2.6123,2.5485,5.2296,3.8248,7.8434.2819.5773.5753,1.149.9423,1.8804.9022-.8669.8386-1.8401.9614-2.6966.6972-4.8591,1.5443-9.6857,3.1315-14.3441.3566-1.0466.8584-2.0994,1.5249-2.9727,1.2881-1.6879,2.9525-2.094,4.739-1.0087,1.2737.7737,2.3046,1.952,3.4205,2.9752.1797.1647.3234.4577.3375.6999.1079,1.8471-.1554,3.623-1.0943,5.6063-.6413-.6575-1.049-1.1482-1.5297-1.5522-.8042-.6758-1.5879-1.4214-2.5018-1.9105-1.3378-.716-2.1321-.4896-2.7522.8803-.6775,1.4965-1.2991,3.0777-1.574,4.6854-.6918,4.0451-1.2157,8.1208-1.7241,12.1946-.2548,2.0415-.8112,4.3579-1.7047,5.9762Z"/>
    <path class="cls-1" d="M66.7713,143.1829c-.2601-.4626-.511-.9307-.7842-1.3854-.1359-.2262-.3015-.4373-.4728-.639-.865-1.0181-1.7213-2.1271-3.2758-1.8377-1.5471.2881-2.1109,1.6089-2.4113,2.8849-.6516,2.7677-1.1785,5.5692-1.6413,8.3758-.5928,3.5944-1.0573,7.2098-1.6138,10.8104-.1072.6934-.384,1.3606-.5527,1.9376-1.1552.3337-1.598-.3515-1.8939-.9781-.6474-1.3707-1.4241-2.7553-1.6887-4.2174-.7448-4.115-3.146-7.2163-5.8144-10.3812-1.5884,1.3216-2.939.4853-4.2834-.4453-.4902-.3393-.9799-.689-1.5057-.9659-3.1926-1.6816-3.069-4.6079-2.0778-7.2006.5699-1.4905,1.3167-1.8119,2.8179-1.2944,2.4923.8591,4.636,2.2187,6.2082,4.4218,2.0865,2.9236,3.9744,5.9455,5.3062,9.3002.4318,1.0876,1.0314,2.1086,1.5542,3.16.1397-.0122.2794-.0244.419-.0366.2507-1.3344.5055-2.6682.7514-4.0035.6712-3.646,1.2425-7.3142,2.052-10.9292.3557-1.5884,1.0351-3.1599,1.8495-4.577,1.2119-2.1088,3.1823-2.5485,5.2725-1.2646,1.117.6861,2.1015,1.6072,3.0721,2.5022.3635.3352.7161.8899.7328,1.3568.0641,1.7874-.1959,3.5255-1.2527,5.0132-.2558.131-.5116.2619-.7674.3929Z"/>
    <path class="cls-1" d="M619.6057,71.838c.1626-.6815.3907-1.3548.4771-2.0459.5846-4.6753,1.3968-9.3088,2.7875-13.8136.4429-1.4348,1.0474-2.8928,1.9042-4.1106,1.5187-2.1586,2.8232-2.3078,5.0794-.9333.5633.3432,1.0464.8184,1.6107,1.1595,2.5509,1.542,2.7055,4.3132.4293,7.8266-.4945-.5757-.9237-1.1187-1.398-1.6189-.9621-1.0145-2.0228-2.2544-3.4703-1.9756-1.5327.2952-2.2964,1.7989-2.6126,3.2489-.6481,2.9727-1.1744,5.9747-1.6609,8.9792-.4868,3.0065-.8589,6.0315-1.2953,9.0464-.0661.4572-.2328.8993-.3094,1.3558-.124.7391-.5239,1.3686-1.2569,1.2637-.4575-.0655-.9864-.6269-1.2138-1.0963-.4586-.9463-.7278-1.9837-1.0848-2.9801-.6247-1.7434-1.0824-3.5753-1.9328-5.2014-.9107-1.7416-2.1609-3.3129-3.3392-4.902-.2762-.3725-.9109-.7931-1.2928-.7216-2.3024.4305-3.9484-.8559-5.6244-2.021-2.2856-1.5887-3.0263-3.9508-2.1825-6.6033.5622-1.7674,1.3007-2.2388,3.0972-1.9776,1.2134.1764,2.2325.6776,3.153,1.5312,3.9208,3.6359,6.6476,8.0382,8.5583,12.9914.3464.898.7684,1.7669,1.1555,2.6492.1405-.0169.2809-.0339.4214-.0508Z"/>
    <path class="cls-1" d="M548.2223,90.2751c.2813-2.0089.6289-4.0111.8302-6.0279.432-4.3289,1.7111-8.4385,3.2531-12.4603,1.0448-2.7251,3.1698-3.3918,5.7781-2.0441.762.3937,1.4992.8537,2.1905,1.3613.8443.6199,1.3535,1.5128,1.3312,2.5563-.0268,1.2539-.166,2.513-.371,3.7508-.0637.3848-.4522.9271-.7784.9976-.3238.07-.8279-.2917-1.1266-.5904-.6541-.6543-1.175-1.445-1.8459-2.0787-1.4494-1.3688-3.3097-1.0943-4.0075.7705-.7355,1.9657-1.2358,4.0472-1.5944,6.1204-.8239,4.7639-1.4751,9.5574-2.2591,14.3286-.1258.7661.0929,1.9456-1.1147,2.0573-1.2228.1131-1.4232-1.0635-1.7358-1.8662-.6723-1.7262-1.2553-3.4926-1.7742-5.2719-.8203-2.8123-2.3506-5.1608-4.3922-7.2253-.5971-.6038-1.1142-1.0023-2.0693-.7466-.5789.155-1.3327.0014-1.9067-.2473-.964-.4176-1.8365-1.0413-2.7665-1.5431-2.4227-1.3072-2.9244-3.4415-2.5551-5.9322.3249-2.1911,1.4873-2.9719,3.6259-2.4667,1.7179.4058,3.1609,1.2316,4.3847,2.5606,2.7756,3.0143,4.8696,6.4378,6.489,10.179.5723,1.3221,1.1904,2.6244,1.7876,3.9358.209-.0392.4181-.0783.6272-.1175Z"/>
    <path class="cls-1" d="M204.1914,49.7404c-1.4026.317-1.9618-.4266-2.3157-1.3286-.5071-1.2927-1.0102-2.6008-1.3439-3.9448-.8038-3.2384-2.5889-5.9251-4.5619-8.5246-.6377-.8401-1.3093-1.2425-2.5151-1.0966-2.3061.2792-5.9193-1.9699-6.7741-4.1715-.6355-1.6368-.5607-3.4063.1972-5.0263.6336-1.3544,1.6672-1.7021,3.1642-1.1047,2.3238.9275,4.3238,2.3524,5.7615,4.417,2.3099,3.3168,4.6134,6.6473,5.8441,10.5693.1915.6104.5101,1.1809.913,2.0939.8382-2.0563.9709-3.8991,1.351-5.6826.8134-3.8168,1.5616-7.6533,2.5686-11.4196.3401-1.2719,1.2665-2.4504,2.1324-3.5005.8719-1.0575,2.1833-1.3885,3.4255-.6897,1.4267.8026,2.7972,1.738,4.0727,2.764.7339.5903.9608,1.4648.6344,2.5174-.3838,1.2374-.5086,2.5551-.7347,3.7789-1.0362.2753-1.3208-.4288-1.7687-.8662-.7541-.7365-1.4566-1.5531-2.3085-2.1553-1.053-.7444-1.8532-.7171-2.6308.291-.7843,1.0169-1.4474,2.2363-1.7777,3.4702-.5803,2.1682-.914,4.4076-1.2649,6.6307-.578,3.6617-1.0805,7.3352-1.6323,11.0012-.0973.6463-.2798,1.2797-.4361,1.9773Z"/>
    <path class="cls-1" d="M502.7136,36.3797c-.9673,1.0992-1.907.8998-2.9237.299-1.0254-.6059-2.1025-1.1268-3.1724-1.6537-1.0294-.5069-1.7657-1.3189-1.8444-2.4253-.1018-1.4313-.106-2.9095.1451-4.3144.2435-1.3625.9331-1.7059,2.2986-1.6617,1.4508.047,2.6592.6282,3.7875,1.5379,3.3435,2.6958,5.4454,6.2878,7.3552,10.021.633,1.2374,1.1428,2.5372,1.741,3.7932.2768.5813.6306,1.1259,1.0734,1.9051.7464-1.4246.7505-2.7418.8889-4.0169.4655-4.2877,1.039-8.5539,2.4537-12.6544.3016-.874.6429-1.7469,1.0785-2.5599,1.4068-2.6254,4.1093-3.2357,6.5467-1.5008.4829.3437.9037.7769,1.3419,1.1809,2.2892,2.1107,2.2169,5.0819-.1531,7.2889-.901-.9445-1.7091-2.0044-2.7219-2.8058-1.7171-1.3587-2.6856-1.1968-3.6279.728-.7762,1.5854-1.4242,3.3027-1.7374,5.0325-.8969,4.9523-1.594,9.9408-2.3722,14.9147-.0716.4575-.0891.9418-.2614,1.3604-.2102.5106-.5574.9648-.8453,1.4434-.4269-.3556-1.0178-.6278-1.2491-1.0828-.627-1.2334-1.1405-2.5299-1.6249-3.8289-.439-1.1774-.7537-2.4006-1.1712-3.5867-.6229-1.7696-1.5435-3.3535-2.8719-4.7139-.7311-.7489-1.3108-1.6457-2.1334-2.6996Z"/>
    <path class="cls-1" d="M409.6646,40.1889c.1315-1.2865.3164-2.5701.3846-3.86.2202-4.1688,1.843-7.9824,3.0282-11.8981.5477-1.8095,2.0652-3.2003,4.7216-2.098,2.8825,1.1961,3.7945,2.573,3.3538,5.6743-.0994.6996-.3009,1.3847-.5502,2.5011-1.7004-1.4164-3.122-2.6006-4.6121-3.8418-1.9998,1.5816-2.7682,3.5786-3.0883,5.7769-.4387,3.013-.7676,6.0419-1.1987,9.0561-.2247,1.5714-.4966,3.1441-.8871,4.6806-.1988.7822-.7071,1.4858-1.2416,2.5582-.5073-.779-.86-1.1636-1.0332-1.6168-.4481-1.1729-.8545-2.3649-1.2097-3.5693-.6986-2.3694-1.7101-4.582-3.0822-6.6394-.8739-1.3105-1.9455-1.9648-3.6254-1.9407-3.5537.0511-6.5315-3.7344-5.6921-7.024.4612-1.8072,1.5076-2.5296,3.2259-1.8354,1.3155.5315,2.704,1.2825,3.6212,2.3228,2.4944,2.8292,4.7225,5.8786,6.0136,9.5038.2975.8354.8027,1.5969,1.2123,2.3924l.6593-.1428Z"/>
    <path class="cls-1" d="M309.9694,180.8686c-3.616-.6667-7.0359-.9204-10.241,1.3495-.0043-2.4511,2.0482-5.3849,4.0333-5.678,2.6211-.387,5.2753-.6402,7.9186-.0873,2.3186.485,2.7373,1.3059,1.8109,3.5163-.9101,2.1713-2.1538,4.1041-3.998,5.6149-1.4361,1.1766-2.8836,2.342-4.2709,3.5744-.8869.7879-1.7709,1.6151-2.4824,2.5561-1.0764,1.4236-.8675,2.5487.5756,3.5633,1.8474,1.2987,3.9119,1.9224,6.1898,1.7337,3.5947-.2978,7.0991-.8728,10.2179-2.8998.6634-.4312,1.4516-1.0079,2.5606-.3504-.2897.4521-.4875.9313-.8278,1.2653-3.4638,3.4006-7.3647,5.8647-12.4675,5.6798-1.3914-.0504-2.7923-.0023-4.1731-.1488-3.3952-.3603-5.2905-2.5809-4.8778-5.9566.1794-1.4679.7272-2.9673,1.4304-4.2794,1.634-3.049,4.2786-5.1928,7.0111-7.2203.6627-.4917,1.5389-.8378,1.5904-2.2327Z"/>
    <path class="cls-1" d="M448.752,201.1395c-1.2333-1.3687-1.5883-2.9242-1.9844-4.4508-.6396-2.4653-1.6328-4.7504-3.2278-6.7598-.7355-.9265-1.4835-1.5919-2.8461-1.3487-.633.113-1.4133-.235-2.0399-.548-.7019-.3505-1.2829-.9345-1.9563-1.3527-1.96-1.2173-2.1524-3.0461-1.7698-5.0572.2515-1.3219.8602-1.7974,2.2263-1.7504,1.681.0578,3.0595.8193,4.1721,2.0387,2.3828,2.6113,4.3662,5.486,5.7099,8.7799.4155,1.0187.915,2.0032,1.376,3.0033.1368-.0168.2737-.0335.4105-.0503.1155-.3863.327-.7714.3319-1.1591.058-4.5711,1.4156-8.8694,2.7324-13.1759.1536-.5023.3513-1.0082.6242-1.4539.9325-1.5235,2.4379-2.0246,4.0902-1.3574.6097.2462,1.2023.564,1.7506.9277,1.8542,1.2297,2.4944,3.882,1.437,5.8117-.3515.6415-1.1916.7579-1.8728.1513-.4872-.4338-.8275-1.0281-1.267-1.5208-1.2683-1.4218-2.0826-1.3714-3.1098.193-.9643,1.4686-1.4363,3.1016-1.6649,4.8371-.5011,3.8046-1.029,7.6062-1.6071,11.3997-.1555,1.0208-.3811,2.0866-1.5152,2.8425Z"/>
    <path class="cls-1" d="M244.6746,189.2257c-1.8587,1.2793-2.6615,2.999-2.973,4.9232-.4756,2.938-.7918,5.9015-1.2015,8.8506-.2369,1.7045-.4896,3.4087-.8125,5.0982-.0879.4599-.5273,1.2561-.6833,1.2277-.5889-.1073-1.2747-.3661-1.6452-.8042-.3985-.4712-.5457-1.193-.6948-1.8306-.6555-2.8032-1.7763-5.3917-3.3508-7.8047-.7422-1.1375-1.5577-1.7205-3.0467-1.72-3.453.001-6.3227-3.415-5.775-6.6038.2915-1.697,1.5372-2.4772,3.1921-1.9094,1.9932.6839,3.692,1.8275,4.8192,3.6453,1.7065,2.7521,3.6172,5.3987,4.5969,8.5462.1162.3732.3266.7232.5332,1.0595.0919.1496.2829.2383.6968.5683.2214-1.1717.4748-2.1571.5845-3.1583.3686-3.3657.9278-6.6866,2.0755-9.8864.2234-.6228.4326-1.252.6858-1.8627,1.163-2.8043,3.3192-3.4612,5.87-1.8004,2.1994,1.432,2.8438,3.294,2.0214,5.8407-.2415.7479-.8254,1.0525-1.5439.6446-.5597-.3178-1.0099-.8339-1.4942-1.2776-.616-.5644-1.2174-1.1448-1.8544-1.7459Z"/>
    <path class="cls-1" d="M253.8185,108.933c1.8058-3.1999,3.6092-6.3958,5.4028-9.5741,3.8946,2.2381,7.6596,4.4016,11.5965,6.664-.1769.3853-.3889.9179-.6575,1.4201-1.3067,2.4437-2.6402,4.873-3.9402,7.3202-.6653,1.2524-.96,1.4566-2.1359.762-3.2415-1.9146-6.4326-3.9146-9.635-5.8947-.2095-.1295-.3463-.3767-.6307-.6975Z"/>
    <path class="cls-1" d="M325.199,179.4847c1.9228-3.3408,3.7571-6.5277,5.6492-9.8151,3.7741,2.2313,7.447,4.4027,11.0982,6.5613-.2179,1.7014-3.6345,8.1913-5.3108,10.1141-3.7734-2.2635-7.5523-4.5303-11.4365-6.8603Z"/>
    <path class="cls-1" d="M138.7935,56.3814c-.1649.8771-.2487,1.7791-.5082,2.6273-1.4969,4.8941-2.4647,9.9032-3.045,14.9712-.2847,2.486-.1541,5.0243-.1341,7.5382.0086,1.0833.4225,2.0636,1.2509,2.835,1.0827,1.0082,1.8712,1.0777,2.9039-.0095.5738-.604.9588-1.4076,1.3432-2.1648.2928-.5767.4506-1.222.711-1.9568,1.097.3381,1.6861.7862,1.3562,1.9942-.3483,1.2755-.5082,2.6047-.8886,3.8688-.6026,2.0025-1.9301,3.4342-3.8057,4.3568-.8735.4297-1.6288.3314-2.3421-.3856-1.8716-1.8813-3.1771-3.9809-3.4709-6.7301-.5242-4.9045.352-9.6443,1.4135-14.368.6675-2.9702,1.4593-5.9146,2.274-8.8488.4232-1.5241,1.0075-3.0073,2.4545-3.8902l.4875.1623Z"/>
    <path class="cls-1" d="M78.0498,66.9236c-.1307.8666-.1747,1.4855-.3216,2.0789-.8598,3.4733-1.7028,6.9516-2.63,10.4071-1.1326,4.2208-1.1689,8.5167-1.0677,12.8349.0369,1.5752.999,2.5661,2.1041,3.4205.3193.2469,1.1333.2856,1.4254.0515.7497-.6009,1.3795-1.3736,1.9669-2.1463.3536-.4651.4671-1.1149.8283-1.5711.1845-.2331.7234-.3715,1.0163-.2794.2799.088.6795.5796.6304.8092-.5482,2.569-.6672,5.3263-2.6909,7.3299-.5459.5405-1.2741.9703-1.997,1.2437-1.5957.6034-2.66.2233-3.5747-1.2205-1.4433-2.2782-2.4542-4.7386-2.3371-7.4789.1242-2.9074.238-5.8376.6993-8.7026.6311-3.9197,1.552-7.7949,2.4247-11.6721.2297-1.0206.6732-2.0108,1.1395-2.9552.4335-.8781,1.0411-1.6623,2.3843-2.1495Z"/>
    <path class="cls-1" d="M268.8852,50.0976c-.1219.5814-.2375,1.1323-.353,1.6833-1.0864,5.1822-2.2847,10.3446-3.2035,15.5563-.3631,2.0598-.1907,4.2337-.0866,6.3469.0434.8811.4029,1.826.8679,2.5902.9249,1.5198,1.933,1.6502,3.234.4715.5704-.5168.9729-1.2351,1.3881-1.9016.3353-.5383.5751-1.1361,1.0221-2.0413.2941.6769.5986,1.0274.543,1.3059-.3994,1.9997-.7309,4.0314-1.3685,5.9588-.461,1.3936-1.7898,2.0521-3.1952,2.4418-1.0871.3014-1.9539.0198-2.6554-.8416-1.4986-1.8402-2.5483-3.8637-2.6214-6.3002-.1015-3.3829-.1631-6.7586.6704-10.0824.9499-3.7882,1.8376-7.5923,2.8131-11.3738.2459-.9535.674-1.8716,1.1112-2.7602.3086-.6271.6732-1.3331,1.8337-1.0537Z"/>
    <path class="cls-1" d="M251.7146,119.591c-.1178.5124-.1889.9564-.3223,1.3809-1.9313,6.1472-3.1304,12.4422-3.7621,18.8463-.1033,1.0468-.0142,2.1167.0415,3.1729.0239.4533.1154.9337.305,1.3419.5513,1.1866,1.4218,2.3028,2.7106,2.3861,1.2022.0777,1.8433-1.1477,2.3828-2.1441.3419-.6315.5717-1.3236.8443-1.9704.9052-.2148,1.4163.0906,1.234.9698-.362,1.7462-.7541,3.4945-1.2909,5.1922-.2286.7231-.7754,1.3935-1.3106,1.9627-1.6841,1.7911-3.9574,1.5603-5.3854-.4448-1.5684-2.2022-2.1986-4.7126-2.0673-7.3273.1623-3.2288.4444-6.4746,1.0091-9.6537.5888-3.315,1.5296-6.5718,2.4142-9.8276.2906-1.0694.8226-2.0915,1.3674-3.0663.2962-.53.7025-1.182,1.8298-.8187Z"/>
    <path class="cls-1" d="M664.9173,55.5914c.1097.5013.3492,1.0138.3073,1.5022-.2124,2.4751-.804,4.8334-2.3609,6.8585-.6893.8965-1.5585,1.3651-2.6921,1.4849-1.206.1275-1.9997-.2901-2.6201-1.3402-1.8087-3.0617-2.7879-6.3353-2.3523-9.8831.4032-3.2842.9619-6.5542,1.5863-9.8047.5247-2.7316,1.1907-5.4397,1.8954-8.1316.3863-1.4758,1.0273-2.8609,2.8563-3.5543-.0267.5907.0244,1.0271-.0758,1.4255-.7441,2.9564-1.4955,5.9113-2.2885,8.8548-1.1157,4.1413-1.314,8.3716-1.2702,12.6246.0082.7905.1255,1.5923.297,2.3657.2584,1.1654,1.2901,2.1373,2.2843,2.2187,1.174.0961,1.8337-.6594,2.3295-1.5596.5624-1.0213,1.0469-2.0855,1.5652-3.1311.1796.0232.3592.0465.5387.0697Z"/>
    <path class="cls-1" d="M550.1064,105.3651c-.1761.8188-.295,1.5035-.4717,2.173-1.5389,5.83-2.8603,11.7008-3.5181,17.7078-.2151,1.964.1067,3.8406.7828,5.6497.767,2.052,2.8545,2.3301,4.1472.565.7237-.9881,1.3012-2.0833,2.3631-3.0943.084.4471.3072.921.2275,1.3367-.3114,1.6233-.6859,3.2368-1.1011,4.8374-.3146,1.2127-1.0921,2.0736-2.2062,2.678-1.931,1.0477-2.9275.9127-4.3234-.7672-1.2212-1.4696-1.769-3.2322-2.0924-5.0831-.6625-3.7923-.1508-7.5413.5481-11.2523.6242-3.315,1.4558-6.5925,2.2569-9.8716.2653-1.0859.6511-2.1566,1.1103-3.1763.3719-.8257.8918-1.6214,2.2769-1.7026Z"/>
    <path class="cls-1" d="M587.3482,84.2001c-.3014,2.565-.7304,5.0251-2.06,7.1966-.419.6844-1.2096,1.2407-1.9528,1.6067-1.621.7982-2.9082.3877-3.9572-1.0965-2.0586-2.9126-2.4937-6.2345-2.284-9.6676.1169-1.9124.3464-3.8329.7186-5.7114.733-3.7,1.5807-7.3779,2.4212-11.0558.4032-1.7648,1.0622-3.4056,3.067-4.6244-.0898.9645-.0831,1.7033-.2364,2.4073-.9012,4.1369-1.9226,8.2495-2.7312,12.4038-.4154,2.134-.6162,4.3358-.6443,6.5104-.0192,1.4916.3856,2.9971.678,4.4812.1846.9372.8342,1.4651,1.8026,1.5923,1.0304.1354,1.8248-.2157,2.3541-1.1083.405-.6831.7735-1.3878,1.1643-2.0794.2911-.515.5372-1.1029,1.6601-.855Z"/>
    <path class="cls-1" d="M172.7802,21.7386c.7621,1.0161.5084,1.8661.2355,2.6535-1.6352,4.7175-2.5532,9.6026-3.1391,14.5295-.2932,2.4656-.0115,5.0022.0545,7.5055.0118.4467.181.9168.3802,1.3261.8135,1.6723,2.9702,1.861,4.0438.3445.3791-.5355.6148-1.1704.9447-1.7433.3167-.55.6706-1.0786,1.0705-1.7161.8737.6592.8332,1.3985.6818,2.0794-.3297,1.483-.6983,2.9615-1.1459,4.4127-.3434,1.1134-1.0868,1.9946-2.1407,2.5067-2.6267,1.2764-3.9346.6386-4.9922-1.348-1.8156-3.4103-2.111-7.0754-1.7-10.8177.2017-1.8368.5902-3.6609,1.0073-5.4646.8643-3.738,1.7869-7.4629,2.7232-11.1837.2909-1.156.7896-2.224,1.9762-3.0846Z"/>
    <path class="cls-1" d="M482.7992,49.4751c.0574.4363.2074.8224.1365,1.1624-.3774,1.8085-.7487,3.6232-1.2584,5.3965-.1698.5906-.6607,1.1625-1.1467,1.5762-2.332,1.9848-4.6776,1.4818-5.9717-1.2943-1.4676-3.1479-1.8678-6.5115-1.4521-9.91.6596-5.3919,1.5707-10.7511,3.2296-15.9436.494-1.5462.9629-3.1635,2.4267-4.2512.777.694.453,1.3891.2961,2.078-1.0291,4.5168-2.1455,9.0169-3.0306,13.5619-.4267,2.1911-.5178,4.4659-.5623,6.7068-.0317,1.5962.3666,3.1685,1.5218,4.4091.9085.9755,1.5681,1.089,2.5556.1869.716-.6541,1.2356-1.5288,1.8139-2.3261.3622-.4994.4658-1.2474,1.4418-1.3526Z"/>
    <path class="cls-1" d="M101.1391,43.4039c.753,1.1376.1549,1.9848-.0612,2.8441-1.4381,5.7201-2.9966,11.4215-3.1982,17.3631-.0537,1.583.0439,3.1854.24,4.7579.1413,1.1337.5787,2.2215,1.9704,2.4273,1.3581.2008,2.3083-.4213,2.9727-1.5407.5297-.8924,1.0131-1.8122,1.6891-3.0297.208.7493.4011,1.1589.4247,1.5779.1183,2.1083-.4621,4.0918-1.3664,5.9478-.81,1.6623-2.4404,2.1697-4.1469,2.3053-1.1287.0897-1.8198-.7006-2.3468-1.5832-1.0402-1.7419-1.5008-3.6725-1.7238-5.6653-.456-4.074.1075-8.0859.9093-12.056.6687-3.3111,1.5009-6.5919,2.3546-9.8616.3459-1.3247.8563-2.6408,2.2826-3.4869Z"/>
    <path class="cls-1" d="M334.3006,61.5444c-.1428.9463-.2514,1.8993-.4342,2.8378-.7836,4.0228-1.6523,8.0304-2.3545,12.0672-.2698,1.5514-.257,3.1675-.2193,4.7505.0199.8344.2541,1.7124.5948,2.4806.8148,1.8373,2.2623,2.0006,3.5123.4335.6459-.8096,1.1967-1.6951,1.991-2.8337.1893.7043.4097,1.0705.351,1.3846-.2543,1.3612-.4644,2.7538-.9416,4.042-.3041.8209-.9264,1.6328-1.6186,2.1797-1.7299,1.3668-3.1053,1.0943-4.3608-.7219-1.283-1.856-1.8613-3.9798-1.858-6.1883.0032-2.1081.128-4.247.5049-6.3167.6159-3.3823,1.456-6.7251,2.2498-10.0731.3675-1.5499.9399-3.0257,2.0937-4.1868.1632.0482.3264.0965.4895.1448Z"/>
    <path class="cls-1" d="M370.0161,193.7627c-.1014,2.6048-.8036,4.7649-2.488,6.5168-1.6133,1.6779-2.7383,1.5699-3.9503-.387-1.5927-2.5716-2.1208-5.4298-1.8219-8.393.2652-2.6289.6855-5.2483,1.1716-7.8468.4008-2.1428.9527-4.2613,1.5267-6.3662.3073-1.1272.688-2.2744,1.7533-2.9801.7496.267.655.8186.5396,1.3259-.3519,1.5473-.6935,3.0991-1.1169,4.6275-1.1207,4.0449-1.7435,8.1559-1.6526,12.3548.0212.9784.162,1.9995.4983,2.9083.1941.5246.8248,1.0563,1.3742,1.2399.7616.2544,1.3939-.2621,1.768-.962.2801-.524.5115-1.0748.7504-1.6198.3304-.7539.8832-.6095,1.6476-.4183Z"/>
    <path class="cls-1" d="M496.8698,174.9427c-.1895,1.0729-.3701,2.1474-.5701,3.2183-.6667,3.5704-1.4071,7.1287-1.9806,10.7138-.249,1.5566-.2605,3.172-.1857,4.7516.0419.8843.3444,1.8244.7724,2.6065.6734,1.2304,1.5346,1.3125,2.565.317.4569-.4414.7201-1.0828,1.0737-1.6318.2589-.4019.5217-.8012.7764-1.1918.3281.1892.5232.2375.539.3202.528,2.7551-.904,6.1619-3.0198,7.1851-1.4283.6907-1.9409.6722-2.8793-.5862-1.2927-1.7335-2.039-3.6928-2.2184-5.8607-.2376-2.8723.2004-5.6792.8453-8.4584.6573-2.8325,1.312-5.6688,2.0992-8.4665.3107-1.1039.9766-2.1079,1.4808-3.1574.2341.08.4681.1601.7021.2401Z"/>
    <path class="cls-1" d="M404.5049,143.0166c.9826-1.0988,1.9766-2.2102,2.9429-3.2906.2564.1418.4646.2037.4642.2643-.0144,2.4821-.1769,4.9175-2.5704,6.4461-1.5199.9707-2.2993.8755-3.4096-.5405-1.884-2.4029-2.7659-5.1966-2.3247-8.1897.5106-3.4644,1.3327-6.8851,2.0836-10.3108.3535-1.6126.7911-3.2147,1.3205-4.7776.2532-.7477.8089-1.393,1.2276-2.0847.165.0659.33.1319.4949.1978-.16.9415-.2834,1.8909-.4864,2.823-1.0438,4.7905-2.1071,9.5735-2.2059,14.5112-.0408,2.0427.3439,3.8167,2.4633,4.9515Z"/>
    <path class="cls-1" d="M670.8757,148.445c1.0527,3.6329-.3662,6.1597-4.248,7.6381-1.6982-1.4038-2.8265-3.1783-3.3019-5.4097-.5381-2.5256-.3192-5.0366.1626-7.5096.6838-3.5101,1.5259-6.99,2.3421-10.4731.1953-.8332.5013-1.6524.8565-2.4325.2942-.6462.6759-1.3159,1.8459-1.0742-.194.7879-.3462,1.5382-.5639,2.2691-1.5199,5.103-2.6367,10.2814-2.5846,15.6314.0119,1.2147.3447,2.5039.8462,3.6161.6051,1.3419,1.4288,1.3953,2.4706.3322.7667-.7824,1.4179-1.678,2.1742-2.5876Z"/>
  </g>
</svg>