<?xml version="1.0" encoding="UTF-8"?>
<svg id="Sawdah" xmlns="http://www.w3.org/2000/svg" viewBox="0 0 411.096 237.9843">
  <defs>
    <style>
      

      @import url('../../CSS/SvgStyling.css');

      
    </style>
  </defs>
  
  <g class="content">

    <rect id="bg" class="bg" width="411.096" height="237.9843"/>
    <path class="cls-1" d="M198.22,167.3592c-2.3435,1.434-4.3943,2.7091-6.4645,3.952-8.7655,5.2629-17.472,10.6285-26.3298,15.7312-5.3759,3.0969-10.789,6.2469-16.9121,7.7244-2.5536.6162-5.1613,1.0907-7.7722,1.3639-2.7108.2836-5.1323-.651-7.0853-2.602-2.0297-2.0276-3.35-4.4806-4.242-7.1938-2.5332-7.7053-2.8111-15.5354-1.1387-23.4212,1.3839-6.5254,2.9662-13.0086,4.4609-19.5104.0614-.2671.1254-.5335.2687-1.1418-.4874.3681-.7345.5616-.9884.7454-4.5119,3.267-9.3238,5.8413-14.8936,6.8516-5.313.9637-11.2636-2.3019-11.5486-9.3325-.255-6.2911.652-12.4032,2.7037-18.3479,2.2617-6.5531,5.5177-12.6002,9.3922-18.3268.4502-.6654.9822-1.2755,1.5674-2.0285-.5296-.6297-1.1308-1.3005-1.6838-2.009-4.1272-5.287-8.2363-10.5883-12.3807-15.8618-.3642-.4635-.9633-.7354-1.4105-1.1431-.2951-.2691-.7395-.6269-.7329-.9369.114-5.3754.2871-10.7495.4518-16.1237.0029-.0953.0611-.1889.1361-.4075,7.1441,4.4716,13.2592,10.1533,19.6023,15.6716-2.2913.4748-4.5526-.046-7.124-.2226,3.5669,4.3016,7.1797,8.261,11.1913,12.0482,9.6443-10.1005,17.8951-21.289,26.5551-32.1331.1103.0444.2205.0888.3308.1332.0255.351.0898.7041.0706,1.0527-.2251,4.0758-1.877,7.6848-3.7519,11.2019-3.3037,6.1973-7.4665,11.809-11.9187,17.213-1.8538,2.25-3.7494,4.4664-5.6665,6.6628-.5083.5824-.4892.8692.106,1.4136,3.6592,3.3471,6.7168,7.1987,9.0155,11.5901,2.1972,4.1976,2.2892,8.6895,1.4523,13.2654-.8951,4.8941-2.7243,9.4104-5.0991,13.7699-.8866,1.6275-1.3081,3.5438-1.7423,5.3756-1.207,5.0925-2.4714,10.1806-3.4008,15.3269-.7228,4.0022-1.0533,8.077-.1884,12.1537,1.1325,5.3381,5.2945,8.3804,10.6934,7.6916,4.2256-.5391,8.1692-2.0284,12.0688-3.6488,12.1074-5.0312,23.3931-11.6175,34.553-18.4187,7.1981-4.3867,14.3521-8.857,21.3752-13.5169,8.9538-5.941,17.7608-12.1037,26.6165-18.1919,1.1752-.8079,1.1565-.9719.4237-2.1966-1.724-2.8814-4.0638-5.2011-6.7118-7.2112-7.5031-5.6957-15.8404-9.9011-24.5505-13.3527-5.7656-2.2848-11.0783-5.3032-16.0977-8.8895-10.6781-7.6294-20.1982-16.5586-29.1985-26.0698-.6519-.6889-1.3436-1.3402-2.0183-2.0076-.8019-.7933-1.7179-1.3571-2.8922-1.2868-.8222.0492-1.0066-.371-.9954-1.091.0809-5.2007.1457-10.4018.2071-15.6028.0161-1.3638.0024-2.7279.0024-4.2166.3872.1247.5931.1531.759.2499,9.4044,5.4915,18.8105,10.9801,28.1992,16.4984.9807.5764,1.9512,1.2435,2.4404,2.6207-.7918.0855-1.471.2499-2.1392.2134-1.8228-.0995-3.6403-.2938-5.4616-.4268-.4041-.0295-.8152.0387-1.4781.0764.3587.7132.5904,1.2796.9095,1.7914,2.0215,3.2421,4.9938,5.5087,8.0663,7.6207,7.8468,5.3939,16.321,9.6398,25.0266,13.4437,4.5063,1.969,9.0907,3.775,13.5117,5.9189,4.629,2.2448,8.8468,5.1481,12.5469,8.792,3.452,3.3995,5.2166,7.5805,5.7755,12.252,1.0403,8.6961-.1733,17.0865-3.8208,25.1058-.7262,1.5966-1.9181,2.6675-3.2196,3.672-10.1286,7.8176-20.4598,15.3538-31.1855,22.3382-.7656.4986-1.4965,1.0732-2.3148,1.4625-1.0048.478-1.4024,1.2457-1.6001,2.2777-1.5435,8.058-2.8593,16.102-1.6282,24.3723,2.0227,13.5874,12.609,21.7696,23.3109,23.1889,6.3609.8436,12.5392-.1948,18.5548-2.3228,10.6712-3.7748,20.508-9.1863,29.8491-15.4971,11.2791-7.6201,21.434-16.5987,30.9357-26.3199,1.6889-1.7279,3.1822-3.6545,4.6776-5.5586.3305-.4209.5208-1.2062.3725-1.7033-.5405-1.8105-1.306-3.5529-1.8731-5.3567-.2409-.7662-.5878-.7882-1.2264-.6129-4.8891,1.3418-9.8588,2.3208-14.9063,2.732-4.1965.3419-8.4244.542-12.5615-.6573-6.9844-2.0246-10.7492-6.8039-11.1721-14.1043-.3696-6.3801,1.4199-12.144,4.8012-17.4874,1.8674-2.9511,3.869-5.7896,6.6517-7.966,6.3152-4.9391,12.6178-5.0832,19.2462-.5579,5.679,3.8771,9.7703,9.1312,13.2086,14.97.5696.9673,1.1113,1.958,1.5715,2.9804.3745.8322.7547,1.0172,1.6823.6735,8.2534-3.0585,16.1026-6.9907,23.948-10.9377.9681-.487,2.0023-.8457,3.0152-1.2397.8091-.3147,1.2536.0759,1.266.856.0092.5763-.1262,1.1756-.3075,1.7284-.1843.5621-.5227,1.0717-.7607,1.6186-1.2151,2.7918-.9525,4.3768,1.2982,6.4151,3.5265,3.1937,7.7281,3.9656,12.2919,3.1129,5.1013-.9531,8.8359-4.0118,11.8414-8.0276,2.3553-3.1471,4.4965-6.4537,6.8067-9.6358,1.027-1.4146,2.1946-2.7353,3.383-4.0203.4782-.5171,1.1834-.8242,1.7852-1.2268.1116.0455.2232.0911.3348.1366-.0571.8357.0226,1.7094-.1967,2.5-.685,2.4687-1.4061,4.9336-2.2672,7.3449-.4855,1.3596-.2735,2.385.6258,3.469,3.2983,3.9759,7.6344,5.8629,12.6517,6.3383,2.2111.2095,4.4163-.0368,6.5718-.6283,1.1023-.3025,1.1942-.5648.5157-1.5035-.8848-1.224-1.7238-2.4826-2.6428-3.68-.6916-.9011-.8657-1.678-.454-2.872,1.442-4.1821,2.6683-8.4385,3.9781-12.6662.1415-.4569.2935-.9106.5244-1.6248.3988.5537.6665.8926.8995,1.2538,2.8061,4.3486,3.7575,9.1873,3.7337,14.2744-.0242,5.1552-.8103,10.1599-3.1761,14.8063-3.2863,6.454-10.4073,9.7181-17.4641,8.1591-2.5927-.5728-5.0938-1.2622-7.3514-2.7351-3.111-2.0298-4.9826-4.8737-5.8442-8.4398-.0805-.3332-.1745-.6632-.2726-1.0343-1.1396,1.6845-2.1425,3.3568-3.329,4.8867-4.2526,5.4837-9.4385,9.6258-16.4621,10.9311-3.2614.6061-6.4497.3005-9.4282-1.274-3.5475-1.8754-5.3689-5.0316-6.3637-8.7681-.2128-.7993-.3522-1.6182-.5131-2.3708-2.3616,1.6263-4.6299,3.3344-7.04,4.8113-3.0523,1.8704-6.2306,3.5342-9.3236,5.34-.3794.2215-.7956.7603-.8119,1.1674-.309,7.72-2.7832,14.8562-5.6557,21.9219-2.1866,5.3784-5.8096,9.632-9.8281,13.6699-11.4654,11.5207-23.8147,21.96-37.5572,30.674-7.7237,4.8975-15.9159,8.8523-24.872,10.9453-5.0991,1.1916-10.2697,2.1011-15.5599,1.5199-9.6944-1.065-16.7237-6.149-21.4718-14.4912-3.1925-5.609-4.9264-11.7522-5.4776-18.1402-.5355-6.2062-.3022-12.4416.7012-18.6099.626-3.8484,1.408-7.6713,2.1215-11.5054.0816-.4382.1733-.8745.3225-1.6244ZM124.3523,106.8795c-.1983.3195-.291.5115-.4215.673-4.0017,4.9514-7.7762,10.0687-10.8284,15.6661-1.0331,1.8947-1.8771,3.9371-2.485,6.0067-.6233,2.1223.1388,3.1797,2.2254,3.9592,2.146.8017,4.3486.7543,6.5523.4168,4.2463-.6503,8.1974-2.1976,11.9926-4.1522,2.8167-1.4506,5.4283-3.2093,7.7244-5.4677-3.6787-6.6942-9.5376-11.4191-14.7599-17.102ZM297.3335,140.5163c-.226-.3515-.3286-.5748-.4865-.7473-2.5512-2.7853-5.5336-4.9993-9.0782-6.3081-4.6376-1.7124-8.0665-.5175-10.5819,3.3697-.6007.9284-.4002,1.5385.3216,2.1757,1.3206,1.1659,2.9179,1.7702,4.6197,1.803,4.1328.0796,8.2688.0229,12.4031-.0157.8916-.0083,1.7817-.1719,2.8022-.2773Z"/>
    <path class="cls-1" d="M50.3931,150.0777c.2996,1.7535.6611,3.4991.8849,5.2622.3892,3.0648.8492,6.1343.9696,9.214.0635,1.6243-.5274,3.2743-.8239,4.9125-.0456.2521-.0973.5032-.1462.7547.0839.0663.1677.1326.2516.1989,1.1944-.9427,2.4406-1.828,3.5676-2.8453.9871-.891,1.8351-1.9353,2.7554-2.9015.3864-.4057.7568-.8512,1.2161-1.155.375-.248.8714-.3122,1.314-.4579-.0189.4204.0748.8869-.075,1.2538-.9883,2.4202.4752,4.6014,2.8354,5.2861,2.5579.7421,4.9623.0728,7.6614-.6114-.9664-.806-1.7997-1.3756-2.4766-2.0929-1.2221-1.2951-2.4489-2.6064-3.5-4.0385-3.0971-4.2199-1.3722-10.2386,1.6529-13.4247,4.8286-5.0856,12.7856-4.8099,17.9718-2.0178.9871.5315,1.9039,1.1937,2.8531,1.7956-.0508.1161-.1017.2321-.1525.3482-.3959-.0254-.7958-.0232-1.1871-.0802-6.3549-.9271-12.3907.0107-18.0546,3.0951-2.217,1.2073-2.3182,1.2719-1.2914,3.5375,2.2441,4.9515,5.9031,8.3334,11.3268,9.499.8078.1736,1.7795.0211,2.5757-.2614,4.0357-1.4321,8.0361-2.9636,12.0542-4.4459,1.5978-.5894,3.2093-1.1415,4.8145-1.7106.0867.0904.1733.1809.26.2713-.2903.6409-.6327,1.2638-.861,1.9261-.7021,2.0364-2.1102,3.2236-4.1179,3.985-7.914,3.0012-15.7632,6.1755-23.7048,9.1001-1.7584.6476-3.7939.7197-5.7044.7353-2.8177.023-4.469-1.4419-5.1833-4.1841-.1389-.5332-.2491-1.0739-.4484-1.941-1.4961,2.5116-3.1128,4.548-5.6591,5.9424.55.3631.9553.6499,1.3786.9069,2.0741,1.2596,3.8085,2.7939,4.2647,5.3374.4875,2.718.0009,5.2653-1.549,7.5486-1.3095,1.9292-2.2968,2.3527-5.4711,1.6543-2.9196-.6423-5.0072-2.6727-6.6965-5.0095-.9535-1.319-1.5676-2.8853-2.314-4.3508-.19-.3731-.2828-.7944-.4517-1.1798-.601-1.3715-1.3727-1.7789-2.8368-1.7422-1.4981.0375-3.0344.1387-4.4913-.129-2.3658-.4348-3.8282-2.1339-4.7674-4.243-1.6472-3.6988-1.8836-7.6953-2.2347-11.6453-.2642-2.9731-.3658-5.9631-.4493-8.9482-.0262-.9355-.3432-1.1122-1.1942-1.0292-3.9474.3852-7.6577-.4428-10.9644-2.6173-4.0457-2.6604-5.8696-6.6015-5.9692-11.3672-.1028-4.9204.8843-9.6387,2.8055-14.1654.2744-.6465.5153-1.3087.8186-1.9412.4061-.8468.6809-1.5761.0023-2.5202-.3661-.5093-.2898-1.4148-.2414-2.1298.159-2.3478.932-4.531,1.9734-6.6228.7494-1.5055,1.5202-3.0005,2.2917-4.495.1155-.2238.287-.4187.4325-.6269.1023.0416.2046.0833.3069.1249-.1689.5292-.3061,1.071-.5121,1.5853-.8339,2.0826-1.7412,4.1379-2.5068,6.2449-.2542.6996-.2707,1.5349-.1947,2.2879.0512.5076.3554,1.0795.7229,1.4454.6434.6406,1.2469.4634,1.6888-.3481.2611-.4796.5306-.9546.7963-1.4317.0966.0209.1932.0417.2898.0626.0182.24.1342.5319.0389.7117-.701,1.3224-1.2669,2.7781-2.2322,3.8787-.7305.8328-1.3885,1.6365-1.8032,2.6462-1.3841,3.3697-2.2799,6.8409-2.5415,10.5011-.5077,7.1027,5.0559,12.7421,11.7361,13.1185.9471.0534,1.9013.0318,2.8417.1382.9907.1121,1.2949-.2367,1.2478-1.2307-.2807-5.9326-.4338-11.8721-.7767-17.8008-.3896-6.7348-.8821-13.4649-1.4394-20.1879-.185-2.2322-.7462-4.4312-1.0541-6.6566-.0866-.6261-.0371-1.3606.2165-1.9257.524-1.1671,1.2272-2.2536,1.8568-3.3733.1152.0027.2305.0055.3457.0082.1806.5624.4089,1.1143.5344,1.6887,1.3908,6.3666,2.2258,12.817,2.5342,19.3166.4546,9.5821.7406,19.1723,1.1013,28.7589.0103.2727.0537.5441.1034,1.0282,8.2698-2.1567,15.653-5.7863,22.2673-10.9624l-.0301-.4799c-1.0341-.3688-2.042-.8712-3.1074-1.0806-2.7888-.5479-5.6147-.9084-8.4004-1.4694-1.0385-.2092-2.0925-.6326-2.9861-1.1999-1.2216-.7757-1.7825-2.0131-1.7615-3.5118.0344-2.4501.7342-4.7103,1.8632-6.8502,1.9461-3.6885,4.4793-6.8837,7.9549-9.2584,2.0779-1.4198,3.2555-1.1001,4.3171,1.1604.4472.9523.7506,1.9879,1.3023,2.8712.66,1.0566,1.5116,1.9942,2.2883,2.9769.4754.6015.8262.4987,1.3126-.0911,2.5016-3.0327,4.9623-6.1072,7.6145-9.005,2.4028-2.6253,5.1821-4.8565,8.3894-6.4714,3.7437-1.885,8.7205-1.2651,11.8566,1.526,1.0951.9746,2.0336,2.13,3.0093,3.2332,1.5321,1.7325,1.7278,3.7466,1.2554,5.9318-.9522,4.4047-3.3039,7.6607-7.4637,9.5864-6.3908,2.9585-13.0076,4.7037-20.1125,3.967-2.0155-.209-3.9336-.8334-5.6062-1.9864-.8809-.6073-1.6089-.9008-2.4751-.0798-.1655.1568-.421.2186-.8344.203.1765-.3714.431-.7276.5076-1.1186.0767-.3917.1079-.8902-.0702-1.2169-.7161-1.3136-1.6832-2.5102-2.2602-3.8758-1.2842-3.0393-2.1982-3.3536-4.8792-1.4061-2.16,1.5691-3.9219,3.5061-5.3759,5.7342-.92,1.4097-.845,1.968.763,2.5028,1.8884.628,3.859,1.0351,5.8174,1.4177,1.5466.3021,3.1346.3849,4.6938.6308,3.0662.4835,4.9368,3.0692,4.5899,6.1506-.3247,2.8847-1.5509,5.2356-3.9133,6.935-5.9964,4.3135-12.4336,7.7883-19.4736,10.0854-.6024.1965-1.0094.3773-.9598,1.1168.2913,4.3452.4341,8.7052.8967,13.0314.1764,1.6498.9018,3.3088,1.6764,4.8089.8912,1.7259,2.5436,2.666,4.495,2.6731,1.5226.0055,3.0604-.2404,4.5603-.5342.4084-.08.9304-.6932,1.0165-1.1363,1.0869-5.5976,3.3186-10.7999,5.4434-16.0397.528-1.302,1.0933-2.5894,1.6699-3.8708.1887-.4194.4672-.7984.7046-1.1958.0762.0243.1525.0486.2287.073ZM63.6921,121.7065c.02-.0998.0401-.1997.0601-.2996,7.15.0128,13.2929-2.336,19.8796-5.5673.7328-.3595.7015-.8127.3216-1.4444-1.6018-2.6639-3.854-4.6644-6.5444-6.1098-1.07-.5748-2.3968-.8533-3.6247-.9165-3.1215-.1606-5.7978,1.1524-8.2674,2.9334-3.5019,2.5255-6.3518,5.7304-9.2381,8.8972-.5245.5755-.396.942.3328,1.0913,2.3578.4831,4.7199.9453,7.0804,1.4156ZM48.873,158.4387c-.1108-.0036-.2216-.0073-.3324-.0109-1.8074,3.9442-3.3613,7.9705-4.1014,12.5398.5811-.229.9088-.3255,1.2057-.481,1.2402-.6491,2.4524-1.3549,3.7131-1.9603.6588-.3164.808-.707.7085-1.4058-.37-2.6005-.6736-5.2104-1.0094-7.8158-.0376-.2917-.1216-.5775-.1842-.866ZM46.3986,179.9612c1.3906,2.7542,6.3152,5.9545,8.3387,5.0265-.6386-2.4671-5.3368-5.3345-8.3387-5.0265Z"/>
    <path class="cls-1" d="M51.4853,33.2291c1.7064,5.1272,4.2018,9.9584,4.9952,15.5768-1.4386-.5096-1.6736-1.8776-2.855-2.8361,1.3718,16.4163,2.719,32.5384,4.0749,48.7643.2415-.0862.4843-.1155.6546-.2423,2.2956-1.7091,3.5437-3.984,3.8559-6.8447.4335-3.9722-.2038-7.8535-.859-11.7325-.3388-2.006-.8891-3.9757-1.2526-5.9783-.1251-.6894-.1363-1.4844.0849-2.1343.4805-1.4115,1.1442-2.7607,1.733-4.1353.1231-.0094.2462-.0188.3693-.0281.2163.3958.4849.7721.641,1.1904,1.7965,4.8122,2.6075,9.8164,3.0897,14.915.286,3.0247.7943,6.0572,1.5323,9.0037,1.1497,4.5905,5.8896,6.1581,9.8142,4.6931,2.1383-.7982,2.1863-.8404,1.3919-2.9764-1.9728-5.304-3.927-10.6087-5.0865-16.1698-.3638-1.7448-.8581-3.4621-1.2772-5.1958-.0558-.2306-.0935-.5116-.0139-.7216.5805-1.532,1.1932-3.0518,1.8084-4.6074,1.6138,1.1162,5.1846,7.6308,5.1214,9.4695-.728-.4943-1.3471-.9146-1.9663-1.3349-.081.0447-.1619.0895-.2429.1342.675,2.272,1.3064,4.5582,2.0376,6.812.6932,2.1366,1.6786,4.194,2.2027,6.3665,1.0132,4.2002.5673,8.3096-2.0612,11.8474-1.9991,2.6906-4.8833,3.2871-8.0238,2.267-3.7781-1.2272-5.7293-4.1052-6.7389-7.759-.2441-.8833-.3954-1.7921-.5894-2.6892-.0887.0014-.1774.0029-.2661.0043-.1923.8281-.423,1.6495-.5701,2.4855-.5508,3.1305-2.2403,5.671-4.2706,7.981-.7527.8564-1.0856,1.6381-1.2643,2.786-.4845,3.1115-1.2802,6.1762-2.0054,9.247-.1493.6322-.528,1.2102-.801,1.8132-.1368-.0282-.2737-.0564-.4105-.0846-.0678-.4152-.1884-.8296-.1951-1.2458-.0487-3.0577-.0787-6.1156-.1042-9.1736-.0047-.5691-.026-1.0626-.8048-1.0536-5.1717.0598-7.8049-3.9204-8.3624-8.1414-.3367-2.5497-.2331-5.1922-.0273-7.7691.2061-2.5806.7884-5.1309,1.1971-7.6959.0539-.3383.0563-.6848-.1396-1.1406-.2374.3479-.5137.6757-.7059,1.047-1.5328,2.9606-2.3522,6.1502-3.0718,9.3847-.8231,3.6995-1.7503,7.3761-2.6667,11.0541-.1422.5707-.4589,1.0998-.7097,1.6413-1.1214,2.4222-3.4221,2.9766-5.5308,1.2932-1.6732-1.3358-2.6975-3.144-3.3711-5.1307-1.4938-4.4057-2.0212-8.964-1.9867-13.599.0031-.4165.0004-.8329.0004-1.4433-.9412.5352-1.7585,1-2.5758,1.4647-.0534-.0756-.1068-.1512-.1602-.2268,5.1061-4.3608,10.7618-8.1401,14.841-13.7699-.6299-.3919-1.195-.7161-1.7311-1.0825-1.3105-.8955-1.6944-2.1199-.8441-3.4495.5459-.8536,1.3784-1.5575,2.1855-2.1987.5685-.4517,1.1597-.2335,1.6258.3852.8655,1.1491.8352,2.4212.6174,3.729-.1395.8381-.3435,1.5754.6533,2.187.3188.1956.1109,1.2497.144,1.9111-.3522-.0416-.8947.0455-1.0246-.1466-.6542-.9672-1.0024-.8933-1.698.062-2.8391,3.8993-6.4003,7.0704-10.3593,9.7993-.6757.4658-.9367.9025-.7856,1.8157.3089,1.8663.3213,3.7794.544,5.6628.3149,2.6626.7785,5.3214,2.2069,7.6369.6215,1.0074,1.5019,1.9774,2.4921,2.6059,1.465.93,3.0147.3497,3.7402-1.2772.5251-1.1774.8836-2.4445,1.186-3.7029,1.0506-4.3725,1.96-8.7805,3.0902-13.1316.7228-2.7828,2.0938-5.3037,4.1627-7.3483.5222-.5161,1.3363-.7367,2.0162-1.0931.2172.7403.6916,1.5121.6057,2.2154-.3145,2.5747-.8942,5.1165-1.2224,7.6901-.2835,2.2228-.5452,4.4766-.487,6.7081.0902,3.4588,1.5998,6.2125,4.7808,7.8701.1864.0971.3785.1902.5778.2543,1.2642.4066,1.4382.1998,1.3158-1.0949-.2678-2.8315-.4472-5.6713-.6651-8.5075-.6649-8.6543-1.3117-17.31-2.0029-25.9622-.4869-6.0948-1.0332-12.1848-1.5578-18.2765-.0512-.5943-.0382-1.2181-.2218-1.7729-.9197-2.7794.7173-4.7499,2.1762-6.8706ZM40.5894,66.8147c.4776-1.2443.3706-2.2043-.452-2.8757-.2955-.2411-1.0242-.1307-1.4536.0546-.1879.0811-.3129.9277-.1342,1.1238.5613.6159,1.2804,1.088,2.0398,1.6972Z"/>
    <path class="cls-1" d="M397.3764,16.9515c-.6175,1.886-1.1938,3.7874-1.8858,5.6457-.1446.3881-.6762.697-1.0969.9076-6.4713,3.2406-12.9646,6.4373-19.4313,9.687-11.112,5.5841-22.2302,11.1565-33.3069,16.8099-13.9534,7.1217-27.9666,14.1356-41.7679,21.5428-11.1383,5.978-22.0359,12.4095-32.9634,18.772-3.2373,1.885-6.2588,4.1565-9.2946,6.367-2.2776,1.6584-2.2123,2.0411.3461,3.3045,1.412.6973,2.892,1.2728,4.3788,1.7972,1.0462.3689,1.6707.9006,1.641,2.0963-.0235.9448.1109,1.8925.1402,2.84.02.6472-.2433.9656-.9735.8147-3.3369-.6896-6.2987-2.1934-8.938-4.2862-.5291-.4195-.8598-1.4036-.8521-2.1228.018-1.6781.2395-3.3619.4848-5.0277.3577-2.4297,1.8599-4.1658,3.7959-5.4762,4.4199-2.9914,8.863-5.9525,13.3709-8.8087,11.5838-7.3395,23.7277-13.6927,35.9358-19.8931,24.7072-12.5487,49.5221-24.8851,74.2964-37.3016,5.0234-2.5177,10.0631-5.003,15.0968-7.5003.2473-.1227.5092-.2158.7643-.3227l.2595.1545Z"/>
    <path class="cls-1" d="M150.7905,33.1666c-3.4185,4.7378-6.7422,9.3442-10.1113,14.0136-5.621-4.2064-11.1716-8.3601-16.7806-12.5574-1.3921,1.9917-2.8295,4.0909-4.3118,6.1579-1.7184,2.3962-3.4857,4.7573-5.2102,7.1492-.4301.5966-.8042.3531-1.2282.0391-2.9056-2.1512-5.8169-4.2947-8.7189-6.4507-2.1977-1.6328-4.3766-3.2912-6.5821-4.9134-.4916-.3616-.7609-.6441-.3168-1.256,3.0924-4.2612,6.1613-8.5396,9.2414-12.8098.0575-.0796.1605-.1264.288-.2233,2.1825,1.5714,4.3779,3.1312,6.5508,4.7218,3.06,2.2399,6.1003,4.5066,9.1553,6.7532.9808.7212,1.2354.654,1.9269-.3294,2.9666-4.2184,5.9422-8.4305,8.9951-12.7593,5.7581,4.1967,11.3626,8.2813,17.1022,12.4645Z"/>
    <path class="cls-1" d="M92.9019,98.764c1.9282,2.5732,3.6956,4.9318,5.4629,7.2904-.0809.1162-.1619.2324-.2428.3486-.5493-.0815-1.0986-.1629-1.7755-.2633.1581.4441.2829.8989.4774,1.3216.6166,1.34,1.3039,2.6489,1.8829,4.0044,1.5015,3.515,1.5241,7.0881-.1523,10.5018-.6907,1.4065-1.8915,2.6082-3.0185,3.7464-4.0119,4.0517-8.7546,7.1616-13.6123,10.0577-5.4331,3.2391-11.0315,6.2909-17.1502,7.9634-5.6107,1.5336-11.3897,2.4515-17.0954,3.6365-.1294.0269-.2693.0034-.5-.1983.2686-.1379.5307-.2909.8068-.4116,11.1655-4.8789,22.3759-9.668,33.0053-15.6702,5.3938-3.0458,10.5005-6.5189,15.0685-10.7352q1.452-1.3401.6364-3.2037c-1.2355-2.8304-2.4917-5.652-3.6976-8.495-.5194-1.2246-1.0935-2.4627-1.3422-3.7527-.1671-.8664.1401-1.8459.332-2.7543.217-1.027.5424-2.0311.9144-3.3866Z"/>
    <path class="cls-1" d="M177.4619,134.6731c.0909-.7497.1534-1.5041.2775-2.2483.6403-3.8379,1.1973-7.6938,1.9863-11.5013.4363-2.1052,1.4752-4.013,3.0062-5.5991,1.2-1.2432,2.225-1.4588,3.7665-.6741,1.6474.8386,2.8566,2.1484,3.7144,3.7613.2122.3989.3356.9837.2127,1.3978-.4916,1.6573-1.0963,3.2811-1.6622,4.926-.95-.845-1.6898-1.517-2.4457-2.1704-.503-.4348-1.0188-.8563-1.5468-1.2603-.7708-.5898-1.5323-.4665-1.9602.3489-.7122,1.3572-1.5164,2.7362-1.8545,4.2044-.6046,2.6253-.8812,5.3254-1.3134,7.9912-.544,3.3551-1.0925,6.7096-1.6776,10.0577-.0818.4683-.3478.9191-.5961,1.338-.1455.2454-.4876.6163-.6307.5722-.3267-.1007-.7311-.3663-.8451-.6641-.3877-1.0132-.6759-2.0656-.9793-3.1097-1.0775-3.7078-1.9929-7.4791-4.2076-10.7396-.6231-.9173-1.2735-1.8159-1.8787-2.6767-.2171.0568-.3051.0527-.3468.0946-1.1265,1.1321-1.1414,1.1576-2.5497.2629-1.3614-.8649-2.6971-1.7717-4.0231-2.6904-1.051-.7281-1.4863-1.7416-1.2346-3.0172.2308-1.1699.3834-2.3636.72-3.5026.6233-2.1093,2.0315-2.6936,4.067-1.8111,2.3299,1.0101,4.0603,2.707,5.5521,4.7153,2.1832,2.9392,3.4906,6.3199,4.9593,9.6221.3681.8277.7427,1.6525,1.1142,2.4787.1253-.0354.2506-.0708.3758-.1062Z"/>
    <path class="cls-1" d="M186.2364,36.6807c.4933-1.4413,1.0163-2.8733,1.4706-4.3267.3569-1.1421,1.0545-1.8347,2.1426-2.3895,15.9489-8.1325,32.0334-15.9825,48.3283-23.3991.3027-.1378.6178-.2484,1.2276-.4915-.6634,2.0908-1.2014,3.9299-1.8529,5.7278-.1422.3925-.6417.7375-1.057.9372-12.8445,6.1756-25.7052,12.3174-38.5478,18.497-3.3524,1.6131-6.6519,3.3358-9.9786,5.0025-.4633.2321-.9429.4318-1.415.6465-.106-.068-.2119-.1361-.3178-.2041Z"/>
    <path class="cls-1" d="M307.5122,32.969c.2473-2.1531.4958-4.3061.7418-6.4594.4205-3.6815,1.0779-7.3018,2.8431-10.6198.3776-.7099.7939-1.4113,1.282-2.0479,1.2533-1.6348,2.6328-1.9149,4.4219-.886.6629.3812,1.2861.8628,1.8458,1.3861,1.5799,1.4772,2.4352,3.1526,1.3332,5.3341-.4552.9012-.8025,1.8569-1.2679,2.9499-.4273-.3446-.7538-.5737-1.04-.8453-.7379-.7003-1.4182-1.4665-2.1941-2.1202-1.2536-1.0562-2.3628-.9115-3.0595.6184-.7787,1.7103-1.5005,3.5194-1.8037,5.3587-.6955,4.2194-1.0608,8.4922-1.6891,12.7242-.2293,1.5444-.7917,3.0448-1.2735,4.5423-.1261.392-.5194.698-.7899,1.0435-.3473-.3586-.8561-.6586-1.0112-1.0869-.4526-1.2495-.7992-2.5414-1.1239-3.8326-.887-3.5279-2.0893-6.9245-4.0898-9.9913-.5476-.8395-1.1705-1.6298-1.8781-2.6074-1.0599,1.9333-2.1567,1.0594-3.2501.2734-1.2517-.8998-2.5238-1.7733-3.7427-2.7156-.6984-.5399-1.0342-1.2442-.8416-2.2164.251-1.2672.2143-2.5991.5342-3.8432.5455-2.1217,1.7875-2.8008,3.7954-1.9267,1.384.6026,2.7365,1.4701,3.8318,2.5062,2.8347,2.6817,4.4848,6.162,6.0192,9.6838.5466,1.2546,1.0362,2.5338,1.5704,3.794.1582.3731.3794.7194.5718,1.078.0882-.0313.1765-.0625.2647-.0938Z"/>
    <path class="cls-1" d="M365.5258,74.6518c-1.5281,1.3567-1.5427,1.3801-3.1473.3788-1.2494-.7796-2.468-1.6104-3.679-2.4493-.8764-.6072-1.3091-1.43-1.1166-2.5387.2456-1.4138.309-2.8766.711-4.2416.5375-1.8254,1.9485-2.3846,3.7497-1.6327,1.9502.8142,3.537,2.1221,4.8622,3.7687,2.4566,3.0525,3.9447,6.6241,5.4972,10.1627.4732,1.0785.933,2.1628,1.399,3.2445.1093-.0124.2186-.0248.328-.0372.0638-.4564.127-.9128.1916-1.3691.5309-3.7539.8853-7.5449,1.6628-11.247.4311-2.0527,1.3917-4.0567,2.4306-5.9044,1.5255-2.7133,3.6226-3.0083,6.0217-1.0384.7754.6367,1.4236,1.4494,2.0434,2.2488.6351.819.8304,1.7775.453,2.7875-.499,1.3356-1.013,2.6657-1.5965,4.1975-.4302-.3766-.6865-.583-.9224-.8106-.8329-.8037-1.6104-1.673-2.4992-2.4084-1.1915-.9858-1.8901-.9397-2.6093.439-.8516,1.6326-1.68,3.3679-2.0258,5.1542-.6323,3.2667-.8732,6.6077-1.3347,9.9097-.2864,2.0487-.6198,4.0952-1.0522,6.117-.1714.8015-.6212,1.5597-1.0301,2.2895-.384.6852-.8644.5306-1.1638-.0874-.2581-.5327-.4128-1.1168-.5986-1.6829-1.0508-3.2013-1.9342-6.4706-3.2042-9.5821-.8064-1.9758-2.1854-3.7178-3.3703-5.6679Z"/>
    <path class="cls-1" d="M238.302,35.9859c-.0966.6408-.1358,1.2969-.302,1.9191-.326,1.2208-.6819,2.4374-1.1062,3.6268-.237.6644-.0599.9937.5036,1.3753,1.4819,1.0035,2.9418,2.0463,4.35,3.1506,3.468,2.7198,4.6085,6.2674,3.4871,10.5018-.8213,3.1011-2.0001,6.0333-4.8807,7.8597-3.757,2.3821-9.5235,1.4477-11.9078-1.9052-1.3544-1.9046-1.5456-3.9998-1.0608-6.2388.9616-4.4415,3.1459-8.3209,5.4598-12.1504,1.452-2.403,2.8641-4.8301,4.3086-7.2377.2227-.3711.5238-.6951.7886-1.0409.1199.0465.2398.093.3597.1396ZM242.2891,56.4511c-.0741-.1721-.1032-.3197-.187-.4228-2.2518-2.7707-5.0985-4.8026-8.196-6.5005-.2432-.1333-.8759.0329-1.0586.2686-1.0028,1.2937-1.6987,2.7442-1.828,4.4121-.0937,1.2091.2916,2.1621,1.3261,2.9004,2.6221,1.8714,6.9313,1.6389,9.9435-.6578Z"/>
    <path class="cls-1" d="M330.3863,76.9108c-.1427.7208-.1692,1.4903-.4476,2.1542-1.411,3.3655-2.9803,6.6673-4.3059,10.0648-.7845,2.0108-1.3742,4.1303-1.7524,6.2542-.2113,1.1862.073,2.5092.3625,3.7157.146.6085.7126,1.2125,1.2442,1.6123,1.1832.8899,2.1371.6264,2.8458-.685.3834-.7094.6245-1.5043,1.0664-2.1699.2327-.3506.7589-.5064,1.1525-.7501.1143.3977.3835.8228.3186,1.1886-.5621,3.1697-1.9904,5.9366-4.3076,8.1502-2.1453,2.0494-4.9904,1.3571-5.8048-1.4723-.4836-1.6799-.6713-3.5322-.5594-5.2792.2719-4.2424,1.9683-8.0989,3.791-11.8703,1.5723-3.2532,3.2601-6.451,4.9276-9.6573.2705-.5201.7011-.9568,1.0577-1.4321.1372.0587.2744.1174.4115.1761Z"/>
    <path class="cls-1" d="M347.2899,177.8178c-.076,1.487-.5498,2.8842-1.14,4.2508-1.5155,3.5094-3.0784,6.999-4.5446,10.5289-.8069,1.9426-1.0132,4.0234-.7836,6.1036.0838.7601.3797,1.6052.8508,2.1937,1.4404,1.7992,3.0204,1.5555,4.0514-.4999.3593-.7163.7424-1.4253,1.1821-2.0934.1165-.177.4889-.2622.7321-.2429.1041.0083.2843.4103.2508.602-.6508,3.7159-2.1881,6.9488-5.2708,9.2729-1.5133,1.1408-3.0962.281-3.9435-.6571-1.1238-1.2443-1.3865-2.8138-1.4494-4.4089-.1339-3.3935.536-6.6717,1.9404-9.7295,2.1798-4.7461,4.5359-9.4114,6.8397-14.0999.2454-.4995.6404-.9255.966-1.3855.1062.0551.2124.1102.3186.1653Z"/>
    <path class="cls-1" d="M65.5833,56.6958c-.2829.4992-.5054.88-.7168,1.2669-.5861,1.0728-1.6007,1.6632-2.5555,1.4807-.9058-.1731-1.5383-1.0221-1.5793-2.3187-.0511-1.6122-.0511-3.2291.0195-4.8399.0153-.3501.4236-.6829.6509-1.0237.1571.337.4244.6655.451,1.0125.0881,1.1533.0425,2.3172.1373,3.4696.101,1.228,1.1056,1.6393,2.0843.8707.8354-.6561,1.2084-1.5103.965-2.6001-.1907-.8541-.4008-1.7174-.4442-2.5846-.0199-.3983.3392-.8155.5265-1.2242.2643.3447.6613.6529.7681,1.041.3251,1.1815.4762,2.4121.8213,3.5865.1693.5763.5434,1.1443.9692,1.5725.2275.2289.8541.3177,1.1293.1636.2338-.1309.3532-.7231.2938-1.0721-.1644-.9653-.4549-1.9086-.682-2.8639-.0647-.2719-.1632-.5728-.1058-.829.114-.5092.3255-.9966.4968-1.493.2853.3875.697.7357.8315,1.1699.3627,1.1702.7261,2.3642.8562,3.5738.0847.7871-.0711,1.6978-.4123,2.4133-.7922,1.6612-2.796,1.7302-3.8382.222-.196-.2836-.3843-.5726-.6666-.9941Z"/>
    <path class="cls-1" d="M61.7896,153.3914c-.1202.2706-.1756.4839-.2954.6509-.816,1.1376-1.6455,2.2656-2.471,3.3964-.3589.4917-.7116.4024-1.1476.0583-1.3195-1.041-2.6533-2.0651-4.0072-3.0608-.6026-.4431-.7313-.8236-.2122-1.4536.7321-.8886,1.3819-1.8466,2.0438-2.7911.4514-.6442.9371-.7546,1.5876-.2709,1.3487,1.0031,2.7219,1.9732,4.0747,2.9709.1794.1323.2989.3461.4274.4998Z"/>
    <path class="cls-1" d="M58.8191,137.8346c.1049-1.4581.9603-2.0072,1.8531-2.4706,2.2715-1.1791,4.5529-2.3407,6.8529-3.4632,3.4339-1.6759,6.8869-3.3128,10.3335-4.9628.1207-.0578.2595-.0776.4871-.1431.0775.9994.0211,1.718-1.0449,2.2237-5.7344,2.7204-11.431,5.5205-17.1437,8.2869-.365.1768-.7556.3007-1.3379.5292Z"/>
    <path class="cls-1" d="M94.1888,150.5062c.1762,1.0235-.0531,1.7184-1.0263,2.1772-4.1858,1.9736-8.3524,3.9881-12.5214,5.9972-1.4837.715-2.946,1.475-4.4367,2.1749-.4339.2037-.9322.2705-1.4009.4-.0929-.1391-.1859-.2781-.2788-.4172.4118-.4448.7416-1.0494,1.2482-1.3091,4.241-2.1749,8.511-4.2936,12.78-6.4135,1.695-.8417,3.4089-1.6456,5.1171-2.4604.1466-.0699.3159-.0923.5187-.1491Z"/>
    <path class="cls-1" d="M92.25,147.1832c-.1757-.3379-.3852-.6629-.5206-1.0163-.3758-.9808-.6771-1.9922-1.0917-2.9554-.3259-.7574-.8187-1.303-1.7848-1.4093-1.2818-.141-2.0873-1.501-1.7699-2.7211.2714-1.0432,1.0861-1.4518,1.8764-.7387.9131.8239,1.648,1.863,2.3713,2.8725.3925.5479.6,1.2285.8909,1.8493.0955-.0097.191-.0193.2865-.029.0545-.4529.0509-.9225.1746-1.3556.3614-1.265.6968-2.5467,1.1926-3.7605.3366-.8239,1.0828-1.0505,1.9372-.639.8032.3868,1.2287,1.3132.9261,2.1103-.212.5583-.557.7566-1.1387.3755-1.1917-.7806-1.5141-.6661-1.7884.7293-.3379,1.7186-.5819,3.4555-.8752,5.183-.0799.4703-.1913.9353-.2882,1.4028-.1326.0341-.2653.0682-.3979.1024Z"/>
    <path class="cls-1" d="M19.479,139.0398c-.1773-.3947-.3668-.7845-.5296-1.1851-.4861-1.196-.9123-2.4203-1.4754-3.5784-.1462-.3007-.6912-.5072-1.0821-.5674-.7208-.111-2.0323-1.0473-2.009-1.7472.0205-.6167.2205-1.3609.6229-1.775.2003-.2062,1.1062.0782,1.5634.3548,1.2258.7414,1.8464,1.9741,2.3527,3.2698.1723.4408.4102.856.6181,1.2829.097-.0089.194-.0179.291-.0269.0684-.3412.1264-.6849.207-1.0233.3146-1.3215.5875-2.6557.9728-3.9564.2521-.8511.9644-1.2687,1.8166-1.0232.8693.2504,1.2579.9866,1.193,1.8852-.0206.2851-.1702.6836-.3839.7958-.1953.1025-.603-.0423-.8373-.1982-1.0984-.7306-1.261-.7398-1.5761.5795-.4711,1.973-.7935,3.9815-1.1835,5.974-.0568.2901-.1378.5754-.2076.8629-.1177.0254-.2353.0508-.353.0762Z"/>
    <path class="cls-1" d="M41.8978,46.6364c-.4607,1.2879.2814,1.8636,1.1763,2.5056,1.29.9255,1.9366,2.2249,1.4756,3.8527-.4091,1.4447-1.2457,2.5001-2.836,2.7584-2.0295.3297-3.5768-1.2696-3.0307-3.2606.2737-.9978.8012-1.9344,1.2787-2.8654.474-.9243,1.0229-1.8108,1.5565-2.7034.0755-.1263.2506-.193.3795-.2873ZM41.534,53.5817c.0373-.0609.0745-.1218.1118-.1827.1737-.0109.3781.0333.5153-.0432.391-.2179.7547-.4848,1.1291-.7325-.2644-.3536-.4876-.7508-.8039-1.0495-.3747-.3538-.7985-.6916-1.2621-.9007-.2499-.1127-.8549-.0271-.9079.1151-.2211.5934-.553,1.3532-.3454,1.8386.1957.4575,1.0169.6473,1.563.9549Z"/>
    <path class="cls-1" d="M82.0545,99.1055c-.2289-1.0921.3551-1.6047,1.0591-1.9567,3.2637-1.6319,6.5417-3.2352,9.8221-4.8333,1.1246-.5479,2.2711-1.0508,3.5329-1.632-.0007,1.0622-.1847,1.8463-1.0559,2.2618-4.15,1.9796-8.3065,3.9454-12.4649,5.907-.2448.1155-.5269.1518-.8933.253Z"/>
    <path class="cls-1" d="M63.7212,46.7281c-.0845-.6371-.2072-1.2718-.2471-1.9116-.2197-3.5191-1.5646-6.42-4.4673-8.5568-1.1584-.8528-1.251-1.9749-.4795-3.2076,3.8201,1.1712,7.2788,9.7842,5.1939,13.676Z"/>
    <path class="cls-1" d="M40.1476,168.9639c-.1427-.8531-.3165-1.4809-.3425-2.1147-.1546-3.7756-1.669-6.8255-4.6863-9.1397-.9121-.6996-.9912-1.6957-.4251-3.0252,3.9135,1.2473,7.5337,10.3259,5.4539,14.2796Z"/>
    <path class="cls-1" d="M87.0153,88.7624c.72-.6086,1.2436-1.0512,1.7638-1.4909.1959,1.1667-1.081,3.0526-2.1868,3.2357-.7939.1315-1.4724-.5037-1.3599-1.5666.1495-1.4117.3855-2.8462.8394-4.1843.4234-1.2478,1.1819-2.3816,1.7896-3.5673.1068-.2083.1979-.4247.2962-.6373.1373.1029.2746.2057.4119.3086-.5275,1.1994-1.1056,2.3797-1.5646,3.6048-.3032.8093-.5483,1.6757-.6017,2.5301-.0323.5177.351,1.0613.6119,1.7673Z"/>
    <path class="cls-1" d="M36.4763,112.7894c-.6538.9057-1.2531,1.8617-2.0052,2.6768-.16.1734-1.1009-.0189-1.2874-.3024-.3421-.5199-.5704-1.2449-.5301-1.8637.1788-2.7462,1.729-4.9512,2.8991-7.3028.0984.0334.1969.0667.2953.1001-.0949.3321-.1598.6765-.29.994-.4927,1.2012-1.0792,2.3699-1.4829,3.5992-.2098.639-.2176,1.394-.1251,2.0704.1249.9132.7376,1.0834,1.3678.4289.2356-.2447.3348-.6208.4962-.937l.6623.5364Z"/>
    <path class="cls-1" d="M22.4704,157.0929c-.1222.361-.233.7263-.3687,1.0821-.5112,1.3399-1.0408,2.6729-1.5379,4.0179-.0946.256-.1422.5687-.0902.8313.1042.5261.2923,1.0356.4457,1.5519.4235-.1884.847-.3771,1.2706-.5652.1545-.0686.3096-.1359.6995-.3068-.4159,1.2335-.8341,2.1764-1.8307,2.7667-.6019.3565-1.1111.2489-1.4015-.373-.2023-.4331-.363-.9326-.3669-1.4039-.0244-2.947,1.643-5.2421,2.8279-7.7222.1174.0404.2348.0808.3522.1211Z"/>
    <path class="cls-1" d="M74.4912,114.5321c-.2375.4401-.403.8293-.6394,1.1692-.7189,1.034-1.4313,2.0768-2.2293,3.0479-.1594.194-.7974.2482-1.025.0914-1.4989-1.0326-2.9654-2.1161-4.3903-3.2486-.2314-.1839-.4007-.8243-.2634-1.0315.7707-1.1637,1.6383-2.2638,2.4848-3.3765.4011-.5272.8205-.4871,1.3461-.0984,1.3764,1.018,2.7928,1.9818,4.1884,2.974.1823.1296.3364.2991.5282.4725Z"/>
  </g>
</svg>