<?xml version="1.0" encoding="UTF-8"?>
<svg id="Scale" xmlns="http://www.w3.org/2000/svg" width="276.8599" height="211.0685" viewBox="0 0 276.8599 211.0685">
  <defs>
    <style>




      @import url('../../CSS/SvgStyling.css');
      
    </style>
  </defs>
  
  <g class="content">

    <title>Scale</title>

    <rect id="bg" class="bg" width="276.8599" height="211.0685"/>
    <g id="Paths">
      <path class="cls-1" d="M228.9852,41.3813l29.6246,92.8339h-59.2493l29.6246-92.8339ZM134.0177,20.8735c0-2.3885,1.9462-4.3295,4.3451-4.3295,2.3937,0,4.3399,1.941,4.3399,4.3295s-1.9462,4.3295-4.3399,4.3295c-2.3989,0-4.3451-1.941-4.3451-4.3295ZM18.1158,134.2152l29.6194-92.8339,29.6246,92.8339H18.1158ZM272.358,136.3019c-.7233-1.2905-2.0867-2.0867-3.5697-2.0867h-3.7623l-30.8787-96.7627h.1093c3.3876,0,6.1352-2.7423,6.1352-6.1247s-2.7476-6.1247-6.1352-6.1247h-79.8715c.3747-1.379.5932-2.8308.5932-4.3295,0-9.1377-7.4517-16.5738-16.6154-16.5738s-16.6206,7.4361-16.6206,16.5738c0,1.4987.2238,2.9505.5984,4.3295H42.4691c-3.3876,0-6.1352,2.7423-6.1352,6.1247s2.7476,6.1247,6.1352,6.1247h.1093l-30.8787,96.7627h-3.7675c-1.4778,0-2.8412.7962-3.5697,2.0867-.7233,1.2853-.6921,2.862.0781,4.1213,9.3094,15.2312,25.4981,24.3273,43.3,24.3273s33.9853-9.0961,43.2947-24.3273c.7701-1.2593.7962-2.836.0729-4.1213-.7233-1.2905-2.0867-2.0867-3.5645-2.0867h-3.7675l-30.8787-96.7627h79.3303v152.4579h-43.8724c-2.2584,0-4.0901,1.8265-4.0901,4.0797v8.8411c0,2.2532,1.8317,4.0797,4.0901,4.0797h100.015c2.2584,0,4.0901-1.8265,4.0901-4.0797v-8.8411c0-2.2532-1.8317-4.0797-4.0901-4.0797h-43.8724V37.4525h79.3251l-30.8787,96.7627h-3.7623c-1.4778,0-2.8464.7962-3.5697,2.0867-.7233,1.2853-.6973,2.862.0729,4.1213,9.3094,15.2312,25.4981,24.3273,43.3,24.3273s33.9853-9.0961,43.3-24.3273c.7701-1.2593.7962-2.836.0729-4.1213"/>

      
    </g>
  </g>
</svg>