<?xml version="1.0" encoding="UTF-8"?>
<svg id="Shower" xmlns="http://www.w3.org/2000/svg" viewBox="0 0 175.1379 237.9843">
  <defs>
    <style>
      

      @import url('../../CSS/SvgStyling.css');

      
    </style>
  </defs>
  
  <g class="content">

    <rect id="bg" class="bg" width="175.1379" height="237.9843"/>


    <path class="cls-1" d="M24.3303,138.1728c-1.1666,0-2.1222.937-2.1222,2.0912v9.2894c0,1.1542.9556,2.0912,2.1222,2.0912,1.1728,0,2.1222-.937,2.1222-2.0912v-9.2894c0-1.1542-.9494-2.0912-2.1222-2.0912Z"/>
    <path class="cls-1" d="M43.5172,138.1728c-1.1666,0-2.1222.937-2.1222,2.0912v9.2894c0,1.1542.9556,2.0912,2.1222,2.0912,1.1728,0,2.1222-.937,2.1222-2.0912v-9.2894c0-1.1542-.9494-2.0912-2.1222-2.0912Z"/>
    <path class="cls-1" d="M62.7104,138.1728c-1.1728,0-2.1222.937-2.1222,2.0912v9.2894c0,1.1542.9494,2.0912,2.1222,2.0912,1.1666,0,2.1222-.937,2.1222-2.0912v-9.2894c0-1.1542-.9556-2.0912-2.1222-2.0912Z"/>
    <path class="cls-1" d="M81.8973,138.1728c-1.1728,0-2.1222.937-2.1222,2.0912v9.2894c0,1.1542.9494,2.0912,2.1222,2.0912s2.1222-.937,2.1222-2.0912v-9.2894c0-1.1542-.9494-2.0912-2.1222-2.0912Z"/>
    <path class="cls-1" d="M101.0842,138.1728c-1.1728,0-2.1284.937-2.1284,2.0912v9.2894c0,1.1542.9556,2.0912,2.1284,2.0912s2.1222-.937,2.1222-2.0912v-9.2894c0-1.1542-.9494-2.0912-2.1222-2.0912Z"/>
    <path class="cls-1" d="M120.2711,138.1728c-1.1728,0-2.1284.937-2.1284,2.0912v9.2894c0,1.1542.9556,2.0912,2.1284,2.0912,1.1666,0,2.1222-.937,2.1222-2.0912v-9.2894c0-1.1542-.9556-2.0912-2.1222-2.0912Z"/>
    <path class="cls-1" d="M24.3303,163.8195c-1.1666,0-2.1222.937-2.1222,2.0912v9.2894c0,1.1542.9556,2.0912,2.1222,2.0912,1.1728,0,2.1222-.937,2.1222-2.0912v-9.2894c0-1.1542-.9494-2.0912-2.1222-2.0912Z"/>
    <path class="cls-1" d="M43.5172,163.8195c-1.1666,0-2.1222.937-2.1222,2.0912v9.2894c0,1.1542.9556,2.0912,2.1222,2.0912,1.1728,0,2.1222-.937,2.1222-2.0912v-9.2894c0-1.1542-.9494-2.0912-2.1222-2.0912Z"/>
    <path class="cls-1" d="M62.7104,163.8195c-1.1728,0-2.1222.937-2.1222,2.0912v9.2894c0,1.1542.9494,2.0912,2.1222,2.0912,1.1666,0,2.1222-.937,2.1222-2.0912v-9.2894c0-1.1542-.9556-2.0912-2.1222-2.0912Z"/>
    <path class="cls-1" d="M81.8973,163.8195c-1.1728,0-2.1222.937-2.1222,2.0912v9.2894c0,1.1542.9494,2.0912,2.1222,2.0912s2.1222-.937,2.1222-2.0912v-9.2894c0-1.1542-.9494-2.0912-2.1222-2.0912Z"/>
    <path class="cls-1" d="M101.0842,163.8195c-1.1728,0-2.1284.937-2.1284,2.0912v9.2894c0,1.1542.9556,2.0912,2.1284,2.0912s2.1222-.937,2.1222-2.0912v-9.2894c0-1.1542-.9494-2.0912-2.1222-2.0912Z"/>
    <path class="cls-1" d="M120.2711,163.8195c-1.1728,0-2.1284.937-2.1284,2.0912v9.2894c0,1.1542.9556,2.0912,2.1284,2.0912,1.1666,0,2.1222-.937,2.1222-2.0912v-9.2894c0-1.1542-.9556-2.0912-2.1222-2.0912Z"/>
    <path class="cls-1" d="M24.3303,189.4724c-1.1666,0-2.1222.937-2.1222,2.085v9.2894c0,1.1542.9556,2.0912,2.1222,2.0912,1.1728,0,2.1222-.937,2.1222-2.0912v-9.2894c0-1.148-.9494-2.085-2.1222-2.085Z"/>
    <path class="cls-1" d="M43.5172,189.4724c-1.1666,0-2.1222.937-2.1222,2.085v9.2894c0,1.1542.9556,2.0912,2.1222,2.0912,1.1728,0,2.1222-.937,2.1222-2.0912v-9.2894c0-1.148-.9494-2.085-2.1222-2.085Z"/>
    <path class="cls-1" d="M62.7104,189.4724c-1.1728,0-2.1222.937-2.1222,2.085v9.2894c0,1.1542.9494,2.0912,2.1222,2.0912,1.1666,0,2.1222-.937,2.1222-2.0912v-9.2894c0-1.148-.9556-2.085-2.1222-2.085Z"/>
    <path class="cls-1" d="M81.8973,189.4724c-1.1728,0-2.1222.937-2.1222,2.085v9.2894c0,1.1542.9494,2.0912,2.1222,2.0912s2.1222-.937,2.1222-2.0912v-9.2894c0-1.148-.9494-2.085-2.1222-2.085Z"/>
    <path class="cls-1" d="M101.0842,189.4724c-1.1728,0-2.1284.937-2.1284,2.085v9.2894c0,1.1542.9556,2.0912,2.1284,2.0912s2.1222-.937,2.1222-2.0912v-9.2894c0-1.148-.9494-2.085-2.1222-2.085Z"/>
    <path class="cls-1" d="M120.2711,189.4724c-1.1728,0-2.1284.937-2.1284,2.085v9.2894c0,1.1542.9556,2.0912,2.1284,2.0912,1.1666,0,2.1222-.937,2.1222-2.0912v-9.2894c0-1.148-.9556-2.085-2.1222-2.085Z"/>
    <path class="cls-1" d="M101.0842,215.6154c-1.1728,0-2.1284.937-2.1284,2.0912v9.2894c0,1.148.9556,2.085,2.1284,2.085s2.1222-.937,2.1222-2.085v-9.2894c0-1.1542-.9494-2.0912-2.1222-2.0912Z"/>
    <path class="cls-1" d="M120.2711,215.6154c-1.1728,0-2.1284.937-2.1284,2.0912v9.2894c0,1.148.9556,2.085,2.1284,2.085,1.1666,0,2.1222-.937,2.1222-2.085v-9.2894c0-1.1542-.9556-2.0912-2.1222-2.0912Z"/>
    <path class="cls-1" d="M62.7104,215.6154c-1.1728,0-2.1222.937-2.1222,2.0912v9.2894c0,1.148.9494,2.085,2.1222,2.085,1.1666,0,2.1222-.937,2.1222-2.085v-9.2894c0-1.1542-.9556-2.0912-2.1222-2.0912Z"/>
    <path class="cls-1" d="M43.5172,215.6154c-1.1666,0-2.1222.937-2.1222,2.0912v9.2894c0,1.148.9556,2.085,2.1222,2.085,1.1728,0,2.1222-.937,2.1222-2.085v-9.2894c0-1.1542-.9494-2.0912-2.1222-2.0912Z"/>
    <path class="cls-1" d="M24.3303,215.6154c-1.1666,0-2.1222.937-2.1222,2.0912v9.2894c0,1.148.9556,2.085,2.1222,2.085,1.1728,0,2.1222-.937,2.1222-2.085v-9.2894c0-1.1542-.9494-2.0912-2.1222-2.0912Z"/>
    <path class="cls-1" d="M81.8973,215.6154c-1.1728,0-2.1222.937-2.1222,2.0912v9.2894c0,1.148.9494,2.085,2.1222,2.085s2.1222-.937,2.1222-2.085v-9.2894c0-1.1542-.9494-2.0912-2.1222-2.0912Z"/>
    <path class="cls-1" d="M155.6787,23.9078h-52.7516c-13.7138,0-24.8772,10.6732-24.8772,23.7851v10.2947h-11.4985v-10.2947c0-19.0814,16.32-34.6072,36.3757-34.6072h52.7516c1.1666,0,2.1222-.937,2.1222-2.0912,0-1.148-.9556-2.0912-2.1222-2.0912h-52.7516c-22.4013,0-40.6201,17.406-40.6201,38.7896v10.2947h-3.897c-3.6549,0-6.6273,2.8607-6.6273,6.3791v15.0728l-.1179.0558c-8.6999,3.6425-16.1773,9.5128-21.6318,16.9716-5.5724,7.6202-8.7495,16.562-9.1963,25.8514l-.0124.1862h-1.359c-1.1728,0-2.1284.937-2.1284,2.0912s.9556,2.0912,2.1284,2.0912h105.6707c1.1728,0,2.1284-.937,2.1284-2.0912s-.9556-2.0912-2.1284-2.0912h-1.359l-.0062-.1862c-.453-9.2894-3.6301-18.2313-9.2025-25.8514-5.4483-7.4588-12.9319-13.3291-21.6256-16.9716l-.1241-.0558v-15.0728c0-3.5184-2.9724-6.3791-6.6211-6.3791h-3.9032v-10.2947c0-10.8097,9.2584-19.6027,20.6327-19.6027h52.7516c1.1666,0,2.1222-.937,2.1222-2.0912,0-1.148-.9556-2.0912-2.1222-2.0912ZM119.5823,122.2934l.0124.211H25.0067l.0062-.211c1.2783-23.9774,22.0538-42.761,47.2909-42.761s46.0002,18.7836,47.2785,42.761ZM86.1976,62.1699c1.3093,0,2.3704.9866,2.3704,2.1967v13.5276l-.2606-.0807c-10.4374-3.264-21.5884-3.264-32.0133,0l-.2606.0807v-13.5276c0-1.21,1.0673-2.1967,2.3766-2.1967h27.7875Z"/>
  </g>
</svg>