<?xml version="1.0" encoding="UTF-8"?>
<svg id="Socks" xmlns="http://www.w3.org/2000/svg" viewBox="0 0 272.3492 237.9843">
  <defs>
    <style>
      

      @import url('../../CSS/SvgStyling.css');
      
    </style>
  </defs>


  <g class="content">

  <rect id="bg" class="bg" width="272.3492" height="237.9843"/>


  <path id="content" class="cls-1" d="M246.6007,129.3894c-.2332-1.2774-.5792-2.5238-1.0383-3.739-.4589-1.2152-1.0234-2.3795-1.6932-3.4933-.6698-1.1136-1.4343-2.1586-2.2934-3.1349-.8592-.9762-1.799-1.8679-2.8196-2.6751-1.0207-.8073-2.1055-1.5169-3.2547-2.129s-2.344-1.1168-3.5846-1.5141-2.5068-.6807-3.7987-.8502l-24.3712-3.3629-.1588-.022-8.3342-1.1443c-2.6239-.3559-5.1998-.9273-7.7274-1.7141s-4.9719-1.7778-7.3326-2.9734-4.605-2.5787-6.7327-4.1496c-2.1277-1.5708-4.1092-3.3074-5.9445-5.2096-1.8352-1.9023-3.4985-3.9436-4.9898-6.1241-1.4914-2.1804-2.7899-4.4694-3.8958-6.867-1.1058-2.3976-2.0032-4.8702-2.6924-7.418-.6893-2.5477-1.1607-5.1347-1.4141-7.7613l-4.8853-48.9796c-.0458-.4538-.1719-.8842-.3782-1.2913-.2064-.4071-.4794-.7635-.8188-1.0695-.3394-.3059-.7227-.5408-1.1499-.7048-.4272-.1639-.8695-.2458-1.3273-.2458h-76.0268c-.4897,0-.9607.0933-1.4131.28s-.8518.4526-1.198.7976-.613.7429-.8005,1.1937c-.1874.4507-.281.9201-.281,1.408v42.5224c.0161,5.5339-.7003,10.972-2.1491,16.3142h-26.7307c-.4896,0-.9607.0933-1.413.2801-.4524.1867-.8518.4525-1.198.7976-.3463.345-.6131.7428-.8005,1.1937-.1874.4507-.2811.92-.2811,1.408v42.5555c.056,6.7149-.9803,13.2581-3.1091,19.6294-2.9438,8.5652-4.6314,17.3695-5.0627,26.4129-.3313,6.9429.1433,13.8101,1.317,20.6121.5175,5.1599,4.4746,9.2934,9.542,10.1056.0013.0103.0038.0205.0051.0308l59.3323,13.2726,44.9463,11.1963c9.0814,2.2609,18.3408,2.884,27.7781,1.8688,5.2741-.5673,10.4654-1.7491,15.5292-3.3289l14.3084-4.4637c1.1395-.3369,2.2454-.761,3.3175-1.2722,1.0722-.5113,2.0973-1.1035,3.0755-1.7765.9781-.673,1.8969-1.4185,2.7566-2.2365s1.6493-1.6982,2.3692-2.6407c.7197-.9425,1.3606-1.9356,1.9227-2.9793.5621-1.0436,1.0382-2.1248,1.4284-3.2435.3902-1.1187.6897-2.2611.8984-3.4271.2087-1.166.3241-2.3411.3462-3.5253-.0012-1.2986-.1188-2.5866-.3529-3.864-.234-1.2775-.5807-2.5238-1.04-3.7391-.4592-1.2153-1.0239-2.3798-1.6937-3.4937-.6699-1.1139-1.4342-2.1592-2.293-3.136-.8589-.9767-1.7983-1.8691-2.8185-2.6771-1.0201-.8081-2.1044-1.5189-3.2531-2.1324s-2.343-1.1198-3.5832-1.5188c-1.2401-.3991-2.5061-.6846-3.7979-.8565l-24.4487-3.374h-.0886l-8.3416-1.1516c-3.2859-.4462-6.4894-1.2277-9.6105-2.3445-3.1212-1.1168-6.0919-2.5445-8.912-4.2831s-5.4283-3.7501-7.8243-6.0346c-2.3961-2.2845-4.5279-4.7921-6.3953-7.5228l43.2883,10.6333c6.2561,1.5499,12.6073,2.3238,19.0538,2.3217,6.3454.0052,12.5981-.7503,18.7584-2.2666,1.573-.3495,3.146-.8167,4.8003-1.3135l14.9809-4.6765c1.1431-.333,2.2527-.7541,3.3288-1.2631,1.076-.5091,2.1047-1.0996,3.0865-1.7718.9816-.6723,1.9037-1.4176,2.7663-2.236.8625-.8184,1.6548-1.6997,2.3766-2.6438.7218-.944,1.3642-1.9391,1.927-2.985.5629-1.046,1.0392-2.1297,1.429-3.2511.3899-1.1215.6882-2.2667.895-3.4355s.3197-2.3465.3385-3.5332c0-1.2985-.1165-2.5864-.3498-3.8637ZM73.6312,20.1753h68.9925l1.2814,12.8557h-70.2739v-12.8557ZM41.0588,82.706l68.9852.0184,1.2776,12.8558H41.0588v-12.8741ZM40.2157,191.6823c-3.399-.7613-6.0284-3.5238-6.5194-6.9722-.962-6.7556-1.1258-13.5566-.4916-20.4033,6.5476-.089,12.9012.9731,19.0612,3.1863,3.8983,1.56,7.5974,3.4974,11.0973,5.8125s6.7278,4.9598,9.6839,7.934c2.956,2.9742,5.5787,6.2161,7.868,9.7259,2.2893,3.5097,4.1977,7.2142,5.7252,11.1136l-46.4245-10.3969ZM169.6784,188.054c.2489-1.6343.6244-3.2391,1.1268-4.8144s1.1253-3.1018,1.8689-4.5794l21.8639,3.017c.8547.1141,1.6924.3033,2.513.5678s1.6108.5998,2.3707,1.0063c.7599.4063,1.4772.877,2.152,1.4122.6746.5351,1.296,1.1261,1.8639,1.7728s1.0732,1.3388,1.5158,2.0762c.4428.7375.8157,1.5084,1.119,2.3128.3033.8045.532,1.6294.6861,2.4749.154.8455.2311,1.6979.231,2.5573-.049,1.5947-.3449,3.1425-.8875,4.6434s-1.3055,2.8812-2.2884,4.1406c-.9828,1.2594-2.1375,2.336-3.4637,3.2298-1.3263.8938-2.759,1.5607-4.298,2.0008l-15.0141,4.6949c-.7643.2354-1.5398.4195-2.3078.6329-1.1809-1.161-2.2633-2.4069-3.2473-3.7377-.9841-1.3307-1.8575-2.7299-2.6204-4.1977s-1.4059-2.986-1.929-4.5547c-.523-1.5686-.9196-3.1684-1.19-4.7992-.2703-1.6309-.4109-3.2727-.4217-4.9257-.0108-1.6529.1081-3.2965.3569-4.9308ZM132.9159,164.0518c1.1468,1.0045,2.3337,1.9595,3.5607,2.8649,1.227.9055,2.4898,1.7583,3.7884,2.5584s2.6285,1.5449,3.9897,2.2341,2.7489,1.3207,4.1632,1.8942c1.4142.5735,2.85,1.0871,4.3074,1.5408,1.4574.4538,2.9312.846,4.4215,1.1769,1.4904.3309,2.9919.5991,4.5048.8046l3.3234.4563c-.6757,1.6047-1.241,3.247-1.6961,4.927s-.7958,3.3829-1.0221,5.1083c-.2264,1.7255-.3363,3.4584-.3299,5.1985.0065,1.7402.1293,3.4722.3685,5.1959.2391,1.7238.5924,3.424,1.06,5.1007.4675,1.6766,1.0451,3.3147,1.7326,4.9143s1.4791,3.1465,2.3744,4.6406c.8955,1.494,1.8868,2.922,2.974,4.2839-9.4235,1.4376-18.7609,1.0095-28.012-1.2842l-45.0238-11.1962-2.0568-.4599c-7.4738-20.9061-22.1556-36.6796-40.5263-43.4164-6.6898-2.4161-13.5925-3.6302-20.7081-3.6426.7941-4.5444,1.94-8.9988,3.4378-13.3634,2.3961-7.1463,3.5667-14.4867,3.5116-22.021v-18.647h70.9939l2.5257,25.4464c.1476,1.5144.3584,3.0197.6323,4.5164.2741,1.4967.6104,2.9794,1.009,4.4481.3985,1.4686.858,2.9181,1.3783,4.3484.5203,1.4304,1.0997,2.8365,1.7382,4.2185.6384,1.3819,1.3337,2.735,2.0858,4.059s1.5585,2.6144,2.4189,3.8712c.8605,1.2567,1.7722,2.4756,2.7351,3.6562.963,1.1807,1.9736,2.3194,3.0322,3.4158,1.0585,1.0964,2.1612,2.1469,3.3079,3.1513ZM175.0077,153.1547l-.0074-.0147-45.0496-11.2184-4.7118-1.0449c-1.7525-4.2547-2.8603-8.6699-3.3233-13.2457l-4.852-48.9686c-.046-.4554-.1728-.8872-.3804-1.2954s-.4821-.7654-.8235-1.0716c-.3414-.3061-.7267-.5406-1.156-.7036s-.8735-.2432-1.3328-.2409h-41.6119c1.2674-5.3649,1.8914-10.8029,1.8722-16.3143v-18.647h71.0087l2.5331,25.4465c.1463,1.5147.3559,3.0206.6288,4.5178.2729,1.4973.6081,2.9805,1.0057,4.4497.3976,1.4692.8561,2.9193,1.3756,4.3503s1.0982,2.8378,1.7359,4.2204c.6378,1.3826,1.3325,2.7364,2.0841,4.0611.7516,1.3246,1.5574,2.6157,2.4175,3.8731s1.7715,2.4768,2.7342,3.6581c.9627,1.1813,1.9731,2.3205,3.0316,3.4175,1.0584,1.097,2.161,2.148,3.3078,3.153,1.1467,1.0049,2.3337,1.9604,3.5608,2.8662,1.227.9058,2.4901,1.7591,3.7889,2.5595,1.2988.8005,2.6289,1.5453,3.9904,2.2348,1.3614.6894,2.7494,1.321,4.164,1.8946,1.4145.5735,2.8506,1.0872,4.3084,1.5408,1.4577.4537,2.9319.8458,4.4226,1.1765s2.9926.5987,4.5059.8039l3.3234.4599c-.6752,1.6034-1.2403,3.2443-1.6951,4.923-.4549,1.6788-.7954,3.3801-1.0218,5.1043-.2264,1.724-.3365,3.4555-.3303,5.1942s.1287,3.4694.3673,5.1919.5914,3.4214,1.0582,5.0968,1.0436,3.3124,1.7302,4.9109c.6867,1.5984,1.4772,3.1443,2.3715,4.6374.8943,1.493,1.8844,2.9202,2.9703,4.2812-9.4178,1.4389-18.7514,1.0194-28.001-1.2583ZM238.6873,137.9662c-.5411,1.5023-1.3037,2.8833-2.2878,4.1428s-2.1406,2.3348-3.4696,3.226c-1.329.8912-2.7642,1.5538-4.3057,1.988l-14.9994,4.6801c-.7385.2281-1.5472.4195-2.319.6328-1.1797-1.1605-2.261-2.4059-3.2439-3.7361-.983-1.3301-1.8555-2.7288-2.6174-4.1958-.7621-1.467-1.4042-2.9843-1.9266-4.5521-.5223-1.5677-.9184-3.1665-1.1881-4.7964-.2698-1.6298-.41-3.2707-.4207-4.9225-.0106-1.6518.1086-3.2943.3574-4.9274.249-1.6332.6244-3.2368,1.1267-4.8111.5022-1.5743,1.1248-3.0997,1.8679-4.5762l21.8639,3.0133c.8552.1133,1.6934.3018,2.5143.566.821.2641,1.6116.5993,2.3717,1.0056.7603.4063,1.4778.8773,2.1527,1.4128.6748.5355,1.2961,1.127,1.8637,1.7743.5676.6474,1.0725,1.3402,1.5145,2.0784.4421.7382.8142,1.5099,1.1162,2.3151.3021.8052.5294,1.6308.6818,2.4768.1525.8461.2276,1.699.2255,2.5586-.0443,1.5956-.337,3.1445-.8781,4.6469Z"/>
  </g>

</svg>