<?xml version="1.0" encoding="UTF-8"?>
<svg id="sperm" xmlns="http://www.w3.org/2000/svg" viewBox="0 0 305.9381 243.887">
  <defs>
    <style>
      

      @import url('../../CSS/SvgStyling.css');

      
    </style>
  </defs>
  
  <g class="content">

    <rect id="bg" class="bg" width="305.9381" height="243.887"/>

    <path class="cls-1" d="M275.4649,28.1088c-11.3472-16.5443-50.9709-8.9822-79.4089,10.4172-21.734,14.8202-27.6302,30.3427-24.1516,44.2294l-8.0668,6.3215c-3.9755,3.1168-5.0547,8.5442-2.8322,12.8681-3.1097,3.0498-6.0486,6.1544-8.7497,9.2558-7.3199,8.4652-12.4112,16.0395-16.0178,23.8479-1.1067,2.4295-1.9908,4.7282-2.7072,7.0392l-.5304,1.7362c-.1189.3618-.2378.7297-.3872,1.1371-.3201.8848-.6859,1.7849-1.0793,2.6666-1.5304,3.3964-3.6218,6.8628-6.2132,10.2987-4.9968,6.5769-11.2832,12.409-18.1823,16.8635-3.6279,2.3352-7.3351,4.2082-11.0149,5.5643-4.0395,1.4869-7.9936,2.3292-11.7436,2.4994l-1.8474.0761c-.5792.0365-1.1616.07-1.7012.1216-1.2073.1034-2.4268.2523-3.6066.441-2.2682.3495-4.5608.8453-7.0119,1.5233-4.3231,1.1949-8.7528,2.8947-13.1733,5.0627-8.4723,4.1931-16.0666,9.642-22.5663,16.2007-7.1705,7.261-12.1886,15.1151-14.9203,23.3523-.3689,1.1098.2164,2.3139,1.3261,2.7122.2409.0851.4878.1277.7317.1277.8689,0,1.6859-.5259,2.0182-1.3744,2.8902-7.404,7.8747-14.3671,14.8105-20.7039,6.3199-5.7528,13.5849-10.4203,21.5785-13.8713,8.1034-3.4542,15.8532-5.2056,23.0358-5.2056.4665,0,.936.0091,1.4451.0243l.5731.003c4.4907,0,9.207-.7358,14.0117-2.1893,4.4206-1.3348,8.8869-3.2656,13.277-5.7347,8.3382-4.713,15.7678-10.8307,22.0877-18.1832,3.4175-4.0136,6.1462-7.9878,8.3321-12.1503.5914-1.1433,1.1463-2.3019,1.6371-3.436.25-.5777.5061-1.2163.7653-1.8882l.5701-1.5447c.6432-1.7088,1.4602-3.5028,2.4267-5.3303,3.3688-6.3094,8.2893-12.7343,15.033-19.6457,2.3841-2.4356,4.9633-4.868,7.6735-7.261,3.6401,2.4446,8.5881,2.4021,12.2252-.447l7.9876-6.2608c11.3868,5.6953,26.7034,4.3633,46.0442-8.8301,28.435-19.3963,49.666-53.783,38.3218-70.3333h0Z"/>
  </g>
</svg>