<?xml version="1.0" encoding="UTF-8"?>
<svg id="Stars" xmlns="http://www.w3.org/2000/svg" viewBox="0 0 242.0443 304.6438">
  <defs>
    <style>
      

      @import url('../../CSS/SvgStyling.css');
      
    </style>
  </defs>
  
  <g class="content">

    <rect class="bg" width="242.0443" height="304.6438"/>


    <path class="cls-1" d="M41.2785,74.6061h.0819c.437,25.6936,3.9875,29.6948,28.9369,30.2547v.1434c-25.0859.5599-28.534,4.602-28.9437,30.678h-.0683c-.4028-25.9053-3.8168-30.0635-28.4657-30.6712v-.1639c24.5192-.6009,28.0219-4.7113,28.4589-30.241"/>
    <path class="cls-1" d="M178.6842,21.7646h.157c.8125,47.9254,7.4356,55.3884,53.9681,56.433v.2663c-46.792,1.0447-53.2239,8.5896-53.9818,57.2182h-.1366c-.7511-48.3146-7.1079-56.078-53.0805-57.2046v-.3004c45.72-1.1198,52.2611-8.8012,53.0737-56.4125"/>
    <path class="cls-1" d="M103.0578,86.6506h.2868c1.4475,84.9329,13.1711,98.1586,95.6528,100.009v.4711c-82.9255,1.8504-94.3282,15.2263-95.6733,101.4088h-.239c-1.3315-85.6294-12.6044-99.3808-94.0824-101.3746v-.5462c81.0341-1.9801,92.628-15.5882,94.055-99.9681"/>
    <path class="cls-1" d="M94.8369,16.1042h.0546c.2663,15.7726,2.4444,18.2306,17.7595,18.572v.0888c-15.397.3414-17.5137,2.8268-17.7663,18.8247h-.041c-.2458-15.8955-2.342-18.4491-17.4727-18.8247v-.0956c15.0488-.3687,17.1996-2.8951,17.4659-18.5652"/>
  </g>
</svg>