<?xml version="1.0" encoding="UTF-8"?>
<svg id="Sun" xmlns="http://www.w3.org/2000/svg" viewBox="0 0 333.0911 333.4967">
  <defs>
    <style>
      

      @import url('../../CSS/SvgStyling.css');

    </style>
  </defs>
  <g class="content">

    <rect id="bg" class="bg" width="333.0911" height="333.4967"/>

    <path class="cls-1" d="M163.6775,241.6416c-38.4662,0-69.7558-31.2895-69.7558-69.7558s31.2895-69.7632,69.7558-69.7632,69.7558,31.297,69.7558,69.7632-31.2895,69.7558-69.7558,69.7558ZM163.6775,105.1877c-36.7815,0-66.6907,29.9314-66.6907,66.6981s29.924,66.6907,66.6907,66.6907,66.6907-29.9091,66.6907-66.6907-29.924-66.6981-66.6907-66.6981ZM166.8762,326.9457l-1.8331-.2523c-.3562-.052-8.7798-1.2839-12.6984-11.9265-2.4788-6.7017-1.0316-12.3644.7718-19.5337,1.0093-3.9928,2.1523-8.5274,2.7757-13.9823,1.6699-14.4796-5.1506-28.3432-5.2322-28.4767-.3859-.757-.0668-1.6847.6902-2.0558.757-.3859,1.6847-.0668,2.0558.6902.2969.6086,7.3029,14.821,5.5365,30.1986-.6531,5.6553-1.8183,10.2864-2.8647,14.3831-1.7515,6.9169-3.0132,11.9191-.8758,17.7302,2.2562,6.1154,6.1525,8.5052,8.4235,9.418-.0816-6.4717.5047-26.035,9.6852-40.099,10.1231-15.5112,2.6421-28.2764,2.5753-28.4174-.4379-.7199-.2004-1.6624.5195-2.1003.7273-.4379,1.6699-.2004,2.1077.5195.3562.5937,8.52,14.5686-2.6273,31.6606-10.3606,15.8674-9.1434,40.151-9.1286,40.4033l.1187,1.8406ZM258.0582,296.4799c-1.4992,0-3.1839-.1559-5.0022-.5789-5.9818-1.3804-14.5167-6.0412-21.3372-20.4095-12.1492-25.612-24.4542-29.7087-24.5878-29.7384-.809-.2523-1.2691-1.1132-1.0168-1.9222s1.0984-1.2617,1.9074-1.0316c.5566.1707,13.6558,4.3342,26.4729,31.3786,4.9651,10.4942,11.6371,16.9732,19.2517,18.747,2.7608.6383,5.1654.5566,6.9169.3043-2.1374-1.7218-5.3213-4.5198-8.572-8.3048-7.4587-8.6907-11.6816-18.4576-12.1937-28.2467-1.1578-22.0793-14.4647-31.3563-14.5983-31.438-.7051-.475-.8758-1.4324-.4008-2.1448.4676-.7051,1.425-.8758,2.1374-.4008.6012.4008,14.7022,10.2567,15.9491,33.8352,1.1578,22.0645,21.8418,35.9874,22.057,36.121l2.412,1.6031-2.6644,1.1132c-.1484.052-2.7905,1.1132-6.7314,1.1132ZM215.0796,290.6168l-4.9205-1.2839c-.4898-.1336-12.1566-3.3175-16.0159-15.9639-1.2617-4.1413-1.7218-6.8724-2.0409-8.8763-.6234-3.7702-.7718-4.6608-5.2842-8.4532-.6605-.5418-.7422-1.514-.1855-2.1523.5344-.6605,1.514-.7422,2.1523-.1855,5.1358,4.312,5.6107,5.8928,6.3529,10.3012.3191,1.9222.757,4.5495,1.9519,8.4903,1.8554,6.0635,5.826,9.6481,9.047,11.6519-2.0706-3.6663-4.2971-9.2102-3.8741-15.6448.6531-10.3532-4.26-19.0142-4.312-19.0958-.423-.7422-.1707-1.6699.5566-2.1077.7347-.4156,1.6624-.1633,2.1003.5566.2226.3859,5.44,9.5665,4.7201,20.8325-.6457,10.1379,6.3158,18.0716,6.3826,18.1607l3.3694,3.7702ZM110.5239,287.2994l-.8906-2.3749c-4.26-11.3328.6902-17.0252,5.9299-23.059.9574-1.1132,1.9519-2.2562,2.8944-3.4362,5.5736-7.0209,5.1358-17.092,5.1358-17.1959-.0371-.8386.6086-1.566,1.4621-1.6105.8461-.052,1.5734.6012,1.6179,1.4621.0223.4527.475,11.3477-5.7889,19.2665-.9945,1.2468-2.0038,2.412-2.9835,3.555-4.5791,5.2545-8.2677,9.5145-6.1451,17.515,2.4566-2.6273,7.0728-7.3919,11.6371-11.2141,3.7405-3.1393,15.0882-12.6835,13.7894-20.1794-.1484-.8386.423-1.6328,1.2468-1.7663.8461-.1559,1.6328.4156,1.7738,1.2468,1.425,8.2825-7.8001,17.1217-14.8581,23.0515-6.3455,5.3436-13.0546,12.8023-13.1214,12.8691l-1.6996,1.8702ZM52.4571,278.052l-.6902-2.6644c-.1559-.6234-3.6589-15.2514,18.2869-31.3044,20.6618-15.1253,25.7679-25.8495,25.8198-25.9534.3562-.7718,1.2617-1.1132,2.0335-.757.7793.3562,1.1132,1.2617.7644,2.0187-.2078.4527-5.3584,11.4887-26.7995,27.1705-10.561,7.7259-14.6503,14.9694-16.2311,19.6821-.7273,2.1894-.9945,4.0596-1.0613,5.4549,4.5272-3.8221,15.2737-11.5184,31.6903-14.8878,8.5571-1.7515,15.3776-5.7221,20.2833-11.8004,3.6663-4.5643,4.8463-8.6759,4.8463-8.7056.2226-.809,1.0761-1.2988,1.8851-1.0836.809.2226,1.2988,1.0613,1.0761,1.8851-.2004.7422-5.1803,18.1607-27.4674,22.725-20.8993,4.2749-32.4176,16.0975-32.5364,16.2162l-1.8999,2.0038ZM270.2965,229.715c-4.5791,0-12.0082-1.7812-22.7844-9.3587-5.4252-3.8296-10.4942-5.6627-15.0362-5.4772-.8609.0371-1.566-.6234-1.6031-1.4621-.0297-.8461.6234-1.566,1.4695-1.6031,5.2322-.2152,10.9246,1.8035,16.9213,6.0264,8.3864,5.9002,14.4202,8.0228,18.4798,8.6239-2.798-1.9148-6.1154-5.351-9.5887-11.4664-8.186-14.3979-19.3185-15.3628-19.4298-15.3776-.8461-.0668-1.4843-.7941-1.4175-1.6476.0668-.8461.7941-1.4843,1.6476-1.4175.5269.0371,12.9062,1.1132,21.8789,16.9287,7.8001,13.7226,13.9452,12.1566,13.9972,12.1418l11.3699-4.5346-10.0043,7.2287c-.1559.1187-2.0038,1.3953-5.9002,1.3953ZM55.5519,213.1797l.9797-2.3081c.1855-.4379,4.6608-10.8281,14.1827-10.8281,7.9486,0,16.3869-6.8724,16.4686-6.9392.6531-.5418,1.6179-.4379,2.1523.2004.5418.6605.4379,1.6179-.2004,2.1597-.3859.3191-9.3809,7.6443-18.4205,7.6443-5.0393,0-8.4087,4.0077-10.0934,6.6498,3.7405-.2004,10.6129-.4527,16.4389-.0816,7.5775.4676,11.4516-2.2784,11.4887-2.3081.6902-.5047,1.6328-.3562,2.1374.3191s.3711,1.6328-.3043,2.1374c-.1855.1336-4.7127,3.4511-13.5222,2.9167-8.1341-.5047-18.6951.2523-18.799.2523l-2.5085.1855ZM295.9827,192.3769c-4.4975,0-8.8391-2.1894-13.8265-4.6979-8.9059-4.4752-18.9993-9.5665-33.9539-4.2897-.7867.282-1.6847-.141-1.9519-.95-.2894-.7867.1336-1.6773.9425-1.9519,16.1865-5.7072,27.3709-.0816,36.3585,4.4455,4.9873,2.5085,9.2993,4.683,13.3441,4.3342,7.2732-.6234,13.9081-5.0022,17.8119-8.1193-5.9744.0816-16.9584-1.6847-32.7368-11.8078-23.0367-14.7542-36.3288-9.9895-36.4624-9.9375-.7941.3043-1.6847-.0965-1.989-.8758-.2969-.7941.0891-1.6699.8758-1.989.5937-.2301,14.7245-5.4846,39.2455,10.2121,23.0367,14.7468,35.1636,10.8281,35.2972,10.7762l5.9596-2.0558-4.3268,4.5643c-.4379.4527-10.791,11.1992-23.3781,12.2754-.4379.052-.8238.0668-1.2097.0668ZM71.1299,183.2186c-7.0357,0-16.9213-2.0409-27.9053-10.3754-8.0302-6.0931-16.0678-9.0618-23.2594-8.5571-5.3881.3711-8.4681,2.5605-8.5052,2.5976l-3.6514,2.6273,1.2617-4.312c.0816-.3043,2.323-7.6665,9.5145-11.5703,5.0912-2.7608,11.2883-3.0651,18.4279-.9277,1.4621.4379,2.8425.8609,4.1561,1.2617,17.5373,5.3436,22.8215,6.9541,42.3923-2.4714.757-.3711,1.6847-.052,2.0558.7199.3711.757.052,1.6847-.7273,2.0558-20.6469,9.9524-27.1631,7.9634-44.6113,2.6421-1.3136-.4008-2.694-.8238-4.1413-1.2617-8.0376-2.4046-14.5018-1.4175-19.2517,2.9464-1.3433,1.232-2.3601,2.5976-3.1171,3.7924,1.514-.5269,3.4511-.9797,5.7295-1.1652,5.5736-.4379,14.5464.7941,25.5675,9.1657,10.2196,7.763,19.3778,9.5665,25.2558,9.7149,6.3677.1484,10.3977-1.5511,10.4422-1.566.7793-.334,1.6847.0148,2.0261.7941.334.7718-.0223,1.6847-.7941,2.0187-.334.1484-4.4159,1.8702-10.8652,1.8702ZM240.5951,149.8065c-.0742,0-.141,0-.2226-.0223-.8386-.1113-1.4175-.8758-1.3136-1.7144.052-.423,1.5363-10.4274,15.7635-11.9265,5.9299-.6234,10.4719-2.7237,13.589-4.7647-2.0558,0-4.0893-.4008-6.1822-.8238-3.0948-.6234-6.6127-1.3136-10.9098-.9129-10.086.9797-15.3924,6.4197-15.4444,6.4865-.5863.6086-1.5511.6383-2.1745.052-.6012-.5937-.6383-1.566-.0445-2.1745.2523-.2523,6.1599-6.3306,17.3592-7.4068,4.735-.4601,8.4903.282,11.8078.9425,4.3416.8758,7.4958,1.4992,11.0953-.8758l7.9857-5.2545-5.9299,7.4958c-.282.3488-7.1544,8.854-20.8325,10.2864-11.741,1.232-13.0027,8.9431-13.0546,9.277-.0965.7793-.757,1.3359-1.4917,1.3359ZM87.8879,145.8136c-.1633,0-.334-.0371-.5047-.0816-.3562-.1187-8.7056-3.169-13.0992-11.9636-3.8073-7.6072-13.2699-10.3754-13.3738-10.4051l-3.8073-1.0761,3.5401-1.7738c.3191-.1633,7.9931-3.9038,18.4056-.0668,4.4604,1.655,6.3974,3.7108,7.9634,5.3733,1.937,2.0558,3.1171,3.3026,9.0321,2.6273.8386-.0965,1.5956.5047,1.6996,1.3507.0965.8386-.5047,1.5956-1.3507,1.6996-6.9541.7941-9.0247-.8238-11.6223-3.5698-1.4101-1.4992-3.0132-3.1987-6.7982-4.6014-4.8834-1.796-9.1137-1.6996-11.9785-1.2097,3.5178,1.7367,8.3567,4.9502,11.0137,10.2715,3.8221,7.6517,11.3031,10.4125,11.3848,10.4422.7941.2894,1.2171,1.1652.9277,1.9742-.2152.6234-.809,1.0093-1.4324,1.0093ZM229.8635,127.9795c-.0668,0-.1484,0-.2226-.0223-.8386-.1113-1.4101-.8906-1.2914-1.7292,1.0613-7.2806,5.8408-17.7896,22.6359-26.5471,22.7324-11.8375,24.2984-24.38,23.7269-29.8052-11.8894,13.5222-22.9699,16.283-37.9913,20.0087-1.5214.3711-3.0874.7718-4.7053,1.18-17.1068,4.3565-19.7192,19.4669-19.8157,20.1052-.141.8386-.9277,1.4175-1.7515,1.2765-.8461-.1336-1.4175-.9054-1.2839-1.7515.0371-.1781.7422-4.5272,3.8073-9.4922,2.8276-4.5866,8.3196-10.561,18.2869-13.1214,1.6179-.423,3.1839-.809,4.7201-1.18,15.8452-3.9409,26.3245-6.5533,38.3475-21.3372l1.6179-1.989.9945,2.3452c.0816.2004,2.1152,5.1135-.052,12.1418-2.798,9.1286-11.0508,17.3072-24.4913,24.3132-12.3793,6.4568-19.6524,14.8432-21.018,24.2538-.0965.7941-.757,1.3507-1.514,1.3507ZM101.3433,123.764c-.2152,0-.4379-.0445-.6383-.1336-.6754-.3043-16.3201-7.7927-17.3814-33.093-.9945-23.4597-22.7027-34.1691-22.918-34.273l-2.6792-1.2914,2.6124-1.4324c.2672-.1559,6.9021-3.7108,15.2885-.9648,7.6814,2.5085,14.1827,9.3809,19.3036,20.4169,12.7503,27.4526,22.3316,28.2764,22.4281,28.2764h-.0297v3.0651c-1.1429,0-11.6223-.8461-25.1816-30.065-4.7276-10.1899-10.5906-16.5057-17.4111-18.7619-4.0596-1.3433-7.6665-.9277-10.0414-.3191,2.2784,1.4175,5.5959,3.7702,8.9653,7.1396,5.5068,5.5068,12.1715,14.8358,12.7281,28.0611.5269,12.2086,4.735,19.838,8.186,24.0832,3.7257,4.594,7.3919,6.3455,7.429,6.3677.757.3488,1.091,1.2617.7422,2.0335-.2746.5566-.8238.8906-1.4027.8906ZM132.2321,101.0168c-.3191,0-.6234-.1039-.9054-.3043-.1559-.1187-3.8073-2.8796-5.1209-10.3457-.4898-2.8276-.1855-5.4697.1484-8.2825.5269-4.3788,1.0464-8.9059-1.5808-14.5983l-.8758-1.8925,2.0558-.282c.4156-.0668,10.2196-1.1949,13.3515,19.3482.898,5.8482,3.0354,9.8856,6.3826,12.023.7125.4601.9277,1.4175.475,2.1226-.4527.7125-1.4175.9277-2.1226.475-4.1116-2.6421-6.724-7.3919-7.7482-14.1456-1.6847-11.0137-5.2397-14.8061-7.5923-16.1049,1.6996,5.1877,1.1949,9.5145.7199,13.4109-.3043,2.5753-.5863,5.017-.1707,7.3919,1.0836,6.1451,3.8963,8.3864,3.926,8.4235.6605.5195.7941,1.4769.2894,2.1374-.3043.4008-.757.6234-1.232.6234ZM202.359,99.6363c-.8386,0-1.5289-.6754-1.5289-1.5214-.052-4.1561.9425-8.572,2.9315-13.1363,2.7608-6.3306,4.2749-11.7855,5.0987-16.0826-1.989,3.8444-4.8834,8.186-9.0766,12.0972-9.1583,8.52-8.572,13.8562-8.5571,13.9081.1559.8386-.4156,1.6179-1.2468,1.7663-.8386.1559-1.6328-.423-1.7812-1.2617-.1187-.6902-.8906-7.006,9.4997-16.6764,9.5962-8.9208,12.023-20.7434,12.0379-20.8622l1.9222-9.7372,1.1132,9.8559c.052.4527,1.18,11.3625-6.1971,28.2244-1.8183,4.1561-2.7312,8.1489-2.6792,11.8746.0148.8386-.6754,1.5511-1.514,1.5511h-.0223ZM180.8511,95.2873c-.4527,0-.8906-.2004-1.1949-.5715-12.9804-16.001-9.7001-33.041-8.3864-37.8948.2078-.7199.4898-1.4324.898-2.0855,7.6072-12.6168,10.3903-23.8011,8.2825-33.2489-.9797-4.3565-2.8128-7.4587-4.3788-9.4626-.1039,7.1099-2.0558,22.5988-14.7393,42.9489-16.335,26.2354-5.299,37.2862-5.1877,37.405.6086.5863.6457,1.566.052,2.1671-.5863.6086-1.566.6383-2.1671.052-.5418-.5047-12.9359-12.8988,4.6979-41.2419,15.3405-24.6398,14.4796-41.5833,14.1456-44.7301-.0668-.6902.282-1.3507.8906-1.6847.6234-.3191,1.3656-.2523,1.8851.2004,1.3656,1.1429,5.9818,5.5365,7.8001,13.6706,2.2933,10.2567-.6234,22.1981-8.6388,35.505-.2523.423-.4379.8461-.5566,1.2988-1.2097,4.4975-4.2452,20.2907,7.815,35.1636.5344.6531.4379,1.6328-.2226,2.1523-.2969.2375-.6383.3562-.9945.3562Z"/>
  </g>
</svg>