<?xml version="1.0" encoding="UTF-8"?>
<svg id="Sunandmoon" xmlns="http://www.w3.org/2000/svg" viewBox="0 0 333.0911 304.6438">
  <defs>
    <style>
      

      @import url('../../CSS/SvgStyling.css');

      
    </style>
  </defs>
  
  <g class="content">

    <rect id="bg" class="bg" width="333.0911" height="304.6438"/>


    <path class="cls-1" d="M156.2158,11.2767c24.9486.2595,48.506,5.9254,70.3261,18.2591,1.9751,1.1245,3.8565,2.3932,5.7524,3.6403.4253.2739.8362.6343,1.1029,1.0596.4613.7281.0216,1.521-.8218,1.4994-1.3336-.036-2.7032-.0216-3.9863-.3244-9.9045-2.3356-19.9387-3.7268-30.1171-3.7773-26.8373-.173-50.3946,8.8304-70.6433,26.2534-20.9551,18.0285-34.0169,40.9371-39.4089,67.969-6.8409,34.3125-1.0596,66.5633,18.0573,95.9812,15.628,24.0404,37.2391,40.4253,65.0856,47.9221,20.2343,5.4352,40.382,4.6639,60.2847-1.9247.8218-.2811,1.6435-.6343,2.4869-.8146.9083-.2018,1.6868.1225,2.0112,1.0596.3244.9299-.0577,1.6796-.8939,2.1049-6.7976,3.4529-13.4511,7.2806-20.4505,10.2649-21.4453,9.1476-43.8782,12.9176-67.1256,11.1299-37.9744-2.9339-70.4559-17.9203-96.7741-45.5866-20.847-21.9355-33.2384-48.1672-36.994-78.2411-4.0728-32.6617,2.8401-63.0816,20.5659-90.7478,20.2415-31.6093,49.0611-51.5912,85.1829-61.1209,11.9012-3.1429,24.0331-4.5846,36.3597-4.6062ZM218.2738,275.4828c-.036-.1298-.0577-.2667-.0937-.4037-.4541.0721-.9155.137-1.384.1802-4.4549.5262-8.9025,1.2975-13.379,1.521-21.1209,1.0524-40.9371-3.698-59.2899-14.1431-25.8064-14.6981-43.6619-36.3741-53.7394-64.1629-13.6889-37.7581-10.9497-74.7089,8.0807-110.0522,13.3429-24.7612,33.224-42.7464,59.4918-53.1122,20.0108-7.8933,40.6343-10.1135,61.7841-5.1108.2595.0649.5406.0793.7929.1153-.31-.4253-.6992-.6488-1.1173-.8434-14.4891-6.7616-29.6269-11.2525-45.5289-13.1195-9.991-1.1606-19.982-1.4633-30.0018-.5334-32.7122,3.0492-61.4957,15.3541-85.1612,38.2844-31.9481,30.9461-45.7307,68.9133-40.7352,113.2456,3.0636,27.1184,14.035,51.0794,31.9481,71.566,28.4375,32.4959,64.5954,48.7078,107.6013,49.5008,18.5331.346,36.4606-3.1645,53.7322-9.991,2.3572-.9155,4.6639-1.9535,6.9995-2.9411Z"/>
    <path class="cls-1" d="M265.2227,156.4416c.9731.3893,1.9103.9083,2.9122,1.1389,1.903.4541,3.8205.7785,5.738,1.0957,10.8416,1.8238,19.4485,7.1292,25.4676,16.421,1.4633,2.2563,2.3644,4.7792,2.7536,7.4464.0577.3965.1442.8218.0577,1.1894-.0865.3893-.3821.7281-.5911,1.0813-.3028-.2451-.7497-.4253-.8939-.7497-1.4273-2.9915-3.3592-5.5866-5.9038-7.7059-3.0348-2.5158-6.466-3.8782-10.4523-3.5682-3.7268.2955-7.4464.6488-11.1588,1.0092-3.8565.3676-7.5113-.4253-11.0867-1.7517-.4109-.1586-.8146-.3172-1.2254-.4758-.0577-.0216-.1514.0216-.2235.0505-.036.0649-.1153.1658-.0937.1946,2.1121,3.4168,3.9791,7.0139,6.4228,10.1784,4.1377,5.3631,9.8973,8.5349,15.9957,11.3101,8.47,3.8493,13.7538,10.5605,15.938,19.636.2451,1.0164.1802,2.1409.1153,3.2006-.0216.346-.4181.8074-.7353.9515-.2163.0865-.7497-.2451-.9443-.5262-5.0099-7.5473-12.8239-11.0578-20.7461-14.3954-.6632-.2811-1.3624-.4541-2.0544-.6127-6.4084-1.3624-11.894-4.4621-16.4354-9.1404-1.5066-1.5426-2.6816-3.4457-3.8638-5.2622-1.1822-1.8454-2.386-3.6259-4.2386-5.3127.0288.5551.0288.8001.0649,1.0452.2379,1.9751.6704,3.9431.6704,5.911-.036,8.4195,3.2006,15.2892,9.3999,20.8758,2.0544,1.8598,4.217,3.5033,6.776,4.599.3604.1586.7929.7136.7497,1.0164-.0433.3388-.5695.7641-.9587.865-2.6383.6776-5.2045.5262-7.6482-.7713-6.1561-3.2582-11.1732-7.7059-14.6333-13.8187-1.1173-1.9751-2.1914-3.9791-3.2438-5.9903-1.6147-3.0997-4.0296-5.5145-6.5958-7.7852-.3244-.2883-.7136-.5118-1.0669-.7497-.1225-.0793-.2955-.1081-.7281-.2595.31.5406.4686.865.6704,1.1678,3.0997,4.6062,4.4404,9.7387,4.5558,15.2316.0505,2.4365-.4974,4.7432-1.658,6.8985-.7569,1.3984-1.4922,2.8185-2.3067,4.1809-2.6167,4.3972-3.6835,9.1548-3.0564,14.2152.3676,2.9627.8362,5.9182,1.4561,8.8376,1.5859,7.4248-.0216,13.9989-5.0676,19.6648-1.0885,1.2254-2.5014,2.1986-3.7917,3.2366-.3028.2523-.7353.3244-1.1029.483-.0793-.0793-.173-.1442-.2523-.2235.2955-.829.6416-1.6435.8722-2.4941,2.0472-7.3671,1.8742-14.4675-2.5879-21.0488-.5839-.8578-1.1389-1.7228-1.7228-2.5806-3.0636-4.599-2.8978-9.3927-1.0236-14.3738,1.7733-4.7288,2.1121-9.6954,1.9895-14.6909,0-.1514-.1009-.2955-.1802-.519-.1658.1442-.3244.2163-.3893.3388-1.4561,3.0708-3.7628,5.5145-5.9831,7.9942-2.177,2.4293-4.0584,5.046-4.9594,8.2105-1.0524,3.6763-1.1245,7.4824-.9515,11.2597.2235,4.563-.7209,8.8592-2.386,13.0402-.5262,1.3336-1.2182,2.5951-1.831,3.8926-1.9535,4.1377-5.3703,6.6102-9.4864,8.2465-.1946.0721-.3821.173-.5695.1658-.4037-.0144-.8146-.0793-1.2182-.1225.1081-.3604.1658-.7497.3316-1.0885.9731-1.9535,2.1698-3.8205,2.9267-5.8605,1.1966-3.1862,1.175-6.5886.8722-9.9189-.2883-3.1285-1.038-6.1705-2.2563-9.126-2.6671-6.4516-3.1573-13.1195-1.4201-19.9099.7497-2.9267,1.6363-5.8101,2.4509-8.7295.1298-.483.2307-.9731.3893-1.5931-.3028.0577-.483.0505-.5839.1298-4.6423,3.4529-8.3474,7.5257-8.7944,13.6889-.1442,1.8958-.2595,3.7989-.483,5.6875-.173,1.5354-.31,3.1141-.7425,4.5774-1.9247,6.5309-5.9542,11.3534-12.0382,14.3954-.7209.3532-1.5859.5478-2.4004.6343-1.1245.1225-1.4345-.4397-.8794-1.4561.2667-.4902.5911-.9371.9227-1.3984,2.5518-3.4745,2.8474-7.4464,2.3716-11.5264-.3388-2.8401-.9587-5.6515-1.3552-8.4916-.1658-1.2038-.2739-2.5014-.0433-3.6763.5695-2.7609,1.2543-5.5073,2.0977-8.1889.7425-2.35,2.1265-4.3395,4.0656-5.9254,1.9968-1.6363,3.2799-3.77,4.0656-6.2065.1225-.3965.1514-.8218.2883-1.521-.6776.3532-1.0957.5478-1.485.7713-5.1036,2.9411-8.852,7.1797-11.7571,12.2545-1.038,1.8382-2.1409,3.6331-3.388,5.3343-4.1016,5.5722-9.7387,8.47-16.4786,9.5296-3.3736.5406-6.7183,1.2543-10.027,2.0905-3.215.8218-6.0624,2.3716-8.2609,4.9667-.3028.346-.8362.4902-1.2687.7281-.1586-.4253-.3676-.829-.4469-1.2615-.829-4.6134.7569-8.2898,4.3323-11.1876,2.4437-1.9751,5.1757-3.388,8.1889-4.2819,1.2182-.3604,2.4365-.7353,3.6619-1.0596,4.8153-1.2975,8.1312-4.3756,9.5585-9.0323,1.8598-6.084,5.6803-10.892,9.2846-15.8875.137-.1946.2955-.3821.4181-.5695.0288-.0577,0-.1442-.0144-.2595-.0865-.0433-.1802-.137-.2811-.1442-4.1088-.4181-8.2105-.9155-12.3337-1.2182-4.8657-.3604-9.4215.5118-13.6385,3.251-6.3867,4.1521-13.6457,3.77-19.809-.7281-.3893-.2739-.8578-1.0164-.7353-1.2975.1802-.4109.829-.8001,1.3336-.8939,6.4588-1.0524,12.3193-3.2943,17.0553-8.0519,3.8421-3.8565,8.6286-5.7236,13.9412-6.3939,1.1822-.1442,2.3788-.2451,3.561-.3676,4.7648-.483,8.8088-2.5734,12.413-5.6082.2379-.1874.4037-.4541.7281-.829-.5262-.2523-.9083-.5118-1.3408-.6488-6.1849-1.8454-12.3914-2.6888-18.7781-.8218-8.6358,2.523-16.2335.1298-23.06-5.3271-1.2399-.9948-2.4221-2.076-3.4817-3.251-4.2314-4.6783-9.6161-7.0787-15.6785-8.1744-1.8742-.3388-3.7845-.483-5.6659-.7641-.3604-.0577-.9515-.2595-.9731-.4469-.0433-.3604.1586-.8506.4253-1.1101,1.6075-1.5426,3.5177-2.6167,5.6587-3.1862,8.3258-2.213,16.3777-1.5642,24.098,2.4148,1.7661.9227,3.5538,1.8021,5.3127,2.7104,4.6783,2.3932,9.4287,3.0204,14.5035,1.1245,4.6206-1.7084,9.3783-3.1285,14.3665-3.251,2.0472-.0577,4.0872.137,6.2498.2235-.2235-.31-.4109-.7497-.7425-1.0092-1.658-1.2831-3.2078-2.7897-5.0387-3.734-3.1141-1.6003-6.4949-2.696-10.0342-2.7969-6.776-.2018-12.1535-3.251-16.4858-8.1744-2.9411-3.3231-5.9326-6.5381-9.4143-9.2846-2.8978-2.2779-5.9686-4.2098-9.7675-4.6495-.9443-.1081-1.1678-.6704-.5334-1.5066,1.1389-1.5138,2.8113-2.1409,4.6062-2.4869.346-.0649.7209-.0649,1.0741-.0288,6.3435.6343,12.3842,2.0688,17.4157,6.3291,2.3788,2.0112,4.8441,4.044,8.0735,4.3467,2.1481.2018,4.3972.1586,6.5021-.2451,5.464-1.0164,10.4956.1009,15.3829,2.4509.2163.1009.4397.2018.6632.2883.0649.0216.1514,0,.3316,0-.0288-.2235-.0072-.4541-.1081-.6271-1.5859-2.7825-3.3159-5.4424-5.8317-7.4896-2.6239-2.1409-5.1685-4.3756-7.8789-6.3795-4.8297-3.5754-7.6338-8.4051-9.299-14.0782-1.1389-3.8926-2.3211-7.7852-3.6619-11.6201-1.7372-4.9522-4.7288-9.1692-8.2249-13.0474-.1153-.1298-.2667-.2163-.3244-.3532-.2163-.4686-.4037-.9587-.5911-1.4417.5118-.1442,1.038-.4541,1.5426-.4037,3.3808.3388,6.4732,1.4994,9.3422,3.3375,5.6587,3.6187,9.3422,8.8881,12.3698,14.7198.5695,1.0957,1.1245,2.1986,1.5715,3.352,2.4437,6.3219,7.1869,10.4091,13.0186,13.379,4.945,2.5158,9.3999,5.637,13.1555,9.7171.1225.1298.2955.2235.692.5262-.1298-.6488-.173-1.0164-.2739-1.3768-.8362-3.042-2.3932-5.7163-4.2314-8.2465-.4902-.6704-1.0092-1.348-1.6075-1.9175-4.4332-4.2386-5.5073-9.645-5.5722-15.4911-.036-3.6115-.3316-7.2229-.6488-10.8272-.2451-2.7753-1.1462-5.3559-2.7464-7.6843-.2307-.3316-.2018-.8506-.3028-1.2831.4469.0216.9443-.0721,1.3336.0865,2.7464,1.1173,4.909,2.8834,6.2281,5.6154,1.6724,3.4673,2.8906,7.0355,3.1141,10.9497.3244,5.6443,2.6311,10.3514,7.1869,13.8475.7929.5983,1.5426,1.2615,2.3356,1.8526,2.5879,1.903,4.5846,4.2746,5.8461,7.2445.173.4037.4037.7785.6127,1.1678.036.0577.137.0793.346.1874.0793-.3532.2163-.6704.2235-.9804.0577-1.867.2018-3.7484.0937-5.6082-.2235-4.0007.6343-7.7347,2.9122-11.0002,2.7464-3.9503,3.8998-8.333,4.0512-13.0402.036-1.1462-.0433-2.3283-.2811-3.4385-.9227-4.2386-.3676-8.2321,1.8093-11.9877,2.7825-4.8081,6.7976-8.2754,11.721-10.7046,2.3211-1.1389,4.8441-1.2182,7.3599-.9227.692.0721,1.3264.5551,1.9895.8506.0433.1514.0865.31.1298.4686-.209.0865-.4469.1658-.6488.2739-3.6403,2.0256-6.4804,4.8369-8.2826,8.6358-2.1553,4.5774-2.6527,9.4071-.8146,14.0494,2.1553,5.4568,1.831,10.4595-.9948,15.4694-1.658,2.9411-1.7949,6.1056-1.4129,9.3927.31,2.6816.346,5.392.4974,8.0879.0144.2523.0577.5118.0937.8434.1874-.0937.3316-.1298.3676-.209,1.1462-2.5158,3.078-4.4188,4.9234-6.3939,3.3592-3.6403,4.9883-8.1024,5.8821-12.8672.7353-3.9647,1.521-7.9077,3.4817-11.4976,2.4365-4.4404,5.8028-8.0735,9.7819-11.1155,2.1049-1.6075,4.6639-1.9319,7.2734-1.4994.2739.0505.5839.2451.7281.4758.0649.1081-.2018.4541-.3676.6704-.1442.1874-.346.3316-.5334.4758-4.0007,3.0997-5.911,7.3599-6.9778,12.1607-.865,3.8782-1.0957,7.814-.9876,11.7499.1586,5.2838-.7929,10.3009-2.8762,15.1379-.0937.209-.137.4469-.2811.9227.5262-.173.8578-.3028,1.2038-.4253,1.3192-.4469,2.5951-1.1029,3.9431-1.3192,8.0159-1.2399,13.6385-6.0263,18.4754-12.1319,1.8958-2.3932,3.871-4.7792,6.1416-6.7904,4.9739-4.426,14.1431-4.5918,19.4702-.5911.3532.2667.5334.7929.7857,1.1966-.4325.1009-.8794.3244-1.3047.2667-5.6154-.6776-9.4287,2.35-12.86,6.1849-1.658,1.8598-2.8474,4.0079-3.6403,6.3867-.9659,2.9411-2.5302,5.5794-4.4476,7.9942-2.076,2.6167-4.9378,3.9719-8.0879,4.7576-4.9234,1.2399-8.9818,3.7917-12.0959,7.7924-.7929,1.0092-1.4345,2.1337-2.1481,3.2078.0721.0793.1442.1514.2163.2235.2883-.0649.5911-.0865.8722-.1874,4.3395-1.5642,8.7367-1.6652,12.9104.2595,4.4693,2.0544,8.6862,1.4994,13.0618-.1153,2.4797-.9155,5.0604-1.7228,7.6554-2.1481,3.8133-.6271,7.5401.0505,11.0362,1.7445,1.8958.9227,3.7773,1.8598,5.6443,2.8401.4469.2379.7857.6488,1.175.9876-.0577.1225-.1009.2451-.1586.3821-.3244,0-.656.0288-.9731,0-5.5938-.5911-10.8128.2883-15.5343,3.6115-4.253,2.9987-8.9097,5.2334-13.9557,6.5958-.2235.0577-.4325.1586-.6848.2451.036.1586.0288.3172.0937.3604,4.2746,2.9339,8.5853,5.8461,14.0061,6.12,1.8238.0865,3.6547-.036,5.4713-.1946,2.6167-.2307,5.2117-.5983,7.814-.9011,7.1436-.8434,14.0782-.0577,20.5731,3.1429,4.1737,2.0544,7.6482,4.9955,10.0126,9.1043.2018.346.137.8362.1946,1.2615-.3821-.1586-.8362-.2379-1.1173-.5046-2.7464-2.6599-6.1416-3.424-9.8252-3.6475-6.4877-.3893-12.5356,1.2543-18.4105,3.734-6.9057,2.9194-14.0205,4.3323-21.5318,3.4673-1.4489-.1658-2.9339-.1009-4.4116-.1225-.1081,0-.2235.0577-.3316.0937.0216.0865-.0216.2018-.0577.31ZM243.9144,150.5378c-.0577-20.1333-16.1615-36.1434-36.3164-36.1146-20.0468.036-36.7273,16.8463-36.6913,36.9724.036,20.155,16.1615,36.3309,36.1434,36.3164,21.4237-.0072,37.0085-18.0573,36.8643-37.1742ZM197.8665,248.35c.1442.0505.2883.0793.4253.1225.5695-1.6507,1.2615-3.2727,1.6724-4.9594,1.175-4.7144.7929-9.5296.4109-14.2728-.2739-3.4817-.3748-6.8985-.0288-10.3586.4686-4.6927,1.9823-9.0034,4.6279-12.9032,1.2759-1.8814,2.6239-3.7052,3.8998-5.5794,1.7877-2.6455,3.0492-5.4929,3.3159-8.7295.0793-.9371-.2595-1.2038-1.2327-1.1822-2.8546.0793-5.7091.0793-8.5709-.0216-.9731-.036-1.3696.2451-1.5282,1.1606-.3893,2.2346-1.3192,4.253-2.5806,6.12-.2451.3532-.4325.7713-.5478,1.1822-1.1462,4.4332-2.3283,8.852-3.4024,13.2853-1.5282,6.3579-1.4633,12.6653,1.1029,18.7565,2.1914,5.1901,2.9194,10.5605,2.4365,16.1326-.036.4253,0,.8362,0,1.2471ZM218.3314,53.4753c-.0793-.0721-.1586-.137-.2379-.2018-.2379.3028-.4469.6271-.692.9155-4.8081,5.6731-7.3094,12.168-6.9778,19.6504.2595,5.8389-.5334,11.4327-3.4457,16.6156-.4613.8218-.7136,1.7805-.9515,2.696-1.5066,5.8749-1.384,11.7354.1225,17.596.1802.6704.4686.8794,1.1389.8939,1.7084.036,3.4168.0793,5.1108.2379,1.1173.1081,1.3984-.3532,1.3408-1.3552-.0865-1.6363-.0793-3.2655-.1586-4.8874-.1298-2.7392-.1225-5.4929-.4974-8.1961-.5839-4.0656-.4686-7.9294,1.5859-11.5985.4686-.829.8001-1.7372,1.2327-2.5879,1.521-2.9843,1.5642-6.0407.4469-9.1476-.1874-.5262-.3893-1.0524-.5551-1.5787-1.7949-5.7668-1.5498-11.3678,1.3047-16.7814.4037-.7641.8146-1.5138,1.2327-2.2707ZM310.2038,146.7605c.0072-.0793.0216-.1514.0288-.2235-.2667-.1225-.5262-.3028-.8001-.3604-4.1016-.865-8.2177-1.6003-12.413-.9371-5.1036.7929-10.1856,1.7228-15.282,2.5806-9.0467,1.5354-17.6536.5334-25.6334-4.3035-2.4653-1.4994-5.1325-2.4869-8.0591-2.732-2.5014-.209-2.5662-.209-2.0328,2.213.1225.5839.3821,1.4561.7713,1.5931,2.6671.9011,4.6206,2.7681,6.6174,4.5846,2.559,2.3139,5.5866,3.8349,8.9097,4.2602,4.3972.5695,8.8665.7353,13.3069.8506,5.637.1442,10.8848-1.5931,16.0317-3.7124,5.5794-2.3067,11.2525-4.2314,17.4374-3.7412.3676.036.7425-.0433,1.1173-.0721ZM225.6841,255.5008c.1153.0288.2379.0505.346.0865.2379-.4902.5262-.9587.692-1.4777,1.3047-3.9575,1.8958-7.9726.9155-12.0959-.7713-3.2582-1.5931-6.5021-2.2635-9.7747-.865-4.2314-.8866-8.4339.4541-12.6293.7497-2.3356,1.3768-4.7648,1.6868-7.1941.8578-6.6102-.4686-12.9248-2.9915-19.0088-.6704-1.6363-1.7661-3.0997-2.732-4.599-.2018-.31-.7641-.6776-1.0308-.6055-1.6291.4469-3.2222,1.0236-5.0027,1.6147.6488.7497,1.1534,1.3408,1.6868,1.9247,2.3211,2.5446,3.7556,5.5361,4.1665,8.9458.2523,2.0472.4109,4.1377.3316,6.1921-.173,5.1829-.5478,10.3154-2.5734,15.2099-1.0524,2.523-1.2903,5.3271-.3604,7.9654.6055,1.7012,1.521,3.3592,2.6023,4.8081,4.4404,5.9326,5.2117,12.586,4.1881,19.6504-.0505.3172-.0721.6488-.1153.9876ZM309.6055,144.8647c-.0865-.2018-.0937-.31-.1442-.3316-.31-.1802-.6127-.3604-.9443-.4902-5.565-2.2923-11.3462-3.0132-17.2932-2.4653-3.0852.2811-6.1489.7209-9.2413,1.0092-1.5426.1442-3.0924.2451-4.6351.1874-4.8009-.1874-8.9746-2.1121-12.9681-4.6639-4.08-2.6023-8.4123-4.6639-13.2204-5.5578-2.386-.4469-4.5558.1225-6.6895,1.1534-.9443.4613-1.1678,1.0092-.692,1.9823.4253.8506.6199,1.8093,1.038,2.6599.173.3316.6848.7281,1.0164.7136,4.2098-.1081,8.0159,1.1389,11.4976,3.388,5.219,3.3664,11.0434,4.6423,17.0625,4.4116,5.1325-.2018,10.2577-1.1245,15.3325-1.9823,6.2426-1.0596,12.4419-1.7589,18.6916-.1874.3676.0865.7497.1081,1.1894.173ZM180.977,122.0714c1.1173-.8722,2.177-1.7445,3.2727-2.5662,1.8165-1.3912,2.3788-2.8401,1.4129-4.945-.6416-1.4201-1.5282-2.8185-2.5951-3.9575-3.0276-3.215-6.6462-5.6587-10.5172-7.7636-2.0977-1.1389-4.2098-2.2563-6.2065-3.5538-3.5322-2.3067-6.2786-5.3271-8.1744-9.1404-1.6868-3.3808-3.4457-6.7327-5.3992-9.9621-2.3932-3.9719-5.5361-7.2734-9.5729-9.6522-.5406-.3244-1.1245-.5839-1.8742-.9659.1442.3388.1586.4253.2163.4686.2235.2379.4469.4613.6704.6704,5.3199,5.0892,9.4071,10.9425,11.5192,18.1078,1.1822,4.0368,2.9987,7.8645,6.1128,10.8055,2.7464,2.5806,5.637,5.0243,8.643,7.3022,4.2098,3.1862,7.7924,6.913,10.5605,11.4111.7136,1.1534,1.2399,2.3932,1.9319,3.7412ZM196.4032,253.6122c.1009.1081.2163.209.31.3244.7497-.6776,1.6363-1.2471,2.2491-2.0256,3.9503-5.1108,6.1128-10.9641,6.5814-17.3797.2163-2.8906.1586-5.8101.1514-8.7007-.0288-4.9667,1.9175-9.1188,5.0748-12.8095,1.6652-1.9319,3.5033-3.734,4.9378-5.8245,4.3611-6.4011,4.563-9.025-.4686-14.5323-.137-.1442-.2739-.2955-.4253-.4181-.2018-.1514-.4253-.2595-.7136-.4253-.0937.31-.1586.4902-.1946.6776-.5767,3.4457-1.9751,6.5309-4.0151,9.3494-1.1389,1.5787-2.2346,3.2006-3.3592,4.7864-4.1665,5.8389-5.0604,12.5284-4.945,19.4485.0505,3.4168.3893,6.8265.4974,10.2433.2018,5.9326-1.2831,11.3534-4.909,16.1326-.2811.3532-.5118.7569-.7713,1.1534ZM167.8719,152.4264c.2307-2.4797.4902-4.8081.6488-7.1364.0216-.2667-.4902-.7785-.8146-.8218-1.7877-.2811-3.597-.6776-5.392-.6271-4.945.1442-9.6234,1.694-14.2007,3.3952-5.7308,2.1265-11.1516,1.4994-16.4786-1.2038-2.2635-1.1534-4.4981-2.386-6.812-3.4601-5.8677-2.7248-12.0094-3.4889-18.3745-2.2779-.1946.036-.3893.1658-.9011.4037.9371.1225,1.5066.2451,2.0977.2739,3.561.2163,7.0427.8866,10.2793,2.4004,3.9863,1.867,7.8933,3.9214,11.8364,5.9038,4.2314,2.1121,8.5637,3.8782,13.4366,3.3952,2.1337-.209,4.2674-.5262,6.3867-.7929,6.084-.7569,12.1607-1.6796,18.288.5478ZM175.9526,175.8036c-1.0524,3.525-3.5466,5.3775-6.3723,6.8769-2.1698,1.1534-3.8205,2.8185-5.2334,4.7432-1.0669,1.4417-1.9679,2.9987-3.0492,4.4188-2.1914,2.8834-3.7196,6.0696-4.8657,9.5008-1.8598,5.5722-5.464,9.4431-11.2813,10.9713-1.1101.2955-2.2202.6271-3.3231.9515-3.0564.8866-5.8389,2.2923-8.2465,4.3828-1.4777,1.2903-2.5374,2.8474-3.1429,4.7144-.0865.2667-.0721.5551-.1081.8362.4253-.1802.6776-.4109.8722-.7064,1.5282-2.2491,3.6475-3.7773,6.0624-4.8729,3.5682-1.6363,7.2229-3.0997,10.8488-4.6423,1.5282-.6488,3.1357-1.175,4.5846-1.9679,4.9811-2.7536,8.4772-6.9346,11.4111-11.7427,2.1626-3.5466,4.6206-6.949,7.2085-10.2144,2.5446-3.2078,5.392-6.1921,9.4792-7.5329.0937-.036.137-.1802.2235-.3028-1.6147-1.7445-3.2366-3.4673-5.0676-5.4136ZM229.0865,250.7216c.1225-.1009.2451-.1514.2955-.2451.2018-.3893.4109-.7713.5695-1.1822,1.1678-2.9194,1.485-5.9542,1.0164-9.0395-.483-3.1862-1.1173-6.3507-1.6435-9.5368-1.0741-6.4228-.0649-12.4491,3.3736-18.0285.6704-1.0885,1.1894-2.2491,1.8021-3.3664,1.175-2.1698,1.658-4.4981,1.4561-6.9274-.1586-1.9751-.3676-3.9791-.8362-5.9038-.9371-3.8782-2.523-7.468-5.4424-10.3226-1.1317-1.1101-2.4076-1.2399-3.77-.4902-.5911.3244-1.175.692-1.7949.9371-.8939.3604-.9948.7497-.4397,1.5859,3.8638,5.911,5.3271,12.55,5.6947,19.4846.2379,4.4044-.9227,8.5925-2.1337,12.7807-.5911,2.0688-.8001,4.2891-.9227,6.4588-.2163,3.6331.9155,7.086,1.7589,10.5677,1.0308,4.2386,1.9895,8.4628.9443,12.86-.0288.1009.0433.2163.0721.3676ZM107.5223,142.1183c-.036.1298-.0649.2667-.1009.4109.4686.1586.9299.3388,1.4057.4686,4.8153,1.2759,8.8737,3.8133,12.3914,7.3166,1.1822,1.175,2.4221,2.3139,3.7628,3.3087,6.0624,4.5558,12.7158,6.7111,20.2631,4.4837,6.1921-1.831,12.2761-1.1029,18.3528.4758,1.7372.4469,3.4024,1.2182,5.2766,1.8958-.1874-1.3768-.5262-2.696-.5262-4.0151,0-1.6652-.9155-2.4365-2.2707-2.9411-.519-.1874-1.0741-.3028-1.6075-.4109-5.219-1.1101-10.3875-.3028-15.5343.4686-5.1973.7857-10.3586,1.3336-15.3685-.8506-1.8526-.8074-3.7196-1.6219-5.4785-2.6023-4.7216-2.6527-9.3783-5.4352-14.6477-6.8913-1.9463-.5406-3.9503-.7641-5.9182-1.1173ZM140.2778,70.718c-.0793.0649-.1442.1442-.2235.2163.3676.5118.7929.9948,1.0957,1.5426,1.3119,2.4797,2.8546,4.8946,3.8277,7.5257,1.4489,3.9142,2.5518,7.951,3.6908,11.9733,1.4994,5.2622,4.1088,9.7243,8.607,12.9681,1.5787,1.1389,3.0492,2.4221,4.6206,3.5754,6.8337,5.0243,11.0867,11.7066,12.9393,19.9748.0216.1009.137.1802.3028.3821.9155-1.1389,1.6868-2.3716,2.7104-3.3087,1.485-1.3552,1.4561-2.7681.6704-4.39-.1658-.3532-.31-.7353-.5118-1.0741-1.8742-3.215-4.0656-6.2137-6.913-8.607-2.9194-2.4509-6.0047-4.7072-8.9962-7.0787-5.0099-3.9863-8.5132-9.0395-10.1424-15.2316-1.7877-6.7688-5.5505-12.2689-10.2865-17.2139-.4325-.4613-.9227-.8434-1.3912-1.2543ZM133.3648,221.902c5.1036-2.4076,10.5244-3.3087,15.9957-4.1593,4.08-.6416,7.7636-2.3356,10.8776-5.0892,2.5662-2.2563,4.3828-5.1108,6.0624-8.0735,2.4076-4.253,5.1973-8.1889,9.2629-11.0723,3.5177-2.4941,7.1797-4.7072,11.1876-6.3291.519-.2163,1.0092-.5046,1.6724-.8434-1.6435-1.0813-3.0492-2.0977-4.5558-2.9627-.5478-.31-1.4273-.5334-1.9535-.31-1.73.7497-3.5754,1.4633-5.0027,2.6383-4.7792,3.9503-8.3691,8.9241-11.4543,14.244-4.0368,6.9922-9.4503,12.1607-17.3148,14.6405-3.4673,1.0957-6.8192,2.6455-10.1784,4.0728-1.7372.7425-3.3592,1.7445-4.599,3.2438ZM122.3935,110.0404c5.2694,1.4129,9.7675,4.0296,13.4294,8.0663.6343.6992,1.348,1.3408,2.076,1.9679,3.8061,3.2943,8.1024,5.1973,13.2132,5.6803,3.8854.3676,7.7491,1.3408,11.4976,2.4581,3.4745,1.0452,6.913,2.3644,9.8829,4.7432.137-.31.2451-.5118.3028-.7281.5262-1.9679.0649-3.8421-.4037-5.7596-.2811-1.1534-.8578-2.0544-1.8382-2.6744-4.5486-2.8041-9.4215-4.39-14.8423-3.7773-1.8526.209-3.7052.4686-5.5433.7281-2.9699.4109-5.7163-.2595-8.2033-1.8382-1.8454-1.175-3.5538-2.5374-5.2838-3.8782-4.2098-3.2655-9.2341-4.1953-14.2873-4.9883ZM292.37,171.9759c-.1225-.1298-.1946-.2667-.31-.346-.5334-.3316-1.0596-.7064-1.6291-.9804-5.082-2.5158-10.4595-3.9719-16.0894-4.5197-7.1436-.7064-13.8692-2.5158-19.6576-7.1364-2.0616-1.6435-4.4621-2.8834-6.7616-4.2026-1.1389-.6488-1.3192-.4758-1.521.7929-.1658,1.0957-.2883,2.2202-.5767,3.2871-.2811,1.0092-.0216,1.5282.9587,1.9103,4.0079,1.521,7.4536,3.8854,10.3226,7.0932.3604.3893.8866.6776,1.3768.9011,6.1849,2.7104,12.5212,3.7484,19.29,2.4941,4.7432-.8794,9.6306-1.4417,14.2873.7497.0649.036.1586-.0072.31-.0433ZM124.8227,185.9243c0,.1225-.0072.2451-.0072.3676,2.9699.7857,5.9398,1.211,8.8304-.3893,1.5282-.8506,2.9339-1.9391,4.4837-2.7176,1.5859-.8074,3.2366-1.5354,4.9378-2.004,3.1717-.8722,6.4372-.9948,9.7026-.5839,2.3211.2955,4.6423.6271,6.9706.9299,2.4293.3172,4.8585.3676,7.2013-.4109,2.8185-.9299,5.3055-2.3716,6.913-4.9883.7713-1.2399,1.002-2.4725-.036-3.7484-.5262-.6343-.8722-1.4201-1.2615-2.1698-.3316-.6343-.6704-.6343-1.2038-.1874-3.4457,2.869-7.4896,4.2674-11.8868,4.7288-3.8782.4037-7.7636.7497-11.6345,1.0813-3.4673.3172-6.2281,2.0472-8.7079,4.3179-3.215,2.9555-6.9995,4.6351-11.2741,5.2694-1.002.1802-2.0112.346-3.0276.5046ZM276.5185,83.0013l-.1514-.3028c-1.521.1514-2.8474.8146-4.1305,1.6291-3.5177,2.213-6.1777,5.2478-8.2609,8.7944-1.8093,3.0708-4.0296,5.738-7.122,7.5545-1.7445,1.0308-3.5033,2.076-5.3848,2.7969-6.5381,2.5518-11.9301,6.6318-16.3417,12.0382-.9443,1.1606-1.6724,2.5158-2.3644,3.8421-.1802.3388.0072,1.0741.3028,1.3984.8146.9227,1.7949,1.694,2.6527,2.5734.5623.5695.9876.6271,1.4057-.0649.6488-1.0524,1.3336-2.0833,1.903-3.1645,1.8526-3.5322,3.7917-6.9922,7.1076-9.4431,2.7681-2.0328,5.8389-3.3736,9.1404-4.2242,2.5374-.6488,4.945-1.6075,6.6751-3.6908,1.8021-2.1481,3.3447-4.4837,4.1665-7.1941,1.4777-4.8729,4.5414-8.4988,8.6718-11.339.5839-.4037,1.1534-.8074,1.73-1.2038ZM218.7063,50.1738c-.1442.0577-.4109.1442-.6343.2811-2.8618,1.6868-5.5578,3.5898-7.7275,6.1272-2.8906,3.388-4.9234,7.1653-4.4837,11.8292.1298,1.4705.5334,2.9194.5551,4.3756.0793,5.4352-.8218,10.6109-3.9935,15.2244-2.1698,3.1501-3.0852,6.6751-2.7464,10.5316.3748,4.5341-.1874,8.9818-1.4994,13.3357-.0793.2451-.0649.5118-.1081.8794,2.0977-.3316,4.0944-.6271,6.0624-1.0092.1874-.0288.4109-.656.3676-.9804-.1946-1.3336-.5839-2.6527-.7136-3.9791-.6488-6.4372-.2667-12.7158,2.5518-18.6916.829-1.7445,1.5354-3.6331,1.8093-5.5361.4397-2.9411.6848-5.9398.6127-8.9025-.1298-6.0696,1.0524-11.7427,4.5558-16.767,1.6652-2.3428,3.6043-4.5053,5.392-6.7183ZM295.311,210.7288c0-.2595.0216-.346,0-.4037-.0721-.1442-.173-.2667-.2595-.4037-2.9771-4.2458-6.7616-7.605-11.339-10.0054-3.4817-1.8238-6.9922-3.6331-10.5821-5.2262-5.0964-2.2346-9.4792-5.4568-13.0546-9.6161-3.5826-4.1593-6.9634-8.4916-11.0578-12.1463-1.6652-1.485-3.6403-2.6383-5.5145-3.8926-.2811-.1874-1.0308-.209-1.1389-.0288-.7281,1.0957-1.3408,2.2779-2.0688,3.5538.5695.1586.9299.209,1.2399.346,1.7661.8074,3.7628,1.3192,5.2262,2.5086,3.6475,2.9483,6.9562,6.3291,9.2557,10.4956,3.9142,7.0932,10.1568,11.0506,17.7113,13.0762,7.6626,2.0472,14.5612,5.4352,20.4938,10.7263.3244.31.6632.6271,1.0885,1.0164ZM174.4677,234.0843c.3893-.5983.6055-.9083.7929-1.2327,2.6239-4.3611,3.251-9.1908,3.1141-14.1503-.1442-5.6226.7353-10.9713,3.9935-15.6785,1.1389-1.6507,2.7032-3.0204,3.9431-4.6062,1.5426-1.9607,3.0564-3.9575,4.3539-6.0768.5334-.8722.4902-2.1121.6343-3.1934.1225-.9299-.4469-1.1462-1.1822-.865-1.7877.6704-3.5394,1.3984-5.3127,2.1049-.9011.3604-1.6507.7713-1.2182,2.004.1225.3532-.0865.8578-.209,1.2759-.9155,3.1141-2.5879,5.7452-4.9018,8.0591-1.2399,1.2399-2.3788,2.732-3.078,4.3179-1.9463,4.3972-2.905,8.8809-1.6219,13.8043,1.1245,4.3251,1.7733,8.8304.6343,13.3501-.0216.1658.036.3604.0577.8866ZM240.2164,67.8635c-.4109.5623-.7353.9443-.9876,1.3696-3.8349,6.0912-6.2354,12.7735-7.0283,19.881-.8362,7.5617-3.7484,14.0854-8.5277,19.8738-.7209.8722-1.2831,1.9247-1.7372,2.9627-.8146,1.8382-.7641,1.8814,1.1029,2.6744.4037.1658.829.3172,1.1966.5406.8218.5118,1.2038.1514,1.6724-.5839,1.2975-2.0472,2.6023-4.0944,4.0944-5.9831,1.175-1.4777,2.5014-2.7536,3.4096-4.5053,2.6527-5.1325,4.1377-10.474,3.9503-16.284-.137-4.1737-.3604-8.3763.6776-12.4851.6271-2.4004,1.3984-4.7864,2.177-7.4608ZM292.8529,204.9332c-.1225-.2523-.1586-.3893-.2451-.4974-2.4365-3.3447-5.1469-6.3867-8.9097-8.2898-1.5931-.8074-3.2366-1.5354-4.8513-2.2851-7.3599-3.4385-13.2997-8.4772-17.3725-15.5992-.6704-1.175-1.3264-2.3572-2.076-3.4889-3.3087-4.9739-7.3671-9.0611-13.0978-11.1948-1.5066-.5623-1.5138-.5911-2.0616.8506-.2018.5262-.3604,1.0596-.6127,1.557-.4613.8506-.1225,1.1966.6343,1.6507,1.8165,1.1101,3.6835,2.213,5.2766,3.6115,2.177,1.9175,4.2098,4.0079,6.1416,6.1633,1.7445,1.9463,3.1862,4.1737,4.9162,6.1272,4.1377,4.6927,9.1404,8.1312,14.8783,10.7046,6.084,2.732,12.1103,5.6803,16.9328,10.5028.0793.0793.2018.1009.4469.1874ZM192.8061,188.3176c.5695,3.0204-.9443,5.2334-2.4221,7.3671-1.1389,1.658-2.5879,3.1141-3.9575,4.599-2.3211,2.5086-4.3323,5.1901-5.3055,8.5349-.9731,3.352-1.384,6.7399-1.2975,10.2577.1009,3.9575-.2739,7.8933-2.004,11.548-.865,1.8165-1.9103,3.5466-3.0492,5.6515.8794-.7209,1.5859-1.1678,2.1337-1.7445,2.6239-2.8113,4.5774-6.0047,5.5938-9.7315.31-1.1389.4686-2.3356.5911-3.525.2739-2.6023.3893-5.219.7425-7.814.5046-3.5682,2.076-6.6895,4.5918-9.2629,1.7733-1.8093,3.6908-3.4889,5.5794-5.1973,2.4221-2.1842,3.9286-4.8802,4.5341-8.0663.0649-.3388-.1225-.9948-.3388-1.0596-1.7372-.5767-3.4889-1.0236-5.392-1.557ZM169.1334,140.7631c.1225-.1225.2523-.2595.3821-.3821.0649-.0433.1658-.0649.1874-.1298.4469-1.1534.8578-2.3067,1.3192-3.4601.6992-1.7661.656-1.9968-.829-3.1717-.31-.2523-.6488-.4613-1.002-.6416-5.9831-3.0204-12.2472-5.0676-18.9656-5.5794-2.869-.2235-5.6154-.8578-8.1961-2.2707-3.3375-1.8238-6.0984-4.3035-8.643-7.0571-2.2274-2.4293-4.9667-4.0728-7.9582-5.3343-.5046-.209-1.038-.3244-1.5498-.483.9731.9083,2.0184,1.5426,2.9771,2.3139,3.597,2.8978,6.8553,6.12,9.8252,9.7026,3.5394,4.2819,7.9798,7.3455,13.7178,7.778,3.0059.2379,5.8749.865,8.7295,1.7372,3.6115,1.1029,6.8265,2.8401,9.3134,5.738.2883.346.4686.829.692,1.2399ZM276.122,81.156c-3.5826-.0144-6.7472.6992-9.198,3.1285-2.0905,2.0544-4.0007,4.3035-5.8749,6.5669-4.8369,5.8605-10.2721,10.7695-18.0429,12.2977-6.5381,1.2903-11.0362,5.3631-14.417,10.8632-1.5282,2.4797-1.4417,2.5374.9155,4.1161.2018.1298.3965.2523.5911.4037.6343.5118,1.002.3028,1.384-.3748.6776-1.1606,1.348-2.3572,2.2202-3.388,4.6567-5.4785,10.1712-9.8036,16.9472-12.4347,5.3127-2.0544,9.5657-5.3559,12.4347-10.4307,1.9968-3.5394,4.7864-6.466,8.3474-8.5277,1.4273-.8001,2.9699-1.4057,4.6927-2.2202ZM238.7027,67.4958c-.036-.0433-.0793-.0865-.1153-.1225-.1225.0937-.2667.1658-.3748.2667-.2955.2739-.5695.5478-.865.829-4.6062,4.5414-7.2734,10.0703-8.3258,16.4282-1.0957,6.6246-3.7628,12.413-8.6718,17.149-2.5879,2.4941-3.6835,5.8893-4.7216,9.2557-.2018.6632.0072,1.0669.7209,1.211.8146.1658,1.6363.3676,2.4221.6271.7281.2307.9948-.0216,1.3336-.6848.8434-1.6868,1.6652-3.4529,2.8329-4.909,4.2963-5.2982,7.0643-11.1588,7.7563-18.0285.5623-5.5794,2.2274-10.9137,4.6279-15.9812.9876-2.0905,2.2491-4.0368,3.3808-6.0407ZM246.7257,146.5803c0,2.1121-.0288,3.7773.036,5.4352.0072.2451.3748.6055.6704.7064,3.3808,1.2182,6.3074,3.2078,9.0827,5.4064,4.9667,3.9503,10.8416,5.5289,16.9111,6.2209,5.8101.6632,11.3246,2.0472,16.5796,4.5558.4037.1874.8146.346,1.2254.519-.0937-.4758-.31-.7713-.5767-.9804-4.9667-3.734-10.3947-6.4084-16.5435-7.5833-2.9555-.5623-6.0407-.9731-8.7511-2.1553-5.8028-2.5302-11.2092-5.8389-15.8443-10.2793-.7136-.6704-1.658-1.1101-2.7897-1.8454ZM123.2945,184.4466c.0216.1009.036.2018.0577.3028.5478,0,1.0957.0577,1.6291-.0144,5.2262-.5767,9.9694-2.2418,13.8547-5.9903,2.5014-2.4076,5.4785-3.9358,8.9746-4.3179,3.5177-.3893,7.0211-.829,10.546-1.1101,3.5177-.2739,6.812-1.2254,9.8252-3.0204,3.5538-2.1121,4.0079-2.7464.9299-6.1128-.5262-.5695-.8866-.5262-1.485-.0649-1.6724,1.2687-3.3592,2.5374-5.1397,3.6547-3.7845,2.3716-8.0591,2.9627-12.413,3.388-4.8657.4686-9.3206,2.1481-12.8311,5.6587-3.6115,3.6043-7.987,5.7163-12.7374,7.2013-.4181.137-.8074.2811-1.211.4253ZM283.6765,122.6913c-.0216-.1225-.036-.2595-.0577-.3821-.7425,0-1.5138-.137-2.2274.0216-2.7032.5911-5.5145.9515-8.0519,2.004-6.5669,2.7176-13.1483,4.3251-20.2919,2.7825-3.597-.7713-7.2013-.2883-10.6181,1.1894-2.0544.8939-2.1337,1.0452-.7929,2.8041.2018.2667.8722.4902,1.1389.3604,4.4909-2.3067,8.989-1.7445,13.3718.0865,2.3644.9876,4.6567.8722,6.9778.3028,3.6763-.8939,7.2013-2.2491,10.4812-4.1809,3.2294-1.8886,6.2065-4.3107,10.0703-4.9883ZM285.1254,121.0262c.0144-.1153.0216-.2235.0505-.3388-.4686-.1442-.9443-.3821-1.4201-.4109-1.9751-.1802-3.9503-.4181-5.9254-.4037-2.9915.0216-5.7308,1.1822-8.4628,2.2923-4.7432,1.9103-9.4936,2.4509-14.3449.2667-1.3552-.6055-2.8906-.9804-4.3756-1.0813-4.3756-.3028-8.4628.5551-11.8147,3.6763-.4541.4253-.9587.8146-.3244,1.4561.5623.5551.7497,1.7228,2.004,1.0957,4.5197-2.2851,9.2846-2.5734,14.1719-1.6219,3.3303.6343,6.6679.6127,9.9261-.2811,2.6383-.7281,5.2478-1.6003,7.7924-2.5951,3.3375-1.3047,6.7183-2.1698,10.3226-2.0688.7857.036,1.6003.0144,2.4004.0144ZM176.0319,70.7397c.036.483.036.6271.0577.7713.4686,3.1141.8794,6.2209,1.4345,9.3062.5046,2.8041,1.0164,5.637,1.8021,8.3691.9011,3.1429,3.2222,5.4208,5.2694,7.8717,3.6475,4.3611,6.5525,9.1115,7.5329,14.8279.1586.8866.1874,1.7877.2883,2.6816,2.6167-.2955,4.8225-3.3303,4.0872-5.6875-1.384-4.3828-3.3015-8.4484-7.2229-11.2308-1.5859-1.1317-3.1357-2.3283-4.5197-3.6908-3.8277-3.7917-5.6731-8.4916-5.8966-13.8331-.1225-2.9627-1.0669-5.6947-2.2058-8.3763-.0937-.2667-.2955-.5046-.6271-1.0092ZM253.5378,205.2071c-1.9679-3.1573-3.4168-6.5309-4.0728-10.1568-.4613-2.5302-.6704-5.1252-.6848-7.6915-.0577-6.3579-4.8441-10.2937-9.5008-11.548-.4253-.1081-1.1029-.173-1.348.0577-1.0741,1.0308-2.0184,2.1698-3.1141,3.388,1.0813.6199,1.9823,1.1101,2.869,1.6219,3.3592,1.9679,5.8893,4.6783,7.3887,8.3114,1.0957,2.6527,2.1626,5.2982,3.352,7.9149,1.3264,2.9194,2.8906,5.7308,5.1108,8.1024ZM230.9751,182.5147c1.6507,1.0164,3.2294,1.7517,4.5197,2.8185,3.1501,2.5951,5.8821,5.5794,7.7636,9.2557.8146,1.6003,1.6291,3.1862,2.4076,4.8009,2.9843,6.1272,7.7131,10.5316,13.5448,13.8547.6199.3604,1.3119.6199,1.9823.9155-.2235-.4325-.5334-.6704-.8578-.8794-4.7432-3.2078-8.816-7.0787-11.4904-12.2256-1.7517-3.388-3.4601-6.8192-4.8441-10.3658-1.8742-4.8009-5.3343-7.7996-9.8756-9.7747-.3244-.1442-.8506-.2163-1.1029-.0433-.7209.4686-1.3408,1.0741-2.0472,1.6435ZM176.2121,83.4699c-.1946,4.2458-.0937,8.4844,2.7248,12.0742,1.1462,1.4705,2.4509,2.8329,3.5322,4.3395,3.4889,4.8225,5.7884,10.0559,5.3415,16.1831-.0216.2451.0865.5046.1298.7641,2.1986-.6271,2.7897-1.2543,2.7464-3.3087-.0288-1.2543-.2667-2.5446-.5983-3.7484-1.2543-4.4981-3.6331-8.4195-6.7688-11.8003-3.77-4.0584-6.3074-8.6358-6.985-14.1791-.0216-.1153-.0937-.2163-.1225-.3244Z"/>
  </g>
</svg>