<?xml version="1.0" encoding="UTF-8"?>
<svg id="Sword" xmlns="http://www.w3.org/2000/svg" viewBox="0 0 160.6872 205.5844">
  <defs>
    <style>
      

      @import url('../../CSS/SvgStyling.css');


    </style>
  </defs>
  
  <g class="content">

    <rect id="bg" class="bg" width="160.6872" height="205.5844"/>

    <path class="cls-1" d="M151.6517,6.3919l-3.4393,7.7591c-9.5842,20.6725-22.5068,41.1799-38.777,61.5497-13.8122,17.7101-26.2396,32.8797-37.2637,45.5088-9.0614,10.8957-20.6725,22.6994-34.8424,35.4202l8.3277,10.6481c2.568-1.871,10.0794-9.199,22.5251-21.9932,9.9052-10.6481,19.6728-22.4334,29.2937-35.3835,15.5273-21.0118,28.2298-41.3174,38.0983-60.9169,7.1813-15.298,11.0149-24.176,11.4827-26.6523,1.9719-5.5579,3.4943-10.8682,4.5949-15.94"/>
    <path class="cls-1" d="M40.1451,153.814l-7.1537,6.6585c-8.9238,8.4836-15.353,15.4081-19.2876,20.7642l-2.4946,3.7236-1.55,3.1458-.6237,2.5497.321,1.9627c.0183.3118.5044,1.1006,1.4491,2.3571,1.284,1.4674,3.1917,2.7148,5.7322,3.7511,3.0908.9171,5.7597.4769,8.0067-1.2932.9263-.8254,1.5958-2.0911,2.0177-3.7786.1926-.5595.2018-3.3292.0459-8.3093.1926-1.4307.5228-2.458.9813-3.0816,4.0905-4.7967,9.6209-10.217,16.5912-16.261l-4.0354-12.1889"/>
    <path class="cls-1" d="M31.6523,148.1461l-.0459.0092c-.697.0642-1.4124.4586-2.1645,1.1739l-.3852.5411c-.2293.3852-.376.8254-.4494,1.3207s-.0825,1.0455-.0092,1.6509l.1651.9538c.3485,1.1923.9813,2.4213,1.8802,3.6778.4586.6237.9722,1.2657,1.5591,1.9077.2109.3118,1.2473,1.2932,3.1091,2.9349l4.5582,5.1635c.2385.0459.697.2843,1.3665.7062,1.3299.8896,2.5038,1.7242,3.5402,2.513.3485.2109.697.4127,1.0455.587,1.2748.6237,2.3571.9171,3.2467.8713,1.0364-.0825,1.7976-.3577,2.2837-.8254l.5595-.908.321-.9905.0825-1.0639c-.0275-.7429-.2109-1.5316-.5503-2.3846-.3393-.8438-.8438-1.7426-1.5041-2.6964-.2843-.5411-1.4858-1.9535-3.6044-4.2372-1.1556-1.2748-3.0541-3.0541-5.6955-5.3378-1.0455-.9355-3.0174-2.3479-5.9156-4.2464-1.4949-.8896-2.6322-1.3299-3.3934-1.3207"/>
  </g>
</svg>