<?xml version="1.0" encoding="UTF-8"?>
<svg id="Talha" xmlns="http://www.w3.org/2000/svg" width="474.5385" height="464.8362" viewBox="0 0 474.5385 464.8362">
  <defs>
    <style>


      @import url('../../CSS/SvgStyling.css');
      
    </style>
  </defs>
  
  <g class="content evenOdd">

    <rect id="bg" class="bg" width="474.5385" height="464.8362"/>
    <path class="cls-1" d="M367.5781,328.5686c-.0199-.0287,1.4041-1.5574,1.4972-1.6703,3.6127-3.9636,7.2392-7.899,11.0811-11.6647.3141-.2834.6257-.5939.94-.9054.3169-.3114.6312-.6228.9482-.906.3145-.3121.6313-.6233.9484-.9348,13.292-12.6261,32.0393-28.3953,51.9023-24.1492,4.7445,1.0196,17.98,13.0798,16.086,18.063-1.2314,3.2272-9.9796,6.8794-12.6605,8.0118-17.0403,7.1338-51.6927,17.1563-70.7428,14.1555ZM377.1412,192.0818s10.0362,9.4278,9.4955,5.7476c-.8408-5.6619-14.529-39.7486-14.529-39.7486l-6.3303,13.7873,2.3329,9.6823s4.6514,67.946,5.7357,89.3771c.6595,13.023.7672,39.1259.7672,39.1259l-14.2235,18.147c-14.9847-1.4157-26.7989-14.6653-33.1403-22.8468-5.45-7.049-3.9748-17.4109-4.8977-26.2444-1.2118-11.6072-.6968-30.462-2.3642-43.372-1.4891-11.5224-7.6411-34.0299-7.6411-34.0299l-5.2744,14.8351s3.0407,13.4761,3.737,20.3272c1.5233,14.948,3.0181,37.0305,2.4206,61.2077-6.3444,15.826-18.1869,25.1688-27.3681,33.6897-8.0004,7.4179-22.017,12.2593-27.7133,17.4396-3.7397,3.4263-6.4717,13.7305-6.4717,13.7305l61.1059,8.6064s-29.2649,14.779-41.5263,18.3457c-10.3053,3.0013-23.1808,6.7096-32.0478,3.0574-12.4962-5.1521-19.0445-19.9024-24.9729-24.1485-2.8877-2.0953-7.7455-3.624-10.5851-1.4726-5.5293,4.19-18.5155,16.1374-22.5892,26.612-4.7819,12.2586-11.8423,26.7255-17.0517,31.6519-3.471,3.284-10.8911,1.359-14.1863-2.0954-3.5107-3.6802-5.8491-13.0511-6.8712-20.0153-1.1833-8.0686-.2237-28.4239-.2237-28.4239,0,0-2.7091,7.4172-4.1305,14.7214-1.373,7.049-.804,20.2419,1.4522,28.9051,1.8631,7.1345,7.1966,15.1746,10.7867,18.9403,2.6044,2.7172,7.1712,4.8407,10.7381,3.5945,3.8815-1.3584,9.4559-6.9072,12.553-11.6914,3.8135-5.9453,7.3268-16.194,10.3306-23.8665,3.2785-8.352,9.1162-15.7972,13.6372-19.3644,3.5731-2.8022,9.7107-4.5014,13.4873-1.953,5.9706,3.9915,10.7666,20.5818,22.3346,25.9324,9.43,4.3597,24.1432.8493,35.4873-2.6333,15.5625-4.7559,57.8868-25.9324,57.8868-25.9324l12.0833-3.6802,24.6558-1.1612,7.7769-15.967-84.213-10.8715c13.3287-10.0784,23.1072-24.0642,29.9554-41.3053,0,0,2.3101,10.1071,8.9264,18.8266,5.1499,6.7665,14.1387,12.1738,18.7106,14.8919,10.1069,5.9733,23.382,4.5295,35.0603,3.3401,13.8125-1.4151,36.1299-7.955,47.8194-11.8049,7.91-2.6052,17.0089-6.852,22.3145-11.211,4.5667-3.7657,7.6919-10.0224,9.5096-14.9767,1.7014-4.643,2.7036-9.9942,1.393-14.7783-1.4639-5.3225-5.5207-13.4191-10.1747-17.1561-4.6575-3.737-11.6359-5.9453-17.7624-5.2096-7.174.8491-17.6064,5.408-25.2813,10.3049-8.6602,5.5208-26.6801,22.7907-26.6801,22.7907,0,0,3.2444-20.4402,2.8537-30.7177-.7078-18.5995-7.0976-80.9405-7.0976-80.9405Z"/>
    <polygon class="cls-1" points="392.2479 234.7751 389.1424 242.1355 459.0385 214.9575 461.7027 208.3608 392.2479 234.7751"/>
    <path class="cls-1" d="M409.9988,86.341c-23.1611-4.5575-44.2413-1.3584-60.9983,8.8618,5.2089,16.4206,17.5809,25.3097,24.1291,31.255,3.8954,3.5111,15.1605,4.3316,15.1605,4.3316l47.8734-19.3364-7.0638,15.6274s-57.6149,25.5082-73.8481,30.887c-7.4657,2.4635-18.0229,3.1709-23.5519,1.3596-4.9488-1.6422-9.6257-12.3154-9.6257-12.3154-5.5151,11.8343-14.3819,17.1843-23.9085,15.9676-7.8165-.9909-9.8069-16.2509-9.8069-16.2509,0,0-12.921,16.8449-31.561,21.4031-7.2387,1.784-14.478-4.077-18.3905-9.8519-4.19-6.1437-6.7607-27.1218-6.7607-27.1218,0,0-7.6324,19.5342-26.8639,33.7458-9.5917,7.0779-23.3989,14.0139-31.9344,16.1374-6.3363,1.5574-15.0841.0287-19.2712-3.4818-4.1871-3.5104-5.9905-11.4374-5.8518-17.6098.1897-8.2665,6.9785-32.0194,6.9785-32.0194l1.4554,1.6705s-2.0811,8.6913-2.5734,13.1085c-.572,5.1241-2.1264,13.7305-.8552,17.6654,1.0617,3.2559,5.0479,5.7474,8.4846,5.889,5.4132.1979,16.6553-1.1325,23.9965-4.6718,9.2092-4.4164,24.0982-15.7685,31.2606-21.9122,4.8128-4.1337,11.7123-15.0335,11.7123-15.0335-.7702-23.0727-8.1988-43.4-19.0334-61.9152l3.5616-12.4284s12.5841,17.6941,16.0155,27.8294c4.4191,13.0516,10.503,50.5065,10.503,50.5065,0,0,2.783,15.3155,4.7734,19.1948,1.2542,2.4347,4.4531,3.6522,7.168,4.0195,3.7771.5098,10.8968,1.4158,15.4889-.9628,7.0213-3.6515,26.6461-20.8644,26.6461-20.8644,0,0-.3226,12.004,2.1005,14.9486,2.4266,2.9151,8.7428,4.7272,12.4456,2.6605,5.2574-2.9438,19.1014-20.2704,19.1014-20.2704,0,0-1.1382,9.6255,1.4663,12.6261,2.602,3.002,9.1019,5.4081,14.147,5.3794,6.1093-.0563,22.5042-5.6901,22.5042-5.6901,0,0-16.692-12.7964-20.3073-20.95-3.6155-8.1822-4.5043-20.7234-1.3844-28.0276,3.1169-7.3043,11.8877-13.5041,20.0891-15.882,8.403-2.4068,22.5753-.5948,30.3294,1.3014,6.1974,1.5576,16.1996,10.2201,16.1996,10.2201Z"/>
    <path class="cls-1" d="M92.0038,99.3079c.0881-.028-.0199-.0568,0,0,0,0-.0649-.4811,0,0-.6057.0848-2.6129,1.4439-2.8026,1.5567-3.4711,2.1235-6.8683,4.3605-10.2203,6.6817-6.0869,4.19-11.9866,8.8898-17.0033,14.3539-1.2771,1.3864-4.3374,3.9349-3.7231,6.143.7391,2.6613,4.5837,2.8592,6.7918,2.9166,6.537.1977,14.8065-1.4445,20.5988-4.5302,9.1756-4.8977,8.4169-13.0798,6.8826-22.0257-.2863-1.6424-.289-3.4256-.5241-5.096ZM187.6801,69.2136l5.665,3.0293c-2.1913-7.8134-7.4232-16.1941-13.9291-24.8286l-7.4543,13.0224,4.0542,5.436s3.3606,18.1471,8.4057,34.1997c3.1169,9.9087,8.9347,18.8266,8.8271,22.7612-.1809,6.5686-13.6399,6.8233-18.9541,5.2096-5.3136-1.6135-10.4209-8.8041-12.9323-14.863-3.4059-8.2104-4.9798-24.234-7.491-34.4541-2.2226-9.0314-6.6302-25.3665-7.576-26.8671-1.7383-2.8029-7.5194,17.2129-7.1483,18.1757,6.2253,14.0419,7.1371,36.0396,6.0328,46.6279-.7277,6.9642-6.8454,14.3253-12.6492,16.8449-5.801,2.519-17.3688.6227-22.1702-1.8121-4.2889-2.1801-5.5829-8.1254-6.6387-12.8252-1.5289-6.7665-2.5396-27.9142-2.5396-27.9142l12.6945-12.8813,1.3052-7.474-14.6734,10.4746-6.2397-16.3063-5.614,18.713,2.2112,5.6619s-18.6822,13.7026-25.2927,20.0727c-5.5632,5.3794-12.1087,12.542-14.3678,18.2039-1.9535,4.9257-1.2911,12.4852.8181,15.8253,2.1061,3.3695,7.6552,4.5869,11.8253,4.2468,5.2064-.453,14.1611-3.0856,19.404-6.8794,5.2434-3.7938,12.0606-15.854,12.0606-15.854,0,0,3.1624,16.5617,8.1082,21.2054,4.9458,4.6423,15.3473,7.4733,21.5669,6.6808,6.2171-.7932,11.8624-6.2285,15.7411-11.4374,4.2551-5.6908,9.7812-22.7341,9.7812-22.7341,0,0,6.4435,19.0251,12.1342,23.9794,5.693,4.9544,16.3096,6.8233,22.0116,5.6907,5.7015-1.1605,9.1584-7.6156,12.2046-12.5986,5.0649-8.2952,3.8106-17.213,2.63-25.7341-1.5316-11.0699-11.8112-40.5976-11.8112-40.5976Z"/>
    <path class="cls-1" d="M122.1543,78.459l3.1361-5.4921s8.5645,10.3219,10.2342,15.8076c1.6555,5.399.3971,12.7279-.2104,16.963-.4284,3.002-3.4208,8.4524-3.4208,8.4524,0,0,1.5319-7.2736,1.4044-10.9557-.1273-3.8252-.5256-8.2462-2.1852-11.9095-1.8546-4.1385-8.9583-12.8658-8.9583-12.8658Z"/>
    <path class="cls-1" d="M182.2388,228.3487s4.3515-11.6079,9.5463-12.9669c6.6645-1.7551,27.5437-1.4439,30.454,2.4629,2.9102,3.8793-6.6417,15.9956-12.986,20.9218-6.3446,4.8977-25.0863,8.4931-25.0863,8.4931,0,0,25.7428-13.3905,25.4202-16.5336-.3199-3.1424-27.3482-2.3773-27.3482-2.3773Z"/>
    <path class="cls-1" d="M267.1923,86.3182s4.3513-11.3121,9.5463-12.6367c6.6643-1.7107,27.5435-1.4073,30.454,2.4002,2.9102,3.7802-6.6417,15.5883-12.9862,20.3893-6.3446,4.7736-25.0863,8.2775-25.0863,8.2775,0,0,25.7428-13.0504,25.4202-16.1131-.3197-3.0627-27.348-2.3173-27.348-2.3173Z"/>
    <path class="cls-1" d="M207.2826,272.2305l4.6712-15.1185s7.0378,13.7587,6.8029,21.176c-.2433,7.673-1.5768,16.7325-8.2552,24.8006-3.4229,4.1339-15.3304,4.8694-15.3304,4.8694,0,0,.7391,25.6779-4.5353,35.7851-5.2772,10.1064-16.3893,18.9107-27.1189,24.856-13.227,7.305-37.5855,16.9584-52.2363,19.0258-11.9754,1.6983-26.9008-1.7272-35.6716-6.6249-8.2469-4.5861-13.5835-14.9198-16.9579-22.6491-3.1937-7.3324-3.7429-15.7685-3.2898-23.753.4868-8.5209,6.203-27.433,6.203-27.433,0,0,.4698,4.643.2263,6.9361-.3933,3.6807-3.0292,10.1358-2.5847,15.2599.5603,6.4551,1.0249,17.0432,5.9395,23.4415,5.0676,6.568,15.084,13.3625,24.4604,16.0236,9.402,2.6894,21.5984,2.4917,31.9543,0,11.9302-2.8597,28.3305-10.4185,39.6324-17.2129,10.489-6.2854,25.12-13.7594,28.186-23.4985,3.0661-9.7384-3.1992-23.6673-9.7899-34.9063l5.0393-15.6844s4.2835,10.2201,8.6829,11.7769c4.3994,1.5569,15.387.425,17.7167-2.4067,2.3275-2.859-3.7452-14.6639-3.7452-14.6639Z"/>
    <polygon class="cls-1" points="111.3034 316.0266 118.1659 303.1734 131.1181 314.1012 125.3936 326.1332 111.3034 316.0266"/>
    <polygon class="cls-1" points="199.4518 331.9824 206.3144 319.1292 219.2665 330.0568 213.542 342.089 199.4518 331.9824"/>
    <polygon class="cls-1" points="265.734 185.495 272.5965 172.6418 285.5487 183.5694 279.8242 195.6016 265.734 185.495"/>
    <polygon class="cls-1" points="284.8293 184.7705 291.6916 171.9171 304.644 182.8449 298.9195 194.8769 284.8293 184.7705"/>
    <polygon class="cls-1" points="311.244 180.632 318.1066 167.7788 331.0587 178.7064 325.3343 190.7386 311.244 180.632"/>
    <polygon class="cls-1" points="110.2049 278.6584 112.51 274.4592 116.8604 278.0294 114.9379 281.9604 110.2049 278.6584"/>
    <polygon class="cls-1" points="103.1313 282.0892 105.4213 277.7403 109.7438 281.4378 107.8335 285.5087 103.1313 282.0892"/>
    <polygon class="cls-1" points="40.8012 258.2091 43.488 254.3052 46.9979 258.4124 44.6984 262.0959 40.8012 258.2091"/>
    <polygon class="cls-1" points="118.6666 222.7585 121.5817 218.2326 127.1921 222.0096 124.7643 226.2436 118.6666 222.7585"/>
    <path class="cls-1" d="M294.8391,416.898s2.885-6.1156,5.7809-6.8512c3.3297-.8499,12.3606-.0569,14.2034,1.8119,1.8403,1.8401-1.3529,6.5674-3.1565,9.3141-2.8677,4.3598-14.1072,13.3064-14.045,16.8731.0624,3.5391,8.108,5.4921,14.4217,4.5013,5.6621-.8773,16.2419-3.5667,16.2419-3.5667,0,0-8.5189,6.7945-18.2153,9.6536-4.3486,1.2742-10.8657.2553-13.4704-1.8682-2.6042-2.1233-3.4963-7.474-2.157-10.9283,1.8938-4.9257,13.4589-15.3162,13.5238-18.4866.0653-3.1424-13.1276-.453-13.1276-.453Z"/>
    <path class="cls-1" d="M408.6109,165.5074c-1.6278-.1725-3.8599,1.9345-4.3641,3.9893-.5038,2.0553.0289,6.9943,1.3539,8.3069,1.3393,1.3296,6.6679-.3971,6.6679-.3971,0,0,6.4954,17.0449,8.1947,18.772,1.6994,1.7446,1.5265-5.5264,1.9873-8.3929.6482-3.9894.8787-12.4515,1.8435-15.5773.5618-1.7791,3.082-3.5405,3.9893-3.1606.9074.3801.2592,5.4918,1.4401,5.4226,1.1665-.0692,5.2135-3.6093,5.588-5.8025.3888-2.176-1.4835-6.3725-3.2835-7.3054-1.8003-.9324-5.732-.4659-7.518,1.7272-1.8863,2.314-3.0387,8.4103-3.8307,12.227-.7058,3.4713-.8785,10.6728-.8785,10.6728,0,0-3.9894-12.0543-5.8617-15.4567-1.2385-2.2795-3.7157-4.8526-5.3284-5.0253Z"/>
    <path class="cls-1" d="M49.1082,222.8804c-.4884-.0478-1.1578.5351-1.3089,1.1036-.1513.5683.0085,1.9345.4059,2.2975.4018.3677,2.0001-.1098,2.0001-.1098,0,0,1.9481,4.7146,2.4578,5.1923.5096.4826.4579-1.5287.5961-2.3215.1945-1.1036.2635-3.4441.553-4.3087.1683-.4919.9244-.9791,1.1964-.8741.2723.1051.0779,1.519.4321,1.5.35-.0192,1.5637-.9985,1.6761-1.605.1166-.6019-.4449-1.7626-.9849-2.0206s-1.7191-.1289-2.2549.4777c-.5657.64-.9115,2.3263-1.1491,3.3819-.2116.9603-.2635,2.9522-.2635,2.9522,0,0-1.1965-3.3341-1.758-4.2752-.3716-.6307-1.1146-1.3422-1.5982-1.3902Z"/>
    <path class="cls-1" d="M254.0623,224.3943c-1.6276-.1727-3.8599,1.9345-4.3639,3.9893-.504,2.0553.0289,6.9943,1.3539,8.3069,1.3393,1.3296,6.6677-.3971,6.6677-.3971,0,0,6.4954,17.0449,8.1949,18.772,1.6992,1.7446,1.5265-5.5264,1.9873-8.3931.6482-3.9893.8785-12.4514,1.8435-15.5771.5616-1.7791,3.0819-3.5405,3.9893-3.1607.9072.3803.2591,5.4919,1.4401,5.4228,1.1665-.0692,5.2135-3.6093,5.5878-5.8025.3889-2.176-1.4833-6.3725-3.2835-7.3054-1.8003-.9324-5.732-.4661-7.5178,1.7272-1.8865,2.314-3.0387,8.4103-3.8307,12.227-.7058,3.4713-.8787,10.6728-.8787,10.6728,0,0-3.9893-12.0545-5.8615-15.4569-1.2387-2.2794-3.7157-4.8524-5.3286-5.0252Z"/>
    <path class="cls-1" d="M187.832,15.7155c-1.6276-.1727-3.8599,1.9345-4.3639,3.9893-.504,2.0551.0289,6.9943,1.3539,8.3069,1.3393,1.3296,6.6679-.3973,6.6679-.3973,0,0,6.4952,17.0449,8.1947,18.7722,1.6992,1.7444,1.5265-5.5264,1.9873-8.3931.6482-3.9893.8785-12.4515,1.8435-15.5773.5616-1.7791,3.0819-3.5405,3.9893-3.1606.9074.3803.2592,5.4919,1.4401,5.4228,1.1665-.0692,5.2135-3.6093,5.5878-5.8027.3889-2.1758-1.4833-6.3725-3.2835-7.3052-1.8003-.9325-5.732-.4661-7.5178,1.7272-1.8865,2.3139-3.0387,8.4103-3.8307,12.2268-.7058,3.4715-.8787,10.6728-.8787,10.6728,0,0-3.9893-12.0543-5.8615-15.4567-1.2385-2.2794-3.7157-4.8524-5.3286-5.0252Z"/>
    <path class="cls-1" d="M283.126,17.4711c-1.6276-.1727-3.8599,1.9343-4.3639,3.9893-.504,2.0551.0289,6.9941,1.3539,8.3069,1.3393,1.3296,6.6677-.3973,6.6677-.3973,0,0,6.4954,17.0449,8.1949,18.7722,1.6992,1.7444,1.5265-5.5266,1.9873-8.3931.6482-3.9893.8785-12.4515,1.8435-15.5773.5616-1.7791,3.0819-3.5405,3.9893-3.1606.9072.3803.2591,5.4919,1.4401,5.4228,1.1665-.0692,5.2135-3.6095,5.5878-5.8027.3889-2.176-1.4833-6.3725-3.2835-7.3052-1.8003-.9325-5.732-.4661-7.5178,1.7271-1.8865,2.314-3.0387,8.4104-3.8307,12.227-.7058,3.4713-.8787,10.6728-.8787,10.6728,0,0-3.9893-12.0543-5.8615-15.4567-1.2387-2.2794-3.7157-4.8526-5.3286-5.0252Z"/>
    <path class="cls-1" d="M158.3818,241.348l-.3835-4.1966-6.4054-6.9571-.9545,8.2607,7.1342,13.771s-3.0591,7.7449-6.0867,10.1197c-4.1608,3.2513-12.97,7.3768-18.842,9.3709-5.2548,1.799-16.4068,2.5874-16.4068,2.5874,0,0,11.6725,1.8904,17.3574,1.1326,5.667-.7396,12.8583-2.8539,16.7153-5.5863,5.6444-4.0261,8.0266-8.8565,9.6063-12.4459,1.2027-2.7344.6011-6.1653-.1278-9.1104-.7286-2.9647-4.2274-8.6933-4.2274-8.6933l2.621,1.7475Z"/>
    <path class="cls-1" d="M128.5198,239.5483c-.1402-.4355,3.1713-4.8399,3.4832-5.2256,2.0133-2.5439,4.4404-5.7687,7.8978-6.6179,2.5688-.6111,7.3572.2215,6.3633,3.582-.5525,1.8505-2.4898,3.1165-4.1089,4.1574-1.4889.948-3.073,1.8952-4.7112,2.5711-2.4463,1.0344-6.3383,1.2724-8.9241,1.5331ZM124.7898,239.0106s3.4866-7.5964,5.5443-10.2791c1.773-2.3304,4.0345-4.6906,6.7704-5.8134,2.7359-1.1221,7.3298-1.5702,9.6315-.9043,2.1539.6295,3.6569,2.9775,4.1674,4.9312.5108,1.9543-1.0723,6.7883-1.0723,6.7883,0,0-4.2538,6.6528-7.2567,8.5961s-7.6005,2.4798-10.7707,3.1091c-2.9387.579-6.6008,1.3271-9.021.723-2.3249-.6035-5.4285-4.401-5.4285-4.401,0,0-2.839-2.4689-4.2-2.0854-1.3743.4001-3.5192,3.141-4.0042,4.4511-.4333,1.1109-.1234,2.9924,1.0694,3.3414,1.5768.4814,6.2395-1.1841,8.3856-.4945,2.1327.7066,3.7316,2.7161,4.5016,4.7044.7672,1.9735,1.2865,5.0156.1125,7.1966-1.6028,2.9814-5.7602,8.0445-9.7858,10.7471-4.01,2.6999-9.8672,4.9147-14.274,5.4518-4.1577.4994-9.4416-.5819-12.1855-2.2552-2.6078-1.6062-3.6199-5.221-4.2791-7.7854-.625-2.4667.0277-5.2749.3486-7.6496.2941-2.2233,1.5442-6.5943,1.5442-6.5943l.3728,4.7278s.1586,6.0415,1.5226,8.1896c1.3485,2.1502,3.8801,4.239,6.6484,4.7165,2.8344.4964,7.2498-.778,10.3735-1.739,2.9687-.9366,5.9691-2.5558,8.3781-4.0848,2.2321-1.4286,4.9808-3.7161,6.0611-5.0869.6893-.8708,1.4406-2.6634.4517-3.1456-.9733-.4853-4.3098.4336-6.3252.2247-1.9868-.2278-4.7032.0082-5.7629-1.5532-1.1658-1.751-1.5912-5.1462-1.406-7.8097.1676-2.6751,1.2758-6.1268,2.4696-8.2809,1.0565-1.8828,3.3486-3.9095,4.7765-4.6123,1.1304-.5548,2.6758-.1858,3.7565.386,2.1089,1.1075,8.8859,6.2899,8.8859,6.2899Z"/>
    <path class="cls-1" d="M254.864,43.4919l9.2689,3.85-14.7683-39.148-7.363,13.4336s4.4521,31.8358,5.7484,47.8557c1.5634,18.8762,2.1956,45.7459,3.5869,65.2723,1.2569,17.4898,2.3626,60.0164,2.3626,60.0164,0,0,7.2601-19.6308,7.8826-29.909.9135-14.8043-1.3137-39.3856-2.3594-59.0778-1.1342-20.2626-4.3588-62.2932-4.3588-62.2932Z"/>
    <path class="cls-1" d="M79.601,189.938l3.1612,1.1661-5.8115-13.5964-2.1242,4.9378s2.2217,11.222,3.0271,16.8901c.9608,6.6771,1.8003,16.2173,2.7196,23.1299.8266,6.1913,2.1906,21.2878,2.1906,21.2878,0,0,1.945-7.1388,1.9101-10.8069-.0445-5.2834-1.3592-13.9753-2.1678-20.9546-.8511-7.1796-2.9052-22.0538-2.9052-22.0538Z"/>
    <path class="cls-1" d="M101.3114,199.693l1.7585-.6839-5.8668-6.9054-2.0866,4.1875s5.6301,15.1849,6.4838,19.4324c.4148,2.0495-.2014,5.2138-1.2888,6.1071-1.0866.9086-3.9967.6674-5.2189-.6867-1.5375-1.6915-3.1308-6.1294-3.9663-9.4662-.9155-3.7055-1.5792-12.7028-1.5792-12.7028,0,0-1.9615-3.6812-2.7087-3.6466-.7445.049-1.7726,3.8978-1.7726,3.8978l1.6725,17.1044s-.1574,5.7488-1.3261,7.3201c-1.1687,1.5719-4.1591,2.6358-5.6874,2.1089-1.5278-.5264-2.8492-3.219-3.4805-5.2393-.8406-2.6943-1.5608-10.9407-1.5608-10.9407l-.3697-7.3579s-2.8362-.0365-3.6426.988c-.8697,1.103-1.1675,3.7083-1.5712,5.6029-.4197,1.9849-.725,4.2021-.9484,6.3237-.2443,2.3176-.1202,5.4926-.5164,7.5807-.3279,1.7252-.9784,4.3238-1.861,4.8902-.8814.5659-2.612-.53-3.431-1.5222-.8674-1.0634-1.3594-3.1828-1.7697-4.7998-.4063-1.6018-.4913-3.5692-.6925-4.9453-.1608-1.0803-.2778-3.3589-.5178-3.2685-.239.1057-.8306,2.5206-.9223,3.8417-.1057,1.5311.0534,3.583.2885,5.3457.2618,1.9548.591,4.6978,1.279,6.3711.5978,1.4549,1.5166,3.0683,2.8497,3.6675,1.3342.5995,3.974.5747,5.1499-.1008,1.1775-.6754,1.5465-2.5379,1.9086-3.9814.493-1.9599,1.0456-7.7798,1.0456-7.7798l.2254-4.0647s1.6696,8.6466,2.7783,11.144c.7559,1.7135,3.8771,3.8983,3.8771,3.8983,0,0,2.2341,1.1824,3.3793.9725,1.3701-.2548,3.65-1.4513,4.8448-2.5015,1.0905-.9538,1.6934-2.4726,2.3297-3.77.6191-1.2514,1.486-3.9388,1.486-3.9388l3.4246,6.0206s2.2309,1.6009,3.4868,1.563c1.6327-.0476,4.7345-.5069,6.3097-1.8508,1.5741-1.3594,3.0149-3.8905,3.1652-6.2766.1814-2.7611-1.0881-6.9514-2.0645-10.3089-.9786-3.3877-3.8499-10.0272-3.8499-10.0272l-1.0896-2.5284,2.0466.9259Z"/>
    <path class="cls-1" d="M89.3882,185.6613c-1.6761.9417,1.7123,4.5533.0994,5.1132-2.0619.7168-1.793-4.5203-2.7213-4.7447-.4613-.112-.263,1.2987-.2351,1.4695.1951,1.0276,1.3157,3.4121-.4182,3.8135-1.8486.4265-1.645-2.1911-1.6764-3.2561-.0095-.2269.0231-1.4102-.4568-1.2992-1.5268.351-.1598,4.2891.0988,5.1015.1397.4377.3434.9252.7428,1.1885,1.4643.9654,1.969-1.4512,2.5877-1.5573.4651-.0801.9825,1.3815,1.9348,1.1336.4301-.1108.7119-.537.9038-.9018,1.0475-1.9939-.1096-4.1773-.8596-6.0609Z"/>
    <path class="cls-1" d="M148.2414,25.0357c-5.5489,3.3807,6.9826,12.9705,1.561,15.1922-6.9314,2.8435-7.2533-12.8442-10.5042-13.1937-1.6157-.1746-.5967,3.9578-.46,4.4572.9171,2.9928,5.3452,9.7085-.5315,11.4994-6.2657,1.9057-6.188-5.9592-6.5503-9.1196-.0867-.6726-.2563-4.2073-1.8826-3.7123-5.1759,1.5702.4715,12.8274,1.5554,15.1579.5851,1.2552,1.4032,2.6375,2.8417,3.2841,5.2738,2.3717,6.4369-4.9981,8.5422-5.527,1.5836-.3981,3.7134,3.7763,6.9351,2.711,1.4546-.478,2.3242-1.8438,2.8979-2.9962,3.1334-6.2977-1.373-12.4016-4.4047-17.7531Z"/>
    <path class="cls-1" d="M73.1534,249.3134l-5.8834-1.1753s-4.5475-.7986-6.0949-.0309c-1.5472.7673-3.4807,2.9846-3.1856,4.6524.9062,5.0942,4.0091,6.5765,5.7223,8.259,1.2049,1.1739,4.5589,1.7886,4.5589,1.7886,0,0,4.6068-.7218,6.6626-1.8173,2.3207-1.2367,7.3065-5.6051,7.3065-5.6051l.0206,3.7598s-3.9488,3.7118-6.0085,5.4578c-2.1576,1.8139-6.9237,5.3942-6.9237,5.3942,0,0-4.6463,3.1391-6.8059,3.7152-1.9849.5329-4.4652.2789-6.1486-.2444-1.5168-.4729-3.9464-2.8663-3.9464-2.8663,0,0-4.0821,4.1701-6.084,5.1535-1.8114.878-4.1944,1.3446-5.9319.716-1.7388-.6283-3.1306-2.8267-4.4962-4.4547-1.3874-1.6575-2.2207-6.5088-3.8176-5.4595-1.5982,1.0495-4.1315,8.6309-5.7658,11.7413-1.2446,2.3574-2.5126,5.8926-4.0452,6.8603-1.5052.9507-3.7776.0794-5.1549-1.0838-1.3766-1.1476-2.4482-3.7079-3.1074-5.8314-.7294-2.3513-1.2905-6.2451-1.2661-8.2435.0309-2.4162.971-5.3422,1.397-4.6582.4262.6839.6198,6.46,1.1581,8.7613.4163,1.7837,1.1068,3.8895,2.071,5.033.9196,1.1005,2.6639,2.7341,3.713,1.8294,1.2521-1.1044,2.7618-5.9711,3.8046-8.3928.8683-2.0075,1.5246-4.1247,2.4516-6.1051.9504-2.0132,2.0893-5.0906,3.2439-6.0339.9759-.8071,2.7494-.5375,3.679.3454,1.4276,1.3609,3.2773,6.1916,4.883,7.8192,1.2411,1.2487,3.1245,2.4097,4.7515,1.9462,1.7752-.5042,4.5242-3.6724,5.8917-4.9857.8768-.8472,1.1795-3.2357,2.3108-2.8767,1.1404.3738,2.8485,4.2386,4.5249,5.0416,1.6788.8178,5.5414-.1492,5.5414-.1492,0,0-2.8663-2.1789-4.0865-3.5221-1.2735-1.4022-2.8583-2.9692-3.5561-4.9041-.7729-2.1469-1.5221-5.5494-1.0775-7.9464.445-2.4131,1.9421-5.0809,3.7426-6.5158,1.7986-1.434,4.6777-2.073,7.0553-2.1063,2.3762-.0326,5.306,1.043,7.2059,1.8926,1.5758.701,4.1954,3.175,4.1954,3.175l-2.5056,1.6667Z"/>
    <path class="cls-1" d="M149.826,206.1993l-1.2599,6.5814,59.0552-24.201,2.5785-6.7825c-29.9325,12.8197-31.6733,11.091-60.3737,24.4021Z"/>
    <path class="cls-1" d="M230.9132,301.1616l-1.4787,6.9982,69.0383-25.7853,3.0205-7.2129c-34.9935,13.6573-37.026,11.8214-70.5801,26Z"/>
    <path class="cls-1" d="M392.9641,233.6399l-1.4789,6.9982,69.0385-25.7853,3.0203-7.2129c-34.9933,13.6571-37.026,11.8212-70.5799,26Z"/>
    <path class="cls-1" d="M56.8124,167.7963c-1.6679-.2948-5.1856-.2159-5.5482-2.3302-.272-1.5545,1.5413-3.1189,2.9192-3.7414.7435-.3376,1.8131-.5336,2.3754.1878,1.2329,1.5742.145,4.0987.2536,5.8838ZM59.6411,168.1684c-.0726.0576-.0184-.5072-.0184-.5599.0365-.3952.0908-.7887.1453-1.1823.1086-.7478.29-4.089,1.7949-3.6641,1.6501.4661,3.2094,2.62,3.9347,3.9505.2358.4464.7071,1.4558.1632,1.8773-1.3597,1.0456-4.4967-.1943-6.0197-.4216ZM51.3186,154.8313c-.7797,1.0605-.9246,4.1713-1.5231,7.0218-.7252,3.3843-1.8314,6.5278-1.4867,7.2063.9971,1.9431,4.2247,2.3021,5.0226,3.9194.435.8841-1.4325,2.1259-1.9946,2.5886-5.512,4.5601-12.638,8.5056-19.1291,11.7794-2.2484,1.1313-4.4967,2.2545-6.8177,3.2588-.3626.1583-3.4269,1.7308-3.318,1.7522,2.4114.5106,6.8175-1.3947,9.0659-2.0453,7.1801-2.0817,13.1998-4.1021,18.9114-8.7985,2.7198-2.2363,4.533-5.7258,7.3618-7.7086,3.2274-2.2576,7.8328,2.4799,10.335-1.9185.8885-1.553,1.7407-6.4173,1.0153-8.1252-.4532-1.0985-8.7395-7.8039-10.0632-8.619-1.1241-.6884-6.0016-2.1605-7.3796-.3114Z"/>
    <path class="cls-1" d="M66.8634,190.7636c-.7017-.077-2.1622.0525-2.3711-.8176-.1559-.6395.5552-1.3403,1.1112-1.6373.2997-.1608.7391-.2718.9927.0129.556.6215.1729,1.7021.2672,2.442ZM68.0497,190.8409c-.0286.0258-.0216-.2108-.0229-.2327.0041-.1654.0161-.3308.0279-.496.0248-.3141.0083-1.7097.6458-1.5742.699.1487,1.4065,1.0022,1.7446,1.5363.1103.1793.334.5865.1193.7767-.5366.4726-1.8751.0427-2.5146-.01ZM64.2226,185.5183c-.2951.4629-.2699,1.7616-.4403,2.9642-.2087,1.4284-.5822,2.767-.4204,3.04.468.7813,1.82.8421,2.1962,1.4933.205.356-.5373.924-.7585,1.1321-2.1667,2.049-5.0214,3.8866-7.6305,5.4273-.904.5324-1.808,1.0616-2.7455,1.5433-.1464.0758-1.3776.8144-1.3317.8202,1.0169.1464,2.7966-.7675,3.7137-1.0998,2.9284-1.0633,5.376-2.0696,7.622-4.1808,1.0696-1.0053,1.7276-2.5075,2.8493-3.4101,1.28-1.0283,3.3251.8171,4.2451-1.0821.3267-.6708.5474-2.7188.1989-3.4094-.2186-.4447-3.8485-3.0083-4.4212-3.3112-.4863-.2557-2.5549-.7345-3.0773.0729Z"/>
    <path class="cls-1" d="M350.247,50.6553c-.032.0981-.8812-.7592-.9291-.8164-.8651-.939-1.7623-2.0577-2.2669-3.2417-1.0335-2.4332.7768-5.1603,3.4045-5.2257,1.3378-.0326,1.8744,1.2331,1.8826,2.417.032,2.2698-.8011,4.7438-1.6584,6.8178l-.4326.049ZM311.3302,78.8415s10.2385-4.8256,15.053-7.7895c5.0226-3.0865,11.6395-7.8957,15.0843-10.7535,2.1707-1.8046,5.6074-6.3771,5.6074-6.3771,0,0-4.0613-2.9151-4.5181-4.8664-.4566-1.9516.4005-4.9561,1.7946-6.8425,1.5301-2.0659,5.5113-5.2584,7.3858-5.5849,1.7383-.3022,3.8053,1.8372,3.9012,3.6253.1283,2.7271-1.0733,8.4592-3.0841,12.7213l3.0681,3.6906-1.9066,3.3804-3.9653-4.0906s-6.1683,6.6463-9.0122,9.0142c-2.4592,2.0577-5.255,3.6743-8.0426,5.2341-3.3085,1.8452-8.2751,4.4254-11.8399,5.8623-3.0681,1.2414-9.5256,2.7762-9.5256,2.7762Z"/>
    <path class="cls-1" d="M394.1589,368.0333s-2.4884,3.7657-4.5582,8.6345c-2.3951,5.6058-3.5017,13.901-3.7679,17.1002-.3114,3.7938,1.6732,9.8526,4.2379,10.2489,3.5078.5659,5.5717-.878,6.8199-2.8029,2.4918-3.8788,2.2877-10.1073,2.2877-10.1073,0,0-1.9504,3.6522-4.1842,5.2944-1.376.9909-3.1594.8773-3.7683-.2832-2.1602-4.1332-1.0757-8.6627-.0168-15.3162,1.0021-6.3133,2.95-12.7684,2.95-12.7684Z"/>
    <path class="cls-1" d="M222.5911,420.2636s-2.4884,3.7657-4.5582,8.6347c-2.3951,5.6058-3.5017,13.9009-3.7679,17.1-.3114,3.7938,1.6732,9.8526,4.2379,10.2489,3.5078.5659,5.5717-.878,6.82-2.8029,2.4917-3.8786,2.2875-10.1071,2.2875-10.1071,0,0-1.9504,3.652-4.1842,5.2944-1.3759.9909-3.1594.8773-3.7683-.2834-2.16-4.1332-1.0757-8.6625-.0168-15.3162,1.0022-6.3133,2.95-12.7684,2.95-12.7684Z"/>
    <path class="cls-1" d="M42.355,285.7215s-2.4884,3.7657-4.5582,8.6345c-2.3951,5.6058-3.5017,13.901-3.7679,17.1002-.3114,3.7938,1.6732,9.8526,4.2379,10.2489,3.5078.5659,5.5717-.878,6.8199-2.8029,2.4918-3.8788,2.2877-10.1073,2.2877-10.1073,0,0-1.9504,3.6522-4.1842,5.2944-1.3759.9909-3.1594.8773-3.7683-.2832-2.16-4.1332-1.0757-8.6627-.0168-15.3162,1.0022-6.3133,2.95-12.7684,2.95-12.7684Z"/>
    <path class="cls-1" d="M348.9743,224.2051s-2.4884,3.7657-4.558,8.6345c-2.3951,5.6058-3.5019,13.901-3.7681,17.1002-.3112,3.7938,1.6732,9.8526,4.2381,10.2487,3.5078.5661,5.5717-.8778,6.8199-2.8029,2.4917-3.8786,2.2875-10.1071,2.2875-10.1071,0,0-1.9504,3.6522-4.1841,5.2944-1.376.9909-3.1595.8773-3.7684-.2832-2.16-4.1332-1.0757-8.6627-.0167-15.3162,1.0021-6.3135,2.9498-12.7684,2.9498-12.7684Z"/>
  </g>
</svg>