<?xml version="1.0" encoding="UTF-8"?>
<svg id="Tree" xmlns="http://www.w3.org/2000/svg" viewBox="0 0 190.9961 205.5844">
  <defs>
    <style>
      

      @import url('../../CSS/SvgStyling.css');
      
    </style>
  </defs>
  
  <g class="content">

    <rect id="bg" class="bg" width="190.9961" height="205.5844"/>


    <path class="cls-1" d="M170.8614,100.7094c-.986,3.1653-3.2081,5.2874-6.009,6.8378-5.8018,3.2153-12.0966,3.7583-18.5772,3.2582-7.6095-.593-15.0618,0-22.1712,3.0438-3.7583,1.6005-7.5666,4.6729-9.2529,7.6738,1.5934-.2715,3.051-.5002,4.5014-.7645,3.5868-.6502,6.8807.3072,10.0246,1.8934,2.1078,1.0646,4.1799,2.2007,6.2162,3.4011,5.8947,3.4868,12.0681,4.6443,18.8273,2.8509,3.794-1.0075,7.8167-.8646,11.6608-1.9149-1.036,1.1932-2.3507,1.9506-3.7655,2.2364-4.7944.9574-9.5673,2.0006-14.5045,2.1578-5.7161.1786-10.9891-1.2432-16.1122-3.5511-1.1504-.5216-2.315-1.0217-3.4939-1.4647-7.5738-2.8652-16.8838.2001-21.2995,6.9879-3.4439,5.2945-4.5443,11.0392-3.4654,17.2625,1.3004,7.4452,2.4651,14.9118,2.8795,22.4713.05.9289.4787,1.672.986,2.3865,2.3793,3.3439,5.566,5.7304,9.2029,7.5666,5.2159,2.6222,10.8605,3.794,16.5337,4.8658,1.4433.2787,2.8866.5287,4.3156.8717-9.7173.3072-19.2203-.5716-28.1016-4.9801-1.4004-.7002-2.8437-1.0432-4.4657-.6359-1.2647.3144-1.2575.7359-.4716,1.5862,2.415,2.6008,5.2516,4.6657,8.3169,6.4306.6073.3573,1.229.7002,1.9363,1.1003-.6002.393-1.0789.1572-1.5648.0357-4.9587-1.2361-9.4958-3.3439-12.9326-7.1665-2.9366-3.2653-6.895-2.6723-9.4887.0214-3.9941,4.1441-9.1171,6.3234-14.7403,7.438,4.0513-2.5079,8.1168-4.9944,11.2892-8.817-1.229-.7645-2.4579-1.0575-3.7726-.6431-1.1003.343-2.2007.7217-3.2296,1.2218-8.4812,4.1156-17.5698,4.5228-26.7512,4.4585,4.8729-.9003,9.753-1.7363,14.4902-3.2296,3.151-1.0003,6.1876-2.2793,9.0028-4.037,4.7086-2.9366,7.9453-6.6521,7.9596-12.6682.0143-5.8161,1.4362-11.5107,2.5151-17.2054,1.4576-7.7381.1143-14.7832-5.123-20.735-4.7944-5.4517-13.6328-7.0593-20.2492-4.1084-3.7154,1.6505-7.3737,3.4725-11.4464,4.1013-5.8375.9003-11.6251.493-17.384-.7717-2.9795-.6573-6.0948-.8788-8.6313-3.1724.6859-.2644,1.2432.0143,1.7648.15,4.9658,1.2575,10.0889,1.6076,15.119,2.4793,4.7586.8288,9.11-.8002,13.2327-3.0438,2.5079-1.3647,4.973-2.8152,7.5166-4.1084,3.9727-2.0292,8.1311-2.5579,12.4682-1.2147.6002.1929,1.2075.5002,2.0221.3501-2.7651-4.5014-6.8521-7.0665-11.6608-8.7313-6.4163-2.215-13.0255-2.5437-19.7133-2.0506-6.5806.4859-12.9612-.0786-18.9202-3.2224-2.9938-1.5791-5.3588-3.7226-6.4306-7.0736.786.7217,1.5576,1.4647,2.365,2.1578,4.0227,3.4725,8.8242,4.7229,14.0187,4.9301,3.8798.1572,7.6738-.4573,11.4964-.9074,7.6524-.9074,15.2762-.7074,22.7785,1.2575,1.2504.3287,1.5791.1358,1.2504-1.1361-3.544-13.6543-11.6536-22.9572-25.6151-26.7012-3.5368-.9503-7.2094-.7645-10.8105-1.1718-3.9584-.443-7.8096-1.3147-11.1463-3.6511-.6645-.4644-1.3933-.8931-1.7791-1.7934.9574.1072,1.6791.6073,2.4365,1.0003,3.6869,1.8863,7.5952,2.8152,11.7465,2.8652,4.6229.0643,9.2529.1215,13.7614,1.329,5.7661,1.5505,10.6676,4.6086,14.969,8.667,5.2088,4.9015,8.8813,10.8462,11.818,17.284,2.9081,6.3663,6.2377,12.4539,11.425,17.334.3215.3001.6216.6216.9432.9217.0643.0572.1929.0572.4287.1072.4073-2.7866-.0929-5.5446-.3001-8.2669-.6216-8.0597-2.315-15.8835-5.3874-23.4144-3.4654-8.5241-9.2457-15.0547-16.6481-20.3564-6.8307-4.8872-14.4545-8.3169-21.8783-12.1181-1.1075-.5645-2.1507-1.2647-3.1581-2.0721,1.5505-.2358,2.9366.3787,4.3442.7502,1.4862.393,2.9581.8431,4.4157,1.3147,1.4647.4716,2.9223.9789,4.3656,1.5076,1.429.5216,2.8437,1.0861,4.5514,1.7434-2.315-6.8164-3.8155-13.4256-1.2647-20.2277.443,2.6222.3144,5.2874.8788,7.9025,1.672,7.7953,5.4874,14.4474,11.7822,19.2274,8.6027,6.5235,15.3548,14.3902,20.0777,24.0289.0643.1358.1929.2501.5144.6573.1429-2.5937.343-4.9015.3644-7.2165.0857-8.0311-1.1646-15.8049-4.7944-23.0786-2.1578-4.3228-4.2013-8.6741-5.1588-13.4542-1.0432-5.1802-2.8866-10.0817-5.1159-14.8546-.4501-.9717-.9217-1.9363-1.4576-3.0652,1.1146.2429,1.6076.9217,2.1507,1.4862,3.5654,3.7154,5.5803,8.274,6.795,13.147,1.2504,5.0301,3.8083,9.2958,6.9879,13.2684,1.2004,1.5005,2.4793,2.9438,3.6154,4.4943.6502.886.9074.6645,1.4933-.0643,4.68-5.8018,8.1954-12.0966,9.5244-19.5561.7002-3.9155,2.5437-7.4452,5.173-10.5104.7431-.8646,1.529-1.6648,2.6365-2.415-.1715,1.1861-.7574,1.9935-1.1646,2.858-2.1935,4.6872-3.8083,9.553-4.68,14.6546-.7431,4.3085-2.3222,8.2812-4.5228,12.0823-3.9227,6.7735-5.9304,14.0973-5.8661,21.9568.0357,3.3725.0071,6.7521.3858,10.2175.3644-.6288.7431-1.2504,1.0861-1.8934,4.6729-8.6741,10.8891-15.9907,18.763-22.0069,6.9665-5.3231,11.3964-12.3967,13.0827-21.028.443-2.2864.4359-4.6586.6431-7.0451,1.2575,1.772,1.5005,3.7297,1.1932,10.0103-.1715,3.4797-1.4219,6.7021-2.708,10.1532,5.8947-1.9006,11.4178-4.3299,17.7198-5.3945-.9074,1.2718-1.9935,1.6577-2.9795,2.1435-6.0305,2.9223-12.1681,5.6589-17.7841,9.3458-7.5952,5.0016-14.5617,10.6819-18.913,18.8988-3.6368,6.8593-5.566,14.2616-6.7235,21.8783-.7002,4.6372-1.2504,9.3172-.9932,14.3688,2.5294-2.4508,4.7515-4.8086,6.5949-7.5095,2.2293-3.2796,3.9512-6.8307,5.5946-10.4175,3.1724-6.9522,7.1737-13.3256,12.9112-18.4843,6.2234-5.5875,13.4899-8.7242,21.9283-9.0743,3.8941-.1643,7.8167.0143,11.6751-.8788,2.8009-.6502,5.3445-1.9149,8.0454-2.8938-.786,1.1718-1.9363,1.9006-3.1653,2.5222-4.0584,2.0649-8.4455,2.7008-12.9255,2.8938-15.4048.6645-28.0373,10.6462-32.2243,25.4579-1.0432,3.694-1.0432,3.7083,2.6222,2.9152,8.1097-1.7505,16.2336-1.7791,24.4219-.4001,4.6943.7931,9.4458.6931,14.1115-.3858,4.037-.9432,7.3166-3.1939,10.2246-6.1233Z"/>
    <path class="cls-1" d="M140.2089,113.0418c2.1793.0429,4.2799.4501,6.2805,1.2575.6788.2787,1.229.6716.3573,1.3861-4.973,4.0584-10.5104,5.7875-16.8767,3.9941-.3144-.0857-.6145-.2429-.9217-.3573-.836-.3287-.8931-.7145-.2572-1.4004,3.0867-3.3296,6.9164-4.8872,11.4178-4.8801Z"/>
    <path class="cls-1" d="M50.8025,113.0847c4.137-.0071,7.7667,1.2647,10.6605,4.3299,1.1718,1.2361,1.1361,1.4076-.5287,2.0149-5.0944,1.8291-9.8459.9932-14.3188-1.8577-.5573-.3573-1.0861-.7574-1.5862-1.1789-.4073-.343-1.1218-.6073-1.0289-1.1718.1072-.6931.8574-.9289,1.4719-1.1575,1.7148-.6288,3.4797-1.0432,5.3302-.9789Z"/>
    <path class="cls-1" d="M76.2461,53.166c3.1796,3.0367,4.8229,6.5878,5.2302,10.6748.2072,2.1721.2429,4.3514-.4787,6.502-.393,1.1646-.8503,1.2147-1.6934.5073-3.3582-2.808-4.7515-6.502-4.63-10.7534.0643-2.2721.393-4.5586,1.5719-6.9307Z"/>
    <path class="cls-1" d="M144.6603,95.4078c.2715,0,.5573-.0357.8217.0071.786.1358,1.9292-.3573,2.2936.4216.4287.9432-.6145,1.6505-1.1789,2.3436-3.5583,4.3371-8.0811,6.0447-13.6328,4.7801-1.6791-.3858-1.7791-.6431-.7074-1.9863,3.1581-3.987,7.388-5.6661,12.4039-5.566Z"/>
    <path class="cls-1" d="M90.1362,37.1753c3.6083,2.608,5.2088,6.1805,5.8733,10.2246.2929,1.7791.2144,3.6154.0071,5.416-.1715,1.4647-.543,1.6434-1.772.7931-3.3225-2.3007-4.7729-5.6375-5.073-9.5244-.1786-2.2936.0786-4.5657.9646-6.9093Z"/>
    <path class="cls-1" d="M46.5154,95.4506c5.123-.0572,9.2672,1.822,12.2538,6.0805.6788.9789.4144,1.2504-.6002,1.4933-5.5589,1.329-11.6108-1.2647-14.4188-6.1805-.5645-.9932-.343-1.4076.786-1.3933.6645.0143,1.3218,0,1.9792,0Z"/>
    <path class="cls-1" d="M109.285,65.7271c-.1429-3.9655,1.2432-7.0593,3.8012-9.6959.8145-.836,1.3647-1.1075,1.9363.3144,1.9792,4.9373.9074,10.4104-2.7651,13.5328-1.529,1.3004-1.9649,1.1932-2.5151-.6931-.3644-1.2075-.5216-2.4508-.4573-3.4582Z"/>
    <path class="cls-1" d="M112.6646,45.628c.5788-2.8938,2.2507-5.073,4.5085-6.8021,2.5079-1.922,5.4874-2.658,8.6027-2.9152.6431-.05,1.2004-.1.836.936-1.8291,5.2874-8.3526,9.4529-13.9472,8.7813Z"/>
    <path class="cls-1" d="M175.177,101.0881c-2.1935.0214-2.2436.0143-1.6862-2.0935,1.4219-5.3445,5.9161-7.7095,10.4461-8.4312.4859-.0786.7359.1358.6788.6359-.5144,4.9801-4.4585,9.9817-9.4387,9.8888Z"/>
    <path class="cls-1" d="M70.7944,32.8811c-3.9012-.0143-8.6027-3.201-10.0246-6.6592-.3287-.8002-.2001-1.1003.7217-1.2933,4.5085-.936,10.1103,1.4719,12.3539,5.4017.836,1.4647.7359,1.7434-.9146,2.2364-.7359.2215-1.4862.3858-2.1364.3144Z"/>
    <path class="cls-1" d="M164.6308,87.3481c-3.2724,4.7872-9.7173,6.5378-14.6546,3.9655-1.6076-.836-1.5719-1.0075-.2286-2.2364,3.9084-3.5868,10.8891-3.4868,14.8832-1.7291Z"/>
    <path class="cls-1" d="M65.3499,35.9964c5.7732.2572,10.4461,3.3582,12.1324,8.0311.6645,1.8363.5002,2.0363-1.4933,1.7434-5.3945-.786-9.06-3.8155-11.3035-8.667-.4859-1.0575-.4001-1.1575.6645-1.1075Z"/>
    <path class="cls-1" d="M145.8321,43.2915c1.5148,5.5517-1.9435,11.4464-7.4881,12.854-.9003.2286-1.1504-.0071-1.2218-.886-.4073-4.923,3.7512-10.6605,8.7099-11.968Z"/>
    <path class="cls-1" d="M35.9836,92.4783c-3.5225-.1286-6.4663-1.379-8.7956-3.9727-.4001-.4501-1.1432-1.1218.05-1.4433,4.9444-1.3147,9.7602-1.5934,14.0187,2.0078.9789.8217,1.0718,1.429-.1429,2.0006-1.6434.7717-3.3368,1.379-5.1302,1.4076Z"/>
    <path class="cls-1" d="M16.0345,101.3168c-5.4303-.2072-9.2743-4.9515-9.653-9.8531-.0572-.6788.1429-.9432.9432-.8288,5.0087.7074,8.9599,4.4657,9.8245,9.2529.2358,1.2718-.1215,1.6076-1.1146,1.429Z"/>
    <path class="cls-1" d="M126.9048,24.9001c.8788.05,2.2507-.3858,2.6937.4216.4859.8931-.4859,1.9149-1.0718,2.7651-2.4579,3.6368-6.4806,5.2588-10.7462,4.4442-1.2933-.2501-1.479-.8288-.9789-1.922,1.6219-3.5011,4.5943-4.9944,8.2026-5.566.593-.1,1.2004-.0929,1.9006-.1429Z"/>
    <path class="cls-1" d="M51.617,75.3158c.0715.9217-.5645.6002-1.0789.4787-2.8938-.6645-5.2945-2.1078-7.0022-4.5371-1.3647-1.9506-2.2507-4.1084-2.4793-6.5092-.0643-.7145.0286-1.0289.8574-.8431,4.6157,1.0217,9.4244,6.552,9.6744,11.1606,0,.0572.0143.1072.0286.2501Z"/>
    <path class="cls-1" d="M144.6818,67.6634c-.2286,4.9873-3.7512,8.7242-8.5241,9.2386-.786.0857-1.0432-.1215-1.0718-.9432-.1286-4.2299,3.8583-9.0528,8.0739-9.7459,1.4147-.2358,1.8006.3215,1.5219,1.4505Z"/>
    <path class="cls-1" d="M53.1818,54.0949c.1,2.0649-.1643,2.2578-2.3222,1.4004-4.2513-1.6934-6.5306-5.7018-5.8876-10.2175.1858-1.3004.6859-1.5005,1.8291-.9503,4.0012,1.9363,6.3091,4.9515,6.3806,9.7673Z"/>
    <path class="cls-1" d="M70.6229,54.545c.0357,1.5719-.4144,3.0152-1.0718,4.4157-.4001.8646-.8788.9503-1.6505.4144-2.8795-2.0078-3.4582-4.9087-3.1724-8.1168.1143-1.3576.6002-2.6508,1.0432-3.9441.3144-.9217.7217-.8931,1.3933-.3787,2.5079,1.9292,3.4225,4.5729,3.4582,7.6095Z"/>
    <path class="cls-1" d="M174.0766,77.3593c.4287,0,.4787-.0071.5359,0,1.2075.1,2.9866-.3644,3.3225.9646.2644,1.0575-1.3576,1.8149-2.3793,2.4079-3.4368,1.9792-7.1308,2.3507-10.9606,1.4433-.6645-.1643-1.6291-.3287-1.7363-1.0289-.1-.6288.8431-.8788,1.3719-1.2361,3.0938-2.0864,6.6378-2.3793,9.8459-2.5508Z"/>
    <path class="cls-1" d="M135.6004,91.4851c1.2218-.0071,2.4007.1929,3.544.6216.9646.3573,1.2075.7502.3287,1.5648-1.529,1.4004-3.301,2.415-5.2731,2.8795-2.608.6216-5.2731.9574-7.9882.5573-1.1075-.1643-1.0146-.4787-.4359-1.1646,2.5651-3.051,5.8876-4.4228,9.8245-4.4585Z"/>
    <path class="cls-1" d="M151.7197,50.9368c.0071-3.9798,1.2933-6.9665,4.3085-9.1171.4859-.343,1.0003-.8431,1.3647.1358,1.4505,3.9584.6716,9.2029-3.5654,11.4822-1.5433.8217-1.6791.7717-1.9435-.9146-.0929-.6502-.1358-1.3004-.1643-1.5862Z"/>
    <path class="cls-1" d="M120.4814,54.9237c0-2.9581,1.1146-5.4017,3.3725-7.3523.7931-.6859,1.2933-.9074,1.6791.3715,1.1003,3.6511,1.5005,7.2022-1.1789,10.3961-.6002.7145-1.3218,1.6505-2.2436,1.4719-.8646-.1643-.9432-1.3433-1.2575-2.1435-.3501-.8931-.343-1.8149-.3715-2.7437Z"/>
    <path class="cls-1" d="M158.3789,61.0185c.6288,4.7229.0572,9.0671-3.7154,12.4324-.7431.6645-1.722,1.4719-2.5794,1.0718-.7502-.3501-.3644-1.5934-.3215-2.4365.2572-4.8015,3.2153-8.0382,6.6163-11.0677Z"/>
    <path class="cls-1" d="M32.5468,45.6065c.0429-.4716,0-1.1575.1715-1.772.2286-.8145.0857-2.0292.986-2.2721.7145-.1929,1.429.7002,2.0006,1.2504,2.9581,2.8509,3.6583,6.3234,2.758,10.2318-.2286.9932-.7574.836-1.4004.5002-3.1295-1.6434-4.5443-4.2871-4.5157-7.9382Z"/>
    <path class="cls-1" d="M61.5201,97.2155c-3.6654-.1-7.0451-1.0075-9.9674-3.3225-.7717-.6145-1.036-1.0146.0857-1.5791,4.0155-2.0006,10.9248-.1429,13.347,3.6011.5002.7717.1215.9932-.5073,1.0718-.9789.1215-1.972.1572-2.9581.2286Z"/>
    <path class="cls-1" d="M27.9596,81.0533c-4.1942,2.6937-11.7394,1.6148-14.7975-1.9506-.7574-.886-.3144-1.2004.5359-1.4647,1.972-.6216,3.9227-.0929,5.8876.0429,3.1081.2215,5.809,1.4362,8.374,3.3725Z"/>
    <path class="cls-1" d="M29.1386,95.9294c5.1516,1.3504,10.1246,2.2578,12.9183,7.238.6788,1.2075.0429,1.3004-.7931,1.3147-3.3582.0572-6.1519-1.379-8.6456-3.4511-1.529-1.2718-2.6866-2.8437-3.4797-5.1016Z"/>
    <path class="cls-1" d="M161.3941,96.0651c-1.3004,4.8301-7.5881,8.9814-12.1967,8.274-.8217-.1215-.886-.3501-.5216-1.0289,1.1432-2.0721,2.658-3.7512,4.8444-4.7729,2.4436-1.1432,5.0159-1.8649,7.8739-2.4722Z"/>
    <path class="cls-1" d="M18.8496,113.0133c-3.4225-.0357-6.2162-1.8863-8.2311-5.0444-.593-.9289-.4073-1.3861.7931-1.5433,4.4657-.593,8.224,1.1932,10.3175,4.8444.6716,1.1646.4144,1.5219-.7931,1.5934-.5502.0286-1.0932.0786-2.0864.15Z"/>
    <path class="cls-1" d="M161.387,58.2247c-2.5294-.0071-4.5514-.5645-6.302-1.9649-.4073-.3287-.8646-.5359-.15-1.0503,3.7512-2.6866,8.4884-3.0581,12.1752-.5073.9146.6359.6645,1.0003-.0643,1.5433-1.7791,1.329-3.744,2.0363-5.6589,1.9792Z"/>
    <path class="cls-1" d="M36.2551,55.7097c-3.7012,3.1081-8.817,3.3296-12.361.6931-1.4719-1.0932-1.4719-1.2647.0857-2.1364,2.9866-1.6791,6.0519-1.7505,9.1386-.3001,1.036.4859,2.0006,1.1075,3.1367,1.7434Z"/>
    <path class="cls-1" d="M171.2186,112.9847c-.9003-.1643-2.165.2501-2.5079-.5359-.3715-.8646.5002-1.8006,1.0932-2.5651,2.0363-2.6365,6.6021-4.087,9.8531-3.2796,1.1361.2858.5859.8288.3287,1.2861-1.9363,3.4011-4.9158,5.0444-8.767,5.0944Z"/>
    <path class="cls-1" d="M51.1097,39.4546c-3.8512-.0572-7.831-3.6797-8.2311-7.4881-.05-.4859-.1858-1.0575.6573-.936,4.0798.5859,7.881,2.608,8.9885,6.6092.4787,1.7505.4359,1.8434-1.4147,1.8149Z"/>
    <path class="cls-1" d="M24.3299,96.1723v.1643c-.1143.886.3858,2.2078-.4287,2.5437-.9646.4001-1.872-.6431-2.6151-1.3433-2.8437-2.7008-3.5011-6.0519-2.8509-9.7673.2144-1.2504.9074-.9646,1.6291-.4859,3.1653,2.1364,4.3013,5.2302,4.2656,8.8885Z"/>
    <path class="cls-1" d="M58.7121,32.7954c-.0071.8217-.0715,1.6291-.3001,2.4365-.6431,2.2721-1.1003,2.4293-2.8795.9217-2.5579-2.1864-3.2582-7.5381-1.4004-10.2961.5716-.8431,1.0146-.393,1.4433,0,2.0506,1.8577,3.1367,4.1584,3.1367,6.9379Z"/>
    <path class="cls-1" d="M137.8225,29.7016c.0429,3.1438-.9074,5.3945-3.1724,7.0522-.7431.543-1.1861.5287-1.672-.3358-1.7863-3.201-.4501-8.7027,2.6151-10.7748.6716-.4573,1.0718-.4073,1.3719.3358.5359,1.329.9003,2.6866.8574,3.7226Z"/>
    <path class="cls-1" d="M166.8172,95.4578c-.0643-3.3582,1.2647-6.0305,3.9941-8.0239.786-.5716,1.2432-.593,1.5362.5359.9432,3.6368-.3215,8.0811-3.0224,10.1675-.5573.443-1.229,1.0646-1.872.8288-.7002-.2501-.5788-1.1861-.6288-1.8649-.0429-.543-.0071-1.0932-.0071-1.6434Z"/>
    <path class="cls-1" d="M139.5444,39.4475c-1.2075.2144-1.3861-.5002-1.1075-1.5505,1.0146-3.8441,3.9369-5.5732,7.4809-6.5378.5645-.1572,1.3361-.7145,1.8291-.1215.4216.5144,0,1.279-.1786,1.8792-1.0789,3.6583-4.3942,6.2948-8.0239,6.3305Z"/>
    <path class="cls-1" d="M107.9703,101.231c-.1-4.1299,2.1007-6.745,4.6586-9.16.5359-.5073.8931-.3644.8788.393-.0643,4.3728-.5502,8.6241-3.5368,12.1609-.6216.7359-.9932.9217-1.4147-.1858-.4359-1.1575-.6145-2.315-.5859-3.2081Z"/>
    <path class="cls-1" d="M77.8824,91.578c4.1799,2.708,5.9447,7.9954,4.4157,12.4467-.393,1.1504-.8145,1.3147-1.6219.3787-1.1361-1.3076-1.8863-2.808-2.2578-4.4943-.6288-2.7509-.8074-5.5232-.5359-8.3312Z"/>
    <path class="cls-1" d="M41.7782,120.93c3.0152.1572,5.8304.9003,7.7453,3.544,1.0146,1.4076.9074,1.672-.7502,1.9792-3.2153.5859-5.9876-.3001-8.2812-2.6151-.6502-.6573-1.6005-1.429-1.1861-2.3436.3787-.8217,1.5719-.4287,2.4722-.5645Z"/>
    <path class="cls-1" d="M99.7606,45.7852c-.0715-2.4007.7359-4.5014,2.2936-6.302.4216-.493,1.1504-1.1146,1.429.0214.9432,3.7512,1.5005,7.5023-1.0432,10.9677-.7145.9717-1.0861.9789-1.6219-.1072-.7288-1.4576-1.0289-2.9795-1.0575-4.58Z"/>
    <path class="cls-1" d="M96.381,34.4102c.2858-4.087,2.2007-7.0165,5.566-9.06.5502-.3358,1.0932-.6502,1.3147.3501.7288,3.2224-2.215,8.4741-5.3302,9.5173-.9289.3144-1.8077.6288-1.5505-.8074Z"/>
    <path class="cls-1" d="M155.9281,113.2919c4.8872-1.2504,9.4601-1.3719,13.5614,1.9935-3.2081,2.708-10.6462,1.6148-13.5614-1.9935Z"/>
    <path class="cls-1" d="M28.2812,61.0542c3.4154,3.2653,5.9018,6.4663,5.3517,11.2035-.1572,1.3647-.6502,1.2218-1.5433.7502-1.6076-.8431-2.5437-2.215-3.151-3.8512-.936-2.5222-.8074-5.1087-.6573-8.1025Z"/>
    <path class="cls-1" d="M123.2036,80.0959c.0786,3.1438-.6288,6.0662-2.5079,8.6598-.593.8217-.936.8503-1.4219-.1215-1.7291-3.4511-.6002-8.4526,2.5222-10.8534.3358-.2572.6859-.7145,1.1218-.5144.4501.2072.2429.7788.2787,1.1861.0429.543.0071,1.0932.0071,1.6434Z"/>
    <path class="cls-1" d="M34.7975,113.2633c-3.3939,3.5797-9.8459,4.5371-13.5256,2.0649,4.0656-3.5082,8.6384-3.1581,13.5256-2.0649Z"/>
    <path class="cls-1" d="M169.7824,134.8987c-2.2221-.0643-4.0656-.4359-5.6589-1.672-.8431-.6502-.8931-1.1432.1286-1.6648,3.3939-1.7291,6.7021-1.7363,9.9674.3573,1.0146.6502.936,1.1075-.0143,1.7363-1.4362.9432-3.0367,1.1718-4.4228,1.2432Z"/>
    <path class="cls-1" d="M143.2456,126.5032c-.886-.1358-2.3436.2358-2.6651-.6145-.3858-1.0217.7788-1.9506,1.6005-2.6294,2.415-2.0006,5.3017-2.4722,8.3383-2.2078,1.4576.1286.8288,1.0003.393,1.5862-1.872,2.5365-4.4157,3.8369-7.6667,3.8655Z"/>
    <path class="cls-1" d="M101.9899,12.9749c.1358,4.43-.1358,8.4169-3.6797,11.3893-.9074.7645-1.3861.8931-1.6219-.5645-.6573-4.0656,1.0718-7.8524,5.3017-10.8248Z"/>
    <path class="cls-1" d="M72.2735,84.8759c.0357,1.1575-.1929,2.4365-.7431,3.6583-.4216.9217-.9146.9503-1.5433.1429-1.5362-1.9935-2.0221-4.3442-2.2721-6.7521-.1143-1.1361-.0357-2.2936-.05-3.4439-.0143-1.2432.493-1.2575,1.3933-.6502,1.9149,1.2861,3.2224,4.037,3.2153,7.0451Z"/>
    <path class="cls-1" d="M21.1075,134.8772c-1.9935-.05-3.6511-.3072-5.0944-1.3576-.7002-.5144-.7359-.9289-.0143-1.5148,2.5651-2.0935,7.7453-2.2293,10.3961-.2929.7931.5788.4644.9646-.05,1.3861-1.6005,1.3147-3.4797,1.772-5.2373,1.7791Z"/>
    <path class="cls-1" d="M157.693,126.396c-.6716-.2072-1.6219.2858-1.9506-.3787-.3144-.6216.3715-1.3004.7717-1.872,1.1218-1.6076,2.7651-2.4579,4.5943-2.9581,1.3647-.3715,2.7651-.6431,4.1584-.9289.393-.0786.9289-.3715,1.1861.0857.2215.3858-.0929.8431-.3215,1.2147-1.9435,3.1224-4.8086,4.6372-8.4383,4.8372Z"/>
    <path class="cls-1" d="M40.635,81.0247c2.5579.1286,5.0087.7145,7.0879,2.4508.7502.6216.7788,1.0146-.0929,1.5576-2.7437,1.7077-9.1028.0643-10.6176-2.7723-.2858-.5359-.3644-.9146.443-.9646,1.036-.0643,2.0721-.1786,3.1796-.2715Z"/>
    <path class="cls-1" d="M34.9833,125.9173c-4.5371,1.1361-9.3529-1.3719-10.8748-5.6661,5.9519.3573,9.8888,1.9578,10.8748,5.6661Z"/>
    <path class="cls-1" d="M146.4752,85.6262c-1.1646-.05-3.301.1143-3.544-1.1575-.2644-1.379,1.7434-2.1007,3.0938-2.6365,2.415-.9646,4.9587-.7359,7.4666-.5073,1.3004.1143.6359.8288.2715,1.3361-1.2432,1.7148-3.987,2.858-7.288,2.9652Z"/>
    <path class="cls-1" d="M164.4522,70.7286c.2144-3.8083,2.2078-6.2734,5.3945-7.9382.5073-.2644.8574-.4359,1.0646.3358.8217,2.9866-1.9863,7.7953-5.0373,8.667-1.1789.3358-1.7148.1286-1.4219-1.0646Z"/>
    <path class="cls-1" d="M39.8276,135.2416c.1429,0,.4787-.0429.8002.0071.5645.0929,1.4004-.3001,1.6505.2572.2715.6073-.3573,1.2075-.8145,1.6577-2.5651,2.5079-5.6089,3.4582-9.1529,2.6723-1.0718-.2358-1.1432-.7074-.4359-1.5219,2.0649-2.365,4.7086-3.2224,7.9525-3.0724Z"/>
    <path class="cls-1" d="M106.3126,28.4726c-.0572-1.9363.343-3.6011,1.3647-5.0873.5144-.7431.9789-.9432,1.6076-.0357,2.0221,2.9509,1.7791,7.2808-.5788,9.8531-.5788.6359-.9003.7645-1.329-.1572-.7002-1.5076-1.1861-3.0438-1.0646-4.5729Z"/>
    <path class="cls-1" d="M25.9304,70.2785c.0286,1.8506-.2572,2.0221-1.972,1.2218-2.7008-1.2647-4.8729-5.2731-4.4514-8.174.1-.6931.3144-.936,1.0646-.6645,2.8795,1.0217,5.3088,4.4442,5.3588,7.6167Z"/>
    <path class="cls-1" d="M89.0073,24.7357c-3.5368-1.6505-5.616-6.3877-4.3942-9.946.2572-.7431.6431-.7645,1.229-.4001,3.0581,1.9292,4.6229,7.0451,3.1653,10.3461Z"/>
    <path class="cls-1" d="M93.673,33.4885c-1.7577-1.4362-2.7151-3.1153-2.8509-5.1802-.1358-1.9649-.2572-3.9441.1929-5.8947.0929-.4073.1072-.9646.6073-1.0646.4144-.0786.6431.3715.8574.6788,2.4508,3.5368,3.1653,7.2666,1.1932,11.4607Z"/>
    <path class="cls-1" d="M151.2338,135.2559c3.0652-.1786,5.3874.8503,7.3523,2.8152.9932,1.0075.7002,1.4647-.5645,1.8149-2.9581.8145-7.2308-.6359-8.8242-3.0938-.2501-.3858-.7717-.7931-.4287-1.3076.2572-.3858.8074-.1929,1.229-.2215.493-.0357.986-.0071,1.2361-.0071Z"/>
    <path class="cls-1" d="M85.8491,38.5115c-2.9581-3.1867-2.9938-7.9382-.2787-11.0034.7502-.8431,1.1003-.5788,1.4862.2572,1.2218,2.6294.6073,5.2373-.0857,7.831-.2501.936-.6931,1.822-1.1218,2.9152Z"/>
    <path class="cls-1" d="M14.2196,115.2854c2.7794.6002,5.2231,1.3147,7.1165,3.1653,1.0289,1.0075,2.1793,2.7651,1.5076,3.6726-.7002.936-2.658.2572-3.9298-.4144-2.5294-1.3433-4.1584-3.3653-4.6943-6.4234Z"/>
    <path class="cls-1" d="M62.2489,131.6191c-1.3147,4.2728-5.4374,6.1662-9.503,5.5089-.8145-.1286-.9932-.5216-.5502-1.229.9146-1.4647,2.2793-2.3507,3.8369-2.9509.9146-.3501,1.872-.6002,2.8366-.8002,1.0575-.2215,2.1435-.343,3.3796-.5287Z"/>
    <path class="cls-1" d="M175.9129,115.2068c.5002,3.7655-3.8083,7.8739-7.3809,7.2165-.7359-.1358-.7502-.5073-.6216-1.0217.4144-1.6505,1.2647-2.9938,2.7366-3.9227,1.6291-1.0432,3.5011-1.4862,5.2659-2.2721Z"/>
    <path class="cls-1" d="M62.6133,75.4587c-.0572,1.5791-.2787,3.0152-.9217,4.3871-.493,1.036-.9646.986-1.6648.1858-1.7863-2.0435-1.8577-4.3514-1.1575-6.795.2072-.7359.4216-1.4719.6788-2.1935.1358-.3715,0-.986.6145-1.0217.4787-.0286.7788.3858,1.0503.7288,1.1361,1.4004,1.329,3.0795,1.4004,4.7086Z"/>
    <path class="cls-1" d="M136.4292,137.2208c-3.1724-.1143-5.6089-1.5433-7.2523-4.3013-.1858-.3215-.5002-.6931-.3001-1.0646.2215-.4144.6931-.1858,1.036-.1286,2.3865.393,4.7729.7717,6.8307,2.1864.2715.1786.5287.3787.7717.6002.6431.6002,1.6076,1.3504,1.3361,2.1007-.2929.8288-1.5219.543-2.4222.6073Z"/>
    <path class="cls-1" d="M128.148,76.016c-.0214-2.1507.3287-4.0012,1.6076-5.566.2429-.3001.5359-.6502.9289-.6002.5073.0715.3715.593.4501.9432.493,2.2221,1.4004,4.4014.6788,6.745-.393,1.2647-.8503,2.9938-2.1364,2.9652-.9932-.0214-1.2147-1.8649-1.4219-3.0438-.0929-.5359-.0857-1.0861-.1072-1.4433Z"/>
    <path class="cls-1" d="M116.8874,20.2129c0,2.4007-.393,4.6586-2.3865,6.3377-.5716.4859-.8503.4787-1.1718-.2358-1.1289-2.4793-.6359-6.2662,1.1432-8.1668.4787-.5144,1.0217-1.1932,1.7791-.9432.7217.2358.5788,1.0718.6288,1.7005.0429.4359.0071.8717.0071,1.3076Z"/>
    <path class="cls-1" d="M77.8609,23.4782c-.05.3144-.1072.9074-.2358,1.4933-.1286.6073.0286,1.5362-.6716,1.6791-.6145.1215-1.0718-.6645-1.5076-1.1361-2.1578-2.3293-1.9363-5.2088-1.7363-8.0454.0643-.8931.7717-.5502,1.2218-.2215,1.9935,1.479,2.8366,3.5225,2.9295,6.2305Z"/>
    <path class="cls-1" d="M82.5267,26.2934c.0715,1.4719-.343,2.7509-1.1504,3.8941-.4501.6288-.8646.8717-1.4505.0357-1.5362-2.1864-1.4076-5.7875.2715-7.8382.5716-.7002.886-.4144,1.2075.1.7288,1.1789,1.2575,2.4293,1.1218,3.8083Z"/>
    <path class="cls-1" d="M13.991,65.2698c1.2504.0572,1.772.8074,1.9149,1.8792.0857.6145-.3644.7431-.836.6573-1.0718-.2001-1.772-.8503-1.9363-1.922-.1-.6431.5002-.5573.8574-.6145Z"/>
    <path class="cls-1" d="M175.6986,67.7063c-.9717.1286-1.3076.0429-1.279-.593.0429-1.1504.6288-1.7863,1.7648-1.9292.5502-.0715,1.0289.0857.9646.7502-.1072,1.1289-.8574,1.6648-1.4505,1.772Z"/>
  </g>
</svg>