<?xml version="1.0" encoding="UTF-8"?>
<svg id="WashingHands" xmlns="http://www.w3.org/2000/svg" viewBox="0 0 251.306 237.9843">
  <defs>
    <style>
      

      @import url('../../CSS/SvgStyling.css');

      
    </style>
  </defs>
  
  <g class="content">

    <rect id="bg" class="bg" width="251.306" height="237.9843"/>

    <path class="cls-1" d="M233.2029,83.4475c0,4.8878.0288,9.7759-.0196,14.6633-.0126,1.2725-.1861,2.5579-.4268,3.8102-.3634,1.8907-1.512,3.2265-3.3191,3.8843-2.6578.9675-5.3744,1.1075-8.1082.3012-1.7022-.5021-2.6378-1.7074-2.9499-3.4035-.2103-1.1426-.3787-2.2975-.4763-3.4545-.0658-.7799-.357-1.0914-1.1592-1.0536-5.3855.2537-10.7752.4322-16.1558.7609-.8887.0543-1.8745.5609-2.5861,1.1403-4.4883,3.6538-9.2265,6.7955-14.9515,8.2012-7.8836,1.9358-15.6572,2.007-23.2512-1.2328-5.4378-2.3199-10.0688-5.7757-13.9678-10.2026-.9164-1.0404-1.9182-1.6592-3.3337-1.4583-3.4255.4861-6.6521,1.5615-9.4732,3.5785-2.3698,1.6944-3.79,4.0413-4.1319,6.9957-.196,1.6937-.4614,3.3797-.7131,5.0665-.1029.6894.083,1.0804.8396,1.2241,2.1307.4046,3.5441,1.7542,3.8879,3.825.4477,2.6967.7272,5.4453.7759,8.177.0411,2.3021-1.349,3.9084-3.5772,4.4465-2.4359.5882-4.9206,1.1084-7.4119,1.3054-5.6047.443-11.2254.695-16.8426.9624-1.385.0659-2.7927-.0172-4.1693-.1933-1.5603-.1996-2.6541-1.1459-3.0139-2.6906-.8476-3.6394-1.3109-7.3228-.9715-11.0736.131-1.4474.8717-2.3714,2.269-2.7446.9717-.2595,1.944-.5819,2.9358-.6833,1.0872-.1112,1.2894-.585,1.0445-1.543-.6157-2.4088-1.1655-4.8366-.8427-7.3494,1.0793-8.4035,3.5119-16.1518,10.5944-21.6113,3.9359-3.0339,8.3607-5.2324,12.9721-6.9344,4.7111-1.7388,9.5694-3.0966,14.4057-4.4718,3.2296-.9183,6.3269-2.0015,9.0786-4.0083,2.8121-2.0508,6.0304-3.3096,9.3261-4.3716,1.7826-.5744,1.7536-.5893,1.7924-2.4257.0656-3.1023.1064-6.207.272-9.3046.1067-1.9956,1.0047-3.5505,3.0159-4.2826,1.176-.4281,1.6949-1.1231,1.7433-2.5616.0722-2.1439-.0874-3.7018-2.5131-4.4694-1.1327-.3585-1.9923-1.5496-3.0051-2.325-1.4689-1.1246-2.8861-2.3482-4.4726-3.2783-1.345-.7885-2.6826-.7874-4.1129.4263-4.3054,3.6537-10.7744,3.4433-14.6701-.2979-2.7362-2.6277-3.9099-5.7782-2.7339-9.4931,1.1757-3.7142,3.8901-5.7775,7.6569-6.4741,3.6838-.6812,7.1518.1148,9.9102,2.5474,2.0648,1.821,4.1646,1.8309,6.4487,1.2412,1.6691-.4309,3.3373-1.0311,4.8604-1.8324,5.3599-2.8193,10.6959-2.8827,16.0121-.0348,2.4401,1.3072,4.9566,2.1559,7.7325,2.2378,1.0533.0311,1.9375-.1928,2.7717-.9121,2.1281-1.8347,4.5911-3.0135,7.3996-3.3871,4.776-.6353,9.6235,2.2026,10.9639,6.4039,1.6607,5.205-1.786,10.9814-7.3627,12.2974-3.8483.9081-7.3198.1342-10.2747-2.5348-.8832-.7978-1.7066-.965-2.8335-.5843-1.8107.6117-3.3394,1.6005-4.6854,2.9276-1.6872,1.6635-3.3947,3.2907-5.7019,4.1212-.3149.1134-.5678.6614-.663,1.0535-.1058.4361.0514.9287.0079,1.3885-.1731,1.8276.0204,3.2237,2.1787,3.9936,1.9234.6861,2.4873,2.6482,2.5609,4.6101.1018,2.7139.1815,5.4295.2051,8.145.0083.9593.273,1.465,1.2978,1.6831,4.6518.9901,8.8827,2.9194,12.6655,5.8316.4918.3786,1.1743.6869,1.7812.7113,6.158.247,12.3186.4293,18.4786.6266.8621.0276,1.316-.3405,1.1839-1.2609-.0217-.1513.0034-.3099.0118-.4648.2633-4.8536,1.342-6.8567,7.2796-7.6058,1.1814-.149,2.4024-.0776,3.5979.0014,1.8877.1248,3.3531,1.5118,3.8106,3.3739.9707,3.9514,1.1136,7.9775,1.1447,12.0145.0206,2.6771.0039,5.3544.0039,8.0316-.012,0-.024,0-.036-.0001ZM199.6808,70.8086c-.082.0807-.164.1614-.246.2421.5761.4934,1.2296.9253,1.6925,1.5086.2024.2551.1514.905-.042,1.2149-.1363.2183-.7588.3108-1.0698.1984-.4094-.148-.7733-.5105-1.076-.8523-6.3539-7.174-14.6899-9.8594-23.8912-10.2623-9.8389-.4308-18.709,2.551-26.7054,8.2711-.946.6767-2.1067,1.1934-3.2426,1.4407-6.2968,1.3709-12.4794,3.0864-18.4437,5.5581-4.0589,1.6821-7.9779,3.6069-11.5217,6.2351-6.3675,4.7223-8.5712,11.6207-9.9421,18.9665-.6016,3.2237.1811,6.3106.8547,9.5225.4156.0226.873.0948,1.3236.0648,6.0331-.4021,12.0661-.8071,18.0951-1.2654.3009-.0229.7492-.5052.8107-.8333.1922-1.025.2178-2.0801.3326-3.1209.4011-3.6349,1.424-7.0007,4.308-9.5006,4.0964-3.5508,9.0359-4.7885,14.2904-5.0904.3021-.0174.6999.2874.9281.5507,1.3109,1.5124,2.4312,3.2244,3.8945,4.5648,10.0949,9.2477,21.736,11.6648,34.733,7.525,4.5408-1.4463,8.376-4.1707,12.002-7.1872,1.1799-.9815,2.4865-1.5428,4.0183-1.6113,5.0753-.2268,10.1499-.4678,15.2253-.6925,1.6929-.0749,1.6667-.0596,1.6431-1.7048-.1071-7.4864-.1972-14.9731-.2965-22.4596-.0044-.3319-.0394-.6633-.0506-.8432-5.9598-.1486-11.792-.2941-17.6241-.4395ZM188.7877,30.7496c.9653-.1927,1.6058.0126,2.1015.8687,2.4942,4.3076,9.9484,5.9595,14.3052.8809,3.2368-3.7732,2.118-9.1174-2.4186-11.1595-3.3383-1.5027-6.6549-1.0509-9.6567.8425-1.6598,1.0469-3.0073,2.5893-4.7073,4.096-.2862-.2664-.7423-.7286-1.241-1.1388-.2402-.1976-.5537-.405-.8462-.4245-2.6426-.1761-5.0719-1.0013-7.3777-2.273-4.733-2.6104-9.5031-2.7412-14.3175-.1894-2.6921,1.4269-5.48,2.56-8.6111,2.4114-.1386.4949-.26.9284-.4834,1.7261-.8103-.578-1.5811-.9356-2.0884-1.5214-2.9074-3.3572-6.4177-4.9724-10.9275-4.2276-5.5934.9237-8.0847,7.2482-4.5443,11.6754,2.6719,3.3412,7.5613,4.2975,11.3709,2.3456,1.6168-.8284,2.4784-2.2862,3.5778-3.5725.2586-.3025.8083-.592,1.1496-.5224.3517.0717.6097.5919.9142.9105.2583.2702.4812.6844.7943.774,1.9075.5456,3.5371,1.5175,4.9792,2.8746,1.2393,1.1663,2.4264,2.4655,3.8624,3.3311,5.0045,3.0166,12.6666,2.3886,16.998-2.3549,1.9053-2.0866,4.1414-3.6024,6.9937-4.1076.0578-.4163.1105-.796.1728-1.2453ZM231.7573,84.3665c-.0496-.0016-.0992-.0032-.1488-.0048,0-1.5909.0119-3.1818-.0022-4.7725-.0444-5.0024-.0693-10.0039-.9458-14.9572-.3316-1.8741-1.0757-2.901-2.722-2.9345-1.6106-.0328-3.2684.0535-4.8321.4097-2.5967.5916-3.199,1.3528-3.3397,4.0195-.237,4.4905-.5666,8.9918-.4738,13.4806.1515,7.3237.5937,14.642.9543,21.9605.0834,1.6922.8009,2.5324,2.4721,2.7034,1.5236.1559,3.1026.174,4.6142-.0446,2.6391-.3818,3.6791-1.4881,3.8226-4.1632.2805-5.228.4094-10.4642.6011-15.6969ZM108.2726,128.9075c.001-.0235.0019-.0471.0029-.0706,2.7101-.1353,5.4215-.249,8.13-.4109,4.3312-.2589,8.6711-.4491,12.8857-1.6494,1.4713-.419,2.4477-1.2012,2.4057-2.4496-.0856-2.5449-.2256-5.1006-.5744-7.6197-.2475-1.7872-1.2931-2.6607-3.1289-2.6969-3.9089-.077-7.8371-.208-11.7277.0822-5.0159.3741-10.0081,1.0989-14.999,1.7593-1.5069.1994-1.7524.5681-1.6584,2.1231.1637,2.7079.3967,5.4137.6832,8.1116.2245,2.1135.9618,2.7537,3.0965,2.8122,1.627.0446,3.2562.0089,4.8844.0089ZM163.5479,50.7374c-.1518,3.8363-.2935,7.4157-.4497,11.3632,5.7567-1.29,11.3182-1.5012,16.8454-.7048v-10.5845c-5.5293.7058-10.8114,1.0062-16.3957-.0738ZM168.2828,42.1884c0,1.9217-.0192,3.8907.0115,5.859.0095.6082.2246,1.1756.9895,1.1836,1.5448.0161,3.0929.0612,4.6328-.0259.4065-.023,1.1163-.4704,1.1289-.7481.0954-2.1129.0522-4.2321.0522-6.2686h-6.8149Z"/>
    <path class="cls-1" d="M136.4914,163.9154c7.8697-6.7763,15.9074-13.1031,24.2971-18.9816,2.2755-1.5944,4.8309-2.5098,7.5153-2.9231,2.709-.4171,4.9074.7206,6.5573,2.9216,1.6174,2.1577,2.2833,4.5731.9227,6.9584-1.9131,3.3541-3.7856,6.856-6.3428,9.6929-6.0449,6.7062-12.3142,13.2326-18.8058,19.5078-8.2249,7.9507-16.6145,15.7466-25.2198,23.2818-4.6088,4.0356-9.4011,7.9959-15.141,10.4828-5.5109,2.3877-11.132,2.7641-16.9112,1.0259-5.7445-1.7278-11.4901-3.463-17.2846-5.01-5.9735-1.5947-11.9141-1.0179-17.7573.8366-1.0324.3277-2.0341.7509-3.0614,1.0961-1.4881.5-2.6866,1.1168-3.3508,2.8151-.437,1.1175-1.6237,2.0997-2.7043,2.775-2.3567,1.4729-4.8363,2.7573-7.313,4.0263-1.2712.6514-2.6286.5082-3.7088-.443-1.1551-1.0171-2.3259-2.0779-3.2267-3.3118-4.5262-6.1997-7.7976-13.1135-10.9792-20.0473-2.0302-4.4244-3.7291-9.006-5.4539-13.5636-.9491-2.508-.4828-3.4703,1.8251-4.7516,3.5225-1.9557,7.04-3.9208,10.5795-5.8453,1.3691-.7444,2.7959-1.3172,4.4357-1.0934.4164.0568.9062-.1314,1.3098-.3196,3.965-1.8493,7.8562-3.8725,11.888-5.5602,11.2611-4.7141,22.7732-5.1961,34.4462-1.6318,3.0732.9384,6.1677,1.8317,9.1769,2.949,5.7448,2.1329,11.3572,1.6381,16.8814-.6464,4.8297-1.9974,9.5934-4.1538,14.3977-6.2133,2.4407-1.0462,5.0075-1.3343,7.6335-1.0448,2.1886.2413,3.9181,1.3702,5.3945,3.0175ZM94.3151,194.8027c.4095-1.7832.545-1.7669,2.4318-1.9275,2.031-.1728,4.2342-.174,6.0272-.9882,10.6798-4.8496,21.0635-10.2307,29.7588-18.3311,1.3789-1.2845,2.3199-2.8051,2.795-4.6043.7094-2.6865-.2439-4.6154-2.8518-5.5454-2.9236-1.0426-5.8122-.6273-8.5996.584-4.8306,2.0992-9.609,4.3228-14.4754,6.3341-5.9626,2.4643-12.0186,2.6886-18.1493.4415-2.9056-1.065-5.9136-1.8467-8.8493-2.834-8.295-2.7898-16.7186-2.6266-25.1546-.9663-6.3344,1.2467-12.0376,4.2181-17.7593,7.0737-2.0062,1.0013-1.9607,1.011-.9599,2.9329.6427,1.2343,1.2536,2.4972,1.7364,3.8001.8608,2.3231,1.5207,4.7228,2.4289,7.0256,2.9548,7.4918,5.9845,14.9541,8.984,22.4283.6304,1.5709.6567,1.6382,2.238.942,8.3773-3.6883,16.9525-4.0324,25.6852-1.5421,5.2502,1.4972,10.47,3.1009,15.7137,4.6214,3.0221.8764,6.08,1.0729,9.1952.4363,5.0308-1.028,9.4097-3.4466,13.2957-6.6326,5.3635-4.3974,10.6298-8.9338,15.6948-13.6706,9.6889-9.0609,19.2779-18.2321,28.7642-27.5051,4.5286-4.4267,8.4307-9.4181,11.4973-15.0061,1.0273-1.872.9766-3.6937-.2828-5.4621-1.3243-1.8596-3.0364-2.815-5.3778-2.4785-2.4948.3585-4.6189,1.5387-6.6073,2.9809-8.0381,5.83-16.0488,11.6978-23.4809,18.3045-.29.2578-.5324.7634-.5157,1.1412.1201,2.7199-.5041,5.2901-2.388,7.2069-2.3521,2.3933-4.8843,4.6637-7.5895,6.6445-5.8591,4.2901-12.2288,7.7623-18.6911,11.0619-4.5774,2.3372-9.2888,4.0767-14.5139,3.534ZM50.745,213.7889c-.2331-.8827-.3567-1.6984-.6592-2.4413-2.6133-6.4175-5.3197-12.7978-7.8739-19.2385-1.7687-4.46-3.2683-9.0265-5.0236-13.4921-1.4017-3.5661-2.5619-3.9167-5.8961-2.1011-3.402,1.8525-6.7839,3.7421-10.1926,5.5822-.9902.5345-1.304,1.2091-.888,2.2833,1.2014,3.1026,2.2226,6.2831,3.5702,9.3194,3.5524,8.0038,7.2716,15.9329,12.2143,23.206.6904,1.0159,1.567,1.9124,2.4088,2.8163.9876,1.0605,2.0602,1.4456,3.4525.5469,1.0652-.6876,2.3674-1.0139,3.4149-1.7218,1.6903-1.1422,3.2726-2.448,4.864-3.7299.2933-.2363.4139-.6871.6088-1.0295Z"/>
    <path class="cls-1" d="M119.7925,143.9265c-.0084,4.2514-.4589,7.3336-2.212,10.1614-1.6357,2.6383-4.9092,3.2772-7.2811,1.2606-1.7699-1.5048-2.5875-3.4807-2.6088-5.7457-.055-5.8333,1.4737-11.2555,4.4228-16.2817,1.0832-1.8461,2.114-2.0413,3.7117-.6073,1.5949,1.4314,2.315,3.3969,2.8248,5.381.5759,2.241.8986,4.5472,1.1427,5.8317ZM114.3646,133.5236c-2.8316,5.1566-4.8703,10.1331-4.6806,15.7209.0426,1.2546.5185,2.6004,1.1438,3.7071,1.2724,2.2518,4.0369,2.1865,5.3148-.0492.493-.8625.9185-1.811,1.1385-2.7743,1.0361-4.5369.6613-9.0004-1.0328-13.3236-.4138-1.0559-1.1321-1.9924-1.8837-3.2808Z"/>
    <path class="cls-1" d="M96.3049,145.9477c.152-4.2204,1.5582-7.9499,3.94-11.3047.3686-.5193,1.5325-.943,2.0824-.7408.6328.2326,1.2471,1.147,1.4264,1.8745.8066,3.2737.2099,6.5476-.3192,9.795-.2468,1.5152-.5798,3.036-1.0772,4.4843-.3924,1.1428-1.2607,1.9476-2.6228,1.929-1.3565-.0185-2.2175-.8421-2.5958-1.9811-.4319-1.3009-.5688-2.6998-.8339-4.0562ZM101.9017,136.1496c-.1253.0185-.2507.037-.376.0555-2.3833,3.6087-3.2996,7.5756-2.9045,11.8882.0865.9442.4728,1.5874,1.3725,2.0816.3424-.5728.8894-1.098.9707-1.6874.5112-3.7074.9348-7.4274,1.3363-11.1487.0407-.3777-.2578-.792-.3989-1.1893Z"/>
    <path class="cls-1" d="M124.534,139.4659c0-.9291-.084-1.8686.0293-2.7836.0764-.6164.3012-1.3059.6879-1.7741.9208-1.1146,1.6201-1.127,2.6895-.1595,3.0625,2.7708,4.546,6.1265,3.5569,10.281-.4129,1.7342-1.5589,2.7405-2.8592,2.798-1.3934.0617-2.8227-.7818-3.3012-2.4361-.5503-1.9027-.7254-3.9139-1.0635-5.878.0867-.0159.1735-.0319.2602-.0478ZM126.8718,136.4462c-.8383,3.1253-.5209,6.132.6209,9.0741.0792.204.6571.4479.7821.3598.5064-.3572,1.161-.758,1.3386-1.285.8697-2.5815-.4357-6.3533-2.7416-8.1488Z"/>
    <path class="cls-1" d="M196.706,92.0111c-6.7982,10.0316-22.7107,17.515-38.8896,8.6665.0936-.4958.1918-1.0163.3263-1.7287.7355.2491,1.4345.4189,2.0758.7142,3.1569,1.4536,6.4342,2.409,9.9087,2.7566,8.3337.8338,15.383-1.9434,21.4603-7.5047.9697-.8873,1.8468-1.8778,2.7447-2.841.8625-.9251,1.2582-.9554,2.3738-.0629Z"/>
    <path class="cls-1" d="M174.8201,98.789c-1.5705.1112-3.1243.2844-4.6805.3097-1.0777.0176-2.1602-.1539-3.2378-.2675-1.5085-.159-1.537-.2057-1.5545-2.0247.6912.0422,1.3743.105,2.0585.1215,1.8165.0436,3.6424.1891,5.4473.0569,1.2656-.0927,1.763.3933,1.9671,1.804Z"/>
  </g>
</svg>