<?xml version="1.0" encoding="UTF-8"?>
<svg id="Wine" xmlns="http://www.w3.org/2000/svg" viewBox="0 0 232.8761 237.9843">
  <defs>
    <style>
      

      @import url('../../CSS/SvgStyling.css');
      
    </style>
  </defs>
  
  <g class="content">

    <rect id="bg" class="bg" width="232.8761" height="237.9843"/>


    <path class="cls-2" d="M151.6547,87.9088c-.0546,2.5537-.382,4.7199-.9767,6.4387-1.2714,3.6886-3.2412,7.4264-6.6352,10.8477-20.1184,20.2875-36.3516,19.5072-55.7006,0-3.3885-3.4213-5.3583-7.159-6.6352-10.8477-.5893-1.7188-.9167-3.8851-.9767-6.4387-.0546-2.6355.1746-5.7349.693-9.1943,1.3532-9.0415,4.4089-19.0543,6.7334-25.8641,1.4187-4.1579,2.8101-8.5068,3.4213-10.0565h48.8854c.6057,1.5497,2.3463,5.8985,3.7705,10.0565,2.3245,6.8098,5.3747,16.8226,6.7279,25.8641.5184,3.4595.753,6.5588.693,9.1943h-.0001ZM152.5387,78.4744c-1.3532-9.0306-4.3489-18.9725-6.7989-26.1479-2.0408-5.9804-3.705-10.0401-3.705-10.0401h-51.6846s-1.6588,4.0597-3.6996,10.0401c-2.45,7.1754-5.4511,17.1172-6.8043,26.1479-.4965,3.3449-.7694,6.5642-.7094,9.4726.06,2.6028.3874,4.96,1.0695,6.9244,1.4678,4.2561,3.9778,8.0266,6.9462,11.3933,5.151,5.8276,11.6825,10.422,16.588,14.138,3.956,3.0011,6.848,5.4238,7.1099,7.4591,0,.0109.0055.0218.0109.0273,0,.0055.0055.0055.0055.0055.0164.0273.0327.0491.0491.0764.0164.0164.5675,1.6643,1.5006,3.8087.12.2783.251.5511.3547.8349.1746.4747.3383,1.0968.4911,1.8607.944,4.7418,1.4242,15.0219,1.4242,30.6495,0,3.645-.0546,6.7498-.1419,9.3908-.2892,8.8615-.9931,12.5283-1.5497,14.138-.3165.9167-.5839,1.1677-.6984,1.3369-.0928.131-.1582.2292-.1746.4965-10.9622.2837-19.278,1.6697-19.278,3.334,0,1.8661,10.5148,3.3831,23.496,3.3831s23.496-1.5169,23.496-3.3831c0-1.6752-8.4577-3.072-19.5618-3.3394-.0218-.2674-.0818-.3601-.1746-.4911-.1146-.1692-.371-.4202-.6657-1.3423-.5184-1.6151-1.1622-5.282-1.4351-14.1489-.0818-2.6355-.131-5.7349-.131-9.3744,0-15.6385.3656-25.9132,1.2768-30.655.1419-.7639.3001-1.386.4802-1.8607.1037-.2783.2292-.5566.3547-.8349.9331-2.1444,1.4842-3.8087,1.4951-3.8305.0218-.0273.0382-.0546.06-.0818l.0055-.0055c.2565-2.0353,3.1539-4.4526,7.1044-7.4537,4.9055-3.7159,11.4424-8.3104,16.588-14.138,2.9738-3.3667,5.4838-7.1372,6.9517-11.3933.6766-1.9644,1.0095-4.3216,1.064-6.9244.0655-2.9083-.2073-6.1277-.7094-9.4726"/>

    <path class="cls-2" d="M83.1693,80.3678c-.3983,2.9302-.5784,5.5548-.5238,7.8083.0491,2.3027.3329,4.2179.8403,5.6967,1.3641,3.9451,3.3503,7.1972,6.0677,9.9419,9.6199,9.6963,17.9248,14.2144,26.137,14.2144,4.0815,0,8.1412-1.1131,12.4191-3.4104,4.3925-2.3572,8.8942-5.8931,13.7669-10.804,2.7228-2.7447,4.7036-5.9968,6.0677-9.9419.5075-1.4733.7967-3.394.8458-5.6967.0546-2.4991-.1692-5.4566-.6657-8.7851-.2619-1.7297-.5839-3.4977-.9549-5.271-34.4146-1.5115-37.0446,29.8147-64.0001,6.2478"/>

    <path class="redcircle" d="M116.438,225.2568c-58.5962,0-106.2676-47.6719-106.2676-106.2676S57.8418,12.7271,116.438,12.7271s106.2681,47.6689,106.2681,106.2622-47.6719,106.2676-106.2681,106.2676ZM116.438,25.7271c-51.4277,0-93.2676,41.8374-93.2676,93.2622s41.8398,93.2676,93.2676,93.2676,93.2681-41.8398,93.2681-93.2676S167.8662,25.7271,116.438,25.7271Z"/>
    
    <path class="redcircle" d="M171.7441,197.8818c-1.665,0-3.3096-.7539-4.3887-2.1865L56.7563,48.9189c-1.8247-2.4219-1.3408-5.8643,1.0806-7.689,2.4238-1.8252,5.8647-1.3403,7.689,1.0806l110.5991,146.7773c1.8252,2.4209,1.3408,5.8633-1.0811,7.6885-.9893.7451-2.1494,1.1055-3.2998,1.1055Z"/>
  </g>
</svg>