<?xml version="1.0" encoding="UTF-8"?>
<svg id="woman" xmlns="http://www.w3.org/2000/svg" viewBox="0 0 97.2881 205.5844">
  <defs>
    <style>
      

      @import url('../../CSS/SvgStyling.css');

      
    </style>
  </defs>
  
  <g class="content">

    <rect id="bg" class="bg" width="97.2881" height="205.5844"/>

    <path class="cls-1" d="M60.3712,189.3261c-.0394.4273-.0855.8151-.0855,1.203-.046,2.0115-.8677,3.129-2.8595,3.4248-1.3804.1709-2.8529.046-4.2794-.0855-.9532-.0855-1.433-.8151-1.433-1.8011,0-.7691-.0855-1.5382,0-2.2679.1315-1.1569-.4733-1.4593-1.6828-1.4133,0,1.1109.0394,2.1824,0,3.2539-.092,1.6697-.8217,2.4848-2.5111,2.5308-1.2555,0-2.5571-.0855-3.7666-.4273-2.1627-.6442-2.728-2.0181-1.9458-4.115.0855-.2169.1709-.4339.0394-.8151-.3878.2564-.8611.4733-1.1635.8151-2.0772,2.3993-4.8513,2.5242-7.7042,2.2284-.8677-.0855-1.7749-.3418-2.6426-.4273-1.0846-.0855-1.341-.6048-1.341-1.6302,0-21.9884-.046-43.9835-.046-66.0179,0-1.1569.1315-2.2284-1.4265-2.6097-.4733-.1315-.9532-.8611-1.1701-1.4199-.3878-.894-.6442-1.8406-.7757-2.7806-.2629-2.143-.5653-4.115-2.682-5.4034-1.0846-.6836-1.387-1.8866-1.1701-3.2605,1.4725-10.373,2.9449-20.746,4.3254-31.1191,1.0846-8.1446,2.0378-16.2892,3.1159-24.4338.3024-2.3533,1.433-4.4108,2.8135-6.2974.9071-1.2424,1.8603-2.5308,2.8595-3.7338,2.636-3.1684,3.3722-6.7247,2.3336-10.7543-1.0386-3.9441-1.2095-7.9737.1315-11.9638,1.0386-3.129,2.7675-5.6992,5.9753-7.0271,4.3254-1.8011,9.2161-.2564,11.9441,3.8126,1.8997,2.8266,2.682,6.0016,2.9844,9.3015.1709,1.8011.2564,3.6023.2169,5.4429-.1315,3.6877,1.1241,6.7773,3.7666,9.3015,2.7214,2.6623,5.1931,5.6598,6.3172,9.433.7757,2.6163,1.341,5.318,1.6434,8.0131,1.6894,14.6655,3.2473,29.3245,4.8447,43.9374.309,2.7872.5653,5.6204.7362,8.447.046.986-.1709,2.0181-.4733,2.9581-.8217,2.3599-1.7749,4.6278-2.682,6.9416-.1775.3878-.2629.9006-.5193,1.1175-1.387,1.0715-1.1241,2.4848-1.0386,3.8981.8217,11.3196,1.5974,22.5932,2.4191,33.9062.6113,8.3221,1.1701,16.6376,1.7354,24.9925.1315,2.189.1315,2.3139-1.9918,2.7017-3.4182.6836-6.8365,1.203-10.2547,1.7551-.9532.1315-1.7354.2564-2.5571.3878Z"/>
  </g>
</svg>