<?xml version="1.0" encoding="UTF-8"?>
<svg id="Yacob" xmlns="http://www.w3.org/2000/svg" viewBox="0 0 399.1094 293.7299">
  <defs>
    <style>
      

      @import url('../../CSS/SvgStyling.css');

      
    </style>
  </defs>
  
  <g class="content">

    <rect id="bg" class="bg" width="399.1094" height="293.7299"/>


    <path class="cls-1" d="M91.7495,163.5363c.1707-1.2292.3007-2.4657.5204-3.686.5201-2.889,1.0486-5.7774,1.6434-8.6516.2769-1.338.782-2.6136,1.5749-3.7528.9197-1.3212,1.9053-1.6913,3.46-1.2952,1.616.4117,2.7462,1.4897,3.701,2.7691.2103.2818.3273.7415.2776,1.0893-.1548,1.0817-.4058,2.1499-.6322,3.2206-.0295.1393-.12.2723-.2049.3921-.3147.4439-.5494.4638-.9093.0503-.4284-.4922-.8094-1.0276-1.2582-1.4994-.3018-.3172-.6541-.6159-1.0387-.8186-.8605-.4534-1.6213-.305-2.2167.4688-.3745.4867-.6803,1.0475-.9141,1.6172-.6804,1.658-.9924,3.4154-1.248,5.1779-.4386,3.0238-.8253,6.0553-1.276,9.0772-.1218.8166-.3499,1.6257-.6129,2.4102-.2349.7006-.7108.8091-1.1858.2521-.4159-.4877-.7731-1.0614-1.0139-1.6549-.4342-1.0702-.7751-2.1793-1.1318-3.2796-.7876-2.4296-1.9192-4.6618-3.6975-6.5272-.2836-.2974-.5943-.5689-.9542-.9111-.5548.9281-1.2926.7337-2.0042.3635-1.0772-.5603-2.1453-1.1429-3.1829-1.7727-1.0399-.6312-1.5938-1.5691-1.5194-2.8232.0439-.739.0009-1.4952.1459-2.2136.3576-1.7717,1.3069-2.0305,2.4914-1.9085,1.2701.1308,2.3015.7408,3.2588,1.5117,1.4758,1.1884,2.5733,2.7049,3.5951,4.2753,1.1672,1.7938,2.1858,3.6672,2.97,5.6665.3328.8484.7557,1.6614,1.1377,2.4905.0748-.0126.1497-.0252.2245-.0379Z"/>
    <path class="cls-1" d="M248.0896,241.6083c-.5159.7401-1.1069.6375-1.6913.3124-.9876-.5494-1.9789-1.0971-2.9287-1.7077-.6594-.4238-.9825-1.081-.9288-1.8916.0485-.732.0087-1.4815.1551-2.1929.2322-1.1282.8396-1.4736,1.9754-1.3405,1.4733.1727,2.5749,1.0024,3.5362,2.0287,1.9168,2.0465,3.3716,4.3997,4.4754,6.9749.4099.9563.8452,1.9017,1.2689,2.8521.0646-.0059.1292-.0119.1938-.0179.0551-.1935.1287-.3839.1626-.5811.4992-2.9035.9519-5.8158,1.509-8.708.218-1.1318.6592-2.2217,1.0182-3.3243.0866-.266.2375-.5146.3815-.7578.9608-1.6233,2.1794-2.0025,3.8812-1.1966.9432.4467,1.705,1.1285,2.2882,1.9817.1941.2839.3397.7006.2959,1.0283-.1157.8659-.3275,1.7215-.5452,2.5698-.0629.245-.2754.4516-.4919.7889-.3525-.4286-.5966-.7694-.8856-1.0666-.4312-.4436-.8469-.9272-1.3544-1.266-.7499-.5004-1.4858-.3755-2.04.3307-.3606.4594-.6473,1.0014-.8597,1.5481-.7034,1.8101-.9563,3.7252-1.2269,5.6344-.3299,2.3278-.659,4.6558-1.0192,6.979-.0816.5266-.2533,1.0481-.4511,1.545-.1705.4283-.4796.4905-.7872.149-.2979-.3307-.5689-.7186-.7345-1.1288-.392-.9708-.7355-1.9629-1.0606-2.9587-.6131-1.8779-1.4596-3.6289-2.7457-5.1411-.4168-.49-.8925-.9298-1.3904-1.4433Z"/>
    <path class="cls-1" d="M183.8078,136.4531c-.744,1.0675-1.5964.9195-2.4393.4506-1.4243-.7925-2.8541-1.5824-4.224-2.4629-.951-.6113-1.4171-1.5591-1.3396-2.7282.0699-1.0558.0125-2.1367.2238-3.1627.3349-1.6271,1.211-2.1254,2.8491-1.9333,2.1249.2492,3.7137,1.4457,5.1001,2.9259,2.7645,2.9516,4.8627,6.3456,6.4547,10.0598.5912,1.3793,1.219,2.7428,1.8301,4.1135.0932-.0086.1863-.0172.2795-.0258.0795-.2791.1856-.5537.2345-.8381.72-4.1876,1.3728-8.388,2.1764-12.5593.3144-1.6323.9507-3.2043,1.4685-4.7946.1249-.3837.3426-.7422.5502-1.093,1.3858-2.3412,3.1433-2.8882,5.5977-1.7259,1.3603.6442,2.4591,1.6277,3.3002,2.8582.2799.4095.49,1.0104.4268,1.483-.1669,1.2489-.4723,2.4828-.7863,3.7063-.0907.3534-.3972.6513-.7095,1.1377-.5083-.6181-.8605-1.1096-1.2773-1.5383-.6219-.6398-1.2214-1.3373-1.9534-1.8259-1.0815-.7218-2.1429-.5416-2.9423.477-.52.6626-.9335,1.4443-1.2399,2.2328-1.0145,2.6107-1.3793,5.3728-1.7695,8.1263-.4758,3.3573-.9504,6.715-1.4699,10.0657-.1178.7594-.3654,1.5116-.6507,2.2283-.2459.6177-.6917.7074-1.1354.2149-.4296-.4769-.8205-1.0365-1.0594-1.628-.5654-1.4002-1.0608-2.831-1.5297-4.2673-.8842-2.7084-2.1051-5.2339-3.9601-7.4149-.6011-.7067-1.2872-1.3411-2.0054-2.0817Z"/>
    <path class="cls-1" d="M149.681,208.9846c.518.8421.1369,1.4686-.0826,2.0804-.679,1.8921-1.4794,3.7456-2.0647,5.6653-.8972,2.9431-1.7362,5.9099-2.4357,8.905-.3364,1.4406-.3542,2.9672-.4023,4.4585-.0213.6621.1548,1.365.3895,1.994.5676,1.5211,2.1021,1.8985,3.2758.7787.5092-.4858.8425-1.1673,1.2097-1.7871.276-.466.4192-1.2211,1.1041-.9982.6707.2183.4552.9821.3269,1.4742-.3766,1.4444-.7545,2.9039-1.3214,4.2792-.6114,1.4833-1.86,2.306-3.4514,2.5621-1.3468.2167-2.2259-.1984-2.885-1.3959-.8619-1.5661-1.2414-3.2694-1.3528-5.0406-.1521-2.4194.1256-4.8009.8625-7.0983,1.3455-4.1948,2.7311-8.3783,4.206-12.5287.3461-.9737,1.0898-1.8152,1.7049-2.6788.195-.2738.5664-.422.9164-.6697Z"/>
    <path class="cls-1" d="M294.1036,144.0871c.0712.1551.156.2535.1552.3512-.0146,1.9064-.4846,3.6839-1.6411,5.2195-.5727.7605-1.4128,1.1282-2.3624,1.2365-.9781.1115-1.7101-.2471-2.1841-1.1133-.6778-1.2387-1.0161-2.5772-1.1123-3.9756-.1237-1.7996.0067-3.5901.5557-5.3085,1.1324-3.5443,2.296-7.0798,3.5283-10.5903.281-.8004.8702-1.5005,1.3663-2.2128.1641-.2356.4814-.3645.7807-.5796.3593.7831.0005,1.3292-.1868,1.8999-1.0347,3.1527-2.1137,6.2919-3.0786,9.4659-.5634,1.8531-.8671,3.775-.7353,5.7291.0363.5379.1275,1.0954.3206,1.5947.4276,1.1055,1.5816,1.4262,2.4808.6417.4742-.4136.7777-1.0336,1.1197-1.5844.2257-.3636.333-.8287.9933-.7739Z"/>
    <path class="cls-1" d="M223.9519,207.0511c-2.3273.7901-4.4744,1.601-6.6697,2.2485-5.8553,1.7269-11.7948,2.1329-17.721.4914-4.9911-1.3825-7.5688-4.6719-7.8442-9.9171-.1616-3.0781.4121-6.0738,1.5756-8.9351,1.8811-4.6258,4.5106-8.757,8.3493-12.0074,3.8093-3.2256,8.7357-4.1922,13.5295-1.2405,2.6678,1.6427,4.9268,3.7401,7.1136,5.9631,2.3276,2.3661,4.0507,5.098,5.3441,8.0741,2.9493-.2616,14.4737-5.1682,17.3538-7.3856-.3837-1.2219-.737-2.505-1.1875-3.753-1.4656-4.0601-2.0943-8.2482-2.3713-12.5525-.4036-6.2715.6802-12.2394,2.973-18.0332.8296-2.0966,1.8759-4.0686,3.2584-5.8767,2.5948-3.3935,5.9952-3.7958,9.7651-2.2977,2.7051,1.0749,4.5051,3.2277,6.0084,5.6051,2.6352,4.1674,4.281,8.7286,5.0517,13.5918,1.2702,8.0144-.7306,15.1894-5.8376,21.4437-1.6493,2.0198-3.6419,3.7601-5.4868,5.619-.4497.4532-.936.8701-1.5185,1.408.3885.868.7295,1.7561,1.1695,2.5921,2.7768,5.2763,6.9041,9.0217,12.7377,10.5021,3.7361.9482,7.5744,1.2473,11.4504.5618,6.6936-1.1837,13.0043-3.503,19.1754-6.2609,1.8572-.8299,3.6875-1.7202,5.5256-2.5923.3747-.1778.7292-.398,1.3432-.7366-.9975-.8723-1.8358-1.6655-2.7357-2.3812-2.6871-2.1373-5.5277-4.0258-8.6182-5.5596-4.0756-2.0228-8.3364-2.2007-12.6941-1.4859-1.6785.2754-3.3148.8073-5.1845,1.276.0671-.5031.0515-.9661.1954-1.3728,1.1955-3.3802,2.3704-6.7697,3.6759-10.1077.2867-.7331.9751-1.4045,1.6399-1.8781,3.0797-2.1943,6.6737-3.1194,10.3023-3.83,5.0989-.9986,10.2578-1.3719,15.4626-1.4846,3.8039-.0823,7.6108-.2044,11.3852.1435,4.3025.3966,8.5852,1.0781,12.8505,1.791,5.1777.8653,10.2109,2.3449,15.21,3.9293.561.1778,1.1177.3728,1.6659.5866,1.8875.7363,2.2206,1.181,1.6221,3.1444-.6843,2.2451-1.5916,4.4248-2.4553,6.6118-.4318,1.0931-.9388,2.1631-1.5027,3.1939-.1999.3655-.6383.7782-1.0205.839-3.9639.6311-7.6071,2.1813-11.1915,3.8733-2.4682,1.1651-4.8683,2.4745-7.2943,3.7282-.222.1147-.4108.2935-.706.5088,1.5337,1.5807,3.2522,2.7475,5.0005,3.8496,3.6633,2.3093,7.6159,3.9801,11.9355,4.4602,3.7345.4151,7.5192.3372,11.14-.7905,3.4153-1.0638,6.7521-2.3841,10.1034-3.6448.7405-.2786,1.4181-.7485,2.0869-1.1877,1.1882-.7801,1.417-1.4137.7252-2.7099-1.41-2.6418-2.8343-5.2837-4.4125-7.8264-3.1654-5.1-6.2583-10.2372-8.5971-15.7777-.934-2.2125-1.7094-4.4998-2.416-6.7965-.2784-.905-.6882-1.4855-1.5228-1.8933-1.6151-.7893-1.634-.8301-1.0645-2.5656.984-2.9988,1.9932-5.9899,3.0385-8.9678.2927-.8337.7488-1.6101,1.1982-2.5566.5242.3589.9032.5462,1.1916.8268,4.0736,3.9632,7.8358,8.2033,11.1899,12.7931.5746.7862,1.319,1.5728,1.1364,2.8035-1.1257.257-1.9326-.4267-2.7977-.8818-.8772-.4615-1.7399-.9503-2.609-1.4272-.0901.0713-.1802.1426-.2704.2139.2636.6113.4628,1.2611.8018,1.8273,1.676,2.7998,3.2731,5.6568,5.1156,8.3445,2.9001,4.2303,4.8834,8.8053,5.4868,13.8882.276,2.3248.2423,4.7145.0803,7.0561-.2139,3.0938-.8187,6.1364-1.9224,9.0658-2.1976,5.8329-6.3304,9.7518-12.078,11.896-7.1073,2.6515-14.4472,3.3807-21.9277,1.8837-4.7885-.9583-8.9008-3.3431-12.5861-6.4542-3.0245-2.5532-5.9424-5.233-8.8923-7.8738-1.0871-.9732-1.0654-.9922-2.3325-.2903-7.595,4.2073-15.3426,8.0942-23.4527,11.2288-4.5048,1.7411-9.1229,3.0712-13.884,3.8746-4.3639.7364-8.6213.5777-12.5973-1.6887-2.6874-1.5319-4.9355-3.5606-6.9307-5.9047-3.2889-3.864-5.781-8.2206-7.9821-12.7619-.3032-.6255-.6133-1.2478-.932-1.8654-.0445-.0862-.1572-.1373-.3578-.3038-5.4899,3.8675-11.5047,6.884-17.6099,9.5712-.1474,1.7508-.2734,3.3433-.4168,4.9343-.7502,8.3224-3.1933,16.0173-8.4034,22.6913-1.7663,2.2626-3.9952,4.0077-6.2627,5.7204-5.9471,4.4921-12.2832,8.3923-18.6253,12.2852-8.8098,5.4075-17.747,10.5963-26.9103,15.3801-6.9784,3.6431-14.0418,7.1253-21.6388,9.3468-1.1746.3434-2.3834.5935-3.5918.7942-5.6387.9366-11.2847,1.8298-16.9247,2.759-7.8517,1.2936-15.6992,2.6118-23.5508,3.906-2.9499.4862-5.9019.9647-8.862,1.3827-.9171.1295-1.8752.1615-2.9472-.1059.7255-1.0891,1.7064-1.4544,2.6082-1.8397,3.4935-1.4928,6.9927-2.9789,10.5371-4.3448,9.4895-3.6569,19.0577-7.1158,28.4906-10.9118,7.5448-3.0363,15.0015-6.3128,22.3795-9.7366,8.2059-3.8079,16.3303-7.8012,24.394-11.9028,7.8774-4.0068,15.4584-8.557,22.9338-13.2697,4.2106-2.6544,8.4065-5.3421,12.4869-8.1898,2.5797-1.8004,4.9449-3.9102,7.3855-5.9067,1.3416-1.0975,1.9116-2.5124,1.6607-4.2653-.295-2.0614-.6216-4.1086-1.4924-6.1798ZM251.1578,180.8616c2.559-1.6255,4.8534-2.9952,7.0488-4.5084,1.4468-.9973,2.8201-2.1279,4.1015-3.3317,1.5157-1.424,1.8629-3.1607.9771-5.1229-1.4415-3.1932-3.3036-6.1288-5.5207-8.8192-1.339-1.6248-2.998-2.9029-5.1524-3.365-.9736-.2088-1.9023-.2073-2.8141.2502-2.2128,1.1104-3.9603,4.3626-3.6989,6.8435.3259,3.0944.9037,6.1382,1.8935,9.0874.9675,2.8829,2.021,5.737,3.1652,8.9661ZM215.3579,195.951c0-.1921.0432-.3277-.0062-.3923-2.0389-2.6613-4.5848-4.6335-7.8754-5.4446-1.1045-.2722-2.3468-.545-3.406.2099-.8633.6152-1.7258,1.2732-2.4355,2.0517-.9265,1.0164-.6902,2.2693.5091,2.974.5852.3439,1.2729.5819,1.9438.7001,3.762.6625,7.5176.4228,11.2702-.0988ZM311.6917,180.3073c2.4692,2.2175,4.6909,4.202,6.8997,6.2011.9813.8881.9654.8928,2.2228.3131,3.0613-1.4113,6.1271-2.8126,9.1885-4.2235.1741-.0803.3253-.2105.7782-.5098-6.4668-.8772-12.5854-1.9293-19.0891-1.7809Z"/>
    <path class="cls-1" d="M20.1131,156.3963c.7066.8182.6775,1.6551.4531,2.5058-.5723,2.1701-1.2413,4.3175-1.7357,6.5047-1.4392,6.3669.0145,12.0675,4.0564,17.1654,2.7532,3.4724,6.2734,5.9624,10.1572,7.9546,5.5789,2.8617,11.5758,4.3508,17.7481,5.3018,4.9874.7684,10.0066,1.0309,15.0278,1.1057,4.1671.0621,8.34-.2408,12.5099-.3918,1.8719-.0678,3.7497-.0854,5.6131-.2549,4.6814-.4258,9.3663-.8421,14.0303-1.4199,4.1304-.5118,8.2449-1.1751,12.348-1.879,8.8084-1.5111,17.4789-3.6392,26.0608-6.1128,4.5221-1.3035,9.0142-2.7235,13.4714-4.234,2.0687-.7011,4.063-1.6622,6.0157-2.6539,1.9807-1.0059,2.22-1.7555,1.5845-3.9113-.6576-2.2311-1.7674-4.2533-3.0531-6.1679-1.8501-2.7553-3.745-5.4868-6.1995-7.7604-.558-.5169-.8255-1.0844-.7295-1.8433.2678-2.1176.4788-4.2432.7878-6.3546.3477-2.3757.7365-4.7472,1.189-7.1049.2451-1.2769.6857-1.4585,1.7145-.635.9498.7602,1.8229,1.6592,2.5711,2.6206,2.9678,3.8137,5.6258,7.8193,7.3292,12.3883,1.8016,4.8325,2.6285,9.7945,2.0471,14.949-.1852,1.6422-.3225,3.2961-.6262,4.9177-.9065,4.8408-3.1947,8.7291-7.5048,11.4308-4.8986,3.0705-10.172,5.238-15.602,7.0826-11.6225,3.9482-23.6009,6.5059-35.622,8.8304-5.656,1.0937-11.4014,1.7296-17.1105,2.5434-7.4814,1.0665-15.0219,1.4901-22.5601,1.4447-8.345-.0502-16.6728-.6351-24.7897-2.852-6.3592-1.7368-12.3652-4.2091-17.4668-8.5123-5.2399-4.4199-8.3642-10.0367-9.5447-16.7933-1.0482-5.9993.1131-11.7045,2.1689-17.2776,1.0905-2.9561,2.4188-5.8278,3.7247-8.699.3539-.7779.7405-1.6973,1.936-1.8874Z"/>
    <path class="cls-1" d="M267.5978,114.378c-2.3528,4.2493-4.6754,8.444-7.0807,12.7881-4.9406-2.8881-9.7189-5.6813-14.6055-8.5379-2.0528,3.5921-4.0101,7.0171-6.0632,10.6097-5.0955-2.7823-9.9434-5.7579-15.0597-8.7333,2.4518-4.4006,4.8056-8.6254,7.2533-13.0185,4.9214,2.8957,9.6958,5.7049,14.6228,8.6038,2.016-3.5874,3.9718-7.0678,5.9096-10.5161,1.3522.3484,13.7009,7.5738,15.0234,8.8042Z"/>
    <path class="cls-1" d="M330.4293,246.6529c1.9638-3.543,3.8642-6.9717,5.8463-10.5477,4.0188,2.3556,7.9315,4.6491,11.9609,7.011,1.6691-2.9378,3.2993-5.807,4.969-8.7459,4.103,2.4062,8.0599,4.7266,12.1481,7.1241-1.9506,3.5307-3.8476,6.9644-5.8259,10.5451-3.9996-2.3441-7.9106-4.6362-11.9764-7.0191-1.6634,2.9337-3.2714,5.7699-4.9612,8.7503-4.0696-2.3819-8.0551-4.7147-12.1609-7.1178Z"/>
    <path class="cls-1" d="M321.2715,106.9603c-.7219-.82-1.5766-1.0231-2.3904-1.1555-2.32-.3775-4.6466-.7818-6.9868-.9506-3.0923-.2231-6.1997-.2471-9.3014-.3233-.7707-.019-1.5445.0902-2.5719.1571.265-.6083.3618-1.0141.5893-1.324,1.9628-2.6731,3.9478-5.3299,5.9295-7.989.544-.73,1.2703-1.0215,2.1865-1.1495,3.8169-.5336,7.5949-.1676,11.3408.488,2.4713.4325,4.8942,1.1434,7.3364,1.7389.3628.0885.7217.2066,1.0678.347,1.7588.7132,2.5801,2.1176,2.1505,3.9699-.226.9746-.611,1.9557-1.1267,2.812-2.1211,3.5221-4.8649,6.5121-8.1088,9.0315-1.7764,1.3796-3.9269,1.9569-6.0446,2.5062-3.631.9418-7.3363,1.4906-11.0886,1.658-.5919.0264-1.4527.3121-1.6254-.5367-.1675-.8234.7212-.9333,1.2719-1.1878,5.2971-2.4479,10.6014-4.8805,15.9006-7.3239.4718-.2175.9227-.4802,1.4712-.7681Z"/>
    <path class="cls-1" d="M329.4121,135.5158c-.3211-2.061-.0192-3.7415.7637-5.2827.2757-.5426.9798-.9719,1.5837-1.2277,6.9989-2.9646,13.9769-5.9844,21.0376-8.7958,10.7446-4.2782,21.6487-8.1257,32.6745-11.6224.5005-.1587,1.0097-.2902,1.7469-.5007-.081.6757-.0654,1.2031-.2199,1.6748-.2151.6569-.5556,1.2731-.846,1.9051-.4216.9178-1.0804,1.5017-2.0684,1.8641-6.5833,2.4146-13.1446,4.8891-19.7168,7.3338-9.4338,3.5092-18.8583,7.0422-27.9911,11.295-1.8435.8585-3.644,1.8094-5.4688,2.7083-.4133.2036-.8458.3682-1.4955.6482Z"/>
    <path class="cls-1" d="M76.576,244.9839c2.4168-4.375,4.7126-8.5308,7.1242-12.8965,4.9812,2.9123,9.8396,5.7528,14.868,8.6928-2.2786,4.4003-4.7495,8.5454-7.1152,12.9478-5.016-2.9482-9.8793-5.8066-14.8771-8.744Z"/>
    <path class="cls-1" d="M257.3838,73.7657c-.9834-.5899-1.7551-1.0518-2.5258-1.5155-1.2521-.7533-2.3658-1.6594-3.1674-2.9026-.9568-1.4839-1.2355-3.0824-.6268-4.7515,1.0155-2.7846,2.7524-5.0537,5.116-6.8395.2536-.1916.5447-.3401.8329-.4782,2.3502-1.1264,3.9987-.4583,4.6775,2.0374.7858,2.889.7555,5.8179.0556,8.7337-.1221.5087-.2508,1.0159-.4109,1.6632,1.0735.3873,2.067.7397,3.0555,1.1053.4007.1483.7886.3306,1.1859.4885.6168.2451.8119.6766.5317,1.2755-.4079.8721-.8393,1.7334-1.2702,2.5945-.2872.5739-.7256.6905-1.3376.5008-1.5263-.4731-3.0665-.9012-4.6721-1.368-.786.9694-1.552,1.9207-2.325,2.8663-3.1837,3.8939-7.0674,7.0043-11.2313,9.7495-3.4808,2.2948-6.9614,4.6642-10.6946,6.4823-4.119,2.0059-8.5249,3.4237-12.8105,5.0854-.2259.0876-.4961.0611-1.0531.1206,1.189-1.2228,2.4204-1.859,3.6012-2.5292,4.2803-2.4295,8.6147-4.7643,12.8845-7.212,5.6735-3.2523,11.1063-6.87,16.0821-11.1293,1.404-1.2018,2.6631-2.5729,4.1024-3.9773ZM259.7048,69.333c.1784-1.631.4446-2.8321.4122-4.0251-.068-2.4998-1.514-3.5258-3.955-2.9932-1.0785.2353-1.8794.7486-2.1273,1.8933-.2564,1.1844.1265,2.1442,1.1644,2.7412,1.3339.7672,2.7191,1.445,4.5057,2.3838Z"/>
    <path class="cls-1" d="M63.6356,129.7433c.5737-.37,1.1311-.7685,1.7236-1.1055,4.5593-2.593,9.1448-5.1406,13.6847-7.7672,5.7066-3.3016,11.2223-6.8956,16.2497-11.1816,1.5392-1.3122,2.9441-2.7817,4.522-4.2854-.4404-.3111-.7242-.5074-1.0036-.7098-1.2944-.9374-2.6954-1.7607-3.8569-2.8411-1.9502-1.8142-2.2037-4.0934-1.1662-6.4813.9985-2.2982,2.6078-4.1572,4.4942-5.7832.1208-.1041.2581-.1908.3941-.2754,2.872-1.7881,4.81-1.0187,5.5269,2.2683.5887,2.6992.5389,5.414-.0967,8.1102-.1203.5104-.2423,1.0203-.3829,1.6121,1.7168.6714,3.3358,1.3045,4.9548,1.9376-.1685,1.5119-.9462,2.5528-1.5774,3.6522-.3404.5929-.912.4827-1.4314.3364-1.0812-.3044-2.1503-.6515-3.2259-.9761-.4021-.1214-.8082-.2291-1.2573-.3557-.7571.9537-1.4683,1.8841-2.2155,2.7848-3.6662,4.4196-8.2644,7.7375-12.9628,10.936-6.4158,4.3676-13.3436,7.6807-20.7256,10.0567-.4956.1595-1.0057.2743-1.509.4099-.0463-.114-.0926-.2279-.1388-.3419ZM101.9357,100.7228c.6894-1.5803.685-3.0663.5442-4.5416-.1281-1.3428-.8993-2.1406-2.0498-2.3365-1.7859-.3042-3.3173.2859-3.9057,1.505-.4966,1.0289-.372,1.9656.4736,2.7786,1.3793,1.326,3.1333,1.9192,4.9377,2.5946Z"/>
    <g>
      <path class="cls-1" d="M236.2873,56.3269c.4446.9869.0924,1.6761-.2432,2.337-.8902,1.7528-2.1413,3.2116-3.8122,4.2559-2.5517,1.5948-5.2825,2.8111-8.1248,3.8073-5.3096,1.861-10.0869-1.1388-12.1923-4.1278-.1779-.2525-.3574-.5038-.7643-1.0771-.2534,1.1785-.5063,2.0253-.6007,2.8893-.0872.7988-.3665,1.4452-.973,1.9489-.5339.4433-1.0511.9206-1.6362,1.286-3.6971,2.3084-6.4735-.1967-7.3085-2.9138-.1551-.5047-.2377-1.0316-.404-1.7723-.5756.2339-1.0527.3952-1.5009.6153-2.6889,1.3203-5.3194,2.7751-8.0697,3.9503-2.9499,1.2605-6.0219,2.2441-9.2361,2.6062-2.8373.3196-5.6741.2953-8.4062-.6813-2.2153-.7919-4.0719-2.1077-5.5082-4.0012-.6131-.8083-1.3116-1.5512-1.9437-2.3458-.5462-.6867-1.1512-.6801-1.834-.2486-1.9048,1.2037-3.4137,2.7502-4.1947,4.908-.5643,1.5591-1.0931,3.131-1.6468,4.694-.1427.4028-.2988.8035-.4838,1.1883-1.0767,2.2389-3.6956,2.5313-5.1398.4924-.6684-.9435-1.2018-2.0427-1.5397-3.1496-1.3199-4.3241-1.5775-8.7091-.4399-13.1287.0392-.1522.0304-.3168.0532-.5822-.3412-.1368-.6992-.2804-1.1164-.4477.1344-.1817.196-.3498.3134-.4112,1.8486-.9656,3.723-1.8831,5.5545-2.8798,3.2692-1.7791,6.1863-3.9998,8.5102-6.9429-2.0163-3.7968-4.4381-7.2219-7.3506-10.3114-3.1566-3.3484-6.2814-6.7276-9.3717-10.1373-1.4764-1.629-2.7338-3.4246-3.6168-5.466-.2026-.4684-.5504-.9257-.9453-1.249-.9299-.7614-1.289-1.6695-1.0176-2.8374.1759-.7566-.1604-1.6333.6869-2.4248,2.8907,1.7373,5.214,4.1976,7.9266,6.5543-1.1429.5662-1.9412-.258-2.9228-.1757.6324,1.4339,1.6926,2.4033,2.6268,3.4519,3.5937,4.0339,7.2313,8.0291,10.8059,12.0797.7728.8757,1.364,1.9141,2.0181,2.8915,1.1014,1.6456,1.6912,3.4463,1.6089,5.4465-.0131.3183.024.6408.0644.9579.0102.0803.1222.1477.304.3522.8835-1.0706,1.5266-2.2238,1.4015-3.5946-.1989-2.1775-.4795-4.3535-.8542-6.5078-1.162-6.6815-2.4092-13.3482-3.5623-20.0311-.2227-1.2905-.1868-2.6332.8406-3.7692.827.471.9015,1.2414,1.0654,1.9434,1.1546,4.9432,2.3133,9.8856,3.4382,14.8356.6866,3.0212,1.368,6.0452,1.9595,9.0859,1.3389,6.8825,6.0552,10.8736,12.717,12.0807,4.0523.7343,8.0685.5001,12.1299.0918,4.3825-.4405,8.6622-1.2901,12.8842-2.4954.5052-.1442,1.0001-.3241,1.643-.5343-.2932-1.6834-.5629-3.2986-.857-4.9093-1.3053-7.1473-2.5615-14.3044-3.9623-21.433-.4093-2.0827.3589-3.7289,1.0841-5.4649.1198-.0188.2396-.0377.3593-.0565.2044.51.478,1.0038.6022,1.5327.8547,3.6396,1.8067,7.2629,2.4816,10.9367,1.0225,5.5666,1.8429,11.1702,2.7569,16.7569.0768.4697.2125.9298.3529,1.5316.6039-.1662,1.1587-.2852,1.6905-.4706,3.8048-1.3265,7.451-2.9712,10.7898-5.2652.9426-.6476,1.4326-1.42,1.248-2.5503-.3697-2.2632-.6927-4.5374-1.1641-6.78-.8129-3.8678-1.7137-7.7174-2.5986-11.5698-.4871-2.1207.2857-3.8244,1.6876-5.6091.6009.688,1.0586,1.2509,1.5567,1.7756,1.8429,1.9412,3.6615,3.9075,5.5582,5.7951,3.8453,3.8265,6.2941,8.38,7.034,13.7497.4491,3.2592.1969,6.5189-.9915,9.6416-.3804.9993-.8109,1.9799-1.2316,2.9634-1.6814,3.9303-4.7649,5.9248-8.922,6.3683-1.4877.1587-2.9925.1504-4.4848.2753-.9536.0798-1.9099.2119-2.8436.4175-.7478.1647-1.0974.6867-.7369,1.4491,2.0182,4.2688,5.3334,7.1843,10.2737,5.6045,2.6586-.8501,4.8473-2.4607,6.9659-4.2036.4624-.3804,1.0154-.6505,1.5594-.9919ZM208.803,50.7131c-.8497.238-1.463.3945-2.0669.5813-6.7294,2.0822-13.5846,3.3631-20.6593,3.1998-3.1117-.0719-6.1713-.4675-9.1274-1.5297-4.1264-1.4827-6.9905-4.23-8.5631-8.3251-.1785-.4649-.4029-.9121-.7488-1.6875-1.4746,3.8817-2.9734,7.2871-5.7997,9.922-2.944,2.7448-6.7193,3.3063-10.4408,4.025-.2,1.1479-.4658,2.1905-.5498,3.2475-.2395,3.0171.0123,5.9838,1.2926,8.7781.5014,1.0944,1.1887,2.2064,2.5186,2.1977,1.4561-.0095,2.2318-1.1449,2.7295-2.3884.5361-1.3395.9745-2.7177,1.4898-4.066.8187-2.1421,2.0953-3.9713,3.9083-5.3867,1.8483-1.4428,3.2132-1.265,4.6684.5409.1675.2078.3168.4301.4824.6394,2.0235,2.5565,4.565,4.287,7.764,5.0881,3.6153.9054,7.1146.3122,10.5983-.6281,4.1085-1.109,7.9052-2.9598,11.6276-4.9795.9401-.5101,1.8807-1.0279,2.8582-1.4576.7329-.3222,1.1143-.0797,1.2532.706.1207.6823.1149,1.3899.268,2.0629.4497,1.9774,2.065,3.0728,4.035,2.7923,2.5101-.3573,3.9747-1.7811,3.7475-3.9266-.3249-3.0688-.8272-6.1189-1.2856-9.406ZM223.6003,20.3279c.117.6604.2002,1.1781.3013,1.6923.7417,3.7743,1.4754,7.5501,2.2365,11.3205.3325,1.6476.3494,3.2869.0325,4.9329-.5751,2.9871-2.3701,5.0686-4.8727,6.6619-2.726,1.7356-5.6835,2.9827-8.6527,4.209-.697.2879-1.25.598-1.0865,1.5025.5434,3.0061,1.1888,5.9851,2.5692,8.7383.3884.7747.7663,1.6184,1.653,2.0747.0349-.1855.0919-.2976.0659-.3848-.0916-.3068-.1941-.6129-.3239-.9054-1.4308-3.225-.5822-6.0585,1.5135-8.6566,1.0386-1.2876,2.36-1.9607,4.0784-1.7544,1.6426.1972,3.287.3079,4.9435.0215,3.5885-.6204,6.4646-2.2038,7.964-5.7145,1.827-4.2777,1.4864-8.4697-.6518-12.5194-2.2859-4.3293-5.932-7.5533-9.224-11.0591-.0607-.0646-.1944-.0606-.5462-.1595Z"/>
      <path class="cls-1" d="M135.7628,83.9836c.5785-.495,1.0084-.8696,1.4454-1.2356,1.1468-.9606,2.3494-1.8617,3.4359-2.886,3.8042-3.586,3.779-6.0817,2.3076-10.4138-1.7031-5.0142-3.522-9.9891-5.2346-15.0001-.7138-2.0883-1.0628-4.2336-.6821-6.47.4523-2.6569,1.758-4.669,4.1364-5.9665.187-.102.359-.2326.5333-.3564.0407-.0289.0622-.0848.1651-.2326-.8563-.7062-.9231-1.614-.5584-2.6539.4237-1.208.6694-2.4822,1.1419-3.6681.4679-1.1745.8971-1.387,1.9764-.7697,1.6129.9226,3.146,2.0062,4.6118,3.1508.428.3342.6973,1.1017.7203,1.6832.0846,2.1371-.5157,4.2561-3.1864,4.8634-1.4514.33-2.8424.9418-4.242,1.4757-.6957.2654-1.3999.567-2.0112.9831-1.2654.8614-1.8575,2.0509-1.3816,3.6018.737,2.4016,1.4451,4.8135,2.2491,7.1927,1.0961,3.2433,2.3732,6.4283,3.3848,9.6965,1.147,3.7055,1.2597,7.4894-.0569,11.1922-1.2569,3.535-4.3767,5.5977-8.1765,6.0775-.0865.0109-.1858-.0805-.5783-.264Z"/>
      <path class="cls-1" d="M199.5808,20.7003c.4561,1.885.2226,2.2404-1.3888,2.8513-3.3005,1.2513-6.6294,2.4417-9.8674,3.8405-4.175,1.8037-8.2716,3.7887-12.4042,5.6908-.4363.2008-.8734.4264-1.3348.5399-.6774.1665-1.022-.1535-.977-.8534.0566-.8798.5364-1.5078,1.2966-1.8971,1.3329-.6824,2.6541-1.4017,4.0341-1.9759,5.9765-2.4868,11.9688-4.9357,17.9656-7.3731.8261-.3357,1.7096-.5301,2.6759-.8231Z"/>
      <path class="cls-1" d="M195.3431,75.249c.5655-.933,1.0353-1.699,1.4957-2.4706.4066-.6816.9558-.825,1.6221-.4128,1.0827.6698,2.1516,1.3618,3.3696,2.1354-.6136,1.1525-1.1518,2.1807-1.707,3.1997-.3166.581-.7892.6752-1.352.3591-.9775-.5491-1.9518-1.1039-2.9836-1.6881-1.197.6973-.925,2.5085-2.3887,3.1746-1.0404-.6309-2.1571-1.2531-3.2129-1.9655-.8672-.5852-.9084-.9028-.5229-1.8989.0385-.0994.084-.1968.134-.2911,1.3057-2.458,1.3674-2.2608,3.4765-1.1616.6117.3188,1.2373.611,2.0692,1.0199Z"/>
      <path class="cls-1" d="M195.8419,44.0274c-.7248.9514-1.5715,1.6143-2.8321,1.5595-1.3998-.0609-2.3839-.7085-2.713-2.0444-.3914-1.5886-.207-3.1777.262-4.732.0354-.1175.2239-.1889.5368-.4365.1658.6046.2981,1.0807.4269,1.5577.194.718.333,1.4566.5951,2.1487.2066.5457.6918.8183,1.2989.6879.6718-.1442,1.0241-.5945.939-1.2757-.0855-.6843-.2714-1.3555-.3911-2.0363-.1526-.8681-.3724-1.7466.2612-2.918.3293.7037.5526,1.1471.7467,1.6029.376.8832.6754,1.8049,1.1197,2.6512.4021.7659,1.0684,1.1451,2.0812.7753-.1914-1.6419-1.5231-3.1917-.1837-5.0711.8329,1.8204,1.8343,3.4164,2.2923,5.2818.3875,1.578-1.5752,3.6866-3.3614,2.6735-.3164-.1795-.6825-.2716-1.0788-.4246Z"/>
      <path class="cls-1" d="M178.6698,21.4143c.1714-1.3961.2497-2.4478.4406-3.4786.213-1.1504.4042-2.3304.8271-3.4106.6922-1.768,1.7676-1.7731,3.0602-.4859.6787.6758,1.0828,1.6068.31,2.6981-.3863-.2566-.7333-.4769-1.0695-.7125-1.0046-.7039-1.7036-.4695-1.9358.757-.1782.9409-.2157,1.9123-.2665,2.8727-.0846,1.6009-.1233,3.2041-.1982,4.8056-.0119.2532-.1123.5022-.2469,1.0697-.3996-.4747-.678-.7348-.8712-1.0474-.7863-1.2717-1.5336-2.5676-2.3211-3.8385-.4804-.7753-1.037-1.2192-2.1111-.9288-1.0044.2715-1.6593-.2422-1.8591-1.2767-.1668-.864-.4496-1.833.348-2.5656.4961-.4557,1.4325-.1891,2.3616.8205.9007.9788,1.6538,2.0944,2.4589,3.1596.3084.4081.5814.8429,1.073,1.5614Z"/>
      <path class="cls-1" d="M191.7233,9.9288c.2775.6854.5348,1.0134.5114,1.3199-.0764,1.0009.454,1.5656,1.2007,2.0867,2.0316,1.4177,1.905,3.4109.9912,5.2674-.5849,1.1883-2.4805,1.9213-3.748,1.5491-.8921-.262-1.509-.8305-1.6816-1.7535-.1068-.5712-.1503-1.1747-.0958-1.7518.228-2.4161,1.5685-4.3452,2.8222-6.7177ZM192.0442,18.0292c.952-.0193,1.7123-.495,1.746-1.0924.0356-.6311-1.4229-1.9093-2.1482-1.8827-.6845.0251-1.2638.7837-1.2337,1.6154.0312.8597.6566,1.3795,1.6358,1.3597Z"/>
      <path class="cls-1" d="M151.3036,11.327c.3551.1525.7975.2326,1.0913.4854,3.7074,3.1902,5.9714,7.0677,5.6723,12.1357-.0479.8111-.1927,1.5733-1.1531,2.1934-.1168-.7312-.3138-1.3325-.2915-1.9256.1558-4.1462-1.6843-7.2824-4.8231-9.8054-1.2531-1.0072-1.3496-1.6518-.4959-3.0835Z"/>
      <path class="cls-1" d="M215.1124,79.5929c-.1573-.5857-.3073-.9146-.326-1.2508-.1481-2.6588-1.5358-4.5918-3.5442-6.183-1.0938-.8666-1.266-1.2838-.9583-2.1179.2664-.722.6649-.9101,1.3674-.5826.3345.1559.6351.3927.9336.6161,2.6056,1.9503,4.0158,5.8058,3.1011,8.5053-.0944.2784-.2914.5221-.5736,1.0128Z"/>
      <path class="cls-1" d="M182.7252,40.0876c.2177.4278.5035.7219.4536.939-.1876.8172-.3503,1.6895-.7706,2.3928-.6976,1.1672-2.099,1.1784-2.6919-.0323-.5487-1.1204-.9705-2.4061-1.03-3.6391-.0963-1.997.5645-3.8879,1.6972-5.5616.267-.3945.7019-.6753,1.0596-1.0084.0988.0687.1976.1373.2964.206-.0765.3288-.1352.6631-.2327.9856-.4605,1.524-.9838,3.0317-1.3725,4.5735-.1497.5936-.0698,1.2743.0392,1.8917.0551.3121.3813.7729.6327.8062.3488.0462.8004-.174,1.1008-.4141.305-.2438.4799-.6503.8181-1.1393Z"/>
      <path class="cls-1" d="M168.5738,71.2473c.1029,1.0802-.2398,1.8584-1.138,2.3304-2.2683,1.192-4.5444,2.3697-6.8324,3.5232-.2971.1498-.6831.1234-1.1265.1944-.1487-1.0401.03-1.8856.868-2.317,2.5588-1.3174,5.1609-2.551,7.7505-3.8081.0753-.0366.2001.0286.4784.0771Z"/>
      <path class="cls-1" d="M214.6797,13.1941c-.1903.5903-.3567,1.121-.5325,1.6487-.4198,1.2594-.9004,2.5023-1.2415,3.7825-.1588.5961-.1587,1.2876-.024,1.8896.0857.383.507.8829.8588.9596.3425.0747.8275-.2699,1.1755-.53.268-.2003.4207-.5548.6555-.884.7583,1.4079.3971,2.9485-.7736,3.6609-.8999.5476-1.7615.3462-2.3094-.5832-.8799-1.4926-1.1276-3.1658-.7819-4.7955.3157-1.4879.9953-2.9055,1.586-4.3243.1885-.4527.5049-.9594,1.387-.8243Z"/>
      <path class="cls-1" d="M210.2753,35.1852c-.1938-1.1108.0948-1.9614.8327-2.4299,2.4782-1.5736,5.1351-2.803,7.9158-3.9008.3946.9805.0794,1.6575-.6054,2.062-2.4405,1.4413-4.9174,2.8214-7.3901,4.2076-.1617.0906-.4039.0376-.7531.0612Z"/>
      <path class="cls-1" d="M146.461,45.6723c.5422.8756.0699,1.4108-.1077,1.9788-.189.6041-.4248,1.202-.5312,1.8212-.1279.7446.1467,1.3514.9766,1.7332.3683-.3988.7385-.7997,1.1445-1.2393.5455,1.4818.291,2.6783-.6915,3.5408-.7206.6326-1.4839.61-2.0725-.1606-.7657-1.0026-1.2236-2.1074-.9145-3.4287.3656-1.5624,1.0487-2.9279,2.1963-4.2454Z"/>
      <path class="cls-1" d="M178.863,60.6029c0-.626-.034-1.2544.0095-1.8774.0443-.6361.097-1.2858.2667-1.896.2937-1.0562,1.0625-1.7165,1.8613-1.7299.8447-.0141,2.0068.8584,2.2049,1.8178.1315.637.0249,1.3232.0249,2.3137-.611-.4626-.9349-.7014-1.2518-.9491-1.0354-.8093-1.6316-.6291-1.8553.6865-.1872,1.1012-.2069,2.2323-.2746,3.3518-.042.6936-.0132,1.3917-.0625,2.0846-.0166.2333-.1759.4565-.3726.9331-.3691-.478-.6417-.7642-.8367-1.096-.6228-1.0595-1.2114-2.139-1.824-3.2046-.364-.6333-.8004-1.1267-1.6595-.9695-.3005.055-.692.0242-.9395-.1309-.4669-.2926-1.071-.6278-1.2349-1.0831-.2665-.7403-.2301-1.608.3549-2.2759.4339-.4953,1.2361-.5206,1.8946.0449.6827.5862,1.2806,1.2843,1.8477,1.988.5298.6575.9706,1.3868,1.4505,2.0845.1322-.0308.2643-.0616.3965-.0924Z"/>
      <path class="cls-1" d="M231.9953,32.8923c-.2434.5672-.5138,1.1246-.7243,1.7038-.3806,1.0473-.774,2.0946-1.0614,3.1689-.116.4334.0076.9408.0671,1.4088.0727.5712.3512,1.0129.9597,1.1352.5908.1187.8385-.3026,1.1143-.7164.1956-.2935.4743-.5317.7688-.852.7522.7447.3909,1.4343.1369,2.1044-.545,1.4382-1.3088,2.1792-2.1242,2.0884-.8586-.0955-2.0628-1.3268-2.2517-2.479-.1275-.7777-.1562-1.6074-.0341-2.3832.3297-2.0954,1.3988-3.826,2.7118-5.4069l.4372.228Z"/>
    </g>
    <path class="cls-1" d="M314.8251,226.8265c.5693,1.1324.2416,1.9982-.031,2.8198-.4258,1.2835-1.2024,2.3136-2.3454,3.1087-2.6998,1.878-4.8847,4.2758-6.7155,6.9942-.4505.6689-.8355,1.3947-1.1575,2.1349-.7219,1.6595-.3042,2.5781,1.435,3.1404,1.7026.5504,3.4614.4799,5.2133.3135,2.4807-.2356,4.8793-.8446,7.2395-1.627.4675-.155.9595-.2356,1.5534-.1523-.1685.2181-.3136.4602-.509.6507-3.4972,3.4081-7.7998,4.6834-12.5506,4.5072-3.12-.1158-4.8185-2.4834-4.2494-5.5739.5918-3.2135,1.1198-4.3999,3.7363-8.378-.6484-.3853-1.3222-.7327-1.9382-1.1627-1.322-.923-1.6316-2.2258-1.2713-3.7331.0789-.3301.1809-.6646.3346-.9652,1.2267-2.3986,2.9061-4.419,5.0854-6.0141.1034-.0757.2073-.1555.322-.2103.6538-.3123,1.3114-.7322,2.0195-.142.6572.5477.9521,1.7989.5666,2.5498-.3829.7457-.8325,1.4573-1.3192,2.2986-.3666-.3326-.5796-.5161-.7816-.711-.7102-.6855-1.4465-.7405-2.1241-.0566-.4771.4815-.8733,1.0482-1.2716,1.6013-.374.5196-.2893.9934.1334,1.4983,1.1359,1.3571,3.8395,1.8425,5.1998.4781.5431-.5447,1.1419-1.0335,1.6919-1.5717.5456-.5338,1.0617-1.0977,1.7338-1.7974Z"/>
  </g>
</svg>