<?xml version="1.0" encoding="UTF-8"?>
<svg id="Yunus" xmlns="http://www.w3.org/2000/svg" viewBox="0 0 292.1635 293.7299">
  <defs>
    <style>
      

      @import url('../../CSS/SvgStyling.css');
      
       
    </style>
  </defs>
  
  <g class="content">

    <rect id="bg" class="bg" width="292.1635" height="293.7299"/>

    <path class="cls-1" d="M171.238,173.5515c-7.6468.2622-12.2288-3.7862-15.1212-10.3463-6.9326,8.0999-14.5011,14.5939-26.4022,12.2793,0,.8507.0165,1.682-.0027,2.5125-.1087,4.7053-.7325,9.3359-1.9904,13.8786-1.3982,5.0492-4.2166,9.1851-7.9133,12.8429-8.0712,7.9865-17.4467,14.1177-27.3968,19.4273-9.1758,4.8964-18.7903,8.6232-29.1035,10.3269-7.8961,1.3044-15.7649,1.3865-23.5597-.7447-10.2129-2.7924-17.1964-9.2917-21.4578-18.8311-2.5672-5.7467-3.6551-11.8387-4.026-18.1062-.3781-6.3902.2486-12.6628,1.63-18.8893.0661-.2981-.1944-.8945-.451-1.0037-2.699-1.1486-3.9078-3.3807-4.5322-6.0539-1.0488-4.4901-.729-9.0069-.1167-13.5028,1.3167-9.6693,4.9154-18.5367,9.6864-26.9728.3196-.5652.7493-1.0681,1.1277-1.6.1427.0626.2854.1251.4281.1877-.1387.6272-.243,1.2643-.4213,1.88-1.6851,5.8162-3.4658,11.6064-5.0497,17.4499-1.1776,4.3445-1.8982,8.7798-1.1361,13.3046.1726,1.0251.432,2.0689.8558,3.0123,1.2408,2.7619,4.2665,3.441,6.3237,1.2384,1.5223-1.6298,2.6149-3.66,3.9061-5.5069.3441-.4922.7146-.9659,1.073-1.4482.1335.0533.267.1066.4006.1599,0,.37.0805.7617-.0125,1.1067-.9332,3.4632-1.729,6.9762-2.9006,10.3583-.9479,2.7363-2.5317,5.1578-5.384,6.4175-.2517.1111-.5223.4572-.5627.7273-.6199,4.15-1.671,8.3015-1.7063,12.4604-.103,12.1343,8.1899,23.7737,19.5431,28.1733,6.8368,2.6494,13.929,3.1068,21.1206,2.439,21.2028-1.9688,39.7153-10.5706,56.5259-23.2275,2.5081-1.8884,4.7414-4.1442,7.0837-6.2501,2.4296-2.1845,2.8888-4.9274,2.4768-8.0549-.7956-6.0398-2.5148-11.8052-5.4372-17.1059-1.9892-3.6081-2.4885-7.0385-.8948-10.8453.6828-1.6309,1.0236-3.402,1.6123-5.077.2004-.5703.6837-1.0411,1.0377-1.5574.4502.4136,1.0154.7548,1.3297,1.254,1.0755,1.708,2.0191,3.4988,3.0919,5.2086,3.4214,5.453,8.4113,7.3451,14.7154,6.8142,6.1039-.514,10.639-3.3967,14.1995-8.1858,1.8564-2.4969,3.7911-4.9372,5.7454-7.3586.4951-.6134,1.1336-1.183,1.8243-1.551,1.298-.6914,2.6288.2786,2.3906,1.7365-.1878,1.1497-.5465,2.2758-.8847,3.3956-.6105,2.0218-.2251,3.796,1.0982,5.4447,2.2631,2.8197,5.1857,4.018,8.7477,3.6978,1.8348-.1649,3.2232-1.2328,4.4845-2.453,2.866-2.7728,4.6975-6.2431,6.4581-9.7527.6517-1.2991,1.232-2.6345,1.9026-3.9232.3929-.755.8953-1.6194,1.9173-1.3153,1.0429.3103,1.0549,1.2498.9875,2.2062-.1076,1.5251-.268,3.0726-.1254,4.5842.4132,4.3815,2.4148,6.6982,6.7105,7.5991,3.7798.7927,7.5643.5673,11.2271-.7541.7878-.2842,1.5525-.7023,2.2387-1.1853,2.6167-1.8416,3.0973-3.1245,1.8296-6.0475-1.7342-3.9987-3.7165-7.889-5.5325-11.8532-3.8288-8.358-6.1186-17.1667-7.6047-26.2092-.5211-3.1706-.6145-6.4588-2.4732-9.2866-.1846-.2808-.1804-.7992-.0681-1.1436.9006-2.7631,1.8464-5.5116,2.785-8.2622.0778-.228.1937-.4451.3099-.6575.8141-1.4896,1.37-1.6052,2.3095-.2478,3.5631,5.1481,7.0729,10.3334,10.5644,15.5305.442.658.7418,1.4447.957,2.2139.2988,1.0685-.2225,1.6257-1.2877,1.2988-1.1874-.3645-2.3091-.9453-3.4546-1.443-.353-.1533-.6902-.3428-1.3725-.6853.2297.9754.3362,1.632.5391,2.2573,2.0935,6.4533,4.3801,12.8507,6.2494,19.368,1.4206,4.953,2.6195,10.0123,3.3631,15.1052.8061,5.521-.637,10.8338-2.927,15.8881-1.3629,3.0079-3.0199,5.8425-5.6152,7.9546-6.1602,5.0136-15.623,3.558-20.0323-3.114-1.1655-1.7635-1.997-3.7478-3.0387-5.7395-.3119.7455-.6214,1.466-.9161,2.1925-1.1612,2.8621-2.4973,5.6598-4.6825,7.8658-1.3409,1.3536-3.0402,2.3505-4.5654,3.5247-.2897.223-.6722.4874-.7507.7986-1.195,4.7355-2.3846,9.473-3.4977,14.2282-1.1707,5.0012-2.1447,10.044-2.216,15.2026-.0973,7.0363,1.6674,13.3927,7.1892,18.1931,3.311,2.8784,7.3452,4.118,11.6176,4.7446,8.2806,1.2144,15.9889-.8431,23.4039-4.2257,12.6195-5.7568,23.7259-13.7852,33.9586-23.0751,4.2543-3.8623,8.4111-7.827,11.9046-12.4133,1.2893-1.6926,2.7015-3.4094,2.3868-5.7722-.1794-1.3466-.4756-2.6777-.7069-3.9486-3.0081.4048-5.8297.9164-8.6739,1.1378-4.8465.3772-9.6968.3941-14.4556-.8682-7.2789-1.9308-10.6062-6.6265-10.0457-14.116.5605-7.4881,3.6168-13.7544,9.1668-18.798,2.1525-1.9562,4.5706-3.4601,7.4653-4.0719,2.6895-.5685,5.2075-.1646,7.5751,1.262,4.4429,2.6772,7.645,6.5701,10.4587,10.7984,1.5408,2.3155,2.8487,4.789,4.2016,7.2245.3769.6783.7089.961,1.5004.6531,3.6028-1.4013,7.03-3.0984,9.8454-5.8138,1.6634-1.6043,1.7576-1.8769.7478-4.0079-1.2094-2.5521-2.5395-5.0502-3.8953-7.5291-2.5385-4.6412-5.2221-9.2054-7.664-13.896-1.0919-2.0972-1.8-4.4038-2.5763-6.6519-.4182-1.2112-.966-2.2004-2.2157-2.6902-1.1198-.4389-1.6217-1.2628-1.4635-2.4811.5769-4.4422,1.099-8.8923,1.7381-13.3255.2366-1.6413,1.0752-1.9293,2.293-.863,4.6528,4.0743,9.2758,8.1827,13.8962,12.2938.4486.3991.8486.8729,1.1906,1.3677.8547,1.2369.545,2.1167-.955,2.307-1.0979.1393-2.2415-.0739-3.364-.1427-.1988-.0122-.4041-.1504-.5882-.1201-.4131.0679-.9102.1026-1.1824.3559-.1436.1336.0256.7475.2034,1.059,1.1612,2.0351,2.4442,4.0044,3.5337,6.076,1.7474,3.3224,3.4451,6.675,5.0359,10.0748,1.7993,3.8455,2.434,7.8779,1.9724,12.155-.4703,4.358-1.0921,8.6478-2.707,12.7498-2.4016,6.1003-6.4791,10.6539-12.4311,13.4594-.8135.3835-1.1439.8187-1.2657,1.7723-1.3025,10.1931-4.693,19.4765-11.6828,27.284-9.3719,10.4683-19.5827,19.9741-31.2425,27.8541-7.2364,4.8905-14.8622,8.9991-23.4814,10.9322-5.3668,1.2037-10.7475,1.3556-16.0641-.2314-8.6345-2.5774-13.7269-8.7833-16.7571-16.8886-2.3203-6.2064-2.5198-12.6882-2.0733-19.2442.7075-10.3892,3.3363-20.2905,7.2288-29.8977.2525-.6232.5088-1.245.7938-1.9421ZM249.716,161.5749c-1.8291-2.4127-3.6235-4.3976-5.9312-5.8704-2.9733-1.8973-6.1165-1.787-9.2864-.674-1.6551.5812-2.1927,1.6721-1.9907,3.4204.1962,1.6989,1.4006,2.4876,2.8095,2.9926,2.8213,1.0112,5.7606,1.1304,8.711.8703,1.8237-.1608,3.6346-.4668,5.6879-.739Z"/>
    <path class="cls-1" d="M130.2848,98.1135c0,.6221.0244.9715-.0037,1.3166-.4145,5.088,1.8944,5.1706,5.3286,4.6147,3.1948-.5172,4.8545-2.3819,5.0713-5.7471.236-3.6636.306-7.3519.1862-11.0208-.1449-4.4386-.4756-8.8768-.8961-13.2989-.2977-3.1303-.8481-6.2385-1.3421-9.3475-.3356-2.1122.1596-4.048,1.0553-6.3253.3235.6788.5534,1.0304.6655,1.4162,1.4933,5.1409,2.3664,10.3938,2.6885,15.7315.3675,6.09.5752,12.1912,1.0403,18.2731.1514,1.9796.8473,3.9272,1.3944,5.861.1597.5645.6653,1.0312,1.0124,1.5427.111-.045.2219-.09.3329-.135-.0643-.3592-.0826-.7342-.1998-1.0753-1.9682-5.7249,1.4276-13.2994,9.7777-12.9085,3.2257.151,6.0377,1.3677,8.4939,3.4348.2554.2149.4506.5014.6737.7547-.0499.0983-.0999.1965-.1498.2948-.4721-.0946-.9568-.1482-1.4143-.2901-4.856-1.506-9.4909-.7573-14.0148,1.311-.9846.4501-1.308,1.0806-1.1874,2.1864.4989,4.5725,4.4225,8.7207,8.6615,8.7355,1.5122.0053,3.1663-.4097,4.5092-1.1072,2.3151-1.2025,4.4388-2.774,6.6392-4.1964.46-.2974.9043-.6191,1.644-1.1277-.2252,2.007-.7444,3.6473-1.9167,4.7332-3.4084,3.1571-7.2383,5.6324-11.87,6.7538-5.8812,1.4239-12.2561-1.7306-14.4035-7.235-.1954.6945-.3338,1.2071-.4837,1.7162-1.0482,3.56-3.9857,5.9702-7.5577,6.2042-2.772.1815-4.6692-1.0466-5.6014-3.6525-.2299-.6426-.3968-1.3078-.6373-2.112-.6282.2524-1.2162.466-1.7858.7208-9.8889,4.4232-20.2891,6.9695-30.9801,8.4519-7.3932,1.0251-14.8242,1.332-22.2501.6607-3.8006-.3436-7.5747-1.115-11.3197-1.8913-2.5242-.5232-4.4009-2.1222-5.6904-4.3841-.5198-.9117-1.107-1.7853-1.6714-2.6712-.5937-.9319-1.3978-1.1257-2.4085-.7133-1.9476.7947-3.2001,2.3331-4.157,4.0837-.8686,1.5889-1.5006,3.3059-2.2656,4.9531-.5608,1.2075-1.079,2.4479-1.771,3.579-2.2165,3.6233-5.2358,3.5425-7.3142-.1932-1.46-2.6242-2.0734-5.4909-2.2434-8.4762-.0309-.5432-.3684-1.0689-.5925-1.6793-1.0714.8284-1.8446,1.5536-2.7322,2.0891-2.9238,1.7638-6.074.8836-7.7513-2.0995-1.2067-2.1462-1.5968-4.4935-.8961-6.796.924-3.0363,2.1946-5.9672,3.3171-8.9431.0997-.2643.2058-.5261.3089-.7891.1902.124.3804.248.5706.3719-.1489.618-.2646,1.2464-.4526,1.8523-.7534,2.4281-1.5615,4.8397-2.2767,7.2787-.2118.7222-.2618,1.5151-.2543,2.2743.0325,3.2834,2.1709,4.7537,5.186,3.3956,1.4022-.6316,2.6908-1.6351,3.8398-2.6801,1.5508-1.4104,2.9375-3.0049,4.3594-4.5527,4.5028-4.9012,9.8374-8.5986,15.99-11.125.1801-.0739.3494-.1741.6003-.3006-.2906-.6209-.5674-1.1945-.8292-1.775-.6821-1.5126-.7785-3.0571-.0881-4.5791.9145-2.0161,3.14-3.0817,5.1483-2.0583,2.1258,1.0834,4.0399,2.6072,5.9644,4.0482.7777.5823.8888,1.491.6513,2.5274-.4383,1.9126-1.1387,3.3962-3.3782,3.638-.8659.0935-1.691.5285-2.5462.7663-.8595.2389-1.6376.4754-1.4392,1.6605.0356.2129-.3138.4903-.4854.738-.2256-.1855-.4778-.3477-.6685-.564-.1519-.1722-.2287-.4106-.4043-.7437-3.9827,1.5646-7.9535,3.1174-11.2528,5.8266-2.6761,2.1975-5.0859,4.7242-7.5527,7.1665-.4068.4028-.6823,1.1152-.7064,1.6974-.1135,2.7465-.2179,5.5224.9635,8.1041.3408.7448.8627,1.4962,1.4967,1.998,1.1438.9054,2.626.7488,3.608-.3747.7055-.8072,1.2656-1.7706,1.7527-2.734,1.2021-2.3775,2.1484-4.9038,3.5377-7.1609,1.0365-1.6839,2.4591-3.2113,3.9721-4.5005,1.9355-1.6491,3.2962-1.3489,4.7756.7092.8476,1.1793,1.5925,2.4334,2.3647,3.6657.7839,1.251,1.8227,2.2071,3.2847,2.5042,2.9609.6017,5.9198,1.2792,8.9141,1.6368,6.2358.7448,12.5081.7896,18.7644.2742,13.8017-1.1368,27.3196-3.499,39.9201-9.6374.3515-.1712.7271-.2928,1.3771-.551ZM53.9702,82.6277c.4431.8339.8334,1.5686,1.2741,2.3979,1.1892-.441,2.2862-.8478,3.4488-1.2789-1.1964-1.3951-2.8051-1.7594-4.7229-1.119Z"/>
    <path class="cls-1" d="M94.9884,82.5716c0,.3842.0215.7699-.0034,1.1525-.2057,3.1651,1.5042,4.7657,4.7024,4.4011,2.1725-.2477,4.0315-1.1481,5.5433-2.7187,1.0869-1.1291,2.1202-2.3097,3.1774-3.4673.1338.0799.2676.1598.4014.2396,0,.3917.0949.8132-.0168,1.17-.4319,1.3801.0278,2.4882,1.0285,3.3791,1.0466.9316,2.2808.6773,3.4391.2495,1.7691-.6534,2.7973-2.1272,3.7788-3.6279.4294-.6565.8638-1.3098,1.296-1.9646.129.0203.2579.0407.3869.061.0776.5154.2041,1.0289.2248,1.5465.1159,2.9016,1.8904,4.2339,4.7022,3.5056,2.6516-.6867,3.5671-1.8224,3.4072-4.6922-.3865-6.9385-.8679-13.8718-1.3067-20.8074-.2678-4.2337-.3622-8.4878-.8645-12.6932-.2329-1.95-.3872-3.7239.5864-5.4694.1872-.3357.361-.679.6299-1.1867.289.4395.5093.6764.619.9565,1.0599,2.7066,2.124,5.4121,3.1266,8.1401.1772.4821.0757,1.0666.1029,1.6038-.4821-.2124-.9655-.4218-1.4452-.6395-.1049-.0476-.1963-.1248-.4363-.281.1826,2.8713.3667,5.6273.5315,8.3844.3759,6.2911.8808,12.5788,1.0592,18.8756.1025,3.6164-.5872,7.1893-2.8234,10.2242-2.891,3.9235-7.0804,3.5761-9.3365-.7351-.1263-.2413-.2702-.4733-.4874-.8517-.4404.7629-.7787,1.4366-1.197,2.0562-.9724,1.4402-2.1138,2.6684-3.9918,2.8606-2.2364.2288-3.7417-.6349-4.6417-2.6882-.2216-.5056-.4086-1.0265-.612-1.5417-.9559.9065-1.826,1.7916-2.7595,2.604-1.782,1.5509-3.7512,2.7254-6.2386,2.4191-2.6974-.3322-3.7264-1.3281-4.3076-3.9831-.0761-.3475-.1424-.6971-.2772-1.3603-.8304.8524-1.5296,1.5285-2.1812,2.2476-1.4045,1.5499-2.9789,2.8403-5.0078,3.493-4.5034,1.4485-7.8872-.5081-8.8563-5.131-.0736-.3508-.1255-.706-.3703-1.0878-.3163,1.0817-.6028,2.1732-.9543,3.2434-1.4127,4.3015-4.2423,7.3544-8.4824,8.8535-2.8026.9908-5.7609,1.5442-8.6569,2.2639-.2966.0737-.6436-.0558-.9673-.0911-.0247-.1036-.0495-.2071-.0742-.3107.3077-.2161.6035-.4519.9248-.6453,2.9079-1.7504,5.8731-3.4127,8.7114-5.2692,1.6763-1.0964,3.2071-2.4388,4.6859-3.7984.4054-.3727.5671-1.2159.5351-1.8272-.3035-5.7887-3.2115-10.3099-7.1273-14.3077-4.1578-4.2447-8.4049-8.4046-12.478-12.7287-1.8475-1.9613-3.3706-4.2283-5.0376-6.3592-.3735-.4774-.6534-1.0659-1.113-1.4315-2.0155-1.6033-.9015-3.665-1.1603-5.5214.1578-.1051.3156-.2102.4735-.3153,2.4934,1.9127,4.9869,3.8255,7.4803,5.7382-.0648.1302-.1296.2603-.1943.3905-.5955.1095-1.1911.219-2.0523.3773.4198.5489.663.9439.9788,1.2682,4.1455,4.2569,8.2925,8.5125,12.4574,12.7504,2.812,2.8613,5.5158,5.7982,7.402,9.3911,1.4376,2.7384,2.0612,5.5854,1.3618,8.6568-.0937.4115-.0588.8524-.0835,1.2796.149.0464.2981.0928.4471.1393.5205-1.3849,1.2265-2.7324,1.5155-4.1641.3809-1.8866.6445-3.8453.5899-5.7625-.1794-6.2983-.5232-12.5919-.8138-18.8869-.0145-.313-.1226-.6217-.234-1.1586-3.885,1.5134-7.6831,2.9929-11.5176,4.4866-.3834-2.6641.3377-3.9659,2.5468-4.7984,2.6078-.9827,5.2126-1.9743,7.8369-2.911.6138-.2191.8234-.4775.7015-1.1323-.2583-1.3875-.4358-2.79-.6571-4.1846-.3488-2.1987-.0486-4.2993.9925-6.3446,1.5343,3.2146,1.8979,6.7169,2.6227,10.3029,4.2571-1.5732,8.4468-3.1216,12.6366-4.6698,4.1399-1.5298,8.2798-3.0594,12.5022-4.6196.0819,1.9067-.9162,3.5194-2.3544,4.0723-7.0478,2.7095-14.0926,5.4268-21.1552,8.097-.9098.344-1.1851.7774-1.1297,1.7662.3866,6.8979.6824,13.8009,1.0423,20.7005.0904,1.7322.1991,3.4765.4913,5.1823.585,3.4164,2.2529,4.4927,5.6667,3.884,2.0043-.3574,3.7722-1.1673,5.2585-2.5665,1.0007-.942,1.9783-1.9093,2.9975-2.8307.4327-.3911.9455-.6936,1.4219-1.0363.1267.0616.2534.1232.3802.1848Z"/>
    <path class="cls-1" d="M222.7016,108.0988c.4708-.383.9038-.8287,1.4183-1.1395,5.3255-3.2161,10.6786-6.3866,15.9951-9.6175,5.1495-3.1295,10.2248-6.3696,14.5763-10.6015.1722-.1675.4116-.2659.7554-.4818-.4436-.3552-.6662-.5559-.9107-.725-.7968-.5508-1.6402-1.0413-2.3964-1.6422-3.2048-2.5469-3.8587-5.3261-2.0133-8.9876,1.4457-2.8684,3.7064-4.9988,6.5975-6.3666,3.0862-1.4601,5.4844.0733,5.7024,3.5112.1738,2.7404-.2636,5.4057-1.0558,8.0071-.293.9619-.0396,1.4396.7622,1.9761,3.3674,2.2534,3.4763,2.8683,1.3634,6.2957-.4169.6763-.8511,1.3419-1.2961,2.0421-1.161-.8479-2.2334-1.6157-3.2878-2.4073-.5747-.4315-.9698-.3133-1.4149.2346-7.3057,8.9916-16.9256,14.445-27.7193,18.1039-1.8733.635-3.7204,1.3472-5.5914,1.9892-.4083.1401-.8675.132-1.3032.1922-.0605-.1277-.1211-.2553-.1816-.383ZM257.8801,79.7903c.1385-.0768.277-.1536.4155-.2305.0402-.8652.1431-1.7329.1091-2.5952-.1123-2.8536-1.4555-3.5865-3.9009-2.168-1.2963.752-1.4546,1.5605-.2778,2.5335,1.1262.9311,2.429,1.6487,3.6541,2.4602Z"/>
    <path class="cls-1" d="M137.6915,221.8548c2.4806-2.5321,4.6875-4.9554,7.0895-7.1668,1.2523-1.153,2.7592-2.1282,4.31-2.8353,2.3647-1.0782,4.016-.067,4.5264,2.4748.4432,2.2075-.302,3.9276-2.195,5.0668-1.0179.6125-1.4523.4435-1.7359-.6779-.0791-.3127-.1391-.6306-.2288-.94-.5513-1.9-1.3964-2.369-2.9542-1.1503-2.1162,1.6555-4.1169,3.5138-5.9073,5.5174-2.4406,2.731-5.0775,5.1761-8.0981,7.2503-3.5813,2.4593-7.6116,3.3841-11.8279,3.9147-7.3496.925-14.4813-.4451-21.6163-1.8648-.4584-.0912-.8844-.3449-1.3254-.523.0174-.1494.0348-.2988.0523-.4482.47-.0738.939-.2045,1.4101-.2127,5.5753-.0966,11.1567-.0487,16.7248-.2984,4.3846-.1966,8.7516-.7704,13.129-1.1463,3.1475-.2703,4.6957-2.0606,5.0733-5.0949.3631-2.9176.828-5.8228,1.1792-8.7417.1058-.8796-.0099-1.7284-1.3568-1.4633-.3285.0646-.9627-.2811-1.1019-.5952-.5944-1.3415-1.1389-2.7201-1.5085-4.1356-.0934-.3579.4243-1.0538.8378-1.3309,1.0688-.7163,2.2337-1.2898,3.365-1.9118.7067-.3885,1.286-.2198,1.8351.3616,1.4575,1.5431,2.1419,3.3884,2.2459,5.4781.1572,3.1586-.5523,6.1743-1.5118,9.1486-.1213.376-.2341.7549-.4102,1.3247Z"/>
    <path class="cls-1" d="M61.3045,154.2388c4.9309-3.7541,10.8817-5.8622,15.9133-9.4538.0011-.1526.0023-.3053.0034-.4579-1.2208-.2267-2.4368-.6134-3.6633-.6499-3.5094-.1045-7.023-.0814-10.5349-.0794-1.9374.0011-2.3297-.5652-1.4295-2.3348.603-1.1852,1.2926-2.3321,2.0167-3.4486,1.0459-1.6126,2.6686-2.497,4.4961-2.4915,4.3919.0131,8.7847.223,13.173.4366.8185.0398,1.6527.3897,2.4189.7324,1.287.5755,1.72,1.4414,1.0072,2.6212-1.456,2.4098-3.0699,4.73-4.7113,7.0208-2.4517,3.4218-5.9609,5.2064-9.9423,6.2447-2.5384.6621-5.0498,1.4273-7.5766,2.1344-.3232.0904-.6665.1088-1.0005.1606-.0568-.1449-.1136-.2898-.1704-.4347Z"/>
    <path class="cls-1" d="M221.2839,63.4467c.6773-2.8844,1.2061-5.6088,1.9749-8.2638.6347-2.1919,1.4027-4.3747,2.396-6.4237.7368-1.5199,1.9389-2.9644,3.8735-2.879,1.9998.0882,2.8587,1.7916,3.7079,3.3033.7301,1.2996.3142,3.8499-.7667,4.8659-.2192.2061-.8304.2414-1.1065.0843-.4366-.2485-.7351-.7339-1.1054-1.1056-1.6215-1.6275-2.7748-1.5326-3.6771.596-.8597,2.0282-1.4537,4.1839-2.0043,6.3248-.7328,2.849-1.2459,5.7547-1.9834,8.6024-.3456,1.3342-.8476,2.6841-2.294,3.6622-.2025-.5689-.4168-.9846-.4967-1.4246-.7934-4.371-2.4484-8.4348-4.4243-12.3781-.7045-1.406-.8358-1.3292-2.348-.7929-1.7749.6294-2.8653-.6895-3.9796-1.7045-.9061-.8253-1.7884-1.7821-1.0266-3.151.6849-1.2308,1.4499-2.4188,2.2179-3.6009.4421-.6804,1.0503-.8552,1.8885-.6455,1.6932.4237,2.9668,1.4177,4.0734,2.6892,2.4032,2.7611,3.5565,6.1076,4.4519,9.5707.211.8161.3875,1.6412.6288,2.6709Z"/>
    <path class="cls-1" d="M143.4364,270.9839c.6055-2.5754,1.1127-5.0081,1.7605-7.4027.546-2.0183,1.1101-4.056,1.9457-5.9627.516-1.1773,1.4321-2.2648,2.4052-3.1248.6099-.539,1.7303-.9373,2.4984-.7835,3.1336.6271,4.6755,5.6485,2.6041,8.0807-.4127.4846-.7764.522-1.2094.1021-.3767-.3653-.7313-.7534-1.1012-1.1259-1.5628-1.5736-2.77-1.4846-3.6026.5806-.929,2.3043-1.5722,4.7344-2.2022,7.1457-.6621,2.534-1.1035,5.1255-1.7605,7.661-.2584.9971-.7923,1.9366-1.298,2.8485-.1899.3424-.6556.5318-.9955.7909-.1922-.363-.498-.7079-.559-1.0917-.6481-4.0718-2.2257-7.8243-3.9176-11.5373-.2829-.6209-.6687-1.1955-1.0151-1.7868-.3575-.6104-.8324-.7394-1.3986-.2835-.9127.7349-1.8017.4877-2.6924-.0335-.1044-.0611-.2083-.1235-.3085-.1911-3.1067-2.0973-3.3371-3.1622-1.3685-6.3193.064-.1026.122-.2091.1873-.311,1.5573-2.4284,2.5854-2.6868,4.9868-.9924,2.8648,2.0214,4.3897,5.0044,5.4633,8.2324.5825,1.7513,1.023,3.5499,1.5778,5.5043Z"/>
    <path class="cls-1" d="M115.599,25.9904c1.1981-2.423,2.1743-4.5911,3.3296-6.6591.661-1.1832,1.5209-2.2915,2.4576-3.2752,1.1729-1.2319,2.4329-1.4664,3.3523-.889,1.2192.7656,2.0783,2.9465,1.6646,4.2641-.0962.3063-.2294.6062-.3831.8885-.8924,1.639-1.3854,1.663-2.3647.1284-.8675-1.3594-1.8005-1.4792-2.7441-.1837-.8259,1.1339-1.5126,2.3841-2.1432,3.6418-.9951,1.9847-1.8581,4.0354-2.8435,6.0252-.5454,1.1013-1.2254,2.1361-2.5745,2.9061-.0833-.6323-.1311-1.0066-.1821-1.3804-.4349-3.1881-.86-6.3775-1.3128-9.563-.1148-.8077-.5176-1.0822-1.4364-.9813-.6041.0663-1.3405-.3775-1.8957-.7668-.5081-.3563-.8525-.9461-1.3342-1.5093-.373.4022-.7488.8009-1.1175,1.2061-4.6455,5.1047-10.7817,7.2189-17.2867,8.5272-2.4107.4848-4.8674.747-7.3087,1.0678-.3767.0495-.7839-.1322-1.177-.2069.3112-.297.5712-.7367.9413-.8698,5.8523-2.1033,11.7377-4.1159,17.5754-6.2583,3.8807-1.4242,7.3279-3.5252,9.9835-6.8203,1.4595-1.8109,2.3062-1.7726,3.8796-.0216,1.8402,2.048,2.4188,4.6093,2.698,7.254.1099,1.0415.1367,2.0918.2221,3.4755Z"/>
    <path class="cls-1" d="M270.8391,208.3084c.725-1.4279,1.4898-2.8843,2.2069-4.3638.4736-.9772,1.0585-1.2029,1.9897-.5461,2.0109,1.4184,4.0446,2.8048,6.0812,4.1862.7988.5419,1.0309,1.2669.6186,2.0941-.9514,1.9088-1.9683,3.7851-2.9615,5.6731-.3894.7403-.8696.6407-1.4746.2208-2.1801-1.5129-4.3831-2.9929-6.6246-4.5174-.9067,1.6591-1.7437,3.1679-2.5572,4.6892-.3774.7057-.7858.9136-1.5227.396-2.2131-1.5544-4.4804-3.0323-6.6745-4.6122-.296-.2131-.5297-.9437-.3914-1.2586.8753-1.9935,1.8732-3.9328,2.8103-5.8997.468-.9823,1.1046-1.0089,1.9311-.4515,2.1648,1.4601,4.3413,2.9029,6.5688,4.3898Z"/>
    <path class="cls-1" d="M223.1927,247.5911c-.3308-3.64,2.0677-7.3164,5.0329-7.9349,3.0545-.6372,5.0991.9224,5.3442,4.0571.1905,2.4368-.4744,4.6816-1.563,6.8108-2.4823,4.8553-6.0172,8.7735-10.6041,11.7337-.1019.0657-.2092.1256-.3202.1739-.0524.0228-.1196.0118-.235.02-.4696-.6536.0926-1.0547.4302-1.4543,1.6024-1.8962,3.2886-3.7245,4.8314-5.6673,1.0242-1.2897,1.8665-2.7253,2.7678-4.1101.2148-.3301.3809-.7054.4995-1.082.3726-1.1839.5344-2.4107-.4279-3.3689-.9145-.9105-2.1086-.6851-3.214-.3766-.5499.1535-1.0451.5005-1.5681.7538-.2889.14-.5838.2672-.9737.4447Z"/>
    <path class="cls-1" d="M84.5366,253.8117c.657,3.2277-1.1272,6.7585-3.7219,7.6064-2.6729.8734-4.6589-.321-5.189-3.1046-.4121-2.1639-.039-4.2405.7251-6.2556,1.7424-4.595,4.5205-8.4551,8.3358-11.5612.0848-.069.1749-.1332.2696-.1875.0447-.0256.1059-.0224.2085-.0412.4854.5389.0216.9539-.2413,1.3453-1.2474,1.8573-2.5767,3.6621-3.7661,5.5552-.7896,1.2567-1.4018,2.6261-2.072,3.9559-.1597.3169-.2713.6696-.3402,1.0187-.2165,1.0974-.2398,2.2123.7172,2.9752.9094.7249,1.9567.4048,2.9162.0188.4774-.192.8866-.5518,1.3299-.8306.2449-.154.4965-.2972.8281-.4948Z"/>
    <path class="cls-1" d="M133.7131,98.1246c0-.838.012-1.4217-.0019-2.0049-.1156-4.877-.1419-9.7585-.3797-14.6296-.2676-5.4822-.7313-10.9547-1.1019-16.432-.2561-3.7845-.2421-7.6117-.8494-11.3383-.3335-2.0464-.0108-3.7099.797-5.4428.1108-.2378.2877-.4448.6062-.9266,1.6756,3.6159,2.9869,7.0959,4.0926,10.653-.1163.0908-.2326.1815-.3489.2723-.5399-.2417-1.0798-.4834-1.8715-.8378.1597,2.5585.2979,4.9156.4556,7.2715.4962,7.4106,1.0955,14.8161,1.4569,22.2332.1616,3.316-.5066,6.5901-1.7395,9.7089-.1475.3731-.3433.7286-.5388,1.08-.0497.0894-.1845.1315-.5766.393Z"/>
    <path class="cls-1" d="M121.3211,49.6498c.0018,1.8718-.9559,3.4152-2.328,3.9495-11.9265,4.6436-23.8547,9.2826-35.7845,13.9178-.3636.1413-.749.2264-1.1326.3401-.4106-2.2953.5013-3.9526,2.5377-4.71,11.4685-4.2656,22.9385-8.5271,34.4113-12.7811.7302-.2708,1.4883-.4664,2.296-.7163Z"/>
    <path class="cls-1" d="M43.9365,79.0465c-2.3216-1.5486-2.2801-1.5089-4.1691.4634-3.735,3.8998-8.2888,6.5143-13.3441,8.3114-1.1022.3918-2.1899.8252-3.2967,1.2032-.5138.1755-1.0572.2644-1.5871.3925-.0661-.1142-.1322-.2284-.1982-.3427.4011-.3145.7762-.6711,1.2073-.9368,4.3294-2.669,8.6993-5.2742,12.9876-8.0074,1.5492-.9874,2.9091-2.2719,4.453-3.4985-.7067-.4685-1.2535-.7896-1.7547-1.1707-1.971-1.4985-2.5069-3.4656-1.1197-5.5086.897-1.321,2.1759-2.5,3.5248-3.3678,1.7554-1.1293,3.3417-.1749,3.3942,1.9395.0346,1.3951-.2367,2.8014-.4189,4.1965-.0805.6163-.1797,1.1096.4441,1.5922,1.8046,1.3961,1.7894,1.4701.6925,3.4386-.2477.4445-.5416.8633-.8149,1.2951Z"/>
    <path class="cls-1" d="M147.7732,39.806c.4359-.5881.8526-1.1918,1.3111-1.7617,2.1746-2.703,4.4445-5.3349,6.5008-8.1246.8079-1.096,1.4114-2.4926,1.6396-3.8321.3754-2.203-1.0506-3.3898-3.2297-2.8567-1.1077.271-2.1492.8128-3.5998,1.3807.2715-1.3105.4145-2.4329.743-3.4981.7297-2.366,2.104-4.1814,4.6478-4.8067,3.1292-.7692,5.6199.9595,5.6365,4.1718.0096,1.8532-.2386,3.8327-.9128,5.5416-2.2904,5.8057-6.3034,10.2731-11.4659,13.7287-.2783.1863-.6218.2752-.9349.4095l-.3357-.3523Z"/>
    <path class="cls-1" d="M181.2071,93.8761c-2.8961-1.9559-5.4144-3.6305-7.8886-5.368-.2498-.1754-.4326-.8221-.3078-1.0951.9561-2.0901,1.9957-4.1419,3.0104-6.2052.335-.6812.8019-.8507,1.4576-.3975,2.1573,1.4908,4.3217,2.9713,6.4795,4.4614.6782.4683.9631,1.0716.5692,1.8713-1.0782,2.1887-2.158,4.3765-3.3203,6.7331Z"/>
    <path class="cls-1" d="M205.2131,205.9709c-.0599-.3957-.2336-.8133-.1627-1.184,1.2763-6.6694-1.3328-11.9188-5.9561-16.4442-.0289-.0283-.0596-.0546-.089-.0824-2.2797-2.1608-2.2883-2.3906-.4519-4.9992.4209-.5979.7786-.6898,1.3706-.2274,4.026,3.145,6.5987,7.1604,7.3662,12.2531.4894,3.2476.3664,6.4497-.9355,9.5221-.1886.4451-.5186.8302-.7831,1.243-.1195-.027-.239-.054-.3586-.0811Z"/>
    <path class="cls-1" d="M195.2441,39.3181c-.5497,2.1727-1.0714,4.3533-1.6805,6.5092-.0878.3106-.5967.5023-.9107.749-.0821-.3653-.2926-.7555-.2274-1.0924,1.3619-7.0368-1.6075-12.398-6.4984-17.0526-.5484-.5219-1.3747-1.3519-1.2585-1.849.2548-1.0907,1.0028-2.078,1.6335-3.0531.0725-.1121.7673.0089,1.0246.2112,4.0708,3.2012,6.6994,7.2713,7.3714,12.4825.1288.9989.1899,2.0065.2822,3.01.088.0284.1759.0568.2639.0852Z"/>
    <path class="cls-1" d="M71.2493,188.8036c-.0472-.5612-.1798-.987-.1006-1.3688,1.1694-5.6402-.6058-10.4191-4.2715-14.6332-.8717-1.0022-1.8175-1.9486-2.7995-2.8436-.7783-.7093-.9546-1.3748-.3997-2.319,1.9065-3.2447,1.4582-2.8191,3.8265-.6094,5.698,5.3163,7.2426,11.8832,5.3841,19.3347-.2193.8795-.4048,1.8906-1.6392,2.4394Z"/>
    <path class="cls-1" d="M149.6463,74.3665c-.4026-.252-.7132-.4328-1.0095-.6345-.9853-.6706-1.3515-1.607-1.0134-2.7382.6729-2.251,2.23-3.7857,4.1871-4.9663.6677-.4028,1.3132-.1758,1.4617.4792.1403.619-.0309,1.3581-.2339,1.9901-.1687.5252-.4837.9994-1.2748.5287-.3347-.1992-.9822.0005-1.4298.1708-.2264.0861-.4726.5271-.4443.7776.0392.3467.2462.7996.5259.9713.9437.5792,1.9106.5342,2.8084-.1794.7712-.613,1.5509-1.2151,2.3679-1.8541.4958,1.4111-.23,2.8742-1.5258,4.0889-1.6642,1.56-3.182,3.2775-4.7395,4.949-.2391.2566-.3851.6173-.5183.952-.4313,1.0842-.0141,1.7704,1.1414,2.002,2.5736.516,5.0525-.0429,7.533-.6208.5297-.1234,1.063-.2314,1.5946-.3466.0701.1145.1401.2291.2102.3436-.7155.5815-1.3772,1.2507-2.1568,1.7273-2.0458,1.2508-4.2937,1.8301-6.7005,1.7059-2.2356-.1153-3.2513-1.2642-3.2149-3.4985.0362-2.2236,1.2112-3.9648,2.4312-5.848Z"/>
    <path class="cls-1" d="M94.5251,119.5347c.1563-.1995.2489-.2833.2995-.3875,1.2749-2.6245,1.1198-2.3186,3.4138-.7657.65.44,1.6058,1.2396,1.5378,1.7585-.1378,1.0514-.854,2.0381-1.407,3.0086-.063.1105-.6631.0426-.9179-.1068-.9296-.5453-1.8184-1.1602-2.7974-1.7977-.548.888-1.0225,1.6571-1.5605,2.5291-1.2297-.8197-2.3836-1.5459-3.4877-2.3414-.6394-.4607-.1923-1.9787.905-3.5193.5444-.7643,1.0259-.349,1.538-.0301.4108.2559.8092.5318,1.2118.8008.399.2667.7962.5359,1.2647.8515Z"/>
    <path class="cls-1" d="M113.2054,95.7218c.4759,1.2308.9427,1.0789,1.5025.225.1385-.2113.5298-.2569.8049-.3787.0974.2827.3275.5983.2673.8421-.1816.7354-.408,1.4769-.7451,2.1521-.3597.7205-.9653.9299-1.8284.7589-.688-.1363-1.4422.0808-2.1683.1118-.8196.035-1.7098.2502-2.4469.0105-1.6239-.5281-3.1367-.4029-4.5394.4402-1.5174.9121-2.9324,1.9938-4.4014,2.9877-1.0781.7294-2.2412,1.1798-3.9088,1.0498.4821-.3511.7102-.5311.9517-.691,1.7729-1.1733,3.5513-2.3383,5.3221-3.5147,1.1395-.757,2.1844-1.7481,3.4283-2.2285,1.0902-.421,2.4886-.6032,3.5892-.3015,1.4912.4087,2.5758.412,3.4643-.9446.1189-.1815.3691-.2769.7079-.519Z"/>
    <path class="cls-1" d="M56.0328,55.4086c1.2135-1.6597,3.7656-1.4801,4.3863-3.6699-1.5063-.0723-3.0109-.1445-4.5183-.2169.1505-1.8477,1.346-3.1401,2.9143-3.1121,1.6395.0293,3.2783.2182,4.912.389.719.0752.9133.5473.6919,1.2278-.8935,2.7464-5.3872,5.6718-8.3862,5.382Z"/>
    <path class="cls-1" d="M98.0538,64.7997c.228,1.7557.4263,3.2829.6392,4.9222,1.2265-.1036,1.7852-.648,1.7479-1.6989-.0328-.924-.2161-1.843-.2388-2.7666-.0069-.2835.2968-.5746.4583-.8623.2233.2301.6023.4361.6424.6947.1593,1.0278,1.0454,1.8218.7068,3.0632-.1865.6838.4881,1.3153,1.5806.8657-.2511-.6274-.5709-1.1917-.6964-1.7964-.1766-.8504-.2349-1.7294-.2796-2.5994-.0082-.1594.2696-.4315.4532-.4696.1308-.0271.4157.22.4759.3976.375,1.1071.7479,2.2187,1.0309,3.3514.1123.4493.1359,1.0242-.0528,1.4222-.3274.6906-.7275,1.5891-1.3291,1.8366-.5576.2294-1.4186-.2788-2.146-.4622.0242-.103.0484-.206.0726-.309-.0715.0245-.1764.0269-.2095.0769-.5611.8465-1.2147,1.6002-2.3547,1.3092-1.1589-.2958-1.2553-1.3271-1.4139-2.303-.1449-.8917-.4083-1.7655-.5308-2.6593-.1281-.9344.4597-1.4531,1.4438-2.0129Z"/>
    <path class="cls-1" d="M51.2624,113.3211c-.2371-.6431-.5803-1.1216-.5409-1.5661.071-.8003-.1611-1.9577,1.1762-1.9876,1.0964-.0245,2.5328,1.542,2.3167,2.5082-.0802.3587-.4836.8976-.7683.9163-1.6025.105-2.1421,1.6354-3.4037,2.1568.0398.0888.0796.1775.1194.2662,1.1811-.1618,2.3622-.3235,3.7357-.5117-.8952,1.1245-3.2135,1.9007-4.1607,1.5539-.7772-.2845-.9093-1.1327-.2011-1.8663.5694-.5897,1.2509-1.0712,1.7267-1.4699Z"/>
  </g>
</svg>