<?xml version="1.0" encoding="UTF-8"?>
<svg id="Zubair" xmlns="http://www.w3.org/2000/svg" width="483.4375" height="464.8362" viewBox="0 0 483.4375 464.8362">
  <defs>
    <style>
      

      @import url('../../CSS/SvgStyling.css');


    </style>
  </defs>
  
  <g class="content evenOdd">

    <rect id="bg" class="bg" width="483.4375" height="464.8362"/>
    <path class="cls-1" d="M363.6073,35.685l-.5957,20.8755s37.4052,46.3533,49.0097,67.8921c10.2292,19.0017,18.3655,44.953,20.6142,61.3218,1.7058,12.4307-1.2238,22.9157-7.1329,36.9587-3.2,7.6153-11.614,22.7974-10.537,22.4171,1.0744-.403,13.3005-15.4431,16.9966-24.7423,4.1988-10.5791,8.9265-25.5236,8.191-38.6663-.9323-16.6528-5.2117-42.1779-13.775-61.2029-8.5614-19.0013-37.5994-52.8526-37.5994-52.8526l12.2284.3558c-12.7055-13.6399-25.0576-22.346-37.4-32.3569Z"/>
    <path class="cls-1" d="M293.3569,326.8728c.1424-.356,1.2765-.4987,1.5755-.5691,1.8096-.4043,3.6696-.5929,5.5198-.6883,5.8499-.2842,12.2451.4747,17.7773,2.4432,1.3642.4986,4.3033,1.2103,5.1737,2.5621.0262.0233-1.8597.735-1.9782.7833-1.3073.522-2.6004,1.0903-3.855,1.731-2.161,1.0915-4.2273,2.3722-6.3005,3.6536-.7876.4747-1.9976,1.5417-2.9891,1.5178-1.3757-.0233-3.219-2.2296-4.168-3.0361-3.2665-2.776-7.5269-5.5984-10.7554-8.3975ZM250.5721,357.9012c-1.3829-.6402-4.5666-6.0963-8.8315-7.8524-5.1314-2.1107-14.6251,1.4473-10.165,7.8052,2.9672,4.2458,14.7764,1.8497,18.9965.0472ZM404.3308,381.7889c-.0498-4.4831,17.7439-32.2376,17.853-49.9108.1163-19.073-7.7096-44.8343-17.146-64.5478-9.439-19.713-39.4807-53.7543-39.4807-53.7543,0,0,3.9283,68.7704,4.0685,92.0415.095,15.9178.669,36.3424-3.2288,47.6108-3.0907,8.9186-12.418,17.0081-20.1587,19.926-7.7381,2.894-19.0014.2847-26.2791-2.5389-7.0216-2.7281-17.3906-14.4221-17.3906-14.4221-10.872,6.2152-21.2167,12.1686-33.5244,14.6836,0,0-3.5838,19.6652-9.1754,27.5647-7.2472,10.2478-22.6946,25.4539-34.2972,33.9224-10.5422,7.7098-24.8323,15.2779-35.3245,16.9138-9.401,1.4474-21.3068-.6168-27.6266-7.1639-6.3195-6.5476-10.4401-20.8521-10.2858-32.0714.1614-11.8852,9.9089-40.589,11.261-39.2605.8583.8537-3.7079,15.6801-5.0624,28.917-.7807,7.6153.5361,14.5886,1.9144,18.3373,3.4014,9.204,16.0526,15.0161,25.8236,14.1146,11.0996-1.0206,28.8818-12.6202,40.7686-20.2348,11.1638-7.1639,25.3278-19.3099,30.5588-25.4773,2.5074-2.9651.835-11.6009.835-11.6009,0,0-19.5185,2.278-25.7244.4748-5.176-1.5178-10.796-6.0492-11.5027-11.3866-.7614-5.7404,2.3057-18.0518,6.941-23.0578,4.633-4.9815,14.4136-9.5832,20.8634-6.9261,6.4502,2.6564,17.8412,22.8911,17.8412,22.8911l24.1397-10.6514c-5.0958-8.4918-13.0094-11.6713-21.0651-14.5649l-12.9475,2.6093,8.49-17.8386s31.5838-8.7773,45.3424-7.6864c13.2249,1.0197,37.2009,14.1146,37.2009,14.1146l-7.1549,14.4943-22.4621,10.4132s10.1411,7.0935,23.3758,7.3784c6.8864.1428,18.2044-2.0881,18.631-8.9432,1.8194-29.4397-7.7122-167.62-7.7122-167.62,0,0,23.9691,18.9302,33.0567,31.0045,11.3393,15.0634,27.5484,41.016,34.9783,59.3532,6.4593,15.9412,9.3083,35.7019,9.6001,50.6936.2584,13.3079-3.5131,28.8221-7.8449,39.1888-3.7646,9.0143-18.0999,27.4937-18.1497,23.0101Z"/>
    <path class="cls-1" d="M122.8858,280.8759c-.4434-3.2739-2.8225-7.5437-4.2695-10.4617-.2374-.474-1.9003-3.1078-1.5041-3.7007.5836-.8539,4.9815.5457,5.717.7118,4.4359.9254,8.9075,2.4432,12.919,4.5784.9346.4987,3.4918,1.5656,3.7718,2.7521.2679,1.1386-3.0841,1.3989-3.6627,1.5417-3.9994.8539-9.3014,2.6325-12.9714,4.5785ZM116.5591,283.2003s-6.8317-9.7964-6.4024-15.301c.4365-5.5978,3.7623-15.9638,9.0169-18.2656,5.2542-2.3011,15.9553.9967,22.5168,4.4364,6.5641,3.4632,14.819,10.7698,16.8594,16.2731,2.0136,5.4556-4.6235,16.7949-4.6235,16.7949l-24.6067,8.3742s-1.2575,7.8285-2.4577,8.2553c-1.2005.4503-4.747-5.5989-4.747-5.5989-7.2069,2.7999-15.6399,9.1803-19.4874,14.4949-3.4731,4.7917-4.1939,11.5048-3.594,17.4112,1.1409,11.2437,8.3737,37.7653,10.4541,50.1251,1.3335,7.9228,2.0686,17.2457,2.0283,24.0066-.0334,5.5504-1.5204,16.7239-2.2726,16.4863-.7496-.2371-1.7271-12.0505-2.2369-17.9098-.7306-8.3975-2.4292-17.2928-5.1501-25.5482-4.2319-12.8101-7.7499-32.2865-8.9219-43.3172-.8088-7.6142.4224-16.0123,1.8885-22.8919,1.359-6.3804,4.5548-13.7586,8.1792-18.3843,3.3873-4.3416,13.5569-9.4413,13.5569-9.4413Z"/>
    <path class="cls-1" d="M321.0549,33.1946l6.8009-16.7239s15.0823,36.0809,15.374,43.5534c.1163,3.0363-8.0296-4.2704-8.0296-4.2704,0,0,5.3849,67.7267,5.9563,89.2423.3537,13.3318.318,29.1309-2.5241,39.9005-2.4406,9.2513-7.446,18.8591-14.5318,24.7655-7.0838,5.9071-19.1841,5.9542-27.9731,10.6986-9.8778,5.3135-22.5594,13.7834-31.2891,21.2315-8.0017,6.8318-13.8418,17.9103-21.0844,23.5085-6.4692,4.9821-15.8535,10.4849-22.3675,10.0581-6.5163-.4503-14.5557-8.6113-17.4544-15.9412-2.9462-7.4247-2.441-19.4288-.2279-28.7503,2.4459-10.3195,12.6557-29.3208,14.8999-33.0926,1.8125-3.0368-2.1849,9.37-3.461,13.9957-1.7742,6.4528-6.7135,17.0088-7.183,24.6945-.446,7.2821.0999,18.0053,4.3625,21.4684,4.2607,3.4636,12.8882,2.2533,19.0843-1.1619,6.9934-3.843,22.8728-21.9431,22.8728-21.9431,0,0,19.0132-20.3298,42.8939-30.2225,12.5136-5.1707,31.3395-9.5361,33.5692-22.8918,4.4431-26.6159-6.9103-136.828-6.9103-136.828l-2.7776-11.2915Z"/>
    <path class="cls-1" d="M284.1292,47.1431l-4.3029,15.1823s6.9931,10.1761,4.8698,13.355c-2.1207,3.1789-12.8191,6.4528-17.6041,5.6693-4.7869-.7827-11.1114-10.366-11.1114-10.366,0,0,3.2357-12.8099-.6808-11.9793-2.5264.5212-8.4045,4.7444-14.4964,8.2075-6.9767,3.9611-14.2472,7.3777-17.3552,10.5799-4.0731,4.2226-3.8,11.4814-3.0766,17.2935.9559,7.6618,15.8914,21.6577,8.8079,28.7273-12.7032,12.715-61.2525,35.3698-85.0291,47.5152-18.6834,9.5123-57.6277,25.2395-57.6277,25.2395,0,0,46.4119-7.614,65.6196-13.7586,17.386-5.5745,35.7895-14.8735,49.6218-23.2001,12.2189-7.353,26.9766-18.6446,33.3626-26.8057,4.6684-5.9781,5.8283-15.1345,4.9602-22.1795-.8658-7.0457-8.784-21.398-8.784-21.398l16.4583-9.631s5.1593,14.4234,10.5943,17.1987c5.4344,2.7758,17.9123,2.6808,22.6471-1.6367,5.0836-4.6018,10.3762-15.7041,10.8979-23.7224.5194-7.9939-7.7712-24.2909-7.7712-24.2909Z"/>
    <path class="cls-1" d="M106.6604,246.3605c-1.8649,4.1032-3.1267,8.3025-6.3529,11.6468-1.0983,1.1393-2.3817,2.207-3.7836,2.9659-.2302.1181-3.1954.8298-2.7259,1.1858,4.8131,3.7724,11.1258-6.9741,12.4756-10.0102.3036-.6646,1.8004-4.1754,1.5155-5.409-.1257-.5459-.6163-.1421-1.1288-.3792Z"/>
    <path class="cls-1" d="M88.9875,246.668c.5953-1.0903,1.0269-2.1818,1.8217-3.2254.8897-1.1859,1.9475-2.4434,3.3497-3.0363.6923-.2847,1.6154-.3086,1.8358.5685.2348.9261-.3723,1.9221-.9415,2.5865-1.3881,1.6606-3.8026,2.9652-5.9875,3.0363l-.0783.0704ZM86.9163,245.1747c.1637-.4275.356-.8545.5646-1.2575.6192-1.2103,1.3521-2.3722,2.1636-3.4871,1.5208-2.0403,3.6483-3.8668,6.0919-4.6972,2.2085-.7589,3.8307.1659,4.0871,2.5143.1899,1.7554-.5623,3.4636-1.4163,4.9582-2.1492,3.7001-6.7321,8.4446-11.358,8.5628-1.8361.0485-2.8064-1.1858-4.3907-1.8021-2.0899-.8072-4.2299.522-5.7196,1.9209-.5315.4986-1.3544,1.2342-1.4897,1.993-.1565.8778.7614,1.5895,1.3141,2.1107,1.0391.9967,1.9809,1.8982,2.1397,3.3927.4152,3.9385-1.8646,8.5874-4.0776,11.6713-3.2737,4.554-8.5139,8.8011-14.4774,8.3264-8.2483-.6646-6.4718-11.5053-4.6402-16.7006.4221-1.1864.8753-2.3722,1.3855-3.5342.6235-1.4233,1.3118-2.8223,2.1014-4.1515.9326-1.5663,2.1374-4.246,3.7839-5.2431.4886-.2842-.5099,2.0881-.598,2.2779-.6523,1.3989-1.338,2.7753-2.0185,4.1517-1.8813,3.8196-5.582,12.3824.7093,14.4227,1.677.5457,3.6627.379,5.3682.0716,1.4068-.2615,2.7753-.6883,4.078-1.2575,2.0162-.9261,6.4426-4.0326,4.8698-6.8079-.8966-1.5663-3.1096-2.0881-3.594-3.9385-.5809-2.2533.9706-4.7445,2.2183-6.4521,2.0139-2.7753,4.7968-6.1918,8.1674-7.3538,1.0983-.3797,3.6081,0,4.7372.3088Z"/>
    <path class="cls-1" d="M78.8746,207.9783c-1.2522.3314-2.2844,4.5546-2.702,5.5745-1.9923,4.8632-1.1668,10.1535-1.6439,15.2764-.133,1.4003-.3321,2.8238-.5524,4.2227-.2351,1.4951.5099,0,1.0129-1.4474.2443-.7118.4837-1.4229.7165-2.1346.3746-1.138.6972-2.3011.9605-3.4869.4791-2.1114.6166-4.3177.7165-6.4767.1614-3.5097.7732-8.0656,1.492-11.5281Z"/>
    <path class="cls-1" d="M69.3171,215.9482c-1.0843,1.5191-2.2415,2.9181-2.7354,4.8156-.6379,2.4678.4365,7.3537-3.0671,7.9943-1.5443.2856-2.2441-1.1147-2.5526-2.3722-.1444-.5929-.3036-1.7308-1.1861-1.375-2.678,1.0676-3.3209,5.5506-6.718,5.4317-1.3806-.0472-2.5074-1.0677-3.4112-2.0164-.4342-.4503-1.079-1.4707-1.8358-1.2807-1.082.2608-2.0925,1.8736-2.7566,2.6571-1.6488,1.9208-3.4257,3.6529-5.3682,5.2901-.6215.522-2.4907,1.731-2.2867,2.7281.2181,1.0903,1.8643.8061,2.5569.569,1.6442-.569,3.0294-1.8982,4.2489-3.1085.3271-.3073,1.0129-1.3279,1.5846-1.1147,1.4258.5935,1.6793,2.681,3.8858,3.1085,2.3696.474,4.7942-.5703,6.457-2.2307.4244-.4264.7234-1.4235,1.1622-1.731.1045-.0711.2302.3321.261.3792.2302.4269.5786.8072,1.0391.9958,1.0626.4277,2.4622.1189,3.48-.3073,3.7623-1.5663,7.2184-6.9748,7.7499-10.9124.3108-2.3245-.5076-5.1714-.5076-7.5205Z"/>
    <path class="cls-1" d="M42.4875,251.8639c-.2964.2602-.6261-.6646-.8495-.9017-.3982-.4269-1.1026-.4269-1.6249-.3086-1.1858.3086-3.3137,2.325-2.1682,3.6297,1.4422,1.6604,4.6949.0717,6.0896-.83.1801-.1189,2.3555-1.7321,2.422-1.3996.1235.6161-.9795,1.6606-1.3285,2.0396-1.5276,1.6606-3.3137,3.1311-5.0005,4.6257-1.9976,1.8032-3.8546,4.5314-6.2412,5.8121-1.3472.7118-2.7612-.3086-3.9473.5929-2.6522,2.0635-4.7468,5.575-8.4332,5.9077-1.8671.1654-2.5146-1.2575-4.0472-1.6378-1.2786-.3081-3.3163,3.1085-3.8856,2.2779-1.2452-1.8032,3.6439-6.666,4.9651-7.4964,2.8442-1.7795,2.9584,1.7561,5.3469,1.4473,3.0363-.3797,4.7892-3.8907,7.3514-5.1953,1.5584-.8066,2.8326.83,3.1981.6407.3674-.2137.6379-.6639.8822-.9726,1.3662-1.8032-.5289-1.6606-1.1432-3.7957-.4889-1.7078.6543-3.7241,1.5774-5.0525,1.0364-1.5185,2.6875-3.2028,4.5901-3.4871,1.2359-.166,2.939.3797,3.1765,1.5656.1539.782-.6337,2.254-.93,2.5382Z"/>
    <polygon class="cls-1" points="22.1271 249.0886 19.342 253.3584 23.657 256.2758 26.4467 252.077 22.1271 249.0886"/>
    <polygon class="cls-1" points="62.0895 284.2076 59.3044 288.4773 63.6194 291.3947 66.4091 287.1959 62.0895 284.2076"/>
    <polygon class="cls-1" points="69.7225 283.1224 66.9373 287.3921 71.2524 290.3095 74.0421 286.1109 69.7225 283.1224"/>
    <polygon class="cls-1" points="87.4111 223.8188 84.6263 228.0887 88.941 231.0059 91.731 226.8073 87.4111 223.8188"/>
    <polygon class="cls-1" points="95.2117 97.96 88.4007 111.8149 101.8593 119.473 108.7057 105.8368 95.2117 97.96"/>
    <polygon class="cls-1" points="177.716 111.6438 170.9053 125.4989 184.3636 133.1569 191.21 119.5208 177.716 111.6438"/>
    <polygon class="cls-1" points="253.7338 107.6978 246.9227 121.5529 260.3814 129.2109 267.2278 115.5748 253.7338 107.6978"/>
    <polygon class="cls-1" points="260.142 130.9966 253.3313 144.8515 266.7897 152.5096 273.6361 138.8734 260.142 130.9966"/>
    <polygon class="cls-1" points="283.1065 102.1524 276.2958 116.0074 289.7541 123.6654 296.6005 110.0292 283.1065 102.1524"/>
    <polygon class="cls-1" points="267.8919 180.9211 261.0812 194.776 274.5395 202.4341 281.386 188.7979 267.8919 180.9211"/>
    <path class="cls-1" d="M223.9648,34.5709l-1.0315,6.8695,72.8073-26.761,2.4691-7.772c.7096-2.1741-74.2449,27.6635-74.2449,27.6635Z"/>
    <path class="cls-1" d="M258.8475,276.4225l-1.0319,6.8697,72.8073-26.7611,2.4691-7.7718c.71-2.1742-74.2445,27.6633-74.2445,27.6633Z"/>
    <path class="cls-1" d="M120.0018,47.6619c.0167-.0326-.7882-.3461-.803-.3625-.6795-.5271-1.4517-.9392-2.1033-1.4995-2.4947-2.159-4.3233-5.8674.1624-6.9885.5246-.1316,1.06-.2307,1.603-.2471,4.8675-.2307,1.525,6.8235,1.1409,9.0976ZM68.8462,86.9212s5.6767-3.7744,8.5021-5.6863c5.0853-3.4119,16.9816-10.4988,23.3083-15.1137,5.248-3.8234,14.6529-12.5752,14.6529-12.5752,0,0-5.5454-3.8568-6.5517-6.329-1.0083-2.4721-.929-5.966.5095-8.488,1.4477-2.5382,5.4422-5.752,8.1713-6.741,2.5412-.939,6.7292-.6756,8.2011.7252,1.472,1.4012.9585,5.1259.6317,7.6641-.3786,2.9503-2.903,10.0536-2.903,10.0536,0,0,3.1336,1.9943,3.6896,3.4776.556,1.4998-.3563,5.4886-.3563,5.4886l-5.8447-3.6423s-6.1476,5.7024-9.104,8.2239c-3.6084,3.0658-8.7716,7.2685-13.477,10.2516-4.6628,2.9335-9.8961,5.5873-14.801,7.7131-4.6975,2.0274-14.629,4.9779-14.629,4.9779Z"/>
    <path class="cls-1" d="M305.043,399.3182c.8328.9551,1.6115,5.4216,1.6115,5.4216,0,0,1.5591-4.4457,1.5951-6.2529.0327-1.6208-.0344-4.0722-1.3741-4.6124-1.7909-.6852-6.6833-.8105-9.3735.3949-2.6908,1.2053-5.4612,4.2591-6.7665,6.8557-1.2765,2.5552-1.5319,6.3572-1.0574,8.7258.4617,2.3055,2.5893,4.3627,3.9038,5.4845,1.1065.9557,3.9922,1.2468,3.9922,1.2468,0,0-4.0773,3.2405-5.4553,5.5467-1.4847,2.4514-3.3369,6.1076-3.4492,9.2651-.1104,3.1375,1.0361,7.2927,2.7796,9.5777,1.7454,2.2854,4.8757,3.7813,7.688,4.1132,2.9001.3327,6.7082-.706,9.7101-2.0773s5.7595-3.8014,8.3017-6.1491c2.5418-2.3478,5.2487-5.6505,6.9473-7.9361,1.3037-1.766,3.239-5.8794,3.239-5.8794,0,0-1.9101.9143-2.8048,1.4952-1.3541.8734-3.4273,2.784-5.3158,3.8227-2.4626,1.3299-6.7554,3.2205-9.4531,4.2176-2.1924.8105-4.4323,1.724-6.7354,1.766-2.3231.0416-5.9118-.2495-7.1955-1.4964-1.2834-1.2254-1.4068-4.2376-.5069-5.9416,1.2057-2.2641,7.7424-7.7278,7.7424-7.7278l6.8349-6.7935,4.5102-4.8614-1.1664-3.0746-4.45,3.428s-4.8109,2.5137-6.6633,2.6589c-1.566.1251-3.4636-.6852-4.4503-1.7656-.9886-1.1014-2.0912-3.2411-1.472-4.7784.6628-1.6202,3.9742-4.2383,5.4461-5.028,1.0302-.5402,2.5893-.5809,3.3877.354Z"/>
    <path class="cls-1" d="M32.0949,307.8661c-2.1354-.3722-5.2791,1.3462-6.1342,3.2356-.855,1.89-.6045,6.6543,1.0256,8.0718,1.6482,1.4355,8.8495.474,8.8495.474,0,0,7.0177,17.0364,9.105,18.8956,2.0857,1.8757,2.5251-5.0596,3.3975-7.7266,1.2231-3.7102,2.3051-11.727,3.8677-14.5758.9055-1.62,4.3986-2.9726,5.5627-2.4955,1.1642.4773-.1624,5.2547,1.4048,5.3399,1.5479.0833,7.2217-2.7661,7.9182-4.8035.7139-2.0192-1.375-6.2488-3.6683-7.3654-2.2936-1.1167-7.5325-1.1751-10.0939.682-2.7062,1.9591-4.7889,7.6086-6.1866,11.1367-1.2516,3.2102-2.142,10.0355-2.142,10.0355,0,0-4.1644-11.971-6.3261-15.4454-1.4274-2.3254-4.4647-5.0884-6.5802-5.4588Z"/>
    <path class="cls-1" d="M19.5507,175.3831c-2.1348-.3722-5.2788,1.3462-6.134,3.2356-.8547,1.89-.6042,6.6542,1.0261,8.0718,1.648,1.4353,8.8489.474,8.8489.474,0,0,7.0178,17.0364,9.1051,18.8956,2.0857,1.8757,2.5251-5.0596,3.3978-7.7266,1.2228-3.7102,2.3047-11.727,3.8677-14.5758.9055-1.62,4.3982-2.9726,5.5624-2.4955,1.1645.4773-.1621,5.2547,1.4052,5.3399,1.5479.0833,7.2217-2.7661,7.9182-4.8035.7139-2.0193-1.375-6.2488-3.6686-7.3654-2.2933-1.1167-7.5321-1.1751-10.0939.6818-2.7059,1.9592-4.7889,7.6088-6.1862,11.1369-1.2519,3.21-2.142,10.0355-2.142,10.0355,0,0-4.1644-11.971-6.3261-15.4454-1.4278-2.3254-4.4649-5.0884-6.5807-5.4588Z"/>
    <path class="cls-1" d="M180.8731,179.9896c-2.1348-.3722-5.2788,1.3461-6.1338,3.2356-.855,1.89-.6042,6.6542,1.026,8.0716,1.6478,1.4355,8.8489.4742,8.8489.4742,0,0,7.0177,17.0363,9.1053,18.8955,2.0853,1.8759,2.5248-5.0594,3.3975-7.7265,1.2231-3.7102,2.3051-11.727,3.8677-14.5758.9058-1.62,4.3986-2.9728,5.5624-2.4955,1.1645.4771-.1618,5.2547,1.4055,5.3399,1.5479.0833,7.2217-2.7661,7.9179-4.8036.7139-2.0192-1.375-6.2486-3.6683-7.3653s-7.5325-1.1751-10.0942.6818c-2.7056,1.9592-4.7886,7.6088-6.1862,11.1369-1.2516,3.21-2.1417,10.0353-2.1417,10.0353,0,0-4.1644-11.9708-6.3261-15.4453-1.4278-2.3254-4.465-5.0884-6.5808-5.4588Z"/>
    <path class="cls-1" d="M435.7587,247.21c-2.1351-.3722-5.2788,1.3461-6.1342,3.2356-.855,1.89-.6045,6.6542,1.026,8.0716,1.6478,1.4355,8.8492.4742,8.8492.4742,0,0,7.0177,17.0363,9.105,18.8955,2.0857,1.8759,2.5251-5.0594,3.3975-7.7265,1.2234-3.7102,2.3054-11.727,3.8677-14.5758.9058-1.62,4.3986-2.9728,5.5627-2.4955,1.1642.4771-.1621,5.2547,1.4052,5.3399,1.5479.0833,7.2217-2.7661,7.9179-4.8036.7139-2.0192-1.3747-6.2486-3.668-7.3653-2.2936-1.1167-7.5328-1.1751-10.0942.6818-2.7062,1.9592-4.7889,7.6088-6.1866,11.1369-1.2513,3.21-2.1417,10.0353-2.1417,10.0353,0,0-4.1644-11.9708-6.3261-15.4453-1.4278-2.3254-4.4647-5.0884-6.5805-5.4588Z"/>
    <path class="cls-1" d="M184.7376,248.2895l7.4663,1.3443-14.6022-40.2193-7.053,15.2432s4.207,33.0844,5.733,49.7195c1.8564,20.2016,4.0013,49.1162,5.3214,71.3107,1.1547,19.8782.4126,59.7732.4126,59.7732,0,0,8.6619-15.8469,9.363-24.7888,1.2375-15.7085-.949-47.2625-2.0211-69.3187-1.0721-21.083-4.6199-63.0641-4.6199-63.0641Z"/>
    <path class="cls-1" d="M361.0796,113.7704c-.0901-.0899-.4385.6004-.4627.6536-.6173,1.1514-1.8008,3.1216-1.0158,4.5775,2.2543,4.1952,7.0979,5.4327,9.9043,12.1797,1.1926,2.9001,1.8715,6.0608,2.2979,9.2086.0508.3907.3075,4.7581.8373,4.4971,1.3685-.6718,1.0476-7.9311.8989-9.3111-.9827-9.4513-5.7009-17.0482-12.4599-21.8055Z"/>
    <path class="cls-1" d="M388.0968,304.9687c-.0822-.0973-.4873.5614-.5161.6124-.7113,1.0955-2.0559,2.9597-1.3957,4.4765,1.8941,4.3694,6.6168,6.0089,8.8469,12.9675.9454,2.9898,1.3564,6.1964,1.5172,9.3689.0183.3935-.0923,4.7671.4575,4.5515,1.4199-.5547,1.7091-7.8154,1.6766-9.2027-.1863-9.5004-4.2506-17.4667-10.5864-22.774Z"/>
    <path class="cls-1" d="M228.7917,292.006c-6.9663,3.2074,5.6577,18.0072-.9539,19.7574-8.453,2.2415-5.9901-17.9005-9.6512-19.0031-1.8191-.5492-1.3976,4.9446-1.3312,5.6114.5102,4.0153,4.3711,13.5027-2.6846,14.6097-7.5213,1.1753-6.0127-8.8743-5.8571-12.992.0219-.8784.4657-5.4363-1.4867-5.1306-6.2121.9659-1.7749,16.5115-.9539,19.7124.4437,1.7243,1.1314,3.6583,2.6623,4.776,5.6132,4.0984,8.2758-5.0985,10.7829-5.3509,1.8859-.1901,3.572,5.5816,7.4545,4.8678,1.7526-.3183,2.9954-1.8911,3.8605-3.2501,4.7257-7.4277.6654-16.1482-1.8417-23.6079Z"/>
    <path class="cls-1" d="M140.7945,192.7596s-2.3178,10.0787-3.5547,15.0829c-1.2771,5.1663-3.8491,11.5544-4.1074,15.9134-.2125,3.5751.8809,8.3027,2.5618,10.1705,1.6825,1.8687,5.6898,1.9604,7.5256.9922,1.8371-.969,2.9603-4.405,3.4967-6.8269.5367-2.4213-.2751-7.6335-.2751-7.6335,0,0-2.6044,5.8347-4.0285,6.8035-1.3764.9225-3.6614.046-4.5161-1.0839-.8527-1.1072-.7754-3.7824-.6091-5.6737.224-2.5597,1.4422-7.2878,1.9543-9.6166.5632-2.5608.7276-6.4119,1.2529-10.0328.3163-2.1678.2996-8.095.2996-8.095Z"/>
    <path class="cls-1" d="M73.6996,338.2781s-2.3178,10.0787-3.5547,15.0829c-1.2771,5.1663-3.8491,11.5544-4.1074,15.9134-.2125,3.5751.8809,8.3027,2.5618,10.1705,1.6825,1.8687,5.6898,1.9604,7.5256.9922,1.8371-.969,2.9603-4.405,3.4967-6.8269.5367-2.4213-.2751-7.6335-.2751-7.6335,0,0-2.6044,5.8347-4.0285,6.8035-1.3764.9223-3.6614.0458-4.5161-1.0839-.8527-1.1072-.7754-3.7824-.6091-5.6737.224-2.5597,1.4422-7.2878,1.9543-9.6166.5632-2.5608.7276-6.4119,1.2529-10.0328.3163-2.1678.2996-8.095.2996-8.095Z"/>
    <path class="cls-1" d="M132.5105,379.7449s-2.3182,10.0787-3.5547,15.0829c-1.2775,5.1663-3.8491,11.5543-4.1074,15.9134-.2125,3.575.8806,8.3025,2.5615,10.1705,1.6829,1.8685,5.6901,1.9604,7.5256.9921,1.8374-.9688,2.9603-4.405,3.4967-6.8268.537-2.4213-.2747-7.6336-.2747-7.6336,0,0-2.6044,5.8347-4.0285,6.8037-1.3764.9223-3.6614.0458-4.5161-1.0839-.8527-1.1073-.7754-3.7826-.6091-5.6737.224-2.5597,1.4422-7.2878,1.954-9.6166.5632-2.561.728-6.412,1.2532-10.0328.316-2.1678.2996-8.095.2996-8.095Z"/>
    <path class="cls-1" d="M259.5359,415.2712s-2.3178,10.0787-3.5544,15.0829c-1.2775,5.1663-3.8494,11.5544-4.1078,15.9134-.2125,3.5751.8809,8.3027,2.5618,10.1705,1.6825,1.8687,5.6898,1.9604,7.5259.9922,1.8371-.969,2.96-4.405,3.4967-6.8269.5364-2.4213-.2751-7.6335-.2751-7.6335,0,0-2.6047,5.8347-4.0289,6.8035-1.3764.9223-3.6614.046-4.5158-1.0839-.8531-1.1072-.7754-3.7824-.6094-5.6737.2243-2.5597,1.4425-7.2878,1.9547-9.6166.5629-2.5608.7273-6.4119,1.2526-10.0328.3163-2.1678.2996-8.095.2996-8.095Z"/>
    <path class="cls-1" d="M360.9014,379.1783s-2.3178,10.0787-3.5547,15.0829c-1.2771,5.1663-3.8491,11.5543-4.1074,15.9134-.2125,3.575.8809,8.3025,2.5618,10.1705,1.6825,1.8685,5.6898,1.9604,7.5256.9922,1.8371-.969,2.96-4.4051,3.4967-6.8269.5367-2.4213-.2751-7.6336-.2751-7.6336,0,0-2.6044,5.8349-4.0285,6.8037-1.3764.9223-3.6614.0458-4.5161-1.0839-.8527-1.1072-.7754-3.7826-.6091-5.6737.224-2.5597,1.4422-7.2878,1.9543-9.6166.5632-2.5608.7276-6.4119,1.2529-10.0328.3163-2.1678.2996-8.095.2996-8.095Z"/>
    <path class="cls-1" d="M401.9726,147.0207s-2.941,9.1236-4.4863,13.6475c-1.5964,4.6709-4.5603,10.3793-5.0899,14.3749-.4342,3.277.3615,7.7032,1.9226,9.5374,1.5624,1.834,5.5549,2.1893,7.4467,1.4209,1.8934-.7678,3.2279-3.8555,3.9142-6.0492.6864-2.1936.2014-7.0468.2014-7.0468,0,0-2.9626,5.1958-4.4434,5.9919-1.431.7563-3.6562-.205-4.4382-1.3033-.7823-1.0759-.5384-3.5349-.2544-5.2646.3828-2.3421,1.8928-6.6124,2.549-8.7225.7211-2.3195,1.1252-5.8542,1.8748-9.1533.4506-1.9741.8036-7.4329.8036-7.4329Z"/>
    <path class="cls-1" d="M156.2638,11.6106c-5.8568,1.5183-10.3238,14.9211-10.3238,14.9211l32.3189.8778-29.5554,18.7164s18.838-2.4672,26.2084-7.7568c7.3677-5.2903,21.1172-19.5231,18.0072-23.9834-3.1074-4.4596-28.8245-4.8148-36.6553-2.7751Z"/>
    <path class="cls-1" d="M181.344,55.3533l-4.9445,14.3541s5.5987,9.0722,3.6503,11.4318c-3.8258,4.6332-10.8369,3.5506-14.8321,2.2088-3.9928-1.3423-9.1351-10.2629-9.1351-10.2629l-4.2309,13.272s10.9483,20.9798,8.061,30.3323c-3.3051,10.7176-30.6557,24.9415-44.6157,31.1121-12.0227,5.3047-15.2368,5.0664-39.1441,5.8894-7.1424.2377-14.7941-3.0744-20.1237-7.2097s-10.1139-10.7823-11.8557-17.5802c-1.8237-7.1231.9074-25.2019.9074-25.2019,0,0-4.6265,11.2589-4.9156,17.191-.3425,7.0583-.6962,17.4502,2.8608,25.0932,3.554,7.6423,9.6266,17.6455,18.4729,20.7629,10.2875,3.6159,29.2679,4.3301,43.2548.9092,14.3445-3.5079,33.6298-16.3247,42.8117-21.9539,4.8711-2.9877,9.4845-7.5989,12.2758-11.8208,2.6247-3.9838,3.6637-8.8338,4.4667-13.4885.9808-5.6724,1.417-20.59,1.417-20.59,0,0,7.8874.5847,10.946-1.4071,3.352-2.1868,7.7384-6.9934,9.1619-11.6915,1.5859-5.2393,1.1124-14.5491.3648-19.789-.5917-4.1132-4.8538-11.5613-4.8538-11.5613Z"/>
    <path class="cls-1" d="M156.7039,337.0257c-.1022-.4986.7971-1.2814,1.1154-1.4946,1.1432-.8061,2.5474-.403,3.238.7828.4811.8306.8822,1.8743.8108,2.847-.0589.8531-.6356,1.3046-1.4847.9958-1.4923-.4986-2.8444-1.8504-3.6794-3.1311ZM153.7934,339.9197c-.0118,0,2.1587,2.7042,2.3057,2.847,1.2739,1.2329,3.3854,3.155,5.3849,2.6803,1.5588-.3799,2.3771-2.112,2.6974-3.4638.7614-3.2493,1.1956-11.0306-3.0104-12.3353-2.8251-.8776-5.5627,2.2302-7.1094,4.1517-2.458,3.0122-3.8052,6.7603-6.1987,9.7732-2.5857,3.2506-6.2367,5.5511-9.7972,7.6146-5.8994,3.3688-12.046,6.4999-18.2993,9.2048-2.4835,1.0676-5.0122,1.9692-7.5767,2.799-.1398.0472-2.1138.522-2.0234.7822.1565.4514,2.8372-.0233,3.1385-.0704,3.2285-.4043,6.4407-1.0204,9.6502-1.5416,12.7268-2.112,25.8498-9.9877,30.8385-22.4418Z"/>
  </g>
</svg>