<?xml version="1.0" encoding="UTF-8"?>
<svg id="Abdurrahman" xmlns="http://www.w3.org/2000/svg" width="447.1316" height="434.1446" viewBox="0 0 447.1316 434.1446">
  <defs>
    <style>
      
      @import url('../../CSS/SvgStyling.css');

    </style>
  </defs>
  
  <g class="content evenOdd">

    <rect id="bg" class="bg" width="447.1316" height="434.1446"/>
    <path class="cls-1" d="M398.1577,153.7847c-17.5307-2.3226-47.0434,1.5162-50.6709,7.9076-3.6275,6.3914,16.6688,28.3281,28.9064,30.4208,12.2374,2.0916,44.5177-17.8114,44.5177-17.8114l-4.5583,13.8572s-55.1833,24.4712-69.8505,29.0968c-5.7904,1.8236-18.16-1.3818-18.16-1.3818l-3.6353-12.8406s-9.3392,14.3949-15.9435,17.0441c-6.6023,2.6485-18.4501,3.4351-23.6763-1.1714-5.2243-4.6061-7.6733-26.5049-7.6733-26.5049,0,0-11.9879,19.2886-20.9778,25.7372-9.6406,6.9291-28.5455,15.2976-36.8619,15.7962-6.0801.3647-12.4715-6.756-13.0337-12.8214-1.501-16.1606,1.7159-26.0635,6.8308-36.6586,0,0-7.0093,27.9645-1.3456,32.1484,2.3416,1.7273,9.6964,3.9923,16.4523,2.3226,9.5809-2.361,17.093-7.1978,24.6474-12.4753,7.6849-5.3546,21.4576-19.6532,21.4576-19.6532,0,0-1.1304-15.9693-3.3396-23.6078-2.5142-8.7136-11.7498-28.5975-11.7498-28.5975l1.1036-16.3717s8.9305,10.7669,11.3028,17.1963c3.0804,8.349,10.414,34.4713,12.6346,53.204,1.5642,13.204,3.5469,15.7383,8.2107,18.2899,4.6639,2.5724,13.7653-.0381,19.7705-2.9358,6.3778-3.0522,18.4924-15.4501,18.4924-15.4501,0,0-.8368,13.2619,4.0325,15.2003,4.8846,1.9384,25.2807-3.5317,25.2807-3.5317,0,0-17.5154-14.8744-19.663-23.4341-2.1497-8.5604.4146-22.2449,6.7731-27.8682,6.3604-5.6233,22.9278-6.6792,31.3824-5.854,7.3412.7101,19.3443,10.7483,19.3443,10.7483Z"/>
    <path class="cls-1" d="M289.1864,158.4673c-.6333-1.1893,14.5712-23.3193,15.053-36.4667.522-14.3178-2.923-35.0653-11.9111-49.4416-9.9401-15.8909-47.7211-45.8897-47.7211-45.8897,0,0,4.0805,79.1133,3.0324,100.2258-.4624,9.3281-2.6563,19.8842-9.318,26.4288-7.9094,7.7921-28.3326,13.4733-38.1324,20.2293-7.9612,5.5085-14.241,14.7397-20.663,20.3835-5.6025,4.9321-12.2642,12.8013-17.8725,13.4538-5.6061.6714-12.6788-4.1839-15.765-9.4813-3.1093-5.3361-4.257-15.0858-2.8808-22.5324,1.5412-8.349,11.3948-27.6769,12.1317-27.5416.7351.134-7.7059,20.497-7.7155,28.3857-.0096,6.7944.9692,20.2105,7.6521,18.9246,2.7736-.5374,11.0131-2.7064,17.1758-7.9079,8.9535-7.5618,10.8997-14.107,17.9741-19.3458,9.0803-6.7372,28.1753-15.5282,36.5108-20.9977,4.9978-3.2816,13.1297-5.8341,13.4943-11.8039,1.3167-21.5923-5.5947-117.6715-5.5947-117.6715l4.2666-7.6968s33.8332,18.6367,48.2125,36.1407c8.8632,10.8056,14.9513,24.1254,18.3559,37.6758,3.4874,13.8764,5.7175,29.3655,2.568,45.6022-2.2127,11.4009-18.2196,30.5167-18.8531,29.3268Z"/>
    <path class="cls-1" d="M167.6168,111.5213c-1.4758-4.1651-26.6184-19.1933-25.6839-21.6883,1.4358-3.8385,12.4409-1.7458,15.1396-1.5539,13.1988.8633,26.1885.8054,39.0343,4.3183.5892.1721,11.1107,3.2624,11.27,3.589.0308.0579-1.1879.4798-1.2493.4993-3.8712,1.3812-7.8558,2.495-11.7672,3.7614-9.0207,2.9364-18.6804,5.9116-26.7435,11.0743ZM157.6003,114.9955s-20.3617-12.3794-22.4578-18.7512c-2.0976-6.3725,2.929-17.2939,9.8767-19.4812,8.4659-2.6489,27.3306,1.8997,40.9213,3.5509,13.9569,1.7078,42.8211,6.6594,42.8211,6.6594l-5.4834,12.6672-47.4814,19.1933s6.8462,13.3585,5.0593,19.2697c-.9424,3.1283-8.6943-.8246-12.0015-2.7058-3.3069-1.8812-7.84-8.5796-7.84-8.5796-10.0187,6.4685-21.5518,8.8857-33.8602,9.2702,0,0,2.3608,21.4772-4.0842,28.6554-8.6427,9.6339-34.2501,24.4708-47.7661,29.1349-10.5129,3.6081-24.5744,2.8024-33.3307-1.228-8.7566-4.0307-16.6988-13.7231-19.2082-22.9934-2.5092-9.2709,3.3845-31.7457,4.1528-32.6282.7684-.864-3.631,19.1546.4578,27.3497,4.0319,8.0611,9.123,12.0537,13.695,15.0855,8.3857,5.5469,17.4031,4.9715,26.9139,3.7815,15.5405-1.9771,45.063-20.9782,53.005-30.6706,5.921-7.2352-5.3452-27.5234-5.3452-27.5234l2.8598-12.6672s4.6157,10.5759,9.4044,10.9019c6.5179.4414,29.6915-8.2911,29.6915-8.2911Z"/>
    <path class="cls-1" d="M214.0386,315.216c-2.1419-.46-6.0189.4613-8.2472.4034-10.89-.2495-8.8478-7.3887.4856-6.4873,3.405.3266,6.1149,3.2829,7.7616,6.084ZM286.296,256.7739c-22.5688-4.4721-50.8035,3.0708-54.8512,9.3857-2.9404,4.5866,6.6715,18.2333,17.8665,25.2385,4.2033,2.6297,9.5657,3.1475,12.9149,3.896,12.2738,2.6684,37.3264-16.8707,41.9921-13.0898,2.6429,2.1492-6.1609,11.344-6.1609,11.344l-72.4127,32.8959s-2.501,17.4852-10.1704,24.3951c-9.0417,8.1372-30.4284,29.2689-42.5313,33.0696-10.1147,3.1664-25.3116-1.2098-30.0907-10.2881-2.3261-4.4142-3.4278-16.7555-2.5372-26.4483.9404-10.2302,5.6311-18.3475,5.6311-18.3475,0,0-3.1323,13.0699-2.2589,23.952.4568,5.6816,3.3952,10.883,5.4622,13.0514,6.0303,6.3146,22.8894,5.2593,32.981.9024,11.631-5.0479,30.7144-24.6819,36.8042-31.1312,1.7351-1.8425,2.0652-8.5416-.2725-7.5816-4.0342,1.6704-21.4423.2694-25.4706-3.6849-4.0267-3.9529-1.3263-15.201,1.3029-20.0185,2.6315-4.8169,9.3988-10.3642,14.4773-8.8857,5.0785,1.458,15.9953,17.696,15.9953,17.696l19.9011-7.3897c-10.1145-5.8728-19.6592-20.9391-20.9027-29.8642-1.2477-8.9436,3.6158-19.9411,9.865-25.2197,6.2512-5.2974,18.8935-7.5045,27.6377-6.4873,8.7442,1.0179,24.8279,12.61,24.8279,12.61Z"/>
    <path class="cls-1" d="M157.9628,287.4249c.2631-.7485-2.8251-3.4156-3.2645-3.8189-2.1939-2.0731-5.278-4.4913-8.4833-4.0502-4.9978.6714-3.3836,5.8536.7293,6.8907,1.4376.3455,2.9384.4414,4.4144.5179,2.2033.1155,4.4182.1347,6.6041.4606ZM161.9013,301.5514c-4.8942-1.7472-18.7457,1.3239-23.2867-1.9192-4.541-3.2435-5.4911-11.9379-3.9596-17.5424,1.5316-5.6048,7.4084-16.0838,13.153-16.1219,5.7443-.0199,17.1142,8.3867,21.3155,15.9485,4.2013,7.5816,5.6293,21.8802,3.8904,29.5187-1.6064,7.0439-7.8538,13.0713-14.3217,16.2949-11.9303,5.9691-40.0844,16.9858-57.26,19.5004-15.1781,2.227-36.0681.9599-45.8014-4.4341-8.93-4.9509-12.0655-19.0199-12.5987-27.9258-.5331-8.8857,8.4803-25.5065,9.3998-25.4304.3584.0387-5.8346,15.2397-4.918,25.6998.5758,6.5833,9.1607,14.1831,13.1128,15.3545,8.6868,2.5714,15.6611,4.3566,23.6333,3.9149,11.6754-.6522,32.4652-3.761,46.4185-7.8113,13.0491-3.7623,32.0941-12.2453,37.2974-16.4296,2.7427-2.1876-2.7658-7.4277-6.0745-8.617Z"/>
    <path class="cls-1" d="M100.7462,248.8349c-1.7448,3.3196-2.9257,6.7173-5.9446,9.4231-1.0278.9219-2.2288,1.7855-3.5408,2.399-.2153.0966-2.99.6724-2.5506.9599,4.5042,3.0522,10.4112-5.6422,11.6742-8.0991.2841-.5374,1.685-3.3785,1.4186-4.3762-.1178-.4414-.5773-.1148-1.0567-.3067Z"/>
    <path class="cls-1" d="M84.5499,251.6323c.4039-.6439.6967-1.2885,1.2358-1.9047.6036-.7002,1.3215-1.4427,2.2725-1.7928.4699-.1681,1.0959-.182,1.2455.3362.1593.5463-.2526,1.1343-.6388,1.5268-.9416.9801-2.5797,1.7505-4.0618,1.7928l-.0531.0417ZM83.1449,250.7505c.111-.2525.2416-.5046.383-.7425.4201-.7147.9174-1.4004,1.4677-2.0589,1.0316-1.2045,2.4751-2.2829,4.1328-2.773,1.4982-.4484,2.5989.0976,2.7726,1.4841.1289,1.0367-.3814,2.045-.9608,2.9275-1.458,2.1846-4.5671,4.9854-7.7052,5.0555-1.2457.0285-1.9038-.6999-2.9788-1.0642-1.4177-.4765-2.8694.3084-3.88,1.1343-.3605.2945-.9191.7286-1.0107,1.1767-.1062.5182.5165.9381.8916,1.2465.7048.588,1.3438,1.1201,1.4515,2.0026.2816,2.3256-1.2649,5.0701-2.7663,6.8907-2.2208,2.6889-5.7757,5.1961-9.8215,4.9162-5.5954-.3921-4.3902-6.7927-3.1479-9.8602.2866-.7005.594-1.4004.9399-2.0867.4232-.8402.8898-1.6664,1.4257-2.4507.6325-.9249,1.45-2.5069,2.567-3.0959.3316-.1674-.3461,1.2329-.4055,1.3451-.4426.8259-.9077,1.6386-1.3696,2.4507-1.2761,2.2551-3.7865,7.3109.4813,8.5154,1.1376.3226,2.4847.224,3.6417.0424.9543-.1545,1.883-.4067,2.7663-.7425,1.3681-.5463,4.3709-2.3808,3.3039-4.0195-.6084-.9245-2.1098-1.2323-2.4381-2.3252-.3943-1.3302.6583-2.8008,1.5048-3.809,1.3663-1.6386,3.2541-3.6558,5.5408-4.3418.745-.2244,2.4477,0,3.2137.1823Z"/>
    <path class="cls-1" d="M73.0198,220.9051c-.9824.366-1.4821,3.8467-1.7384,4.7014-1.2232,4.0724-.1434,8.2676-.1254,12.4306.0028,1.1373-.046,2.2994-.1138,3.4437-.072,1.2217.4108-.04.702-1.2452.141-.5923.2781-1.1843.4095-1.7753.2126-.946.381-1.908.5002-2.8831.2204-1.7376.158-3.5248.0688-5.2719-.1454-2.8385-.0098-6.5552.2971-9.4002Z"/>
    <path class="cls-1" d="M67.0643,228.1744c-.8772,1.229-1.8138,2.361-2.2131,3.896-.5162,1.9967.3531,5.9499-2.4816,6.4681-1.2495.2306-1.8155-.902-2.0652-1.9192-.117-.4798-.2457-1.4004-.9596-1.1125-2.1669.8633-2.6869,4.4907-5.4354,4.3947-1.1171-.0381-2.0288-.8637-2.76-1.6317-.3513-.364-.8731-1.1893-1.4854-1.0354-.8751.2101-1.6929,1.5159-2.2301,2.1492-1.334,1.5539-2.7715,2.9556-4.3434,4.2802-.503.4219-2.0154,1.4004-1.8502,2.2071.1765.8825,1.5086.6519,2.069.46,1.3302-.46,2.451-1.5351,3.4374-2.5145.2649-.2485.8195-1.0744,1.2821-.9017,1.1535.4798,1.359,2.1691,3.1439,2.5149,1.9172.3835,3.8788-.4613,5.2243-1.8051.3435-.3451.5854-1.1512.9404-1.4004.0844-.0576.1863.2684.2113.3071.1861.3455.4682.6522.8405.8054.8598.3458,1.9922.096,2.8156-.2488,3.044-1.267,5.8404-5.6432,6.2703-8.8288.2513-1.8812-.4106-4.1842-.4106-6.0846Z"/>
    <path class="cls-1" d="M49.4625,252.1379c-.2399.2101-.5068-.538-.6871-.73-.3225-.3458-.8923-.3458-1.3147-.2498-.9596.2498-2.6813,1.8812-1.7543,2.9371,1.1669,1.3431,3.7983.0572,4.927-.6721.1458-.096,1.9058-1.4007,1.9596-1.132.0996.4987-.7928,1.3435-1.0749,1.6505-1.2361,1.3431-2.6813,2.5331-4.0458,3.7428-1.6161,1.4586-3.1187,3.6657-5.0497,4.7018-1.0902.5758-2.2341-.2495-3.1937.4798-2.1457,1.6697-3.8404,4.5102-6.823,4.7795-1.5104.134-2.0344-1.0172-3.2743-1.3246-1.0346-.2498-2.6831,2.5145-3.1437,1.8425-1.0078-1.4586,2.9478-5.3934,4.017-6.0648,2.3013-1.4398,2.3932,1.4206,4.326,1.1707,2.4568-.3074,3.8752-3.1479,5.948-4.2038,1.2609-.6519,2.2917.6721,2.5872.5189.2975-.1734.5162-.5374.7139-.7872,1.1055-1.4586-.428-1.3435-.925-3.0711-.3954-1.3812.5298-3.0129,1.2763-4.0876.8388-1.2283,2.1745-2.5916,3.7139-2.8216,1-.134,2.378.3074,2.5698,1.267.1249.6327-.5124,1.8233-.7523,2.0539Z"/>
    <polygon class="cls-1" points="307.2202 230.625 301.71 241.8346 312.5985 248.0318 318.1379 236.9962 307.2202 230.625"/>
    <polygon class="cls-1" points="81.1731 240.1755 79.7401 243.3657 82.6322 245.1586 84.0731 242.018 81.1731 240.1755"/>
    <polygon class="cls-1" points="72.9856 270.7601 71.5116 273.5377 74.3755 275.0495 75.8568 272.3146 72.9856 270.7601"/>
    <polygon class="cls-1" points="77.5477 269.32 76.0737 272.0979 78.9377 273.6095 80.419 270.8749 77.5477 269.32"/>
    <polygon class="cls-1" points="33.3325 255.0035 32.3109 257.6686 34.4591 259.2057 35.487 256.5823 33.3325 255.0035"/>
    <polygon class="cls-1" points="278.0082 330.0646 272.498 341.2742 283.3867 347.4713 288.9261 336.4354 278.0082 330.0646"/>
    <polygon class="cls-1" points="350.5961 349.7532 345.0859 360.9632 355.9745 367.1603 361.514 356.1244 350.5961 349.7532"/>
    <polygon class="cls-1" points="118.7264 250.1816 113.2161 261.3916 124.1047 267.5884 129.6442 256.5528 118.7264 250.1816"/>
    <polygon class="cls-1" points="65.85 126.2719 60.3399 137.4816 71.2283 143.6787 76.7678 132.6431 65.85 126.2719"/>
    <path class="cls-1" d="M331.5378,124.1409l-.8349,5.5578,58.9064-21.6512,1.998-6.2888c.5739-1.7584-60.0695,22.3822-60.0695,22.3822Z"/>
    <path class="cls-1" d="M407.3058,210.2293c.6739.7733,1.3038,4.3871,1.3038,4.3871,0,0,1.2614-3.5969,1.2905-5.0592.0265-1.3114-.0278-3.2948-1.1118-3.7319-1.4487-.5546-5.4069-.6558-7.5838.3193s-4.4182,3.4457-5.4744,5.5469c-1.0327,2.0678-1.2392,5.1432-.8555,7.0598.3736,1.8656,2.0949,3.5297,3.1585,4.4374.8949.7733,3.2301,1.0086,3.2301,1.0086,0,0-3.2991,2.6221-4.4137,4.4877-1.2013,1.9834-2.6998,4.942-2.7907,7.4966-.0895,2.5387.838,5.9,2.2485,7.7491,1.4123,1.8491,3.9452,3.0589,6.2201,3.3279,2.3468.269,5.4274-.5718,7.8563-1.681,2.429-1.1092,4.6599-3.0757,6.7168-4.9751,2.0566-1.8994,4.2466-4.5721,5.6207-6.4208,1.0549-1.4288,2.6207-4.757,2.6207-4.757,0,0-1.5453.7399-2.2692,1.2104-1.0958.7061-2.7731,2.2521-4.3009,3.0926-1.9924,1.0758-5.4657,2.6052-7.6483,3.4123-1.774.6555-3.5861,1.3951-5.4495,1.4288-1.8795.0334-4.783-.2018-5.8215-1.2104-1.0387-.9914-1.1383-3.4288-.4102-4.8073.9755-1.8322,6.2638-6.2524,6.2638-6.2524l5.5302-5.4966,3.649-3.9331-.9434-2.488-3.6007,2.7736s-3.8924,2.0337-5.3909,2.1515c-1.2672.1006-2.8024-.5546-3.6007-1.4288-.8-.8908-1.6921-2.6224-1.1911-3.8656.5361-1.3114,3.2155-3.4291,4.4064-4.0681.8335-.4371,2.0948-.4705,2.7409.2859Z"/>
    <path class="cls-1" d="M390.7799,267.2985c-1.7275-.3015-4.2709,1.089-4.9627,2.6178-.6919,1.5291-.4894,5.3834.8299,6.5303,1.3332,1.1615,7.1596.3838,7.1596.3838,0,0,5.6778,13.7837,7.3665,15.288,1.6874,1.5178,2.043-4.0936,2.7491-6.2514.9896-3.0019,1.8651-9.4879,3.1293-11.7933.7328-1.3104,3.5587-2.4047,4.5006-2.0192.9419.3862-.1312,4.2518,1.1368,4.3209,1.2523.0672,5.8429-2.2379,6.4063-3.8868.5776-1.6337-1.1122-5.0555-2.9679-5.9592-1.8555-.903-6.0942-.9507-8.1668.5516-2.1894,1.5857-3.8747,6.1564-5.0054,9.0108-1.0127,2.5976-1.7329,8.1193-1.7329,8.1193,0,0-3.3692-9.6852-5.1181-12.4962-1.1552-1.8815-3.6126-4.1174-5.3244-4.4165Z"/>
    <path class="cls-1" d="M195.6996,396.6204c-1.7275-.3015-4.2709,1.089-4.9627,2.6178-.6919,1.5291-.4894,5.3834.8299,6.5303,1.3332,1.1615,7.1596.3838,7.1596.3838,0,0,5.6778,13.7837,7.3665,15.288,1.6874,1.5178,2.043-4.0936,2.749-6.2514.9897-3.0019,1.8651-9.4879,3.1293-11.7933.7329-1.3104,3.5588-2.4047,4.5008-2.0192.9417.3862-.1312,4.2518,1.1366,4.3209,1.2525.0672,5.8431-2.2379,6.4064-3.8868.5776-1.6337-1.1123-5.0555-2.968-5.9592-1.8554-.9034-6.0942-.951-8.1668.5516-2.1892,1.5857-3.8745,6.1564-5.0052,9.0108-1.0127,2.5976-1.7331,8.1193-1.7331,8.1193,0,0-3.3691-9.6852-5.1181-12.4962-1.155-1.8815-3.6125-4.1174-5.3242-4.4165Z"/>
    <path class="cls-1" d="M338.7596,70.1292c-1.7275-.3015-4.2709,1.089-4.9627,2.6181-.6919,1.5288-.4894,5.3834.8299,6.53,1.3332,1.1615,7.1596.3838,7.1596.3838,0,0,5.6778,13.7837,7.3665,15.288,1.6874,1.5178,2.043-4.0936,2.749-6.2514.9897-3.0019,1.8653-9.4879,3.1293-11.7933.7329-1.3104,3.5588-2.4047,4.5008-2.0192.9419.3865-.1312,4.2518,1.1368,4.3209,1.2523.0672,5.8429-2.2379,6.4063-3.8864.5776-1.634-1.1123-5.0558-2.9679-5.9595-1.8555-.903-6.0944-.9507-8.167.5519-2.1892,1.5853-3.8745,6.1561-5.0052,9.0104-1.0127,2.5976-1.7331,8.1197-1.7331,8.1197,0,0-3.3691-9.6855-5.1181-12.4965-1.155-1.8815-3.6125-4.1171-5.3242-4.4165Z"/>
    <path class="cls-1" d="M67.9418,74.7165c-1.7275-.3015-4.2709,1.089-4.9627,2.6178-.6919,1.5288-.4894,5.3834.8299,6.5303,1.3332,1.1611,7.1596.3835,7.1596.3835,0,0,5.6778,13.784,7.3665,15.288,1.6874,1.5178,2.043-4.0933,2.749-6.2511.9897-3.0019,1.8653-9.4883,3.1293-11.7933.7329-1.3104,3.5588-2.405,4.5008-2.0192.9419.3862-.1312,4.2514,1.1368,4.3209,1.2523.0668,5.8429-2.2382,6.4063-3.8868.5776-1.6337-1.1123-5.0555-2.9679-5.9595-1.8555-.903-6.0944-.9507-8.167.5519-2.1892,1.5853-3.8745,6.1564-5.0052,9.0104-1.0127,2.5976-1.7331,8.1197-1.7331,8.1197,0,0-3.3691-9.6852-5.1181-12.4962-1.155-1.8818-3.6125-4.1174-5.3242-4.4165Z"/>
    <path class="cls-1" d="M261.5662,67.0965c-.0746-.0884-.4611.498-.4886.5433-.6775.9748-1.9553,2.6313-1.3658,4.0026,1.6917,3.9496,6.0522,5.4844,8.0159,11.7642.8316,2.6982,1.1636,5.5836,1.2639,8.4353.0108.3541-.1597,4.2809.3542,4.0946,1.3274-.4795,1.7084-6.9976,1.6998-8.2441-.026-8.5359-3.6771-15.7453-9.4795-20.596Z"/>
    <path class="cls-1" d="M114.3796,39.0939c-.0746-.0884-.4611.498-.4886.5433-.6775.9748-1.9553,2.6313-1.3658,4.0026,1.6917,3.9496,6.0522,5.4844,8.0159,11.7642.8316,2.6982,1.1638,5.5836,1.2639,8.4353.0108.3541-.1595,4.2809.3542,4.0946,1.3274-.4795,1.7084-6.9976,1.6998-8.2441-.0258-8.5359-3.6771-15.7453-9.4795-20.596Z"/>
    <path class="cls-1" d="M57.3343,223.4967c-.0109-.0146-.0667.0827-.0706.0903-.0979.1621-.2829.4371-.1961.6658.2485.6588.8838.9173,1.1735,1.9646.1226.4497.1729.9305.1891,1.4057.0018.0585-.0205.7127.0541.682.1928-.0791.244-1.1641.2421-1.3719-.0091-1.4216-.5448-2.6247-1.3921-3.4364Z"/>
    <path class="cls-1" d="M209.299,120.1728c-5.6364,2.5949,4.5774,14.5689-.772,15.9849-6.8391,1.814-4.8465-14.4822-7.8084-15.3747-1.472-.4441-1.1309,4.0006-1.0771,4.54.4128,3.2485,3.5365,10.925-2.172,11.8205-6.0853.9507-4.8647-7.1799-4.7388-10.5114.0177-.7108.3769-4.3987-1.2028-4.1512-5.0262.7816-1.4361,13.3588-.7718,15.9488.359,1.3951.9153,2.9596,2.154,3.8639,4.5416,3.316,6.6956-4.125,8.7239-4.3289,1.526-.1542,2.8904,4.5155,6.0317,3.9384,1.4179-.2578,2.4234-1.5304,3.1234-2.6297,3.8236-6.0098.5384-13.065-1.4899-19.1006Z"/>
    <path class="cls-1" d="M60.0718,229.992c-.9973.3428.8099,1.9255-.1367,2.1128-1.2101.2396-.8577-1.9143-1.3817-2.0324-.2604-.0586-.2.5291-.1906.6003.0731.4295.6259,1.4437-.3843,1.5622-1.0768.1257-.8607-.9487-.8385-1.3891.0033-.094.0668-.5814-.2128-.5486-.8893.1032-.2541,1.7657-.1367,2.1078.0635.1843.1621.3911.3812.5106.8036.4384,1.1848-.545,1.5438-.5721.2699-.0202.5112.5969,1.0672.5205.251-.0341.4288-.2022.5526-.3474.6765-.7942.0953-1.727-.2636-2.5244Z"/>
    <path class="cls-1" d="M313.6153,32.6248s-2.3792,7.3811-3.6295,11.0415c-1.2917,3.7792-3.6896,8.3973-4.1181,11.6302-.3516,2.6515.2927,6.2335,1.5554,7.7166,1.264,1.4838,4.4943,1.771,6.0249,1.1499,1.5321-.6211,2.6116-3.1201,3.1669-4.894.5554-1.775.163-5.7021.163-5.7021,0,0-2.3967,4.2044-3.5951,4.8484-1.1575.6118-2.9581-.1658-3.5908-1.0546-.6327-.8706-.4355-2.86-.206-4.2594.3099-1.8947,1.5317-5.35,2.0623-7.0575.5835-1.8769.9106-4.7365,1.517-7.4052.3645-1.5976.6499-6.0138.6499-6.0138Z"/>
    <path class="cls-1" d="M115.7928,364.4131s-2.379,7.3814-3.6295,11.0419c-1.2917,3.7789-3.6896,8.3973-4.1179,11.6302-.3517,2.6515.2925,6.2335,1.5552,7.7166,1.264,1.4838,4.4943,1.771,6.0251,1.1499,1.5319-.6214,2.6115-3.1201,3.1667-4.8944.5554-1.7746.163-5.7021.163-5.7021,0,0-2.3966,4.2048-3.5951,4.8487-1.1575.6118-2.9581-.1658-3.5908-1.0546-.6327-.8709-.4355-2.86-.206-4.2594.3099-1.8947,1.5317-5.35,2.0623-7.0575.5835-1.8769.9106-4.7365,1.517-7.4052.3645-1.5979.6499-6.0141.6499-6.0141Z"/>
    <path class="cls-1" d="M125.2857,184.1337s-2.3792,7.3814-3.6295,11.0419c-1.2918,3.7789-3.6897,8.397-4.1181,11.6299-.3517,2.6515.2925,6.2335,1.5552,7.7166,1.2642,1.4841,4.4943,1.771,6.0251,1.1502,1.5319-.6214,2.6115-3.1201,3.1667-4.8944.5554-1.775.163-5.7021.163-5.7021,0,0-2.3966,4.2048-3.5949,4.8484-1.1577.6118-2.9581-.1658-3.5909-1.0546-.6327-.8706-.4353-2.86-.2058-4.259.3099-1.8951,1.5316-5.3503,2.0622-7.0578.5837-1.8765.9106-4.7362,1.517-7.4049.3647-1.5979.6501-6.0141.6501-6.0141Z"/>
    <path class="cls-1" d="M339.17,256.0085c-4.2392,1.092-7.4723,10.7338-7.4723,10.7338l23.3919.6314-21.3916,13.4641s13.6343-1.7746,18.9689-5.58c5.333-3.8057,15.2843-14.0445,13.0334-17.2529-2.2491-3.2081-20.8627-3.4642-26.5304-1.9963Z"/>
    <path class="cls-1" d="M303.5999,156.9736c-4.2393,1.092-7.4724,10.7338-7.4724,10.7338l23.3919.6314-21.3916,13.4641s13.6345-1.7746,18.9691-5.58c5.3328-3.8057,15.2842-14.0441,13.0334-17.2525-2.2491-3.2084-20.8628-3.4642-26.5304-1.9967Z"/>
    <path class="cls-1" d="M185.667,248.869c-4.239,1.092-7.4721,10.7338-7.4721,10.7338l23.3918.6314-21.3915,13.4641s13.6343-1.7746,18.9688-5.58c5.333-3.8057,15.2845-14.0445,13.0335-17.2529-2.2491-3.2081-20.8627-3.4642-26.5305-1.9963Z"/>
    <path class="cls-1" d="M31.8107,246.1582c-.7821.227-1.3787,2.2303-1.3787,2.2303l4.3159.1314-3.9468,2.7974s2.5155-.3683,3.4998-1.1595c.9838-.7905,2.8199-2.9179,2.4047-3.5847-.415-.6664-3.8492-.72-4.8949-.415Z"/>
    <path class="cls-1" d="M354.2266,297.7279l-4.426,12.7778s5.0112,8.0753,3.2672,10.1762c-3.4247,4.124-9.7002,3.1601-13.2761,1.9652-3.5739-1.1946-8.1771-9.1349-8.1771-9.1349l-3.787,11.8138s9.7998,18.6751,7.2155,27.0002c-2.9586,9.5396-27.4402,22.2018-39.9358,27.6941-10.7614,4.722-13.6384,4.5095-35.0378,5.2421-6.3932.2121-13.2422-2.7369-18.0128-6.4175-4.7703-3.6809-9.0531-9.5971-10.612-15.6487-1.6327-6.3407.8122-22.4338.8122-22.4338,0,0-4.1412,10.022-4.4,15.3029-.3066,6.2825-.6233,15.5332,2.5605,22.3362,3.1815,6.803,8.617,15.7072,16.5351,18.4818,9.2085,3.219,26.198,3.8543,38.7175.81,12.84-3.1227,30.1021-14.5312,38.321-19.542,4.3603-2.6604,8.4898-6.7646,10.9884-10.523,2.3492-3.5459,3.2791-7.8629,3.998-12.0068.878-5.0489,1.2683-18.328,1.2683-18.328,0,0,7.0601.5205,9.7977-1.2521,3.0006-1.9467,6.9269-6.2256,8.2011-10.4075,1.4197-4.6631.9955-12.9505.3264-17.6145-.5294-3.6618-4.3442-10.2917-4.3442-10.2917Z"/>
    <path class="cls-1" d="M170.9473,21.5883s1.956-4.1459,3.9192-4.6455c2.2572-.5754,8.3797-.0381,9.6291,1.229,1.2475,1.2478-.9173,4.4523-2.1399,6.3146-1.944,2.9553-9.5637,9.0204-9.5215,11.4389.0422,2.399,5.4968,3.723,9.777,3.0516,3.8385-.5946,11.0109-2.4182,11.0109-2.4182,0,0-5.7752,4.6061-12.3489,6.5446-2.9478.8643-7.3662.1731-9.1319-1.2667-1.7657-1.4391-2.3702-5.0668-1.4624-7.4086,1.2841-3.3395,9.1243-10.3834,9.1685-12.5326.0442-2.1303-8.8999-.3071-8.8999-.3071Z"/>
  </g>
</svg>