<?xml version="1.0" encoding="UTF-8"?>
<svg id="Al-Qahtani" xmlns="http://www.w3.org/2000/svg" viewBox="0 0 211.4137 205.5844">
  <defs>
    <style>
      

      @import url('../../CSS/SvgStyling.css');
      
    </style>
  </defs>
  
  <g class="content">

    <rect id="bg" class="bg" width="211.4137" height="205.5844"/>

    <g>
      <path class="cls-1" d="M202.5583,102.846c-.1743,53.4357-42.9998,96.8231-96.8717,96.7623-53.8162-.0608-97.0228-42.9261-96.8306-97.2258C9.0463,48.6329,52.0688,6.1349,105.4734,5.9766c53.9692-.16,97.0085,43.374,97.085,96.8694ZM199.8982,102.6698c-.1898-52.014-41.8362-93.6916-93.4122-94.0198C53.5244,8.3131,11.7422,50.2775,11.5155,102.2317c-.231,52.9324,41.6259,94.5046,93.8544,94.7036,52.7593.201,94.4433-42.0942,94.5283-94.2655Z"/>
      <path class="cls-1" d="M197.0656,102.7697c.4875,50.0804-40.8546,91.4648-91.3075,91.4201-50.3978-.0446-91.3284-40.9362-91.4145-91.2009-.0871-50.8252,41.2724-91.566,91.4768-91.5942,50.2301-.0282,91.7547,41.3439,91.2452,91.375ZM107.0949,189.5035c2.578.0298,6.432-.2435,10.2635-.7559,6.8781-.9198,13.5616-2.6155,20.0404-5.125,4.9007-1.8983,9.6086-4.1957,14.0491-6.9845,4.4966-2.8241,8.7545-5.9746,12.6957-9.578,4.9628-4.5374,9.3921-9.5229,13.2007-15.0349,3.3178-4.8017,6.1051-9.9218,8.3574-15.3258,4.8593-11.6593,7.1483-23.7697,6.7242-36.4158-.2039-6.0812-1.0066-12.0424-2.4169-17.959-2.2017-9.2367-5.9233-17.8008-10.9678-25.8156-4.4445-7.0615-9.8494-13.3127-16.1271-18.7886-6.0742-5.2983-12.7637-9.687-20.0815-13.0993-4.9665-2.3159-10.0874-4.1964-15.4098-5.5098-8.3443-2.0591-16.7896-3.0079-25.4016-2.5724-4.3928.2221-8.7406.694-13.0403,1.551-9.8916,1.9717-19.176,5.5221-27.8237,10.7575-5.9758,3.6178-11.4267,7.8853-16.3826,12.786-4.2891,4.2413-8.0235,8.9425-11.3779,13.9579-3.1242,4.6712-6.1031,9.4239-8.3616,14.581-1.4293,3.2637-2.6867,6.5912-3.6988,10.0248-1.1819,4.0097-1.9942,8.0923-2.4513,12.2139-.4487,4.0457-.6398,8.1362-.3331,12.2264.1359,1.8125.1678,3.6352.4479,5.4328.5823,3.7382,1.226,7.4589,2.2136,11.1251.9372,3.4793,1.8095,6.975,2.986,10.3825,1.9578,5.6707,4.5532,11.0405,7.6296,16.1908,2.4619,4.1216,5.2338,8.0264,8.3747,11.6369,5.6103,6.4491,11.9926,12.029,19.2438,16.6088,5.2374,3.3079,10.7367,6.0834,16.5416,8.1976,9.6155,3.502,19.5665,5.2633,31.1059,5.2914Z"/>
    </g>
    <g>
      <path class="cls-1" d="M90.1953,69.5805c1.9298,3.2937,3.9312,8.3674,3.7689,9.5291-.8858-.1205-1.1039-1.0414-1.8551-1.5109,0,.2628-.0262.466.0038.6605.7986,5.1764,1.6288,10.348,2.3979,15.5287.5578,3.7576.9907,7.533,1.0788,11.3355.0516,2.2277.0078,4.4556-.6642,6.6164-.0417.1343-.0054.2928-.0054.5791.8661-.8347,1.6252-1.585,2.4048-2.3134,1.32-1.2334,2.7465-2.3284,4.3147-3.2313,2.5391-1.462,5.2382-2.0064,8.1312-1.3901,1.2314.2623,2.3636.7362,3.353,1.5457,2.0526,1.6795,2.693,4.22,1.5197,6.6182-.469.9585-1.1702,1.8044-1.7775,2.6936-.1778.2603-.3959.4932-.6346.7868,1.8581.0481,14.7359-3.8653,18.1538-5.5011-.2292-.1285-.3908-.2664-.576-.3157-2.0241-.5388-4.0517-1.0644-6.0789-1.5914-.1252-.0325-.2841-.1064-.3783-.0605-.7795.38-1.5393.0315-2.3072-.0297-1.3703-.1092-2.7418-.2024-4.1125-.3071-.3829-.0293-.7644-.0754-1.1976-.1189.3041-1.2509.7299-2.3396,1.482-3.2655.2115-.2603.5473-.5035.867-.5769,1.0827-.2488,2.1781-.4683,3.2806-.5937.4629-.0526.9686.1161,1.4329.2566,2.6937.8147,5.3792,1.6566,8.0707,2.4787,4.9202,1.503,9.9676,2.178,15.0988,2.2966.3564.0082.7131.0011,1.1892.0011-.0831.34-.0983.5994-.2065.8113-.4759.9318-.976,1.8512-1.4727,2.7722-.2165.4015-.5393.4744-.9909.4119-1.0026-.1388-2.0147-.2112-3.0242-.2953-.3177-.0265-.6394-.0041-.9588-.0041-.0015,2.0392,1.285,3.9616,3.1396,4.6672,1.8299.6962,3.6675.4883,5.4788-.1332.1133-.0389.2012-.1516.2525-.1919-.1777-1.0184-.4075-1.9709-.4987-2.9365-.1742-1.8444.2548-3.5771,1.1716-5.1865.8634-1.5156,1.8438-2.9392,3.1958-4.073,1.8264-1.5318,2.8919-1.2836,3.945.8705,1.6571,3.3894,1.0157,6.6102-.6537,9.7683-.1327.2511-.2913.4885-.4214.705.0828.1158.1106.2015.1574.2135,2.3064.5902,4.5829.712,6.7734-.4515,1.4482-.7692,2.1789-1.9149,1.9565-3.6026-.3591-2.7259-.624-5.466-1.0529-8.1805-1.3229-8.373-2.6996-16.7376-4.073-25.1026-.1073-.6537-.0557-1.3797-.666-1.8892-.1207-.1008-.1273-.4556-.0584-.6472.4729-1.3145.98-2.6167,1.5193-4.0368.2651.2348.4573.3271.5242.4758,1.3962,3.1022,2.7819,6.2092,4.1549,9.3218.0933.2114.0697.4744.12.8659-1.1227-.5668-1.6428-1.5767-2.6085-2.2366,0,.2903-.0306.5012.0044.7006,1.0758,6.125,2.1901,12.2434,3.2267,18.375.589,3.4839,1.1813,6.9754,1.0927,10.534-.06,2.4092-.6875,4.652-1.9412,6.7133-1.5208,2.5003-3.7306,3.7884-6.675,3.7453-2.2115-.0324-4.3747-.3133-6.3167-1.3426-1.2466.5771-2.4337,1.1978-3.6738,1.683-1.5851.6202-3.2371.7577-4.9219.3936-2.398-.5182-4.1209-2.2951-4.5511-4.7103-.1856-1.042-.2208-2.0802-.0389-3.1259.0594-.3416.0805-.6898.1337-1.1648-.5687.0425-1.0166.0475-1.4554.1132-3.6078.5395-7.0797,1.6109-10.5438,2.7117-3.9294,1.2486-7.7869,2.7141-11.7912,3.7385-5.383,1.3771-10.8313,2.2165-16.3867,2.4253-2.4506.0921-4.8931.3862-7.3427.53-1.1405.0669-2.2926.0467-3.4336-.0253-3.0426-.1918-5.2053-1.7735-6.656-4.388-1.2911-2.3269-1.9266-4.8681-2.2379-7.4821-.5613-4.7134-1.0283-9.438-1.5807-14.1526-.7623-6.5055-1.6999-12.9851-3.1351-19.3816-.2068-.9215-.5414-1.8156-.843-2.7137-.079-.2353-.2557-.4378-.4467-.753-.4051.5998-.752,1.1134-1.0989,1.6271-.0853-.0226-.1706-.0451-.2558-.0677-.017-.3659-.1005-.7434-.0396-1.0958.2819-1.6294.9016-3.1431,1.7173-4.5722.393-.6886.8192-.7205,1.2656-.0638.3628.5338.6439,1.1403.8662,1.7493.9585,2.6253,1.4632,5.3653,1.9458,8.1052,1.2161,6.9044,1.8508,13.8871,2.7688,20.8317.4332,3.2767.8722,6.5537,1.3915,9.8173.2844,1.7874.9168,3.4835,1.91,5.0159,1.442,2.2246,3.4561,3.4073,6.1523,3.3553.9681-1.2905,1.9493-2.5172,2.8298-3.8124.3535-.5201.6-1.1725.6987-1.7958.4028-2.5459.1589-5.1007-.0858-7.6416-.5966-6.1943-1.5683-12.3379-2.5742-18.4765-.577-3.5212-1.1133-7.0491-1.6579-10.5755-.1205-.7801-.2477-1.5377-.7378-2.206-.1673-.2281-.2563-.6486-.167-.9073.4482-1.2986,1.1459-2.4743,1.9212-3.7468ZM91.736,118.6338c.1919.0364.2863.07.3803.0691.2613-.0025.5224-.0191.7836-.0305,3.7753-.1653,7.466-.8591,11.1063-1.8297,2.5261-.6736,5.0389-1.4003,7.4196-2.5106,1.4597-.6807,1.587-1.4431.4167-2.7143-.066-.0717-.144-.1331-.2203-.1946-1.6848-1.3584-3.5927-2.1154-5.7726-2.1253-2.3676-.0108-4.4833.7845-6.4541,2.0357-2.9336,1.8624-5.3119,4.3265-7.5338,6.9591-.0552.0654-.0645.1695-.1258.3412ZM150.5731,112.4518c.0559.3258.0609.529.1267.71.4137,1.138,1.2971,1.862,2.269,2.4896.125.0807.404.0549.5389-.033.875-.5704,1.7369-1.1618,2.5876-1.768.3097-.2207.4426-.53.3626-.9437-.2403-1.2424-.7094-2.3881-1.4703-3.392-.5532-.7299-.9941-.8028-1.7826-.3252-.9364.5672-1.6831,1.3496-2.242,2.2902-.1946.3274-.2893.7141-.39.9721Z"/>
      <path class="cls-1" d="M59.6706,113.343c.4451-1.2159.8564-2.3126,1.2459-3.4169.1522-.4316.4759-.5567.8779-.6731,1.7914-.5183,3.5776-1.0562,5.3554-1.6194.4945-.1567.9534-.4256,1.4294-.6413.4636-.21.5221-.5689.3095-.972-.2437-.4619-.4937-.9304-.8113-1.3416-.8001-1.0357-1.642-2.0391-2.463-3.0586-1.1734-1.4571-2.2503-2.9769-3.0363-4.6856-.0955-.2076-.1693-.4548-.3297-.5978-.6366-.5674-.599-1.241-.4228-1.9803.1941-.8146.3364-1.6415.5413-2.6626,1.7028,1.2228,3.1336,2.4046,4.2879,3.8914-.0269.0685-.0539.137-.0808.2055-.4547-.0673-.9094-.1346-1.4999-.2219.1781.2961.268.4921.3987.6555.8386,1.0481,1.6417,2.129,2.5389,3.1249,2.9298,3.2521,2.6635,7.4121.8854,10.2869-.0468.0757-.0496.1787-.0969.3618.825.0979,1.6302.1438,2.4133.3.8284.1653,1.6682.3569,2.4455.6768,1.5167.6242,2.2702,1.8112,2.2408,3.4669-.0426,2.4013-.8703,4.4805-2.5989,6.1646-1.7977,1.7515-3.9178,3.0622-6.0802,4.2962-3.7848,2.1599-7.6271,4.2103-11.8041,5.5325-2.8971.9171-5.8385,1.4696-8.8972.9532-4.6131-.7788-8.2777-4.4153-9.0751-9.0307-.6122-3.5429-.0982-6.9771,1.0147-10.3485.327-.9906.7108-1.9624,1.0766-2.9646-2.3322-.8462-2.7019-2.8684-2.7836-4.8536-.0677-1.6455.2253-3.3248.5136-4.9618.5296-3.007,1.4599-5.9073,2.6436-8.7221.1548-.3681.4047-.6961.7268-1.2384.2444.7782-.0066,1.2519-.1277,1.7293-.708,2.7906-1.4555,5.5717-2.1264,8.3711-.329,1.3728-.4994,2.7917-.1025,4.1803.174.6088.4768,1.2194.8626,1.7201.5843.7584,2.019.7978,2.6112-.2056.3265-.5533.6923-1.0835,1.2355-1.597.0436.2285.1518.4664.1201.684-.1757,1.2072-.4789,2.3895-1.175,3.4051-.3036.443-.7948.7546-1.1837,1.1431-.1973.1971-.4468.406-.5189.6542-.713,2.4542-1.3025,4.9273-1.4554,7.4999-.3464,5.8276,3.4612,9.0002,7.7716,10.0789,1.8967.4747,3.8245.4192,5.7486.1663,3.9221-.5156,7.517-1.9914,10.985-3.8088,3.3072-1.7332,6.5299-3.6123,9.5747-5.7827.1865-.1329.3664-.2755.5453-.4186.8299-.6637.8066-1.0419-.1329-1.582-.9537-.5483-2.0124-.7796-3.0897-.9043-2.9261-.3388-5.8552-.6518-8.7819-.9849-.5401-.0615-1.075-.1691-1.7255-.2736Z"/>
      <path class="cls-1" d="M172.7217,64.2504c-.3593,1.1824-.7628,2.1594-1.4475,3.0071-.3237.4007-.7627.5732-1.2509.7079-5.3,1.4629-10.6273,2.8379-15.8846,4.4418-6.7934,2.0725-13.5597,4.2439-20.2841,6.5301-10.7021,3.6385-21.1489,7.9265-31.3834,12.7282-.3546.1664-.7035.345-1.0589.5096-.0533.0247-.1279.0034-.2207.0034-.0253-.0817-.0966-.1844-.0711-.2483.6669-1.6661,1.5109-3.1682,3.1852-4.0804,3.0823-1.6793,6.2776-3.1081,9.5151-4.4495,11.0812-4.5913,22.451-8.3678,33.8821-11.9679,7.9304-2.4976,15.909-4.8317,23.9519-6.9425.3047-.08.615-.1388,1.0669-.2396Z"/>
      <path class="cls-1" d="M169.0647,70.1141c1.6727,3.1368,3.1683,6.3575,4.4403,9.6829.0862.2253.0974.4792.1663.8388-1.2462-.4054-1.6813-1.5914-2.7287-2.202.0296.3298.0338.5445.0698.7537,1.4328,8.3509,2.9078,16.6948,4.2831,25.0552.4987,3.0316.7898,6.099,1.1212,9.156.3119,2.8769-.1821,5.6743-.9975,8.4254-.0647.2185-.1628.4272-.2488.6391-.0372.0916-.0828.1796-.1247.2693-.0763-.0158-.1526-.0316-.2289-.0474-.0786-.3204-.1997-.6371-.228-.9619-.1021-1.1734-.1212-2.3558-.2649-3.5234-.4875-3.9606-.9277-7.9299-1.5459-11.8708-1.1306-7.2065-2.389-14.3929-3.5661-21.5922-.4645-2.841-.8521-5.6946-1.2801-8.5416-.0724-.4819-.1326-.9578-.5168-1.3451-.1442-.1454-.2132-.5006-.1441-.7006.4671-1.3532.9804-2.6905,1.4788-4.033.1049-.0008.2099-.0016.3148-.0023Z"/>
      <path class="cls-1" d="M146.0848,65.2401c-.0363,1.3307-.3928,1.8381-1.456,2.2196-13.1836,4.7295-26.352,9.501-39.3541,14.7143-2.3969.961-4.7285,2.0868-7.0763,3.1669-.5176.2381-1.07.4817-1.4955,1.1097.2711.1846.4753.391.7217.4782.5846.2068,1.1874.363,1.786.5288.8784.2432,1.0304.5054.7524,1.3298-.3104.9203-.518,1.0591-1.4456.7303-.7046-.2498-1.398-.5653-2.042-.9439-.8903-.5234-1.004-.902-.6944-1.8813.1574-.4981.3872-.973.5501-1.4696.263-.8018.8074-1.3227,1.5536-1.6696,1.4834-.6897,2.9348-1.4584,4.4508-2.0662,7.3198-2.9346,14.6347-5.8836,21.9946-8.7151,5.6182-2.1614,11.2963-4.1679,16.9588-6.2126,1.2597-.4549,2.564-.7876,3.8524-1.1603.2989-.0864.6171-.1059.9436-.159Z"/>
      <path class="cls-1" d="M53.7134,98.5427c-.2233-.2072-.4221-.4076-.6375-.5883-.4338-.3641-.9233-.467-1.4666-.2812-.5222.1786-.6575.6171-.6857,1.0884-.1132,1.8942-.2041,3.7898-.3103,5.6844-.0203.3614.104.5835.423.7978.6217.4178,1.2139.8886,1.7716,1.3895.3635.3265.6443.7161.442,1.2982-.1994.5739-.488.9031-1.1276,1.0484-1.143.2598-2.2794.5903-3.3746,1.0069-1.0608.4035-1.1717.704-.9545,1.8188.7822,4.014,1.5876,8.0235,2.3545,12.0404.1877.983.4421,1.973.2834,3.0681-.519-.2773-.4204-.7637-.4973-1.1315-.5628-2.6896-1.0862-5.3873-1.637-8.0795-.3475-1.6984-.7459-3.3867-1.0734-5.0888-.1998-1.0385-.2124-2.0781.3007-3.0669.4722-.9099,1.1718-1.5622,2.0918-1.9896.2312-.1074.4724-.1933.746-.3041-.8173-.5995-1.0952-.5141-2.1462.6928-.0511-1.1265.3234-1.9328,1.0141-2.6003.6043-.584.6293-.5686.2756-1.2804-.553-1.113-1.1676-2.1862-2.066-3.1247-.2462.1574-.4574.2925-.7534.4818-.5277-.3134-1.1021-.6192-1.6386-.9809-.9525-.6423-1.0905-1.0545-.8018-2.147.1791-.6777.4822-.8716,1.1495-.6609,1.1275.356,2.0416,1.0489,2.7454,1.978.5508.727,1.0046,1.5275,1.5029,2.2944.0853.1313.1778.258.4553.3838.0366-.2937.095-.5866.1059-.8813.0338-.9155-.0102-1.8383.0916-2.7453.0789-.7036.2481-1.4236.5278-2.0712.33-.7642.9139-.9431,1.7116-.6921.2156.0678.4255.1707.6193.2884.9985.6067,1.1297,1.1277.5585,2.3539Z"/>
      <path class="cls-1" d="M68.4979,69.5427c-.2228,1.0415-.653,1.6228-1.5253,1.9543-3.7306,1.4174-7.4654,2.8288-11.1533,4.3521-4.2336,1.7487-8.4247,3.6014-12.6227,5.4351-1.2285.5366-2.4208,1.1568-3.623,1.752-.3142.1555-.6035.3612-.9883.5948.2144.2341.3316.4336.5057.5392.5846.3544,1.179.6963,1.7898,1.0028.5456.2738.6823.4809.5138.9608-.1851.5275-.5484.7507-1.0771.4543-.7895-.4426-1.5856-.936-2.228-1.5625-.76-.7413-.3822-2.5885.5714-3.2194.4345-.2875.9074-.5252,1.3831-.7408,8.4965-3.8511,17.0947-7.4597,25.811-10.7849.5497-.2097,1.1128-.3868,1.6767-.5557.2702-.081.5568-.1073.9663-.1822Z"/>
      <path class="cls-1" d="M142.5049,84.8602c.0301-.3044.0784-.6083.0867-.9133.0234-.8509-.0375-1.7105.064-2.551.0887-.7343.2738-1.481.5616-2.1607.2974-.7023.9171-.8696,1.6467-.6229,1.3446.4547,1.689,1.1984,1.0943,2.5624-.1978-.1952-.3578-.3746-.5396-.5282-.3911-.3304-.8211-.5168-1.3531-.3621-.5655.1643-.7669.5849-.7973,1.1097-.1061,1.83-.1904,3.6613-.2993,5.4911-.0226.3803.1464.5812.4402.7935.5817.4202,1.1143.9076,1.6812,1.3492.4869.3792.5526.8469.3829,1.403-.1625.5327-.513.7514-1.0536.8764-1.015.2346-2.0383.4939-2.9997.8861-1.3471.5496-1.4108.7695-1.1316,2.1658.6033,3.0172,1.2242,6.0309,1.8075,9.052.2728,1.4132.4849,2.8385.7019,4.2618.05.3279.0074.67-.1753,1.0328-.0647-.162-.155-.3186-.1903-.4868-.8456-4.0362-1.6892-8.0728-2.5221-12.1116-.1254-.6082-.2142-1.2254-.2893-1.8422-.2318-1.9042.5574-3.3912,2.2585-4.2864.253-.1331.5104-.2578.799-.4031-.8151-.5077-.9015-.4833-1.8665.4723-.2119-.8813.0278-1.3916,1.3522-2.8239-.4678-1.3404-1.191-2.5601-2.1598-3.6493-.4264-.061-.7226.5294-1.1944.1854-.6299-.4593-1.3332-.8257-1.925-1.3266-.3258-.2758-.1788-1.6227.1023-1.9725.2466-.3069.5912-.3221.8916-.1757.5836.2843,1.1759.578,1.6949.962.9911.7333,1.667,1.7448,2.2594,2.8121.154.2775.3133.5521.4702.828.0672-.0091.1345-.0183.2017-.0274Z"/>
      <path class="cls-1" d="M51.5358,138.1246c-.6378,1.1206-1.2017,2.1113-1.8267,3.2094-1.4524-.8588-2.8728-1.6987-4.3895-2.5955.7183-1.2449,1.3958-2.4192,2.1431-3.7144,1.4517.8139,2.8592,1.6031,4.347,2.4372.58-1.0472,1.1437-2.0652,1.7473-3.155,1.4581.8552,2.8581,1.6763,4.3582,2.5562-.7207,1.2726-1.4187,2.5052-2.1348,3.7696-1.4615-.8633-2.8058-1.6575-4.2446-2.5074Z"/>
      <path class="cls-1" d="M157.101,98.7618c-1.4873-.8678-2.8358-1.6546-4.2866-2.5011-.6221,1.0508-1.2118,2.0467-1.8501,3.1249-1.469-.8587-2.868-1.6765-4.3388-2.5362.7089-1.2691,1.369-2.4508,2.0943-3.7495,1.4438.8382,2.8172,1.6355,4.3126,2.5036.5808-1.0255,1.1521-2.0343,1.7804-3.1439,1.4558.8453,2.8503,1.655,4.3496,2.5255-.6982,1.2791-1.363,2.4972-2.0614,3.7767Z"/>
      <path class="cls-1" d="M96.8038,129.271c.1619-1.1974.6602-1.9558,1.4764-2.5015.4454-.2978.887-.1217,1.2626.1873.4038.3322.553.7879.5771,1.3026.0499,1.0624-.1515,2.0809-.4939,3.0793-.1024.2987-.1889.6028-.1426,1.045.3713-.2169.7486-.4245,1.1129-.6527.9113-.5708,1.8616-.5508,2.822-.1747.7137.2795.9448.6799.8997,1.4501-.0547.9341-.452,1.7072-1.1785,2.2817-.3805.3009-.803.5787-1.2497.761-2.5666,1.0472-5.2463,1.5939-8.015,1.6697-.9548.0262-2.5719-.7155-3.4223-1.5283.4383-.0319.7823-.0588,1.1267-.0816,1.0104-.0668,2.0263-.0892,3.0289-.2169.4649-.0592.9439-.2565,1.3475-.5038,1.7647-1.0807,2.8023-2.706,3.3116-4.678.1118-.4328.1479-.912.0949-1.355-.1233-1.0304-1.0607-1.3813-1.8729-.733-.1918.1531-.3587.3375-.6853.6488ZM97.2865,135.5619c.8093.1231,2.8636-.3526,4.6629-1.0981.4295-.178.9046-.3161,1.1939-.8024-.6756-.5268-1.386-.7727-2.1429-.6404-1.5804.2762-2.7601,1.2182-3.7336,2.4476-.0126.0159.0123.0615.0197.0932Z"/>
      <path class="cls-1" d="M51.9208,83.5381c.5624,1.3903,1.163,2.6936,1.607,4.0483.2267.6915.2865,1.4852.2221,2.2151-.1466,1.6627-1.469,2.2967-2.8832,1.4141-.4512-.2816-.8034-.722-1.2653-1.1493-.1797.274-.3496.5387-.5251.7995-.4836.7187-1.1089,1.2271-2.0225,1.1608-.9572-.0695-1.521-.6943-1.8816-1.519-.4418-1.0105-.4843-2.0946-.5247-3.1748-.0163-.437.1835-.9223-.3744-1.2158-.0945-.0497-.1302-.3826-.0667-.5303.2267-.5266.508-1.0297.8519-1.7054.2326.3503.4204.5117.4477.6968.0854.5788.1213,1.166.1558,1.7511.0442.7499.0156,1.5079.1135,2.2499.1561,1.1831.7774,1.7728,1.6514,1.6819.9836-.1023,1.8869-1.0961,1.815-2.1086-.0646-.9107-.1964-1.8231-.3852-2.7164-.1313-.6217.0226-1.1441.2628-1.842.2168.2613.3816.3979.4667.5732.3792.7815.4636,1.6232.4947,2.481.0201.5523.0769,1.1099.1886,1.6504.141.6826.5907,1.1565,1.2167,1.4472.3875.18.771.141,1.0957-.1542.2861-.2601.2508-.5789.1224-.9038-.3365-.8516-.6625-1.7074-1.0102-2.5543-.4457-1.0857-.4224-1.4634.227-2.5953Z"/>
      <path class="cls-1" d="M44.0854,74.9691c-1.9311-.6149-3.9115-.5951-5.9893-.6874.5928-1.065,1.2476-1.9436,2.0473-2.7049.1665-.1586.4736-.2112.7231-.2343,1.8581-.1718,3.6539.1618,5.4031.7555.6858.2328.9245.7513.6107,1.4024-.8192,1.6995-1.9692,3.1506-3.8323,3.7199-1.2702.3881-2.6263.4959-3.9458.7184-.071.012-.1587-.0746-.4078-.2014,1.8381-.9997,3.6923-1.6843,5.3911-2.7682Z"/>
      <path class="cls-1" d="M126.889,85.6992c1.4007,1.1384,2.1814,2.4874,2.7248,3.9735.6305,1.7244.7644,3.4983.4044,5.3169-.2637,1.3319-.4782,1.3418,1.0127,2.117.573.2979,1.1103.6988,1.5894,1.1345.7159.6511.9172,1.4722.5937,2.4162-.3173.926-.8017,1.7151-1.6418,2.2546-1.5614,1.0028-3.2462.2328-3.3103-1.6028-.0348-.9957.1811-2.0101.3666-3.0006.1863-.995.5352-1.9606.7057-2.9574.2824-1.6507.0803-3.2584-.6359-4.7928-.3985-.8538-.9839-1.5581-1.7279-2.1039-.6355-.4662-.7929-.9805-.4704-1.6833.133-.2898.2201-.6007.3889-1.0718ZM132.435,100.5307c.0083-.1089.0166-.2179.0248-.3268-.506-.3917-.9983-.8029-1.5208-1.1711-1.196-.843-1.5532-.6943-1.8599.7446-.034.1593-.0563.323-.0636.4856-.0458,1.022.6981,1.6243,1.6574,1.2547.6218-.2396,1.177-.652,1.7621-.9869Z"/>
      <path class="cls-1" d="M59.3346,136.017c-.1706-1.3168.0027-1.6879.9603-2.1167,5.5327-2.4773,11.1992-4.6046,16.9641-6.4734.3052-.0989.6172-.1766.9416-.2686.0627,1.0773-.2168,1.5033-1.1999,1.8699-2.4844.9263-4.9719,1.8441-7.4563,2.7703-3.3437,1.2464-6.6837,2.5019-9.8579,4.1514-.0801.0416-.1843.0368-.3518.0672Z"/>
      <path class="cls-1" d="M134.3956,133.4799c-.25.7617-.7811,1.1964-1.3316,1.5905-1.5292,1.0947-3.2422,1.5115-5.109,1.2875-.1941-.0233-.3867-.0686-.5762-.1182-1.2767-.3339-1.7868-1.08-1.6053-2.3897.1686-1.217.7764-2.2152,1.6458-3.0516.4939-.4751,1.0429-.8928,1.5647-1.3392.2403-.2056.4749-.4181.8529-.7518-1.5275-.4591-2.8256-.2676-4.1173.2576.0926-1.1657.8306-2.072,1.8754-2.1656.9058-.0811,1.8291-.056,2.7378.0129.7177.0544,1.0134.4665.8113,1.1491-.1626.549-.4245,1.1148-.792,1.5455-.5036.5903-1.1518,1.0564-1.7322,1.5822-.5557.5033-1.1612.9666-1.6408,1.5351-.5965.7071-.4492,1.1813.3362,1.6635.636.3905,1.317.5612,2.057.5258,1.4528-.0695,2.8487-.3752,4.1729-.9894.2771-.1285.5667-.2303.8505-.3443Z"/>
      <path class="cls-1" d="M108.9757,100.1706c.2102-1.1551.3877-2.3174.6415-3.4629.1831-.8265.4135-1.6516.7211-2.4389.3396-.869.9184-1.1293,1.6957-.9074.9823.2804,1.5911,1.0642,1.4464,1.909-.0586.342-.1951.6706-.3422,1.1576-.3616-.331-.6079-.5639-.8623-.7878-.7017-.6175-1.2752-.5446-1.5849.3392-.3322.9479-.5198,1.9521-.7061,2.9438-.181.963-.2636,1.9441-.423,2.9118-.0727.4413-.2262.8693-.3472,1.3191-.5317-.0631-.6364-.426-.7567-.7466-.1951-.5201-.3007-1.0819-.551-1.5714-.4132-.808-.8907-1.5863-1.3903-2.3447-.1127-.1711-.4352-.3071-.6483-.2909-.9151.0698-1.5515-.4452-2.1496-.992-.4768-.4359-.5128-1.7312-.0586-2.1827.1898-.1886.6284-.3168.8646-.2299.5061.1862,1.0134.4639,1.4147.8222,1.1205,1.0005,1.81,2.3036,2.3821,3.6726.1316.315.2714.6265.4075.9397.0821-.02.1642-.04.2463-.0599Z"/>
      <path class="cls-1" d="M102.3085,79.9112c-.5129-.5931-.6395-1.2357-.8959-1.8165-.367-.8314-.7649-1.6521-1.2022-2.4485-.2577-.4694-.6346-.7076-1.2684-.7171-1.369-.0205-2.3114-1.2182-2.1077-2.4935.1227-.7682.6378-1.1334,1.3254-.7747.6204.3236,1.2561.7652,1.663,1.3182.6913.9394,1.2142,2.0037,1.7943,3.0233.1671.2937.2878.6137.4298.9216.0759-.0126.1519-.0252.2278-.0378.0806-.4989.142-1.0018.2455-1.496.2608-1.2457.531-2.4896.8201-3.7289.0657-.2815.1975-.5566.344-.8084.3807-.6547.8587-.8275,1.5719-.6046,1.4154.4423,1.7599,1.4435.9256,2.9091-.2906-.2731-.5555-.5457-.8448-.7891-.5688-.4785-1.0058-.4234-1.3383.2454-.244.4907-.4217,1.0341-.5193,1.5739-.2267,1.2536-.3853,2.5195-.5752,3.7798-.0954.633-.1666,1.2757-.5955,1.9438Z"/>
      <path class="cls-1" d="M72.0934,91.5197c.2196,1.0257.1947,2.0543-.3082,3.0074-.4772.9045-1.5334.9498-2.179.1362-.5891-.7422-.8544-1.6015-.8902-2.5489-.0628-1.6629.2617-3.2588.8245-4.8072.7147-1.9662.8072-3.961.358-5.9886-.2587-1.1677-.7854-2.2175-1.5076-3.1663-.8395-1.1031-.8474-1.6169.037-2.9365.1537.1659.329.2983.431.4734,2.1596,3.7101,2.9066,7.5989,1.4848,11.7652-.4657,1.3647-.8883,2.746-.8504,4.2106.0099.3837.0857.779.208,1.1433.1524.4543.5237.6324,1.0061.6145.4612-.0171.7365-.2754.8705-.6704.134-.3951.2016-.8126.2984-1.2204l.2173-.0124Z"/>
      <path class="cls-1" d="M151.5244,137.1886c-.1564-.2575-.3498-.5001-.4613-.7758-.2202-.5448-.3492-1.1297-.6005-1.6577-.2921-.6137-.6425-1.2068-1.0315-1.7644-.2078-.2979-.4702-.4664-.9739-.4234-1.2001.1024-2.2916-1.266-2.0628-2.4072.1455-.7257.6105-1.037,1.2847-.7186.5169.2441,1.0643.5869,1.3911,1.0363.6677.9181,1.2043,1.9327,1.7771,2.918.1879.3232.3205.6784.6584.989.0634-.237.1427-.471.1874-.7114.1913-1.0286.3377-2.067.5699-3.0859.144-.6319.3576-1.2617.6387-1.845.3715-.7709.925-.9234,1.7108-.5874,1.2149.5195,1.4391,1.3428.6792,2.6358-.1704-.1569-.3346-.3046-.4949-.4563-.8373-.7919-1.4481-.669-1.7747.4564-.281.9681-.429,1.9765-.6065,2.9723-.1605.9006-.2738,1.8096-.4254,2.712-.0367.2186-.1428.4255-.2171.6379-.0828.0252-.1657.0504-.2485.0756Z"/>
      <path class="cls-1" d="M56.8299,85.01c.1503-.3223.2331-.5325.3422-.7282.5387-.9665,1.0844-1.9291,1.6819-2.9896,1.5125.6882,2.8395,1.6041,4.3365,2.4778-.6893,1.2629-1.339,2.4531-2.045,3.7466-1.4458-.8398-2.8398-1.6495-4.3155-2.5067Z"/>
      <path class="cls-1" d="M85.1347,79.3104c.3198.8738.1538,1.6653-.2557,2.3704-.5442.9368-1.678.8841-2.1913-.0759-.4423-.8272-.604-1.7323-.5494-2.6619.1276-2.17.671-4.2629,1.2521-6.3441.0973-.3485.3403-.6564.516-.983.0835.0295.167.059.2505.0885-.0752.3591-.1545.7175-.2251,1.0775-.327,1.6684-.6947,3.3306-.9546,5.0094-.0972.6279.0242,1.2998.1115,1.9427.0599.441.3159.8138.8054.8756.5043.0636.7678-.2791.9606-.6861.0961-.203.1868-.4086.28-.613Z"/>
      <path class="cls-1" d="M86.8529,94.5953c-.0846.4184-.1461.7252-.2086,1.0318-.3194,1.5683-.702,3.1275-.9319,4.7088-.1144.7874.0176,1.6189.1037,2.4235.0441.4121.3215.7084.7902.7382.453.0288.7387-.2007.9298-.5845.123-.247.2457-.4942.4599-.7111.1022.9151.048,1.8058-.5565,2.5392-.6413.778-1.6077.6363-2.0641-.2677-.5681-1.1253-.6581-2.3456-.4507-3.5461.3054-1.7684.7262-3.5178,1.135-5.2666.089-.3808.1839-.8307.7934-1.0655Z"/>
      <path class="cls-1" d="M122.9165,96.8414c.27.8581.1588,1.6529-.257,2.3441-.5874.9765-1.7465.8976-2.2412-.129-.4189-.8692-.5614-1.8154-.5042-2.7711.1277-2.1331.7105-4.1805,1.259-6.2309.0798-.2983.28-.5644.6025-.8118,0,.1944.0331.3957-.0053.5822-.29,1.4075-.644,2.8039-.8757,4.2205-.1464.8951-.1372,1.8186-.1538,2.7302-.0051.2804.0885.5875.2181.8408.3622.7076,1.1243.7246,1.541.0466.1603-.2608.279-.5471.4166-.8218Z"/>
      <path class="cls-1" d="M60.1977,104.1192c.2932.8715.1454,1.6592-.3133,2.3479-.5922.8892-1.6137.8196-2.1162-.1188-.4455-.832-.5555-1.7468-.5076-2.6698.1127-2.1735.7259-4.25,1.3058-6.3292.068-.2437.2915-.444.443-.6643.0619.0309.1238.0618.1857.0926-.1999.8825-.3969,1.7658-.6005,2.6475-.3249,1.4066-.5862,2.8225-.5231,4.2738.0168.3854.0602.7959.2102,1.1436.305.7067,1.009.7559,1.4618.1252.1855-.2583.3047-.5642.4541-.8485Z"/>
      <path class="cls-1" d="M58.4175,120.4566c-.1322.6277-.2176,1.2701-.4102,1.8787-.182.5751-.6424.9266-1.2589.9275-.6061.0008-.9176-.4342-1.1243-.9482-.4263-1.0603-.5518-2.1734-.3472-3.2809.3207-1.7363.7209-3.4586,1.1244-5.1782.0815-.3476.3275-.6566.4977-.9834.0747.0288.1495.0576.2242.0864-.0466.2681-.087.5375-.1408.8042-.3109,1.5389-.6684,3.0701-.9182,4.6187-.1126.6984-.0609,1.4357.0084,2.1465.0432.4431.1986.9208.7595,1.0268.4624.0874.7451-.1264,1.0837-.7827.0705-.1366.1525-.2673.2292-.4008.0908.0285.1816.0571.2724.0856Z"/>
      <path class="cls-1" d="M152.8929,76.9908c-.0589.304-.1183.6079-.1767.912-.3199,1.6653-.6728,3.3252-.9407,4.9988-.0906.5663.0051,1.1703.0697,1.7511.049.4412.2573.8338.7498.9168.5413.0912.8414-.2429,1.053-.6909.0889-.1883.1964-.3679.3624-.5271.161.8305.0547,1.6187-.4201,2.2976-.6125.8757-1.6214.7853-2.105-.171-.485-.9591-.6665-2.0109-.488-3.0513.3142-1.8313.7285-3.6464,1.1422-5.4589.0858-.3758.3517-.7106.5347-1.0643l.219.087Z"/>
      <path class="cls-1" d="M83.3021,131.3447c-.1317-.9416.0084-1.6017.3208-2.2241.2538-.5056.673-.7923,1.2547-.7858.5424.0061.8548.3799.9956.8151.2184.675.4661,1.3857.461,2.0795-.0171,2.3379-.6294,4.5799-1.3126,6.7985-.0709.2302-.2471.428-.5435.5971.0314-.2281.0514-.4584.096-.6839.3166-1.5998.6739-3.1926.9404-4.8005.105-.6332.0306-1.3005-.0026-1.9502-.0129-.2514-.0956-.521-.2202-.7406-.3341-.5886-.9324-.6326-1.3503-.1073-.196.2464-.3427.532-.6394,1.0022Z"/>
      <path class="cls-1" d="M117.5437,133.7777c.2322.7354.1204,1.3982-.1715,2.0193-.2234.4752-.6184.7661-1.164.7541-.5257-.0116-.8092-.3642-1.0097-.8053-.4029-.8866-.5669-1.8345-.4029-2.7751.3133-1.7973.7151-3.5798,1.1092-5.362.0719-.3249.2817-.6194.4279-.9279.077.0232.1541.0463.2311.0695-.0609.3264-.1178.6536-.1836.979-.2713,1.3428-.5875,2.6784-.8007,4.0303-.1105.7004-.0915,1.4332-.0366,2.144.0507.6569.3949,1.0636.8102,1.0928.5579.0393.7881-.3657.9819-.7986.0639-.1427.1389-.2803.2088-.4203Z"/>
    </g>
  </g>
</svg>