<?xml version="1.0" encoding="UTF-8"?>
<svg id="Al-Quran" xmlns="http://www.w3.org/2000/svg" viewBox="0 0 437.1734 205.5844">
  <defs>
    <style>
      

      @import url('../../CSS/SvgStyling.css');

      
    </style>
  </defs>
  
  <g class="content">

    <rect id="bg" class="bg" width="437.1734" height="205.5844"/>


    <path class="cls-1" d="M411.1341,28.3142c0-4.0556-.6246-7.3965-1.8765-9.9916,0-1.6459,1.1566-5.122,3.5018-10.4295.5075-1.1823,1.0664-1.1617,1.6447.0451.6684,1.4386,2.2229,5.3783,4.6339,11.823,2.5758,6.7216,4.0595,10.8468,4.4768,12.4013.322,1.1823.5087,2.0619.5087,2.6454,0,1.852-1.7863.7405-5.3538-3.3396-.4173-.5783-.6285-.3271-.6285.7637,0,.3735,1.1115,15.9739,3.3859,46.7833,2.2744,30.8339,3.4065,47.824,3.4065,51.0025,0,9.7353-1.5043,18.3385-4.518,25.7994-.6298,1.5082-1.1372,2.5952-1.5094,3.27-.604.9505-.9505,1.0664-1.0664.3722-.1867-.7199-.1159-2.295.1855-4.7292.3722-3.3614.5589-7.2599.5589-11.7071,0-3.9642-1.2274-23.2081-3.6873-57.7241-2.456-34.498-3.6628-53.5088-3.6628-56.9849Z"/>
    <path class="cls-1" d="M348.0502,152.3886c-5.8574,2.5161-10.3239,4.4726-13.3005,5.8883-6.284,2.9179-10.6206,5.3072-12.9605,7.1649-4.3119,3.3599-10.5681,9.7799-18.7994,19.2383-4.8961,5.6596-9.8293,8.5064-14.7718,8.5064-4.145,0-7.7615-1.8762-10.871-5.6101-3.2641-3.8947-4.8899-8.6486-4.8899-14.2773,0-7.7429,3.1744-17.8504,9.548-30.3009.6739-1.2982,1.1839-1.9473,1.5548-1.9473.1885.0463.2566.2071.2566.4884,0,1.2735-1.3662,5.6101-4.1481,13.0501-2.7603,7.44-4.1265,13.3314-4.1265,17.6434,0,3.3166.7635,5.9563,2.3182,7.9283,1.6197,2.1328,3.9132,3.2208,6.8373,3.2208,5.1712,0,10.3826-2.6428,15.6713-7.8851,3.3414-3.9843,6.7013-7.9469,10.0364-11.9374,4.3614-4.9147,10.0859-9.2915,17.1797-13.1398,4.1512-2.275,11.4119-5.5638,21.6523-9.8757l10.225-4.3367c-1.4589-4.009-2.1792-8.1169-2.1792-12.265,0-6.2778.9273-11.3346,2.7819-15.1582,1.8762-3.805,4.3336-5.706,7.3967-5.706,2.7108,0,5.2609,2.2472,7.6471,6.7909,2.1328,4.009,3.2239,7.6749,3.2239,10.9451,0,8.2993-2.4357,15.1149-7.304,20.4222,3.4557,3.567,7.5822,5.3536,12.401,5.3536l.0124.0062.0124-.0062c4.009,0,7.9036-1.5486,11.687-4.6581,1.088-.9057,1.6444-4.2656,1.6444-10.0612,0-3.5237-1.0911-20.3757-3.2703-50.5623-2.1791-30.1801-3.2702-47.4509-3.2702-51.8132,0-4.0285-.6491-7.3448-1.901-9.9452,0-1.5041,1.1808-4.9802,3.5268-10.4293.2504-.6738.5069-.9956.7387-.9956.2565,0,.5594.3218.8809.9956.6027,1.5041,2.1575,5.4491,4.6643,11.823,2.5253,6.7009,3.9843,10.8466,4.4016,12.4462.3277,1.1619.5069,2.0428.5069,2.6468,0,1.8302-1.7588.7186-5.2825-3.4118-.4173-.578-.6275-.3218-.6275.765,0,.2563.9737,13.9802,2.9457,41.1988,1.969,27.2161,2.9642,42.909,2.9642,47.1035,0,12.1506-2.176,21.7234-6.5343,28.6751-3.7092,5.8667-8.0706,8.8093-13.0748,8.8093l-.0124-.0062-.0124.0062c-4.6581,0-9.4089-2.037-14.2772-6.1171-2.5964-2.1792-4.6396-4.5221-6.0985-7.0475l-13.8167,5.8667-1.1869.51ZM375.1334,126.2142c0-1.394-1.0911-3.5268-3.2239-6.4231-2.3399-3.1034-4.383-4.6334-6.0985-4.6334-1.2982,0-2.5717.7882-3.8235,2.3862-1.2518,1.5764-1.8762,3.0817-1.8762,4.519,0,1.2086.6677,3.3414,2.0617,6.3551,1.1807,2.6428,2.0864,4.4294,2.7571,5.3289,1.765-.8315,3.7772-2.0122,6.0522-3.567,2.7571-1.8577,4.1512-3.1744,4.1512-3.9657Z"/>
    <path class="cls-1" d="M295.8958,48.9002c0-4.035-.6285-7.3501-1.8816-9.9465,0-1.4592,1.163-4.9353,3.5018-10.4282.3014-.6749.5589-.9968.765-.9968.2563,0,.5332.3477.8797,1.0664.6748,1.4141,2.2294,5.3538,4.639,11.823,2.5707,6.6959,4.0544,10.8262,4.4729,12.3755.3271,1.1823.5126,2.0632.5126,2.6467,0,1.852-1.7863.7393-5.3577-3.3408-.4173-.5783-.6234-.322-.6234.765,0,.3722.9054,13.2616,2.7561,38.6669,1.8571,25.4118,2.7819,39.714,2.7819,42.8887,0,9.7855-1.5043,18.3836-4.4716,25.8033-.6298,1.5043-1.1372,2.5964-1.5094,3.27-.5783.9968-.926,1.1321-1.0664.4379-.161-.7638-.0914-2.3646.1855-4.7988.3722-3.3357.5783-7.2303.5783-11.6826,0-4.0338-1.0406-20.586-3.0781-49.6798-2.0684-29.0939-3.0845-45.3937-3.0845-48.8697Z"/>
    <path class="cls-1" d="M292.3489,125.9584c0,7.788-1.7657,13.7046-5.2869,17.7332-5.5393,6.4447-13.6789,12.7039-24.3904,18.7352-13.5823,7.5574-26.2412,11.3349-37.9676,11.3349-15.7666,0-26.6134-7.7223-32.5751-23.1618-1.1566-3.0137-1.7361-6.8568-1.7361-11.5667,0-3.1039.2318-6.2335.7405-9.4327.7638-4.6841,1.8108-8.8093,3.1541-12.3356.4173-1.0664.8346-1.6202,1.2519-1.6202.4185,0,.5087.7148.2524,2.1328-.5087,2.1804-1.0162,4.357-1.5043,6.5361-.8358,3.8728-1.2531,6.7203-1.2531,8.5517,0,6.379,2.1328,12.2403,6.3996,17.598,5.7956,7.1389,14.1619,10.7115,25.149,10.7115,9.6245,0,19.8467-2.2744,30.6741-6.7924,8.7127-3.6165,16.5509-8.1396,23.5044-13.5887,6.2825-4.8644,9.4378-8.3457,9.4378-10.4282,0-.3477-1.2982-3.0639-3.8946-8.1859-3.109-6.0249-5.4285-11.9132-6.9328-17.6173-.5783-1.9228-1.2776-3.2249-2.062-3.8946-.7895-.6736-1.1823-1.3678-1.1823-2.1328,0-.5783.5783-3.6873,1.7361-9.2974.1855-1.0213.4418-1.5043.7638-1.5043.3529,0,.765.2318,1.2531.7392,1.5996,1.7619,5.0306,5.2379,10.3187,10.4347.8346.8552,1.2519,1.53,1.2519,2.0169,0,.5989-.4881.8809-1.5094.8809-1.0857,0-2.7111-.3271-4.8889-.9956.161.6684,1.9216,4.3557,5.2624,11.0593,2.6853,5.4414,4.0338,10.15,4.0338,14.0897Z"/>
    <path class="cls-1" d="M229.3378,29.3098c0-4.0299-.6246-7.345-1.8765-9.9414,0-1.4644,1.1566-4.9404,3.5006-10.4334.3026-.6749.5538-.9968.765-.9968.2512,0,.5332.3477.8809,1.0664.6684,1.4141,2.2229,5.3539,4.6326,11.823,2.5758,6.701,4.0608,10.8262,4.478,12.3807.322,1.1823.5075,2.0632.5075,2.6415,0,1.8559-1.7851.7393-5.3526-3.3409-.4173-.5783-.6285-.322-.6285.765,0,.3722.9054,13.2616,2.7613,38.6721,1.852,25.4066,2.7831,39.7089,2.7831,42.8836,0,9.7855-1.5094,18.3836-4.478,25.8033-.6234,1.5094-1.1372,2.5964-1.5043,3.2713-.5783.9956-.9311,1.136-1.0664.4366-.161-.7638-.0953-2.3646.1855-4.7988.3683-3.3357.5795-7.229.5795-11.6826,0-4.0338-1.0471-20.586-3.0845-49.6798-2.062-29.0939-3.0833-45.3885-3.0833-48.8697Z"/>
    <path class="cls-1" d="M139.9064,157.7669c-5.8605,2.5161-10.3486,4.4726-13.3252,5.8883-6.284,2.9179-10.6144,5.3072-12.9605,7.1649-4.3089,3.3599-10.5681,9.7799-18.7994,19.2352-4.8899,5.6627-9.8293,8.5095-14.7656,8.5095-4.1512,0-7.7676-1.8762-10.8713-5.6101-3.2699-3.8946-4.8955-8.6424-4.8955-14.2772,0-7.7429,3.18-17.8504,9.5539-30.3009.6683-1.2982,1.1823-1.9473,1.5545-1.9473.1815.0464.251.2133.251.4884,0,1.2735-1.3678,5.6101-4.1496,13.0501-2.7575,7.44-4.1265,13.3314-4.1265,17.6433,0,3.3167.765,5.9563,2.3195,7.9284,1.6255,2.1328,3.9194,3.2208,6.8376,3.2208,5.1709,0,10.3885-2.6428,15.671-7.8789,3.3413-3.9905,6.7013-7.9531,10.0426-11.9436,4.3552-4.9116,10.0828-9.2915,17.1735-13.1398,4.1512-2.275,11.4305-5.5638,21.6801-9.8757l.51-.2164c10.6546-4.5344,17.6681-8.0551,21.0465-10.5402.9953-.7449,1.3446-1.7402.9953-3.0137-1.8299-6.7013-9.3873-15.6249-22.6693-26.7803-12.707-10.2435-25.411-20.4716-38.1149-30.6935-.442-.3678-.6739-1.7619-.6739-4.1503,0-3.1037.3277-6.3044,1.0015-9.6191.714-3.6875,1.595-6.0274,2.6428-6.9782,7.1618-6.4691,22.4622-15.0426,45.8764-25.7324,23.714-10.8466,39.3884-16.2753,46.9706-16.2753,2.2472,0,3.8019.4432,4.6303,1.3486.8593.9001,1.2797,2.4341,1.2797,4.6133,0,4.9802-2.9951,11.1931-8.9237,18.6142-2.2317,2.5253-4.4788,5.051-6.7291,7.601-3.5639,4.1509-5.9749,7.5371-7.2298,10.1335-.8346,1.7606-1.3662,2.64-1.5795,2.64-.2071,0-.0896-1.1823.374-3.5209.2565-1.2982,1.2518-3.5469,2.9673-6.7217,1.5547-2.9482,2.7108-4.8451,3.5021-5.7301,6.7198-7.627,10.7319-12.6576,12.0796-15.0426.136-.2306.1793-.4881.1793-.7446,0-1.4333-1.8762-2.1328-5.6534-2.1328-5.981,0-20.1687,5.2173-42.5628,15.6509-22.3694,10.4293-37.6946,19.0068-45.9444,25.7337-.5347.4624-.4636.8553.2504,1.1823,7.3287,4.4974,14.54,9.1305,21.6338,13.9091,17.0592,11.5664,32.1524,22.9722,45.3169,34.2172,3.9904,3.4743,7.9531,6.9795,11.9374,10.497,4.7292,3.5268,13.8352,5.2887,18.4006,5.2639h.0927c3.975-.0247,7.8387-1.5733,11.5912-4.6581,1.088-.9273,1.6444-4.2687,1.6444-10.0643,0-3.5206-.9025-17.6619-2.7108-42.4454-1.8083-24.781-2.6892-39.3863-2.6892-43.8385,0-4.0297-.6522-7.3244-1.9041-9.94,0-1.4194,1.1622-4.8952,3.5268-10.4345.2535-.6739.4853-.9956.7418-.9956.2534,0,.5564.3669.8778,1.1115.6739,1.4385,2.2286,5.3783,4.6612,11.823,2.5037,6.7201,4.0337,10.8262,4.519,12.3302.2596,1.2778.3956,2.1587.3956,2.6456,0,1.8518-1.7618.765-5.2856-3.2699-.4173-.5783-.6275-.3221-.6275.765,0,.2563.7882,11.2691,2.3894,33.0837,1.5764,21.788,2.3862,34.7918,2.3862,38.9894,0,12.1506-2.1792,21.7234-6.5343,28.6751-3.7092,5.8667-8.0706,8.8155-13.0749,8.8155l-.1422-.0031c-5.9316-.034-16.0267-2.4233-21.6369-7.1618-5.2423-4.9147-10.5063-9.8108-15.7887-14.7193-.6739-.5842-1.0911-.8871-1.2519-.8871-.2102,0-.0464.6305.5069,1.8824,1.9288,4.4479,2.8777,7.6286,2.8777,9.5048,0,7.0907-2.04,12.4443-6.1479,16.0886-2.9426,2.6397-9.5728,6.1665-19.9307,10.5248l-1.19.51Z"/>
    <path class="cls-1" d="M86.3273,111.94c-2.2193-6.8836-3.771-13.8291-4.6519-20.8703-.1607-1.2271-.2766-1.972-.3666-2.2688-.2562-.9304-.791-1.9288-1.6255-3.0137l2.8267-6.862c.4451-1.1375.8624-1.697,1.1838-1.697.3029,0,.7913.5595,1.5084,1.697l7.2298,11.5664c.9768,1.5548,1.4404,2.6861,1.4404,3.4032,0,.5162-.2318.7666-.7418.7666-.8809,0-2.4604-.7387-4.7292-2.1977.6429,4.383,2.0772,9.9406,4.3335,16.6449,4.6828-1.5764,8.7227-2.3677,12.1043-2.3677,3.5453,0,6.3736,1.4836,8.4353,4.4974,2.0895,2.9921,3.1281,6.9578,3.1281,11.8478,0,4.0801-.8779,7.44-2.6397,10.0828-1.7619,2.6459-4.1048,3.9626-6.9764,3.9626-3.9904,0-7.8387-1.9473-11.5726-5.7956-2.7819-2.8963-4.8436-5.9996-6.2345-9.3162-6.8156,2.7108-14.6485,7.5575-23.4374,14.5091-6.4704,5.2856-12.8894,10.5742-19.3094,15.8567-4.7796,3.6165-9.1354,5.4278-13.0749,5.4278-4.1512,0-7.7676-1.8824-10.8713-5.6132-3.2699-3.8946-4.8955-8.6424-4.8955-14.2772,0-7.7429,3.18-17.8504,9.5539-30.3009.6683-1.2982,1.1823-1.9473,1.5545-1.9473.1802.0248.251.2102.251.4884,0,1.2704-1.3678,5.607-4.1496,13.0501-2.7575,7.44-4.1265,13.3314-4.1265,17.6433,0,3.2703.765,5.91,2.3195,7.9284,1.6707,2.1328,3.9642,3.2177,6.8376,3.2177,4.7536,0,9.2062-1.5486,13.4022-4.6581,5.1465-4.451,10.3134-8.8989,15.4599-13.3252,9.2974-7.8851,18.5691-13.9125,27.7969-18.0606l.0371-.0186ZM107.3398,124.5451c1.6228,0,2.4604-.4389,2.4604-1.323,0-1.2982-1.1622-2.4295-3.4774-3.4063-1.7155-.6955-4.4974-.7202-8.3457-.0464,2.037,3.1744,5.1651,4.7756,9.3626,4.7756Z"/>
    <path class="cls-1" d="M323.3643,7.7772c2.3646,0,3.5276,1.1321,3.5276,3.4516,0,1.2068-.3026,2.4805-.9311,3.829-.4173.8796-1.5043,2.3633-3.2198,4.4021-2.4354,2.8064-4.0595,4.7743-4.8953,5.9102-1.3884,1.8572-2.1779,2.7832-2.3839,2.7832-.0451,0-.0708-.0464-.0708-.1417,0-.2061.2061-.8346.6234-1.8765.9311-2.3195,2.4354-4.6584,4.5231-7.0487,1.2274-1.3433,2.4548-2.6853,3.7079-4.0286-.4624-1.163-1.2029-1.7413-2.2487-1.7413-.765,0-1.691.2563-2.7819.8101-10.6407,5.4028-20.9092,8.1151-30.7849,8.1151-5.4479,0-10.3831-1.1823-14.7904-3.5224.6491,2.0632.4173,4.518-.6736,7.4158-.4185,1.1372-.7148,1.7155-.8809,1.7606-.1352,0-.1867-.6942-.1867-2.062,0-2.617-.4173-4.8193-1.2016-6.6765-.1159-.2563-1.4643-2.2693-4.0093-6.0274.4173-2.6209,1.0664-3.9191,1.9461-3.9191.0657,0,.7199.4636,1.9473,1.3948,1.4592,1.181,2.9429,2.1521,4.4472,2.9673,4.4974,2.3401,9.3927,3.5224,14.7259,3.5224,5.6089,0,11.0078-.8101,16.2045-2.411,3.0588-.9505,6.7216-2.4599,10.9421-4.5219,3.3099-1.5996,5.4685-2.3852,6.464-2.3852Z"/>
    <path class="cls-1" d="M371.8322,19.7767c.3722-1.2287.4636-2.4354.2563-3.6628-.2563-1.3227-.8603-1.9924-1.8108-1.9924-.4624,0-1.087.2061-1.8765.6491-.7895.4379-1.1823.8796-1.1823,1.2982,0,.9505,1.53,2.1985,4.6133,3.7079ZM369.4431,25.1795c-3.8946-2.0169-5.8162-4.1303-5.8162-6.3546,0-2.0877.9711-4.2656,2.9429-6.5348,1.9731-2.2745,3.9899-3.3859,6.0274-3.3859,1.9718,0,2.9686,1.53,2.9686,4.5888,0,2.2036-.4636,4.7086-1.4141,7.466,1.9022,1.0909,3.1296,2.0619,3.7079,2.8978-.0708,1.1823-.9505,2.9429-2.6209,5.3319-.5989-.8346-1.7812-1.7863-3.592-2.8772-5.7505,8.0443-17.7796,15.3493-36.1426,21.9344-1.087.3671-1.7863.5783-2.0877.5783-.0657,0-.161-.0451-.2318-.1404,0-.2061.5589-.6942,1.6962-1.4386,1.1372-.765,7.1131-4.1715,17.9651-10.2427,7.466-4.1509,13.0053-8.0907,16.5973-11.823Z"/>
    <path class="cls-1" d="M331.9431,123.9209c0-1.208-2.1791-3.0369-6.5361-5.4723-1.3484,2.5488-2.0169,4.8683-2.0169,6.9058,0,1.324.604,1.9718,1.8057,1.9718,1.1127,0,2.3646-.3915,3.7787-1.136,1.4386-.765,2.4148-1.5043,2.9686-2.2693ZM328.6718,104.0987c.5847-1.0909,1.2531-1.6241,1.9975-1.6241.4636,0,.6942.2112.6942.6285,0,.161-.0451.322-.1159.483-1.3935,3.0833-2.5758,6.1227-3.592,9.1377,4.4021,3.2224,6.4653,6.4679,6.1639,9.6877-.3026,3.4761-.765,5.6603-1.4347,6.54-1.9461,2.5964-4.3364,3.914-7.1891,3.914-2.7561,0-4.1252-1.6898-4.1252-5.0512,0-2.5952.926-6.6057,2.827-12.0793,1.6253-4.8194,3.2249-8.6934,4.7743-11.6363Z"/>
    <path class="cls-1" d="M278.4845,46.3295c.3722-1.2325.4624-2.4354.2563-3.6628-.2563-1.3484-.8603-2.0169-1.8314-2.0169-.4624,0-1.0921.2305-1.8816.6684-.7843.443-1.2016.8603-1.2016,1.2776,0,.9711,1.5545,2.2036,4.6584,3.7337ZM276.0941,51.7272c-3.8934-2.0169-5.8407-4.1252-5.8407-6.3481,0-2.6917,1.2274-5.1478,3.713-7.3759,2.4548-2.1985,4.518-3.0343,6.1421-2.4303,1.3896.483,2.0838,1.9924,2.0838,4.4471,0,2.2294-.4636,4.7292-1.3884,7.4918,1.9718,1.1372,3.2198,2.107,3.7066,2.8978,0,1.0406-.8797,2.827-2.6402,5.3319-.4881-.7895-1.6962-1.74-3.5726-2.8772-2.1779,3.0137-4.9353,5.7505-8.2954,8.231-3.8289,2.8063-7.305,4.9404-10.5042,6.3533-.6748.3477-4.357,1.7361-11.058,4.2166-1.0419.3722-1.7361.5783-2.0877.5783-.161,0-.2318-.0451-.2318-.1365,0-.2563.5834-.7444,1.74-1.5081,4.961-2.9442,9.922-5.887,14.9075-8.8801,5.9566-3.592,10.3831-6.9277,13.326-9.9916Z"/>
    <path class="cls-1" d="M111.469,185.192c11.6363-4.2462,24.0118-8.7436,37.0879-13.5385.6491-.2357,1.0664-.3271,1.1823-.2357.1649.1211.1404.4675-.1159,1.0664-.765,1.8314-1.369,2.948-1.8314,3.3408-10.9872,3.9384-23.807,8.9497-38.457,15.0467.4379-1.74,1.1578-3.6165,2.134-5.6797Z"/>
    <path class="cls-1" d="M27.5681,39.7689c-.7187-3.1296-1.901-6.862-3.5469-11.2434-1.8507-4.9404-3.1541-7.3965-3.8483-7.3965-.5538,0-.9003.161-1.0664.5332-.1365.3477-.604.5345-1.3433.5345-.8552,0-1.9718-.6491-3.3601-1.9022-1.3935-1.2531-2.0632-2.2487-2.0632-3.0137,0-.3464.5783-1.4837,1.7155-3.431,1.1565-1.9473,1.9022-2.8978,2.2036-2.8978,2.8025,0,5.3281,1.6704,7.5768,5.0061,2.2281,3.3409,3.8032,7.7223,4.7086,13.1006.0902.5525.161.8796.161.9711.0902.1648.161.1648.2061,0,.0708-.0914.1867-.4186.398-.9711.4379-3.2249,1.5545-8.025,3.3151-14.4195,1.9022-4.5927,3.9848-6.862,6.2579-6.862,1.1578,0,2.3195.765,3.4774,2.3144.9955,1.3691,1.5081,2.4805,1.5081,3.3408,0,.6491-.1855,1.5043-.5332,2.5501-.4675,1.4141-.9749,2.1341-1.579,2.1341-.2511,0-.8101-.559-1.6653-1.6254-.8603-1.087-1.7412-1.6202-2.6466-1.6202-2.0169,0-3.8689,4.7498-5.5844,14.2572-.9054,5.2379-1.7657,8.6689-2.5501,10.3393,1.5996.161,3.7079,1.2725,6.2837,3.3602,2.5951,2.0877,4.0093,3.8933,4.2604,5.4028.0502.3928-.2962,1.4347-1.0406,3.1296-.765,1.691-1.2982,2.5707-1.6009,2.666-2.4547.7148-4.9147,1.3884-7.3952,2.0375-3.0588,1.0213-5.1916,2.2036-6.3983,3.5469,1.0664,3.1747,2.1328,8.3019,3.2442,15.3944,1.2531,8.0649,1.9022,14.8367,1.9022,20.3052,0,3.1798-.3477,6.3082-.9968,9.367-.2512,1.0677-.4379,1.6008-.604,1.6704-.3014,0-.4366-1.7606-.4366-5.2869,0-5.8407-.8603-13.7446-2.5758-23.7362-1.7155-9.9916-2.5707-15.5798-2.5707-16.7879,0-4.0801,1.1565-7.0681,3.4761-8.9896,1.0909-.9067,3.1747-1.8121,6.258-2.7175-1.2531-1.248-2.4548-1.8765-3.6164-1.8765-.5538,0-1.3433.6491-2.3401,1.9473-1.0213,1.3227-1.5996,1.9718-1.74,1.9718-.2524,0-.322-.5577-.2318-1.6704.5577-5.2869,2.0169-8.4165,4.3815-9.4327Z"/>
    <path class="cls-1" d="M166.4563,52.7034c1.2029.6736,1.7863,1.4592,1.7863,2.3891,0,.6491-.282,1.248-.8861,1.8314-1.6653,1.691-2.7111,2.4097-3.1284,2.1985.0502-.5783-.5332-1.5287-1.691-2.827-.8101-.4624-2.9686-.5783-6.4898-.3722-3.7324.2112-6.7461.7444-9.0411,1.6253-.7638.3014-1.136.6234-1.136,1.0213,0,.6684,1.2274,1.7155,3.7079,3.1283,1.8765,1.087,4.3107,2.1791,7.2793,3.2455,2.988,1.0664,4.7988,1.7863,5.4736,2.1778,3.7079,2.1341,5.3976,4.5888,5.0963,7.3501-.161,1.6704-1.2274,3.3357-3.1992,5.0319-1.7618,1.5043-2.9892,2.1778-3.6628,2.0169-10.6613-2.5758-18.1724-5.1014-22.483-7.627-3.6177-2.0877-5.404-5.0563-5.404-8.9252,0-.6993.0708-1.3678.2318-1.9963,1.0664,1.9267,3.5018,3.9887,7.3707,6.2129,1.6253.9762,5.775,2.5964,12.4515,4.9147,5.8858,2.0426,9.5731,3.2455,10.9872,3.5726.5087-1.9731-1.3678-4.1754-5.5895-6.6559-2.9429-1.0419-6.9522-2.7574-12.0742-5.1014-3.3151-1.9215-4.9598-3.637-4.9598-5.1671,0-1.2068,1.1115-2.5256,3.3344-3.9642,5.2624-3.3859,10.7824-5.0756,16.5316-5.0756,2.456,0,4.2874.322,5.4942.9955Z"/>
    <path class="cls-1" d="M69.6467,32.9275c.1365-.3027.2769-.4636.4173-.5538.0657-.0708.1365-.0502.1867.0708.0193.1352.0193.3464-.0502.6233-.4173,2.3891-1.2029,4.4974-2.3646,6.303-1.1823,1.8314-2.3852,2.7368-3.637,2.6673-1.3935-.0451-2.3904-.8101-3.0395-2.3195-.6234-1.4785-.8346-3.4761-.6234-5.9566.3014-3.033,1.6897-7.466,4.2153-13.2616,2.2036-5.0757,4.0801-8.6676,5.6153-10.7759.6684-.9311,1.1115-1.4141,1.3175-1.4386.0451.161-.1855.7187-.6491,1.6447-3.5018,6.8427-5.8149,12.3807-6.9779,16.6475-.4624,1.6897-.7393,3.2442-.8101,4.6133-.0953,1.9473.1867,3.4052.8358,4.4021.5075.8101,1.0664,1.1823,1.6447,1.0922,1.2274-.1868,2.5514-1.4399,3.9191-3.7581Z"/>
    <path class="cls-1" d="M42.0468,122.1655c0,1.5545-.6491,3.2893-1.901,5.2624-1.2982,2.0414-2.9879,3.8032-5.0306,5.2367-.8101.5834-1.2982.8848-1.4592.8848-.0257,0-.0257-.0245-.0257-.0502,0-.1352.3529-.5525,1.0213-1.3175,3.3859-3.6873,5.0769-6.1433,5.0769-7.3758,0-1.1823-.5538-1.7606-1.6459-1.7606-.5783,0-1.1372.161-1.6202.4881-.3464.2318-.5834.3722-.6736.3928-.0451-.0451-.1404-.0914-.2318-.1159.0451-.1365.0914-.4379.1867-.9505.5538-2.5513,1.8057-3.7993,3.7981-3.7993,1.6704,0,2.505,1.0419,2.505,3.1051Z"/>
    <path class="cls-1" d="M265.3156,122.2724c0,1.9022-.7895,4.035-2.344,6.4202-1.5751,2.505-3.6177,4.6584-6.1433,6.4241-.9956.6942-1.5751,1.0664-1.7606,1.0664-.0451,0-.0451-.0245-.0451-.0708,0-.1404.4173-.6736,1.2467-1.5996,4.1303-4.4974,6.2141-7.5111,6.2141-9.0205,0-1.4335-.6697-2.1521-1.9924-2.1521-.7393,0-1.4141.1855-1.9924.6028-.443.2769-.7199.4636-.8358.483-.0696-.0657-.161-.1159-.2756-.161.0451-.1404.1146-.5332.2306-1.1566.6491-3.109,2.1985-4.639,4.6339-4.639,2.0426,0,3.0639,1.2776,3.0639,3.8032Z"/>
    <path class="cls-1" d="M260.9818,176.0735c0,1.9022-.7895,4.035-2.344,6.4202-1.5751,2.505-3.6177,4.6584-6.1433,6.4241-.9956.6942-1.5751,1.0664-1.7606,1.0664-.0451,0-.0451-.0245-.0451-.0708,0-.1404.4173-.6736,1.2467-1.5996,4.1303-4.4974,6.2141-7.5111,6.2141-9.0205,0-1.4335-.6697-2.1521-1.9924-2.1521-.7393,0-1.4141.1855-1.9924.6028-.443.2769-.7199.4636-.8358.483-.0696-.0657-.161-.1159-.2756-.161.0451-.1404.1146-.5332.2306-1.1566.6491-3.109,2.1985-4.639,4.6339-4.639,2.0426,0,3.0639,1.2776,3.0639,3.8032Z"/>
    <path class="cls-1" d="M178.5356,155.6705c0,1.9022-.7895,4.035-2.344,6.4202-1.5751,2.505-3.6177,4.6584-6.1433,6.4241-.9956.6942-1.5751,1.0664-1.7606,1.0664-.0451,0-.0451-.0245-.0451-.0708,0-.1404.4173-.6736,1.2467-1.5996,4.1303-4.4974,6.2141-7.5111,6.2141-9.0205,0-1.4335-.6697-2.1521-1.9924-2.1521-.7393,0-1.4141.1855-1.9924.6028-.443.2769-.7199.4636-.8358.483-.0696-.0657-.161-.1159-.2756-.161.0451-.1404.1146-.5332.2306-1.1566.6491-3.109,2.1985-4.639,4.6339-4.639,2.0426,0,3.0639,1.2776,3.0639,3.8032Z"/>
    <path class="cls-1" d="M188.3097,88.2948c0,1.9022-.7895,4.035-2.344,6.4202-1.5751,2.505-3.6177,4.6584-6.1433,6.4241-.9956.6942-1.5751,1.0664-1.7606,1.0664-.0451,0-.0451-.0245-.0451-.0708,0-.1404.4173-.6736,1.2467-1.5996,4.1303-4.4974,6.2141-7.5111,6.2141-9.0205,0-1.4335-.6697-2.1521-1.9924-2.1521-.7393,0-1.4141.1855-1.9924.6028-.443.2769-.7199.4636-.8358.483-.0696-.0657-.161-.1159-.2756-.161.0451-.1404.1146-.5332.2306-1.1566.6491-3.109,2.1985-4.639,4.6339-4.639,2.0426,0,3.0639,1.2776,3.0639,3.8032Z"/>
    <path class="cls-1" d="M364.1679,160.6487c0,1.9022-.7895,4.035-2.344,6.4202-1.5751,2.505-3.6177,4.6584-6.1433,6.4241-.9956.6942-1.5751,1.0664-1.7606,1.0664-.0451,0-.0451-.0245-.0451-.0708,0-.1404.4173-.6736,1.2467-1.5996,4.1303-4.4974,6.2141-7.5111,6.2141-9.0205,0-1.4335-.6697-2.1521-1.9924-2.1521-.7393,0-1.4141.1855-1.9924.6028-.443.2769-.7199.4636-.8358.483-.0696-.0657-.161-.1159-.2756-.161.0451-.1404.1146-.5332.2306-1.1566.6491-3.109,2.1985-4.639,4.6339-4.639,2.0426,0,3.0639,1.2776,3.0639,3.8032Z"/>
    <path class="cls-1" d="M198.5381,62.7195c0,1.5494-.6491,3.2906-1.901,5.2624-1.2982,2.0375-2.9892,3.7993-5.0318,5.2379-.8101.5783-1.2969.8797-1.4579.8797-.0206,0-.0206-.0245-.0206-.0451,0-.1404.3465-.5577,1.0162-1.3227,3.3859-3.6834,5.0757-6.1433,5.0757-7.3707,0-1.1823-.5525-1.7606-1.6447-1.7606-.5783,0-1.1372.161-1.6202.483-.3465.237-.5834.3722-.6736.398-.0451-.0464-.1417-.0966-.2318-.1159.0451-.1417.0902-.443.1867-.9518.5525-2.5501,1.8057-3.8032,3.8032-3.8032,1.6653,0,2.4998,1.0419,2.4998,3.109Z"/>
    <path class="cls-1" d="M28.1087,166.1042c2.8732,0,5.4576,1.7082,7.7341,5.1182,2.3002,3.41,3.8899,7.8683,4.8277,13.3827.0868.5668.1421.9125.1421.9978.1168.1673.1721.1673.2289,0,.0552-.0853.1721-.431.3994-.9978.4515-3.2932,1.5914-8.2092,3.38-14.7214,1.9608-4.6856,4.0952-7.0174,6.3953-7.0174,1.1903,0,2.3554.7957,3.5521,2.387,1.023,1.394,1.5361,2.5038,1.5361,3.3848,0,.6788-.1737,1.5613-.5431,2.6396-.4562,1.4192-.993,2.1581-1.6229,2.1581-.2526,0-.8193-.5668-1.7018-1.6766-.8509-1.1035-1.7634-1.6466-2.7012-1.6466-2.046,0-3.9468,4.8593-5.6786,14.5478-.772,4.2357-1.6229,7.221-2.5591,8.9544-.6536,1.1967-1.2219,1.7887-1.6782,1.7887-.4247,0-.622-.5368-.622-1.6166,0-1.7082-.9693-5.0013-2.9301-9.9222-1.9608-4.9145-3.3232-7.3568-4.1504-7.3568-.5668,0-.9378.1721-1.0783.5431-.1737.3379-.6236.5352-1.394.5352-.8825,0-2.0176-.6536-3.4353-1.9292-1.424-1.2835-2.1028-2.3317-2.1028-3.1022,0-.3394.5667-1.5045,1.7571-3.4905,1.1967-1.9923,1.9371-2.9601,2.2449-2.9601Z"/>
    <path class="cls-1" d="M196.2539,176.8052c.953,0,1.8102.5666,2.5653,1.6976.7629,1.131,1.2902,2.6098,1.6013,4.4388.0288.188.0471.3027.0471.3309.0388.0555.0571.0555.0759,0,.0183-.0283.0571-.143.1325-.3309.1498-1.0923.5278-2.7229,1.1211-4.8828.6504-1.5541,1.3583-2.3275,2.1212-2.3275.3948,0,.7813.2639,1.1782.7917.3393.4624.5095.8305.5095,1.1227,0,.2252-.0576.5179-.1801.8755-.1513.4707-.3294.7158-.5383.7158-.0838,0-.2718-.188-.5645-.5561-.2822-.366-.5849-.5461-.8959-.5461-.6786,0-1.3091,1.6117-1.8835,4.8252-.2561,1.4049-.5383,2.3951-.8488,2.97-.2168.3969-.4053.5933-.5566.5933-.1409,0-.2063-.178-.2063-.5362,0-.5666-.3215-1.6589-.9719-3.291-.6504-1.6301-1.1022-2.4401-1.3766-2.4401-.188,0-.311.0571-.3576.1801-.0576.1121-.2068.1775-.4624.1775-.2927,0-.6692-.2168-1.1394-.6399-.4723-.4257-.6975-.7734-.6975-1.0289,0-.1126.188-.499.5828-1.1577.3969-.6608.6425-.9818.7446-.9818Z"/>
    <path class="cls-1" d="M323.4471,174.8128c.953,0,1.8102.5666,2.5653,1.6976.7629,1.131,1.2902,2.6098,1.6013,4.4388.0288.188.0471.3027.0471.3309.0388.0555.0571.0555.0759,0,.0183-.0283.0571-.143.1325-.3309.1498-1.0923.5278-2.7229,1.1211-4.8828.6504-1.5541,1.3583-2.3275,2.1212-2.3275.3948,0,.7813.2639,1.1782.7917.3393.4624.5095.8305.5095,1.1227,0,.2252-.0576.5179-.1801.8755-.1513.4707-.3294.7158-.5383.7158-.0838,0-.2718-.188-.5645-.5561-.2822-.366-.5849-.5461-.8959-.5461-.6786,0-1.3091,1.6117-1.8835,4.8252-.2561,1.4049-.5383,2.3951-.8488,2.97-.2168.3969-.4053.5933-.5566.5933-.1409,0-.2063-.178-.2063-.5362,0-.5666-.3215-1.6589-.9719-3.291-.6504-1.6301-1.1022-2.4401-1.3766-2.4401-.188,0-.311.0571-.3576.1801-.0576.1121-.2068.1775-.4624.1775-.2927,0-.6692-.2168-1.1394-.6399-.4723-.4257-.6975-.7734-.6975-1.0289,0-.1126.188-.499.5828-1.1577.3969-.6608.6425-.9818.7446-.9818Z"/>
    <path class="cls-1" d="M98.4135,33.9025c20.7727-7.7674,42.2847-15.7666,64.496-24.0427.6697-.2305,1.0664-.322,1.1823-.2305.1867.1159.1365.4624-.1159,1.0664-.7638,1.8314-1.3678,2.9429-1.8314,3.3151-.2563.2563-10.575,4.196-30.9949,11.823-20.8178,7.7674-32.454,12.3549-34.8689,13.7948.4173-1.7412,1.1166-3.6383,2.1328-5.726Z"/>
    <path class="cls-1" d="M374.1182,52.9626c0,2.3787-.9933,5.0432-2.9089,8.0526-1.9865,3.1257-4.582,5.8197-7.6998,8.0231-1.2396.8849-1.9846,1.346-2.231,1.346-.0394,0-.0394-.0374-.0394-.069,0-.2148.5321-.8553,1.5628-2.024,5.1812-5.6444,7.7669-9.4007,7.7669-11.2788,0-1.8092-.8534-2.702-2.5167-2.702-.8849,0-1.7402.2542-2.4871.7469-.5302.3528-.8849.5696-1.0229.607-.0769-.0768-.2168-.1458-.3626-.1754.0769-.2168.1458-.678.2857-1.4564.8534-3.9022,2.7709-5.8197,5.8197-5.8197,2.5561,0,3.8332,1.5943,3.8332,4.7496Z"/>
    <path class="cls-1" d="M250.9451,42.8032c.1855-.8565.926-3.2906,2.2229-7.2303.7908-2.4148,1.1823-5.2624,1.1823-8.5118,0-.7856-.0193-1.6447-.0451-2.5462-.1855-4.4317-2.1573-8.5118-5.9115-12.2648-.3014-.3027-.3465-.6246-.1146-.9968l1.3433-2.3891c.161-.2563.3465-.2563.6028,0,2.3195,2.2281,3.8495,4.2913,4.6133,6.1936.6246,1.5944,1.0664,4.1947,1.324,7.7416.0451.7856.0902,1.5493.0902,2.3144,0,2.7368-.6736,6.1485-1.9718,10.1771-1.3188,4.0608-1.9679,6.9083-1.9679,8.5582,0,2.3852.6697,3.592,2.0181,3.592.7843,0,1.6653-.9505,2.6608-2.8772.0953-.161.1867-.2975.282-.3928.0902-.0708.1352-.0451.1352.0451.0515.0953.0515.2318,0,.443-.8088,4.4523-2.1328,6.6765-3.9835,6.6765-1.8765,0-2.8282-1.7863-2.8282-5.3538,0-1.0007.1159-2.0426.3477-3.1786Z"/>
    <path class="cls-1" d="M321.7351,84.8161c.1855-.8552.926-3.2906,2.2229-7.2355.7908-2.4097,1.1823-5.2624,1.1823-8.5066,0-.7843-.0193-1.6447-.0451-2.5514-.1855-4.4265-2.1534-8.5066-5.9115-12.2596-.3014-.3014-.3465-.6285-.1159-.9955l1.3433-2.3904c.1661-.2563.3529-.2563.604,0,2.3195,2.2242,3.8483,4.2862,4.6133,6.1884.6285,1.5996,1.0664,4.196,1.324,7.7416.0451.7908.0902,1.5545.0902,2.3195,0,2.7368-.6697,6.1433-1.9666,10.1784-1.324,4.0543-1.9731,6.907-1.9731,8.5517,0,2.3903.6748,3.5971,2.0181,3.5971.7895,0,1.6704-.9505,2.666-2.8772.0902-.161.1867-.3027.2769-.3928.0902-.0708.1404-.0451.1404.0451.0451.0953.0451.2318,0,.443-.8152,4.4472-2.1328,6.6765-3.9887,6.6765-1.8765,0-2.8282-1.7863-2.8282-5.359,0-.9955.1159-2.0375.3477-3.1734Z"/>
    <path class="cls-1" d="M53.0565,100.6863c.2371-1.0945,1.1465-4.1103,2.7614-9.0302.9875-3.0216,1.479-6.5565,1.479-10.6162,0-.9889-.0217-2.0342-.0795-3.1749-.2024-5.517-2.653-10.6176-7.3358-15.3048-.3672-.3614-.4395-.7793-.1576-1.2188l1.6944-2.9942c.1807-.3166.4178-.3166.7287,0,2.8857,2.7845,4.8115,5.3594,5.7483,7.7261.8082,1.9764,1.3561,5.2076,1.6438,9.6577.0737.96.1301,1.9257.1301,2.8626,0,3.4337-.8356,7.6755-2.4737,12.6952-1.6438,5.05-2.4462,8.6182-2.4462,10.674,0,2.9667.8313,4.4732,2.5257,4.4732.9874,0,2.0775-1.1971,3.3252-3.5638.1084-.2082.2371-.3889.3397-.4973.1301-.0723.1865-.0506.1865.0564.0217.1026.0217.3108,0,.5711-1.0178,5.517-2.6833,8.3015-4.9763,8.3015-2.3667,0-3.5349-2.2366-3.5349-6.6635,0-1.2491.1301-2.5763.441-3.9541Z"/>
    <path class="cls-1" d="M80.1137,50.7519c.2521.7661-.2438,1.3523-.5612,1.9441-.6466,1.2058-1.3001,2.4041-1.8056,3.6787-.4542,1.1454-.3664,2.2433.2526,3.3004.6209,1.06.9868,1.0741,1.6947.0991.2112-.2909.2981-.9205.7969-.6568.3986.2108.1325.7334.0043,1.0833-.3481.9498-.6455,1.935-1.2964,2.7366-.7706.949-1.5242.9642-2.2988.0307-1.0857-1.3084-1.3552-2.7936-.9775-4.4557.6311-2.7772,2.2432-5.0589,3.6444-7.4505.1126-.1921.2503-.3633.5465-.31Z"/>
    <path class="cls-1" d="M96.6036,13.3282c.2521.7661-.2438,1.3523-.5612,1.9441-.6466,1.2058-1.3001,2.4041-1.8056,3.6787-.4542,1.1454-.3664,2.2433.2526,3.3004.6209,1.06.9868,1.0741,1.6947.0991.2112-.2909.2981-.9205.7969-.6568.3986.2108.1325.7334.0043,1.0833-.3481.9498-.6455,1.935-1.2964,2.7366-.7706.949-1.5242.9642-2.2988.0307-1.0857-1.3084-1.3552-2.7936-.9775-4.4557.6311-2.7772,2.2432-5.0589,3.6444-7.4505.1126-.1921.2503-.3633.5465-.31Z"/>
    <path class="cls-1" d="M105.366,148.6406c-.0375.1-.089.3068-.187.4885-.9988,1.8533-2.0089,3.7005-3.0075,5.5539-.3704.6875-.7333.8656-1.4518.3054-1.7011-1.3263-3.461-2.5797-5.2309-3.8142-.7154-.499-1.0121-1.0054-.5349-1.8249,1.0324-1.7732,2.0446-3.5582,3.0619-5.3402.2584-.4527.5052-.7709,1.0884-.3509,1.9218,1.3842,3.8709,2.7302,5.8012,4.1026.2529.1798.4966.4044.4606.8798Z"/>
    <path class="cls-1" d="M94.718,148.6406c-.0375.1-.089.3068-.187.4885-.9988,1.8533-2.0089,3.7005-3.0075,5.5539-.3704.6875-.7333.8656-1.4518.3054-1.7011-1.3263-3.461-2.5797-5.2309-3.8142-.7154-.499-1.0121-1.0054-.5349-1.8249,1.0324-1.7732,2.0446-3.5582,3.0619-5.3402.2584-.4527.5052-.7709,1.0884-.3509,1.9218,1.3842,3.8709,2.7302,5.8012,4.1026.2529.1798.4966.4044.4606.8798Z"/>
    <path class="cls-1" d="M374.1143,86.119c-.0419.112-.0997.3434-.2093.5468-1.118,2.0744-2.2486,4.142-3.3664,6.2166-.4146.7695-.8208.9689-1.625.3419-1.9041-1.4846-3.874-2.8876-5.8551-4.2693-.8008-.5585-1.1328-1.1254-.5987-2.0427,1.1556-1.9848,2.2886-3.9828,3.4272-5.9774.2892-.5067.5655-.8628,1.2182-.3927,2.1511,1.5494,4.3328,3.056,6.4934,4.5921.2831.2013.5558.4526.5156.9848Z"/>
    <path class="cls-1" d="M362.1957,86.119c-.0419.112-.0997.3434-.2093.5468-1.118,2.0744-2.2486,4.142-3.3664,6.2166-.4146.7695-.8208.9689-1.625.3419-1.9041-1.4846-3.874-2.8876-5.8551-4.2693-.8008-.5585-1.1328-1.1254-.5987-2.0427,1.1556-1.9848,2.2886-3.9828,3.4272-5.9774.2892-.5067.5655-.8628,1.2182-.3927,2.1511,1.5494,4.3328,3.056,6.4934,4.5921.2831.2013.5558.4526.5156.9848Z"/>
    <path class="cls-1" d="M261.9133,96.3345c-.0468.125-.1112.3833-.2336.6103-1.2479,2.3155-2.5099,4.6235-3.7576,6.9391-.4628.859-.9162,1.0815-1.8139.3816-2.1254-1.6571-4.3242-3.2232-6.5356-4.7655-.8939-.6234-1.2645-1.2562-.6683-2.2801,1.2899-2.2155,2.5546-4.4457,3.8256-6.6722.3228-.5656.6312-.9631,1.3598-.4384,2.4011,1.7294,4.8364,3.4112,7.2482,5.1259.316.2247.6204.5052.5755,1.0992Z"/>
  </g>
</svg>