<?xml version="1.0" encoding="UTF-8"?>
<svg id="Argumentation" xmlns="http://www.w3.org/2000/svg" viewBox="0 0 322.3818 237.5594">
  <defs>
    <style>
      

	  @import url('../../CSS/SvgStyling.css');

	  
    </style>
  </defs>
  
  <g class="content">

	<rect id="bg" class="bg" width="322.3818" height="237.5594"/>


    <path class="cls-3" d="M284.7999,228.9568c-.6328,0-1.2018-.4412-1.3411-1.0799-.1219-.5748-3.0771-14.114-3.1758-21.0635-.0174-.8709-.0406-1.6605-.0581-2.4268-.1393-4.7666-.2264-7.6405,2.8216-13.0747,1.1437-2.032,2.7636-4.5111,4.633-7.3792,5.0162-7.6869,11.8787-18.2129,14.1604-27.6938,5.411-22.5092-5.1904-43.4102-25.7953-50.83-14.979-5.3994-37.1805-8.0933-57.8899,9.7422-12.4709,10.7408-10.4215,22.4337-9.5448,27.4325.1742,1.0044.2903,1.6663.2613,2.1772-.1219,2.2352-1.5095,3.9364-3.4196,6.2877-.4064.4993-.8302,1.016-1.2773,1.5908-1.4515,1.8346-3.2513,3.7331-4.993,5.562-1.8521,1.9566-4.6214,4.8653-4.9233,5.9277.9173,1.2366,3.3035,2.2991,5.231,3.1642,2.6126,1.1728,4.6737,2.0959,4.5866,3.9131-.1684,3.5706-2.3978,5.3065-3.8783,6.4561-.3483.2729-.8128.6328-.9812.8418.2555.7083,2.0843,2.3514,3.9886,3.5532.447.2845.6967.7954.6328,1.3237-.0639.5225-.4238.9696-.9231,1.1379-.0174.0058-2.1482.7722-2.9145,2.4675-.4761,1.045.0639,1.7592,1.3992,3.141.8825.9115,1.7998,1.8579,1.8288,3.1235.029,1.2715-.3193,2.5313-.6561,3.7506-.6561,2.3572-1.2715,4.5866.3193,7.3676.4877.8593,2.5604,1.8927,9.6261,1.9508,12.2561.0929,15.8035,4.2731,16.9704,5.6491.0639.0755.1219.1393.1684.1974,3.8202,4.2208,2.8739,14.4101,2.7578,15.5596-.0813.7548-.7548,1.3005-1.5095,1.225-.7548-.0813-1.3063-.7548-1.225-1.5095.2903-2.7868.4819-10.6247-2.0611-13.4347-.0639-.0697-.1393-.1568-.2264-.2613-.9638-1.1379-3.9015-4.5924-14.8919-4.6795-5.2659-.0406-10.3576-.4761-11.9948-3.3325-2.1598-3.7796-1.2831-6.9322-.5864-9.4635.3019-1.0741.5806-2.0901.5632-2.9552-.0523-.238-.6851-.8883-1.0567-1.2773-1.2831-1.3237-3.2222-3.3267-1.9333-6.1832.569-1.2424,1.5037-2.154,2.3804-2.781-1.4921-1.1554-3.2164-2.7984-3.408-4.3311-.1916-1.5095.9986-2.4384,2.0495-3.2513,1.2831-.9986,2.6068-2.0262,2.8042-4.1686-.4587-.4064-1.945-1.0683-2.9494-1.5211-2.4849-1.1089-5.2949-2.3688-6.5548-4.3892-1.2947-2.0785,1.3586-4.8711,5.3762-9.1035,1.6953-1.7824,3.4545-3.6344,4.8246-5.3704.4645-.5922.8883-1.1147,1.3063-1.6256,1.643-2.0204,2.7345-3.3616,2.81-4.7027.0058-.209-.1161-.9231-.2322-1.556-.8709-4.9814-3.1932-18.2245,10.4621-29.9871,8.7784-7.5592,18.6715-12.2038,29.3949-13.8004,10.0325-1.4921,20.5352-.2961,31.2237,3.559,10.2415,3.6867,18.6715,10.8569,23.7342,20.1811,5.4168,9.9744,6.729,21.6906,3.8028,33.8712-2.392,9.9454-9.4112,20.7036-14.5378,28.5589-1.8404,2.8216-3.437,5.2659-4.5344,7.2224-2.6765,4.7666-2.6068,7.0657-2.4733,11.6465.0232.778.0464,1.5792.0581,2.4675.0987,6.6709,3.0829,20.3785,3.1177,20.5178.1626.7373-.3077,1.4689-1.0509,1.6314-.0987.0232-.1974.0348-.2961.0348"/>
    <path class="cls-3" d="M37.2568,228.9568c.6328,0,1.2018-.4412,1.3411-1.0799.1277-.5748,3.0771-14.114,3.1816-21.0635.0116-.8709.0348-1.6605.0581-2.4268.1393-4.7666.2206-7.6405-2.8274-13.0747-1.1437-2.032-2.7578-4.5111-4.6272-7.3792-5.0162-7.6869-11.8845-18.2129-14.1662-27.6938-5.411-22.5092,5.1962-43.4102,25.7953-50.83,14.979-5.3994,37.1805-8.0933,57.8957,9.7422,12.4709,10.7408,10.4215,22.4337,9.5448,27.4325-.18,1.0044-.2961,1.6663-.2671,2.1772.1277,2.2352,1.5095,3.9364,3.4254,6.2877.4064.4993.8244,1.016,1.2773,1.5908,1.4457,1.8346,3.2513,3.7331,4.9872,5.562,1.8579,1.9566,4.6214,4.8653,4.9233,5.9277-.9173,1.2366-3.2977,2.2991-5.231,3.1642-2.6126,1.1728-4.6737,2.0959-4.5866,3.9131.1684,3.5706,2.4036,5.3065,3.8783,6.4561.3483.2729.8186.6328.9812.8418-.2555.7083-2.0843,2.3514-3.9886,3.5532-.447.2845-.6909.7954-.627,1.3237.0581.5225.418.9696.9173,1.1379.0174.0058,2.1482.7722,2.9203,2.4675.4703,1.045-.0639,1.7592-1.3992,3.141-.8883.9115-1.7998,1.8579-1.8288,3.1235-.0348,1.2715.3193,2.5313.6561,3.7506.6503,2.3572,1.2715,4.5866-.3251,7.3676-.4877.8593-2.5546,1.8927-9.6261,1.9508-12.2561.0929-15.8035,4.2731-16.9704,5.6491-.0639.0755-.1161.1393-.1684.1974-3.8202,4.2208-2.8739,14.4101-2.752,15.5596.0755.7548.7548,1.3005,1.5095,1.225.7548-.0813,1.3005-.7548,1.2192-1.5095-.2845-2.7868-.4819-10.6247,2.0611-13.4347.0697-.0697.1393-.1568.2264-.2613.9638-1.1379,3.9015-4.5924,14.8978-4.6795,5.2601-.0406,10.3576-.4761,11.9948-3.3325,2.154-3.7796,1.2831-6.9322.5806-9.4635-.2961-1.0741-.5806-2.0901-.5574-2.9552.0464-.238.6793-.8883,1.0567-1.2773,1.2831-1.3237,3.2164-3.3267,1.9275-6.1832-.5632-1.2424-1.5037-2.154-2.3746-2.781,1.4863-1.1554,3.2164-2.7984,3.408-4.3311.1858-1.5095-1.0044-2.4384-2.0495-3.2513-1.2889-.9986-2.6126-2.0262-2.8042-4.1686.4587-.4064,1.9391-1.0683,2.9494-1.5211,2.4791-1.1089,5.2949-2.3688,6.5548-4.3892,1.2947-2.0785-1.3586-4.8711-5.3762-9.1035-1.7011-1.7824-3.4545-3.6344-4.8246-5.3704-.4645-.5922-.8941-1.1147-1.3063-1.6256-1.6489-2.0204-2.7345-3.3616-2.81-4.7027-.0116-.209.1161-.9231.2264-1.556.8767-4.9814,3.199-18.2245-10.4563-29.9871-8.7842-7.5592-18.6773-12.2038-29.4007-13.8004-10.0325-1.4921-20.5352-.2961-31.2179,3.559-10.2415,3.6867-18.6715,10.8569-23.74,20.1811-5.4168,9.9744-6.729,21.6906-3.797,33.8712,2.392,9.9454,9.4112,20.7036,14.532,28.5589,1.8463,2.8216,3.437,5.2659,4.5344,7.2224,2.6765,4.7666,2.6126,7.0657,2.4791,11.6465-.0232.778-.0464,1.5792-.0581,2.4675-.0987,6.6709-3.0887,20.3785-3.1177,20.5178-.1626.7373.3077,1.4689,1.045,1.6314.0987.0232.1974.0348.2961.0348"/>
    <path class="cls-1" d="M112.6997,85.5103l-21.7529-18.0811h-17.6299c-16.8208,0-30.5059-13.5181-30.5059-30.1343s13.6851-30.1284,30.5059-30.1284h25.5107c16.8179,0,30.5,13.5156,30.5,30.1284,0,11.4946-6.3457,21.6973-16.6279,26.8525v21.3628ZM73.3169,10.1665c-15.167,0-27.5059,12.1699-27.5059,27.1284s12.3389,27.1343,27.5059,27.1343h18.7139l17.6689,14.6865v-16.8672l.8687-.4033c9.7207-4.5098,15.7593-13.917,15.7593-24.5503,0-14.9585-12.3364-27.1284-27.5-27.1284h-25.5107Z"/>
    <path class="cls-1" d="M209.8848,85.5103v-21.3623c-10.2852-5.1543-16.6328-15.3569-16.6328-26.853,0-16.6128,13.6826-30.1284,30.5-30.1284h25.5107c16.8213,0,30.5059,13.5156,30.5059,30.1284s-13.6846,30.1343-30.5059,30.1343h-17.625l-21.7529,18.0811ZM223.752,10.1665c-15.1631,0-27.5,12.1699-27.5,27.1284,0,10.6348,6.04,20.0415,15.7637,24.5503l.8691.4028v16.8677l17.6689-14.6865h18.709c15.167,0,27.5059-12.1724,27.5059-27.1343s-12.3389-27.1284-27.5059-27.1284h-25.5107Z"/>
    <path class="cls-2" d="M240.5711,28.6094l-6.8799,9.4345-3.2571-3.2338c-.4412-.4412-2.032,1.1554-1.5908,1.5966l4.1918,4.1628c.209.209.4935.3251.7896.3251.029,0,.0639,0,.0929-.0058.3251-.0232.627-.1916.8186-.4587l7.6521-10.4911c.3716-.5051-1.4515-1.8288-1.8172-1.3295"/>
    <path class="cls-2" d="M235.5607,46.8803c-6.816,0-12.3606-5.5446-12.3606-12.3606s5.5446-12.3606,12.3606-12.3606,12.3606,5.5446,12.3606,12.3606-5.5446,12.3606-12.3606,12.3606ZM248.0316,29.2538c-.6851-1.614-1.6605-3.0597-2.9029-4.3021s-2.6881-2.2236-4.3021-2.9029c-1.6663-.7083-3.4429-1.0625-5.2659-1.0625-1.8288,0-3.5996.3542-5.2717,1.0625-1.6082.6793-3.0597,1.6605-4.3021,2.9029s-2.2178,2.6881-2.9029,4.3021c-.7025,1.6663-1.0625,3.4429-1.0625,5.2659,0,1.8288.36,3.5996,1.0625,5.2717.6851,1.6082,1.6605,3.0597,2.9029,4.3021s2.6939,2.2178,4.3021,2.8971c1.6721.7083,3.4429,1.0683,5.2717,1.0683,1.823,0,3.5996-.36,5.2659-1.0683,1.614-.6793,3.0597-1.6547,4.3021-2.8971s2.2178-2.6939,2.9029-4.3021c.7083-1.6721,1.0625-3.4429,1.0625-5.2717,0-1.823-.3542-3.5996-1.0625-5.2659"/>
    <path class="cls-2" d="M235.5607,22.5481c-6.607,0-11.9774,5.3704-11.9774,11.9716s5.3704,11.9774,11.9774,11.9774c6.6012,0,11.9716-5.3762,11.9716-11.9774s-5.3704-11.9716-11.9716-11.9716ZM235.5607,47.2635c-7.0309,0-12.7438-5.7129-12.7438-12.7438,0-7.0251,5.7129-12.7438,12.7438-12.7438,7.0251,0,12.7438,5.7187,12.7438,12.7438,0,7.0309-5.7187,12.7438-12.7438,12.7438ZM235.5607,21.3695c-1.7766,0-3.5009.3483-5.1207,1.0334-1.5676.6619-2.9726,1.614-4.1802,2.8216s-2.154,2.6126-2.8158,4.1802c-.6909,1.6198-1.0334,3.3384-1.0334,5.1149s.3425,3.5009,1.0334,5.1207c.6619,1.5676,1.6082,2.9726,2.8158,4.1802s2.6126,2.154,4.1802,2.8158c1.6198.6909,3.3442,1.0334,5.1207,1.0334s3.4951-.3425,5.1149-1.0334c1.5676-.6619,2.9726-1.6082,4.1802-2.8158s2.1598-2.6126,2.8216-4.1802c.6851-1.6198,1.0334-3.3442,1.0334-5.1207s-.3483-3.4951-1.0334-5.1149c-.6619-1.5676-1.614-2.9726-2.8216-4.1802s-2.6126-2.1598-4.1802-2.8216c-1.6198-.6851-3.3384-1.0334-5.1149-1.0334ZM235.5607,48.4421c-1.8811,0-3.7041-.3658-5.4226-1.0915-1.6547-.7025-3.1468-1.7069-4.424-2.9842s-2.2817-2.7694-2.9842-4.424c-.7257-1.7185-1.0915-3.5416-1.0915-5.4226,0-1.8753.3658-3.6983,1.0915-5.4168.7025-1.6605,1.7069-3.1468,2.9842-4.424s2.7694-2.2817,4.424-2.9842c1.7185-.7257,3.5416-1.0973,5.4226-1.0973,1.8753,0,3.6983.3716,5.4168,1.0973,1.6605.7025,3.1468,1.7069,4.424,2.9842s2.2817,2.7636,2.9842,4.424c.7257,1.7185,1.0973,3.5416,1.0973,5.4168,0,1.8811-.3716,3.7041-1.0973,5.4226-.7025,1.6547-1.7069,3.1468-2.9842,4.424s-2.7636,2.2817-4.424,2.9842c-1.7185.7257-3.5416,1.0915-5.4168,1.0915"/>
    <path class="cls-1" d="M86.8502,20.5915c-8.2907,0-15.0313,6.7406-15.0313,15.0313s6.7406,15.0313,15.0313,15.0313,15.0313-6.7406,15.0313-15.0313-6.7406-15.0313-15.0313-15.0313ZM86.8502,48.9704c-7.3618,0-13.3476-5.9858-13.3476-13.3476,0-7.356,5.9858-13.3476,13.3476-13.3476s13.3476,5.9916,13.3476,13.3476c0,7.3618-5.9858,13.3476-13.3476,13.3476Z"/>
    <path class="cls-1" d="M93.852,28.621c-.3309-.3251-.8651-.3251-1.1902,0l-5.8116,5.8116-5.8116-5.8116c-.3251-.3309-.8593-.3309-1.1902,0s-.3309.8651,0,1.1902l5.8116,5.8116-5.8116,5.8116c-.3309.3309-.3309.8593,0,1.1902.1626.1626.3832.2497.598.2497s.4296-.0871.5922-.2497l5.8116-5.8116,5.8116,5.8116c.1626.1626.3774.2438.5922.2438s.4354-.0813.598-.2438c.3309-.3309.3309-.8593,0-1.1902l-5.8116-5.8116,5.8116-5.8116c.3309-.3251.3309-.8593,0-1.1902Z"/>
  </g>
</svg>