<?xml version="1.0" encoding="UTF-8"?>
<svg id="Asharis" xmlns="http://www.w3.org/2000/svg" viewBox="0 0 211.4137 205.5844">
  <defs>
    <style>
      

      @import url('../../CSS/SvgStyling.css');
      
    </style>
  </defs>
  
  <g class="content">

    <rect id="bg" class="bg" width="211.4137" height="205.5844"/>


    <g>
      <path class="cls-1" d="M62.8977,117.7932c-.1888,2.3436-.3146,4.5638-.5568,6.7712-.4786,4.3615-2.2257,8.0565-5.6532,10.944-4.7499,4.0016-9.7059,7.6433-15.7625,9.404-1.5923.4629-3.2947.7079-4.954.7479-3.9971.0964-6.9365-2.0514-8.3056-5.8069-1.2447-3.4144-1.0691-6.9189-.6064-10.4192.2191-1.6573.6295-3.2952,1.0398-4.92.5632-2.2302,1.3-4.3305,1.1865-6.781-.2269-4.8995,2.0176-9.139,4.591-13.1717.3112-.4876.6093-.9836.8576-1.3855-2.4256-2.962-4.7464-5.8432-7.1279-8.6734-.6505-.7731-1.0405-1.5537-.8402-2.5518.2715-1.3529.5777-2.6989.9384-4.369,2.6224,1.8039,4.9441,3.401,7.2659,4.998-.0276.1221-.0553.2442-.0829.3664-.8803.0638-1.7607.1275-2.8584.2071,1.5056,2.2305,3.2075,4.0376,5.5039,5.579,3.1778-4.2846,6.0413-8.7354,8.1909-13.6392.125.0265.25.053.375.0795,0,1.0691.2774,2.2359-.0575,3.1872-.7062,2.0061-1.6217,3.9612-2.6573,5.8226-1.2099,2.1748-2.6394,4.2274-3.9318,6.2671,1.0341,1.4993,2.1459,2.872,2.996,4.3911,2.08,3.7167,2.0336,7.6152.6213,11.5399-.218.6059-.615,1.1799-1.0399,1.6733-1.741,2.0215-3.9071,3.4802-6.3763,4.4436-1.9447.7588-3.9306,1.2275-5.6836-.741-.1438.3168-.2696.5033-.3151.7078-.4998,2.2467-1.055,4.484-1.4594,6.7481-.4447,2.4893.1126,4.8084,1.5391,6.9104,2.2447,3.3077,4.6275,4.3141,8.5483,3.4377,1.4763-.33,2.9342-.8209,4.3346-1.3983,6.5519-2.7015,12.1283-6.8675,17.2973-11.6381.8821-.8141,1.1871-1.7105,1.029-2.9144-.4317-3.2891-1.3457-6.4236-2.9045-9.342-.6445-1.2066-.7463-2.3176-.2364-3.5684.4488-1.1009.7896-2.2457,1.2743-3.65.328.5723.5819.8998.7175,1.2706.8313,2.2745,2.4357,3.4585,4.8615,3.4534,3.5447-.0075,6.9885-.5212,10.3567-2.1595-.4588-.3147-.8044-.5442-1.1422-.7847-4.7927-3.4111-8.2391-7.6505-8.388-13.859-.1423-5.9304,3.7751-10.6833,10.0059-11.9087,6.3084-1.2407,11.8833.6035,16.8663,4.4947.1911.1492.3105.3903.6475.8276-.6833-.148-1.0822-.2338-1.4808-.3208-6.765-1.4766-13.4254-1.1195-19.9428,1.2382-3.7018,1.3391-4.1723,2.6019-2.3062,6.0439,2.1208,3.9119,5.1018,6.9871,9.1403,8.94,2.9173,1.4107,5.8977,1.6624,8.9366.3145,4.4954-1.994,9.0006-3.966,13.508-5.9328.7668-.3346,1.5652-.5968,2.349-.8925.0815.0772.1629.1545.2444.2317-.1994.5141-.4275,1.0191-.5935,1.5438-.951,3.0051-2.8672,4.7598-5.9015,5.9839-7.5229,3.0347-14.8221,6.6196-22.2974,9.7794-2.6703,1.1287-5.5693,1.7499-8.4038,2.4391-1.0501.2553-2.2143.0412-3.3564.0412ZM36.5482,104.808c-2.0991,2.8918-3.8408,5.8344-5.176,8.9889-.891,2.1051-.0562,3.1754,2.2413,3.1916.272.0019.5487-.0092.8157-.0569,3.0567-.5462,5.4088-2.3156,7.5259-4.4404.2255-.2263.2536-.9094.0848-1.2273-1.314-2.4742-3.1197-4.5494-5.4917-6.4557Z"/>
      <path class="cls-1" d="M154.2725,111.8911c.3261.6598.7591,1.2888.9595,1.9848.815,2.8312.4169,5.6321-.7863,8.2232-1.54,3.3164-6.6894,5.5926-9.8294.8844-.1929-.2892-.387-.5776-.6833-1.0197-.3904.5447-.7102,1.0135-1.0526,1.4652-2.3154,3.0552-5.2459,4.7186-9.2068,4.1018-2.6926-.4193-4.2479-1.8808-4.7806-4.5677-.1584-.799-.3033-1.6007-.4996-2.6403-.4576.435-.783.7286-1.0909,1.0396-1.5358,1.5511-2.9541,3.2426-4.6242,4.6318-3.1775,2.643-6.9248,3.0139-10.8502,2.2042-1.3703-.2827-2.3741-1.1172-3.14-2.2753-1.2619-1.9079-1.9195-4.0433-2.0553-6.2799-.4541-7.4791-.8212-14.9637-1.1983-22.4474-.3065-6.0815-.4226-12.1778-.9323-18.2416-.2627-3.1263-1.0067-6.2521-1.8896-9.2741-.7594-2.5995.3279-4.5988,1.5433-6.8128.3708.8311.8104,1.639,1.1007,2.4973,1.412,4.1749,2.0522,8.5187,2.2855,12.8805.492,9.1988.7553,18.4098,1.1314,27.615.1338,3.2755.2221,6.5584.5321,9.8188.1373,1.4435.6582,2.887,1.2147,4.2444.6274,1.5301,1.9324,2.2963,3.5936,2.4136,4.0833.2881,7.745-.6835,10.7627-3.591,1.49-1.4355,2.9667-2.8858,4.4924-4.2825.325-.2975.8364-.3916,1.2619-.5794.0671.4896.3018,1.0287.1739,1.4605-.7798,2.6338.2695,4.7678,2.8718,5.6667,3.5733,1.2343,7.4562-.2329,9.5467-3.5428,1.0541-1.6691,2.2059-3.2766,3.3135-4.9119l.3721.055c.1025.4038.2892.8085.2852,1.2113-.0045.4578-.164.9179-.283,1.3699-.5085,1.9317-.3556,2.4177,1.1233,3.4889,1.5042,1.0894,3.4955,1.2776,4.7326.4802.623-.4016.6761-.8244.1163-1.2875-.5716-.4729-.5963-1.0004-.3646-1.6667.4828-1.3885.9001-2.7997,1.3443-4.2016.1698-.0383.3395-.0766.5093-.115Z"/>
      <path class="cls-1" d="M166.365,59.9213c2.7426,4.4256,4.613,8.881,6.2046,13.4625-.1399.1093-.2798.2187-.4197.328-.8324-.6817-1.6648-1.3635-2.6428-2.1644,0,1.0165-.0843,1.8869.0135,2.7364.6837,5.935,1.5069,11.8557,2.085,17.8005.5587,5.745,1.2245,11.5139,1.2159,17.2714-.0114,7.6311-3.1083,14.088-8.9759,19.1045-1.7708,1.5139-3.7117,2.7211-6.0068,3.2813-3.3341.8138-6.6638,1.6459-10.0026,2.4396-.4994.1187-1.0384.0713-1.559.1007-.0404-.0949-.0808-.1897-.1212-.2846.3665-.2964.7038-.6417,1.1042-.8818,3.9171-2.3491,7.8717-4.6368,11.7608-7.031,3.0725-1.8914,5.8215-4.195,8.2137-6.9157,2.2189-2.5236,3.095-5.42,2.7467-8.7667-.877-8.4264-1.6907-16.8594-2.5291-25.2899-.5022-5.0506-.997-10.102-1.5123-15.1512-.063-.6171-.1172-1.2775-.3739-1.8248-.9357-1.9948-.6691-3.952.0114-5.9248.2239-.6491.4466-1.2988.7874-2.2902Z"/>
      <path class="cls-1" d="M165.7992,118.8317c-.2304-1.3867-.4875-2.704-.6629-4.032-.562-4.2566-2.6019-7.8248-5.2396-11.0768-1.4966-1.8451-3.1083-3.6113-4.7955-5.2846-4.2685-4.2337-8.602-8.402-12.9228-12.5829-3.421-3.3102-6.2165-7.0857-8.6021-11.198-.7532-1.2984-1.808-2.4217-2.7225-3.6268-.1374-.1811-.373-.3699-.3759-.5581-.0284-1.8435-.0171-3.6876.1958-5.6141,3.4383,2.4138,6.9292,4.5517,9.879,7.3864-.0515.1406-.103.2813-.1545.4219-1.1554-.0727-2.3107-.1455-3.827-.2409,1.2389,1.5544,2.1938,2.9835,3.3739,4.193,5.0427,5.1686,10.1311,10.2932,15.244,15.3925,3.5499,3.5404,6.8282,7.2753,9.4107,11.6078,2.7572,4.6256,3.0243,9.4995,1.7797,14.5841-.0359.1466-.1127.2875-.193.4171-.0339.0547-.1263.0731-.3873.2114Z"/>
      <path class="cls-1" d="M179.8003,63.1109c1.6492,4.5685,3.8535,8.9391,4.9016,13.7219-.127.0936-.254.1871-.381.2807-.7871-.6578-1.5741-1.3156-2.5188-2.1051,0,.5972-.0254,1.0068.0037,1.4124.7559,10.5504,1.5261,21.0998,2.2742,31.6508.3562,5.024.8194,10.0665-.3892,15.0367-.4768,1.961-1.2486,3.8512-1.9091,5.7656-.0931.2698-.3177.4942-.7639.7112-.0382-.3426-.1384-.6913-.1057-1.027.9297-9.5425-.3681-19.0243-.8244-28.5244-.4381-9.1206-1.1258-18.2294-1.7287-27.3417-.0665-1.0056-.1625-2.0465-.4864-2.9879-.3594-1.0443-.2845-1.9618.1214-2.9346.5032-1.206.9626-2.4302,1.4409-3.6466.1218-.004.2435-.0081.3653-.0121Z"/>
      <path class="cls-1" d="M62.727,145.491c.4067-1.3005.6854-2.3957,1.1077-3.4325.1496-.3672.6026-.7184.9958-.8633,11.9648-4.4093,23.9393-8.7924,35.9141-13.1747.2096-.0767.4415-.0926.6672-.1377.1748,1.4342-.785,3.156-1.9686,3.6099-11.9775,4.5937-23.9545,9.1885-35.9327,13.7805-.1742.0668-.3607.1015-.7836.2178Z"/>
      <path class="cls-1" d="M90.398,70.3352c.456-1.9062.7858-3.4687,1.214-5.0037.2491-.8932.5804-1.7825,1.0136-2.5999.4049-.7639.9886-1.4819,2.0413-1.1744,1.0654.3111,1.6123,1.1155,1.6345,2.1775.0121.5767-.2497,1.1591-.4352,1.9366-.4617-.3172-.7198-.4632-.9415-.652-1.036-.8828-1.5966-.8082-2.0614.4987-.5077,1.4275-.8099,2.9271-1.2327,4.3863-.4455,1.5378-.9276,3.065-1.3936,4.5968-.0982-.0357-.1964-.0715-.2947-.1072-.5015-1.5701-.9826-3.1472-1.5141-4.707-.2255-.6619-.5521-1.2899-.841-1.9295-.2681-.5936-.557-.7764-1.3413-.6252-.7078.1365-1.5418-.3809-2.5491-.6773-3.153,6.3671-9.4861,8.5517-15.8147,10.743-.0701-.1015-.1401-.2031-.2102-.3046.2587-.1831.5073-.3828.7775-.5468,3.2684-1.9839,6.599-3.8733,9.7866-5.9793,1.6407-1.0839,3.0203-2.5603,4.5332-3.8414.8614-.7295,1.3322-1.6768,1.798-2.686.5581-1.2091,1.2201-1.4015,2.1881-.4943.9361.8772,1.6996,2.0083,2.301,3.1528.5707,1.0861.8333,2.3342,1.3417,3.8371Z"/>
      <path class="cls-1" d="M128.6591,102.3661c.8077-1.5877,1.577-3.0999,2.4554-4.8264,1.7353,1.1084,3.3238,2.123,4.9719,3.1758.4345-.8305.9001-1.6804,1.3271-2.5494.3224-.656.7058-.8697,1.3628-.3951,1.1684.844,2.349,1.6726,3.5481,2.4722.5965.3978.7342.8884.4413,1.4995-.5203,1.0856-1.062,2.1612-1.6105,3.2329-.3067.5994-.7078.5845-1.2288.2073-1.2883-.9329-2.6045-1.8274-4.0248-2.8177-.638,1.1811-1.2216,2.2615-1.9127,3.5408-1.7867-1.1867-3.5252-2.3413-5.3299-3.54Z"/>
      <path class="cls-1" d="M35.3488,82.0005c-.6816,1.2706-1.2836,2.3928-1.8899,3.523-1.677-1.0872-3.2575-2.0805-4.7896-3.1434-.1987-.1378-.299-.7026-.1868-.9548.523-1.1748,1.1546-2.3007,1.7105-3.4617.2917-.6092.6815-.5409,1.1364-.2593,1.4127.8746,2.8212,1.7559,4.2635,2.6547.4542-.8775.9411-1.8077,1.4177-2.7431.2625-.5151.5823-.6847,1.1068-.3032,1.2303.8949,2.4753,1.7694,3.7184,2.6465.5921.4178.8014.8991.4157,1.5934-.6731,1.2116-1.305,2.4461-2.0072,3.7713-1.7332-1.1766-3.2691-2.2193-4.8954-3.3233Z"/>
      <path class="cls-1" d="M58.1887,62.4215c-.2729,1.0432-.5436,2.0869-.8191,3.1294-.6472,2.4491-1.4264,4.8731-1.8934,7.356-.2522,1.3406-.1636,2.8207.1137,4.1674.3869,1.8786,1.9755,2.2278,3.2755.8204.6181-.6692,1.1029-1.4614,1.7446-2.1569-.2454,2.4288-.6109,4.847-2.4606,6.6472-1.4154,1.3776-3.6656.9146-4.327-.9569-.4808-1.3603-.6991-2.8949-.6599-4.3417.1074-3.9598,1.3261-7.6662,2.999-11.2319.5553-1.1837,1.0917-2.3763,1.6368-3.5648.1301.0439.2602.0878.3903.1318Z"/>
      <path class="cls-1" d="M110.4852,90.9252c.3355-1.6268,1.1843-2.4842,2.6214-3.0096,7.5073-2.7446,14.9847-5.5709,22.4745-8.3635.0982-.0366.222-.0046.4698-.0046-.2452.9895-.507,1.8235-1.5702,2.2311-7.8274,3.0006-15.6449,6.0268-23.4669,9.0414-.1313.0506-.2797.0571-.5285.1051Z"/>
      <path class="cls-1" d="M118.5413,70.4268c.3969-1.6216.7576-3.2534,1.2046-4.8611.2594-.9329.5603-1.8803,1.0216-2.7232.4231-.7731,1.0279-1.5787,2.1458-1.0945,1.0709.4639,1.7995,1.9209,1.4613,2.8982-.1346.3889-.3862.7373-.5693,1.0761-.186-.039-.2826-.0296-.329-.0733-1.6944-1.5968-2.0734-1.5551-2.7886.638-.5783,1.7731-.9157,3.6234-1.4117,5.4252-.2675.9715-.6437,1.913-.9709,2.8681-.099-.0303-.198-.0606-.2971-.0909-.3602-1.212-.6664-2.4436-1.0972-3.6299-.3575-.9847-.7882-1.9616-1.337-2.8487-.2185-.3532-.8348-.6196-1.2826-.6392-1.0123-.0443-2.6558-.9522-2.4624-1.7012.2432-.9417.8584-1.9051,1.5899-2.5403.2637-.229,1.4582.3114,2.0036.7684,1.4331,1.2008,2.0395,2.9103,2.4374,4.6893.1331.595.2333,1.1973.3485,1.7962.111.0143.222.0287.3329.043Z"/>
      <path class="cls-1" d="M36.7405,70.8357c.1754-.6898.2685-1.0425.3546-1.3968.4235-1.7416.8401-3.485,1.2732-5.2242.0652-.2618.1929-.5109.3123-.7558.8235-1.6896,1.7014-2.206,2.6951-1.5933,1.4408.8884,1.6691,2.2839.5482,3.8696-.227-.188-.4603-.3584-.667-.5564-.9894-.9481-1.5994-.8927-2.0513.4161-.6085,1.7624-1.0142,3.5945-1.52,5.3929-.3412,1.2131-.7049,2.4199-1.0585,3.6295-.1256-.0116-.2512-.0232-.3769-.0349-.082-.2211-.1656-.4417-.2457-.6635-.7112-1.9696-1.3774-3.9577-2.174-5.8921-.1422-.3454-.8154-.6372-1.2584-.6598-.9581-.0488-2.6969-.927-2.5343-1.6331.2179-.9463.9122-1.8086,1.5208-2.6176.1234-.164.8184-.0243,1.1768.1373,1.4078.635,2.2019,1.8467,2.6974,3.2352.4658,1.3055.8055,2.6561,1.3076,4.347Z"/>
      <path class="cls-1" d="M150.5835,82.5511c-.2092-1.5241.754-2.2991,1.6314-3.0916-.0651-.1062-.0872-.196-.139-.219-2.4203-1.0737-2.3223-2.4937-.7462-4.4311.7312-.8988,1.6114-1.6916,2.5011-2.441.6179-.5204,1.4263-.7946,2.1464-.2013.6941.5718.6424,1.3759.3332,2.1534-.1521.3826-.3538.7454-.5483,1.1488-1.1672-1.0623-1.9307-1.0764-2.8424-.1806-.517.5079-.4749.9333.0894,1.3466.8465.62,1.7392.871,2.725.3301,1.112-.6101,2.2219-1.224,3.3327-1.8363.114.0806.2281.1612.3421.2418-.3929.7366-.6068,1.709-1.2108,2.1673-2.173,1.6487-4.4744,3.1285-6.7373,4.6574-.2374.1604-.5411.2228-.8774.3556Z"/>
      <path class="cls-1" d="M144.7059,70.2927c.2839-1.5937,1.0198-2.5266,2.5549-3.0774,4.7382-1.7001,9.4135-3.5753,14.117-5.3727.5016-.1917,1.028-.3183,1.6641-.512.0824.9959-.1181,1.7905-.9481,2.13-5.6353,2.3046-11.2903,4.561-16.9413,6.8272-.0968.0388-.2228.0049-.4465.0049Z"/>
      <path class="cls-1" d="M135.6299,98.2385c-1.6314-1.149-3.1117-2.1573-4.54-3.2347-.2156-.1626-.3464-.7066-.2462-.9722.4401-1.1667.9782-2.2965,1.4835-3.4384.2279-.515.5579-.75,1.0948-.3785,1.2803.8861,2.6074,1.715,3.809,2.6973.3162.2585.4724,1.0838.3085,1.4899-.5181,1.2839-1.2227,2.4925-1.9095,3.8365Z"/>
      <path class="cls-1" d="M165.685,144.0346c.4953-.5721.9821-1.1518,1.4874-1.7148,1.4303-1.5935,2.9338-3.1274,4.2727-4.7939.5889-.7329.9932-1.6942,1.2226-2.6162.3132-1.2591-.5294-1.9584-1.7459-1.5458-.7525.2552-1.4597.6437-2.278.8571,1.1396-1.5416,2.2067-3.1669,4.1471-3.8086,1.3517-.447,2.8093.6223,2.7302,2.0487-.0482.8693-.3169,1.768-.673,2.5708-1.1485,2.5892-3.0653,4.5834-5.1989,6.3849-1.1955,1.0094-2.4046,2.0029-3.6075,3.0035-.1189-.1285-.2379-.2571-.3568-.3857Z"/>
      <path class="cls-1" d="M118.6539,143.9994c.7313-.7835,1.4741-1.5567,2.1913-2.3528,1.1731-1.3021,2.3411-2.6092,3.4852-3.9366.3022-.3506.5634-.7597.7483-1.1834.4267-.9776,1.2267-2.0809.2017-3.0082-1.04-.9409-2.0053.0419-2.9303.5522-.187.1032-.3761.2026-.6622.1842,1.1058-1.6155,2.2233-3.2446,4.214-3.851,1.4612-.4452,2.8978.9655,2.5199,2.5941-.302,1.3013-.8683,2.5956-1.5678,3.7399-1.9114,3.1264-4.8619,5.2341-7.6781,7.4573-.0719.0568-.2059.0349-.311.0496-.0703-.0817-.1406-.1634-.211-.2451Z"/>
      <path class="cls-1" d="M83.8357,126.916c.5669-.6198,1.1451-1.2296,1.6985-1.8612,1.4355-1.6386,2.9448-3.2232,4.2484-4.9615.5453-.7272.8007-1.7715.9042-2.7032.1105-.9946-.5268-1.4517-1.5037-1.1773-.8051.2261-1.5516.6608-2.3239,1.0036.4406-1.3421,2.6304-3.4399,3.9486-3.7819,1.4267-.3701,2.8412.6287,2.6449,2.0866-.1615,1.1995-.6127,2.4138-1.1783,3.4945-1.3852,2.647-3.6236,4.559-5.9078,6.4047-.7442.6013-1.4958,1.1936-2.2439,1.7901l-.2869-.2943Z"/>
      <path class="cls-1" d="M51.8733,107.6774c-.3424,1.1445-.7102,2.2822-1.0208,3.4353-.4046,1.5024-.7958,3.0101-1.1265,4.5299-.1307.6006-.1372,1.2428-.1043,1.861.0522.9789.1037,2.0924,1.2341,2.4236,1.1328.3318,1.6045-.6928,2.1609-1.4287.1743-.2305.3538-.4572.6397-.6269-.2351,1.6921-.4752,3.3815-1.6398,4.7082-1.1326,1.2903-2.9801.9785-3.5698-.6488-.336-.9272-.4618-1.9776-.4595-2.972.0095-4.0593,1.6824-7.639,3.3877-11.198.042-.0877.1709-.1338.2592-.1994.0797.0386.1593.0772.239.1158Z"/>
      <path class="cls-1" d="M120.1738,106.1569c-.4038,1.1197-.6985,2.2986-1.2601,3.3326-.2586.4762-1.0814.9752-1.5729.9084-.5563-.0755-1.2134-.681-1.4874-1.2265-.3129-.6229-.3553-1.4365-.3353-2.1622.0797-2.8922.8544-5.6168,2.1692-8.1883.1077-.2107.2992-.3785.6135-.4769-.4433,1.517-.9528,3.0188-1.3064,4.5565-.2328,1.0119-.3143,2.0748-.3252,3.1163-.0079.751.241,1.6415,1.1434,1.6356.5112-.0033,1.0348-.5981,1.5195-.9699.2026-.1554.3189-.4233.4744-.6401.1225.0382.245.0763.3674.1145Z"/>
    </g>
    <path class="redcircle" d="M105.7068,202.9213c-26.7453,0-51.89-10.4151-70.8017-29.327-18.9119-18.9119-29.327-44.0566-29.327-70.8019S15.9933,50.9024,34.9051,31.9907C53.8168,13.0788,78.9615,2.6637,105.7068,2.6637s51.8898,10.4151,70.8017,29.327c18.9119,18.9117,29.327,44.0563,29.327,70.8017s-10.4151,51.89-29.327,70.8019-44.0561,29.327-70.8017,29.327ZM105.7068,10.0567C54.5721,10.0567,12.9712,51.6577,12.9712,102.7924s41.601,92.7359,92.7357,92.7359,92.7357-41.601,92.7357-92.7359S156.8415,10.0567,105.7068,10.0567Z"/>
    <rect class="redcircle" x="102.8801" y="5.4735" width="5.6534" height="192.6042" transform="translate(-39.8433 83.1379) rotate(-36.6175)"/>
  </g>
</svg>