<?xml version="1.0" encoding="UTF-8"?>
<svg id="Dawood" xmlns="http://www.w3.org/2000/svg" viewBox="0 0 292.1635 293.7299">
  <defs>
    <style>
      

      @import url('../../CSS/SvgStyling.css');

      
    </style>
  </defs>
  
  <g class="content">

    <rect id="bg" class="bg" width="292.1635" height="293.7299"/>

    <path class="cls-1" d="M177.7714,159.2268c0-1.1422.0577-2.2448-.0101-3.3396-.2782-4.4936-.585-8.9855-.8998-13.4767-.2666-3.8037-.5702-7.6049-.8366-11.4086-.259-3.6983-.4826-7.3992-.7378-11.0978-.2698-3.9095-.5626-7.8174-.8378-11.7265-.253-3.5926-.4949-7.186-.7435-10.7789-.2816-4.0679-.5733-8.1352-.8457-12.2037-.2584-3.8584-.4976-7.718-.7453-11.5771-.2782-4.3345-.5593-8.6689-.8337-13.0036-.1339-2.1151-.2813-4.2298-.3767-6.3467-.148-3.2821-.2951-6.565-.3724-9.8492-.0979-4.162-.6409-8.2331-2.2546-12.1039-.3883-.9314-.4034-1.8581-.1635-2.7985.2877-1.1276.5535-2.2697.9603-3.3562,1.1877-3.1727,2.4262-6.3267,3.679-9.4744.3064-.7697.5975-1.6011,1.5029-1.9793.9261.4068,1.2606,1.2742,1.5995,2.085,1.1226,2.686,2.2527,5.3715,3.2744,8.0967,3.1034,8.2778,6.1776,16.5669,9.2107,24.8707.5052,1.3831.8002,2.8517,1.0886,4.3015.1396.7021.289,1.5814-.4416,2.0547-.8113.5256-1.5572-.0256-2.146-.5399-1.315-1.1484-2.5773-2.3587-3.832-3.5738-.5613-.5436-1.0526-1.1594-1.5757-1.7424-.1334.0531-.2669.1061-.4003.1592-.0151.5932-.0755,1.1894-.0376,1.7792.163,2.5362.3557,5.0705.536,7.6055.2779,3.9084.5559,7.8168.8312,11.7255.2493,3.5399.4881,7.0806.7445,10.62.2793,3.8554.5786,7.7094.8597,11.5647.2504,3.4335.4835,6.8683.7323,10.3019.2832,3.9081.5819,7.8151.8618,11.7234.2573,3.592.4949,7.1855.7479,10.7778.279,3.9616.568,7.9224.8478,11.884.1231,1.7434.2457,3.487.3487,5.2317.2497,4.2302.4919,8.4608.729,12.6917.2164,3.8608.3736,7.7259.6706,11.5804.0651.8444.5063,1.7145.954,2.4655,2.3504,3.9426,4.1786,8.1062,5.1664,12.587,1.9589,8.8853,1.7842,17.6608-1.6974,26.2044-1.192,2.925-2.8607,5.5671-5.0179,7.8659-2.865,3.0531-5.7781,6.0624-8.7306,9.0309-.8587.8633-1.2522,1.6951-1.0734,2.9489.2252,1.5786.3896,3.1512,1.0553,4.6209,1.729,3.8174,4.709,5.8752,8.856,6.2838,2.6968.2657,5.2651-.3348,7.794-1.1786,5.8585-1.9548,11.3257-4.7612,16.6346-7.8592,14.2444-8.3122,27.9508-17.4564,41.3679-27.0377,1.2471-.8906,2.4519-1.8646,3.5569-2.9245,1.9766-1.8958,2.0212-3.3258.1222-5.3246-1.0143-1.0677-2.1394-2.0986-3.3881-2.8623-3.4761-2.1259-6.9846-4.2142-10.5878-6.1133-5.2001-2.7408-10.5445-5.2084-15.7382-7.9608-8.6529-4.5855-15.8657-10.9211-21.8571-18.6388-1.5146-1.951-3.1198-3.7326-5.3007-4.9433-1.5596-.8658-2.1363-2.3528-2.1718-4.0011-.0743-3.4441-.0667-6.8914-.0096-10.3361.0268-1.6174.65-1.9822,2.1515-1.3718,1.1754.4778,2.3178,1.0393,3.4629,1.5887,4.4411,2.1305,8.8886,4.2483,13.3077,6.4239,1.0851.5342,2.1092,1.2171,3.0889,1.9311.5802.4228,1.2409.9777,1.0115,1.8324-.222.8274-1.009,1.0432-1.7503,1.1563-.9917.1513-1.9933.2646-2.9947.3182-.9915.053-1.988.0116-3.1201.283.5203.4884,1.0296.9889,1.5625,1.4632,5.2246,4.6501,11.1033,8.3141,17.3436,11.4156,4.9804,2.4753,10.0005,4.871,14.9872,7.3338,1.8991.9379,3.7627,1.9489,5.6281,2.9533,5.8166,3.1318,8.5836,8.2235,9.452,14.5879.7535,5.5226-.1614,10.8589-1.5266,16.1741-.6907,2.6893-1.9191,5.0721-3.944,6.9531-2.4434,2.2697-4.9026,4.5432-7.5307,6.5895-7.9096,6.1586-16.2615,11.697-24.6073,17.2392-6.2698,4.1635-12.5992,8.2311-19.2183,11.8269-3.6335,1.9739-7.3353,3.7937-11.2656,5.1241-2.8875.9773-5.7985,1.1065-8.7678.499-4.4819-.917-7.633-3.4975-9.5435-7.6215-1.4231-3.0719-2.0057-6.3468-2.2272-9.6942-.1119-1.6915-.1304-3.389-.2032-5.0833-.0152-.3534-.0833-.7045-.1506-1.2466-.4574.3449-.7907.5697-1.0944.8292-6.2932,5.3773-12.7465,10.541-19.8832,14.7809-5.0766,3.0159-10.3801,5.5093-16.1603,6.8821-4.2945,1.0199-8.5945,1.122-12.9033.112-5.3799-1.2612-9.6723-4.1422-12.956-8.5928-2.7265-3.6955-4.3682-7.8395-5.3557-12.2818-.0769-.346-.2024-.6812-.355-1.1856-.6523.3822-1.1898.6939-1.7244,1.0107-4.6026,2.7278-9.1656,5.5253-13.8192,8.1631-3.7347,2.1169-7.6354,3.8967-11.7907,5.08-3.59,1.0223-7.0391.522-10.3898-.8778-3.0278-1.2649-5.0727-3.5804-6.4494-6.5121-1.3685-2.9141-2.0207-6.0148-2.2324-9.2035-.7717-11.6242,1.5074-22.7533,5.5362-33.589.5332-1.4341,1.116-2.8497,1.6624-4.2399-.0909-.1373-.1304-.2762-.2056-.2994-3.3871-1.0431-4.726-3.6972-5.377-6.8677-.7224-3.5182-.5819-7.0739-.2191-10.606,1.001-9.7435,4.3941-18.7145,9.0234-27.2654.453-.8367.9727-1.6393,1.4971-2.4341.1212-.1836.3894-.2702.8823-.2623-.1307.6369-.2136,1.2882-.3999,1.9084-1.2482,4.1555-2.5825,8.2862-3.7636,12.4605-1.1812,4.1745-2.3601,8.3753-2.4726,12.7469-.0527,2.0489.1592,4.1201.441,6.1549.1248.9015.5961,1.8242,1.1267,2.5866,1.2648,1.8174,3.6369,2.1154,5.2762.6303.9699-.8788,1.783-1.9531,2.5565-3.0193.6502-.8963,1.1235-1.919,1.711-2.8635.257-.4132.6033-.7709.909-1.1537.1296.0411.2592.0821.3888.1232.0135.5446.122,1.1068.0251,1.6311-.6841,3.7032-1.5589,7.3568-3.2137,10.7687-.3912.8066-.873,1.5763-1.3773,2.3195-.978,1.4415-2.2455,2.5533-3.9549,3.0305-.594.1658-.8416.4527-.9953,1.0465-1.5641,6.0438-3.3532,12.0399-4.2612,18.2292-.4291,2.925-.6357,5.8944-.7352,8.8507-.047,1.3979.2273,2.8642.6439,4.2104,2.006,6.4832,8.0919,8.1132,12.3105,7.4453,4.0162-.6359,7.7502-2.1195,11.4062-3.8192,5.8698-2.7288,11.4588-5.9709,17.0045-9.2981,1.0688-.6412,1.1056-1.5708,1.2951-2.5355.7645-3.8912,1.3015-7.8451,2.3528-11.6572,1.1224-4.0697,2.6917-8.0197,4.1555-11.9888.3257-.883.6552-1.926,1.7433-2.2994.7282.4847.5462,1.152.403,1.7473-.6927,2.8793-1.3961,5.7566-2.1446,8.6218-1.1783,4.5108-2.0935,9.0719-2.728,13.6897-.0352.2559-.0045.5208-.0045.9282.3369-.1133.6331-.1514.8591-.2978,10.0948-6.5415,20.2343-13.0183,29.8716-20.234.9286-.6953,1.8174-1.4755,2.595-2.3338,1.3705-1.5129,1.435-2.6764.1426-4.232-.8718-1.0493-1.8965-2.0075-2.9825-2.8365-3.7664-2.8751-7.97-5.0249-12.1871-7.1417-4.9706-2.4951-9.9966-4.8853-14.9075-7.4925-8.9402-4.7464-16.3616-11.3113-22.4812-19.3499-1.2406-1.6296-2.6305-3.0569-4.4213-4.0439-1.7705-.9758-2.5324-2.4772-2.5337-4.4376-.0022-3.2848-.007-6.5697-.0019-9.8545.0006-.3691.0055-.7525.1012-1.104.175-.6428.5891-1.0164,1.3-.7968.5545.1712,1.112.3554,1.6343.6048,5.3051,2.5332,10.6116,5.064,15.8962,7.6393,1.0414.5075,2.0273,1.1524,2.9707,1.8289.631.4525,1.3675,1.0208,1.1311,1.9321-.2333.8992-1.1527,1.0826-1.9148,1.1936-1.3591.198-2.7404.2448-4.1128.3496-.4662.0356-.9337.0556-1.5179.0896.2035.8285.815,1.1978,1.2944,1.6341,3.4245,3.1168,7.1449,5.8628,11.2168,8.0403,5.6025,2.996,11.3314,5.7553,16.9999,8.6282,2.977,1.5088,5.9301,3.0649,8.9126,4.5625,6.7406,3.3846,9.6512,9.1038,10.3168,16.3704.4886,5.3351-.4925,10.4314-1.8615,15.51-.6348,2.3547-1.8818,4.3473-3.5566,6.113-3.1541,3.3252-6.7211,6.1652-10.4363,8.8088-6.1746,4.3936-12.4234,8.6827-18.6373,13.0212-.5989.4181-1.1716.8737-1.8575,1.3875,1.1678,2.716,2.7779,4.9636,5.0391,6.7177,3.0952,2.4012,6.6637,3.5688,10.5119,4.134,7.7979,1.1454,14.8966-1.0954,21.7677-4.38,8.4579-4.0431,16.1468-9.307,23.4745-15.1174,1.2458-.9878,2.5058-1.9661,3.6676-3.0473.5122-.4767.9253-1.1535,1.1604-1.8184,1.1024-3.1178,1.5024-6.3652,1.6873-9.6551.1574-2.801.4294-5.5955.6358-8.394.0383-.5194.0055-1.044.0055-1.7515-.8219-.0628-1.5356-.1714-2.2478-.1625-3.3485.0418-6.6732-.1549-9.9277-.9957-.9696-.2505-1.9264-.5892-2.8464-.9865-4.428-1.912-6.5578-5.405-6.6041-10.1261-.0617-6.2819,1.9549-11.8605,6.084-16.6338,1.5303-1.769,3.1702-3.4221,5.1779-4.6654,2.6029-1.6119,5.3604-2.5118,8.4619-1.8737.0925.019.2016-.0426.5212-.1183ZM178.906,180.3064c.6712-2.6244-.0839-4.444-2.3049-5.624-.6977-.3707-1.3631-.814-2.0867-1.1222-2.3778-1.013-4.7841-.7752-7.0796.1859-2.2461.9405-2.4531,3.6823-.4456,5.1001.5881.4154,1.3005.7356,2.0021.8919,1.2299.2739,2.4912.4911,3.7473.5448,2.0399.0873,4.0862.0235,6.1674.0235ZM180.9108,211.2587c.1295.079.259.1581.3884.2371,1.9878-2.0343,4.0181-4.0295,5.9459-6.1192.9997-1.0836,1.8778-2.2944,2.7024-3.5207.9613-1.4296.8722-2.2572-.2091-3.5839-1.0066-1.2351-2.3604-1.8981-4.1329-2.4306-1.185,5.315-3.7377,10.1128-4.6948,15.4174Z"/>
    <path class="cls-1" d="M137.7066,55.7739c.1866.4639.4466.9124.5478,1.3942.6627,3.1549,1.3897,6.301,1.9076,9.4807.7759,4.7644.8508,9.5881,1.0372,14.4051.1512,3.9084.5108,7.8146.9395,11.704.2015,1.828.7441,3.6329,2.5483,5.1138-.2285-.6775-.3911-1.0764-.4981-1.4896-.9762-3.7708-.5875-7.2591,2.2387-10.1812,1.8405-1.9029,4.1807-2.637,6.7701-2.6278,3.2372.0116,6.1429,1.0109,8.6531,3.078.3761.3097.6805.7065,1.0181,1.063-.0679.1193-.1358.2386-.2037.3579-.5896-.1205-1.1912-.1996-1.7668-.368-4.4969-1.3149-8.8073-.6468-12.9799,1.2552-1.7193.7837-1.7738.9485-1.3633,2.8214.5382,2.4556,1.7613,4.5595,3.6813,6.1661,2.2473,1.8804,4.8667,2.2818,7.6188,1.3411,2.6849-.9177,5.0211-2.4833,7.245-4.2214.6546-.5116,1.3405-.9829,2.2206-1.6249.0465.5691.1534.8705.0781,1.116-.5981,1.9517-1.4454,3.698-3.2262,4.9396-2.1301,1.4852-4.1611,3.1121-6.5805,4.124-2.7713,1.159-5.632,1.9394-8.6544,1.3624-3.8962-.7438-6.9547-2.7333-8.8176-6.3445-.0714-.1384-.1674-.2642-.3527-.5527-.2078.6368-.3673,1.1601-.5486,1.6758-1.1897,3.3841-4.2025,5.6626-7.6305,5.7767-2.5093.0835-4.4099-1.1799-5.2694-3.5296-.2333-.6379-.4059-1.298-.6459-2.0765-.4525.1393-.8511.2155-1.2098.3792-8.3863,3.8279-17.2051,6.169-26.2498,7.8078-8.2301,1.4912-16.5173,1.8595-24.8439,1.5158-3.9118-.1615-7.8008-.6339-11.6255-1.5658-3.203-.7804-5.748-2.3656-7.2889-5.3779-.36-.7038-.8079-1.3727-1.2872-2.0031-.6998-.9204-1.294-1.0951-2.3519-.592-.7043.335-1.3789.7962-1.9558,1.3225-1.2687,1.1573-2.1726,2.5904-2.8471,4.1686-.728,1.7036-1.3991,3.4357-2.2167,5.0955-.5329,1.082-1.1685,2.1576-1.96,3.0586-1.4997,1.7072-3.3657,1.7189-4.9923.1167-.5566-.5483-1.0285-1.2196-1.4036-1.9086-1.313-2.4117-1.9851-5.0072-2.0459-7.7574-.0158-.7152-.0476-1.4301-.0831-2.47-.6358.5585-.9703.8738-1.3272,1.1612-.6175.4973-1.2064,1.0485-1.882,1.4519-2.613,1.5599-5.316,1.0006-7.167-1.4351-1.428-1.879-1.8526-4.0364-1.5685-6.3165.445-3.5719,1.8187-6.8371,3.5295-9.9709.0917-.1679.2938-.2756.517-.4765.4937.5871.2515,1.1376.0801,1.6519-.4182,1.2551-.9229,2.4833-1.2971,3.7505-.4635,1.5695-.8324,3.167-1.2364,4.7538-.052.2044-.0826.4163-.1012.6267-.3036,3.436,2.1617,5.2642,5.2716,3.7794,1.2646-.6037,2.4327-1.5141,3.4633-2.4787,1.5446-1.4457,2.9403-3.052,4.3799-4.608,4.31-4.6586,9.3757-8.2368,15.2273-10.7.2406-.1013.4675-.2362.6963-.3636.04-.0222.0572-.0853.1839-.2874-.2141-.4675-.4835-1.0267-.7283-1.5965-.5432-1.2641-.6323-2.5679-.2211-3.8789.7491-2.3885,2.9017-3.5734,5.2544-2.747,2.3835.8372,4.3925,2.3181,6.1197,4.1557.6611.7033.8908,1.5465.5045,2.4961-.0987.2426-.136.5107-.1954.7686-.3355,1.4581-1.0993,2.4314-2.687,2.7057-.9824.1697-1.9149.6105-2.8876.8602-.8454.217-1.4925.511-1.4354,1.562.0146.2695-.2316.5531-.4779,1.0929-.4897-.534-.849-.9256-1.267-1.3814-.2056.0459-.4705.0692-.7073.1631-4.9054,1.9462-9.5871,4.2678-13.3728,8.0681-1.3088,1.3139-2.5774,2.6684-3.9041,3.9637-.8227.8033-1.1884,1.7813-1.1121,2.8682.1368,1.9493.3018,3.9051.628,5.8288.1441.8496.5833,1.7246,1.1113,2.4186,1.2414,1.6317,3.3327,1.6251,4.6143.0298.5242-.6525.9364-1.4127,1.3033-2.1705.877-1.8112,1.6914-3.6527,2.5412-5.4772,1.0192-2.1879,2.3655-4.1419,4.2224-5.7057,2.4994-2.1048,4.0603-1.8974,5.8816.7922.5932.876,1.1127,1.8034,1.6389,2.7228.8885,1.5524,2.1579,2.6104,3.9196,2.99,2.0662.4452,4.1293.939,6.2187,1.2354,5.2056.7387,10.4502.805,15.6986.7117,7.1676-.1275,14.2478-1.0369,21.271-2.415,6.554-1.286,13.0045-2.9491,19.1611-5.5979,1.5526-.668,3.0685-1.4214,4.8506-2.2518.0704.5831.1358,1.0061.17,1.4317.0673.8377.0225,1.6968.1957,2.5106.2885,1.3562,1.0664,2.0065,2.4198,2.1117,1.6133.1254,3.1681-.1525,4.6196-.896,2.0189-1.0342,2.7555-2.8821,2.9365-4.9626.1648-1.8947.2066-3.8091.1605-5.7114-.1154-4.7668-.1455-9.5448-.5237-14.2933-.3482-4.3718-1.0646-8.717-1.7003-13.0621-.3033-2.0733.1049-3.9536.9312-5.7853l.4732-.0431ZM57.4617,80.4823c-.0135-.1469-.027-.2938-.0405-.4407-1.2433-.8292-2.5826-1.3682-4.445-1.485.5576,1.175.9703,2.0446,1.452,3.0595,1.1331-.4235,2.0833-.7787,3.0335-1.1338Z"/>
    <path class="cls-1" d="M101.0315,42.4277c-.4932,2.2563-1.2099,3.6227-3.2285,4.3534-6.5691,2.3778-13.0694,4.9463-19.5886,7.4611-1.802.6951-1.743.7235-1.6221,2.6864.2376,3.8574.4173,7.7184.6214,11.5779.2098,3.9665.2498,7.9514.6745,11.8948.5072,4.7102,1.9749,5.648,6.7285,4.7104,1.7106-.3374,3.1104-1.306,4.3536-2.5015.9168-.8817,1.8149-1.7835,2.7499-2.6454.4514-.4162.9012-.9539,1.7895-.5278-.025.5114-.0549,1.0722-.0793,1.6332-.0792,1.8203.5483,2.785,2.3078,3.2985,2.8154.8217,5.221-.0929,7.3163-1.9598.9472-.8439,1.7689-1.8274,2.6737-2.7211.3494-.3451.7713-.6167,1.1601-.9218l.3009.1829c-.0331.4433-.0579.8874-.1007,1.3298-.2721,2.8182,1.7093,4.3661,4.3193,3.2271.9765-.4261,1.8266-1.2443,2.5894-2.0253.6173-.6321,1.0035-1.4862,1.5192-2.2229.2841-.4059.6239-.7727,1.2018-1.4789.1633.7873.2529,1.1589.3157,1.5349.1127.6745.1247,1.3789.3323,2.0212.3157.9766,1.0477,1.5684,2.0805,1.7404,1.5928.2652,3.0898-.0356,4.365-1.0054.4545-.3456.873-.9883.9422-1.5411.1699-1.3562.2267-2.7446.1513-4.1102-.2393-4.3363-.5507-8.6687-.8519-13.0014-.2608-3.7511-.5584-7.4997-.8149-11.2512-.1481-2.1665-.2433-4.3366-.3721-6.5045-.0219-.369-.0289-.7583-.1521-1.0987-.7476-2.0668.375-3.6535,1.1968-5.3917,1.3157,1.1239,4.1759,8.7424,3.9496,10.5001-.4968-.1413-.9734-.2769-1.5808-.4497-.2518,1.2586-.1017,2.5095-.0258,3.7426.13,2.1131.3712,4.2191.516,6.3315.3149,4.5961.6465,9.1919.8789,13.7925.1722,3.4083-.0857,6.803-1.481,9.9667-.5651,1.2813-1.3442,2.5602-2.3201,3.5503-2.5204,2.5571-6.088,2.0088-7.9185-1.0691-.2618-.4402-.5045-.8917-.794-1.4053-.6377.9841-1.1707,1.8928-1.7887,2.7396-.8541,1.1703-2.0534,1.8093-3.4824,2.0081-1.6308.2269-3.3218-.6035-4.1404-2.0957-.3725-.6791-.6205-1.4265-.9196-2.1305-1.0692,1.0322-2.0785,2.1102-3.1971,3.0595-1.3142,1.1153-2.8359,1.8827-4.606,1.9215-3.3588.0737-4.7371-1.2663-5.2768-3.8933-.0632-.3078-.1397-.6128-.2486-1.0873-.3578.2459-.6707.3966-.8994.6299-.7417.7566-1.403,1.5981-2.1849,2.3083-2.2041,2.0022-4.7084,3.1981-7.7981,2.7248-2.0083-.3076-3.4185-1.3752-4.1743-3.2453-.3921-.9703-.6605-1.9907-1.0369-3.1489-.3729,1.2452-.6824,2.3456-1.0317,3.4331-1.1864,3.693-3.6517,6.332-7.0746,7.9701-2.9694,1.421-6.2073,2.0874-9.4547,2.6102-.3764.0606-.7709.0082-1.269.0082.208-.8806.8139-1.0536,1.2812-1.3363,2.901-1.7553,5.8628-3.4161,8.7015-5.266,1.4936-.9733,2.7957-2.247,4.1493-3.4253.5362-.4668.826-1.011.4749-1.8254-.2853-.6618-.3232-1.4403-.4139-2.1741-.3758-3.0396-1.669-5.6996-3.5537-8.0378-1.6253-2.0164-3.4101-3.9107-5.2004-5.7863-3.9505-4.1387-7.9814-8.2011-11.9074-12.3627-1.1195-1.1867-1.9867-2.6105-2.9781-3.9192-.5114-.675-1.0056-1.3681-1.5705-1.9966-1.1831-1.3162-1.4435-3.7641-.4088-5.5888,2.6399,1.631,4.9916,3.5825,7.3032,5.5861l-.1164.384c-.5703.1271-1.1407.2542-1.9249.429.6161.7438,1.1289,1.4608,1.7386,2.083,3.7838,3.8612,7.6295,7.6626,11.371,11.5641,1.9032,1.9845,3.7364,4.0566,5.4024,6.2407,1.079,1.4145,1.8864,3.0614,2.6568,4.6797.9592,2.0151,1.1009,4.1734.7,6.3713-.1125.6166-.136,1.2495.0097,1.9591.2035-.3354.4391-.6556.6052-1.0086,1.005-2.1354,1.5802-4.3828,1.6037-6.7465.0586-5.8838-.024-11.764-.5812-17.628-.1184-1.2458-.2352-2.4918-.3787-4.0126-3.9324,1.5331-7.5931,2.9604-11.2867,4.4004-.5197-2.6773.1495-3.9592,2.3787-4.8025,2.2775-.8616,4.5649-1.6968,6.8445-2.5527.5335-.2003,1.0531-.4374,1.6834-.7011-.2776-1.7601-.5213-3.4257-.8065-5.0841-.3605-2.0961.0987-4.0481.8084-6.0881.9024.3578.9586,1.0623,1.0973,1.6144.502,1.9992.9293,4.0174,1.3704,6.0316.167.7625.2948,1.5336.4679,2.4454.6591-.2119,1.2088-.3661,1.7424-.5637,6.9488-2.574,13.8937-5.1586,20.8451-7.7256.667-.2463,1.371-.3923,2.3703-.6725Z"/>
    <path class="cls-1" d="M123.355,152.3237c.5988-1.2595,1.5696-1.7349,2.4414-2.2717,2.5711-1.5833,5.1861-3.0952,7.7622-4.6705,5.8746-3.5924,11.8162-7.0841,17.5703-10.861,2.996-1.9665,5.6552-4.4471,8.4567-6.7076.3245-.2618.586-.6017.9812-1.0146-.3697-.2762-.6862-.5106-1.0006-.7479-1.3074-.9866-2.6912-1.8885-3.9039-2.9804-2.0057-1.8059-2.4055-4.1365-1.8299-6.6946.391-1.7378,1.1648-3.2935,2.2694-4.678,1.365-1.7108,2.9544-3.1868,4.8166-4.3473.5366-.3344,1.107-.6302,1.693-.8666,3.2572-1.3143,5.8464.2856,6.2078,3.7985.2972,2.8885-.1316,5.6979-.8604,8.4806-.2125.8113-.3961,1.6302-.5982,2.4675,1.0913.8008,2.143,1.5097,3.1232,2.3065,1.4343,1.1659,1.6298,1.777.8359,3.4339-.7711,1.6091-1.737,3.1249-2.6949,4.8189-1.6145-1.1915-3.0384-2.2424-4.8162-3.5544-.256.4401-.4216.8402-.6848,1.1602-6.8228,8.2952-15.4402,14.1115-25.3059,18.1475-3.7705,1.5425-7.6233,2.8851-11.4494,4.2894-.8741.3208-1.7683.6774-3.0134.4915ZM163.8478,119.3832c.45-1.1145.4151-2.1063.3728-3.0908-.0505-1.1743-.1097-2.4504-1.3351-3.0028-1.1631-.5243-2.2668.0636-3.2579.7117-1.2545.8203-1.3585,1.636-.2692,2.6874,1.2204,1.1779,2.6694,2.0163,4.4895,2.6946Z"/>
    <path class="cls-1" d="M16.6582,158.6835c-.8919,1.5149-2.1078,1.3293-3.3538.7699-1.1545-.5183-2.3079-1.0525-3.4076-1.6753-.9523-.5392-1.4426-1.4388-1.2482-2.546.3561-2.0284.7081-4.0635,1.2132-6.0575.343-1.3541.7554-1.5311,1.9321-.8841,2.6421,1.4529,5.3163,2.8772,7.8123,4.5583,2.9991,2.0199,4.7606,5.059,6.0495,8.3782.3716.9568.7305,1.9185,1.3038,2.8207,0-2.4673.0708-4.9371-.0176-7.4012-.1144-3.1907.4773-6.2277,1.8061-9.1038,1.1624-2.5159,3.2919-3.1404,5.6258-1.6734,1.1614.73,2.2191,1.6273,3.3091,2.4679.8242.6356,1.1229,1.4756,1.0039,2.5215-.1887,1.6588-.4737,2.7234-1.1932,3.9493-.9072.1682-1.5491-.4532-2.2707-.855-1.1997-.6681-2.369-1.4059-3.6173-1.9672-1.1773-.5294-1.9017-.0074-2.0373,1.2948-.0218.2091-.0172.4256.0092.6343.5204,4.1066-.16,8.1352-.8205,12.1586-.8996,5.4807-1.8611,10.9513-2.7756,16.4296-.2785,1.6683-.5528,3.3418-.7147,5.0239-.1871,1.9435.2046,3.7944,1.2307,5.4875.6502,1.0728,1.485,1.9147,2.6939,2.3543,1.7357.6312,3.1723.0324,3.8701-1.6805.259-.6358.4041-1.3178.6602-1.9549.1842-.4582.4663-.8771.7336-1.3661,1.0266.613,1.1628,1.4193,1.1136,2.2895-.1172,2.0717-.5438,4.0752-1.2198,6.0437-1.4138,4.1171-6.8556,4.4678-9.3494,1.4609-1.5004-1.8091-2.4874-3.8853-2.3828-6.2481.1332-3.009.4819-6.0101.79-9.0092.3677-3.5799.866-7.1477,1.173-10.7323.5074-5.9246-2.1523-10.5351-6.2612-14.4908-.2269-.2185-.4986-.3961-.7677-.5633-.2221-.1379-.4712-.2323-.8926-.4342Z"/>
    <path class="cls-1" d="M194.4619,131.0832c-.5143-1.2445-.4452-2.2813-.148-3.2979.2216-.758.5797-1.4749.8449-2.2215.4207-1.1842,1.2394-1.86,2.4264-2.2889,5.1719-1.8687,10.3203-3.8028,15.4769-5.7138,15.5713-5.7706,31.1415-11.5441,46.7163-17.3053.8237-.3047,1.6853-.5068,2.4431-.7311.2091.2516.3372.3356.3313.4089-.1668,2.0785-1.1451,3.8261-2.3897,5.4106-.3524.4486-1.071.6471-1.6561.8698-9.2943,3.5371-18.6188,6.996-27.8864,10.6013-11.2881,4.3913-22.5292,8.9033-33.7913,13.3613-.7314.2895-1.4692.5632-2.3675.9067Z"/>
    <path class="cls-1" d="M114.3839,281.7639c.9045-.1066,1.5011-.2284,2.0997-.2396,5.7207-.1071,11.4434-.1425,17.1623-.3076,4.0213-.1161,8.0506-.2705,12.0514-.6625,2.2408-.2196,4.424-.9908,6.6462-1.4502,1.2445-.2573,1.9577-1.0086,2.2562-2.1662.5539-2.1482,1.1515-4.2928,1.5433-6.4726.3547-1.9731.5304-3.9868.6507-5.9907.0897-1.4936-.0199-1.4346-1.517-1.738-.5666-.1148-1.2089-.4961-1.5511-.9544-.9363-1.2538-1.3713-2.7258-1.4172-4.3046-.0204-.7021.2377-1.2552.8394-1.5986,1.2863-.7341,2.5813-1.4543,3.8904-2.1468.8102-.4286,1.5282-.202,2.1643.4198,1.3002,1.271,1.9768,2.8372,2.3066,4.6031.5278,2.8265.125,5.593-.5077,8.3358-.3534,1.5321-.8564,3.0296-1.3678,4.8064.4043-.3973.6441-.6228.8728-.8591,2.3946-2.474,4.7444-4.9935,7.1966-7.4089,1.5222-1.4993,3.3328-2.6173,5.4494-3.1227,2.0283-.4844,3.4312.3174,4.0665,2.2728.8773,2.7002.0905,5.0854-2.1522,6.5245-1.2988.8334-1.8364.6181-2.228-.8945-.1323-.511-.2085-1.0433-.3992-1.5312-.5155-1.3187-1.2581-1.6625-2.4739-.985-1.0085.5621-1.9926,1.2374-2.8241,2.0333-1.682,1.6096-3.3661,3.2418-4.8452,5.0333-2.6656,3.2284-5.881,5.7864-9.3128,8.1066-2.9088,1.9666-6.2089,2.9407-9.624,3.5031-3.293.5423-6.6199.7203-9.9639.7428-4.1094.0277-8.0997-.776-12.111-1.4719-1.5108-.2621-3.0269-.5058-4.5227-.838-.735-.1632-1.5917-.151-2.3779-1.2384Z"/>
    <path class="cls-1" d="M283.422,171.4207c.046.2394.1685.4932.1263.7159-.552,2.9159-1.179,5.8127-2.6355,8.4453-.6521,1.1786-1.4745,2.2169-2.7372,2.7878-1.945.8794-4.1096.1405-5.1706-1.792-.9371-1.7068-1.2147-3.5912-1.3408-5.5078-.2652-4.0317.5526-7.9081,1.7366-11.7164.7693-2.4741,1.6454-4.9166,2.5306-7.3525,1.5065-4.1458,2.1263-8.4149,1.7597-12.8024-.2674-3.1994-1.2461-6.2125-2.7123-9.07-1.6359-3.188-3.8069-5.9807-6.2668-8.5637-1.5522-1.6299-1.5931-1.8663-.4666-3.8624.6418-1.1372,1.3338-2.246,2.1015-3.5322.6961.4997,1.2305.8169,1.6874,1.2215,4.8799,4.3211,7.6309,9.7981,8.7369,16.1633,1.2463,7.1722.3094,14.1156-2.0966,20.9296-1.2143,3.4388-2.3869,6.8975-3.4102,10.3964-.6002,2.0523-.4707,4.1974.0884,6.2799.1213.4519.3125.9081.5709,1.2961.911,1.3682,2.4959,1.649,3.6765.5006.8964-.872,1.5644-1.982,2.3133-3.0013.3949-.5375.7456-1.1075,1.1162-1.6629.1308.0423.2616.0846.3924.1269Z"/>
    <path class="cls-1" d="M49.9082,142.059c.4689-.3897.8979-.8457,1.4141-1.157,1.7656-1.065,3.5532-2.0946,5.3487-3.1089,2.303-1.3009,4.6307-2.5584,6.9276-3.8699.5713-.3262,1.065-.7882,1.7089-1.2742-1.2641-.9175-2.5399-.9819-3.7773-1.003-3.2802-.0561-6.5619-.0348-9.843-.0289-2.1429.0038-2.5512-.6556-1.5111-2.5732.5797-1.0689,1.2144-2.1094,1.855-3.1437.8609-1.39,2.1518-2.1728,3.7391-2.4305,3.2622-.5296,6.5442-.3618,9.8188-.1572,1.3685.0855,2.7326.2861,4.0892.4958.62.0958,1.2367.2914,1.8207.5265,1.8.7249,2.2005,1.6234,1.2709,3.3311-2.0396,3.7466-4.6007,7.1123-7.8905,9.8549-.7919.6602-1.7885,1.1703-2.7753,1.4846-3.7235,1.1859-7.4806,2.2664-11.2296,3.3713-.2338.0689-.5055.009-.7595.009-.0689-.1089-.1377-.2178-.2066-.3267Z"/>
    <path class="cls-1" d="M217.717,59.7932c.7307-3.0218,1.4469-5.9769,2.1595-8.9329.5009-2.0778,1.2071-4.085,2.5966-5.733.6258-.7422,1.4923-1.3034,2.3125-1.8527.6182-.4139,1.3179-.2613,1.9747.0499,2.7263,1.2917,3.8404,5.0296,2.2321,7.5594-.1896.2982-.4866.5282-.8164.8771-.3846-.2584-.7409-.4567-1.0464-.7151-.2807-.2374-.4967-.5495-.7583-.8115-1.4519-1.4542-2.5007-1.3136-3.4435.541-1.2107,2.3817-1.6919,4.9939-2.2652,7.5738-.5155,2.3196-1.0122,4.6443-1.5889,6.9488-.2029.8106-.5767,1.5888-.9507,2.343-.3013.6077-.6888,1.1966-1.6858,1.2612-.1391-.4768-.3324-.9498-.4119-1.4413-.6928-4.2825-2.3571-8.2187-4.3181-12.0401-.6013-1.1718-.7689-1.1088-2.1098-.6618-.5076.1692-1.1816.1951-1.6684.0033-1.3555-.534-2.425-1.4925-3.2621-2.689-.4588-.6558-.5828-1.3561-.1492-2.084.7034-1.1807,1.3836-2.3764,2.1237-3.5337.4729-.7394,1.1282-.9766,2.0518-.7361,1.4455.3764,2.5957,1.1653,3.6072,2.2031,1.6556,1.6988,2.7927,3.7302,3.5726,5.9441.6772,1.9224,1.2173,3.8931,1.8439,5.9265Z"/>
    <path class="cls-1" d="M140.5348,38.3625c-.3885-1.1803.2612-1.7162.7647-2.3027,2.0009-2.3307,4.107-4.5802,5.9771-7.0114,1.5094-1.9622,2.7934-4.1078,4.0615-6.241.5614-.9444.8389-2.0405.5449-3.2103-.4197-1.6701-1.3003-2.5447-3.0171-2.4156-1.1201.0843-2.2163.5811-3.3054.9463-.6173.207-1.1986.5212-1.8234.7993-.1351-.3435-.252-.493-.2393-.6305.2687-2.9057.9973-5.6533,3.1286-7.7873,1.911-1.9135,4.2654-2.4728,6.8771-1.8482,1.8871.4513,3.2334,2.2375,3.5527,4.4368.4252,2.929-.1417,5.7002-1.3219,8.349-3.0351,6.8123-7.7898,12.1773-13.9525,16.3248-.3343.225-.7348.3517-1.2471.5907Z"/>
    <path class="cls-1" d="M134.4705,55.5246c-.7691-.3742-1.2231-.595-1.865-.9073,0,.9392-.0493,1.8083.0083,2.6701.2863,4.2771.6002,8.5524.9057,12.8282.2717,3.8012.5436,7.6024.8183,11.4034.2784,3.8513-.1385,7.6115-1.5131,11.2365-.2106.5553-.3486,1.2073-1.2366,1.6475-.0446-.6977-.1626-1.248-.1006-1.7773.5092-4.3491-.0123-8.6723-.2865-13.0015-.2443-3.8568-.4989-7.713-.7555-11.5691-.2742-4.1195-.5501-8.239-.8375-12.3576-.1251-1.7919-.0326-3.6475-.485-5.356-.5755-2.1733.4088-3.7439,1.3368-5.8114,1.352,1.7935,1.7813,3.6434,2.4431,5.3675.6527,1.7002,1.4994,3.3614,1.5675,5.627Z"/>
    <path class="cls-1" d="M80.834,64.8423c-.6182-2.2773.1909-3.9297,2.2267-4.6867,11.1597-4.15,22.3246-8.2859,33.4901-12.4204.8763-.3245,1.7702-.6011,2.677-.9071.3076,1.7611-.6196,3.4353-2.1582,4.0221-3.1644,1.2069-6.3511,2.3561-9.5067,3.5855-8.3342,3.2469-16.6563,6.525-24.9848,9.7865-.5707.2235-1.1552.4117-1.7441.6201Z"/>
    <path class="cls-1" d="M43.233,75.808c-.7714-.4915-1.4294-.9108-2.2527-1.4354-5.1567,6.3233-12.1181,9.5118-19.8775,11.4625.1811-.2575.3086-.5954.5528-.7585,1.0122-.6761,2.06-1.2987,3.0941-1.9421,3.596-2.2375,7.2167-4.4368,10.7738-6.7345,1.2296-.7942,2.3008-1.8336,3.5896-2.8788-.6747-.5492-1.198-.9578-1.7021-1.3888-1.7365-1.4848-2.1012-3.0657-1.0999-5.0944.8232-1.6679,2.1113-2.9187,3.7974-3.6989,1.7659-.8171,3.2774.033,3.3382,1.9931.0437,1.4086-.2208,2.8353-.4406,4.2394-.0898.5739-.0961.983.368,1.4122,1.7901,1.6555,1.8179,2.035.4523,4.0699-.145.216-.3216.4109-.5933.7542ZM38.5239,67.6179c.5463.9698,1.1805,1.5567,2.2412,1.6268.3818-.8866.3456-1.6922-.3429-2.2227-.69-.5316-1.2573.0295-1.8983.5959Z"/>
    <path class="cls-1" d="M221.4389,83.5002c4.573,3.1877,7.3288,7.2683,8.1154,12.5597.7464,5.021-.0725,9.2183-1.8959,10.6489-.7045-.4405-.3647-1.0968-.3655-1.6954-.003-2.0009.1772-4.0335-.1115-5.9953-.4516-3.0681-2.1573-5.5989-4.179-7.8899-.8738-.9902-1.858-1.8825-2.7778-2.8329-.8579-.8865-.9135-1.1338-.3324-2.2332.4343-.8217.9587-1.5958,1.5469-2.5618Z"/>
    <path class="cls-1" d="M125.0756,119.1167c4.6723,3.2591,7.4429,7.5284,8.0826,13.0122.61,5.2293-.2418,8.9247-1.9861,10.094-.6419-.3228-.4578-.9254-.3687-1.3952,1.2471-6.5757-1.4957-11.6377-6.0352-16.0239-2.1196-2.0481-2.145-2.1779-.543-4.6056.1995-.3023.4476-.5725.8504-1.0815Z"/>
    <path class="cls-1" d="M156.5711,77.0367c-.3061.3325-.5769.7084-.924.9904-2.3839,1.9369-5.1566,2.6299-8.1634,2.3587-1.8317-.1652-2.7744-1.3707-2.7512-3.2393.0189-1.526.5632-2.8902,1.2805-4.2017.3-.5485.6084-1.0926.8894-1.5963-.1079-.1763-.1432-.2892-.2197-.3509-1.9545-1.5759-2.2093-2.8311-.7091-4.8408.841-1.1266,1.9305-2.0787,2.9733-3.0384.4208-.3873,1.0368-.6381,1.5812-.1325.5414.5028.8167,1.1417.4551,1.8557-.2553.5041-.6238.951-1.0012,1.5116-.4885-.2941-.8726-.5253-1.2633-.7605-.1639.0666-.3715.0837-.4401.1903-.2961.4603-.8453,1.0112-.7578,1.4096.1586.7225.9705,1.0007,1.6662.8929.6409-.0993,1.2891-.3974,1.8428-.751.6911-.4414,1.2886-1.0292,1.9567-1.5787.5924,1.2616.1842,2.7662-.9371,3.7344-.6397.5524-1.4132.9721-1.972,1.5911-1.1977,1.3268-2.4135,2.6655-3.398,4.148-.8615,1.2972-.3266,2.2209,1.2478,2.401,2.1187.2424,4.2169.0229,6.2872-.5019.7254-.1839,1.474-.2767,2.212-.411.0482.1064.0965.2129.1447.3194Z"/>
    <path class="cls-1" d="M91.5397,119.8477c-1.3442-.9106-2.594-1.7573-4.0201-2.7234.5936-1.2591,1.1423-2.4229,1.6915-3.5876,1.6278.1044,2.5012,1.3683,3.8206,1.8654.4583-.7309.897-1.4305,1.3954-2.2254,1.4869.4518,2.5745,1.371,3.643,2.2872.2141.1836.3286.6982.2397.9822-.345,1.1029-.8091,2.163-1.805,3.0469-1.0848-.6585-2.1557-1.3086-3.3216-2.0164-.5408.7801-1.0356,1.494-1.6434,2.3709Z"/>
    <path class="cls-1" d="M96.3762,61.9428c.6052.5872.505,1.3165.4351,2.0592-.0485.5153-.1089,1.0659.0234,1.5495.0927.339.5878.8758.7516.826.39-.1187.8994-.4845.9809-.8381.1493-.6474.0408-1.3589.0073-2.0421-.018-.3672-.196-.7476-.1344-1.0922.0756-.423.326-.8147.6435-1.5506.5488,1.0291.9167,1.7189,1.3813,2.5901.4661-.9361.0664-1.9872,1.0243-2.4181.8667,1.1345,1.6748,3.9477,1.4526,5.1638-.0656.359-.1905.7208-.3584,1.045-.5907,1.1406-1.3405,1.3607-2.4749.756-.1387-.074-.2506-.1978-.3883-.2744-.0859-.0478-.197-.0505-.3483-.0852-.3321.287-.6569.6433-1.0498.8922-.9841.6236-2.0448.32-2.4889-.7651-.2344-.5728-.2662-1.2297-.3794-1.8505-.103-.5649-.1334-1.1503-.3-1.6948-.359-1.173-.1484-1.6206,1.2225-2.2707Z"/>
    <path class="cls-1" d="M111.3797,92.1879c.1767.5446.2846.8774.4095,1.2624.203-.0876.3805-.1098.4657-.2103.3878-.4578.7497-.9377,1.1642-1.4646.6902,1.0746.5565,2.2078-.198,3.3184-.5374.791-1.236.95-2.0694.6032-.6478-.2696-1.2155-.1422-1.813.161-.8422.4274-1.7141.4436-2.6067.089-1.601-.6361-3.1406-.3575-4.5541.5114-1.2143.7464-2.308,1.6931-3.5378,2.4089-1.0348.6023-2.18,1.0218-3.297,1.4709-.2517.1012-.589-.0108-1.2934-.0435.6363-.427.9322-.703,1.2823-.8475,1.7872-.7378,3.2707-1.9093,4.7565-3.1158,1.1819-.9598,2.4636-1.8198,3.7852-2.5772,1.0852-.622,2.3305-.7666,3.5184-.2176,1.2339.5703,2.2344.4169,3.0798-.6865.1779-.2322.488-.363.9079-.6621Z"/>
    <path class="cls-1" d="M55.1925,52.3904c1.3198-1.3107,3.2073-1.8404,4.7944-3.0944-1.7116-.7678-3.4128-.0354-4.926-.5959.0159-1.6275.9299-2.9725,2.3697-3.0606,1.618-.0989,3.2728.0043,4.8794.2397,1.3425.1967,1.5369.8123.8426,2.026-1.1672,2.0403-2.7013,3.6459-5.1221,4.1662-.8998.1934-1.786.4501-2.6783.678-.0532-.1197-.1064-.2394-.1596-.3591Z"/>
    <path class="cls-1" d="M49.7138,111.687c1.0649-.1543,2.1297-.3087,3.2872-.4764-.0751.3014-.0625.5092-.153.5748-1.01.7314-2.1501,1.1243-3.3946,1.0581-.3637-.0193-.9267-.2582-1.0156-.5243-.1244-.3724-.0296-.9805.2201-1.2811.4923-.5926,1.1555-1.0431,1.8465-1.637-.9109-.7751-.6429-1.7183-.4727-2.6405.1332-.7219.6467-.9838,1.2877-.7907.9435.2843,1.6926.8828,2.0281,1.8408.2909.8308-.0978,1.6924-.8604,1.6837-.836-.0096-1.2182.4633-1.6981.9438-.3639.3644-.7839.6727-1.1789,1.006.0346.0809.0692.1619.1038.2429Z"/>
  </g>
</svg>