<?xml version="1.0" encoding="UTF-8"?>
<svg id="Divorce" xmlns="http://www.w3.org/2000/svg" viewBox="0 0 287.9123 208.7012">
  <defs>
    <style>
      

      @import url('../../CSS/SvgStyling.css');
      
    </style>
  </defs>
  
  <g class="content">

    <rect id="bg" class="bg" width="287.9123" height="208.7012"/>

    <path class="cls-1" d="M191.3062,15.961c-11.9832,0-23.354,2.4664-33.7637,6.8208l-.1701,7.7733,21.3128,1.1907-7.2545,12.7826c6.2595-2.1177,12.9187-3.3168,19.8755-3.3168,34.8268,0,63.139,28.3122,63.139,63.139s-28.3122,63.1305-63.139,63.1305c-9.7379,0-18.9145-2.2623-27.1726-6.234-7.7223-3.6996-14.5856-8.9044-20.1732-15.266-9.7974-11.1497-15.7848-25.6758-15.7848-41.6306,0-10.3077,2.5344-20.0116,6.9399-28.5929l-3.3849-8.105-15.232,10.0696-2.8661-15.2745c-6.7868,12.4764-10.7159,26.7133-10.7159,41.9028,0,21.6785,7.8669,41.503,20.8706,56.8966,5.7662,6.8548,12.604,12.7741,20.1732,17.6048,13.7096,8.7599,29.9111,13.8882,47.3458,13.8882,48.7406,0,88.3896-39.6575,88.3896-88.3896S240.0468,15.961,191.3062,15.961Z"/>
    <path class="cls-1" d="M117.5192,120.5266c0-17.8429,6.285-34.155,16.6267-47.0906l-2.4153-5.7832-15.232,10.0696-2.8661-15.2745c-6.7868,12.4764-10.7159,26.7133-10.7159,41.9028,0,21.6785,7.8669,41.503,20.8706,56.8966,5.7662,6.8548,12.604,12.7741,20.1732,17.6048,1.4968.961,3.0277,1.854,4.584,2.747-18.7699-13.8202-31.0252-35.992-31.0252-61.0724Z"/>
    <path class="cls-1" d="M128.9666,179.7194l-17.7664-.7909,4.9157-14.6451c-6.1489,2.0241-12.6805,3.1978-19.5098,3.1978-34.8268,0-63.139-28.3037-63.139-63.1305s28.3122-63.139,63.139-63.139c9.7379,0,18.9145,2.2708,27.1811,6.2425,7.7223,3.6996,14.5771,8.8959,20.1732,15.266,9.7889,11.1497,15.7848,25.6758,15.7848,41.6306,0,11.2858-3.0447,21.8231-8.2666,30.9912l3.7421,7.4501,14.5005-11.0902,4.0397,15.5381c7.1185-12.7146,11.2347-27.3087,11.2347-42.8893,0-21.6785-7.8669-41.503-20.8621-56.8966-5.7747-6.8633-12.604-12.7741-20.1732-17.6133-13.7181-8.7514-29.9196-13.8797-47.3543-13.8797C47.8741,15.961,8.2166,55.6185,8.2166,104.3506s39.6575,88.3896,88.3896,88.3896c10.5969,0,20.7175-1.9221,30.1237-5.3665l2.2367-7.6542Z"/>
    <path class="cls-1" d="M170.4016,88.1746c0,18.6679-6.8548,35.6688-18.0725,48.8596l2.8916,5.7577,14.5005-11.0902,4.0397,15.5381c7.1185-12.7146,11.2347-27.3087,11.2347-42.8893,0-21.6785-7.8669-41.503-20.8366-56.8966-5.8002-6.8633-12.604-12.7741-20.1987-17.6133-1.5053-.961-3.0362-1.8455-4.5925-2.7385,18.7954,13.8117,31.0337,35.9835,31.0337,61.0724Z"/>
  </g>
</svg>