<?xml version="1.0" encoding="UTF-8"?>
<svg id="Fetus" xmlns="http://www.w3.org/2000/svg" viewBox="0 0 233.7416 243.887">
  <defs>
    <style>
      

      @import url('../../CSS/SvgStyling.css');

      
    </style>
  </defs>
  
  <g class="content">

    <rect id="bg" class="bg" width="233.7416" height="243.887"/>

    <path class="cls-1" d="M79.2035,82.5054c1.9336,0,3.7634-.9281,5.1525-2.6136.6429-.7798.5322-1.9335-.2469-2.5769-.7796-.6439-1.9322-.5327-2.5747.2471-.4823.5849-1.2779,1.2823-2.3309,1.2823-2.089,0-3.8539-2.7682-3.8539-6.0447s1.7649-6.0449,3.8539-6.0449c.4088,0,.8144.108,1.2048.3208.887.4833,1.9976.156,2.4809-.7321.4833-.8878.1554-1.9999-.7316-2.4832-.9336-.5089-1.9276-.7669-2.9541-.7669-4.212,0-7.5117,4.2633-7.5117,9.7058s3.2998,9.7063,7.5117,9.7063Z"/>
    <path class="cls-1" d="M115.428,80.3641c.2278.0142.4536.021.6776.021,2.5564,0,4.8672-.9056,6.4162-2.5343.6964-.7322.668-1.8909-.0635-2.5878-.7316-.697-1.8888-.6687-2.5856.0636-.9386.9871-2.4786,1.4932-4.2197,1.3838-2.0049-.1241-3.8658-1.032-4.8566-2.3706-.6017-.8123-1.7471-.9834-2.5582-.3812-.8115.6018-.9821,1.7482-.3809,2.5605,1.641,2.2162,4.4712,3.6536,7.5707,3.845Z"/>
    <path class="cls-1" d="M73.7241,21.9592c6.7628-2.4291,13.826-3.6106,20.7955-3.6106,13.5279,0,26.6946,4.4554,36.5656,12.8908,8.183,6.9931,12.4809,23.114,16.638,38.7045,3.3145,12.4305,6.7413,25.2845,12.2298,33.5885,4.4108,6.6737,10.6638,12.8425,17.284,19.3729,12.8325,12.659,26.1021,25.7485,27.097,43.8249.5825,10.5863-2.8005,20.3027-9.7832,28.0988-10.9606,12.2366-29.8733,19.414-54.6937,20.7562-7.9607.4297-15.5223.0851-22.6596-1.0095,3.7213-.5437,7.5136-1.6031,10.9336-3.4487,8.011-4.3237,13.2426-15.2285,15.793-21.844.118.4302.2336.859.3475,1.2814,1.267,4.7049,2.3607,8.7678,5.1292,10.0875,3.1923,1.5212,6.1208.6324,8.7051-.1515,1.4325-.4347,2.7909-.8448,4.0455-.81,1.6158.0453,2.9386.5309,4.4698,1.0933,2.0831.7647,4.4438,1.6319,8.0239,1.6319,4.0121,0,9.7814-1.123,12.8379-4.2884,1.3913-1.4411,2.0927-3.1901,2.0291-5.0582-.0476-1.3811-.6333-2.6117-1.6945-3.559-.7403-.6608-1.684-1.1464-2.7095-1.5029,6.8785-3.1489,12.4868-7.7412,13.4968-9.7589,1.0416-2.0804.69-3.8729-.0278-5.1502,1.1051-1.1244,2.362-2.9133,2.2308-5.1579-.1239-2.1321-1.3273-3.6295-2.5596-4.5493.4097-1.1724.7466-2.7741.2995-4.2399-.3543-1.1615-1.1348-2.0703-2.2578-2.6277-2.881-1.4301-6.7203.7358-11.5806,3.4775-4.4845,2.5302-9.567,5.3982-12.9957,4.6102-.3493-.0801-.6707-.2508-.9744-.4828,2.7049-1.5733,7.1268-4.827,8.1917-9.7434.8353-3.8555-.2035-6.8823-1.2222-8.7426-.6621-1.2091-.7513-2.5888-.2451-3.7859,2.2715-5.3726,2.0584-10.1846-.5994-13.5505-2.6254-3.3242-6.9141-4.633-12.4013-3.7845-1.4251.221-2.8142-.227-3.7163-1.1953-1.8554-1.9907-4.1776-3.2904-6.7157-3.7594-3.1425-.5798-5.852.302-7.7907,1.3432-.1481-5.2673-.9999-9.7626-1.7808-11.4412-2.0598-4.4252-9.0581-9.9598-15.3285-8.5567-4.2581.9513-5.889,4.3589-6.3188,6.9326-2.0626.4805-4.489,1.8113-4.623,4.7415-.1038,2.2685,1.6053,4.6124,5.2252,7.166.8952.6315,1.4937,1.6154,1.641,2.6991.5053,3.7104.2602,6.6036-.6561,7.739-.2574.3189-.5523.4691-.9872.5024-1.4914.1126-5.5059-4.1379-8.4372-7.2428-4.029-4.2674-8.8157-9.3348-13.954-12.1135l.4828-3.2511c1.3154.2989,2.6981.4692,4.153.4692,12.233,0,16.6626-10.4555,17.909-14.457,3.2102-.0576,7.4601-1.1811,8.3503-5.1647.6763-3.0253-.2336-5.4829-1.1143-7.8593-.5852-1.5806-1.1906-3.2149-1.352-5.0934-.1184-1.3793.2053-3.6515.5802-6.2819.865-6.0732,2.0497-14.3901-.6859-21.8197-6.5945-17.9075-20.8398-26.3475-42.3349-25.0827-12.9171.7597-22.5627,5.556-28.668,14.2555-5.5713,7.938-6.8524,17.2403-6.9466,23.6457-.1152,7.8662,2.3359,14.8103,4.3057,20.3896,1.5742,4.4582,2.9336,8.3088,2.5701,11.2412-.2707,2.183-1.3909,4.1476-2.8087,6.6348-2.8275,4.9589-6.7002,11.7509-6.3317,25.3897.2693,9.9699,5.5759,30.0544,14.879,47.6392,6.2196,11.7565,15.6823,25.2854,28.0727,30.5389-1.3374.9034-2.3689,1.8319-3.0707,2.5403-13.0602-7.3472-23.7935-18.4228-31.9047-32.9653-12.1795-21.8362-21.4708-70.2488-15.1972-99.9402,6.2525-29.5921,12.0552-43.1082,31.815-50.2056ZM102.8502,204.7806c20.1174,0,30.8202-13.6534,37.9382-23.6192.4655.6965.882,1.5028,1.2583,2.3847-1.0233,3.2885-6.4327,19.3824-15.6522,24.3587-9.3932,5.0696-22.3382,3.4812-26.3965,2.2529-2.6021-.9689-5.1301-2.0594-7.5776-3.2775,1.0297-.907,2.5362-2.0044,4.4474-2.787,1.9322.4458,3.9262.6874,5.9823.6874ZM176.7816,190.7872c2.0882-.1666,6.9366-.0311,8.5999,1.4543.3192.2847.4604.5697.4737.9523.0297.8768-.2986,1.6584-1.0036,2.3888-1.8028,1.8676-6.0006,3.1718-10.2076,3.1718-2.9304,0-4.879-.7157-6.7637-1.4077-1.6785-.6164-3.4146-1.2539-5.6275-1.3157-1.8522-.054-3.5599.4654-5.2092.9661-2.2312.6769-4.1589,1.2617-6.0706.3501-1.2478-.5949-2.314-4.5538-3.1704-7.7348-.5957-2.2122-1.2313-4.5598-2.0762-6.7152-.0078-.0243-.0192-.0472-.0279-.0709-.7114-1.8013-1.5728-3.4629-2.6876-4.7891,2.6537-3.7068,5.1173-6.8887,6.9631-7.0754,2.7557-.281,4.0959,2.3628,6.2251,7.0557,2.2377,4.9309,5.0221,11.0682,11.7671,12.7427,1.3525.3359,2.7585.4878,4.1941.4878,1.4947,0,3.0195-.1679,4.5457-.4622.0261-.0014.0503.0036.0755.0014ZM144.5171,135.1853c.6255-.6475,2.7772-2.5728,6.1748-2.4977,2.4164.0531,3.2125.8663,4.3144,1.9916.8495.8677,1.8129,1.8515,3.4516,2.43,2.0731.7317,4.1407.0188,5.8013-.5542,1.3872-.4782,2.3218-.767,2.6533-.4315.2579.2608-.2098,1.1821-.8477,2.3591-.7988,1.474-1.7041,3.1444-1.5249,5.033.1939,2.0456,1.3205,3.305,2.2258,4.3168.936,1.0462,1.2565,1.4855,1.1801,2.3047-.0933,1.0017-.9945,2.0122-1.9276,2.7901-1.9743-6.0009-4.9188-12.3308-12.421-13.8158-3.0552-.6045-6.8771-.2645-11.2217.9395.8472-1.4416,1.5665-3.0611,2.1416-4.8655ZM115.4564,154.4172c-.3466-.7208-.7517-1.5614-1.1577-2.4025-.3205-.6636-.6411-1.3258-.9355-1.9303,3.2312-.1524,6.3746-.3794,9.294-.7033-2.4795,1.5843-4.8909,3.2729-7.2008,5.0362ZM153.3671,123.1666c1.7864.3299,3.3693,1.2237,4.7044,2.6566,1.7292,1.8557,4.3276,2.7197,6.9498,2.316,2.8659-.4425,6.7491-.3798,8.973,2.4369,2.2966,2.9082,1.3223,6.9637.1006,9.8537-.9446,2.2346-.7969,4.7758.406,6.9725,1.0457,1.9097,1.3337,3.9983.855,6.2072-.7933,3.6629-4.5096,6.248-6.6485,7.4616-.5523-1.2946-1.0425-2.8323-1.5326-4.4326,1.6217-1.1056,4.1434-3.2647,4.4131-6.1615.2309-2.4835-1.1147-3.9878-2.0973-5.0865-.7851-.8773-1.2327-1.4132-1.3095-2.2209-.0736-.7775.5226-1.8776,1.0987-2.9412.9638-1.7788,2.4205-4.4669.2318-6.6804-1.9739-1.9962-4.5581-1.1056-6.4446-.454-1.24.4279-2.5216.8709-3.394.5624-.8371-.2956-1.3744-.8443-2.0552-1.5394-1.3099-1.3381-2.9409-3.0034-6.8465-3.089-2.004-.0421-3.6925.3949-5.0665.9939.1632-1.0466.2963-2.1298.3887-3.2588.0393-.4787.0708-.9569.096-1.4338,1.0744-.881,3.8434-2.7778,7.1774-2.1628ZM59.1501,79.8667c-1.9702-5.5803-4.2033-11.9052-4.0972-19.1161.1431-9.7525,3.5645-32.6179,32.1717-34.3002,19.9794-1.1752,32.6326,6.2485,38.6881,22.6939,2.4169,6.562,1.3072,14.3499.497,20.0369-.4229,2.9699-.7571,5.3158-.6031,7.1115.2035,2.3728.9277,4.3282,1.5664,6.053.7906,2.1335,1.4147,3.8189.9744,5.7872-.588,2.6314-5.943,2.2671-5.9924,2.263-.9314-.0883-1.785.5486-1.9679,1.4699-.1051.5322-2.72,13.0273-14.73,13.0273-12.3395,0-19.2235-15.3494-19.2911-15.5022-.4047-.9263-1.4828-1.3496-2.4083-.9441-.9254.405-1.3479,1.484-.9432,2.4103.2552.5843,5.2636,11.7899,14.965,16.0605l-.4362,2.9362c-.4119-.1254-.8257-.2339-1.2409-.3213-1.4457-.3053-2.8668-.4292-4.2517-.4183l-11.239-2.2615c-.989-.1995-1.9542.4425-2.1536,1.4337-.1994.9913.4421,1.9563,1.4325,2.1554l2.9646.5967c-5.7294,2.3573-9.6447,6.0654-9.9103,6.3218-.7275.701-.7494,1.8598-.0489,2.5883.7005.728,1.8581.7505,2.5861.0489.0942-.0911,9.5454-9.061,19.8659-6.8827,5.7916,1.2223,11.8782,7.6694,16.7687,12.8498,4.7286,5.0083,8.1454,8.6217,11.3762,8.3787,1.4352-.1103,2.6638-.7515,3.5527-1.8529,1.6286-2.0186,2.111-5.5625,1.4343-10.5338-.2844-2.0876-1.4357-3.9818-3.158-5.1972-3.6363-2.5651-3.6852-3.8665-3.6788-4.0066.0599-1.3111,2.71-1.4707,2.7278-1.4717.4865-.0137.9473-.2215,1.2807-.5762.3334-.3551.5117-.8288.4952-1.3157-.0055-.1661-.0951-4.0839,3.581-4.9053,4.0908-.9135,9.7118,3.2981,11.2161,6.5298.7417,1.5935,1.6712,7.1592,1.443,13.2923-.0073.081-.0133.1615-.0096.243-.1294,3.0721-.5532,6.2741-1.4379,9.1828-.0096.0315-.0206.0627-.0284.0942-1.2318,3.9956-3.3432,7.4228-6.771,9.1769-.3233.1446-.6479.2933-.9744.4453-4.7103,1.9298-13.4616,2.7874-22.735,3.0926-.0722-.0032-.1477-.0036-.2272-.0004-.0247.0009-.0471.0078-.0713.0096-16.2415.514-33.9504-.6393-34.2361-.6585-1.0105-.0622-1.8792.6961-1.9469,1.7047-.0672,1.0086.6955,1.8809,1.7032,1.9486.9428.0631,12.3451.8059,25.2155.8054,2.7287,0,5.5233-.0343,8.2982-.1144.5976,1.2132,1.651,3.392,2.6313,5.4284-5.8095.6883-10.8655,2.517-15.3874,5.5598-.8381.5638-1.0607,1.7015-.497,2.5403.353.5253.9309.8095,1.5193.8095.3512,0,.7055-.1011,1.0192-.3117,3.078-2.0712,6.4505-3.5095,10.2021-4.3516-4.9774,4.5163-9.1697,9.2748-12.0991,13.8387-.5459.8503-.2995,1.9829.5501,2.5293.8495.5464,1.9811.3001,2.527-.5505,11.1211-17.3249,40.3766-35.5331,53.0577-33.0248,6.3902,1.2649,8.481,7.4547,10.3653,13.6185,0,.0009.0005.0014.0005.0023.0668.2179.133.4357.1994.6531.8267,2.7146,1.6332,5.346,2.8151,7.3971.0375.0732.0786.1428.1244.2087,1.0868,1.8076,2.4868,3.1343,4.5018,3.5969,4.809,1.1061,10.5472-2.1325,15.6101-4.9891,2.7923-1.5751,7.012-3.9571,8.1591-3.3869.252.125.3334.2508.3837.4133.2373.7688-.2954,2.274-.727,3.0441-.2638.4631-.3036,1.0223-.1244,1.5248.1792.5025.5774.9052,1.0749,1.0965.0732.0284,1.7937.7084,1.8847,2.2712.0978,1.6763-2.1078,3.1622-2.1224,3.1718-.5117.3259-.8413.8755-.8587,1.4818-.0174.6068.2538,1.1729.7458,1.528.3351.2618,1.047,1.0077.4138,2.2717-.9483,1.8318-10.0722,8.7452-18.9862,10.557-.086.0137-.1719.0279-.2529.0531-2.5006.481-4.9783.5533-7.2474-.0101-5.0272-1.2484-7.2082-6.0544-9.3174-10.703-2.1732-4.7891-4.4232-9.7406-9.9231-9.1846-3.7538.3794-6.6613,4.4797-10.6853,10.1544-7.0761,9.979-16.7664,23.6461-36.0713,23.6461-16.7847,0-29.5139-19.323-35.6073-30.841-9.043-17.0929-14.1968-36.4707-14.4552-46.0251-.3411-12.6145,3.0927-18.6373,5.852-23.4759,1.5569-2.7302,2.9011-5.0883,3.2619-7.9988.4686-3.7897-1.0242-8.0172-2.7525-12.9125ZM38.896,125.4012c3.1617,19.3742,8.6351,37.0474,15.0166,48.4885,8.7055,15.6079,20.3374,27.4065,34.5707,35.0791.0261.015.0521.0307.0786.0439.0499.0266.0979.0558.1477.0828,3.0794,1.6474,6.2841,3.0935,9.6022,4.3484.037.0156.0695.037.1079.0504.0375.0128.0818.0265.1212.0393,10.4536,3.9187,22.0615,5.8947,34.6869,5.8947,2.2436,0,4.5201-.0622,6.8268-.1872,25.8108-1.3962,45.5972-8.9924,57.2198-21.9685,7.6453-8.5352,11.3492-19.1664,10.7123-30.744-1.0726-19.4886-15.4748-33.6962-28.1815-46.2306-6.4802-6.3926-12.6011-12.4305-16.8012-18.7852-5.1589-7.8058-8.5076-20.3658-11.7461-32.5127-4.3011-16.1315-8.7481-32.8121-17.797-40.5446-15.937-13.619-39.8699-17.5217-60.9718-9.942-21.2792,7.6425-27.7357,22.4943-34.1588,52.8937-3.0003,14.1993-2.7996,33.3744.5656,53.9938Z"/>
    <path class="cls-1" d="M104.4368,232.7115c-44.541-6.3221-65.9926-45.5309-76.1448-77.31-8.124-25.43-10.8769-69.5807,7.3883-105.0716-1.8033,5.4521-3.4278,11.5927-4.9444,18.5389-3.3995,15.5663-3.4278,36.0452-.08,57.6631,3.191,20.6052,9.0768,39.4586,16.1478,51.7253,19.107,33.1456,48.7228,49.9108,88.1049,49.9108,2.4946,0,5.029-.0673,7.6019-.2018,13.5261-.7079,25.5918-3.2537,35.9049-7.5074-21.4841,11.8897-49.485,15.7287-73.9785,12.2526ZM69.1236,15.4448c7.0956-3.1137,16.2049-4.7844,25.6489-4.7844,14.9265,0,30.688,4.1754,40.6422,13.4263,10.4874,9.7466,15.5923,26.5132,20.5294,42.7275,3.8338,12.5921,7.4555,24.4854,13.4387,33.2444,4.6504,6.8082,10.7008,13.0846,16.552,19.1537,12.5796,13.0493,25.5877,26.5425,26.7435,46.863.3708,6.5194-.5107,12.804-2.5861,18.6914-.0393.076-.08.1511-.1088.2339-.1962.5629-.4019,1.1194-.6136,1.6722-2.0863,5.1817-5.1187,10.033-9.0618,14.4354-12.3981,13.8428-32.4497,21.866-57.9879,23.2027-2.4919.1304-4.9399.1954-7.3554.1954-38.0141-.0018-66.5879-16.1516-84.9917-48.0781-13.3464-23.1505-22.8804-73.7331-15.664-106.7771,4.4287-20.279,9.5546-33.2092,17.4911-42.0878.2798-.2923.5551-.5875.8395-.8772.0737-.075.1349-.1569.1929-.2403,4.4557-4.6508,9.7719-8.1402,16.291-11.0009ZM216.3297,165.867c-1.2331-21.677-14.7203-35.6672-27.7631-49.1965-6.0107-6.2352-11.688-12.124-16.1647-18.6781-5.6673-8.296-9.209-19.9289-12.9591-32.245-5.078-16.6783-10.3297-33.9245-21.5394-44.3429-7.9562-7.3944-20.0237-12.3308-33.9809-13.9005-13.0583-1.4681-26.2767.2036-36.268,4.5877-6.9828,3.0643-12.7044,6.869-17.503,11.9277-.0398.0338-.0828.0617-.1198.0998-16.2186,16.5122-26.7266,39.4485-30.388,66.3296-3.0282,22.2339-1.1458,46.3148,5.1643,66.0679,10.4709,32.7768,32.697,73.2307,79.1154,79.8192,6.0344.8567,12.1891,1.2777,18.3461,1.2777,16.686,0,33.3788-3.0945,47.6702-9.0011,21.9532-9.073,36.994-23.7372,43.4967-42.4071.0292-.0837.0439-.1684.0603-.2531,2.2454-6.3747,3.2262-13.1724,2.833-20.0853Z"/>
  </g>
</svg>