<?xml version="1.0" encoding="UTF-8"?>
<svg id="Friends" xmlns="http://www.w3.org/2000/svg" viewBox="0 0 245.8275 319.1632">
  <defs>
    <style>
      

      @import url('../../CSS/SvgStyling.css');

      
    </style>
  </defs>
  
  <g class="content">

    <rect id="bg" class="bg" width="245.8275" height="319.1632"/>

    <path class="cls-1" d="M217.0937,87.4981c-1.5456-1.7996-11.1506-10.8753-12.6397-12.0539-1.482-1.1856-8.984-7.6501-9.8591-8.2147-.8681-.5575-5.8223-5.7799-7.8054-7.0785-1.9831-1.3056-4.8272-2.8018-7.6219-4.2344-2.7876-1.4326-7.5019-.8681-9.725-1.2209-2.2301-.3529-12.0257-3.3805-12.0257-3.3805-.487-.0565-.9527-.2047-1.3903-.4376-.5646-.3388-2.95-3.6698-3.1899-4.0086-.1341-.1694-.2964-.2964-.5011-.374l-.3952-1.0657c-.12-.494-.12-.988,0-1.482.1553-1.1856.2258-2.3713.2117-3.5639.2682.5716.7128.9245,1.3338,1.0657.9951.1905,1.3056-1.228,1.4326-2.9852.12-1.7573.367-2.3642.494-4.7849.12-2.4277-1.6161-2.0537-1.6161-2.0537-.0635-.4234-.0635-.8469,0-1.2703.4023-1.8702.4517-3.7404.1553-5.6247-.4658-2.6394-.7692-3.0135-.9598-3.4793-.1129-.4023-.1341-.8116-.0635-1.228-.0917-.4234-.2541-.8116-.494-1.1786-.1553-.7128-.4093-1.3832-.7692-2.0184-.614-.9598-2.9147-1.5879-3.938-1.7996-1.0304-.2188-1.2703-.3458-2.6677-1.4962-1.0445-.8963-2.2301-1.5244-3.5639-1.8914-.988-.2823-1.7926.494-3.4722.2752-2.2231-.2399-4.2838.2399-6.1752,1.4468-1.5667.8116-3.0135,1.8067-4.3332,2.9782-1.5456,1.3338-2.6959,2.0819-3.7474,6.154-.6704,2.5336-.8751,5.1024-.6069,7.7066,0,1.228.7763,1.9549,1.2985,3.0629s.127,2.5759.127,3.0629c0,.4799,0,.6069-.0635,1.7643-.0423.8257.0776,1.6232.367,2.3924.4376,1.0586.8116,2.1384,1.1292,3.2323.4023,1.5244,1.0445,1.842,1.4256,1.842.487-.1623.9386-.3952,1.3621-.6846.4376,1.3691.988,2.6959,1.6444,3.9733.861,1.5597,2.9994,2.5477,2.9994,2.5477,0,0-.0635.614-.1482.614-.0917,0-.0917.2752-.4376.5575-.3388.2823-2.6394,2.5124-2.6394,2.5124,0,0-.2399-.1835-.5505-.4587-.3105-.2823-.3105-.5293-.8681-.8398-.5575-.3176-2.1454,0-4.0932.4023s-1.5808,1.2209-1.8631,1.1221c-2.6959-.4023-5.413-.5858-8.1442-.5575-3.6204,0-4.6508.741-7.6854.9598s-5.8223-.9033-6.9091-1.9619c-1.0868-1.0515-3.811-.988-5.8929-1.4256-2.0819-.4305-5.3847.614-5.3847.614l.2188-.6563c.2117-.6493.8681-4.4602.8681-4.4602,0,0,.614.247,1.7432-.5787s1.3762-2.5477,1.6726-3.8533c.2894-1.3056,1.1786-3.6063.988-4.679s-.988-.5646-.9527-.8539c.494-2.0113.8116-4.0509.9527-6.1187.2964-3.6698-2.3148-6.9585-5.54-9.732-3.2181-2.7735-10.5436-2.4842-13.1972-2.5195-2.6465-.0282-4.8837,2.6536-4.8837,2.6536-2.0537,1.2491-3.7051,2.9076-4.9542,4.9684-2.2725,3.5639-.5646,8.4547-.5646,8.4547-.4446-.0282-.8681.0635-1.2703.2752-.5505.3458-.0565,1.3762.0353,2.71.0494,1.9972.3105,3.9662.7692,5.907.614,2.1384,2.8512,1.4891,2.8512,1.4891,0,0,.3458,4.0368.4728,4.9684s.4587,3.945.4587,3.945c-.1764.0494-.3317.1411-.4587.2752-.127.1905-.6069,2.336-.6846,2.3642-1.1927.7128-2.4277,1.3197-3.7192,1.8349-2.7382,1.1927-5.5329,2.216-8.3982,3.0629-3.7474,1.0304-7.3608,2.4065-10.84,4.1356-2.3854,1.2774-4.5731,2.83-6.5704,4.6578-.4023.2823-1.3974.9951-1.9831,3.1123-.5858,2.1101-4.2132,14.8486-4.312,15.1027-.0988.247-.1835.3388-.6775,1.5244-.494,1.1786-.2823,1.2209-.6069,2.5759-.2682.981-.5999,1.9478-.9951,2.8864-.3388.9316-.6775,1.7079-.8328,2.2372-.1553.5222,1.0515,2.6465,1.0515,2.6465-.1835.4376-.3952.861-.6493,1.2703-.3105.4376-.6846,1.6796-1.2703,3.4934-.4376,1.4256-1.1362,2.71-2.1031,3.8392-.614.6493-.5011,1.4962-.5364,2.703-.0282,1.2068.2541,1.2209.2541,1.9902-.0141.7057-.127,1.4044-.3458,2.0819-.1835.6069-.3105,1.3409-.6493,2.4489-.3458,1.108-.7198,1.4326-.7198,2.1172,0,.6775,1.2985,1.0868,2.0113,1.5244.7128.4305,1.0798.1835,1.0798.1835,0,0,1.9266,5.6529,2.7594,8.3629.8398,2.703,4.7708,9.1816,6.1046,11.1506,1.3409,1.969,5.0178,9.0122,5.4977,10.5366l1.475,4.8343s-.0423.8257-.0423,1.0798-.0776.7481-.0776.988c-.0917.8539-.2329,1.6938-.4164,2.5336-.12.4587-.4517.8681-.6987,1.4891-.2541.6281-.0847,5.0954-.4164,7.4949-.3388,2.3995-.6634,3.818-.8257,3.9803-.2894.3599-.4728.7692-.5364,1.2209,0,.374.6563,1.0798.6069,1.7008-.0423.614-.247.7057-.247.7057,0,0-.8681,14.7427-.6563,17.5233.2047,2.7806,1.2209,8.4123,1.2209,8.5676,0,.1623-.614.741-.6634,1.228-.0494.4799,0,4.2203,0,5.4271,0,1.1997,2.0184,2.0749,2.0184,2.8159,0,.7481-.3599.4587-1.0727,1.4891-.7057,1.0374.1694,6.1258.1694,6.1258,0,0-.367.2823-.9033.7904-.5434.5011-.2541,1.0657-.2541,1.7361.1482.8045.3952,1.5808.7481,2.3219-.3599.2399-.5787.5716-.6634.988-.0847.614.8257,1.9478.8257,2.1595,0,.2047-.2047.367-.5364,1.0304-.1905.5787-.2823,1.1715-.2894,1.7855-.0847.2047-.2894.4164-.5364.9104-.127.4376-.1059.8681.0776,1.2844-.494,2.336-.7692,4.6931-.8045,7.0856,0,3.5428,1.6726,17.4598,1.6726,19.0759s-.2399,3.2958-.2399,5.9634c0,2.6747,1.7714,10.8824,1.7714,10.8824-.2964.4234-.5293.8751-.7057,1.3621-.367.9598-.0353,3.2746,0,3.938s.5011,1.1645.4587,1.3268c-.0423.1694-3.1405,3.5992-4.0509,5.2154s-4.559,5.2154-8.123,7.9959-2.5124,4.3826-2.5124,4.3826c0,0-.2117.0917-.4587.614-.2541.5222.1835,3.444.1835,3.444,0,0-.247,1.3762,7.4384,1.228s10.9106-3.3946,12.1174-4.8484c1.1151-1.3338,2.5053-2.216,4.185-2.6465,1.5808-.4658,6.9726-2.6394,7.6219-3.9098.6563-1.2774-.1482-4.7778-.1482-4.9825-.2752-.8539-.4728-1.722-.5787-2.6112v-2.1101s.2117-2.9429.2541-3.2323c.0282-.6634.1411-1.3127.3246-1.9478.4023-.8328.6563-1.7008.7834-2.6112,0-.7834-.4164-10.0285-.3317-11.5599.0776-1.5314.0917-4.6437.2541-5.5118s.7057-15.9143.7057-15.9143c0,0-.12-10.9106-.12-11.1929-.0353-.9104-.1623-1.8137-.374-2.6959-.2752-.7763-.4305-1.5738-.4658-2.3995.0635-.3105,1.5526-.4305,2.3924-1.7573.8328-1.3338.4023-4.4532.4023-4.4532.1835-.367.4164-.6987.7128-.9951.5222-.5575.6493-5.7729.6493-5.7729,0,0,.494-11.814,3.3522-18.589,2.8512-6.775,5.1377-18.0809,5.293-19.3018.1623-1.228,2.1101-1.0233,2.1101-1.0233,0,0,.1835,2.1454-.2188,3.1052s-.0635,2.1807.4305,3.1123c.494.9245,1.1786,2.4489,1.5526,5.7164s1.482,11.1223,1.9196,14.6016c.4446,3.4863.6775,15.6602.9316,16.2177.247.5575,1.7361,3.4793,1.4397,3.6769s.0494,1.0515,0,1.4891c-.0494.4446,1.0374,1.228,1.0374,1.228,0,0-1.4256,3.9168-.9245,12.929.3105,5.3495,1.3621,10.5507,3.1546,15.5967,0,.2541-.247.5011-.5575,1.228s.4376,2.7312.374,4.2838-.4023,9.351-.4023,9.351c0,0-.2541,1.4326-.5293,2.4489s1.2209,2.5406,1.2703,2.7947-.1905.614-.7128,1.5526c-.5222.9457.2188,1.7996.4376,2.1737.2117.374,0,.8398-.0917,1.2774-.0917.4305-.127.8045-.1905,1.1503-.1482.8539-.367,1.6938-.6493,2.5124-.3035,1.1645-.4799,2.343-.5293,3.5498-.1411.0706-.2682.1623-.3811.2752-.1905.1905,0,3.1546,0,3.1546.5011.4587,1.0374.8681,1.6161,1.228,1.3974.9527,6.775,1.2844,9.5838,2.2019s6.7115,3.7616,8.5464,4.058c7.389,1.6091,13.67-.6634,14.4534-1.3268s.9104-1.6938.8751-3.2746-.7904-1.5314-.7904-1.5314c0,0-3.8462-1.8349-9.4992-6.5421-4.0509-2.6183-8.2641-7.756-8.2641-7.756,0,0-.127-2.9782.0776-3.6063.2117-.621.127-2.1525.2964-2.9358.1623-.7834-.7904-1.3268-1.2209-2.2795-.4376-.9457,1.0727-3.3169,1.0727-4.2838s1.5244-16.6906,1.6091-24.3125c.1059-3.5992.0071-7.1914-.2894-10.7765,0,0,.494-1.7784.247-2.1525-.4093-.5505-.7692-1.1292-1.0727-1.7432-.12-.4093.12-.6069.494-1.2209s-.374-1.0798-.5716-1.2844c-.3176-.5293-.5222-1.0939-.614-1.7008,0-.4164.8539-1.7432.8539-2.3148-.1482-.7692-.4023-1.5032-.7481-2.2019-.247-.6634,0,0,.2894-1.3268.2964-1.3268-.367-6.0481-.367-6.0481,1.4891-1.1856,1.5526-5.4059,1.5032-9.8732,1.4468-6.2316,2.8935-16.4718,4.3614-28.6598,1.2844-.0141,2.4136-.4376,3.3875-1.2774,1.5667-1.3691,3.5922-4.1003,4.7072-5.0601,1.1151-.9527,3.2252-1.2209,4.3826-2.6042,1.1645-1.3832,2.7453-5.7799,3.0558-7.2761.3035-1.4891.7128-5.7447.7128-5.7447h.4305l1.0868-3.9168,1.8349-.9669v3.2958l8.737.4376.127,1.8631-.6846.8257c.0141.4023.12.7763.3317,1.1221.3317.494.1623,1.3691.1623,1.8349,0,.4728-.5293,1.0021-.8257,1.3762-.2894.374-.374,3.1405-.494,3.6063-.1764.5787-.2894,1.1715-.3317,1.7784-.0212.9669-.1411,1.9125-.3599,2.8512-.1694.2964-.1341,2.0325-.2188,2.2019-.1905.5222-.3458,1.0657-.4517,1.6161-.0423.374-1.8631,10.0285-1.8631,10.0285-.3882,1.0445-.5646,2.1313-.5364,3.2464-.0565,2.3007.4376,15.1027.7481,22.654.3105,7.5443,1.0586,19.1395,1.0586,19.45,0,.3176,1.729,3.2323,1.729,3.7898.0494.4446.1905.8539.4376,1.228,0,0,.3035,4.1285.861,5.7447.5646,1.6161.7481,2.1101.7481,2.1101,0,0,.247,2.2301.5575,4.0368s3.2181,11.9974,3.2181,11.9974c0,0,1.4609,5.3424,2.2301,6.9585s.6563,4.4108.2188,5.2506c-.4305.8398-.2752.8398-.3388,1.8349-.0635,1.0021.8328,2.0537.8328,2.3995,0,.3388.2541,4.4108.614,5.2224.0706.2258.2047.4023.4023.5364s.4093.1976.6493.1835c0,0-.7834,2.8582-1.3621,3.6698-.5293.6916-.9386,1.4397-1.2209,2.2654-.4799,1.2209-.6846,3.5992-1.2844,4.6367-.7057,1.2562-1.5879,2.3713-2.6394,3.3522-1.8914,1.6514-3.6486,3.4299-5.293,5.3283-.6493.9033-.9739,1.9125-.988,3.0276-.0706.2329-.1129.4728-.127.7198-.0353.5364,0,2.096,0,2.096,7.2902,1.7079,18.6737-.6634,19.6335-4.8978.9951-1.1645,2.0607-2.3077,4.0862-2.4489,2.5618-.0988,4.8978-.8681,7.015-2.3148v-4.1638c0-.247-.12-.367-.3599-.3599v-2.9994c.0071-.4093-.0988-.7834-.3105-1.1292-1.2844-2.0043-1.5808-5.42-1.8631-8.8781.3176.1623.614.1341.8963-.0917.494-.3317,0-1.0233,0-1.4891.0071-.4587-.0706-.9033-.2188-1.3338-.1482-.3458-.2611-.6987-.3458-1.0586-.0353-.5293-.0141-1.0586.0706-1.5808.0565-.5011.1835-.3458.2752-.614s-.3176-1.4115-.2752-1.8349c.0423-.4305.4517-2.9076.5716-4.7708.12-1.8702-1.2209-7.3467-1.4044-8.2006-.1835-.861-1.8984-9.1533-2.1878-9.7391-.2964-.5787-1.3197-5.7164-1.5738-6.9585-.247-1.2421-.741-3.2746-.8681-3.811-.12-.5293-.2399-1.7784-.3246-2.3219-.0917-.621-.2682-1.2139-.5364-1.7784-.5293-1.1927-.8681-2.4348-1.0374-3.7263,0-.9527,0-2.4912.2188-2.9006.4799-.8328.734-1.7361.7763-2.6959,0-1.2209-.614-2.4489-.7481-3.0629-.1341-.6069.127-2.3571.3317-3.9309.1976-1.5738,2.4418-3.7333,3.1829-5.8082.7481-2.0749.741-7.4102.9457-8.6946.2117-1.2915.7904-1.7432,1.1645-2.9429s2.5548-9.6121,2.5548-9.6121c.2823.614.5999,1.2068.9527,1.7855.3317.4517,1.6938,5.053,1.8631,7.6995s.4517,14.6298.4093,15.7025.1623,7.629.5364,9.3651c.3599,1.2844.9951,2.4207,1.8984,3.4016.2682.6775.4446,1.3832.5364,2.1101,0,.2541.5434.5787,1.4115,1.4538.8681.8681.247,1.4468.247,1.8631-.1905.8681-.4658,1.7079-.8257,2.5265-.4587,1.2209-.1623,14.2487-.0423,15.8225s-.0423,16.4506-.0423,17.481c0,1.0374-.127,2.8582-.127,2.8582,0,0-.3246.6704-.6563,1.4115s-.374,3.1123-.374,3.1123c0,0-.0847.367-.247,1.6161-.1694,1.2421,2.2725,1.2209,2.2725,1.2209,0,0,.247,7.2902.247,9.6121s-.9104,7.5443-1.8631,9.5768-.1976,7.7419-.1976,7.7419c2.4912,4.5167,14.7427,1.8349,17.6998-2.2372.1482-.2117.2329-.4376.247-.6916.0494-.8892.127-3.2534-.2329-4.4461-.4587-1.4891-1.6514-8.9487-1.9408-9.9861-.2894-1.0445-.494-10.0214-.494-10.0214h.367c.374,0,.861-.5858,1.0445-1.3621s1.4538-1.7996,2.3571-3.3805c.8963-1.5879-.3458-4.5379-.4376-4.6296-.2823-.6422-.4234-1.3197-.4305-2.0184,0-.9033.6069-2.8018,1.3268-6.1893.7198-3.3805.9951-13.4654.8681-16.0978s-.2399-7.6713-.4023-9.852c-.1553-2.1737.2611-2.8723.2611-3.8674,0-.988-.9527-2.3219-.9527-2.3219-.0141-.7834-.1976-1.5314-.5364-2.2372-.5364-1.0374-.7834-2.2372-.9527-4.185-.1623-1.9408-.3246-4.1568-.3246-4.1568l1.7361-2.0537c.4234-3.3946-.0917-7.3043-1.1151-11.4964.9104-2.4489,1.4397-6.8738,1.6867-12.7808,4.926-4.8202,2.9006-20.8756,1.9408-35.2302,1.2209-1.8349,6.0058-1.9266,6.7468-3.4228.7481-1.4891,3.6628-4.2485,3.6628-4.2485l-5.1024-4.8484c2.6465-1.3127,4.432-3.4793,5.7305-6.1258,6.775-6.9656,13.6136-13.8324,18.4055-23.6773.367.0706.741.0706,1.108,0,1.1715-.7834,2.2866-1.6302,3.3522-2.5477.494-.4376.4376-1.1151.614-1.4256s1.1151-.2541,1.6091-.8116.12-2.8582.0635-3.4793c-.0635-.6281.367-.6846.9316-3.0629s-2.8794-7.135-4.4391-8.9416ZM109.039,151.5927s-1.7361,1.5314-3.1405,1.4468c-1.1503-.12-2.2795-.3388-3.3875-.6634,0,0,2.2725-1.7855,2.6888-3.1899.4164-1.4115-1.2844-4.1356-1.7361-5.0601-.4517-.9175-1.2209-4.552-1.6091-6.2881-.3952-1.7432-.7481-2.7735-.374-3.6063.5152-1.7855.734-3.6133.6563-5.4694-.0917-.9386-.2399-1.8631-.4517-2.7806-.3035-.9739-.5081-1.9619-.6069-2.9782-.0847-1.2844-.4164-1.7855-.494-2.8159-.0776-1.0374-.9951.7481-.0847-2.4489s.9527-3.6063.9951-4.8484-.4587-4.926-.3317-6.6762c.127-1.7432.3317-4.5096.3317-4.5096l1.5667,3.2675s1.3197,1.9055,2.2725,3.3169c.4376.7128.988,1.3268,1.6514,1.842,0,0-.1694,3.811.614,4.3473.7763.5434,2.2231.1694,2.3924.4587.3317.5575.5787,1.1503.741,1.7784-.1694.4728-.127.9316.127,1.3691.3176.3529.6634.6846,1.0304.9951.3388.3105.7198.5646,1.1362.7622-.4446,13.2889-1.0515,25.9568-3.9733,31.7509h-.0141ZM186.9025,126.3981c-4.5237-1.0233-5.5823,0-5.5823,0-.2188-1.0445-.2964-2.1031-.247-3.1687.127-1.4256,1.5173-7.5513,2.2936-10.9036s2.2301-11.1223,2.7594-14.2346c.5222-3.1052,1.0868-8.3841,1.0868-8.3841,0,0,0-1.228.2399-1.228.8892.1623,1.6514.5716,2.2725,1.228.6846.8681,5.046,4.1285,5.2648,4.312.3105.3811.5999.7692.8681,1.1856.0706.5575.0988,1.1151.0917,1.6726-.0353.7834,1.3903,1.1221,2.2936,1.4326.9033.3176.494.6846.4305.9669-.0282.1623-.1059.3105-.2188.4305-.0988.2823-.12.5787-.0635.8681.1764.4305.2894.8751.3458,1.3338,0,.4376-.1905.4093-.4728.6916-.2752.2823-.2117,2.1737-.1482,3.0135.0565.8469,1.1786.3882,1.1786.3882-2.6394,9.2027-6.9656,15.6673-12.3785,20.3957h-.0141Z"/>
  </g>
</svg>