<?xml version="1.0" encoding="UTF-8"?>
<svg id="Hafsah" xmlns="http://www.w3.org/2000/svg" width="451.5707" height="237.9843" viewBox="0 0 451.5707 237.9843">
  <defs>
    <style>
      .cls-1 {
        fill: #000;
      }

      .cls-1, .cls-2 {
        stroke-width: 0px;
      }

      .cls-2 {
        fill: #007f44;
      }
    </style>
  </defs>
  <rect id="bg" class="cls-2" width="451.5707" height="237.9843"/>
  <g id="content">
    <path class="cls-1" d="M433.7914,161.006c.1142.4074-.1061.7062-.254,1.0219-1.8216,3.8894-3.6443,7.7782-5.467,11.667-.0857.183-.1657.369-.2603.5473-.7947,1.4978-.791,1.4629-2.4319,1.2489-7.9378-1.0352-15.8537-2.2637-23.8901-2.3399-4.964-.0471-9.9032.2515-14.7651,1.1872-3.2218.62-6.457,1.2487-9.5699,2.413-4.2565,1.592-8.606,2.9333-12.8832,4.4723-4.5597,1.6408-9.0477,3.4852-13.6296,5.0584-4.3522,1.4943-8.5888,3.2768-12.8511,4.983-5.8938,2.3593-11.8999,4.3773-17.877,6.4949-5.6608,2.0055-11.4079,3.696-17.3259,4.574-4.712.6991-9.4855.3838-13.9836-1.4621-2.6098-1.071-4.7084-2.9229-6.5914-4.9993-2.1701-2.393-3.6828-5.183-4.8312-8.1814-.8465-2.2101-1.5972-4.4533-2.1583-6.7538-.1474-.6045-.3822-.7152-.9493-.4559-1.838.8404-3.682,1.6711-5.5485,2.4456-4.7914,1.9879-9.6262,3.8549-14.5193,5.5905-6.0853,2.1584-12.2142,4.1634-18.3971,6.0148-6.2295,1.8653-12.5948,3.1585-18.9307,4.5863-11.0417,2.4883-22.2202,3.7922-33.5235,4.0823-3.2982.0847-6.5554-.428-9.8166-.8433-1.5695-.1999-3.1934-.1817-4.7042-.5897-2.9275-.7905-5.9022-1.462-8.6916-2.7144-2.0117-.9032-3.9513-1.9308-5.8002-3.1348-1.1138-.7253-1.1368-.715-1.9208.3011-.9897,1.2827-2.0051,2.5427-3.1612,3.6804-.5058.4977-1.0414.9711-1.7969,1.0491-.472.0487-.7649-.1027-.8081-.6403-.0725-.9022-.0012-1.7973.3836-2.6032.8227-1.7227,1.7051-3.4179,2.5982-5.1057.308-.5822.4094-.9633-.1178-1.5763-1.3589-1.5798-2.184-3.5091-3.1275-5.3536-.1818-.3554-.2819-.7626-.7319-1.0965-1.3316,1.2537-2.5989,2.589-3.7766,4.0229-2.9838,3.6329-5.7497,7.457-9.172,10.7107-3.9186,3.7256-8.4836,6.2069-13.8127,7.3577-4.398.9497-8.73.9828-13.0259-.3355-2.0399-.626-3.9562-1.4741-5.7151-2.8282-4.0441-3.1134-7.2779-6.8376-9.6435-11.3481-1.9903-3.7948-4.0863-7.5339-5.9457-11.3977-.3679-.7645-.8045-1.5058-1.2894-2.2021-1.0123-1.4535-2.2358-1.8278-3.9444-1.3269-1.4236.4174-2.7033,1.1787-3.8247,2.0622-2.4729,1.9485-4.755,4.1289-6.9435,6.4018-2.2671,2.3546-4.0048,5.0737-5.5031,7.9493-2.8336,5.4386-5.0603,11.1554-7.6017,16.7282-1.9531,4.2828-4.0283,8.4998-7.1287,12.1155-1.3924,1.6239-2.8851,3.1039-4.7818,4.152-2.6338,1.4555-5.4187,1.392-7.7985-.0981-2.2658-1.4188-4.3633-3.2416-5.9535-5.5171-2.2785-3.2605-4.0176-6.7994-5.2575-10.5538-3.8022-11.5133-4.9686-23.2772-3.1074-35.3001.2588-1.6719.4103-3.3604.8053-5.0108.1633-.6822.4667-1.2505,1.1825-1.6624.292.4885.1831.9466.1653,1.3689-.1282,3.0319-.294,6.0622-.4139,9.0943-.2368,5.9862.1375,11.933,1.2802,17.819,1.0409,5.3615,2.9479,10.3901,5.8851,15.0136,1.6261,2.5596,4.0334,4.0837,6.8676,4.8328,1.0252.2709,2.2852.2091,3.352-.3494,1.0232-.5357,1.9893-1.1407,2.8708-1.9139,4.0681-3.5683,6.6954-8.1302,9.0304-12.9039,1.848-3.7779,3.596-7.6021,5.3666-11.4162,2.2703-4.8906,5.0144-9.5364,8.3021-13.845,1.8286-2.3965,3.7696-4.6861,5.8625-6.8505,2.6244-2.714,5.6984-4.8269,8.9917-6.6281.595-.3254,1.3073-.4546,1.9794-.6169,1.3432-.3243,2.4799.0504,3.4342,1.0589,1.4349,1.5166,2.6053,3.2216,3.6537,5.0166,1.1744,2.0106,2.1402,4.1262,3.1529,6.22,2.6339,5.4455,6.123,10.2225,10.9984,13.9074,2.0907,1.5802,4.4171,2.5985,6.9605,3.1713,2.9346.6609,5.8999.5454,8.8391.1964,3.426-.4068,6.543-1.7534,9.4653-3.5755,3.287-2.0496,6.1559-4.5844,8.8164-7.3824,2.3391-2.4601,4.468-5.0904,6.55-7.7667,1.5205-1.9545,3.0415-3.925,4.9835-5.4957.9783-.7913,1.968-1.6075,3.2826-1.8023.8861-.1313,1.1289.0878.976.9716-.1652.9552-.4693,1.8798-1.1589,2.595-.7611.7894-.8165,1.6369-.4661,2.6308,1.0025,2.8441,2.6278,5.2631,4.8436,7.2944.3169.2905,1.0571.049,1.3189-.4949.9815-2.0392,2.3769-3.8039,3.6964-5.6153,2.8049-3.8507,5.6868-7.6438,8.7182-11.3205,1.8822-2.2828,3.8372-4.5022,5.7812-6.7323,6.2198-7.1353,13.2953-13.2567,21.1651-18.4764,2.0967-1.3907,4.3592-2.4626,6.6991-3.4436,2.4141-1.0122,4.9107-1.4269,7.4053-2.0238,2.6452-.6329,5.2631-.7529,7.9383-.5558,3.259.2402,6.286,1.2542,9.1546,2.7559,3.5496,1.8583,6.7686,4.2033,9.7812,6.8368,3.6174,3.1622,6.5855,6.8138,8.5659,11.231,1.2062,2.6902,1.2787,5.5092.8972,8.3337-.488,3.6129-1.6081,7.0666-3.0705,10.4066-1.0914,2.4926-2.0963,5.0267-3.6342,7.299-.1508.2228-.2838.538-.0296.966,2.2926-.6211,4.6237-1.2281,6.9406-1.8854,5.5965-1.5877,11.0434-3.6155,16.5078-5.5973,1.8998-.689,3.6722-1.6647,5.5888-2.2908.8025-.2621.9391-.7554.8033-1.5171-.3992-2.2397-.7268-4.4921-1.1238-6.7322-.4525-2.553-.5606-5.1244-.5212-7.7086.0745-4.8846.9389-9.637,2.4023-14.2867.5092-1.6179,1.36-3.0878,2.1336-4.5813,1.0454-2.0181,2.4036-3.8675,3.8402-5.6032,1.1614-1.4032,2.4253-2.8231,4.0232-3.7839,2.1872-1.3151,4.5004-1.29,6.8355-.3501,1.7856.7187,3.1728,1.9483,4.4071,3.3842,2.66,3.0944,4.2013,6.7526,5.4015,10.5948,1.5796,5.0568,1.4749,10.1617.5235,15.2995-.336,1.8141-.5909,3.6495-1.0425,5.4347-1.4103,5.5746-4.0357,10.3694-8.9754,13.6479-1.3476.8944-2.6669,1.8297-4.0473,2.6764-1.2182.7474-1.1707.7544-.6244,2.0173,2.3698,5.4786,6.825,8.217,12.4224,9.3629,4.3319.8869,8.6376.5293,12.9325-.4773,6.3974-1.4994,12.5987-3.612,18.8008-5.7419,8.0872-2.7773,16.0851-5.7989,24.0893-8.7994,5.117-1.9182,10.2554-3.8118,15.1576-6.2549.4734-.2359,1.1348-.0638,1.5042-.7736-2.0279-.5598-3.9189-1.4308-5.8992-2.0381-4.449-1.3644-8.9227-2.6481-13.3792-3.9881-2.9474-.8862-5.8783-1.8273-8.8244-2.7178-2.4162-.7303-4.8637-1.3639-7.2541-2.1687-.6675-.2248-1.0246-.1401-1.4168.326-.0325.0386-.0656.0773-.1028.1112-.8572.7799-1.5055,2.0504-2.5611,2.2728-.9789.2063-2.1374-.4251-3.2138-.6994-5.2687-1.3424-10.5798-2.4862-15.9544-3.3099-1.9423-.2976-3.9064-.4518-5.8601-.6755-.8005-.0917-1.5998-.1941-2.3595-.2868-.2221-.5985.1639-.9469.3386-1.3403,1.9077-4.2953,3.8438-8.578,5.7343-12.8808.2678-.6094.6133-.9646,1.2456-1.182,2.3515-.8083,4.7674-1.3536,7.2123-1.7413,3.1454-.4988,6.3066-.8443,9.5063-.5169,2.3736.2429,4.663.8468,6.9568,1.4581,7.2617,1.9351,14.1967,4.8372,21.3168,7.193,7.2677,2.4046,14.5552,4.7255,21.9379,6.759,4.1934,1.1551,8.413,2.2056,12.6061,3.3575,2.5047.6881,5.0386,1.2372,7.5835,1.7508,1.5142.3056,2.9957.7741,4.5102,1.0773,2.5544.5114,5.1228.9526,7.6863,1.418,5.1638.9375,10.3269,1.8781,15.4928,2.8038,2.5345.4542,5.0762.8684,7.6105,1.3236.4819.0866,1.0033.0682,1.4208.3621ZM191.236,187.1496c4.0829-.3245,9.1057-.4981,14.0643-1.4283,2.9139-.5466,5.8272-1.0847,8.6534-1.9784,4.4805-1.4168,8.7661-3.2836,12.9678-5.4104,2.6109-1.3215,5.2106-2.6467,7.7149-4.1527,2.0419-1.228,3.9829-2.6239,5.5588-4.4242,2.0031-2.2883,1.6542-2.0448.4416-4.1642-3.0624-5.3524-7.4851-9.4472-12.2664-13.2234-3.9085-3.0868-8.3699-4.9346-13.1698-5.9789-1.5546-.3383-3.1893-.5352-4.8223-.3463-2.3527.2722-4.6879.5888-6.9997,1.1565-4.3861,1.0771-8.4706,2.825-12.2963,5.1952-4.6084,2.8552-8.7054,6.3651-12.6865,10.017-2.7892,2.5585-5.2906,5.3996-7.8407,8.1853-.7366.8047-1.5544,1.5676-2.1856,2.4613-1.063,1.5053-2.39,2.7938-3.4431,4.2991-.8775,1.2543-1.9093,2.3883-2.749,3.6768-.3433.5268-.3084.7163.1186,1.0874,1.3772,1.1968,3.0934,1.8149,4.7352,2.3494,3.7607,1.2242,7.6463,1.9552,11.6152,2.2976,3.887.3353,7.7671.5161,12.5896.3813ZM282.3132,138.0389c-.8996-.0589-1.6766.1452-2.4298.4584-2.0081.835-3.6027,2.1999-4.9681,3.865-.9892,1.2064-1.3322,2.4995-.9629,4.0769,1.3471,5.7546,2.9556,11.4281,4.9946,16.9767.3864,1.0514.4042,1.0504,1.5048.5747,2.9167-1.2603,5.5679-3.0296,8.4266-4.401,1.6491-.7911,3.05-2.0049,4.7608-2.707,1.1214-.4603,1.302-1.23.803-2.4337-.0956-.2306-.1652-.4719-.2546-.7053-1.6065-4.1959-3.2962-8.3444-6.0772-11.9502-.5601-.7263-1.1414-1.4211-1.8347-1.9979-1.1651-.9692-2.3764-1.8997-3.9625-1.7566Z"/>
    <path class="cls-1" d="M118.5989,120.4761c.3622,2.3031.7299,4.4185,1.0191,6.5446.2724,2.0033.3931,4.0287.7075,6.0243.3103,1.9696.0407,3.8166-.7497,5.6186-.0753.1717-.0878.3711-.1468.6352.6868.1934,1.0964-.2273,1.5113-.5369,1.545-1.1527,2.9583-2.4451,4.1924-3.9367.6081-.735,1.2044-1.5095,2.0879-1.955.2527-.1274.5517-.3401.819-.0552.188.2003.1155.4775.0531.7231-.172.6776-.5727,1.2955-.4702,2.0447.1753,1.2822.745,2.2585,1.9262,2.8941,2.7093,1.4577,5.3183.7724,8.1972-.199-1.4926-1.1935-2.7976-2.2096-3.9343-3.4164-1.594-1.6923-2.6738-3.6302-3.0223-5.9518-.5083-3.3861.5436-6.313,2.7779-8.791,2.688-2.9814,6.1214-4.233,10.125-3.9957,2.991.1773,5.763,1.011,8.2885,2.6273.4556.2916.9716.5379,1.2259,1.0747-.1936.4086-.4918.212-.7668.1612-6.5022-1.2014-12.5499.0575-18.2452,3.3233-.7498.4299-1.0126.9265-.7285,1.7187.1183.33.1143.6784.2734,1.0125,1.6906,3.5501,4.0154,6.4722,7.7059,8.1432,2.1636.9796,4.3057,1.2127,6.6016.4468,3.2116-1.0715,6.3301-2.3728,9.476-3.6093,1.4051-.5523,2.8321-1.0489,4.2505-1.5672.3754-.1372.7572-.2434,1.2896-.1481-.5745,1.4802-1.2487,2.8137-1.9948,4.1087-.2598.4508-.7617.6375-1.2356.834-7.517,3.1169-15.0296,6.2444-22.7093,8.9486-2.3152.8152-4.6581,1.2351-7.1445.992-1.5664-.1531-3.7463-1.6612-4.1307-3.5537-.1272-.6262-.4337-1.1964-.5224-1.9225-1.4098,2.0799-2.9316,4.015-5.1984,5.3759.6519.6569,1.4434.9467,2.1186,1.3986,2.9637,1.9834,4.0528,5.297,2.9338,8.739-.3596,1.106-.7478,2.184-1.4222,3.134-.5801.8173-1.3619,1.3758-2.382,1.4439-2.1655.1446-4.146-.2638-5.9201-1.6832-2.521-2.017-4.2585-4.555-5.1846-7.59-.3367-1.1035-1.1774-1.6479-1.7581-2.4672-.2203-.3108-.5509-.1265-.8385-.0668-1.0989.2281-2.2093.2066-3.324.1854-2.2158-.0422-5.434-2.1642-6.2989-4.8568-.8621-2.6838-1.0998-5.4042-1.4586-8.135-.4623-3.5184-.4242-7.0644-.522-10.6027-.0345-1.2468-.061-1.3224-1.3074-1.1595-1.8838.246-3.7921.1318-5.5797-.2509-1.9727-.4223-3.8953-1.1473-5.5219-2.6265-2.1214-1.9292-3.6393-4.1211-4.4374-6.8575-.0823-.282-.1641-.5395-.195-.839-.3243-3.1405-.1583-6.2976.3705-9.3643.4779-2.7716,1.3078-5.532,2.6347-8.0635.2246-.4284.2185-.9656.6336-1.3126.2679-.2239.2436-.5369.0116-.8044-.894-1.0306-.7011-2.1816-.5127-3.4077.5527-3.5966,2.51-6.5798,4.0928-9.7294.0679-.1352.1846-.2397.468-.2205.1663.5443-.16.9795-.3825,1.4415-.7392,1.5353-1.5055,3.0573-2.0516,4.6796-.2759.8194-.4783,1.6469-.533,2.5072-.0323.5083.0558.9938.2439,1.4806.2165.5605.6532.7364,1.1617.8301.583.1074.7827-.3139.9835-.7419.1885-.4017.357-.8368.9473-.9939.0838,1.4049-.3925,2.6889-1.3229,3.4473-2.1441,1.7474-2.8526,4.1697-3.603,6.6004-.8047,2.6065-1.3349,5.2495-1.1964,8.0228.221,4.4256,2.6152,7.4288,6.1469,9.6907.7763.4972,1.7584.7582,2.6823.9205,1.4898.2616,2.9915.5216,4.5161.522,1.4498.0004,1.4719-.0226,1.4453-1.4001-.1352-6.98-.4265-13.953-.8465-20.9222-.3256-5.4024-.598-10.8075-1.3524-16.1722-.204-1.4506-.4404-2.9017-.7699-4.3277-.1945-.8421-.1553-1.6108.2245-2.3529.5427-1.0603.9652-2.1978,1.987-3.3605.4398,1.9878.8917,3.714,1.1978,5.4657,1.8333,10.4913,2.2297,21.1004,2.5444,31.7151.0945,3.1853.2,6.3702.3054,9.5551.0409,1.2341.0518,1.2543,1.3106.9665,2.3174-.5299,4.5525-1.3186,6.7114-2.304,2.9904-1.3649,5.9617-2.7913,8.7052-4.6036,1.2797-.8454,2.6545-1.5815,3.7837-2.6544.4612-.4383.4076-.7675-.1561-1.0246-.8744-.3988-1.7541-.7884-2.7103-.9517-2.3416-.3999-4.683-.8007-7.0271-1.1853-.7508-.1232-1.493-.2692-2.2093-.5281-1.5207-.5496-2.5493-1.556-2.6853-3.6123-.1653-2.5012.5775-4.8059,1.7234-6.9827,1.67-3.1725,3.9138-5.8917,6.7277-8.1165.654-.5171,1.3261-1.0589,2.2409-1.1371.8903-.0762,1.5573.1516,2.0334.9681.5094.8735.9257,1.7782,1.2779,2.7237.5381,1.4445,1.3258,2.7174,2.5933,3.6618.4552.3392.768.3661,1.14-.1015,1.5427-1.939,3.1853-3.8047,4.6278-5.8147.752-1.0478,1.7181-1.8192,2.6022-2.7,1.6471-1.641,3.381-3.1757,5.2429-4.5815,2.9335-2.215,6.2005-2.7836,9.7392-2.2436.8592.1311,1.6472.5231,2.3714.9688,2.3276,1.4326,4.1312,3.3893,5.4922,5.7543.3633.6313.5496,1.3322.4127,2.0448-.4337,2.2567-.8629,4.4851-2.0479,6.5498-1.1497,2.0033-2.8674,3.1963-4.7984,4.2086-3.1445,1.6485-6.4734,2.9232-9.9289,3.5928-3.6937.7158-7.4851.9612-11.2302.0233-1.2879-.3226-2.5277-.7921-3.5915-1.5725-.7597-.5573-1.3833-.719-2.1057-.0312-.1357.1292-.3379.2153-.5536.0587-.3421-.6684.8475-1.0734.3407-1.7679-.3571-.4893-.8051-.9188-1.1179-1.4327-.649-1.066-1.2168-2.1803-1.6528-3.3534-.1613-.434-.3874-.8233-.684-1.1685-.4017-.4676-.8712-.6157-1.4862-.3638-.8517.3488-1.6339.8043-2.3508,1.369-1.841,1.4503-3.4274,3.1421-4.7282,5.0945-.8888,1.3341-.7961,1.7142.7399,2.3581,1.9617.8223,4.007,1.3493,6.1357,1.5465,1.2072.1118,2.4273.2062,3.607.4655,1.8194.3999,3.4662,1.1415,4.0874,3.1273.791,2.5285.3606,4.8788-1.1634,7.0269-.9831,1.3856-2.3149,2.4202-3.72,3.3139-5.2544,3.3417-10.6194,6.4787-16.6245,8.3278-.5349.1647-1.068.2562-1.0313,1.0446.2187,4.6966.3263,9.4016,1.1615,14.0462.1163.6465.332,1.2685.6429,1.8562,1.4958,2.8273,3.8818,3.9582,7.0565,3.5061,1.909-.2719,3.4571-.7673,3.3944-3.1113,1.4858-5.6841,3.6582-11.1152,6.077-16.4542.2756-.6083.4039-1.3239,1.1675-1.8906ZM123.8291,92.2252c1.0431.3396,1.9722.7881,2.9464.9322,3.059.4525,6.1428.5684,9.2033.0215,4.8607-.8686,9.3679-2.769,13.7907-4.8861.9457-.4527.9517-.5094.3717-1.4742-1.4907-2.4796-3.5322-4.3926-6.066-5.7809-.5782-.3168-1.199-.5294-1.8475-.6572-3.1287-.6163-5.9218.1988-8.5172,1.9478-3.3838,2.2804-6.2012,5.1611-8.8278,8.247-.3848.4521-.8652.8513-1.0536,1.6498ZM116.972,128.3451c-1.7613,3.7109-3.227,7.4994-3.9697,11.7388,1.5893-.4184,2.7418-1.2486,4.0115-1.8123.9541-.4236,1.3149-1.0059,1.2046-2.1061-.2616-2.6087-.6064-5.2004-1.2464-7.8203ZM114.8724,148.5741c1.628,2.696,3.8331,4.5689,7.0629,5.0083.0498.0068.1006.0106.1508.0099.4552-.0067.6739-.1991.4697-.659-.1011-.2275-.2394-.445-.3938-.6412-1.8505-2.3512-4.4162-3.3193-7.2895-3.718Z"/>
    <path class="cls-1" d="M97.4384,55.531c-.9726.1355-1.4302,1.0696-2.3525,1.2099.1952-.6508.6947-.8456,1.0668-1.1449,3.5083-2.8225,6.993-5.6703,10.1596-8.8838.7475-.7586,1.423-1.5745,2.0668-2.421.3187-.419.2478-.7074-.1834-.9888-.5068-.3307-1.0288-.6579-1.4681-1.0681-.865-.8075-.9716-1.5134-.4867-2.5974.4032-.9014,1.0452-1.6208,1.8432-2.1721.9306-.6429,1.7309-.3941,2.2193.6359.5055,1.0662.4183,2.178.117,3.2649-.1636.5901-.2515,1.0353.3756,1.4251.3742.2326.6235.6709.6585,1.1375.0331.44.1548.9881-.2636,1.2665-.4251.2829-.7169-.1958-1.0269-.4224-.8534-.6239-.8884-.6538-1.4904.2141-2.4574,3.5435-5.5973,6.3815-9.1444,8.7724-1.0358.6982-1.4604,1.3703-1.2848,2.6969.2845,2.1496.3564,4.3287.7435,6.4733.3705,2.0527.9585,4.0368,1.9348,5.8782.6319,1.1919,1.6412,2.0432,2.9467,2.4385,1.2388.3751,2.4208-.3015,2.9843-1.706.6038-1.5049.944-3.0899,1.2794-4.6737.5969-2.8182,1.0627-5.6655,1.8224-8.4477.7191-2.6332,1.6328-5.19,3.0688-7.5346.6419-1.0481,1.4082-1.9798,2.4334-2.6692.9104-.6122,1.3028-.4428,1.5826.6379.1559.6022.0783,1.2017.0097,1.8073-.2051,1.8115-.5853,3.5914-.9274,5.379-.5537,2.8932-.8591,5.8059-.4982,8.7498.2862,2.3346,1.4962,4.1566,3.2747,5.622.3826.3152.8547.544,1.3174.7358,1.4109.5847,1.6673.4094,1.5582-1.1476-.3217-4.5905-.6645-9.1796-1.0174-13.7678-.4614-5.9995-.9082-12.0004-1.4205-17.9957-.5381-6.2983-1.1639-12.5891-1.5073-18.9028-.0082-.1513.0091-.3207-.0523-.4499-.8454-1.7809-.1386-3.3336.6911-4.8754.2827-.5254.5359-1.0667.8162-1.6279,1.3238,1.5409,4.8618,12.1779,4.723,14.184-1.1795-.201-1.3399-1.568-2.4389-2.1415.0872,1.4501.1175,2.733.2485,4.0056.9584,9.3072,1.8017,18.6251,2.564,27.9499.3378,4.1323.5309,8.2765.7874,12.4155.0187.3027-.0034.6091.0314.9094.0777.6697.3227.8066.8723.3903,1.3012-.9855,2.4582-2.1033,3.0078-3.7107.5964-1.7441.8619-3.5502.7892-5.3748-.1835-4.6091-.8002-9.1654-1.9944-13.6276-.2813-1.0512-.3616-2.0367.0796-3.0585.3306-.7658.5334-1.588.8826-2.3438.1463-.3168.1943-.8722.7338-.8284.4892.0397.5604.526.713.8809.2192.5098.4077,1.0338.5897,1.5586,1.4534,4.1916,1.9988,8.5512,2.4,12.9393.2026,2.2151.4608,4.4243.9662,6.596.1836.789.4907,1.5377.7447,2.304,1.2236,3.6899,6.5227,5.319,9.9691,3.3849.8743-.4906.9906-.7104.6537-1.7108-.4839-1.4363-.9741-2.8732-1.5364-4.2799-1.9231-4.8104-3.1732-9.8024-4.0974-14.8858-.0542-.2982-.0192-.678-.1909-.8787-.9148-1.0697-.3843-2.0875.0585-3.0986.3962-.9046.53-1.9268,1.2322-2.7296.1132.0481.3023.0662.3693.1661,1.4624,2.1816,2.9903,4.3252,4.0406,6.7533.1003.2319.2099.461.2917.6995.0769.2242.2699.4772.0226.6885-.2748.2346-.5591.101-.8324-.059-.2939-.1719-.4894-.5348-.9214-.4764-.356.3618-.0903.7443-.0053,1.1077.727,3.1101,1.8597,6.0868,3.0231,9.0507,1.3732,3.4984,1.2671,7.0307.1563,10.5362-1.0134,3.1983-3.6594,5.6475-7.6776,5.1582-3.4959-.4257-6.0409-2.4122-7.163-6.0187-.3997-1.2848-.6913-2.6032-1.0325-3.9071-.4501.1139-.4052.4619-.4587.7437-.7172,3.7742-2.2284,7.1272-5.1728,9.7112-.5376.4718-.4269,1.0956-.4448,1.671-.0931,3.0076-.7332,5.9051-1.7112,8.735-.2259.6535-.4285,1.352-1.0956,1.7366-.5462-.2519-.3462-.7096-.3483-1.0663-.017-2.8326.0019-5.6653-.0175-8.4979-.0074-1.0846-.0391-1.1478-1.068-1.1621-4.0846-.0565-6.5696-3.1517-7.4484-6.7623-.6456-2.6526-.4691-5.3234-.1987-7.9964.2342-2.3148.5199-4.6212,1.0531-6.8924.1096-.467.312-.9681.0315-1.5245-.4874.0573-.5799.48-.7463.8107-1.3742,2.7298-2.2285,5.6342-2.8686,8.6086-.6168,2.8659-1.2183,5.7352-1.8392,8.6002-.3015,1.3912-.8008,2.7104-1.4917,3.9592-.9735,1.7595-2.3072,2.3824-4.6031,1.1942-.8656-.448-1.5047-1.1813-2.0412-1.9963-.9548-1.4505-1.608-3.0395-2.0823-4.6962-.9019-3.1504-1.367-6.3684-1.3548-9.6504.0035-.9417.0005-1.8835.0005-2.9223ZM109.7543,40.7161c.0042-1.0292-.923-1.7906-1.9019-1.5619-.6809.1591-.8788.7047-.4004,1.2013.3445.3575.7528.6535,1.1329.9767.2291.1948.4732.422.7912.2857.3868-.1658.33-.5668.3781-.9018Z"/>
    <path class="cls-1" d="M284.9452,37.1235c-8.023-2.296-16.1281-2.2612-24.426-.4098.8605-1.9198,2.1999-3.2243,3.2347-4.7354,2.0494-2.9928,4.1523-5.9489,6.2024-8.9412.3297-.4813.6551-.7561,1.2558-.9132,1.6692-.4365,3.359-.7007,5.0693-.8006,5.1616-.3015,10.3057-.2058,15.4.8203,1.789.3603,3.5347.8598,5.2044,1.5925,2.0994.9212,2.5783,2.1188,1.6729,4.253-.8543,2.0136-2.1375,3.7753-3.4067,5.54-1.5866,2.2061-3.3961,4.2311-5.1074,6.3359-1.6588,2.0402-3.601,3.7909-5.416,5.6661-1.9795,2.0452-4.4111,3.3289-7.2595,3.9837-5.9071,1.3579-11.7806,2.8582-17.7813,3.7696-.493.0749-.9824.2378-1.5918.0824.3122-.544.8545-.6785,1.306-.9153,3.9798-2.0878,7.9919-4.1159,11.936-6.2688,2.3355-1.2748,4.5094-2.8489,6.8592-4.0934,2.2403-1.1866,4.2668-2.6582,6.3077-4.1265.2306-.1659.5543-.2785.5404-.8393Z"/>
    <path class="cls-1" d="M409.5263,25.5239c-.2512,1.8895-.8305,3.4505-1.342,5.0287-.2311.7132-.8982.9302-1.4755,1.2172-3.1688,1.575-6.3566,3.1118-9.5206,4.6964-10.5774,5.2973-21.177,10.5516-31.7133,15.9298-14.4503,7.3762-28.8491,14.8533-43.276,22.2753-.6585.3388-1.2711.8281-2.1464.8746.0331-.5762-.0246-1.0842.1915-1.624.4571-1.1418.8052-2.3239,1.2694-3.4684.2366-.5833.6345-.9245,1.0841-1.1529,12.4753-6.3365,24.8673-12.8355,37.3829-19.0944,5.2983-2.6496,10.4849-5.5268,15.8333-8.0806,10.8784-5.1944,21.5896-10.7261,32.4172-16.0226.3602-.1762.7322-.3282,1.2954-.579Z"/>
    <path class="cls-1" d="M173.3693,58.5779c.5775-1.8699,1.0611-3.4061,1.5242-4.9485.2161-.7196.6352-1.1963,1.323-1.5495,2.7372-1.4056,5.3952-2.9746,8.1754-4.2859,7.4783-3.5273,14.8288-7.3098,22.1907-11.0652,9.5211-4.8569,19.1001-9.5956,28.6688-14.3559,1.2454-.6196,2.5369-1.1465,4.0169-1.8104-.2931,1.9859-.7523,3.7603-1.4822,5.4594-.1501.3494-.524.5533-.9067.744-14.2939,7.1218-28.5838,14.2519-42.8592,21.4107-6.2773,3.1479-12.5216,6.3615-18.7834,9.5403-.5226.2653-1.0646.4923-1.8675.861Z"/>
    <path class="cls-1" d="M294.7631,86.6214c-.1211.1993-.2597.4655-.433.7066-1.6678,2.3196-3.3429,4.6339-5.0127,6.9521-1.0214,1.418-2.0174,2.8546-3.0613,4.2558-.8859,1.1891-.96,1.2065-2.1285.3119-4.1534-3.1793-8.1866-6.5154-12.4621-9.5358-.4904-.3465-.9831-.6745-1.5084-.9704-.4303-.2423-.6184-.4801-.1862-1.1489,1.9633-3.0377,4.1364-5.9235,6.241-8.8568.6047-.8429,1.2482-1.6621,1.8473-2.516.6814-.9712.9158-.9814,1.9386-.2707,1.4504,1.0078,2.8831,2.0415,4.3095,3.0831,3.2607,2.3811,6.5139,4.7726,9.7674,7.1637.2723.2001.6559.309.6886.8253Z"/>
    <path class="cls-1" d="M52.2469,126.5641c.2575.1574.5665.3204.8476.5221,3.8961,2.7948,7.8082,5.5676,11.6111,8.49.7983.6135,1.596,1.2373,2.4502,1.7656.7208.4458.6514.8311.2039,1.44-2.1846,2.9723-4.3294,5.9737-6.4982,8.9576-.6235.8578-1.2994,1.6778-1.9154,2.5407-.4347.6089-.7785.5311-1.3427.0995-3.1709-2.4259-6.3565-4.8343-9.5863-7.1809-1.411-1.0251-2.8286-2.0346-4.1577-3.1652-.937-.7971-.9397-.7886-.3421-1.7786,1.8008-2.9831,3.8804-5.7721,5.9474-8.5705.5061-.6852,1.0915-1.3077,1.4533-2.1079.2264-.5007.6707-.8797,1.3289-1.0123Z"/>
    <path class="cls-1" d="M26.8638,127.8865c.4495.0724.7858.3874,1.1432.6481,3.6281,2.6471,7.2529,5.2989,10.8733,7.9566.9762.7166,1.9441,1.4455,2.8978,2.1917.8431.6596.8549.69.2538,1.5348-1.5797,2.2203-3.1786,4.4269-4.7749,6.6353-1.0345,1.4312-2.0682,2.863-3.1204,4.2812-.8362,1.127-.864,1.1391-1.967.3229-3.0425-2.2514-6.0667-4.5276-9.1063-6.7829-1.6137-1.1973-3.2354-2.3843-4.8729-3.5488-.5149-.3662-.5908-.6117-.1747-1.1818,1.6-2.1925,3.1511-4.4228,4.6567-6.6815,1.0739-1.6111,2.2587-3.1383,3.3691-4.7204.2186-.3114.4835-.4959.8223-.655Z"/>
    <path class="cls-1" d="M115.6041,117.8946c.221-.4843.7281-.5309,1.1193-.6912,3.3145-1.3575,6.4771-3.0624,9.8521-4.2819,2.0486-.7402,3.9257-1.8606,5.8962-2.7751,5.9722-2.7718,11.8954-5.6628,17.5307-9.0824,3.9785-2.4142,7.7669-5.1145,11.2461-8.2238.3013-.2693.5708-.5747.8767-.8382.5689-.4901.7234-1.0104.3743-1.7362-.5905-1.2276-1.0646-2.5108-1.6436-3.7444-1.0527-2.2431-1.8545-4.5857-2.7926-6.8685-.7592-1.8477-.5109-3.5086-.0711-5.2555.1452-.5768.1325-1.2114.499-1.7286,1.424.7812,4.5137,4.9618,4.8758,6.6083-.5193.3217-.8885-.4038-1.3931-.2082-.2649.373.0479.6715.1788.9654.6164,1.3844,1.2643,2.7549,1.9028,4.1294,1.5053,3.2406,1.2622,6.475-.0287,9.7075-.2665.6672-.6865,1.2278-1.1526,1.7674-2.2624,2.6198-4.9179,4.7941-7.7004,6.8255-6.281,4.5856-13.1257,8.1503-20.2772,11.1501-2.057.8628-4.2359,1.3331-6.4067,1.8151-3.9912.8863-7.9864,1.7524-12.0141,2.4604-.2822.0496-.5648.1844-.8718.0049Z"/>
    <path class="cls-1" d="M206.33,99.3596c.5565-.4565.406-.9508.457-1.3781.4076-3.4137.7596-6.8352,1.477-10.2039.3817-1.7927,1.0264-3.4886,1.914-5.0902.4432-.7998.9752-1.5389,1.6576-2.1559.7728-.6987,1.6497-.9609,2.6589-.5769,1.8919.7199,3.2095,2.0584,4.096,3.8461.2283.4605.3442.9656.2118,1.4752-.3506,1.3485-.8204,2.6557-1.4958,3.8783-.3515.6364-.7611.372-1.0514-.0378-.5586-.7886-1.2034-1.4874-1.9464-2.0981-1.4948-1.2287-2.2935-1.0986-3.2174.6272-1.0622,1.984-1.6143,4.145-1.9029,6.3609-.444,3.4089-.8098,6.8279-1.2321,10.2398-.1868,1.5094-.5134,2.9897-1.2289,4.3524-.231.44-.4495,1.0011-1.0648.9009-.6159-.1003-.9011-.6782-.9654-1.2082-.338-2.7828-1.3363-5.3786-2.1997-8.0112-.7801-2.3786-2.1434-4.4375-3.6526-6.4083-.3716-.4853-.7139-.522-1.0573.0102-.3838.595-.8352.5403-1.4115.2514-1.783-.8936-3.5068-1.8538-4.8432-3.387-.3426-.393-.6696-.7872-.6523-1.3231.0499-1.5475.1689-3.1006.5346-4.6005.3654-1.4986,1.9114-2.1693,3.5183-1.6168,1.6029.5511,2.9688,1.4826,4.1086,2.7429,1.8136,2.0052,3.239,4.2607,4.3167,6.7347.8814,2.0236,1.7314,4.0609,2.6025,6.089.0757.1763.2049.3295.3689.587Z"/>
    <path class="cls-1" d="M390.199,216.294c.0703.6289-.3136.9176-.6027,1.2419-2.3003,2.5801-4.8654,4.858-7.8016,6.693-4.8191,3.0117-10.09,3.9862-15.6916,3.3988-.9734-.1021-1.9482-.2061-2.8268-.7175-1.3755-.8007-2.0123-2.0674-1.798-3.6559.1999-1.4824.8747-2.7743,1.65-4.0177,1.8986-3.045,4.4371-5.4919,7.2319-7.6983,1.2298-.9709,2.4535-1.9499,3.662-2.947.3477-.2869.6413-.6421.9436-.9804.2885-.3228.2179-.6215-.0693-.9273-.8555-.911-1.9482-1.2189-3.1446-1.2779-2.2305-.11-4.4453.0756-6.6555.3544-.4935.0622-.9898.1013-1.7862.1813,1.0422-1.889,1.7554-3.6871,2.9725-5.2205.3413-.43.8465-.5421,1.3419-.6301,2.3497-.4176,4.7175-.5761,7.0981-.3709,1.11.0956,2.1372.4937,3.1372.983.6392.3126.8663.7546.7727,1.4534-.2387,1.7815-.7809,3.4526-1.7833,4.9477-1.412,2.1059-3.155,3.9028-5.126,5.5013-1.6089,1.3047-3.1596,2.6835-4.6988,4.0708-.5969.538-1.1286,1.1605-1.6243,1.7958-.912,1.1689-.8811,1.5049.2268,2.54,1.3395,1.2514,2.9655,1.8975,4.7706,2.1042,3.6195.4145,7.0513-.4322,10.3618-1.7445,2.9232-1.1588,5.8015-2.4554,8.2677-4.4847.2323-.1911.4986-.3428.7581-.4976.0809-.0483.1915-.0467.4137-.0954Z"/>
    <path class="cls-1" d="M382.1542,77.07c.2104,1.8232-.216,3.3803-.8719,4.8667-1.3245,3.0018-2.7268,5.9693-4.0655,8.965-1.2984,2.9056-2.6802,5.7826-3.4237,8.9015-.5537,2.3227-.9342,4.6491-.3798,7.0436.4359,1.8828,1.2997,3.3961,3.1971,4.1032,1.2727.4743,2.1446.1818,2.8219-1.0106.5455-.9606.9732-1.9881,1.4528-2.9861.2433-.5063.5456-.9701.9871-1.3273.2895-.2343.6131-.3816.9759-.1821.3485.1917.4616.5382.4407.9043-.017.2985-.1012.5954-.1754.888-.8225,3.2418-2.0054,6.2911-4.226,8.8937-.8508.9972-1.5932,2.0739-2.6804,2.837-2.2878,1.6056-4.7638,1.1601-6.321-1.1506-.9007-1.3366-1.2874-2.8601-1.3912-4.4378-.2853-4.3376.2266-8.5595,1.7461-12.6689,1.95-5.2738,4.2618-10.3787,6.8675-15.3539,1.2131-2.3164,2.4755-4.6073,3.7408-6.8958.2769-.5007.47-1.1159,1.305-1.3899Z"/>
    <path class="cls-1" d="M35.3443,87.6501c-.1375-4.1962,1.2726-8.0274,2.7532-11.8457,2.1978-5.668,4.8967-11.0976,7.8359-16.4088.7783-1.4064,1.3512-2.9211,2.2757-4.2487.1669-.2397.2239-.6076.638-.4584.3966.1429.267.5023.2416.7755-.1704,1.8333-.7375,3.5573-1.4996,5.2213-1.7889,3.9058-3.6496,7.7802-5.357,11.7212-1.3528,3.1225-2.2977,6.3719-2.1968,9.8405.0281.9667.1158,1.9234.3801,2.8493.4075,1.4278,1.2317,2.5517,2.6273,3.152,1.8011.7747,3.0897.2546,3.7266-1.5786.3331-.9585.8424-1.8062,1.3443-2.6599.3492-.5941.8215-1.3865,1.6224-1.0565.7702.3174.3982,1.1601.2565,1.7584-.9017,3.8068-2.6033,7.2108-5.2197,10.1399-.6112.6842-1.3091,1.2664-2.0855,1.749-1.8265,1.1354-3.9108.8404-5.3603-.7533-1.062-1.1676-1.5284-2.6019-1.7775-4.1177-.2221-1.3512-.2548-2.7175-.2052-4.0794Z"/>
    <path class="cls-1" d="M132.5918,32.6943c-.3761.4121-.4415.9409-.7123,1.3522-.4474.6793-1.1031,1.0331-1.9286.9229-.7806-.1042-1.3425-.5806-1.4576-1.3442-.3095-2.0524-.1967-4.1092.1373-6.1535.0126-.0772.1389-.1358.2196-.21.4942.0826.4168.4974.4262.8152.0299,1.0098.0002,2.0216.0387,3.0309.04,1.0505.3564,1.5013,1.036,1.6051.753.115,1.6019-.4131,1.8859-1.2273.257-.7368.2006-1.4872.0051-2.2389-.1781-.6848-.3233-1.3807-.1932-2.096.0628-.345.1042-.7111.5474-.8372.5517.4447.6512,1.0925.7602,1.7415.1672.9951.2711,2.0042.6203,2.9613.1575.4316.3148.8893.79,1.0528.4574.1574.964.5593,1.4167.2017.4127-.326.149-.844.0285-1.2752-.2174-.7779-.4604-1.549-.6627-2.3307-.2094-.8091-.0818-1.5572.5558-2.4985.8043,2.0608,1.6306,3.8367,1.4172,5.852-.173,1.6336-1.372,2.4677-2.9351,2.2571-.5192-.0699-.8362-.3072-1.0715-.7084-.2034-.3468-.3673-.7138-.9239-.8728Z"/>
    <path class="cls-1" d="M129.3727,123.6421c-.0639.1538-.0974.3079-.1816.4256-.7942,1.1089-1.606,2.2052-2.3931,3.319-.3139.4442-.6324.407-1.0166.1172-1.3716-1.0346-2.7432-2.0695-4.1251-3.0902-.4271-.3155-.3919-.6558-.1322-1.0349.7028-1.0259,1.3952-2.0595,2.1247-3.0661.247-.3408.5545-.4943,1.0107-.1628,1.4691,1.0678,2.9769,2.0822,4.4625,3.1275.112.0788.1668.2388.2506.3648Z"/>
    <path class="cls-1" d="M141.4076,131.2386c.1419-1.4068,1.027-2.0227,2.0535-2.5402,4.5084-2.2727,9.0146-4.5496,13.628-6.6053.902-.4019,1.8119-.7862,2.8398-1.2313.0118,1.0627-.2547,1.721-1.0981,2.1271-5.6763,2.733-11.3445,5.4827-17.0177,8.2223-.0794.0384-.1886.015-.4055.0274Z"/>
    <path class="cls-1" d="M126.7543,108.8938c-.3198-.9049-.0088-1.5064.7698-1.9009,1.3692-.6938,2.6514-1.5332,4.0507-2.1905,4.3641-2.0499,8.6757-4.2118,13.0963-6.1424.0409-.0179.0995.0047.2534.0159.115,1.0963-.4451,1.6791-1.3906,2.1321-4.276,2.0484-8.5276,4.1477-12.7981,6.2078-1.3114.6326-2.5555,1.4153-3.9813,1.878Z"/>
    <path class="cls-1" d="M89.6212,110.162c-.4605-.3737-.4429-.9204-.5995-1.3699-.2819-.809-.5239-1.6292-.8978-2.4062-.3245-.6743-.7527-1.1931-1.5334-1.315-.6314-.0986-1.1225-.448-1.5416-.8953-.4766-.5087-.4361-1.923.0606-2.3714.4016-.3626.8674-.2279,1.2766-.0371,1.1101.5176,1.763,1.4583,2.2819,2.5296.3048.6293.36,1.3683.8347,1.9199.5453-.0798.3856-.5279.4368-.8301.2361-1.3956.4663-2.7952,1.1904-4.039.5045-.8666.9038-1.0227,1.5658-.7348.7999.3479,1.2938,1.1999,1.1236,1.9383-.1746.7579-.6071.9106-1.2774.4512-.76-.5209-.9305-.4916-1.3048.3102-.2566.5497-.383,1.1383-.4708,1.7441-.217,1.4964-.4749,2.987-.7299,4.4776-.0395.2312-.1252.4685-.4151.6278Z"/>
    <path class="cls-1" d="M157.9955,113.9803c.4014-.8367.4755-1.6188.5821-2.3993.1521-1.1143.5086-2.1653,1.27-3.0185.5848-.6554,1.1056-.61,1.8112.0746.6556.6362.8027,1.6953.294,2.1759-.2024.1912-.4372.2361-.6816.0623-.1646-.117-.3136-.2684-.4943-.3483-.7737-.3421-1.2153-.108-1.3552.7214-.3026,1.7934-.5908,3.5891-.8903,5.383-.0495.2966-.084.607-.2019.8777-.1287.2953-.4097.3214-.5702.0416-.1722-.3003-.2717-.649-.3636-.9873-.2396-.8814-.5607-1.7294-.9653-2.5475-.3186-.6443-.6782-1.08-1.5033-1.29-1.6651-.4239-2.2285-1.5398-1.6744-2.7806.3574-.8004.8097-.9725,1.5591-.5301.9418.556,1.5969,1.3847,2.0833,2.3524.3572.7108.7088,1.4245,1.1005,2.2126Z"/>
    <path class="cls-1" d="M162.0033,64.4046c-.0786,1.464-.7407,2.1069-1.8133,2.5983-3.943,1.8066-7.8454,3.7018-11.9072,5.6322-.0157-1.0626.3391-1.7351,1.1647-2.1591,1.662-.8537,3.308-1.7408,4.9915-2.5497,2.4552-1.1796,4.9377-2.3024,7.5643-3.5217Z"/>
    <path class="cls-1" d="M110.4865,23.1513c-.0522,1.1098.3914,1.5984,1.1056,2.0767,1.7355,1.1621,2.0376,3.1331.912,4.9103-.7304,1.1532-2.12,1.6723-3.4203,1.2776-.9813-.2979-1.5383-1.1779-1.455-2.3726.0603-.866.3335-1.6794.7741-2.427.6348-1.0771,1.2877-2.1435,2.0836-3.4649ZM110.5613,29.3498c.1267-.0213.375-.0544.6193-.1065.3406-.0726.7342-.1096.8168-.5367.0766-.396-.2063-.6513-.4767-.8766-.3459-.2883-.7081-.5573-1.0676-.829-.9562-.7227-1.4324-.5611-1.7484.5898-.3065,1.1161.3529,1.786,1.8566,1.759Z"/>
    <path class="cls-1" d="M103.7011,124.8054c4.3261,1.9758,6.2011,7.0202,5.5038,12.9018-.4756.0957-.4535-.2548-.4894-.5487-.0854-.7007-.1877-1.4001-.2477-2.103-.2316-2.7135-1.4304-4.967-3.5215-6.6298-1.2411-.9869-1.6449-2.049-1.2452-3.6202Z"/>
    <path class="cls-1" d="M126.1294,10.1939c4.2916,2.282,6.1473,7.1828,5.0939,12.6974-.0936-.7073-.2343-1.4121-.2727-2.1224-.1603-2.9577-1.4427-5.3881-3.7007-7.1986-1.1716-.9394-1.4522-1.9285-1.1205-3.3764Z"/>
    <path class="cls-1" d="M154.3069,55.2256c.0799.6053-.2466,1.0639-.4553,1.5309-.4117.9213-.8519,1.8296-1.134,2.8022-.0842.2904-.1662.5848-.2097.8832-.1235.8459.1768,1.7309.6214,1.8917.3542.1281.5321-.0009,1.3392-.971.0876,1.074-.591,2.409-1.4365,2.821-.6335.3087-1.0939.0217-1.4037-.4958-.3786-.6324-.3892-1.3387-.2548-2.057.4249-2.2701,1.6011-4.2292,2.5849-6.2675.0288-.0597.164-.068.3484-.1376Z"/>
    <path class="cls-1" d="M105.0131,79.1291c-.4031.9079-.8038,1.8168-1.21,2.7233-.3309.7383-.6393,1.4852-.6954,2.3026-.0204.2964-.0058.6044.0534.8948.081.3977.2121.8225.6565.941.5281.1408.6422-.3568.8677-.6665.0844-.1159.1464-.2712.4451-.1977.0718,1.187-.5518,2.0401-1.4463,2.6976-.6185.4548-1.3664.0865-1.63-.7404-.2696-.8458-.1549-1.7325.0514-2.5425.5105-2.0039,1.5192-3.7944,2.5765-5.5488.1104.0455.2208.0911.3311.1366Z"/>
    <path class="cls-1" d="M92.2578,126.9987c-.0187,1.0234-.5078,1.6253-.7787,2.299-.3932.9775-.9578,1.8985-1.0203,2.9846-.023.3999-.0408.8176.0463,1.2029.1969.8712.7041.986,1.3395.3363.1696-.1734.2526-.4443.5507-.4637.0453,1.1066-.6787,2.3658-1.5675,2.7749-.4642.2137-.7816.0125-1.0479-.323-.3956-.4984-.4999-1.0866-.4707-1.7101.0502-1.0724.3275-2.0932.7476-3.0695.5744-1.3348,1.1836-2.6558,2.201-4.0313Z"/>
    <path class="cls-1" d="M141.0927,87.3024c-.0774.1527-.1468.3469-.2623.5083-.7347,1.0265-1.475,2.0492-2.224,3.0653-.2033.2758-.3939.6275-.8399.3013-1.4383-1.052-3.0909-1.8039-4.2918-3.1938-.4111-.4758-.4879-.7766-.0729-1.2778.74-.8935,1.4174-1.8395,2.1086-2.7727.308-.4158.5786-.6368,1.1035-.2334,1.2814.9849,2.6068,1.9126,3.9089,2.871.2433.1791.4741.3827.5699.7318Z"/>
  </g>
</svg>