<?xml version="1.0" encoding="UTF-8"?>
<svg id="Hassan" xmlns="http://www.w3.org/2000/svg" width="447.1316" height="434.1446" viewBox="0 0 447.1316 434.1446">
  <defs>
    <style>
      

      @import url('../../CSS/SvgStyling.css');

      
    </style>
  </defs>
  
  <g class="content">

    <rect id="bg" class="bg" width="447.1316" height="434.1446"/>

    <path class="cls-1" d="M107.5528,230.6043c3.0305-.1355,5.2829,1.0983,7.3851,2.6444,3.795,2.8069,7.194,6.0615,10.6068,9.2887l.8327,1.0983c-.1911,3.0375-.6962,5.2072-1.5971,7.2953-.4778,1.0983-1.1467,1.6273-2.4708,1.722-6.5934.4612-13.0912,1.3967-19.316,3.7427l-4.5731,2.0881c-1.2286.6918-1.8429,1.6681-1.7473,3.1598l1.4197,7.3493c2.58,8.7466,5.2146,17.4656,7.7947,26.2119,2.1023,7.1463,3.9861,14.3601,4.9962,21.7504.86,6.3055,1.4879,12.6245.546,18.9843l-.546,3.2273c-.0137.0813-.1775.149-.3686.2984-.6416-1.7901-.6962-3.6342-.9146-5.4243-1.5152-11.8785-4.2727-23.459-7.7401-34.9171l-7.7674-26.6188c-1.6108-6.2782-1.5153-12.4482.9283-18.5094.9556-2.3733,2.5254-4.0953,4.8461-5.2615,3.4264-1.722,7.0575-2.8477,10.7433-3.797l3.0305-.7592c-2.348-1.7901-4.3546-3.3358-6.921-3.8782-1.9657-.4069-3.3445.7187-4.4638,2.1289l-2.0203,3.0645c-.2048.3256-.4232.651-.6689.9493l-.6279.9493-1.0238-1.0714c.314-1.8714.587-3.2543,1.0784-4.5832,1.2968-3.5256,2.8394-6.9022,5.5423-9.6144l.6279-1.1388c-1.2559-8.1226-4.1635-14.7808-8.2724-20.9643l-2.2387-3.2273c-1.2149,1.0171-1.0648,2.6579-2.0476,3.7562-.9829-.4612-1.4606-1.451-2.266-2.0612l-7.0985-4.3121c-2.8667-1.5052-3.0305-1.7628-2.4845-4.9901.4914-2.8612,1.447-5.5868,2.6483-8.2312.9556-2.0747,1.9794-2.4,4.0134-1.2881,5.9791,3.2954,10.4566,8.1091,13.883,13.9265,2.853,4.8546,4.8461,10.0614,6.2658,15.4992l.1092,1.0306c1.4333-1.8444,1.5152-4.1631,1.8565-6.4276.7781-5.1937,1.2286-10.4548,2.6073-15.5535,1.2013-4.4342,2.9076-8.6108,5.9518-12.1772,1.72-2.0069,4.3819-2.495,6.4842-.8947,2.6619,2.0339,4.4093,4.8273,6.1839,7.5937l.3549.8135c-1.2559,3.2138-2.307,5.9529-3.3581,8.6512l-.7918-.5964c-.901-1.451-1.5289-2.5901-2.2661-3.6342l-2.0067-2.3325c-3.1397-2.9832-6.102-2.3457-7.5899,1.6816-1.5289,4.1223-2.1159,8.4617-2.8257,12.7601l-1.993,12.5433c-.6279,2.6983-1.6518,5.2477-2.6892,8.1088"/>
    <path class="cls-1" d="M117.9684,270.2677l8.2042-6.0884c15.9033-12.0278,31.4926-24.4218,46.1264-37.9411,5.1054-4.719,10.088-9.5871,14.4426-15.0383l1.0648-1.2612c-.0546-1.3832-.7371-1.478-1.2968-1.7628-3.0441-1.5865-5.9245-3.4036-8.5727-5.6003-2.4298-2.0204-3.4127-4.4477-2.3206-7.5259,2.2524-6.3733,6.5251-10.9838,12.5724-13.9805l1.5835-.5559c2.8121-.4204,4.3683.3118,5.4331,2.0204l1.2149,3.2273c1.0375,4.475.9146,8.9496-.2321,13.3433-.546,2.1016-.3413,3.5121,1.4879,4.8546,2.9623,2.1694,3.7131,5.0578,2.1432,8.4614l-2.0067,3.7154c-.9282,1.1391-1.2013,1.1121-1.8429-.1355-.8327-1.6408-2.0749-2.9424-3.3854-4.1766l-1.2286-1.1526c-2.4162,4.2036-4.2454,6.8345-6.2658,9.3565-4.7232,5.8986-10.0334,11.2278-15.6439,16.2722l-16.2446,13.411c-6.2385,4.7868-12.9684,8.8683-19.8075,12.7601l-11.9582,6.7664c-.8873.502-1.8019.9493-2.7029,1.4375l-.6143-.0543M192.0382,199.7144c.0683-2.6986-.3549-5.1937-1.488-7.5532l-.5051-.8947c-1.3378-1.6816-2.3343-1.9664-3.9042-1.4918l-3.1397,1.8441c-1.2968,1.2069-1.3241,1.4105.0546,2.495l8.3544,5.6006c.0819.0543.2457.0135.628.0135"/>
    <path class="cls-1" d="M241.6183,9.4788l-1.5016,3.5121c-1.2695,2.8069-2.5527,5.6141-3.8222,8.4345l-.7372,1.2204c-16.2446,6.292-31.4653,12.7196-46.5905,19.3774-21.6913,9.5601-43.1095,19.6623-64.3367,30.1579l-17.0909,8.665c-16.6541,8.5019-33.1444,17.3298-49.4709,26.4422l-.6416.4474-.5324-.7727c1.447-3.8782,2.7984-7.4177,4.0816-10.9838.4368-1.2204,1.174-2.0069,2.3207-2.6444l30.4415-16.1771c14.1014-7.3091,28.312-14.3739,42.6181-21.2623,23.4932-11.3094,47.2185-22.1304,71.1895-32.4224l33.3901-13.9805c.1092-.0408.2457,0,.6825,0"/>
    <path class="cls-1" d="M159.5082,159.6849l-1.8292-4.6378c-1.8838-6.197,1.7473-11.7838,8.2178-12.665,4.9553-.678,9.3372.651,13.1458,3.8644l.1092.2171-1.1194.1898c-5.9927-1.1253-11.221-.2984-16.2992,1.695-1.7337.678-1.7337.8408-1.1467,2.6036,1.3651,4.1088,3.9451,7.1463,7.9175,9.0039,2.2797,1.0714,4.4092,1.1391,6.6207-.2441,3.1807-1.9796,6.3067-4.0138,9.1734-6.4411l.587-.6914c-.1638,1.9934-.6006,4.1901-2.1432,5.7631-3.5629,3.6339-7.6718,6.4953-12.5725,8.0818-4.027,1.3016-8.0131,1.3829-11.8353-.6918l-1.2422-.3796c-1.0648,2.9832-1.993,4.9631-2.4162,7.1325l.0546,1.7901c1.2013,1.6408,1.8565,1.6,2.5664.7187l.4232-1.0441c.9283,1.2339-.0546,3.6339-1.2832,4.3256l-.86.1763c-1.6927-.8138-2.0749-1.9526-2.2251-3.2003l.5051-3.4036c.6143-2.1019,1.4197-4.1223,2.2934-6.1292l.2867-1.2881c-1.6381-1.5865-2.2524-2.8746-2.9213-4.2309l-.8191,1.3424c-.9146,3.6342-2.8667,5.2615-5.7334,5.9667-2.6483.6507-4.6686-.3799-5.788-2.9019l-.2321-1.2881-1.3241.3931c-1.1876,1.9799-2.2524,3.3358-3.5765,4.4884-2.034,1.7628-4.7096,1.9118-6.9893.4612-1.406-.8951-2.348-2.197-3.208-3.5529l-1.6381-2.6171c-.8191-1.1526-1.5425-1.2477-2.7984-.3661-2.1841,1.5322-3.5902,3.6612-4.5458,6.1019l-1.5562,4.1496c-1.5289,3.8375-4.4502,4.3256-6.9756,1.0306-3.208-4.1631-4.4775-8.9091-3.8359-14.1298l.1229-1.2612c.8327,1.5187.9556,3.3901,1.3651,5.2342.4641,2.075,1.1194,4.0953,2.3753,5.8447l1.1194,1.4102c2.4299.9898,3.6721.6102,4.5048-.8408l1.2695-3.2273c.9829-3.0105,2.2251-5.8986,4.4092-8.2716l.901-.9358c2.348-1.627,3.6994-1.3694,4.8734.4747l2.8121,3.9052c3.2216,3.3088,7.1394,3.1055,9.9379-.5559l2.7302-3.7424c.4095-.5424.7918-1.1664,1.6108-1.3832l.3003.9763c-1.406,3.0375,1.5972,5.6818,4.3819,4.9766l1.5835-.5289c2.1841-.8,2.7711-1.8171,2.6483-3.295l-.6825-8.8275c-.1911-1.8444-.0683-3.7157-.6553-5.6549l-6.1839,1.2207c-4.3.678-8.6001,1.0306-12.9138.2303-3.8495-.7184-6.3477-2.9697-7.4261-6.7256l-.901-4.5292c-.0955-.6914-.1911-1.3697-.6416-2.2375-.4505,3.051-1.0375,5.7904-2.0613,8.421-.8873,2.2917-2.0067,4.4611-3.4537,6.4411-1.7746,2.4273-3.9315,4.3664-6.7981,5.5325l-11.7807,4.3934c-.3003.0951-.5733.3118-1.0648.0816l.8873-.7053c3.795-2.373,6.9483-4.7052,10.088-7.092,3.5219-2.6714,6.4705-5.8986,9.1871-9.343.6416-.8135,1.1876-1.6812,1.3378-2.7253l.2867-.1901-.1092-.2576-.1229.3118-.7098-.1625c-1.5699-4.2986-4.2318-7.3226-6.8664-10.5229l-4.4502,6.1022c-1.5425,1.9934-3.2626,3.8375-5.4058,5.2072-4.4502,2.8474-9.1598,1.5865-11.576-3.1055-1.447-2.8069-1.488-5.8171-1.2013-8.8545.5324-5.37,2.5664-10.1703,5.7061-14.5367l2.8257-3.8644c-1.72-.4612-1.7337-1.6408-1.6654-2.9154l.0137-3.6477c3.167.9763,10.5248,6.7121,11.5213,8.9226-1.2695.6507-2.4708-.651-3.713-.1763.5324,1.5322,4.3683,6.4815,7.9994,10.3328l3.44-3.0648c1.3787-1.1661,2.8257-2.251,4.4229-3.0917l1.1603-.949c-.546-4.2579-.3549-7.6752-.9692-11.1736l-5.8972,3.6612c-.6007.3526-.3959.9085-.3822,1.3832.1092,3.5391-.7235,6.8749-2.1705,10.0752l-.2184.4474c-.4095-1.2204.2867-2.4816.5051-3.8105.4368-2.5763.5051-5.0986-.2184-7.6207-.6553-2.3052-1.8565-4.2851-3.8359-5.6411-1.1194-.773-1.4606-1.4918-.8873-2.6983l.1502-.6105c-2.348.9901-4.1362,2.6714-5.8289,4.6378-.2048-1.6681.2457-3.146,1.2559-3.9868l4.6277-3.8105c2.9213-2.6171,6.2794-4.6509,9.3645-7.0374l.2321-.0138c.5051,1.2612.0683,2.1697-.9965,2.9292l-6.4159,4.6644c-.314.2306-.6007.4747-.901.7322l-1.3378,1.1664c4.2454,3.1865,5.2283,4.624,6.4842,8.5022,2.3753-.9628,4.1499-2.7529,6.0747-4.3121l.5051-1.0849c-.2867-2.7664-.4368-4.8819-.6279-6.9835-.1365-1.424-.0546-2.7934.5051-4.1496l1.0784-3.322c.2048.2711-.041-.0273.2048.027l.1365.0543.2594.6375c.628,3.9052,1.1876,7.5121,1.7883,11.2683,1.1467-.4474,1.8838-1.3559,2.7438-2.0747l4.3819-4.3529c.7372-.9085.7235-.9085-.3003-1.573l-.9556-.6507c-1.5289-1.0036-1.6518-2.0069-1.2832-3.0375.6143-1.695,1.6927-3.024,3.4264-3.7157l1.8019-.2033c.9419,2.2783.9692,3.4579.7372,4.597l-.1775,1.5457c1.5016,1.3562,1.3378,3.0648.6416,3.8648l-.8327.2711c-.9146-1.3016-1.4197-1.2339-2.0613-.3796-1.9521,2.5763-4.2591,4.8411-6.7708,6.8614-.8873.7187-1.2149,1.5187-1.0921,2.6579l.9556,10.5091c2.1978-.4612,4.027-1.7085,6.1702-2.3187l-.6279-1.2885c-1.6518-3.2135-1.6518-5.7901.0546-8.2443,1.406-2.0207,3.2626-2.5493,5.5969-1.7223l.9556.3934c3.0988,1.7763,5.3648,3.7697,7.5353,5.8986l.8191,1.2069c-1.0648,2.1016-1.0238,3.824-2.1023,4.6648-.9965.7727-2.5118.8947-3.7949,1.3016l-.9829.2984c-1.2286.3796-2.0886.4069-2.6346.9493l.2184,1.3424-.4368.8543-.3686.0678c-.9146-1.7358-.9283-1.7763-2.6346-1.0714l-6.5797,2.8477c-.7508.3253-1.0511.8273-.9692,1.6681l1.2286,13.8041c.8464,5.6003,3.6721,8.3667,9.4464,9.0039,4.8734.5424,9.6648.0273,14.3881-1.3289l.9965-.5968c-.0546-4.9358-.4368-9.0851-.6552-13.2482l-.5733-7.2953c-.546-7.3631-1.2832-14.6992-2.2251-22.0215l-1.1603-8.7736c-.041-.3118-.0819-.651-.0273-.949.3276-1.8309,1.0648-3.5259,1.9657-5.5733.8054,2.2102,1.0784,4.1358,1.406,6.0476,1.5562,9.4515,2.3753,18.9709,3.1807,28.5037l1.5971,20.286c.041.6237-.0137,1.3016.6143,1.8849,3.9861-1.3562,7.8629-3.051,11.4668-5.3835,1.1194-.7187,1.0238-1.6678.8873-2.6983l-1.0511-8.0141c-1.2559-9.0854-2.5118-18.1844-3.7813-27.2695l-.0137-1.4105c-.9829-.7457-1.0648-1.1796-.9965-1.5727l1.3924-5.1529c1.5972,1.2609,3.0578,2.4,4.4911,3.5799l11.5214,10.5904c8.327,8.5565,12.0537,18.808,11.3985,30.6596l-1.0511,6.0615c-1.1876,4.6782-2.6483,9.2614-4.6686,13.6551l-.2184.6102-.5461-.8681c1.2696-3.6612,2.3343-6.8072,3.0988-10.0752,2.7575-11.8242.0956-22.3741-7.4534-31.8119-3.5629-4.448-7.6308-8.3667-12.1356-11.8518l-.4641-.4474-.5733,1.0036c1.406,7.919,2.348,15.4314,3.3581,22.93l.5324,5.7496c.1229,6.0884-2.2251,10.8344-7.822,13.7364l-6.1839,2.7526c-.9556.3526-1.2968.8408-1.174,1.8444.3959,3.3763.4095,6.7937,1.2149,10.1157.4505,1.8444,1.3241,3.4852,2.6073,4.8819l.8464,1.1796.86.1763.1365-.1085-.1229-.0678M97.6286,107.9936l-.7235.7457c-2.621,3.9595-4.7369,7.7022-6.1019,11.8245-.7781,2.3187-1.2695,4.6782-1.2422,7.1595.0546,3.146,3.1261,6.0072,6.8391,5.3022,2.1022-.4069,3.8632-1.4102,5.4057-2.8342,2.1432-1.9661,3.9315-4.2444,5.6788-6.5496l.6007-1.2881c-2.3207-2.6714-3.9042-4.7052-5.3512-6.8342l-5.1327-7.5397M120.2618,118.0685l-.8054.2984c-1.2968.8273-2.4026,1.5052-3.44,2.251-2.5118,1.8036-2.5391,1.8444-.6962,4.2444,2.2114,2.9019,3.6311,6.048,3.481,9.7769l-.0819.5424c2.7302-5.5325,1.5971-11.214,1.5425-17.113M137.4893,105.1999c-1.5972-1.5592-3.2489-2.671-5.242-3.2677l-.8873-.0951-1.4879.8c1.174,1.6408,1.9248,2.5088,2.6346,3.4036l.9556.5697c1.6654-.5832,2.7438-.9628,4.027-1.424M129.3397,84.0192l.7508.7457.9283.8408.4095-1.1934-1.3651-.7457"/>
    <path class="cls-1" d="M215.9547,321.6201l-.8463.2711c-8.3134,7.9463-17.3094,14.4281-26.6056,20.5031-8.5864,5.6138-17.1728,11.2278-26.3872,15.811-9.5966,4.7733-19.6164,8.2989-30.3323,9.5466-20.8313,2.4135-38.4955-4.0819-52.9109-19.1064-6.7435-7.0243-10.8798-15.5535-13.1595-24.9777-1.5835-6.5361-2.1568-13.167-1.9248-19.8794l.6962-7.6614c.041-.3796.041-.7592.0546-1.1253l-.6552.0947c-2.5118,2.8342-5.3648,3.2273-8.6274,2.373-5.6924-1.4914-9.4601-5.0578-11.6442-10.3871-1.5562-3.7967-2.1568-7.7835-2.3343-11.8515-.273-6.0749.5733-12.0413,1.7064-17.9807,2.4299-12.8413,6.7299-25.127,11.4531-37.2769,4.1772-10.7937,9.1051-21.2623,13.8557-31.8122l7.8629-16.5298c.3003-.5829.3959-1.6408,1.2695-1.4237l.7098,1.2747c-.2594,3.295-.9965,5.7631-1.8156,8.2039l-6.9756,18.1705c-5.2146,12.8686-10.4156,25.7238-14.5792,38.972l-2.266,7.77c-.3003,1.2069-.8873,2.3052-1.133,3.5526-.9283,4.7055-1.6108,9.4243-1.1467,14.2248.2867,3.0102.6416,6.1154,2.0886,8.7598,1.6245,2.9697,3.6857,5.7358,7.2077,6.8749,2.4026.773,4.5731.3118,6.5797-1.1934,2.348-1.7628,3.7676-4.2171,4.9826-6.7799l3.1261-7.6614c.2867-.8546.6006-1.695.9419-2.5223l.273-.6237.9692.4066c.5733,1.7766.5324,3.2411.3822,4.7325-.4641,4.2986-1.488,8.4752-3.0032,12.516-1.3924,3.7019-2.0749,7.5397-2.5254,11.4449-.8191,7.1463-.5324,14.238,1.2149,21.2215,2.6892,10.7397,8.7912,19.1876,17.7871,25.6017,9.1324,6.5088,19.3433,10.1295,30.5507,11.1871,10.5521.9898,20.7357-.7457,30.7555-3.7562,10.5248-3.173,20.217-8.1631,29.5815-13.7907,10.2518-6.1562,20.0395-12.9499,29.3767-20.408,1.3924-1.1118,1.6381-2.1832,1.4197-3.7697-.8873-6.4411-1.3105-12.8956-.9556-19.3909l1.9111-18.3742c.1775-1.1118-.0819-1.9934-.628-2.9019-3.3445-5.573-6.7981-11.0785-10.8115-16.2041l-.8191-1.5325c1.2559-7.4716,2.7985-13.8989,4.5048-20.286l.2457-.5424c4.2864,5.8309,7.8493,12.218,12.2994,18.1709l.7645-1.1664c3.9724-11.3226,9.4737-21.235,15.917-30.6865,3.5356-5.1799,7.4261-10.0617,11.535-14.7805l2.7711-2.6714c.9146-.773.8191-.9628-.0273-1.8306-1.6245-1.6681-3.6994-2.6852-5.5696-3.9868l-8.2997-5.6818c-3.1534-1.749-6.2248-3.6204-9.1052-5.7358l-10.9617-8.1904c-2.894-2.4816-4.7778-5.668-5.9791-9.1667-2.3343-6.848-2.7575-13.8176-.5733-20.8149,2.2251-7.119,6.9893-11.865,13.9376-14.4821,3.9451-1.4918,8.054-2.2917,12.2449-2.7799,10.3747-1.2069,20.7903-.922,31.1787-.5559l32.926,1.4375c9.2826.5016,18.5652,1.2204,27.8478,1.8849l11.3848.9763c.7508.0543,1.5289.2984,2.3207-.0951.1911-1.3016-.273-2.5358-.5051-3.7832l-4.1089-25.656c-1.2559-8.5022-2.4162-17.0314-3.5902-25.5471-.1502-1.1256-.4778-2.1424-1.4333-2.8207l-.9419-1.3829c1.8565-6.4006,3.3854-11.838,4.9143-17.2758l.4778-1.6816.8736-.4882c4.2728,6.2243,9.1461,11.5397,14.2652,16.6383l22.2646,22.0218c7.0438,6.997,14.1423,13.9397,20.3535,21.6962,13.3779,16.6791,22.1145,35.5006,26.237,56.4238,1.4743,7.5124,2.348,15.0788,2.7438,22.7268l.2048,12.1229c-.2321,9.2479-1.2149,18.4281-2.853,27.5405-2.9486,16.3265-7.9312,32.002-14.5928,47.1758l-4.3819,9.2344c-.1911.3934-.3549.8273-.86,1.1526l.2593-1.4372c4.4911-12.9229,7.6581-25.4797,9.9788-38.2532,1.4197-7.8378,2.3479-15.7298,2.9349-23.6761.4505-6.1019.4778-12.2042.273-18.2926-.9419-27.1204-8.7502-51.9896-24.7764-74.1739-8.2588-11.4315-17.7871-21.6965-28.312-31.08l-12.4087-10.7805c-.2047-.1763-.4095-.3118-.7917-.1763-.0546,1.8987.5051,3.7427.8463,5.6006l6.0747,32.7477c.5597,2.9832.5597,2.9424,3.6448,3.2l13.3097,1.2477c.3276.027.6416.1355.9555.1628l.942.5424c-1.0238,2.4408-1.7063,4.2441-2.5254,5.9934l-5.5696,11.8653c-.6006,1.3289-1.406,2.2102-2.853,2.6036-.9146.2441-1.993.5421-2.5936,1.1931-.7099.7595.0682,1.8714.2866,2.7256,2.1296,8.0953.6826,15.9331-1.5698,23.7169-1.8292,6.3325-4.2318,12.4482-8.3134,17.6959-7.2759,9.37-16.8315,14.3874-28.8716,14.3466-3.8086-.0135-7.4807-.773-10.7023-2.9019-5.0372-3.3358-7.1121-8.2986-7.4261-14.116-.273-4.9766.4778-9.8581,1.4743-14.7127l.2321-1.3562-.9829-.4204c-13.3369,6.3463-25.3088,13.8992-36.4889,22.7133-3.4127,2.6986-3.3854,2.7256-3.7676,7.1598l-.4368,3.4852c-.7235.0947-.7918-.3661-.9419-.678l-1.2695-2.8072c-.314-.7865-.7508-.7592-1.3241-.2845l-3.2899,2.6848c-8.6683,7.3088-16.3674,15.4992-22.6059,24.9777-2.3753,3.6069-4.5458,7.3226-6.334,11.2413l-.6689,1.1118c2.1841,1.424,4.4229,1.6273,6.5661,1.5052,12.6544-.7049,23.5615-5.4917,32.4618-14.4686,2.4435-2.4543,5.2283-4.3664,8.0131-6.3325l.9419-.3661c.9965-.3391,1.5153-.9763,2.0476-.3934l.1365,1.1256c-1.0511,3.4848-1.8565,6.468-2.9622,9.343-1.1603,3.0102-.3413,5.2746,1.8975,7.4309,3.1124,2.9832,6.8664,4.3256,11.0436,4.475,7.0575.2441,13.528-1.6273,19.3024-5.7766,3.795-2.7256,6.2112-6.4953,8.2724-10.5229l2.7438-5.9529c1.9248-4.4069,5.0781-7.8512,8.682-10.9295l.2457-.0543.3549,1.3697c-1.3651,4.1631-2.5254,7.6345-3.6584,11.1193l-.9965,3.3223c-.546,1.5595-.1229,2.9154.7644,4.1766,2.4162,3.4441,5.8699,5.1664,9.9515,5.6546,5.7607.6914,10.1972-1.4918,13.3369-6.3598,1.6927-2.6171,2.894-5.4378,3.9587-8.3394l2.5664-6.2243c.2867-.5016.5733-1.0171.9282-1.4645l.9283-.9898c1.3787.5559,1.6654,1.1526,1.6927,1.8306l.0273.5289c-1.0102,3.2408.1638,5.7901,1.6927,8.2443,2.0476,3.2681,4.8597,5.8312,7.9448,8.0818l7.508,5.1259c6.7436,4.1223,10.5112,10.2515,12.3677,17.7094,1.4743,5.8989,1.5152,11.8245.3413,17.764-1.5563,7.8785-3.5765,15.6347-6.5251,23.1337-3.3718,8.5565-8.0677,16.3535-13.6782,23.6218-5.3102,6.8884-11.0709,13.4245-17.5141,19.2824-10.1153,9.2075-21.6503,16.191-34.4685,21.0725-7.8902,2.997-16.0125,5.0444-24.3942,5.9529-13.0366,1.424-25.6637,0-37.6492-5.6003-4.1089-1.9253-7.9039-4.3526-11.4941-7.119-3.1534-2.4408-5.8426-5.3427-8.5455-8.2447-2.1841-2.3322-4.2181-4.8003-5.8016-7.5259-2.6073-4.4884-4.8324-9.1802-6.7162-14.0212l-1.7883-4.746M264.2925,249.6699l-1.4607,1.0579c-1.8701,1.8441-3.1534,3.2003-4.4639,4.5427-7.4261,7.6341-16.4084,12.1226-27.0834,13.1397l-1.2149.4474c.2594,2.6579.4368,4.448.5187,6.2513.2048,4.8276-.0273,9.6279-.7917,14.4008-1.0102,6.4141-2.1568,12.7874-4.7369,18.808-.4095.9628-.4232,1.8036.0273,2.7664,1.9384,4.0681,4.0134,8.0545,6.6343,11.743,6.5934,9.3292,15.0706,16.3808,25.8002,20.5436,9.6375,3.7292,19.6437,5.2749,30.0047,4.5292,7.4534-.5424,14.7566-1.7358,21.8278-4.1223,8.8594-2.9832,17.0773-7.3226,25.0084-12.2042,15.9989-9.8581,28.7898-22.8896,38.7685-38.7144,3.208-5.0848,4.3137-10.5091,3.3035-16.3942-.7235-4.1763-2.3752-7.8105-5.747-10.6039l-8.9823-7.0378c-4.7915-3.3358-8.6683-7.4851-11.7261-12.4074l-.8054-1.3154c-.6689-.9628-.7508-1.4918-1.3378-1.4645l-.5597,1.451c-1.6518,4.8815-3.3854,8.8818-6.02,12.4347-1.5835,2.1424-3.5219,3.946-6.1565,4.746-5.788,1.7355-11.1255.8812-16.0398-2.6986-3.7131-2.6983-6.375-6.1427-7.9994-10.4006l-.1228-.651-1.3105,1.3424c-1.2832,3.2138-2.3616,5.6276-3.9588,7.743-4.655,6.1022-10.8388,9.7904-18.3741,11.2413-5.1191.9898-10.0607.4882-14.5792-2.2779-4.3683-2.6714-7.508-6.2513-8.2451-11.5262l-.1502-5.3427M325.7489,145.7992l-.6143-.2849c-6.607-.678-13.1049-1.2474-19.6164-1.6678l-13.3369-.8408c-6.6343-.5289-13.2823-.7592-19.9303-.9355-9.228-.2441-18.4697-.3526-27.7113.149-5.9382.3253-11.8626.7322-17.7325,1.722-3.1261.5289-6.2248,1.1934-9.0779,2.6579-3.0441,1.546-3.1534,2.9832-.4095,5.0582l5.4194,3.3763c8.2178,4.746,16.422,9.5058,23.9437,15.3094,4.7915,3.6884,9.0779,7.8243,12.0811,13.1397l.3003,1.0036c20.5309-16.0689,43.2051-27.7576,66.6847-38.6601M346.389,155.6303l-.7371.2441c-4.0134,1.7628-7.6855,3.3493-11.3166,5.0036l-27.0697,12.4213c-1.5835.7322-1.6518.8135-1.3924,2.2917,1.133,6.2509,4.0816,10.4683,10.7433,12.2311,4.382,1.1526,8.8185,1.1256,13.255.4069,6.5933-1.0714,12.6544-3.4713,18.1966-7.2141,1.9794-1.3289,2.5391-2.9019,2.2114-5.2072l-3.0714-17.4248c-.1775-.922-.1502-1.9391-.8054-2.7661M220.6369,298.7848c1.3651-.773,1.9794-1.8441,2.8121-2.7121.7917-.827.9556-1.695.6962-2.8069-1.2422-5.3292-2.9895-10.4821-5.0645-15.5262l-.3686-1.0714c-.9692,7.2545-.2047,14.6449,1.9248,22.1166"/>
    <path class="cls-1" d="M357.692,288.1129l.0136.9358c-2.5663,5.3289-5.2692,10.1022-9.1734,14.0212-5.1054,5.1256-11.0026,8.9088-18.4696,9.6683l-4.027-.3256c-3.9861-1.0033-6.0474-3.9052-5.6242-7.9868.3549-3.3628,1.5426-6.4818,2.9759-9.5058l4.1635-7.8239c1.2422-1.9799.9146-2.6444-1.4743-2.9019-2.9486-.3118-5.8016.0947-8.5318,1.2747l-3.8769,2.1694c-.3959.2849-.7371.746-1.5426.5832.6962-2.7256,1.2559-5.4647,2.4026-8.041l.9419-1.2069c3.0715-2.0342,5.7743-2.8612,8.6274-3.2138,1.8429-.2171,3.6721-.5832,5.5696-.0951,2.1569.5562,2.8531,1.3832,3.0305,3.5529.2867,3.4579-1.1057,6.3868-2.7438,9.2614l-3.9042,6.6447c-.3822.6645-.7371,1.3559-1.0238,2.0747-.8737,2.224-.4641,3.7967,1.406,5.2749,1.9794,1.5592,4.2591,2.0612,6.7572,1.6543,6.1565-.9898,11.4804-3.7427,16.3265-7.5394,2.7575-2.1697,5.1191-4.6917,7.1121-7.5667l.4231-.8135"/>
    <path class="cls-1" d="M287.772,297.1849c-1.2695-2.3325-2.853-4.4207-4.7778-6.2513l-2.9349-1.8036c-1.7883-.5559-3.3581.0135-4.3547,1.6l-1.2832,3.6072c-.8054,3.5799-1.2013,7.2141-1.5835,10.8479-.5187,4.8411-.6143,9.7364-1.5289,14.5502-.5051,2.6579-1.2149,5.2615-2.3752,7.7157-.3686.773-.7099,1.6273-1.7746,2.224-1.8429-9.8312-6.2658-18.2521-12.6544-25.9001-1.0375,1.1661-1.1194,2.6171-1.6654,3.797l-.3959.054c-2.9759-2.8069-6.5661-4.4342-10.1563-6.0611-2.4572-1.1121-2.7438-1.6138-2.5254-4.2986.2457-3.173,1.174-6.1835,2.2797-9.1259.8191-2.224,1.6927-2.5631,3.8359-1.573,4.7505,2.1967,8.7229,5.4375,12.0947,9.3835l5.2419,7.5937c2.2387,3.9868,3.9451,8.1634,5.3648,12.489l.2184.7053c1.2695-4.8684,1.679-10.1568,2.1432-15.4452l.7372-5.7223c.4778-3.1865,1.0784-6.346,2.3753-9.3295,1.1057-2.5355,2.3479-4.9493,4.7505-6.5223,1.488-.9763,3.0578-1.2204,4.6822-.2171l2.894,2.224c1.447,1.478,2.7302,3.0917,3.9042,4.7733l.9282,1.1253c-1.1467,3.7154-2.0613,6.6447-2.9759,9.5601l-.273.0135"/>
    <path class="cls-1" d="M121.5586,178.5334l.2321-1.5322c3.0305-2.1019,5.5559-3.6884,8.2451-5.4378.2048,1.5865-.6962,2.2375-1.5699,2.8477l-5.7743,3.824c-.314.2033-.587.5154-1.1194.2984"/>
    <path class="cls-1" d="M159.7402,110.9226l.1775.5286c-.901,2.346-1.8292,4.3121-2.3889,6.4276-.273,1.0036-.4232,1.9934.0683,2.997l1.5289,1.6c1.1876-1.6138,1.2286-2.0612,1.6791-2.1697l.3413,1.2204c-.7235,1.7089-1.0648,2.4138-1.7337,2.875l-1.761.3661c-1.2559-1.4645-1.5152-2.3187-1.5971-3.2273l.4778-3.4036c.7508-2.319,1.6518-4.57,2.7029-6.7667l.1911-.4609"/>
    <path class="cls-1" d="M157.1056,84.86c-.1502,1.4645-.9829,2.7118-1.488,4.0408l-1.1057,3.8375c-.1365,1.0579.0683,2.0342.86,2.8342l1.0921.6914c.8464-1.2609,1.1876-1.7898,1.5562-2.3322.4914,1.5052-.587,4.1901-1.8975,4.624l-1.2559.3118c-1.3514-1.8033-1.7473-2.8477-1.6381-4.1358l.9419-4.095c.7781-1.9934,1.6245-3.9733,2.4299-5.9529l.3549.122"/>
    <path class="cls-1" d="M177.0769,109.3903l-.3959,1.6c-.8737,2.2917-1.5699,3.824-1.9657,5.4375-.2594,1.0849-.3549,2.1562.273,3.1733l1.3924,1.2204c1.174-1.4918,1.3514-2.0612,1.8702-2.4003.1638,1.3832-.5051,3.4444-1.3924,4.2444l-1.6244.651c-1.8975-1.6543-2.1705-2.9697-1.993-4.2309.4914-3.3901,1.8565-6.5223,3.4127-9.5598l.2184-.0678"/>
    <path class="cls-1" d="M95.7721,140.2532l-.0136,1.2204c-.9556,2.2645-1.6245,4.0003-2.1022,5.8036-.273,1.0579-.4368,2.1427.314,3.1325l1.5152,1.1253c.9965-1.5457,1.174-2.0204,1.3924-2.4677l.546.5559c-.3003,1.4375-.6689,2.4681-1.3378,3.3628-.9146,1.2477-2.0203,1.2885-3.0168.1085l-.86-1.573c-.2867-2.8477,2.0749-9.5598,3.5629-11.2683"/>
    <path class="cls-1" d="M138.6905,153.4198c-.041,3.0375-2.0203,5.0447-4.4092,4.8006l-1.3924-.4885c-.3549-1.9661-.232-2.9967.041-3.9595l1.7746-5.2884c.1092-.3118.2457-.6645.6279-.6102l.4095.4612c-.4505,1.3289.0819,1.7763.9556,2.1832,1.2968.6102,2.2797,1.5322,2.0203,2.8881M134.1038,152.7419l-.1638.7595c.0273,1.7493.9829,2.4,2.2934,1.8714l.6689-.4069-.1365-1.0983c-1.0102-.5424-1.6381-.9763-2.6483-1.1256"/>
    <path class="cls-1" d="M184.8579,127.927c.1502,1.5865-.4914,2.373-1.6108,2.9967l-12.8045,7.1598c-.7098.3931-1.3514.9493-2.3616,1.1796.2048-1.2609.3413-2.3592,1.5016-2.9967l15.2753-8.3394"/>
    <path class="cls-1" d="M126.6641,125.581c-.3413-1.5187.5324-2.3187,1.7473-2.9967l12.5588-6.4683c1.8565-.9085,3.7131-1.7898,5.6924-2.7391.2321,1.3832-.3686,2.1832-1.3924,2.7391l-1.3924.6918c-5.9655,2.9288-11.1801,5.6272-16.2855,8.5291l-.5324.3661"/>
    <path class="cls-1" d="M140.5061,124.008l1.133,4.8819c.1911.8405.4914,1.6,1.1194,2.1832l.6416.5151.7508-.8135c-.1229-1.2204-.546-1.9664-.8327-2.7391-.5597-1.4783-.7508-2.9562,0-4.4342l.587.5151c.2184,1.6408.7372,2.8069,1.2013,4.0138.587,1.5052.6143,2.9967-.1365,4.4615-.9556,1.8441-2.2524,1.9931-3.5765.4066l-.4368-.5967-1.2559,1.0579c-2.2387,1.8441-3.7813,1.3967-4.3137-.5559l-.2048-2.875c0-.949.1229-1.9118-.3003-2.8477-.4095-.922.0273-1.6947.6825-2.6306.6553.9085.7372,1.7628.7508,2.6306l.041,3.0783c.0956,1.1661.9146,2.0612,1.72,1.9934.8873-.0678,1.9794-1.2881,2.034-2.2375l-.5187-3.024q-.3003-1.3694.8873-2.9832"/>
    <path class="cls-1" d="M134.6362,173.8959l.6143.3118c1.2422.9085,2.1432,1.6273,3.0851,2.3187l1.1876.7595c1.4606-1.7901,2.0203-2.5766,2.5664-3.3631l.7644-.6237c1.8292,1.4372,3.1534,2.4543,4.4638,3.4848l.4505.6102c-1.1057,1.4783-1.8975,2.5628-2.7029,3.6477l-.7371.4477c-1.2559-.9493-2.0749-1.573-2.894-2.1832q-2.0067-1.5052-3.5356.5694l-.6689.9493c-.6962,1.0306-1.133,1.0711-1.6245.678l-3.6311-2.495c-.546-.2714-.9146-.9358-.3959-1.6273l2.3207-3.0783c.1638-.2303.3822-.3253.7508-.3661"/>
    <path class="cls-1" d="M151.0719,312.2906c-.4914,4.0276-1.8429,8.0683-4.614,11.5262-2.6756,3.3493-6.7709,3.2681-9.4464-.1625-1.8019-2.319-2.4845-5.0309-2.621-7.9058-.1774-3.4441.4095-6.7664,1.488-10.021,2.7575-8.3529,6.0883-16.4755,10.3064-24.232l.1502-.2168.4095-1.0441.8873,1.0168c-.5051,1.546-.8873,2.7121-1.3514,3.8378l-2.8804,6.5223c-2.1705,5.0851-4.1908,10.2242-5.2829,15.6485-.6689,3.3628.3003,6.346,2.3616,9.0039l.7098.7457c2.4845,1.6816,4.3,1.424,5.8426-.5289l2.6346-4.4746c.1638-.3526.3003-.7187.4641-1.0579l.2867-.4339.6416.4204.0273.7595"/>
    <path class="cls-1" d="M207.4501,68.8723c.4914,1.0036.3003,1.8987.1638,2.7529-.5733,3.6612-1.8702,7.0647-4.0543,10.1022l-.2321.3118c-2.7575,3.4579-5.5559,3.7154-8.7639.9085-1.8292-1.6-2.6619-3.7424-3.167-6.0342-.901-4.0815-.3003-8.0683.901-11.9601,2.621-8.4075,6.0337-16.5028,10.1153-24.3271l.6143-1.1253,1.0375,1.3016c-1.3924,3.3358-2.4708,5.7361-3.5356,8.1496-2.1978,5.0039-4.1499,10.0887-5.515,15.391-.901,3.5121-.4095,6.7394,1.6791,9.7091l.546.7184c2.4845,2.4816,4.6686,2.3595,6.5797-.027l2.4435-4.1493c.2594-.5559.314-1.2612,1.1876-1.7085"/>
    <path class="cls-1" d="M167.3165,398.0181c0,3.7967-1.0648,7.3088-2.9076,10.6446-2.1023,3.8376-5.3375,3.7019-8.368,1.9391-1.9794-1.1526-3.1124-3.024-3.9042-5.1256-1.5153-4.0138-1.7473-8.1361-1.0238-12.3262,1.5425-8.8006,3.8632-17.3978,6.8937-25.8185l.5324-1.302.6825-1.0171.5733.4204c.1638,1.1391-.1092,2.0885-.3686,2.997l-2.307,7.9463c-1.4606,4.8003-2.5391,9.6818-3.2353,14.6449-.4914,3.6069,0,7.0105,2.4708,9.9259l.9556,1.0171c3.1397,2.0339,4.8734,1.7763,6.375-.8,1.0375-1.7901,2.2251-3.5664,2.4981-5.7088l.1092-.6375.9829.3253c.0273,1.1799.0137,2.0072.0137,2.8477"/>
    <path class="cls-1" d="M376.2026,209.2607c.0546-4.1901,1.0648-8.0818,2.4571-11.9058,2.5801-7.0651,5.9245-13.7907,9.3645-20.4758l4.6687-8.8006c.4504-.7322,1.0921-1.7223,1.761-1.4645l.314,1.5049c-1.133,3.1868-2.4162,5.492-3.6448,7.8243-3.5765,6.7802-6.8527,13.6686-9.2007,20.9777-1.1194,3.4713-1.2969,6.9157.0682,10.3733.6006,1.519,1.4197,2.875,2.6073,4.0141,2.3479,2.2102,4.7096,2.2102,6.9756-.0681,1.6518-1.6543,2.7165-3.7289,3.8905-5.7223l.3549-1.695,1.2559,1.4645c-.9419,6.0887-3.0715,10.9976-6.8527,15.0791-2.9486,3.1865-5.7334,3.322-9.2553.7457-1.6791-1.2204-2.7439-2.8612-3.481-4.7595-.8873-2.3052-1.2422-4.7055-1.2832-7.0651"/>
    <path class="cls-1" d="M295.6486,108.5088c-5.1737.0408-7.5626-2.3052-7.3442-6.5766.1775-3.5394.9419-6.943,2.348-10.265l5.3785-12.5703c.6553-1.3967,1.3787-2.7664,2.0749-4.1358l.3413-.6918,1.0375-1.3424.9146,1.2881c-.4232,2.0207-.7781,3.5256-1.1876,5.0174-.314,1.1526.0136,1.9256,1.0238,2.5901l5.3785,3.7832c2.58,1.7763,3.6175,4.1088,3.3718,7.2683-.4232,5.1934-2.3889,9.5463-6.3886,12.9364-2.2524,1.9118-4.928,2.6441-6.9483,2.7118M297.6143,100.0065c1.9384.0813,3.754-.6102,5.4877-1.4645,2.1978-1.0983,2.2524-1.5322.4505-3.1868-2.5664-2.3592-5.5696-4.122-8.5591-5.9121l-1.0511-.149c-.7508,1.9118-1.1194,3.2-1.5016,4.5019-.8327,2.8204,1.2559,6.5088,5.16,6.224"/>
    <path class="cls-1" d="M178.7969,287.2721l-.3959-.1898c-6.5797-3.5391-12.9411-6.9562-19.2887-10.3871l-1.1057-.6914c.5324-2.8612,1.5426-3.675,2.1295-4.7868l6.607-12.1907c.6416-1.1796.6553-1.2069,1.8702-.5559l19.0567,10.265c1.2695.6918,1.2695.7322.5597,2.0612l-8.4772,15.5673c-.2048.3796-.273.8947-.9556.9082"/>
    <path class="cls-1" d="M25.3198,190.6968c-.2048-3.4983.587-6.997,1.5016-10.4956,2.0613-7.8239,5.0781-15.3229,8.2588-22.7402,2.6892-6.2513,5.201-12.5838,8.6956-18.4689l.7644-1.3424c.6143-1.0306.8191-1.573,1.3787-1.3697l.6279.7595c-.3276,1.4645-.5051,2.4273-.8054,3.3358l-3.1943,7.6341c-3.1534,6.8345-6.0337,13.7637-8.4772,20.8827l-2.0886,6.319c-.9419,3.0783-1.2013,6.2647-.9692,9.5193.2048,3.024,1.3514,5.5868,2.9486,8.0276.9965,1.5187,2.2797,2.7934,3.9178,3.6612,2.3753,1.2612,4.6277,1.0036,6.607-.7865l2.6619-3.295c1.1603-1.9253,2.2251-3.9052,3.0851-5.9934l.314-.7053.5187-.922.86.5424c.041,1.2747.1775,2.2645.0273,3.2-.9829,6.3733-3.1397,12.2992-7.1667,17.4521l-1.2149,1.3289c-2.7984,3.0375-5.3921,3.4579-8.368,2.3865-3.3991-1.2204-5.8972-3.4171-7.467-6.6174-1.8838-3.8375-2.4981-7.9328-2.4026-12.2992"/>
    <path class="cls-1" d="M205.6482,409.3814l.3958-.6102c.1775-3.6884.4095-7.0243.4778-10.3601.1092-5.2069.4641-10.3871,1.9658-15.4179.6689-2.2372,1.5426-4.3526,2.9759-6.224.6689-.8812,1.4197-1.6678,2.4571-2.1289,1.2832-.5694,2.5391-.4474,3.7131.2576,2.7029,1.6546,4.5867,4.1088,6.4705,6.5496l.314.7187c-.8054,3.024-1.5289,5.668-2.2524,8.2716l-.7917-.5424c-1.174-1.6408-2.1568-2.9154-3.3172-4.0411l-1.0511-.9625c-3.6584-2.4408-6.0337-1.546-7.0302,1.9934l-1.1057,7.2276c-.2457,3.4575-.3413,6.9154-.4914,10.3871-.1638,3.9187-.4914,7.8105-1.5835,11.6075-.4505,1.5729-.86,3.2-2.2933,4.6782-1.0238-2.9697-1.6654-5.8445-2.9213-8.4887l-4.1908-7.5937c-1.6518-2.4408-3.44-4.7595-5.6515-6.9565l-1.2695,3.5937c-.9419-.2171-1.4333-1.0579-2.1841-1.4918l-6.7982-3.2681c-.3549-.149-.7235-.2711-1.0784-.4204-2.0476-.8408-2.3206-1.2069-2.1568-3.4171.2184-2.8885.8873-5.7088,1.7746-8.4614l.4232-.9358c.6826-1.1388,1.3105-1.3559,2.0886-1.1253l2.8667,1.1661c5.8153,3.024,10.2791,7.4986,13.842,12.9091,2.5118,3.8375,4.5594,7.9058,5.9655,12.2856l.1092.6373"/>
    <path class="cls-1" d="M332.82,377.6643c2.7438,4.6917,1.9111,9.1259-.3959,13.4788-.9692,1.8306-2.307,3.4036-4.0134,4.6375-3.4127,2.4546-6.7162,2.224-9.7741-.6914l-.2184-.122-1.0375.7727c-1.7473,2.0477-3.2489,3.4579-5.16,4.3529-2.6892,1.2477-5.3921,1.478-7.8766-.4069-3.1124-2.3592-6.3067-2.2102-9.6375-.5694s-6.1565,4.0003-8.8731,6.4818l-6.5798,6.2647c-4.7095,5.0309-10.5248,7.9869-17.1728,9.492-6.3613,1.4375-12.7636,2.6171-19.2614,3.3087l-.8873.2441.4641-1.0306c7.9858-2.4679,15.3982-5.1121,22.4694-8.6106,6.9074-3.4036,12.9138-8.0141,18.3332-13.411,3.1943-3.1868,6.4569-6.3055,10.1836-8.8818,2.6346-1.8171,5.4604-3.1595,8.7775-3.173,1.7337-.0138,3.2899.4474,4.7505,1.3829,4.382,2.8069,9.2417,1.7493,11.9855-2.6983l3.3854-6.2647c.3276-.5832.6416-1.695,1.3105-1.4102l.1229,1.3424c-.4232,1.6405-.9146,2.5628-1.2422,3.5391-.4641,1.3694-.1911,2.2237,1.0921,2.8881,1.7064.8951,3.5219,1.2612,5.4058.502l1.174-.7187c-.4505-1.3967-.628-1.7493-.7917-2.1019l-.2867-.9763c.3822-1.8849,2.58-6.2378,3.7403-7.6072"/>
    <path class="cls-1" d="M208.9653,97.3487l2.1705-5.8713c.6962-2.2917,2.0749-3.7427,4.1635-4.9631l30.5371-17.1807c16.3538-8.8548,32.9533-17.2077,49.7848-25.0998l19.0567-8.5973c.2867-.122.5733-.3118,1.133-.1355-.7918,2.9424-1.6791,5.8444-3.3718,8.4479l-1.2149.9355c-17.6779,7.743-34.4003,15.7028-50.9179,24.083-16.4084,8.3259-32.5437,17.14-48.2013,26.8083l-2.894,1.7766c-.0819-.0681-.1638-.1358-.2457-.2036"/>
  </g>
</svg>