<?xml version="1.0" encoding="UTF-8"?>
<svg id="Hud" xmlns="http://www.w3.org/2000/svg" viewBox="0 0 303.0502 293.7299">
  <defs>
    <style>
      .cls-1 {
        fill: #000;
      }

      .cls-1, .cls-2 {
        stroke-width: 0px;
      }

      .cls-2 {
        fill: #007424;
      }
    </style>
  </defs>
  <rect id="bg" class="cls-2" x="0" width="303.0502" height="293.7299"/>
  <g id="content">
    <path class="cls-1" d="M177.7437,115.7472c-.896-.1886-1.7857-.4957-2.6891-.5432-2.602-.1368-5.2126-.2823-7.8141-.212-2.9773.0805-5.9514.3555-8.9209.6149-1.2483.1091-2.4808.397-3.7212.599-.4866.0792-.9753.1459-1.7388.2591.1546-.6121.189-1.0107.3508-1.3482,1.8163-3.7885,3.9278-7.4083,6.2401-10.9149.3974-.6026.945-.8529,1.5868-1.0334,3.2511-.9144,6.5746-1.3303,9.9406-1.3719,4.3924-.0543,8.7492.3918,13.0645,1.1849,3.4315.6306,4.6934,2.6976,3.7917,6.0997-.7033,2.6536-2.1451,4.9495-3.6322,7.2101-.7162,1.0888-1.5359,2.1091-2.2906,3.1732-2.1987,3.0999-5.1373,5.2101-8.6443,6.6126-4.6474,1.8585-9.47,3.0895-14.3484,4.1352-.2257.0484-.4916.1233-.6872.0494-.3182-.1202-.7582-.2994-.8417-.5539-.0852-.2598.1257-.701.3381-.9516.2296-.2708.6101-.4142.9262-.6108,6.0149-3.7397,12.0307-7.4779,18.0433-11.2213.3822-.238.7394-.5161,1.1082-.7756-.0206-.1338-.0412-.2676-.0618-.4014Z"/>
    <path class="cls-1" d="M80.1458,74.9844c.2682-1.9306.4722-3.8727.8173-5.7894.8169-4.5376,1.6469-9.0742,2.5812-13.5885.4349-2.1015,1.2282-4.1051,2.4736-5.8943,1.4444-2.0752,2.9926-2.6564,5.4344-2.0343,2.5381.6466,4.3133,2.3397,5.8129,4.3493.3303.4426.5141,1.1647.4359,1.7108-.2431,1.6989-.6374,3.3766-.993,5.0583-.0463.2188-.1884.4277-.3218.6159-.4943.6972-.863.7285-1.4282.079-.6728-.7731-1.2713-1.614-1.9761-2.355-.4739-.4983-1.0274-.9674-1.6315-1.2858-1.3516-.7122-2.5464-.479-3.4815.7363-.5881.7644-1.0685,1.6452-1.4357,2.54-1.0686,2.6041-1.5586,5.3644-1.9601,8.1326-.6888,4.7493-1.2963,9.5106-2.0042,14.2569-.1913,1.2825-.5496,2.5534-.9626,3.7855-.3689,1.1003-1.1163,1.2708-1.8624.396-.6533-.766-1.2142-1.6671-1.5925-2.5993-.682-1.6808-1.2174-3.4228-1.7776-5.1511-1.237-3.816-3.0144-7.322-5.8074-10.2518-.4454-.4672-.9335-.8936-1.4987-1.431-.8714,1.4577-2.0301,1.1523-3.1478.571-1.6918-.88-3.3695-1.7951-4.9992-2.7843-1.6333-.9914-2.5033-2.4644-2.3865-4.4342.0689-1.1606.0014-2.3484.2291-3.4768.5617-2.7827,2.0527-3.1891,3.9131-2.9975,1.9949.2054,3.6148,1.1635,5.1184,2.3743,2.3179,1.8665,4.0417,4.2484,5.6465,6.7148,1.8332,2.8174,3.433,5.7598,4.6648,8.8999.5227,1.3325,1.187,2.6095,1.7869,3.9117.1176-.0198.2351-.0396.3527-.0595Z"/>
    <path class="cls-1" d="M59.1404,176.3452c-.8486,1.2175-1.8208,1.0487-2.7821.5139-1.6245-.9038-3.2552-1.8047-4.8176-2.8091-1.0846-.6972-1.6162-1.7782-1.5279-3.1116.0798-1.2042.0143-2.437.2552-3.6072.382-1.8558,1.3811-2.4241,3.2495-2.205,2.4235.2842,4.2356,1.6489,5.8169,3.3371,3.153,3.3664,5.5461,7.2374,7.3618,11.4735.6743,1.5731,1.3903,3.1283,2.0872,4.6916.1063-.0098.2125-.0196.3188-.0294.0907-.3184.2117-.6315.2675-.9559.8212-4.7761,1.5658-9.5668,2.4822-14.3244.3586-1.8617,1.0843-3.6546,1.6749-5.4684.1425-.4376.3907-.8465.6275-1.2466,1.5806-2.6702,3.5851-3.2941,6.3844-1.9684,1.5515.7347,2.8047,1.8564,3.764,3.2599.3192.467.5589,1.1524.4868,1.6915-.1903,1.4244-.5387,2.8317-.8968,4.2272-.1034.403-.453.7428-.8092,1.2976-.5798-.705-.9815-1.2656-1.4568-1.7545-.7094-.7298-1.3931-1.5253-2.228-2.0825-1.2335-.8232-2.4441-.6177-3.3558.5441-.5931.7557-1.0647,1.6472-1.4142,2.5466-1.1571,2.9776-1.5731,6.1279-2.0182,9.2684-.5427,3.8291-1.084,7.6587-1.6765,11.4802-.1343.8662-.4167,1.724-.7421,2.5415-.2804.7045-.7889.8069-1.295.2451-.49-.544-.9358-1.1821-1.2083-1.8568-.6449-1.597-1.2098-3.2289-1.7446-4.867-1.0085-3.0891-2.401-5.9694-4.5166-8.457-.6856-.806-1.4681-1.5295-2.2872-2.3743Z"/>
    <path class="cls-1" d="M203.9342,109.4767c.4918-.4554.958-.9427,1.4799-1.3606,2.3827-1.9078,4.784-3.7923,7.173-5.6922,4.0114-3.1901,7.8781-6.5436,11.3106-10.3609,1.1305-1.2572,2.1139-2.6471,3.1576-3.9818.1297-.1659.2164-.3654.3652-.6221-.3223-.1259-.6114-.2137-.8775-.3474-.9875-.4959-2.0379-.906-2.9347-1.5341-1.6375-1.147-2.1312-2.711-1.5871-4.636.5103-1.8055,1.3651-3.4454,2.6909-4.7859.4418-.4467,1.019-.8092,1.5997-1.0569.9195-.3923,1.7261-.1714,2.274.6689.4467.685.8093,1.4624,1.0313,2.249.4964,1.7598.7315,3.562.4407,5.3975-.0282.1783-.0038.3649-.0038.636.2484.0648.5015.1415.7593.1961.8436.1788,1.69.3445,2.5331.5255.4466.0958.6188.3724.4802.8187-.2192.7061-.4441,1.4105-.6611,2.1173-.1297.4225-.4016.58-.8398.5221-.8853-.1171-1.7739-.2097-2.6603-.3194-.3027-.0375-.6027-.096-.93-.1492-.135.2042-.2721.3684-.3627.5551-1.3478,2.7779-3.2468,5.1595-5.3324,7.403-2.9054,3.1254-6.0795,5.9658-9.5008,8.503-2.7507,2.0399-5.7671,3.6772-8.8197,5.2308-.2076.1056-.4453.152-.669.226-.0389-.0675-.0778-.135-.1167-.2025ZM228.6138,83.7909c.1223-1.3855.1014-2.6205-.4659-3.7894-.2623-.5404-.7482-.8211-1.3365-.8505-.6869-.0343-1.3505.1129-1.9321.4971-1.0606.7008-1.1222,2.152-.0799,2.8773,1.1054.7693,2.4035,1.0031,3.8143,1.2654Z"/>
    <path class="cls-1" d="M31.0064,142.7037c-2.2011-.8112-4.2713-1.3394-5.6978-3.2167-.2821.4956-.5017.8841-.7238,1.2711-.6714,1.1698-1.6209,2.0284-2.8585,2.5709-2.4206,1.061-4.5235.0089-5.1312-2.5482-.4536-1.9085-.288-3.7982.1263-5.6795.8022-3.6426,2.4654-6.9182,4.3587-10.0902,1.5344-2.5706,3.2383-5.0127,5.5046-7.0077,1.3891-1.2228,2.9493-2.1084,4.8112-2.3928,2.2444-.3428,3.8287.7592,4.2722,2.986.4021,2.0188.1472,4.0052-.4404,5.9333-.5557,1.8236-1.2395,3.6106-1.9287,5.3898-.263.679-.3621,1.2932-.2011,2.0238.2397,1.0883.3828,2.2063.4619,3.3191.0754,1.0604.0163,2.1305.0163,3.3308.7616.1495,1.4726.2891,2.3307.4575.1609,1.355-.2642,2.6184-.7594,3.8497-.0822.2045-.5298.3352-.8226.3659-.5475.0574-1.1053.0165-1.7098.0165-.1555.2714-.349.5357-.4691.8299-1.5774,3.8633-4.0757,7.097-6.919,10.0854-4.1708,4.3834-9.0272,7.9235-14.023,11.2832-.5003.3364-1.102.5218-1.8156.8505-.0092-1.022.5729-1.3905,1.0263-1.8054,2.7508-2.517,5.555-4.9768,8.269-7.5326,3.8008-3.5793,7.5661-7.2023,10.6011-11.4897.5864-.8283,1.0683-1.7307,1.7217-2.8009ZM32.3625,129.7153c1.1369-2.1434,1.7444-4.2908,1.4381-6.6359-.372-2.8476-1.9286-3.759-4.6213-2.7266-.3892.1492-.7966.3086-1.1204.5601-.9884.7675-2.058,1.4764-2.8849,2.3976-2.9671,3.3057-4.9624,7.1923-6.3734,11.3758-.3054.9055-.4012,1.917-.4034,2.8801-.0023,1.0461.5965,1.6032,1.6083,1.8152,1.7598.3687,4.0167-.7748,4.7344-2.4424.4045-.9398.6866-1.9337,1.113-2.8623.5406-1.1772,1.0525-2.3964,1.79-3.4478,1.299-1.8519,2.5627-2.0677,4.7196-.9137ZM31.4966,138.3006c.1241-1.4612.0833-2.8269-.5616-4.1185-.6047-1.211-1.7285-1.4834-2.7383-.5917-.4337.3831-.7396.9437-1.0076,1.4723-.2559.5046-.1155,1.0116.3441,1.3734,1.1391.8964,2.3461,1.6556,3.9634,1.8645Z"/>
    <path class="cls-1" d="M238.2759,199.1508c.4416,1.0617.0804,1.8303-.1982,2.6049-1.1189,3.1101-2.3419,6.1873-3.3316,9.3378-.9894,3.1491-1.8841,6.3426-2.5567,9.5716-.4518,2.1689-.5218,4.4306-.6053,6.6567-.0336.896.2432,1.8501.5717,2.7035.6805,1.7674,2.5762,2.244,4.1288,1.1215.9421-.6812,1.4566-1.667,1.9245-2.6952.1885-.4141.4212-.8433.7425-1.1528.409-.3941.9331-.2111,1.0546.3519.0857.3974.1136.8529.0074,1.2384-.5304,1.9251-.9737,3.8918-1.7133,5.7373-.9324,2.3265-2.8531,3.5011-5.3412,3.6493-1.3219.0787-2.3124-.554-2.988-1.7004-1.1873-2.0145-1.6873-4.2253-1.8679-6.522-.3005-3.82.3026-7.5319,1.4971-11.1453,1.6513-4.9953,3.3701-9.9682,5.0562-14.952.5013-1.4815,1.2828-2.7935,2.3911-3.8942.3339-.3316.7609-.5694,1.2284-.9109Z"/>
    <path class="cls-1" d="M125.876,90.8742c.5639.9167.1491,1.5986-.0899,2.2645-.7391,2.0596-1.6104,4.0771-2.2474,6.1668-.9766,3.2037-1.8899,6.433-2.6512,9.6932-.3662,1.5682-.3856,3.2298-.4379,4.8531-.0232.7207.1685,1.4858.424,2.1705.6178,1.6558,2.2882,2.0665,3.5658.8476.5542-.5288.917-1.2706,1.3167-1.9453.3004-.5072.4563-1.3292,1.2018-1.0866.7301.2376.4955,1.069.3559,1.6047-.4099,1.5723-.8213,3.1609-1.4383,4.658-.6655,1.6146-2.0247,2.5101-3.7569,2.7888-1.466.2359-2.4229-.2159-3.1403-1.5195-.9382-1.7048-1.3513-3.5588-1.4725-5.4868-.1655-2.6335.1367-5.2259.9388-7.7266,1.4646-4.5661,2.9728-9.1199,4.5783-13.6377.3767-1.0599,1.1862-1.9759,1.8558-2.9159.2123-.2981.6165-.4593.9975-.729Z"/>
    <path class="cls-1" d="M121.8172,231.7978c.0908.1979.199.3234.1981.4481-.0186,2.4326-.6184,4.7008-2.0941,6.6603-.7308.9704-1.8028,1.4397-3.0146,1.5778-1.2481.1423-2.1822-.3154-2.787-1.4207-.8649-1.5806-1.2966-3.2886-1.4193-5.073-.1578-2.2964.0085-4.5811.7091-6.7738,1.445-4.5227,2.9298-9.0342,4.5022-13.5137.3585-1.0213,1.1104-1.9147,1.7434-2.8236.2094-.3007.6143-.4651.9962-.7396.4584.9992.0006,1.6961-.2384,2.4243-1.3203,4.023-2.6972,8.0288-3.9285,12.0789-.7189,2.3646-1.1064,4.8171-.9383,7.3106.0463.6864.1627,1.3977.4091,2.0349.5456,1.4107,2.0182,1.8198,3.1656.8189.6051-.5278.9924-1.3189,1.4287-2.0218.288-.4639.425-1.0574,1.2675-.9876Z"/>
    <path class="cls-1" d="M47.177,281.6662c1.4865-.776,2.9166-1.6956,4.4686-2.3043,9.3072-3.6502,18.638-7.2405,27.9693-10.8288,13.4037-5.1544,26.7988-10.3308,39.7747-16.5132,9.6274-4.587,19.3236-9.0423,28.8218-13.8848,15.3221-7.8116,30.0547-16.6565,44.2312-26.4019,3.0701-2.1105,5.9072-4.5629,8.8296-6.8854,2.3816-1.8927,3.5347-4.2296,2.6529-7.3465-.5351-1.8915-.9194-3.8258-1.4194-5.9441-1.606.5794-3.0594,1.1049-4.5137,1.628-5.5631,2.0013-11.2869,3.1072-17.2093,2.8049-3.1878-.1627-6.3709-.5398-9.3432-1.8741-4.4566-2.0007-6.7769-5.5294-7.1092-10.3175-.5246-7.5595,2.4634-14.0104,6.7972-19.8943,1.6389-2.2251,3.5588-4.3733,5.7445-6.0388,5.1181-3.9,10.9764-3.8327,16.1456-.0346,5.9155,4.3465,11.1087,9.3497,13.8132,16.581,6.8187-2.1528,13.2716-4.9039,19.1917-8.4379-1.0698-2.8691-2.3173-5.5265-3.0524-8.3189-1.9748-7.502-1.0097-14.8142,1.9716-21.9034,2.8185-6.702,6.9162-12.6034,11.4509-18.2281.2265-.2809.417-.6047.6874-.8339,1.2349-1.0471,1.1788-1.9971.5868-3.5787-.6404-1.711-.3924-3.8101-.2975-5.7284.1378-2.788.4749-5.5667.7508-8.347.0742-.7478.2347-1.487.4018-2.5135,2.3207,1.1024,4.5328,1.9742,6.5656,3.1551,4.66,2.7071,9.2329,5.5642,13.8389,8.364.1916.1165.4365.2316.5269.4123.3062.6121.8325,1.3054.728,1.8657-.0719.3857-1.0555.8596-1.6201.845-1.5082-.0389-3.0102-.32-4.838-.5446,2.0407,1.6705,3.7829,3.3627,5.7748,4.6759,5.4086,3.5659,10.9255,6.9671,16.3945,10.4414,5.3402,3.3925,10.5505,6.9223,13.9275,12.5154,1.9481,3.2265,2.9087,6.7867,3.2808,10.4554.3999,3.9428.635,7.93.5398,11.8881-.1064,4.4263-1.123,8.7026-3.3159,12.6517-1.8211,3.2795-4.5712,5.2348-8.1203,6.1769-6.0194,1.5978-12.1147,1.4545-18.2544.9081-6.4844-.5771-12.7762-1.9412-18.8971-4.1269-1.6901-.6035-3.3329-1.3515-5.0465-1.8711-.6299-.191-1.5455-.1476-2.0872.1854-8.0652,4.9591-16.295,9.623-25.0811,13.17-2.3561.9512-2.9109,2.1369-3.046,4.5747-.607,10.9568-3.3527,21.3016-10.7714,29.7488-2.5863,2.9449-5.8286,5.3904-9.0336,7.6993-9.9453,7.1646-20.4158,13.5296-31.0613,19.5837-8.8692,5.0438-17.8335,9.9298-26.8753,14.6565-6.2019,3.2422-12.6089,6.15-19.4284,7.8474-4.3015,1.0707-8.7315,1.6337-13.1124,2.3737-6.422,1.0849-12.8526,2.1182-19.2777,3.185-6.6472,1.1037-13.2875,2.25-19.9399,3.3214-3.5509.5719-7.1186,1.0422-10.6841,1.5174-.7359.0981-1.496.0142-2.245.0142-.0622-.1818-.1244-.3637-.1866-.5455ZM254.1657,144.5534c-.4919-5.3367-1.8644-10.3958-4.6574-15.0282-2.6511-4.3969-4.7724-5.0919-9.2018-2.5702-4.4931,2.5578-7.7159,6.45-10.4414,10.7655-2.2277,3.5272-2.0744,7.0486.4666,10.31,3.0981,3.9765,7.1309,6.6893,11.9765,8.1339.3299.0984.8212.0327,1.1063-.1556,2.5844-1.7062,5.2919-3.2746,7.6541-5.253,1.8119-1.5175,3.2295-3.5434,3.0972-6.2025ZM253.4984,159.8292c.3731.1533.6101.2963.8657.349,8.0164,1.6512,16.1269,2.3537,24.2971,2.1137,2.5814-.0758,5.2025-.4679,7.7043-1.1098,2.4599-.6311,2.9854-2.2273,2.0028-4.607-1.1813-2.8608-3.2831-5.0053-5.7528-6.6727-6.895-4.6549-13.8971-9.1509-20.8628-13.7007-.3019-.1972-.6621-.3052-1.0542-.4813-.8576,8.5695-2.808,16.6277-7.2002,24.1088ZM192.6468,178.5061c-2.1429-2.4143-4.157-4.5309-6.8554-5.8227-2.7272-1.3055-5.4838-2.1663-8.2523-.0719-1.2354.9346-2.6177,1.9091-2.204,3.6829.4329,1.8563,2.1554,2.3334,3.7641,2.5809,4.4347.6823,8.854.2479,13.5476-.3693Z"/>
    <path class="cls-1" d="M29.5716,176.1132c.1479.9793.456,1.6498.2958,2.1781-1.1554,3.8085-2.301,7.6259-3.649,11.3686-2.2957,6.3738-4.0525,12.8541-4.2449,19.6618-.0816,2.8889.3239,5.7456,1.4369,8.4561,1.9559,4.7635,7.4704,6.7024,12.1445,6.0856,6.6224-.8739,12.6748-3.5203,18.6726-6.2885,14.1496-6.5307,27.5364-14.4707,40.9304-22.3774,9.8429-5.8104,19.5094-11.9209,29.2297-17.9378,1.4886-.9214,2.8641-2.0323,4.2543-3.1045,1.6148-1.2454,1.7406-1.8962.9611-3.8374-1.1601-2.889-3.4109-4.8087-5.7777-6.6546-5.5482-4.3273-11.9691-7.0968-18.1596-10.2835-6.8228-3.5122-13.7357-6.8703-20.4019-10.6609-8.6817-4.9367-16.1976-11.4039-22.9273-18.7806-1.9707-2.1602-3.9842-4.2838-5.8816-6.5066-.487-.5705-.8466-1.451-.8576-2.1951-.0747-5.065-.0483-10.1316-.0289-15.1976.0018-.4739.1814-.9471.2749-1.4032,4.0962.347,21.954,11.1787,23.2411,14.1071-2.0091,1.2172-4.3014,1.0636-6.7832,1.3967,1.1003.9737,2.05,1.8686,3.0556,2.6955,9.997,8.22,21.2471,14.3261,32.9275,19.7626,5.4995,2.5597,10.8468,5.4654,16.163,8.3962,6.2462,3.4435,9.612,8.9615,10.5792,15.9349,1.1019,7.9452.0605,15.6302-3.2887,22.9465-2.0803,4.5443-5.5912,7.8563-9.7036,10.4912-10.9171,6.9948-21.7744,14.0976-32.8996,20.7485-10.0328,5.9979-20.3319,11.5602-30.6228,17.1118-6.7184,3.6243-13.6726,6.7931-21.0302,8.9581-3.9075,1.1498-7.8809,1.5787-11.8313.3676-5.5454-1.7002-8.2391-5.8896-9.4349-11.2924-1.1173-5.0481-.8239-10.1041-.326-15.1998,1.1815-12.0924,4.9143-23.4044,10.1809-34.266.586-1.2086,1.3461-2.3381,2.09-3.4615.2483-.3749.6981-.6162,1.4116-1.2194Z"/>
    <g>
      <path class="cls-1" d="M184.2674,42.276c-1.4551-7.8977-2.9365-15.5655-4.214-23.2672-.1955-1.1788.5507-2.5141,1.1001-3.7535,2.9583,8.4409,3.9303,17.2216,5.4443,26.1387,1.5368-.5654,2.9921-.9803,4.338-1.6241,2.0614-.986,4.028-2.1688,6.0723-3.1932,1.4297-.7165,1.5327-1.8488,1.2394-3.1906-1.0432-4.7734-2.02-9.5626-3.1514-14.3149-.4571-1.9198.1812-3.4007,1.1874-4.8456.1467,0,.2805-.0382.3171.0054,3.2359,3.8521,7.5195,6.8183,9.8126,11.4632,3.2115,6.505,2.8062,12.8495-1.0192,18.9868-1.4829,2.3791-3.9238,3.0248-6.454,3.3808-1.914.2693-3.8516.3731-5.7797.5385-1.0825.0929-1.3631.7364-.907,1.5845,1.3173,2.4494,2.9797,4.6349,6.0074,4.8855,2.3335.1931,4.3659-.9151,6.253-2.1755,1.2235-.8172,2.3595-1.7655,3.841-2.8869-.0767.6963.0038,1.134-.1749,1.3921-.9582,1.3836-1.7394,3.0462-3.0306,4.0107-2.8604,2.1365-6.1086,3.7226-9.729,4.0539-3.4244.3133-6.0713-1.29-8.0695-4.0225-.1263-.1727-.2492-.3479-.5082-.71-.1814.6238-.3516,1.0611-.4333,1.5143-.4496,2.4937-2.3242,4.2863-4.5474,4.3203-2.1638.0332-3.5278-1.2959-4.1325-4.0238-.038-.1716-.0914-.3398-.198-.7317-1.4579.7516-2.8384,1.4703-4.225,2.177-4.5254,2.3067-9.2273,4.1244-14.3719,4.1593-3.9317.0267-7.2768-1.4227-9.6471-4.774-1.58-2.2339-2.3093-2.353-4.2005-.4073-1,1.0287-1.6979,2.4071-2.3263,3.7259-.6133,1.2869-.826,2.7713-1.483,4.0285-.3886.7436-1.2104,1.4957-1.9943,1.7398-1.0623.3309-2.1264-.3201-2.526-1.3577-.7346-1.9076-1.5888-3.8599-1.7997-5.8564-.2882-2.7294-.0219-5.5174.0074-8.3524-.0146-.0024-.3811-.0619-1.1345-.1841,1.0793-.5173,1.8206-.8765,2.5652-1.2288,3.5674-1.688,6.8398-3.7895,9.5698-6.6872.5245-.5568.5418-.8755.151-1.5841-2.8557-5.1782-7.0776-9.2139-11.0622-13.4488-2.259-2.4009-4.4626-4.835-5.8708-7.8691-.0928-.1999-.2046-.427-.374-.5496-1.8451-1.3353-1.2459-3.0333-.7207-5.066,2.3316,1.9882,4.4954,3.8332,6.6592,5.6783-.0822.1243-.1644.2486-.2466.3729-.6681-.1384-1.3362-.2767-2.0043-.4151-.06.0761-.1199.1521-.1799.2282,1.5075,1.7068,3.0185,3.4105,4.5219,5.121,2.5003,2.8448,5.042,5.6551,7.4772,8.5547,1.6585,1.9748,2.7621,4.219,2.483,6.9267-.016.1553.0669.3208.1583.7198,1.2355-1.2677,1.6883-2.6324,1.4444-4.1127-.9861-5.9839-2.1051-11.9461-3.0654-17.9339-.3158-1.9691-.3168-3.9905-.4173-5.9903-.0145-.2875.2221-.5877.3424-.882.1258-.0003.2515-.0006.3773-.0008.3741,1.3053.8102,2.5964,1.1117,3.9182,1.4075,6.1708,2.7394,12.359,4.1726,18.5237,1.3451,5.7851,5.2755,8.9192,10.9198,9.7777,7.6269,1.1601,15.0256-.3257,22.4247-2.4866ZM184.8105,45.6438c-.3612,0-.4558-.0177-.5406.0035-.2167.0541-.4293.1247-.6431.1903-7.2523,2.2258-14.6228,3.5438-22.2235,2.489-3.7472-.52-7.1716-1.8761-9.3721-5.2197-.8235-1.2512-1.4086-2.6596-2.153-4.0939-.2227.5368-.3822,1.048-.6349,1.508-1.0548,1.9199-1.9651,3.9507-3.249,5.706-2.1478,2.9365-5.4641,3.7948-8.8611,4.2649-.8563.1185-1.1855.4061-1.2145,1.2403-.0563,1.617-.4162,3.2651-.2013,4.8389.2435,1.7835.7698,3.603,1.5631,5.2147.7195,1.4618,2.359,1.4286,3.2711.0412.7023-1.0683,1.1765-2.308,1.6221-3.5194.8241-2.2402,1.903-4.2834,3.918-5.6781,1.5924-1.1021,2.4727-.927,3.6467.6236,2.6118,3.4495,5.9754,5.3221,10.4108,5.1986,4.4764-.1246,8.5258-1.6506,12.4783-3.5373,2.0194-.964,3.9828-2.0454,6.146-3.1639.2126,1.0949.3434,2.0149.5752,2.9087.4395,1.6952,1.8815,2.4677,3.8127,2.1019,1.8005-.3411,2.8551-1.5826,2.7186-3.2305-.0779-.9412-.1635-1.8834-.2951-2.8182-.2365-1.6799-.5104-3.3545-.7743-5.0686ZM197.2477,19.4016c.8485,4.2671,1.7736,8.1495,2.3551,12.0828.4785,3.2367-.3135,6.2881-3.1418,8.2759-1.8921,1.3298-3.9924,2.4044-6.0985,3.3787-3.4699,1.6052-3.5586,1.5465-2.5786,5.2676.6006,2.2806,1.1663,4.6234,3.0184,6.3638.0594-.1051.1085-.1525.0995-.1824-.051-.169-.0971-.3438-.1789-.4986-1.5894-3.0113-.756-5.6825,1.2596-8.0945.8254-.9877,1.9639-1.3897,3.37-1.2461,3.3326.3404,6.6636.2209,9.1717-2.4154,2.9562-3.1073,3.3654-6.8464,2.0887-10.8059-1.6214-5.0284-5.5936-8.2604-9.3651-12.1259Z"/>
      <path class="cls-1" d="M128.0991,37.7119c-1.0386-1.2058-.3983-4.4379,1.386-6.589,1.4528.9465,3.0462,1.7837,4.3946,2.9136,1.7119,1.4345,1.0382,4.6249-1.0529,5.4552-1.7498.6948-3.563,1.2367-5.2884,1.9845-2.0387.8836-2.539,1.714-1.9015,3.8134,1.1987,3.9469,2.5735,7.8423,3.9519,11.7319,1.2872,3.6323,2.0012,7.2872.8874,11.0955-.9969,3.4089-4.065,5.7924-7.7597,5.7534,1.2671-.9734,2.3135-1.7509,3.3309-2.5646,1.8694-1.495,3.6167-3.2186,3.6983-5.7145.0537-1.6415-.5111-3.3474-1.0196-4.9546-1.433-4.5297-3.1368-8.9788-4.4328-13.5452-1.0444-3.6798-.1264-7.2628,3.8057-9.3796Z"/>
      <path class="cls-1" d="M177.0254,20.1497c.308,1.0929.1134,1.7122-.9883,2.1733-6.3772,2.6695-12.7141,5.4355-19.0807,8.1308-.5355.2267-1.6215.3944-1.7149.2119-.4468-.8729.1155-1.5785.8882-1.9634,1.807-.9,3.6259-1.7887,5.4924-2.5538,4.5665-1.8718,9.1609-3.6754,13.7494-5.4932.5288-.2095,1.0905-.3356,1.6539-.5056Z"/>
      <path class="cls-1" d="M168.1274,67.6181c.6387-1.1012,1.1702-2.0177,1.7378-2.9963,1.2505.6195,2.3603,1.1694,3.5275,1.7477.6236-.9634,1.1978-1.8505,1.8641-2.8798,1.2279.7544,2.3515,1.4447,3.5931,2.2074-.5757,1.1117-1.1208,2.1645-1.7568,3.3928-1.1932-.6552-2.3076-1.2672-3.5442-1.9462-.4539.9164-.9317,1.8812-1.5022,3.0329-1.3722-.8958-2.6138-1.7062-3.9193-2.5585Z"/>
      <path class="cls-1" d="M169.8626,35.1721c.1837.8644.2549,1.7767.5944,2.5748.195.4584.8165,1.0155,1.2603,1.0283.8795.0253.9735-.7558.8598-1.4802-.1807-1.1518-.3872-2.2996-.6471-3.827,1.8901,1.3121,1.0307,4.3796,3.7431,4.4265-.1725-1.4722-.3329-2.8419-.4934-4.2115.1735-.0468.347-.0936.5205-.1404.6522,1.5334,1.4221,3.0298,1.9171,4.6124.3578,1.1442-1.143,2.397-2.4242,2.1007-.8558-.1979-1.4793-.2508-2.256.4332-1.2147,1.0696-3.25.3681-3.7027-1.2034-.4144-1.4385-.2863-2.8996.6282-4.3135Z"/>
      <path class="cls-1" d="M159.3513,20.8786c.1841-1.5192.3169-2.7478.4888-3.971.0745-.5301.1216-1.1098.3737-1.5585.3717-.6613.3948-1.8485,1.6184-1.5665,1.2344.2845,1.7159,1.3162,1.3964,2.7176-.0855.015-.205.0719-.2523.0353-1.8402-1.4223-2.2513-1.2982-2.5467,1.0507-.1791,1.4245-.0495,2.8859-.1012,4.3292-.0235.6556-.1502,1.3075-.2807,2.3747-.8686-1.4964-1.4557-2.6819-2.2099-3.7492-.5487-.7765-1.0019-1.849-2.4392-1.3411-.2985.1055-1.2233-.7478-1.386-1.2991-.1679-.5689.2151-1.3183.45-1.9544.0183-.0497.905.0364,1.1523.2898.9357.9586,1.7882,2.0005,2.642,3.0359.3523.4273.6291.917,1.0943,1.6067Z"/>
      <path class="cls-1" d="M170.1957,11.4849c.6687.9177,1.2901,1.8636,2.0077,2.7299.7749.9355,1.1101,1.9529.7851,3.1203-.3449,1.239-1.2261,1.9356-2.4696,2.1932-1.1516.2386-2.2007-.3921-2.4977-1.5016-.4225-1.5786,1.0673-5.6864,2.1745-6.5418ZM170.8362,18.0115c.4062-.4059.9906-.7459,1.1716-1.2353.2054-.5555-1.1078-1.6832-1.7424-1.4514-.4214.1539-.8512.7427-.9563,1.2093-.2134.948.4252,1.2689,1.5271,1.4774Z"/>
      <path class="cls-1" d="M140.9559,24.5137c-.1566-2.6517-.4169-5.2346-2.061-7.4092-.7009-.927-1.6666-1.6512-2.3899-2.5643-.4531-.572-.679-1.3242-.7647-2.1633,2.439.8747,3.8934,2.6831,4.8564,4.8913,1.0249,2.3503,2.0425,4.7593.3592,7.2454Z"/>
      <path class="cls-1" d="M163.0031,36.7593c0,.3915.1057.8219-.0209,1.1669-.3112.8473-.3984,1.9809-1.6486,2.0143-1.1916.0319-1.3647-1.0202-1.6549-1.8358-.9613-2.7016.0356-5.0141,1.5374-7.1999.0797-.116.3038-.1326.7014-.2919-.4023,1.213-.804,2.2123-1.0564,3.248-.231.9477-.4041,1.9359-.3931,2.9038.0048.4203.5348.8347.8262,1.2517.2968-.2908.6278-.5553.8778-.882.1527-.1994.1809-.4943.265-.7464.1887.1237.3775.2474.5662.3712Z"/>
      <path class="cls-1" d="M189.9752,69.8147c.1261-2.8945-1.4562-4.8116-3.4077-6.5796-.3217-.2914-.1767-1.0986-.2474-1.6675.4996.1023,1.1061.0581,1.4805.3318,1.7961,1.3126,2.8024,3.1726,3.099,5.3368.1125.8206-.2528,1.7067-.4003,2.5629-.1748.0052-.3495.0104-.5242.0156Z"/>
      <path class="cls-1" d="M142.8038,67.6321c.4213-.5481.7305-1.2935,1.2843-1.6087,1.9369-1.1026,3.9555-2.062,5.9522-3.0576.1638-.0817.4686-.1079.5776-.0119.1236.1089.182.4127.1238.5819-.1144.3331-.2495.7752-.5145.9222-2.2853,1.2674-4.6015,2.4791-6.9085,3.7074-.1717-.1778-.3433-.3555-.515-.5333Z"/>
      <path class="cls-1" d="M190.6474,19.2852c.5256,1.5047.1567,2.7959-.9496,3.2919-.3707.1662-1.1144.0719-1.3847-.2023-1.8367-1.8637-1.0659-7.2061,1.4959-8.8982-.3102.8924-.5817,1.5119-.7387,2.1592-.3026,1.2475-.6421,2.5017-.7535,3.7719-.0423.4822.5022,1.0159.7792,1.5262.364-.3299.7376-.6499,1.0874-.9942.1483-.1459.2467-.3426.464-.6544Z"/>
      <path class="cls-1" d="M193.7354,27.2249c-.1963.4102-.2815,1.0048-.6067,1.2008-2.2289,1.3428-4.5075,2.6031-6.775,3.8813-.0556.0313-.168-.0383-.3435-.0844-.0944-.9654.2966-1.6895,1.1593-2.1346,2.0591-1.0624,4.1332-2.0958,6.2012-3.1409.1216.0926.2432.1852.3647.2778Z"/>
      <path class="cls-1" d="M132.157,41.4156c.1034,1.5232-1.9069,3.0478.028,4.6513.3142-.3874.6473-.7981.981-1.2095.1344.1011.2472.1418.2571.1999.2025,1.1955.0004,2.2757-1.094,2.9589-.2576.1608-.84.1637-1.0459-.0181-.9329-.8236-1.4424-1.9027-1.0425-3.1411.3968-1.2289.9725-2.3999,1.4697-3.5963.1489.0516.2978.1033.4466.1549Z"/>
      <path class="cls-1" d="M159.7513,57.7954c-.6032-1.036-1.2245-2.062-1.8035-3.1114-.4119-.7465-.8528-1.3168-1.8585-1.2163-.3968.0397-.8802-.201-1.2346-.4446-.794-.5457-.8814-1.6148-.2094-2.3753.7017-.7941,1.4595-.417,1.9787.1643.9461,1.0593,1.7653,2.2321,2.6882,3.4231.0699-.8604.1184-1.7194.2136-2.5733.1744-1.5638.9001-2.538,1.7955-2.4591,1.2735.1121,2.0765,1.5114,1.7906,3.383-.4528-.3216-.8131-.6167-1.2096-.8503-.6471-.3813-1.2281-.4442-1.3355.5279-.1032.9342-.1595,1.8738-.2286,2.8116-.0654.8868-.1209,1.7744-.1807,2.6616-.1354.0196-.2708.0393-.4062.0589Z"/>
      <path class="cls-1" d="M204.3457,30.3037c-.4711,1.4632-.9627,2.9203-1.3973,4.3943-.0971.3294-.1078.7788.0445,1.0648.2163.4063.5839.7698.9723,1.0175.0866.0553.5457-.4293.8007-.6965.2233-.2341.4007-.512.6648-.8574.4451,1.4429.0034,2.9106-1.0364,3.3939-.3564.1657-.9938.1204-1.3138-.1015-1.0904-.7562-1.4708-1.9002-1.3212-3.1979.232-2.013,1.1401-3.6917,2.5865-5.0171Z"/>
    </g>
  </g>
</svg>