<?xml version="1.0" encoding="UTF-8"?>
<svg id="Isa" xmlns="http://www.w3.org/2000/svg" viewBox="0 0 301.5408 293.7299">
  <defs>
    <style>
      .cls-1 {
        fill: #000;
      }

      .cls-1, .cls-2 {
        stroke-width: 0px;
      }

      .cls-2 {
        fill: #007424;
      }
    </style>
  </defs>
  <rect id="bg" class="cls-2" width="301.5408" height="293.7299"/>
  <g id="content">
    <path class="cls-1" d="M215.0058,113.4992c-.6802-.0914-1.3715-.1336-2.0388-.2827-2.5988-.5809-5.167-1.3413-7.7908-1.7554-2.4581-.3879-4.9713-.5749-7.4615-.5868-12.0004-.0571-23.6639,1.8129-34.788,6.4699-2.4533,1.027-4.8216,2.2585-7.219,3.4167-.5366.2592-1.031.6057-1.5739.9293.8581,4.7596,2.4523,9.1229,5.0042,13.0744,6.0997,9.4449,14.6345,15.4981,25.6683,17.8359,3.877.8214,7.8312.9941,11.7141-.1038,1.1046-.3124,2.2073-.7776,3.182-1.3808,11.5184-7.1281,23.0076-14.3035,34.519-21.443,1.4126-.8761,2.897-1.6404,4.3741-2.4064.504-.2613,1.088-.3685,1.9772-.6571-.2165.9804-.2601,1.6438-.5068,2.2204-1.6797,3.9262-3.4104,7.8306-5.1046,11.7506-.3838.8881-1.1408,1.3188-1.9109,1.7694-8.0491,4.7094-16.1545,9.3262-24.1266,14.1624-8.6052,5.2203-16.8191,11.0096-24.1587,17.9441-1.7324,1.6368-3.3147,3.4333-4.9484,5.173-.3705.3944-.6675.8578-1.1091,1.4341.3465.0932.5371.2042.7114.1828,12.9381-1.5882,25.6177-4.259,37.6918-9.3081,2.7543-1.1518,5.3477-2.6888,8.0123-4.0541.8887-.4553,1.7425-.9896,2.6591-1.377,1.2372-.5229,1.8958-.0509,1.9566,1.3161.0147.3298-.0528.6625-.071.9945-.0728,1.3289-.2189,2.6593-.1975,3.9868.0911,5.6314,3.5721,9.5269,9.1488,10.2575,2.7516.3605,5.5185.6067,8.2665.9907,5.9399.8302,11.3756,2.9341,16.1077,6.6724,5.7708,4.559,8.8861,10.6347,10.1535,17.7935,1.2813,7.238.284,14.2633-1.8551,21.1754-2.6467,8.552-7.2056,16.0635-12.8055,22.9823-6.1868,7.6438-13.221,14.3749-21.4338,19.8295-8.7797,5.8311-18.3686,9.6258-28.8113,11.0708-6.2836.8694-12.6031,1.0902-18.8998-.1418-9.7981-1.917-17.5062-7.0528-23.2921-15.108-5.8683-8.1701-9.1862-17.2976-9.9605-27.3311-.1659-2.1495-.2162-4.308-.3268-6.6102-.4786-.0307-.9546-.0993-1.4282-.0857-5.1062.1459-10.2124.2944-15.318.4628-5.6616.1866-11.322.4079-16.9837.5901-9.99.3215-19.9794.6681-29.9711.9247-13.0514.3351-26.1025.1891-39.1464-.3386-3.9323-.1591-7.8624-.4914-11.7781-.8941-2.2083-.2271-4.3389-.9022-6.3332-1.9362-3.4861-1.8074-4.9185-4.462-4.3085-8.3397.623-3.9605,1.728-7.8024,3.3628-11.4677,1.0782-2.4175,2.7987-4.3898,4.7108-6.1914,3.6708-3.4587,7.9201-6.0797,12.3799-8.3599,2.962-1.5144,6.0047-2.8713,9.0163-4.2882,7.28-3.4253,13.0677-8.4884,17.2356-15.4167,1.6279-2.7062,3.4541-5.2998,5.2996-7.8658.8682-1.2071,1.951-2.2738,3.0232-3.3148.5865-.5694,1.3112-1.0394,2.0487-1.4014,1.4459-.7098,2.4894-.3542,3.0671,1.1726.4455,1.1773.6657,2.4547.8617,3.7071.1884,1.2032.1799,2.4358.3217,3.6479.8947,7.6466,6.3787,12.5124,14.6705,11.852,6.7399-.5368,11.4012-4.1769,14.6765-9.881,1.0772-1.876,2.1698-3.7467,3.3489-5.5591.5997-.9217,1.3719-1.7416,2.1326-2.5445.4955-.523,1.1006-.9635,2.1432-.5653-.0733.5131-.0583,1.1082-.2531,1.6243-.391,1.0359-.8599,2.0471-1.3624,3.0351-1.0556,2.0756-.646,3.9891.5993,5.8019,3.0269,4.4064,8.3331,5.3708,12.7173,2.3103,1.5172-1.0591,2.7723-2.3479,3.6448-4.0281,1.3808-2.6589,2.8527-5.271,4.31-7.8896.5345-.9604,1.1278-1.8921,2.3405-2.4855.1155.4874.2638.8318.2657,1.177.0049.887-.0263,1.7765-.0944,2.6611-.2245,2.916.7379,5.3638,2.9411,7.2714,2.9455,2.5501,6.3892,4.0049,10.2778,4.2533,1.9353.1237,3.8858.0048,5.8294.0051.707,0,1.259-.1768,1.6614-.8547,2.9873-5.0315,6.6865-9.5405,10.3845-14.0493.1374-.1676.239-.3646.4403-.6766-.398-.1553-.7166-.3265-1.0565-.4054-12.1107-2.8129-21.7064-9.3519-28.7855-19.542-2.9023-4.1777-4.5983-8.8429-5.002-13.9425-.2911-3.6775.3082-7.2239,1.913-10.5297,4.1221-8.4914,10.2478-14.9953,19.1228-18.5934,5.3332-2.1622,10.9226-2.8808,16.6551-2.4468,9.0699.6866,17.2135,4.0797,24.9559,8.6107,1.2913.7557,2.527,1.61,3.7587,2.4615.4222.2919.7539.7145,1.127,1.0774-.0596.1204-.1192.2408-.1787.3613ZM224.7522,179.1993c-.4654.2407-.8517.4351-1.2331.6387-1.4189.7573-2.811,1.57-4.2585,2.2678-6.5747,3.169-13.5111,5.3335-20.537,7.2115-8.9613,2.3953-18.0114,4.3608-27.2835,5.1077-.8823.0711-1.3693.4504-1.7571,1.2456-3.4279,7.0296-5.8377,14.3818-7.1019,22.1019-.186,1.1359-.2708,2.2883-.4235,3.6173.7298,0,1.3261.0176,1.9212-.0026,9.7668-.3326,19.5329-.6849,29.3001-1.0024,11.8202-.3843,23.6397-.8091,35.4626-1.085,8.491-.1982,16.987-.2279,25.4808-.2265,2.0946.0004,4.1947.3748,6.2809.6596.7941.1084,1.6706.2511,2.067,1.1529-.8766.8533-1.0728,1.0192-3.2111,1.5494-7.6415,1.895-15.2893,3.7654-22.9451,5.6018-5.671,1.3604-11.4061,2.3387-17.2313,2.7747-5.4227.406-10.8358.9468-16.2609,1.3124-6.7005.4515-13.4064.8381-20.1147,1.1516-6.5437.3058-13.0934.4817-19.6401.7252-.3619.0135-.7202.1235-1.1138.1946.0316.5434.023.9891.0884,1.4236.5142,3.4163,1.4126,6.726,2.7821,9.9034,3.3391,7.7472,8.9093,13.5828,15.7649,18.2895,6.7565,4.6386,14.2112,6.9086,22.4492,6.4698,8.815-.4694,17.1823-2.6511,25.1427-6.4439,9.1539-4.3614,17.2579-10.2359,24.6679-17.1061,4.3322-4.0167,8.285-8.3637,11.311-13.4736,2.646-4.4684,4.4253-9.2084,4.1157-14.5123-.421-7.2134-3.4034-13.0097-9.5762-16.9907-2.5873-1.6686-5.4159-2.8112-8.3701-3.6182-4.1362-1.1299-8.359-1.7553-12.649-1.8409-5.2111-.1041-8.876-2.5208-10.883-7.3136-.6594-1.5749-1.1243-3.2487-1.5075-4.9164-.3578-1.557-.4892-3.1659-.737-4.8667ZM164.4096,194.9352c-.8232,0-1.3117-.003-1.8002.0005-3.4266.0246-6.5892-.8203-9.3884-2.8543-2.5408-1.8462-4.4083-4.1865-5.3705-7.2172-.342-1.0773-.6527-2.194-1.5774-3.1438-.2813.7393-.4806,1.3729-.7577,1.9704-.7688,1.6577-1.4363,3.382-2.3843,4.9331-2.5153,4.1155-6.166,6.4026-11.0852,6.5775-4.1015.1458-7.2203-1.6674-8.9242-5.4158-.4102-.9024-.6631-1.8774-.9715-2.8246-.1611-.4948-.2855-1.0016-.4921-1.7362-1.2066,1.6377-2.2175,3.0799-3.3007,4.4657-2.4079,3.0804-5.1045,5.8673-8.4915,7.8929-3.3931,2.0291-7.0018,2.9447-10.9922,2.2748-5.9111-.9922-12.3485-7.9731-12.7285-13.6836-.1023-1.5376-.494-3.0657-.8589-4.5725-.2387-.9859-.6783-1.2311-1.5885-.8257-.8405.3744-1.7487.8591-2.3066,1.5529-1.3497,1.6782-2.6669,3.4193-3.7244,5.2893-5.0745,8.9736-12.2089,15.7437-21.4698,20.2377-4.44,2.1546-8.9812,4.0999-13.4407,6.2154-1.699.806-3.347,1.7471-4.9273,2.7673-1.3481.8704-1.3139,2.0295.069,2.8645.9356.5649,1.9889,1.06,3.0517,1.266,3.3716.6536,6.7528,1.3886,10.1654,1.6768,12.516,1.057,25.0641,1.239,37.618.9454,11.436-.2674,22.8714-.5642,34.3063-.8751,9.4921-.2581,18.9834-.5507,28.4747-.8397,1.7601-.0535,3.5186-.1618,5.3655-.2489,1.3284-9.1942,3.7651-17.9815,7.5299-26.6929Z"/>
    <path class="cls-1" d="M205.1927,63.6236c-.2582.8203-.4256,1.6841-.7938,2.4517-.7252,1.5118-1.6779,2.9015-3.0317,3.9196-4.0488,3.0446-8.5319,5.2491-13.5297,6.108-5.1239.8806-9.0255-1.4397-12.135-5.3424-.2701-.339-.4824-.7238-.7937-1.1971-.7939.9451-.8965,2.0195-.9561,3.0168-.0934,1.5626-.9272,2.5691-2.0978,3.4009-.5858.4162-1.1897.8284-1.837,1.1329-2.9118,1.3701-5.7027.4186-7.1512-2.4579-.3435-.6821-.4941-1.4618-.7292-2.198-.1295-.4056-.2503-.814-.43-1.4005-.9336.422-1.7376.7579-2.5174,1.1428-2.934,1.4482-5.795,3.0675-8.8065,4.3288-3.3213,1.3911-6.7571,2.5358-10.3577,3.0377-3.7299.5199-7.4228.4558-11.0132-.8344-2.3508-.8448-4.3228-2.2399-5.9054-4.1826-.8414-1.0329-1.6802-2.0702-2.5706-3.0601-.8901-.9896-1.2982-1.0511-2.4526-.3562-2.2038,1.3267-3.8858,3.1381-4.8053,5.5672-.7266,1.9194-1.3678,3.8709-2.0589,5.8038-.2052.5738-.404,1.1577-.6865,1.6945-1.1518,2.1886-3.673,2.6896-5.4116.9277-.8664-.878-1.5684-2.0407-2.0016-3.2025-1.9227-5.1555-2.4475-10.4534-1.2327-15.8691.1206-.5374.2421-1.0747.3869-1.7172-.5758-.1228-1.0723-.2287-1.5687-.3346-.0368-.0965-.0737-.193-.1105-.2896.7387-.415,1.4659-.8524,2.2184-1.2407,2.2664-1.1696,4.5918-2.2342,6.8024-3.4999,2.7113-1.5524,5.0791-3.5772,7.2397-5.8345.4543-.4746.87-.9861,1.282-1.4562-1.3819-2.204-2.6016-4.3894-4.0506-6.4106-3.0493-4.2538-6.7644-7.9344-10.3536-11.7245-2.5164-2.6574-4.9768-5.3793-7.2895-8.2133-1.1407-1.3978-1.8799-3.1207-2.8238-4.6827-.2476-.4098-.5114-.867-.8879-1.1312-1.2339-.8655-1.6934-2.0276-1.4682-3.4665.1657-1.0591-.0815-2.2429.9721-3.2831,3.3615,1.9644,5.9288,4.9222,8.9563,7.2903.2195.1717.2871.5376.44.8426-1.0658.7404-1.9928-.162-3.2545-.0408.5022.6536.8499,1.1752,1.2653,1.6358,3.3831,3.7517,6.8248,7.4517,10.1543,11.2501,2.1556,2.4591,4.2244,5.0028,6.2002,7.6085,1.8208,2.4012,2.9256,5.0983,2.5519,8.2219-.0436.3646.0277.7429.2017,1.1555,1.4187-1.4832,2.2348-3.2119,1.9054-5.2936-.737-4.6572-1.5314-9.3056-2.335-13.9519-.9549-5.5209-1.9813-11.0297-2.8873-16.5584-.1842-1.1237-.0193-2.3168.0796-3.4698.0506-.5905.2185-1.304.992-1.3396.7108-.0328.8554.6519.9841,1.1626.6913,2.7422,1.383,5.4856,1.9938,8.2464,1.6177,7.3115,3.1921,14.6326,4.7873,21.949,1.6219,7.4391,6.2197,11.9129,13.5775,13.6811,5.1035,1.2265,10.2494,1.0887,15.4032.5441,5.6414-.5961,11.2045-1.6165,16.6141-3.372.3135-.1017.6185-.2296,1.1222-.4182-.1968-1.2743-.3617-2.5725-.6013-3.8568-1.7094-9.1624-3.3931-18.33-5.1812-27.4771-.4719-2.414.2801-4.4696,1.2596-6.5396.0433-.0914.1525-.1569.2419-.2187.0397-.0275.1065-.0158.3885-.0474.2331.5644.5875,1.1738.7395,1.83,1.0259,4.4295,2.1624,8.8412,2.9702,13.3115,1.2428,6.8773,2.2496,13.7972,3.3603,20.6984.0432.2683.1248.5303.2076.8744.3552-.0284.6906.0071.9835-.0881,4.5584-1.4804,8.9187-3.3923,12.9518-6.0062.2794-.181.5345-.4019.8223-.5671,1.4452-.8295,1.9008-2.0501,1.5642-3.6594-.9308-4.4504-1.8159-8.9103-2.7477-13.3605-.5682-2.7136-1.1865-5.4168-1.7873-8.1236-.4675-2.1058.2205-3.9512,1.3239-5.6785.557-.8718.9942-.8766,1.707-.1094,3.1729,3.4148,6.4073,6.7758,9.4892,10.271,4.7217,5.3548,6.9676,11.6842,6.7676,18.8048-.1407,5.0106-1.9206,9.5421-4.6714,13.6867-1.8123,2.7306-4.5819,3.9817-7.6953,4.4596-1.8014.2765-3.6489.2464-5.4739.378-1.3271.0957-2.667.1413-3.9729.3704-1.5631.2742-1.9218.9455-1.2356,2.3446,1.0872,2.2165,2.5598,4.1728,4.6038,5.6011,1.6136,1.1276,3.449,1.4488,5.4032,1.1561,2.9981-.4489,5.5627-1.8422,7.9518-3.6124.8911-.6603,1.7076-1.4214,2.6006-2.0788.5486-.4039,1.1776-.6984,1.7705-1.0421.1546.1296.3093.2592.4639.3888ZM171.9171,56.8742c-.2959-.0706-.4077-.1338-.5007-.1131-.4316.0962-.8643.1959-1.2853.3298-5.355,1.702-10.8087,2.9554-16.3991,3.5679-5.6542.6194-11.2944.7527-16.8966-.5123-6.5487-1.4787-11.2269-5.1036-13.4477-11.5912-.1025-.2993-.2401-.5866-.4455-1.0831-.2145.4066-.349.6268-.4513.861-.7766,1.7773-1.4563,3.6037-2.3359,5.3282-2.9128,5.7113-7.5992,8.9653-13.95,9.8393-.8713.1199-1.7348.297-2.6023.4477-1.1768,4.4292-1.1057,8.7664.2325,13.0421.3532,1.1286,1.0357,2.2196,1.7953,3.1393.9957,1.2055,2.3847,1.236,3.5135.1532.6202-.595,1.1326-1.3746,1.4809-2.1646.625-1.4178,1.1053-2.9008,1.6173-4.3667.6472-1.8533,1.5164-3.6026,2.8352-5.0476.8843-.969,1.9138-1.8672,3.0302-2.5482,1.5734-.9597,2.9509-.6024,4.1233.8053.3902.4686.7285.98,1.1076,1.4583,2.3512,2.9663,5.3135,4.9872,9.021,5.8944,4.2877,1.0492,8.4928.5128,12.6609-.6225,4.523-1.2319,8.7468-3.1905,12.8552-5.4169,1.4634-.793,2.9229-1.5968,4.4172-2.3283.9032-.4421,1.3475-.1733,1.5049.821.1385.8752.1497,1.7739.3308,2.6384.3226,1.5395,1.2444,2.618,2.8097,2.9601,1.7442.3812,3.4105.1536,4.9274-.8972,1.2513-.8668,1.8994-1.9663,1.6734-3.5312-.2854-1.9761-.5049-3.9617-.7921-5.9375-.2528-1.7387-.5596-3.4695-.8297-5.1256ZM180.89,70.0615c-.3404-.819-.5091-1.3195-.7477-1.784-1.6613-3.2339-1.1799-6.3266.5681-9.3535,1.5875-2.7487,3.8514-4.0748,7.0749-3.4003,2.3546.4927,4.6265.1185,6.8937-.5507,3.6651-1.0818,6.2039-3.3716,7.5204-6.9517,1.9248-5.2347,1.3286-10.2623-1.4793-15.0238-2.7932-4.7364-6.7429-8.5038-10.585-12.3527-.0351-.0352-.1821.0414-.3706.0899.087.5316.1617,1.0747.266,1.6119.8881,4.5728,1.8341,9.1352,2.6604,13.7191,1.0969,6.0852-.8893,10.7017-6.2391,13.822-3.1498,1.8371-6.5601,3.2283-9.856,4.8142-.4845.2331-.9846.4337-1.5679.6888.2933,1.5832.5141,3.0609.8473,4.5129.6335,2.7607,1.3478,5.5014,2.8332,7.9618.478.7916.9953,1.5511,2.1814,2.1962Z"/>
    <path class="cls-1" d="M64.8042,146.6082c-.161,7.03-.938,13.1099-3.2277,18.917-.3239.8215-.7155,1.6257-1.1662,2.3842-.2754.4635-.6712.8954-1.1059,1.2152-.6955.5119-1.3478.2568-1.4326-.5991-.075-.7563.0279-1.5448.15-2.3034.4932-3.0623,1.1203-6.106,1.5209-9.1796.7828-6.0049-.1872-11.8274-2.1654-17.4994-2.8598-8.2-7.6769-15.2104-13.3691-21.6619-1.8333-2.0778-3.7891-4.0505-5.7422-6.0183-.6836-.6887-1.0952-1.3946-.8618-2.3568.8611-3.5494,1.6909-7.1076,2.637-10.6345.3164-1.1795.7332-1.3401,1.8628-.7894,1.0302.5022,2.093,1.1142,2.8634,1.9377,1.9657,2.101,3.9027,4.2525,5.6244,6.5534,4.704,6.2861,8.7194,12.9724,11.3193,20.4365,2.3069,6.623,3.3451,13.4305,3.093,19.5984Z"/>
    <path class="cls-1" d="M9.156,154.6722c.4476-.843.6235-1.306.9076-1.6887,2.2806-3.0715,4.5907-6.121,6.8696-9.1937.5396-.7276,1.2174-1.0147,2.1073-1.1274,5.13-.6497,10.1946-.2333,15.2104.8894,2.27.5082,4.5321,1.0828,6.7528,1.7721,3.1265.9705,4.0749,2.9711,2.9246,6.0483-.385,1.03-.8959,2.0386-1.5029,2.9554-2.1264,3.2114-4.7246,6.0141-7.6206,8.5498-2.0207,1.7693-4.458,2.6757-6.9791,3.3773-4.3422,1.2085-8.7922,1.8069-13.2741,2.1896-.3867.033-.7765.0538-1.1641.0451-.5071-.0114-1.0502-.0466-1.2102-.6518-.1828-.6912.3187-.9972.8336-1.2521.3972-.1967.8074-.3671,1.2101-.5528,5.8902-2.7177,11.781-5.4343,17.6686-8.1575.4389-.203.8552-.4548,1.4492-.7737-1.0977-.895-2.2922-1.1297-3.4513-1.3039-2.5757-.3871-5.1622-.7345-7.7564-.956-2.4869-.2123-4.9882-.2782-7.4849-.3413-1.1039-.0279-2.2116.1203-3.3185.1677-.5781.0248-1.158.0044-2.1717.0044Z"/>
    <path class="cls-1" d="M278.3327,155.8089c-1.1285-.401-1.9647-.8318-2.8493-.9865-2.3455-.4103-4.702-.8286-7.0721-1.012-4.421-.3421-8.8502-.7227-13.2933-.2984-.2543.0243-.5225-.099-1.0022-.199.2533-.5251.3951-.9898.6678-1.3574,2.3116-3.1157,4.6535-6.2088,6.97-9.3209.4636-.6229,1.0477-.8929,1.8093-1.0084,4.7254-.7166,9.4126-.3757,14.0616.5466,2.6061.517,5.1799,1.2056,7.7529,1.8757.739.1925,1.4828.4998,2.1228.9121,1.3901.8954,2.0161,2.5071,1.4579,4.2433-.4687,1.4579-1.1108,2.9104-1.9444,4.1908-2.007,3.083-4.5537,5.716-7.2928,8.1684-1.9576,1.7527-4.3114,2.7069-6.7714,3.4178-4.7083,1.3607-9.5597,1.9028-14.4194,2.3684-.2731.0262-.5962.0717-.8184-.0426-.3147-.162-.6758-.4198-.7892-.7222-.0775-.2066.1618-.653.3872-.825.3882-.2964.8711-.4727,1.3225-.6817,6.2355-2.8878,12.4729-5.7717,18.7074-8.6619.2408-.1117.4569-.2768.993-.6071Z"/>
    <path class="cls-1" d="M141.5693,267.4541c3.7109,2.1821,7.2807,4.2812,10.9931,6.4641-2.261,4.0065-4.4562,7.8965-6.7711,11.9986-4.5492-2.6242-8.9824-5.1815-13.6193-7.8563,2.1586-3.9659,4.2644-7.8347,6.4668-11.881-3.6576-2.1559-7.2557-4.2766-10.9849-6.4748,2.1814-4.0051,4.2896-7.8759,6.5102-11.9531,4.6302,2.7242,9.1413,5.3784,13.8509,8.1493-2.1394,3.8346-4.2303,7.5824-6.4456,11.5531Z"/>
    <path class="cls-1" d="M83.7505,125.1266c-.8328,1.4015-1.8917,1.2746-2.9469.7032-1.8477-1.0006-3.7001-2.0038-5.4721-3.1293-1.2323-.7828-1.9184-1.9819-1.8273-3.5213.0816-1.3781.003-2.7859.2628-4.1288.4135-2.1376,1.5445-2.9591,3.698-2.581,1.3278.2332,2.7374.7034,3.8176,1.4761,1.5588,1.1151,3.0067,2.4739,4.2273,3.9549,2.8319,3.4359,5.1521,7.2085,6.8078,11.3715.6684,1.6806,1.4699,3.3083,2.2108,4.9601.1186-.0206.2371-.0411.3557-.0617.0907-.462.1883-.9228.2711-1.3862,1.0136-5.6729,1.9536-11.3605,3.0784-17.0112.3634-1.826,1.1581-3.5769,1.8615-5.3195.3049-.7555.8175-1.4527,1.3419-2.089,1.0786-1.3089,2.4865-1.7776,4.169-1.4444,2.7956.5536,4.7308,2.3314,6.3695,4.4966.2742.3623.4345.9634.3625,1.408-.2736,1.6905-.6274,3.3711-1.0355,5.0348-.107.4363-.5178.7981-.9044,1.3626-.7118-.8897-1.2548-1.6532-1.8867-2.3343-.6352-.6847-1.2834-1.4056-2.0597-1.9009-1.5603-.9953-3.0767-.7477-4.0453.8165-.8338,1.3465-1.5853,2.8473-1.9201,4.3789-.8033,3.6755-1.3709,7.4042-1.9762,11.1208-.5879,3.6097-1.0852,7.2342-1.6672,10.8449-.1222.7577-.3811,1.509-.6833,2.2181-.3863.9064-.9858,1.0289-1.6387.2678-.5678-.6619-1.0524-1.4412-1.3879-2.2461-.6172-1.4808-1.1429-3.0042-1.6263-4.5352-1.1111-3.5194-2.5862-6.8513-4.9517-9.7203-.838-1.0163-1.797-1.9329-2.8047-3.0056Z"/>
    <path class="cls-1" d="M244.5351,64.341c.2941-2.021.507-4.058.8992-6.0599.8413-4.2938,1.694-8.5889,2.7165-12.8416.3416-1.4208,1.0823-2.7977,1.8743-4.0464,1.2201-1.9235,2.6924-2.409,4.8809-1.837,2.3726.6201,4.0669,2.1972,5.4928,4.0951.2191.2916.3767.73.3531,1.0865-.1289,1.9374-.3771,3.8584-1.3153,5.6095-.1039.1939-.2499.3654-.4986.7232-.4666-.4616-.816-.7706-1.1221-1.1177-.659-.7476-1.2254-1.5918-1.9557-2.2587-1.7296-1.5794-3.5572-1.3359-4.6904.6856-.6432,1.1475-1.2094,2.4095-1.4655,3.6889-.717,3.582-1.2711,7.1972-1.8579,10.8044-.4805,2.9535-.8759,5.9214-1.3914,8.8686-.1939,1.1086-.3746,2.2947-1.3541,3.0917-1.1123-.3269-1.6045-1.1607-1.9506-2.02-.7442-1.848-1.4251-3.7243-2.0555-5.6145-1.1552-3.4629-2.79-6.6414-5.3176-9.3132-.4535-.4794-.9524-.9157-1.5127-1.4505-.6928,1.218-1.673,1.1173-2.6138.605-1.7962-.978-3.5744-1.997-5.2999-3.0937-1.0465-.6652-1.5452-1.7415-1.4999-2.9936.0499-1.3792.029-2.7833.2925-4.1268.3445-1.7566,1.5343-2.4756,3.3094-2.2539,1.4009.1749,2.6699.6933,3.8308,1.5049,2.4117,1.6861,4.1619,3.9702,5.802,6.3554,2.1161,3.0774,3.7501,6.4043,5.1144,9.8731.2797.7112.6561,1.3844.9879,2.0752.1158-.0132.2316-.0264.3473-.0396Z"/>
    <path class="cls-1" d="M263.9436,95.9221c.5998,2.8013-.6357,5.5666-2.8629,6.7819-12.8588,7.0167-25.771,13.9386-38.5415,21.1124-5.1667,2.9024-10.021,6.3605-15.0178,9.5653-.2281.1463-.4591.2881-.8933.5602-.6834-2.1808-.6408-4.2117.1662-6.1849.2004-.49.8551-.8441,1.3672-1.1496,8.0534-4.8057,16.0023-9.8022,24.2091-14.3313,9.906-5.4669,20.0319-10.536,30.0679-15.7671.4657-.2427.9831-.3862,1.5051-.587Z"/>
    <path class="cls-1" d="M73.0865,267.3764c.3606-2.3298.6558-4.6721,1.0966-6.9867.7255-3.809,1.1638-7.6925,2.6111-11.3302.4267-1.0724.9648-2.1278,1.6184-3.0762,1.0196-1.4797,2.4772-1.9419,4.2437-1.4699,2.2042.5888,3.7968,2.0001,5.1762,3.7192.1023.1275.1799.2822.2387.4359.5233,1.3669-.438,5.1769-1.7406,6.4833-.3557-.4001-.7013-.7954-1.0542-1.1842-.6321-.6966-1.1929-1.4838-1.9189-2.0639-1.539-1.2297-3.004-1.0451-3.8893.6895-.846,1.6576-1.5548,3.462-1.9,5.2822-.7122,3.7545-1.106,7.5681-1.7016,11.3461-.3534,2.2417-.8002,4.4715-1.3001,6.6852-.119.5269-.6187.9679-.9433,1.4484-.5021-.3911-1.1918-.6809-1.4686-1.1936-.6543-1.2119-1.195-2.5022-1.6315-3.8108-.8257-2.476-1.6035-4.9609-2.9749-7.2115-1.0466-1.7176-2.2626-3.2865-3.8838-4.6904-.8814,1.0434-1.9225.8186-2.9343.2597-1.4535-.8029-2.9094-1.6106-4.3005-2.5144-1.1302-.7343-1.7742-1.8005-1.6788-3.2321.0699-1.0498-.0321-2.1198.1245-3.1533.3073-2.0271,1.499-2.8522,3.5278-2.583,1.6539.2194,3.0374,1.0072,4.2828,2.0744,2.6562,2.2758,4.6022,5.1159,6.2546,8.1448,1.1653,2.1362,2.1018,4.397,3.147,6.599.2251.4743.4784.9352.7188,1.4023.0934-.0233.1869-.0465.2804-.0698Z"/>
    <path class="cls-1" d="M92.0913,45.5587c-1.2612-.942-1.0618-2.121-.6979-3.3222.4496-1.4841.8277-2.9964,1.3843-4.4395.5145-1.3341,1.0975-1.6126,2.3125-.9214,1.9187,1.0914,3.7605,2.3363,5.5432,3.6413,1.0078.7378,1.277,1.9259,1.0809,3.1547-.1132.7092-.29,1.4143-.5057,2.0999-.39,1.2394-1.1882,2.0771-2.4565,2.5067-2.101.7116-4.1805,1.4873-6.2648,2.2478-.4682.1708-.9318.3648-1.375.5921-2.2871,1.1731-2.9959,2.3658-2.2992,4.8541,1.045,3.7324,2.322,7.4012,3.5469,11.0815.981,2.9473,2.0936,5.8517,3.0347,8.8111,1.0932,3.4378,1.2946,6.9651.7473,10.5368-.8292,5.4119-3.9839,8.8114-9.3156,9.9954-.5269.117-1.0632.1913-1.9118.3416.3006-.5373.3983-.9051.637-1.1029.7682-.6363,1.5949-1.2015,2.3874-1.8092,1.9903-1.5261,3.8567-3.1721,5.2392-5.3039,1.0737-1.6554,1.5666-3.4579,1.1992-5.3921-.3188-1.6782-.7229-3.3562-1.2738-4.9714-2.0415-5.9851-4.2382-11.9182-6.2162-17.9237-1.044-3.1697-1.1551-6.4265.1922-9.6132.7863-1.8598,2.0037-3.3063,3.7742-4.2873.383-.2122.7436-.4647,1.2376-.7763Z"/>
    <path class="cls-1" d="M66.3937,34.9224c.7674,1.2251.2958,2.1068-.0272,2.948-.6944,1.8083-1.527,3.5651-2.1854,5.3855-2.1875,6.0483-4.2017,12.1546-5.4192,18.4843-.6282,3.266-1.1652,6.5599-.5919,9.9047.1024.5975.2279,1.2076.459,1.7635.9408,2.2634,3.1312,2.882,5.1882,1.4889,1.1996-.8124,1.8346-2.0431,2.4229-3.3114.2307-.4973.4788-1.0056.823-1.4231.1722-.2089.625-.367.8653-.288.2333.0767.4135.467.5119.7554.0849.2486.0609.5538.0183.8235-.4603,2.9121-1.0788,5.7947-2.4831,8.4116-1.3121,2.4449-3.4417,3.677-6.2421,3.7003-1.7846.0148-3.0466-.772-3.8746-2.3643-1.959-3.7672-2.3491-7.7963-2.1928-11.9569.1583-4.2137,1.3343-8.197,2.6288-12.1466,1.6738-5.1071,3.4749-10.1725,5.2111-15.2593.7077-2.0734,1.7063-3.9744,3.2584-5.5432.4519-.4567.9842-.834,1.6294-1.3728Z"/>
    <path class="cls-1" d="M268.2094,120.2238c-.7303.9233-1.5375.803-2.3104.3766-1.3084-.7219-2.6106-1.4625-3.8621-2.277-.8725-.5678-1.417-1.3947-1.3624-2.5134.0513-1.048-.0191-2.1132.1453-3.1418.2286-1.4307,1.0016-2.0741,2.4222-1.9349.9648.0945,1.9895.3601,2.8201.8391.9905.5714,1.8917,1.3697,2.6748,2.2149,2.4344,2.6276,4.2694,5.6587,5.714,8.9292.5352,1.2116,1.0613,2.4273,1.7613,4.0297.1735-.7034.2714-1.0239.3304-1.3514.7373-4.0917,1.3845-8.2023,2.2444-12.268.3385-1.6006.9992-3.1824,1.7807-4.6282,1.0918-2.0198,2.6838-2.4832,4.8001-1.6669,1.5499.5979,2.7041,1.7125,3.7123,2.9935.1013.1288.2209.2836.2344.4351.1749,1.9588-.1697,3.7828-1.5845,5.8668-.3758-.6003-.5722-.9954-.8435-1.3299-.4883-.602-.9652-1.2328-1.5474-1.7351-1.2679-1.0938-2.7108-.9516-3.4848.5269-.7352,1.4042-1.3296,2.9483-1.6303,4.4997-.5899,3.0438-.9216,6.137-1.3821,9.2065-.2549,1.6991-.5489,3.3925-.8378,5.0863-.065.3817-.1155.7895-.2911,1.1229-.2418.4592-.5216,1.1102-.9192,1.2284-.683.2031-1.0796-.4865-1.3064-1.0405-.6706-1.6386-1.3275-3.287-1.8869-4.9659-.9249-2.7757-2.2492-5.3056-4.266-7.4458-.302-.3205-.6418-.6053-1.1252-1.0571Z"/>
    <path class="cls-1" d="M224.864,82.5877c-.8119-.7568-1.5449-1.3542-2.1752-2.0453-1.366-1.4977-1.5236-2.6378-.5459-4.3835,1.0674-1.9058,2.4678-3.5556,4.25-4.8378.5312-.3822,1.1479-.6873,1.7699-.8937,1.8693-.62,3.1639.2232,3.1735,2.1448.0067,1.3379-.4522,2.5709-1.5767,3.6075-.2622-.3202-.4774-.5482-.6529-.8035-.7711-1.1216-1.2575-1.2544-2.4951-.6451-.2483.1223-.4905.2601-.7233.4099-.5702.3668-1.1382.7642-1.0745,1.5476.0724.89.682,1.3855,1.4566,1.6402,2.0315.6677,4.0229.8188,5.8415-.6253.4773-.379.9586-.7714,1.4924-1.0554.497-.2644,1.0664-.3926,1.6376-.5925.4188,2.4415-.0635,3.544-2.0215,4.3442-3.7351,1.5264-6.6942,4.0974-9.5112,6.87-.5482.5395-1.0402,1.1656-1.4355,1.8252-1.0586,1.766-.5769,3.2604,1.422,3.6912,1.817.3916,3.7366.5143,5.5989.4426,3.1894-.1229,6.1917-1.1639,9.1453-2.3274.6926-.2728,1.3842-.7677,2.3008-.345-.0951.2491-.1256.542-.2854.717-4.7851,5.2387-10.7139,7.338-17.6981,6.1863-3.1652-.5219-4.3866-2.6934-3.3664-5.7616,1.1287-3.3941,2.7389-6.5446,5.4732-9.1102Z"/>
    <path class="cls-1" d="M288.3487,170.7127c.6985,1.1292.2737,1.9346.0303,2.6728-1.9672,5.9675-3.316,12.0694-4.0432,18.3061-.2767,2.3729-.3787,4.7602.1249,7.1226.1254.5883.3034,1.1909.5895,1.7146.9002,1.6476,2.698,1.9706,4.023.6288.6347-.6426.9973-1.5652,1.4356-2.3863.3268-.6122.3267-1.4397,1.1949-1.6896.6854.217.7137.8333.6665,1.3526-.2056,2.264-.4437,4.5363-1.3906,6.6396-.783,1.7393-2.144,2.7549-4.0573,3.0626-1.6143.2596-2.8098-.2694-3.6731-1.6485-1.0771-1.7207-1.7179-3.6077-2.0609-5.5842-.4971-2.8647-.5682-5.7577.0778-8.6023,1.2516-5.5114,2.5274-11.0194,3.9447-16.4896.3644-1.4064,1.2601-2.685,1.982-3.9832.2213-.3979.6768-.6656,1.156-1.1159Z"/>
    <path class="cls-1" d="M133.5242,115.3195c-.1705.7358-.2902,1.4877-.5193,2.2048-2.1829,6.831-3.7781,13.7901-4.3898,20.9419-.1544,1.8052.0559,3.6478.1817,5.4675.0448.648.274,1.3047.5257,1.9133,1.0305,2.4914,3.53,2.9165,5.2674.8429.5874-.701.8973-1.6348,1.3316-2.4636.239-.4562.4727-.9152.7088-1.373l.363.0727c.0831.4001.2511.8035.2354,1.1996-.0905,2.2828-.4378,4.5303-1.2821,6.6624-.7233,1.8268-2.0897,2.9538-4.0359,3.3479-1.7359.3515-2.8605-.0915-3.8342-1.596-1.6751-2.5883-2.315-5.4907-2.4867-8.5195-.1578-2.7846.0696-5.5432.7219-8.255,1.2566-5.2245,2.5442-10.4415,3.8155-15.6625.3869-1.5889,1.0894-3.0209,2.1415-4.2712.2311-.2746.5511-.4744.8301-.7087.1418.0655.2835.1309.4253.1964Z"/>
    <path class="cls-1" d="M112.0662,272.9161c.0238.4732.1656.9773.0509,1.4141-.4775,1.8178-.9251,3.6559-1.5901,5.4083-.6111,1.6104-1.9831,2.5065-3.6514,2.8554-1.7741.371-3.0051-.2405-3.8277-1.8753-1.4166-2.8154-1.6914-5.8174-1.4389-8.9144.3012-3.6952,1.5635-7.1414,2.7056-10.6146.9699-2.9494,1.969-5.8951,3.1236-8.7749.5039-1.2568,1.3979-2.3661,2.1815-3.4962.2166-.3124.6729-.4588,1.0663-.7116.4691.9752.0926,1.682-.2018,2.3844-2.386,5.6934-4.3185,11.5322-5.3709,17.6223-.3084,1.7848-.2194,3.6387-.3029,5.4614-.01.2193.0187.4465.0675.6614.2536,1.1153.6168,2.2112,1.8795,2.51,1.3039.3086,2.2456-.4088,2.9643-1.404.3528-.4884.5448-1.0903.8751-1.5982.2733-.4203.6427-.778.9694-1.1635.1667.0785.3335.1569.5002.2354Z"/>
    <path class="cls-1" d="M161.4348,22.1525c-.0898,1.0204-.7105,1.5658-1.629,1.8822-1.8339.6316-3.6764,1.2433-5.4859,1.9396-7.1985,2.7701-14.1674,6.0552-21.0858,9.4522-.6452.3168-1.3034.631-1.9886.8365-.8898.2669-1.407-.1721-1.3516-1.0856.0537-.8853.4847-1.5989,1.207-2.0863.6407-.4323,1.3164-.8293,2.0177-1.153,8.4077-3.8809,16.9254-7.4983,25.6482-10.6192.4168-.1491.8422-.2884,1.275-.3759,1.0257-.2072,1.4854.2049,1.3931,1.2094Z"/>
    <path class="cls-1" d="M243.4259,165.3036c.1648.6508.3588.9753.2949,1.2368-.3933,1.6088-.7615,3.2325-1.3055,4.7929-.3797,1.0891-1.3078,1.7676-2.4153,2.131-1.731.5679-2.886.1135-3.7025-1.531-1.3909-2.8014-1.5987-5.8183-.9473-8.7761.7849-3.5637,1.928-7.0504,2.9632-10.5565.4234-1.4338.9467-2.8398,1.4683-4.2422.4481-1.2048,1.1973-2.1889,2.3468-3.0312.4568.9088.02,1.5361-.2221,2.1657-1.9546,5.0834-3.6462,10.2438-4.2212,15.6882-.143,1.3542.0111,2.7588.1845,4.1204.1069.8391.5991,1.58,1.566,1.7273.9094.1386,1.6464-.2576,2.1727-.9618.3599-.4817.5776-1.0671.8968-1.5827.2059-.3326.4805-.6228.9206-1.1808Z"/>
    <path class="cls-1" d="M154.1176,39.7809c1.0645.3734,1.0969,1.1753,1.3703,1.8015.486,1.113.8571,2.2874,1.4466,3.3408.5527.9878.9591,1.027,2.3608.6488-.6053-1.9416-1.5775-3.903-.41-6.1215.2499.3172.4588.4991.5635.7285.6898,1.5126,1.3735,3.0284,2.0271,4.5569.5889,1.3772.6375,2.6886-.5786,3.8104-1.1398,1.0514-2.374,1.0459-3.6886.3884-.193-.0965-.4058-.1535-.704-.2637-.9408,1.2779-2.1443,2.0041-3.8116,1.835-1.3718-.1391-2.319-.8002-2.7407-2.0691-.6907-2.0786-.3513-4.1564.2141-6.2084.0415-.1506.1649-.2787.2734-.4547.9131.4598.7921,1.2665.9609,1.9057.1972.7466.2392,1.5405.4891,2.2654.3629,1.0528,1.0235,1.3858,1.9047,1.1202.8058-.2429,1.0732-.7755.8704-1.8643-.2029-1.0889-.5121-2.1617-.653-3.2572-.0859-.6677.0583-1.3649.1059-2.1627Z"/>
    <path class="cls-1" d="M158.526,81.997c1.7253,1.0303,3.266,1.9503,4.9602,2.962-.8803,1.6254-1.654,3.0539-2.5121,4.6384-1.7003-.9231-3.1896-1.7317-4.8609-2.639-.3281.6066-.6603,1.1506-.9266,1.7251q-1.1617,2.5066-3.5723,1.0687c-.5689-.3404-1.1249-.7043-1.6688-1.0833-.2695-.1877-.6017-.3867-.7278-.6619-.6879-1.5015.5185-2.4735,1.1392-3.5614.4796-.8405.8547-.8098,1.9838-.2328,1.1197.572,2.2298,1.1627,3.4738,1.813.91-1.352,1.7297-2.57,2.7116-4.0288Z"/>
    <path class="cls-1" d="M135.9115,21.2597c.2044-1.5832.3357-2.8842.5499-4.1714.1816-1.0911.3753-2.1931.7125-3.2424.6095-1.8966,1.6611-2.5143,3.0122-1.9129,1.7095.761,2.3123,2.4264,1.358,4.2687-.4905-.3613-.9402-.7206-1.4177-1.0383-.9114-.6063-1.5911-.4199-1.9334.6115-.2059.6203-.2768,1.3006-.3127,1.9592-.1265,2.3245-.1954,4.6521-.3238,6.9765-.0322.5829-.2052,1.1581-.3134,1.7369-.1233.0349-.2466.0698-.37.1048-.3214-.4703-.6668-.9263-.9597-1.4138-.7704-1.2825-1.4752-2.6067-2.2918-3.8584-.4437-.68-1.0623-1.246-1.5791-1.8372-.5203.1557-.8787.3109-1.2518.3653-.9619.1404-1.8837-.2572-2.1439-1.1758-.2625-.927-.3535-1.9577-.2556-2.916.0981-.9608.8066-1.3491,1.6982-.9816.7444.3069,1.5142.7692,2.0286,1.3712,1.076,1.2591,1.9918,2.655,2.9715,3.9962.2174.2976.427.6009.8219,1.1576Z"/>
    <path class="cls-1" d="M151.8343,7.8131c.2025.8178.4267,1.2791.406,1.7291-.047,1.0206.4152,1.7125,1.2332,2.1867,2.3426,1.358,2.5582,3.9136,1.6447,6.1376-.8148,1.9837-3.3261,3.0223-5.2947,2.2042-1.0159-.4222-1.5159-1.2602-1.692-2.3065-.2455-1.459-.0903-2.9047.4795-4.2472.6699-1.5783,1.4819-3.0973,2.2612-4.6274.14-.275.4193-.479.962-1.0766ZM152.154,17.4441c.2239-.0661.8096-.1188,1.2351-.4075.2771-.188.474-.7348.4375-1.0934-.072-.7078-1.6624-1.8761-2.3777-1.7322-.4234.0852-.9398.4062-1.141.7716-.7118,1.2928.0274,2.4221,1.8461,2.4615Z"/>
    <path class="cls-1" d="M110.1653,27.6287c-.1901-.6303-.3491-.9712-.3875-1.3252-.0715-.6599-.0824-1.3271-.1017-1.9917-.1335-4.5783-2.1413-8.1664-5.7321-10.94-1.3432-1.0374-1.6831-1.9344-1.2931-3.1156.2726-.8258.7501-1.0437,1.5232-.6656.246.1203.4752.2902.6833.4706,4.0712,3.5295,6.6833,7.8182,6.765,13.3491.0151,1.0245-.272,2.0672-.5259,3.0747-.0894.3546-.4971.629-.9312,1.1436Z"/>
    <path class="cls-1" d="M180.0113,19.6097c1.0332,1.2088.6391,2.2351.3413,3.2022-.2879.9348-.9139,1.6525-1.8852,1.9552-.9738.3035-1.8095-.1453-2.3753-1.3104-.7899-1.6265-1.1334-3.3559-.9023-5.1584.2489-1.9413.8846-3.7647,1.8885-5.4482.5443-.9128.701-1.0042,1.7662-1.2951.3941.688-.0578,1.2508-.2761,1.8441-.5141,1.3976-1.1133,2.772-1.5068,4.2029-.2437.8862-.2195,1.8583-.2285,2.7927-.0062.6437.283,1.2064.9876,1.3593.7184.1559,1.1231-.228,1.3928-.8728.1611-.3851.4444-.719.7979-1.2715Z"/>
    <path class="cls-1" d="M141.0852,44.0287c.1193.3777.4059.7959.3262,1.1256-.2293.9481-.4429,1.967-.9614,2.7637-.9559,1.4688-2.6174,1.2962-3.4255-.2924-.9813-1.9291-1.4107-4.0131-.8423-6.1164.4419-1.6355,1.1763-3.1981,1.8575-4.7597.2577-.5908.7262-1.0939,1.4973-1.1683.5032.7629-.0465,1.3219-.2703,1.8827-.7828,1.9614-1.4981,3.9322-1.5041,6.0808-.0012.4408-.0527.9162.092,1.3126.1348.3692.4734.8855.7704.9198.3979.0459.9245-.221,1.2445-.5172.3623-.3352.5572-.8514.8248-1.289.1303.0193.2606.0385.3909.0577Z"/>
    <path class="cls-1" d="M173.6828,38.3202c-.3092-1.6558.034-2.7868,1.258-3.4193,2.8552-1.4754,5.7556-2.8634,8.6438-4.2744.1809-.0884.4143-.0695.6188-.0999.3286,1.5057.1695,1.9587-1.1748,2.74-2.589,1.5048-5.2032,2.9665-7.8174,4.4275-.4128.2307-.8798.3642-1.5284.626Z"/>
    <path class="cls-1" d="M113.344,88.422c-.3738-1.2832-.2143-2.3106.865-2.8636,3.043-1.5591,6.1324-3.0276,9.2075-4.5239.0831-.0404.2104.0101.3918.0239.5172.7035.1143,1.3638-.2964,1.9005-.3539.4625-.8759.8448-1.3982,1.122-2.3891,1.2684-4.8007,2.4948-7.2136,3.7178-.4756.241-.9926.4003-1.5561.6232Z"/>
    <path class="cls-1" d="M174.2101,78.8815c4.3347.7432,7.5355,7.7969,5.2669,11.7702-.1272-.393-.2824-.6595-.2906-.9306-.0839-2.7754-1.3183-4.9804-3.3317-6.8053-.3275-.2969-.6797-.5666-1.0213-.848-1.3743-1.1322-1.4176-1.334-.6233-3.1863Z"/>
    <path class="cls-1" d="M97.7652,50.5768c.6486.6676.2747,1.2695.0457,1.8717-.3125.8217-.721,1.6236-.9041,2.4736-.2458,1.1409.0633,1.5834,1.2453,2.2065.3401-.5043.6862-1.0175,1.1226-1.6645.266.3357.5251.5147.5587.729.2279,1.4539-.1625,2.7472-1.2037,3.7931-.8001.8038-1.669.7784-2.4581-.0667-1.0828-1.1596-1.5228-2.5579-1.2633-4.1249.3046-1.8396,1.1751-3.4337,2.3045-4.892.1159-.1496.3479-.2093.5523-.3257Z"/>
    <path class="cls-1" d="M190.1239,262.2244c.6277-.3112,1.2339-.6799,1.8865-.9251,8.4732-3.1827,15.6873-8.2162,21.8781-14.7779,2.9573-3.1345,6.32-5.7462,10.1996-7.6595.4964-.2448,1.0032-.4816,1.5272-.6553,1.8847-.625,3.714-.6012,5.41.5765,2.679,1.8604,6.702.5547,8.0003-2.4473.2422-.56.4703-1.1265.722-1.6822.3267-.7215.7271-1.3761,1.7265-1.5699.0777.2893.257.5915.2122.8557-.1645.9688-.6591,1.9927.4392,2.7171,1.0857.7161,2.1959.5263,3.424-.1029-1.6958-1.8483-.563-3.2997.4946-4.7806.9511.0486,1.198.7262,1.3146,1.3555.3362,1.814.4141,3.6518-.1499,5.4367-.87,2.7534-3.6406,3.7725-6.1464,2.3089-.3738-.2183-.7497-.4331-1.2294-.7101-.3663.4056-.695.7596-1.0127,1.1232-2.2213,2.5424-5.072,3.1308-8.0798,1.6526-3.2515-1.598-6.2796-.8588-9.1257.985-1.3444.871-2.5585,1.9523-3.7868,2.9913-2.6702,2.2586-5.2855,4.5825-7.9712,6.8222-3.4405,2.869-7.3456,4.9745-11.4724,6.6625-1.9473.7965-3.9502,1.4658-5.9546,2.1094-.6844.2197-1.4507.1849-2.1795.2664-.0421-.1841-.0842-.3681-.1262-.5522Z"/>
    <path class="cls-1" d="M136.2462,68.692c0-.9951-.0525-1.9936.0137-2.9843.0778-1.1656.2533-2.3291,1.0842-3.253.7657-.8513,1.5537-.9547,2.5167-.3505,1.469.9216,1.8992,2.1629,1.4421,4.1878-.7296.2489-.9168-.4458-1.3037-.7724-1.147-.9683-1.9843-.7869-2.222.6827-.2726,1.6856-.2976,3.4147-.375,5.1274-.0577,1.2757-.0186,1.2775-.65,2.5294-.3249-.4703-.6133-.8334-.8428-1.2305-.6106-1.0565-1.1808-2.1364-1.7954-3.1905-.6056-1.0388-1.2897-1.7489-2.7341-1.7272-1.9884.03-2.8639-1.435-2.2583-3.3011.3918-1.2073,1.192-1.5813,2.3009-.9937.4792.2539.9489.6076,1.2894,1.0247.8047.9857,1.5347,2.0328,2.2838,3.0631.3124.4298.5966.8801.8937,1.3211.1189-.0444.2378-.0888.3567-.1331Z"/>
    <path class="cls-1" d="M201.2032,42.2458c.1043.3458.3133.6975.2944,1.0365-.0733,1.3168-.5882,2.4858-1.499,3.43-.887.9196-1.8206.8949-2.7855.0241-1.1429-1.0314-1.6628-2.3489-1.6158-3.8599.0919-2.9571,1.3976-5.4294,3.2074-7.6769.1209-.1502.362-.2036.9141-.497-.2497.8153-.3666,1.3136-.5532,1.7842-.4894,1.234-1.1375,2.4221-1.474,3.6942-.2455.9281-.2096,1.9771-.0692,2.9386.0591.4049.664.9031,1.1087,1.0177.2948.0759.7999-.4018,1.1125-.7264.3554-.3692.6012-.8438.8947-1.2727.155.0359.31.0717.4649.1076Z"/>
  </g>
</svg>