<?xml version="1.0" encoding="UTF-8"?>
<svg id="Ismail" xmlns="http://www.w3.org/2000/svg" viewBox="0 0 304.8742 293.7299">
  <defs>
    <style>
      .cls-1 {
        fill: #000;
      }

      .cls-1, .cls-2 {
        stroke-width: 0px;
      }

      .cls-2 {
        fill: #007424;
      }
    </style>
  </defs>
  <rect id="bg" class="cls-2" width="304.8742" height="293.7299"/>
  <g id="content">
    <path class="cls-1" d="M259.5616,208.0091c0-.6628-.066-1.3333.01-1.9873.9341-8.0433.6032-16.0818-.009-24.1253-.3207-4.2145-.5373-8.4369-.8038-12.6556-.1476-2.3373-.2976-4.6744-.4571-7.0109-.0187-.2751-.1045-.5457-.1372-.709-1.8438-.1354-3.6046-.1881-5.3443-.4082-3.7541-.4751-6.3171-2.504-7.3791-6.1706-.4246-1.466-.5089-3.0286-.7915-4.5391-.0766-.4098-.224-1.0201-.4962-1.1231-.3092-.117-.9056.1205-1.1834.3979-.9682.9669-1.8451,2.0244-2.7705,3.0348-1.3104,1.4309-2.5506,2.9391-3.9663,4.2581-3.915,3.6475-8.4506,6.0093-14.1279,6.2369.0311.6799.0103,1.284.0941,1.8731.3968,2.791.5113,5.5823-.112,8.3484-.2356,1.0456-.5885,2.0865-1.0456,3.0552-.6513,1.3801-1.2328,1.5859-2.5788.9204-2.0502-1.0137-3.9715-2.2283-5.6898-3.7726-3.0608-2.7507-4.841-6.1651-5.4914-10.1931-.2637-1.633-.4535-3.2778-.6942-4.9146-.0472-.3208-.1742-.6298-.3202-1.1386-.4016.3553-.7111.5664-.9415.8433-1.3514,1.625-2.7371,3.2252-4.0132,4.9082-3.3509,4.4195-7.9355,5.9447-13.2536,5.6783-6.8072-.3411-12.6581-3.1895-18.0593-7.1219-1.4685-1.0692-2.8738-2.2251-4.2592-3.3031-4.8923,2.5786-13.9169,11.0022-14.5846,13.6902,2.7982.2416,5.5673.5891,8.3457.6974,5.3652.2091,10.7366.255,16.1038.4209,5.7649.1782,11.5322.3406,17.2897.6644,2.4407.1373,4.9.4953,7.2802,1.0539,6.4928,1.5239,10.4838,5.7615,12.3075,12.0612,1.2498,4.3172.9443,8.7121.165,13.0729-1.0861,6.078-3.679,11.4978-7.3864,16.3997-5.4386,7.1907-12.1265,12.8585-20.3873,16.5763-7.3425,3.3046-15.023,4.146-22.9527,3.0503-3.302-.4562-6.4687-1.3537-9.4581-2.8707-5.996-3.0428-9.7232-7.992-11.8958-14.2026-1.288-3.6815-1.9654-7.5089-2.1801-11.406-.5203-9.4422.4031-18.7095,3.5122-27.8083-.3811-.1704-.7112-.3624-1.0668-.4701-3.4662-1.0495-6.6904-2.6264-9.7815-4.4875-4.2443-2.5554-6.9746-6.3294-8.7104-10.8961-.2403-.6323-.5098-1.2534-.8746-2.1462-.5994.8996-1.0852,1.5768-1.5176,2.2865-1.7531,2.8771-3.4133,5.814-5.2521,8.6348-2.2505,3.4522-5.1762,6.1585-9.3955,6.8982-6.1737,1.0823-12.1587-1.4764-14.5228-8.2636-.9809-2.8161-1.5005-5.7386-1.7249-8.7122-.0242-.3204-.0543-.6404-.2859-1.0005-.1148.3015-.2636.5949-.3374.9061-.158.666-.3197,1.3358-.4056,2.0134-.6444,5.0855-2.926,9.178-6.7554,12.6746-7.9651,7.273-16.3939,13.8696-25.8775,19.0444-4.4741,2.4413-9.1522,4.4015-14.177,5.443-4.6946.973-9.3434.83-13.8248-.89-5.4174-2.0791-8.7743-6.2138-10.7187-11.5518-2.7066-7.4304-2.8549-15.0901-1.8687-22.8306.5233-4.1077,1.6023-8.0593,3.4522-11.7779.477-.9588,1.0351-1.8774,1.5831-2.8634.8105.5012.5841,1.0807.432,1.5947-.3887,1.3132-.8184,2.6144-1.2357,3.9191-1.2597,3.9382-2.0098,7.978-2.1709,12.1027-.1784,4.5672.5459,8.9848,2.5571,13.1479,2.2315,4.6192,5.8541,7.5074,10.7982,8.75,5.4893,1.3796,10.8818.7436,16.2088-.8916,6.279-1.9275,11.987-5.0297,17.4614-8.589,6.235-4.0538,12.2841-8.3542,17.5475-13.6583.8448-.8513,1.6434-1.7483,2.4769-2.6109,1.7505-1.8116,2.5926-4.0151,2.7289-6.489.1477-2.6806.3252-5.3661.3051-8.048-.066-8.7979-.0812-17.5996-.3714-26.3915-.2902-8.792-.9953-17.5664-2.1712-26.2909-.8846-6.563-1.8612-13.1135-2.7919-19.6704-.0479-.3373-.1213-.6948-.0605-1.0201.5233-2.8033,1.0588-5.6048,1.6336-8.3979.0959-.466.3997-.8893.8047-1.7532.4392,1.0366.775,1.657.971,2.3188,2.0312,6.856,3.3518,13.8633,4.3976,20.927,1.4072,9.5047,2.1031,19.072,2.4657,28.6662.3538,9.3619.5927,18.7292,1.0526,28.0857.2126,4.3251.7521,8.6404,1.3082,12.9389.1943,1.502.7826,2.9814,1.3668,4.3987,1.2022,2.9163,3.3975,4.4029,6.6147,4.5532,5.6909.2658,10.0794-1.9402,13.3036-6.5921,2.147-3.0978,4.3128-6.1828,6.4888-9.2604.4265-.6032.8797-1.2114,1.425-1.7011.7703-.6916,1.4834-.4454,1.788.566.1298.4312.2082.9002.1952,1.3487-.1154,3.9844,1.6086,7.0749,4.6944,9.4255,4.5958,3.5008,9.8176,5.7774,15.2738,7.5599.1002.0327.2239-.0064.4825-.0192,3.8743-6.7175,9.0702-12.4425,15.067-17.6935-.7091-.6671-1.3154-1.2546-1.9399-1.822-2.6754-2.4307-5.5764-4.5268-8.8053-6.1857-2.1145-1.0863-4.1098-1.1603-6.1589.094-.8745.5353-1.7966,1.0041-2.7334,1.4216-.4639.2067-1.01.2286-1.6812.3678.0537-.6047.0321-.9445.1193-1.2537.7588-2.691,1.4887-5.392,2.3441-8.0525.209-.6501.7329-1.3547,1.3115-1.7005,1.6051-.959,3.2653-1.8645,4.9937-2.5706,4.3622-1.7822,8.9228-2.8837,13.6257-3.132,7.7249-.4079,15.2856.4861,22.491,3.4919,1.2576.5246,2.4775,1.1725,3.639,1.8868,1.9417,1.1942,2.4144,2.5225,1.6219,4.6512-.6745,1.8117-1.507,3.5642-2.2579,5.3478-.3563.8463-1.0445,1.3026-1.829,1.6872-3.4345,1.6836-6.8631,3.3792-10.2891,5.0799-.401.1991-.7734.4559-1.4011.8303,1.284.8504,2.3522,1.7211,3.5541,2.326,5.5851,2.811,11.4867,3.7157,17.6385,2.5344,3.3912-.6512,6.334-2.2503,8.6961-4.8121,1.1615-1.2598,2.2549-2.5821,3.405-3.8527,1.8501-2.044,2.3201-2.0636,4.549-.3329.8565.6651,1.7204,1.3235,2.612,1.9399,1.4936,1.0326,3.1728,1.5059,4.98,1.6232,4.0914.2655,8.0955.0152,11.9309-1.6378,2.9385-1.2665,5.3503-3.2469,7.6281-5.4199,1.86-1.7745,3.6752-3.5959,5.5181-5.3885.4909-.4775.9845-.9587,1.5234-1.3783.5904-.4596,1.2356-.8458,2.0952-.4102.3763.8152.0558,1.63-.1272,2.4521-.3636,1.633-.518,3.2593-.0075,4.9046.5455,1.7582,1.7524,2.9426,3.3091,3.7506,1.8423.9562,3.8236,1.4695,5.9473,1.3938.4658-.7301.197-1.4825.1511-2.1891-.6413-9.8613-1.3225-19.7201-1.9573-29.5818-.1797-2.7925-.1326-5.6029-.3956-8.3857-.1753-1.8557-.7269-3.6747-1.0852-5.515-.1168-.6-.3698-1.2879-.1929-1.8113.8922-2.6397,1.9026-5.2396,2.8854-7.8483.0528-.1401.2325-.2324.4509-.4399.234.2231.5378.394.6615.6514.4936,1.0275.9798,2.0636,1.3813,3.1295,2.0117,5.3408,4.0072,10.6877,5.9771,16.044.2934.7979.4657,1.6496.6035,2.4913.0627.3833-.0952.8027-.1753,1.3599-2.0217-.7335-2.8683-2.5406-4.4016-3.495-.3816,1.379,1.4135,28.8753,2.2403,34.3148.5899-.2676,1.1687-.4413,1.6479-.7634,1.876-1.2608,3.3539-2.9112,4.5597-4.8171,1.3131-2.0754,2.6346-4.1455,3.9697-6.2069.5036-.7776,1.0767-1.4901,2.3951-1.3935.0438.5784.2038,1.1813.108,1.7403-.202,1.1789-.4448,2.3682-.8464,3.4905-.3727,1.0417-.182,1.9056.3984,2.7442,2.3897,3.4523,5.8247,4.3676,9.6339,3.2144,1.5662-.4741,1.8105-1.5009.6328-2.633-.86-.8267-1.0961-1.6424-.7237-2.7486.6734-2.0006,1.2791-4.0239,1.9394-6.0291.1391-.4222.3917-.807.6085-1.2424.9106.1838,1.2496.8703,1.5442,1.5232.9483,2.1013,1.5816,4.2644,1.3998,6.627-.3258,4.2348-1.312,8.1947-4.063,11.596-3.5693,4.4131-10.3502,4.4338-13.8005-.048-.7603-.9876-1.4471-2.0316-2.2583-3.1776-.3474.5011-.6531.8944-.9082,1.3181-1.2789,2.1231-2.7995,4.0457-4.787,5.5427-.7503.5651-.8604,1.2028-.8031,2.0762.4747,7.2374.9764,14.4744,1.3211,21.7187.3033,6.3741-.4118,12.6691-2.1938,18.8054-.5861,2.0185-1.4599,3.9557-2.2461,5.9124-.1975.4915-.5648.9147-.8541,1.3692-.1479-.0652-.2958-.1305-.4437-.1958ZM168.2705,226.1107c3.0154.2411,5.8972-.165,8.7604-.7227,5.3764-1.047,10.3587-3.1213,15.1077-5.8157,4.8094-2.7286,9.1224-6.0696,12.7934-10.2149,1.822-2.0574,3.4753-4.2251,4.6266-6.7575,1.5011-3.3019,1.3658-6.5417-.2082-9.7445-2.0016-4.0726-5.345-6.6025-9.5468-8.0786-3.6028-1.2656-7.3887-1.5039-11.1433-1.6525-7.8177-.3094-15.6433-.4154-23.465-.6288-2.282-.0622-4.5733-.0955-6.8399-.3354-3.6875-.3902-7.3581-.9391-11.0358-1.4219-1.23-.1615-1.3086-.1212-1.7316,1.0447-.5056,1.3936-1.0412,2.7782-1.4912,4.1898-1.9782,6.2055-3.0631,12.5209-2.2445,19.0584.3922,3.1322,1.0549,6.1964,2.5161,9.0215,2.7876,5.3899,7.3204,8.627,13.0103,10.397,3.5728,1.1114,7.2565,1.5087,10.8919,1.6611ZM167.9216,147.2602c2.4377-1.4249,4.95-2.8934,7.5557-4.4165-2.9195-2.0542-11.5984-2.7052-14.4379-1.2263,2.2673,1.859,4.5376,3.7204,6.8822,5.6428Z"/>
    <path class="cls-1" d="M163.6333,87.2201c-.6613,1.05-1.1898,1.9956-1.8203,2.8674-1.241,1.7159-1.9777,1.9249-3.9185.99-1.0139-.4884-1.925-1.1903-2.9713-1.8519-2.3308,1.8108-5.1412,2.5852-8.0869,2.2544-2.2471-.2524-4.3749-.0939-6.5793.2577-2.6154.4172-4.8206-.8182-5.9356-3.3904-.8993-2.0746-1.4035-4.3231-2.0431-6.5061-.2066-.7052-.2865-1.4476-.687-2.2041-.1094.6017-.2081,1.2055-.3299,1.8047-.7802,3.8379-2.4704,7.1446-5.899,9.24-1.393.8513-2.9798,1.4566-4.5524,1.9254-2.1273.6342-4.3236,1.0395-6.4956,1.5195-.54.1194-1.1388.2837-1.5753-.6113.5236-.2754,1.0289-.59,1.5706-.8181,3.4795-1.4652,6.885-3.0677,9.9334-5.3309.8243-.6119,1.5893-1.3032,2.4059-1.9261.9773-.7455,1.2297-1.6373.9452-2.8552-.5704-2.4419-1.6198-4.6224-3.1709-6.5745-1.8733-2.3576-4.2463-4.1285-6.7271-5.7604-2.3236,1.0315-4.1759.0353-5.9332-1.3048-.2494-.1902-.4999-.5309-.5343-.8269-.248-2.1366-.4404-4.2797-.6813-6.7345.8367.3445,1.3833.4921,1.849.7735,3.9688,2.3979,7.7755,4.9914,10.8837,8.5109,2.7969,3.167,4.6581,6.7417,5.264,10.9434.0486.3373.1379.6701.23.9989.0267.0953.1292.1694.3842.4847.3661-.9525.753-1.752.982-2.5944.6408-2.3581.463-4.7534.231-7.1505-.3299-3.4095-.6178-6.8231-.9334-10.234-.1367-1.4778.359-2.7725,1.0712-4.1007.6256.2616.6756.7407.7415,1.2475.6623,5.0944,1.2806,10.1955,2.0303,15.2772.4481,3.0375.8498,6.0854,2.0519,8.98,1.3897,3.3463,4.3538,3.8893,7.0285,3.2631,2.5959-.6078,4.5597-2.0282,5.7468-4.4559.1495-.3058.331-.598.5212-.8806.0492-.0731.1877-.0863.4832-.2096.2747,2.2674-1.2905,3.8931-1.937,5.9442,2.4268-.1049,4.626-.1849,6.7302-1.2954,2.1454-1.1322,3.3205-3.0029,4.347-5.2435.4721,1.1871.4803,1.1905-.0203,2.381-.3052.7257-.6401,1.4389-.9744,2.1859.9709.9582,2.1683,1.1916,3.3019,1.4565.3552.083,1.0249-.2831,1.234-.633.7566-1.2658,1.3909-2.6059,2.0455-3.9308.2924-.5918.5235-1.2139.8778-2.0466.7437.9046.3944,1.607.2504,2.2706-.3921,1.807-.2044,2.2167,1.5578,2.6499,1.6193.3981,3.2638.4907,5.09-.1325-.0507-.8147-.0268-1.6589-.1662-2.4751-.9902-5.7957-2.0013-11.5879-3.0336-17.3762-.369-2.069-.607-4.1728-1.6524-6.0749-.2053-.3736-.1682-1.0228.0097-1.4361.4234-.9834.9979-1.9016,1.5518-2.9205.957,1.6663,1.8801,3.1622,2.6668,4.7267.1814.3608.0271,1.032-.2005,1.43-.6384,1.1162-.668,2.2317-.4496,3.4647.975,5.5073,1.8879,11.0256,2.8299,16.5388.3904,2.2849-.1939,4.4278-1.0531,6.4882-.5184,1.2434-2.0284,1.9063-3.4875,1.5201-1.1945-.3161-2.3248-.901-3.452-1.4336-.5046-.2384-.9319-.6405-1.5457-1.0756Z"/>
    <path class="cls-1" d="M110.5652,199.6724c.9996-2.0652,1.8944-3.9677,2.8357-5.847,1.7022-3.3983,1.3852-3.0709,4.186-1.3114,3.0348,1.9066,5.8942,4.0916,8.8492,6.1274.567.3907.7302.8082.4936,1.443-.4364,1.1711-.7447,2.4016-1.2892,3.5182-.8481,1.7392-1.8259,3.4173-2.7969,5.0933-.3621.6251-.8594,1.1718-1.3708,1.8556-3.7677-2.6045-7.4076-5.1207-11.2484-7.7758-.3137.5055-.6482.9887-.9261,1.5025-1.0026,1.8541-1.9761,3.7241-2.9845,5.5751-.2412.4428-.5746.8354-.9264,1.3379-.4343-.2726-.8121-.491-1.1705-.7375-3.1005-2.1331-6.2001-4.2675-9.2946-6.4094-1.6043-1.1105-1.67-1.2082-.8732-2.8913,1.2681-2.6788,2.6031-5.3262,3.9296-7.977.2231-.4458.5461-.8415.9373-1.4335,4.1424,2.2577,7.9369,4.8311,11.6491,7.93Z"/>
    <path class="cls-1" d="M124.505,131.3258c-.6736-.4421-1.1189-.894-1.651-1.0496-1.035-.3028-2.1143-.5876-3.1828-.6184-3.8722-.1114-7.7475-.1191-11.6217-.1559-1.5237-.0145-3.0476-.0024-4.8624-.0024.1822-.6294.2334-1.1205.4545-1.5169,1.0834-1.9421,2.168-3.8863,3.3385-5.7762.9478-1.5303,2.4237-2.4016,4.162-2.7629,1.0559-.2194,2.1445-.4165,3.2157-.403,4.0468.051,8.099.0898,12.1356.3464,1.7947.1141,3.5952.6145,5.3246,1.1575,2.152.6757,2.6788,1.8439,1.6156,3.7654-2.7497,4.9695-5.9821,9.6153-10.5074,13.1401-1.447,1.1271-3.2528,1.912-5.0133,2.4944-4.0003,1.3235-8.0725,2.4301-12.1205,3.6076-.477.1388-.9852.1702-1.6467-.0361.6994-.5181,1.3566-1.1091,2.1053-1.5417,3.4061-1.9678,6.8416-3.8847,10.2592-5.8327,2.1294-1.2138,4.2503-2.4427,6.3649-3.6823.4806-.2818.919-.6356,1.6297-1.1335Z"/>
    <path class="cls-1" d="M226.8836,86.6696c-.2947-.9185-.7322-1.7391-.7975-2.5883-.1895-2.4614.5996-4.6871,1.8104-6.8246,2.3887-4.2171,8.4476-4.8975,11.805-1.1125.4881.5502.485.553.2579,1.4292-.108.0152-.2444.0806-.32.0381-3.3585-1.8896-8.3441-1.0882-10.9682,1.7289-.6694.7187-.8615,1.4121-.4177,2.316.8143,1.6587,1.7261,3.219,3.3818,4.1995.8207.486,1.6554.6821,2.6167.4806,2.3506-.4928,4.309-1.7707,6.276-3.0386.65-.419,1.2768-.8738,2.1712-1.489-.4107,1.9228-1.0069,3.3513-2.3494,4.367-3.0426,2.3019-6.3057,4.1284-10.1787,4.5812-1.957.2288-3.8409.0659-5.6573-.8476-1.3531-.6805-2.1096-1.8118-2.7953-3.282-.3297.4614-.5459.7623-.7604,1.0643-.2971.4183-.5652.8608-.8941,1.2522-1.8126,2.157-3.0607,2.3947-5.4752.895-3.7164-2.3083-2.9152-1.8357-6.1305.2107-2.8652,1.8236-5.8,2.245-8.9044.7065-1.7062-.8456-2.5092-2.4343-3.2272-4.0661-.3199-.7269-.5455-1.4953-.8941-2.4689-.4015.3671-.7283.6244-1.0061.9267-1.9973,2.1737-6.0079,3.0436-8.6998,1.8878-.5544-.238-.8566-.6053-.6275-1.1991.3477-.9012.7081-1.8023,1.1387-2.6658,1.4144-2.8363,3.3806-5.1387,6.3604-6.4423.411-.1798.7757-.4654,1.2413-.7507-.4756-1.9023-.2176-3.7168.7457-5.6093.187.3422.3992.5789.4496.8461.4646,2.4665.8404,4.9514,1.3662,7.4043.3937,1.8367.8914,3.6603,1.4839,5.443.8563,2.5767,2.8107,3.7771,5.4483,3.9488,2.4788.1613,4.7456-.4426,6.7656-1.925.8201-.6018,1.6706-1.162,2.5078-1.7415.9954.6029,1.8592,1.154,2.7508,1.6556.5442.3062,1.1093.6088,1.7028.7875,2.2938.6908,4.1718-.8739,3.8364-3.2388-.9059-6.3869-1.824-12.7726-2.8176-19.1463-.2748-1.7625-.0332-3.2686,1.324-4.6704.1112.2304.2427.3944.2695.5742.7486,5.0234,1.4704,10.0508,2.2331,15.0721.3852,2.5362.7298,5.0881,1.3183,7.5796.2478,1.049,1.0061,2.0133,1.6694,2.9153.428.5821,1.1349.897,1.9905.7964ZM194.0499,78.4103c-2.421,1.5301-5.1166,2.0919-6.3949,4.5626.142.2157.1625.2888.2044.3044,2.1286.7933,4.2292.2311,6.3169-.1879.597-.1198.9399-.6654.7841-1.3189-.2457-1.0305-.5508-2.0468-.9105-3.3603Z"/>
    <path class="cls-1" d="M68.6761,135.7283c.1227.3845.2258.5353.204.6652-.3781,2.2572-.8844,4.478-2.0916,6.4644-.7295,1.2002-1.6916,2.0233-3.2259,1.7284-1.5502-.298-2.2767-1.363-2.5984-2.8136-.6738-3.0389-.2298-6.0267.4711-8.9816.4732-1.9949,1.1108-3.9508,1.6729-5.9247.1704-.5986.3344-1.199.5347-1.9181-.826-.6209-1.6336-1.2279-2.4998-1.879-7.3713,9.6825-17.8546,14.0647-29.0733,17.6209.1583-.8907.8141-1.0681,1.2812-1.3506,3.709-2.2439,7.4726-4.3993,11.1468-6.698,3.6246-2.2677,7.1986-4.6211,10.7237-7.0404,1.3448-.923,2.4922-2.1336,3.9151-3.375-.7211-.4547-1.2332-.7742-1.7419-1.0991-3.9998-2.5545-4.9074-5.397-1.7713-9.7303,1.1193-1.5467,2.5833-2.7472,4.3213-3.5573,2.3092-1.0764,3.8395-.3384,4.536,2.1128.6073,2.1373-.0413,4.1801-.4537,6.2396-.0778.3883-.2342.7619-.3663,1.1381-.2365.6735-.0892,1.1607.5145,1.6229,2.0747,1.5886,2.3001,2.3306,1.3514,4.8233-1.179,3.0977-2.2572,6.2123-2.7116,9.5175-.2286,1.6632-.2381,3.2855.2969,4.8979.5633,1.6977,2.2363,2.1162,3.4557.8071.4235-.4546.7547-1.0006,1.0939-1.5269.3274-.5081.6108-1.0446,1.0145-1.7434ZM61.0532,117.1448c.7384-1.5102.6613-2.7821.2206-4.0611-.2828-.8205-.9007-1.1959-1.7229-1.0145-.5945.1312-1.1996.3787-1.7045.7169-.9691.6491-1.0051,1.494-.0574,2.2145.9848.7487,2.0683,1.3675,3.2642,2.1441Z"/>
    <path class="cls-1" d="M166.7216,254.5422c.7598,1.5115.3224,2.667-.0414,3.7636-.5684,1.7131-1.6049,3.088-3.1304,4.1492-3.6034,2.5065-6.5196,5.707-8.9632,9.3351-.6013.8928-1.1151,1.8616-1.5449,2.8494-.9636,2.215-.406,3.441,1.9153,4.1914,2.2725.7346,4.6199.6405,6.9582.4184,3.3109-.3144,6.5124-1.1273,9.6625-2.1716.6239-.2068,1.2807-.3145,2.0733-.2032-.2249.2911-.4185.6143-.6794.8685-4.6677,4.5487-10.4104,6.2509-16.7513,6.0157-4.1643-.1546-6.4313-3.3145-5.6716-7.4395.7898-4.2891,1.4946-5.8725,4.9868-11.1821-.8654-.5143-1.7647-.9779-2.5869-1.5519-1.7645-1.2319-2.1778-2.9708-1.6968-4.9826.1053-.4406.2415-.8871.4467-1.2883,1.6373-3.2014,3.8788-5.898,6.7874-8.027.138-.1011.2767-.2075.4298-.2807.8726-.4168,1.7503-.9772,2.6954-.1895.8771.731,1.2708,2.401.7562,3.4032-.5111.9953-1.1111,1.945-1.7608,3.0679-.4892-.4439-.7736-.6888-1.0432-.949-.9479-.9149-1.9306-.9884-2.8351-.0756-.6368.6426-1.1656,1.399-1.6971,2.1373-.4991.6935-.3861,1.3258.178,1.9998,1.5161,1.8113,5.1246,2.4592,6.9402.6381.7248-.727,1.5241-1.3794,2.2582-2.0977.7282-.7124,1.417-1.4651,2.314-2.399Z"/>
    <path class="cls-1" d="M123.7908,240.5408c.5568-2.6548,1.0057-5.1147,1.5997-7.5391.6221-2.5389,1.0247-5.1692,2.3452-7.4759.642-1.1215,1.4085-2.2171,2.3131-3.1321,1.3761-1.3921,2.9476-1.3147,4.4129-.0064,2.5127,2.2437,2.7553,5.3979.4286,7.7892-.4913-.5219-1.0077-1.0144-1.4596-1.5602-1.9643-2.3728-3.1439-2.2493-4.4286.5364-1.3262,2.8758-1.8899,5.9692-2.5162,9.0463-.4776,2.3463-1.0698,4.6692-1.5546,7.0142-.3099,1.4991-1.1014,2.5488-2.6056,3.1509-.3496-1.4283-.567-2.8968-1.0714-4.2591-1.1078-2.9921-2.3518-5.934-3.5646-8.8864-.1706-.4152-.4541-.7923-.7282-1.1547-.4256-.5628-.9532-.8287-1.6171-.3616-1.1353.7989-2.1626.4419-3.1454-.2942-.5478-.4103-1.1154-.8085-1.5987-1.2881-1.5028-1.4915-1.5413-2.0221-.4301-3.8311.7702-1.2539,1.5263-2.5165,2.2596-3.7269,3.3022.1,5.3479,1.9177,6.9292,4.3393,1.8948,2.9018,2.9994,6.1367,3.6535,9.5304.1079.56.2351,1.1167.3714,1.6705.022.0895.139.1557.4073.4386Z"/>
    <path class="cls-1" d="M59.757,75.9715c.2679.4194.3967.5317.3771.6034-.6556,2.3982-1.1923,4.8411-2.0426,7.1692-.516,1.4129-1.4214,2.72-2.3239,3.9481-2.3608,3.2124-7.3014,1.9058-8.3591-1.515-.8842-2.8598-1.075-5.724-.8216-8.6314.7062-8.1012,3.4072-15.572,7.3798-22.6164.2455-.4353.5694-.8265.9963-1.438.2826.9271-.1459,1.5014-.316,2.0859-1.3706,4.7092-2.8323,9.3928-4.1394,14.1193-.7321,2.6472-1.1083,5.3678-.5232,8.1249.0354.1667.0156.3466.0608.5094.4393,1.5822,1.0013,3.1321,2.8085,3.5721,1.7123.4169,2.9527-.5779,4.02-1.7392.5743-.6249,1.0213-1.3694,1.5044-2.0746.4397-.6419.8507-1.3036,1.3789-2.1178Z"/>
    <path class="cls-1" d="M215.6232,267.3214c-.4628-3.3722-1.6899-6.4923-3.0456-9.5691-.2296-.5211-.4642-1.043-.7405-1.54-.6568-1.1813-.7028-1.2397-1.9825-.7487-.7438.2855-1.3559.1132-1.943-.2339-.5344-.3158-1.0313-.7195-1.4792-1.1523-1.0291-.9945-1.0901-1.5373-.3671-2.8496.4124-.7485.8572-1.4798,1.3073-2.2065.4981-.8042,1.1586-.9439,2.0555-.6121,1.749.647,2.9687,1.8726,3.9561,3.3801,1.5626,2.3858,2.2609,5.0865,2.8116,7.8377.062.31.1136.6222.4022.9682.11-.2874.2556-.5666.3244-.8636.5918-2.5529,1.1708-5.1087,1.7514-7.6642.3834-1.688,1.0575-3.2469,2.0485-4.6688,1.5572-2.2342,3.4781-2.1794,5.0824.0275,1.0055,1.3834.9409,2.7321.3133,4.1727-.1544.3544-.3727.681-.623,1.1305-.7033-.7407-1.0977-1.1309-1.464-1.5461-1.4669-1.6629-2.38-1.6053-3.1592.478-.7739,2.0693-1.2614,4.2496-1.8161,6.3962-.6543,2.5323-1.2049,5.0919-1.8931,7.6144-.1768.648-.7022,1.2009-1.0674,1.7974-.1573-.0492-.3145-.0985-.4718-.1477Z"/>
    <path class="cls-1" d="M108.8793,44.254c-.4628-3.3722-1.6899-6.4923-3.0456-9.5691-.2296-.5211-.4642-1.043-.7405-1.54-.6568-1.1813-.7028-1.2397-1.9825-.7487-.7438.2855-1.3559.1132-1.943-.2339-.5344-.3158-1.0313-.7195-1.4792-1.1523-1.0291-.9945-1.0901-1.5373-.3671-2.8496.4124-.7485.8572-1.4798,1.3073-2.2065.4981-.8042,1.1586-.9439,2.0555-.6121,1.749.647,2.9687,1.8726,3.9561,3.3801,1.5626,2.3858,2.2609,5.0865,2.8116,7.8377.062.31.1136.6222.4022.9682.11-.2874.2556-.5666.3244-.8636.5918-2.5529,1.1708-5.1087,1.7514-7.6642.3834-1.688,1.0575-3.2469,2.0485-4.6688,1.5572-2.2342,3.4781-2.1794,5.0824.0275,1.0055,1.3834.9409,2.7321.3133,4.1727-.1544.3544-.3727.681-.623,1.1305-.7033-.7407-1.0977-1.1309-1.464-1.5461-1.4669-1.6629-2.38-1.6053-3.1592.478-.7739,2.0693-1.2614,4.2496-1.8161,6.3962-.6543,2.5323-1.2049,5.0919-1.8931,7.6144-.1768.648-.7022,1.2009-1.0674,1.7974-.1573-.0492-.3145-.0985-.4718-.1477Z"/>
    <path class="cls-1" d="M196.9202,44.254c-.4628-3.3722-1.6899-6.4923-3.0456-9.5691-.2296-.5211-.4642-1.043-.7405-1.54-.6568-1.1813-.7028-1.2397-1.9825-.7487-.7438.2855-1.3559.1132-1.943-.2339-.5344-.3158-1.0313-.7195-1.4792-1.1523-1.0291-.9945-1.0901-1.5373-.3671-2.8496.4124-.7485.8572-1.4798,1.3073-2.2065.4981-.8042,1.1586-.9439,2.0555-.6121,1.749.647,2.9687,1.8726,3.9561,3.3801,1.5626,2.3858,2.2609,5.0865,2.8116,7.8377.062.31.1136.6222.4022.9682.11-.2874.2556-.5666.3244-.8636.5918-2.5529,1.1708-5.1087,1.7514-7.6642.3834-1.688,1.0575-3.2469,2.0485-4.6688,1.5572-2.2342,3.4781-2.1794,5.0824.0275,1.0055,1.3834.9409,2.7321.3133,4.1727-.1544.3544-.3727.681-.623,1.1305-.7033-.7407-1.0977-1.1309-1.464-1.5461-1.4669-1.6629-2.38-1.6053-3.1592.478-.7739,2.0693-1.2614,4.2496-1.8161,6.3962-.6543,2.5323-1.2049,5.0919-1.8931,7.6144-.1768.648-.7022,1.2009-1.0674,1.7974-.1573-.0492-.3145-.0985-.4718-.1477Z"/>
    <path class="cls-1" d="M72.1357,241.8865c-2.1292.9133-4.2101.1288-5.1318-1.9151-.1569-.3478-.1437-.9066.0304-1.2445.5471-1.0618,1.1824-2.0816,1.8341-3.0848.4737-.7294,1.2067-.56,1.8543-.3243,1.6671.6068,2.9738,1.699,3.8778,3.2172,1.4731,2.4739,2.52,5.108,2.8136,8.004.0259.2554.1541.5005.3503,1.108.2745-.7331.4636-1.113.5598-1.5151.6632-2.7721,1.2023-5.5796,2.0018-8.3112.3912-1.3364,1.1013-2.6493,1.9389-3.7697,1.4898-1.9928,3.279-1.8581,4.7316.1708,1.3734,1.9183,1.2454,3.5295-.5512,5.2342-.5082-.594-.9983-1.1978-1.5212-1.7717-1.0232-1.1228-1.8339-1.0895-2.4865.2965-.6506,1.3818-1.1651,2.8537-1.5311,4.3374-.5733,2.3242-.9373,4.6993-1.459,7.0374-.2473,1.1087-.6042,2.2009-1.0084,3.2636-.231.6073-.6569,1.1405-1.1649,1.9914-.2852-.6478-.5081-.961-.5593-1.3002-.5441-3.6053-2.02-6.8824-3.5619-10.1321-.2337-.4925-.6866-.8809-1.0174-1.2918Z"/>
    <path class="cls-1" d="M116.2171,86.0512c-2.1466.1016-4.3129.117-6.457.3429-1.0409.1096-2.075.534-3.0494.9597-1.0903.4763-1.6524,1.3886-1.5016,2.6201.2423,1.9789.4689,3.9614.7857,5.929.4255,2.6427.9934,5.2633,1.3837,7.9106.3932,2.6672.2993,5.3265-.6588,8.2265-.2262-.6146-.4153-.9396-.4624-1.2841-.7873-5.7603-1.5727-11.5209-2.3217-17.2863-.2662-2.049-.2728-4.1003.4238-6.0907,1.0642-3.0409,3.3832-4.7009,6.6005-4.7382.5071-.0059,1.0141-.0318,1.5207-.0575.0305-.0015.0569-.0833.1662-.2548-.843-.9861-1.8874-1.7267-3.2377-1.7096-1.3923.0175-2.2298,1.1596-3.3395,2.2412-.0788-.5537-.2233-.8771-.1449-1.1321.4584-1.4901,1.179-2.8495,2.299-3.9518,1.2562-1.2363,2.8753-1.5023,4.3697-.5258,1.1309.739,2.2152,1.6349,3.0955,2.6549,2.1544,2.4964,2.4208,3.0657.5281,6.146Z"/>
    <path class="cls-1" d="M88.9252,272.1303c.6021-.3955,1.1956-.805,1.8077-1.1845,7.4163-4.5979,14.8333-9.1948,22.2547-13.7845,3.1793-1.9662,6.0073-4.3532,8.3838-7.2292.546-.6609,1.0807-.8952,1.9808-.9148-.8051,2.1844-1.7109,4.2637-3.2257,5.9781-1.3549,1.5335-2.7679,3.0462-4.33,4.3605-5.4198,4.56-11.4847,8.0267-18.1782,10.3785-2.3128.8127-4.6068,1.6789-6.9182,2.4956-.5112.1806-1.0597.2557-1.591.3795-.0613-.1597-.1226-.3194-.1839-.4792Z"/>
    <path class="cls-1" d="M253.0181,230.1565c-.0665-1.4616.0909-2.6325,1.0607-3.5777.679-.6618,1.3434-1.3386,2.0616-2.056-.8427-.5071-1.5331-.8813-2.1791-1.3207-.9855-.6704-1.4904-1.6057-1.1411-2.7963.2857-.9735.5961-1.9712,1.0952-2.844,1.0592-1.8519,2.5354-3.3715,4.2631-4.6198,1.0796-.78,2.2477-1.3781,3.6639-1.0525.5913.136.9853.4073,1.1985,1.0522.5811,1.7575.1247,3.235-1.0332,4.637-.9478-.4682-1.5956-1.6575-2.852-1.2486-1.2027.3914-2.3099.963-2.9968,2.0876.9629,1.9023,3.3179,2.9232,5.1588,2.0776,1.5469-.7106,2.9833-1.6638,4.4603-2.5238.6273-.3652,1.1858-.9295,2.1567-.5475-.3222,1.7369-.7992,3.2489-2.4764,4.3355-3.7829,2.4508-7.4532,5.0754-11.1729,7.6241-.3586.2457-.7426.4544-1.2674.7729Z"/>
    <path class="cls-1" d="M207.4351,139.9663c-.6561-.4147-.3162-.9975-.2786-1.541.1856-2.6812.2991-5.3662-.2582-8.0192-.6694-3.1866-2.0882-6.0421-4.125-8.5576-1.362-1.682-2.8574-3.2602-4.3497-4.8311-1.1652-1.2266-1.2538-1.3261-.4079-2.7768.5292-.9075.7003-2.0763,1.7369-2.6294,8.3534,4.4171,12.9144,21.3374,7.6826,28.355Z"/>
    <path class="cls-1" d="M238.9038,183.8717c-.2818.9028-.5785,1.8012-.8426,2.709-.8743,3.0043-1.7963,5.9965-2.5834,9.0237-.5354,2.0588-.5466,4.1507-.0452,6.2607.6441,2.7106,3.3273,2.6275,4.533,1.0751.7194-.9264,1.3836-1.8957,2.0759-2.8501.116.1065.2593.1816.2527.2401-.2998,2.6906-.9834,5.2634-2.5741,7.4995-1.1898,1.6725-2.9263,2.0902-4.6532,1.2636-.9581-.4586-1.4079-1.2857-1.7294-2.2238-.7378-2.1524-.7761-4.3765-.5411-6.596.5908-5.5788,2.5006-10.7354,5.1758-15.63.1759-.3219.4389-.5962.6614-.8926.0901.0403.1802.0805.2703.1208Z"/>
    <path class="cls-1" d="M156.337,10.0708c-.2818.9028-.5785,1.8012-.8426,2.709-.8743,3.0043-1.7963,5.9965-2.5834,9.0237-.5354,2.0588-.5466,4.1507-.0452,6.2607.6441,2.7106,3.3273,2.6275,4.533,1.0751.7194-.9264,1.3836-1.8957,2.0759-2.8501.116.1065.2593.1816.2527.2401-.2998,2.6906-.9834,5.2634-2.5741,7.4995-1.1898,1.6725-2.9263,2.0902-4.6532,1.2636-.9581-.4586-1.4079-1.2857-1.7294-2.2238-.7378-2.1524-.7761-4.3765-.5411-6.596.5908-5.5788,2.5006-10.7354,5.1758-15.63.1759-.3219.4389-.5962.6614-.8926.0901.0403.1802.0805.2703.1208Z"/>
    <path class="cls-1" d="M259.4461,63.4311c-.6501,2.1101-1.3505,4.2063-1.9368,6.334-.635,2.3046-1.2992,4.616-1.6879,6.9679-.236,1.4276-.0616,2.9465.092,4.4073.1163,1.1063.6395,2.088,1.8404,2.4388,1.2989.3795,2.2162-.3189,2.9693-1.2256.7108-.8556,1.3172-1.7981,1.9864-2.7257.1165.1624.2376.255.2258.3255-.4238,2.5385-1.0252,5.0427-2.4133,7.2336-.8183,1.2916-2.0383,2.1742-3.736,1.8959-1.6706-.2738-2.7314-1.4411-3.1784-3.3833-.602-2.6158-.3563-5.2401.0549-7.8267.8052-5.0653,2.7399-9.7478,5.1782-14.2328.0747-.1374.2319-.2299.3507-.3433.0849.0448.1698.0896.2547.1344Z"/>
    <path class="cls-1" d="M284.4158,183.1616c-.6706,2.7009-.9998,5.5414-2.8736,7.8067-2.0696,2.502-5.2449,1.9228-6.2465-1.1793-.4469-1.3841-.6837-2.9108-.647-4.3635.1666-6.5885,2.3423-12.5973,5.5755-18.2668.05-.0877.1675-.137.517-.41-.1233.6078-.177.9909-.2798,1.3605-1.1133,4.0008-2.3503,7.9724-3.2911,12.0131-.3346,1.437-.0523,3.0522.1318,4.5637.128,1.0504.7833,1.8974,1.8702,2.2386,1.138.3573,2.0141-.1893,2.7255-.9815.567-.6314,1.02-1.365,1.5265-2.0511.2201-.2981.4474-.5909.6714-.8861.1067.0519.2133.1039.32.1558Z"/>
    <path class="cls-1" d="M180.567,88.8882c-.2273-1.949-.467-3.6263-.6115-5.3118-.4728-5.5168-1.497-10.9394-2.64-16.3487-.3149-1.4903-.3656-3.0439-.4471-4.5733-.0487-.9137.1962-1.7884,1.0801-2.601.196.5691.4041,1.0044.495,1.463.885,4.4677,1.817,8.9277,2.6002,13.4135.6268,3.5903,1.1062,7.2089.7008,10.8782-.1137,1.029-.3412,1.9906-1.1775,3.08Z"/>
    <path class="cls-1" d="M218.827,239.6527c-.387,1.8836-.8764,3.7339-1.8733,5.4211-.5519.9339-1.3223,1.5802-2.4198,1.7267-1.3435.1795-2.6195-.7195-3.0212-2.2354-.261-.9848-.4757-2.024-.4559-3.0339.1023-5.1963,1.7049-9.9763,4.2188-14.4799.0803-.1438.2242-.252.5746-.3063-.1536.5248-.3199,1.0462-.4588,1.5749-.7966,3.0318-1.6862,6.0446-2.3264,9.1093-.233,1.1154-.0116,2.3912.2637,3.5307.3406,1.4099,1.907,1.866,3.1333.9897.4951-.3538.8569-.903,1.2509-1.3865.2744-.3367.5005-.7129.7481-1.0715l.3661.1611Z"/>
    <path class="cls-1" d="M77.2136,213.5455c-.3005.9624-.5888,1.9289-.9038,2.8865-.8897,2.7055-1.8118,5.4041-2.0001,8.276-.0445.6794-.0126,1.3668.0259,2.0481.062,1.0985.5469,1.9959,1.5499,2.4631.8309.387,1.8893-.1499,2.7448-1.2735.4403-.5782.8298-1.195,1.4-1.7202-.5178,2.2677-.648,4.6669-2.4144,6.4549-1.632,1.6519-3.7507,1.248-4.6743-.915-.6399-1.4987-.6479-3.096-.5412-4.7023.2689-4.0458,1.5705-7.7919,3.2696-11.4242.3547-.7584.766-1.4903,1.1512-2.2345.1308.047.2616.0939.3925.1409Z"/>
    <path class="cls-1" d="M107.7074,69.2558c-.5953-.1306-.7968-.1159-.9097-.2088-.9419-.7754-1.7124-.4125-2.599.2004-1.8226,1.26-3.7164,2.4186-5.6006,3.5871-.5179.3212-1.1057.6486-1.7359-.0301,2.3186-1.8367,5.1178-3.0069,7.1342-5.4349-.5979-.4835-1.1053-.906-1.6257-1.3119-.7593-.5922-.9912-1.3338-.7561-2.2706.347-1.3829,1.001-2.5377,2.2581-3.2836,1.3868-.8229,2.671-.3387,2.9352,1.2571.1929,1.1651.1101,2.3825.0797,3.5749-.0145.5695-.0213.9889.3837,1.5333.3924.5274.2875,1.4248.4361,2.387ZM105.7906,65.7322c-.1169-1.2787.5277-2.3776-.699-3.0161-.6827-.3554-1.169-.0235-2.0122,1.2664.8212.53,1.6406,1.0588,2.7112,1.7497Z"/>
    <path class="cls-1" d="M161.5912,56.1796c.0455,1.4725-.6508,2.2256-1.7829,2.7508-4.5993,2.1333-9.1828,4.3004-13.776,6.4469-.7402.3459-1.4996.6505-2.4061,1.0415.1312-1.557.7298-2.3728,1.9657-2.933,5.138-2.3289,10.2348-4.7483,15.3489-7.1301.1496-.0697.3225-.0892.6505-.1761Z"/>
    <path class="cls-1" d="M177.5359,54.8008c.779-1.0079,1.5207-2.0096,2.311-2.9714.3587-.4366.7946-.8164,1.2287-1.1827.7133-.6019,1.4885-.8107,2.3511-.2725.8314.5186,1.0795,1.3062.9758,2.2086-.174,1.5141-1.0614,2.6511-2.2372,3.4834-1.9843,1.4046-4.138,1.7968-6.4339.6762-.9511-.4642-.9688-.4279-2.1056.9097-.2128-.9051-.2287-.9153.2957-1.7323.3369-.525.6607-1.0887,1.111-1.5043.8761-.8086,1.5396.2759,2.5034.3854ZM178.8129,54.7343c.0995.1271.1991.2542.2986.3813,1.1607-.1278,2.3277-.284,3.3393-.9441.2743-.179.5583-.6368.5186-.9223-.0414-.2975-.4508-.742-.7305-.7666-.5734-.0504-1.3101-.048-1.7211.2685-.6764.5207-1.1474,1.3082-1.7049,1.9832Z"/>
    <path class="cls-1" d="M159.3594,66.3903c.5763,1.8176,1.0686,3.5501.2138,5.2806-.7164,1.4504-2.0549,2.0202-3.6759,2.0264-.5174.002-1.0432.2512-1.548.4344-.4779.1734-.9167.4678-1.402.6047-1.1942.3365-2.4975-.4316-2.7673-1.626-.2922-1.2935.1506-2.3865,1.1749-3.3419v1.975c.7646.7041,1.4648.5642,2.2063.3922.7772-.1803,1.1845-.5006,1.0591-1.3949-.1283-.9151.1271-1.7709.996-2.7724.2118,1.2517.3754,2.2193.5376,3.1778q1.0568.1018,2.3513-.6093c.645-1.2591-1.1899-2.9317.8542-4.1465Z"/>
    <path class="cls-1" d="M216.8459,99.6309c-1.0238-.5803-2.0926-1.1861-3.2961-1.8683-.6343.8951-1.2109,1.7088-1.8627,2.6287-1.4181-.1725-2.5505-1.0544-3.7877-2.2256.6052-.9309,1.203-1.8506,1.8913-2.9094,1.2763.717,2.3983,1.3474,3.67,2.0619.4311-.6784.8394-1.3367,1.2637-1.9846.6646-1.0148.8566-1.0495,1.8824-.3746.0949.0624.1804.139.2734.2044,2.323,1.6343,2.3361,2.3782-.0343,4.4675Z"/>
    <path class="cls-1" d="M226.5845,49.3657c-.0514,1.3223-.2658,2.2779-1.4211,2.9463-4.2442,2.4556-8.4452,4.9859-12.6662,7.4817-.0856.0506-.2167.0244-.3921.0398-.2174-1.1926.1339-2.1136,1.199-2.7381,2.017-1.1827,4.0356-2.3628,6.0508-3.5487,2.0644-1.2147,4.1243-2.437,6.1895-3.6502.2871-.1687.5936-.3044,1.0401-.5309Z"/>
    <path class="cls-1" d="M123.2897,59.8255c.1452-1.6501.7384-2.4309,1.9386-2.9223,4.108-1.6818,8.1817-3.4475,12.2951-5.1925.2294,1.4017-.0988,2.0186-1.3206,2.5419-3.195,1.3684-6.3975,2.7192-9.5927,4.0873-1.0281.4402-2.0425.9126-3.3204,1.4856Z"/>
    <path class="cls-1" d="M206.6482,73.4471c1.2381-.8531,2.4792-1.7082,3.8297-2.6388-2.3204-1.7141-4.3958-1.4351-6.5135.1832-.2412-1.4175.6505-2.1339,1.4225-2.7995,1.0037-.8653,2.3078-1.0947,3.5391-.7195,1.6191.4934,3.1665,1.2225,4.7341,1.8461-.1874,1.1003-.6871,1.7832-1.5667,2.2368-1.3637.7032-2.693,1.4727-4.0526,2.1842-.4516.2363-.9625.4551-1.3925-.2925Z"/>
    <path class="cls-1" d="M226.2203,66.4477c.0581-1.2758.4367-2.2448,1.4404-2.8427,3.5266-2.1007,7.0698-4.1733,10.616-6.2407.2106-.1228.5025-.1063.8207-.1669-.1597,1.5261-.8755,2.4019-2.119,3.0963-3.3337,1.8615-6.5885,3.8642-9.8794,5.8025-.2286.1347-.4973.2014-.8787.3514Z"/>
    <path class="cls-1" d="M185.7569,97.3729c.2829-1.1469.4043-2.0025,1.3176-2.4171,2.8955-1.3146,5.7894-2.6327,8.8722-4.0352-.0542,1.3317-.456,2.0609-1.55,2.531-2.8165,1.2105-5.5875,2.5269-8.6399,3.9213Z"/>
  </g>
</svg>