<?xml version="1.0" encoding="UTF-8"?>
<svg id="Instruments" xmlns="http://www.w3.org/2000/svg" viewBox="0 0 171.4166 237.9843">
  <defs>
    <style>
      

      @import url('../../CSS/SvgStyling.css');

      
    </style>
  </defs>

  <g class="content">


  <rect id="bg" class="bg" width="171.4166" height="237.9843"/>

  <path class="cls-1" d="M16.8191,7.7244v222.5355h137.7783V7.7244H16.8191ZM21.7465,12.6639h127.9236v212.6443h-69.4944c.438-.9976.6631-2.0379.6752-3.1268V91.709l14.113,17.1911c.3224.3954.6874.7422,1.1011,1.0463.4076.2981.8516.5475,1.3201.7422.4745.1947.9611.3285,1.4661.3954.5049.073,1.0098.0852,1.5147.0304s.9976-.1703,1.4721-.3467c.4806-.1764.9307-.4076,1.3505-.6996.4197-.2859.7969-.6205,1.1376-1.0037.3346-.3832.6266-.7969.8577-1.2531l17.2398-33.3542c.1886-.3589.3407-.7361.4502-1.1254.1156-.3893.1886-.7847.2251-1.1923.0304-.4015.0243-.8091-.0182-1.2106s-.1277-.7969-.2494-1.1862-.2798-.7604-.4745-1.1132c-.1947-.3589-.4258-.6874-.6813-.9976-.2616-.3163-.5536-.5962-.8638-.8516-.3163-.2494-.657-.4745-1.0159-.657-.7908-.4137-1.6364-.6448-2.5245-.6874-1.2045-.0608-2.3299.2129-3.3762.8151s-1.8493,1.4417-2.4029,2.5124l-12.9511,25.0567-12.939-15.7555c-.584-.7117-1.2957-1.2653-2.123-1.6546-.8334-.3954-1.7094-.5901-2.6279-.5901v-.0122h-34.6134v.0122c-.657,0-1.3018.1034-1.9284.3102s-1.2045.5049-1.7337.9003c-.5353.3954-.9916.8577-1.3687,1.3991-.3832.5414-.6692,1.1315-.8638,1.7641l-8.4982,28.0679c-.1095.3711-.1886.7482-.2312,1.1254l-3.3518,30.7749c-.0426.4015-.0487.803-.0122,1.2106.0304.4015.1095.803.219,1.1923.1156.3893.2616.7604.4502,1.1254.1886.3589.4076.6935.6631,1.0098.2494.3163.5353.6083.8395.8699.3102.2616.6448.4867.9976.6813.3589.1947.7239.3528,1.1132.4806.3832.1217.7786.2007,1.1801.2494.4015.0426.803.0487,1.2106.0122.4015-.0365.7969-.1095,1.1862-.2251s.7604-.2616,1.1193-.4502.6935-.4076,1.0098-.6631.6022-.5353.8638-.8456.4867-.6448.6813-1.0037c.1947-.3528.3528-.7239.4745-1.1132s.2068-.7847.2494-1.1862l3.291-30.197,2.4394-8.0663v33.7313h.0061v85.2073c.0061,1.0889.2312,2.1352.6752,3.1268h-25.1723V12.6639ZM63.5442,38.5723c-1.022,0-2.0379.0973-3.0416.2981s-1.977.4988-2.926.8942c-.9429.3893-1.8432.8699-2.6949,1.4417s-1.6364,1.2227-2.3603,1.9466c-.7239.73-1.3687,1.5208-1.9405,2.3724-.5657.8516-1.0463,1.758-1.4417,2.707-.3893.949-.6874,1.9223-.8881,2.9321-.1947,1.0098-.2981,2.0257-.2981,3.0538s.1034,2.044.2981,3.0538c.2007,1.0037.4988,1.9831.8881,2.9321.3954.949.876,1.8493,1.4417,2.707.5718.8516,1.2166,1.6425,1.9405,2.3724.7239.7239,1.5086,1.3748,2.3603,1.9405.8516.5718,1.752,1.0524,2.6949,1.4478.949.3954,1.9223.6874,2.926.8881s2.0196.3042,3.0416.3042,2.0379-.1034,3.0416-.3042c1.0037-.1947,1.977-.4927,2.926-.8881.9429-.3954,1.8432-.876,2.6949-1.4478.8516-.5657,1.6364-1.2166,2.3603-1.9405.7239-.73,1.3748-1.5208,1.9405-2.3724.5718-.8577,1.0524-1.758,1.4417-2.707s.6874-1.9284.8881-2.9321c.2007-1.0098.2981-2.0257.2981-3.0538s-.0973-2.044-.2981-3.0538-.4988-1.9831-.8881-2.9321-.8699-1.8554-1.4417-2.707c-.5657-.8577-1.2166-1.6425-1.9405-2.3724-.7239-.7239-1.5086-1.3748-2.3603-1.9466s-1.752-1.0524-2.6949-1.4417c-.949-.3954-1.9223-.6935-2.926-.8942s-2.0196-.2981-3.0416-.2981ZM111.4068,48.0621c-.1399-.0061-.2798.0061-.4137.0365-.4015.0973-.7057.3224-.9186.6692-.2129.3528-.2737.7239-.1764,1.1254l2.8713,11.9596c.0973.4015.3163.7057.6631.9186s.7239.2737,1.1193.1764c.3954-.0912.6996-.3163.9125-.6631.2129-.3528.2737-.7239.1764-1.1254l-2.8652-11.9656c-.0791-.3163-.2433-.584-.4988-.7969-.2494-.2068-.5414-.3224-.8699-.3346ZM127.6185,49.9965c-.1277,0-.2555.0182-.3832.0547-.3954.1034-.6935.3346-.8942.6935l-6.1319,10.6517c-.2068.3589-.2555.7361-.1521,1.1315.1095.3954.3407.6935.6935.9003s.7239.2555,1.1193.146c.3954-.1034.6935-.3346.9003-.6874l6.1319-10.6638c.2007-.3528.2494-.73.146-1.1254s-.3346-.6935-.6874-.9003c-.2312-.1338-.4745-.2007-.7422-.2007ZM98.8876,56.9679c-.5353-.0243-.9611.1764-1.2775.6144-.2372.3346-.3285.6996-.2616,1.1071.0669.4015.2616.7239.5901.9611l9.946,7.2025c.3346.2433.6996.3285,1.1011.2616.4015-.0608.7239-.2616.9611-.5901.2433-.3346.3285-.7057.2616-1.1071-.0608-.4076-.2616-.73-.5962-.9672l-9.9399-7.2025c-.2312-.1703-.4927-.2616-.7847-.2798ZM127.2535,98.8203v7.6344h-12.2394c-2.2265,0-4.0514,1.8493-4.0514,4.0818,0,2.2265,1.825,4.0757,4.0514,4.0757h12.2394v12.6531h15.3479v-28.445h-15.3479ZM129.7172,101.29h10.4205v23.5055h-10.4205v-10.1833h5.9129c2.2265,0,4.0575-1.8493,4.0575-4.0757,0-2.2325-1.831-4.0818-4.0575-4.0818h-5.9129v-5.1646ZM115.0141,109.4233h20.616c.6327,0,1.1011.4684,1.1011,1.1132s-.4684,1.1071-1.1011,1.1071h-20.616c-.6327,0-1.095-.4623-1.095-1.1071s.4623-1.1132,1.095-1.1132ZM62.0051,136.9741h3.0781v85.2073c.0122,1.0889.2372,2.1291.6752,3.1268h-4.4286c.438-.9976.6631-2.0379.6752-3.1268v-85.2073Z"/>
  </g>

</svg>