<?xml version="1.0" encoding="UTF-8"?>
<svg id="Lut" xmlns="http://www.w3.org/2000/svg" viewBox="0 0 243.9502 293.7299">
  <defs>
    <style>
      .cls-1 {
        fill: #000;
      }

      .cls-1, .cls-2 {
        stroke-width: 0px;
      }

      .cls-2 {
        fill: #007424;
      }
    </style>
  </defs>
  <rect id="bg" class="cls-2" x="0" width="243.9502" height="293.7299"/>
  <g id="content">
    <path class="cls-1" d="M180.9652,174.6471c-.586-.1233-1.168-.3242-1.7589-.3553-1.7019-.0895-3.4094-.1846-5.1109-.1386-1.9474.0526-3.8926.2325-5.8349.4022-.8165.0713-1.6226.2597-2.4339.3918-.3183.0518-.6379.0954-1.1373.1695.1011-.4003.1236-.6611.2295-.8818,1.188-2.4779,2.569-4.8455,4.0815-7.1391.2599-.3942.6181-.5579,1.0379-.6759,2.1264-.5981,4.3003-.8701,6.5018-.8973,2.8729-.0355,5.7226.2563,8.5451.775,2.2445.4125,3.0698,1.7644,2.48,3.9896-.46,1.7356-1.4031,3.2373-2.3757,4.7159-.4685.7122-1.0046,1.3795-1.4982,2.0755-1.4381,2.0276-3.3602,3.4078-5.654,4.3251-3.0397,1.2156-6.194,2.0207-9.3848,2.7047-.1476.0316-.3215.0807-.4495.0323-.2082-.0786-.4959-.1958-.5505-.3623-.0557-.1699.0822-.4585.2212-.6224.1502-.1771.399-.2709.6058-.3995,3.9341-2.446,7.8689-4.891,11.8015-7.3395.25-.1556.4836-.3376.7249-.5073-.0135-.0875-.0269-.175-.0404-.2625Z"/>
    <path class="cls-1" d="M150.7624,125.9127c.1207-.8687.2125-1.7426.3677-2.605.3676-2.0417.7411-4.083,1.1614-6.1143.1957-.9456.5526-1.8471,1.113-2.6522.6499-.9337,1.3465-1.1953,2.4453-.9153,1.1421.291,1.9408,1.0528,2.6156,1.957.1486.1992.2313.5241.1962.7698-.1094.7644-.2868,1.5194-.4468,2.2761-.0208.0985-.0848.1925-.1448.2771-.2224.3137-.3883.3278-.6426.0356-.3027-.3479-.572-.7263-.8892-1.0597-.2133-.2242-.4623-.4353-.7341-.5785-.6082-.3205-1.1458-.2155-1.5666.3313-.2646.344-.4808.7403-.646,1.1429-.4808,1.1717-.7013,2.4138-.882,3.6594-.31,2.137-.5833,4.2794-.9018,6.4151-.0861.5771-.2473,1.1489-.4331,1.7033-.166.4951-.5023.5718-.838.1782-.2939-.3447-.5464-.7501-.7165-1.1696-.3069-.7563-.5478-1.5401-.7998-2.3178-.5566-1.7171-1.3564-3.2946-2.6131-4.6129-.2004-.2102-.42-.4021-.6744-.6439-.3921.6559-.9135.5185-1.4164.2569-.7613-.396-1.5162-.8077-2.2495-1.2528-.7349-.4461-1.1264-1.1089-1.0738-1.9952.031-.5222.0006-1.0567.1031-1.5644.2528-1.2521.9236-1.435,1.7607-1.3488.8976.0924,1.6265.5235,2.3031,1.0684,1.043.8399,1.8186,1.9116,2.5407,3.0214.8249,1.2677,1.5447,2.5917,2.099,4.0046.2352.5996.5341,1.1742.804,1.7601.0529-.0089.1058-.0178.1587-.0268Z"/>
    <path class="cls-1" d="M108.3997,97.1646c.1934-1.3921.3405-2.7924.5893-4.1745.589-3.2719,1.1875-6.5431,1.8612-9.7982.3136-1.5153.8856-2.96,1.7836-4.2501,1.0415-1.4963,2.1578-1.9154,3.9186-1.4668,1.8301.4663,3.1102,1.6871,4.1915,3.1361.2382.3192.3707.8398.3143,1.2336-.1753,1.225-.4596,2.4348-.716,3.6474-.0334.1578-.1359.3084-.2321.4441-.3564.5027-.6223.5253-1.0298.057-.4851-.5575-.9167-1.1638-1.4249-1.6981-.3417-.3593-.7408-.6976-1.1764-.9271-.9746-.5135-1.8362-.3454-2.5104.531-.4241.5512-.7705,1.1863-1.0353,1.8315-.7705,1.8777-1.1239,3.8681-1.4134,5.8641-.4967,3.4246-.9347,6.8578-1.4452,10.2802-.1379.9248-.3963,1.8412-.6941,2.7296-.266.7934-.8049.9164-1.3429.2855-.471-.5524-.8756-1.2021-1.1483-1.8742-.4918-1.212-.8778-2.4681-1.2817-3.7143-.8919-2.7516-2.1736-5.2796-4.1875-7.3922-.3211-.3369-.6731-.6443-1.0807-1.0318-.6284,1.0511-1.4639.8309-2.2697.4117-1.2199-.6345-2.4296-1.2944-3.6047-2.0077-1.1777-.7149-1.8051-1.777-1.7208-3.1973.0497-.8369.001-1.6934.1652-2.507.405-2.0065,1.4801-2.2996,2.8216-2.1614,1.4385.1481,2.6065.839,3.6907,1.712,1.6714,1.3459,2.9143,3.0634,4.0715,4.8418,1.3218,2.0315,2.4754,4.1532,3.3636,6.4174.3769.9608.8559,1.8816,1.2885,2.8206.0848-.0143.1695-.0286.2543-.0429Z"/>
    <path class="cls-1" d="M25.919,191.7911c-.6391.917-1.3714.7899-2.0954.3871-1.2235-.6807-2.4518-1.3593-3.6285-2.1157-.8169-.5251-1.2173-1.3393-1.1508-2.3436.0601-.907.0108-1.8355.1922-2.7169.2877-1.3977,1.0403-1.8258,2.4475-1.6608,1.8253.214,3.1902,1.2419,4.3812,2.5135,2.3748,2.5355,4.1772,5.4511,5.5448,8.6416.5078,1.1848,1.0471,2.3562,1.5721,3.5336.08-.0074.1601-.0148.2401-.0221.0683-.2398.1594-.4757.2015-.72.6185-3.5973,1.1793-7.2055,1.8696-10.7888.2701-1.4022.8167-2.7526,1.2615-4.1187.1073-.3296.2943-.6376.4726-.9389,1.1904-2.0112,2.7002-2.4811,4.8086-1.4826,1.1686.5534,2.1124,1.3982,2.835,2.4553.2405.3518.4209.868.3667,1.274-.1434,1.0729-.4057,2.1328-.6754,3.1838-.0779.3036-.3412.5595-.6095.9774-.4367-.531-.7392-.9532-1.0972-1.3215-.5343-.5496-1.0492-1.1488-1.6781-1.5685-.929-.62-1.8408-.4652-2.5275.4098-.4467.5692-.8019,1.2407-1.0651,1.918-.8715,2.2426-1.1848,4.6154-1.5201,6.9807-.4087,2.884-.8164,5.7684-1.2627,8.6467-.1012.6524-.3139,1.2985-.5589,1.9142-.2112.5306-.5942.6077-.9754.1846-.369-.4097-.7049-.8903-.9101-1.3985-.4857-1.2028-.9112-2.4319-1.314-3.6658-.7596-2.3266-1.8084-4.496-3.4018-6.3697-.5163-.6071-1.1057-1.152-1.7227-1.7882Z"/>
    <path class="cls-1" d="M163.1857,78.6471c.6045-.5597,1.1776-1.1587,1.819-1.6723,2.9286-2.3449,5.8801-4.6612,8.8165-6.9964,4.9306-3.921,9.6832-8.043,13.9022-12.7349,1.3895-1.5453,2.5982-3.2536,3.881-4.8941.1594-.2039.266-.4491.4489-.7647-.3962-.1548-.7515-.2627-1.0786-.4269-1.2137-.6095-2.5049-1.1136-3.6071-1.8856-2.0127-1.4098-2.6195-3.3322-1.9507-5.6982.6273-2.2192,1.6778-4.2348,3.3075-5.8824.543-.549,1.2525-.9946,1.9663-1.2991,1.1302-.4821,2.1216-.2107,2.7951.8222.5491.842.9948,1.7974,1.2676,2.7643.6102,2.163.8991,4.3782.5417,6.6342-.0347.2191-.0046.4485-.0046.7817.3054.0797.6164.1739.9333.241,1.0369.2198,2.0772.4235,3.1135.6459.5489.1178.7605.4577.5903,1.0063-.2694.8679-.5458,1.7337-.8125,2.6024-.1595.5193-.4936.7129-1.0322.6417-1.0882-.1439-2.1804-.2577-3.2698-.3926-.372-.0461-.7408-.118-1.1431-.1833-.166.251-.3345.4528-.4458.6823-1.6567,3.4143-3.9907,6.3417-6.5542,9.0992-3.5712,3.8415-7.4725,7.3327-11.6777,10.4513-3.381,2.5073-7.0885,4.5197-10.8406,6.4293-.2551.1298-.5473.1869-.8223.2778-.0478-.083-.0956-.1659-.1434-.2489ZM193.52,47.076c.1503-1.7029.1246-3.2209-.5726-4.6576-.3224-.6643-.9196-1.0092-1.6427-1.0454-.8443-.0422-1.66.1388-2.3748.611-1.3037.8613-1.3794,2.645-.0982,3.5366,1.3587.9456,2.9542,1.2329,4.6883,1.5553Z"/>
    <path class="cls-1" d="M117.6052,149.932c-2.2294-.8217-4.3261-1.3566-5.771-3.258-.2857.502-.5081.8954-.7331,1.2874-.68,1.1849-1.6417,2.0545-2.8952,2.6039-2.4517,1.0746-4.5816.009-5.1971-2.5809-.4594-1.933-.2917-3.847.1279-5.7525.8125-3.6894,2.497-7.0071,4.4147-10.2198,1.5541-2.6036,3.2799-5.0771,5.5753-7.0977,1.4069-1.2385,2.9872-2.1354,4.873-2.4235,2.2732-.3472,3.8779.769,4.3271,3.0243.4073,2.0447.1491,4.0566-.446,6.0096-.5629,1.847-1.2554,3.657-1.9534,5.459-.2664.6878-.3667,1.3098-.2037,2.0498.2428,1.1023.3877,2.2346.4678,3.3618.0764,1.0741.0165,2.1578.0165,3.3736.7714.1514,1.4915.2928,2.3606.4634.163,1.3724-.2676,2.652-.7691,3.8992-.0833.2071-.5366.3395-.8332.3706-.5545.0582-1.1195.0167-1.7318.0167-.1575.2749-.3534.5426-.4751.8406-1.5976,3.9129-4.128,7.1882-7.0079,10.2149-4.2243,4.4397-9.1432,8.0253-14.2032,11.4281-.5067.3407-1.1162.5285-1.8389.8614-.0093-1.0351.5803-1.4084,1.0394-1.8286,2.7861-2.5494,5.6264-5.0407,8.3752-7.6293,3.8496-3.6253,7.6633-7.2948,10.7373-11.6373.5939-.839,1.082-1.7529,1.7438-2.8369ZM118.9788,136.7767c1.1515-2.171,1.7669-4.346,1.4566-6.7212-.3768-2.8841-1.9534-3.8073-4.6807-2.7617-.3942.1511-.8068.3126-1.1348.5673-1.0011.7773-2.0844,1.4953-2.9219,2.4284-3.0052,3.3481-5.0262,7.2847-6.4553,11.5219-.3093.9171-.4064,1.9416-.4086,2.9171-.0024,1.0596.6041,1.6238,1.6289,1.8385,1.7824.3735,4.0683-.7847,4.7953-2.4738.4097-.9519.6954-1.9586,1.1273-2.8991.5475-1.1923,1.066-2.4272,1.813-3.4921,1.3157-1.8756,2.5956-2.0943,4.7802-.9254ZM118.1017,145.4724c.1257-1.48.0844-2.8632-.5688-4.1714-.6125-1.2265-1.7507-1.5025-2.7734-.5993-.4393.388-.7491.9558-1.0206,1.4912-.2592.511-.117,1.0246.3486,1.391,1.1537.908,2.3762,1.6769,4.0143,1.8885Z"/>
    <path class="cls-1" d="M189.2544,98.69c.5711.9284.151,1.6191-.0911,2.2936-.7486,2.0861-1.6311,4.1295-2.2763,6.246-.9892,3.2448-1.9142,6.5156-2.6853,9.8177-.3709,1.5883-.3906,3.2713-.4435,4.9155-.0235.73.1707,1.5049.4295,2.1984.6258,1.6771,2.3176,2.0931,3.6116.8585.5613-.5356.9288-1.2869,1.3337-1.9703.3043-.5138.4622-1.3463,1.2172-1.1006.7395.2406.5019,1.0827.3604,1.6253-.4152,1.5925-.8318,3.2015-1.4568,4.7179-.6741,1.6354-2.0507,2.5424-3.8052,2.8247-1.4849.2389-2.4541-.2187-3.1807-1.539-.9503-1.7267-1.3687-3.6045-1.4914-5.5572-.1677-2.6674.1385-5.293.9509-7.8258,1.4835-4.6247,3.011-9.237,4.6371-13.8129.3815-1.0735,1.2015-2.0013,1.8796-2.9534.215-.3019.6244-.4652,1.0103-.7383Z"/>
    <path class="cls-1" d="M41.642,112.9619c.092.2005.2016.3276.2006.4539-.0188,2.4639-.6264,4.7612-2.121,6.7458-.7402.9828-1.8259,1.4581-3.0533,1.5981-1.2642.1441-2.2102-.3194-2.8228-1.4389-.876-1.6009-1.3133-3.3309-1.4375-5.1382-.1599-2.3259.0086-4.64.7182-6.8608,1.4636-4.5808,2.9674-9.1502,4.5601-13.6873.3631-1.0344,1.1246-1.9393,1.7658-2.8599.2121-.3045.6222-.4711,1.009-.7491.4643,1.0121.0006,1.7179-.2414,2.4554-1.3372,4.0746-2.7319,8.1319-3.9789,12.2341-.7281,2.395-1.1206,4.879-.9503,7.4045.0469.6952.1648,1.4157.4144,2.061.5527,1.4288,2.0441,1.8432,3.2063.8294.6128-.5346,1.0051-1.3359,1.4471-2.0478.2917-.4699.4304-1.071,1.2838-1.0002Z"/>
    <path class="cls-1" d="M165.0908,249.5703c.092.2005.2016.3276.2006.4539-.0188,2.4639-.6264,4.7612-2.121,6.7458-.7402.9828-1.8259,1.4581-3.0533,1.5981-1.2642.1441-2.2102-.3194-2.8228-1.4389-.876-1.6009-1.3133-3.3309-1.4375-5.1382-.1599-2.3259.0086-4.64.7182-6.8608,1.4636-4.5808,2.9674-9.1502,4.5601-13.6873.3631-1.0344,1.1246-1.9393,1.7658-2.8599.2121-.3045.6222-.4711,1.009-.7491.4643,1.0121.0006,1.7179-.2414,2.4554-1.3372,4.0746-2.7319,8.1319-3.9789,12.2341-.7281,2.395-1.1206,4.879-.9503,7.4045.0469.6952.1648,1.4157.4144,2.061.5527,1.4288,2.0441,1.8432,3.2063.8294.6128-.5346,1.0051-1.3359,1.4471-2.0478.2917-.4699.4304-1.071,1.2838-1.0002Z"/>
    <path class="cls-1" d="M208.6168,60.1182c.749,1.1635,1.4097,2.0061,1.8776,2.945,4.9596,9.9522,9.3717,20.143,13.2112,30.5798.1949.5297.3479,1.08.4586,1.6331.0515.2575.0453.6979-.0963.7815-.1996.1178-.6127.0766-.8236-.0636-.7774-.5167-1.5864-1.0245-2.2433-1.6767-1.8066-1.7937-3.5412-3.6599-5.3079-5.4939-.1588-.1649-.3439-.3045-.6483-.5711.7104,4.1447,1.3983,8.1266,2.0741,12.1106.7064,4.1644,1.3999,8.3309,2.1014,12.4961.6963,4.1345,1.396,8.2684,2.0932,12.4028.6478,3.8417,1.3001,7.6826,1.9395,11.5257.7265,4.3671,1.4478,8.735,2.1586,13.1047.7,4.3029,1.3815,8.6089,2.076,12.9127.5778,3.581,1.1795,7.1583,1.7395,10.742.5138,3.2882,1.0005,6.5809,1.4708,9.8757.2544,1.7819.5791,3.568.6387,5.36.0732,2.2022-.0334,4.4169-.1812,6.6181-.1317,1.9611-.3861,3.9168-.6558,5.8653-.5745,4.1502-1.7418,8.1246-3.5701,11.9073-1.9356,4.0047-4.621,7.4122-8.301,9.8912-1.8846,1.2696-4.0432,2.1521-6.133,3.0866-.6852.3064-.9179.5785-.9556,1.3325-.2991,5.9836-.8428,11.9652-3.6701,17.3706-1.3985,2.6736-3.1775,5.2031-5.1065,7.5308-2.5611,3.0905-5.3267,6.0333-8.2015,8.8374-5.2119,5.0838-11.0049,9.4689-17.0362,13.5378-6.1657,4.1595-12.6128,7.7561-19.773,9.9458-5.0433,1.5423-10.14,2.1652-15.4094,1.3948-4.0781-.5963-7.8156-1.9358-11.1387-4.3703-3.6554-2.6779-6.1801-6.25-8.0229-10.3398-1.2949-2.8737-2.142-5.8977-2.575-9.0001-.4671-3.3475-.5571-6.72-.3528-10.1191.235-3.9087.6826-7.7738,1.5179-11.5901.4474-2.0443,1.0618-4.052,1.5995-6.0766.04-.1508.0688-.3045.1268-.5645-2.1242.706-4.1441,1.4671-6.2141,2.05-9.6401,2.7144-19.2624,5.5017-28.9547,8.0174-6.0687,1.5752-12.2314,2.8131-18.3888,4.0128-3.5566.693-7.1772,1.1012-10.7862,1.4698-3.6909.377-7.4.7097-11.106.7719-5.1798.0869-10.1727-1.2173-15.1161-2.6163-6.4451-1.824-12.5331-4.5365-18.4481-7.6488-.5957-.3134-1.1131-.7755-1.8943-1.3302.5818-.2024.8728-.38,1.1721-.3952,1.8076-.0921,3.6166-.1687,5.4261-.21,3.9201-.0894,7.8476-.0351,11.7592-.261,4.4327-.256,8.8549-.7189,13.2751-1.1587,3.4831-.3466,6.9584-.7765,10.4304-1.2219.4002-.0513.8449-.364,1.1208-.6835,3.022-3.5002,6.0531-6.9939,9.003-10.5546,2.3916-2.8869,4.7299-5.8703,6.0128-9.4229.7116-1.9704,1.0402-4.1451,1.1593-6.2494.2272-4.0128.306-8.044.2108-12.062-.0854-3.6073-.461-7.2092-.7569-10.8096-.2351-2.8604-.4932-5.7208-.8316-8.5704-.4048-3.4085-.8964-6.8068-1.3683-10.2071-.3982-2.8695-.7948-5.7396-1.2406-8.6019-.62-3.9802-1.2691-7.9561-1.9358-11.9288-.7488-4.4618-1.5332-8.9176-2.2982-13.3766-.7146-4.1655-1.4396-8.3294-2.1311-12.4988-.5828-3.5138-1.139-7.0323-1.6801-10.5528-.6117-3.9798-1.2333-7.9588-1.775-11.9484-.4127-3.04-.7658-6.0908-1.0396-9.1463-.331-3.6943-.4884-7.4049-.8653-11.0937-.0845-.827-.69-1.6469-1.1952-2.3729-.6146-.8832-.6385-1.6352-.2125-2.647,1.525-3.6222,2.9152-7.301,4.3815-10.9483.1773-.441.5075-.8206.9094-1.4529.4483.6796.8273,1.1326,1.075,1.6487,2.3968,4.9925,4.8298,9.969,7.1344,15.0041,1.8598,4.0633,3.574,8.1938,5.3106,12.3123.3188.756.5125,1.5875.6143,2.4029.0552.4424-.0655,1.1202-.3631,1.332-.2874.2046-1.0602.1218-1.349-.1369-1.3637-1.2222-2.6815-2.5048-3.9212-3.8527-.781-.8491-1.3955-1.8513-2.2998-2.7182.1544,1.2252.2855,2.4538.4675,3.6749.5055,3.3912,1.0259,6.7803,1.5522,10.1684.5621,3.6188,1.1397,7.2351,1.707,10.8531.5773,3.6822,1.1532,7.3646,1.7243,11.0478.4898,3.1594.9621,6.3215,1.4601,9.4796.5757,3.6508,1.1678,7.2991,1.7587,10.9476.729,4.5012,1.5101,8.9945,2.1827,13.504.6145,4.1202,1.0961,8.26,1.669,12.3866.9501,6.8439,1.4608,13.7183,1.1569,20.6232-.151,3.4305-.4957,6.8639-.9694,10.2658-.5083,3.6509-1.2709,7.2664-1.9159,10.8607,3.4667-3.7335,7.4641-7.0069,11.6372-10.0652,5.4495-3.9938,11.0015-7.8416,16.9313-11.1019,3.9321-2.162,8.0407-3.9287,12.4189-4.97,3.3815-.8042,6.7943-.7936,10.254-.3709,6.6588.8135,12.5696,3.4648,18.0399,7.1622,2.8942,1.9562,5.4495,4.3241,6.9243,7.632,1.1184,2.5084,1.1754,5.1046.769,7.7551-.8728,5.6916-3.4519,10.6117-6.8067,15.1986-1.4668,2.0055-3.4591,3.316-5.5693,4.4882-4.4393,2.4661-9.0061,4.6665-13.7918,6.3818-.9643.3456-1.4349.8155-1.6593,1.9207-.8407,4.1415-1.3414,8.3047-1.3137,12.527.0357,5.4231,1.3363,10.525,4.27,15.1066,3.204,5.0037,7.7149,8.3293,13.584,9.4863,4.9086.9676,9.8288.6282,14.6671-.6595,5.9746-1.5902,11.5126-4.2038,16.824-7.3139,7.5829-4.4402,14.5835-9.6961,21.2952-15.3492,3.4401-2.8974,6.7464-5.9158,9.5112-9.5028,2.5399-3.2952,2.1744-6.8094.2349-10.0562-.1113-.1864-.5577-.3382-.7759-.2711-5.758,1.7692-11.6851,2.1569-17.6461,2.033-3.2365-.0673-6.4483-.5136-9.2974-2.3161-2.6095-1.6509-4.1798-3.9766-4.6877-7.0133-.6881-4.1137.0308-8.0592,1.6449-11.8346,1.4163-3.3126,3.3922-6.2873,5.9386-8.8673,2.6142-2.6487,5.744-4.1651,9.4838-4.0757,2.6177.0626,4.9976,1.0368,7.1692,2.5136,3.7089,2.5223,6.3593,6.0036,8.7533,9.6993.9784,1.5104,1.7565,3.1496,2.6815,4.6968.1536.2569.6539.546.8939.4762,4.4479-1.2935,8.8877-2.6175,12.936-4.9603,1.3841-.801,1.9816-1.8141,1.7291-3.5402-.4969-3.3966-.6584-6.8409-1.0972-10.2477-.5019-3.8965-1.1536-7.7737-1.7417-11.6591-.5532-3.6549-1.0902-7.3123-1.6675-10.9633-.6083-3.8465-1.2478-7.6881-1.8885-11.5294-.6353-3.8086-1.2873-7.6144-1.9353-11.4209-.6925-4.0682-1.3914-8.1354-2.0827-12.2039-.652-3.8376-1.3143-7.6735-1.9417-11.5151-.6762-4.14-1.3405-8.2821-1.9658-12.43-.4568-3.0306-.8261-6.0744-1.2636-9.1081-.4184-2.901-.8828-5.7953-1.3119-8.6948-.4438-2.999-.8788-5.9993-1.3-9.0015-.3564-2.5409-.6588-5.0899-1.06-7.6234-.0621-.3922-.4678-.7945-.8136-1.0663-1.6278-1.2793-1.8497-1.7023-1.1349-3.6434,1.4853-4.0333,3.0529-8.0366,4.6151-12.0411.1988-.5095.5676-.9527,1.0488-1.739ZM63.4838,234.7297c3.8468-.5536,7.5224-.9752,11.1561-1.6298,5.9846-1.0782,11.984-2.1269,17.9023-3.5089,13.5914-3.1738,26.8637-7.4548,40.009-12.1136,3.9191-1.389,7.7632-3.0308,11.5289-4.7971,2.6168-1.2274,2.6784-2.5076.6516-4.644-.0693-.073-.1397-.1453-.2134-.2138-2.9702-2.7598-6.4101-4.807-10.0325-6.5658-3.5048-1.7017-7.2022-2.7216-11.0663-3.2742-4.159-.5948-8.2649-.4864-12.3386.4678-4.9848,1.1676-9.5629,3.3308-13.9311,5.9501-7.5982,4.5561-14.2852,10.2758-20.6096,16.4222-3.2931,3.2004-6.4005,6.5931-9.5605,9.9286-1.1679,1.2328-2.2462,2.5504-3.4959,3.9785ZM196.9567,216.4128c-2.5623-2.7602-4.9497-5.2083-8.4227-6.3134-2.7047-.8607-4.5752.2272-6.073,1.8517-.8855.9604-.7159,2.3194.3846,3.0164.6912.4377,1.4678.8207,2.2583,1.0079,3.8156.9037,7.6799.6957,11.8528.4374Z"/>
    <g>
      <path class="cls-1" d="M150.2918,48.8044c-.1913.8056-.4019,1.4291-.4793,2.0688-.2127,1.7568-2.1679,3.5281-4.059,3.6185-1.8685.0893-3.5328-1.2295-3.9697-3.1477-.0953-.4183-.1839-.8382-.3134-1.4299-1.0342.5249-1.9992.9607-2.9118,1.4873-3.8715,2.234-7.9889,3.8712-12.4168,4.4203-3.8858.4819-7.6434-.0304-10.5028-3.1812-.7413-.8168-1.437-1.6763-2.1287-2.5363-.4203-.5226-.8794-.543-1.4023-.2084-1.5255.9759-2.766,2.2033-3.4086,3.9405-.6,1.6221-1.1733,3.2543-1.7809,4.8735-.7659,2.0411-3.1356,1.6864-4.1048.3457-1.2372-1.7115-1.591-3.7102-1.9317-5.7155-.4371-2.5725-.252-5.1164.3967-7.635.0309-.12.0168-.2516.0254-.4096-.3637-.0452-.6778-.0841-.9918-.1231-.025-.0698-.05-.1397-.075-.2095.5647-.2996,1.1177-.6242,1.6959-.8948,3.8465-1.7995,7.4466-3.9343,10.1068-7.296-.9682-1.5194-1.7937-3.1001-2.8872-4.4664-1.796-2.244-3.7594-4.3545-5.6638-6.5111-2.1264-2.4078-4.2847-4.7877-6.3852-7.2178-.4942-.5718-.7943-1.3077-1.2156-1.9471-.447-.6783-.8837-1.3732-1.4124-1.9853-.6765-.7831-.7307-2.8672.1252-4.1522,2.1234,1.8177,4.2235,3.6156,6.3237,5.4135-.0562.113-.1125.226-.1687.3391-.7433-.153-1.4866-.306-2.5682-.5287,1.546,1.7613,2.8903,3.3119,4.2556,4.844,2.3177,2.6009,4.7102,5.1383,6.9504,7.804,1.3003,1.5472,2.5463,3.2053,2.8255,5.3187.1119.8474.1078,1.7101.1584,2.5982,1.1238-.9288,1.6462-2.6501,1.3598-4.2668-1.195-6.7447-2.3996-13.4878-3.5517-20.2398-.1756-1.0292-.1125-2.1072.8347-3.2221.2855.7213.5664,1.2296.6901,1.7737,1.4946,6.5767,2.9441,13.1636,4.4507,19.7375,1.1543,5.0367,4.3582,8.0158,9.3585,9.1615,3.5432.8119,7.0863.6272,10.6633.2429,3.724-.4,7.3684-1.0963,10.9434-2.208.5854-.182.6998-.3322.5832-.9561-1.2029-6.4378-2.2784-12.9006-3.5714-19.3198-.4202-2.086-.3029-3.9253.9077-5.7485,2.5837,8.1061,3.605,16.5312,4.9948,24.9767,3.7634-1.1816,7.2934-2.6747,10.4464-4.9688,1.0614-.7722.7353-1.932.5489-2.8718-.8207-4.1375-1.7767-8.248-2.6734-12.3706-.3625-1.6663-.6922-3.3401.3772-4.8965.2172-.3162.4731-.6059.7952-1.0145,3.0706,4.18,7.5179,7.0005,9.6852,11.7422,2.6674,5.8359,2.3361,11.506-.8868,17.0201-1.4225,2.4338-3.732,3.4453-6.402,3.7465-1.7592.1984-3.5372.2287-5.297.423-1.5033.166-1.7521.6756-.9752,1.9775.8954,1.5004,1.9286,2.9213,3.5598,3.7065,1.8916.9105,3.8236.6408,5.5777-.2909,1.5786-.8386,3.0015-1.9699,4.4938-2.971.4281-.2872.8588-.5704,1.2883-.8554.0734.0532.1469.1064.2203.1596-.0913.4717-.1084.9741-.2876,1.4097-.5992,1.4564-1.551,2.6659-2.8576,3.5468-2.5895,1.7459-5.4005,3.0249-8.4472,3.7302-2.6954.624-6.5838-1.1374-8.2796-3.6807-.1777-.2665-.3561-.5325-.6351-.9498ZM101.9632,44.9908c-.1122,1.822-.3334,3.4841-.285,5.1384.0555,1.8945.3544,3.7819,1.4578,5.4205.9536,1.4161,2.4004,1.4864,3.2897.0499.5694-.9197.9493-1.9746,1.3005-3.0076.6774-1.9929,1.6003-3.8018,3.2082-5.2266,1.7784-1.5758,3.0026-1.4723,4.4032.4348,2.6357,3.5888,6.2929,5.0572,10.593,4.6007,2.4223-.2571,4.8707-.8885,7.1444-1.771,2.9381-1.1405,5.7141-2.699,8.5586-4.0802,1.0172-.4939,1.2257-.3423,1.3308.8205.0593.6554.1802,1.3243.3996,1.9422.4173,1.1747,1.8421,1.8598,3.2415,1.5567,1.8323-.3968,3.0048-1.4715,2.8339-2.7212-.3603-2.6347-.6674-5.2767-.9901-7.8654-.2063-.0479-.2771-.0885-.3326-.0733-.3525.0962-.702.2036-1.0519.3094-6.8874,2.0818-13.8613,3.4295-21.0902,2.2852-3.02-.4781-5.9047-1.4447-7.8993-3.8982-1.197-1.4723-2.0218-3.2472-3.0041-4.8701-1.8006,6.3288-5.6601,10.6456-13.1082,10.9554ZM154.5242,49.3509c-.279-.5879-.4445-.9392-.6121-1.2896-.7859-1.6434-.9878-3.3478-.2263-5.0246,1.1748-2.5867,2.2694-3.9634,5.3522-3.6248,1.0148.1115,2.0654.1185,3.0773-.0072,2.5976-.3227,4.8551-1.3556,6.1666-3.7508,1.9233-3.5124,1.8123-7.1412.0619-10.6512-1.8674-3.7446-4.9952-6.5044-7.8579-9.4557-.0242-.025-.1109.0106-.1901.0207.7059,3.6165,1.4808,7.2162,2.0954,10.8431.5795,3.4201-.1042,6.5574-3.2234,8.5046-2.4125,1.506-5.0544,2.648-7.6139,3.9123-.6423.3173-1.1625.5804-.9419,1.4471.3684,1.4473.5928,2.9377,1.0515,4.3537.5464,1.6865,1.1157,3.4097,2.8608,4.7224Z"/>
      <path class="cls-1" d="M89.5464,66.914c.559-.4422,1.1427-.857,1.6721-1.3322,1.1929-1.0705,2.4817-2.0671,3.509-3.282,1.8283-2.1619,1.4765-4.6112.6114-7.0839-1.5581-4.4533-3.1059-8.9111-4.5788-13.393-.5279-1.6064-.4884-3.2748.0351-4.9215.5339-1.6795,1.5482-2.9291,3.0992-3.7553.2304-.1227.4424-.2801.7545-.4802-.9429-.4479-.9564-1.1426-.6938-1.9416.3723-1.1325.6989-2.2801,1.08-3.4094.1983-.5877.7091-.8041,1.2029-.4893,1.4528.926,2.9965,1.7806,4.2374,2.9472,1.1627,1.0931.0366,4.1628-1.5906,4.7606-1.3426.4932-2.705.9326-4.0482,1.4243-.5299.194-1.0632.4143-1.5399.711-1.1719.7294-1.6212,1.6946-1.1966,2.9978,1.2979,3.9828,2.6598,7.9451,4.0287,11.9044,1.2167,3.5192,1.6738,7.0669.4696,10.6784-.9727,2.9174-3.984,4.8333-7.0522,4.6648Z"/>
      <path class="cls-1" d="M141.0103,15.9917c.3577,1.3645.176,1.8197-.9611,2.1884-6.2492,2.0266-12.1257,4.9198-18.0442,7.7166-.1501.0709-.2955.1793-.4529.2021-.478.0691-.9609.1047-1.4419.1534.1768-.6002.2238-1.2943.5696-1.7722.3037-.4196.9182-.654,1.4367-.8724,5.6336-2.3729,11.2721-4.7344,16.9195-7.0743.626-.2594,1.3157-.3651,1.9744-.5417Z"/>
      <path class="cls-1" d="M142.7923,59.3511c-.5126.928-.9718,1.702-1.3729,2.505-.2833.5671-.6424.6025-1.1372.3155-.8074-.4685-1.6212-.9259-2.5632-1.4626-.2831.5907-.5773,1.168-.839,1.7597-.3424.7741-.769,1.1341-1.5894.5223-.5309-.3959-1.1142-.7311-1.7035-1.0368-.929-.4818-.9877-1.1397-.4857-1.9575.0344-.056.0466-.1252.0778-.1836.8582-1.6073.9486-1.6211,2.5586-.7711,2.2563,1.1913,1.6837,1.1212,2.8247-.8234.4663-.7946.9032-1.0631,1.719-.481.7811.5574,1.6141,1.0419,2.5107,1.6135Z"/>
      <path class="cls-1" d="M136.6635,28.8475c.1551.2943.3309.5797.4611.8846.3252.7615.5814,1.5571.9635,2.2876.1835.3508.5579.6363.9074.8511.1776.1092.5643.0842.7204-.0448.1187-.0981.1051-.4965.0088-.6915-.5401-1.0939-.7153-2.2001-.2266-3.4505.1501.1371.3279.2295.3971.3739.4881,1.0183.9927,2.0315,1.4154,3.0774.3826.9466.4158,1.8488-.4544,2.6496-.8319.7656-1.623.5389-2.4669.1204-.1167-.0579-.2378-.1071-.2796.1053-.8067.3323-1.5896.8431-2.4257.9544-1.211.1611-1.916-.4419-2.2156-1.6784-.3411-1.4075-.1914-2.7861.3927-4.0897.1021-.0061.2041-.0121.3062-.0182.1714.7557.336,1.5131.5179,2.2664.0696.2882.0958.6688.2892.8262.3003.2444.7729.5152,1.0862.4354.286-.0728.6517-.6025.6416-.92-.027-.8538-.2574-1.6992-.3639-2.5533-.0523-.4198-.0091-.8516-.0091-1.2779l.3342-.108Z"/>
      <path class="cls-1" d="M124.1098,16.4215c.1798-1.2735.344-2.5475.547-3.8152.0727-.4538.2118-.9023.3678-1.3363.4727-1.3151.9401-1.6302,1.7991-1.2548,1.1548.5046,1.5834,1.631,1.0085,2.7815-.2735-.193-.5475-.3712-.8048-.5709-.8689-.6744-1.4736-.4601-1.5982.6622-.1361,1.2257-.1425,2.4654-.2164,3.6984-.0628,1.0478-.1412,2.0948-.2127,3.1421-.0964.0249-.1928.0498-.2892.0746-.213-.2951-.4457-.5781-.6355-.8875-.6246-1.0181-1.2284-2.049-1.8508-3.0685-.3479-.5698-.7086-.935-1.5284-.6758-.9119.2884-1.6157-.2509-1.652-1.213-.0242-.6434.0003-1.5744.3923-1.8841.6753-.5335,1.386.1498,1.8422.6905.9807,1.1626,1.8696,2.4027,2.8311,3.6567Z"/>
      <path class="cls-1" d="M134.6095,7.299c.2273.4182.478.6609.4432.8515-.1929,1.0561.4889,1.5473,1.1893,2.0867,1.0434.8035,1.2224,1.8525.9286,3.1197-.3219,1.3888-1.2461,1.9925-2.4987,2.2358-1.2508.243-2.29-.6978-2.3579-2.0672-.1158-2.3364,1.2097-4.1164,2.2955-6.2264ZM135.2103,13.8598c.248-.2124.8192-.511,1.0776-.9815.2171-.3952-1.1662-1.5365-1.7435-1.4763-.7481.0781-1.0012.6564-1.0066,1.274-.0072.8214.5834,1.1094,1.6725,1.1838Z"/>
      <path class="cls-1" d="M106.4714,20.2976c-.0682-1.0957-.0595-2.2029-.2199-3.285-.3871-2.6126-1.8451-4.5849-3.8695-6.1996-.2914-.2324-.6168-.5779-.6716-.9128-.073-.4461.1037-.933.1732-1.4024.4085.1425.9109.1788,1.211.444,2.9115,2.5722,4.7031,5.6835,4.3839,9.7087-.0476.5999-.382,1.177-.5838,1.7647-.1411-.0392-.2822-.0785-.4233-.1177Z"/>
      <path class="cls-1" d="M127.3347,31.6003c.7456.975.126,3.111-1.0042,3.2824-.426.0646-1.091-.2143-1.3612-.5601-1.4871-1.9031-.8087-6.6782,1.0906-8.1225.117-.089.2875-.1077.649-.2355-.1642.503-.2876.8221-.3724,1.151-.3795,1.4715-.8121,2.9344-1.0796,4.4266-.0754.4205.2289,1.1953.5626,1.341.6237.2723.9653-.3473,1.2091-.8902.0651-.145.1992-.259.3061-.3927Z"/>
      <path class="cls-1" d="M153.2617,63.447c.0787-2.8497-1.1686-4.8088-3.2946-6.3031-.6665-.4685-.6634-1.1997-.2299-1.7568.4785-.615.9993-.1041,1.4596.2114,1.7607,1.2069,2.5558,3.0064,3.0093,4.9904.2061.9016-.2159,2.1748-.9444,2.858Z"/>
      <path class="cls-1" d="M153.1454,9.9674c-.1884.5154-.4137,1.0206-.5579,1.5481-.3478,1.2719-.7314,2.5424-.9378,3.8394-.0621.3903.3047,1.0642.6637,1.257.5709.3066.9807-.1537,1.1497-.7479.0728-.2558.1479-.511.222-.7665.1736.1229.3473.2457.5209.3686,0,.4804.0939.9846-.0204,1.4361-.2088.8247-.5908,1.5785-1.5732,1.7285-1.0507.1604-1.2956-.6649-1.5582-1.3691-.9484-2.5433-.2335-4.8324,1.1734-6.9863.1441-.2206.4234-.353.64-.5263.0927.0728.1853.1456.2779.2184Z"/>
      <path class="cls-1" d="M108.4101,61.3809c.2635-.5301.3871-1.3063.814-1.5487,2.1311-1.2103,4.3418-2.2804,6.6091-3.4431.2795,1.0636.0718,1.738-.7622,2.1706-1.8065.937-3.6085,1.883-5.4254,2.7994-.2975.15-.6616.168-.995.247-.0802-.0751-.1604-.1502-.2405-.2252Z"/>
      <path class="cls-1" d="M156.7298,22.4368c.1949.9285-.0508,1.4733-.7062,1.8501-1.8482,1.0627-3.6899,2.137-5.5489,3.1803-.2307.1295-.5508.0995-.8295.1434-.0128-.3061-.1126-.6431-.0177-.9111.1384-.3907.3352-.8485.6522-1.0702.7057-.4938,1.4849-.8932,2.2641-1.269,1.3405-.6466,2.7039-1.2458,4.1859-1.9236Z"/>
      <path class="cls-1" d="M98.5339,36.3162c-.2863.7482-.6355,1.4795-.8414,2.2492-.2129.7959-.2091,1.5999.7819,2.0618.2771-.399.545-.7845.8485-1.2215.5945,1.1909.1406,2.8665-.9215,3.2499-.3481.1256-1.0461-.1568-1.313-.478-.6728-.8097-.988-1.7573-.6617-2.8781.3477-1.1938.9115-2.2221,1.6449-3.1704.1541.0623.3082.1247.4623.187Z"/>
      <path class="cls-1" d="M127.5772,46.9189c-.2663-.2191-.5124-.4718-.8046-.6481-.2961-.1787-.7444-.4767-.9348-.3727-.2892.1581-.5491.6048-.5834.9524-.1278,1.2969-.1504,2.6038-.2308,3.9058-.0227.3676-.1077.7314-.1642,1.097-.0883.0186-.1765.0371-.2648.0557-.1607-.222-.3456-.4307-.4777-.6686-.388-.699-.758-1.4081-1.1296-2.1161-.4836-.9213-1.0248-1.6531-2.2844-1.5264-.3968.0399-1.1335-.4258-1.2158-.777-.139-.5927-.0769-1.4188.2594-1.8916.4643-.6528,1.2492-.3755,1.7426.1468.6852.7253,1.2869,1.5317,1.8991,2.323.2581.3336.4516.7171.7506,1.2012.1059-1.1874.1283-2.2376.3098-3.2596.2001-1.127.8883-1.7478,1.6447-1.6866.8835.0715,1.7394,1.1057,1.7583,2.1298.0061.3306.001.6614.001.9922-.0918.0476-.1836.0952-.2753.1427Z"/>
      <path class="cls-1" d="M168.01,30.4616c.478,1.2258.0437,2.1006-.5861,2.9144-.5848.7557-1.2132.6695-1.8755.0966-1.0219-.8839-1.1792-2.0281-1.0274-3.2803.2245-1.8513,1.1379-3.3369,2.304-4.6926.0952.0364.1905.0727.2857.1091-.1308.3627-.2588.7265-.3929,1.0879-.3683.9924-.7989,1.9673-1.0815,2.9834-.1241.4465-.0361,1.0073.1234,1.4567.0974.2744.4929.5538.7944.6077.2177.0389.5287-.26.748-.4625.2637-.2434.4742-.5443.7077-.8204Z"/>
    </g>
  </g>
</svg>