<?xml version="1.0" encoding="UTF-8"?>
<svg id="Magic" xmlns="http://www.w3.org/2000/svg" viewBox="0 0 240.509 237.9843">
  <defs>
    <style>
      

      @import url('../../CSS/SvgStyling.css');

      
    </style>
  </defs>
  
  <g class="content">

    <rect id="bg" class="bg" width="240.509" height="237.9843"/>


    <path class="cls-1" d="M140.724,181.9087v-2.2186h-.8489v-15.2735l-18.4266-.1427-.0428-84.4713h4.7939v-2.2186h-4.7939l-.0071-2.3684h4.8367v-2.2115h-4.8367v-2.3684h4.8724v-2.2186h-4.8724l-.0071-5.8782h11.3213v-13.1048h-2.2115v10.8862h-9.1099l-.0071-10.8862h-2.2115l.0071,10.8862h-9.0457v-10.8862h-2.2186v13.1048h11.2643v5.8782h-4.8153v2.2186h4.8224v2.3684h-4.8581v2.2115h4.8581v2.3684h-4.9009v2.2186h4.9009l.0499,84.457-16.2651-.1213v-.0143h-2.2115v15.5659h-.8846v2.2186h.8846v4.423h-.8846v2.2186h3.9807v-2.2186h-.8846v-4.423h.8846v-2.2186h-.8846v-13.3402l1.1485.0071v2.2685h2.2115v-2.2471l12.905.0927v5.2647h-8.3251v10.7578h2.2115v-8.5463h6.1137l.0071,12.3843h-.9203v2.2186h3.9878v-2.2186h-.8489l-.0071-12.3843h6.0566v8.5463h2.2115v-10.7578h-8.2752v-5.2433l13.0762.0999v2.0331h2.2115v-2.0189l.9203.0071v13.0762h-.9203v2.2186h.9203v4.423h-.9203v2.2186h3.9878v-2.2186h-.8489v-4.423h.8489"/>
    <path class="cls-1" d="M73.6663,74.652c-1.441,0-2.611-1.1699-2.611-2.611,0-.371.0785-.7276.214-1.0415l3.4385,3.4314c-.321.1427-.6706.2211-1.0415.2211ZM76.2773,72.0411c0,.2497-.0428.4922-.107.7205l-3.2316-3.2316c.2283-.0642.4708-.0999.7276-.0999,1.441,0,2.611,1.1699,2.611,2.611ZM176.3858,160.1078l1.5766-1.5552-9.1669-9.3524-1.5837,1.5552-6.5417,6.4133-4.159-4.159,3.5598-3.4956-1.548-1.5766-3.5812,3.5098-1.6764-1.6764,3.624-3.5526-1.548-1.5837-3.6454,3.574-1.6764-1.6764,3.6882-3.6168-1.5552-1.5766-3.6953,3.6311-56.6852-56.6281c3.8737-3.1032,9.5664-2.8607,13.1547.7348l1.5694-1.5623c-2.2899-2.2899-5.3289-3.5526-8.5606-3.5526-2.8607,0-5.5715.9916-7.7402,2.8036l-2.9106-2.9035,10.5652-10.5652-1.5623-1.5623h-.0071l-13.3616-13.3616-1.5623,1.5623,13.3616,13.3616-8.9957,9.0029-4.3944-4.3873,3.4028-3.3957-1.5623-1.5694-3.4028,3.4028-1.919-1.9119c.4066-.7062.642-1.5266.642-2.397,0-2.6609-2.1615-4.8296-4.8224-4.8296s-4.8296,2.1687-4.8296,4.8296,2.1687,4.8224,4.8296,4.8224c.9845,0,1.9047-.2996,2.668-.8061l1.8619,1.8619-3.4528,3.4528,1.5694,1.5623,3.4528-3.4528,4.3873,4.3802-9.0742,9.0742-13.3616-13.3616-1.5623,1.5623,13.3616,13.3687,1.5623,1.5623,1.5694-1.5623,9.0742-9.0742,2.9035,2.9035c-1.8049,2.1687-2.7893,4.8724-2.7893,7.733,0,3.2316,1.2555,6.2706,3.5455,8.5606l1.5623-1.5694c-3.5883-3.5883-3.8308-9.2739-.7419-13.1476l56.6709,56.6067-3.2173,3.1603,1.548,1.5766,3.2387-3.1745,1.6764,1.6764-3.2815,3.2173,1.548,1.5837,3.2958-3.2387,1.6836,1.6764-3.3458,3.2815,1.5552,1.5766,3.3529-3.2887,4.1661,4.1519-6.4204,6.2991-1.5837,1.548,9.1741,9.3524,1.5837-1.548-7.626-7.7687,6.4347-6.3134,7.6831,7.676,1.5694-1.5694-7.6688-7.6617,6.5203-6.399,7.626,7.7758"/>
    <path class="cls-1" d="M178.3262,119.4808l10.9575-.0071v-2.2115h-10.9575v-9.0813h10.8862v-2.2115h-13.0977v11.2999h-11.1715c.4138-5.0793,4.6726-9.0885,9.8589-9.0885v-2.2115c-6.4061,0-11.6638,5.0008-12.0775,11.3071h-2.8607v-4.7939h-2.2186v4.7939h-2.8892c-.5707-6.1493-5.7498-10.9718-12.049-10.9718v2.2115c5.0721,0,9.2668,3.838,9.8232,8.7603l-88.2023.0499v-22.6498h-13.0977v2.2115h10.8862v9.0813h-10.8862v2.2115h10.8862v9.0742h-10.8862v2.2186h.0499v.0713l10.8362-.0071v9.01h-10.8862v2.2115h10.8862v9.0813h-10.8862v2.2115h13.0977v-22.5143l88.2094-.0499c-.5422,4.9437-4.744,8.8031-9.8304,8.8031v2.2115c6.3063,0,11.4997-4.851,12.0561-11.0146h2.8821v4.9081h2.2186v-4.9081h2.9177c.7062,6.0067,5.8212,10.6793,12.0204,10.6793v-2.2115c-4.9723,0-9.0956-3.6882-9.7876-8.4678l11.1002-.0071v11.2785h13.0977v-2.2115h-10.8862v-9.0671"/>
    <path class="cls-1" d="M177.7341,78.4472l-1.5694-1.5623-7.6974,7.6902-6.4276-6.4276,7.7616-7.7687-1.5623-1.5623-7.7616,7.7687-6.4133-6.4133,7.6974-7.6974-1.5623-1.5623-9.2597,9.2597,1.5623,1.5694,6.4061,6.4061-4.5371,4.5442c-2.0189-2.3542-2.8107-5.5002-2.1401-8.5677l-2.1615-.478c-.8418,3.8094.1783,7.7259,2.7322,10.6222l-1.6978,1.6978c-4.7511-3.9878-11.8706-3.7524-16.3293.7134l1.5623,1.5694c3.6026-3.6026,9.3167-3.838,13.1975-.7134l-52.9684,53.0255c-2.7893-3.8594-2.4469-9.2953,1.0273-12.7695l-1.5694-1.5623c-2.2828,2.2828-3.5384,5.3218-3.5384,8.5534,0,2.6966.8775,5.2576,2.4968,7.3621l-4.1947,4.1947-3.3957-3.3957-1.5694,1.5623,3.4028,3.4028-3.3672,3.3743-7.8329-7.84-14.931,14.931,1.5694,1.5623,13.3616-13.3616,6.2706,6.2706-1.7549,1.762-3.4028-3.4028-1.5623,1.5694,3.3957,3.3957-1.6764,1.6764-3.4242-3.4242-1.5694,1.5623,3.4314,3.4314-1.6764,1.6764-3.4528-3.4599-1.5623,1.5694,3.4528,3.4528-3.788,3.7952,1.5623,1.5623,3.788-3.788,3.4028,3.3957,1.5623-1.5623-3.3957-3.4028,1.6693-1.6764,3.4314,3.4314,1.5623-1.5694-3.4242-3.4242,1.6764-1.6836,3.4528,3.4599,1.5623-1.5694-3.4528-3.4528,1.7549-1.762,6.5702,6.5702-13.3616,13.3616,1.5623,1.5694,13.3616-13.3687,1.5694-1.5623-8.1397-8.1325,3.3672-3.3672,3.4528,3.4528,1.5694-1.5694-3.4528-3.4528,4.1305-4.1376c2.2257,2.0117,5.0793,3.1103,8.0969,3.1103,3.2316,0,6.2706-1.2555,8.5534-3.5384l-1.5623-1.5694c-3.7024,3.7024-9.6449,3.8451-13.5257.428l53.0398-53.0897c3.0604,3.8808,2.8107,9.5379-.7705,13.1191l1.5694,1.5623c2.2828-2.2828,3.5384-5.3218,3.5384-8.5534,0-2.8464-.9702-5.543-2.7608-7.7045l1.7478-1.7478c2.1544,1.6978,4.7868,2.5896,7.4691,2.5896,1.5338,0,3.0818-.2925,4.5585-.8917l-.8347-2.0474c-3.2387,1.3126-6.8698.8133-9.6164-1.2341l4.4872-4.4872,7.9899,7.9899,9.2668-9.2597"/>
    <path class="cls-1" d="M143.3064,89.7043c0-.799-.6492-1.4482-1.4482-1.4482-.8061,0-1.4553.6492-1.4553,1.4482,0,.8061.6492,1.4553,1.4553,1.4553.799,0,1.4482-.6492,1.4482-1.4553"/>
    <path class="cls-1" d="M151.1108,96.8881c0-.799-.6492-1.4482-1.4482-1.4482-.8061,0-1.4553.6492-1.4553,1.4482,0,.8061.6492,1.4553,1.4553,1.4553.799,0,1.4482-.6492,1.4482-1.4553"/>
    <path class="cls-1" d="M120.2571,7.4303C58.7424,7.4303,8.6988,57.481,8.6988,118.9886s50.0436,111.5583,111.5583,111.5583,111.5583-50.0436,111.5583-111.5583S181.7718,7.4303,120.2571,7.4303ZM120.2571,232.5729c-30.34,0-58.861-11.8136-80.3123-33.2649C18.4935,177.8567,6.6728,149.3286,6.6728,118.9886s11.8207-58.8538,33.272-80.3123C61.3962,17.225,89.9171,5.4114,120.2571,5.4114s58.861,11.8136,80.3123,33.2649c21.4513,21.4585,33.272,49.9794,33.272,80.3123s-11.8207,58.8681-33.272,80.3194c-21.4513,21.4513-49.9722,33.2649-80.3123,33.2649"/>
    <path class="cls-1" d="M120.1216,43.4773c-41.64,0-75.5112,33.8784-75.5112,75.5112s33.8713,75.5184,75.5112,75.5184,75.5112-33.8784,75.5112-75.5184-33.8713-75.5112-75.5112-75.5112ZM120.1216,196.5258c-42.7528,0-77.5372-34.7773-77.5372-77.5372S77.3687,41.4585,120.1216,41.4585s77.5372,34.7844,77.5372,77.5301-34.7844,77.5372-77.5372,77.5372"/>
    <path class="cls-1" d="M124.0309,36.8072c-.4066,0-.7919-.2497-.9488-.6563l-8.0897-21.5797c-.1926-.5208.0713-1.1057.5921-1.2984.5279-.1997,1.1057.0713,1.3055.5921l8.0897,21.5726c.1926.5279-.0713,1.1057-.5921,1.3055-.1141.0428-.2354.0642-.3567.0642"/>
    <path class="cls-1" d="M115.9626,36.8144c-.1213,0-.2354-.0214-.3567-.0642-.5208-.1997-.7847-.7776-.5921-1.2984l8.0541-21.594c.1926-.5208.7776-.7919,1.2984-.5921.5208.1926.7919.7776.5921,1.2984l-8.0469,21.5869c-.1498.4138-.5422.6634-.9488.6634"/>
    <path class="cls-1" d="M65.334,29.381l4.1519,7.9328,4.0092-7.9328h-8.1611ZM73.4523,49.2557l-10.6864-20.4169c-.1569-.3139-.1498-.6848.0357-.9916.1855-.2996.5065-.4851.8632-.4851h11.4711c.3496,0,.6777.1783.8632.478.1783.2996.1997.6706.0428.9916l-4.8367,9.5736,12.2915,5.4502-.8204,1.8477-11.4569-5.0864,4.0306,7.6974-1.7977.9417"/>
    <path class="cls-1" d="M90.124,31.1715l-1.7406-1.0273,9.4023-15.9726,1.7406,1.0273-9.4023,15.9726"/>
    <path class="cls-1" d="M103.778,40.9092l-15.2806-10.4867,1.1485-1.6693,15.2806,10.4867-1.1485,1.6693"/>
    <path class="cls-1" d="M58.8637,66.6122l-16.9927-17.114c-.2497-.2497-.3496-.6064-.264-.9488.0785-.3424.3353-.6206.6706-.7276l11.0574-3.5526.6206,1.9261-9.4879,3.0533,15.8299,15.9369-1.4339,1.4268"/>
    <path class="cls-1" d="M48.6623,55.5406l-.6349-1.919,8.6961-2.8749.6349,1.919-8.6961,2.8749"/>
    <path class="cls-1" d="M45.8373,83.0556l-20.0531-12.1489,1.0487-1.7264,20.0531,12.1489-1.0487,1.7264"/>
    <path class="cls-1" d="M39.8878,77.6554h-2.026v-8.5463l-5.6785,4.8652-1.3198-1.5338,7.3549-6.2991c.2996-.2568.7205-.3139,1.0772-.1498s.5921.5208.5921.9203v10.7435"/>
    <path class="cls-1" d="M40.4299,102.8448l-25.6959-7.1623c-.3781-.107-.6634-.4209-.7276-.8133-.0571-.3924.1141-.7847.4423-.9987l9.916-6.5845c.2354-.1569.535-.214.8133-.1355l17.6633,4.6156-.5065,1.9547-17.2281-4.5014-7.6974,5.1078,23.5629,6.5631-.5422,1.9547"/>
    <path class="cls-1" d="M39.8878,123.647H12.922v-2.026h26.9658v2.026"/>
    <path class="cls-1" d="M18.679,123.3473l-7.9542-7.9542,1.4268-1.4268,7.9613,7.9542-1.4339,1.4268"/>
    <path class="cls-1" d="M23.1947,123.2689l-6.4704-7.9542,1.5694-1.2769,6.4704,7.9613-1.5694,1.2698"/>
    <path class="cls-1" d="M19.9702,140.2402l8.8602,1.2484,6.7486-5.5572-15.6087,4.3088ZM29.4225,143.6144l-5.814,4.7868,13.8681-3.6525-8.0541-1.1343ZM19.3924,151.5758c-.371,0-.7205-.2069-.8989-.5493-.214-.428-.107-.9417.2568-1.2484l7.9542-6.5417-11.835-1.6693c-.478-.0642-.8418-.4566-.8703-.9345-.0357-.478.2782-.9131.7419-1.0415l24.8827-6.877c.4566-.1213.9417.0856,1.1628.5136.2211.4209.1141.9417-.2568,1.2413l-8.9815,7.3977,11.1787,1.5766c.478.0642.8418.4566.8703.9417.0285.478-.2854.9131-.749,1.0344l-23.192,6.1208c-.0927.0214-.1783.0357-.264.0357"/>
    <path class="cls-1" d="M28.0599,172.7703l9.5022.4566,3.2601-8.3679-8.6533-.7705-4.1091,8.6818ZM38.2398,175.2885h-.0499l-11.7422-.5707c-.3353-.0143-.642-.1997-.8204-.4851-.1712-.2925-.1926-.6492-.0428-.9559l5.0579-10.6936c.1783-.3781.5778-.6064,1.0059-.5707l9.9374.8846,3.2958-8.4607,1.8833.7348-3.0818,7.9114,10.6936.9488-.1783,2.0189-11.2785-1.0059-3.7381,9.595c-.1569.3924-.5279.6492-.9417.6492"/>
    <path class="cls-1" d="M45.2238,193.9149h8.2253v-8.2253h-8.2253v8.2253ZM54.4621,195.9409h-10.2441c-.5636,0-1.013-.4494-1.013-1.013v-10.2441c0-.5636.4494-1.013,1.013-1.013h10.2441c.5564,0,1.013.4494,1.013,1.013v10.2441c0,.5636-.4566,1.013-1.013,1.013"/>
    <path class="cls-1" d="M70.399,217.8131l-4.2945-7.7045,1.762-.9916,2.4683,4.423,11.8492-22.871,1.7977.9274-13.5827,26.2167"/>
    <path class="cls-1" d="M86.9066,223.1563c-.2497,0-.4994-.0927-.692-.2711-.2854-.264-.3924-.6706-.2711-1.0487l8.2895-25.6175,1.9261.6206-7.6189,23.5487,10.558-4.3017.7633,1.8762-12.5698,5.1221c-.1284.0499-.2568.0713-.3852.0713"/>
    <path class="cls-1" d="M97.1721,226.2024c-.3353,0-.6492-.1641-.8418-.4423l-7.5832-11.2643,1.6836-1.1271,6.3633,9.4594,6.8056-23.8055,1.9404.5564-7.3977,25.8885c-.107.3781-.428.6634-.8133.7205-.0571.0143-.107.0143-.1569.0143"/>
    <path class="cls-1" d="M114.6856,228.6921c-.0927,0-.1855-.0143-.2782-.0357-.4708-.1213-.799-.5564-.799-1.0415l.0357-27.3724h2.1473l-.0285,23.2419,2.8321-5.0579c.1926-.3353.5493-.5493.9345-.5493.3924,0,.749.214.9417.5493l2.8393,5.065v-23.249h2.1473v27.3724c0,.4922-.3282.9203-.8061,1.0415-.4708.1213-.9702-.0856-1.2056-.5136l-3.9165-6.984-3.9093,6.984c-.1926.3424-.5564.5493-.9345.5493"/>
    <path class="cls-1" d="M138.8763,205.7784l7.2123,1.3982-1.9475-8.3323-5.2647,6.9341ZM142.7999,217.1996l7.3335,3.0533-3.0319-9.2525-4.3017,6.1993ZM151.8884,223.2205c-.1427,0-.2854-.0214-.4138-.0785l-10.7292-4.4658c-.2996-.1284-.5279-.3781-.6206-.692s-.0357-.6492.1498-.9131l5.4003-7.783-8.903-1.7264c-.3638-.0713-.6634-.321-.799-.6706-.1284-.3496-.0785-.7419.1498-1.0344l7.3763-9.7305-.1141-.4994,2.0902-.4922,3.2958,14.0464,4.1376,12.634c.1284.3995.0143.8347-.2925,1.12-.1997.1855-.4637.2854-.7276.2854"/>
    <path class="cls-1" d="M174.7451,213.3259c-.0713,0-.1498-.0071-.2211-.0285l-7.7116-1.6194.4423-2.1045,5.2148,1.0986-13.49-21.3158,1.812-1.1485,14.8597,23.4631c.2283.3638.2211.8347-.0214,1.1913-.2069.2925-.535.4637-.8846.4637"/>
    <path class="cls-1" d="M174.6238,213.3973c-.371,0-.7134-.1855-.9131-.5065l-14.6171-23.62,1.8263-1.1271,13.276,21.4442,1.2912-5.172,2.0902.5208-1.9119,7.6474c-.107.4209-.4494.7348-.8775.799-.0571.0143-.107.0143-.1641.0143"/>
    <path class="cls-1" d="M193.0076,200.5136h-2.1473v-17.0712l-7.9114,7.1623c-.3068.2782-.749.3496-1.1343.1926s-.642-.5208-.6634-.9345l-1.013-20.103,2.1544-.1141.8917,17.8416,8.0255-7.2622c.321-.2854.7705-.3638,1.1628-.1855.3852.1712.6349.5564.6349.9773v19.4967"/>
    <path class="cls-1" d="M213.3888,173.5193l-24.2335-14.5458,1.1057-1.8477,24.2335,14.5458-1.1057,1.8477"/>
    <path class="cls-1" d="M207.4107,177.8067l-2.7608-9.8732c-.0856-.3068-.0285-.6349.1498-.8989s.4637-.428.7847-.4637l11.25-1.1129.214,2.1401-9.9802.9916,2.4112,8.639-2.0688.5778"/>
    <path class="cls-1" d="M220.9649,152.4604l-2.9677-6.0495c-.2568-.5136-.0571-1.1414.4494-1.4196l5.2505-2.8464-23.3561-6.7414,1.9903,4.0306c.2568.5208.0642,1.1414-.4423,1.4196l-6.1422,3.3672-1.0344-1.8905,5.2362-2.8678-2.611-5.3004c-.1926-.3781-.1355-.8347.1355-1.1628.2782-.3282.7205-.4566,1.1271-.3424l28.2142,8.1468c.4138.1213.7205.4851.7705.9203.0428.428-.1783.8489-.5564,1.0558l-6.6487,3.6097,2.5182,5.1292-1.9333.9417"/>
    <path class="cls-1" d="M225.6376,125.2592l-1.8548-1.0772,2.6038-4.5014-27.9716,1.2627c-.4138.0214-.7776-.1926-.9773-.5422s-.1855-.7847.0285-1.12l4.3159-6.6059,1.8049,1.1699-3.1674,4.8581,27.8361-1.2555c.3995-.0214.7633.1783.9702.5136.1997.3353.2069.7562.0071,1.0986l-3.5954,6.1993"/>
    <path class="cls-1" d="M200.9118,101.8318l-1.9761-.8489,4.9723-11.4997c.2283-.5279.8347-.7847,1.3697-.5778l8.0327,3.0889-.7705,2.0117-7.0696-2.718-4.5585,10.5438"/>
    <path class="cls-1" d="M214.4518,101.1612c-.1284,0-.2568-.0285-.3852-.0785l-8.0327-3.0889.7776-2.0046,7.0625,2.718,4.5656-10.5509,1.9761.8561-4.9723,11.4997c-.1783.3995-.5707.6492-.9916.6492"/>
    <path class="cls-1" d="M176.6426,62.5032l-1.4054-1.6336,19.832-17.0569,1.4054,1.6336-19.832,17.0569"/>
    <path class="cls-1" d="M188.9556,59.721l-2.133-.2782,2.2828-17.4136,2.133.2854-2.2828,17.4065"/>
    <path class="cls-1" d="M157.5597,47.779l-1.8833-1.0344,12.3343-22.3359,1.8833,1.0415-12.3343,22.3288"/>
    <path class="cls-1" d="M165.7993,51.6669l-1.8762-1.0415,12.3343-22.3359,1.8833,1.0415-12.3415,22.3359"/>
    <path class="cls-1" d="M168.8525,44.9968c-.4994,0-.9488-.3496-1.0558-.8561l-2.8464-13.647c-.1213-.585.2497-1.1557.8347-1.2769s1.1485.2497,1.2698.8347l2.8464,13.647c.1213.585-.2497,1.1557-.8275,1.2769-.0785.0143-.1498.0214-.2211.0214"/>
    <path class="cls-1" d="M145.7604,16.7327l-1.9975,6.5845,7.7687-1.5623-5.7712-5.0222ZM139.2758,38.0557l-2.0617-.6278,6.9697-22.9066c.1141-.3496.3852-.6206.7348-.7205s.7276-.0143,1.0059.2283l8.6676,7.5333c.3139.2711.4423.692.3353,1.0915-.0999.3924-.4209.6991-.8275.7776l-11.0503,2.2257-3.7738,12.3985"/>
    <path class="cls-1" d="M190.6606,79.4531l-.9773-1.919,22.7568-11.5853.9773,1.919-22.7568,11.5853"/>
    <path class="cls-1" d="M111.133,113.8023c-2.8678,4.958-1.1628,11.3213,3.7952,14.182s11.3213,1.1557,14.182-3.8023c2.8678-4.958,1.1628-11.3213-3.7952-14.182-2.4041-1.384-5.2005-1.7549-7.8757-1.0344-2.6823.7134-4.9223,2.4326-6.3063,4.8367ZM120.1002,131.3943c-2.1045,0-4.2303-.535-6.1779-1.655-5.9282-3.4242-7.9613-11.0289-4.5442-16.9499,1.655-2.8678,4.3302-4.9223,7.5333-5.7784s6.5417-.4209,9.4166,1.2341c5.9211,3.4242,7.9613,11.0289,4.5371,16.9499-2.2899,3.9735-6.4704,6.1993-10.7649,6.1993"/>
    <path class="cls-1" d="M109.6064,26.292c0,1.2912-1.0487,2.3399-2.3399,2.3399s-2.3399-1.0487-2.3399-2.3399,1.0487-2.3399,2.3399-2.3399,2.3399,1.0487,2.3399,2.3399"/>
    <path class="cls-1" d="M133.9611,26.7272c-.3353,1.2484-1.6194,1.9903-2.8678,1.655s-1.9903-1.6194-1.655-2.8678,1.6194-1.9903,2.8678-1.655,1.9903,1.6194,1.655,2.8678"/>
    <path class="cls-1" d="M157.3671,33.4544c-.6492,1.12-2.0759,1.4981-3.1959.8561-1.12-.6492-1.5052-2.0759-.8561-3.1959.642-1.12,2.0759-1.5052,3.1959-.8561,1.12.642,1.5052,2.0759.8561,3.1959"/>
    <path class="cls-1" d="M178.2406,46.0098c-.9203.9131-2.397.9131-3.3101,0-.9131-.9203-.9131-2.397,0-3.3101s2.3898-.9131,3.3101,0c.9131.9131.9131,2.3898,0,3.3101"/>
    <path class="cls-1" d="M195.1477,63.5376c-1.12.642-2.5539.2568-3.1959-.8561-.6492-1.12-.264-2.5539.8561-3.1959,1.12-.6492,2.5468-.264,3.1959.8561.6492,1.1129.264,2.5468-.8561,3.1959"/>
    <path class="cls-1" d="M206.947,84.8391c-1.2484.3353-2.5325-.3995-2.8678-1.655-.3353-1.2413.4066-2.5254,1.655-2.8607s2.5325.4066,2.8607,1.655c.3353,1.2484-.3995,2.5325-1.6479,2.8607"/>
    <path class="cls-1" d="M212.8253,108.4734c-1.2912,0-2.3399-1.0415-2.3399-2.3328,0-1.2984,1.0487-2.347,2.3399-2.347s2.3399,1.0487,2.3399,2.347c0,1.2912-1.0487,2.3328-2.3399,2.3328"/>
    <path class="cls-1" d="M212.3901,132.8281c-1.2484-.3353-1.9903-1.6194-1.655-2.8678s1.6122-1.9903,2.8607-1.655,1.9903,1.6194,1.655,2.8678-1.6122,1.9903-2.8607,1.655"/>
    <path class="cls-1" d="M205.6629,156.2341c-1.12-.642-1.5052-2.0759-.8561-3.1959.642-1.1129,2.0759-1.4981,3.1959-.8561,1.12.6492,1.4981,2.0759.8561,3.1959-.6492,1.12-2.0759,1.5052-3.1959.8561"/>
    <path class="cls-1" d="M193.1074,177.1076c-.9131-.9131-.9131-2.397,0-3.3101s2.397-.9131,3.3101,0,.9131,2.397,0,3.3101-2.397.9131-3.3101,0"/>
    <path class="cls-1" d="M175.5797,194.0147c-.6492-1.12-.264-2.5468.8561-3.1959,1.12-.642,2.5539-.264,3.1959.8561.6492,1.12.264,2.5539-.8561,3.1959-1.12.6492-2.5468.264-3.1959-.8561"/>
    <path class="cls-1" d="M154.2711,205.814c-.3353-1.2484.4066-2.5325,1.655-2.8678s2.5325.4066,2.8678,1.655-.4066,2.5325-1.655,2.8678-2.5325-.4066-2.8678-1.655"/>
    <path class="cls-1" d="M130.6368,211.6923c0-1.2912,1.0487-2.3399,2.3399-2.3399s2.3399,1.0487,2.3399,2.3399-1.0487,2.3399-2.3399,2.3399-2.3399-1.0487-2.3399-2.3399"/>
    <path class="cls-1" d="M106.2891,211.2571c.3282-1.2484,1.6122-1.9903,2.8607-1.655s1.9903,1.6194,1.655,2.8678-1.6194,1.9903-2.8607,1.655c-1.2484-.3353-1.9903-1.6194-1.655-2.8678"/>
    <path class="cls-1" d="M82.876,204.5299c.6492-1.12,2.0831-1.4981,3.1959-.8561,1.12.6492,1.5052,2.0759.8561,3.1959-.642,1.12-2.0759,1.5052-3.1959.8561-1.12-.642-1.4981-2.0759-.8561-3.1959"/>
    <path class="cls-1" d="M62.0097,191.9745c.9131-.9131,2.397-.9131,3.3029,0,.9203.9203.9203,2.397,0,3.3101-.906.9131-2.3898.9131-3.3029,0s-.9131-2.3898,0-3.3101"/>
    <path class="cls-1" d="M45.0954,174.4467c1.12-.642,2.5539-.264,3.1959.8632.6492,1.1129.264,2.5468-.8561,3.1959-1.12.642-2.5468.2568-3.1959-.8632-.642-1.1129-.264-2.5468.8561-3.1959"/>
    <path class="cls-1" d="M33.3033,153.1452c1.2484-.3353,2.5254.4066,2.8678,1.655.3282,1.2413-.4066,2.5254-1.6622,2.8607-1.2484.3353-2.5254-.4066-2.8607-1.655s.4066-2.5325,1.655-2.8607"/>
    <path class="cls-1" d="M27.4179,129.5109c1.2984,0,2.3399,1.0415,2.3399,2.3399,0,1.2912-1.0415,2.3328-2.3399,2.3328-1.2912,0-2.3399-1.0415-2.3399-2.3328,0-1.2984,1.0487-2.3399,2.3399-2.3399"/>
    <path class="cls-1" d="M27.8602,105.1562c1.2484.3353,1.9903,1.6194,1.655,2.8678s-1.6194,1.9832-2.8678,1.655c-1.2484-.3353-1.9903-1.6194-1.655-2.8678s1.6194-1.9903,2.8678-1.655"/>
    <path class="cls-1" d="M34.5802,81.7502c1.12.642,1.5052,2.0759.8561,3.1959-.642,1.12-2.0759,1.4981-3.1959.8561-1.12-.6492-1.4981-2.0759-.8561-3.1959.6492-1.12,2.0831-1.5052,3.1959-.8561"/>
    <path class="cls-1" d="M47.1357,60.8767c.9131.9131.9131,2.397,0,3.3101s-2.397.9131-3.3101,0-.9131-2.397,0-3.3101,2.397-.9131,3.3101,0"/>
    <path class="cls-1" d="M64.6634,43.9696c.6492,1.12.264,2.5468-.8561,3.1959-1.12.642-2.5468.264-3.1959-.8561s-.264-2.5539.8561-3.1959c1.12-.6492,2.5539-.264,3.1959.8561"/>
    <path class="cls-1" d="M85.9721,32.1703c.3353,1.2484-.4066,2.5325-1.655,2.8678s-2.5325-.4066-2.8678-1.655c-.3282-1.2484.4066-2.5325,1.655-2.8678s2.5325.4066,2.8678,1.655"/>
  </g>
</svg>