<?xml version="1.0" encoding="UTF-8"?>
<svg id="Mathmatics" xmlns="http://www.w3.org/2000/svg" viewBox="0 0 208.4208 205.5844">
  <defs>
    <style>
      

      @import url('../../CSS/SvgStyling.css');

      
    </style>
  </defs>

  <g class="content">

    <rect id="bg" class="bg" width="208.4208" height="205.5844"/>

    <path class="cls-2" d="M89.03,80.496h-21.0272c-1.0437,0-1.8975-.8539-1.8975-1.8975,0-1.0555.8539-1.9094,1.8975-1.9094h21.0272c1.0437,0,1.8975.8539,1.8975,1.9094,0,1.0437-.8539,1.8975-1.8975,1.8975Z"/>
    <path class="cls-2" d="M138.805,123.013h-21.0391c-1.0555,0-1.9094-.8539-1.9094-1.9094s.8539-1.9094,1.9094-1.9094h21.0391c1.0555,0,1.8975.8539,1.8975,1.9094s-.8539,1.9094-1.8975,1.9094Z"/>
    <path class="cls-2" d="M139.0185,136.1298h-21.0272c-1.0437,0-1.8975-.8539-1.8975-1.9094s.8539-1.9094,1.8975-1.9094h21.0272c1.0555,0,1.9094.8539,1.9094,1.9094-.0119,1.0555-.8658,1.9094-1.9094,1.9094Z"/>
    <path class="cls-2" d="M142.8492,80.496h-28.9139c-1.0437,0-1.8975-.8539-1.8975-1.8975,0-1.0555.8539-1.9094,1.8975-1.9094h28.9139c1.0555,0,1.9094.8539,1.9094,1.9094,0,1.0437-.8539,1.8975-1.9094,1.8975Z"/>
    <path class="cls-2" d="M128.3922,94.9648c-1.0555,0-1.9094-.8539-1.9094-1.8975v-28.9257c0-1.0437.8539-1.8975,1.9094-1.8975,1.0437,0,1.8975.8539,1.8975,1.8975v28.9257c0,1.0437-.8539,1.8975-1.8975,1.8975Z"/>
    <path class="cls-2" d="M88.7335,139.7825c-.4862,0-.9725-.1779-1.3401-.5574l-20.4342-20.4224c-.7472-.7472-.7472-1.9568,0-2.6921.7472-.7472,1.945-.7472,2.6921,0l20.4342,20.4224c.7472.7472.7472,1.945,0,2.6921-.3676.3795-.8658.5574-1.352.5574Z"/>
    <path class="cls-2" d="M68.2993,139.7825c-.4862,0-.9725-.1779-1.3401-.5574-.7472-.7472-.7472-1.945,0-2.6921l20.4342-20.4224c.7472-.7472,1.945-.7472,2.6921,0,.7472.7353.7472,1.945,0,2.6921l-20.4342,20.4224c-.3795.3795-.8658.5574-1.352.5574Z"/>
    <path class="cls-2" d="M45.1611,161.8415h118.1105V43.7311H45.1611v118.1105ZM165.1809,165.6485H43.2517c-1.0555,0-1.9094-.8539-1.9094-1.8975V41.8335c0-1.0555.8539-1.8975,1.9094-1.8975h121.9293c1.0437,0,1.8975.842,1.8975,1.8975v121.9174c0,1.0437-.8539,1.8975-1.8975,1.8975Z"/>
    <path class="cls-2" d="M57.0089,150.0174h94.4386V55.5789H57.0089v94.4386ZM153.3569,153.8244H55.0995c-1.0555,0-1.8975-.842-1.8975-1.8975V53.6695c0-1.0437.842-1.8975,1.8975-1.8975h98.2574c1.0437,0,1.8975.8539,1.8975,1.8975v98.2574c0,1.0555-.8539,1.8975-1.8975,1.8975Z"/>
    <path class="cls-2" d="M104.0325,153.8007c-1.0555,0-1.9094-.842-1.9094-1.8975V53.6813c0-1.0555.842-1.9094,1.9094-1.9094,1.0437,0,1.8975.8539,1.8975,1.9094v98.2218c.0119,1.0555-.8539,1.8975-1.8975,1.8975Z"/>
    <path class="cls-2" d="M153.3213,104.5119H55.0995c-1.0555,0-1.8975-.8539-1.8975-1.9094s.842-1.9094,1.8975-1.9094h98.2218c1.0555,0,1.9094.8539,1.9094,1.9094s-.8539,1.9094-1.9094,1.9094Z"/>
    <path class="cls-1" d="M104.2104,3.7402c27.3484,0,52.1114,11.0769,70.0432,29.0088,17.92,17.9318,29.0088,42.6948,29.0088,70.0432s-11.0769,52.1114-29.0088,70.0314c-17.92,17.9318-42.683,29.0206-70.0314,29.0206s-52.1233-11.0888-70.0551-29.0206c-17.92-17.92-29.0088-42.683-29.0088-70.0314s11.0888-52.1233,29.0088-70.0432C52.099,14.829,76.862,3.7402,104.2104,3.7402ZM171.1226,35.88c-17.1135-17.1254-40.7736-27.7161-66.9123-27.7161s-49.7869,10.5907-66.9123,27.7161c-17.1254,17.1254-27.7161,40.7736-27.7161,66.9123s10.5907,49.775,27.7161,66.9123c17.1254,17.1135,40.7854,27.7042,66.9123,27.7042s49.7869-10.5907,66.9123-27.7042c17.1254-17.1254,27.7161-40.7854,27.7161-66.9123s-10.5907-49.7869-27.7161-66.9123Z"/>
  </g>
</svg>