<?xml version="1.0" encoding="UTF-8"?>
<svg id="mohammadsvg" xmlns="http://www.w3.org/2000/svg" width="500" height="500" viewBox="0 0 500 500">
  <defs>
    <style>


      



      @import url('../../CSS/SvgStyling.css');
      
    </style>
  </defs>
  <g id="mohammad">
    
    <g  class="content">

      <title>Prophet Mohammad (SAW)</title>

      <rect id="bg" class="bg" x="37.6975" y="45.2551" width="424.1839" height="410.5808"/>

      <path class="path" d="M232.6656,272.8196c-.1377.3355-.3209.6598-.4062,1.0081-1.3049,5.3313-2.5912,10.6671-3.8938,15.999-1.0781,4.4133-3.6577,7.9613-6.53,11.3507-7.7778,9.1783-16.4074,17.5147-25.1922,25.7094-9.0892,8.4786-18.2625,16.8545-28.1046,24.4634-9.4212,7.2837-19.1007,14.1913-29.5802,19.8992-7.9423,4.3259-16.3834,7.1801-25.385,8.2308-4.7219.5511-9.4352.571-14.001-1.0751-5.8971-2.1261-9.8366-6.3981-12.7179-11.7655-2.9445-5.4852-4.5827-11.4047-5.4773-17.5319-.9737-6.6694-1.2503-13.3715-.6532-20.0969.5589-6.2947,1.9754-12.4233,3.5844-18.5147,3.5904-13.5926,8.3448-26.7553,14.7367-39.29,1.5694-3.0777,3.5062-5.9684,5.2847-8.9387.1577-.2634.3949-.4791.8889-.7179.0557.6772.2531,1.3781.1449,2.0281-1.0036,6.027-3.1193,11.7431-4.9692,17.5339-2.8824,9.0226-5.8752,18.0126-8.5766,27.0892-1.7222,5.7865-2.523,11.7694-2.2264,17.8384.3433,7.0244,2.4868,13.43,7.2145,18.7209,2.0364,2.279,4.4462,4.2598,6.8593,6.1559,2.0089,1.5785,4.4998,1.975,7.0411,2.0151,5.6792.0894,11.0967-1.2711,16.4597-2.9216,10.2206-3.1455,19.4951-8.1994,28.4002-14.0291,10.2762-6.7271,19.7528-14.4752,29.0622-22.4478,2.5787-2.2084,5.2217-4.3422,7.786-6.5669.9181-.7965,1.6916-1.7596,2.5307-2.647.2399-.2537.4388-.5704.7237-.7538,3.1952-2.0567,5.5261-5.0341,8.1398-7.6966,4.2884-4.3684,8.6568-8.6846,12.6158-13.3422,3.8221-4.4964,7.1816-9.3873,10.7171-14.1252,1.031-1.3817,1.0838-2.9868.8083-4.6225-3.6744-21.8128-8.9965-43.2564-14.5329-64.6498-4.2649-16.4799-8.7374-32.9026-13.9307-49.1201-.6284-1.9622-1.2921-3.9184-1.7888-5.9148-.1898-.7628-.1205-1.6802.1092-2.4433,2.2572-7.4974,4.5741-14.9769,6.8701-22.4626.1526-.4976.2733-1.005.4896-1.8074.5195.5888,1.0783.982,1.3075,1.5164,9.792,22.8346,18.4235,46.0866,25.0319,70.0582,2.3809,8.6367,4.3972,17.3626,5.646,26.2382.7406,5.2638,1.2586,10.5622,1.7528,15.8566.7706,8.2556,1.4001,16.5242,2.1545,24.7814,1.0278,11.2485,3.3182,22.1796,8.1173,32.503,3.4838,7.4941,8.2597,14.1067,13.4564,20.4625,5.8275,7.1273,12.1537,13.7384,19.6987,19.0827,1.8498,1.3103,3.8181,2.4531,5.8798,3.7671.1999-.6347.3569-1.1096.4993-1.5888,1.4139-4.757,2.665-9.5705,4.2905-14.254,1.2107-3.4883,2.6964-6.92,4.4345-10.1769,2.4066-4.5096,6.3318-7.5966,10.7031-10.1087,4.9916-2.8686,10.3744-4.8669,15.7252-6.9216,14.4373-5.5439,29.257-9.9141,44.0742-14.2896,5.0286-1.4849,10.0531-2.9839,15.0811-4.4708.6969-.2061,1.4032-.3803,2.1537-.79-.3109-.0631-.6219-.1802-.9326-.1795-.979.0024-1.9576.0624-2.9367.0764-13.2985.1903-26.597.5148-39.8956.5251-13.5797.0105-27.1594-.3194-40.7396-.4413-8.9953-.0808-17.9915-.0749-26.9873-.0766-9.4562-.0018-18.8764.7057-28.2901,1.5156-1.2959.1115-1.4507-.1588-.8797-1.6792,2.3348-6.2168,4.7554-12.4029,6.9819-18.6581.9831-2.7619,2.4957-4.967,4.7205-6.8862,17.846-15.3952,36.7927-29.2899,56.8533-41.6441,4.9018-3.0188,10.1427-5.487,15.2279-8.2081.397-.2125.7952-.4228,1.211-.6437-1.4845-2.145-2.9828-4.2082-4.3735-6.3414-2.7177-4.1688-5.4374-8.391-6.4095-13.3532-2.2166-11.3149-.3277-21.6805,7.8462-30.2958,6.1937-6.5282,13.8593-8.4448,22.5587-6.6166,6.4645,1.3585,11.9367,4.6639,17.0135,8.7302,5.9707,4.7823,11.3681,10.1712,16.6215,15.7135,3.7316,3.9369,7.4828,7.8553,11.2246,11.7825.9492.9962,1.0544,1.6973.4831,2.9133-2.8832,6.1368-5.782,12.2665-8.6233,18.4227-.6158,1.3343-1.5097,2.1678-2.9044,2.644-9.4255,3.2183-18.8439,6.4578-28.2442,9.7487-1.8038.6315-3.543,1.4697-5.2524,2.3309-.3743.1885-.6634.8681-.7036,1.3457-.2754,3.2708-.4739,6.548-.6951,9.7934-.8106.2775-1.2394.1119-1.6207-.4974-1.3732-2.1945-2.8386-4.332-4.1804-6.5449-.5657-.9328-1.1521-1.1453-2.1449-.7244-6.3681,2.6994-12.8521,5.1495-19.1052,8.0914-12.667,5.9597-24.4913,13.3582-35.6915,21.7536-.2978.2232-.6098.4275-.9253.92,1.4337.2165,2.8624.5727,4.3019.6241,4.8249.1724,9.6534.2544,14.4811.3375,11.512.1982,23.0243.377,34.5365.5639,5.7385.0932,11.4768.2,17.2156.2772,9.4842.1276,18.9686.2309,28.4529.355,6.3687.0833,12.737.2059,19.1058.2738,12.3551.1318,24.7105.2404,37.0657.3526,5.9504.054,11.9011.0905,17.8515.1467.5831.0055,1.1655.0942,1.9686.1633-.7738,1.5234-1.3969,2.9123-2.1582,4.2208-3.1818,5.4681-6.4004,10.9149-9.6161,16.3632-1.0164,1.7221-2.5288,2.6845-4.4906,3.1509-9.5097,2.2608-18.6199,5.7418-27.7946,9.0551-12.4575,4.4989-24.9967,8.7739-37.5288,13.0632-10.3794,3.5525-20.8245,6.9133-31.1939,10.4941-9.9395,3.4324-19.8784,6.8831-29.6994,10.6352-4.8153,1.8397-9.3962,4.314-14.0123,6.6416-1.5422.7776-2.9136,1.93-4.2737,3.0225-1.3896,1.1163-1.4706,1.9157-.6047,3.4725,1.6308,2.9318,3.9822,5.213,6.5822,7.2673,5.5046,4.3493,11.6822,7.5345,18.0351,10.4145,9.0605,4.1074,18.4884,7.1941,27.9928,10.068,1.808.5467,1.8716.6607,1.384,2.5241-1.9558,7.4741-3.916,14.9469-5.8753,22.4201-.449,1.7125-.4449,1.6773-2.2092,1.416-17.5165-2.594-33.9942-8.4557-50.051-15.7236-9.8086-4.4397-18.819-10.0152-26.598-17.51-7.6252-7.3467-13.8501-15.754-18.9937-24.9806-5.9132-10.6073-10.1642-21.8603-12.7105-33.7246-1.0409-4.85-1.6751-9.7873-2.4968-14.6845-.0213-.1267-.0718-.2484-.1087-.3725-.0908-.0233-.1816-.0466-.2724-.0699ZM326.5782,166.8089c.9101,1.0994,1.7453,2.1237,2.5967,3.1343,4.3713,5.1884,7.8267,10.9931,11.2734,16.8003.5405.9107,1.1002,1.1679,2.1321.8269,6.9332-2.2912,13.8844-4.5275,20.8253-6.7955,1.1397-.3724,2.257-.8133,3.6455-1.3172-2.2999-2.2445-4.3429-4.4098-6.5649-6.3726-5.186-4.581-10.8839-8.3192-17.6396-10.2243-6.0874-1.7166-11.3636-.1292-16.2684,3.9481Z"/>
      <path class="path" d="M177.948,203.835c.7937,4.4955,1.5874,8.9909,2.414,13.6731.5879-.3804,1.1544-.6874,1.6535-1.0799,2.5024-1.9679,5.2194-3.1804,8.4586-2.2352,2.4729.7216,4.2835,2.4295,5.9663,4.2943,1.7394,1.9274,2.3292,4.072,1.4712,6.59-.4163,1.2218-.6895,2.4923-1.0261,3.7412-.4524,1.6785-1.4457,2.9265-2.9743,3.7529-3.555,1.922-7.2355,3.5017-11.2583,4.1586-.2725.0445-.5363.1428-.9277.2499.1751,1.7286.372,3.4561.5209,5.1878.2821,3.2804,1.1363,6.382,2.7139,9.2876.661,1.2173,1.5682,2.0885,3.1177,2.7044-.3058-.7233-.486-1.2371-.7323-1.7169-1.1384-2.2179-2.2287-4.4605-2.3879-6.9989-.3232-5.1539,2.7731-9.1532,7.9954-10.4335,2.4127-.5915,4.7938-.4439,7.1506.2539,2.136.6325,5.0236,2.2942,6.9761,4.0115-.5881,0-1.0107.0609-1.4104-.0092-5.8084-1.0174-11.418-.5423-16.7886,2.0686-.8803.428-1.0395.8603-.7699,1.7578,1.0333,3.4389,2.4626,6.6101,5.3288,8.9638,3.4965,2.8712,6.7018,2.9532,10.268.1983,1.3851-1.07,2.7844-2.1217,4.1583-3.2058,1.3655-1.0775,2.7071-2.1854,4.2514-3.4355-.1247,2.1551-.3396,4.0953-1.6696,5.6332-4.2933,4.9646-9.3952,8.5233-16.1514,9.2733-4.3544.4834-8.1485-.3399-10.9827-3.9583-.0563-.0719-.157-.109-.2839-.1936-.3425,1.4212-.6035,2.8225-1.0298,4.1715-.3337,1.0561-.7769,2.1041-1.3426,3.0538-.7707,1.2937-1.8979,2.2205-3.4145,2.6084-.7439.1902-1.4649.4692-2.1979.7027-2.3046.7342-4.1709-.0703-5.1961-2.2597-.3974-.8486-.7516-1.7173-1.1255-2.5768l-.3175.0461c.0799,1.0377.1608,2.0753.2395,3.113.3068,4.0435.8188,8.0856.8496,12.1312.0218,2.8649-.4055,5.7749-1.6961,8.492-1.003-4.4124-.7461-8.97-1.6535-13.6075-1.2783,2.8928-2.0746,5.6797-1.6961,8.7084.2817,2.2545,1.1415,4.2465,2.7369,5.8861,2.5284,2.5985,6.09,3.0894,9.3521,1.4965,4.3603-2.1291,8.5386-4.515,12.0433-7.9187,1.1003-1.0685,2.1241-2.2316,3.0668-3.4419.8405-1.079.6317-1.9217-.6652-2.3637-1.0207-.3478-2.1683-.4369-3.2586-.4317-.8933.0043-1.7797.3536-2.6786.486-2.8006.4124-5.0604-1.103-5.6768-3.7743-.9446-4.0932,2.0794-8.6585,6.0899-8.993.9294-.0775,2.139.1758,2.8266.7486,3.05,2.541,5.3184,5.6415,5.9577,9.7.5321,3.378-.4246,6.414-2.3594,9.1114-3.9023,5.4401-9.011,9.4404-15.1247,12.1391-1.8194.8031-3.7658,1.0939-5.7524.7876-4.3634-.6729-7.1819-3.6306-8.121-8.5685-.9807-5.1572.1211-10.0128,2.3323-14.6608.4748-.998.694-1.9126.4359-3.0058-.2862-1.212-.4132-2.4616-.6408-3.8916-.5336.2607-.9406.4179-1.3045.6443-2.2525,1.4009-4.4952,2.8175-6.7414,4.2285-.7441.4674-1.1906.9837-1.0886,2.02.3868,3.9296.9477,7.8577.4938,11.827-.3551,3.1052-1.0904,6.067-3.1656,8.521-2.2167,2.6212-6.4334,3.5865-9.5946,2.2148-1.5943-.6918-2.6817-1.8782-3.2235-3.5298-.5557-1.6938-1.069-3.4016-1.6086-5.1008-.0592-.1865-.1693-.3569-.3359-.6998-.2266.3198-.3934.5105-.5107.7278-1.2943,2.3965-4.7204,4.1037-7.373,3.6657-1.4888-.2459-2.3286-1.465-2.0995-3.106.6166-4.417,2.3863-8.1555,6.2265-10.719,1.4229-.9499,1.3791-1.008.9429-2.6444-.0713-.2677-.1758-.5729-.1127-.8222.3559-1.4068.7582-2.8018,1.1447-4.2008.1091-.0203.2182-.0406.3273-.0609.6137,1.3766,1.2273,2.7532,1.9463,4.366,1.1177-.8488,2.2231-1.6884,3.3286-2.5279.0873.0328.1746.0656.2619.0983-.0909.4668-.0821.9848-.2907,1.3912-.7651,1.4904-1.6165,2.9363-2.4008,4.4173-.1524.2877-.2596.6782-.2014.9861.5066,2.6769.9125,5.3846,1.6234,8.0086,1.2988,4.7936,7.3075,6.6905,11.1884,3.6109.8988-.7132,1.4231-1.5879,1.2903-2.8907-.4365-4.2803-.7713-8.5716-1.0949-12.8625-.0791-1.0493-.5525-1.3697-1.5451-1.3447-4.7531.1196-8.5022-1.6721-10.965-5.862-.1747-.2972-.4163-.5628-.6598-.8107-1.6544-1.6846-2.5669-1.6161-4.3829-.1394-2.88,2.3419-4.621,5.3696-5.8088,8.8036-.6056,1.7507-1.2351,3.4969-1.9533,5.2033-.3479.8265-.8564,1.6105-1.4127,2.3191-1.2016,1.5306-2.6493,1.6754-4.2156.501-1.8784-1.4085-3.0733-3.3262-3.9826-5.4424-1.4428-3.3577-2.0703-6.8869-2.1401-10.5241-.0261-1.3603-.0042-2.7214-.0042-4.0822.1037-.0305.2074-.061.3111-.0916.1859.6061.4769,1.2014.5405,1.8201.3798,3.695.7242,7.4007,2.547,10.7399.8038,1.4724,1.7001,2.9159,3.3811,3.59,1.346.5397,2.2546.4351,3.0455-.759.9163-1.3835,1.6924-2.8862,2.3311-4.4198.6424-1.5427,1.0614-3.1809,1.5425-4.7879.9842-3.2877,3.0523-5.8809,5.3796-8.276,1.7018-1.7514,3.7518-1.633,5.3923.2018.5802.6489,1.0596,1.3901,1.5646,2.1035,2.1467,3.0328,5.2213,4.3228,8.7881,4.6529,1.1351.1051,1.5394-.3869,1.4159-1.5316-.5894-5.4611-1.1726-10.9229-1.7713-16.3831-.0491-.4475-.0777-.9704-.3221-1.3096-.7021-.9745-.3632-1.799.1333-2.6969.6073-1.0982,1.1345-2.2407,1.7862-3.5436,1.8727,4.2448,4.2567,8.1072,5.1312,12.8238-.5114-.3529-.8211-.6717-1.1952-.7947-.3625-.1192-.8595-.167-1.1702-.0039-.27.1417-.5373.6398-.5059.9501.3274,3.2367.6984,6.4694,1.1002,9.6979.0843.6775.3433,1.3333.5337,2.0435,2.9586-1.0098,5.5641-2.403,7.9383-4.2285.5582-.4292.8259-.938.6987-1.7163-.7331-4.487-1.4116-8.983-2.1201-13.4741-.0422-.2675-.1519-.5376-.2855-.7754-.7608-1.3538-.4469-2.6539.2479-3.8888.3342-.5941.8429-1.09,1.2726-1.6304.3908.5251.8659,1.0074,1.1581,1.5826,1.3459,2.649,2.6418,5.3234,3.9523,7.9904.1232.2507.3017.5082.3172.7707.0294.4981-.0408,1.0022-.0696,1.5037-.3748-.2402-.7526-.4759-1.1224-.7234-.1122-.0751-.2023-.1833-.4184-.3837-.8665,2.5622-.1184,4.9498.223,7.432.8313-.3754,1.5673-.7816,2.3515-1.0437,1.0356-.3462,1.4018-.0471,1.2163,1.0358-.6124,3.5745,2.1442,5.7084,5.7467,4.534.8552-.2788,1.6721-.7135,2.4544-1.1666.7363-.4265,1.124-1.1042,1.0534-2.0072-.5181-6.6273-1.0276-13.2553-1.5396-19.8831-.0591-.7646-.3092-1.4464-1.1929-1.4508-2.1876-.0109-4.1926-.6769-6.1547-1.5504-.2526-.1124-.5255-.1792-.8467-.2865-.3347.493-.6598.9718-.9849,1.4505-.0943-.0166-.1885-.0331-.2827-.0497.9897-2.6584-.637-4.3077-2.1721-6.2276-.4021.7693-.7082,1.3766-1.0334,1.9736-1.6513,3.0313-3.7272,5.5981-7.2513,6.5567-4.0654,1.1059-7.592-.4144-9.1951-4.3449-.9942-2.4377-1.4526-5.0939-2.1515-7.652-.044-.1611-.0878-.3223-.2407-.5315-1.1661,3.3307-3.0637,6.1365-5.9011,8.4976.7632.18,1.3673.2928,1.9533.4671,1.068.3176,2.165.5817,3.1784,1.0299,1.8611.823,2.7254,2.3666,2.6608,4.3707-.118,3.6632-1.4234,6.6506-4.6014,8.8183-5.8005,3.9565-11.8821,7.2551-18.8017,8.7514-3.9352.8509-7.4918-.2816-10.7339-2.4762-1.4704-.9953-1.4108-1.0826-2.0709.6163-.4558,1.173-.9137,2.3452-1.3696,3.5182-.5579,1.4356-.5256,1.54.8486,2.5578.294-.3538.5933-.7139.8969-1.0792.7.978.0633,2.0352-.6429,2.6069-.6671.54-2.0086-.0229-2.1023-.9494-.1048-1.0366-.6934-2.2112.5171-3.0781.1398-.1001.0156-.5367.0576-.8106.2619-1.7042.7861-3.2853,2.1683-4.6161-.0943-.1425-.231-.4171-.4283-.6375-3.8342-4.2838-4.9488-9.356-4.3745-14.934.3365-3.268,1.1235-6.4011,2.6692-9.3179.3195-.6029.3128-1.1187-.0378-1.75-.7999-1.4402-.8985-3.0092-.4407-4.5794,1.1177-3.8333,3.0383-7.278,5.2201-10.5902.03-.0455.1126-.0564.4495-.2135-.2146.8076-.3062,1.4649-.5599,2.0521-1.035,2.3958-2.3357,4.7008-3.1272,7.1711-.8528,2.6617-.5792,2.9259,1.773,4.7691.7108-.8888,1.4263-1.7833,2.1417-2.6778.078.0401.156.0802.2341.1203,0,.3942.1356.8575-.0238,1.1706-.6451,1.267-1.3214,2.5285-2.1201,3.7007-.2376.3487-.9267.3711-1.3841.5939-.4363.2125-1.0832.3981-1.2205.7556-1.1686,3.045-2.1079,6.1421-2.0443,9.473.1093,5.7268,3.8724,10.9047,9.3167,12.7119.8915.2959,1.6229.2204,2.409-.4205,2.4928-2.0322,5.0559-3.9783,7.435-5.8352-.1631-1.272-.3411-2.3578-.4218-3.4507-.0293-.3972.1214-.8335.2808-1.2139.3945-.9409.7798-1.0601,1.6616-.5327,1.2973.7759,2.5734,1.5698,3.0566,3.1539.3696,1.2118-.4737,2.4258-1.6718,2.0909-1.3093-.366-1.9251.3018-2.7693,1.0326-2.1344,1.8477-4.3823,3.5643-6.6084,5.3524,1.0911.6795,2.3962.5644,3.687.2977,6.851-1.415,13.0457-4.3217,18.7352-8.3446.6134-.4337,1.1277-1.0077,1.7755-1.5961-1.4635-1.0961-2.8538-1.9957-4.5199-2.4-3.3972-.8243-6.7867-1.6821-10.1932-2.466-.9692-.223-1.2285-.5867-.9749-1.5914.7276-2.8824,1.9581-4.0675,5.0254-4.5382,4.0148-.6161,7.1664-2.5886,9.6592-6.2007-1.4652-.0246-2.7343-.135-3.9899-.0489-2.896.1985-4.9805-.9652-6.4211-3.4601-1.948-3.3736-2.1078-6.9467-1.3931-10.667.4287-2.2313.7509-4.4833,1.1082-6.728.043-.2701.0058-.5529-.201-.9819-.2536.3513-.563.6751-.752,1.0583-1.6563,3.3569-2.4735,6.9633-3.1986,10.6083-.4691,2.3579-1.0843,4.6891-1.709,7.0122-.1677.6235-.5667,1.2019-.9332,1.7519-1.3839,2.0767-3.6626,2.0873-5.229.1355-3.2114-4.0014-4.0323-8.6672-3.8906-13.6084.0401-1.3976.1725-2.7945.3217-4.1854.0278-.2595.3378-.4887.5175-.732.1471.2693.4248.5409.4199.8074-.0294,1.6005-.1236,3.1998-.209,5.0846.6911-.3487,1.253-.4935,1.6238-.8418,2.4727-2.3222,4.9047-4.6879,7.3779-7.0663-.3054-.3705-.418-.5325-.5553-.6697-1.4301-1.4284-1.633-2.3886-.598-4.0823.2023-.331,1.0183-.3509,1.5591-.3831.2551-.0152.6989.2269.7662.443.4236,1.3601.8104,2.7365,1.0923,4.1312.0504.2494-.4183.8436-.6934.875-.9132.1042-1.4922.5362-2.0401,1.2499-2.061,2.685-4.5259,4.9662-7.3187,6.8711-.7345.501-1.0017.9601-.7827,1.8652.4865,2.011.9146,4.0268,2.1183,5.7697,1.6204,2.3463,3.7849,2.2598,5.1747-.2489,1.4038-2.5338,1.7323-5.3658,2.1723-8.1656.7289-4.6388,2.372-8.977,4.442-13.1623.2838-.5738.8076-1.0288,1.2014-1.5154,1.3891.8238,1.8287,1.8486,1.5029,3.4287-.8834,4.2847-1.3077,8.6221-1.4042,13.0125-.1021,4.6437,3.6908,7.9486,8.1844,6.887,1.0132-.2394,1.5256-.7449,1.4156-1.8264-.3256-3.2022-.6301-6.4065-.9455-9.6097-.3463-3.5169-.8391-7.0275-.9851-10.5526-.0777-1.8746.443-3.7741.7062-5.7576,1.1352.3453,1.4275.9763,1.6285,1.7624,1.3756,5.3814,1.8879,10.8819,2.3226,16.3951.1155,1.4649.2502,2.9285.3943,4.3909.0296.3005.1402.5929.2679,1.1094,1.1918-2.2211,1.7841-4.398,1.5139-6.6385-.3969-3.291-.954-6.5752-1.6758-9.8103-.5133-2.3004-.2258-4.4008.6611-6.5119,1.1464.6644,1.9559,1.56,2.169,2.9052.6395,4.0362,1.3134,8.0674,1.9099,12.11.3361,2.278.3787,4.6024,1.4949,6.7138,1.873,3.5431,5.3104,4.7242,8.6225,2.9169,1.4421-.7869,1.7046-1.4229,1.1757-3.0044-1.2637-3.7787-2.5906-7.5371-3.7942-11.3346-.5261-1.66-.8128-3.3959-1.2083-5.0973-.0396-.1703-.0239-.3947-.1283-.5024-1.422-1.4672-.6025-2.9725-.1009-4.4756.1962-.5881.3824-1.1795.6314-1.9493,2.3458,2.2388,4.0375,4.7384,5.6389,7.6197-.7171-.2384-1.1983-.3984-1.6809-.5588-.7422.7375-.8797,1.4951-.5179,2.4811,1.0352,2.8203,2.0251,5.6593,2.9465,8.5187,1.2424,3.8557.7001,7.5654-1.3203,11.0134-1.3814,2.3577-3.4362,3.7817-6.3275,3.4838-.9441-.0973-1.4006.2195-1.5962,1.1421-.258,1.2171-.614,2.4135-.9687,3.7757h2.2297c-.1214.552-.1518,1.112-.3778,1.5768-.1649.3393-.5878.7771-.8952.7767-.6377-.0009-1.409-.1487-1.4637-1.0213-.0537-.8572-.0946-1.7425.0593-2.5785.195-1.0589.6452-2.0691.8741-3.1244.0794-.3658-.0397-1.0138-.2949-1.176-2.4991-1.5879-3.5381-4.0612-4.2634-6.749-.1073-.3977-.2365-.7894-.41-1.3643-.282.2394-.5325.3593-.64.557-1.9927,3.6664-2.4919,7.4644-.8844,11.4034.5924,1.4515,1.1452,2.9479,1.9613,4.2728,1.3058,2.1198,3.3404,2.8786,5.7916,2.4623,2.9984-.5092,5.314-2.0529,6.9254-4.6376.9253-1.4843,1.8218-2.9872,2.7794-4.4502.2036-.3111.6158-.4856.9319-.723.1387.3962.42.8028.3923,1.187-.1473,2.0455.9345,3.3372,2.568,4.4623.705-.9228,1.3894-1.797,2.0489-2.6896.4573-.6189.7945-1.3503,1.3336-1.8809,2.2432-2.2076,2.2829-4.8278,1.7236-7.6801-.4435-2.2619-.6652-4.5686-.9532-6.8594-.2591-2.0614.127-4.0499.8674-5.9629.1461-.3775.6059-.6336.9211-.9457l.4449.1638ZM196.0888,225.8218c-1.4017-1.9528-2.7842-3.9189-4.8096-5.3239-3.2153-2.2306-6.5367-1.8018-9.626.4537-.7243.5288-1.0768,1.2591-.9853,2.1835.2342,2.3646.4925,4.7277.6658,7.0969.0702.9602.4847,1.2338,1.3513,1.0216,2.6772-.6553,5.3881-1.2005,8.0198-2.0047,2.0412-.6237,3.9394-1.6401,5.384-3.427ZM130.618,283.1036c1.9844.6357,5.4203.0317,6.9834-1.2344.1296-.1049.3395-.2696.3215-.3738-.2491-1.4466-.1914-2.9844-1.0995-4.2838-5.0898,3.6911-6.0045,4.1722-6.2055,5.892ZM177.2185,225.5809c-1.2898,1.9529-2.4005,3.6346-3.6029,5.4552,1.1245.1957,2.115.3673,3.1051.5406.865.1514,1.2537-.202,1.1832-1.0837-.1029-1.2873-.1753-2.5773-.2941-3.863-.0253-.274-.1938-.5348-.3913-1.0491ZM182.4015,267.9154c.4097.4925.7089,1.2082,1.1154,1.2755,1.3218.2187,2.6901.25,3.9621-.4572-1.363-1.5992-2.696-1.8269-5.0774-.8183Z"/>
      <path class="path" d="M138.6193,179.3619c-1.3399-3.4098-3.6557-5.7501-6.36-7.884-.1936.2975-.3765.5452-.5252.812-4.3783,7.8534-10.0269,14.7314-16.2275,21.1911-11.9662,12.4662-25.0239,23.679-39.3405,33.3314-7.5564,5.0946-15.5593,9.5288-23.3806,14.2279-3.7169,2.2331-7.4777,4.3931-11.2273,6.5714-.3696.2147-.7999.325-1.202.4838-.0456-.0755-.0911-.151-.1367-.2266.4581-.4154.8853-.8722,1.3787-1.2402,18.131-13.5239,35.7706-27.6603,52.8005-42.5472,9.2492-8.0854,18.3394-16.3525,26.6035-25.4677,2.3238-2.5631,4.4636-5.2951,6.6439-7.9852.9016-1.1125.809-1.2332-.4176-1.9345-4.0936-2.3408-8.3125-4.464-11.8899-7.6402-2.5858-2.2958-3.5937-5.0178-2.5813-8.2751,2.613-8.4071,7.9567-14.5277,15.9825-18.1485,3.9589-1.7861,7.0972-.3793,8.7225,3.654,1.44,3.5736,1.7615,7.3723,1.4862,11.1461-.2532,3.4699-.9526,6.9101-1.53,10.3508-.1089.6487.0069.9914.4792,1.4182,1.4508,1.3107,2.9203,2.6164,4.2326,4.0603,1.259,1.3852,1.8597,2.953,1.2706,4.9796-.715,2.4597-1.2737,4.9508-2.8537,7.0349-.5374.7089-1.2083,1.3166-1.9277,2.0878ZM120.3558,149.8816c3.9587,3.0828,8.1087,5.7732,12.5851,8.3757-.0568-1.0885-.0783-1.8875-.1437-2.6829-.2513-3.0595-.7851-6.0321-2.6823-8.5803-.8029-1.0784-1.8318-1.804-3.2049-1.6104-2.8734.4051-4.9961,1.9765-6.5542,4.498Z"/>
      <path class="path" d="M115.3554,163.2395c.0248.5377.1818,1.1092.0543,1.6079-1.4888,5.8236-4.1713,10.9114-9.2685,14.3998-3.7683,2.579-7.8719,4.0797-12.5411,3.4998-2.5794-.3203-4.5855-1.61-6.1523-3.6308-2.6035-3.3578-3.3982-7.289-3.6058-11.4106-.3574-7.0962,1.8188-13.5894,4.7423-19.8956,7.1301-15.38,18.5754-26.5781,33.4434-34.4585,4.3701-2.3163,8.7914-4.5137,13.7296-5.3045,1.5659-.2508,3.2203-.2826,4.7927-.0847,2.7377.3445,4.7902,1.8328,6.0192,4.3641,2.1698,4.4692,2.3375,9.1638,1.5201,13.9491-.7616,4.4581-2.5031,8.5-5.317,12.0649-.3211.4067-.5571.8806-.8326,1.3233-.147-.1178-.294-.2356-.4411-.3535.417-2.1771.9096-4.343,1.2332-6.5339.4751-3.2168.3604-6.4243-.6196-9.5547-1.0189-3.2546-3.6809-5.2633-7.0831-5.4504-3.6294-.1996-6.9848.7603-10.2289,2.2825-10.7015,5.0212-20.0433,11.8162-27.5446,21.0291-3.4285,4.2108-5.8506,8.8536-6.3594,14.361-.3449,3.7333.0607,7.3382,1.7189,10.7373,2.7169,5.5695,8.6092,7.4567,14.0738,4.5287,3.3674-1.8042,5.9658-4.4716,8.3076-7.4253.1196-.015.2393-.03.3589-.045Z"/>
      <path class="path" d="M241.1947,451.1925c-.3501-.8142-.8733-1.5977-1.0246-2.4473-2.8315-15.9026-7.9028-31.1319-13.6729-46.167-2.6781-6.9783-5.1745-14.0294-7.6042-21.0987-1.5678-4.5617-2.4948-9.2888-1.7667-14.135.3713-2.4712,1.008-4.9271,1.7827-7.3059.6933-2.1289,2.3016-3.6249,4.2382-4.7576,3.9802-2.328,8.2675-3.9147,12.6387-5.3063.4979-.1585.9927-.3267,1.6898-.5567-2.5172-1.7354-4.9145-3.3616-7.8972-3.6488-1.8758-.1806-3.1788.9083-4.1118,2.4264-.8599,1.3991-1.6442,2.8446-2.4689,4.2656-.1746.3008-.3342.6322-.5807.8646-.4582.4319-1.0394.5797-1.1088-.2538-.0965-1.1577-.1559-2.3606.0485-3.4937.7024-3.8945,2.1763-7.5057,4.3133-10.843,2.2167-3.4618,5.7325-4.3518,9.4812-2.6137,4.6075,2.1364,8.3699,5.4371,12.2682,8.5611,1.1158.8942,2.1917,1.8448,3.2181,2.8396.2809.2723.4906.8244.4347,1.2042-.3349,2.2765-.7131,4.5489-1.1652,6.805-.2957,1.4755-1.3166,2.1651-2.7997,2.4181-6.2712,1.0697-12.5768,2.0472-18.4631,4.6281-2.0432.8959-4.0104,1.9707-5.9864,3.0129-1.5433.814-2.0781,2.1262-1.869,3.8599.4062,3.3682,1.564,6.5131,2.7139,9.6656,4.1186,11.2908,8.3416,22.545,12.3231,33.884,2.9851,8.5014,5.0305,17.2642,5.7136,26.268.2975,3.9211.05,7.8836.05,11.8273-.1315.0323-.263.0647-.3945.097Z"/>
      <path class="path" d="M274.6353,135.0377c.2407.5131.4464.8122.526,1.1417,1.6575,6.8608,4.3025,13.3499,7.1995,19.7677,2.5712,5.696,3.688,11.6196,1.293,17.6982-.8291,2.1042-1.7644,4.2162-2.9926,6.1024-2.0927,3.214-6.7462,3.6718-9.8438,1.147-2.2177-1.8076-3.6582-4.2075-4.9373-6.7154-.127-.2489-.1777-.564-.3628-.7496-.2824-.283-.6533-.6646-.9829-.6612-.3304.0035-.8111.3563-.9602.6789-1.4103,3.051-2.7915,6.1147-4.9799,8.7171-2.2013,2.6176-4.8296,4.4532-8.4131,4.4891-2.7323.0274-4.8693-1.0996-6.4103-3.3434-1.9651-2.8611-2.7195-6.1338-2.9396-9.5086-.2549-3.9082-.2807-7.8311-.4239-11.747-.1195-3.2694-.8231-6.3749-2.6649-9.1458-.4077-.6134-.4957-1.2276-.269-1.974.7618-2.5076,1.4436-5.0395,2.1629-7.5601.1003-.3513.2383-.6919.4591-1.3247.3464.5427.5551.8319.7254,1.1422,2.6606,4.8467,3.5357,10.0964,3.7173,15.5582.1194,3.5892.5578,7.1697.917,10.7476.0715.7127.3832,1.417.6673,2.0901,1.5078,3.5721,4.1234,4.9133,7.9693,4.4166,3.58-.4624,8.0736-5.3515,8.0612-8.0922-.011-2.4349-.1429-4.9233-.6701-7.2881-.6651-2.9833-1.7021-5.895-2.738-8.7804-.727-2.0248-.9498-3.9722-.2686-6.0403.5571-1.6912.9776-3.4272,1.4713-5.1396.1232-.4271.2956-.84.5591-1.5777.5355.7137.9961,1.1734,1.2757,1.7249,2.0112,3.966,2.8997,8.2977,4.0357,12.5492.9742,3.6459,1.9097,7.3041,2.9868,10.9198.5824,1.955,1.6099,3.7226,3.0869,5.1818,2.1449,2.1191,4.654,2.7175,7.5183,1.7679,1.6136-.5349,1.9503-1.1553,1.3156-2.771-.9707-2.4709-2.0684-4.8918-3.0482-7.3594-1.5988-4.0262-3.1337-8.0777-4.7208-12.1087-.6494-1.6493-.7865-3.3193-.4112-5.0436.5875-2.6988,1.1667-5.3994,1.7575-8.0975.0425-.1941.1504-.374.3324-.8121Z"/>
      <path class="path" d="M235.0593,119.3109c.687-1.6612,1.266-3.0731,1.8545-4.4811.8487-2.0308,1.7515-4.0405,2.5386-6.0948.4454-1.1624,1.2128-1.9041,2.2869-2.4562,7.3975-3.8024,14.7653-7.6632,22.18-11.4315,14.0201-7.1254,28.048-14.2362,42.1068-21.2848,8.5593-4.2913,17.1823-8.4556,25.7778-12.6749.3375-.1657.6858-.3095,1.2876-.5795,0,.5499.0863.9442-.0138,1.2835-.7209,2.4446-1.4959,4.8732-2.2176,7.3176-.2743.9289-.9187,1.422-1.7345,1.8321-8.3064,4.1756-16.584,8.4092-24.9096,12.546-22.3838,11.122-44.5062,22.7403-66.3809,34.8317-.5508.3044-1.0801.6506-1.644.9271-.2684.1316-.5947.145-1.1317.2648Z"/>
      <path class="path" d="M162.4802,109.0609c0-.4466-.0939-.7833.0141-1.0325,1.5417-3.5559,3.0841-7.1122,4.7023-10.6335.2364-.5143.7989-.9776,1.3225-1.2467,15.8532-8.1469,31.6884-16.33,47.5952-24.3715,14.2855-7.2219,28.6518-14.2837,42.9836-21.4139.3059-.1522.6253-.2772,1.0507-.4643,0,.4796.0935.8835-.0148,1.223-.8687,2.7248-1.7514,5.4459-2.697,8.1447-.14.3997-.5723.7971-.9693.9923-24.9681,12.2765-49.8245,24.7686-74.2105,38.1772-6.1563,3.3851-12.3594,6.6852-18.5426,10.0212-.3606.1946-.7363.3613-1.2342.6039Z"/>
      <path class="path" d="M287.3026,153.1106c.6041-.452,1.185-.9397,1.8158-1.3506,8.2615-5.3813,16.5991-10.6491,24.7799-16.1502,10.6575-7.1666,21.1334-14.6049,30.9337-22.924,4.3937-3.7297,8.5071-7.7896,12.8506-11.7945-.4096-.3889-.6315-.643-.8946-.8428-2.6444-2.009-5.3243-3.9724-7.9356-6.0232-2.1271-1.6706-2.827-4.2987-1.7968-6.7976,2.3754-5.7613,6.5448-9.7691,12.285-12.1007.9901-.4022,2.1949-.438,3.2883-.3858,1.712.0817,2.6793,1.1685,3.2426,2.7974,1.708,4.9391,1.0215,9.7881-.3576,14.6348-.0383.1346-.0763.2694-.1198.4024-.4435,1.3543-.6137,2.5905.7795,3.6151.6842.5032,1.1657,1.2941,1.7018,1.9838,1.0273,1.3216,1.3155,2.8547.6654,4.3545-.7558,1.7437-1.6293,3.4752-2.7211,5.0217-.8049,1.1402-1.111.9154-1.8198-.2738-.9926-1.6654-2.1352-3.2414-3.2137-4.8556-.1923-.0577-.3845-.1155-.5768-.1732-.2017.3614-.3794.7388-.6086,1.0818-4.6422,6.9486-10.7162,12.5267-17.0973,17.8033-6.7503,5.5819-13.8127,10.7665-21.299,15.29-5.4929,3.319-11.3148,6.0995-17.0312,9.0403-3.479,1.7898-7.037,3.4259-10.5574,5.1356-1.6784.8151-3.3452,1.6547-5.0325,2.4507-.3546.1673-.7763.1923-1.1671.2829l-.1136-.2223ZM361.6133,92.3347c.3263-2.9614.0713-5.5664-1.2642-7.9808-.8396-1.5178-2.4003-1.9673-3.9553-1.1875-.6863.3442-1.3399.7539-2.0056,1.1387-1.5164.8766-1.5653,1.2287-.2465,2.3102,2.002,1.6418,4.0184,3.2661,6.0453,4.8771.3688.2932.8166.487,1.4263.8423Z"/>
      <path class="path" d="M375.9128,344.8373c.076-.619.0696-.9545.1622-1.2599.791-2.609,1.513-5.2445,2.451-7.8003.3243-.8836,1.0478-1.8155,1.847-2.2983,5.1344-3.102,10.747-4.0939,16.6498-3.2459,3.6781.5284,5.1103,2.7698,4.2309,6.8509-.4413,2.048-1.2283,4.108-2.278,5.9199-2.0671,3.5679-4.4484,6.9526-6.6525,10.4429-.7249,1.148-1.3868,2.3519-1.9302,3.5947-.8322,1.9034-.3848,3.6417,1.0324,5.1151,2.5263,2.6263,5.6895,3.5402,9.2035,3.0458,11.7051-1.6466,21.1077-7.3868,28.65-16.3537.3975-.4726.7499-.9831,1.1233-1.4759l.3793.1332c-.0301.4451.0866.9738-.1121,1.323-3.9467,6.937-8.275,13.5845-14.7187,18.5342-5.2092,4.0015-10.9375,6.8717-17.4978,7.9094-3.2985.5217-6.4794.3222-9.5026-1.2371-3.1702-1.6351-4.7431-4.4756-4.4933-8.0947.2711-3.9298,1.6713-7.4963,3.5844-10.8637,2.2114-3.8924,4.5489-7.7131,6.8335-11.5638.9841-1.6587.7227-2.3582-1.1914-2.8317-4.3949-1.0872-8.6186-.3945-12.6741,1.4434-1.6455.7457-3.1991,1.6942-5.0966,2.7125Z"/>
      <path class="path" d="M181.6273,163.4931c.6328.1704.9181.6976.8289,1.5099-.675,6.1477-2.5237,11.8011-6.8682,16.4114-.3598.3818-.7098.7752-1.0937,1.1317-1.1947,1.1093-2.5326,1.5698-4.2189,1.2791-4.126-.7112-6.6017-3.1998-8.0172-6.9911-1.6773-4.4926-1.7619-9.0784-.9581-13.7411.9515-5.5188,3.0849-10.6643,5.0782-15.84,1.9695-5.1136,4.0795-10.18,6.3336-15.1743,1.1731-2.5993,2.7795-5.0044,4.2221-7.4786.1468-.2517.5139-.375.7788-.5578.149.3643.4865.7725.4138,1.0853-.2908,1.2518-.6014,2.5193-1.0981,3.6996-2.6149,6.2142-5.4386,12.3451-7.8847,18.6238-1.4257,3.6594-2.4137,7.5087-3.351,11.3332-.855,3.489-.295,6.9305,1.584,10.004.8203,1.3418,1.941,2.6126,3.1978,3.5505,2.3705,1.7691,5.2437,1.0604,6.7706-1.4794,1.4551-2.4205,2.8416-4.8821,4.2818-7.3662Z"/>
      <path class="path" d="M297.0274,385.5378c1.0702.8578,1.3981,1.8145.878,3.134-1.7422,4.4203-3.4267,8.8636-5.1029,13.3096-2.1965,5.8263-4.2568,11.7038-5.4095,17.8388-.8908,4.7411-.0232,9.1269,3.2575,12.84.5025.5687,1.125,1.0585,1.7636,1.4751,2.6794,1.748,5.1668,1.1847,6.7532-1.5993,1.2957-2.2738,2.4617-4.6215,3.6861-6.936.1448-.2738.2954-.5446.6244-1.1498.2756.7357.614,1.208.6015,1.6708-.1766,6.5342-2.1756,12.4092-6.4087,17.466-1.7594,2.1017-3.8646,2.6333-6.4826,1.8063-3.8264-1.2086-6.0407-3.8988-7.2623-7.5413-1.8757-5.593-1.6535-11.2293-.1354-16.85,3.0613-11.334,7.0994-22.3077,12.2164-32.8804.3936-.8133.6686-1.6839,1.0206-2.5839Z"/>
      <path class="path" d="M188.3928,413.7574c.1907.448.5486.8966.5469,1.3438-.0227,6.1936-1.9584,11.7613-5.7693,16.6231-2.7395,3.495-5.9887,3.8799-9.6643,1.3904-3.219-2.1802-4.5586-5.4495-5.3708-9.0527-1.1962-5.3071-.5475-10.4939.9343-15.6418,3.1295-10.8719,7.0025-21.4602,11.9693-31.6371.3484-.714.5514-1.4989.8214-2.2494,1.4833,1.2362,1.5854,1.3203.907,3.1387-1.722,4.6157-3.6773,9.1491-5.2638,13.8092-1.8338,5.3864-3.5501,10.8269-4.9851,16.3306-1.1956,4.5856-.5773,9.0867,2.4054,12.9517.8636,1.1191,2.1244,2.0308,3.3757,2.7276,1.7569.9784,3.3579.6102,4.7805-.8064,1.9768-1.9684,3.1078-4.4561,4.1696-6.9779.2563-.6088.4928-1.2259.7384-1.8391.1349-.037.2698-.0739.4047-.1108Z"/>
      <path class="path" d="M424.5714,160.2407c.0103.6736.2122,1.4155.0001,2.0097-1.5022,4.2101-3.0548,8.403-4.6572,12.5762-2.4717,6.4376-4.7591,12.9332-6.0517,19.7246-.8939,4.697.1202,8.9804,3.2875,12.6317.6491.7484,1.5127,1.3623,2.3799,1.8595,1.9541,1.1205,3.6854.9447,5.2152-.7193,1.0478-1.1397,1.8768-2.5133,2.6377-3.875.7644-1.3679,1.2983-2.863,1.9914-4.2738.1552-.316.5519-.5134.8374-.7654.1345.3207.3827.64.3865.9623.07,5.9277-1.6906,11.2818-5.1163,16.1026-.0809.1138-.1843.2118-.2642.3262-3.9171,5.6053-8.8897,3.4855-11.9985.3196-2.2984-2.3407-3.1146-5.4088-3.6711-8.5468-.9672-5.454-.0389-10.7323,1.5346-15.933,3.1214-10.3165,6.8294-20.4125,11.534-30.1237.4037-.8334.9226-1.6109,1.388-2.4144.1889.0463.3778.0927.5667.139Z"/>
      <path class="path" d="M201.5992,222.4834c-.1656-.5471-.2028-1.1853-.5165-1.6272-3.4461-4.8538-7.5576-9.1-12.2087-12.7893-3.01-2.3875-6.1656-4.6004-9.3448-6.7609-1.1013-.7484-2.4356-1.2155-3.7248-1.611-1.7765-.5449-2.8188.0289-3.658,1.7096-.2698.5402-.6022,1.0491-.9059,1.5723-.089-.0273-.1781-.0545-.2671-.0818-.0429-.2508-.142-.5067-.1197-.7515.1804-1.9804.2638-3.9802.6132-5.9317.3585-2.0023,1.2318-2.5429,3.2556-2.1069,1.4838.3197,3.0697.6362,4.3396,1.4025,8.6397,5.2134,16.3557,11.5243,22.3548,19.7284,5.004,6.8431,7.821,14.5577,8.6867,22.9744.2914,2.8335.0789,5.6596-.6463,8.4301-.099.0232-.1981.0463-.2971.0695-.1473-.6939-.39-1.3829-.4261-2.0826-.1954-3.7852-.5757-7.5668-1.7774-11.1555-1.1604-3.4653-2.6846-6.8113-4.1249-10.1772-.1619-.3784-.817-.5457-1.2433-.8109l.011-.0002Z"/>
      <path class="path" d="M179.2133,283.8902c-1.6073-.7223-3.0414-1.354-4.4634-2.0118-.6112-.2827-.7512-.7332-.4625-1.3758.386-.8591.6769-1.7604,1.0497-2.6259.3539-.8217.2389-1.3234-.6801-1.707-1.3673-.5707-2.6671-1.3031-4.0263-1.982.5732-1.2601,1.0029-2.3304,1.5376-3.3453.5578-1.0589,1.1955-1.1879,2.2532-.6381.9281.4824,1.8729.9328,2.8143,1.3892.7246.3513.958.8663.6065,1.6244-.2937.6335-.5649,1.2778-.8344,1.9221-.5385,1.2874-.4314,1.6191.7671,2.2828.764.4231,1.5413.8223,2.3162,1.2253.8673.4511,1.1136,1.1193.694,2.0046-.4909,1.0355-1.0001,2.0622-1.5718,3.2375Z"/>
      <path class="path" d="M124.139,266.4409c.1503-1.523.2656-3.0507.4688-4.5666.077-.5743.2289-1.2247.5766-1.6543.4182-.5167.5747-1.5929,1.6618-1.1986,1.3294.4822,2.105,1.5519,1.9531,2.6501-.0282.2038-.108.4005-.223.8115-.5913-.216-1.1818-.3567-1.697-.636-.9841-.5337-1.283-.4575-1.452.6761-.2936,1.97-.494,3.9537-.7654,5.9273-.0786.5718-.2663,1.1286-.404,1.6923-.1068.0303-.2135.0607-.3203.091-.2568-.3703-.548-.7218-.7631-1.115-.418-.7642-.7774-1.5602-1.1904-2.3273-.4641-.8621-1.0265-1.3745-2.1871-1.3832-2.0563-.0155-3.2634-1.8812-2.4641-3.4941.4281-.8638,1.2586-1.1239,2.0688-.6148,1.6903,1.0623,3.1171,2.3554,3.811,4.3133.1257.3546.4438.641.673.9589.0844-.0435.1688-.087.2532-.1305Z"/>
      <path class="path" d="M122.7571,237.6103c-.8971,2.4006-.2709,4.9953-1.5552,7.4473-.585-1.1477-1.0043-2.1375-1.5791-3.0268-.2845-.4402-.811-.8884-1.3041-1.0016-2.3592-.5416-2.927-1.9247-1.458-4.052,1.7319.8725,3.1711,2.0314,3.9155,3.934.103.0035.2059.0071.3089.0106.1958-.7741.4487-1.5391.5747-2.3244.2117-1.3195.5442-2.5368,1.8896-3.2417.7673.557,1.6938.9721,1.6856,2.1726-.0059.8573-.2796,1.0852-1.0935.7686-.4511-.1755-.8718-.4289-1.3844-.6866Z"/>
      <path class="path" d="M147.4735,279.6378c.423-1.9557.8098-3.7447,1.2199-5.6406.7389.2211,1.2665.3677,1.7866.5375.7093.2316,1.3195,1.4708.984,2.1087-.0941.1788-.514.3259-.7321.2727-.5638-.1377-1.0984-.3951-1.8903-.6991-.1608,1.6481-.314,3.1915-.4605,4.7355-.0493.5193-.0528,1.0449-.1357,1.5582-.0326.2023-.2248.3788-.3442.567-.2088-.1459-.4865-.2478-.6131-.4462-.3372-.528-.5108-1.193-.9317-1.6267-.5527-.5695-1.2552-1.0095-1.9389-1.4314-.646-.3988-1.6146-.5425-1.9498-1.0961-.2879-.4755-.014-1.4267.2538-2.066.2829-.6754.9812-.5203,1.4208-.119.9738.8888,1.8753,1.8569,2.8052,2.7937.1424.1435.2793.2925.5261.5517Z"/>
      <path class="path" d="M198.7684,266.8296c-.6228-.2675-1.245-.5636-1.8886-.8022-.5063-.1877-.745-.4146-.5191-1.0007.3366-.8734.6002-1.7751.8911-2.6533,1.3144-.2808,1.517.6579,1.7877,1.6117.3499-.0789.7063-.1592,1.0428-.235.6955.8414.6457,1.6024.0794,2.4874-.296.4625-.2661,1.1335-.3834,1.7104.698-.0212,1.5374.1986,2.0659-.1115,1.2789-.7506,2.4127-1.7482,3.5574-2.6103-.0737,2.7766-3.5825,5.4301-6.28,4.6889-.5495-.151-.7689-.3568-.6547-.9377.1338-.6806.1966-1.3751.3016-2.1475Z"/>
      <path class="path" d="M136.9538,206.2881c1.1763-.163,1.0743.6308,1.1396,1.2018.1212,1.06.1712,2.1282.2616,3.337.8064-.2511,1.4186-.4417,2.1111-.6574-.1253-1.4002-.245-2.7387-.3648-4.0772.1121-.0714.2243-.1427.3364-.2141.2732.3339.6746.628.7934,1.01.2578.8286.3315,1.7129.5613,2.5523.1049.3833.401.7144.6104,1.0692.1423-.0379.2847-.0758.427-.1137-.1765-1.6617-.3529-3.3235-.5294-4.9852,1.7619,2.0318,2.0768,4.0271,1.3214,6.1826-2.0716.2743-4.0517.5364-6.1701.8169-.1662-2.0431-.3317-4.0789-.4979-6.122Z"/>
      <path class="path" d="M173.5452,252.4823c.0972-1.0938.2011-2.1871.2902-3.2815.2442-3.0007-.5819-5.5666-2.9186-7.6067-.5415-.4728-.8061-1.2626-1.1779-1.8734,1.0789-1.1528,1.108-1.156,2.1816-.3248,2.9422,2.2777,4.0379,6.242,2.852,10.4598-.2576.916-.6392,1.7972-.9636,2.6944-.0879-.0226-.1758-.0452-.2637-.0678Z"/>
      <path class="path" d="M155.9745,204.6643c0-1.6959.1824-3.4853-.0556-5.2171-.2037-1.4827-.6555-3.0426-1.4294-4.3032-.7227-1.1773-.9066-2.2637-.7658-3.5552.9413.0315,1.5318.4386,1.9743,1.2857,2.0551,3.934,2.1634,7.8736.2764,11.7898Z"/>
      <path class="path" d="M146.3708,252.2017c.8674,1.1267,1.61,1.9882,2.2322,2.9293.5872.8882.3057,1.754-.2148,2.6363-.5224.8855-1.1742,1.321-2.2036,1.2009-.7162-.0836-1.2452-.389-1.1826-1.1671.0713-.8869.2105-1.7778.4235-2.6414.2293-.9297.5785-1.8299.9452-2.9579ZM147.2728,257.0116c.0665-.1242.133-.2485.1995-.3727-.377-.2754-.754-.5507-1.1311-.826-.1004.3886-.2007.7772-.3338,1.2922.5998-.0443.9325-.0689,1.2653-.0935Z"/>
      <path class="path" d="M154.5217,294.8921c.2209-1.4922.8889-2.3636,2.0677-2.9999,1.9632-1.0597,3.8436-2.2732,5.7525-3.4181.759.9145.7345,1.4021-.2939,2.0241-2.4482,1.4808-4.9397,2.8902-7.5263,4.3939Z"/>
      <path class="path" d="M174.3574,210.5486c.4621,1.0443.255,1.6206-.4868,2.1702-1.9885,1.4734-3.9217,3.0213-5.9284,4.5796-.7822-.7669-.333-1.3676.1828-1.7914,2.0208-1.6605,4.0899-3.2624,6.2324-4.9585Z"/>
      <path class="path" d="M201.5882,222.4835c.0006.4301.1072.8942-.0178,1.2841-.3937,1.2284-.8203,2.4527-1.339,3.6325-.3897.8864-.3244,1.6718.2114,2.5999.4616-.1574.9508-.3242,1.45-.4944.0174.2995.0374.6757.0615,1.0517.0413.645.0982,1.2216-.8269,1.3664-.854.1337-1.5853.1386-1.8753-.7983-.1686-.5448-.2405-1.1657-.1717-1.7299.2869-2.3525.9859-4.5699,2.3796-6.5275.0763-.1072.0981-.2533.1422-.383-.0031-.0017-.014-.0016-.014-.0016Z"/>
      <path class="path" d="M161.0041,250.2456c-.0802.4166-.1045.8544-.2525,1.2454-.2962.7827-.6154,1.5635-1.0072,2.3016-.5229.9851-.5117,1.921.0984,2.9528.3146-.1748.6222-.3818.9585-.5186.1921-.0782.5071-.1342.6282-.0335.1398.1162.2388.4732.1606.6259-.2977.5813-.582,1.2304-1.0575,1.6357-.2609.2224-.9873.1681-1.3412-.0391-1.0187-.5961-1.3235-1.4743-.814-2.6441.7085-1.6269,1.3085-3.3008,1.9732-4.9472.0962-.2384.2938-.4359.4444-.6523.0697.0245.1394.0489.2091.0734Z"/>
      <path class="path" d="M122.515,233.6698c-2.8274-.3843-3.2336-.9253-2.6005-3.589.3021-1.2711.7608-2.5109,1.2297-3.7337.2165-.5644.6276-1.0542,1.0547-1.5328.1917,1.2304-.3436,2.2612-.8389,3.2923-.5467,1.138-.8701,2.2729-.1395,3.585.4114-.0909.861-.1903,1.2944-.2861v2.2643Z"/>
      <path class="path" d="M159.6929,213.2343c.3746-.3151.6845-.576,1.0039-.8446.5426,1.4777.4485,1.6651-1.233,2.5808-1.4287-.7404-1.7699-1.9334-1.2952-3.3462.5634-1.6764,1.2208-3.3218,1.862-4.971.103-.265.3345-.4799.6157-.6777-.1523,2.4222-2.6889,4.5155-.9534,7.2588Z"/>
      <path class="path" d="M138.8998,295.042c.1689-2.2467-.7211-3.7843-1.9059-5.2048-.1549-.1857-.4269-.4159-.3992-.5854.084-.5135.2886-1.0073.4463-1.5088.4022.1986.9341.2949,1.1851.6129,1.3622,1.7258,1.6991,3.6886,1.1149,5.8046-.0591.2142-.1996.406-.4412.8816Z"/>
    </g>
  </g>
</svg>