<?xml version="1.0" encoding="UTF-8"?>
<svg id="Muawiyah" xmlns="http://www.w3.org/2000/svg" viewBox="0 0 444.8989 452.8151">
  <defs>
    <style>
      

      @import url('../../CSS/SvgStyling.css');
      
    </style>
  </defs>
  
  <g class="content">

    <rect id="bg" class="bg" width="444.8989" height="452.8151"/>
    <path class="cls-1" d="M250.2326,235.841c.7611.9582,4.7258.3968,5.7856.3994,3.1619.0076,6.3239.0064,9.4858.0092,6.9557.0062,13.9132.0588,20.8688.0121,4.7211-.0317,8.9168.6494,13.6139.9148,4.9123.2776,10.2338.7096,14.9998,1.7237,2.2031.4688,4.4659.1583,6.6458.5086,2.5322.407,5.1333,1.0789,7.6501,1.6213,6.116,1.318,12.0581,3.1278,17.888,5.4288,9.9561,3.9295,19.0575,11.6455,21.657,22.521,5.04,21.0862-7.6301,44.7457-21.3016,59.7914-7.695,8.4686-17.3465,15.5956-27.5644,20.5886-9.43,4.608-18.6041,7.1565-28.7571,8.5363-2.3049.3132-5.511-.0904-7.7236.5511-1.8512.5367-2.918,2.2997-4.5048,3.539-4.3159,3.3707-8.5459,6.8836-12.907,10.2253-9.701,7.4335-19.6052,13.7876-30.4876,19.2694-17.1175,8.6226-39.7833,12.7793-54.3975-2.5061-7.6923-8.0457-10.2867-20.482-10.2238-31.3527.0661-11.4013,1.1001-22.3994,4.4226-33.3659.8065-2.662,1.7123-5.3134,2.7353-7.8974.4118-1.0401,2.4146-4.1895,1.8644-5.3591-2.2351-4.7515-10.4486,4.1342-11.7707,5.8923-6.8946,9.1678-14.1028,16.5674-26.1117,16.5476-10.6014-.0175-20.5016-3.0888-26.9927-12.3536-4.5826-6.5408-7.906-23.8244-17.0087-24.9937-10.6097-1.3629-21.9204,11.6485-27.5123,19.3948-6.532,9.0485-12.5961,20.1064-21.2453,27.2654-8.7357,7.2306-19.559,6.1029-25.8425-3.6689-6.1371-9.5442-7.8564-23.469-6.473-34.6023.6187-4.9797,2.2452-10.1703,3.8198-14.9204.7503-2.2633,2.9018-5.5047,2.9731-7.8551.0841-2.7736-2.4036-2.744-3.9897-4.8334-6.8078-8.9678-7.1093-20.9056-6.7251-31.6039.4223-11.7601,3.8755-24.4609,7.0568-35.8074,1.6389-5.8453,3.5644-11.5931,5.5739-17.3157,1.2922-3.68,3.413-14.6045,7.9885-15.6877,5.5731-1.3194.6901,10.4273-.0198,12.8591-1.9223,6.584-3.695,13.2072-5.3112,19.876-1.4267,5.8869-2.7245,11.8028-4.0153,17.7217-1.1453,5.2515-3.0032,11.6193-2.6699,17.0456.4101,6.6758,6.4468,25.0463,15.8484,16.4866,2.2633-2.0606,5.2466-11.7725,8.9926-10.1316,4.2553,1.864-.0018,12.6394-1.0462,15.6519-1.5397,4.4413-3.7108,8.6542-7.2833,11.7598-1.9888,1.729-3.7839,1.7281-5.8468,2.711-2.1664,1.0322-2.8395,4.2738-3.5806,6.6036-3.6045,11.3302-5.2002,23.228-.1332,34.3722,1.7139,3.7694,5.6515,9.283,10.2803,9.3533,5.8267.0885,11.0101-6.3228,14.6702-10.0744,8.2762-8.4829,14.801-18.4111,22.8834-27.0655,6.9595-7.4521,16.1364-16.6752,26.6815-18.1075,4.2787-.5812,8.5825-.3377,11.2604,3.537,3.4759,5.0293,4.5127,11.9418,6.9653,17.5133,4.5764,10.396,12.6962,15.2738,23.3458,17.5114,11.0567,2.3231,21.2659-6.7052,27.5257-14.8803,2.1005-2.7432,5.4442-7.1847,8.857-8.0721,1.6523-.4296,5.2209-.5459,6.6125.6975,1.8291,1.6343.6771,5.9636.2434,8.0049-1.0947,5.1533-1.3595,10.3199-2.7678,15.4111-1.5587,5.635-3.5496,11.2174-4.4827,17.0138-1.5832,9.8351-1.5077,20.7124,3.6239,29.6239,5.1742,8.9853,13.3325,14.9335,23.4895,16.1595,11.2559,1.3587,23.5675-5.0219,33.0685-10.3953,5.2152-2.9495,10.345-6.0635,15.3604-9.3519.5419-.3553,4.4234-2.1969,4.1148-3.2751-.3254-1.1366-7.0841-3.5553-8.1754-4.2388-19.0469-11.9311-25.6167-35.7894-24.5726-57.4227.4636-9.6061.5942-17.9915,3.0918-27.0722.377-1.3707,2.0888-5.3577,1.8371-6.6912-.3678-1.9493-2.8123-2.0174-4.4804-2.7835-4.4673-2.0517-8.2212-6.2293-11.0593-10.2196-6.5908-9.2663-9.7141-21.6577-11.7514-32.7573-1.733-9.4412-3.2013-19.2071-4.002-28.7064-1.8364-21.7862-4.8839-43.6208-8.6189-65.2136-2.1093-12.1941-4.7232-24.3544-8.1014-36.2547-1.7059-6.0091-4.6461-11.9446-5.9143-18.0341-1.1585-5.5623,1.066-11.9734,2.8-17.2206,2.3618-7.1473,5.1791-1.0619,6.759,2.9972,2.4943,6.4081,4.7633,12.9185,6.6813,19.5299,3.3037,11.3881,5.7668,23.4672,7.9659,35.1203,1.8045,9.5617,2.9155,19.1802,4.452,28.7359.6886,4.2827,1.6981,8.5484,2.3615,12.6965.6971,4.3594.2154,8.6775.9102,13.0076,1.4219,8.861,2.5061,17.8655,3.7037,26.7623,1.2616,9.3725,2.6361,19.0291,5.9766,28.0154,1.9462,5.2355,4.3447,10.7033,7.9929,14.9547,2.1513,2.507,7.243,7.5722,10.7821,7.368,3.3855-.1952,6.3873-9.7108,8.2145-12.6977,3.0879-5.048,6.4012-9.889,10.009-14.5563,2.8029-3.6261,5.5598-6.7714,8.9858-9.7534,1.0973-.9551,4.7587-3.6107,4.8007-5.125.0397-1.4315-5.1982-4.7477-6.1402-5.4979-4.3436-3.4589-8.8598-6.6227-14.1759-8.2962-2.3658-.7447-4.854-1.5731-7.3475-1.2073-2.4337.357-4.6778,1.6594-7.1887,1.7621-4.2493.1738-3.0159-3.6041-2.1587-7.1279,1.3663-5.6162,4.5403-10.4466,9.2516-13.6791,9.5019-6.5196,20.8455-6.3026,31.8601-6.2929,11.8167.0104,23.1948.7897,34.6861,2.8358,4.9949.8894,10.2597,2.7519,15.0993,4.4184,1.552.5344,4.9447,1.2332,5.844,2.909,1.0548,1.9653-1.0395,7.4592-1.6466,9.3551-.7313,2.2834-1.5459,5.6664-2.9105,7.5828-1.3639,1.9154-3.9835,2.4252-6.1495,3.2006-5.2932,1.8948-10.1813,4.2147-15.2191,6.7345-1.8207.9107-3.7777,1.0234-3.2564,2.8317.3752,1.3017,5.9473,4.0086,7.091,4.6575,5.5252,3.1345,11.6558,5.5045,17.6952,7.3779,9.32,2.891,19.1181,5.0282,28.8043,5.0256,10.8882-.0029,18.4232-8.1976,24.7733-16.3777,3.1369-4.0409,6.014-10.1075,10.7075-12.1168,4.7313-2.0255,7.5582-7.5969,12.434-10.2887,9.6323-5.3178,18.9948-.7337,23.6619,8.774,4.4429,9.051,7.6598,22.803,2.503,32.0406-2.1266,3.8095-5.2976,8.3074-8.895,10.8125-4.9975,3.4801-12.0256-1.271-16.6354-3.6736-5.3086-2.7668-10.3428-5.9108-15.2005-9.4326-1.2117-.8785-3.3981-3.5482-4.7741-3.7733-1.6901-.2764-3.7489,4.9093-5.0551,6.4127-3.6755,4.2309-9.4057,6.9292-14.0616,9.8987-4.3822,2.795-10.3339,8.3926-15.4303,9.331-3.2252.5938-7.2669-.6939-10.4026-1.2769-4.0975-.7618-7.6538-1.5255-11.6942-2.4113-11.0994-2.4333-21.4264-7.2981-30.8636-13.6918-2.4189-1.6388-4.8061-3.2408-7.0473-5.1295-1.3687-1.1534-4.1891-4.6167-6.0431-5.0131-3.4729-.7426-9.8687,5.7215-12.4557,7.8147-4.1578,3.3642-8.2261,6.7506-11.8883,10.6767-2.6702,2.8626-7.3516,7.3877-8.5767,11.2176ZM265.2339,256.8163v.007c-5.6274,0-11.2548-.0243-16.8822-.0515-3.0673-.0148-5.9829.3406-7.9014,2.9345-2.3495,3.1765-2.5314,9.67-3.2654,13.4308-.9621,4.9298-.892,10.0315-.9306,15.1401-.1579,20.8665,11.9541,38.1765,30.8462,45.6319,3.6294,1.4323,8.1129,2.6952,11.9509,3.1451,4.6586.5461,7.2081-.7701,10.3455-4.0309,2.3654-2.4585,8.0792-6.1997,6.5282-9.7367-1.41-3.2152-5.4623-4.086-8.408-4.9709-6.7505-2.0278-14.3516-.4815-21.2597-1.9533-6.7234-1.4324-14.4813-5.0737-16.2248-12.7095-.8454-3.7025-.6169-10.7876.4669-14.4549,1.1795-3.9909,3.42-7.5421,5.882-10.8098,5.1398-6.8216,13.135-12.0175,21.8763-9.9096,9.1788,2.2135,16.658,11.1114,20.9109,19.2366,3.9134,7.4767,5.035,15.6629,5.0213,23.8901-.008,4.8401.0951,9.5201-.7745,14.2796-.3581,1.96-.6865,3.9161-1.1082,5.8648-.4909,2.269-1.2747,3.0173.8158,3.2788,2.2421.2805,5.9263-1.7519,8.057-2.448,2.327-.7603,4.5232-1.612,6.741-2.6541,4.263-2.0031,8.5508-4.0229,12.5961-6.4573,7.7017-4.6347,15.0556-10.2927,20.8846-17.2564,4.9688-5.936,9.7642-15.2607,7.2383-23.1955-2.6493-8.3225-11.5874-13.292-19.0713-16.3024-7.6472-3.076-15.565-4.4399-23.4313-6.0897-16.2831-3.4152-33.8169-3.8087-50.9037-3.8087ZM283.4987,175.3084c-.4983.0356-5.8069.2277-5.7793.7671.0545,1.0695,7.2802,6.4589,8.4599,6.7165,2.7086.5915,5.533-1.9725,7.8664-3.3603,2.3604-1.4039,5.7327-2.9635,1.192-3.719-3.5287-.5871-8.1589-.441-11.739-.4043ZM277.9617,295.0345c.7989.229,1.5396.1644,2.222-.1938.6553-1.6699-6.2558-5.3581-7.4373-5.7396-2.3159-.7478-6.427.0195-8.0897,2.2238-1.9768,2.6207,1.3711,2.9348,3.5409,3.6057,3.6153,1.1177,6.119-.3119,9.7641.1039ZM414.722,201.2134c2.0717.1518-3.4845-5.8369-4.0998-6.3398-2.1309-1.7415-6.2348-4.3882-9.0879-3.1551-3.4657,1.4979.2466,3.1695,2.2676,4.4806,3.0952,2.0079,7.2055,4.756,10.9202,5.0144Z"/>
    <path class="cls-1" d="M155.7532,182.1908c-.7596-2.3263-5.6511-4.2857-7.7853-4.3572-2.8697-.0962-5.017,1.4064-3.1594-2.7296,2.8192-6.277,13.8381-5.2441,19.5086-4.6308,3.8012.4111,14.5672.6645,11.4799,6.5918-1.1274,2.1645-2.4755,2.604-4.6876,3.546-3.0608,1.3033-6.1222,1.9429-1.843,4.324,2.7305,1.5194,13.1377,2.4361,14.0624-2.2189.2906-1.4631-3.6064-6.0687-4.3516-7.4102-1.5637-2.8149-3.9384-6.4985-2.8583-9.7795.9324-2.8325,1.7544-3.0304,3.9444-1.1228.8636.7523,2.906,2.6776,3.1529,3.8548.1009.4811-.3583,1.8281-.3892,1.7109,1.4159,5.3719,5.2349,10.6807,2.5643,16.8528-2.4532,5.6698-9.2182,7.4485-14.8178,6.2963-3.0829-.6343-5.2658-2.4016-7.6563-4.3478-3.403-2.7706-4.5934-1.2782-8.327.5502-5.0752,2.4853-11.2938,5.255-17.0167,3.501-5.9634-1.8277-8.5597-8.3486-9.7658-14.0328-1.3748-6.4791-1.6366-13.2881-2.349-19.8677-.4486-4.1427-.983-3.5748-5.0172-2.9061-2.3008.3813-7.4577.3221-8.3276,2.4685-.6728,1.6601.3009,5.7732-.0266,7.7412-.2661,1.5992-.5909,3.2038-1.1612,4.7243-.109.2905-1.8306,3.2736-1.7287,3.5849.5479,1.6741,4.1875,1.6951,5.9806,2.6253,2.7181,1.41,4.2334,3.3062,3.8701,6.4156-.8903,7.619-8.376,12.2273-14.4771,15.2831-6.8249,3.4184-14.152,6.2415-21.7922,6.8295-6.3933.492-13.1084-.7593-17.067-6.3706-2.1491-3.0464-3.1528-6.8753-3.2061-10.5915-.0312-2.1757,2.4449-9.8983,1.3603-11.4082-1.3176-.1585-5.4097,3.7651-6.6479,4.5209-3.0289,1.8489-6.139,3.6335-9.3505,5.135-.95.4442-5.0327,2.8627-5.804,2.2224-1.7358-1.4411,3.95-3.8025,4.7405-4.2631,5.2261-3.045,11.015-6.2235,15.5166-10.317,2.2735-2.0673,1.2464-1.3284.4787-3.2544-.753-1.8891-.7123-1.7426-.2589-3.9274.299-1.4411.4645-4.6195,1.1209-5.8271,2.3298-4.2865,9.6846,4.7697,10.1568,7.7843.3776,2.4103-.1782,4.6736-2.6242,5.2168-3.2886.7303-3.6486-1.4598-4.6554,2.8278-3.3943,14.4555,6.905,23.3135,20.7505,21.1085,6.4663-1.0298,12.5188-3.5406,18.3266-6.5251,2.4595-1.2639,5.7768-2.5841,7.7452-4.6229,2.2215-2.3009.6823-2.9224-1.8606-3.9826-3.7356-1.5575-16.8356-1.8344-16.2793-6.7854.8116-7.2236,10.0389-3.1977,13.2233-7.0114,1.2205-1.4618.3429-3.715.1116-5.4676-.1394-1.0564-.0636-4.2309-.6815-5.0613-1.0549-1.4176-.7174-.8519-3.0038-.7627-6.8048.2655-14.2632.8519-20.5745-2.2912-2.2137-1.1025-3.3049-3.0491-5.1919-4.2994-1.349-.8938-.2307-1.1236-1.5777-.841-.3049.064-1.8577,2.9117-2.189,3.2772-4.546,5.0157-10.872,4.7182-15.2891-.192-1.5227-1.6927-3.3273-5.8559-6.0476-5.6484-2.214.1689-4.0202,3.0741-5.057,4.7194-2.9459,4.6749-4.0921,14.8013-9.3979,17.3569-5.8785,2.8315-9.7161-6.2548-10.3277-10.8596-.4922-3.7061.7096-7.2385.5331-10.8513-.1429-2.9254-1.897-5.4498-2.0589-8.4941-.341-6.4096,1.914-13.561,4.0263-19.5183.4291-1.2101,1.4533-5.8656,3.0631-5.9558.8457-.0474-1.6324,7.6375-1.8154,8.3253-1.2279,4.6159-4.1639,12.2906-1.8384,16.8826,1.188,2.346,2.6693,3.2142,4.7394,1.744,2.1251-1.5094,4.0831-5.0274,2.7643.6739-.5882,2.5429-1.7906,5.1249-4.4027,6.0274-1.0959.3786-2.1839-.1721-2.976.8047-.5442.6711-.3264,4.1065-.3172,4.9798.0393,3.7482,3.3983,14.9687,8.6108,9.9633,4.2969-4.1262,5.6054-11.0122,8.617-16.0166,1.4039-2.3329,3.3433-5.0902,5.9146-6.208,3.3102-1.439,4.2801.8068,6.1786,3.2948,3.5997,4.7175,8.6175,7.9038,13.7344,3.349,1.7708-1.5763,3.0703-5.2024,5.0402-6.32,2.8476-1.6155,1.6887,1.0375,2.3647,2.8284,2.0807,5.5124,10.9576,6.2784,15.7073,6.4431,1.7374.0603,7.5152.9845,8.8574-.1006,1.4163-1.1451-.9817-8.8224-1.2864-10.596-.6301-3.668-1.2864-7.3346-1.831-11.017-.2701-1.8262-.4569-3.6654-.731-5.4903-.2766-1.8417-1.4348-4.0546-1.5017-5.8357-.0642-1.7076,1.7048-6.7338,3.5896-5.7302,1.9662,1.0469,3.8985,7.9445,4.7,10.0248.7358,1.91,2.339,4.5572-.1379,4.8284-.6899.0756-1.043-1.5869-1.8606-1.2349-.6896.2969.602,4.9957.7083,5.5759.6922,3.7804,1.296,7.5742,1.9484,11.3614.5664,3.2879-.0455,7.4794,3.6261,7.543,2.0678.0358,8.7446-.3054,10.1279-1.7059,1.6038-1.6237.0654-6.0916-.3263-8.5295-.6845-4.2598-1.5314-8.4921-2.5277-12.688-.731-3.0786-2.634-6.7362-2.5143-9.8471.0833-2.1659,1.0769-6.3741,3.1953-3.9744,1.8547,2.1011,2.4661,7.572,3.1563,10.2793.9682,3.7974,1.7336,7.6379,2.345,11.5107.3424,2.1685.1799,10.5481,1.7765,11.8785,1.3363.4059,10.7198-2.0251,11.3728-3.1727.7983-1.403-2.9555-5.0364-3.858-6.7791-3.8247-7.3855-.3442-15.9056,6.9294-19.5462,3.5436-1.7737,7.4516-1.63,11.1259-.3378,1.3603.4784,9.0157,3.9083,8.4592,5.8953-.285,1.0176-7.036-1.5174-8.202-1.6166-4.1506-.3533-9.3796.5569-13.1029,2.548-6.2541,3.3445,2.2884,12.3982,6.3372,14.371,3.8416,1.8719,7.2121.3762,10.9831-.962,3.4752-1.2332,8.6369-4.2772,12.311-4.2182,3.3492.0538.6794,2.9525-.9108,4.8187-2.7482,3.2253-7.5733,4.1704-11.3903,5.6209-4.453,1.6922-8.9108,3.3745-13.4292,4.879-2.0975.6984-4.2067,1.3599-6.3142,2.026-2.1009.6641-6.4935,1.2471-8.2607,2.596-2.582,1.9708-.6066,7.902-.2193,11.109.6173,5.1125,1.0404,10.4076,3.5306,15.0088,1.8458,3.4106,4.6474,5.9247,8.5765,6.2831,3.0268.2761,11.5475-1.3145,13.3978-4.0844ZM161.3824,176.5926c-2.5111.1696.3624,2.2597,1.5663,2.181.5687-.0372,2.029-.7247,2.0903-1.4097.0499-.5572-3.6313-.7685-3.6565-.7713ZM66.1257,168.919c1.2829-.1674,1.2999-2.012.0829-2.1964-1.3578-.2057-1.6183,1.9302-.0829,2.1964ZM71.203,169.7586c-.0917-1.0703-2.4266-1.9789-2.1715-.8737.1311.5681,2.098,2.5962,2.1715.8737Z"/>
    <path class="cls-1" d="M306.0101,131.6994c-1.9511-.2825-6.6953,3.2892-8.4762,4.0678-3.6279,1.586-7.4452,2.956-11.3312,3.7266-6.9378,1.3758-14.7684,1.2953-20.5002-3.4522-5.0972-4.222-6.7968-11.1902-6.564-17.6473.1277-3.5427,1.5753-6.9811,1.7447-10.429.0797-1.6209-1.174-7.1397-2.7677-8.0816-1.1545.7348-1.5631,4.0512-2.2258,5.3037-.8408,1.5891-1.8299,3.0311-3.1894,4.2089-3.0032,2.6018-7.5819,3.7936-11.3581,2.4421-4.3643-1.5621-5.8276-5.9148-6.365-10.2715-.2178-1.7659.6634-14.5083,1.2112-14.601-2.7395.4636-4.1431,17.1476-4.8646,19.6865-1.8459,6.4958-7.69,8.7939-12.2243,2.8477-1.9666-2.579-2.8795-5.9359-3.3298-9.1232-.2478-1.7541.3601-4.5527-.2236-6.1379-.7585-2.0598-1.3439-1.1048-3.6575-1.0962-3.1571.0117-5.5255-.6205-4.4409-4.3571,1.0613-3.6564,4.8771-5.0569,7.5714-7.1141.8403-.6416,1.9095-.7077,2.0677-1.8295.1165-.8256-.9709-2.8194-.8569-4.117.2583-2.9408-.2855-7.2682,3.3065-6.6743,3.7662.6227,12.0622,8.1924,7.6277,12.3337-1.1975,1.1183-3.0775.3392-4.4812.3088-2.1944-.0476-3.1697.2546-5.0825,1.3935-1.286.7658-7.2908,3.9197-7.3434,5.146-.2026,4.7216,14.8416-3.9732,14.6168-4.3225.8467,1.3155-3.4911,5.4026-4.2275,6.0248-2.8918,2.4433-3.2302,2.9881-2.7663,7.1465.5276,4.7304,5.5319,15.5304,10.3841,7.564,3.4784-5.7109,3.4094-13.7772,5.2241-20.1047.4828-1.6834,1.5408-6.1597,3.6548-6.6502,3.2076-.7442,2.0489,5.1298,1.8061,7.0703-.7092,5.666-3.6337,15.9893,3.1661,19.3133,6.3011,3.0802,13.6726-3.5425,13.4447-9.9444-.1329-3.7335-1.517-7.6896-2.5531-11.2457-.7932-2.7227-2.8971-8.8799-.1102-11.3741,1.8451-1.6513,2.591,2.0786,3.4157,4.0842,1.6295,3.9632,2.4827,8.1491,3.4331,12.3149.8859,3.8831,1.7119,8.4176,4.2972,11.5607,1.973,2.3987,6.2936,4.6941,9.3356,2.9594,2.9158-1.6627.7467-4.6726-.4076-7.169-.5808-1.2561-4.1854-10.4684-5.6645-10.354-1.1146.0862-1.6561,6.1653-1.6611,7.254-.001.2134-.1031,2.3656.4296,2.7735,1.11.8501.7874-.6094,1.9047-.4663,1.2607.1614,3.018-.4362.924,2.4912-1.5807,2.2098-3.8711,1.7213-4.8571-.6697-1.9797-4.8009,2.372-9.6245,2.4514-14.148.0402-2.2945-2.0041-4.4768-2.2337-6.751-.0994-.9854.6779-6.035,2.2826-5.8814.8145.078,4.569,5.2613,4.9028,5.926.079.1574,1.0961,1.1045,1.0454,1.453-.1465,1.0061-1.1612.8388-1.2734,1.2894-.7796,3.1305,3.6027,8.8548,5.0231,12.4166,1.97,4.9402,2.7676,10.0804.429,15.0737-.8773,1.8734-1.94,3.591-3.879,4.4408-1.274.5583-2.743.6188-4.1017.4911-1.2885-.1211-3.5033-1.574-4.5356-1.3567-3.2875.6921-1.3243,10.0173-.2651,12.4812,2.2435,5.2185,7.0451,9.0168,12.5467,9.945,10.6082,1.7896,22.2868-3.8499,31.3847-8.7975,2.4331-1.3232,10.3492-4.9074,4.7544-7.0404-5.0457-1.9236-12.2703-.0725-16.4154-4.358-6.1136-6.3206,2.9766-20.8578,8.8706-24.2781,4.7513-2.7572,5.7133-.5334,8.3684,3.2909,1.1415,1.6441,2.4669,3.728,4.2157,2.6808,1.6632-.9959,2.9418-4.9898,4.0891-6.6668,6.3822-9.3287,16.6055-17.7714,27.029-8.6317,9.4616,8.2962.5138,20.5057-8.6562,23.8409-5.1939,1.8891-10.8872,2.8888-16.4067,2.5282-1.993-.1302-4.7853-1.5251-6.6958-1.2077-.8369.139-3.0929,3.406-3.4929,3.0297-.5123-.482.0751-2.0026.1009-2.5757.1264-2.8093.4578-1.058-.9924-3.2721-.9636-1.4712-2.6003-4.0871-3.9212-5.1489-1.8652-1.4993-2.8241-.9832-4.881.4464-1.4643,1.0177-5.5407,4.3534-5.7951,6.2498-.5275,3.9305,7.6688,4.3864,10.5772,4.8075,5.7052.8261,10.6688,1.7627,10.4829,8.761-.1647,6.2047-3.489,8.1373-7.4809,11.9055-3.4613,3.2674-5.4299,9.9049-4.526,14.6009,2.5425,13.2081,17.9323-2.9831,21.5903-6.9253,8.0456-8.6709,18.5654-22.5583,32.0483-19.6711,1.9619.4201,4.7033,1.1625,5.7921,3.0722.7568,1.3274.5736,7.7991-1.0638,8.6914-.7578.413-4.7196-3.0968-5.8024-3.4806-3.3414-1.1845-6.8839-.3643-9.9782,1.167-12.1083,5.9919-18.1121,19.7653-29.518,26.4851-4.3099,2.5392-9.8542,2.6579-13.3174-1.4367-4.3423-5.1342-2.6268-12.4529-.7892-18.2359ZM327.4524,96.7798c6.1584.3764,14.0766-1.6819,19.2808-5.0795,2.383-1.5557,2.046-2.2257.295-4.3828-1.5764-1.942-3.5557-3.5063-5.8247-4.5321-6.5685-2.9697-12.0404.8938-16.178,5.9939-.9669,1.1918-4.5962,5.0814-4.4133,6.6021.223,1.8535,5.1706,1.4289,6.8402,1.3983ZM218.9153,74.2645c-2.7491,0-.7428,2.9784.7863,2.8107,2.2184-.2433.8861-2.5809-.7863-2.8107ZM223.4509,75.8004c-1.8961.2073-.2755,2.3861,1.031,2.1053,1.5898-.3418.2556-2.1514-1.031-2.1053Z"/>
    <path class="cls-1" d="M78.2878,81.3898c.0049-6.7039,1.2927-11.1166,7.0915-14.2461,6.2081-3.3504,12.6026-6.3531,19.0352-9.2261,13.0279-5.8186,26.0587-11.6393,39.1907-17.2115,25.6765-10.8952,51.3083-22.1145,77.4714-31.7638,2.3575-.8695,11.5338-5.3151,13.4101-2.4141.9865,1.5253-.9762,5.0072-1.6487,6.2058-1.5335,2.7333-3.1889,3.5932-5.9678,4.6827-12.8347,5.0323-25.7069,9.888-38.428,15.2196-26.207,10.9837-52.6377,21.6799-78.3681,33.7871-6.9286,3.2602-14.0958,6.2403-20.699,10.1615-3.7077,2.2018-3.5292,2.7425.1234,5.1925,2.5464,1.708,5.4335,2.7091,8.0014,4.3374,2.815,1.7851,2.5771,3.9946.8737,6.9138-1.7445,2.9897-3.5129,3.0438-6.4361,1.9341-4.4522-1.6901-14.8593-7.5543-13.6496-13.5731Z"/>
    <path class="cls-1" d="M216.0291,430.231c0-2.6902.2223-6.196,1.7593-8.5654,1.9956-3.0765,6.7585-4.1292,9.8938-5.5033,8.0915-3.5464,16.2454-6.929,24.4211-10.2688,16.2523-6.6391,32.6065-13.1171,49.2237-18.7669,4.1521-1.4118,8.3307-2.7387,12.4974-4.105,2.2274-.7304,9.2601-4.3536,10.9842-2.8378,2.0623,1.8132-.9287,7.251-1.9113,8.8313-1.9581,3.1491-5.2205,3.7344-8.5044,4.9715-16.5019,6.2166-33.0882,12.252-49.495,18.722-9.2811,3.66-18.5065,7.3521-27.6194,11.4294-4.2601,1.9061-8.4951,3.8414-12.6367,6.0039-3.1089,1.6233-8.359,5.8848-8.6488.0914.0121-.0008.0241-.0015.0361-.0023Z"/>
    <path class="cls-1" d="M397.6995,317.7253c-.9972-.9704-3.0107-1.0486-4.256-1.5796-1.9725-.8412-3.9841-1.9998-5.5409-3.5058-3.6648-3.5453-4.6541-7.9345-3.3443-12.7878,1.856-6.8772,7.378-18.1026,16.0594-15.94,3.8972.9708,5.18,6.2697,5.9311,9.9164.7632,3.7056-1.4283,11.9622,1.2709,14.2449,2.6282,2.2226,8.8222-.2931,9.2579,4.4113.1169,1.2624-1.3085,4.7435-1.9815,5.8047-1.397,2.2029-2.1651,2.2009-4.9301,2.1096-3.3418-.1104-5.6101-2.1806-7.9406.4455-3.1248,3.5211-5.3865,8.5692-8.2657,12.4296-6.4189,8.6064-14.8872,15.7522-23.1347,22.4693-7.7906,6.345-16.0885,11.5203-24.8285,16.4082-1.3537.7571-8.7481,5.817-8.9143,1.6096-.1206-3.0531,8.4648-7.8488,10.575-9.4438,8.8892-6.7185,17.7679-13.4537,26.1733-20.7972,4.4579-3.8947,8.5638-8.1358,12.6835-12.3923,3.699-3.8219,9.2111-8.304,11.1856-13.4027ZM402.0821,306.5537c1.9557-5.0274-2.5374-13.1376-8.0992-9.2681-7.1255,4.9573,3.8471,8.9973,8.0992,9.2681Z"/>
    <path class="cls-1" d="M157.8833,447.1937c-4.4357,0-9.0694.6318-12.9064-2.0943-4.1015-2.9141-4.204-8.2796-2.9043-12.8704,1.3042-4.607,3.9578-9.6036,6.6236-13.5389.8092-1.1946,4.1983-3.9978,4.3376-5.2223.1916-1.6853-2.3245-2.5691-3.6207-4.148-6.2592-7.6238,1.6971-17.4612,8.3042-21.7005,2.5319-1.6246,8.7359-4.2069,11.025-1.0176,1.728,2.4076,1.1659,10.8767-1.82,12.1304-2.8386,1.1917-2.6061-1.9168-4.6694-2.6377-1.4853-.5189-4.6149.9979-5.5684,2.2524-2.7718,3.6472,4.6298,5.4388,7.2012,5.4463,4.1598.0121,7.1193-3.6222,10.6492-5.455,5.1611-2.6798,5.195,4.7736,3.0813,7.9017-2.2894,3.3881-8.3187,4.9575-11.6103,7.4329-4.2599,3.2036-8.5466,6.6025-12.2362,10.4919-2.6106,2.752-6.8558,6.6589-2.7381,9.82,3.5729,2.7428,9.0064,2.3582,13.1031,1.8902,5.3841-.6151,10.3144-1.9284,15.527-3.708,2.4708-.8435,13.7539-5.954,10.119.7839-5.8181,10.7847-21.0989,14.1678-31.8972,14.1678,0,.0251,0,.0502,0,.0753Z"/>
    <path class="cls-1" d="M118.3899,244.7404c2.0399-3.5098,3.9455-7.0791,5.8789-10.6491,1.8637-3.4412,3.5464-2.6101,6.6656-.9695,3.55,1.8673,6.9425,4.1563,10.3776,6.2291,2.4644,1.487,5.9311,2.4426,5.7215,5.4674-.2116,3.0544-3.8568,7.4591-5.3283,10.0677-1.1642,2.0639-2.5893,6.8101-5.1813,7.0332-2.7938.2405-8.9659-5.1023-11.4915-6.6106-1.5701-.9377-3.8499-2.9407-5.6404-3.296-2.1427-.4251-.8328-.8945-2.5557,1.3876-2.1351,2.8281-2.9868,7.5012-5.5337,9.9229-2.364,2.2478-3.8643.8068-6.5337-.7622-3.2237-1.8948-6.4124-3.8522-9.6448-5.7311-3.0666-1.7826-6.0902-2.5828-5.2398-6.3902.7921-3.5467,3.6419-7.1076,5.4161-10.2296,1.7879-3.1461,1.8653-6.2994,5.6329-5.3976,3.3419.7999,6.9278,3.8156,9.8847,5.5082,1.7964,1.0283,5.6227,4.4635,7.5719,4.4199Z"/>
    <path class="cls-1" d="M104.7846,349.8087c3.507.2552,6.9184,2.9118,9.8821,4.6888,1.4356.8608,6.935,5.4656,8.6053,5.2904,1.8502-.194,4.1341-5.813,5.0862-7.5389,1.6013-2.9025,2.1869-5.953,5.8002-5.0245,3.2562.8367,6.9295,3.868,9.7807,5.5735,2.0365,1.2181,8.1224,3.5843,8.7843,5.7857.6478,2.1545-2.964,6.9614-3.9522,8.7822-1.174,2.1634-3.4597,8.8693-5.7835,9.6772-2.1246.7387-7.8829-3.7223-9.8642-4.8899-1.5317-.9026-7.6794-6.1024-9.4214-5.5281-1.6797.5538-4.4378,7.7595-5.2975,9.26-2.0667,3.6072-2.6127,4.8651-6.4288,2.7189-3.4199-1.9233-6.7782-3.9633-10.1478-5.9753-1.9094-1.1402-6.7242-2.9551-7.0912-5.5199-.292-2.0406,8.2373-17.2668,10.0478-17.3Z"/>
    <path class="cls-1" d="M159.989,261.4986c-.4433-3.926.7148-9.687,2.8843-13.0314,2.7897-4.3005,4.6673-.6947,4.1521,2.7051-.4614,3.0447-1.5195,8.847,2.9967,9.5671,3.0381.4844,5.7886-3.1717,6.412-5.749.4881-2.0183.3513-9.8808,3.5576-9.9081,2.2661-.0192,2.7306,4.1313,3.1775,5.8475.4429,1.7008-.5707,3.1237,1.3975,4.3048,1.5497.93,2.8403.2696,3.9719-.8722,3.4323-3.463.4142-6.3048.8499-10.1962.5699-5.0908,3.8554-3.227,5.3226.1448,1.3725,3.1542,2.1963,7.9717,2.0977,11.4113-.1915,6.6767-2.3232,13.9382-10.0002,14.2901-2.2899.105-4.9753-1.7199-6.9109-1.175-1.0657.3-2.4175,2.717-3.7124,3.3169-1.403.65-3.6608,1.231-5.186,1.4672-8.1508,1.2625-11.0102-5.1313-11.0102-12.1229Z"/>
    <path class="cls-1" d="M366.7913,136.8747c.2059-2.6842.489-5.8228,3.4694-6.5158,3.269-.7602,7.1826,3.1017,9.1361,5.235,2.511,2.7421,4.5551,5.8967,6.3099,9.1802.9575,1.7915,3.5408,10.2275,5.1837,10.5822,1.6643.359.6801-34.1902,13-31.0902,2.3514.5917,5.6492,3.013,6.5127,5.4072.4072,1.1291.1297,7.9552-1.7141,8.3886-.9831.2311-3.7122-4.4023-5.2389-4.8711-3.2146-.987-4.7337,1.9995-5.6919,4.6247-2.5103,6.8776-2.3202,14.4844-3.6307,21.6145-.271,1.4742-.8357,8.3504-2.5443,8.4144-2.0529.0768-3.7216-6.1296-4.1938-7.4712-1.6404-4.6617-4.1411-13.6611-9.458-14.8924.1183.0274-1.6899.6646-1.8717.6609-1.3843-.0279-2.942-1.2764-4.1112-1.9777-2.8803-1.7277-5.4266-3.4811-5.1573-7.2895Z"/>
    <path class="cls-1" d="M285.9461,70.3925c.0717,2.6649-3.0799-1.1968-3.6329-1.0326-.8283.2458,1.1485,8.5438,1.3717,9.7986,1.3157,7.3982,2.6001,14.7958,3.4879,22.2621.7812,6.5695,1.5635,13.0987-.1212,19.6027-.6429,2.4819-1.5834,4.8522-2.6876,1.4909-1.1077-3.372-.4778-8.29-.9295-11.9091-1.7567-14.0769-4.4202-28.0077-6.5482-42.027-.3177-2.0929-1.7211-5.6759-1.6097-7.6953.0626-1.1335,2.0939-6.8957,3.0687-6.9668,2.0649-.1506,7.0528,14.2868,7.6007,16.4765Z"/>
    <path class="cls-1" d="M339.1098,42.6618c.3125,3.0309-11.6964,6.1262-13.9765,7.0689-5.9153,2.4454-11.8346,4.8821-17.7179,7.4063-2.6918,1.1549-5.3657,2.3475-8.0226,3.5835-2.0805.9679-6.9926,2.3383-8.5505,4.0392-2.2679,2.4761,1.1227,1.7246,2.2512,3.7896,1.1474,2.0996-.2124,2.7594-2.0659,2.4571-6.0752-.9908-4.1578-7.7769-.3324-9.9407,5.2718-2.9819,11.228-5.0878,16.7751-7.4844,5.7381-2.4791,11.5071-4.8977,17.3098-7.2161,1.6697-.6671,14.2981-6.1471,14.3298-3.7034Z"/>
    <path class="cls-1" d="M109.6675,111.1596c.5238-5.3358,7.4357-6.6988,11.6072-8.5238,6.0715-2.6562,12.166-5.2594,18.2605-7.8605,5.4844-2.3407,10.9952-4.6907,16.6545-6.5609.9464-.3128,4.1025-2.0801,4.6461-.6061.803,2.1774-3.5855,3.3132-4.6908,3.7637-12.1023,4.9324-24.2301,9.8226-36.1332,15.2413-1.3606.6194-6.6689,2.1239-7.3206,3.4355-1.0001,2.0128,1.4668,1.7772,2.6185,3.2198,3.0269,3.7915-5.6007,2.9883-5.6423-2.1092Z"/>
    <path class="cls-1" d="M81.1085,190.2507c-5.0826-.2278-4.8426-4.6028-2.619-8.1708,1.0464-1.6791,1.8166-2.0082,1.5987-3.8803-.2717-2.3352-1.9836-2.6306-.3782-5.2996.789-1.3115,3.2242-3.707,4.9863-3.1099,1.6535.5603,2.2102,3.2188.4045,3.9566-.691.2824-3.5704-1.7404-3.4419.5078.1075,1.8814,3.2163,1.1185,4.0184.9143,1.1266-.2867,2.6809-2.0138,3.3374.0031.5606,1.7222-2.8609,2.8831-4.005,3.6804-2.2612,1.5758-8.8679,6.6317-2.9267,7.7935,1.7302.3384,10.0524-2.6278,10.3513-1.3932.8266,3.4135-9.5109,5.0074-11.326,4.998Z"/>
    <path class="cls-1" d="M55.7393,135.5235c-5.9783-.5878-4.2601-5.539-2.038-9.3828,1.4916-2.5802.685-1.6945-.237-4.0989-.772-2.0132.1171-3.6213,1.6536-5.1269,4.1215-4.0387,7.3016,1.1468,3.5216,2.2746-.3164.0944-1.8116-1.892-2.2229-.0518-.2737,1.2248,1.6667,2.0192,2.7248,1.9348,1.4055-.1121,2.3443-2.2304,3.8197-1.5064,2.1234,1.042-1.2898,2.7882-2.1798,3.4283-1.9743,1.4199-9.0871,5.6668-5.7067,8.2878,2.1391,1.6586,11.0219-2.6219,11.7783-.9436,1.3246,2.939-9.6805,5.1727-11.1136,5.1848Z"/>
    <path class="cls-1" d="M257.0794,120.2603c.0457,1.4107-2.0915,4.9264-3.4024,5.1648-2.3422.4259-4.1317-3.8912-6.5251-2.4911-1.8134,1.0608-.7487,3.7553-3.4896,3.4171-1.6655-.2055-5.1752-2.6507-5.2646-4.3692-.0463-.8913,1.7964-4.5604,2.7013-4.8435,2.2551-.7055,4.1859,2.9831,6.2223,2.6738,1.8829-.2861,1.6433-3.3615,3.5227-3.8472,1.4026-.3625,6.2315,2.9423,6.2354,4.2954Z"/>
    <path class="cls-1" d="M312.9927,72.3136c.3486-4.7199,13.0507-7.5689,16.6884-8.9177,3.4545-1.2809,6.9186-2.5839,10.4346-3.6807,1.4104-.44,6.6785-2.7048,5.2801.7987-.7308,1.831-6.4528,2.9984-7.9043,3.543-3.4328,1.2881-6.8474,2.6181-10.2506,3.9852-2.9931,1.2023-5.986,2.4039-8.9845,3.592-1.4802.5865-4.7698,3.3404-5.2637.6795Z"/>
    <path class="cls-1" d="M234.1878,60.8705c.4174-5.1116,12.2518-7.5876,16.1713-9.099,1.9448-.7499,16.7153-6.5803,16.7746-4.2946.0883,3.4003-15.1038,7.2593-17.8113,8.3018-3.2338,1.2451-6.5508,2.3646-9.6861,3.8531-.6653.3159-5.5601,3.5947-5.4486,1.2386Z"/>
    <path class="cls-1" d="M184.122,148.4795c-.681,1.8324-1.6897,5.2612-3.641,5.3173-1.5261.0439-3.9385-3.3439-5.4936-2.7963-1.5914.5604-1.0571,3.4673-3.1068,3.7719-1.3109.1948-5.8043-2.6512-6.1057-4.0391-.2455-1.1309,1.5136-4.411,2.6297-4.9314,2.4575-1.1458,3.8837,2.726,5.8064,2.6061,2.4999-.1559,1.6851-3.8751,3.7929-4.4678.9174-.258,6.1818,3.4823,6.118,4.5393Z"/>
    <path class="cls-1" d="M321.2292,119.6839c-.2362-3.798,15.0596-7.9199,18.1184-9.029,3.5026-1.2701,7.04-2.608,10.6158-3.6552,1.554-.4551,4.7048-1.7606,3.3788,1.3969-.8363,1.9914-6.2085,2.9391-8.1424,3.6583-3.3627,1.2508-6.7389,2.4605-10.086,3.755-3.1835,1.2312-6.4149,2.4096-9.4982,3.8852-1.4542.696-4.3864,2.9542-4.3864-.0112Z"/>
    <path class="cls-1" d="M170.392,109.6348c.2447,3.8062-1.2183,4.3447,1.8493,6.8613,2.2409,1.8384,4.1402,3.4534,3.1922,6.6612-.756,2.5582-3.519,5.0548-6.2841,4.0262-2.9796-1.1084-2.5339-4.8093-1.9996-7.409.6306-3.0684,1.7229-5.8143,1.6133-9.0324-.162-4.7566-2.6057-5.3391-4.4036-9.1095-1.31-2.7472.0594-5.0949,2.4574-2.6729,2.2999,2.323,3.6768,7.5986,3.5751,10.6752ZM168.7552,121.9879c.0213,2.7782,3.8894,2.7491,4.3319.3623.3496-1.8858-4.1025-4.4423-4.3319-.3623Z"/>
    <path class="cls-1" d="M134.9108,168.6893c-.4194-2.798,15.4772-7.6814,17.8309-8.5688,1.7012-.6414,15.3151-6.3354,13.781-2.3598-.8003,2.074-6.8073,3.2606-8.5245,3.9018-3.4757,1.2979-6.9346,2.6418-10.3904,3.9933-2.868,1.1217-5.7559,2.1982-8.5582,3.4826-2.1966,1.0068-3.9111,2.774-4.1389-.4491Z"/>
    <path class="cls-1" d="M129.2354,115.2583c-.1914-3.5649,14.3464-7.5618,17.1471-8.6201,3.2325-1.2215,6.4917-2.5095,9.7914-3.5353,1.5547-.4833,6.058-2.2387,4.5967,1.1049-.6741,1.5424-6.1817,2.8719-7.6405,3.4149-3.2518,1.2102-6.5407,2.2929-9.7658,3.5818-3.2765,1.3095-6.5655,2.6319-9.7962,4.0538-1.8101.7966-3.7587,2.73-4.3327,0Z"/>
    <path class="cls-1" d="M95.9887,105.4263c.3913-4.708,11.3912-7.9782,15.2184-9.7036,1.8293-.8247,15.5365-7.8441,15.9124-5.0819.3705,2.7224-12.7984,7.1458-14.5613,7.9867-3.1776,1.5159-6.3505,3.0459-9.5059,4.609-1.0665.5283-6.8007,4.4007-7.0635,2.1898Z"/>
    <path class="cls-1" d="M370.2564,97.2356c.1289,1.9186-2.7055-.6018-2.9714-.5748-1.5218.1549-1.5009.5488-2.1208,2.119-1.002,2.5382-.0403,8.0406-1.7578,10.1152-1.8978,2.2923-3.0009-3.6441-3.9772-4.9484-1.6925-2.261-6.5605-2.7522-6.799-5.8847-.6886-9.0423,10.6251,5.1043,9.6834,5.2305.7849-.1052,1.6651-7.9589,2.539-9.109,2.7241-3.5848,5.0143-.1152,5.4038,3.0521Z"/>
    <path class="cls-1" d="M280.9747,49.3396c-1.9293.0338-4.2131-1.8146-5.9836-1.172-.8456.3069-2.4534,3.4963-3.2203,1.4732-.4249-1.1208,2.3409-4.2146,3.1199-4.6848,2.0419-1.2328,3.9126.6113,5.6388-.1747,1.8943-.8626,6.6008-10.8251,10.0013-5.4849,3.115,4.892-5.8443,10.3462-9.556,10.0431ZM287.2595,41.063c-1.2624.1141-5.4365,3.1136-3.8796,4.3814,2.1802,1.7752,6.9264-4.4271,3.8796-4.3814Z"/>
    <path class="cls-1" d="M259.2514,63.4124c-.1215,2.4225-.6354,3.5135-2.854,4.3887-1.3056.5151-4.9435,1.1622-6.3628,1.0362-2.5499-.2264-2.8433-1.5297-2.773-4.0285.0004-.0149-.0425-2.7755.7226-3.0826,1.5342-.6159,1.0465,1.973,1.5101,2.3704,1.6549,1.4187,2.288.3092,3.0708-1.2287.3209-.6305-.1248-1.88.6243-2.3782,2.0456-1.3605,1.0958,1.6193,1.7839,2.1595,2.8447,2.2333,1.3384-2.9192,2.3084-3.515,2.2724-1.3958,1.9859,3.2159,1.9697,4.2783Z"/>
    <path class="cls-1" d="M98.2376,138.8745c-.0246,2.3115-2.5169,9.9507-2.575,3.9848-.0471-4.8276-1.3716-7.1614-4.1583-11.0058-1.1047-1.524-1.7217-1.887-1.1346-3.799.6108-1.989,1.3874-2.4016,3.0438-1.5731,3.472,1.7368,4.7843,9.0226,4.8241,12.3931Z"/>
    <path class="cls-1" d="M75.0293,103.8189c1.2486,2.4118,4.6564,3.3912,5.2921,6.1489.5264,2.2835-1.1079,5.0867-3.1311,5.9132-8.2238,3.3599-4.9592-9.0413-2.161-12.0622ZM75.32,112.6402c3.6138-.3819,2.3787-4.3054-.1595-3.8334-1.7264.321-2.0271,3.8073.1595,3.8334Z"/>
    <path class="cls-1" d="M304.3341,73.4189c1.4475.6279,5.5775,2.6203,6.0931,4.1394.4356,1.2836-2.181,5.5411-3.4438,5.7683-1.2272.2208-5.7385-2.4333-6.0991-4.0456-.2676-1.1965,2.2782-5.9598,3.4499-5.8621Z"/>
    <path class="cls-1" d="M83.654,126.1992c-.5369,1.4896-1.9871,4.9696-3.3668,5.3668-1.8858.5428-6.0577-2.9696-6.0259-4.5863.1195-6.0773,7.5443-5.1283,9.3927-.7805Z"/>
    <path class="cls-1" d="M316.8227,135.039c-2.9131,0-3.6139-1.6139-.8639-3.3849,1.558-1.0033,6.3273-1.1089,7.4987.757,2.3919,3.8101-7.3302,7.7356-8.0388,5.6996-.3727-1.0716,3.8278-1.8414,3.2527-2.7886-.4827-.464-1.099-.5342-1.8487-.2108,0-.0241,0-.0482,0-.0723Z"/>
    <path class="cls-1" d="M117.3266,172.0718c.028-1.779,1.0095-11.7885,3.3899-12.1173.8317-.1149-1.7838,9.2868-1.6873,10.6419.3623,5.084,4.6233-.5139,3.667,3.7349-1.2598,5.597-5.3959,1.4386-5.3696-2.2595Z"/>
    <path class="cls-1" d="M293.7783,88.7463c.0413-1.2758,1.9103-12.372,3.4834-11.8143,2.2687.8047-5.392,12.5978-.1018,13.3271.8506.1173,1.6184-1.6733,2.4647-.5626.5843.7669-1.0018,2.8385-1.6231,3.2631-3.0381,2.0759-4.1066-1.5156-4.2232-4.2133Z"/>
    <path class="cls-1" d="M242.185,94.2963c-.0028-1.565,1.6815-12.5345,3.6404-12.0422.45.1131-1.7008,7.624-1.7907,8.3983-.1136.978-.6497,3.5227.0976,4.3354,1.5377,1.6723,1.1735-.3377,2.8464-.3461,1.8579-.0093,1.2158,1.6922.0989,3.0255-2.8303,3.3787-4.8926-.3373-4.8926-3.371Z"/>
    <path class="cls-1" d="M274.1761,121.7579c.1808-1.1719,3.0902-11.8156,3.6896-11.1082,1.0675,1.2597-1.5627,6.5098-1.7469,8.168-.0744.6699-.3764,4.1739.3466,4.6494,1.3025.8566.4119-.7841,1.7716-.3377.9754.3202,1.4736-1.4778,1.9853.5484.2786,1.1034-1.6016,3.0627-2.4904,3.242-2.8755.58-3.5004-3.1427-3.5557-5.1619Z"/>
    <path class="cls-1" d="M92.3963,106.0453c-.5893,2.2995-3.9718,9.7814-1.7695,11.9758,1.3081,1.3033,6.0526-2.3992,3.0847,2.0527-2.9798,4.4698-5.2627-.7393-5.0982-4.0379.056-1.1233,2.1972-11.3125,3.5197-10.7336.2304.2057.3181.4533.2632.743Z"/>
    <path class="cls-1" d="M112.8762,136.7647c-.0672-1.328,2.0551-12.5086,3.3901-11.9652,1.0781.4388-1.3214,6.6789-1.4488,7.495-.1693,1.0849-.8663,4.2696.0977,5.2618,1.4621,1.505.2685.0613,1.9121.1141.9966.032,1.2662-1.2707,2.0939.0163.4561.7092-1.5503,3.1394-2.1009,3.3935-3.0348,1.401-3.8251-1.6933-3.9441-4.3156Z"/>
  </g>
</svg>