<?xml version="1.0" encoding="UTF-8"?>
<svg id="saeed" xmlns="http://www.w3.org/2000/svg" width="483.4375" height="500" viewBox="0 0 483.4375 500">
  <defs>
    <style>
      

      @import url('../../CSS/SvgStyling.css');

      
    </style>
  </defs>
  
  <g class="content evenOdd">

    <rect id="bg" class="bg" width="483.4375" height="500"/>
    <path class="cls-1" d="M277.6449,139.8416c.3895-.2077,17.2041.3629,18.7608.5193.3633.0517,5.3198.5972,5.2418,1.193-.2073,1.2972-3.9701,3.218-4.9044,3.8673-9.0563,6.409-10.3535,1.4266-19.0983-5.5796ZM248.2714,217.1686c.0517-.0517.0517-.0776-.0262,0h.0262c-.078.1552-.4413.6224-.571.8567-.3374.6224-.6486,1.2714-.9861,1.9462-.8305,1.7637-1.5567,3.6064-2.2316,5.4492-2.1281,5.7086-3.633,11.5987-4.3596,17.6454-2.2316,19.2266.8042,39.9077,17.8524,51.455,6.8247,4.6191,15.4915,6.6954,23.5355,7.6548,26.4936,3.14,49.3029-7.2387,69.361-24.0792,7.4471-6.2545,15.2579-13.4684,18.164-23.0691,3.6851-12.1183-4.4372-26.1303-16.5552-29.8665-13.6229-4.2302-27.7391-2.8805-41.6473-3.3477-10.5871-.3629-21.5634-.3895-31.9949-2.0242-9.9899-1.5829-20.4994-1.9466-30.5672-2.6207ZM458.9481,138.8555l-8.2258,17.9311s7.4996,4.6708,5.9167,5.7341c-1.5829,1.064-11.8847,1.8675-15.4139.6749-3.0875-1.013-5.06-4.6194-5.8904-7.7594-1.0116-3.8655,2.8805-17.0992-.2329-15.5159-3.1141,1.6084-10.8987,20.6025-18.45,25.066-7.551,4.4886-21.148,3.2176-26.8048,1.8158-4.0481-1.0116-6.046-6.409-7.1359-10.2748-1.0895-3.8407,2.5949-11.9627.5969-12.8711-2.0238-.8815-12.6631,7.4985-12.6631,7.4985,0,0-12.9484,14.6096-20.0843,18.294-6.8244,3.5029-22.7564,3.7113-22.7564,3.7113l-25.4821-8.9269,22.8872-13.3897s12.4809-14.0121,7.5765-18.5017c-5.9422-5.396-28.0759-13.3627-43.1782-13.8554-15.3876-.5458-39.6756,5.1383-49.199,10.742-6.98,4.1002-8.0178,22.8876-8.0178,22.8876l17.4632-7.1625,22.5753,17.1783-28.0503,33.889c-13.8306-4.9824-28.5434-14.7904-35.0565-21.0696-4.1002-3.9449.3892-20.0333-4.0481-16.5559-3.3994,2.6462-22.1603,28.6217-31.1644,33.6037-6.7726,3.7361-17.8007,1.1158-22.9127-3.8145-5.0859-4.9051-7.1356-15.7772-7.7066-25.6635-1.5829-26.338-22.0305-94.2717-37.0286-107.298l-6.2275,20.6043s10.9242,18.7863,17.9825,39.6235c5.6565,16.7366,8.0695,35.2632,5.8901,42.918-6.0719,21.3826-39.6756,39.5983-55.1671,48.1354-11.028,6.124-30.8525,6.6681-37.7031,3.1917-6.8506-3.4771-3.6589-15.9328-3.4512-24.0289.2332-8.5633,5.6047-26.1817,4.7747-27.2465-.8046-1.0374-8.1223,13.4163-9.6528,20.9414-1.9725,9.5234-4.4897,27.1164-2.0504,36.0943,2.1539,7.8884,8.8227,16.0363,16.7891,17.9049,8.4332,1.9455,23.6911-.7791,33.811-6.1233,13.8047-7.3185,38.793-28.0252,48.9392-37.7556,5.7603-5.5023,11.9882-20.6294,11.9882-20.6294,0,0,4.2813,31.761,11.3396,39.0532,7.0842,7.2649,21.8228,8.7699,31.1382,4.6956,9.3157-4.0736,24.7034-29.1406,24.7034-29.1406,9.0301,17.9828,21.6928,26.65,36.2503,31.2428,0,0-8.5115,50.106-3.14,68.141,5.06,17.0489,20.7329,33.8624,35.2901,40.0651,14.5572,6.1758,36.6395,2.6983,52.0789-2.9585,15.4394-5.6561,30.7749-17.9304,40.584-31.061,9.8339-13.104,17.8265-34.4331,18.3454-47.5633.4409-11.6242-5.9422-24.7285-15.3097-31.3204-9.3934-6.5901-40.9987-8.2255-40.9987-8.2255l-65.157-2.5169,25.6891-25.4293c12.1179,9.2367,27.8685,17.5146,39.805,19.8504,10.5612,2.076,24.0803-1.1158,31.7613-5.8387,7.6807-4.7218,17.8265-21.5889,17.8265-21.5889,0,0,7.9923,18.9944,14.1163,22.6784,6.1236,3.6851,16.088,2.1022,22.6012-.5965,6.5391-2.6987,16.5552-15.6209,16.5552-15.6209,0,0,8.3814,11.0801,15.9845,11.9878,5.8901.7007,15.4653-4.2037,19.4353-10.2234,3.9959-6.0198,5.6569-15.9586,4.4372-25.9234-.493-3.9176-6.7726-9.7042-6.7726-9.7042Z"/>
    <path class="cls-1" d="M465.9802,200.4057l-5.4492,4.6704s2.8543,4.775,2.3092,5.7603c-.5448,1.013-4.2292,1.4536-5.5268.2864-1.2976-1.1945-.8046-7.8367-2.2574-7.3695-3.4512,1.1151-6.0719,9.5745-9.6532,10.9759-3.5809,1.4018-7.8104-2.9064-11.8585-2.6204-4.1778.2846-9.5752,1.4273-13.1816,4.3334-5.9943,4.8271-16.3737,18.6045-22.7834,24.5733-4.7484,4.4369-13.1816,9.1598-15.7506,11.3655-1.2455,1.0637,7.2915-1.6092,10.5354-3.347,4.1519-2.284,9.7308-6.6174,14.4012-10.2242,5.8125-4.4635,20.3955-16.6073,20.3955-16.6073,0,0,10.2242,4.8271,14.4275,4.4369,4.1778-.4154,10.691-6.7978,10.691-6.7978l8.4332,1.8165s5.3974-.8315,6.0464-2.9589c3.1137-10.3011-.7787-18.2937-.7787-18.2937Z"/>
    <path class="cls-1" d="M256.4969,398.5235s-11.0798-12.948-18.7608-13.4932c-8.0181-.5706-20.8889,4.2292-29.4518,10.0944-10.457,7.1873-22.4715,22.6526-33.2921,33.0313-10.4053,9.9388-22.0302,24.445-31.7351,29.2186-7.9402,3.919-20.1619,3.6855-26.5195-.5448-6.3317-4.2288-10.6906-15.724-11.5473-24.8065-.8822-9.6794,2.7767-23.3803,6.1758-33.2138,3.218-9.2633,12.8449-25.2481,14.246-25.7678,1.4011-.4927-4.1778,15.1285-5.8646,22.7571-2.0756,9.471-7.888,26.0534-6.5908,34.0187,1.064,6.5653,7.4213,14.8429,14.4012,13.8043,12.897-1.9725,22.0047-15.1275,32.2288-23.6907,13.5449-11.391,35.4975-35.1342,49.1724-44.5541,9.6011-6.6429,24.4953-12.3249,32.8767-12.0137,7.4471.2591,15.0764,7.966,17.5153,13.8306,2.4393,5.838-2.8543,21.3295-2.8543,21.3295Z"/>
    <path class="cls-1" d="M190.4836,299.8933l-6.5649,17.3331s8.9779,11.8588,8.6146,16.4254c-.3629,4.5677-5.8387,11.0801-10.8203,10.9766-5.0082-.1035-16.6069-4.5677-19.1759-11.5739-6.2537-17.0482-11.7546-69.1004-18.3979-90.6124-4.3596-14.0376-21.5113-38.4556-21.5113-38.4556l-5.6569,22.9648s11.8326,21.3812,18.3458,43.775c3.6326,12.455,4.7226,28.9843,3.8145,36.0685-2.3095,18.2423-23.9505,31.7355-36.9252,40.9471-11.8064,8.3555-31.4753,12.6633-40.9466,14.298-5.3974.9339-13.0522.2332-15.8289-4.5152-2.8543-4.904-1.8941-16.6324-1.3235-24.9359.5706-8.3304,4.7747-24.9377,4.7747-24.9377,0,0-13.1561,27.4538-14.1163,39.6239-.9081,11.4689-.1297,28.2318,8.3297,33.4736,8.459,5.2156,29.27,3.1917,42.4519-2.0494,15.3614-6.0985,39.4162-24.5733,49.7697-34.6167,6.7726-6.5904,12.2477-25.5845,12.2477-25.5845,0,0,2.4651,34.46,17.2038,43.6191,8.3297,5.1642,23.1463,3.6079,29.2962-2.3092,6.1499-5.9163,8.1737-23.1722,7.6027-33.1624-.7262-13.4931-11.1836-26.7524-11.1836-26.7524Z"/>
    <path class="cls-1" d="M355.2576,60.9579s-1.7906-4.1515-2.076-5.0345c-.8305-2.7249-1.7906-5.4743-2.2574-8.2776-.078-.4672-.6231-2.5162.2336-2.6459,1.2193-.1815,2.7504,2.4644,3.1917,3.2683,2.2833,4.0488,2.0494,8.3304.9081,12.6897ZM352.5585,64.9801c.8046-.8297-2.1277-8.2779-2.3871-9.2115-.8301-3.1403-7.3691-21.2263-6.1758-23.2243,1.142-1.8686,9.5752,5.5789,10.5354,6.5387,6.4352,6.617,7.8363,16.3216,5.2156,24.9373-2.7504,9.0297-8.8482,14.8159-18.0342,16.6073-4.2037.8039-8.5112,1.5563-8.4332,1.3486.9339-2.1802,3.9963-3.4512,4.6704-3.7624,5.5789-2.4393,11.2102-6.0198,14.6089-13.2337Z"/>
    <path class="cls-1" d="M264.0799,38.4476s-1.7188-4.1821-1.989-5.069c-.783-2.7386-1.6958-5.5052-2.1148-8.3153-.0694-.4686-.5789-2.5277.2792-2.6426,1.2225-.1603,2.7077,2.5126,3.1353,3.324,2.2132,4.0872,1.906,8.3635.6892,12.7029ZM261.3122,42.4227c.819-.8157-1.9847-8.3139-2.2283-9.2518-.7758-3.1533-7.0026-21.3499-5.7747-23.3274,1.1736-1.8478,9.4782,5.7431,10.4211,6.7194,6.3202,6.727,7.5542,16.4545,4.7851,25.0239-2.9057,8.9808-9.1023,14.6621-18.3178,16.2936-4.2169.7316-8.5367,1.4108-8.4551,1.2038.9713-2.1633,4.0549-3.3818,4.7351-3.6812,5.6198-2.3429,11.3116-5.8261,14.8346-12.9804Z"/>
    <path class="cls-1" d="M322.2766,59.8421c-.2332-.0262.3116-3.062.3378-3.1917.3888-2.206,1.0892-5.2152,3.4508-6.0985,2.3613-.8818,2.7763,1.9728,2.1018,3.5554-1.0119,2.3879-3.5288,4.697-5.8904,5.7348ZM336.367,40.0941c-.0521-1.5818-2.2316,4.9306-3.0103,3.8673-1.2196-1.5833-1.2196-10.6389-1.3497-13.0522-.0514-1.064-.5703-3.5292.2339-4.4379,1.0637-1.193,5.4492,4.8009,5.8904,5.4492,3.8925,5.5282,5.2677,11.5739,2.6466,18.0091-2.2316,5.475-6.5128,11.1067-11.4955,14.3754-2.0235,1.3238-5.7086,1.5315-7.317,3.1141-1.9462,1.8938-1.4015,4.9568-4.1002,6.2537-1.1413.5444-1.2193-5.7866-1.2193-5.7866,0,0-6.9282,2.4393-6.7209,3.8141.1297,1.0126,5.5013-.6224,5.9684,1.4273.6486,2.6994-2.0501,6.6684-3.3215,8.771-4.0484,6.7468-14.246,20.0832-23.0425,11.8851-3.8407-3.6079-4.2037-10.1203-4.1519-15.0251.1039-9.4458,1.0382-19.1496-.2336-28.5441-.9339-6.9279-6.0202-11.6767-7.9143-18.164-.4413-1.5567-.8826-6.2016,1.998-5.8117,3.8925.5189,6.0981,7.8873,7.188,10.8714,5.3712,14.9474,4.2033,21.8239,3.7106,37.6259-.1039,3.2435-.3633,13.104,3.6326,14.6096,3.5288,1.3231,9.4713-3.6851,11.6508-5.9936.5972-.6238,2.0501-4.3341,2.0501-4.3341l-8.537,2.647c-3.8145-2.647,5.631-13.2599,10.9763-18.1902,1.6605-1.5305,1.3752-4.7491,2.9323-6.3572,2.0238-2.076,2.2057,5.6051,3.062,5.1117,2.2053-1.2462,2.2833-5.5271,2.8022-7.6031,1.0382-4.3068,3.8407-9.0556,8.4077-10.25,2.4648-.6483,5.4492-.1297,5.9418,2.8026.3637,2.3354-.6486,6.046-.6486,6.046,1.4791,1.2714,7.188-8.1468,3.9704-13.1306Z"/>
    <path class="cls-1" d="M270.1715,50.1889c-.8039.9605-1.8161,3.5284-1.2451,5.4233.6227,2.0756,2.8543,3.5033,2.6728,4.775-.7011,5.0855-6.7989,7.8101-7.4478,13.311-.9077,7.6297,10.8473,5.7086,6.8251,13.3383-1.0903,2.0497-2.7767,3.8407-4.9565,4.6956-8.0181,3.1145-9.4192-9.5224-8.1741-14.6344.571-2.3085,5.5275-8.9783,4.0484-11.2612-.1297-.1822-.3633-.1822-.571-.1297-6.824,2.4127-14.8946,31.605,4.2816,32.9023,8.3293.5721,15.7765-14.2194,11.5732-21.2001-1.4273-2.3354-7.7587-3.7361-7.7587-6.331,0-2.2057,7.8104-8.0957,7.3691-14.1935-.1815-2.5176-5.9418-7.4737-6.617-6.6954Z"/>
    <path class="cls-1" d="M202.1344,74.4765c-2.9323-.9595-5.1117,1.1945-7.6548,2.4914-8.5888,4.3334-13.0522,15.0768-5.4492,22.6019,4.8523,4.8257,12.611,1.5822,15.1541-3.9967,3.0361-6.6684,1.6347-14.9988-2.0501-21.0966ZM229.2508,33.3743c-1.8941-1.5301-2.5169-15.388-2.3354-17.7482.1039-1.2462.1818-5.0603,2.4134-4.3862,7.3954,2.2057,9.9902,20.1371,6.046,26.5457-1.7903,2.9064-4.1781,4.7491-6.6433,6.9796-.1035.078-.2332.2347-.2332.3644.0259.2842.8042.1297.9602.1028,1.2714-.2077,8.2517-2.3606,8.4849-.7783.8046,5.2943-6.4352,17.7234-10.1196,21.0186-1.4273,1.2721-3.4253,2.0246-5.3457,1.6616-.2077-.0532-.5965-.2594-.7262,0-1.8686,3.6061-.078,8.1205-4.7229,12.5064-2.1277,2.0242-4.6449,2.4389-7.3433,1.5053-.1039-.0259-.3116-.1294-.4154-.0259-.0259.0517,1.0378,6.4086,1.0895,7.0058.4413,4.9037-.285,10.0937-2.6466,14.4537-3.1655,5.9163-9.7304,9.6521-16.1915,6.5908-11.4952-5.4754-16.0625-21.8746-5.9163-30.8015,3.9438-3.4505,14.5827-7.8618,14.5827-7.8618,0,0-3.6585-7.9405-.6224-9.9388,1.4791-.9857,4.3851,8.4073,4.9558,8.7444,1.1941.6756,3.2956-3.84,5.3198-2.7246,3.2435,1.8431-4.6708,7.9664,1.427,7.1101.7266-.1035,1.4273-.4406,2.0501-.8035,7.0321-4.2565.9081-12.9746-1.1675-18.0608-.4934-1.2462-2.7246-6.3576-.3374-7.0066,5.8642-1.5567,5.475,14.3502,10.9763,12.1963,2.2574-.8818,8.1737-4.8785,8.1737-7.8367,0-.2853-2.0238.5455-2.2057.6224-1.3235.5458-2.9064,1.1165-4.3334.9613-1.9204-.2339-1.7127-3.997-1.4791-5.3194,1.3235-7.9409,12.4816-11.0543,11.0022-20.1098-.2073-1.2207-1.7127-6.4877-3.2176-6.7216-.571-.1035-.3371,2.5693-.3371,2.8026.1297,3.0875-.571,5.8901-1.142,8.9521Z"/>
    <path class="cls-1" d="M110.7623,272.3342c-2.0397,4.4883-3.4203,9.0825-6.9491,12.7407-1.2013,1.2451-2.6053,2.4134-4.1386,3.2435-.2519.1297-3.4954.9081-2.9819,1.2969,5.2652,4.1268,12.17-7.6279,13.6466-10.95.3317-.7266,1.9696-4.5673,1.658-5.9163-.1373-.5965-.6745-.1552-1.2351-.4147Z"/>
    <path class="cls-1" d="M91.4649,271.1441c.6292-1.1506,1.0849-2.3031,1.9236-3.4041.9393-1.2516,2.0569-2.5783,3.5371-3.2043.7313-.3001,1.7058-.3256,1.9387.6012.2483.9763-.3931,2.0278-.9943,2.7285-1.4651,1.7518-4.0154,3.1292-6.322,3.2043l-.083.0744ZM89.2783,269.5676c.1728-.4506.3759-.9009.5962-1.3267.654-1.2771,1.4277-2.5032,2.2844-3.6794,1.6059-2.1529,3.8526-4.0808,6.4323-4.9561,2.3322-.801,4.0455.1746,4.3161,2.652.2002,1.8535-.5936,3.6556-1.4956,5.2328-2.2693,3.9043-7.1086,8.91-11.9929,9.0354-1.9387.051-2.9635-1.2512-4.6367-1.902-2.2068-.8513-4.466.5505-6.0388,2.0271-.5609.5261-1.4306,1.3023-1.5732,2.1036-.1653.9257.8042,1.6767,1.3878,2.2272,1.0971,1.0507,2.0918,2.0023,2.2592,3.5791.4384,4.1555-1.9689,9.0613-4.3057,12.3156-3.4566,4.8059-8.9898,9.287-15.287,8.7868-8.7092-.7018-6.833-12.1402-4.8993-17.6228.446-1.2516.9242-2.5029,1.4629-3.729.6587-1.5021,1.3853-2.9786,2.2193-4.3805.9843-1.6534,2.2567-4.4807,3.9952-5.5329.5157-.3001-.5387,2.2032-.6314,2.4037-.6889,1.4758-1.4126,2.928-2.1317,4.3805-1.9865,4.0301-5.8937,13.0659.7489,15.2191,1.7709.576,3.8677.4,5.6684.0751,1.4855-.276,2.9308-.7266,4.3061-1.3267,2.1291-.9771,6.8028-4.2558,5.1423-7.1837-.9469-1.6523-3.2841-2.2032-3.7947-4.1555-.6138-2.3782,1.0245-5.0064,2.3419-6.8086,2.1266-2.9283,5.065-6.5339,8.624-7.7598,1.16-.401,3.8098,0,5.0021.3256Z"/>
    <path class="cls-1" d="M73.0918,238.7021c-1.3404.4607-2.1324,5.1498-2.5072,6.2958-1.7899,5.4628-.4711,11.1689-.5861,16.7966-.0345,1.538-.1394,3.1069-.2695,4.6503-.1383,1.6498.5563-.0399.9907-1.6591.2102-.7956.4154-1.5905.6127-2.3861.3191-1.2707.5793-2.565.7726-3.8795.3561-2.3408.3317-4.7592.2699-7.1223-.1013-3.8421.2063-8.8608.7169-12.6958Z"/>
    <path class="cls-1" d="M63.0919,247.9402c-1.1858,1.6609-2.4518,3.1917-2.9919,5.268-.6979,2.6991.4776,8.044-3.3552,8.7444-1.6889.3119-2.4547-1.2196-2.7918-2.5949-.1585-.6486-.332-1.8941-1.2976-1.5042-2.9294,1.1675-3.6326,6.0715-7.3483,5.9418-1.5103-.0517-2.7429-1.1679-3.7318-2.2057-.4747-.4927-1.1805-1.6092-2.0084-1.4015-1.1833.2853-2.2887,2.0501-3.0149,2.9064-1.8036,2.1015-3.7473,3.9959-5.8721,5.7869-.6802.5706-2.7249,1.8934-2.5014,2.984.2386,1.193,2.0393.8818,2.7968.6224,1.7985-.6224,3.3139-2.076,4.6474-3.4001.3583-.3356,1.1082-1.4521,1.7331-1.2189,1.5599.6486,1.8373,2.9323,4.2507,3.3994,2.5923.5196,5.2443-.6231,7.0633-2.44.4646-.4661.7913-1.5563,1.2714-1.893.1143-.078.2519.3629.2853.4147.2519.4672.6335.8826,1.1366,1.0895,1.1625.4672,2.6937.1297,3.8069-.3367,4.1153-1.7123,7.896-7.6293,8.4774-11.9361.3399-2.5431-.5556-5.6569-.5556-8.2266Z"/>
    <path class="cls-1" d="M47.4294,287.7664c-.3245.285-.6849-.7266-.9289-.9861-.4359-.4668-1.2067-.4668-1.7777-.3374-1.2972.3374-3.6247,2.5435-2.3717,3.9701,1.5775,1.8169,5.1354.078,6.6612-.9081.1973-.1297,2.5765-1.8945,2.6495-1.5308.1348.6738-1.0719,1.8165-1.4536,2.2312-1.671,1.8169-3.6247,3.4249-5.47,5.0603-2.1845,1.9721-4.2166,4.9561-6.8269,6.3569-1.4737.7791-3.0203-.3371-4.3176.6486-2.9014,2.2574-5.1926,6.0985-9.2252,6.4622-2.0418.1811-2.7504-1.3752-4.4264-1.791-1.3986-.3378-3.628,3.3998-4.2507,2.491-1.3623-1.9725,3.9859-7.2919,5.4312-8.1996,3.1112-1.9466,3.2359,1.9204,5.8491,1.5833,3.3211-.4154,5.2389-4.2565,8.0411-5.6838,1.7047-.8818,3.0983.9088,3.4983.7018.4021-.2343.6979-.7266.9652-1.064,1.4945-1.9725-.5786-1.8165-1.2509-4.1523-.5344-1.8682.7162-4.0736,1.7256-5.5271,1.1341-1.6605,2.9402-3.5029,5.0208-3.8138,1.3522-.1818,3.2154.415,3.4745,1.7123.1689.8556-.6925,2.4651-1.017,2.7763Z"/>
    <polygon class="cls-1" points="170.1902 234.5355 162.7402 249.6924 177.4619 258.0681 184.9511 243.1487 170.1902 234.5355"/>
    <polygon class="cls-1" points="88.3196 251.3231 85.834 256.6034 90.7951 259.5454 93.294 254.3489 88.3196 251.3231"/>
    <polygon class="cls-1" points="62.1763 307.4781 59.6907 312.7583 64.6515 315.7003 67.1511 310.5034 62.1763 307.4781"/>
    <polygon class="cls-1" points="69.7197 306.1438 67.2338 311.4241 72.1949 314.3657 74.6942 309.1692 69.7197 306.1438"/>
    <polygon class="cls-1" points="27.6749 283.308 25.1893 288.5882 30.1505 291.5299 32.6494 286.3333 27.6749 283.308"/>
    <polygon class="cls-1" points="194.3229 232.3302 186.8729 247.4875 201.5947 255.8632 209.0835 240.9437 194.3229 232.3302"/>
    <polygon class="cls-1" points="219.3633 319.4433 211.913 334.5999 226.6347 342.9759 234.1239 328.0565 219.3633 319.4433"/>
    <polygon class="cls-1" points="159.266 375.9058 151.816 391.0628 166.5377 399.4384 174.0266 384.519 159.266 375.9058"/>
    <polygon class="cls-1" points="135.7564 379.4853 128.3064 394.6419 143.0281 403.0183 150.5169 388.0985 135.7564 379.4853"/>
    <polygon class="cls-1" points="340.8808 335.5798 333.4308 350.7367 348.1525 359.1124 355.6417 344.193 340.8808 335.5798"/>
    <polygon class="cls-1" points="442.7581 356.0547 435.3081 371.2117 450.0298 379.5874 457.5186 364.6679 442.7581 356.0547"/>
    <polygon class="cls-1" points="236.3626 70.3167 235.0208 74.1391 239.1846 75.2427 240.5458 71.4724 236.3626 70.3167"/>
    <polygon class="cls-1" points="278.4671 69.0712 277.1256 72.894 281.2894 73.9972 282.6506 70.2269 278.4671 69.0712"/>
    <polygon class="cls-1" points="255.5206 104.6984 254.1791 108.5212 258.3429 109.6251 259.7041 105.8541 255.5206 104.6984"/>
    <polygon class="cls-1" points="261.0998 102.285 259.758 106.1078 263.9217 107.2117 265.283 103.4407 261.0998 102.285"/>
    <polygon class="cls-1" points="219.2131 86.768 217.8717 90.5904 222.0354 91.6943 223.3966 87.9237 219.2131 86.768"/>
    <polygon class="cls-1" points="215.6505 89.3111 214.3087 93.1339 218.4725 94.2371 219.8337 90.4668 215.6505 89.3111"/>
    <path class="cls-1" d="M339.4308,110.1778l-1.1287,7.5143,79.6419-29.2728,2.7012-8.5018c.7762-2.3774-81.2144,30.2603-81.2144,30.2603Z"/>
    <path class="cls-1" d="M293.7494,55.4376l.1437,2.0842,12.7522-10.3456.0898-2.4001c.0284-.672-12.9858,10.6615-12.9858,10.6615Z"/>
    <path class="cls-1" d="M304.9338,29.3726l.1588,1.9904,15.1709-10.9727.1189-2.3124c.0377-.6479-15.4487,11.2947-15.4487,11.2947Z"/>
    <path class="cls-1" d="M206.4448,34.2781l.0762,1.9947,15.6162-10.3302.2152-2.3056c.0643-.6457-15.9076,10.641-15.9076,10.641Z"/>
    <path class="cls-1" d="M312.6238,35.3468c-.3112.4409.1815,2.9316,2.2316,3.2172,1.5829.2077,1.5571-1.7651,2.3095-2.4914.6486-.6486,1.8165-.1552,2.5949-.6224,1.349-.8053,1.3752-3.8921-.1039-4.5928-1.2196-.5969-1.1675,2.076-1.5312,2.5949-.3629.5185-1.2193-.2594-1.764.1035-.6749.4409-.6227,1.9725-1.22,2.0504-.7787.0773-1.9976-.9339-2.5169-.2594Z"/>
    <path class="cls-1" d="M298.4026,239.2598c.9109,1.0453,1.7626,5.9314,1.7626,5.9314,0,0,1.7055-4.8634,1.745-6.8405.0359-1.7727-.0374-4.4545-1.5032-5.0452-1.9584-.7496-7.3102-.8862-10.2533.4319-2.9431,1.3188-5.9734,4.6586-7.4011,7.4992-1.3968,2.7957-1.6756,6.9537-1.1567,9.5446.5049,2.5226,2.832,4.7725,4.2701,5.9997,1.2099,1.0457,4.3668,1.3634,4.3668,1.3634,0,0-4.4602,3.5453-5.9673,6.0676-1.6243,2.6818-3.6503,6.6814-3.7728,10.1354-.1207,3.4318,1.1327,7.9764,3.0401,10.4768,1.9092,2.4996,5.3338,4.1357,8.4095,4.4994,3.1727.3633,7.3379-.773,10.6216-2.2729,3.2841-1.4999,6.3004-4.1584,9.0807-6.7263,2.7806-2.569,5.742-6.1811,7.5995-8.6808,1.4263-1.9319,3.5432-6.432,3.5432-6.432,0,0-2.0892,1.0004-3.0678,1.6368-1.4816.9537-3.7491,3.0444-5.815,4.1807-2.6933,1.4546-7.3896,3.5223-10.3406,4.614-2.3983.8858-4.848,1.8855-7.3674,1.9311-2.5413.0453-6.4668-.2727-7.8712-1.6365-1.404-1.34-1.5384-4.6352-.5541-6.4988,1.3192-2.4777,8.4688-8.454,8.4688-8.454l7.4766-7.4313,4.9335-5.3173-1.2753-3.3635-4.8684,3.7494s-5.2623,2.7497-7.2883,2.9093c-1.713.1366-3.789-.7503-4.8681-1.9311-1.0816-1.2049-2.2876-3.546-1.6106-5.2271.7252-1.7727,4.3474-4.6359,5.958-5.4998,1.1266-.5911,2.832-.636,3.7052.3863Z"/>
    <path class="cls-1" d="M230.1502,456.5413c-2.3354-.4071-5.7747,1.4722-6.7097,3.5396-.9354,2.067-.6616,7.2786,1.1222,8.8292,1.8025,1.57,9.6794.5182,9.6794.5182,0,0,7.6764,18.6361,9.9597,20.6695,2.2811,2.0519,2.7623-5.5345,3.7167-8.4515,1.3375-4.059,2.5212-12.8278,4.2306-15.9444.9907-1.7719,4.8113-3.2514,6.0845-2.73,1.2735.5225-.1772,5.7485,1.5373,5.8416,1.6932.0913,7.8992-3.0257,8.661-5.2544.7809-2.2086-1.5039-6.8352-4.0125-8.0566-2.5086-1.2218-8.2391-1.2861-11.0413.7456-2.9599,2.1435-5.2382,8.3229-6.7672,12.1819-1.3691,3.5117-2.3429,10.9777-2.3429,10.9777,0,0-4.5551-13.0946-6.92-16.8947-1.5614-2.5442-4.8839-5.5667-7.1977-5.9716Z"/>
    <path class="cls-1" d="M51.3448,112.8765c-2.3354-.4075-5.774,1.4722-6.7094,3.5392-.9354,2.0673-.6616,7.2786,1.1219,8.8295,1.8025,1.5696,9.6798.5182,9.6798.5182,0,0,7.6764,18.6358,9.9593,20.669,2.2815,2.0519,2.7627-5.534,3.7167-8.4511,1.3382-4.0592,2.5219-12.828,4.231-15.9443.9911-1.7719,4.8113-3.2514,6.0848-2.73,1.2732.5221-.1772,5.7485,1.5369,5.8412,1.6932.0913,7.8995-3.0257,8.6614-5.254.7805-2.2089-1.5039-6.8352-4.0128-8.0569-2.5086-1.2218-8.2395-1.2861-11.0413.746-2.9603,2.1432-5.2386,8.3225-6.7672,12.1815-1.3691,3.5119-2.3429,10.9777-2.3429,10.9777,0,0-4.5551-13.0946-6.9196-16.8947-1.5614-2.5442-4.8839-5.5667-7.1985-5.9713Z"/>
    <path class="cls-1" d="M300.162,441.0164s-3.2169,9.9802-4.9076,14.9295c-1.7464,5.1088-4.9885,11.3529-5.5674,15.7236-.4751,3.5843.3956,8.4271,2.1029,10.4328,1.7087,2.0057,6.0762,2.3949,8.1457,1.5551,2.0713-.8396,3.531-4.2177,4.2816-6.6172.751-2.399.2199-7.7089.2199-7.7089,0,0-3.2399,5.6845-4.8602,6.5552-1.5653.8272-3.9995-.2242-4.8548-1.4261-.8556-1.177-.5886-3.8664-.2781-5.7591.4186-2.5611,2.0706-7.2333,2.7882-9.5414.7888-2.5374,1.2311-6.4039,2.0508-10.0114.493-2.1604.879-8.132.879-8.132Z"/>
    <path class="cls-1" d="M191.377,442.9914s-3.2169,9.9798-4.9073,14.9287c-1.7464,5.1092-4.9885,11.3532-5.5677,15.724-.4754,3.5843.3956,8.4271,2.1029,10.4328,1.7091,2.0057,6.0762,2.3949,8.1457,1.5551,2.0713-.8396,3.531-4.2177,4.2816-6.6172.7507-2.399.2203-7.7089.2203-7.7089,0,0-3.2402,5.6845-4.8605,6.5552-1.565.8274-3.9992-.2242-4.8548-1.4261-.8552-1.177-.5886-3.8664-.2781-5.7587.4186-2.5614,2.0706-7.2337,2.7878-9.5414.7891-2.5377,1.2315-6.4043,2.0512-10.0122.4927-2.16.879-8.1313.879-8.1313Z"/>
    <path class="cls-1" d="M152.8196,29.8822s-3.2169,9.9798-4.9076,14.9287c-1.7461,5.1092-4.9881,11.3532-5.567,15.7243-.4754,3.5841.3953,8.4267,2.1025,10.4326,1.7091,2.0059,6.0766,2.3947,8.1461,1.5553,2.0709-.8398,3.5306-4.218,4.2813-6.6174.751-2.399.2203-7.7091.2203-7.7091,0,0-3.2402,5.6849-4.8605,6.5552-1.565.8272-3.9992-.2242-4.8548-1.4259-.8556-1.1772-.5886-3.8666-.2781-5.7589.419-2.5614,2.0706-7.2337,2.7882-9.5414.7891-2.5377,1.2311-6.4043,2.0508-10.0118.493-2.16.879-8.1317.879-8.1317Z"/>
    <path class="cls-1" d="M156.8285,121.7279c-5.0068,1.3325-8.8249,13.0939-8.8249,13.0939l27.6259.7697-25.2636,16.4244s16.102-2.1647,22.4021-6.8068c6.2983-4.6421,18.0508-17.1323,15.3927-21.0456-2.6563-3.9133-24.639-4.2259-31.3323-2.4357Z"/>
    <path class="cls-1" d="M433.1071,246.4899c-5.0064,1.3325-8.8249,13.0939-8.8249,13.0939l27.6259.7697-25.2636,16.4244s16.1024-2.1651,22.4025-6.8071c6.2979-4.6417,18.0511-17.1319,15.3927-21.0452-2.6563-3.9133-24.639-4.2259-31.3326-2.4357Z"/>
    <path class="cls-1" d="M448.7951,290.2053l-6.3184,18.2118s7.1539,11.5092,4.6643,14.5033c-4.8889,5.8779-13.8478,4.5048-18.9524,2.8022-5.1017-1.7033-11.6727-13.0206-11.6727-13.0206l-5.4064,16.8387s13.9894,26.6169,10.3003,38.4826c-4.2234,13.5966-39.1718,31.6431-57.0098,39.4719-15.3621,6.7299-19.4695,6.4277-50.018,7.4716-9.1264.3022-18.9035-3.9011-25.7135-9.1476-6.81-5.2461-12.9239-13.6789-15.1494-22.304-2.3307-9.0369,1.16-31.9726,1.16-31.9726,0,0-5.912,14.2834-6.2818,21.8099-.4373,8.9542-.8894,22.1391,3.6553,31.8357,4.5422,9.6959,12.3012,22.3867,23.6048,26.3416,13.1453,4.5874,37.3984,5.4937,55.2706,1.1542,18.3293-4.4502,42.9715-20.7117,54.7042-27.8534,6.225-3.7908,12.1197-9.6413,15.6866-14.9974,3.3538-5.0546,4.6812-11.2073,5.7072-17.1129,1.2538-7.1967,1.8108-26.1221,1.8108-26.1221,0,0,10.0783.7413,13.9865-1.7856,4.2834-2.7742,9.8885-8.8727,11.7072-14.8332,2.0267-6.6469,1.4212-18.4583.4661-25.1058-.7561-5.2188-6.2016-14.6682-6.2016-14.6682Z"/>
  </g>
</svg>