<?xml version="1.0" encoding="UTF-8"?>
<svg id="Saleh" xmlns="http://www.w3.org/2000/svg" viewBox="0 0 303.0502 293.7299">
  <defs>
    <style>
      .cls-1 {
        fill: #000;
      }

      .cls-1, .cls-2 {
        stroke-width: 0px;
      }

      .cls-2 {
        fill: #007424;
      }
    </style>
  </defs>
  <rect id="bg" class="cls-2" x="0" width="303.0502" height="293.7299"/>
  <g id="content">
    <path class="cls-1" d="M77.6931,139.0521c-7.5662,2.637-15.037,5.0912-22.0128,8.7773-1.4141.7472-2.756,1.6723-4.0172,2.6609-5.6351,4.4169-10.788,9.3318-15.2043,14.9909-5.6691,7.2644-9.6893,15.3-11.274,24.434-1.5613,8.9991-.7429,17.7053,3.6032,25.8878,3.9349,7.4082,9.395,13.2705,17.2378,16.63,3.6547,1.5655,7.5094,2.459,11.4071,3.1571,7.0261,1.2585,14.1158,1.9011,21.2416,2.2904,6.9908.3819,13.9815.6174,20.9773.4243,3.4898-.0963,6.9785-.3982,10.4563-.7268,4.4843-.4238,8.9577-.9629,13.4345-1.4635,1.0504-.1175,2.098-.2655,3.143-.4245,1.6714-.2543,3.3065-.1793,4.8716.5135.4579.2026,1.0533.448.9171,1.0402-.0851.3697-.5155.7285-.8782.948-.4231.2559-.9313.3949-1.4197.5155-11.2043,2.766-22.2166,6.196-33.2318,9.6145-4.3552,1.3516-8.7778,2.3802-13.3099,2.9072-4.3121.5013-8.6479.4294-12.9631.2291-8.8035-.4086-17.4733-1.6477-25.7528-4.8862-7.0447-2.7554-13.1222-6.8207-17.678-12.9685-3.4545-4.6616-5.6261-9.9056-6.9502-15.5099-1.5445-6.5371-2.0055-13.1886-1.6616-19.8794.4969-9.6674,2.9311-18.8687,6.9816-27.6503,2.9421-6.3785,6.5924-12.3341,10.8081-17.9422,4.6789-6.2245,10.702-10.8546,17.5085-14.5139,2.182-1.1731,4.436-2.2125,6.8167-3.3922-1.2457-.1117-2.355-.2503-3.4685-.3033-2.9407-.14-5.8824-.2744-8.8252-.3526-3.8165-.1015-7.6344-.1923-11.4518-.1963-1.8857-.002-3.7522.3212-5.5546.919-1.0673.354-2.0649.8436-2.6579,1.8535-.3762.6407-1.0091.6093-1.5685.684-1.9122.2552-3.8338.4394-5.7505.6622-1.9623.2281-3.9226.4731-5.8847.7034-.502.0589-1.0069.1223-1.5111.1282-1.4275.0169-2.1229-.683-2.0479-2.1235.0332-.6368.1631-1.2813.3412-1.8956.8642-2.9793,2.2441-5.7379,3.7527-8.4286.5782-1.0313,1.5732-1.6819,2.6661-2.0965,4.8246-1.8302,9.7241-3.4678,14.8716-4.0251,2.6366-.2855,5.3292-.1356,7.9932-.0631,2.5737.07,5.1418.3237,7.7148.4428,4.9184.2276,9.838.4286,14.758.6178,2.8967.1114,5.7991.3184,8.6919.2351,5.1016-.1468,10.1988-.4619,15.2957-.7464,3.7664-.2102,7.5286-.4928,11.2942-.7198.5934-.0358,1.1973.0248,1.791.0897,1.0498.1148,1.3282.5125,1.1075,1.5918-.138.675-.2699,1.3631-.5174,2.0015-.9635,2.4844-1.9809,4.9479-2.9587,7.4268-.2992.7586-.8829,1.146-1.6042,1.3956-3.1266,1.0819-6.2475,2.181-9.3827,3.2378-1.916.6458-3.8548,1.2236-5.7817,1.8376-.4355.1388-.8636.3011-1.379.482-.2305,1.9638.126,3.8528.6005,5.7184.9878,3.8839,3.4419,6.5203,7.0471,8.1613,3.0077,1.369,6.1936,2.0445,9.4498,2.4167,4.0767.466,8.1669.6001,12.2626.2816,2.0255-.1575,4.0003-.5596,5.8984-1.3163,3.1211-1.2443,5.042-3.6559,6.2438-6.6474.354-.8813.2679-2.0007.1735-2.991-.6933-7.2781-1.3766-14.5582-2.1875-21.8238-.8107-7.2642-1.7616-14.5128-2.6585-21.7673-.9476-7.6651-1.8989-15.3297-2.858-22.9934-.7821-6.2493-1.6335-12.4904-2.3469-18.7474-.4218-3.6993-.6561-7.4207-.9353-11.1351-.2207-2.9355-.3333-5.8799-.6026-8.8104-.0672-.7312-.4049-1.5483-.8753-2.1109-1.4171-1.6949-1.6024-3.5601-1.0554-5.5778.8295-3.0599,1.6797-6.1145,2.5589-9.1605.1032-.3576.4395-.9025.6778-.9078.3696-.0082.8126.3095,1.1048.6066.313.3184.5171.7585.7179,1.1704,2.2164,4.5468,4.5059,9.0606,6.601,13.6628,1.2732,2.7968,2.2859,5.7164,3.3231,8.614.3516.9824.4918,2.06.5822,3.1068.0368.426-.2045,1.0385-.5306,1.277-.224.1638-.8637-.0862-1.2244-.3049-.4212-.2553-.7582-.6619-1.1017-1.0308-1.1498-1.2345-2.2862-2.4814-3.637-3.9513.3511,2.6339.6655,4.9445.9658,7.2569.5092,3.9212,1.0184,7.8424,1.5111,11.7656.5213,4.1511,1.0327,8.3034,1.5311,12.4573.4273,3.5609.8294,7.1247,1.2438,10.6871.4197,3.6079.8501,7.2146,1.2588,10.8237.4191,3.7013.8166,7.4051,1.2251,11.1077.4185,3.7933.8507,7.5851,1.2555,11.3799.4292,4.0239.8875,8.0458,1.2357,12.077.5592,6.4735-.0142,12.8648-1.6828,19.145-1.4697,5.5315-4.5855,9.9988-9.0295,13.5466-3.3884,2.7051-7.2697,4.0502-11.6254,4.0349-5.5772-.0195-11.1284-.3203-16.5615-1.6755-1.7308-.4317-3.4413-1.0211-5.0819-1.7233-4.6069-1.972-7.1908-5.6209-8.114-10.4412-.9657-5.0424-.5584-9.9806,1.5879-14.7095.0359-.0791.0265-.1788.0675-.4931Z"/>
    <path class="cls-1" d="M221.7661,161.4149c-.2183.427-.4604.8075-.6161,1.2206-.7453,1.978-1.4621,3.9667-2.2007,5.9473-.2079.5575-.3855,1.1474-.7114,1.6321-.1967.2926-.6827.6012-.9818.5526-.2729-.0444-.6577-.5563-.6648-.8696-.0249-1.0945-.0171-2.2123.1787-3.2846.396-2.1684.8893-4.3211,1.4129-6.463.2155-.8815.1303-1.5511-.5106-2.2591-1.8632-2.0583-3.2702-4.4406-4.6304-6.8478-.2239-.3963-.4507-.7909-.7891-1.3846-.3615.4847-.6448.871-.9346,1.2523-2.3387,3.0762-4.5796,6.2337-7.0459,9.2039-2.469,2.9734-5.5246,5.2533-9.1787,6.6583-6.2093,2.3875-12.0767,1.5949-17.4009-2.2486-6.8146-4.9194-11.3386-11.5288-13.2169-19.752-1.0629-4.6535-1.8275-9.384-2.5268-14.1094-.7468-5.0464-1.2877-10.1243-1.8638-15.1947-.4464-3.929-.7808-7.8706-1.2159-11.8009-.4907-4.4325-1.026-8.8601-1.5646-13.2871-.5719-4.7003-1.1931-9.3947-1.7529-14.0964-1.4379-12.0778-3.6247-23.9905-7.5919-35.5304-.806-2.3444-1.3811-4.7674-2.1011-7.1425-.2233-.7365-.2111-1.4108-.0059-2.1549.8062-2.9239,1.5529-5.8643,2.3222-8.7984.0933-.3557.1628-.7206.2901-1.064.3466-.9351,1.0662-1.1667,1.8224-.4954.5048.448.9804,1.0107,1.2576,1.6185.9716,2.1307,1.9958,4.2547,2.7415,6.4684,3.1747,9.424,5.7005,19.0261,7.2674,28.851,1.1364,7.1255,2.1038,14.2795,3.0395,21.4348.7093,5.4243,1.3074,10.8649,1.8483,16.3089.482,4.8507.8175,9.7159,1.2178,14.5747.4532,5.5007.7955,11.0135,1.3893,16.4989.6582,6.0794,2.1958,11.9373,5.2981,17.2851,1.7956,3.0952,4.0503,5.8104,6.8963,8.0053,2.4943,1.9236,5.2626,2.9939,8.4692,2.6526,2.1003-.2235,4.2132-.3672,6.2975-.6932,3.3323-.5212,6.1589-2.057,8.4908-4.5178,2.1947-2.316,4.08-4.866,5.8069-7.5362,1.1243-1.7383,2.1618-3.5327,3.2866-5.2707.3681-.5687.8165-1.137,1.3554-1.532.8949-.6559,1.7928-.2313,1.8342.8781.0461,1.2359-.0109,2.4879-.1669,3.7146-.1002.7879.0216,1.4284.4429,2.0817,1.2591,1.9525,2.7582,3.6811,4.612,5.0897.2855.2169.6022.3926.9936.6447.2793-.5633.5315-1.0439.7595-1.5357,4.5927-9.9075,10.264-19.1363,17.4344-27.3943,1.7135-1.9735,3.5845-3.8462,5.5813-5.5303,4.3879-3.7008,9.5654-5.5524,15.2584-6.0901,4.9351-.4661,9.7469.0479,14.3914,1.7629,6.5268,2.4102,10.9967,7.0612,13.9289,13.252.4131.8722.4196,1.9661.4905,2.9662.2788,3.9328-.543,7.6813-2.0068,11.3109-2.109,5.2296-3.181,6.7354-8.0115,10.4171-10.534,8.0285-22.2782,13.5836-35.1393,16.6897-6.6955,1.617-13.4147,1.3657-20.0224-.6746-1.1747-.3627-2.2939-.905-3.5639-1.4146ZM284.6723,132.5391c-.2884-.3876-.5131-.7287-.776-1.0373-5.5385-6.5032-12.6345-10.4408-20.8189-12.5325-2.0169-.5155-4.0911-.5504-6.1587-.1306-2.9104.5909-5.4109,2.0301-7.7788,3.7318-2.627,1.8879-4.9643,4.1052-7.1603,6.4733-5.6038,6.043-10.1915,12.8133-14.2565,19.9558-.1495.2627-.2354.5615-.3958.9528.6528.2053,1.2029.4453,1.7775.5467,1.8991.3349,3.7977.7124,5.7134.9054,4.7383.4775,9.4471.4091,14.1134-.7825,6.5349-1.6688,12.7808-4.0904,18.8672-6.9589,4.4629-2.1033,8.7895-4.444,12.7378-7.4266,1.4604-1.1032,2.9125-2.2261,4.1357-3.6973Z"/>
    <path class="cls-1" d="M217.3532,265.5665c-.29.6721-.5037,1.2766-.8009,1.8369-1.1909,2.2453-3.694,3.4244-6.1688,2.9146-1.2471-.2568-1.9646-1.1312-2.4395-2.2341-.1974-.4584-.3165-.9505-.503-1.5252-.4385.1636-.823.2819-1.1866.4465-5.7771,2.6152-11.8546,4.171-18.0763,5.2955-5.8325,1.0541-11.7017,1.2954-17.5897.9846-2.6009-.1373-5.1919-.627-7.7645-1.085-2.2449-.3997-3.9728-1.6309-5.0451-3.701-.211-.4074-.4656-.7948-.7257-1.1737-.6809-.9918-1.1566-1.114-2.1872-.4704-1.29.8056-2.1487,1.999-2.7697,3.3604-.5916,1.297-1.1086,2.6282-1.7116,3.9196-.2895.6201-.6416,1.2313-1.0695,1.7625-1.2602,1.5644-2.9589,1.5699-4.1859-.0184-1.2424-1.6083-1.8198-3.496-1.978-5.5052-.0598-.7588-.0097-1.5262-.0097-2.5722-.6594.5648-1.0573.9253-1.4754,1.2607-2.6405,2.1184-5.7175,1.1835-6.752-2.0481-.4041-1.2622-.3656-2.5246-.086-3.8133.4434-2.0431,1.2392-3.942,2.2208-5.7722.0996-.1857.2824-.3269.6591-.7496,0,.6124.0782.9568-.0138,1.2473-.3607,1.1394-.8445,2.2433-1.1503,3.3955-.3159,1.1903-.6369,2.4169-.6715,3.6357-.0572,2.0079,1.3766,2.9752,3.2237,2.2048.9106-.3798,1.7743-.984,2.5068-1.6534,1.152-1.0529,2.1901-2.233,3.2501-3.3835,2.9432-3.1944,6.408-5.6458,10.3939-7.3672.2854-.1232.5499-.2946.739-.3973-.2428-1.0176-.6273-1.9357-.6513-2.8631-.0654-2.5226,2.0253-3.9247,4.2952-2.8365,1.2666.6072,2.4726,1.4397,3.5221,2.3765,1.4475,1.2922.7719,3.808-1.0704,4.4019-.3935.1268-.7876.2513-1.1816.3766q-1.7257.5492-2.4859,2.0662c-.3563-.2662-.6952-.5193-1.0469-.782-4.5054,1.4952-8.2768,4.0826-11.5399,7.5263-1.1412,1.2043-1.7379,2.4128-1.4939,4.0461.1557,1.0424.2117,2.1016.4062,3.1357.0903.4799.3417.9618.6281,1.3664.8508,1.2022,2.3564,1.2439,3.2707.0928.3391-.4269.5959-.9292.8339-1.4243.5978-1.2435,1.1551-2.5064,1.7442-3.7542.7338-1.5544,1.6583-2.976,2.989-4.0937,1.7783-1.4937,2.9272-1.3444,4.2117.5554.3601.5327.6853,1.0923.9877,1.6601.7196,1.3512,1.8361,2.1661,3.323,2.4436,1.7584.3283,3.5162.7398,5.2925.8744,2.8381.2151,5.691.3075,8.538.317,6.4608.0215,12.8137-.906,19.0958-2.3667,4.3087-1.0018,8.5185-2.2889,12.4777-4.3066.307-.1564.6603-.2218,1.1923-.3945,0,.8118-.0247,1.443.005,2.0717.0677,1.433.6384,2.0117,2.0453,2.0244.6394.0058,1.302-.016,1.9157-.1741,1.8619-.4794,2.9009-1.7881,3.0443-3.9599.1211-1.834.1776-3.6822.1015-5.5174-.158-3.8135-.3569-7.6281-.6697-11.4315-.1729-2.1022-.6141-4.1821-.927-6.2732-.2034-1.3592.1407-2.5961.7239-3.7753.1086-.0159.2172-.0318.3258-.0477.1867.4308.435.8457.5503,1.2948.9285,3.6156,1.5236,7.2879,1.7113,11.0168.1504,2.9869.1658,5.9818.3722,8.9642.1327,1.9173.4354,3.8312.799,5.7202.1478.7678.6592,1.4657,1.0052,2.1953.0899-.0354.1798-.0707.2697-.1062-.1592-.5853-.3478-1.1643-.4726-1.7569-.6904-3.2782,1.1298-6.6606,4.2931-7.5407,3.221-.8961,6.191-.162,8.7354,2.0666.1494.1309.2053.3685.4614.8526-.6863-.15-1.1102-.208-1.5117-.3359-3.1118-.992-6.0908-.4501-8.9884.8094-1.1324.4922-1.2867.8867-.9912,2.076.3626,1.4589,1.0714,2.7391,2.1425,3.8014,1.673,1.6594,3.683,2.1446,5.8217,1.23,1.5904-.68,3.0414-1.691,4.5382-2.5819.4663-.2776.8795-.6444,1.5149-1.1178.1001.5047.296.8723.2009,1.1343-.2461.6782-.4678,1.4798-.9698,1.9311-2.2714,2.0417-4.7359,3.7967-7.7814,4.5497-3.2493.8033-6.1158.1181-8.5412-2.1889-.6216-.5912-1.0798-1.3541-1.6952-2.1434ZM159.9425,252.791c-1.3277-.9333-1.8069-1.0843-2.9384-.9652.4496,1.815.7454,2.2867,2.9384.9652Z"/>
    <path class="cls-1" d="M200.1337,255.6822c-.4291.6615-.7355,1.1738-1.0804,1.6586-1.5182,2.1346-5.0967,2.1256-5.8855-.7644-.0442-.1619-.1456-.3081-.2568-.5365-.7658.7119-1.4355,1.3932-2.1665,2.0007-1.1755.977-2.5175,1.5069-4.0823,1.3096-1.6584-.2092-2.4433-.9016-2.8568-2.5336-.0639-.2523-.1134-.5082-.2309-1.041-.6147.668-1.073,1.153-1.5167,1.6509-1.0699,1.2004-2.3475,2.0584-3.9401,2.3902-2.8097.5853-4.6426-.541-5.4115-3.3146-.0604-.2178-.118-.4363-.251-.9287-.2585.8188-.4466,1.3896-.6189,1.9651-.8647,2.8875-2.7853,4.9133-5.4992,5.9932-2.0306.808-4.2428,1.1614-6.378,1.7021-.1551.0393-.3415-.0447-.5025-.0697-.158-.7126.4211-.808.7693-1.0209,1.9231-1.176,3.9027-2.2637,5.7861-3.4988,1.1046-.7242,2.0939-1.6361,3.073-2.5315.2465-.2254.3818-.7227.352-1.0768-.3327-3.9559-2.2341-7.1265-4.9877-9.8754-2.8661-2.8612-5.7475-5.7096-8.5291-8.6516-1.2579-1.3305-2.2927-2.8723-3.4241-4.3219-.2263-.2899-.3774-.6656-.6559-.8831-1.4496-1.132-.8817-2.6059-.8969-4.0779.3421.0184.5671-.0395.6865.0475,1.4486,1.0562,2.8871,2.1265,4.3124,3.214.1967.1501.3077.4126.6015.823-.6002.0958-1.0134.1617-1.5821.2525.3844.446.7094.8684,1.0801,1.246,2.8375,2.8902,5.7147,5.7421,8.5138,8.6689,1.3,1.3592,2.528,2.8026,3.6566,4.3069,1.8147,2.4191,2.6964,5.1137,1.947,8.1712-.0199.081.0232.1775.0612.4248.8851-1.2203,1.292-2.5198,1.3613-3.8495.1313-2.5204.1561-5.0512.1028-7.575-.0515-2.4355-.2513-4.868-.4011-7.3009-.0278-.4508-.1276-.8972-.221-1.5265-2.7288.7722-5.144,2.1078-7.7427,2.8948-.5282-1.507-.0666-2.6772,1.2404-3.1919,1.6246-.6399,3.2677-1.2326,4.9003-1.8524.4199-.1594.8302-.3441,1.2669-.5264-.1091-2.6319-1.305-5.2193.1961-7.7343.6754.2068.6861.7816.7968,1.2339.3274,1.338.5935,2.691.8861,4.0376.1059.4872.2192.9729.3682,1.6317.559-.185,1.0228-.3237,1.4762-.4908,4.6994-1.7322,9.3962-3.4716,14.0967-5.2007.4974-.183,1.014-.3134,1.553-.4778.0865,1.5238-.4515,2.4278-1.6905,2.9016-3.1771,1.2151-6.3648,2.4027-9.5436,3.6133-1.6324.6217-3.2477,1.2888-4.886,1.894-.5786.2137-.7202.5078-.6819,1.1319.1859,3.0295.2827,6.0644.4416,9.0958.1395,2.661.2048,5.3332.5102,7.9765.401,3.4713,1.536,3.6673,4.5821,3.0781.978-.1891,1.9061-.8775,2.7417-1.4939.8448-.6232,1.5265-1.4633,2.323-2.1587.2475-.2161.6363-.2704.9604-.3988.0728.3234.2291.6532.2045.969-.1416,1.817.5722,2.6187,2.4099,2.7388,1.7719.1157,3.2455-.477,4.472-1.7323.5468-.5596,1.07-1.143,1.6299-1.6889.2457-.2396.5563-.4126,1.0996-.8055-.0611.6431-.0735.9797-.1277,1.3094-.2445,1.4881.7075,2.5902,2.1889,2.3513.684-.1104,1.4146-.4617,1.9357-.9186.6422-.5631,1.0961-1.3441,1.6155-2.0428.2602-.3501.3428-.8863,1.1462-.8362.0465.3947.1139.8158.143,1.2395.1161,1.6895,1.2708,2.5208,2.9409,2.106,1.9943-.4953,2.4726-1.0295,2.4314-3.0567-.0439-2.1606-.1739-4.3206-.3104-6.478-.3398-5.3703-.7015-10.7393-1.065-16.1081-.0308-.4549-.1155-.9103-.2186-1.3554-.2865-1.2371.0301-2.3464.9929-3.3592.5977.0235.7103.5219.8472.9398.657,2.0057,1.7946,3.8719,1.9738,6.2634-.5817-.2409-.9344-.3869-1.3718-.568.2741,3.9194.5441,7.7662.8117,11.6132.1372,1.9723.3747,3.9448.3753,5.9173.0006,1.9716-.1215,3.979-.9152,5.8222-.4288.9958-.9837,2.0074-1.7197,2.7869-1.7725,1.8773-4.1724,1.5737-5.607-.5771-.1747-.2619-.3416-.529-.6067-.9404Z"/>
    <path class="cls-1" d="M68.4358,84.4498c.7721-3.5142,1.4301-7.1127,2.3791-10.6328.7266-2.6953,1.7591-5.3159,2.7818-7.92.4134-1.0526,1.0966-2.0229,1.7811-2.9377.5152-.6885,1.1672-1.3134,1.8655-1.8183,1.6356-1.1824,3.429-1.0927,4.9501.1957,1.3917,1.1787,2.3624,2.6888,3.1637,4.3061.1563.3154.2158.7072.2197,1.0649.0192,1.7834-.4651,3.4607-1.2613,5.0319-.5578,1.1007-1.0846,1.1593-2.0546.3078-.7597-.667-1.4517-1.4105-2.1964-2.0953-.333-.3062-.691-.6139-1.0913-.8125-.9063-.4495-1.4772-.3865-2.059.4288-.6342.8887-1.2566,1.8503-1.5911,2.8758-.8963,2.7472-1.7348,5.5218-2.4102,8.3302-.6761,2.8113-1.1108,5.6801-1.6819,8.5176-.4856,2.4128-1.4917,4.6241-2.7207,6.7411-.046.0792-.0914.1709-.1622.2215-.36.2569-.8252.7754-1.0713.6881-.381-.1351-.7719-.6456-.8816-1.0688-.3566-1.3751-.5896-2.7825-.8654-4.1783-.0889-.4498-.1113-.9195-.2523-1.3514-1.3282-4.0693-2.796-8.0833-4.902-11.8295-.3594-.6393-.7616-1.2628-1.212-1.8406-.5373-.6893-.8768-.7862-1.494-.243-1.4254,1.2543-2.8054.8589-4.1628-.0088-1.7073-1.0914-2.8681-2.7104-3.9032-4.4026-.197-.3221-.1922-.954-.0066-1.2929,1.0362-1.8918,2.1361-3.75,3.2571-5.5935.5512-.9066,1.3862-1.2211,2.4738-1.1112,1.9187.1939,3.5069,1.0287,4.9184,2.2736,1.6135,1.423,2.7699,3.1925,3.7429,5.0833,1.992,3.8708,3.1953,8.0159,4.1822,12.233.0522.2231.1067.446.1721.6654.025.0837.0838.1572.0924.1728Z"/>
    <path class="cls-1" d="M213.8414,213.9599c.0936-.7515.6462-.9766,1.0726-1.2691,2.4287-1.6661,4.8976-3.2746,7.3-4.9773,1.2326-.8735,2.4758-1.7887,3.5052-2.8817,3.0287-3.2158,5.9727-6.5124,8.9123-9.8109,2.7505-3.0864,5.9185-5.6504,9.4644-7.7564,2.396-1.4231,4.9888-2.1897,7.7772-1.9043,1.9652.2012,3.3115-.4908,4.6701-1.9213,1.9553-2.0587,4.1928-3.8598,6.3894-5.6746,1.2769-1.055,2.7419-1.8535,4.3877-2.2504,3.0646-.7391,5.45,1.0746,5.5058,4.2234.0504,2.8469-.8431,5.3862-2.8636,7.3916-3.6758,3.6484-8.0724,5.9331-13.2949,6.2851-1.4339.0966-2.9539-.1571-4.3468-.556-3.7789-1.0822-7.1706-.1529-10.4592,1.6558-3.0503,1.6777-5.7264,3.853-8.2101,6.2621-1.6506,1.601-3.2202,3.2881-4.7818,4.9776-1.9468,2.1061-4.0666,4.0056-6.4711,5.57-1.3933.9065-2.8608,1.6243-4.5541,1.8672-1.081.1551-2.1241.5636-3.1924.8253-.2298.0563-.4947-.0301-.8108-.0563ZM257.66,186.1772c.3899.0173.7824.066,1.1716.047,3.738-.1825,7.0449-1.5935,10.1299-3.6065.9812-.6402.9248-1.2243-.1294-1.7805-.2018-.1064-.4201-.2167-.6413-.2454-1.2807-.1665-2.5715-.2953-3.8037.2284-2.6313,1.1182-4.7313,2.9636-6.7035,4.9746-.0456.0465-.0135.1693-.0235.3824Z"/>
    <path class="cls-1" d="M86.6839,184.0632c-.2996.3245-.575.676-.9023.9695-3.9124,3.5079-8.3443,6.0317-13.5728,6.9411-2.8596.4974-5.7639.7722-8.6235.0825-1.1831-.2853-2.3323-.8541-3.3924-1.4729-1.5332-.8951-2.2566-2.344-2.3849-4.1221-.2133-2.956.5428-5.6403,2.1103-8.1322,1.7785-2.8273,4.0349-5.2394,6.4084-7.5636,1.4398-1.4099,2.7994-2.9017,4.1883-4.3498-.396-.9109-1.1557-1.1029-1.8362-1.2519-2.8573-.6257-5.7254-.8414-8.5749.0861-.4355.1418-.878.263-1.3206.3813-.0808.0216-.1779-.0173-.2785-.0296-.4742-.3414-.4108-.7973-.1748-1.2181.7394-1.3186,1.4508-2.6594,2.2885-3.9145.816-1.2226,2.1447-1.6996,3.5298-1.9413,2.7061-.4722,5.4038-.4101,8.0678.3057.4409.1185.8753.2899,1.2841.494,1.984.9906,2.7676,2.7646,1.9632,4.8288-.4622,1.1861-1.1172,2.3247-1.8439,3.3749-2.3668,3.4204-5.2848,6.3676-8.2065,9.3055-.7463.7504-1.5291,1.4652-2.2612,2.229-.9667,1.0085-1.753,2.1271-1.9949,3.5533-.2542,1.4994.2427,2.5184,1.6668,3.0795.6709.2643,1.4127.4169,2.134.4747,5.6904.4563,11.2859-.1648,16.8073-1.5598,1.1139-.2814,2.2247-.5775,3.3454-.829.4565-.1024.9357-.104,1.4046-.1514.0563.1434.1126.2869.1689.4303Z"/>
    <path class="cls-1" d="M218.117,86.23c-.2558-1.4323-.0825-2.6655.2012-3.8586.0947-.3981.5969-.7813,1.0035-1.01,2.8454-1.6005,5.7121-3.163,8.5765-4.7296,11.0548-6.0461,22.1884-11.9402,33.5764-17.3409.4747-.2251.9773-.3917,1.697-.6766,0,1.3871.0407,2.5249-.0276,3.6562-.0178.2952-.3302.6233-.5885.8392-.2747.2296-.6435.3487-.9752.508-14.2221,6.8306-28.1728,14.1809-41.9413,21.8811-.4612.2579-.9537.4599-1.522.7312Z"/>
    <path class="cls-1" d="M286.3345,57.2922c-.1556.5854-.2912,1.1026-.4306,1.6187-1.4486,5.3637-2.9512,10.7135-4.3245,16.0963-.699,2.7396-.7991,5.5492-.1456,8.333.1443.6146.3959,1.236.7352,1.7666.9114,1.4254,2.4584,1.7168,3.8059.6894.6481-.4942,1.229-1.1191,1.71-1.7796.6469-.8883,1.1691-1.8675,1.7423-2.8093.2315-.3803.4562-.7646.6988-1.1719.7762.2057,1.0029.618.871,1.2559-.6706,3.244-1.4086,6.4687-2.9189,9.4521-.2482.4904-.5365.966-.853,1.4156-1.5323,2.1766-3.6258,2.907-6.1508,2.1268-1.0946-.3382-1.919-1.055-2.5444-2.0116-1.0163-1.5547-1.2998-3.2877-1.42-5.1099-.5899-8.9437,1.7298-17.2076,5.7537-25.084.7109-1.3914,1.4628-2.7623,2.2193-4.1296.2078-.3756.3654-.8943,1.2516-.6585Z"/>
    <path class="cls-1" d="M109.7856,200.8072c.362-.4812.6296-.874.9341-1.2357,2.1627-2.5689,4.3968-5.081,6.4762-7.7154,1.1906-1.5084,2.1707-3.1897,3.173-4.8373.5289-.8695.8027-1.8528.6843-2.9071-.1322-1.1768-.8858-1.9167-2.0599-1.9861-1.491-.0881-2.9359-.0129-4.2205.9175-.2487.1801-.8415.2829-.9723.1412-.2343-.2537-.3708-.7407-.3162-1.0944.275-1.782.7884-3.499,1.7197-5.061,1.2001-2.0126,2.9121-3.1518,5.3292-3.0473.0919.004.1845.0058.276-.0012,3.5213-.2677,4.8808,2.0565,5.0943,4.9863.2387,3.2749-.558,6.3406-2.3318,9.0637-1.3496,2.0719-2.8203,4.113-4.5228,5.8948-2.154,2.2544-4.5948,4.2352-6.9186,6.3265-.6006.5405-1.2723.8807-2.3448.5552Z"/>
    <path class="cls-1" d="M212.5746,117.8624c.7937.3361.7422.8067.6598,1.2659-.5459,3.0411-1.222,6.0489-2.8168,8.744-1.2613,2.1315-2.7031,2.7938-4.9264,2.4717-1.2244-.1774-2.144-.7978-2.8258-1.785-.7182-1.0398-1.1208-2.198-1.2343-3.4679-.572-6.4037.3867-12.5737,2.9436-18.4625,1.115-2.5681,2.4436-5.0441,3.6999-7.5495.2086-.4161.3591-.9772,1.2373-.9391-.1232.5611-.2102,1.0718-.3483,1.5684-1.1206,4.0277-2.284,8.0438-3.3658,12.0818-.6818,2.5448-1.0571,5.145-.6788,7.7832.1219.8504.3365,1.731.7202,2.491.7401,1.466,2.1642,1.7295,3.4673.7277,1.1959-.9195,1.9256-2.2083,2.6459-3.497.2629-.4704.5362-.9349.8223-1.4326Z"/>
    <path class="cls-1" d="M175.7243,30.682c-.307,2.0368-.5134,4.0962-.9636,6.1008-.2239.997-.8593,1.9144-1.3867,2.8224-.15.2582-.5964.5269-.8688.4921-.5191-.0663-.4913-.5735-.4444-.9958.1521-1.3699.312-2.739.4656-4.1087.321-2.8641-.236-5.5814-1.3949-8.1917-1.3806-3.1096-3.4167-5.7672-5.7394-8.2181-.8222-.8676-1.6676-1.7185-2.5586-2.514-.6174-.5513-.7578-1.1193-.3596-1.822.5649-.997,1.0965-2.0178,1.732-2.9685.5354-.801.7836-.8138,1.5644-.2097,2.2332,1.7278,4.1904,3.7254,5.8136,6.0445,2.8473,4.0682,4.024,8.6195,4.1405,13.5689Z"/>
    <path class="cls-1" d="M58.1986,197.6679c-.1289.5108-.2517,1.0232-.3878,1.532-.9129,3.4134-1.854,6.8195-2.7321,10.2418-.4024,1.5683-.5039,3.1753-.1757,4.7819.0823.4027.16.8172.3215,1.191.6124,1.4173,1.8738,1.7436,2.9625.6642.7055-.6996,1.2081-1.605,1.7927-2.4246.2501-.3506.4774-.7173.6935-1.0441.7048.2703.6527.7328.5418,1.1134-.5637,1.9345-1.1407,3.8661-1.7771,5.7775-.169.5075-.5194.9762-.8636,1.4-1.5308,1.8851-4.3055,1.7226-5.631-.3205-.7268-1.1201-.8739-2.39-.9393-3.6915-.2695-5.3678,1.0465-10.3812,3.358-15.1724.5386-1.1164,1.1289-2.2088,1.7229-3.2971.1835-.3361.4583-.6224.6913-.9315.1408.06.2816.12.4223.18Z"/>
    <path class="cls-1" d="M178.1145,71.1763c-.114.5084-.211,1.0213-.3447,1.5245-.9319,3.5073-1.9667,6.9911-2.7624,10.5287-.3259,1.4487-.1479,3.0122-.1797,4.5239-.0047.2215.0944.4465.1531.6678.2233.8419.616,1.5649,1.5302,1.7906.8962.2213,1.5055-.3422,2.0031-.9477.5221-.6353.934-1.3612,1.3952-2.0467.2414-.3589.4853-.7162.7281-1.0742.1097.0213.2193.0426.329.0639.064.3211.2312.6615.1756.9603-.447,2.4013-.9906,4.7795-2.3261,6.8786-.6206.9755-1.4482,1.6341-2.6888,1.6712-2.1429.064-3.6344-1.2022-3.9773-3.5679-.4468-3.0828-.2278-6.1522.4344-9.1861.8616-3.9475,2.5113-7.5827,4.4966-11.0764.182-.3204.4592-.5867.6921-.8782.1139.0559.2277.1119.3416.1678Z"/>
    <path class="cls-1" d="M41.8637,101.9801c.0864.3054.2954.6355.2398.9123-.4712,2.3436-.9715,4.6846-2.223,6.7734-.7421,1.2386-1.7545,1.9081-3.286,1.8345-1.2847-.0617-2.2732-.5641-2.8061-1.6642-.4294-.8865-.7523-1.8923-.8332-2.8691-.5849-7.064,1.652-13.4069,5.125-19.4101.1594-.2756.4364-.4832.6587-.7224l.3219.1568c-.108.4606-.203.9247-.3262,1.3811-.9095,3.3692-1.8575,6.7285-2.7247,10.1085-.4596,1.7914-.6506,3.6229-.1701,5.4571.0926.3534.1801.7193.3451,1.0407.6006,1.1699,1.7716,1.4687,2.7279.5672.7217-.6805,1.2495-1.5702,1.8424-2.3822.2835-.3883.5179-.8124.7745-1.2203l.3341.0365Z"/>
    <path class="cls-1" d="M89.3929,90.0133c-.1233.5014-.2292.9699-.3539,1.4332-.9192,3.4134-1.8723,6.8181-2.7511,10.2418-.4369,1.7021-.5997,3.4433-.1644,5.1868.0776.3107.1474.6289.2729.9212.6038,1.4061,1.8767,1.7473,2.9666.6888.6802-.6606,1.1729-1.5184,1.725-2.305.256-.3648.4532-.7709.6571-1.1236.6203.045.7695.3777.6918.7676-.4947,2.4809-1.0013,4.9649-2.4137,7.1324-.6667,1.0232-1.5665,1.5749-2.8681,1.5836-1.6498.011-2.7339-.7382-3.3373-2.1756-.3142-.7483-.5169-1.5836-.5735-2.3933-.3297-4.7125.4341-9.2613,2.312-13.595.8209-1.8945,1.7888-3.7264,2.7218-5.5705.1842-.3641.3027-.9087,1.115-.7924Z"/>
    <path class="cls-1" d="M154.1908,137.0325c-.1051.4661-.1976.9355-.3174,1.3978-.9902,3.8243-2.0845,7.6257-2.9251,11.4825-.2925,1.3418.0157,2.8209.1012,4.2342.0211.349.1981.7131.3827,1.023.5917.9934,1.7187,1.252,2.5771.4657.6994-.6406,1.2347-1.4681,1.8014-2.2429.3159-.4319.5475-.9255.8036-1.3681.6148.0983.7243.4372.6526.8217-.448,2.4024-1.0018,4.7713-2.2683,6.9077-.819,1.3815-2.0075,1.9187-3.5998,1.7497-1.4785-.1569-2.3043-1.0502-2.8147-2.3165-.2205-.547-.3977-1.1416-.4399-1.7257-.3496-4.8479.2594-9.5602,2.2395-14.0292.893-2.0154,1.9341-3.9655,2.9248-5.9368.1125-.2238.3347-.3924.506-.5867.1254.0412.2508.0824.3762.1236Z"/>
    <path class="cls-1" d="M211.6097,262.584c-.0387-.376-.1525-.7619-.1044-1.1265.45-3.4101-.0882-6.7968-.2449-10.189-.1654-3.5809-.4775-7.155-.7154-10.7327-.1709-2.5689-.321-5.1391-.492-7.7079-.0243-.3648-.0674-.7406-.1812-1.085-.4631-1.4019.3185-2.4395.9323-3.8587,1.076,1.2555,1.3314,2.5743,1.7989,3.7663.4599,1.1725,1.0619,2.3252,1.1051,3.7672-.5037-.0727-.8742-.1262-1.2765-.1842,0,.7055-.0384,1.3904.0063,2.0699.2596,3.9437.5328,7.8865.8142,11.8288.1209,1.6945.3171,3.3846.3997,5.0805.1242,2.5495-.2022,5.0458-1.1377,7.4375-.1382.3534-.383.6652-.5785.9963-.1088-.0208-.2175-.0416-.3262-.0624Z"/>
    <path class="cls-1" d="M176.2371,242.1073c-.4574-1.6762.0389-2.778,1.4509-3.3032,8.0541-2.9955,16.1124-5.9797,24.1717-8.9613.3736-.1382.7702-.2139,1.1693-.3223.1977,1.3782-.3829,2.4056-1.5988,2.8686-2.5775.9814-5.1749,1.9111-7.7446,2.912-5.2258,2.0356-10.4381,4.1058-15.6579,6.157-.5877.2309-1.1873.4313-1.7905.6491Z"/>
    <path class="cls-1" d="M147.0053,248.0682c-.4947-.3927-.8967-.6823-1.265-1.0099-1.0169-.9046-1.268-1.8483-.7867-3.0994.5192-1.3498,1.4861-2.3261,2.775-2.9322,1.2939-.6085,2.2971-.0197,2.4584,1.4133.066.5864.0198,1.1952-.0521,1.7844-.0714.5859-.2391,1.1599-.358,1.7088,1.7435,1.7062,1.7576,1.9439.1761,3.7635-.469-.2851-.9566-.5815-1.5354-.9334-3.3055,4.0702-7.7581,6.252-12.5812,7.8214-.3656.119-.7601.1494-1.254.2422.1221-.7842.655-.9259,1.0516-1.1664,1.8854-1.1434,3.8047-2.2319,5.6712-3.405,1.4762-.9278,2.9054-1.9327,4.3295-2.94.4751-.336.8698-.7857,1.3705-1.2471ZM148.1932,245.3324c.2644-.7707.3534-1.3782-.2217-1.7381-.4798-.3003-.945-.0581-1.2748.6292.4555.3375.9252.6856,1.4965,1.1089Z"/>
    <path class="cls-1" d="M147.1707,283.0867c-.054-1.213.3163-1.7779,1.1772-2.0928,4.4803-1.6391,8.9501-3.3067,13.4281-4.9519.2831-.1041.6051-.1024.9871-.1621.0912,1.118-.5518,1.5271-1.3633,1.8337-2.4471.9245-4.8926,1.8533-7.3323,2.7969-1.8406.7118-3.6688,1.4556-5.5086,2.1697-.399.1549-.8236.2435-1.3882.4065Z"/>
    <path class="cls-1" d="M183.6831,280.4447c-.9702-.6586-1.8298-1.242-2.709-1.8388.1119-1.0586.6405-1.8345,1.2743-2.7534.8084.461,1.5822.9022,2.4353,1.3887.3294-.4768.6549-.948,1.0017-1.45,1.0837.1923,1.8253.8905,2.57,1.5417.1768.1545.2538.623.1563.8538-.2937.6949-.6962,1.344-1.1062,2.1035-.895-.5446-1.6239-.9881-2.4147-1.4693-.3853.5181-.7309.9828-1.2077,1.6239Z"/>
    <path class="cls-1" d="M197.5166,261.1794c.1382.3092.2455.5493.3949.8833.3525-.4132.6772-.7937,1.0894-1.2768.6991.9274.2418,1.6022-.0958,2.2696-.3247.6419-.9028.8141-1.5161.5605-.4965-.2054-.866-.0032-1.3094.0921-.5576.1198-1.2326.2683-1.7127.0645-1.3255-.5625-2.4382-.1501-3.5135.5221-.895.5594-1.7148,1.2377-2.5923,1.8271-.7516.5049-1.5652.8389-2.7725.6307.4459-.3079.6871-.4783.9322-.6431,1.1004-.7399,2.2032-1.4763,3.3026-2.2177.8354-.5633,1.6342-1.191,2.5105-1.6804.733-.4093,1.5951-.5856,2.3908-.1939.9266.4562,1.6507.3707,2.2839-.4699.121-.1607.3669-.2274.6078-.3682Z"/>
    <path class="cls-1" d="M190.7965,239.2708c.33.9574.6507,1.7615.8739,2.5918.1025.3814.0807.8282-.0008,1.2214-.2988,1.4412-1.0369,1.7406-2.35.9972-.085.0178-.199.0067-.2504.0582-.503.5036-1.0308.9899-1.8041.6285-.7229-.3379-.814-1.0516-.899-1.7485-.0552-.4523-.0577-.9289-.212-1.3473-.3108-.8432.0862-1.2749.7649-1.6745.5911.4079.5911.9188.4481,1.4782-.1552.6071-.1377,1.1817.3781,1.7178.6524-.0021.9547-.3888.9592-1.0176.0026-.3609-.1036-.7228-.1636-1.0838-.0912-.5485-.2058-1.1015.4073-1.5426.7351.4903.687,1.2989.7971,2.0276.1388.9184.1242.9206,1.1136,1.3979-.265-.7396-.5116-1.297-.6606-1.8794-.1577-.6165-.2669-1.2685.5985-1.825Z"/>
    <path class="cls-1" d="M158.4409,233.135c1.0575-.5976,2.115-1.1951,3.1724-1.7927-.0063-.0782-.0126-.1563-.0189-.2345-1.1295-.0735-2.259-.1471-3.3882-.2206.1631-1.5775.7161-2.1671,2.0097-2.2022.9165-.0249,1.8407-.0498,2.7506.0379,1.2616.1216,1.4915.6635.8675,1.725-1.1914,2.0267-2.9791,2.9679-5.247,3.0667-.0487-.1266-.0974-.2531-.1461-.3796Z"/>
    <path class="cls-1" d="M222.4202,247.3533c.7962,1.1698,1.2091-.2141,1.9762-.1067.3559.6217-.0334,1.0537-.4606,1.461-.3971.3786-.8602.6975-1.2106,1.1131-.3642.432-.6283.9484-.9792,1.495,1.3761.7272,2.6353.0032,3.8952.1361-.7971,1.2268-2.7218,1.8629-3.8661,1.3347-.5727-.2644-.8477-.7419-.7314-1.3362.1385-.7076.3909-1.3929.6114-2.1479-.7512-1.2299-.4367-2.413.9139-3.2121.3958-.2342.7957-.3645,1.0344.1532.2033.4407.0032.8182-.4263,1.005-.225.0978-.5029.0739-.7569.1049Z"/>
  </g>
</svg>