<?xml version="1.0" encoding="UTF-8"?>
<svg id="Shariah" xmlns="http://www.w3.org/2000/svg" viewBox="0 0 686.4761 205.5844">
  <defs>
    <style>
      

      @import url('../../CSS/SvgStyling.css');


    </style>
  </defs>
  
  <g class="content">

    <rect id="bg" class="bg" width="686.4761" height="205.5844"/>


    <path class="cls-1" d="M435.649,124.4392c.5429-2.9198,2.3191-5.1847,3.0867-7.7927.9552-3.245,3.3349-4.6327,6.1852-5.5936,11.2089-3.7791,22.6075-4.6661,34.2387-2.2711,6.6359,1.3664,12.9052,3.8416,19.2373,6.1394,1.4988.5439,1.8295,1.444,1.1085,2.9037-1.004,2.0327-1.8938,4.1231-2.7905,6.2069-.4445,1.033-1.1283,1.5625-2.2751,1.7687-5.5993,1.0071-10.7729,3.2541-15.8952,5.6279-.8648.4007-2.0378.7268-.5541,1.8651,3.1431,2.4117,6.3635,4.6798,9.9425,6.4396,3.4575,1.7,6.9884,1.5231,10.5109.6056,6.4056-1.6685,12.5536-3.9797,18.0908-7.7372,1.8602-1.2624,2.4335-2.6019,1.5135-4.7852-1.2342-2.9287-2.7063-5.6828-4.6485-8.1892-3.3689-4.3478-6.7063-8.7119-8.9172-13.8123-.2837-.6545-.7371-1.3097-1.2806-1.7619-1.1548-.9608-1.4572-2.1876-1.2913-3.5468.363-2.974.8089-5.938,1.248-9.1005,1.6267.7925,2.5498,2.0489,3.6436,3.0459,2.5402,2.3156,5.7772,3.7787,7.9348,6.5439.4848.6214,1.396,1.2919,1.0118,2.0386-.4936.9596-1.5427.3713-2.3657.2029-.5642-.1154-1.2791-.4762-1.6402.0498-.4553.6632.2295,1.2142.626,1.7083,2.1094,2.6285,4.3752,5.1514,6.0535,8.0879,4.9347,8.6342,4.1387,17.2404-.3431,25.7534-1.0441,1.9834-2.7552,3.4454-4.55,4.7118-6.3657,4.4917-13.2766,7.6783-21.1098,8.6418-1.8949.2331-3.6811.0056-5.3356-.8104-1.1553-.5697-1.9526-.3088-2.7259.5135-3.4632,3.6829-6.1163,7.8675-7.5621,12.7316-1.1532,3.8799.0353,7.2725,2.7224,10.1031,2.6902,2.8339,6.1037,3.2278,9.7532,2.3565,5.69-1.3586,9.9857-5.0692,14.4218-8.5497,8.0391-6.3074,14.7913-14.0007,22.4005-20.7692,6.3097-5.6126,12.8652-10.8953,20.4669-14.7154,3.223-1.6196,6.5619-2.9145,10.1386-3.5093,5.4424-.905,10.0173.426,13.3139,5.1329,1.2768,1.8232,2.9492,3.2337,4.8433,4.4099,5.3745,3.3373,11.8213,2.5196,16.2234-2.1103,2.4847-2.6132,4.3182-5.7322,6.5807-8.5194.8808-1.0853,1.793-2.1344,2.9189-2.969.4909-.3639,1.0452-.5648,1.6039-.0864.5045.4319.2955.9318.0997,1.4065-.7262,1.7602-1.4281,3.5321-2.2146,5.2654-.6502,1.4332-.2054,2.4843.8377,3.529,4.1919,4.1987,10.8114,3.199,13.4774-2.1011.5907-1.1744.9913-2.4428,1.5379-3.6413.6369-1.3968,1.2728-2.802,2.0398-4.128.3651-.6313.8147-1.6129,1.8181-1.1659.8295.3695.5312,1.2596.4594,1.9715-.0366.3631-.1331.7203-.2034,1.0799-1.2624,6.4649,3.7128,8.9417,7.9075,9.2072,1.1388.0721,2.3428-.201,3.4549-.5269,2.8532-.8361,3.9334-2.3129,3.8735-5.2699-.2871-14.1575-1.6529-28.2269-3.3613-42.2756-1.8311-15.0581-3.5268-30.1331-4.7293-45.2584-.139-1.7492-.3013-3.5035-.9996-5.154-.1363-.322-.2595-.7334-.1789-1.0502.8962-3.5233,2.2543-6.8793,3.4871-10.2732.7868.265.8438.7309.9762,1.1418,2.5135,7.805,5.8702,15.3211,7.9765,23.265.3842,1.449,1.4749,3.4879-.0746,4.1995-1.3425.6165-1.94-1.6955-2.8279-2.748-.4479-.5308-.5867-1.3467-1.6887-1.6074.2453,2.1135.5023,4.1005.7031,6.0931,1.5869,15.7505,3.7711,31.4294,5.6192,47.1484,1.2068,10.2646.7348,20.4935-1.413,30.6097-.8492,3.9996-2.5017,7.6197-5.6627,10.4463-3.7209,3.3272-8.5548,3.4738-12.3267.1904-1.999-1.7401-3.9326-3.5379-4.6949-6.2234-.113-.398-.2206-.9598-.7759-.9176-.6464.0491-.657.682-.7924,1.1556-.6714,2.348-1.6551,4.5225-3.2584,6.4101-2.1054,2.4786-4.6833,3.7358-7.9508,3.1527-3.7194-.6637-6.1513-2.8813-7.4104-6.4265-.1819-.5122.0449-1.3318-.6962-1.4505-.6706-.1073-.9161.6428-1.2722,1.07-2.8171,3.3809-5.5932,6.8275-9.3982,9.1609-3.4726,2.1296-7.051,2.0412-10.5533-.0547-2.7326-1.6353-5.1343-3.6349-6.8906-6.3382-3.3357-5.1341-8.278-5.5364-13.6151-4.4832-6.8999,1.3615-12.4654,5.3103-17.885,9.4986-7.518,5.8101-13.8104,12.8787-20.3425,19.71-3.8493,4.0256-7.9801,7.7732-12.4086,11.1667-2.8137,2.1561-5.9428,3.7457-9.3006,4.8888-6.6255,2.2553-14.4153-.9309-17.4884-7.2472-3.3547-6.8952-2.9678-13.7667.4531-20.5099,1.3921-2.7443,3.0333-5.3633,4.9765-7.7586.7154-.8817.8103-1.36-.2355-2.0375-4.3971-2.8488-8.2518-6.3505-11.6291-10.3316-1.4785-1.7428-2.8766-1.8571-4.7651-.8701-6.4912,3.3924-12.9086,6.9536-19.7986,9.5068-4.8064,1.7811-9.6075,3.5336-14.8964,3.3649-8.9061-.2841-15.8718-4.1241-21.1681-11.1585-1.3649-1.8129-2.5293-3.7769-3.897-5.5874-1.7402-2.3037-3.3953-2.7281-6.1784-1.8853-4.5596,1.3808-7.4569,4.8049-10.1811,8.3699-4.2373,5.5449-6.654,12.0229-9.1383,18.4513-.7164,1.8538-1.5171,3.6453-2.7879,5.2055-3.3335,4.0925-8.3471,4.3586-12.0261.6021-4.912-5.0155-7.0724-11.3535-8.6665-17.9772-1.4562-6.051-1.1228-12.0685.2506-18.0662.1549-.6764-.0863-1.997,1.0256-1.819.9031.1446.6724,1.3691.5855,2.1116-.5601,4.7848-.0323,9.5053.6739,14.227.7375,4.9312,2.2424,9.5742,5.3368,13.542,1.571,2.0144,3.5765,3.4027,6.4004,3.0381.7811-.1008,1.4187-.3083,1.9604-.8225,2.5701-2.4399,4.8272-5.0748,6.0677-8.4997,2.4682-6.8141,4.6445-13.7921,9.1546-19.6394,3.4682-4.4965,7.2151-8.6851,12.9748-10.4001,2.2621-.6736,4.0157-.307,5.3889,1.6547,1.0079,1.4399,2.0827,2.8338,3.0662,4.2898,7.0923,10.4994,18.8021,14.9798,31.0863,11.9834,6.7327-1.6422,13.088-4.2479,19.3192-7.2054.6427-.3051,1.8813-.6083.5153-1.5646-3.9516-2.7665-7.7611-5.7478-12.6255-6.9234-3.3429-.8078-6.3608-.3035-9.2885,1.3507-.668.3774-1.2894.9288-2.3417.9737ZM479.7276,121.2328c-4.8472-1.5583-9.6579-2.5506-14.6315-2.5008-1.2375.0124-1.1895.6243-.5057,1.3397,1.6654,1.7422,3.3683,3.4485,5.0574,5.1681.3186.3244.6809.6137,1.1551.3823,2.9793-1.454,5.9507-2.9244,8.9248-4.3893Z"/>
    <path class="cls-1" d="M35.6688,66.0812c.3443,3.1673-.4815,5.7498-1.5945,8.3094-3.6812,8.4658-7.1772,17.0056-10.0367,25.7917-1.3705,4.2111-.8835,8.2544,1.2154,12.1052.8541,1.5669,1.9444,3.2867,3.8898,3.1442,1.742-.1276,2.6579-1.8554,3.631-3.2432.5005-.7138.3226-2.3786,1.4809-2.0216.9559.2946.6683,1.7626.557,2.794-.333,3.0876-1.2132,6.0273-2.3778,8.8877-.2455.6031-.5053,1.3168-.9841,1.6901-4.0847,3.1844-3.7656,7.9493-4.02,12.2469-.2169,3.6628.3504,7.4421,1.2847,11.0802,1.0653,4.1482,3.0049,7.766,6.326,10.5626,2.4379,2.0529,4.7461,2.1308,7.0877-.0529,4.1433-3.8638,6.3801-8.8788,8.0898-14.1495,2.4525-7.5604,5.4477-14.7396,12.4931-19.3347,1.4146-.9227,2.8161-1.8491,4.3721-2.5147,3.8426-1.6437,6.6153-.7541,8.7278,2.8443,1.7075,2.9085,3.4096,5.8196,5.6202,8.3862,9.0761,10.538,23.9605,10.2239,32.5936-.6649,2.7719-3.4962,5.305-7.2173,9.0392-9.8314.4201-.2941.801-.6664,1.257-.8824.9882-.4682,2.1387-1.0684,3.1118-.4814,1.0015.604.5344,1.8692.4706,2.8579-.0467.7243-.2768,1.4363-.4185,2.155-.9435,4.7853.5413,7.8738,4.8853,10.1658,6.2757,3.3114,13.973,1.9757,18.592-3.4285,2.7092-3.1698,5.1459-6.5719,7.7213-9.8569,1.1355-1.4484,2.3734-2.7948,4.1062-3.5592.5543-.2445.9882-.6148,1.3051-1.1321,1.9002-3.1015,4.8648-5.0508,7.7968-6.9694,3.14-2.0547,6.3601-1.3079,8.6947,1.702,1.7833,2.2991,2.3102,5.0201,2.7451,7.7833,1.0578,6.7193,1.0186,13.2596-2.584,19.3972-.9695,1.6517-1.6951,2.3201-3.7197,1.5298-4.1678-1.627-8.2902-3.3213-12.2501-5.4063-1.772-.9331-3.3242-2.1243-4.6127-3.668-1.5971-1.9134-2.0761-1.9744-3.6048.1002-1.7789,2.4141-3.3708,4.9689-4.9875,7.4986-1.1076,1.7331-2.2303,3.4517-3.6847,4.9124-3.9111,3.9283-8.6725,5.2405-13.9188,3.7353-5.4517-1.5641-8.3204-5.6818-9.4807-11.0877-.2297-1.0701-.3161-2.1827-.6543-3.2148-.4545-1.3873-1.3301-1.7894-2.6887-.8998-2.0636,1.351-3.6544,3.1561-5.1014,5.0989-1.0931,1.4677-2.1068,2.9964-3.1178,4.5232-6.4621,9.7586-23.0358,12.3979-31.8127,2.4483-2.5898-2.9359-4.8824-6.0148-6.8048-9.4056-2.5728-4.5381-4.7607-5.1006-9.3436-2.5808-5.9206,3.2554-9.8833,8.1473-12.2259,14.4245-1.6626,4.4554-3.1475,8.9793-5.5969,13.1087-.9471,1.5967-2.06,3.048-3.3634,4.3156-2.1307,2.0723-5.9084,1.9738-8.6733-.0978-2.5779-1.9316-4.5089-4.4275-5.785-7.3491-2.3273-5.3285-3.9272-10.8514-4.2453-16.7192-.2144-3.9553-.1051-7.8713.5533-11.7741.2446-1.45-.0883-2.4264-1.3683-3.5344-3.2116-2.7801-4.9142-6.5088-5.2865-10.7786-.6315-7.2422.987-14.0979,3.7683-20.7047,3.6375-8.6407,7.3907-17.2327,11.1016-25.8424.3451-.8008.6709-1.6281,1.8249-2.4129ZM176.8007,128.8974c.2973-2.1655-.4475-3.8257-1.3857-5.3725-1.8572-3.0618-5.2311-3.6349-8.102-1.5477-1.0667.7755-1.1966,1.3829-.0378,2.1224,2.9637,1.8911,6.1354,3.3478,9.5256,4.7978Z"/>
    <path class="cls-1" d="M285.1845,132.0942c-1.3502,1.3749-2.0672,3.1124-2.918,4.762-2.2294,4.3225-5.0898,8.0525-9.6452,10.1607-5.3505,2.4763-9.7534,1.6551-13.3171-2.433-1.4161-1.6245-2.071-3.5041-2.0537-5.6456.004-.4982.1213-1.1707-.4418-1.364-.5472-.1879-.8854.4057-1.2216.7745-1.826,2.0024-3.5039,4.1622-5.4828,5.9984-5.5616,5.1608-11.9282,8.7195-19.794,7.3365-7.002-1.2311-11.7702-5.6238-14.5139-12.1634-.9316-2.2204-1.7495-4.4885-2.6902-6.9178-.8252,1.1249-.913,2.3478-1.0931,3.5067-1.1794,7.5892-3.2632,14.8028-7.8524,21.1589-3.6528,5.0592-8.7035,8.1994-14.101,10.9142-4.1848,2.1049-8.4318,4.0885-12.6863,6.0497-.7708.3554-1.9209,1.3264-2.4838.3772-.4956-.8356.6764-1.6495,1.4688-2.1548,5.5278-3.5254,10.2736-7.9857,15.0594-12.4138,7.0584-6.5308,12.7323-13.9757,15.488-23.3225,1.2237-4.1508,1.7416-8.4206,1.8603-12.7835.1687-6.1972-.9003-12.25-1.6027-18.3473-.721-6.2588-1.5925-12.5001-2.3718-18.7523-1.8206-14.6066-4.0411-29.1635-5.4259-43.8244-.2818-2.9834-.8664-5.9544-.9259-8.9388-.0858-4.3032,1.5947-8.1783,3.5746-12.5417,1.2294,2.9884,1.737,5.5566,2.1791,8.0987,1.1905,6.8445,2.3758,13.6969,3.2703,20.5841,1.1191,8.6169,1.7899,17.2924,2.9343,25.9053,1.919,14.4427,2.8618,29.0046,5.3103,43.3787.7408,4.3491,2.1019,8.5613,3.9823,12.535,2.4318,5.1389,10.3516,9.0526,16.3468,8.3912,6.8082-.7511,12.6108-3.5996,17.4894-8.3762,2.1461-2.1012,4.265-4.231,6.4452-6.2961.4755-.4504,1.0387-1.2878,1.8505-.6345.6904.5555.662,1.2982.325,2.1784-2.1587,5.6392.8345,9.7136,6.9474,9.5229,6.8055-.2123,10.8849-4.4154,14.1722-9.7418,1.6919-2.7415,3.2233-5.5954,5.4566-7.9552.5559-.5874,1.1893-1.6599,2.1371-1.0301.7785.5173.1259,1.4908-.0308,2.2467-.4156,2.0055-.9113,3.9953-1.2868,6.0078-.2346,1.2573.0128,2.4538.7384,3.5665,2.1378,3.2782,8.4823,5.2188,12.0274,3.5928.8856-.4062,2.3106-.9538,1.2244-2.1759-3.1158-3.5056-1.8408-7.257-.9039-11.0081.2573-1.03.0817-2.7169,1.11-2.8864,1.0804-.1781,1.335,1.5115,1.9146,2.3955,2.0768,3.1675,2.3029,6.7479,2.0441,10.3694-.2095,2.9322-1.1558,5.7317-1.7944,8.5884-1.2072,5.4-6.3556,7.601-11.4464,6.3239-5.6435-1.4157-8.7861-5.4127-8.8279-11.2651-.0039-.5442.252-1.1624-.4451-1.7519Z"/>
    <path class="cls-1" d="M576.831,15.9571c-2.2982,3.0466-4.1976,6.2241-7.227,8.1418-2.0216,1.2797-4.6051,1.7648-7.0001,2.346-13.8778,3.3678-27.7638,6.7032-41.667,9.9644-19.1908,4.5015-38.097,10.0412-56.951,15.7402-10.8576,3.2819-21.7123,6.6387-32.2699,10.8342-8.7094,3.461-17.6848,6.1915-26.3657,9.7361-3.0661,1.252-5.9634,2.79-8.8947,4.2895-.4897.2505-1.0725.7965-1.5979.3312-.535-.4738-.0385-1.1207.1663-1.6155,1.9344-4.6725,4.3735-8.6381,9.5342-10.751,10.3124-4.2224,20.8433-7.8171,31.287-11.6633,11.8297-4.3566,23.9213-7.8869,36.0251-11.3721,1.4868-.4281,2.1271-.8736,1.5159-2.5345-.4735-1.2869-.5046-2.7302-.8128-4.0856-.8071-3.5491-2.0486-6.7085-6.214-7.5967-1.0585-.2257-2.7135-.7226-2.495-2.0512.2953-1.7968.7438-3.7749,2.6405-4.8386.906-.5081,1.4991-.0656,2.1343.504,3.2882,2.9483,5.3117,6.5814,5.9999,10.9517.1022.6491.2259,1.2954.3636,1.9379.0273.1274.1641.2314.2742.3777.8511-.4989.6389-1.4008.7387-2.1191.487-3.5102,1.3887-6.8938,2.9231-10.092,1.0553-2.1994,2.4877-3.0725,3.8087-2.4037,1.8567.9399,2.6583,3.6541,1.6103,5.5207-.5645,1.0055-1.2761,1.106-2.1032.2718-1.541-1.5542-2.5669-.6937-3.0732.8707-1.3335,4.1206-1.7289,8.4513-2.5869,12.6799-.2775,1.3675.7574,1.0576,1.5727.8321,5.0818-1.4051,10.1608-2.8212,15.2507-4.1965,18.0376-4.8737,36.2871-8.8572,54.4911-13.0387,8.8476-2.0323,17.602-4.4705,26.4003-6.7183.6928-.177,1.3522-.5885,2.5216-.2531Z"/>
    <path class="cls-1" d="M292.3139,178.7768c.8593-1.6466,2.3482-2.5655,3.7806-3.49,6.8451-4.4181,13.3915-9.2293,19.5171-14.6067,5.0938-4.4716,9.4858-9.5764,13.4387-15.0571,5.1635-7.1591,6.8403-15.1415,6.0585-23.918-1.5278-17.1502-2.707-34.3312-4.0855-51.4951-.9854-12.2703-2.0601-24.5334-3.0964-36.7996-.0246-.2915.0069-.6168-.1122-.867-2.2461-4.7204.6704-8.7937,1.6293-13.1097.0999-.4496.3538-.8522.822-.9298.6731-.1115.8468.4765,1.0233.9378,1.6734,4.3748,3.2885,8.7725,5.0034,13.1308,1.5252,3.8761,2.9699,7.7789,4.1419,11.7745.2212.754.8407,1.9264-.2617,2.3249-.9323.337-1.3978-.823-1.9526-1.477-.5864-.6913-.6092-1.8323-1.8089-2.2039-.9975,2.2765-.5335,4.6572-.3721,6.8902,1.1828,16.3668,2.395,32.7338,3.8649,49.0767,1.1156,12.4032,1.2405,24.7601-1.3236,36.9697-2.262,10.7712-6.3913,20.7487-14.7343,28.416-4.8285,4.4374-10.6901,7.1699-16.7866,9.3194-4.3521,1.5345-8.6556,3.1781-12.951,4.8539-.5249.2048-1.051.5454-1.795.2598Z"/>
    <path class="cls-1" d="M273.1271,46.4333c2.2697,2.962,4.1973,5.7077,6.3566,8.2571,11.5944,13.6891,23.6737,26.962,34.88,40.9867,6.7088,8.3961,12.1204,17.4115,14.7998,27.9026,1.3857,5.4257,1.7648,10.9179.8471,16.4716-.0633.3828-.1156.735-.5288.8577-.4942.1467-.901-.0795-1.0792-.5077-.2217-.5328-.3992-1.1095-.4568-1.6812-.8088-8.0261-4.4491-14.9635-8.5396-21.6642-5.7065-9.3479-12.9597-17.5326-20.0315-25.8371-8.969-10.5324-18.525-20.567-26.6017-31.8532-3.7277-5.2091-6.5347-10.9278-9.6857-16.4587-.8283-1.4539-1.4185-3.0523-2.8529-4.1062-.6238-.4583-.7076-1.2611-.7505-1.999-.1567-2.7014-.3162-5.403-.4255-8.1065-.0296-.7309.1095-1.6692.7251-1.9583.6862-.3223,1.0218.635,1.4723,1.0678,5.3861,5.1757,10.7612,10.3629,16.1387,15.5475.6853.6607,1.3841,1.3084,2.0482,1.9899.5672.582,1.2022,1.2203.6421,2.1016-.6261.9851-1.4778.6217-2.3316.2714-1.3177-.5406-2.4765-1.5958-4.6261-1.2819Z"/>
    <path class="cls-1" d="M204.8137,135.9843c-.7031-3.9545-2.2793-7.548-3.8406-11.1642-3.8899-9.0092-10.5328-15.967-17.0275-23.0306-9.9651-10.8379-20.4666-21.1846-29.8766-32.5298-5.434-6.5515-10.3048-13.5074-14.5728-20.8795-.5491-.9484-1.01-2.0333-1.7926-2.747-4.529-4.1301-3.329-9.377-3.1869-14.3134.5132-.3862.7673-.2094.9696-.0184,6.2322,5.8832,13.2566,10.8689,19.2652,17.0049.3578.3653.7395.7185,1.0349,1.1312.5032.703.7098,1.6261.214,2.2675-.648.8382-1.265-.148-1.8676-.3969-1.3189-.5446-3.0756-2.055-3.9215-1.1203-1.09,1.2044.8029,2.509,1.6132,3.5925,4.6168,6.1733,10.0396,11.6481,15.2671,17.2862,9.362,10.0973,19.2535,19.6997,28.1259,30.2561,4.7108,5.605,7.8691,11.9647,9.7204,19.0081,1.367,5.2007,1.1174,10.4068-.124,15.6537Z"/>
    <path class="cls-1" d="M547.9867,52.9284c-11.5379,3.3662-22.9828,6.1714-34.2286,9.66-10.2109,3.1676-20.5382,5.9718-30.5973,9.6103-3.7127,1.3429-7.3002,3.0337-10.9362,4.586-.52.222-1.2009.425-1.1699,1.1436.0302.6995.7036.9274,1.2394,1.0756,1.9028.5262,3.8083,1.0757,5.747,1.429,1.971.3591,1.1396,1.7236,1.0826,2.7361-.0623,1.1069-.2722,2.2926-1.8779,2.104-.5085-.0598-1.0227-.1258-1.515-.2599-2.7249-.7428-6.2967-.4252-7.0112-4.1368-.7399-3.8438,2.0027-7.9187,5.7969-9.6236,9.3829-4.216,19.2141-7.1531,29.0345-10.0838,19.7852-5.9045,39.5852-11.765,59.4428-17.4198,14.6895-4.1831,29.4853-7.9925,44.2216-12.0126,3.798-1.0361,7.5505-2.2388,11.3861-3.3835.0194,2.7704-.8771,3.9765-3.13,4.7118-20.8951,6.82-42.2703,11.9577-63.3677,18.0691-1.6962.4913-2.7232,1.3194-3.5297,2.8895-2.2454,4.3719-4.4184,8.757-5.8859,13.4687-.6639,2.1315-.6885,4.1787.3158,6.1854.5031,1.0052,1.1528,1.9541,2.4245,1.9656,1.3374.0121,1.7636-1.0683,2.2754-2.0667.2651-.517.0446-1.6426.9541-1.4292.8787.2061.9632,1.2097.8263,2.0362-.3657,2.2072-1.2007,4.2298-2.6583,5.9416-1.4488,1.7015-3.8934,1.5501-5.2868-.3184-1.1387-1.5271-1.4943-3.3077-1.5345-5.1812-.1431-6.6543,2.72-12.3492,5.7406-17.988.6812-1.2716,1.4908-2.4745,2.2413-3.709Z"/>
    <path class="cls-1" d="M656.6846,28.1934c.369.4987.597.6981.6897.9478,3.0035,8.0913,6.4208,16.0344,8.7829,24.3553.3305,1.1644,1.0028,2.9375-.0665,3.4302-1.2835.5914-1.7612-1.3102-2.5117-2.2109-.2802-.3362-.4772-.7438-.7688-1.0677-.1781-.1978-.4874-.4452-.6969-.4121-.4371.0691-.4912.5123-.4305.8751.6768,4.0481.2548,8.1654.8727,12.2324.6696,4.4076,1.0842,8.8595,1.4623,13.3046,1.1104,13.0544,2.6894,26.0681,3.3615,39.1609.3192,6.2187.4394,12.4129-.2118,18.6349-.4504,4.3038-1.2659,8.5065-2.3132,12.68-.3294,1.3127-.7543,2.6339-1.7169,3.6039-.6511-.2324-.5775-.6316-.5682-.9779.4036-15.1805-.7999-30.2877-2.1761-45.3793-.9505-10.4248-2.2262-20.8198-3.1966-31.243-.9837-10.5659-1.7664-21.1505-2.6523-31.7256-.0729-.8702-.0219-1.8756-.4406-2.5695-1.442-2.3895-.6723-4.6066.1836-6.8888.7937-2.1163,1.5164-4.2591,2.3976-6.7501Z"/>
    <path class="cls-1" d="M370.3155,48.7446c-2.1332-1.293-2.9545-3.4193-4.338-5.0302-.8311.403-.4867,1.0583-.4487,1.5728,1.6844,22.7896,3.6166,45.5637,4.7555,68.3886.5157,10.3347-.4569,20.5939-3.0435,30.6561-.1091.4244-.2342.8527-.4202,1.2469-.1866.3954-.4641.8436-.9672.7435-.6235-.124-.7242-.6829-.6318-1.2134.3546-2.0347.3018-4.0858.3064-6.1364.0319-14.158-1.2505-28.2423-2.3192-42.3409-1.4507-19.1379-2.8323-38.2811-4.1878-57.4259-.2113-2.9849.0154-6.0011-1.0971-8.8786-.3326-.8602.0336-1.7353.3211-2.5687.8357-2.4228,1.6648-4.8481,2.5312-7.26.1809-.5036.1193-1.3529.9023-1.2991.671.0461.7475.8165.9285,1.3515,1.5952,4.7149,3.3507,9.3764,4.5956,14.2069.8587,3.3321,1.8053,6.6416,2.7294,9.9565.3503,1.2566.5501,2.5131.3834,4.0303Z"/>
    <path class="cls-1" d="M50.6905,66.269c-2.1103-.4023-5.249.1428-6.1949-2.933-1.0041-3.2652.1183-6.3865,2.3183-8.958,1.5489-1.8105,3.7227-2.8697,5.8528-3.8218,11.3016-5.0518,22.6963-9.8569,34.3945-13.9626,15.6874-5.5058,31.2562-11.3496,46.8809-17.0344,4.4039-1.6023,8.8241-3.1595,13.2407-4.7266.4652-.1651,1.0149-.5514,1.4382-.1764.5265.4663.1215,1.082-.0479,1.6222-.4007,1.2779-1.2442,2.0611-2.5182,2.5326-22.3916,8.2861-44.7683,16.6124-67.1621,24.8926-9.352,3.458-18.4665,7.4733-27.5395,11.5872-1.3245.6006-2.5491,1.441-3.7661,2.2512-.6496.4324-1.4846.9239-1.3287,1.8548.1716,1.0247,1.1717,1.2769,2.0071,1.4483,1.4303.2934,2.8903.5632,4.3428.5916,1.3866.0272,1.5087.59,1.3122,1.7553-.4977,2.9525-.6577,3.1797-3.23,3.077Z"/>
    <path class="cls-1" d="M267.2999,99.1584c-3.0131-.8678-5.6853-.7388-8.3567-.7681-2.7169-.0298-5.2607,1.1013-7.9976,1.2038.9909-5.0782,6.2428-10.2464,11.0329-10.878,4.874-.6426,9.6498.0589,14.3296,1.3913,2.4294.6917,2.7629,1.6942,1.9281,4.1258-.8545,2.4891-2.8521,4.0905-4.5925,5.8075-3.1398,3.0975-6.5574,5.7733-11.3006,6.1847-3.2701.2836-6.4948,1.0778-9.7461,1.6054-.5326.0865-1.3004.3699-1.5619-.3128-.2995-.7818.4209-1.2011,1.013-1.4575,1.4765-.6393,2.966-1.2632,4.49-1.7748,3.6801-1.2355,6.996-3.1877,10.7619-5.1273Z"/>
    <path class="cls-1" d="M97.4006,173.4691c-.7278-.0074-.701.6259-.9336,1.0372-1.1157,1.9731-2.2215,3.9521-3.3721,5.9047-.3166.5372-.6744,1.2526-1.5167.6361-2.8208-2.0646-5.8931-3.7778-8.5062-6.1356-.7711-.6958-.876-1.3661-.4584-2.3188,1.2095-2.7596,2.7631-5.3134,4.3914-7.8356.6858-1.0623,1.2393-.8164,2.0725-.1535,2.5187,2.0042,5.1283,3.8941,7.6513,5.8931.924.7321,1.4121.6318,2.0264-.3811,1.175-1.9373,2.5362-3.7611,3.73-5.6879.6276-1.0129,1.1837-1.2938,2.2427-.5302,2.6699,1.9251,5.3853,3.7889,8.1183,5.6238.8156.5476.7799,1.1017.3713,1.8403-1.5232,2.753-3.0571,5.5007-4.5269,8.2822-.444.8402-.8123.7841-1.4742.2613-2.9166-2.304-5.8266-4.626-9.3406-6.0073-.1862-.0732-.3186-.2832-.4752-.4287Z"/>
    <path class="cls-1" d="M58.1406,92.7213c4.5301-2.9449,9.1692-5.687,13.4053-9.0216,6.7256-5.2944,13.8405-10.1021,20.1122-15.9619,1.4387-1.3442,2.6519-2.9272,4.0077-4.3637.708-.7501.8787-1.3392-.2499-1.7866-4.5574-1.8064-4.9621-3.883-3.026-8.5992.8975-2.1861-.2427-4.4902,1.0785-6.466.1972-.295.2347-.6918.3872-1.0225.9857-2.1374,1.519-2.3803,3.3725-.8429,3.3246,2.7575,6.3102,5.8992,9.1179,9.1705,1.7342,2.0206,1.6197,7.0102.102,9.1814-.9818,1.4045-2.1761,1.9582-3.9641,1.2785-3.9679-1.5083-4.0056-1.4492-6.2805,1.9834-2.2559,3.4037-5.2515,6.0818-8.3871,8.6239-4.837,3.9215-9.8175,7.6569-15.0745,10.9931-4.5615,2.8949-9.7455,4.5057-14.6013,6.8335ZM100.8804,53.2584c-.2521.2277-.5041.4553-.7562.683-.4712,4.3698.045,5.1392,3.9336,5.8473.4919.0895,1.071.285,1.3843-.246.3-.5085-.0561-.9935-.3805-1.3802-1.3806-1.6457-2.7853-3.2712-4.1812-4.9041ZM95.4423,52.8112c-1.1237.1376-1.3011,1.1151-1.5665,1.8944-.1977.5806,2.1454,2.2515,2.9562,2.1897.7662-.0584,1.0188-.5786.9173-1.2173-.2179-1.3706-.7642-2.5287-2.307-2.8669Z"/>
    <path class="cls-1" d="M230.4964,87.2422c-.132-6.1157-1.5656-11.6244-2.9807-17.1352-1.1661-4.541-2.2771-9.0998-3.9691-13.4861-.9911-2.5693-.7973-5.1936-.2863-7.8001.5321-2.7145,2.6612-3.8739,4.9794-4.7888.6577-.2596,1.4935-.2284,1.8182-1.034.0438-.1086-.1538-.4275-.3009-.4812-.8596-.3139-1.6785-.3136-2.5057.2267-.5963.3894-.7372,1.2997-1.8291,1.3928.4002-2.232.675-4.4731,2.3626-5.9949,1.2779-1.1523,1.158-2.2367.5974-3.512-1.0024-2.2803-2.0897-4.5239-3.0624-6.8164-.5395-1.2716-1.6928-1.5049-2.7682-1.9424-3.7857-1.5402-4.0882-2.259-2.5293-5.8892.7506-1.7479,1.8184-2.0752,3.4469-.9799,1.701,1.144,2.756,2.8049,3.5397,4.6609,1.0072,2.3855,2.0202,4.7685,3.1757,7.4947.8926-1.4705.7763-2.656.8767-3.7812.2813-3.1516.7103-6.2676,2.0406-9.1809.2709-.5933.5322-1.2542.9861-1.6861.7278-.6926,1.3873-2.1853,2.6315-1.2475,1.0962.8263,2.3061,1.9217,1.6885,3.6913-.1422.4075-.2783.8402-.292,1.2653-.052,1.608-.8467,1.4517-1.8547.8182-1.9445-1.222-2.4233-1.0642-2.8964,1.222-.7571,3.6583-.5223,7.4887-1.6549,11.0653-.8695,2.746-.7722,4.6839,2.105,6.2978,1.9139,1.0735,3.5778,2.8887,2.7581,5.6601-.4412,1.4919-1.183,2.3626-2.8283,2.5998-2.1521.3103-4.3846-.0717-6.4664.9886-1.9263.9812-2.7385,2.2052-2.0688,4.3947,1.9507,6.3773,3.6131,12.8341,5.1473,19.3246.9002,3.8085,1.1025,7.6779,1.1202,11.5653.0042.9384-.0755,1.896-.9804,3.0877Z"/>
    <path class="cls-1" d="M277.2932,156.4687c.5846.9449.2971,1.6659.1684,2.3469-.2847,1.5064.4551,2.3814,1.7081,2.9423,1.3307.5956,2.3712.542,2.203-1.3265-.1649-1.8314.9604-3.1451,1.6741-4.7718,2.3141,2.2439,1.3539,4.7579.6935,7.0191-1.3143,4.5-4.1053,5.3933-8.0473,2.7253-.9209-.6232-1.286-.1877-1.7922.3824-2.9416,3.313-6.3257,4.5384-10.5827,2.4866-1.1948-.5758-2.5869-.224-3.879.1536-3.6185,1.0574-6.4541,3.3424-9.2689,5.7181-5.2561,4.4361-10.3898,9.0381-16.9592,11.6001-5.851,2.2818-11.9304,3.5045-18.1104,4.3556-.4781.0658-.9789-.0328-1.7017-.0656.6445-.9831,1.5508-1.0895,2.306-1.3907,4.8289-1.9256,9.6433-3.8913,14.5102-5.7168,7.6981-2.8877,13.9965-7.8782,20.1157-13.1571,2.7901-2.4069,5.7491-4.5539,9.2413-5.8243,2.3037-.838,4.5365-1.2777,6.9501.1126,2.2699,1.3075,5.8163.0038,7.3467-2.2885,1.1245-1.6842,1.8267-3.6462,3.4244-5.3014Z"/>
    <path class="cls-1" d="M463.6139,166.6199c-.1254.3104-.3225.7816-.5066,1.2578-1.0017,2.5917-1.9252,5.2174-3.0347,7.7621-.4782,1.0969-.1604,1.5625.744,2.0727,2.229,1.2574,4.3919,2.634,6.6412,3.8522,1.0855.5879,1.5445,1.2492,1.0592,2.4443-1.1558,2.8463-2.3187,5.6902-3.4252,8.5557-.355.9194-.684.7988-1.4216.3491-2.8707-1.75-5.7757-3.4483-8.7236-5.0643-.9636-.5283-1.2751-1.0524-.8283-2.0672.8835-2.0066,1.674-4.0551,2.5885-6.047,1.608-3.5022,1.6211-3.4687-1.524-5.5245-1.7131-1.1198-3.3557-2.347-5.0574-3.4849-1.1498-.7689-1.4036-1.7155-.9424-3.0093.9098-2.5521,1.9204-5.0565,3.0999-7.4966.3792-.7846.6948-1.1671,1.6083-.5612,3.0462,2.0205,6.1401,3.9693,9.2182,5.9417.315.2019.621.3945.5047,1.0195Z"/>
    <path class="cls-1" d="M382.5117,103.8246c.8931-2.9394,1.6121-5.5491,2.4857-8.1059.7244-2.1202.0789-3.4629-1.8814-4.4406-1.6978-.8468-3.265-1.9538-4.9569-2.8141-1.7569-.8933-2.1471-2.2258-1.6879-4.0102.7171-2.7866,2.2311-5.2387,3.2632-7.8922.2479-.6373.5946-.7314,1.1307-.2388,2.3375,2.1478,5.2768,3.3932,7.8664,5.1708,1.2975.8906,1.5138,1.759.9654,3.1097-.9347,2.3019-1.6811,4.6862-2.7188,6.9382-.7677,1.666-.2619,2.4394,1.2526,3.1781,2.4945,1.2168,4.8749,2.6652,7.3479,3.9289,1.5486.7913,2.0785,1.9087,1.6466,3.5784-.6614,2.5569-1.5649,5.023-2.647,7.4275-.3686.819-.7255,1.3182-1.7917.679-3.0077-1.8032-6.0909-3.4804-9.1423-5.2109-.6347-.36-1.3825-.6614-1.1325-1.2979Z"/>
    <path class="cls-1" d="M56.9225,84.6919c-.5915,2.645-1.4065,5.2354-2.6751,7.6311-.6934,1.3094-.7462,1.8766.8584,2.453,2.6749.9609,5.2123,2.2981,7.8426,3.3927,1.3347.5554,1.8172,1.312,1.2252,2.7085-1.1125,2.624-2.2455,5.246-2.8578,8.0473-.2555,1.1689-.8404,1.0448-1.7459.6552-3.1443-1.3526-5.9672-3.4393-9.4085-4.1158-1.1136-.2189-.5674-1.0059-.4239-1.5571.6637-2.5506,1.4292-5.0863,2.6354-7.427.7844-1.5222.3141-2.1716-1.0626-2.8467-2.5582-1.2545-5.0257-2.6927-7.5551-4.008-1.169-.6079-1.4719-1.3975-1.103-2.6843.7939-2.7688,2.176-5.2615,3.4019-7.8332.4305-.9031.8979-.9368,1.7098-.4897,2.6249,1.4455,5.2825,2.8317,7.9298,4.2364.7404.3929,1.4223.8153,1.2288,1.8376Z"/>
    <path class="cls-1" d="M603.3012,107.805c-.2859-.2134-.6875-.5223-1.0984-.8181-2.0163-1.4511-4.0409-2.8909-6.0509-4.3506-1.1813-.8579-2.0267-.7279-2.8466.5897-1.1567,1.859-2.5121,3.5936-3.7544,5.4007-.6119.8901-1.2085,1.0444-2.1521.3734-2.6206-1.8635-5.3013-3.6424-7.9611-5.4506-.8313-.5651-1.1183-1.2036-.6534-2.2217,1.2908-2.8266,3.4083-5.0988,5.0345-7.6977.5762-.9208,1.1478-.1945,1.6353.1335,2.4868,1.6732,4.989,3.3278,7.4097,5.0933,1.2755.9303,1.9656.7019,2.7173-.6399,1.1412-2.0367,2.496-3.9526,3.7058-5.9527.5591-.9244,1.0017-.9439,1.8621-.2692,2.4138,1.893,4.8993,3.6976,7.4062,5.4667.7939.5603,1.1559,1.1207.6174,1.9823-1.6655,2.6646-3.3571,5.3129-5.0436,7.9644-.1513.2379-.2956.5204-.8279.3963Z"/>
    <path class="cls-1" d="M402.8881,61.3017c7.6038-5.0924,15.3059-9.8818,22.6837-15.1655,4.2812-3.0661,8.5849-6.1124,12.2537-9.9473,1.0057-1.0512,1.4868-1.6406-.3205-2.4296-2.6414-1.1531-2.9497-2.0389-2.4203-4.8572.2577-1.3722.6055-2.7201,1.3175-3.9363.6033-1.0305.9966-2.0555.7971-3.3157-.1521-.9614.3649-1.8431.8727-2.6599,1.1142-1.7922,1.615-1.8047,3.1816-.3784,3.0559,2.7824,5.3707,6.1819,7.8679,9.418,1.9998,2.5916,1.9091,6.4738.0808,9.2615-1.1332,1.7277-2.6014,1.8523-4.3872,1.0146-1.3585-.6372-2.4439-2.5018-3.9338-1.939-1.2057.4554-1.8933,2.1462-2.961,3.1251-8.3377,7.6442-16.9557,14.8696-27.9867,18.4463-1.2419.4027-2.3861,1.1083-3.5729,1.6791-1.1593.5576-2.3152,1.1225-3.4725,1.6842ZM442.0148,30.9326c-.2953-1.7829-.5042-3.1272-1.1784-4.332-.3617-.6465-.8588-1.2062-1.739-.5888-1.5198,1.066-1.4489,2.6332.1837,3.492.7575.3985,1.5171.7932,2.7337,1.4288ZM448.0111,33.9021c.0821-.5715-.5752-1.6977-1.768-2.8984-.3684-.3709-.7104-1.1991-1.3247-.7439-.4593.3402-.7333,1.0885-.8442,1.6996-.1283.707,2.764,2.777,3.4663,2.586.3377-.0919.4269-.3463.4707-.6433Z"/>
    <path class="cls-1" d="M556.7469,194.9346c2.4822-1.037,4.9588-2.088,7.448-3.1082,5.8587-2.4013,10.842-6.0694,15.2764-10.5314,3.0493-3.0682,6.0595-6.1832,10.0432-8.0865,2.5087-1.1986,5.0456-1.8115,7.8509-.913,3.6255,1.1612,6.1169.0017,7.9764-3.4198.7801-1.4353,1.3222-3.036,2.6208-4.2512.7124.8164.396,1.6503.477,2.4046.1683,1.5664,1.491,2.6453,3.0142,2.4439.8313-.1099,1.1366-.6084,1.0374-1.3722-.2254-1.7347.832-2.9725,1.5195-4.4905,1.6546,2.8283,1.1193,7.1442-1.0722,9.1963-1.55,1.4513-3.4271,1.7938-5.2835.8485-1.2682-.6458-2.041-.6133-2.9676.504-2.5325,3.0539-5.6084,4.0477-9.5948,2.9112-3.3859-.9653-6.4987.3613-9.2107,2.4879-.9777.7666-1.9691,1.5619-2.7686,2.5021-5.8288,6.8538-13.5729,10.2466-22.0537,12.3416-1.3962.3449-2.7876.7091-4.1811,1.0644l-.1316-.5314Z"/>
    <path class="cls-1" d="M124.4862,183.3116c.5723-2.2671,1.0422-4.0804,3.3694-5.3879,9.7817-5.4958,20.016-10.0188,30.1777-14.7117,6.2452-2.8842,12.4394-5.8794,18.829-8.4396.4449-.1782.9154-.7546,1.3747-.3263.4638.4323.223,1.0927.0832,1.6642-.4027,1.6466-1.5727,2.6001-3.0129,3.2722-7.4906,3.4957-15.0118,6.9265-22.4777,10.474-8.9747,4.2646-18.1932,8.0689-26.4299,13.7584-.5035.3478-1.0405.9554-1.742.5486-.1945-.1128-.1386-.6575-.1717-.8519Z"/>
    <path class="cls-1" d="M439.5125,181.1208c-.5795,3.2261-2.4253,4.8184-4.4382,6.314-4.4685,3.3201-9.4291,4.9762-15.0172,4.4081-4.56-.4636-6.004-2.8274-4.3423-7.1028.9013-2.319,1.8915-4.6164,3.3188-6.6751.5794-.8358.8313-1.4575-.1974-2.1633-1.3572-.9314-1.493-2.1738-.7777-3.6474,1.0952-2.2561,2.3138-4.4192,4.1468-6.1609.8761-.8325,1.9302-1.5466,3.1266-.7023,1.2992.9168.5566,2.1098.1338,3.1688-.4783,1.1981-1.1562,2.0699-2.6486,1.2352-.7429-.4155-1.4112-.2429-1.8796.521-.5133.8373.2186,1.1742.6496,1.6189,1.1728,1.2097,2.5486,1.3975,4.0091.6374,1.5577-.8107,3.063-1.7216,4.6073-2.559.3013-.1633.7641-.3631.9994-.2439.4807.2434.2667.7774.1371,1.1727-.7181,2.19-1.5724,4.1983-4.061,5.068-3.8288,1.3382-7.0236,3.5053-9.0727,7.2057-.9009,1.6268-.6143,2.5457.9299,3.3333,1.7645.8999,3.649,1.051,5.5667.9109,4.1091-.3002,7.854-1.6691,11.2669-3.9654,1.0253-.6899,2.0532-1.376,3.5427-2.3739Z"/>
    <path class="cls-1" d="M559.9671,167.2779c-.4036,2.5501-1.0712,4.1949-3.4193,5.2031-13.525,5.8073-26.838,12.0842-40.0568,18.558-1.3778.6747-2.6654,1.5321-4.0071,2.2828-.8692.4863-1.2899.247-.9988-.7585.5866-2.0262,1.1987-3.8052,3.4366-4.96,12.0547-6.2202,24.6185-11.3088,36.9493-16.9121,2.5674-1.1667,5.1973-2.1958,8.0961-3.4133Z"/>
    <path class="cls-1" d="M86.7435,109.9992c-.954-.3292-1.0929.885-2.0791.6026.2894-1.9876.8406-3.9068,1.7137-5.7344.2715-.5682.8021-.8783,1.439-.8215.7641.0681.7993.74.9395,1.2982.5794,2.3077.0377,4.5222-.7004,6.6718-.5874,1.7107-.5201,3.1256.9987,4.3077,1.4289,1.1121,2.9395,1.3335,4.4819.3763,1.5388-.955,2.897-2.1476,2.5342-4.2214-.2764-1.5797-.4845-3.2566-1.1873-4.6573-1.1393-2.2706-.3852-4.1884.4256-6.3583,1.373,1.0946,1.6231,2.5644,1.9341,3.9558.3986,1.7834.5946,3.612.9892,5.3965.5124,2.3174,1.9602,3.8938,4.1875,4.6926.8201.2941,1.7685.5502,2.4858-.179.655-.6658.3632-1.5531.0973-2.2869-.5727-1.5806-1.2871-3.1091-1.8953-4.6776-.8636-2.2271-.9355-4.4153.5964-6.7034,1.1403,3.1982,2.7756,6.0284,3.5218,9.2123.4464,1.9046.2179,3.7983-.364,5.6327-.6071,1.9141-1.7547,3.4626-3.8124,3.8816-2.0089.4091-3.6468-.6491-4.7468-2.1581-1.1541-1.5831-1.5708-1.2734-2.4612.2137-1.7018,2.8424-4.0224,3.8607-6.3499,3.1298-2.4509-.7697-3.8948-3.3056-3.7891-6.5145.0578-1.7538.7488-3.3876,1.0409-5.0591Z"/>
    <path class="cls-1" d="M580.691,62.3614c.341-1.8093.7422-3.5,1.5621-5.0707.4131-.7914.8353-1.6443,1.9319-1.4605,1.0628.1781,1.2784,1.1236,1.4666,1.9764.3238,1.4676.0554,2.9103-.3217,4.3395-.2052.7782-.4589,1.5596-.5303,2.3539-.1802,2.0042,1.0766,3.0315,2.9989,2.5302,3.5765-.9329,4.6733-3.2752,3.3217-7.0939-1.4349-4.0541-1.4494-4.6501-.1055-7.6684,2.2438,2.6036,2.9494,5.704,3.4918,8.8612.2622,1.5264.7284,2.8429,2.4367,3.2915.8524.2238,1.8507.6693,2.5026.0083.7213-.7313.0437-1.6667-.3671-2.3874-1.521-2.6686-2.8626-5.3391-1.3998-8.4877.087-.1874.2025-.3617.52-.9219,1.5279,4.0583,3.9079,7.4677,4.1995,11.6695.1327,1.9107-1.4141,4.8216-2.9331,5.3087-1.9767.6339-3.8164-.0266-5.2027-1.4412-.9497-.969-1.3086-.6796-1.9557.2074-.9532,1.3066-2.0953,2.4481-3.6032,3.1488-2.4745,1.1499-4.2487.5213-5.3916-1.9387-.8736-1.8802-.6769-3.8563-.5021-5.8321.054-.6104.6928-1.3083-.0185-1.8186-.669-.48-1.1306.5268-2.1002.4259Z"/>
    <path class="cls-1" d="M428.1519,99.4386c0-1.353.0077-2.7061-.0014-4.0591-.0281-4.2078,1.0433-8.1157,3.2371-11.702.6598-1.0785,1.5485-2.3495,2.9083-1.8381,1.5056.5663,2.5656,1.9757,2.9907,3.5674.3746,1.4027.0119,2.8079-1.1308,3.8136-.8989.7911-1.2961-.2721-1.7332-.7048-1.2541-1.2416-2.0964-.9805-2.7955.5367-.6883,1.4938-1.0125,3.0742-1.0173,4.6896-.0114,3.8257-.6421,7.5849-1.0925,11.3641-.0515.4326-.0907.8988-.2814,1.2757-.3307.6536-.7766,1.3348-1.5692,1.4028-.8624.0741-.9511-.7894-1.2169-1.3461-1.1983-2.5094-2.4597-4.9954-3.509-7.5672-1.0584-2.5942-2.6097-4.4243-5.4758-5.1093-1.0778-.2576-2.7937-.4617-2.6625-2.113.1567-1.9729.8794-3.8692,2.312-5.3329.5359-.5475,1.2305-.1473,1.825.1801,1.6597.9139,2.8667,2.2574,3.737,3.9172,1.587,3.0265,3.1625,6.0591,4.7428,9.0891.2442-.0213.4884-.0425.7326-.0638Z"/>
    <path class="cls-1" d="M548.5056,102.6105c.7951-2.0477.8073-3.4409.8873-4.8228.2193-3.7838,1.0426-7.406,3.0355-10.6732.7096-1.1633,1.4377-2.6048,3.2266-1.8986,1.6659.6577,2.1616,2.108,2.0383,3.7603-.0915,1.2244-.286,2.4655-1.3962,3.2566-1.0291-.5076-1.0514-2.3611-2.4555-1.9418-1.3392.4-1.6341,1.829-1.8046,3.0531-.5854,4.2054-1.0773,8.4237-1.6096,12.6365-.0734.5812-.1486,1.1642-.267,1.7373-.2219,1.0727-.8053,2.1285-1.8523,2.2256-1.1994.1112-1.2048-1.2488-1.539-2.08-.4906-1.2203-.9781-2.4502-1.3404-3.7123-1.1576-4.0315-3.3342-7.0479-7.635-8.1416-1.0918-.2776-2.2342-.875-2.0426-2.2087.2358-1.6417.5495-3.4773,2.0548-4.4281,1.1889-.751,2.3666.1787,3.3971.9046,2.8474,2.0057,4.0984,5.0839,5.4392,8.1009.5456,1.2276,1.083,2.459,1.8633,4.2322Z"/>
    <path class="cls-1" d="M80.0175,27.6982c.3702-2.9299.7014-5.4339.9993-7.9418.306-2.5764,1.1486-4.9903,2.2646-7.3035.6155-1.2759,1.4645-2.4689,3.1309-2.3221,1.2669.1116,2.2216.9185,2.6492,2.055.5507,1.464-.2068,2.8374-.7893,4.1373-.3318.7405-.9059.3784-1.4457.0107-2.3968-1.6322-3.4906-1.155-3.9173,1.811-.3331,2.3151-.5591,4.6519-.6981,6.9871-.1578,2.6502-.8511,5.1952-1.3449,7.7787-.1302.6812-.3004,1.5978-1.1504,1.6854-.8537.088-1.1733-.7485-1.4669-1.4162-1.1185-2.5431-2.2333-5.0881-3.3175-7.6459-.5038-1.1885-1.3475-1.8692-2.6246-2.0455-.3595-.0496-.7167-.1554-1.0597-.2779-3.9329-1.404-4.8624-4.8517-2.182-8.062.8893-1.0651,1.756-.7341,2.6524.0026,2.9406,2.4166,5.2449,5.2904,6.5156,8.9266.3951,1.1306.684,2.3236,1.7846,3.6207Z"/>
    <path class="cls-1" d="M126.9814,93.5526c.5587-3.8533.7677-7.3574,1.8867-10.6885.4666-1.389.8371-2.8232,1.6438-4.058.6882-1.0534,1.5867-2.2862,2.981-1.5504,1.4115.7449,2.5772,1.9695,2.1481,3.8856-.1116.4985-.3241.9744-.435,1.473-.2778,1.2489-.602,1.7376-1.7754.5443-1.6819-1.7104-2.5176-1.3906-3.2949.9856-1.0362,3.1681-.9326,6.5111-1.5273,9.7469-.318,1.7299-.599,3.4686-1.2944,5.0952-.1895.4433-.5098,1.0854-.8593,1.1495-.6204.1138-.9897-.5575-1.2466-1.0629-.3963-.7795-.6779-1.6173-1.0088-2.4301-.6895-1.6942-1.3273-3.4118-2.0833-5.0758-.7965-1.7529-1.7573-3.3905-3.9565-3.6804-.2765-.0365-.5322-.2361-.796-.3633-3.3705-1.624-3.9718-4.8676-1.2851-7.546,1.5071-1.5025,2.7734-.2332,3.7113.8279,2.4955,2.8236,4.2451,6.1187,5.6255,9.619.3682.9338.4646,2.0013,1.5663,3.1281Z"/>
    <path class="cls-1" d="M597.8111,84.3082c-.0521.1391-.1238.4265-.26.6792-1.3888,2.5769-2.7932,5.1454-4.1818,7.7224-.515.9559-1.0196,1.2036-2.0186.4247-2.3653-1.8442-4.8123-3.587-7.2733-5.3034-.9948-.6938-1.4072-1.398-.7438-2.5375,1.4355-2.4655,2.8429-4.9475,4.2574-7.4253.3593-.6294.7025-1.0718,1.5133-.4878,2.6721,1.9247,5.3823,3.7963,8.0663,5.7045.3516.25.6905.5622.6405,1.2233Z"/>
    <path class="cls-1" d="M312.6304,27.5756c-.5254,2.7227-1.3011,4.6494-3.7125,5.7037-4.0828,1.785-7.8583,4.1344-11.3352,6.9747-.1427-.254-.2996-.4168-.2654-.4894,1.3175-2.7948,1.636-5.2231-1.4644-7.3004-1.3928-.9331-1.3399-2.7575-.6155-4.4282,1.3489-3.1109,3.0883-5.8242,6.3882-7.1693.9344-.3808,2.0079-1.0912,2.8374-.1349.8265.9528,1.7728,2.0205,1.4202,3.5066-.1343.5661-.2913,1.1442-.5526,1.6585-.3621.7127-.7878,1.6562-1.5667,1.7117-.9249.0659-.7287-1.0888-1.0345-1.6905-.3376-.6641-.532-1.4892-1.4853-1.2851-1.3714.2936-2.7001.7745-3.5006,2.0468-.4967.7894.0601,1.3695.538,1.94,1.9793,2.3626,4.6949,3.0427,7.6999,2.113,2.2473-.6953,4.0579-2.2775,6.6489-3.1572Z"/>
    <path class="cls-1" d="M192.2986,37.4503c-.3605,1.3472-.98,2.5835-2.481,3.2681-3.729,1.7007-7.4334,3.4561-11.1338,5.2189-5.7391,2.734-11.6791,5.0942-16.7996,8.9897-.2645.2012-.7485.4059-.9815.2954-.4779-.2267-.3051-.7499-.1649-1.1569.709-2.0572,1.3775-3.8986,3.6549-5.1029,8.6838-4.5921,17.7861-8.2642,26.6351-12.4855,1.2066-.5756,1.4448-.3765,1.2709.9734Z"/>
    <path class="cls-1" d="M249.9315,53.9183c-.8756,2.9988,1.4987,3.7466,3.0089,5.0694,5.2329,4.5841,3.7571,12.195-2.805,14.4545-3.434,1.1824-6.2107-.9165-5.966-4.5531.1989-2.956,1.225-5.7042,2.3537-8.3987.9131-2.1799,1.6888-4.4425,3.4085-6.5721ZM249.3447,69.2035c1.0538-.01,1.9802-.4365,2.8856-.9053,1.7986-.9313,1.95-1.6674.6464-3.1627-.3325-.3813-.7215-.7169-1.1062-1.0486-3.6248-3.1254-4.1278-2.9576-5.1578,1.7082-.4567,2.0689.6501,3.4511,2.732,3.4084Z"/>
    <path class="cls-1" d="M292.5277,57.8281c.4245-3.1426,1.2281-5.3611,3.9827-6.7209,3.9279-1.9389,7.6331-4.3247,11.4684-6.4568,3.8255-2.1267,7.6941-4.1759,11.9595-6.484-.4076,2.4256-.6623,4.3944-2.8719,5.4919-7.149,3.551-13.9595,7.6989-20.7601,11.8623-1.175.7193-2.3516,1.4361-3.7786,2.3074Z"/>
    <path class="cls-1" d="M159.0681,13.4021c9.5202,5.0573,15.1277,22.3375,9.9013,31.0475,0-2.1078-.0129-4.0313.0023-5.9546.0621-7.8968-3.3022-14.1166-9.3278-19.0187-2.0342-1.655-2.1717-2.8135-.5757-6.0741Z"/>
    <path class="cls-1" d="M236.1184,92.6056c.8894,1.5791.0603,2.7854-.5492,3.964-1.9159,3.7043-3.782,7.4217-4.8839,11.4703-.4193,1.5406-.5023,3.022.5638,4.3759,1.1872,1.5076,2.1485,1.4989,3.2543-.1095.4808-.6993.8683-1.4629,1.3505-2.2867,1.3186,3.0858-.7516,7.5361-3.6907,8.2661-1.1831.2938-1.983-.3551-2.6463-1.1502-1.4325-1.7173-2.0208-3.7762-1.7147-5.9462.9838-6.9757,4.6739-12.7636,8.3162-18.5837Z"/>
    <path class="cls-1" d="M309.0628,69.7543c.4489-3.5769,1.9382-6.4817,4.9432-8.3308,1.2554-.7725,2.211.1904,2.8755,1.2369,1.4948,2.3541,1.27,4.9484.6938,7.4511-1.2589,5.4685-4.7558,9.4582-9.0222,12.8463-.5074.4029-1.3467,1.1476-1.9141.4642-.7248-.8728.3709-1.4234.8858-1.9224,2.4208-2.3463,4.7351-4.7777,6.7077-7.5232,1.2949-1.8021,1.5734-3.7753.9293-5.8387-.6041-1.9353-1.6986-2.2498-3.2776-.986-.9965.7976-1.8847,1.7305-2.8215,2.6027Z"/>
    <path class="cls-1" d="M58.8545,166.0709c.7159-2.6571,1.4288-5.0603,3.2951-6.9384,1.3143-1.3227,2.6268-1.1117,3.7809.2075,1.0486,1.1986,1.4988,2.6503,1.5429,4.2452.1006,3.6433-.9615,6.9348-3.0198,9.9053-2.1049,3.0378-5.0207,5.1707-8.3347,7.554.0787-2.0052,1.1302-2.9481,2.0181-3.9316,2.0083-2.2243,4.226-4.2607,5.9129-6.7697,1.0477-1.5583,1.4043-3.1998.7673-4.9965-.3561-1.0043-.9107-1.8774-2.0469-2.0869-1.1476-.2116-1.6843.6487-2.2506,1.4291-.3675.5065-.6201,1.1555-1.6652,1.3819Z"/>
    <path class="cls-1" d="M627.6311,192.2129c.3022-1.4381,1.2886-2.3959,2.1645-3.4198,2.1872-2.5568,4.4324-5.0657,6.5657-7.6664,1.096-1.336,1.7078-2.9147,1.2839-4.7063-.2456-1.0381-.7389-1.9257-1.8181-2.31-1.1753-.4184-1.7063.5017-2.3547,1.1746-.4406.4572-.6736,1.1643-1.4489,1.2378-.129-2.2519,2.25-6.2472,4.2033-7.0634,1.4377-.6007,2.4115.0582,3.1237,1.2342,1.0523,1.7375.9805,3.6087.6196,5.532-1.0084,5.3738-3.9936,9.5265-8.0659,12.9604-1.3106,1.1051-2.4873,2.4334-4.2732,3.0269Z"/>
    <path class="cls-1" d="M177.804,81.3671c.5558-1.6851,1.6312-2.5995,2.5106-3.6245,2.1104-2.4599,3.8399-5.1422,5.0852-8.1386.6978-1.6789.8067-3.4086.4493-5.1608-.1597-.7828-.4345-1.652-1.3783-1.79-.8782-.1284-1.5068.4302-1.9724,1.1405-.4383.6686-.8648,1.3448-1.5396,1.9486-.2824-1.6618.6869-3.0418,1.3217-4.4301.809-1.7692,1.7772-4.1001,4.1338-3.4255,2.0323.5818,2.0246,2.8962,2.0408,4.8537.0597,7.2474-3.113,12.9135-8.449,17.547-.3846.334-.8091.6275-1.2407.8991-.1579.0994-.3905.0802-.9613.1805Z"/>
    <path class="cls-1" d="M457.8351,70.6539c.141,1.5315-.7153,2.6557-1.3776,3.8271-1.4074,2.4892-2.6718,5.036-3.734,7.6936-.6594,1.6497-.4015,3.1637.3895,4.6362,1.2132,2.2585,1.8169,2.2905,3.4441.2798.3048-.3766.5388-1.0438,1.1541-.7628.6125.2796.2996.913.1625,1.3601-.3215,1.0481-.7123,2.0759-1.0987,3.1029-.5597,1.4875-1.6003,2.569-3.1968,2.6348-1.4962.0617-2.2484-1.2435-2.9306-2.3565-.6581-1.0735-1.0096-2.3249-.8773-3.5778.6923-6.5526,3.9251-11.9148,8.0647-16.8375Z"/>
    <path class="cls-1" d="M620.5859,67.273c.4186,1.2724-.405,2.2459-.932,3.2287-1.0739,2.0025-2.1592,3.9926-2.9986,6.1094-.7542,1.9022-.6085,3.7256.4196,5.4811,1.0311,1.7605,1.6388,1.7839,2.8144.1646.3507-.483.4951-1.5288,1.3235-1.0907.662.3501.2201,1.218.0071,1.7991-.5781,1.5774-1.072,3.2136-2.1529,4.5449-1.2797,1.576-2.5313,1.6014-3.8177.0509-1.8031-2.1729-2.2506-4.6394-1.6234-7.3998,1.0482-4.6122,3.7255-8.4016,6.0524-12.3734.1869-.319.4156-.6034.9077-.5148Z"/>
    <path class="cls-1" d="M156.5823,95.8396c.1058,2.3243-.1912,4.3867-1.3813,6.1716-1.4371,2.1554-3.7708,1.9866-5.039-.2443-1.3261-2.3327-1.7074-4.737-.9867-7.3959,1.328-4.8997,3.9053-9.1346,6.7104-13.2679.1006-.1483.3697-.1822.833-.3942-.5227,2.1914-1.4508,3.9698-2.4446,5.7069-1.1331,1.9805-2.1277,4.0123-2.7372,6.2185-.4964,1.7971-.3169,3.4976.8083,5.022,1.2924,1.7506,2.1525,1.6633,3.1615-.2535.255-.4844.2936-1.1267,1.0756-1.5632Z"/>
    <path class="cls-1" d="M53.3965,22.1933c-.2742,1.5033-1.0249,2.5921-1.6096,3.7349-.9692,1.8942-1.8466,3.8233-2.5303,5.8402-.3357.9904-.5002,1.999-.2974,3.0272.2298,1.1653.5293,2.4374,1.7813,2.8305,1.4098.4427,1.7641-.9553,2.4071-1.7803.2115-.2714.2976-.6937.9247-.6479.0961,2.6-.5897,4.8363-2.7764,6.4429-1.704,1.252-3.1622.8882-4.0859-1.0436-1.0242-2.1419-1.0862-4.3946-.5203-6.6593,1.0677-4.2733,3.359-7.9259,5.9258-11.4269.099-.1351.3585-.1525.781-.3177Z"/>
    <path class="cls-1" d="M327.2111,176.4723c.952-1.9513,2.003-3.813,3.8338-5.0654,1.3371-.9146,2.685-.3239,3.1994,1.365.4555,1.4952.3816,3.0264-.0788,4.5341-1.6162,5.293-5.3229,8.7791-9.9283,11.481-.4026.2362-.9656.6983-1.3236.0663-.3017-.5327.227-.9406.6191-1.2612,1.978-1.6176,3.9907-3.1935,5.9464-4.8373,1.4939-1.2557,2.1427-2.9174,2.0455-4.8659-.1133-2.2685-.9503-2.7342-2.893-1.6001-.366.2136-.676.5706-1.4206.1835Z"/>
  </g>
</svg>