<?xml version="1.0" encoding="UTF-8"?>
<svg id="ShiaSymbol" xmlns="http://www.w3.org/2000/svg" width="226.8715" height="224.7341" xmlns:xlink="http://www.w3.org/1999/xlink" viewBox="0 0 226.8715 224.7341">
  <defs>
    <style>
      
      
      
      

      
      

      
      @import url('../../CSS/SvgStyling.css');
      

      
    </style>
    
  </defs>
  
  <g class="content">

    <rect id="bg" class="bg" width="226.8715" height="224.7341"/>

    <g class="sword">
      
        <path  d="M33.2956,101.823c1.7451,2.4825,4.2368,5.1002,6.4551,7.1894.8295.7804,7.3676,6.0741,7.4075,6.1571-1.4287-.3963-3.0324-.5254-4.5256-.9647-1.2597-.3687-3.1093-.7988-4.412-1.0723-1.2105-.2519-4.8021-1.3181-6.4551-1.7666-.5653-.1536-1.8004-.3564-2.1138-.4701-1.315-.467-16.551-5.4013-16.5725-5.1463,9.9146,9.1158,26.0201,16.9565,38.6599,21.4514,7.7025,2.7406,15.872,4.7899,23.9278,6.1632,8.3016,1.4133,19.0212,2.4948,27.4027,2.206,18.5603-.6391,33.913-2.9372,51.7053-8.2647,3.8436-1.1491,7.5274-2.4979,11.3187-3.7422,1.6038-.5223,3.8743-2.0646,5.4043-1.4348,2.7682,1.1399,1.2074,2.7928.0553,4.3628-3.9941,5.4289,2.0585,8.36,4.6178,5.6133,2.5777-2.7652.3165-9.0543-.2366-12.3602,7.2662-3.1861,16.3973-7.2631,24.4839-7.8254,2.4026-.1659,3.4104.5254,5.5518.7896,4.246.5192,6.323-3.5025,4.8574-7.088-2.8512-6.9805-13.7152-2.4026-18.7815-.6237-5.6747,1.9971-13.2297,5.7392-18.7785,6.9713-1.0968-1.3211-2.2981-5.3245-5.2108-7.4383-3.226-2.3442-8.0128-1.3211-6.3814,3.1891.6145,1.696,2.1998,2.2336,3.8098,2.5132,1.2167.212,4.1754,1.4932,2.421,3.0785-1.1614,1.0446-7.7394,2.4825-9.6381,2.9311-13.8012,3.2537-30.7055,5.4136-44.8569,5.091-7.5489-.1721-15.6538-.8879-23.1412-1.8987-6.3814-.8603-14.3419-2.0462-20.5021-3.7729-6.2892-1.7666-12.6644-3.9112-18.7231-6.3629-5.8191-2.3565-11.9455-5.4074-17.7461-7.4659l-.0031-.0092Z"/>
      
    </g>
    
      <g class="redcircle"  >
        
          <path  id="redcircle"  d="M113.4393,16.0177c-53.1262,0-96.3458,43.2232-96.3458,96.3494s43.2197,96.3458,96.3458,96.3458,96.3458-43.2197,96.3458-96.3458S166.5655,16.0177,113.4393,16.0177ZM113.4393,220.8748c-14.6456,0-28.8559-2.8727-42.2383-8.5326-12.922-5.4636-24.5236-13.286-34.4872-23.2496-9.9636-9.9636-17.786-21.5652-23.2496-34.4908-5.6634-13.3788-8.5326-27.5891-8.5326-42.2347s2.8692-28.8559,8.5326-42.2383c5.4636-12.922,13.286-24.5236,23.2496-34.4872s21.5652-17.786,34.4872-23.2532c13.3824-5.6598,27.5926-8.529,42.2383-8.529s28.8559,2.8692,42.2383,8.529c12.922,5.4671,24.5236,13.2896,34.4872,23.2532,9.9636,9.9636,17.786,21.5652,23.2532,34.4872,5.6598,13.3824,8.529,27.5926,8.529,42.2383s-2.8692,28.8559-8.529,42.2347c-5.4671,12.9256-13.2896,24.5272-23.2532,34.4908-9.9636,9.9636-21.5652,17.786-34.4872,23.2496-13.3824,5.6598-27.5926,8.5326-42.2383,8.5326"/>

          <path id="path-3" data-name="path"  d="M166.5726,200.4372L49.1862,32.4084l9.9672-6.9624,117.39,168.0253-9.9707,6.966"/>
        
      </g>
      
    </g>
  
</svg>