<?xml version="1.0" encoding="UTF-8"?>
<svg id="Shuaib" xmlns="http://www.w3.org/2000/svg" viewBox="0 0 415.3266 293.7299">
  <defs>
    <style>
      .cls-1 {
        fill: #000;
      }

      .cls-1, .cls-2 {
        stroke-width: 0px;
      }

      .cls-2 {
        fill: #007424;
      }
    </style>
  </defs>
  <rect id="bg" class="cls-2" x="0" width="415.3266" height="293.7299"/>
  <g id="content">
    <path class="cls-1" d="M281.1082,134.025c.2127-1.5315.3746-3.0722.6484-4.5928.648-3.5997,1.3065-7.1986,2.0476-10.7798.345-1.6672.9743-3.2566,1.9623-4.676,1.1459-1.6462,2.374-2.1073,4.3111-1.6138,2.0135.513,3.4218,1.8561,4.6114,3.4503.2621.3512.4079.9239.3458,1.3572-.1928,1.3477-.5057,2.6787-.7877,4.0128-.0367.1736-.1495.3393-.2553.4886-.3921.5531-.6846.5779-1.133.0627-.5337-.6133-1.0085-1.2804-1.5676-1.8683-.376-.3953-.815-.7675-1.2943-1.02-1.0722-.565-2.0201-.38-2.7619.5842-.4666.6064-.8477,1.3051-1.139,2.015-.8477,2.0658-1.2365,4.2556-1.555,6.4516-.5465,3.7677-1.0284,7.5448-1.5899,11.3101-.1517,1.0174-.436,2.0256-.7637,3.0031-.2926.8729-.8856,1.0082-1.4774.3141-.5182-.6077-.9633-1.3225-1.2633-2.062-.541-1.3334-.9657-2.7153-1.4102-4.0864-.9813-3.0273-2.3913-5.8086-4.607-8.1328-.3533-.3706-.7405-.7089-1.189-1.1352-.6913,1.1564-1.6105.9141-2.4971.4529-1.3421-.6981-2.673-1.4241-3.9659-2.2088-1.2957-.7865-1.9859-1.9551-1.8932-3.5176.0546-.9207.0011-1.863.1818-2.7581.4456-2.2075,1.6284-2.53,3.1043-2.378,1.5826.163,2.8676.923,4.0605,1.8836,1.8388,1.4807,3.2063,3.3703,4.4794,5.3269,1.4543,2.2351,2.7234,4.5693,3.7006,7.0604.4147,1.0571.9416,2.0701,1.4176,3.1032.0933-.0157.1865-.0315.2798-.0472Z"/>
    <path class="cls-1" d="M105.0613,148.5478c-2.5769-1.4132-5.0441-2.4514-6.4637-5.0419-.4414.5618-.7855,1.0024-1.1325,1.4408-1.0488,1.3251-2.3844,2.2129-4.0184,2.6556-3.196.866-5.6066-.8275-5.8856-4.1085-.2083-2.4489.3472-4.7596,1.2092-7.0139,1.6692-4.3647,4.3372-8.1152,7.2711-11.6945,2.3777-2.9007,4.9416-5.6108,8.1196-7.6627,1.9478-1.2576,4.0452-2.0657,6.4049-2.073,2.8445-.0087,4.6033,1.6505,4.7401,4.4918.1241,2.576-.56,4.99-1.6455,7.2702-1.0266,2.1565-2.2051,4.244-3.3888,6.3208-.4518.7926-.6883,1.5353-.6244,2.4703.0953,1.3929.0653,2.8047-.0429,4.1983-.1031,1.3279-.3748,2.6428-.5973,4.1302.916.3264,1.771.6312,2.803.999-.0517,1.7087-.8128,3.1954-1.6545,4.6293-.1398.2382-.7186.3172-1.0871.3009-.689-.0303-1.3727-.1844-2.1216-.2965-.243.3075-.5317.5991-.7351.9414-2.6706,4.4945-6.3656,8.0382-10.4427,11.2139-5.9804,4.6583-12.6542,8.1445-19.4671,11.3813-.6822.3241-1.4622.4423-2.4073.7173.178-1.268.9676-1.6168,1.6063-2.0467,3.875-2.6089,7.8056-5.1368,11.6422-7.8006,5.373-3.7305,10.71-7.5217,15.2654-12.2714.8801-.9177,1.6445-1.9464,2.6525-3.1514ZM109.1493,132.7056c1.806-2.4451,2.9569-4.9933,3.012-7.9558.0669-3.5973-1.6929-5.0152-5.2207-4.2352-.5099.1127-1.0442.2347-1.4921.4863-1.3669.7677-2.8236,1.4478-4.019,2.436-4.2892,3.546-7.482,7.9919-10.0059,12.9139-.5463,1.0654-.8525,2.3009-1.0337,3.4939-.1968,1.2958.4419,2.097,1.6563,2.5473,2.1122.7831,5.1206-.2155,6.3191-2.1487.6754-1.0895,1.2092-2.2687,1.9097-3.3403.888-1.3584,1.7484-2.7742,2.8571-3.9403,1.9528-2.0538,3.5587-2.087,6.0173-.2573ZM106.4849,143.1829c.4247-1.7876.6273-3.4873.0676-5.2072-.5248-1.6126-1.8668-2.1585-3.2832-1.2408-.6084.3942-1.0913,1.0322-1.5215,1.6375-.4106.5778-.3307,1.2321.1718,1.7655,1.2453,1.3219,2.6001,2.4863,4.5653,3.045Z"/>
    <path class="cls-1" d="M164.4624,116.8926c.715,1.5763.0898,2.6251-.2906,3.6984-1.4815,4.1808-3.0576,8.3306-4.432,12.5462-1.4479,4.4409-2.729,8.942-3.1505,13.6242-.141,1.566-.1885,3.1496-.1356,4.7203.0288.8562.3229,1.7119.5571,2.5512.7738,2.7731,3.9447,2.8214,5.3156,1.3198.8466-.9274,1.4415-2.0927,2.0998-3.1812.3868-.6396.6082-1.6092,1.55-1.3608.9847.2597.6889,1.256.5877,1.9548-.387,2.6719-1.0884,5.2729-2.3641,7.6607-1.18,2.2086-3.1096,3.4148-5.6059,3.7153-1.8936.228-3.2925-.4771-4.2358-2.1328-1.42-2.4924-2.0229-5.2117-2.2099-8.0358-.2734-4.1277.2457-8.177,1.5197-12.0999,2.0554-6.3289,4.2054-12.6271,6.3164-18.9379.6018-1.7991,1.5179-3.4164,2.8632-4.7617.4289-.4288.9534-.762,1.6149-1.2807Z"/>
    <path class="cls-1" d="M331.1376,254.2827c.1033.2252.2264.368.2253.5098-.0211,2.7674-.7035,5.3477-2.3822,7.5768-.8313,1.1039-2.0508,1.6378-3.4294,1.7949-1.4199.1619-2.4825-.3587-3.1705-1.6162-.9839-1.7981-1.475-3.7412-1.6146-5.7711-.1796-2.6124.0097-5.2115.8067-7.706,1.6438-5.1451,3.3329-10.2773,5.1218-15.3733.4079-1.1618,1.2631-2.1782,1.9834-3.2122.2382-.342.6988-.5291,1.1333-.8414.5215,1.1367.0007,1.9295-.2712,2.7579-1.502,4.5766-3.0684,9.1336-4.4691,13.7411-.8178,2.69-1.2587,5.48-1.0674,8.3166.0526.7809.1851,1.5901.4654,2.3149.6207,1.6048,2.2959,2.0703,3.6012.9316.6883-.6004,1.129-1.5004,1.6253-2.3.3277-.5277.4834-1.203,1.4419-1.1235Z"/>
    <path class="cls-1" d="M282.792,241.9171c.9531,1.8961.4045,3.3456-.0519,4.7212-.713,2.149-2.0132,3.8737-3.927,5.205-4.5203,3.1443-8.1785,7.1591-11.2439,11.7104-.7543,1.12-1.3988,2.3352-1.938,3.5745-1.2087,2.7786-.5093,4.3166,2.4026,5.2579,2.8507.9215,5.7954.8035,8.7287.5248,4.1534-.3944,8.1695-1.4141,12.1211-2.7241.7827-.2595,1.6066-.3945,2.6009-.2549-.2821.3652-.525.7706-.8522,1.0895-5.8554,5.7062-13.0593,7.8415-21.0136,7.5464-5.2239-.1939-8.0677-4.1579-7.1147-9.3324.9908-5.3804,1.8749-7.3667,6.2557-14.0274-1.0856-.6451-2.2137-1.2267-3.2451-1.9468-2.2135-1.5454-2.7319-3.7267-2.1286-6.2504.1321-.5527.3029-1.1128.5603-1.6161,2.0539-4.016,4.8658-7.3987,8.5145-10.0695.1732-.1268.3471-.2603.5392-.3521,1.0946-.5229,2.1957-1.2259,3.3813-.2378,1.1003.917,1.5942,3.0119.9486,4.2691-.6411,1.2486-1.3939,2.4399-2.2088,3.8485-.6137-.5569-.9705-.864-1.3087-1.1904-1.1891-1.1477-2.4218-1.2399-3.5565-.0948-.7989.8061-1.4622,1.755-2.129,2.6811-.6261.8699-.4843,1.6632.2233,2.5086,1.9019,2.2722,6.4286,3.085,8.7061.8005.9093-.912,1.9118-1.7304,2.8328-2.6315.9135-.8937,1.7776-1.8379,2.9028-3.0094Z"/>
    <path class="cls-1" d="M147.4358,269.7728c-.5351-3.8987-1.9537-7.5059-3.5211-11.0631-.2655-.6025-.5367-1.2058-.8562-1.7805-.7593-1.3658-.8125-1.4333-2.2921-.8656-.8599.33-1.5676.1308-2.2463-.2704-.6178-.3652-1.1924-.8318-1.7101-1.3322-1.1897-1.1498-1.2603-1.7773-.4245-3.2945.4767-.8654.991-1.7109,1.5114-2.551.5759-.9297,1.3395-1.0913,2.3764-.7077,2.0221.748,3.4322,2.165,4.5737,3.9078,1.8065,2.7583,2.6139,5.8806,3.2505,9.0614.0717.3584.1313.7193.465,1.1193.1272-.3323.2954-.6551.3751-.9984.6842-2.9515,1.3537-5.9063,2.0248-8.8608.4433-1.9516,1.2226-3.7539,2.3683-5.3977,1.8003-2.583,4.0212-2.5197,5.8759.0318,1.1625,1.5994,1.0878,3.1586.3622,4.8242-.1785.4098-.4309.7873-.7202,1.307-.8131-.8563-1.2691-1.3075-1.6925-1.7875-1.6959-1.9225-2.7516-1.856-3.6524.5527-.8947,2.3924-1.4583,4.913-2.0996,7.3948-.7565,2.9276-1.393,5.8869-2.1887,8.8032-.2044.7491-.8118,1.3884-1.2341,2.078-.1818-.0569-.3636-.1138-.5455-.1708Z"/>
    <path class="cls-1" d="M264.3608,194.6514c-5.0992-4.4979-10.1547-8.4083-16.5822-9.8277-3.6649-.8093-7.3928-.2553-11.0211.7168-.7593.2034-1.524.3869-2.5659.6503.2423-1.0365.3441-1.756.5794-2.4286.9809-2.8045,2.0255-5.5868,2.9996-8.3936.6239-1.7974,1.8316-2.9783,3.4974-3.8394,3.752-1.9395,7.7946-2.8578,11.9149-3.4856,6.9899-1.065,14.0384-1.4702,21.0917-1.2119,11.724.4294,23.0989,2.8307,34.1914,6.6141.1404.0479.2805.0979.4177.1545,1.9693.8114,2.1848,1.1787,1.6997,3.1856-.2264.9368-.493,1.8739-.8511,2.7668-.8571,2.1371-1.8267,4.2298-2.6578,6.3765-.515,1.3302-1.4149,1.8663-2.7831,2.1659-6.6051,1.4464-12.51,4.5447-18.5122,7.9792.4349.4927.7103.8989,1.0724,1.2009,5.7756,4.8167,12.3424,7.6494,19.9331,7.7497,5.2975.07,9.7999-2.1456,13.9032-5.2588,4.1761-3.1685,7.5593-7.1111,10.7447-11.2498,1.4906-1.9367,3.1328-3.7668,4.8221-5.5344.6083-.6365,1.4849-1.6834,2.4341-1.0611,1.0949.7179.0617,1.7432-.2279,2.577-.7567,2.1791-1.5331,4.321-1.4875,6.6986.0769,4.0091,1.7973,6.9631,5.5774,8.2664,8.1589,2.813,16.9213,1.5506,22.6903-6.3668,1.9854-2.7248,3.3469-5.7559,4.5617-8.8944.9043-2.3367,2.1183-4.5634,3.3235-6.7685.5246-.9599,1.3655-1.7552,2.8683-1.6232.0377.5238.1637,1.0125.0845,1.4653-.1273.7274-.3954,1.4297-.5953,2.1449-1.3519,4.837-.0431,8.8004,4.0856,11.7244,3.8552,2.7303,8.1781,3.4135,12.7381,2.2775,2.6569-.6619,3.4664-2.423,2.3439-4.9123-.4228-.9376-1.0342-1.8021-1.6393-2.6425-.8401-1.1669-1.1836-2.3519-.611-3.7532,1.404-3.4358,2.7623-6.8903,4.1611-10.3283.1601-.3935.4598-.73.8033-1.2606,1.2686,1.4322,1.6664,3.073,2.0839,4.6732,1.3149,5.0396,1.1858,10.1616.7095,15.2862-.3313,3.5645-1.0045,7.0615-2.4754,10.3574-1.4065,3.1515-3.4876,5.6848-6.6633,7.2009-5.2296,2.4968-13.2123,1.1794-17.0452-2.8057-1.6959-1.7632-2.6615-3.9162-3.3496-6.2182-.2325-.7778-.4203-1.5689-.6992-2.6202-.4137.5433-.7555.8859-.9726,1.2949-1.1845,2.2315-2.2638,4.5221-3.517,6.7134-3.6448,6.3733-9.1448,10.3446-16.3074,11.6701-8.274,1.5312-16.4665-4.8119-17.7713-13.4241-.1072-.7078-.2323-1.4128-.4021-2.4391-.598.6847-.9895,1.0915-1.3344,1.5349-1.8255,2.3463-3.6124,4.7233-5.4622,7.0501-5.3388,6.7155-12.2854,10.5667-20.8614,10.7953-4.8398.129-9.5542-1.1015-13.8886-3.4941-4.2697-2.3569-7.8786-5.5582-11.4806-8.7768-1.1078-.99-2.1749-2.0255-3.2624-3.0383-1.3716-1.2773-1.3502-1.2325-3.0612-.3684-5.9653,3.0127-11.8874,6.1208-17.9397,8.9487-6.2023,2.898-12.6506,5.1932-19.445,6.272-2.4779.3934-5.0526.7447-7.5234.5033-6.5629-.6412-10.4141-4.4075-11.7278-10.953-.2733-1.3617-.55-2.7227-.8408-4.1618-1.5107.3158-2.2455,1.2849-2.9763,2.1764-1.6014,1.9536-3.1221,3.9735-4.681,5.9622-5.2968,6.7566-12.0545,11.214-20.56,12.6852-2.7521.476-5.6443.7573-8.402.464-7.2677-.7731-11.1611-5.5654-13.2685-12.1309-.3368-1.0492-.3864-2.189-.5919-3.2826-.1321-.703-.3065-1.3981-.5324-2.4129-1.3263.5008-2.429.8578-3.483,1.3246-7.4011,3.2783-14.75,6.6781-22.1955,9.8512-13.4236,5.7209-27.2471,10.1712-41.6199,12.859-12.6927,2.3736-25.4714,3.2927-38.3472,2.364-8.093-.5837-16.0451-1.9787-23.59-5.1809-4.4324-1.8812-8.4077-4.4525-11.798-7.8542-5.5413-5.5601-7.725-12.4121-7.1646-20.1336.4916-6.7731,2.6128-13.0871,6.0111-18.9583.5527-.9549,1.2518-1.8432,1.9921-2.6638.4306-.4774,1.1553-.9739,1.7301-.3209.29.3294.3083,1.1084.149,1.583-.4004,1.1928-.9454,2.3404-1.4786,3.4846-4.3359,9.3033-1.4981,19.1562,5.9952,25.2852,5.0106,4.0983,10.809,6.4323,16.9768,8.0103,9.0638,2.3189,18.3051,2.8736,27.6129,2.6744,18.298-.3914,35.8393-4.6587,53.0848-10.4276,11.5591-3.8667,22.8157-8.4979,33.958-13.4225,1.8989-.8393,3.8328-1.6241,5.8062-2.2618,1.6623-.5372,2.3786.1723,1.7068,1.8073-1.5249,3.7109-.1581,6.7058,2.1351,9.4366,3.5517,4.2293,8.2165,5.902,13.6687,5.6109,6.5887-.3519,12.553-2.4923,17.5926-6.7122,2.7124-2.2712,5.0311-5.0333,7.4036-7.685,1.8305-2.046,3.4311-4.2964,5.2103-6.3909.663-.7805,1.4767-1.4807,2.3404-2.0307,1.1544-.7351,1.9707-.3806,2.3114.9795.1932.7713.2602,1.6414.1183,2.4184-.7985,4.3729,1.7767,10.5069,7.9371,12.4367,3.03.9492,6.0881,1.1144,9.2376.6249,9.822-1.5265,18.7548-5.4686,27.9434-10.0438ZM288.2013,183.1653c-.0273-.1527-.0546-.3055-.0818-.4582-6.0989-.7496-12.1594-1.9243-18.8788-1.7108,2.9702,2.6055,5.5103,4.8337,8.1695,7.1664,3.5871-1.6612,7.1891-3.3293,10.7911-4.9974Z"/>
    <path class="cls-1" d="M208.0215,270.4582c2.157-3.7941,4.1671-7.3298,6.2809-11.0478,5.1775,3.0656,10.2014,6.0402,15.327,9.075-2.4995,4.4921-4.8746,8.7607-7.3562,13.2204-5.0493-2.9163-9.9755-5.7616-15.1095-8.7268-2.0913,3.6682-4.0985,7.1887-6.2453,10.9541-5.1184-2.9998-10.1405-5.9432-15.3133-8.9751,2.4551-4.4598,4.8122-8.7416,7.3305-13.3161,5.0263,2.9373,9.9219,5.7983,15.086,8.8162Z"/>
    <path class="cls-1" d="M367.0536,128.3093c5.1869,3.045,10.1005,5.9295,15.2041,8.9257-2.4365,4.4077-4.7908,8.6666-7.2957,13.1981-5.0134-2.9004-9.9086-5.7324-14.9554-8.6522-2.1228,3.8134-4.1337,7.4259-6.2521,11.2315-5.1039-3.0068-10.0675-5.931-15.2864-9.0055,2.4636-4.4229,4.8561-8.7181,7.3463-13.1889,5.0056,2.8913,9.8115,5.6673,14.8472,8.576,2.3213-3.5447,4.0541-7.3857,6.392-11.0846Z"/>
    <path class="cls-1" d="M190.3696,145.7967c.702-.4409,1.3668-.9611,2.1118-1.3099,5.1769-2.4239,10.3725-4.8077,15.556-7.2175.6628-.3082,1.2903-.6926,2.4005-1.2946-1.1035-.4045-1.795-.8063-2.5263-.9012-3.9685-.515-7.9382-1.0621-11.9248-1.3808-2.5737-.2058-5.1771-.0387-8.1016-.0387.372-.7578.5744-1.3692.9334-1.8676,1.7356-2.4102,3.549-4.7648,5.2628-7.1901,1.046-1.4802,2.4516-1.9949,4.185-2.0839,5.2371-.2688,10.3729.3424,15.4377,1.6385,1.3651.3493,2.7463.6776,4.0614,1.1719,2.312.869,3.0217,2.3577,2.378,4.7649-.1712.6399-.3915,1.2917-.7251,1.8579-.6772,1.1495-1.345,2.3295-2.1949,3.3479-6.354,7.6142-8.0408,8.9731-20.4784,10.8628-1.4661.2228-2.9474.3705-4.4273.4651-.5982.0382-1.2115-.1593-1.818-.2496-.0435-.1917-.0869-.3835-.1304-.5752Z"/>
    <path class="cls-1" d="M371.0318,77.158c-.8937,1.7922-1.6442,3.2974-2.4376,4.8887-2.6455.0063-4.9088-1.2269-7.574-1.8554-.1138.1882-.255.4531-.4248.6982-3.7771,5.4537-8.715,9.7163-13.9977,13.6157-10.3555,7.6439-21.461,13.8138-34.4058,17.2995.6945-.5407,1.0657-.9063,1.5025-1.1577,4.1179-2.3709,8.2286-4.7551,12.3765-7.0725,8.6982-4.8596,17.2561-9.9417,25.0605-16.1753,2.432-1.9425,4.662-4.1401,6.9604-6.2472.4736-.4342.8404-.9852,1.3938-1.6465-1.1692-.6752-2.1871-1.241-3.1832-1.8431-2.1371-1.2919-3.9852-2.8728-4.9456-5.2657-.5697-1.4195-.7026-2.8641-.1647-4.3495,1.3282-3.6677,3.5539-6.6624,6.6778-8.9791.5296-.3928,1.1468-.7012,1.7668-.932,2.4853-.9249,4.2347-.1044,5.0039,2.4537,1.0235,3.4036,1.0534,6.8838.4639,10.3688-.1843,1.0895-.5009,2.1567-.8121,3.466,2.1528.8732,4.2478,1.7229,6.7394,2.7335ZM362.3148,73.7206c.683-1.6256.9645-3.2049.9014-4.8316-.1312-3.3839-1.9275-4.8282-5.2402-4.2678-1.4981.2534-2.5933.9793-3.0789,2.5151-.4809,1.5208.2129,2.6059,1.2492,3.5356,1.7382,1.5594,3.8413,2.3938,6.1685,3.0487Z"/>
    <path class="cls-1" d="M239.3478,107.5414c.0724-1.5487.073-2.7188.1935-3.8763.1929-1.8523,1.1361-3.0785,2.9374-3.8103,7.7697-3.1566,15.4243-6.6133,23.2708-9.5606,11.9446-4.4866,24.0125-8.6445,36.0313-12.9329.8844-.3156,1.7951-.5572,2.7585-.8531-.1106,3.5482-1.3847,5.4053-4.4407,6.5434-10.2935,3.8335-20.6206,7.5779-30.8855,11.4865-9.5739,3.6455-19.0834,7.4599-28.155,12.2708-.3821.2026-.7967.344-1.7103.7326Z"/>
    <path class="cls-1" d="M365.8439,116.6416c-2.4948,4.5061-4.8534,8.7664-7.3304,13.2404-5.182-3.0353-10.154-5.9477-15.313-8.9696,2.4908-4.4793,4.8921-8.7976,7.3571-13.2307,5.1534,3.0206,10.0753,5.9055,15.2863,8.9599Z"/>
    <path class="cls-1" d="M92.0946,262.1047c-2.5218,4.55-4.8805,8.8057-7.3318,13.2284-5.1736-3.0451-10.1328-5.964-15.2486-8.9751,2.4382-4.4116,4.7957-8.677,7.2945-13.1982,5.1155,2.9934,10.0757,5.896,15.286,8.9448Z"/>
    <g>
      <path class="cls-1" d="M167.4325,57.9884c5.5165-2.6979,10.9996-5.3622,14.8902-10.3388-2.1458-4.4556-5.1564-8.1975-8.4494-11.738-2.8841-3.1009-5.8637-6.1206-8.6066-9.3421-1.5728-1.8472-2.7599-4.0239-4.1162-6.0552-.2455-.3677-.3854-.8654-.7168-1.1066-2.1022-1.5307-1.424-3.4554-.9196-5.7342,3.2072,1.7797,5.4665,4.2993,8.2894,6.7589-1.0146.0786-1.6803.1302-2.4631.1908.0362,1.0077.7935,1.5716,1.3392,2.1789,3.1781,3.5371,6.4522,6.9884,9.5974,10.554,1.568,1.7776,2.9588,3.7158,4.3784,5.6197,1.3686,1.8355,2.1762,3.8766,2.0381,6.2256-.0242.4127.0938.8339.187,1.5775,1.5589-1.461,2.0423-2.9965,1.7638-4.7386-.8208-5.1325-1.6928-10.257-2.5676-15.3808-.6248-3.6595-1.3276-7.3062-1.9115-10.972-.2303-1.4465-.2874-2.9389.8757-4.6538.4496,1.2158.8836,2.1018,1.106,3.0381,1.2359,5.2026,2.4325,10.4146,3.6179,15.6291.6256,2.752,1.2162,5.5122,1.7966,8.2742,1.5616,7.4309,6.1644,11.7469,13.67,13.0354,4.6841.8041,9.3474.5258,13.97-.154,4.0241-.5918,7.9841-1.6242,11.9676-2.484.4888-.1055.9482-.3471,1.6191-.6003-.3877-2.3138-.7339-4.5719-1.1484-6.8174-1.2533-6.7906-2.5066-13.5815-3.8178-20.3611-.4186-2.1643.1003-4.0395,1.3784-6.1923,1.9842,5.4381,2.8454,10.7689,3.8115,16.0631.9693,5.3115,1.7783,10.6524,2.676,16.0916.6414-.0874,1.0864-.0792,1.4838-.2128,3.8865-1.3062,7.5746-3.0236,11.0605-5.2034,1.5192-.95,2.1861-2.1528,1.8373-3.8949-.7871-3.9309-1.5782-7.8611-2.3937-11.7862-.4681-2.2533-.9793-4.4978-1.4853-6.7431-.4862-2.1575.2985-3.8934,1.7706-5.6006,3.3581,3.6165,6.8534,6.9678,9.864,10.7099,6.0634,7.537,6.5899,17.8318,1.7008,26.1275-1.3513,2.2928-3.2414,3.9496-5.8343,4.484-2.3829.4911-4.8356.6508-7.2615.9217-1.3089.1461-2.6904-.0332-3.7749.9364.1489,3.1757,3.6163,6.8542,6.7937,7.2521,2.1371.2676,4.176-.1263,6.0205-1.1753,1.6065-.9137,3.0979-2.0321,4.6278-3.0782.6622-.4528,1.2933-.9511,2.21-1.6299,0,.7889.1206,1.2853-.0208,1.6899-.6265,1.7923-1.6717,3.3303-3.2023,4.4637-3.5109,2.5997-7.4217,4.4479-11.6949,5.2358-3.9857.7348-7.218-1.0735-9.9191-3.9123-.4058-.4265-.7423-.9186-1.1191-1.3737-.037-.0447-.1314-.0418-.4196-.1235-.1905.7344-.4298,1.4733-.5698,2.2305-.4316,2.3361-2.824,4.4297-5.3036,4.598-2.1521.1461-4.098-1.3375-4.9288-3.7673-.2106-.6159-.3983-1.2397-.6599-2.0579-1.809.9139-3.4706,1.7094-5.0916,2.5806-4.487,2.4114-9.2318,4.0771-14.2518,4.9094-2.8147.4666-5.6163.3397-8.3725-.5155-2.4847-.771-4.5946-2.0587-6.1637-4.1708-.31-.4173-.6469-.815-.977-1.217-2.009-2.4463-2.5513-2.4929-4.9604-.3605-1.426,1.2622-2.3541,2.845-2.9422,4.6522-.5284,1.6241-1.079,3.2429-1.6849,4.8392-.4613,1.2155-1.1019,2.29-2.6273,2.3814-1.5243.0913-2.5697-.6588-3.2623-1.91-.4996-.9026-.9691-1.8527-1.2524-2.839-1.183-4.1189-1.7157-8.2788-.6307-12.5298.3773-1.4781.3004-1.4978-.8201-2.4785ZM229.5147,51.9045c-2.5114.6849-4.7723,1.3636-7.0638,1.9147-7.1131,1.7108-14.2987,2.6502-21.6076,1.5641-6.4665-.9609-11.4404-3.962-13.7463-10.4518-.1079-.3036-.37-.5524-.7187-1.0551-1.3567,4.0087-3.0108,7.5587-5.9882,10.3082-3.0443,2.8113-6.9618,3.4178-10.8183,4.1546-.9437,3.5468-.9987,6.9924-.0425,10.4168.3146,1.1266.7681,2.27,1.4114,3.2367,1.1404,1.7136,2.7442,1.7378,4.0385.1538.4598-.5627.7951-1.253,1.0751-1.9315.4809-1.165.8463-2.3773,1.3094-3.5503.9439-2.3909,2.2757-4.5144,4.4515-5.98,1.7878-1.2043,2.8675-1.0606,4.2837.5007.3984.4392.748.9223,1.1255,1.3808,2.9235,3.5511,6.7268,5.2257,11.2813,5.3217,4.0857.0861,7.9564-.9375,11.6592-2.5044,3.273-1.3851,6.4204-3.0671,9.6275-4.6091.7021-.3375,1.4225-.6368,2.3346-1.0428.2288,1.1714.3895,2.0335.5665,2.8922.5179,2.5125,2.0409,3.5148,4.7178,3.1132,2.3738-.3561,3.6987-1.9121,3.4757-4.2906-.1868-1.9918-.5384-3.9684-.8254-5.9505-.1673-1.1555-.3508-2.3086-.5467-3.5913ZM245.1131,20.3806c.0703.5042.1201,1.0124.2142,1.5121.824,4.3741,1.8242,8.7232,2.4386,13.1264.6283,4.5033-.9771,8.2566-4.9773,10.6141-2.6752,1.5766-5.5432,2.8259-8.3291,4.2133-.7044.3508-1.4245.6699-2.0516.9634.5641,5.9335,2.3427,10.6813,4.6087,12.1726-.1714-.4771-.262-.8209-.413-1.1354-1.4982-3.1194-.6832-5.9081,1.1776-8.5685,1.2121-1.7329,2.8022-2.545,4.9498-2.3358,1.3247.1291,2.6816.2103,3.9994.0745,4.0616-.4184,7.4223-1.9578,9.1791-6.0006,1.8383-4.2302,1.6516-8.4202-.3082-12.4898-2.3601-4.9008-6.2912-8.547-10.4884-12.1463Z"/>
      <path class="cls-1" d="M153.3205,86.9981c.6076-.6672.8956-1.0617,1.2584-1.3671,1.0211-.8595,2.0981-1.6532,3.1085-2.5246,4.1462-3.5756,4.8945-6.7015,3.0238-11.8948-1.8099-5.0243-3.5433-10.0764-5.2802-15.1267-.3363-.9779-.6435-1.9893-.7763-3.0098-.5818-4.4714.3634-8.3069,4.7081-10.5579-1.1429-3.0122.3591-5.4113,1.4845-8.1391,2.7888.7466,5.0292,2.1168,6.6538,4.2816,1.1663,1.5541-.0084,4.8987-1.8455,5.7277-1.0106.456-2.081.7804-3.1278,1.1547-.8375.2995-1.6906.5579-2.5188.8808-3.5243,1.374-4.2916,2.7344-3.1397,6.3322,1.4021,4.3792,3.1239,8.6565,4.4998,13.0431.8378,2.6708,1.5018,5.4379,1.8417,8.2112.306,2.4967-.1059,5.0535-1.2066,7.3739-1.6403,3.4583-4.6216,4.9753-8.6838,5.6148Z"/>
      <path class="cls-1" d="M219.8109,20.6335c.5519,1.2753.3137,2.0686-.7872,2.5227-.6832.2818-1.4119.4554-2.0891.7493-6.9235,3.0048-13.8403,6.025-20.7598,9.039-.746.325-1.4911.654-2.2501.946-.1908.0734-.4338.011-.7233.011-.5563-1.03-.2342-1.8576.6453-2.4668.7259-.5028,1.5062-.9582,2.3191-1.2989,7.0309-2.9469,14.071-5.872,21.1198-8.7757.7957-.3278,1.6624-.483,2.5253-.7265Z"/>
      <path class="cls-1" d="M217.8416,74.0735c1.5615.9786,2.8506,1.7865,4.3473,2.7245-.7693,1.4526-1.44,2.7191-2.1743,4.1058-1.5324-.7983-2.8313-1.4748-4.2771-2.228-.5941,1.0664-1.1905,2.1369-1.8715,3.3591-.7153-.3344-1.3788-.5941-1.9936-.9404-3.1082-1.7509-3.2092-2.6388-.5136-5.428,1.2629.5689,2.586,1.165,4.0787,1.8374.76-1.0845,1.5003-2.1407,2.4041-3.4304Z"/>
      <path class="cls-1" d="M211.1174,39.3923c.2536.9921.4798,1.9922.7696,2.9736.2294.7767.6935,1.3224,1.6154,1.1461.9949-.1903,1.0232-.9434.9229-1.716-.1764-1.3581-.3898-2.7113-.3861-4.1406,1.757,1.3124,1.1691,4.5486,4.2838,4.8928-.2135-1.7553-.4035-3.3175-.6291-5.1725,1.458,1.21,2.9942,4.4455,2.9121,5.7407-.097,1.53-1.3341,2.5631-2.8796,2.3465-.5757-.0807-1.1323-.2976-1.2619-.3331-1.3562.5541-2.3149,1.1679-3.3391,1.3108-1.4291.1994-2.3591-.5961-2.8148-1.9832-.5784-1.761-.1956-3.4323.3423-5.085.1549.0067.3097.0134.4646.0201Z"/>
      <path class="cls-1" d="M198.0026,21.2126c.2992-1.8449.4787-3.2142.7549-4.5638.1919-.9375.4047-1.9004.8071-2.7584.68-1.4498,1.6359-1.5637,2.7916-.4521.7522.7235,1.0744,1.5551.6095,2.5648-.2101-.0156-.3777.0189-.4927-.0435-2.1906-1.189-2.8027-.86-2.9517,1.6624-.1311,2.2185-.2062,4.4403-.3208,6.6599-.0134.2596-.1215.5143-.2843,1.1666-.5228-.8515-.8454-1.3904-1.1812-1.9209-.7136-1.1275-1.4035-2.2719-2.1637-3.3673-.4351-.627-.9956-1.1032-1.884-.7527-.8461.3338-1.453-.0629-1.8374-.7944-.4642-.8831-.702-1.8311-.1443-2.7541.4553-.7536,1.1936-.662,1.7252-.186.9301.8329,1.7915,1.7552,2.5956,2.7125.6381.7597,1.1475,1.6277,1.9762,2.8271Z"/>
      <path class="cls-1" d="M211.8274,9.7967c.0616,1.5533.96,2.4365,1.9863,3.3622,1.7089,1.5413,1.7265,4.2121.2006,5.7589-.8814.8935-2.6862,1.3077-3.6829.8452-1.1091-.5147-1.8234-1.8934-1.5968-3.3786.372-2.4379,1.4185-4.596,3.0928-6.5877ZM212.1521,17.607c1.1568-.0216,1.8152-.4926,1.7172-1.2286-.1047-.787-1.439-1.7477-2.3404-1.6713-.9335.0791-1.2222.7204-1.2225,1.5269-.0004.9466.6346,1.3956,1.8457,1.373Z"/>
      <path class="cls-1" d="M175.3709,25.6741c-.0851-.6257-.2287-1.2497-.2458-1.8772-.1073-3.9448-1.6581-7.1585-4.7724-9.5999-.773-.606-1.5077-1.2505-1.3948-2.3637.0341-.3359.2086-.6576.3182-.9837,4.9754,1.6682,8.7987,10.5961,6.0948,14.8245Z"/>
      <path class="cls-1" d="M231.6659,71.445c4.0508,1.317,6.4159,6.5936,4.6361,10.0494-.1172-.0652-.3326-.1244-.3372-.197-.1871-2.9285-1.5366-5.183-3.8185-6.9914-1.3266-1.0513-1.2618-1.1333-.4804-2.861Z"/>
      <path class="cls-1" d="M202.3811,41.1519c.1141.206.1784.2694.1819.3361.1019,1.9328-.7007,3.4611-1.8673,3.5679-1.0289.0942-1.9164-.9593-2.3121-2.8675-.5724-2.7602.0219-5.3021,1.569-7.6324.1599-.2408.3928-.4427.6235-.6216.084-.0651.2608-.0105.577-.0105-.2807.8505-.616,1.6532-.8056,2.4889-.3255,1.4347-.6561,2.8819-.782,4.3413-.046.5327.4853,1.1154.7533,1.6753.4785-.2727.9615-.5379,1.4335-.8214.2146-.1289.4076-.294.6288-.4561Z"/>
      <path class="cls-1" d="M177.9384,79.3322c.2706-.6262.365-1.5331.8408-1.8322,2.6659-1.6759,5.4875-3.0664,8.5588-4.2737.2675,1.2996-.1799,2.0484-.9977,2.4869-2.595,1.3911-5.2291,2.7092-7.848,4.0555l-.5538-.4364Z"/>
      <path class="cls-1" d="M236.7037,19.8131c.6428,1.2744.2991,2.1787-.1952,2.9998-.8759,1.4548-2.2574,1.4303-3.1219-.0007-1.6735-2.7701-.6815-7.962,2.2427-10.3098-.3142.9125-.5317,1.4946-.7151,2.0873-.414,1.338-.8615,2.6691-1.1901,4.0285-.1318.5451-.1005,1.19.0552,1.7323.3477,1.211,1.236,1.4186,2.1426.5531.2503-.2389.4138-.5689.7818-1.0904Z"/>
      <path class="cls-1" d="M231.0664,35.3077c.0231-1.1562.4353-2.0353,1.4668-2.5507,2.4315-1.215,4.8672-2.4216,7.3659-3.6638.555.9573.3496,1.6227-.3517,2.0285-2.6109,1.5108-5.2533,2.9676-7.8983,4.4181-.112.0614-.3689-.1419-.5826-.2321Z"/>
      <path class="cls-1" d="M164.3659,47.1073c.2418,1.7809-1.8598,3.432.1395,5.2765.4894-.3546.9299-.6738,1.3668-.9904.1164.1324.2534.2198.2802.3333.0503.2134.0622.4437.0458.6637-.1205,1.6177-1.0084,2.8969-1.9684,2.8537-.893-.0402-1.9554-1.4786-2.0722-2.8857-.1765-2.1275.7978-3.79,2.2083-5.2511Z"/>
      <path class="cls-1" d="M202.6125,60.3046c-2.6864-1.4018-3.1557-1.1222-3.3562,2.0301-.0919,1.4455-.0915,2.8969-.1434,4.7086-1.3943-.9287-1.6173-2.161-2.2115-3.1076-.7545-1.202-1.3349-2.4412-3.1341-2.3542-.9178.0444-1.777-.5817-1.7293-1.6582.0299-.676.2578-1.509.7081-1.961.6455-.648,1.4675-.1166,1.9544.4137,1.0919,1.1895,2.0673,2.4861,3.2599,3.9471.1138-.6084.2022-1.0516.2789-1.4968.1628-.9459.1756-1.9474.5082-2.8283.7051-1.8669,2.3752-2.0234,3.5659-.4095.6185.8383.7156,1.74.2992,2.716Z"/>
      <path class="cls-1" d="M255.3917,39.7384c-.1207.626-.1834,1.2705-.3751,1.8739-.3221,1.0144-.7789,2.0535-2.0344,2.0386-1.1913-.0142-1.8395-.9664-2.1784-1.9584-.2784-.8149-.4131-1.7512-.3268-2.6048.2288-2.2619,1.3604-4.1256,3.1121-5.6711-.2763.6502-.6131,1.2822-.8156,1.9547-.3598,1.1953-.6983,2.4038-.9286,3.6288-.1425.7575.0793,1.5096.8655,1.8817.9746.4613,1.2644-.4055,1.7251-.9444.1298-.1518.3358-.2383.5069-.3548.1498.0519.2996.1039.4493.1558Z"/>
    </g>
  </g>
</svg>