<?xml version="1.0" encoding="UTF-8"?>
<svg id="Stuff" xmlns="http://www.w3.org/2000/svg" viewBox="0 0 130.3959 205.5844">
  <defs>
    <style>
      

      @import url('../../CSS/SvgStyling.css');

      
    </style>
  </defs>
  
  <g class="content">

    <rect id="bg" class="bg" width="130.3959" height="205.5844"/>


    <path class="cls-1" d="M114.3503,190.6911q-4.1861-6.5768-8.8385-15.3458c-4.5432-11.13-10.8521-21.0796-16.3278-31.4358-1.3293-4.7714-1.7063-9.4237-2.3113-14.2447-3.7695-15.3955-9.6122-27.9936-18.7582-40.6512-3.1645-4.7715-17.558-23.6389-11.507-30.6323-1.2598-2.9659-3.1644-3.4917-6.1007-2.9064.1488.6943-.3274,2.0038-.7836,2.5097q-.6052-1.4383-2.7577-10.8324c-4.3945-8.2632-10.3066-16.328-15.4549-23.7975-6.0511-6.6066-6.1205-12.9353-12.0327-19.9982q-.8233.0993-1.1011-.4464c-.1983.0993-.3968.1984-.5554.2778-.0993-.1786-.1984-.377-.2976-.5357-4.6227,1.1606-5.7238,4.7317-8.035,8.6698.5257,1.1606,1.0812,2.3411,1.6764,3.4917,9.9197,9.1461,15.2764,19.6511,24.1943,29.6998,1.4086,2.6387,2.8073,5.3071,4.2159,7.9656,2.0136,2.718,6.7851,7.668,5.0293,11.4077-1.1309,6.5074-1.6665,7.3605,3.4818,12.5684,4.5532,7.7077,10.0486,14.1357,14.7308,22.4087,4.5928,6.0014,8.1342,10.0685,13.4611,17.4389,4.5928,10.1974,5.5451,22.7659,8.4615,33.8363,7.3903,14.7308,16.5065,29.0748,24.4126,44.004q6.1799,8.3426,6.9637,8.789c2.0831-1.1011,3.7397-2.966,4.7912-5.1781q-.5754-1.1011-6.557-7.0629ZM53.9984,56.4273c.2976.3968.6547.8233,1.0019,1.23-.1289.0992-.2282.2282-.3472.3472-.3075.109-.6051.1786-.8828.3075q-.8531-.6051-1.736-1.9145c.6547.0298,1.2796.0298,1.9641.0298ZM115.5804,200.601c-.2183-1.7856,1.1904-3.1445.853-4.3547q-1.3987,1.984-2.4303,2.718c-.1984-1.7856,1.1804-3.1445.8828-4.325-.8828.9821-1.1606,1.8352-2.1624,2.5394-.3571-.6547-.7043-1.2796-1.0317-1.9145q.8531-1.6764.9027-2.9363c-.4959.8333-1.0018,1.6864-1.4582,2.5395-8.3624-15.2269-17.4488-29.7792-25.1466-45.0258-1.726-6.2297-2.4303-12.4096-4.8904-18.1632.248-.0298.5258-.0793.8234-.0793.1786.248.3769.5059.5852.734.1687-.0793.3472-.1786.5457-.2777-.7737-1.0118-1.5575-1.984-2.3113-3.0156.377-.1786.7341-.377,1.111-.5853.377.5059.754,1.0118,1.1507,1.5177.1488-.1092.3571-.2083.5555-.3075-4.0671-4.8508-4.4937-10.0984-7.3308-15.4551-6.7554-9.2451-13.2924-17.8357-19.1252-27.4381-3.6406-3.7694-12.0724-14.0464-12.5485-18.9864,2.0038-7.6878,1.121-9.4733-3.8786-15.8815-4.7715-8.9973-11.4772-14.9987-16.0006-23.5198-7.5787-8.9972-11.9731-13.3123-13.2825-15.4549,1.7558-.4265,3.5909-.5753,5.3764-1.7856-.0992-.1984-.1983-.3968-.3075-.5455q-1.0217.7241-3.4322,1.478c-.0993-.1983-.2083-.3968-.2778-.5554.873-.7242,1.7856-1.4582,2.7081-2.1527-.0992-.1983-.1983-.3769-.2777-.5554-1.1805.7241-2.3113,1.4284-3.4322,2.1823-.129-.2777-.2778-.5455-.4266-.8234,2.1328-3.7199,2.3807-4.5532,5.942-6.6858,8.0746,5.9816,6.4875,9.4932,6.7157,18.5896.8729-1.2003.6745-2.4105.7241-3.8885.2777-.1488.5555-.3076.8333-.4564.1488,1.8848.3472,3.7993.5455,5.6741q.5555-.2678.4564-1.1011c.248-.0992.5059-.1488.7737-.2282.5554,2.0138,1.111,4.077,1.6665,6.1304.1686-.0694.3769-.1786.5455-.2976-.5753-1.9344-1.1309-3.8389-1.6566-5.7832.2778-.1488.5555-.2976.8333-.4464,6.3785,7.2811,12.737,17.7365,17.4588,26.6048.9722,4.0969,1.4284,8.6698,3.4917,12.5584-.7042,2.3709-2.0335,3.8191-1.6368,6.5173.7837-1.488.9028-2.6188,1.4284-3.2438q.5059,3.2636,1.1111,4.702c.1488-.0794.3471-.2083.5455-.3075-.2678-1.1507-.5455-2.3113-.8035-3.4422.1786-.0992.377-.1984.5555-.2976.6249,1.1805,1.2598,2.3609,1.9145,3.5612.1488-.0695.3472-.1687.5455-.2778-1.5276-2.5295-4.3151-7.7869-1.4284-9.9694q2.4601.9821,2.7379,1.5277c-.9523,5.1582,1.2995,9.2055,2.0336,14.4035-.2481.1488-.4266.3274-.6249.4959-2.3411-.7241-3.7199-2.0335-5.0293-3.4917-.1687.0992-.377.2083-.5258.3075,1.2598,1.607,5.3765,3.6704,5.7337,4.8508q-1.359.7242-3.095.7737c.1289.2778.2777.5555.4265.8333,1.8352-.2083,2.5097-.5059,4.3945-1.6665,11.4871,15.9312,20.6727,29.7792,26.7536,48.7259q2.3112,14.949,3.5414,19.9188c4.9499,9.3543,9.4237,16.4569,12.9353,23.0436,4.2457,10.3562,8.8683,20.9605,17.5877,28.817-1.3589,1.4086-2.4403,3.3926-3.1742,3.9777Z"/>
  </g>
</svg>