<?xml version="1.0" encoding="UTF-8"?>
<svg id="Sufyan" xmlns="http://www.w3.org/2000/svg" viewBox="0 0 333.0911 333.4967">
  <defs>
    <style>
      

      @import url('../../CSS/SvgStyling.css');
      
    </style>
  </defs>
  
  <g class="content">

    <rect id="bg" class="bg" width="333.0911" height="333.4967"/>
    <path class="cls-1" d="M300.2302,231.6725c-4.7133,6.7903-8.2778,13.2119-17.4822,13.5037-8.0271.2545-10.7143-5.0958-12.4325-11.9522-6.4886,4.0572-11.4812,8.6209-18.9631,11.0922-7.2824,2.4054-14.7695,1.4313-21.6895-1.6824-2.0128-.9057-3.1017-1.837-5.2895-1.231-1.7909.4961-3.6866,2.0962-5.4515,2.8367-3.4142,1.4325-6.7399,2.1954-10.391,2.4207-7.6542.4722-10.1441-4.7224-12.4355-11.1258-3.55,4.4063-6.3512,9.3769-11.4024,12.2738-4.2185,2.4194-9.074,3.1237-13.7198,2.05-11.6245-2.6867-16.895-13.4728-19.5954-24.1721-2.4606-9.749-2.5404-19.879-4.0971-29.6795-1.4874-9.3643-1.8495-18.7894-3.2019-28.1877-10.3206,1.0518-21.5228.8802-31.852-.2482-10.1814-1.1123-20.6458-1.7217-30.672-4.1356-9.7008-2.3355-20.1663-5.5414-28.2254-11.6123-4.2554-3.2056-8.0313-7.0827-11.9151-10.7158-3.5324-3.3044-9.3799-7.4751-11.4335-11.912,6.7381,1.6021,13.4318,7.0555,19.5876,10.2518,7.1839,3.7302,14.7469,6.6385,22.4451,9.1245,13.6904,4.4212,28.4897,6.8643,42.8146,7.5661,8.0263.3932,16.781,1.6909,24.7629.7788,3.5923-.4105,2.1848-2.6013,1.8531-5.4424-.3148-2.6958-.924-5.2786-1.318-7.9707-.932-6.3681-2.5592-12.9796-4.386-19.1881-.8477-2.8808-3.1976-6.7962-3.2291-9.7615-.0327-3.081,2.0993-7.8209,3.4664-10.567,4.6471,7.5379,6.8335,17.3768,8.4707,25.9897,1.6618,8.7421,3.3072,17.4729,4.8139,26.2471,1.8611.4751,4.9657-.0734,6.9044-.1852,2.1737-.1254,4.3757-.4689,6.5485-.6749,5.2442-.4971,10.5709-1.2077,15.7391-2.2835,11.3606-2.3648,22.4252-4.8022,33.3781-8.7537,8.5356-3.0794,23.2637-7.1559,27.008-16.6186,1.8255-4.6134-.6207-10.2888-2.4727-14.5198-.9326-2.1307-2.4279-4.3052-2.3554-6.7145.0751-2.4944,1.1955-6.2154,2.1926-8.467,3.3526,1.6006,2.7918,5.7936,6.6698,6.6044,3.4078.7125,7.5645-.0166,10.6482-1.5699,4.1069-2.0687,2.4521-3.9908.7549-7.6298-1.7622-3.7783-.3037-8.2951,1.0051-12.1459,5.178,4.9811,5.5732,13.3961,4.5982,20.0616-1.3408,9.1661-8.6497,11.7842-16.7526,12.6347-1.4526,10.2347-3.3583,19.537-11.596,26.5526-7.7376,6.5897-17.524,10.6172-26.9976,13.9883-17.5401,6.2415-35.6471,9.5481-53.9986,10.8442,1.3245,9.6495,2.5076,19.3467,3.3983,29.0094.804,8.7219,1.7456,17.5911,4.4524,25.9631,2.9733,9.196,9.2918,16.1289,19.3414,16.6632,4.4855.2385,9.3486-1.1962,12.7649-4.2247,3.7166-3.2948,4.9449-10.3519,9.5763-12.6001,1.0516.8419-.2282,4.6629.0696,6.0595.4334,2.0325,1.6086,3.7824,3.2125,5.0894,3.5876,2.9236,7.6833,2.528,11.8863,1.722,5.9222-1.1357,2.4421-5.6817,2.1992-10.0284-.2933-5.2481,1.3154-10.255,3.922-14.7587,2.4169-4.1757,5.7451-9.3061,10.1535-11.589,5.049-2.6147,7.0733,1.5148,8.9327,5.7652,4.521,10.3344.564,19.2361-4.4367,28.4773,6.4108,2.4032,13.045,1.9449,19.6069-.179,7.8718-2.548,13.2273-8.1791,20.2768-12.0262.5805,1.9235-.8194,3.3167-.7531,5.2014.0667,1.8961,1.4378,3.953,2.7783,5.2251,2.8296,2.6853,7.0787,3.1267,10.7533,2.3745,4.5865-.9389,7.5976-3.5562,9.8272-7.544,1.7432-3.1177,3.5303-9.336,6.8697-10.9574,1.0414,2.4964-.6725,5.4054.0737,8.1946,1.1235,4.1991,3.2864,5.1498,7.516,5.1273,1.5044-.008,3.7187.1663,4.8518-1.0601,1.2726-1.3773.4002-2.3702.0355-3.8758-.8661-3.5754,1.4144-8.3001,3.2449-11.4311,2.8348,2.255,2.3007,9.3408,2.0891,12.5325-.2838,4.2791-1.758,8.4361-4.5662,11.7294-2.3791,2.79-6.1287,4.324-9.7751,3.5736-4.4718-.9202-6.3418-4.1781-8.1625-8.0571-.1481-.0166-.2962-.0332-.4443-.0497ZM238.1315,221.2186c-.209-3.2855-2.0842-9.5525-5.1676-11.3335-3.7096-2.1427-8.9549,4.1554-10.3149,7.0348-1.7217,3.6452,1.6094,9.809,5.4948,10.9349,3.0463.8828,8.5684-3.9483,9.9877-6.6362Z"/>
    <path class="cls-1" d="M161.9836,73.4849c-2.4442.6309-3.1788,5.7361-4.7056,7.6114-2.114,2.5966-5.1616,3.9206-8.453,4.2199-7.5677.6884-10.5157-4.5104-12.6988-10.847-2.0672-.0651-5.143,6.438-6.5867,7.941-2.2344,2.3262-4.8556,4.0627-7.8625,5.2037-5.8179,2.2077-12.2531,1.227-17.1074-2.8683-3.8763-3.2703-7.3614-11.7657-12.8983-12.2565-6.9499-.6161-11.5485,7.9675-14.0317,13.0534-3.3876,6.9383-5.3519,15.2134-9.7792,21.5697-4.3653,6.2673-11.1972,5.7401-15.7732.0564-4.4545-5.5326-7.3435-12.4055-7.3107-19.5312.0107-2.3331.3758-20.0668,4.0321-19.2554.1018,6.6988-1.5261,12.9908-.5433,19.781.7611,5.2587,3.9705,12.9284,9.6018,14.6373,6.3945,1.9405,10.3164-6.6813,12.5359-11.1784,3.2225-6.5294,5.6957-13.411,9.6811-19.5472,2.5991-4.0016,8.7078-12.8377,14.6293-11.5166,2.9925.6676,5.1588,4.8544,6.7449,7.197,2.0331,3.0027,3.8516,5.8301,7.0608,7.6916,5.536,3.2111,13.1534,2.7879,18.75-.154,3-1.577,4.692-3.8104,6.5084-6.5967,1.3912-2.1339,3.6807-7.794,6.6609-7.8822-1.7126,7.4375,2.0689,13.1906,10.0893,13.0517,3.575-.0619,6.6317-1.0877,8.8581-4.0631,2.0664-2.7616,2.184-8.3439,5.1453-10.219,1.4442,8.2605,6.4987,13.1965,15.1366,11.4828,3.2114-.6371,5.6312-2.0322,7.2494-5.0272,1.5158-2.8055,1.7022-7.2297,4.6186-8.9821.9888,5.2352,2.5375,9.7332,8.2282,11.6279,4.0812,1.3588,12.7275.5751,15.998-2.4427-1.9194-2.946-5.0628-5.1325-7.1651-8.1178-2.4515-3.4811-4.7721-7.4298-5.6789-11.6478-1.7523-8.151,1.997-16.0955,7.732-21.818,5.4094-5.3977,13.5423-8.7801,21.2429-7.5324,3.9391.6382,7.8081,1.9816,11.3272,3.8513,2.265,1.2034,8.6578,3.8692,9.0166,6.6894-.8678,1.0673-4.8321-1.0651-5.8681-1.3337-2.3801-.617-4.8696-.7888-7.3358-.8839-5.086-.1962-10.3797.8384-15.241,2.3156-2.6977.8197-5.374,1.7117-8.0396,2.6299-1.7947.6182-5.5199,1.1796-6.7453,2.7833-2.534,3.3163,1.6338,9.6745,3.4775,12.521,6.0253,9.3027,14.7739,15.6617,26.1741,12.293,5.2429-1.5492,10.2896-3.9048,15.211-6.2558,4.9121-2.3466,10.1655-5.9924,15.541-7.0653,1.0883,1.8979-2.3292,6.3616-3.3083,7.9851-1.6519,2.7393-3.99,3.5566-6.824,4.8967-5.8375,2.7603-11.7185,5.4292-17.5809,8.1359-11.0719,5.112-22.6354,10.8089-34.6029,13.4268-4.9099,1.074-10.2624,2.1042-14.2466-1.823-1.1603-1.1437-2.3573-4.9583-3.7131-5.64-2.3207-1.1668-3.0539,3.4718-3.8612,4.955-2.6792,4.9227-7.9392,6.8641-13.3083,5.8995-5.3872-.9679-7.5913-4.4847-9.9818-9.0223Z"/>
    <path class="cls-1" d="M122.8541,177.0275c3.6292,4.2841,8.3998,8.2326,10.4978,13.5566-1.4852,1.0652-2.9179-.5096-4.4437.2402,2.9792,10.8437,9.3852,20.133,6.6846,31.8486-2.5896,11.2343-11.5945,17.3034-20.8897,23.0803-9.258,5.7538-19.2392,10.9951-29.5584,14.564-4.7739,1.651-9.6175,2.7277-14.5677,3.6291-3.7277.6788-11.0932,2.1639-14.5178-.2268-5.5352.9965-12.9496-4.5366-16.262-8.4431-4.3051-5.0774-6.843-11.3968-8.1734-17.8578-1.2523-6.0817-.3414-12.5502.9576-18.5524.4542-2.0986,5.0439-18.5143,7.1101-17.1114-2.543,12.6212-6.6037,25.5116-.188,37.8277,5.9683,11.4573,18.9772,13.4567,30.7369,12.705,13.456-.8601,26.4368-7.6212,38.1979-13.7044,5.9232-3.0637,11.8027-6.2712,17.3587-9.9683,2.003-1.3328,5.0055-2.859,5.8163-5.2767.9016-2.6885-.9562-6.4178-1.8165-8.9623-2.4048-7.1127-5.226-14.1293-7.8973-21.1463-1.1146-2.928-1.8425-4.548-1.4057-7.5422.414-2.8376.7501-6.2256,2.3603-8.6599Z"/>
    <path class="cls-1" d="M77.5988,129.1489c1.5611,3.609,11.3867.4987,14.0255-.361,5.2416-1.7076,9.5118-3.8948,13.0105-8.1982,1.0526,4.9899-6.1997,9.9897-9.9623,11.9621-4.0877,2.1429-12.9884,5.1474-17.542,2.8575-4.3749-2.2-1.1512-8.855,1.0972-11.4927,1.9434-2.28,4.67-3.7943,7.1441-5.4147,2.3611-1.5463,7.0916-3.5083,8.6067-6.0276-3.35-2.9529-2.9325-5.2572-2.3548-9.4477.3481-2.5253-.8726-8.446,2.1139-9.8559,2.7657-1.3057,7.4588,2.6128,9.4395,4.2196,3.0885,2.5055,6.7287,5.3765,7.7268,9.4055.7113,2.8713.7445,7.0611-2.0521,8.8263-3.3695,2.1268-6.9472-1.7075-10.4113-1.0808-3.5823.6481-7.6161,4.9197-10.5769,6.9988-3.4766,2.4413-7.1104,4.7553-10.2649,7.6087ZM92.794,104.1758c.0012,3.4838,5.7668,6.2676,7.2984,2.5091,1.7474-4.2883-6.8984-7.634-7.2984-2.5091ZM101.5669,106.4687c-.0065,0-.013,0-.0195,0,0,2.5097.3575,2.6831,2.7314,3.3132,1.4254.3783,3.8626,1.6131,4.4486-.1665.5021-1.5246-7.1604-10.6772-7.1604-3.1467Z"/>
    <path class="cls-1" d="M288.4046,190.1667c2.7576-4.8847,11.4206-6.8066,16.1591-9.2691,5.1236-2.6627,11.2689-6.0782,14.049-11.3952,2.215-4.2363,2.0804-13.758-4.9008-10.9888-7.1687,2.8437,3.2908,5.7324,1.4882,10.2187-2.5542,6.3569-7.438,2.5185-9.9645-1.7165-3.1333-5.2522,1.8363-10.1732,5.9892-13.2013,5.5334-4.0347,12.3779-4.1035,14.043,3.7082,1.0759,5.0475-.715,11.1045-3.3271,15.4163-3.1931,5.2709-8.2869,9.1817-13.6978,11.9792-3.0343,1.5687-6.2383,2.7918-9.4916,3.8209-2.1753.6881-8.287,3.0133-10.3467,1.4275Z"/>
    <path class="cls-1" d="M302.7604,258.3405c.7951,1.0878-.3866,2.4242.1279,3.6286.6331,1.4822,2.9539,2.318,4.3356,1.7257,2.2728-.9743.5668-1.5912.5491-3.2466-.0152-1.4186.8913-3.0061,1.915-4.0369,3.0728,1.6919,1.8145,8.4309.1948,10.6965-2.0919,2.9261-6.5772,2.84-8.8104.0321-2.2607,2.099-3.9095,4.1662-7.0236,4.9772-3.242.8443-5.3967-.902-8.5065-1.5846-7.1963-1.5798-12.5896,4.0112-17.549,8.3316-5.369,4.6772-10.6207,9.4851-16.8285,13.044-3.0755,1.7632-6.2582,3.3533-9.5369,4.7035-2.0804.8567-7.2476,3.6654-9.4449,2.8526.3252-2.1772,7.7877-4.0773,9.4394-4.8402,3.4841-1.6092,6.6659-3.7369,9.796-5.942,7.0815-4.9887,12.5332-11.4907,19.1777-16.9206,2.761-2.2563,5.9289-4.4699,9.2402-5.8377,3.8704-1.5987,5.9196-.5957,9.5151.7667,2.7559,1.0443,5.9957.7521,8.2549-1.1964,1.6903-1.4578,2.9649-6.7582,5.1541-7.1536Z"/>
    <path class="cls-1" d="M282.6864,165.2104c-1.4886-1.6455-3.4762-5.0186-6.0518-3.4349-1.7574,1.0806-2.3854,4.8585-2.7371,6.6696-1.0374,5.3438-.6822,11.3999-2.7923,16.4902-4.1793,10.082-18.099,14.7496-27.4356,18.1686-.0584-.0884-.1168-.1768-.1753-.2653,6.4813-5.6774,14.6399-9.2291,21.2911-14.755,3.3758-2.8046,4.2634-3.897,2.807-8.0906-.9427-2.7144-2.7062-8.1588-5.6713-9.362-1.4047-.5701-2.8559-.2617-4.3553-.9738-1.5592-.7405-3.268-1.6426-4.0374-3.2701-1.3608-2.8783-.1468-6.4934,3.2895-6.258,3.5486.2431,5.8656,4.1284,7.6052,6.7713,1.965,2.9854,2.8847,8.3287,5.5624,10.585,2.9027-6.0494.5444-14.422,4.9653-20.0692,1.9169-2.4486,4.2563-2.2264,6.6367-.3651,3.109,2.431,2.0571,4.8454,1.0988,8.1592Z"/>
    <path class="cls-1" d="M270.8212,133.4844c6.3467-5.5289,14.1625-9.2979,20.8806-14.3538,3.0772-2.3158,5.4408-3.499,4.2269-7.3571-.9915-3.1513-2.5936-9.0699-5.9218-10.7469-1.0744-.5414-1.9055-.0479-3.092-.2365-1.6832-.2675-4.0158-1.9297-4.9813-3.3772-1.5838-2.3746-1.2789-6.9265,2.2213-7.1755,3.7628-.2676,6.5036,4.4728,8.1601,7.0467,1.0803,1.6787,2.0896,3.4117,2.9108,5.2335.6134,1.3607.9652,4.2936,2.6487,4.8724,1.624-2.6121,1.293-7.3186,1.9004-10.3659.5982-3.001,1.1308-7.0208,3.1347-9.421,1.7482-2.0938,4.0605-2.0955,6.3259-.6572,3.5336,2.2433,2.3801,5.2334,1.2624,8.4841-1.2798-1.5964-2.447-4.025-4.879-3.7203-2.4847.3113-3.089,3.772-3.6371,5.892-1.5238,5.8937-.6289,12.5194-3.32,18.1312-2.4277,5.0623-7.4644,8.2507-12.1399,10.9847-4.1625,2.4341-10.8027,6.7667-15.7007,6.7667Z"/>
    <path class="cls-1" d="M106.6836,289.3682c-4.1604,4.162-7.3945,7.8082-12.4149,11.039-4.6285,2.9786-9.4904,5.7795-14.9006,7.0413,4.0189-3.5997,9.2861-6.1516,13.682-9.3073,4.3961-3.1558,8.5957-6.4993,12.6266-10.1073,4.1855-3.7463,7.3346-2.198,10.7569,1.879,1.624,1.9347,2.9677,4.1328,4.1485,6.3584.7085,1.3354,1.7249,5.4856,3.3363,5.7992,2.4765-5.2367.3363-16.9349,6.1706-20.4735,2.0726-1.2571,5.1408.2686,6.6023,1.9531,1.9526,2.2507.9022,4.7775-.0011,7.2651-1.2365-1.2584-3.089-4.1956-5.0726-3.9325-2.5382.3366-3.2482,4.8806-3.6546,6.7493-1.1951,5.4948-.2905,13.2968-3.6022,18.0694-1.9218-2.3356-2.697-5.5148-3.8356-8.2796-.7479-1.8159-2.7182-6.8051-4.8676-7.4401-.838-.2476-1.4551.3333-2.3263.146-1.049-.2255-2.2307-1.1496-3.1325-1.7309-2.5177-1.6231-2.6647-2.3582-3.5151-5.0286Z"/>
    <path class="cls-1" d="M196.196,315.8247c1.9903-.4018,2.2973-8.4127,2.5998-10.1567.5092-2.9345,1.0599-6.707,3.0787-9.0666,2.306-2.6953,5.0565-1.5075,7.2458.8943,1.8446,2.0236,1.6942,4.4632.0845,6.8088-1.2003-1.1742-3.031-3.8498-4.9569-3.5652-2.8476.4209-3.4987,5.537-3.909,7.6406-1.1159,5.7215-1.1585,11.5575-2.9518,17.1136-2.2152-.4199-3.2183-5.6662-3.9774-7.4146-1.3694-3.1538-2.539-6.5135-5.4186-8.6222-1.6095,1.6289-4.7329-.7058-6.0425-1.7824-1.6224-1.3336-1.7123-2.3762-2.3447-4.2511-1.8912,1.4645-3.171,3.4089-4.8286,5.1144-2.2125,2.2765-4.8597,4.0855-7.5329,5.7703-2.5497,1.607-5.1786,3.0688-7.8948,4.3752-1.849.8893-5.5244,3.2586-7.6877,2.8416,4.0719-3.249,8.8343-5.751,13.1027-8.756,4.6383-3.2654,8.9919-6.8287,13.296-10.5179,1.9044-1.6323,3.0003-3.1353,5.6282-2.5643,1.9429.4222,3.508,1.8958,4.7785,3.3122,1.6386,1.8269,3.05,3.9222,4.2688,6.0461.9609,1.6744,1.918,5.6529,3.462,6.7797Z"/>
    <path class="cls-1" d="M59.0099,170.3202c-1.2474-1.449-3.502-4.8166-5.7399-3.4051-1.8662,1.1771-2.6153,6.0187-2.9424,7.8679-.9446,5.339-.9176,11.3086-3.0277,16.3346-2.0956-.4346-3.3284-5.6352-3.9823-7.2974-.7796-1.9816-2.3299-6.7072-4.5332-7.7821-1.4187-.6921-.8692.2995-2.3269.0047-.9881-.1998-2.0598-.8248-2.9654-1.2866-2.4986-1.2739-3.3672-2.5468-4.0962-5.2661-3.6009,2.2203-5.999,6.4769-9.6111,8.9912-3.7023,2.5771-7.9674,5.3874-12.1619,7.0566-1.1714-3.3984,6.7475-6.6549,8.9944-8.2605,4.4034-3.1467,8.2605-6.849,12.4988-10.1764,8.0782-6.3419,14.2089,9.5721,17.0333,14.9393,1.8429-.4325,2.1785-8.9148,2.5083-10.6664.5374-2.8547,1.1386-7.686,3.5348-9.5911,4.4949-3.5739,11.8039,4.9177,6.8175,8.5375Z"/>
    <path class="cls-1" d="M165.6263,272.1496c1.9388-3.4674,3.7519-6.7102,5.6429-10.0922,3.9157,2.2922,7.734,4.5273,11.6981,6.8479,1.5949-2.9184,3.1274-5.7228,4.7152-8.6283,3.8803,2.2726,7.7045,4.5124,11.6965,6.8503-1.977,3.3247-3.655,6.6716-5.7782,9.9761-3.8254-2.2871-7.5-4.4842-11.2748-6.7411-1.9927,2.6494-3.2634,5.6104-5.016,8.5399-3.9878-2.0922-7.6801-4.5308-11.6837-6.7527Z"/>
    <path class="cls-1" d="M171.2541,90.5298c3.9098,2.2866,7.697,4.5015,11.646,6.811,1.7448-2.8052,3.1583-5.7109,4.7999-8.6207,3.8858,2.2901,7.708,4.5426,11.643,6.8616-1.8829,3.3393-3.6976,6.5576-5.5745,9.8862-4.0299-1.9144-7.5279-4.5318-11.5512-6.6163-1.6738,2.8557-3.3082,5.6444-5.0232,8.5705-3.8949-2.3153-7.6604-4.5536-11.5197-6.8477,1.8702-3.3668,3.6746-6.615,5.5797-10.0446Z"/>
    <path class="cls-1" d="M163.9917,112.6544c-1.9636,3.3917-3.8227,6.6031-5.7647,9.9576-3.837-2.2524-7.5264-4.4181-11.3478-6.6613,1.289-2.3197,5.1985-6.9595,5.1171-9.5925-.0826-2.6718-6.6212-5.0674-8.7155-6.2959.1259-1.2125,4.2223-9.0311,5.2772-10.0372,2.7656,1.5941,5.5498,3.1586,8.2731,4.8248,3.4823,2.1306,3.1484,2.0856,1.1601,5.6037-1.2525,2.2162-3.9198,5.0716-2.3681,7.1276,1.5891,2.1055,6.0989,3.6398,8.3687,5.0732Z"/>
    <path class="cls-1" d="M157.9645,208.0802c-.7918-3.5665,3.9424-7.4705,6.2649-9.5429,3.4579-3.0854,7.3517-5.5865,11.4098-7.8042,4.4534-2.4338,9.0136-4.6834,13.5176-7.022,2.0431-1.0608,9.5235-6.4833,11.6096-5.3898,5.105,2.6762-15.9478,14.8621-17.6925,15.8529-8.2678,4.6955-16.4598,9.9388-25.1094,13.9059Z"/>
    <path class="cls-1" d="M86.2932,220.5943c-3.8883-2.3188-7.6124-4.5396-11.515-6.867,1.8731-3.3863,3.7138-6.7141,5.6332-10.1841,3.8937,2.3365,7.6881,4.6134,11.6559,6.9944-1.923,3.3493-3.8179,6.6495-5.7741,10.0566Z"/>
    <path class="cls-1" d="M238.607,173.3756c-1.9124,3.3417-3.7741,6.5949-5.7502,10.048-3.8655-2.2924-7.5782-4.4941-11.4625-6.7976,1.7397-3.4707,3.6978-6.6698,5.5119-10.2025,3.9292,2.3346,7.7684,4.6157,11.7008,6.9522Z"/>
    <path class="cls-1" d="M259.8113,143.4457c-3.9101-2.3155-7.6856-4.5512-11.5485-6.8387,1.8375-3.2988,3.6803-6.6072,5.6369-10.1198,3.9825,2.3636,7.7872,4.6216,11.6543,6.9166-1.9126,3.3444-3.7754,6.6018-5.7427,10.0419Z"/>
    <path class="cls-1" d="M176.6318,147.2435c-3.8282-2.2756-7.5467-4.4859-11.4404-6.8005,1.8199-3.3035,3.6064-6.5463,5.4423-9.8787,2.071.4626,3.9681,2.0338,5.7885,3.1101,1.0744.6353,5.2821,2.3168,5.664,3.4787.727,2.2113-4.1937,8.1849-5.4543,10.0903Z"/>
    <path class="cls-1" d="M115.0848,50.0052c3.9456,2.343,7.7144,4.5811,11.6261,6.9041-1.8917,3.3325-3.7622,6.6275-5.7021,10.0448-3.8751-2.2888-7.6791-4.5356-11.5696-6.8334,1.8689-3.3486,3.6956-6.6217,5.6455-10.1155Z"/>
    <path class="cls-1" d="M131.1565,21.1407c-.4148-4.499-1.5461-8.7013-1.6152-13.1376,2.691,1.2425,1.6728,2.7066,1.6043,4.7002-.0857,2.4959,1.4946,5.9326.5703,8.3192-.915,2.3625-10.7727,3.1973-9.5132,6.0145,1.0895,2.4369,14.0469.6148,16.2207.6073,6.5402-.0225,13.9102.2632,20.339-.8606.1272-2.869-1.4965-5.5589-.5731-8.4726,1.101.3612,1.9455,3.4303,2.4106,4.3923-2.2703,2.0499.4789,9.9916.8712,12.5614.5345,3.5019,1.0177,6.3837.3529,9.8553-1.6045-5.4663-1.8744-11.6553-2.7548-17.2899-9.4757,1.0689-18.7815,1.5183-28.3399,1.6735-2.6218.0426-10.3761,1.4194-9.7917-2.679.6194-4.3437,6.9717-4.9098,10.2189-5.6841Z"/>
    <path class="cls-1" d="M124.6446,42.5777c-.79-1.8205-2.3813-1.6759-3.7099-1.9177-1.4392-3.4598,9.6232-1.345,10.7823-.8084-.5177,1.537-2.382,1.5542-3.1682,2.748.1383,2.3351,4.9811,2.2957,5.5131.1806.3544-1.4087-3.7057-6.057-1.5494-6.8151,1.4482.6155,2.8906,5.5986,2.5612,7.1362-1.054,4.9197-6.6644,2.2369-8.8783.2604-2.2209,1.172-5.1104,3.0942-7.7833,2.4777-3.2697-.7542-3.6927-4.6333-4.1327-7.3926-.5526-3.4647-.7075-6.952-1.3626-10.4049-.513-2.7039-2.4844-7.2077-1.2462-9.7433,2.6199,5.2604,2.7938,12.1126,3.5381,17.8704.3158,2.4431.1265,5.5532,2.3343,7.2057,2.0975,1.57,5.2078.8449,7.1015-.7969ZM126.2903,40.4807q.7029,1.0079,1.2599.1629c-.3657-.0473-.6791-.0878-1.2599-.1629Z"/>
    <path class="cls-1" d="M176.0326,41.4082c3.4339,1.489,8.211.7953,9.8957-1.3984-1.293-1.2314-8.379-.6373-6.2905-2.8362,1.7136-1.8043,8.8225,1.1761,11.1257,1.3663,4.1514.3428,4.855,1.327.2244,2.2826-3.9772.8208-7.6186,2.1645-11.464,3.4715-.2412.9475.1112,2.1483-.8489,3.0209-1.6876-.4033-2.2005-2.0164-3.1814-3.2458-2.5071,1.8393-3.89,2.3237-6.4806.5524-2.8722-1.9638-3.1048-1.5092-4.8759,1.6624-1.0704,1.9169-2.1444,5.7402-4.7012,3.5812-1.5529-1.3113-1.7984-4.5353-.9933-6.217-.1944,1.4861.0162,5.4249,2.2085,5.6491,2.0386.2085,3.6312-5.3863,4.6256-6.6817,2.1575-2.8108,2.3759-.8501,4.3983.6002,2.5532,1.8309,4.6716.6985,6.3577-1.8075Z"/>
    <path class="cls-1" d="M142.087,40.1266c-.5585,1.82-.4964,6.7222-3.1192,6.9948-2.9579.3075-3.4547-5.1111-2.7887-6.8939.2374,1.3559.1259,4.3882,1.5141,5.1692,1.9466,1.095,2.5416-.751,3.0222-2.2083.521-1.5799.708-5.4137,1.8742-6.5706,1.2152-1.2055.8408-.0513.9663.9928.2792,2.3222-1.4302,9.6619,3.9019,7.0922,3.9915-1.9236.9125-7.7979.9125-11.0241,1.9997,2.0307,2.0097,11.7638,6.3483,10.5799,3.5958-.9813-2.9556-8.2259-1.6247-10.9843.5168.5858,1.019,1.155,1.6047,1.8189-1.7124,1.8723,3.1394,6.419,1.7911,9.338-1.7861,3.8666-4.7952.9232-6.0553-1.608-1.3269,1.7549-2.6387,4.4537-5.2557,3.9823-2.9848-.5377-2.6311-4.2742-2.6311-6.5872-.1536-.0306-.3072-.0611-.4607-.0917Z"/>
    <path class="cls-1" d="M178.8742,52.8232c5.9533-2.3416,11.8852-4.691,17.301-8.1595,2.2156-1.419,2.5948-1.8372,1.6746-4.3105-.1959-.5265-3.0472-5.7098-1.2991-5.6927,1.5552.0152,1.9265,3.6523,2.2727,4.7244,1.0773,3.3361-.4381,5.2539-3.0793,7.1849-4.9737,3.6364-10.7505,5.7072-16.8031,6.5644l-.0668-.311Z"/>
    <path class="cls-1" d="M171.7608,30.483c.009.5169.018,1.0337.0305,1.7501,2.2724-.5304,4.1163-1.615,6.2697-1.7491-1.9911,2.2885-8.16,3.3985-11.016,4.4898,1.0365-1.3253,3.8937-1.5734,3.5804-3.6321-.2212-1.4535-2.0639-1.5843-2.3825-3.0503,1.6442.1659,1.9115,2.247,3.5308,2.1986,0,0-.0129-.007-.0129-.007Z"/>
    <path class="cls-1" d="M150.9505,24.9247c-1.1266.1776-3.2827.9635-4.2643.2914-.8809-.6031-1.3895-3.1004-.4817-3.6712.4532,1.0471-.1802,2.3491.8732,3.1695,1.1835.1699,1.5799-.6417,1.8211-1.6607.4425.4666.3842,1.3664,1.4862,1.0892-.0701-.6984-.143-1.4258-.2187-2.1802.8873.8894.9582,1.1497.7841,2.962Z"/>
    <path class="cls-1" d="M130.5272,32.4516c.8259,1.5762-2.0955,1.4875-2.7451.7259.6013-1.7708,1.2914-1.2214,2.7492-.7056l-.0042-.0203Z"/>
    <path class="cls-1" d="M130.5314,32.4719c1.4871-1.206,4.325-.8016,2.0427,1.2807-.6643-.4194-1.3518-.8535-2.0431-1.2943-.0038-.0068.0004.0136.0004.0136Z"/>
    <path class="cls-1" d="M148.6259,21.8429c-.8331-1.4238-.8701-4.1618-1.4958-5.8051,1.6788.4664,1.8694,2.7471,1.4958,5.8051Z"/>
    <path class="cls-1" d="M171.7737,30.49c-.4638-1.2663.3611-2.2332.7229-3.5999.5661.4342.9595.736,1.6544,1.269-1.6917.2186-2.2112,1.1268-2.3957,2.3164.0054.0075.0183.0145.0183.0145Z"/>
  </g>
</svg>