<?xml version="1.0" encoding="UTF-8"?>
<svg id="Suleiman" xmlns="http://www.w3.org/2000/svg" viewBox="0 0 393.4741 293.7299">
  <defs>
    <style>
      .cls-1 {
        fill: #000;
      }

      .cls-1, .cls-2 {
        stroke-width: 0px;
      }

      .cls-2 {
        fill: #007424;
      }
    </style>
  </defs>
  <rect id="bg" class="cls-2" width="393.4741" height="293.7299"/>
  <g id="content">
    <path class="cls-1" d="M248.7735,86.1867c.1934.7095.4291,1.4104.5738,2.1297,1.5836,7.8689,3.2433,15.7238,4.7061,23.6153,2.4025,12.9606,4.7155,25.9382,6.9896,38.922,1.8891,10.7861,3.6468,21.5951,5.5029,32.3871,1.2613,7.333,2.4745,14.6774,3.9249,21.9738,1.4444,7.2662,3.5562,14.3487,6.863,21.0223,1.8554,3.7444,4.1199,7.2022,7.178,10.0893,4.2983,4.058,9.4438,5.6644,15.245,4.9275,3.5494-.4509,6.6599-2.135,9.506-4.2682,3.4733-2.6032,6.3861-5.7648,9.0757-9.1532,1.5195-1.9143,3.0894-3.7904,4.6922-5.6353.4789-.5512,1.1166-.9855,1.7409-1.3789.2628-.1656.8744-.2334.9847-.0872.2086.2768.2901.7691.2066,1.12-.1459.6132-.4577,1.1867-.6979,1.7777-.8944,2.1996-1.4035,4.4354-.9932,6.8456.5001,2.9376,2.051,5.0069,4.8484,6,7.5385,2.6762,15.936,1.2161,21.1015-6.791,1.3895-2.154,2.4913-4.4455,3.3433-6.8686.7935-2.2569,1.5807-4.5385,3.2208-6.3643.4147-.4616.9536-.8252,1.4796-1.1655.1775-.1148.4918-.0182.9754-.0182-.1014.7427-.1483,1.4015-.288,2.04-.2492,1.1395-.6814,2.2523-.812,3.4018-.3632,3.1991,1.1222,5.6621,3.3973,7.7105,1.6555,1.4906,3.6156,2.4102,5.832,2.7546,2.013.3128,4.0286.3749,6.0261-.0597,2.6708-.5811,3.5103-2.2718,2.3365-4.728-.3404-.7123-.8187-1.3725-1.3116-1.9949-.8718-1.1007-1.0997-2.2601-.575-3.5774,1.1407-2.8638,2.2527-5.7391,3.404-8.5986.2128-.5285.5553-1.0047.8498-1.5261.7825.2395.8866.8652,1.0995,1.3703,1.0667,2.5309,1.5347,5.2026,1.6688,7.9229.2605,5.2864.0492,10.5493-1.6478,15.6151-.5669,1.6922-1.3854,3.3591-2.3884,4.8338-2.1147,3.1096-5.1891,4.6506-8.9535,4.6872-1.4304.0139-2.8891-.0082-4.289-.2647-4.8221-.8837-7.8086-3.8382-9.1747-8.4939-.2524-.8602-.4467-1.7375-.7258-2.835-.3308.4452-.5701.6952-.7267.9894-1.0497,1.9723-2.126,3.9323-3.1104,5.9371-2.0662,4.2082-5.501,6.9653-9.5326,9.085-2.1885,1.1507-4.5165,1.7827-7.0217,1.8731-7.1794.2589-12.7234-5.4693-13.9315-11.1449-.2193-1.0306-.298-2.0911-.4671-3.3245-.31.2973-.5746.4954-.7703.7473-1.9907,2.5625-3.8779,5.212-5.9717,7.6867-4.6532,5.4998-10.5468,8.7719-17.8279,8.9514-7.2875.1796-13.3605-2.6309-18.0868-8.2238-3.3116-3.9189-5.5431-8.4157-7.0599-13.2986-2.4189-7.7871-3.9552-15.7733-5.4237-23.7757-.3453-1.8816-.6523-3.7702-.9862-5.6539-.0519-.2929-.1538-.5769-.3229-1.1954-.2693.616-.4236.9149-.534,1.2291-2.5805,7.342-7.8474,11.9731-14.9404,14.7038-2.9046,1.1182-5.9714,1.6306-9.0742,1.5457-5.8404-.1598-10.651-2.407-13.8021-7.5103-1.1685-1.8924-2.0684-3.9508-3.0925-5.9325-1.0733-2.077-2.0361-4.2218-3.2528-6.2112-1.4219-2.325-2.6231-2.6124-4.852-1.0126-1.8415,1.3217-3.5561,2.8859-5.0804,4.5664-1.635,1.8026-3.0527,3.8178-4.4364,5.8289-1.6908,2.4575-2.0631,5.1761-1.2967,8.0809.8915,3.3787,2.4549,6.4234,4.3316,9.461,1.1941-.4562,2.2733-.8768,3.3585-1.2813,2.7985-1.0432,5.6525-1.8665,8.6423-2.1343,2.7925-.2502,5.5185.0322,8.1443,1.0595,3.0708,1.2014,5.1374,3.3936,6.093,6.526.4298,1.4088.6995,2.9078.7663,4.3784.2057,4.5315.0217,9.0447-1.3045,13.4341-.2303.7622-.4849,1.5232-.8053,2.2509-2.2698,5.1562-6.6503,7.2564-12.1142,5.855-2.9147-.7475-5.344-2.3209-7.5231-4.3346-3.1208-2.8838-5.4934-6.3437-7.6545-9.9658-.2705-.4534-.553-.8996-.9213-1.4974-.5435.2461-1.0603.4726-1.5708.7126-4.3792,2.0584-8.7121,4.2235-13.1486,6.1496-4.2683,1.853-8.7754,2.9701-13.4348,3.2155-8.4182.4433-15.5768-2.2645-21.1122-8.7953-3.8617-4.5562-6.1544-9.9206-7.8546-15.5612-2.0039-6.6479-2.9271-13.4916-3.5771-20.387-.5239-5.5569-1.1787-11.1016-1.7887-16.6503-.5516-5.0177-1.0806-10.0383-1.693-15.0487-.7351-6.0147-1.4574-12.0335-2.3488-18.0261-1.251-8.4105-2.5469-16.8173-4.0183-25.1914-1.6473-9.3755-3.5796-18.6981-6.6692-27.731-.6703-1.9597-1.5333-3.8529-2.2285-5.805-.2387-.6702-.4795-1.4934-.3037-2.1323,1.0703-3.8918,2.2558-7.752,3.42-11.6176.0843-.2799.3037-.519.6266-1.0512.5272.9732.9979,1.7223,1.356,2.5218,3.0514,6.8124,5.4856,13.8367,7.1905,21.1092,2.4402,10.4091,4.418,20.9094,6.0015,31.4786,1.1258,7.5144,2.0866,15.0549,3.025,22.5958,1.1815,9.4946,2.2689,19.0009,3.3893,28.503.6598,5.5952,1.1846,11.2095,1.9861,16.7841,1.0809,7.5178,2.893,14.8442,7.0774,21.3356,4.4238,6.8629,10.7064,10.4612,18.9426,10.4533,2.9232-.0028,5.6875-.8534,8.3627-1.8819,4.4153-1.6975,8.7617-3.5744,13.1332-5.3852.3349-.1387.6389-.3518,1.0292-.5707-.0813-.4387-.1201-.856-.2372-1.25-2.6368-8.8764-1.5794-17.4966,2.0016-25.8588,2.3363-5.4557,5.4155-10.4896,9.5788-14.7896,1.541-1.5916,3.346-2.7968,5.4269-3.5549,2.5196-.9179,4.03-.5489,5.4996,1.7177,1.2364,1.9069,2.2568,3.9734,3.1952,6.0495,1.2738,2.8182,2.5251,5.6271,4.513,8.0411,2.6563,3.2257,5.9771,5.0875,10.1895,5.5912,6.4035.7658,11.7753-1.5948,16.8091-5.1258,1.1751-.8243,2.127-1.9304,2.7289-3.2815.5312-1.1925.7513-2.4076.537-3.7267-1.5432-9.4963-3.0344-19.0011-4.5896-28.4954-1.8042-11.015-3.6332-22.0261-5.4956-33.0315-1.6407-9.6956-3.3506-19.3795-5.0007-29.0735-.1312-.7709-.2151-1.6302-.0139-2.3642,1.307-4.7677,2.6968-9.5127,4.0694-14.2623.0695-.2404.2302-.4544.3484-.6807.1067.0135.2134.027.3202.0405ZM213.986,237.7737c.1055.3299.116.5018.2031.6142,1.6457,2.1228,3.5837,3.9068,6.0346,5.0639,1.7247.8142,3.5633,1.05,5.4363.7991,1.7373-.2327,2.2883-1.3977,1.2932-2.8318-1.4342-2.067-3.2651-3.665-5.9131-3.8781-1.7376-.1398-3.488-.161-5.2323-.156-.5937.0017-1.1866.2458-1.8218.3886Z"/>
    <path class="cls-1" d="M29.2831,182.1178c-.2168.6267-.4024,1.2663-.6554,1.878-1.9301,4.6661-3.9255,9.306-5.7919,13.9973-1.0285,2.5853-1.6246,5.2848-1.1915,8.1118.1653,1.0789.5314,2.0618,1.316,2.8452,1.1692,1.1675,2.6382,1.2259,3.8427.107.582-.5406,1.0902-1.1647,1.599-1.7782.2653-.3199.4594-.6988.748-1.1482.7058.8158.6216,1.4179.3784,1.9078-.8238,1.659-1.586,3.3749-2.6297,4.8914-1.137,1.652-2.8827,2.2594-5.0228,1.7924-.8899,2.2766-1.5409,4.5691-2.0776,6.8874-1.3047,5.6355-1.6706,11.364-1.4037,17.1246.2607,5.6273,1.3136,11.0821,4.0176,16.1132,2.8299,5.2653,7.0431,9.0054,12.5175,11.3445,5.007,2.1394,10.2777,2.9792,15.6836,3.1983,8.4231.3415,16.4779-1.4795,24.3946-4.1014,9.6744-3.204,18.8661-7.5206,27.7979-12.3812,6.0707-3.3036,12.055-6.7716,18.0029-10.2928,2.1402-1.2671,4.0589-2.9078,6.0826-4.3725,2.0341-1.4723,2.6026-3.3609,1.7362-5.7324-1.6414-4.4929-3.2317-9.0045-4.8628-13.5012-2.3384-6.4467-4.6897-12.8887-7.0528-19.3263-.1593-.4341-.3973-.8783-.7134-1.2076-.6011-.6261-.869-1.3306-.7634-2.1738.4761-3.8014,1.0345-7.5887,2.182-11.2584.184-.5885.5037-1.1345.8027-1.7926.4043.2216.7255.3117.9239.5193,3.5658,3.7295,7.187,7.4136,10.1705,11.6494.4865.6906.8793,1.4566,1.2401,2.2232.2432.5167.5056,1.1086.0338,1.6499-.4665.5353-1.0629.3856-1.6266.2021-.8083-.2633-1.604-.5649-2.4075-.8432-.3822-.1323-.77-.2485-1.4859-.478.3349.794.547,1.309.7684,1.8201,2.8558,6.5916,5.5383,13.241,7.4082,20.2008,1.8984,7.0657,1.0295,13.8757-1.4104,20.6468-1.6329,4.5316-4.6325,7.947-8.2191,10.9686-5.8445,4.9237-12.3148,8.9183-18.9169,12.7098-9.3758,5.3845-18.9967,10.2555-29.2241,13.8492-6.95,2.4422-14.0458,4.2594-21.4022,4.8548-5.8603.4743-11.6825.2635-17.3935-1.3993-8.6662-2.5231-14.9116-7.9165-19.0597-15.8547-2.4353-4.6604-4.1044-9.5649-4.7715-14.7976-.5554-4.3573-.3415-8.7094.079-13.0562.7756-8.0177,3.0042-15.6466,6.3223-22.9623.5844-1.2884.6896-2.4108.1825-3.7888-1.1877-3.2277-.7169-6.5056.1999-9.723,1.7286-6.0664,4.2728-11.7927,7.3456-17.2884.5042-.9016.9978-1.8474,1.8765-2.4535.1432.0729.2863.1457.4295.2186Z"/>
    <path class="cls-1" d="M95.8747,129.1602c-.379-.4591-.6622-.8129-.9569-1.1568-.7581-.8847-1.4405-1.8549-2.2996-2.628-1.7191-1.5469-3.8456-1.0998-4.8727.9773-1.6698,3.3766-2.4923,6.978-2.8952,10.7145-.4499,4.1727-.8865,8.3592-1.6391,12.483-.6403,3.5084-2.3809,6.5771-4.8995,9.1589-2.3496,2.4085-4.8778,4.5851-7.8162,6.2635-2.953,1.6868-5.7546,3.7049-8.8484,5.0634-4.3675,1.9178-8.942,3.3641-13.4316,5.0023-.1333.0486-.3067-.0127-.7314-.0404.5792-.5014.9944-.879,1.4284-1.2337,4.1334-3.3771,8.648-6.1831,13.2795-8.8058,5.6267-3.1862,10.7241-7.0947,15.5869-11.3275.3965-.3451.7643-.753,1.039-1.1976.1718-.2782.2829-.7265.1844-1.0186-.9496-2.8164-1.8171-5.6718-2.9711-8.4049-1.2304-2.9139-3.1835-5.3925-5.4374-7.6158-.1455-.1435-.34-.2374-.5929-.4097-.8816,1.2359-2.0276.9913-3.1103.4623-1.617-.79-3.2451-1.5917-4.747-2.5741-1.8067-1.1818-2.4106-3.0227-2.2388-5.1351.043-.5294.1007-1.0576.1502-1.5866.2205-2.355,1.7238-3.6495,4.0915-3.446,2.3356.2007,4.3446,1.2175,5.8024,3.0036,1.6757,2.0533,3.1743,4.2572,4.6698,6.4503,1.9225,2.8193,3.5802,5.7775,4.5299,9.0972.2843.9938.7742,1.9426,1.7851,2.9319.2182-1.2449.4084-2.2042.5518-3.1704.5617-3.7835.9317-7.6064,1.7163-11.3425.6402-3.0489,1.1681-6.1869,2.7264-8.9693.4885-.8722,1.0699-1.7212,1.748-2.4515.9283-.9997,2.1532-1.3631,3.5025-1.0268,2.1061.5249,3.9691,1.4759,5.4342,3.1423.8154.9273,1.3708,1.9521,1.1461,3.1849-.2839,1.5567-.6901,3.0933-1.1024,4.6226-.0841.3119-.4292.5534-.7818.983Z"/>
    <path class="cls-1" d="M218.8834,50.4076c0,.6962-.0777,1.3889.0164,2.0574.1888,1.3421.9047,1.9455,2.2429,2.0336,3.2313.2126,5.4063-1.5192,5.5421-4.7709.1507-3.6064.1961-7.2382-.0558-10.8349-.3077-4.3928-.9647-8.7614-1.4874-13.1385-.1415-1.1848.153-2.263.5971-3.6821.9518,2.2062,1.1779,4.2044,1.5403,6.1668.7945,4.3018.8659,8.6592,1.0182,13.0129.1003,2.8641.1454,5.7416.8847,8.5412.414,1.5675.7859,2.0702,2.1842,2.9485-.0673-.3361-.0703-.5764-.1622-.7756-1.2016-2.6031-.9918-5.1249.7246-7.374,1.7424-2.2832,4.2672-2.6533,6.9223-2.2034,1.8252.3093,3.485,1.0509,4.7441,2.5432-2.6217-.8932-5.2409-.8498-7.8432-.1281-1.0661.2957-2.1053.7398-3.0913,1.2444-.3321.17-.6738.749-.6503,1.1181.1815,2.8524,2.7726,6.5359,5.9768,6.7706,1.6359.1198,3.0519-.3868,4.3912-1.1435,1.291-.7294,2.4807-1.6378,3.7192-2.4612.1679-.1116.3603-.1863.5967-.3061.292,1.0857-.1526,1.898-.8343,2.4891-2.343,2.0317-4.8215,3.8742-7.9316,4.5779-2.7148.6143-5.2724.3307-7.5832-1.3862-1.2727-.9456-2.1735-2.1557-2.9152-3.9916-.2484.8229-.3741,1.2982-.5346,1.7613-.8243,2.3784-2.4588,3.8148-4.973,4.1407-2.0597.267-3.5185-.721-4.1108-2.7002-.1329-.4442-.2441-.8948-.3968-1.4593-.6094.2468-1.0964.4242-1.5671.6376-7.1335,3.2337-14.6607,5.0013-22.3879,6.0277-4.596.6105-9.2159.8781-13.8352.5087-2.9544-.2362-5.897-.7143-8.8192-1.2292-2.1569-.38-3.7689-1.6503-4.7883-3.626-.1947-.3772-.4268-.7369-.6623-1.0909-.9075-1.3644-1.5214-1.5263-2.9012-.6239-1.4241.9313-2.3267,2.3109-3.0005,3.8447-.5773,1.3141-1.0861,2.6606-1.717,3.9478-.3453.7045-.8047,1.389-1.3474,1.9526-.936.9719-1.9722,1.0099-2.9585.0884-.5675-.5301-1.0375-1.2135-1.397-1.9079-.8685-1.6779-1.2633-3.4886-1.2351-5.3855.0085-.5686.0013-1.1375.0013-2.0185-.4972.435-.7544.6534-1.0036.8806-.1571.1431-.2928.3106-.4545.4479-1.2527,1.0638-2.5854,1.9895-4.3261,1.3081-1.7509-.6855-2.6624-2.1292-2.8504-3.923-.1137-1.0852.0337-2.2248.2306-3.3096.3519-1.9386,1.2226-3.692,2.3599-5.3417-.3974,1.1778-.8627,2.338-1.1739,3.5381-.3439,1.3262-.7311,2.6838-.7695,4.037-.0648,2.2883,1.6616,3.4112,3.7591,2.4971.9515-.4146,1.8495-1.0586,2.6161-1.767,1.2864-1.1889,2.4611-2.5006,3.6602-3.7818,3.0258-3.2327,6.5832-5.6926,10.6618-7.407.2837-.1192.5465-.2883.9141-.485-.2325-.5287-.5359-.9833-.6261-1.477-.1495-.8184-.3422-1.6954-.195-2.488.3277-1.7655,2.1244-2.6582,3.8405-1.831,1.3217.6371,2.5859,1.4904,3.6888,2.4602,1.355,1.1915.683,3.6476-1.0337,4.2033-.7584.2455-1.5182.4897-2.2873.6978-.7595.2055-1.4038.4953-1.3394,1.5898-.4269-.2854-.6853-.5699-.9868-.6271-.278-.0528-.6091.1194-.9052.225-4.8838,1.7421-8.8497,4.7893-12.2619,8.6273-.5152.5795-.8447,1.1972-.7681,2.0083.1345,1.4245.2196,2.8536.3528,4.2783.0291.311.1571.6172.2672.9154.4128,1.1183,1.1196,1.9932,2.3522,2.1295,1.2418.1373,1.9522-.7504,2.4528-1.7175.757-1.4624,1.3534-3.0094,2.1357-4.4569.6782-1.2549,1.4765-2.4525,2.3093-3.6124.3608-.5026.9019-.9085,1.4306-1.251,1.2136-.7862,2.1801-.6111,3.0478.5436.4451.5923.8267,1.2405,1.1736,1.897.8512,1.6109,2.1244,2.6541,3.9384,2.9238,2.8852.4291,5.767,1.0224,8.6693,1.1687,10.3308.5207,20.4724-.7707,30.3671-3.7775,2.9351-.8919,5.7623-2.1392,8.8377-3.2985ZM165.5602,40.8133c1.1546-.2958,2.1356-.4007,2.9087-1.2606-1.1646-.9505-2.3867-1.3499-4.0604-1.4155.4435,1.0304.7665,1.781,1.1517,2.6761Z"/>
    <path class="cls-1" d="M207.5905,176.0752c-.957-.6137-.9198-1.4669-1.0663-2.2038-1.0153-5.1085-1.9527-10.233-3.0181-15.3308-1.3155-6.2946-2.7671-12.5606-4.0862-18.8545-.5772-2.7541-1.0662-5.5342-1.4306-8.324-.9009-6.8976,4.2499-12.3375,9.0921-13.4694.2393-.0559.4512-.2288.7154-.368-2.2261-1.5044-3.9809-1.1339-5.2458,1.0304-.3124.5345-.648,1.0552-1.0141,1.6491-.7692-1.2121-.5195-2.9767.6297-5.3006,1.1081-2.2407,1.5667-2.7237,3.6243-3.8169-.356-3.0609-5.0947-10.67-7.4551-11.9057-.2441.4604-.4884.9212-.7807,1.4726-.352-.0529-.758-.0088-1.0432-.1737-2.0209-1.1688-4.0342-2.3532-6.0136-3.5906-.9212-.5759-1.3572-1.4544-1.1949-2.5878.1651-1.1531.1741-2.3417.4611-3.461.3616-1.41,1.0817-1.7196,2.5247-1.4434,2.8395.5435,5.0736,2.1478,7.0689,4.1057,2.7203,2.6693,4.8292,5.7908,6.4949,9.2153.2051.4216.4378.8299.8532,1.6128.1253-.7415.2315-1.1077.2426-1.4768.1037-3.4566.1457-6.9157.3008-10.3697.091-2.0267.5095-4.0134,1.4206-5.8512,1.1811-2.3827,2.9667-3.1544,5.3907-2.0947,1.2869.5626,2.3919,1.5433,3.5725,2.3448.1272.0864.2785.2233.3046.3587.1479.7671.4179,1.5558.3463,2.3086-.0893.9404.0475,2.0347-.996,2.8644-.4287-.4397-.83-.8383-1.2168-1.2505-1.0698-1.1401-2.3159-1.8424-3.9455-1.6927-1.3451.1236-2.3309.8374-2.6793,2.1259-.1924.7113-.2811,1.4625-.3218,2.201-.2485,4.5117-.4666,9.0251-.7026,13.5375-.05.9553-.1208,1.9099-.2032,2.863-.0584.6758.233,1.0484.8429,1.3534,2.5155,1.2582,4.4301,3.2728,6.4075,5.2053.7324.7157.873,1.6096.6229,2.5056-.2545.9118-.6862,1.7784-1.0846,2.6445-.3444.7488-1.0861.7559-1.7726.8529-3.4961.4943-6.8569,1.4655-10.0756,2.9153-.6278.2828-1.2188.6483-1.8222.9839-1.3942.7755-1.8396,1.9096-1.4908,3.4837.736,3.3216,1.4215,6.6554,2.0665,9.996,1.9548,10.1237,3.9,20.2494,5.7941,30.3846.251,1.3432.2174,2.7452.2449,4.1215.0087.4343-.2133.8732-.3615,1.4295Z"/>
    <path class="cls-1" d="M268.7846,256.0182c4.4563,2.604,8.7513,5.1139,13.2479,7.7415-2.1454,3.8172-4.238,7.5406-6.4453,11.468-4.3165-2.4324-8.4429-4.9997-12.8449-7.5181-1.9565,3.1321-3.6086,6.3799-5.5832,9.5883-4.4596-2.6044-8.7996-5.139-13.2572-7.7423,2.1824-3.8786,4.2829-7.6119,6.4753-11.5083,4.3839,2.536,8.6391,4.9976,13.1001,7.5782,1.7754-3.2139,3.5022-6.3398,5.3072-9.6073Z"/>
    <path class="cls-1" d="M284.1718,108.0517c-.9173,1.4251-1.9945,1.0085-3.006.4627-1.5395-.8307-3.0604-1.7035-4.5377-2.6396-1.2563-.7961-1.8962-1.9595-1.7647-3.5108.094-1.1095-.0367-2.2517.167-3.3352.3865-2.0559,1.477-2.7475,3.5511-2.4796,1.7587.2272,3.1841,1.1341,4.5145,2.2257,1.9964,1.6381,3.5293,3.6764,4.9378,5.8124,1.7891,2.7132,3.3853,5.5271,4.5213,8.5916.4187,1.1294,1.012,2.194,1.5257,3.2882.113-.0102.2259-.0205.3389-.0307.0975-.3667.2214-.7286.2885-1.1007.9704-5.3841,1.881-10.7799,2.9314-16.1482.2923-1.4937.9661-2.9177,1.5199-4.3524.2078-.5384.533-1.0441.8712-1.5171,1.2864-1.7989,2.9147-2.3878,5.0155-1.7413,2.1113.6498,3.7013,2.0404,5.0121,3.7776.0637.0844.1248.1739.1688.2695.6539,1.4214-.2577,5.5092-1.6246,6.8111-.3748-.4208-.7442-.841-1.1197-1.2557-.6402-.7072-1.2063-1.5086-1.9424-2.0963-1.6586-1.3242-3.3873-1.0488-4.4527.7807-.6869,1.1797-1.2855,2.4835-1.5744,3.8078-.6783,3.1087-1.1818,6.2576-1.6907,9.4008-.5603,3.4609-1.008,6.9403-1.59,10.3972-.179,1.0632-.3267,2.2166-1.2885,3.0462-1.0183-.2646-1.4568-1.0988-1.7898-1.9016-.7111-1.7145-1.3702-3.4578-1.9246-5.2287-1.0788-3.4459-2.6536-6.6085-5.0477-9.3292-.5853-.6652-1.2549-1.2562-2.01-2.0044Z"/>
    <path class="cls-1" d="M218.4687,17.127c-.2999-.1823-.5998-.3646-1.025-.623,0,1.2129-.0608,2.3005.0105,3.3793.3086,4.6701.6697,9.3368.983,14.0066.154,2.2951.1026,4.5962-.6985,6.7784-.3965,1.0801-.9155,2.1817-1.6363,3.063-1.7531,2.1435-4.3889,1.8309-5.7694-.5694-.2061-.3584-.4046-.7212-.6931-1.2366-.3176.539-.5236.9541-.7902,1.3258-.4003.558-.77,1.1702-1.2809,1.6106-1.733,1.4938-3.9159.9319-4.7942-1.1865-.1614-.3895-.2803-.7967-.4689-1.3401-.3066.289-.5476.5214-.7943.7476-.8196.7516-1.6014,1.5517-2.4736,2.2365-.816.6407-1.8089.8623-2.8548.8385-1.917-.0437-2.7992-.755-3.2265-2.6421-.0687-.3037-.1128-.613-.203-1.111-.4007.248-.729.3794-.9603.6088-.5281.5236-.9815,1.123-1.5139,1.6416-1.3406,1.306-2.8838,2.1503-4.8334,2.0929-1.8871-.0556-3.0964-.865-3.7294-2.6654-.2748-.7815-.4355-1.6031-.9304-2.4251-.147.5876-.3022,1.1733-.4397,1.7631-.9164,3.9315-3.3577,6.4399-7.1845,7.59-1.6614.4993-3.3662.8541-5.0512,1.2746l-.1246-.3154c.3211-.2317.6284-.486.9655-.6915,1.9074-1.1626,3.8313-2.2983,5.7321-3.4717,3.6695-2.2651,5.7632-5.5611,5.7713-9.8733.0092-4.8888-.2906-9.7785-.4769-14.6669-.0153-.402-.1896-.7979-.3383-1.388-2.7244,1.0757-5.3278,2.1037-7.9498,3.1389-.2938-1.6423.0919-2.3744,1.4789-2.9021,2.0353-.7744,4.0752-1.5371,6.2301-2.3489.1924-2.5454-1.2829-5.1117.1382-7.8843.9782,2.3528,1.0982,4.7237,1.7255,7.1881,5.9646-2.1999,11.8081-4.3552,17.8453-6.5819-.245,1.5059-.8742,2.2445-2.119,2.7011-4.5919,1.6844-9.146,3.4716-13.7119,5.2265-.5876.2258-1.1608.489-1.7155.7242.1906,4.4144.3594,8.7095.5689,13.0025.0983,2.0154.1533,4.0447.4433,6.0364.5049,3.4677,1.9861,3.8089,4.8971,3.2251,1.6279-.3265,2.8619-1.3453,4.0085-2.4876.6533-.6508,1.3449-1.2629,2.2563-2.1137,0,.697.0099.9944-.0016,1.291-.068,1.7496.7314,2.6822,2.47,2.8677,1.9826.2115,3.6584-.4271,5.0677-1.8217.7142-.7067,1.4461-1.3954,2.3137-2.2305-.0268.4485-.0534.767-.0636,1.0861-.0561,1.745,1.3905,2.8433,3.07,2.3573,1.3707-.3967,2.2261-1.3946,2.9986-2.4967.3198-.4562.616-.929,1.1076-1.6742.0518.7646.0468,1.1711.1119,1.5661.2538,1.5414,1.3984,2.4058,2.9547,2.2564,2.0531-.1971,3.2013-1.2905,3.2339-3.3708.0291-1.8557-.1503-3.7161-.2703-5.5723-.1782-2.7552-.3965-5.5077-.577-8.2628-.2256-3.4457-.3345-6.9029-.6928-10.3343-.1356-1.2989-.377-2.5065.334-3.6833.0735-.1217.1849-.2206.4201-.4949,1.0799,2.2455,1.799,4.4756,2.5736,6.6845-.1059.0523-.2117.1046-.3176.1568Z"/>
    <path class="cls-1" d="M271.9758,160.8223c.5191-2.5437,1.2328-4.4427,3.456-5.541,13.2106-6.526,26.5693-12.7319,40.151-18.4424,9.8504-4.1416,19.7754-8.1057,29.6693-12.1437.735-.3,1.4873-.5575,2.2501-.8417.1725,2.2129-.9844,4.0838-2.9231,4.9123-17.161,7.3339-34.3497,14.6044-51.461,22.0525-6.6758,2.9058-13.1751,6.2171-19.7549,9.3438-.3312.1574-.6623.3151-1.3875.6601Z"/>
    <path class="cls-1" d="M314.4239,207.5147c.4741-.3872.9179-.8208,1.427-1.1545,7.4262-4.868,14.8437-9.7496,22.3-14.5712,5.2719-3.409,10.5406-6.8179,15.2344-11.0173,1.2943-1.158,2.4652-2.4542,3.8785-3.8735-.7078-.3753-1.1635-.594-1.5968-.8508-1.3676-.8107-2.7747-1.5666-4.0769-2.4727-1.5877-1.1047-1.9613-2.6982-1.4398-4.5204.1461-.5104.2887-1.0318.5189-1.5064,1.2902-2.6602,2.9752-5.0282,5.2599-6.9359.2439-.2037.507-.3881.7763-.5572,2.7477-1.7251,4.988-.7133,5.6546,2.4488.4673,2.2165.124,4.3308-.4614,6.4463-.3093,1.1177-.6502,2.2268-1.0182,3.4808,1.1469.5697,2.2152,1.1004,3.3283,1.6533-.4091,1.648-1.0665,2.9991-2.1174,4.3165-1.0102-.3505-2.0023-.6948-2.9872-1.0365-.1656.0899-.3592.129-.4332.2447-3.122,4.8801-7.4475,8.574-11.9783,12.0364-6.2306,4.7615-13.0208,8.6389-19.9442,12.2804-3.6223,1.9052-7.3082,3.6894-10.9692,5.5208-.3569.1785-.74.3047-1.1109.4551-.0815-.1289-.163-.2579-.2445-.3868ZM359.6495,171.8617c.4283-2.5839.4809-4.7973-.8913-6.8121-.7675-1.1269-1.5507-1.3423-2.6977-.5372-1.0221.7174-1.939,1.6247-2.7659,2.5679-.6779.7732-.5641,1.2109.2861,1.8432,1.7531,1.304,3.7775,2.0463,6.0689,2.9382Z"/>
    <path class="cls-1" d="M149.1978,94.642c.8827.852,1.5535,1.3724,2.0696,2.0168,6.9091,8.6259,10.4127,18.467,10.2164,29.5284-.0419,2.3631-.6866,4.7182-1.0863,7.0714-.6345,3.7357-1.0816,7.4847-.5496,11.267.1761,1.2521.4637,2.5223.9319,3.6914.6745,1.6841,1.9607,2.2855,3.5718,1.9332,1.4995-.3279,2.3256-1.4093,2.3755-3.1563.0228-.7975-.0128-1.5964-.0072-2.3946.0038-.537.0013-1.0934.8436-1.2273.1627.2719.4292.5525.5107.8793.6474,2.5946,1.1181,5.2121.4567,7.877-.164.661-.4183,1.329-.7713,1.9083-1.3096,2.1494-4.0166,2.5924-5.882.9238-2.5575-2.2878-4.0127-5.1763-4.4426-8.5895-.6582-5.2261-.1336-10.3617.7634-15.5354,1.6691-9.6273-.3041-18.3953-6.9301-25.8458-.7395-.8316-1.5919-1.5674-2.4278-2.3071-.7429-.6575-1.0592-1.4237-.892-2.4128.2125-1.2571.3566-2.5263.5882-3.7795.0921-.4983.3392-.9679.6612-1.8482Z"/>
    <path class="cls-1" d="M285.0495,182.3372c.2449-.4855.3798-.8815.617-1.2018,1.2965-1.7504,2.6267-3.4757,3.9268-5.2234.5127-.6892,1.1737-1.0095,2.022-1.1029,3.5349-.3893,6.9959.0798,10.4276.8639,1.1896.2718,2.3744.5931,3.5272.9912,1.8183.6278,2.3678,1.7718,1.8158,3.616-.1211.4044-.2663.8211-.4942,1.171-2.9146,4.4754-6.3134,8.3276-12.0119,9.1441-2.3115.3312-4.6237.6607-6.9408.9491-.3626.0451-.753-.1334-1.1305-.2085-.0281-.1272-.0563-.2544-.0845-.3816.5122-.303,1.0033-.6514,1.5401-.9015,3.5638-1.6603,7.1389-3.2963,10.7061-4.9493.5137-.238,1.005-.5245,1.8059-.9461-2.7001-1.3222-5.2999-1.3355-7.8572-1.4922-2.5367-.1555-5.0792-.2158-7.8695-.328Z"/>
    <path class="cls-1" d="M80.7775,233.0754c-4.4887-2.6394-8.7367-5.1373-12.9597-7.6205.3028-1.2837,5.2762-10.1973,6.4285-11.5015,4.2923,2.526,8.6129,5.0686,13.0728,7.6931-2.2044,3.8513-4.3264,7.5587-6.5416,11.4289Z"/>
    <path class="cls-1" d="M141.7715,259.5522c-.1737.2403-.2778.3189-.2885.4087-.3542,2.956-2.0326,5.028-4.3129,6.7959-4.9269,3.8198-10.0758,7.3139-15.4733,10.4126-2.0085,1.1531-4.2979,1.8253-6.4782,2.6676-1.7754.6859-3.5791,1.2982-5.3703,1.9432-.0592-.0979-.1185-.1957-.1777-.2935.3789-.2552.7493-.5245,1.1381-.7636,5.4804-3.3717,11.0087-6.6683,16.4286-10.1345,3.265-2.088,6.385-4.4071,9.5211-6.6898.9371-.6821,1.745-1.5576,2.5458-2.4069.9695-1.0283,1.5129-2.2895,1.8134-3.6717.3774-1.736,1.0971-3.3365,2.1498-4.7648,1.019-1.3825,2.1889-1.5129,3.553-.4592,2.1235,1.6403,2.893,3.8782,2.7546,6.4697-.0709,1.3265-.5467,1.7309-1.923,1.8358-1.6831.1283-3.2696-.2821-4.8155-.8977-.3375-.1344-.6691-.2833-1.0649-.4517ZM147.1778,257.7858c-.2165-2.2162-1.4932-3.1396-2.9992-2.4459-.3346.1541-.7274.5637-.7555.8852-.024.2737.3848.7573.6951.8563.9323.2975,1.91.4523,3.0596.7044Z"/>
    <path class="cls-1" d="M354.9898,261.6514c-.4108.4343-.7682.8074-1.1203,1.1854-1.5407,1.6538-3.7711,2.2711-5.8142,1.3114-3.241-1.5224-6.1192-.9034-8.7591,1.2317-2.8917,2.3386-5.6757,4.8099-8.5471,7.1742-4.3797,3.6061-9.4048,5.9483-14.8547,7.4222-.3255.088-.6779.0762-1.0994-.1338.4551-.2247.8951-.4892,1.3676-.668,6.9431-2.6277,12.7993-6.8622,17.9324-12.154,2.3146-2.3862,4.9193-4.3646,7.8377-5.956,2.0141-1.0983,3.9434-1.301,6.0376-.1202,2.3833,1.3438,5.0893.4457,6.3935-1.9617.2525-.4661.4106-.9844.6734-1.4436.2464-.4304.5739-.8144,1.1544-1.1135.0169.2789.0713.5614.0447.836-.158,1.6289.7302,2.4966,2.3388,2.2162.3853-.0672.7429-.2941,1.0519-.4222-.1727-.7906-.4858-1.4506-.4018-2.0554.0854-.6149.562-1.1754.8919-1.8068.2955.2189.462.2831.5322.4034.7986,1.3695.5524,4.9164-.411,6.1102-.8063.9991-2.5319,1.3801-3.7962.8037-.431-.1965-.8214-.4818-1.4524-.8594Z"/>
    <path class="cls-1" d="M234.9958,152.892c-.1278.5492-.2367,1.1037-.388,1.6464-.216.7742.011,1.2798.7185,1.7173,1.1732.7256,2.3146,1.515,3.4036,2.3621,3.218,2.5029,3.7606,4.3184,2.5207,8.1949-1.3297,4.1571-4.8893,5.2782-8.4348,4.9347-1.5898-.1541-2.5138-1.2242-2.9468-2.7575-.5408-1.9149-.2179-3.812.1236-5.686.393-2.1567,1.2399-4.1622,2.3557-6.0611.5346-.9097.9234-1.9049,1.3842-2.8584.2654-.5493.5426-1.0929.8146-1.639.1496.0489.2991.0978.4487.1466ZM239.6083,164.7267c-1.8282-1.9714-3.8483-3.2555-6.0146-4.5564-1.0418,1.5173-1.5717,3.0556-1.637,4.7147-.0505,1.2809.7011,2.0762,1.9749,1.9355,1.2953-.143,2.5725-.5666,3.8193-.9823.6111-.2038,1.1355-.6679,1.8575-1.1115Z"/>
    <path class="cls-1" d="M93.5548,167.1106c-.1072.4258-.2088.853-.3225,1.277-.3944,1.4722-.3622,1.4508.869,2.3349,1.5504,1.1134,3.0716,2.2703,4.5658,3.4584,1.2522.9956,1.853,2.3147,1.5892,3.933-.1867,1.1458-.318,2.3225-.6893,3.4119-.8937,2.6214-2.8776,3.9766-5.5547,4.3978-.2615.0411-.5299.0366-.7947.0582-3.3794.276-4.9651-1.1433-5.0178-4.5585-.0485-3.1429.7434-6.0914,2.1573-8.8883.7642-1.5116,1.4816-3.0469,2.2387-4.5622.1763-.3528.4283-.6678.6455-1.0001.1045.0459.209.0919.3135.1378ZM92.2332,174.3544c-1.1018,1.2405-1.4069,2.6014-1.6915,3.9343-.4454,2.086.6599,3.2974,2.7236,2.8566,1.3822-.2952,2.6957-.9358,4.0158-1.4804.2962-.1222.4918-.4885.8093-.8216-1.756-1.7983-3.7674-3.0536-5.8572-4.489Z"/>
    <path class="cls-1" d="M159.0325,15.1436c1.7743,1.355,3.3468,2.5558,5.1979,3.9693-.8259.0667-1.2676.1024-2.0371.1645.8753.9944,1.5558,1.8384,2.3092,2.6112,3.2274,3.3102,6.5495,6.5318,9.6834,9.9276,1.3524,1.4654,2.4519,3.2065,3.4491,4.9469,1.1553,2.0164,1.1872,4.2272.4819,6.6123-.3638-1.3645-.5811-2.5948-1.0199-3.7401-.9498-2.4789-2.6494-4.4693-4.48-6.3363-2.4557-2.5046-5.0145-4.9105-7.4139-7.4668-1.5946-1.6989-2.9937-3.5822-4.4678-5.3931-.402-.4938-.6817-1.1134-1.1515-1.5207-1.2-1.0405-.8215-2.2322-.5513-3.7747Z"/>
    <path class="cls-1" d="M221.0072,14.4227c.8347,2.2095,1.6693,4.4191,2.504,6.6286-.0756.0605-.1512.121-.2269.1815-.374-.2004-.7481-.4008-1.3827-.7408.0758.7982.1471,1.3928.1867,1.9896.3628,5.4616.6653,10.9279,1.1022,16.3835.2181,2.7233.2905,5.411-.4195,8.0683-.2006.7505-.4918,1.4768-1.0357,2.1737-.0173-.1682-.0649-.3395-.0476-.504.5107-4.8491-.3007-9.6474-.5622-14.4657-.2275-4.1916-.5077-8.3805-.7983-12.5683-.099-1.4264-.2722-2.8495-.4644-4.2668-.1477-1.0885.424-1.9222,1.1445-2.8795Z"/>
    <path class="cls-1" d="M212.6026,15.641c-.3276,1.4304-.8405,2.1968-1.9932,2.6394-8.2405,3.1639-16.4571,6.3898-24.683,9.5915-.2839.1105-.5862.1736-.8931.2627-.1674-1.6902.179-2.337,1.6101-2.8725,5.6767-2.124,11.3605-4.229,17.0416-6.3411,2.342-.8707,4.6835-1.743,7.0266-2.6109.5352-.1983,1.076-.3813,1.8911-.669Z"/>
    <path class="cls-1" d="M156.0813,35.1064c-4.6001,5.1922-9.3518,7.0621-13.6874,8.1719,4.1286-2.8682,8.8402-4.8967,12.6671-8.6134-.544-.4148-.9941-.7352-1.4189-1.0862-1.208-.9981-1.5405-2.02-.7362-3.3339.5877-.9602,1.4288-1.8621,2.3587-2.492,1.2717-.8615,2.3186-.2621,2.3775,1.2784.0358.9366-.2043,1.8843-.328,2.8261-.0338.2576-.0946.5117-.1367.7337,1.8404,1.6602,1.8469,1.7163.4261,3.4198-.4805-.2854-.9651-.5734-1.5222-.9043ZM156.2419,32.2952c0-.8158.0987-1.341-.0329-1.8002-.0963-.336-.5271-.8462-.7526-.8187-.4624.0565-.9394.3671-1.2893.7003-.0839.0799.2305.7407.4976.9868.3576.3294.8475.515,1.5771.9317Z"/>
    <path class="cls-1" d="M170.7722,64.0637c-.3421.3299-.6265.8055-1.0351.9673-4.7296,1.8736-9.4775,3.7011-14.2243,5.5309-.1258.0485-.2946-.0143-.4863-.0283-.0501-.9636.5546-1.277,1.2906-1.5462,3.3348-1.2196,6.6593-2.4673,9.9889-3.7012,1.3884-.5145,2.7803-1.0195,4.1705-1.5289.0985.1021.1971.2042.2956.3062Z"/>
    <path class="cls-1" d="M189.9422,66.1571c.3485-.7293.5941-1.258.8549-1.7792.0691-.1382.1848-.253.4081-.5502.7867.4655,1.5804.9353,2.4998,1.4793.3346-.4963.6747-1.0005,1.0761-1.5959.2558.1021.5543.177.8065.329,2.1273,1.2822,2.1708,1.5736.544,3.6629-.7866-.5063-1.5788-1.0162-2.4305-1.5645-.403.6129-.7427,1.1292-1.1761,1.7883-.8682-.5948-1.6787-1.1502-2.5828-1.7697Z"/>
    <path class="cls-1" d="M170.406,17.1459c-1.3878-.8408-2.7137-.1757-3.8899-.577.4103-1.5236.6553-1.7755,2.1034-1.7688,1.1396.0053,2.3305-.2477,3.3925.4055-.2776,2.1864-2.0012,3.6283-4.8466,3.8942.7026-.3968,1.2074-.6675,1.6974-.9629.4719-.2845.9284-.5945,1.5433-.991Z"/>
    <path class="cls-1" d="M198.0855,52.5955c.0353-.1919.0019-.4642.117-.5628.8045-.6888,1.6008-1.3992,2.475-1.9916,1.0955-.7424,2.2877-1.0725,3.6095-.4976.7555.3286,1.456.1291,2.0323-.5119.4285.1874.8446.3695,1.3324.5828.2231-.3991.4129-.7386.6229-1.1143.1201.1462.2351.2242.2266.2849-.232,1.6566-.4277,1.4604-2.0726,1.7443-1.5497.2675-2.9991-.0487-4.481.035-.7947.0449-1.5873.5271-2.3331.9059-.5611.285-1.0464.7195-1.5654,1.0875,0,0,.0364.0377.0364.0377Z"/>
    <path class="cls-1" d="M196.1125,26.7952c.0159.2988.0554.5987.0413.8961-.015.3147-.156.6389-.1085.9377.0888.559.1573,1.2189.9228,1.2737.5653.0405,1.089-.5876,1.0743-1.3365-.014-.7161-.1449-1.4299-.0667-2.1856.5569.509.538,1.2009.6348,1.8703.1629,1.1275.3782,1.2599,1.5641,1.0766.1216-1.03-1.0113-1.8777-.3557-3.2916.3413,1.0767.7667,1.8971.8121,2.738.0326.6034-.3038,1.3874-.7479,1.7908-.2351.2135-1.0516-.2136-1.7965-.399-.3353.3216-.7002,1.1998-1.5956.8569-.9549-.3657-.7111-1.2838-.792-2.0498-.0432-.4087-.2682-.8025-.2858-1.2084-.0152-.3482.1479-.7042.2321-1.0567.1558.0292.3116.0584.4673.0875Z"/>
    <path class="cls-1" d="M232.1029,33.9556q.8512,1.0666,2.5298.2715c-.3966,1.2237-1.6333,1.5183-2.1524,2.5493-.2295-.5544-.3367-.9977-.5764-1.3511-.4003-.59-.3875-1.0449.2353-1.4345l-.0364-.0351Z"/>
    <path class="cls-1" d="M235.2229,38.6555c-.8913.7037-1.9023,1.137-3.013.6846-.364-.1483-.55-.7339-.7137-1.2295,1.1513,1.1805,2.4669.4435,3.7267.5449Z"/>
    <path class="cls-1" d="M232.1393,33.9907c.15-.7466.6122-1.1439,1.5546-1.302-.1369.3688-.1579.7194-.3236.8126-.3856.2169-.8409.3098-1.2677.4536.0003.0006.0367.0357.0367.0357Z"/>
    <path class="cls-1" d="M198.049,52.5578c-.6321.413-1.2641.8259-1.8962,1.2389-.052-.0924-.104-.1848-.1561-.2771.6743-.3492,1.1521-1.0901,2.0847-.9282.004.0042-.0324-.0335-.0324-.0335Z"/>
  </g>
</svg>