<?xml version="1.0" encoding="UTF-8"?>
<svg id="Thorn" xmlns="http://www.w3.org/2000/svg" viewBox="0 0 111.6975 205.5844">
  <defs>
    <style>
      

      @import url('../../CSS/SvgStyling.css');

      
    </style>
  </defs>
  
  <g class="content">

    <rect id="bg" class="bg" width="111.6975" height="205.5844"/>


    <path class="cls-1" d="M63.1696,198.3711l3.409-24.3578v-.0559l-6.9696-27.8226-8.0793-30.8324v-.0479l-2.5068-3.5607v-.0479l.4072-2.7064v-.0559l-.4072-3.2573q0-.0479-.0479-.0479l-14.9931-11.8316-21.5555-12.9333c-.1038-.0559,0-.2076.0958-.1517l22.7131,10.2748h.1038l1.9081-1.1017c.0479-.0479.1437,0,.1437.1038l-.2954,2.0997q0,.0559.0479.1038l9.5244,7.8718c.0559.0479.1517,0,.1517-.1038-.0958-1.8043-.9021-13.7876-.9021-14.9851,0-.0559-.0479-.1038-.0958-.1038-1.2534-.2475-16.7015-3.1056-20.4139-4.2153-.0958-.0479-.0958-.1996.0559-.1996l19.7513.2555c.0479,0,.1038-.0559.1038-.1038.1996-1.1975,2.403-15.2406,2.2514-16.2944-.1517-.8463-18.9529-16.7415-28.0222-24.4136-.3513-.3034.0479-.8542.4471-.5988l29.4832,19.1525c.0479.0479.1038,0,.1038,0,.6467-.7584,7.3688-8.5743,7.265-15.1927l-.9979-6.6183-4.0636-10.8257c-.0479-.0559.0479-.1517.0958-.1517l1.7085.2475c.0479,0,.0479.0479.1038.0479l3.7602,9.4286c.0479.0479.0958.1038.1437.0479l7.0734-8.8218c.0479-.0479.0479-.1038,0-.1038l-1.956-3.3052c-.0479-.0479,0-.1517.1038-.1517l2.5068.3513h.0958l19.4559-17.7953c.0958-.1038.1996.0479.1517.1517-4.1594,5.2611-24.222,30.7286-24.3657,33.0838-.1517,2.411-.1038,3.7123-.1038,3.864v.0479l-2.1077,7.273v.0479l-6.0116,8.8697v.0559l-2.8581,12.582s-3.2094,13.8834-1.3093,13.9392c1.956.0479,8.223-17.452,5.9717-21.0606,0,0,2.9539,8.3747-2.3631,21.5555v.0559l2.5068,27.2238c.1038.495,10.9374,42.7598,12.9892,43.614h.1038l31.6866-20.2542c.0958-.0479.1996.0479.0958.1517l-26.8726,25.1162-2.0039,2.1077v.0479l-.9021,1.956v.0958l1.2055,1.8602v.0479l-2.3072,32.0379c0,.0479-.0559.0958-.1517.0958l-5.0137-1.5488c-.0479-.1038-.0479-.1517-.0479-.2076Z"/>
  </g>
</svg>