<?xml version="1.0" encoding="UTF-8"?>
<svg id="TwoFaces" xmlns="http://www.w3.org/2000/svg" viewBox="0 0 308.0716 237.9843">
  <defs>
    <style>
      

      @import url('../../CSS/SvgStyling.css');


    </style>
  </defs>
  
  <g class="content">

    <rect id="bg" class="bg" width="308.0716" height="237.9843"/>

    <path class="cls-1" d="M132.2988,67.094c-14.6922,12.3785-33.257,23.4175-54.4886,31.6556-24.5317,9.535-48.9539,13.9068-70.362,13.5658,2.1372,8.981,4.9867,18.1141,8.5487,27.3021,24.1238,62.0448,72.0791,101.3296,107.1444,87.709,35.0532-13.6084,43.9245-74.9713,19.8129-137.0343-3.1783-8.1468-6.7403-15.9039-10.6554-23.1983ZM38.1479,157.1959c-3.154-7.337.0365-16.9207,8.0189-22.7234,9.0297-6.5333,20.7567-5.7478,26.194,1.7475,1.4309,1.9667,2.2833,4.2256,2.5999,6.5942-4.4144-1.4613-9.6751-1.918-15.1915-1.096-11.1303,1.717-19.7581,8.1651-21.6213,15.4777ZM111.6456,197.735c-15.6482,6.0705-31.7287,2.1737-35.9726-8.7009-.0426-.134-.0974-.2679-.134-.4201,6.0705,4.6579,19.0518,4.7005,32.3741-.4688,13.304-5.1755,22.8695-13.9738,24.209-21.5117.0487.1218.1035.274.1583.4079,4.2195,10.8746-5.0172,24.617-20.6349,30.6936ZM139.8246,117.6979c-6.3141-4.1343-17.0364-3.0748-26.4071,3.1905-4.6275,3.1053-8.2077,7.0021-10.4788,11.0451-1.37-1.9545-2.2468-4.1952-2.5208-6.6185-1.0534-9.2062,7.063-17.7001,18.1385-18.9727,9.8151-1.1142,18.6378,3.8177,21.2681,11.3556Z"/>
    <path class="cls-1" d="M240.1982,49.8444c-23.7585-11.3069-43.7175-26.0661-58.1479-41.8848-5.0598,7.7328-9.7664,16.0744-13.9859,24.9519-5.1511,10.832-9.2489,21.737-12.2628,32.4167.1766.5115.3349.9316.3349.9316l3.2088,7.477c3.4036,7.9459,6.3811,16.2753,8.8653,24.7692,2.1554,7.3857,3.9151,14.8018,5.2485,22.1571,7.3857-2.9287,17.5418-2.3807,27.2291,2.2163,15.1306,7.203,23.3505,21.5848,18.3333,32.1184-.067.134-.1218.2862-.1888.414-.7855-7.6293-9.669-17.1034-22.5529-23.2348-7.7267-3.6776-15.4594-5.4799-21.804-5.4373,2.2833,15.0393,2.8313,29.7316,1.6074,43.4435.5541.2862,1.1264.5906,1.6927.8585,33.9694,16.1536,84.6829-19.4963,113.288-79.6292,3.7446-7.8911,6.9351-15.8248,9.5594-23.6489-19.0823-2.2102-39.8389-8.1285-60.4251-17.9193ZM210.4058,67.6663c-5.7843,7.2274-17.554,7.4466-26.2488.4749-7.7084-6.1862-10.4118-15.9161-6.8986-23.0887,1.5039,7.3918,9.809,14.266,20.8541,16.4945,5.4677,1.1142,10.7528.9133,15.2281-.3227-.4445,2.3381-1.3943,4.5422-2.9348,6.4419ZM253.5753,101.1425c-10.8868-2.3381-18.1507-11.5809-16.2023-20.641.5115-2.399,1.6074-4.5361,3.1662-6.3506,1.851,4.25,5.0415,8.4939,9.3463,12.0193,8.707,7.1665,19.2649,9.261,25.9626,5.7783-3.3549,7.2517-12.616,11.2764-22.2728,9.1941Z"/>
  </g>
</svg>