<?xml version="1.0" encoding="UTF-8"?>
<svg id="Uthman" xmlns="http://www.w3.org/2000/svg" width="474.5385" height="464.8362" viewBox="0 0 474.5385 464.8362">
  <defs>
    <style>


      @import url('../../CSS/SvgStyling.css');

      
    </style>
  </defs>
  
  <g class="content">

    <rect id="bg" class="bg" width="474.5385" height="464.8362"/>
    <path class="cls-1" d="M205.6576,61.0027c30.2301-19.928,63.4469-34.765,95.7469-50.9807-.6026,3.2449-1.5781,7.1595-5.0129,8.4679-17.7594,9.0566-35.9765,17.2104-53.2824,27.1382-14.7316,8.4274-30.371,15.7292-43.1488,27.0693.3758-4.4933,1.0312-9.6041,5.6971-11.6947"/>
    <path class="cls-1" d="M438.2668,255.3802c-21.5416-14.605-48.7159-10.4377-73.2405-12.6681-13.1028-.5678-27.228-1.4504-38.3439-9.1475-7.366-5.0707-10.1979-13.8651-14.4662-21.2477-2.6491-4.0562-8.1321-1.9979-11.4342.0631-16.1685,10.4644-27.6321,27.7958-31.0261,46.69-2.2006,10.6702-.7924,21.5916.3478,32.3026-13.8165,6.2368-27.8692,14.584-43.6193,13.2852.9464-9.8564,5.3578-18.9446,9.5367-27.7869,11.3391-24.269,29.3735-44.8276,49.4257-62.3922,27.0732-22.5352,57.9979-39.7246,87.1478-59.34,1.9794-1.2065,2.7836-3.4571,3.5366-5.5288,2.752-8.0502,6.4199-15.8204,8.3256-24.1569-26.0154,15.4775-50.9573,32.788-77.154,48.0026-13.8473,7.8575-30.7802,3.1016-44.2116-3.3258-22.3712-10.0935-41.2935-29.6858-46.4515-54.0773,17.3945-13.8229,38.4957-23.0636,60.4418-26.6712,20.2977-4.2502,41.9291-2.4337,60.7292,6.5203-2.1416-5.7318-8.0807-8.5005-12.8093-11.7969-24.2914-16.051-56.5386-20.0376-83.6122-8.8422-13.6134,5.9221-26.9501,15.5372-32.1957,29.9186-7.7227,20.5568-2.5561,44.2676,10.3831,61.5901,13.5197,16.7033,32.5921,28.1531,52.9303,34.7859-23.3226,25.201-42.1707,55.0695-51.7812,88.1613-1.0692,4.4312-2.1992,8.8635-3.5547,13.2348-4.5239-2.5966-8.3657-6.3685-10.4548-11.1851-4.0551-8.5399-5.0742-18.0713-6.1246-27.3521-4.4816-72.8079-4.329-146.3472-19.0302-218.1172-1.8478-9.0481-3.7314-18.2349-8.1038-26.4629-3.0657,5.7223-4.899,11.9893-7.5165,17.9113-1.0823,3.0931-3.2311,6.3397-1.8765,9.6954,4.7062,14.5741,6.7443,29.7972,8.9167,44.899,8.9243,62.7062,7.3745,126.2141,13.5198,189.1418,2.12,18.5379,8.7816,40.2324,27.2475,48.6108-.285,17.3218-.5618,34.9066,3.6555,51.8335,3.9333,15.6191,10.9016,30.6385,21.3052,43.0515-16.5958,1.7534-34.134,3.0824-50.2114-2.3432-22.9766-8.6414-36.1919-32.2192-39.9099-55.3428-2.7822-17.6976,1.923-35.578,8.0087-52.1187,2.8535-8.6183,8.1495-16.7555,7.9565-26.124-4.7379.9003-5.8464,6.5399-8.2812,10.0083-13.1152,27.8707-24.2506,58.9255-18.812,90.1006,3.0881,24.0732,18.5855,46.8032,41.1044,56.7626,18.7083,8.8823,40.1959,8.7319,60.2165,5.2435,10.7401-.8009,20.5511-7.0179,31.3033-6.9479,22.0075,7.6672,46.1548,7.5253,68.6538,2.0281,51.261-12.8597,97.6934-50.1904,115.2087-100.6672,4.9713-11.9164,7.8855-24.7261,7.7347-37.6653,2.252-19.9184-6.7053-41.0927-23.4146-52.5332ZM447.1524,339.9825c-15.0226,29.6819-41.0746,52.776-70.5524,67.7457-3.0508,1.6054-6.1461,3.7475-9.5954,4.172-.3386.3574-.7881.6468-1.3893.8026-2.1389.554-4.0772,1.6024-6.0505,2.571-5.9469,3.1149-13.2747,3.5717-19.634,5.5984-7.4693,2.5245-15.3771,2.3726-23.1523,2.3127,9.63-4.1594,18.007-10.5389,27.0853-15.6891,7.9175-5.4462,16.5568-10.5396,22.2009-18.4908,6.2552-10.7379,9.6584-23.1122,10.5158-35.4559.9886-17.4804-9.9839-32.8575-10.8724-49.9562,3.863,1.988,7.0814,5.1424,11.3114,6.4086,1.1895-6.7947-4.6584-12.0084-7.8068-17.4432-5.9497-7.5431-10.9214-15.7991-17.0358-23.213-3.0881,8.5499-6.1836,17.0972-9.7518,25.4636,2.0295,2.619,4.5029,5.2034,4.708,8.7049,2.7616,18.4155,7.6733,36.4255,13.8271,53.9932.8361,4.2701,4.4423,9.8177,1.4575,13.6486-24.679,19.1792-53.5833,32.051-82.3589,43.8748-2.7421.9844-5.7794,2.6977-8.7219,1.4901-11.4125-5.0903-21.5117-12.9601-29.4366-22.575-13.3604-17.4027-19.0135-39.978-18.3201-61.6495,19.9382-.9149,36.5181-12.5992,54.2551-20.1636,5.422,11.5204,12.7369,22.7477,24.3854,28.8132,8.2017,5.0586,20.1001,6.0029,27.3866-1.1679-.1062-.8745.2943-1.4111.8887-1.7753.2217-.3889.4779-.7692.7817-1.1368,1.0467-1.2663,1.8353-2.5262,2.5983-3.9406.0343-.0706.0562-.1454.093-.2151,5.9302-12.4449,8.1432-27.3213,3.0161-40.4138-4.0753-8.6517-13.8165-12.9318-22.9053-13.9261-10.118-.7189-20.0025,2.3318-29.3657,5.8113-2.0785-7.2996-5.361-14.3005-6.3784-21.8645-1.0476-4.2194,2.7509-7.4019,4.7889-10.6382,5.3276-6.3695,11.1084-13.5314,19.5728-15.6096,3.2704,4.9795,5.0654,10.7791,8.7333,15.5187,4.6577,6.3695,11.6468,10.8707,19.1359,13.2149,27.2858,7.0275,56.0915,2.4834,83.3986,9.4718,19.3066,5.2819,37.6458,20.8896,39.6763,41.6732,1.8428,8.6094-2.6807,16.6522-6.4891,24.0349ZM297.3388,305.2661c10.5353-.6395,24.9941-.8719,29.6297,10.8228-1.8339,2.8066-6.2659,2.7982-9.3525,2.3013-8.0083-1.8272-15.2128-6.735-20.2772-13.1241Z"/>
    <path class="cls-1" d="M365.8908,71.6523c-.1423-7.8593,5.971-17.3314,14.4186-17.6572,8.3252,3.9653,4.9327,14.9698,2.2012,21.6122,1.8833,1.7435,4.2566,3.1644,5.5331,5.4455.5678,3.0228-1.2236,5.8738-1.9461,8.7329-2.0093-2.7591-4.4128-5.2226-7.3252-7.0285-13.9722,19.604-32.271,36.9151-54.6674,46.5108-7.4253,3.9852-14.6713,8.3579-22.5064,11.5311,2.3826-3.0125,5.8795-4.7276,9.0782-6.7123,23.6083-15.2643,47.3493-31.3902,65.4543-53.1461-3.7389-2.5533-8.4168-4.9873-10.2404-9.2883M368.9792,65.5556c3.1285,3.57,7.0722,6.2907,11.3615,8.3071,1.6097-4.697.8769-11.997-5.1257-12.9083-2.6203.6792-4.5019,2.6665-6.2357,4.6012Z"/>
    <path class="cls-1" d="M97.8146,114.1857c-.357-11.5818,6.3988-21.7424,13.1626-30.5651-.5678,3.4167-1.6494,6.7123-2.791,9.9682,3.6583,2.0792,8.6228,3.8241,9.4556,8.5083.785,6.2695-1.3052,14.7373-8.5482,16.1256-4.4199,1.9571-8.5069-.7694-11.2789-4.037M102.8505,109.4507c3.6452,2.8815,8.6499,1.0142,12.1021-1.2591-2.5758-3.9653-7.1712-5.6768-11.076-8.0218-1.3034,2.719-4.0036,6.7443-1.0261,9.2809Z"/>
    <path class="cls-1" d="M422.9717,125.374c1.7651-9.0985,6.1534-17.4843,10.6879-25.4966.6831,3.2648-1.2633,6.2357-2.2626,9.2184,4.9327,2.6367,12.1067,5.4781,11.5552,12.2408.6427,6.6843-4.0952,13.3061-11.0761,13.6489-5.5225,1.4933-9.9232-4.5618-8.9043-9.6116M428.0857,116.9639c-1.2722,2.8727-2.6793,6.9767.3971,9.2706,3.6903,1.8659,7.9998.5071,11.6148-.901-2.6069-4.3918-7.4167-6.6243-12.0119-8.3696Z"/>
    <path class="cls-1" d="M390.5804,179.8057c3.6566-8.0218,9.7308-14.7079,14.0712-22.3851,8.0803,6.4703,16.3931,12.666,24.7588,18.7743-4.9405,7.3316-10.0254,14.5528-15.0691,21.8024-7.5097-6.5707-15.8342-12.1397-23.7609-18.1916"/>
    <path class="cls-1" d="M86.1673,167.1071c.5309-2.2105,1.7037-4.1892,2.6709-6.218,2.8524,6.9558,5.707,13.9126,8.3032,20.9727-2.18-.7899-3.4538-2.7988-5.031-4.3603,1.0768,18.0216,5.3472,35.8211,5.4297,53.9424.1719,5.5477.1441,11.7742-3.7488,16.1781-.3581-13.085-1.019-26.1971-2.9142-39.1689-2.4065-13.6805-2.3751-27.6857-4.7098-41.346"/>
    <path class="cls-1" d="M104.3756,186.4783c12.9319-7.5062,26.0443-14.7377,39.832-20.6093-.2065.6576-.6221,1.9876-.829,2.647-14.507,6.3802-28.2823,14.2291-41.865,22.3421.7223-1.5824,1.1104-3.5796,2.862-4.3798"/>
    <path class="cls-1" d="M74.2666,173.4557c-1.6815-2.4149-5.583-4.1076-4.0333-7.608,6.6016,4.2896,11.1767,13.4378,7.0809,20.8918.4166-4.6136.0201-9.5545-3.0476-13.2838"/>
    <path class="cls-1" d="M55.4185,174.8738c3.8303,2.2712,1.609,9.8877,7.7115,9.8802-1.313-3.1857-3.1079-6.504-2.0581-10.0428,1.6929,3.488,5.3793,7.6985,2.4349,11.5343-1.456,2.5455-4.0244.2729-5.7966-.6114-.8882,2.8201-4.7772,4.9792-6.776,1.9685-.9869-3.4884-2.2-7.6861-.1622-11.0254.8135,3.5714-.4402,10.4881,5.2771,9.6038,1.4468-3.7605-1.0705-7.4615-.6306-11.3072"/>
    <path class="cls-1" d="M142.2405,190.5941c5.7052-3.1452,11.3075-6.459,17.187-9.2809-.3758.9663-.7417,1.9376-1.1175,2.911-7.8575,3.7016-15.1532,8.4175-22.817,12.4864.643-3.417,4.0877-4.5863,6.7475-6.1165"/>
    <path class="cls-1" d="M28.3054,190.6573c-.5396-3.5515,2.7799-5.9749,5.6644-7.2024,3.4424,3.4479,1.2413,8.8515,4.1473,12.6972-1.3242-.3144-2.648-.6288-3.9759-.9422-5.6222,9.2986-14.1411,16.9361-23.545,22.2917,7.4283-7.7684,16.9955-13.6805,22.6097-23.0732-1.6927-1.1778-3.5686-2.17-4.9006-3.7712M30.1487,187.248c.1622,2.2917,2.2829,3.3567,4.0247,4.3915-.0518-1.4088-.1121-2.8095-.1833-4.2102-.9587-.0401-2.8828-.1412-3.8414-.1813Z"/>
    <path class="cls-1" d="M429.7475,188.6984c.539-1.1359,1.7406-1.4819,2.6594-.5394,7.9888,5.2748,16.0489,10.4693,23.7077,16.2061-5.6726,6.9575-9.9427,14.8601-14.601,22.4855-7.9558-6.7648-16.7288-12.4857-25.4795-18.1841,5.2375-6.1953,8.9125-13.4672,13.7135-19.9681"/>
    <path class="cls-1" d="M389.0821,191.4266c9.2117,5.5161,17.4127,12.5446,26.7262,17.9308-5.8078,7.0477-9.4668,15.8009-16.0081,22.158-7.5488-6.8752-16.5163-11.9576-24.4742-18.3346,4.4529-7.3316,10.2003-13.8739,13.7561-21.7541"/>
    <path class="cls-1" d="M166.714,239.1528c1.4475.2144,2.8943.4265,4.3496.6398-2.4031-3.5196-5.6651-6.2894-8.8923-9.0286-5.126,9.3117,5.713,16.4719,7.0807,25.0725-6.3078,7.5654-14.733,13.1926-23.5778,17.4236-6.4103,3.0735-16.2416,2.889-19.6448-4.3936-2.5944-6.2019-1.0211-13.3323,1.473-19.3477-.1022-1.2109.1898-2.5355.6813-3.7744-.4882-2.3397-1.2346-4.7991-3.633-5.7819-6.0416-2.4025-13.0818-.1221-18.8822-3.5284-2.0258-.5862-3.0953-3.0022-1.7289-4.735,2.8632-4.5441,7.3671-9.4224,13.0911-9.5016,3.0175,4.2893,8.0999,8.8721,5.3596,14.6007,1.0085-.9117,2.0196-1.824,3.0057-2.7357,11.2596,3.8315,23.8741,2.2609,33.8803-4.1591,6.399-3.3468,9.8317-10.9615,8.5481-17.9709-4.0636-7.0186-13.2455-12.6976-21.324-8.7827-8.7642,4.7467-14.1152,13.5787-19.3712,21.6842-4.2584-1.4092-5.5225-6.2187-7.3267-9.8188-7.2446-.5472-12.1439,6.2354-15.9062,11.4715-2.9131,4.723-5.7359,12.1588-.7931,16.5181,6.5209,4.2311,14.8668,2.1416,21.7729,5.0632-9.5972,9.959-22.649,16.8853-36.0686,20.2821-8.8956,2.0409-19.2559.06-24.5873-7.9004-4.3896-7.2706-1.812-16.3083,1.2244-23.5892,3.2994,2.6679,7.3254,6.2666,11.9103,4.6758,5.6048-1.308,7.7737-7.608,8.1932-12.689,1.0195-8.8632-5.9018-15.8083-7.0721-24.2567,1.3441.2445,2.6883.4961,4.0439.7488-2.4335-4.0565-5.3163-7.8093-7.9884-11.6912-1.6384,3.4962-3.3304,7.3107-1.2323,11.0208,1.5381,9.7776,7.3174,18.3573,8.4875,28.1545-5.3168,2.0178-12.235.9557-14.3679-4.9589-4.004-10.7291-1.4345-23.2424-8.0395-33.2337-.9158,2.7981-3.0535,5.67-2.0577,8.7198,2.6209,8.3383,4.2414,17.5969,1.7951,26.1467-2.5375,7.9508-15.7432,8.8629-18.7081.8517-3.2311-8.8142,2.17-18.111-.3877-27.0576-9.313,6.3294-8.4171,19.1476-10.8113,28.9441-.171,3.4376-3.1049,9.1868-7.2122,6.4803-6.9098-5.4647-6.9098-15.2626-6.795-23.2748-2.6517,9.5733-1.5815,23.4089,7.7429,29.2376,3.3508,2.0784,6.4499-1.2275,7.1632-4.3298,3.3714-8.7915,1.4356-19.441,7.5695-27.1683-.6422,8.4363-3.5563,17.8683,1.4581,25.5786,3.1798,5.4855,10.9823,6.1949,16.0677,3.0707,3.7506-3.4894,5.4123-8.6109,6.5505-13.4566.9072,2.7665,3.222,5.6893,1.763,8.6691-2.5482,7.0292-4.3495,14.6362-3.3304,22.1409,1.1508,7.9909,7.1729,15.8204,15.6495,16.6735,17.9938,2.2992,34.1938-8.4813,47.6252-19.067-.7033,7.658-1.2257,17.0773,5.196,22.6058,8.601,6.1044,19.3599.7097,26.9086-4.5143,6.8983-5.5043,15.8257-11.1166,16.8129-20.697,1.3947-5.7535-3.2906-10.283-5.6651-15.0315ZM147.0497,209.2942c7.5396-1.8954,14.6805,3.4887,18.5436,9.5133-9.5786,8.3266-23.9944,12.5052-36.1607,8.2262,4.7766-6.7855,9.3944-14.7167,17.6171-17.7395Z"/>
    <path class="cls-1" d="M143.7784,253.7127c-.4117.4676-.9094.8539-1.4463,1.1022-.1374.0635-1.6755.8431-2.1245.8788-.0582.037-.1167.0731-.1749.1086-.3065.3825-.6952.6765-1.1335.8667.0268.0599.0557.1178.0786.1814-2.7701,1.6232-6.0288,3.1856-6.7631,6.6548,8.9132-4.8603,17.1873-10.8047,26.1335-15.6118.0511-.6976.1519-2.1068.203-2.8084-4.8768,2.9561-9.7074,6.0011-14.7729,8.6276Z"/>
    <path class="cls-1" d="M120.9949,195.4324c3.0568.5873,5.7886,2.0859,8.3774,3.752-1.01,2.3325-2.1008,4.6367-3.3141,6.8738-2.5653-1.3382-5.1459-2.686-7.5395-4.3173.918-2.0717,1.7435-4.1701,2.4763-6.3085"/>
    <path class="cls-1" d="M88.0142,255.9278c-2.7942-4.6754,4.8484-8.772,7.6004-4.1984,1.8237,4.7034-5.0148,8.7024-7.6004,4.1984"/>
    <path class="cls-1" d="M20.3874,265.8765c-.7129-5.4064,1.2619-10.7301,4.4619-15.0315-.7741,3.955-3.0975,7.5179-3.1486,11.6223,1.5183-.4553,2.9653-1.1051,4.3722-1.8435-1.0587,2.4937-2.3629,5.608-5.6855,5.2528"/>
    <path class="cls-1" d="M76.3669,256.2007c-.9161-5.8326,7.0495-7.3433,9.1098-2.1505-.3283,4.817-7.0832,7.0899-9.1098,2.1505"/>
    <path class="cls-1" d="M39.318,259.5581c.0323-3.3979,3.0568-8.591,6.9586-6.6637,2.8854,3.2048-1.332,7.9189,2.5173,10.6499-.1939.8602-.385,1.7236-.5901,2.5841-1.0591-.8205-2.1093-1.6523-3.1597-2.4624-6.3562,9.5733-16.2821,16.0922-26.1948,21.5501,7.9891-7.8699,18.3921-13.1014,25.2787-22.1686-1.5895-1.1888-3.1876-2.3538-4.8099-3.4894M40.8888,256.3543c1.2724,1.6817,3.1072,2.6558,5.1742,3.0629-.3962-2.8812-2.2914-5.4586-5.1742-3.0629Z"/>
    <path class="cls-1" d="M51.5856,275.2677c1.9374,2.9199,2.7738,6.3383,3.6182,9.6833,2.2011-1.2974,4.4009-2.6157,6.6724-3.812-1.3036,4.4639-7.3538,6.7556-6.2043,11.9058.6224,7.0282.3176,16.2977,7.4785,20.2239,4.2291,1.1444,9.3863,1.1157,12.9197-1.8354,3.6071-2.6878,5.1974-7.2319,8.9274-9.7866.6503,3.263.8847,7.3841,4.1269,9.2493,4.0554,1.7122,8.7409.8726,12.6353-.9141-4.6183-3.378-9.5506-6.9661-11.5059-12.5836-3.2616-6.4327-.602-15.4584,6.1337-18.4918,8.7134-4.7247,20.2159-3.0114,27.4907,3.5405-9.7202-3.0437-20.4303-.8936-29.2241,3.8741-3.1583,1.3489-.9463,5.3755.2072,7.4739,4.9398,8.0143,16.4453,14.0084,25.3294,8.7631,5.8266-2.7265,11.524-5.7687,17.5546-8.0324-1.3638,2.8407-1.8556,6.8649-5.186,8.1354-12.8679,5.4139-24.8816,13.2625-38.5749,16.5109-5.8896,1.5384-10.129-4.0178-11.4126-9.0381-2.629,3.3272-5.1348,6.8351-8.5278,9.4647-4.5159,3.7311-11.8707,2.7971-15.6089-1.6154-3.3029-4.1161-4.5272-9.4494-5.106-14.5723-3.2515,6.5711-10.8315,10.5176-18.0346,8.0818-1.0108-10.3735,7.0008-18.945,15.5489-23.62-2.0785-4.1374-1.3561-8.6499.742-12.6049M37.8401,304.0507c4.6887,1.0217,10.4865,1.1349,14.1536-2.4039.3369-3.0334-.0804-6.0757-.3055-9.0992-5.4596,2.5565-11.0252,5.9625-13.848,11.503Z"/>
    <path class="cls-1" d="M66.5633,297.6603c1.0499-2.3223,2.2743-4.5725,3.6901-6.7159,2.4546,1.6033,4.9123,3.1967,7.3862,4.7787-1.0705,2.4351-2.3231,4.7872-3.8214,6.9976-2.4032-1.7122-4.8175-3.4064-7.2549-5.0604"/>
    <path class="cls-1" d="M405.251,329.7783c2.6807-8.6886,6.7556-17.1891,12.0449-24.5927-1.0188,9.8146-12.3189,19.066-6.257,28.964,1.2243-.0103,2.466-.0103,3.7098,0,1.3652-1.6842,2.0589-4.564,4.6161-4.707-1.4365,4.7276-2.8627,10.5204-7.6126,12.9946-6.4295.7183-8.2226-7.8802-6.5012-12.6589"/>
    <path class="cls-1" d="M86.0961,369.1995c4.4648-10.7883,8.0709-22.0469,13.8998-32.2103-.4484,11.1659-7.0411,20.8623-9.3455,31.6418-1.8308,6.531.8167,16.4006,9.3137,15.3551,1.8943-2.6683,2.161-6.5516,5.1051-8.3469-.5813,6.7166-3.0056,13.7011-7.998,18.4166-5.0434,2.7378-11.0548-2.1597-12.0534-7.1896-1.0312-5.8-1.4672-12.1784,1.0783-17.6668"/>
    <path class="cls-1" d="M265.3148,367.3439c3.148-8.2454,8.0601-15.6802,11.87-23.62,8.5676,5.5988,16.9449,11.503,25.718,16.7828-4.3528,7.5562-8.4888,15.2444-12.8799,22.768-8.4884-4.927-16.3637-10.7809-24.708-15.9307"/>
  </g>
</svg>