<?xml version="1.0" encoding="UTF-8"?>
<svg id="Yahya" xmlns="http://www.w3.org/2000/svg" viewBox="0 0 301.5408 293.7299">
  <defs>
    <style>
      .cls-1, .cls-2 {
        fill: #000;
      }

      .cls-1, .cls-2, .cls-3 {
        stroke-width: 0px;
      }

      .cls-2 {
        fill-rule: evenodd;
      }

      .cls-3 {
        fill: #007424;
      }
    </style>
  </defs>
  <rect id="bg" class="cls-3" width="301.5408" height="293.7299"/>
  <g id="content">
    <g id="_1323501126768" data-name=" 1323501126768">
      <path class="cls-1" d="M66.1982,123.4632c-.6025.0807-.9441.118-1.031.1056-.0186,0-.0311-.0062-.0248-.0186,0-.031.236-.1491.7081-.3478.441-.1615,1.1304-.5031,2.0807-1.0248.4907-.3602,1.1863-.9379,2.0993-1.7329.6273-.5528,1.2795-1.0124,1.9503-1.3726.8261-.4348,1.6149-.5963,2.3726-.4907.1801.031.4037.1118.6832.2547.2795.1429.5279.2298.7329.2609.3913.0559.7267-.0435,1.0124-.3043.2298-.2609.4596-.5279.6956-.795.1615-.1863.2981-.2795.4037-.2609.0559.0062.0745.0559.0621.1553-.0248.1304-.118.3478-.2919.646-.087.1491.2733.2795,1.0683.3975.0807.0124.1366,0,.1491-.0435.0124-.0186,0-.2236-.0497-.6149-.0186-.1118.0497-.2547.205-.441.2609-.323.4099-.4596.4472-.4161.1615.2174.2112.5217.1553.9068-.0435.3292-.1801.6956-.3913,1.0993-.2174.4099-.3975.6522-.5466.7267-.3975.1863-.9379.0435-1.6397-.4348-.7267.5714-1.3975.8074-2.0062.7205-.1739-.0248-.3975-.1056-.6646-.2422-.2609-.1366-.4596-.2112-.5963-.236-1.0372-.1491-2.1677.1863-3.3788,1.0186-.8882.6522-1.7826,1.3043-2.6832,1.9565-.5217.2857-1.031.4596-1.5217.5279h0Z"/>
      <path class="cls-1" d="M42.6025,84.2095c0,.1988-.2609.6584-.7702,1.3726-.5714.795-1.118,1.3789-1.6397,1.7515-.3292.2298-1.4347.5963-3.3105,1.0931-.2671.0683-.4286.0994-.4782.0994v-.0248c.0435-.0435.1491-.1366.3292-.2733.2422-.1863.9068-.5652,2-1.1366,1.0435-.559,1.6583-.9192,1.8323-1.0683.0311-.0311.0497-.0621.0497-.0932,0-.2484-.9317-.3727-2.7888-.3727-.0062,0-.3664.0124-1.0683.0435-.1553.0062-.2733.0062-.354,0v-.4037l.6335-1.0683c.1925-.3292.5404-.5341,1.0559-.6149.1863-.0311.6149-.0497,1.2857-.0497,2.149,0,3.2235.2484,3.2235.7453h0Z"/>
      <path class="cls-1" d="M118.992,119.277c-.2484.7515-.6211,1.5962-1.1242,2.5465-1.8944,1.5838-3.4533,2.7204-4.6707,3.3974-2.1242,1.1987-4.2421,1.795-6.3663,1.795-1.0807,0-1.8944-.1118-2.4409-.3354l-.6708-3.3478c-1.2919-1.6459-1.9441-3.2235-1.9441-4.739,0-2.3913.7329-4.2297,2.1925-5.5092,1.2546-1.0931,2.8074-1.6459,4.6583-1.6459,2.4534,0,4.6521.8136,6.5837,2.4285.323.2733.4845.4534.4845.5528,0,.0683-.0621.1056-.1863.1056-.1553,0-.3975-.0621-.7329-.1863-1.2981-.472-2.4471-.7019-3.4533-.7019-1.472,0-2.9813.2174-4.5278.6584-1.5466.441-2.677.9813-3.3912,1.6149,0,1.59.5528,3.149,1.6583,4.6893,1.3478,1.8757,3.0745,2.8136,5.1738,2.8136,1.0807,0,2.4968-.4969,4.2359-1.4906,1.4161-.8136,2.7266-1.7453,3.9378-2.795.2422-.2112.4223-.323.5341-.3354.1801,0,.1925.1615.0497.4845h0Z"/>
      <path class="cls-1" d="M24.8575,134.2891c-1.2298,0-2.267-.9627-3.1117-2.8819-.764-1.6832-1.1428-3.4471-1.1428-5.2918,0-2.2111.2174-3.9751.6522-5.2918.1553-.4658.2795-.7019.3727-.7019.1429,0,.1739.2981.0994.8882-.1801,1.3851-.2671,2.5714-.2671,3.5651,0,4.6707,1.0869,6.9998,3.2608,6.9998.882,0,1.6832-.677,2.3975-2.0434.7577-1.6273,1.5155-3.2608,2.2608-4.8881.6708-1.3478,1.472-2.4906,2.4099-3.4161.9938-.9813,1.8944-1.472,2.6956-1.472.7702,0,1.6087.8385,2.5155,2.5279.8447,1.5714,1.6521,2.5403,2.4099,2.8943.9689.4596,2.6956.8695,5.0123,1.2236,2.9564.4472,6.3725.6708,10.2482.6708,6.1365,0,12.4904-.6894,19.0555-2.0621,6.6644-1.4037,11.9811-3.1987,15.9562-5.3725.1925-.0994.323-.1429.3851-.118.0807.031.0994.1553.0683.3664-.0683.5031-.0994.9441-.0994,1.323,0,1.8323.795,2.7453,2.3788,2.7453,2.1863,0,3.7887-.6646,4.6707-1.9813.6459-.9627.9689-2.5962.9689-4.9067,0-6.5092-.2795-12.0184-.8385-16.5276-.2671-2.1801-.6087-4.3353-1.0186-6.4657.2236-1.4037.4348-2.3788.6335-2.913.0932-.236.1677-.354.236-.354.0807,0,.1553.1242.236.3727.7329,2.3726,1.3292,5.3974,1.7888,9.0557.236,1.8633.4161,4.6893.5341,8.4719.1242,3.8322.2733,6.4471.441,7.857.2981,2.4782.8261,4.0931,1.59,4.8384.8695.8633,1.7888,1.5217,2.7639,1.9751v3.3478c-1.4534-.5901-2.5714-1.2236-3.354-1.9068-1.2174-1.0248-2.0186-2.354-2.4099-3.9875-.1863,2.4471-1.0745,4.2297-2.6645,5.3477-1.0497.7453-2.2857,1.1304-3.5776,1.1304-1.0497,0-1.9192-.3727-2.5962-1.1056-.7391-.795-1.1366-1.9068-1.2049-3.3353-4.5589,2.2981-10.0184,4.149-16.3971,5.5465-6.1365,1.3354-11.9438,2.0062-17.4157,2.0062-7.1303,0-12.3227-.6273-15.3909-1.8944-.9938-.4099-1.8509-1.0993-2.5776-2.0559-.0807-.0994-.5528-.8695-1.4223-2.3105-.441-.7391-.8633-1.1056-1.2733-1.1056-1.2546,0-2.5714,1.0621-3.9564,3.18-.2422.3789-.6832,1.3664-1.3229,2.9565-.6335,1.59-1.1863,2.7453-1.6583,3.4596-.7329,1.0931-1.5155,1.6397-2.3416,1.6397h0Z"/>
      <path class="cls-1" d="M91.3405,88.4951c0-1.0745-.1677-1.9565-.5031-2.6459,0-.3913.3106-1.3167.9379-2.7763.0745-.1801.1429-.2733.1988-.2733.0683,0,.1429.0994.236.2857.1801.3789.59,1.4285,1.236,3.149.6832,1.7888,1.0807,2.8881,1.1925,3.2981.087.3168.1304.5466.1304.7019,0,.4907-.472.1988-1.4223-.882-.1118-.1615-.1677-.0932-.1677.1988,0,.0994.2484,3.5341.7391,10.2979.4907,6.7638.7329,10.5712.7329,11.4221,0,2.6024-.3913,4.8881-1.1863,6.8632-.1677.4037-.3043.6956-.4037.8758h0c-.1553.2671-.2484.3043-.2857.1118-.0435-.1988-.0248-.6211.0559-1.2733.0994-.8882.1491-1.9316.1491-3.1117,0-1.0745-.2733-5.4843-.8199-13.2295s-.8199-12.0867-.8199-13.0121h0Z"/>
      <path class="cls-1" d="M49.0123,110.3455c-.2422,2.0993-.4099,3.149-.5031,3.149-.087,0-.2547-.8633-.5031-2.5776-.4223-2.7453-2.4534-5.8756-6.093-9.3787-4.4657-4.2421-7.7265-7.6334-9.7762-10.1799-.5404-.7391-1.2546-1.7577-2.149-3.0496-.2857-.4223-.59-.7267-.9006-.9068-.1801-.1118-.2671-.2857-.2671-.5341v-2.2422c0-.4472.0745-.6708.2298-.6708.1118,0,.3168.1118.6087.3354l4.2484,3.2484c.3168.2484.472.4348.472.5714,0,.087-.1242.1304-.3664.1304-.3602,0-.9503-.087-1.7764-.2671.6894.9379,2.3788,2.7701,5.0558,5.4906,1.9441,1.9441,3.8819,3.8757,5.8259,5.7949,3.9502,4.0185,5.9315,7.4595,5.9315,10.3165,0,.2671-.0124.5279-.0373.7702h0ZM67.7199,112.2523c1.3602,0,2.6645-.4969,3.9192-1.4844.1118-.0932.6211-.6211,1.5403-1.5962.8447-.9006,1.3043-1.354,1.3726-1.354.1988,0,.236.1988.0994.6025-.1801.5279-.2671.8633-.2671,1.0248,0,.3789.1615.8136.4845,1.3043.4223.6459.9813.9689,1.677.9689,1.826,0,3.3974-1.3167,4.7018-3.9502.1366-.2671.2919-.4037.472-.4037.1429,0,.2174.1242.2174.3727,0,.087-.0124.2298-.0435.4348-.0248.1988-.0435.3478-.0435.4472,0,.7702.236,1.3975.7143,1.8757.472.4845,1.0807.7205,1.8198.7205,1.0683,0,2.1925-.4161,3.1987-1.2422.2919-.2422.4348-1.1366.4348-2.677,0-.9379-.236-4.708-.7205-11.3041-.4783-6.5961-.7205-10.4842-.7205-11.6705,0-1.0745-.1615-1.9565-.4969-2.6459,0-.3789.3106-1.3043.9379-2.7825.0621-.1739.1304-.2671.1988-.2671s.1429.0994.236.3043c.1739.3789.59,1.4285,1.236,3.149.6708,1.7826,1.0745,2.8757,1.2049,3.2794.0683.3354.0994.5714.0994.7019,0,.4907-.4658.205-1.4037-.8695-.1118-.1553-.1677-.087-.1677.1988,0,.0683.2112,3.0061.6397,8.8135.4223,5.8011.6335,9.2607.6335,10.3786,0,3.2422-.5776,5.7825-1.7391,7.6396-.9876,1.559-2.236,2.3416-3.5713,2.3416-1.6894,0-2.8943-1.0621-3.621-3.1925-.087-.2795-.1863-.2795-.2981,0-.9627,2.4658-2.3167,3.6956-4.0744,3.6956-1.7826,0-2.8447-1.1242-3.18-3.3788-.0186-.1925-.0497-.2857-.0807-.2857-.0373.0186-.1056.118-.205.2857-.4223.7019-1.0559,1.4223-1.8882,2.1552-1.3292,1.1863-2.6459,1.7764-3.9564,1.7764-1.4472,0-2.4596-.4348-3.031-1.3043-.3416-.5466-.5404-1.354-.5838-2.4285-.0124-.1242-.0683-.1863-.1677-.1863-.1801,0-.3602.1056-.5341.323-1.118,1.2919-1.8385,2.0807-2.1614,2.3602-1.4161,1.2174-2.9564,1.826-4.5216,1.826-1.677,0-2.8819-.6459-3.6148-1.9441-.4907-.8509-.8261-2.2236-1.0062-4.1179-.6273,3.0372-1.2298,4.9688-1.8074,5.7949-1.3167,1.8944-2.8384,3.236-4.5589,4.0185-.6708.2857-1.8198.646-3.4471,1.0683-1.6273.4286-2.826.6832-3.5838.7702-.3106.0248-.4658-.0062-.4658-.0994,0-.087.1429-.2236.4348-.4037,1.5155-.8695,3.9378-2.3167,7.2669-4.3539,3.7515-2.4534,5.6272-6.062,5.6272-10.8134,0-6.1862-.2919-11.5774-.8758-16.1797-.1553-1.5155-.4658-3.6707-.9379-6.4657.2484-1.6024.4348-2.5776.5714-2.913.087-.2422.1677-.3664.236-.3664s.1429.1242.236.3664c.7329,2.3913,1.323,5.416,1.7701,9.0805.3168,2.4534.5404,6.2731.6708,11.4532.1366,4.6645.3168,7.5588.5404,8.6706.2671,1.2733.677,2.149,1.236,2.6149.4037.3106.9689.472,1.708.472,1.6397,0,3.1242-.4348,4.3539-1.2919.4907-.3478,1.6024-1.3851,3.3353-3.1179.2112-.2112.4099-.3168.6025-.3168.2981,0,.3851.1988.2484.6025s-.1988.7764-.1988,1.1242c0,.7702.3168,1.3664.9503,1.7888.6025.4037,1.3851.6025,2.3478.6025h0Z"/>
      <path class="cls-1" d="M38.733,108.9853c0-.2671-.5217-.6149-1.559-1.0559-1.0372-.4348-1.8012-.6087-2.2919-.5155-.1801.0435-.2484.1118-.205.1988.1801.4907.559,1.3043,1.1428,2.4471,1.5155-.4907,2.4844-.8509,2.913-1.0745h0ZM25.8016,115.6187c3.062-2.4099,5.9999-4.0869,8.8072-5.0247-.1988-.3354-.4907-.8944-.8695-1.677-.1801-.3789-.2671-.8323-.2671-1.3726,0-.8695.2236-1.6024.6708-2.2049.5155-.7391,1.2857-1.1056,2.3105-1.1056.8012,0,1.9565.5217,3.4471,1.5714,1.59,1.0745,2.3788,1.9627,2.3788,2.677-.2236.9379-.5031,1.8198-.8385,2.6459-1.2671.3851-2.8074.8633-4.621,1.441.0683,1.031-.0311,1.5403-.2981,1.5403-.205,0-.4161-.3913-.6397-1.1677-.8261.2857-1.9751.7764-3.4471,1.472-2.1428.9813-3.7639,1.9068-4.857,2.7763-1.677,1.3229-3.3726,2.9192-5.093,4.7887-1.9627,2.1676-3.0993,3.385-3.4161,3.6521-1.0683.9627-2.118,1.441-3.1428,1.441-1.118,0-2.0993-.5093-2.9502-1.5217-.8509-1.0186-1.2733-2.2732-1.2733-3.7701,0-2.0745.8509-4.7639,2.5465-8.0681.1801-.3354.323-.5031.4348-.5031.0435,0,.0683.0435.0683.1304,0,.3354-.3727,1.4906-1.1056,3.4658-.7391,1.9813-1.1056,3.5465-1.1056,4.708,0,.8695.2112,1.5776.6335,2.1242.4286.5466,1.031.8261,1.8136.8261,1.0683,0,2.2422-.5279,3.5154-1.5776.6708-.559,1.8198-1.7391,3.4471-3.5465,1.5652-1.7205,2.8509-2.9627,3.8508-3.7204h0Z"/>
      <path class="cls-1" d="M64.4343,135.1462l.8509-1.7577c.0683-.1366.1366-.1988.2174-.1988.1118,0,.59.2857,1.441.8695.8509.5776,1.2733.9192,1.2733,1.0186,0,.3789-.3727,1.1739-1.1242,2.3788-.087.1491-.1801.1863-.2857.118-.7329-.5466-1.5652-1.1242-2.4906-1.7267-.3168.7081-.6211,1.3043-.9254,1.795-.087.1553-.1801.1925-.2857.118-.8323-.6397-1.7018-1.236-2.59-1.795-.0497-.031-.0497-.0994,0-.1988l1.0683-2.1925c.0683-.1366.1429-.205.2174-.205.0994,0,.5093.2422,1.2236.7205.7143.4845,1.1863.8323,1.4099,1.0559h0Z"/>
      <path class="cls-1" d="M56.0369,94.5633c8.6147-3.1987,17.6207-6.534,27.018-10.0122.3664-.1366.5838-.1801.6522-.1366.0932.0683.0683.2609-.0683.5838-.4099,1.0062-.7453,1.6087-.9938,1.8198-7.7824,2.8633-16.894,6.4036-27.3472,10.6271v-1.2112c.1988-.5341.4472-1.0869.7391-1.6708Z"/>
      <path class="cls-1" d="M42.354,91.346c8.6209-3.1987,17.6269-6.534,27.0242-10.0122.3602-.1366.5776-.1801.6459-.1366.0932.0683.0683.2609-.0683.5838-.4099,1.0062-.7391,1.6087-.9938,1.8198-7.7824,2.8633-16.894,6.4036-27.341,10.6271v-1.2112c.1988-.5341.441-1.0931.7329-1.6708h0Z"/>
      <path class="cls-1" d="M71.5956,97.7806c0,.4223-.087.8571-.2733,1.3105-.2484.5838-.5714.8758-.9565.8758-.6211,0-1.0559-.4161-1.3167-1.2608-.2919,1.0807-.8323,1.6211-1.6087,1.6211-.2919,0-.5466-.1429-.764-.441-.2484-.3416-.3727-.8012-.3727-1.3602v-1.3354c0-.1056-.0745-.1801-.2236-.2236-.1429-.0435-.2174-.1615-.2174-.3416,0-.2919.1242-.5776.3727-.8633.2298-.2484.4037-.3727.5217-.3727.1491,0,.2298.2919.2298.8758,0,.3043-.0248.559-.0745.764s-.0745.3851-.0745.5404c0,.3106.0683.6149.1988.9068.1491.3354.3354.5031.5652.5031.2919,0,.5652-.1304.8199-.3975s.3851-.5776.3851-.9317c0-.2112-.0621-.559-.1801-1.0559-.118-.5031-.1801-.8074-.1801-.9317,0-.1056.0559-.2733.1615-.5093.1118-.2298.1925-.3478.2422-.3478.0994,0,.2298.3292.3851.9876.1553.6646.236,1.149.236,1.4658,0,.9068.3478,1.3602,1.0559,1.3602.2981,0,.4907-.1491.5652-.4534-.6025-1.0621-.9068-1.8695-.9068-2.4347,0-.323.0807-.6149.2422-.8633.1056-.1739.1863-.2609.2298-.2733.0435,0,.0745.1056.0932.323.0373.3043.0807.5528.1491.7453.0124.0248.1553.3975.4348,1.1242.1739.4348.2609.764.2609.9938h0Z"/>
      <path class="cls-1" d="M26.0811,101.2588c.1739-.5466.2112-1.0994.118-1.6521-.118-.6087-.3913-.913-.8261-.913-.2112,0-.4969.0994-.8571.2981-.3602.1988-.5404.3975-.5404.5838,0,.441.7018,1,2.1055,1.6832ZM25.0004,103.7121c-1.7701-.913-2.6521-1.8695-2.6521-2.8819,0-1.2112.559-2.3291,1.6832-3.3353,1.118-1.0062,2.0496-1.3789,2.795-1.1118.6273.2298.9379.9068.9379,2.0248,0,1.0062-.205,2.1428-.6273,3.3974.8944.5093,1.4534.9503,1.6832,1.3105,0,.472-.3975,1.2795-1.1987,2.4223-.2236-.3602-.7702-.8012-1.6211-1.3105-.9938,1.3664-2.2484,2.6149-3.7701,3.7328-1.7267,1.2733-3.3167,2.236-4.7577,2.8819-.3043.1553-1.9813.7888-5.0247,1.913-.472.1677-.7826.2547-.9379.2547-.0745,0-.1118-.0186-.1118-.0559,0-.1118.2671-.3416.795-.6832,2.2422-1.3292,4.4968-2.6707,6.7576-4.0247,2.7018-1.6335,4.7204-3.1428,6.0496-4.5341Z"/>
      <path class="cls-1" d="M105.9302,106.2897c1.1863,0,2.4596-.205,3.8322-.6149.3851-.1056.5776-.1366.5776-.087s-.1429.1988-.4348.4472c-1.1925,1.0745-2.7266,1.6149-4.6024,1.6149-.5838,0-1.0621-.1553-1.4285-.4596-.3727-.3043-.559-.6894-.559-1.1553,0-1.2422.5341-2.5403,1.5962-3.9005-.9317-.2795-1.3975-.7702-1.3975-1.472,0-.5963.3727-1.3105,1.118-2.149s1.3478-1.2546,1.8012-1.2546c.118,0,.2422.0932.3664.2857.1242.1925.1925.3975.1925.6087,0,.0994-.1304.323-.3789.6832s-.3851.5031-.4099.4286c-.0994-.3664-.3043-.5528-.6273-.5528-.1677,0-.3727.1429-.6211.4286-.2422.2857-.3664.5279-.3664.7143.2981.4907.8074.7391,1.5217.7391.2422,0,.6149-.2236,1.1304-.6646.2981-.2733.6025-.559.913-.8447.1056-.0807.1615,0,.1615.2547,0,.5466-.205,1.0994-.6087,1.6646-1.5776,1.0621-2.7453,2.2857-3.5092,3.6707-.1429.2609-.2174.4969-.2174.6956,0,.6087.6522.9192,1.9503.9192h0Z"/>
    </g>
    <path class="cls-1" d="M20.6402,187.7102c.4224-2.5776,1.3292-5.6831,2.7329-9.3228,1.0994-2.8384,1.6459-5.6645,1.6459-8.4719,0-5.3415-2.4596-10.478-7.3911-15.4034-.3789-.3851-.4348-.795-.1677-1.2546l1.7018-3.0124c.1553-.2671.4037-.2671.7391,0,4.9316,4.0558,7.3911,9.8693,7.3911,17.453,0,3.6397-.795,7.4967-2.385,11.5712s-2.3912,6.888-2.3912,8.4408c0,3.149.8571,4.7204,2.5652,4.7204.9813,0,2.0993-1.1925,3.3477-3.5838.118-.2236.2298-.3975.3416-.5093.118-.0745.1739-.0559.1739.0559.0373.118.0373.3043,0,.5714-1.0248,5.5713-2.6894,8.3539-5.0061,8.3539-2.3478,0-3.5217-2.2732-3.5217-6.8197,0-.913.0745-1.8385.2236-2.7887h0Z"/>
    <path class="cls-1" d="M84.086,161.6238c-.323.7764-.6149,1.1677-.8758,1.1677-.323,0-.3727-.5031-.1429-1.5093.1925-.8758.2919-2.0062.2919-3.4037,0-4.534-2.5652-9.0557-7.683-13.5649-.323-.2857-.3727-.646-.1491-1.0683l1.4596-2.5776c.1304-.2236.3416-.2236.6335,0,5.0247,3.7328,7.534,8.8197,7.534,15.2667,0,2.0124-.354,3.9067-1.0683,5.6893h0Z"/>
    <path class="cls-1" d="M179.6738,161.5741c-4.2732,9.8755-6.4036,19.453-6.4036,28.7323,0,24.1734,13.5711,36.2538,40.7195,36.2538,9.0309,0,18.2853-2.4037,27.7695-7.2172,8.4843-4.3229,15.627-9.6582,21.4343-16.0058,5.8073-6.3539,8.7079-11.8879,8.7079-16.6021,0-4.0185-1.4099-7.8197-4.2421-11.391-3.1738-3.9689-7.4657-6.7265-12.8755-8.2607-6.0061-1.6894-21.2417-2.5341-45.707-2.5341-8.8321,0-18.6331-.9938-29.403-2.9751h0ZM241.6351,54.1605c0,3.7266-.3975,7.5216-1.1925,11.391-.5466,2.677-1.1863,4.0185-1.9316,4.0185-.9441,0-1.4161-1.5341-1.4161-4.6148,0-3.7701-.8199-7.0682-2.4596-9.9004-1.4844-2.6335-3.0496-3.944-4.6893-3.944-2.5776,0-6.18,4.267-10.7948,12.8009-6.1986,11.2668-11.1364,18.9375-14.8071,23.0057-3.739,4.0869-7.7265,7.7576-11.9625,11.006h3.5154c8.4408,0,18.6145.1863,30.5272.559,11.9066.3727,19.9685.559,24.192.559,4.6645,0,8.9066-.1242,12.7264-.3727,2.8819-.1988,4.3167.0994,4.3167.8944v.2236c-.0497.2981-.2236.8944-.5217,1.7888l-3.2732,9.6768c-.3478.9938-1.1428,1.6583-2.3788,2.0062-7.298,1.9378-14.6146,3.8757-21.9622,5.8073-8.8321,2.5341-16.7263,5.5092-23.6702,8.9315-13.3537,6.6023-23.2044,13.7015-29.5583,21.2914,8.1427,1.2422,21.3411,1.8633,39.6078,1.8633,17.8132,0,29.6266,1.236,35.434,3.7204,4.1179,1.7888,7.4905,4.7142,10.124,8.7886,2.8757,4.5092,4.3167,9.7762,4.3167,15.7822,0,15.9748-6.7265,30.3657-20.1735,43.1729-13.2481,12.5525-27.8938,18.8319-43.9244,18.8319-28.8813,0-43.322-15.981-43.322-47.9368,0-11.8134,1.7888-22.8815,5.3601-33.2042-1.59-.3975-3.4037-.8571-4.944-1.4472-6.4967-2.6335-11.7575-5.9564-15.776-9.9749-2.0372-2.0372-4.298-5.0371-6.7762-9.0122-1.6397-2.6273-3.0745-3.944-4.3167-3.944-3.7204,0-9.447,3.2918-17.1611,9.8631-7.7141,6.5775-12.5401,11.1612-12.5401,14.4841,0,3.9689,7.4967,7.5464,22.4777,10.7203,8.5402,1.7826,14.1487,3.7204,16.8257,5.8073,2.0931,1.6211,3.3664,4.031,3.826,7.2297v6.1614c-.7329,6.0558-3.5465,11.3165-8.4408,15.7885-9.329,8.5402-21.043,16.0307-35.1358,22.484-14.9872,7.0433-27.8379,10.565-38.5581,10.565-11.714,0-20.4964-3.8633-26.3534-11.6084-4.9626-6.3539-7.447-14.6891-7.447-25.0118,0-16.5773,3.9689-31.0179,11.9128-43.3282,1.59-2.4782,2.677-3.7204,3.2732-3.7204.1988.0994.2981.2981.2981.5963,0,.795-.441,2.1801-1.3416,4.1676-6.1489,13.2047-9.2234,24.2665-9.2234,33.198,0,7.8445,2.0807,14.4966,6.2483,19.9561,5.3601,7.2483,13.6456,10.8693,24.8628,10.8693,8.8321,0,19.5523-2.5838,32.1607-7.7452,9.8259-3.9689,19.4033-8.8818,28.7322-14.7388,8.3414-5.1614,12.509-8.3911,12.509-9.6768,0-1.3913-2.3354-2.7329-6.9998-4.0185-5.062-1.1925-10.0743-2.385-15.0369-3.5776-6.2545-1.3851-10.7699-2.9254-13.5463-4.6148-4.1676-2.677-6.2545-6.298-6.2545-10.8631,0-2.9813.2981-5.857.8944-8.6396,1.3913-6.8011,4.2173-11.7389,6.6955-15.5649,4.3167-6.5961,9.6023-12.2792,15.8568-17.0431,5.857-4.416,10.5463-6.6272,14.0742-6.6272,2.5279,0,4.7142,1.3664,6.5464,4.0993,1.9378,3.0745,3.8446,6.1489,5.7328,9.2296,3.1242,4.1179,7.1241,7.3166,11.9811,9.6023,1.9875.9441,5.6148,2.2173,10.3786,3.9005,9.2793-14.4344,22.7013-25.8752,40.2724-34.316-8.5899,0-17.0866-.1615-25.4963-.4845-8.4097-.323-16.0679-.4845-22.9622-.4845-3.5279,0-5.2856-.3913-5.2856-1.1863,0-.3478.1491-.9192.441-1.7142,1.0434-3.3229,2.4347-7.2421,4.1738-11.7637,4.4533-6.975,10.1613-7.5775,17.1487-12.0494,5.9564-3.8198,11.832-8.6085,17.6393-14.3661,3.4223-3.3788,8.6644-10.7699,15.7077-22.1858,5.4595-8.8321,9.5339-13.2481,12.2109-13.2481,1.8882,0,3.6956,1.4161,5.4347,4.2421,2.1304,3.472,3.1987,8.093,3.1987,13.8444h0Z"/>
    <path class="cls-1" d="M222.9337,188.1077l3.9502-8.1302c.3106-.6211.646-.9254,1.0062-.9254.5155,0,2.7329,1.3416,6.6582,4.0248,3.9192,2.6832,5.8819,4.2546,5.8819,4.7204,0,1.7515-1.7267,5.416-5.1862,10.9935-.4161.6708-.8509.8509-1.3167.5404-3.4037-2.5279-7.2483-5.1862-11.5339-7.975-1.4472,3.2546-2.8633,6.0185-4.2608,8.2855-.4099.7267-.8509.9068-1.3167.5466-3.8695-2.944-7.8694-5.7079-11.9997-8.2855-.205-.1553-.205-.4658,0-.9317l4.9564-10.1426c.3106-.6211.646-.9317,1.0062-.9317.4658,0,2.3478,1.1118,5.652,3.3353,3.3043,2.2173,5.4719,3.8446,6.503,4.8757h0Z"/>
    <path class="cls-1" d="M155.0719,237.0693l3.9502-8.1302c.3106-.6211.646-.9254,1.0062-.9254.5155,0,2.7329,1.3354,6.6582,4.0248,3.9192,2.6832,5.8819,4.2546,5.8819,4.7204,0,1.7515-1.7267,5.416-5.1862,10.9935-.4161.6708-.8509.8509-1.3167.5404-3.4037-2.5279-7.2545-5.1862-11.5339-7.975-1.4472,3.2546-2.8633,6.0123-4.2608,8.2855-.4099.7205-.8509.9068-1.3167.5466-3.8695-2.944-7.8694-5.7079-11.9997-8.2855-.205-.1553-.205-.4658,0-.9317l4.9564-10.1426c.3106-.6211.646-.9317,1.0062-.9317.4658,0,2.3478,1.1118,5.652,3.3353,3.3043,2.2173,5.4719,3.8446,6.503,4.8757h0Z"/>
    <path class="cls-1" d="M125.1161,59.8187c27.0925-10.0619,55.4087-20.5585,84.9483-31.4775,1.149-.4348,1.826-.5776,2.0434-.4348.2857.2174.2174.8261-.2174,1.8323-1.2919,3.1614-2.3354,5.062-3.1242,5.7142-24.4591,8.9998-53.1106,20.1424-85.9607,33.4154v-3.8012c.6273-1.6832,1.3975-3.4285,2.3105-5.2483h0Z"/>
    <path class="cls-1" d="M70.3223,61.7752c27.0925-10.0557,55.4087-20.5523,84.9483-31.4713,1.149-.4348,1.8323-.5776,2.0434-.4348.2919.2174.2174.8261-.2112,1.8323-1.2981,3.1614-2.3354,5.062-3.1304,5.7142-24.4591,8.9998-53.1106,20.1424-85.9607,33.4154v-3.8012c.6273-1.6832,1.4037-3.4285,2.3105-5.2545h0Z"/>
    <path class="cls-1" d="M180.7421,66.6074c0,.6522-.8323,2.1428-2.4968,4.4657-1.8695,2.5962-3.6459,4.503-5.3353,5.7142-1.0869.7577-4.6769,1.9441-10.7823,3.5589-.882.2236-1.4099.3292-1.5714.323v-.087c.1429-.1366.5031-.4348,1.0807-.882.7764-.6087,2.9502-1.8447,6.503-3.708,3.4099-1.8198,5.3974-2.9751,5.9812-3.4844.0994-.0994.1491-.1988.1491-.2981,0-.8074-3.0248-1.2112-9.0805-1.2112-.0248,0-1.1863.0497-3.4782.1491-.4969.0248-.882.0186-1.1552-.0062v-1.323l2.0621-3.4782c.6273-1.0559,1.7763-1.7267,3.4409-2.0062.6087-.0994,2.0062-.1491,4.1987-.1491,6.9936,0,10.4842.8074,10.4842,2.4223h0Z"/>
    <path class="cls-1" d="M105.7625,40.6515c-.2484.6087-.4783.9068-.677.9068-.2547,0-.2919-.3913-.118-1.1739.1553-.6832.2298-1.5714.2298-2.6583,0-3.5403-2-7.0744-5.9999-10.5898-.2547-.2298-.2919-.5031-.1118-.8323l1.1366-2.0124c.1056-.1801.2671-.1801.4969,0,3.9192,2.9068,5.8819,6.8818,5.8819,11.919,0,1.5714-.2795,3.0496-.8385,4.4409h0Z"/>
    <path class="cls-1" d="M178.6738,32.0865c-.2547.6087-.4845.913-.6832.913-.2547,0-.2919-.3975-.118-1.1801.1553-.6832.2298-1.5714.2298-2.6583,0-3.5403-2-7.0744-5.9999-10.5898-.2484-.2298-.2857-.5031-.1118-.8323l1.1428-2.0124c.0994-.1801.2609-.1801.4907,0,3.9254,2.9068,5.8819,6.8818,5.8819,11.919,0,1.5714-.2795,3.0496-.8323,4.4409h0Z"/>
    <path class="cls-2" d="M287.5347,150.6986c.5652.6087.6335,1.1304.5279,1.6956-.1925,1.031-.2857,2.0807-.5838,3.0807-.5341,1.7391-1.2795,2.7701-3.2981,2.9006-.087.0062-.1801.0124-.2671.0124-1.0745,0-2.0869-.4969-2.7515-1.3354-1.2298-1.4596-1.6584-3.2111-1.5341-5.0744.1242-1.7018.3851-3.385.5838-5.0744.2733-2.2919.5963-4.5837.8074-6.8818.3106-3.4533-1.0186-6.3415-3.2297-8.8631-.6397-.7267-1.3043-1.472-2.1552-1.8012-.4099.0186-.4099.2795-.5093.4596-.1863.323-.4845.4782-.8261.3851-1.2733-.3292-2.4968-.764-3.5279-1.6335-.2919-.2174-.4596-.559-.4596-.9192,0-.031,0-.0621.0062-.087.1366-1.6459.4099-3.267.9565-4.826.031-.0932.1429-.1553.2981-.3106.1988.0683.4596.1118.6832.236,1.472.8199,2.9627,1.6211,4.4036,2.4968,2.1801,1.323,3.6086,3.3043,4.5713,5.6458.3106.764.5404,1.5528.8136,2.3291.0621.1801.1801.3354.2733.5155.4596-.236.3789-.6087.3789-.9006-.0373-1.6087-.0932-3.3353-.1491-4.9502-.0807-2.031.4286-3.9316,1.2298-5.7452.5963-1.3664,1.9751-1.8509,3.2732-1.1304.9876.5528,1.8695,1.3167,2.7515,2.0434.2174.1739.3726.5963.3354.8758-.1553,1.0186-.1739,2.0807-.7081,3.1055-.3168-.1118-.6398-.1615-.8944-.323-.6025-.3727-1.1552-.8323-1.764-1.1801-.5217-.2919-1.0745-.5279-1.6459-.6956-.4783-.1429-.9876.2671-1.0683.7702-.0373.2671-.0559.5528-.0248.8261.3043,3.267-.2112,6.4657-.8323,9.6582-.2484,1.2422-.3789,2.503-.5901,3.7453-.3416,2.0062-.6956,4.0061-1.0373,6.0123-.1553.9192-.3354,1.8385-.4472,2.7639-.1801,1.5341.1863,2.9565,1.0124,4.2483.3913.6149.9441,1.0497,1.6149,1.3416,1.2919.559,2.5403-.0062,2.9627-1.3602.1491-.472.2485-.9565.4037-1.4285.0621-.1801.2174-.3354.4161-.6273h0Z"/>
    <path class="cls-1" d="M203.9528,265.1618c-.3043.5155-.8385,1.1056-1.6024,1.7701-1,.8944-1.7453,1.1987-2.2173.9192-.1925-.118-.3789-.795-.5528-2.0372-.1677-1.2422-.6087-2.0745-1.3167-2.4906-1.5776-.9317-5.2297,1.9316-10.9687,8.5899-2.4968,2.8819-4.4968,4.7887-5.9999,5.7079-1.0434.6025-1.7453.8012-2.0993.5963-.3168-.1863-.236-.6956.2547-1.5217.7702-1.3043,1.5155-4.2794,2.2422-8.9253.7205-4.6521.764-7.1613.1366-7.534-.4348-.2547-.7888-.2795-1.0745-.0745-.2795.205-.7143.1366-1.3105-.2112-.6646-.3975-1.2546-1.4099-1.7577-3.031-.5031-1.6273-.5776-2.7329-.2298-3.3229.1615-.2795,1.149-.9068,2.9502-1.8882,1.8012-.9813,2.8198-1.4037,3.0558-1.2671,2.2111,1.3043,3.4161,3.7825,3.621,7.4346.2112,3.6583-.5776,7.8073-2.354,12.4407-.1801.4845-.2919.764-.3354.8385.0062.1677.0683.1988.1739.1056.087-.0559.3354-.2484.7515-.5901,1.8447-2.3167,4.9316-5.5713,9.2669-9.7575,3.6148-2.708,6.3042-3.5341,8.0806-2.4844.9068.5341,1.4534,1.677,1.6397,3.4347.1615,1.5279.0435,2.6273-.354,3.2981ZM177.9906,279.9751c-3.2173,2.2981-7.6893,3.7577-13.4158,4.3602-5.1427.5279-9.6085.5776-13.3972.1491-.8136-.0621-5.062-.7888-12.745-2.1801-1.1925-.2298-1.9689-.4472-2.3229-.6584-.1553-.087-.2112-.1801-.1677-.2546.1429-.236.9938-.3726,2.5527-.4099,6.9253.1553,17.0058-.087,30.2478-.7267,3.4906-.4348,6.2607-1.031,8.3104-1.7888,2.6273-.9441,4.0434-1.3602,4.2421-1.2422.0373.0187.031.0745-.0124.1491-.1615.2795-1.2608,1.1428-3.2918,2.6024h0Z"/>
    <path class="cls-1" d="M149.2646,13.8633c-.5652,1.9565-1.0869,2.9999-1.5714,3.1428l-.205-.0435c-.3975-.5404-.8385-1.0745-1.3354-1.6149h-.1925l-1.1304,4.1614c-.0807,1.0248-.1925,1.9192-.3292,2.7018-.1801,1.1863-.646,2.0993-1.3664,2.7453l-.3292-.0435c-.1118-.0248-.913-1.8633-2.4285-5.4843-.6584-1.5155-1.2112-2.4782-1.6521-2.9068-.1242.59-.4534.8385-.9627.7702-1.2422-1.0062-2.0931-2.2298-2.59-3.6769.9503-3.2546,1.913-4.8073,2.9068-4.6459l.0807.0435c2.3975,3.6397,3.8446,6.3353,4.3291,8.1178.5652,1.5528.882,2.354.9627,2.3788,1.323-5.4657,2.4409-8.4035,3.3478-8.801.7329.1056,1.3913.7826,1.9875,2.0248.3975.205.5652.59.4782,1.1304Z"/>
    <path class="cls-1" d="M132.1842,95.7807c.1925-5.0434,2.0745-10.9873,5.6396-17.8257l.2671-.1553c.1677.0248.2547.1304.2547.3043-2.6583,6.4471-4.0496,10.9873-4.1738,13.6519-.0621,0-.118.3416-.1553,1.0434-.1242,3.3353.8944,5.5402,3.0558,6.6085l.3851.0248c1.3105.0745,2.354-.7515,3.1304-2.4968.1677-.3664.3168-.5466.4472-.5217h.1118c.1429,0,.2671.1429.3727.4099-.882,5.267-2.4471,7.857-4.7018,7.7265h-.5217c-2.9378-1.0683-4.3167-3.9999-4.1117-8.77Z"/>
    <path class="cls-1" d="M109.7313,250.4975c0-.3478-.0124-.7205-.0435-1.1056-.0248-.3851-.1242-.8509-.2919-1.3789-.2857-.5031-.6087-.7453-.9813-.7453-.0745,0-.2671.0373-.5652.1429-.3043.0994-.677.4099-1.1304.9379-.2795.3354-.5279.6397-.7329.9254-.2174.2981-.4348.5776-.6646.8509-.2236.2795-.4658.5528-.7329.8323-.2609.2733-.5528.5652-.8882.8633-.2422.2298-.6708.4348-1.2733.6397-.6025.1925-1.2236.3851-1.8633.5776-.6459.1925-1.2112.3913-1.6956.5963-.4907.1925-.7329.3851-.7329.5652,0,.3478.2174.6273.6522.8323.441.2174,1.031.3727,1.7515.4782.7826.087,1.6956.1553,2.7515.1801,1.0497.0373,2.1055.0497,3.1614.0497h4.9378c.8944,0,1.7453-.0124,2.5155-.0373.7888-.0248,1.559-.0621,2.3167-.1056.7702-.0373,1.5528-.0745,2.3416-.1118.795-.0435,1.6521-.0559,2.5838-.0559.1491,0,.2671.0124.3727.0435.0248.0248.0373.0497.0373.0745,0,.0497-.0373.118-.118.1801-.0745.0745-.1801.205-.323.3602-.1242.1677-.2795.3354-.4472.5155-.1677.1801-.3478.3478-.5404.5031-.205.1615-.4099.2671-.6025.3168-1.236.2857-2.6645.5155-4.2856.7081-1.6149.1801-3.2732.3354-4.9875.4534-1.708.1118-3.3788.1615-5.0123.1615h-1.1925c-1.1304,0-2.1739-.0248-3.1242-.0745-.4907-.0497-.9751-.118-1.4782-.205-.5031-.0932-.9503-.2422-1.354-.4534-.3975-.2174-.7329-.5093-1-.882-.2547-.3727-.3975-.8882-.3975-1.5465,0-.1553.0497-.4099.1553-.7702.0994-.3727.2298-.7453.3975-1.1552.1677-.3975.3354-.7826.5279-1.1428.1925-.3602.3727-.6211.5404-.7764.3292-.3168.7577-.6025,1.2981-.8199.5404-.2298,1.0931-.4348,1.6583-.6273.5652-.1801,1.118-.3727,1.6459-.5714.5217-.1739.9627-.4099,1.3105-.6894.472-.3727.9254-.8261,1.323-1.354s.7826-1.0373,1.1677-1.5279c.3727-.4907.7577-.9006,1.149-1.236.3851-.3478.795-.5093,1.2174-.5093.2609,0,.4783.0621.6832.205.205.1366.3727.3168.5155.5279.1242.2174.2422.4348.3292.677.0932.2298.1429.4534.1677.6584.0248.2547.0559.5528.0683.8882,0,.3292,0,.6894-.0248,1.0621-.0311.3913-.0807.7453-.1553,1.0931-.0807.3602-.1801.6832-.3354.9813-.1056.205-.205.3292-.3106.3851h-.0248c-.1056,0-.1925-.1304-.2671-.3851h0Z"/>
    <path class="cls-1" d="M266.1625,61.179c1.7701,2.1428,2.8943,5.3104,3.385,9.5029.5528,4.3477.2298,8.7079-.9627,13.0867-.2422.882-.4534,1.5652-.6273,2.0434l-.6335-.7702c.0062-.4037.0248-.8882.0559-1.4472.4782-9.0122.0062-14.3785-1.4161-16.1052-1.354-1.6397-2.7887-1.8385-4.298-.59-.8447.6956-1.4099,1.5528-1.6956,2.5714-.2298.7515-.3913,1.1987-.4782,1.3478-.1553-.0186-.3106.0124-.472.0745-.0994-.2112-.3789-.7143-.8447-1.5403-2.1552-4.149-1.8447-7.3725.9317-9.6644,2.3105-1.9068,4.6645-1.4099,7.0557,1.4906h0Z"/>
    <path class="cls-1" d="M69.9062,46.788c-.5652,1.9565-1.0869,2.9999-1.5714,3.1428l-.205-.0435c-.4037-.5404-.8447-1.0745-1.3354-1.6149h-.1925l-1.1304,4.1614c-.087,1.0248-.1925,1.9192-.3354,2.7018-.1801,1.1863-.6459,2.0993-1.3602,2.7453l-.3354-.0435c-.1056-.0248-.9068-1.8633-2.4223-5.4843-.6584-1.5155-1.2112-2.4782-1.6521-2.9068-.1242.59-.4534.8385-.9689.7702-1.236-1.0062-2.0931-2.2298-2.59-3.6769.9503-3.2546,1.9192-4.8073,2.9068-4.6459l.087.0435c2.3975,3.6397,3.8446,6.3353,4.3229,8.1178.5714,1.5528.882,2.354.9689,2.3788,1.323-5.4657,2.4347-8.4035,3.3477-8.801.7267.1118,1.3913.7826,1.9813,2.0248.4037.205.5652.59.4845,1.1304h0Z"/>
  </g>
</svg>