<?xml version="1.0" encoding="UTF-8"?>
<svg id="Zuhri" xmlns="http://www.w3.org/2000/svg" viewBox="0 0 333.0911 333.4967">
  <defs>
    <style>
      
      @import url('../../CSS/SvgStyling.css');

      
    </style>
  </defs>
  
  <g class="content">

    <rect id="bg" class="bg" width="333.0911" height="333.4967"/>

    <path class="cls-1" d="M133.9617,40.6518c.0305-.3268.0211-.5853.082-.8259,1.0535-4.1582,2.9657-7.8918,5.6467-11.2267,2.0027-2.4912,4.0817-4.9212,6.0732-7.4212.8046-1.01,1.7276-1.9823,1.9974-3.3164-.5012-.9987-1.4072-1.158-2.327-1.2324-1.8931-.1531-3.7543.0323-5.5984.5158-3.5409.9285-6.993,2.1211-10.3799,3.4932-12.1751,4.9322-24.1522,10.2966-35.7089,16.5616-4.0163,2.1773-7.9542,4.4909-11.6409,7.2026-.6748.4963-1.439.9139-1.9243,1.6889.3471.6419.9758.8186,1.5193,1.0855,5.7942,2.8449,11.4181,5.9976,16.953,9.3147,7.7503,4.6448,15.0537,9.9135,22.0596,15.6141,2.6528,2.1585,5.4012,4.2081,8.1934,6.1838,2.2069,1.5615,4.6857,2.654,7.3664,3.0975,5.2668.8713,9.7629-.4234,12.8724-5.0492,1.1115-1.6535,2.0282-3.4374,3.0505-5.1519.2805-.4705.3994-1.0935,1.1907-1.2968.1487.3209.3601.6427.4503.9955.3346,1.3089.078,2.621-.1127,3.9123-.5775,3.9107-2.0088,7.4745-4.4574,10.6103-1.4992,1.92-3.278,3.488-5.4867,4.5462-.3052.1462-.5953.324-.9684.529-.7294,2.5573-1.3319,5.1693-1.7101,7.82-.2569,1.801-.411,3.6325-.4049,5.4496.0042,1.2359.2343,2.5099.591,3.6986,1.1109,3.7016,3.5585,6.1713,7.226,7.4106,2.7137.917,5.5007.973,8.2916.5422,3.4226-.5283,6.5866-1.8545,9.6318-3.4466,8.1222-4.2462,15.2628-9.7868,21.4927-16.4992.8509-.9168,1.611-1.9276,2.335-2.9503,1.0179-1.4376,1.0609-2.9526.1411-4.562-.3989.0597-.7852.0985-1.1632.1773-3.1619.6586-6.3556.657-9.5489.3852-1.6017-.1363-3.1317-.6122-4.5235-1.467-1.7264-1.0603-2.7829-2.6246-2.9174-4.6-.3647-5.3548,1.3885-9.8692,5.6752-13.2624.3564-.2821.7498-.5227,1.1448-.7498,2.7211-1.5648,5.3241-1.4005,7.8141.5329,2.4344,1.8903,4.197,4.3337,5.7589,6.9441.3515.5875.6518,1.2063,1.0148,1.7861.2022.3229.4851.5952.7598.9241,1.973-.8029,3.8737-1.5585,5.4376-2.9484,1.1533-1.0249,1.3306-1.4118.6702-2.8278-.8666-1.858-1.8423-3.6726-2.881-5.4413-1.8821-3.2047-3.731-6.4191-4.8486-9.9892-.2188-.6991-.6026-1.2057-1.2523-1.5394-.6283-.3227-.888-.8539-.7886-1.5595.35-2.4853.694-4.9714,1.053-7.4553.0224-.1548.1547-.2937.3016-.5584.3477.1268.7685.1682,1.0313.3937,2.555,2.1914,5.0988,4.3966,7.6063,6.642.4847.434,1.0238.9487.8847,1.7967-1.0478.8976-2.314-.0114-3.5065.3624-.0369.678.4556,1.1195.7282,1.6434,1.3423,2.5795,2.7262,5.138,4.0302,7.7367,1.1299,2.2516,1.4698,4.6632,1.1996,7.1637-.2706,2.504-.672,4.9771-1.6596,7.3194-1.4098,3.3434-3.6342,5.9029-7.0267,7.351-.1513.0646-.2739.1966-.465.3379-.2852,3.2343-1.2469,6.3253-2.5254,9.3325-.833,1.9594-1.8929,3.7908-3.269,5.4022-6.0809,7.1207-12.9321,13.3704-20.972,18.2388-3.0882,1.87-6.3458,3.3733-9.8623,4.2756-2.5795.6619-5.2.8736-7.809.406-5.7385-1.0283-9.2193-4.681-11.1678-9.9804-.7343-1.9972-1.0369-4.0906-1.1265-6.211-.2242-5.3009.5179-10.4735,2.0864-15.5353.1821-.5876.3238-1.1878.524-1.9299-.6666-.028-1.1655-.0666-1.6643-.0671-4.3713-.0039-8.3419-1.225-11.7676-3.981-1.8667-1.5017-3.673-3.0811-5.4663-4.6708-2.4366-2.1599-4.8915-4.2928-7.6075-6.1025-.2329-.1552-.4724-.3005-.9015-.5726.0445.4742.0211.7777.107,1.0463.3997,1.2498.9091,2.4696,1.2347,3.7373,1.2987,5.0557.2501,9.6184-3.1003,13.6091-1.1487,1.3682-2.6643,2.3412-4.2479,3.1386-3.2607,1.642-6.5335,3.2651-9.8512,4.7874-4.5642,2.0942-9.1919,4.05-13.7595,6.137-3.3899,1.5489-6.5958,3.4391-9.2854,6.0512-2.6194,2.544-5.1484,5.1827-7.6725,7.8225-1.4587,1.5256-2.8142,3.1494-4.2433,4.704-1.7116,1.862-3.593,3.525-5.9416,4.5468-3.8899,1.6923-7.4815,1.118-10.7016-1.6026-1.6825-1.4214-2.8932-3.218-3.7331-5.259-1.2269-2.9812-1.4948-6.0746-1.0751-9.2451.6887-5.2028,2.4706-10.0708,4.5909-14.8296.6499-1.4587,1.3577-2.8927,2.0769-4.319.27-.5354.5226-1.1393,1.4026-1.3954-.0577.5632-.0364,1.0053-.1554,1.4055-.5044,1.6952-1.031,3.3845-1.5857,5.0639-.9129,2.7639-1.9002,5.5039-2.7699,8.281-.8735,2.7894-1.4177,5.6431-1.2888,8.593.091,2.0805.7517,3.9009,2.287,5.3674,1.0358.9894,2.2364,1.5096,3.6777,1.5924,3.3271.1912,6.1221-1.1444,8.7326-2.9872,1.4488-1.0227,2.7275-2.2426,3.8557-3.6261,1.515-1.8579,3.1284-3.6366,4.6179-5.5141,4.0876-5.1525,9.1925-9.0443,15.0377-11.9348,4.6522-2.3006,9.4309-4.346,14.1569-6.497,3.9989-1.82,8.0172-3.5982,11.9959-5.4613,1.1817-.5534,2.2961-1.2764,3.3741-2.0193,1.6577-1.1424,1.8402-1.9368.9585-3.7844-.991-2.0766-2.3264-3.9226-3.8782-5.6165-2.9804-3.2533-6.3362-6.0845-9.8181-8.7783-6.5016-5.0301-12.9714-10.1016-19.5039-15.0913-1.1747-.8972-1.6142-1.8722-1.5956-3.3274.0408-3.1809.6055-6.2371,1.6828-9.2167.5371-1.4857,1.3859-2.7119,2.6347-3.7132,2.8167-2.2584,5.8641-4.159,8.9797-5.9593,7.6226-4.4047,15.5958-8.1049,23.6176-11.7035,6.9276-3.1078,13.9136-6.0755,21.1047-8.5326,3.1349-1.0711,6.297-2.0599,9.5793-2.5674,1.1204-.1732,2.2751-.25,3.4065-.1996,2.1982.0979,3.3082,1.2786,3.4512,3.4483.1736,2.6341-.3678,5.1038-1.6253,7.4242-1.6664,3.0751-3.6633,5.9115-5.9884,8.5279-2.0084,2.26-4.0294,4.5158-5.9029,6.8857-1.196,1.5129-2.1335,3.2303-3.187,4.8559-.2661.4106-.3629.9694-1.0963,1.1588ZM186.0976,79.4228c-.9728-1.5652-2.3146-2.7332-4.0328-3.4363-1.2593-.5153-2.5708-.4482-3.821.0469-1.4775.5852-1.715,2.0957-.4859,3.0837.4284.3444.9706.6039,1.5027.7526,2.1874.611,4.3742.3617,6.547-.1319.0875-.0199.1485-.1564.29-.315Z"/>
    <path class="cls-1" d="M128.356,289.4237c-.5625.2429-.864.3467-1.1403.4969-1.6048.8723-3.1966,1.769-4.806,2.6327-6.1088,3.2782-12.4504,5.978-19.2076,7.6163-3.6214.878-7.2909,1.3822-11.0307,1.1578-2.5814-.1549-5.0969-.6318-7.4895-1.6453-4.6929-1.988-7.7241-5.5485-9.572-10.2016-1.2373-3.1157-1.769-6.3885-1.8221-9.7143-.0768-4.8107.3843-9.5813,1.5973-14.2533,1.2734-4.9046,3.3045-9.4761,6.1528-13.6742.3718-.548.6746-1.1936,1.5618-1.4311.0377.3755.1722.7116.0807.9665-.559,1.5559-1.1169,3.116-1.7723,4.6328-1.9103,4.4216-3.4392,8.9578-4.0781,13.7461-.4098,3.0713-.362,6.1393.3823,9.1841,1.7494,7.1563,7.1187,12.486,15.7996,13.099,4.0313.2846,7.9691-.2746,11.8659-1.2601,7.3002-1.8462,14.1332-4.8535,20.73-8.4166,4.2197-2.2793,8.3538-4.7141,12.1995-7.5998.5443-.4084,1.0623-.8709,1.5142-1.3782.5226-.5867.4801-1.1774-.1603-1.6083-.6061-.4078-1.2861-.7679-1.9855-.9631-2.1976-.6136-4.4196-1.1399-6.6321-1.6999-2.7107-.686-5.4334-1.3284-8.1262-2.0785-1.1464-.3193-2.2682-.7874-3.3352-1.3201-3.4072-1.701-4.8505-4.4027-4.6433-8.2209.2719-5.0102,1.8733-9.6084,4.1657-14.0037,2.0943-4.0154,4.5574-7.7824,7.6913-11.0772,1.9728-2.0741,4.1209-3.9509,6.4972-5.5514,1.4276-.9615,2.9528-1.7266,4.6495-2.1172,1.4451-.3327,2.7069.0347,3.8535.9179,1.2332.9498,1.9758,2.2457,2.2995,3.7171.6402,2.9093.2569,5.6796-1.5099,8.1601-.2482.3485-.6127.6141-1.0001.9932-.3134-.3503-.5751-.5645-.736-.8381-.4046-.688-.7187-1.4317-1.15-2.1009-.9634-1.4947-2.0957-1.9947-3.7998-1.5232-1.0285.2846-2.0854.6866-2.951,1.2914-1.4901,1.0412-2.8974,2.2203-4.2392,3.4509-3.6064,3.3072-6.5394,7.1542-8.8821,11.4479-.354.6488-.6217,1.3448-.9272,2.0199-.498,1.1002-.1793,2.0483.6853,2.7625.7415.6125,1.5675,1.1465,2.4182,1.5981,1.9274,1.0232,4.0142,1.6269,6.1226,2.1544,2.7676.6924,5.5502,1.3321,8.2955,2.1039,1.4759.4149,2.9219.9824,4.3207,1.6154,2.5415,1.1501,3.736,3.2584,3.8881,5.9806.3024,5.4107-1.806,9.796-5.8458,13.2806-1.8992,1.6382-3.8978,3.1656-5.9017,4.6763-.8097.6104-1.358,1.2815-1.6635,2.2748-.6203,2.0168-1.3754,3.9924-2.0839,5.9817-.9773,2.7438-1.8937,5.5035-2.4246,8.3777-.3452,1.8685-.3909,3.7468-.2224,5.6291.142,1.5861.8041,2.9691,1.8739,4.1384,1.0479,1.1453,2.3601,1.7431,3.9249,1.838,2.736.1659,5.1816-.6809,7.4611-2.0921,1.8543-1.148,3.5207-2.5299,4.9273-4.2094,1.8328-2.1883,3.6759-4.368,5.4998-6.5637,3.8161-4.5938,8.4828-8.1148,13.7487-10.8653,1.9213-1.0035,3.8725-1.9581,5.8531-2.8382,5.6836-2.5256,11.2904-5.2294,17.1166-7.4271.633-.2388,1.2456-.5314,1.9079-.8164-.0882-.3755-.1115-.6624-.2206-.9117-1.609-3.6762-1.4546-7.4638-.6482-11.2648.9325-4.395,3.034-8.232,5.927-11.6267.8274-.9709,1.1965-1.9254,1.2232-3.2188.0338-1.6398.4139-3.2749.6839-4.9056.0618-.3733.2839-.7201.4917-1.2231.5929.1895,1.1523.2941,1.6428.5373,2.8634,1.4195,5.7128,2.8673,8.5622,4.3151.7228.3673,1.3049.8997,1.7827,1.6262-.7051,1.4981-2.1916.8602-3.4174,1.2897.276.2761.4896.5071.7209.7186,2.1605,1.976,4.5941,3.5621,7.1259,5.0128,1.1384.6523,2.2714,1.3197,3.3642,2.0445,4.0075,2.6576,6.0873,6.3502,6.0716,11.2178-.0096,2.965-.4334,5.8029-1.9606,8.3947-.3468.5885-.7362,1.154-1.136,1.7085-.8742,1.2124-2.0643,1.9136-3.5247,2.2412-2.9976.6725-6.0201.6482-9.0265.2384-2.9365-.4003-5.8519-.9665-8.765-1.521-.941-.1792-1.7665-.1261-2.6351.3142-7.7934,3.9509-15.8187,7.399-23.8006,10.9418-1.8771.8331-3.7172,1.7499-5.5719,2.6333-3.8574,1.8373-7.2583,4.322-10.2146,7.3902-2.7716,2.8766-5.4678,5.8259-8.1873,8.7525-1.5532,1.6716-3.0101,3.4362-4.8675,4.8023-1.9221,1.4136-3.996,2.4137-6.423,2.5649-2.5811.1609-4.8502-.6171-6.8108-2.2681-3.2325-2.7221-4.8708-6.2666-5.2077-10.4327-.3045-3.7649.4401-7.3963,1.6116-10.9411.7872-2.3816,1.7173-4.7161,2.5847-7.0712.1901-.516.3856-1.03.6788-1.8123ZM189.5168,269.2611c.062,1.2002.5086,2.1343,1.311,2.9578,1.4827,1.5217,3.3231,2.3786,5.3217,2.9522.7508.2155,1.4514.0949,2.1136-.3621,1.2792-.883,2.4185-1.9006,3.3147-3.1805.9308-1.3292,1.2624-2.8008,1.0024-4.3883-.4178-2.5511-1.5872-4.7507-3.3202-6.6382-1.1435-1.2454-2.0324-1.3424-3.5022-.5374-.2991.1639-.5967.3436-.8586.56-2.0068,1.6583-3.6652,3.6038-4.6739,6.0237-.3442.8259-.4783,1.7393-.7085,2.6127ZM203.6103,276.4736c.3429.1733.576.343.836.4148,3.7731,1.0425,7.6137,1.4048,11.513,1.0648.5007-.0437,1.0104-.2029,1.4744-.4042,1.1047-.4793,1.3519-1.0176,1.0593-2.1648-.306-1.1997-.9377-2.2139-1.9234-2.9542-.9551-.7173-1.9636-1.3654-2.9649-2.0188-2.2899-1.4943-4.5877-2.9766-6.8892-4.4528-.2053-.1317-.4616-.1838-.6739-.265-.323,1.9173-.5488,3.7282-.9488,5.4999-.3978,1.7619-.9705,3.4844-1.4826,5.2805Z"/>
    <path class="cls-1" d="M195.6314,158.8736c.6826.5931.577,1.3407.4367,2.0696-.1832.9523-.4011,1.8989-.6333,2.8407-.2746,1.1137.105,2.0092.8477,2.8127.7594.8217,1.6925,1.3594,2.7566,1.6492,1.2912.3516,2.609.2987,3.9077.051.6777-.1292,1.2951-.4437,1.6758-1.1818-.1007-.8261-.6066-1.5336-1.031-2.2554-.5904-1.0042-.7036-2.0165-.3741-3.1224.4074-1.3672.7529-2.7529,1.1624-4.1195.1755-.5858.3136-1.2268.946-1.5436.7698.044,1.0465.659,1.3748,1.1719,1.0712,1.6738,1.6849,3.5322,1.6856,5.5016.0014,3.8267-.6979,7.4944-2.9504,10.7209-1.2163,1.7422-2.7626,3.0107-4.8431,3.5972-2.9143.8215-5.4205.2429-7.4233-2.0983-.6635-.7756-1.2708-1.5994-1.9911-2.5118-.2969.361-.5654.6262-.7622.9368-1.0152,1.6023-2.2247,3.038-3.6306,4.3087-2.2557,2.0386-4.9151,3.0314-7.9459,3.1291-2.4561.0791-4.4865-.8477-6.0675-2.6433-.8955-1.017-1.6219-2.2042-2.2993-3.3865-.8502-1.484-1.5388-3.0597-2.3573-4.563-1.1679-2.1452-1.7573-2.3099-3.7026-.8964-2.2365,1.6252-4.1054,3.6182-5.5156,6.0168-.597,1.0154-.8274,2.109-.7794,3.2829.0388.9511.4068,1.7161.9601,2.4958,1.3373,1.8848,3.1443,3.1219,5.1842,4.0736,1.3958.6513,2.8236,1.2335,4.2292,1.8641,1.0924.4901,2.1819.9882,3.2562,1.5163,2.9645,1.4572,4.3104,4.0084,4.5613,7.1527.4051,5.0755-1.4069,9.4201-4.7735,13.1262-.746.8212-1.7679,1.4629-2.7738,1.9647-5.0104,2.4997-10.316,4.0318-15.9164,4.3179-2.8213.1441-5.5614-.4889-8.1515-1.6672-.363-.1652-.7242-.3345-1.0882-.4974-.0499-.0223-.1114-.0187-.4-.0619-.3792.1901-.9388.452-1.4812.7455-5.4312,2.9396-11.2264,4.4307-17.4084,4.3872-.4564-.0032-.9146-.0103-1.3687-.0513-4.4276-.3994-7.5735-2.5497-9.3404-6.7019-1.2013-2.823-1.8302-5.7695-2.0479-8.7969-.3725-5.18-.6983-10.3649-.9383-15.5526-.2295-4.9606-.308-9.928-.4834-14.8913-.2278-6.4465-.4703-12.8926-.7347-19.3376-.317-7.7287-1.3925-15.3466-3.5433-22.7875-.4821-1.6679-.4564-3.2573.1075-4.8629.4533-1.2906.9217-2.5765,1.4155-3.852.114-.2944.359-.5381.5306-.7862.6598.2102.7897.734,1.0101,1.1905,1.3005,2.6941,2.0638,5.5595,2.665,8.4706,1.1794,5.7118,1.857,11.4873,2.1102,17.3131.2429,5.5875.5077,11.1742.7177,16.763.2486,6.616.4303,13.2345.6759,19.8506.1779,4.7904.3884,9.5801.6334,14.3675.1089,2.1287.68,4.167,1.5838,6.0963,1.0613,2.2654,2.7399,3.7899,5.3149,4.0598,1.3003.1363,2.622.2476,3.9222.1704,2.7353-.1626,5.4603-.4807,8.1001-1.2753.7012-.211,1.3782-.5025,2.0424-.7481.0462-.2658.1262-.439.0952-.5894-1.0757-5.2196.0121-10.0977,2.395-14.7419,1.573-3.0658,3.5564-5.8547,6.09-8.2156,1.6458-1.5336,3.4601-2.8322,5.6969-3.3365,1.148-.2588,2.338-.3308,3.7011-.5129.1085-.553.2558-1.2682.3888-1.9861.9642-5.2057,2.9321-9.9612,6.4531-13.97.932-1.0611,2.0371-2.0057,3.1896-2.8253.8162-.5804,1.8329-.8944,2.7846-1.264.7687-.2985,1.5014-.0688,2.0355.5167.5328.5841,1.0305,1.2258,1.4148,1.9141.667,1.1946,1.2198,2.4523,1.849,3.6688.4451.8605.8922,1.7258,1.4163,2.5387,1.9173,2.9738,4.653,4.0616,8.1071,3.4271,2.8204-.5181,5.145-1.8864,6.8231-4.2077,1.2357-1.7092,2.3251-3.5241,3.4811-5.291.4373-.6684.8478-1.3572,1.327-1.9943.4104-.5456.8874-1.0566,1.6947-.9536ZM151.4809,205.8577c.5407.0753.8107.1288,1.0832.1485,6.0279.4358,11.8062-.6869,17.4199-2.8125.585-.2215,1.1625-.4798,1.7087-.7837,1.3859-.7712,1.5821-1.6019.6951-2.9372-.676-1.0176-1.5655-1.8212-2.6877-2.315-1.0947-.4817-2.207-.9289-3.3315-1.3362-2.8456-1.0306-5.6682-2.1013-8.1898-3.8263-.2012-.1377-.4809-.1607-.8463-.2753-.5189,5.2949-2.9808,9.6545-5.8515,14.1377ZM151.0806,188.0869c-.1309,0-.2459-.014-.3561.0033-.1683.0264-.3406.0552-.4984.1162-3.7615,1.4533-6.9102,3.7272-9.2101,7.0652-.4692.681-.8252,1.5316-.9435,2.3461-.3727,2.566,1.2775,5.2149,3.7503,6.25,2.694-.9276,5.4576-2.6241,7.259-4.6461.786-.8824,1.3908-1.9316,2.0359-2.9321.4146-.6429.5372-1.3918.4214-2.1407-.1912-1.2366-.3641-2.4847-.6884-3.6893-.2656-.9866-.725-1.9289-1.7699-2.3724Z"/>
    <path class="cls-1" d="M251.4598,176.6518c.2636.2878.497.4608.6192.6924.2923.554.5729,1.1207.7869,1.7083,1.6925,4.6456,4.1787,8.8707,6.8608,12.9918,3.4558,5.3099,6.9454,10.598,10.3779,15.9229,3.495,5.4219,6.9202,10.8856,9.6508,16.7517,2.9611,6.3612,5.0477,12.9804,5.7666,19.9734.3919,3.812.258,7.6362-.3093,11.4411-1.4664,9.8344-5.3996,18.5879-11.594,26.3232-3.9947,4.9885-9.0024,8.5712-15.2379,10.2284-4.0241,1.0695-8.0844,2.0045-12.1376,2.9614-.884.2087-1.8041.2831-2.7126.3579-.2893.0239-.5949-.1508-.9107-.2396.1876-.8307.817-1.0705,1.3301-1.3854,1.7508-1.0746,3.5289-2.1044,5.2878-3.1659,4.6423-2.8015,9.2935-5.5885,13.9159-8.4224,6.0706-3.7217,10.7625-8.7678,14.2563-14.9581,2.2807-4.0409,3.5294-8.3862,4.0752-12.9769.6646-5.5895-.4594-10.9143-2.2953-16.1257-2.348-6.6646-5.7435-12.8026-9.6987-18.6335-4.0374-5.9519-8.1354-11.8626-12.1995-17.7964-.604-.8819-1.1673-1.7918-1.9528-3.0021.0913,2.1752.1179,3.9738.2508,5.7644.4855,6.5439,1.0247,13.0839,1.5074,19.6281.298,4.0399.5284,8.0848.793,12.1272.1789,2.7328.39,5.4638.5405,8.1981.1985,3.6063-.1375,7.1793-.7102,10.7402-.501,3.1151-1.2636,6.1506-2.5765,9.0252-1.0972,2.4022-2.4439,4.6495-4.4014,6.4712-2.049,1.907-4.396,3.0406-7.2777,2.7743-.3399-.0314-.6844-.0212-1.0265-.0165-.1111.0015-.2215.0473-.3526.0776-.465.4535-.293,1.0545-.3151,1.6044-.1214,3.0206-.1483,6.0474-.3602,9.0614-.2856,4.0626-1.534,7.8228-3.9389,11.156-1.3166,1.8248-2.9883,3.2897-4.7393,4.673-3.635,2.8717-7.4861,5.4341-11.497,7.7363-4.4039,2.5278-8.8766,4.9369-13.3436,7.3529-2.4211,1.3094-5.0098,2.1692-7.7003,2.7886-7.952,1.8306-15.8791,3.7694-23.8343,5.5853-2.4416.5574-4.9406.8673-7.4182,1.2594-.4091.0647-.8436-.032-1.6803-.0757.6373-.4483.9124-.707,1.2372-.86,2.2714-1.0695,4.5325-2.1649,6.8353-3.1635,9.0578-3.9279,18.1706-7.7318,27.1846-11.7572,8.5049-3.798,16.6958-8.206,24.4074-13.4628,2.6926-1.8355,5.2822-3.809,7.6529-6.0426,1.1987-1.1294,2.2577-2.412,3.3345-3.6642.7395-.86.9283-1.8815.8824-3.0321-.1854-4.6428-1.4541-8.9908-3.3962-13.1725-.4086-.8798-.8898-1.734-1.2064-2.6456-.2168-.6243-.4154-1.381-.2602-1.9857.5522-2.1513,1.2535-4.2645,1.9176-6.3862.0606-.1935.259-.3439.3713-.4865.7777.0628.9729.6503,1.2481,1.1266.4566.79.8689,1.6055,1.3166,2.4008.9207,1.6355,2.371,2.3741,4.2021,2.5432,2.9752.2749,5.6321-.5489,8.1117-2.1474,1.2918-.8328,2.0863-1.9525,2.1946-3.4779.1373-1.9324.3556-3.8792.2538-5.8047-.3467-6.5535-.7962-13.1019-1.2493-19.6493-.4965-7.1734-1.0614-14.3421-1.5559-21.5156-.2864-4.1563-.5104-8.3172-.7294-12.4777-.159-3.0209-.2822-6.044-.3845-9.0674-.0528-1.5607-.3893-3.0557-.9012-4.5151-.2743-.7821-.3885-1.5593-.1061-2.3438.752-2.0894,1.5217-4.1725,2.3048-6.2504.0915-.2429.3115-.4375.5356-.7406Z"/>
    <path class="cls-1" d="M286.5122,131.2535c-.0443.9699-.1098,1.7553-.1109,2.5409-.0046,3.2572-.1729,6.5016-.7064,9.7194-.1026.6186-.2522,1.2293-.3653,1.8463-.7613,4.1544-2.8262,7.4508-6.0718,10.2056-7.2114,6.1208-15.1843,10.9026-23.9876,14.3218-5.3634,2.0831-10.9209,3.3804-16.6727,3.4933-6.212.1219-12.0404-1.2642-16.8419-5.5145-4.2769-3.7859-6.9826-8.5529-8.2409-14.1028-.6209-2.7388-.6425-5.553-.4609-8.3518.26-4.0084,1.0977-7.9063,2.3932-11.7056.202-.5926.4414-1.1776.726-1.7342.1075-.2103.3921-.3302.5992-.4938.5143.5504.2681,1.0629.1781,1.5372-.4465,2.3537-.8885,4.7089-1.3873,7.0518-2.0392,9.5781,3.8018,18.1634,10.6233,21.623,2.2625,1.1475,4.6829,1.7787,7.1743,2.1791,5.3503.8598,10.5781.0382,15.7637-1.1923,8.7293-2.0715,16.5977-6.043,23.9022-11.1496,2.6577-1.858,5.0949-4.0317,7.6262-6.0694.2651-.2134.4751-.4939.7292-.7226,1.651-1.4853,2.2267-3.2197,1.9428-5.5092-.497-4.0089-1.5101-7.8308-3.1375-11.5088-.3925-.8871-.7751-1.7785-1.1755-2.662-.3663-.8084-.5012-1.654-.2723-2.5057.5327-1.9815,1.1041-3.9528,1.6848-5.9208.0737-.2498.2967-.4556.4228-.6411.72.0125.9621.502,1.217.9323.4067.6867.7824,1.3929,1.1446,2.1045.8714,1.7122,2.2742,2.6658,4.1559,2.9303,1.7769.2498,3.5303.0853,5.2542-.3863.3818-.1044.7531-.272,1.105-.4567,1.7541-.9204,1.997-1.6237,1.1496-3.4461-.4809-1.0342-1.0241-2.0394-1.5334-3.0606-.5054-1.0133-.6149-2.04-.2592-3.1481.5402-1.6827.9839-3.3962,1.5055-5.0851.1263-.4088.3971-.773.5826-1.1223.9249.0483,1.1473.6907,1.4157,1.2293.9465,1.8993,1.6685,3.8879,2.0148,5.9826.6768,4.0938.1912,8.0917-1.3623,11.9173-.5499,1.354-1.3457,2.6596-2.2597,3.8033-1.7668,2.2109-4.0622,3.462-7.0147,3.1391-.3894-.0426-.784-.0381-1.4508-.0675Z"/>
    <path class="cls-1" d="M98.6334,192.5973c-.7653-.6242-1.6883-.6075-2.5723-.3716-2.1464.5728-4.3162,1.1046-6.3962,1.871-6.1567,2.2686-12.2492,4.7124-18.4139,6.9587-8.2695,3.0133-16.7157,5.4144-25.4089,6.8844-3.7195.6289-7.4686,1.0483-11.2347,1.0945-4.6454.0569-9.2317-.4482-13.5928-2.2274-6.6517-2.7136-10.5082-7.6554-11.5883-14.7231-1.144-7.4858.6561-14.3798,4.4332-20.8336.2459-.4202.4465-.929,1.0412-1.0099.4726.4154.2031.8716.0732,1.2687-.4968,1.518-1.012,3.0309-1.565,4.5294-.7928,2.1486-1.3809,4.337-1.7084,6.6128-.6717,4.6685.8845,8.4021,4.5168,11.3355,2.4871,2.0086,5.3277,3.3063,8.3965,4.1023,3.2643.8467,6.5788,1.3403,9.9614,1.5132,7.0125.3583,13.8898-.519,20.7099-2.0143,9.8489-2.1594,19.2716-5.6025,28.526-9.5456,2.3618-1.0063,4.724-2.0137,7.1101-2.9598,2.2328-.8853,4.5336-1.5526,6.9339-1.8186.3396-.0376.682-.102,1.0207-.0889,3.7789.1463,4.9559,2.4133,4.9045,4.9102-.03,1.4553-.2675,2.8697-.9409,4.1369-.9341,1.7578-1.8679,3.5509-3.0705,5.1234-2.216,2.8976-4.5918,5.6765-6.9685,8.4469-2.1223,2.474-4.1892,4.9731-5.7063,7.8835-.5005.9601-1.0867,1.8765-1.6552,2.7996-.1661.2698-.4063.4939-.8595,1.0322,0-.6636-.0666-.9776.0112-1.2505.3914-1.3713.7987-2.7389,1.2409-4.0946.9498-2.9119,2.5352-5.4877,4.3711-7.9028,1.3801-1.8154,2.8959-3.527,4.3308-5.3014,1.1831-1.4632,2.3576-2.9345,3.4909-4.4362.4009-.5313.8353-1.1097.6088-1.9247Z"/>
    <path class="cls-1" d="M284.3574,178.5875c.4904-.7984,1.2179-1.1543,1.8923-1.5568,5.146-3.0718,10.3015-6.1275,15.4481-9.1983,3.2375-1.9317,6.4241-3.9408,9.3208-6.3715,2.1061-1.7673,4.0051-3.727,5.6719-5.9234,3.2901-4.3354,4.2986-9.1913,3.6936-14.542-.8173-7.2279-2.9599-14.057-5.8653-20.6763-3.8273-8.7199-8.6707-16.8329-14.501-24.3701-3.248-4.1989-6.3372-8.5204-9.544-12.7518-1.2041-1.5888-2.5145-3.0998-3.8255-4.6035-.5065-.581-.9431-1.1526-.9355-1.9478.0269-2.7949.0603-5.5898.1087-8.3844.0057-.3263.1205-.6507.1877-.9912.8604-.1079,1.3504.4158,1.8596.8382,1.9764,1.6397,3.9381,3.2974,5.8988,4.9559,2.7452,2.3221,5.4946,4.6395,8.22,6.9846.6896.5934,1.3202,1.262,1.9271,1.9415.2401.2688.3415.6616.5474,1.0826-1.0762.6187-1.9913.1352-2.8924-.0716-.8733-.2004-1.728-.482-2.7373-.4986.1868.2393.3507.5015.5637.7145,9.1563,9.1598,15.6456,20.0107,20.2647,32.035,1.8489,4.813,3.1736,9.7844,3.7947,14.9027.8368,6.8959.8321,13.7859-.8132,20.5926-1.5475,6.4018-4.5197,12.0458-9.0492,16.8526-3.3592,3.5648-7.3276,6.1812-12.036,7.5676-3.7209,1.0956-7.4713,2.0969-11.2313,3.0506-1.4316.3631-2.9243.4947-4.3943.6929-.4821.065-1.0139.2171-1.5742-.3242Z"/>
    <path class="cls-1" d="M226.9067,51.6044c-1.8386-.5255-2.6659-1.9207-3.9851-2.9986-.0489.3609-.1233.6011-.107.8349.5091,7.3399,1.0241,14.6793,1.5446,22.0184.4519,6.3717.9349,12.7413,1.3608,19.1147.3727,5.5766.7413,11.1546,1.0066,16.737.2124,4.4699-.3259,8.8874-1.3594,13.2391-.581,2.4463-1.3182,4.8457-2.4129,7.1183-.2646.5493-.4109,1.2021-1.1715,1.5646-.102-.2435-.2803-.4715-.2782-.6979.0101-1.0834-.0045-2.1751.1229-3.248.6559-5.5262.3803-11.0498.0227-16.575-.269-4.156-.5324-8.3125-.8199-12.4672-.5238-7.5693-1.068-15.1373-1.595-22.7064-.2694-3.8701-.5443-7.74-.7732-11.6126-.3468-5.8658-.6658-11.7332-.9735-17.6012-.0784-1.4956-.3227-2.9485-.8521-4.3478-.2933-.7753-.3967-1.5669-.1153-2.3449.7751-2.143,1.5851-4.2735,2.3991-6.4021.0721-.1886.2744-.3275.419-.4927.681.2558.8327.8465,1.0291,1.3555,2.0116,5.2146,4.0152,10.4323,5.9853,15.6627.2991.7942.4474,1.6511.6028,2.4907.068.3674-.0218.7641-.0499,1.3584Z"/>
    <path class="cls-1" d="M170.8084,253.466c-.8435-.3648-1.2493-.5371-1.6526-.7152-1.8829-.8311-2.6255-1.9985-2.4175-4.0443.0852-.8381.3127-1.6882.6322-2.4687.3367-.8227.566-1.5994.295-2.4786-.0819-.2659-.0904-.5653-.0789-.8472.0764-1.8752,1.657-3.1794,3.5008-2.8303.6629.1255,1.3237.3727,1.9279.6782,2.16,1.0924,4.0687,2.5303,5.6316,4.389.4742.5639.8837,1.1912,1.2594,1.8271.7436,1.2587.834,2.5959.2766,3.9455-.3036.7351-.6785,1.442-1.042,2.151-.4067.7932-1.0443,1.1594-1.9582,1.0547-.906-.1039-1.8182-.1538-2.7269-.2352-.5056-.0453-1.0098-.1066-1.6362-.1738-5.8122,7.5353-14.0164,11.1426-22.9379,13.9043.14-.9832.822-1.2352,1.365-1.5616,2.2-1.3223,4.4331-2.5895,6.6285-3.9191,2.7806-1.684,5.5579-3.3755,8.2929-5.1319,1.1474-.737,2.1828-1.6484,3.2684-2.4814.3592-.2756.7161-.5543,1.372-1.0625ZM172.3114,249.4747c.2839-1.4856.252-2.0193-.1241-2.8144-.4032-.8523-1.1874-1.1895-1.9502-.7071-.8656.5474-1.6098,1.2478-1.6547,2.4257,1.0804.9649,2.2939,1.2425,3.7289,1.0958ZM174.1919,249.8634c1.7038.7251,2.8602.8362,4.0236.4096-.6558-1.9748-1.8683-3.155-3.6388-3.5185-.0607.145-.1658.2916-.1798.4465-.0809.8948-.1402,1.7916-.205,2.6624Z"/>
    <path class="cls-1" d="M183.1102,147.5262c-2.6594-1.8361-5.0802-3.5074-7.4428-5.1385.2813-1.5057,2.2927-5.6794,3.4092-7.109,2.5718,1.039,4.7483,2.7783,7.0688,4.4638,1.2015-1.5347,1.4493-3.5256,2.7899-5.0482.4136.138.8724.2025,1.2329.4257,2.2731,1.4074,4.57,2.7887,6.4325,4.6738-.1894,1.9171-1.9068,5.2475-3.6326,7.0271-.3495-.182-.761-.3463-1.1178-.5906-1.5523-1.0632-3.0865-2.1529-4.6327-3.2252-.323-.224-.6688-.4149-1.0479-.6479-.8852.629-1.0108,1.6599-1.4977,2.4596-.4978.8173-.9578,1.6576-1.5617,2.7096Z"/>
    <path class="cls-1" d="M110.1986,311.4824c-1.2213,1.7542-1.6766,3.655-2.9668,5.0275-1.0612-.4267-6.5845-4.2378-7.4597-5.1262.5007-1.8236,2.4294-5.7259,3.4802-6.9431,2.5468,1.0408,4.6855,2.8458,6.9979,4.4341,1.2779-1.4826,1.4066-3.4853,2.6829-4.7583.8456-.1506,1.3789.3528,1.9502.6906,3.0174,1.7844,4.8438,3.1932,5.8797,4.5241-.6342,2.4568-2.009,4.5826-3.4806,6.6968-1.504-.4241-2.4345-1.4873-3.5719-2.2079-1.1472-.7268-2.263-1.5031-3.5119-2.3374Z"/>
    <path class="cls-1" d="M231.1441,192.1153c-.4834-.3262-.8106-.5334-1.123-.7609-.4601-.335-.9343-.6566-1.3593-1.0327-1.5357-1.3588-1.9986-2.9977-1.2166-4.9344.9188-2.2756,2.4912-3.9158,4.7421-4.9114,1.9292-.8532,3.4497.2564,3.6922,2.1984.1939,1.553-.1763,3.0636-.4685,4.5742-.0957.4948-.229.9824-.3582,1.5288.5983.5044,1.1546.9811,1.7194,1.4475.6065.5009.7457,1.1318.49,1.8452-.3471.9683-.8186,1.8702-1.6007,2.7545-.8641-.5622-1.7024-1.1076-2.5944-1.688-.2872.2605-.5704.4513-.7692.7076-2.7472,3.5418-6.3331,6.0344-10.1754,8.2261-3.0442,1.7366-6.3788,2.7572-9.6171,4.0172-.5843.2273-1.1708.4571-1.773.6259-.2236.0627-.4953-.0461-.8288-.0868.2425-.7535.8414-.9147,1.3022-1.1936,3.0731-1.8605,6.1583-3.7011,9.2413-5.5453,2.9385-1.7578,5.836-3.5781,8.4928-5.7491.7345-.6001,1.402-1.2823,2.2045-2.0231ZM232.7433,187.6566c.5734-1.5581.4643-2.8097-.3151-3.1703-1.004-.4645-1.7055.1953-2.3761.8164-.0646.0598-.0454.2101-.0648.3185.9519,1.2004,1.0852,1.3005,2.756,2.0354Z"/>
    <path class="cls-1" d="M232.169,103.1472c.3436-1.0304,1.0148-1.2774,1.5767-1.6129,2.888-1.7247,5.8249-3.3709,8.6703-5.1627,2.8921-1.8212,5.7193-3.7486,8.5279-5.6971.8723-.6052,1.5914-1.4311,2.4888-2.2553-.6205-.4258-1.0755-.7446-1.5371-1.0536-2.6417-1.768-3.3641-4.09-1.323-7.2031.7002-1.0679,1.7911-1.8893,2.7502-2.7725.3239-.2982.774-.4883,1.1972-.6447,1.8441-.6816,3.3308.186,3.6291,2.1345.2197,1.4352-.0832,2.8406-.3757,4.2374-.1391.6644-.3157,1.3209-.4935,2.0561.4792.3489.9485.6629,1.3853,1.017.3903.3164.7448.6771,1.1044,1.0085-.1304,1.5812-.8538,2.7437-1.8602,3.8887-.9072-.5964-1.7415-1.145-2.5152-1.6536-.232.133-.3593.1662-.4239.2486-3.9485,5.0389-9.146,8.3432-14.9846,10.731-2.2154.906-4.4807,1.6904-6.7276,2.5185-.2506.0924-.5295.1077-1.0892.2152ZM252.1126,81.7528c.8982,1.1939,1.7867,1.9325,3.2303,2.1428.0323-.6706.1196-1.2235.0728-1.7648-.1065-1.2284-1.0305-1.7798-2.1456-1.2735-.3832.174-.6868.523-1.1576.8956Z"/>
    <path class="cls-1" d="M104.8117,224.8625c-1.0021-.6629-1.7962-1.1881-2.6427-1.7481-.3634.3348-.6814.5683-.9265.8626-3.8149,4.5807-8.6447,7.7284-14.1121,9.9544-2.27.9242-4.5804,1.7498-6.8783,2.6046-.346.1288-.7239.1719-1.2091.2824.1369-.8917.7497-1.1379,1.247-1.445,1.5036-.9287,3.0401-1.804,4.543-2.7337,3.6357-2.2493,7.285-4.4784,10.8748-6.7991,1.285-.8307,2.4248-1.8895,3.6087-2.8709.2943-.2439.5027-.5914.8336-.9917-.5066-.3175-.934-.5744-1.3504-.848-2.9003-1.9056-3.4214-4.3972-1.5082-7.3138.9244-1.4093,2.125-2.5374,3.6574-3.264,2.028-.9617,3.7527-.1009,3.9646,2.1373.121,1.278-.1627,2.6011-.3244,3.8964-.0839.6723-.2988,1.3282-.491,2.1475.5354.4402,1.0825.9188,1.6601,1.3573.6906.5243.8464,1.1821.5662,1.968-.3455.9688-.8747,1.8326-1.5126,2.8039ZM98.91,215.3223c.7921,1.256,1.7521,1.9826,3.2354,2.3611.0257-.7716.1104-1.3828.0524-1.9801-.1143-1.1778-.957-1.6969-2.0327-1.2463-.44.1843-.805.5476-1.2551.8654Z"/>
    <path class="cls-1" d="M168.0489,34.7428c.3154-.8447.9415-1.0609,1.4522-1.3684,3.0306-1.8248,6.0793-3.6194,9.1124-5.44,3.0837-1.851,6.1439-3.7399,8.8919-6.0808.5993-.5105,1.1507-1.0773,1.8222-1.7108-.4263-.3136-.7386-.5333-1.0399-.7672-.5842-.4534-1.2119-.8649-1.7327-1.383-1.1953-1.189-1.565-2.6082-1.0122-4.2394.8807-2.5986,2.6408-4.3713,5.1532-5.3782,1.3917-.5577,2.6454.0498,3.1545,1.4659.1883.5238.3057,1.1229.2595,1.6711-.1098,1.3023-.3267,2.5962-.5218,3.8902-.0667.4428-.1974.876-.3133,1.3757.5837.4958,1.1366.9771,1.7023,1.4428.6099.502.7385,1.1337.494,1.8473-.3345.9764-.8335,1.8627-1.5169,2.6893-1.0961-.2083-1.6364-1.282-2.7327-1.5632-.1644.141-.408.2901-.5734.5006-3.4363,4.3771-7.924,7.3652-12.9264,9.605-2.756,1.2339-5.6208,2.2261-8.4461,3.3021-.327.1245-.7155.0873-1.2268.141ZM191.0692,15.7193c.1183-.4262.2201-.6363.2284-.8501.0344-.8861.2664-1.9102-.7545-2.3872-.8973-.4193-1.5986.1992-2.2371.7686-.0695.062-.0668.2051-.1172.3777.6087,1.0361,1.6165,1.5726,2.8804,2.0909Z"/>
    <path class="cls-1" d="M224.5731,15.1053c.4453,1.6884-.1381,3.5148-1.3415,4.4733-.5783.4606-1.2124.8521-1.8288,1.2635-3.652,2.4375-7.3052,4.8733-10.9617,7.304-.3175.2111-.6622.3812-1.1274.6463-.5334-2.9093,1.4308-4.3384,3.1761-6.0078-.6274-.3445-1.1688-.6184-1.6871-.9307-1.643-.99-2.0787-2.0031-1.677-3.8734.0715-.3331.1424-.6755.2806-.9836,1.3486-3.0078,3.4504-5.3508,6.3248-6.9608.5775-.3235,1.2808-.5279,1.9414-.5758,1.4163-.1026,2.3746.797,2.5314,2.2132.1703,1.5389-.3506,2.9772-1.5897,4.2397-.2758-.2403-.5737-.4694-.836-.7337-.8844-.8916-1.8956-.9863-2.9764-.4523-.8232.4067-1.5537.9454-2.0257,1.7474,1.0152,2.0811,3.424,3.1008,5.4316,2.2051,1.1382-.5078,2.1931-1.2107,3.26-1.8672.9656-.5941,1.9171-1.2048,3.1057-1.7072Z"/>
    <path class="cls-1" d="M279.0587,94.0119c-.6331-.6495-1.3278-.6516-1.9919-.6756-2.6224-.095-5.246-.1594-7.8686-.2504-.612-.0212-1.2586.1655-1.8955-.2858.051-.2443.0518-.5406.1727-.7749.4709-.9125.9883-1.8009,1.4728-2.7066.6712-1.2544,1.7335-2.0144,3.1138-2.1505,1.7549-.1729,3.5293-.2871,5.289-.2307,1.7616.0565,3.5194.3259,5.2705.5631.5526.0748,1.1108.2845,1.609.543.742.385.93.9417.6672,1.7231-.1081.3215-.2731.6284-.4448.923-1.3874,2.381-3.0084,4.5864-5.0727,6.4251-.6294.5606-1.3452,1.134-2.1243,1.397-2.8632.9663-5.7681,1.8092-8.6631,2.6796-.171.0514-.3922-.0636-.8008-.1412,1.1924-1.2203,2.5794-1.766,3.8228-2.5129,1.2228-.7344,2.4844-1.4042,3.7314-2.0982,1.273-.7085,2.6305-1.2948,3.7125-2.4274Z"/>
    <path class="cls-1" d="M190.6422,224.8288c-.6721-.5324-1.3488-.588-2.0195-.6116-2.62-.0921-5.2406-.1646-7.8609-.2477-.6162-.0195-1.2321-.0516-1.9995-.0844.1572-.523.2169-.9083.3838-1.2396.4103-.8141.8844-1.5958,1.3063-2.4044.6584-1.2617,1.7103-2.0241,3.0883-2.1775,1.637-.1823,3.2958-.3131,4.9387-.2614,1.8745.0589,3.7466.3069,5.6096.5507.6021.0788,1.2142.33,1.7465.6341.7478.4271.8641.9205.5687,1.7428-.0959.267-.2128.532-.3584.7749-1.4724,2.4568-3.1387,4.7654-5.3044,6.6656-.508.4457-1.0868.8588-1.703,1.125-2.8884,1.2475-5.93,2.0214-8.974,2.7767-.145.036-.3226-.0596-.6515-.129.2897-.2994.4646-.5787.7168-.7251,2.3171-1.3457,4.6494-2.6654,6.9732-3.9995.8896-.5108,1.7805-1.0212,2.647-1.5695.3138-.1985.5579-.5072.8921-.82Z"/>
    <path class="cls-1" d="M217.8121,191.0281c-.3637,1.9089-1.1187,3.0125-2.8708,3.6847-11.2383,4.3121-22.4302,8.7454-33.6394,13.1336-.414.1621-.8491.2706-1.4133.4477,0-.4474-.076-.7824.0118-1.0668q.9081-2.9423,3.7956-4.0146c10.3773-3.8519,20.7542-7.7047,31.1369-11.5418.8822-.3261,1.7615-.7695,2.9792-.6428Z"/>
    <path class="cls-1" d="M182.9193,307.6057c-.2353,2.057-.8676,3.3026-2.6246,3.9617-6.6238,2.4847-13.2255,5.0293-19.8154,7.6027-4.6237,1.8056-9.2147,3.6946-13.8208,5.5452-.5127.2061-1.0051.5104-1.7727.4076.227-1.3677.6053-2.6029,1.2899-3.6971.2339-.3738.8289-.5677,1.2969-.7421,5.0787-1.8928,10.166-3.7627,15.249-5.6442,5.8323-2.1588,11.6619-4.3247,17.4943-6.4832.7937-.2937,1.5966-.5623,2.7036-.9506Z"/>
    <path class="cls-1" d="M122.3842,63.5095c.5189-1.4337.8746-2.504,1.2959-3.5478.2591-.6417.9095-.8215,1.4978-1.0416,2.5621-.9586,5.1219-1.9235,7.6879-2.8718,8.233-3.0428,16.4669-6.0832,24.7048-9.1128.8899-.3273,1.7574-.7696,2.7374-.8062.221,1.5542-.372,2.7673-1.7091,3.351-1.3571.5924-2.7556,1.0895-4.1347,1.6318-9.8647,3.8793-19.7289,7.7597-29.5938,11.6386-.6716.2641-1.324.6026-2.4863.7588Z"/>
    <path class="cls-1" d="M158.7004,140.6067c-.4153,1.9469-.9953,3.2261-2.7678,3.8869-6.9432,2.5885-13.8533,5.2667-20.7564,7.9613-4.2478,1.6581-8.4599,3.4078-12.6898,5.1118-.515.2075-1.0415.3865-1.7303.6405,0-.4926-.0255-.8074.0086-1.1155.0245-.2223.1183-.4396.1982-.6528.9531-2.5441.4406-2.1618,2.9576-3.1037,9.1828-3.4363,18.3831-6.8257,27.5775-10.231,1.8174-.6731,3.635-1.3456,5.4585-2.0019.4695-.169.9615-.2757,1.7439-.4955Z"/>
    <path class="cls-1" d="M227.8305,207.8332c.7598.4492.9248,1.0754,1.0497,1.6726.3375,1.6141.6165,3.2403.9217,4.8612.1576.8371.2384,1.7005.5032,2.5027.339,1.0268,1.1756,1.5019,2.2581,1.4728,1.047-.0281,1.4839-.573,1.1625-1.5519-.2121-.6463-.5758-1.2417-.8066-1.8832-.4612-1.2824-.9752-2.558-1.2855-3.8791-.3136-1.3351.196-2.5276,1.1511-3.7449.2739.4519.5325.7453.6454,1.0869.6244,1.8893,1.1216,3.8256,1.8368,5.6786.9575,2.4809.3883,4.7137-.876,6.849-1.3646,2.3046-3.2367,1.7158-4.5577.4744-.4845-.4554-.817-1.0725-1.3037-1.7306-.249.4249-.4278.822-.6882,1.1554-.5202.6661-.9923,1.4194-1.6497,1.919-1.6344,1.2421-3.5293.8417-4.4849-.9648-.4405-.8329-.6547-1.8141-.8205-2.7547-.1368-.7759-.1125-1.5958-.0502-2.3876.1036-1.3154-.0464-2.5016-1.2186-3.2434.185-2.244.9155-3.2827,2.6018-3.7744.5573.2569.6278.8034.638,1.2973.0188.9068-.0555,1.816-.1042,2.7235-.0458.8509-.1262,1.7003-.1554,2.5517-.0116.3371.0346.688.122,1.0145.2558.9558.577,1.9434,1.7114,2.1208,1.0696.1673,1.8224-.5039,2.4511-1.2874.8547-1.065.956-2.2827.6786-3.5648-.2168-1.0023-.4231-2.0079-.677-3.001-.3408-1.3331.0768-2.4451.9465-3.6127Z"/>
    <path class="cls-1" d="M102.4889,239.7141c.3318.6735.5686,1.0419.7022,1.4445.6096,1.8371,1.124,3.7083,1.7973,5.521.9169,2.4686.4594,4.7253-.9018,6.8448-1.2979,2.0209-3.472,2.028-4.9007.0682-.2946-.4042-.5153-.8622-.8476-1.4274-.2984.5-.494.9045-.7596,1.2561-.4784.6331-.9219,1.3245-1.5164,1.8317-1.601,1.3659-3.5941.9868-4.6492-.8253-.5571-.9569-.7965-2.0106-.8012-3.1149-.0059-1.3662-.0014-2.7324-.0014-3.8784-.1724-.3189-.2056-.4395-.283-.5145-1.1187-1.0849-1.2057-1.4852-.5959-2.8139.4383-.955.8908-1.3746,2.1876-1.9601.1841.288.5215.5827.5507.9052.0862.9552.0779,1.9221.0559,2.8832-.0248,1.0796-.1751,2.1606-.1337,3.2357.0232.6033.2392,1.2391.517,1.7845.554,1.0877,1.5325,1.3135,2.5937.6993,1.3279-.7686,2.1478-2.4922,1.8716-4.1036-.2118-1.2357-.5515-2.4491-.7737-3.6833-.2608-1.4489.0155-2.1884,1.1281-3.3513.6281.2604.7078.8881.8207,1.411.3844,1.7803.6888,3.5778,1.0304,5.3675.1384.7251.2102,1.4774.4596,2.1637.4421,1.2166,1.499,1.7062,2.753,1.3975.6711-.1652.9783-.6133.7622-1.2724-.1943-.5924-.5316-1.1366-.7484-1.7233-.4926-1.3329-1.0308-2.6572-1.3993-4.0256-.3814-1.4162.2641-2.6328,1.082-4.1201Z"/>
    <path class="cls-1" d="M42.2512,64.2485c-.4945.1632-.7713.226-1.0227.3434-.5842.2728-1.0948.12-1.6205-.1788-2.5045-1.4236-2.8023-2.4737-1.384-4.9699.1128-.1985.2157-.4039.3437-.5921.7139-1.0496,1.2888-1.2403,2.4759-.7923,1.446.5456,2.5018,1.5572,3.3261,2.8379,1.1579,1.7991,1.8027,3.8081,2.3938,5.8389.0779.2677.1258.5441.2733,1.1937.2332-.6241.3605-.9019.4418-1.1926.5535-1.9776,1.0612-3.9689,1.6601-5.9325.2811-.9217.6608-1.8311,1.1287-2.6722.3523-.6334.8549-1.2185,1.4006-1.7005.7699-.68,1.8635-.69,2.7123-.1705,2.2295,1.3647,2.5518,3.8.7575,5.8108-.7239-.0047-1.028-.639-1.4924-1.0283-1.1273-.945-1.9348-.8361-2.5529.5252-.4918,1.0831-.8492,2.2414-1.1407,3.398-.5016,1.9908-.8777,4.0129-1.3631,6.0081-.2148.8828-.5278,1.7484-.8719,2.5908-.231.5654-.4781,1.172-1.2517,1.4738-.1349-.2829-.3352-.5494-.391-.8434-.5248-2.7656-1.4545-5.3961-2.6429-7.9369-.3074-.6573-.7342-1.2587-1.1801-2.0106Z"/>
    <path class="cls-1" d="M51.2416,271.747c-1.9811,1.0377-3.1102-.0352-4.2369-1.1527-.6466-.6413-.8123-1.3696-.4239-2.1816.3434-.7179.6933-1.4443,1.1406-2.0983.6846-1.0009,1.1534-1.1042,2.3527-.6989,1.4226.4809,2.4152,1.4887,3.2206,2.6976,1.1856,1.7795,1.8434,3.7874,2.4451,5.8161.0945.3187.1955.6355.3987,1.2944.2519-.7474.4248-1.1843.5465-1.6351.4908-1.8176.8874-3.6654,1.4745-5.4509.3877-1.179.9127-2.3567,1.6016-3.3838,1.4696-2.1913,3.4823-2.0883,4.9138.1408,1.0337,1.6095.8128,3.2425-.7239,4.6532-.4821-.444-.9573-.9167-1.4694-1.3454-.9173-.7679-1.6784-.6799-2.2288.3934-.4639.9046-.8126,1.8915-1.0584,2.8802-.6054,2.4354-1.0837,4.9025-1.6944,7.3365-.2333.9295-.6564,1.8181-1.0591,2.695-.152.331-.4911.5761-.8604.9898-.2238-.4126-.4576-.6693-.504-.9562-.4417-2.7302-1.416-5.2863-2.5366-7.7901-.3189-.7126-.7925-1.356-1.2982-2.204Z"/>
    <path class="cls-1" d="M253.873,53.5556c-.914-3.6295-1.8066-7.0469-3.6054-10.1279-.1639-.2806-.4517-.4889-.7309-.7822-.3428.1176-.6555.2254-.9685.3321-.5205.1774-.9932.0801-1.4729-.1824-2.498-1.367-2.8283-2.5624-1.3491-4.9706,1.1695-1.9039,1.8369-2.0576,3.7265-.9106,1.1033.6697,1.9305,1.5809,2.563,2.6948.9645,1.6986,1.6438,3.5076,2.1328,5.3925.1279.4931.2375.9909.4353,1.821.4296-1.7001.7535-3.0998,1.1405-4.4818.4147-1.4807.7991-2.9805,1.3678-4.4036.3945-.9871.9572-1.9661,1.6599-2.7578,1.2219-1.3769,2.561-1.2813,3.8171.0782,1.5428,1.6699,1.5635,3.3556-.0404,5.2811-.8137-.6302-1.6403-1.2703-2.3647-1.8312-.9038.0479-1.299.5322-1.578,1.1119-.2707.5627-.5403,1.1416-.6917,1.7432-.4865,1.9344-.8977,3.8877-1.3778,5.8239-.3426,1.3817-.7129,2.759-1.1418,4.1158-.2342.7408-.5494,1.4831-1.5216,2.0536Z"/>
    <path class="cls-1" d="M177.8835,130.7877c1.0252-2.5255,2.107-4.7549,3.2235-6.7911.7588-.3121,1.2043-.0085,1.6235.267,2.2171,1.457,4.5877,2.7136,6.4541,4.7325-.7477,2.564-2.0832,4.7037-3.5309,6.8721-1.5697-.6542-2.6814-1.7343-3.9607-2.5431-1.2402-.7841-2.4447-1.6248-3.8095-2.5373Z"/>
    <path class="cls-1" d="M153.1903,107.4539c-2.4247-1.703-4.8671-3.4185-7.27-5.1062.3485-1.6312,2.2829-5.7429,3.331-7.0824.3209.1042.7209.1568,1.0359.3489,2.2773,1.3885,4.5621,2.7717,6.4421,4.5924-.0418,1.8449-1.7751,5.3898-3.5389,7.2473Z"/>
    <path class="cls-1" d="M231.5001,243.7796c-2.3932-1.6751-4.804-3.3625-7.1779-5.0241.1733-1.5136,2.1146-5.7116,3.2532-7.1058,1.7096.467,6.104,3.4109,7.5496,5.0576-.1212,1.7934-1.9828,5.4679-3.6249,7.0723Z"/>
    <path class="cls-1" d="M292.4079,151.7031c1.0075-2.4989,2.0775-4.7375,3.3178-6.9923.481.144.8953.1752,1.1998.3744,1.8534,1.2126,3.7137,2.4194,5.5076,3.7168,1.1903.8609,1.2399,1.2286.6691,2.6186-.7968,1.9403-1.8441,3.7402-3.1074,5.5951-2.5806-1.807-5.022-3.5166-7.5869-5.3126Z"/>
    <path class="cls-1" d="M199.6077,99.9209c.5198.2062.8661.2791,1.1385.4621,1.8869,1.2675,3.7562,2.5612,5.6362,3.8392.7559.5139.9795,1.1878.741,2.068-.3602,1.33-2.3362,4.763-3.4789,5.9153-1.3054-.731-2.4288-1.7734-3.6874-2.6143-1.2188-.8143-2.4235-1.6499-3.7281-2.5402,1.0058-2.4749,2.0599-4.7729,3.3788-7.1301Z"/>
    <path class="cls-1" d="M248.5209,128.2227c-2.3246-1.6119-4.5679-3.1645-6.8051-4.726-.1325-.0925-.2147-.2572-.3084-.3736.1811-1.4547,2.0462-5.5504,3.1819-6.962.7578-.0382,1.3541.4421,1.9584.8348,1.9925,1.2946,4.0914,2.4557,5.6749,4.1809-.3462,2.1316-2.1147,5.4971-3.7018,7.0459Z"/>
    <path class="cls-1" d="M46.1503,219.6867c2.8077,1.5927,5.2868,3.1633,7.5922,5.2444-.2975,2.7695-2.0643,4.8166-3.3918,7.19-1.546-.6655-2.6142-1.7857-3.8609-2.6278-1.2569-.849-2.595-1.5972-3.8391-2.6868,1.1428-2.3702,2.0756-4.728,3.4995-7.1198Z"/>
    <path class="cls-1" d="M123.3584,128.216c-.0309-.4619-.1098-.7361-.0567-.9817,1.0277-4.7533-.2594-8.9003-3.3126-12.5654-.8358-1.0033-1.7779-1.9182-2.6748-2.8703-.384-.4077-.7771-.8069-1.1176-1.1597.4425-1.5389.8099-2.1882,1.7507-3.1599,4.0011,1.5786,7.557,7.8926,7.6643,13.5997.0436,2.3196-.4694,4.5176-1.4619,6.6027-.0943.1981-.4145.2887-.7914.5346Z"/>
    <path class="cls-1" d="M285.4666,210.8549c.056-.5562.0519-.9482.1395-1.3186.8066-3.4101.102-6.5698-1.5926-9.5536-1.1661-2.0533-2.737-3.7866-4.4295-5.4157-.4045-.3893-.7951-.7932-1.253-1.2514.2682-.5821.4794-1.1011.7419-1.5927.2641-.4948.5793-.9623.8091-1.3384.8297-.2385,1.2253.2466,1.6565.5926,3.559,2.8554,5.5277,6.5848,6.1657,11.0836.3802,2.681-.0315,5.2256-1.018,7.708-.1813.4562-.318.9806-1.2194,1.0863Z"/>
    <path class="cls-1" d="M29.8435,131.957c-.1931,2.0231-.6993,3.4012-2.4201,4.1109-2.424.9996-4.8312,2.0422-7.2227,3.1174-2.027.9113-4.0203,1.8973-6.031,2.845-.5049.238-1.0193.4559-1.6557.7393-.2425-1.1636.2581-2.0165.6132-2.8567.2069-.4897.6322-.9333,1.0595-1.2708.4389-.3466.9876-.5667,1.5092-.7942,3.9181-1.7092,7.8378-3.4152,11.7667-5.0993.6689-.2867,1.3846-.4643,2.381-.7916Z"/>
    <path class="cls-1" d="M26.3582,253.5839c.3068-1.3984.6104-2.5385,1.245-3.5465.2259-.3589.6539-.6365,1.0479-.8367,4.4314-2.2522,8.996-4.2037,13.6442-5.9606.4651-.1758.9673-.2536,1.4628-.3795.5457.8307-.0274,1.4028-.2314,2.0035-.2424.7137-.6197,1.3388-1.3777,1.6561-.9474.3967-1.8816.8255-2.8164,1.2516-3.8931,1.7746-7.7835,3.5552-11.6777,5.3274-.3392.1544-.6992.2632-1.2966.4848Z"/>
    <path class="cls-1" d="M27.6388,247.7462c.0042-1.9018.6919-3.2042,2.1178-3.9702,4.3306-2.3265,8.8683-4.1867,13.4566-5.9284.5117-.1942,1.0658-.2766,1.6338-.4193.0548,2.1801-.5978,3.275-2.3304,3.9998-2.473,1.0346-4.9709,2.0114-7.4275,3.0832-1.9853.8661-3.9226,1.842-5.8873,2.756-.4927.2292-.9428.6496-1.563.4788Z"/>
    <path class="cls-1" d="M13.1164,137.3644c.3707-1.1299.6021-1.8873.8684-2.6322.2607-.7291.7652-1.2304,1.4586-1.5983,4.6961-2.4917,9.5801-4.5484,14.5781-6.3437.204-.0733.4338-.0746.742-.124.246,1.0299-.339,1.7837-.6487,2.5945-.264.6913-.8429,1.0599-1.4901,1.328-1.5807.6547-3.1857,1.2545-4.745,1.9562-3.2229,1.4504-6.4217,2.9544-9.6331,4.4305-.2418.1111-.5049.1759-1.1302.3891Z"/>
    <path class="cls-1" d="M128.6171,182.4615c.1946.4541.3294.6119.3109.7492-.2363,1.7625-.7287,3.4472-1.6026,5.0066-.1107.1975-.2452.3847-.3891.56-1.3788,1.6783-3.5301,1.4752-4.3866-.532-.4339-1.0168-.6029-2.1952-.6637-3.3129-.141-2.5905.4068-5.1103,1.2749-7.5289.7285-2.03,1.6626-3.9868,2.5234-5.9683.1056-.2432.3205-.4389.5809-.7841.3144.5764.0667.9795-.0438,1.3602-.5392,1.857-1.1326,3.6987-1.6448,5.5629-.4537,1.6512-.7128,3.3407-.6105,5.0621.0301.5062.0894,1.0289.2492,1.5059.5186,1.5476,1.7652,1.8183,2.847.6238.34-.3755.5868-.8358.8723-1.26.1848-.2745.3625-.5539.6825-1.0443Z"/>
    <path class="cls-1" d="M20.7669,85.5183c-.1421.5338-.282,1.0683-.4268,1.6014-.5676,2.0901-1.2435,4.1585-1.6674,6.2773-.2759,1.3793-.191,2.8315-.2549,4.2517-.0101.2249.0211.4599.0789.6781.1789.6754.3995,1.3383,1.216,1.4859.8115.1468,1.4571-.142,1.9286-.813.2623-.3732.4996-.7643.7701-1.1313.1535-.2084.3512-.3843.6056-.657.0974.3122.2031.4726.1839.6164-.2206,1.6521-.6597,3.2394-1.4772,4.7046-.1384.2481-.2942.4911-.4726.7117-1.3034,1.6131-3.4237,1.4197-4.3015-.4707-.374-.8056-.6036-1.7503-.6161-2.6358-.0216-1.5297.0746-3.0781.3047-4.5908.5293-3.4801,1.9618-6.6584,3.4989-9.7896.0746-.152.1695-.2939.255-.4405.1249.0672.2497.1345.3746.2017Z"/>
    <path class="cls-1" d="M57.2524,166.1794c-.0662.2349-.126.4718-.1996.7044-.4425,1.3986-.8999,2.7947-.9033,4.2848-.0064,2.7802,2.09,4.5496,4.8401,4.0951,3.1259-.5166,5.8571-1.9259,8.4184-3.7186.1587-.1111.301-.2495.4352-.3902.0624-.0654.0869-.1668.1707-.3377-.2232-.1197-.4245-.2752-.6516-.3399-.5629-.1604-1.1413-.266-1.7067-.4184-.6276-.1692-1.2763-.302-1.8651-.5645-1.1635-.5187-1.5791-1.5372-1.2345-2.7393.5169-1.8029,1.4357-3.339,2.9268-4.5065.1282-.1004.2476-.2125.3798-.307,1.3946-.997,2.089-.8744,3.0742.5271.3307.4705.5944,1.0093,1.2258,1.3059.5567-.8634,1.0698-1.7267,1.6513-2.5412.5468-.766,1.1038-1.542,1.7644-2.2061,2.0158-2.0266,4.9487-1.5818,6.3566.9098.3072.5436.3805,1.1135.2129,1.6981-.3319,1.1577-.9103,2.1534-1.9503,2.8344-2.3518,1.5399-4.8746,2.2998-7.6989,1.7267-.1257-.0255-.2554-.0312-.43-.0516-.189.2407-.3816.4859-.7088.9025,0-.3432-.0307-.5099.0061-.6599.0901-.3672-.0731-.5989-.3127-.8594-.4824-.5245-.928-1.0847-1.3662-1.6477-.4189-.5382-.5922-.6261-1.1362-.3183-.9963.5637-1.9271,1.2224-2.6618,2.1177-.1429.1741-.2632.3746-.3566.58-.2278.5011-.1814.729.3198.9379.6892.2873,1.411.4984,2.1237.7267.6512.2087,1.3222.362,1.9609.6023.9841.3703,1.2926.9218,1.2139,1.9688-.0849,1.1297-.7405,1.9242-1.5416,2.6231-1.3111,1.1439-2.7878,2.0424-4.3663,2.7557-1.5709.7099-3.1421,1.4306-4.9067,1.572-2.5792.2068-4.5706-1.3299-5.0115-3.8862-.2096-1.215-.1267-2.4177.2007-3.5824.3073-1.0931.7497-2.1488,1.1472-3.2156.0858-.2303.2337-.4375.353-.6553.0756.0243.1513.0486.2269.0729ZM74.7951,164.4573c2.1546.0022,4.0746-.7174,5.8555-1.8689.1873-.1211.4054-.2717.4853-.4609.0852-.2019.1245-.5477.0096-.6901-1.1079-1.3724-3.0462-2.3643-4.9099-1.2742-1.3826.8086-2.2949,2.0853-3.1047,3.4267-.241.3992-.0885.6619.4062.7564.4114.0786.8381.077,1.2581.1109Z"/>
    <path class="cls-1" d="M41.36,169.4393c-.3646.3905-.5773.6276-.7999.855-.7614.7782-1.5932,1.4304-2.6878,1.7009-1.3332.3294-2.4134-.0589-3.1656-1.1617-.4522-.6629-.7464-1.4377-1.077-2.1777-.1437-.3215-.2003-.6819-.3277-1.1359-.2001.1868-.3607.3125-.4921.4635-.7091.8144-1.623,1.3101-2.6313,1.6161-1.1277.3422-1.791-.1724-1.7894-1.3423.0016-1.2031.5151-2.2137,1.2867-3.0907.5373-.6107,1.1234-1.182,1.7203-1.7357.4223-.3917.6284-.8057.4535-1.3834-.2497-.8245.1686-1.4883.5938-2.3787.3552.8351.6373,1.4983.9503,2.2342.522-.3542.9651-.6548,1.4082-.9555-.0032.7526-.3867,1.2574-.8454,1.6928-.3469.3293-.4632.6525-.3334,1.1216.3563,1.2873.6094,2.6068,1.0268,3.8728.8675,2.6309,2.9738,3.1013,5.1361,1.483.4677-.35.8719-.7841,1.3131-1.1706.2871-.2515.5883-.487,1.0043-.8293.0777.396.1378.6321.1686.8719.1448,1.1272.7406,1.6445,1.8399,1.4995.8546-.1127,1.7306-.2012,2.573-.7296-.2392-.2265-.4118-.4062-.601-.5663-.8356-.707-1.4799-1.55-1.906-2.5646-1.0163-2.4203.295-5.0354,2.8447-5.6518,1.8864-.4561,4.0168.0634,5.6168,1.394-.235.2903-.5392.1632-.7935.1186-1.3675-.2402-2.7371-.2008-4.0863.0591-.7899.1521-1.5727.4174-2.31.7423-.6181.2724-.724.5592-.4611,1.1922.8053,1.9393,2.1575,3.3249,4.2599,3.8036.4497.1024.9904.0347,1.4348-.1155.9852-.3329,1.9346-.7708,2.9009-1.1603.8945-.3606,1.7919-.7139,2.7376-1.09-.0188.9814-.5335,1.8838-1.1945,2.179-2.6776,1.1955-5.3508,2.4014-8.045,3.5585-.8035.3451-1.6598.5858-2.5119.7917-.4642.1122-.9764.1076-1.4559.0549-.6983-.0767-1.202-.4656-1.4276-1.1631-.0773-.2389-.1706-.4726-.3271-.9023ZM32.4081,163.808c-1.3546,1.11-2.4493,2.0753-3.2066,3.3372.1209.1414.1534.2181.2043.2334.9521.286,2.7217-.2733,3.2566-1.0427.103-.1481.1979-.3642.1713-.5287-.096-.5939-.2455-1.1793-.4256-1.9991Z"/>
    <path class="cls-1" d="M52.4033,151.8479c0,1.1818-.0329,2.2852.0161,3.385.0197.4418.1711.8965.3498,1.3073.19.4371.5757.7438,1.0681.7424.484-.0013.7577-.39.8975-.7939.2552-.7372.438-1.4992.6618-2.2476.3267-1.0921.6368-2.1904,1.0074-3.2676.1565-.4548.4217-.8808.6886-1.2862.1947-.2958.4593-.5673.9381-.3989.2648.6129.0881,1.2516.0192,1.8864-.1194,1.1001-.264,2.1983-.3468,3.3011-.031.4141.0275.8537.139,1.2557.2378.858.8374,1.273,1.7621,1.2503.0123-.2798.0506-.5664.0335-.8497-.2127-3.5137-.421-7.0278-.6602-10.5398-.0682-1.001-.2326-1.9954-.3523-2.9929-.0816-.6803.3833-1.1254.7491-1.8612.6518,1.5281,1.2961,2.848,1.6371,4.4117-.3095-.0345-.5379-.0599-.9025-.1005.3084,3.9261.5544,7.8313.9457,11.9153,1.1779-.7457,1.7918-1.6419,1.7548-2.8132-.04-1.2621-.1477-2.5515-.4654-3.7664-.2676-1.0231-.1283-1.9003.2648-2.9349.1928.1951.403.3131.4616.4834.2642.767.5364,1.5377.7103,2.328.2588,1.1766.3783,2.3857.6725,3.5518.1715.6796.5031,1.3434.8801,1.9401.4598.7278,1.2143.9548,2.0567.8178.8447-.1374,1.1575-.6738.8743-1.4812-.0859-.2449-.1974-.4842-.3241-.711-.7918-1.4177-1.1898-2.9566-1.4191-4.549-.0279-.1934-.0153-.4083-.0977-.5756-.3804-.7722-.0836-1.4422.3232-2.2723.737.8234,1.343,1.618,1.7654,2.6041-.1825.1296-.455.2219-.5022.381-.0667.2251-.0022.5097.0677.751.2811.9706.602,1.9298.8777,2.9019.3467,1.2221.3897,2.4348-.1449,3.6334-.7454,1.6713-2.5598,2.08-3.9047.817-.3925-.3686-.6652-.873-.957-1.3376-.169-.2691-.2669-.5829-.3936-.8693-.1037.0266-.198.0246-.2135.0585-.5033,1.1026-1.0552,2.1627-2.0457,2.9346-.1765.1375-.2444.4437-.3118.6861-.1917.6904-.3403,1.393-.5413,2.0804-.0826.2826-.256.5387-.3881.8068-.0789-.0228-.1578-.0456-.2366-.0685,0-.2407-.0041-.4815.0008-.7221.012-.5865.028-1.173.0427-1.7595.0096-.3839-.1648-.5933-.5531-.6717-1.397-.2822-2.0511-1.2699-2.3755-2.5555-.352-1.3949-.2118-2.7828.0644-4.1685.0428-.2147.0784-.4309-.0476-.6966-.1439.4155-.3151.8238-.4265,1.2478-.323,1.2289-.5992,2.4706-.9412,3.694-.1386.4958-.3484.989-.6174,1.4272-.4375.7125-1.0794.8315-1.7361.321-.3233-.2513-.6085-.6008-.7994-.9644-.733-1.3965-.7398-4.0484-.0259-5.6657Z"/>
    <path class="cls-1" d="M84.7595,162.641c.7236.7967,1.3095,1.4416,1.9421,2.1381-.1874.1496-.3508.28-.5592.4464.2598.4351.5139.8853.7911,1.3208,1.0957,1.7214.5639,3.9168-.511,5.0946-1.7261,1.8914-3.8427,3.2456-6.2227,4.1195-2.4996.9178-4.3428-.2607-4.7236-2.8988-.2685-1.8603.1439-3.6009,1.1444-5.2209-.0195.1628-.0222.3298-.0614.4877-.1646.6642-.3483,1.3236-.5099,1.9885-.2776,1.1424.0676,2.1238.8131,2.9874.6016.6968,1.358,1.021,2.2714.7967.7568-.1858,1.5277-.3656,2.2401-.6703,1.7484-.7479,3.3375-1.7736,4.7809-3.0129.8527-.7321.864-.9194.3029-1.8998-.5505-.9619-1.0575-1.9509-1.6497-2.8861-.5536-.8742-.3894-1.7129-.0487-2.791Z"/>
    <path class="cls-1" d="M48.6249,149.3785c1.3665-.8524,2.7331-1.7048,4.1546-2.5914-.1785-.2438-.2883-.3921-.3965-.5415-.3856-.5326-.374-1.9065.0645-2.3683.1314-.1384.4017-.2072.6061-.2029.7237.0153,1.7715.8544,1.9958,1.5326.2085.6307-.1149,1.6379-.9895,1.4781-.4866-.0889-.7942.174-1.1039.479-1.1355,1.1184-2.5441,1.7849-3.9903,2.3849-.0788.0327-.183.0042-.2753.0042-.0218-.0582-.0436-.1165-.0655-.1747ZM52.8902,144.8212c-.1278.194-.2936.3578-.2624.4161.0728.1361.2281.2677.3751.3066.0663.0176.2929-.2248.2709-.2888-.0493-.1435-.2087-.2491-.3836-.4339ZM54.5177,145.7803c-.0962-.3836-.1365-.6598-.5549-.5734-.1062.4172.0602.56.5549.5734Z"/>
    <path class="cls-1" d="M72.1575,174.8087c.416.3117.7377.5782,1.0846.8062.4329.2844.5448.6105.2405,1.056-.1618.2369-.3002.4898-.4972.8145-.5051-.2496-.9796-.4842-1.4365-.7101-.9913.9081-1.1386.9124-2.0895.096-.4934-.4237-.4526-.6774.3522-1.8467.4844.2355.9875.48,1.5295.7435.2616-.3074.5056-.5941.8164-.9594Z"/>
    <path class="cls-1" d="M39.5784,156.7489c-.0193-.7577.4288-.9076.8553-1.0652,1.8339-.678,3.6698-1.3505,5.505-2.025.4282-.1574.852-.3287,1.2864-.4666.2008-.0638.4222-.0626.6954-.0991-.1275.6011-.589.6769-.9543.8182-1.5802.6115-3.1735,1.1893-4.7574,1.7915-.8457.3216-1.6819.6679-2.6305,1.0462Z"/>
    <path class="cls-1" d="M72.847,152.7816c.2382.0916.3642.1204.4697.1836,1.3877.8315,1.4216.9909.4443,2.4929-.4565-.3196-.9223-.6259-1.3606-.9676-.1008-.0786-.1848-.3078-.1433-.4173.1646-.4343.382-.8485.5899-1.2917Z"/>
    <path class="cls-1" d="M38.1649,161.1235c.2599.1243.4388.1884.5952.288,1.294.8234,1.3239,1.0296.2881,2.3858-.4094-.2751-.8555-.5229-1.2299-.8521-.1488-.1308-.2351-.4685-.1809-.6654.1071-.3891.332-.7458.5275-1.1563Z"/>
    <path class="cls-1" d="M79.1119,167.6466c-.0212,1.1018-.7436,2.0752-.1238,3.1269.2527-.0816.4755-.1536.7302-.2358-.1843.7828-.4461,1.1287-.8077,1.1126-.3792-.0168-.6355-.476-.6496-1.1639-.0185-.9013.2697-1.9111.851-2.8398Z"/>
    <path class="cls-1" d="M59.8751,171.1006c.4378-.1419.6438-.2087.8743-.2835.0106.0963.0377.1891.0257.2766-.0127.0928-.0482.1895-.0986.2688-.2008.3163-.4616.5749-.8677.4558-.4044-.1186-.5237-.4907-.4944-.8514.0513-.6304.172-1.2552.424-1.8748.0421.6187.0841,1.2374.1365,2.0085Z"/>
  </g>
</svg>