<?xml version="1.0" encoding="UTF-8"?>
<svg id="Alllahsvg" xmlns="http://www.w3.org/2000/svg" width="187.4345" height="192.4247" viewBox="0 0 187.4345 192.4247">
  <defs>
    <style>

      @import url('../CSS/SvgStyling.css');
      
      
    </style>
  </defs>
  <g class="content">

    <title>Allah</title>
    <g id="path">
      <path class="path" d="M40.8684,103.5869c1.9537,2.0874,1.9285,2.333-.1856,1.7975-2.175-.5507-2.1116-.4969-2.0246-1.7119.1313-1.8333.5593-1.8498,2.2102-.0857M36.5512,101.617c.979.4091,1.45,1.7355.8969,2.5252-.4594.6551-2.6916.2079-3.1399-.6295-.802-1.4978.5199-2.6151,2.2429-1.8958M34.0887,96.9915c-.4922.4232-.6943,1.34-.5825,2.6411.0543.6307-.022,1.3657-.2415,2.3372-.585,2.5844-.3294,3.8072.9557,4.5679.2378.1412.4101.2762.3832.3002-.0269.024-.8427.511-1.8133,1.082-6.1177,3.6006-7.7458,5.3232-7.9426,8.4021-.1388,2.1715.4014,2.5032,3.842,2.3575,3.0943-.1313,5.2655-.7429,7.3995-2.0846,1.653-1.039,3.6059-3.1248,4.1544-4.4375.4321-1.034.1342-2.0129-.3841-1.2614-1.3969,2.0258-4.5497,3.6921-8.7372,4.6176-2.0316.4489-4.7767.3661-4.7767-.1449,0-.1938,10.3351-7.5308,10.6082-7.5308.0704,0,.7059.1673,1.4119.3718,3.9842,1.1541,5.3144.4253,5.3455-2.9289.0199-2.126-.8791-3.6668-3.3259-5.6996-3.2107-2.6676-5.2369-3.5012-6.2967-2.5898M122.3331,91.9258c-.5315.8129-3.1535,9.4183-3.274,10.7446l-.0812.8965.9325.9466.9326.9471.5369,2.1471c1.1758,4.6987,3.3772,10.0792,7.1538,17.4841,1.0755,2.109,3.2935,6.457,4.9283,9.6625,5.0488,9.8982,6.1434,12.6752,6.3812,16.1921.1259,1.8593-.5324,2.6216-3.0976,3.5865-8.6229,3.2444-17.8805-1.3239-22.5403-11.1223-2.0354-4.2802-2.9688-7.8563-5.4619-20.9261-1.8771-9.839-3.6846-15.3771-7.6091-23.3121-2.339-4.7299-3.0098-5.4947-3.6076-4.1141-.5734,1.3239-2.204,8.1503-2.5213,10.5554-.1152.8704.0145,1.4514,1.1782,5.2914.4218,1.3917,1.1115,3.6693,1.5328,5.0611,3.7961,12.5439,5.4217,21.8122,4.7257,26.9437-1.4861,10.9575-16.6538,19.3508-26.5357,14.6839-6.4069-3.0258-9.1689-11.1736-7.82-23.0698.0907-.8013.5378-4.0797.993-7.2852,2.5127-17.6911,1.4877-23.3829-3.3105-18.3814-3.6142,3.7679-5.5841,9.6613-9.8094,29.3475-3.4912,16.2667-3.5537,16.5139-4.7912,18.9069-5.007,9.6825-14.7837,8.3536-18.97-2.579-2.0035-5.2313-2.6854-10.0162-2.7098-19.0121-.0207-7.679-.0717-7.9772-1.2308-7.2181-2.9774,1.95-3.407,17.7607-.7424,27.3098,3.8591,13.828,14.4643,21.1447,22.4214,15.4691,3.985-2.8424,5.6044-8.1963,9.5501-31.573,1.4226-8.4298,2.2404-11.189,4.4916-15.1531,2.704-4.7626,2.9269-3.2606,1.0548,7.1014-2.5168,13.929-2.5346,20.131-.0808,27.6829,3.4104,10.4961,12.3192,14.8669,23.2293,11.3968,10.3338-3.2875,17.0751-13.4147,18.1953-27.3342l.1102-1.3678.5075,2.1802c4.142,17.798,13.6067,26.9777,25.377,24.6124,10.0227-2.0142,15.7245-18.9392,10.9101-32.3854-.9549-2.6664-1.8547-4.575-7.2462-15.3676-4.9395-9.8875-6.9877-14.3663-6.7002-14.6533.0414-.0418.5788.1727,1.1936.4762,1.9451.9608,3.4236,1.0829,3.6208.299.1495-.5971-.382-1.475-2.5558-4.2197-2.385-3.0114-2.7657-3.5033-5.6355-7.2848-3.0644-4.0388-3.2177-4.1895-3.6254-3.5659M103.9911,72.0193c-.1375.1656-.157.7926-.0758,2.4308.1471,2.9708-.1255,3.6793-1.663,4.3211-1.1852.4949-1.8232-.2261-2.2371-2.5276-.7097-3.9501-1.4956-3.519-2.3138,1.2688-.3894,2.2775-.9098,2.9388-2.675,3.3981-2.0867.5433-2.9617-.9143-2.4762-4.1248.5063-3.3472-.5075-3.4581-1.7673-.1934-1.4533,3.767-1.1094,7.6248.7979,8.947,2.0453,1.4179,6.6335.1118,7.3705-2.0978.0381-.1147.3223.0033.7726.3205,2.0491,1.4435,5.208.4348,6.0999-1.9479,1.3137-3.5095-.2245-11.7314-1.8328-9.7947M138.8667,69.9376c-1.2321.7731-2.0205,3.3488-2.9618,9.6738-.0936.629-.1885,1.162-.2104,1.1839-.0219.022-.2672-.4927-.5448-1.1437-2.1489-5.045-5.138-8.183-7.2814-7.6451-.8762.2199-1.3141,2.7993-.6479,3.8155.5858.8932,3.1278,2.143,3.6705,1.8043.6948-.4336,2.5218,2.2014,3.4012,4.9054,1.5213,4.6776,2.156,4.1053,3.0641-2.7604.8518-6.4434,1.8647-8.0331,3.7907-5.9502.4059.4394.7378.8535.7378.9205,0,.2634.4602.1023.6371-.2231.2589-.4758.5742-2.2084.4764-2.6171-.3339-1.3926-3.0131-2.6664-4.1316-1.9637M151.1958,55.5771c-.653,1.3885-3.3267,8.2957-3.3267,8.5942,0,.2841.6877,1.3247,1.1368,1.7197.3078.2708.4064.7036.8397,3.681,1.7326,11.9016,2.9908,19.6904,6.6895,41.4098,4.5198,26.5425,6.8187,42.8887,7.3655,52.376.1338,2.3198.3082,4.7112.3878,5.3141.9205,6.9821,4.688-7.0359,4.3959-16.3569-.2842-9.0861-4.3264-35.4932-11.2051-73.2035l-1.1132-6.1038,2.3109,2.2916c2.4041,2.384,2.7214,2.6312,3.3752,2.6312,1.1828,0-1.0962-5.8777-6.8245-17.6008-3.1501-6.4467-3.2049-6.5109-4.0317-4.7526M55.2055,54.8102c1.0133,1.0527,1.527,3.5306,1.1281,5.4417l-.0717.342-.8033-.3114c-4.6188-1.7889-5.2266-2.5529-3.4452-4.3311,1.4674-1.4651,2.5188-1.8407,3.192-1.1413M54.3082,50.5959c-2.6282,1.3624-5.6653,5.6139-6.1053,8.547-.2971,1.9794,1.2785,3.6949,4.7966,5.2238l1.1264.4894-.5025.5972c-.6136.7292-.8774.9922-2.4716,2.4626-3.1374,2.8933-8.0686,6.3713-15.8298,11.1653-3.4211,2.1131-15.8596,10.4299-16.4135,10.9749-1.781,1.7508,3.3793-.4879,12.424-5.39,12.2329-6.6297,21.0112-13.4847,24.2621-18.9458.1665-.2795.2179-.2737,1.4898.1619,1.2598.4319,1.3298.4402,1.614.183.4424-.4005,1.4139-2.4026,1.5018-3.0958l.0766-.6058-1.3783-.5897-1.3779-.5897.2867-.8328c2.4062-6.9908.6442-11.9033-3.4991-9.7557M152.0119,37.8127c-11.875,3.7198-83.0567,36.7811-98.5074,45.7529-4.5807,2.6597-4.7104,2.8101-5.9893,6.9415-1.3622,4.4015-.9673,5.1295,3.7646,6.9411,3.806,1.4568,4.7506,1.3363,5.4366-.694.8729-2.584.4002-3.1389-3.144-3.6892-1.7798-.2766-3.0947-.7263-3.7617-1.287l-.4665-.3925.4308-.4547c3.6967-3.9045,41.9528-22.0901,100.7586-47.8972,3.1183-1.3686,2.8685-1.1114,3.7133-3.8196.6566-2.1049.4412-2.2399-2.2351-1.4013M89.4875,15.8485c-.9802.5681-3.0098,4.413-3.2397,6.1382l-.087.6542,1.977,1.9939c6.9749,7.0331,9.8661,15.3093,8.2753,23.686-.2113,1.1119-.1172,2.0034.2113,2.0034.07,0,.1549.1205.1885.2683.1802.7889,1.585-1.2249,2.2321-3.1997,3.1436-9.5922.4495-22.5088-6.1223-29.3505-1.8042-1.8787-2.8387-2.5392-3.4352-2.1938"/>
    </g>
    <rect id="bg" class="bg" x="16.7623" y="15.0151" width="153.9099" height="162.3945"/>
  </g>
</svg>