<?xml version="1.0" encoding="UTF-8"?>
<svg id="a" data-name="LaamiyahIbnAlwardi" xmlns="http://www.w3.org/2000/svg" width="1287.082" height="500" viewBox="0 0 1287.082 500">
  <defs>
    <style>
      

      @import url('../CSS/SvgStyling.css');

      
      
    </style>
  </defs>
  
  <a href="../Laamiyah-Ibn-Al-Wardi" target="_parent">
  <g class="word" >

    <rect class="wordrect"  width="1287.082" height="500"/>

    <path class="d" d="M277.223,185.336c-3.844-3.582-6.514-6.571-9.667-8.91-7.761-5.758-16.084-6.945-24.707-1.829-18.55,11.004-34.595,24.831-47.329,42.335-1.972,2.71-4.041,5.408-5.58,8.364-4.952,9.518-3.088,16.431,5.171,23.298,9.012,7.493,19.717,10.26,30.843,12.031,7.362,1.172,14.8,1.864,22.164,3.026,14.618,2.306,17.972,8.313,19.129,22.247.986,11.874-2.788,22.348-10.059,31.926-6.997,9.217-11.531,19.737-12.534,31.456-.905,10.577,5.195,17.436,15.716,16.932,5.074-.243,10.454-1.281,15.042-3.384,38.926-17.847,76.416-38.289,111.471-63.004,7.027-4.954,7.315-6.865,1.355-13.013-6.811-7.026-15.605-10.973-24.362-14.897-11.896-5.33-23.943-10.348-35.677-16.013-16.438-7.936-29.588-20.097-41.564-33.645-2.305-2.608-5.236-4.716-7.253-7.507-1.499-2.074-2.639-4.837-2.799-7.366-.393-6.217-.129-12.475-.129-19.927,7.574,4.832,14.573,9.164,21.387,13.771,1.184.801,1.995,2.686,2.273,4.199,1.133,6.18,5.397,9.716,10.057,13.259,10.434,7.934,22.333,12.915,34.234,18.045,12.854,5.542,25.967,10.751,38.094,17.641,13.089,7.437,18.363,20.053,17.947,35.055-.236,8.521-.348,17.194-5.77,24.261-3.435,4.476-7.502,8.782-12.103,11.997-28.993,20.26-59.166,38.595-90.844,54.402-7.675,3.83-15.177,8.011-22.901,11.734-5.477,2.64-11.277,3.621-17.427,2.265-7.842-1.729-13.614-7.673-14.699-15.761-1.646-12.264-.53-24.332,2.678-36.245.927-3.441,1.767-6.905,2.948-11.54-5.239,3.088-9.611,5.512-13.831,8.177-23.559,14.873-48.615,26.391-75.52,33.761-17.62,4.826-35.462,6.616-53.605,3.481-11.161-1.929-21.043-6.777-29.748-13.856-13.527-10.999-22.856-24.965-26.639-42.007-2.954-13.305-3.17-26.872-1.36-40.498,2.403-18.097,6.408-35.828,14.583-52.116,10.512-20.944,18.523-42.854,27.269-64.499,2.209-5.467,5.612-10.455,8.52-15.634.324-.576.999-.955,1.511-1.425.323.15.646.299.969.449-1.559,4.857-2.9,9.797-4.722,14.553-4.042,10.553-8.552,20.93-12.441,31.537-3.281,8.948-2.682,17.626,3.883,25.185,1.129,1.299,2.432,2.532,3.871,3.46,3.737,2.413,6.116,1.836,8.163-2.122,2.199-4.25,4.11-8.649,6.821-12.87,0,3.007.871,6.357-.157,8.957-3.642,9.206-7.851,18.195-12.055,27.167-.752,1.606-2.391,2.878-3.816,4.071-3.001,2.511-7.318,2.347-10.471-.886-3.533-3.623-6.591-7.71-10.426-12.273-2.709,6.8-5.381,13.285-7.881,19.835-3.551,9.302-2.987,19.088-3.375,28.795-.507,12.682,2.215,24.569,8.781,35.285,10.551,17.218,25.746,28.179,45.971,31.218,7.932,1.192,16.005,1.451,24.548,2.181-.26-8.046-2.599-14.489-5.104-20.92-2.696-6.922-5.504-13.821-7.751-20.892-2.031-6.389.151-12.454,3.789-17.583,3.704-5.222,7.177-10.41,8.835-16.65.126-.475.334-.933.545-1.379,1.243-2.634,4.006-5.64,3.458-7.818-1.441-5.727-3.972-11.317-8.893-15.226-1.753-1.392-3.534-2.796-5.467-3.906-4.858-2.792-7.08-6.73-6.214-12.4.296-1.939.047-3.961.047-6.166,4.506.056,7.867,1.761,10.165,5.01,4.078,5.766,7.865,11.738,12.151,18.192.367-3.76.632-7.108,1.034-10.44.506-4.197.863-8.438,1.755-12.558,1.35-6.235,4.361-9.237,8.33-9.001,3.788.226,8.801,5.732,9.31,10.496.244,2.285.042,4.618.042,6.646-4.613-2.301-8.877-4.428-14.357-7.161-.854,5.678-1.813,9.993-2.09,14.352-.467,7.345-.586,14.717-.638,22.079-.009,1.241.751,2.819,1.679,3.673,2.645,2.435,5.497,4.661,8.386,6.811,2.881,2.144,3.048,5.003,2.314,8.043-.728,3.017-2.559,4.87-5.849,5.483-5.113.952-10.183,2.182-15.212,3.52-1.753.466-3.429,1.448-4.967,2.457-5.392,3.537-6.418,6.668-4.131,12.642,2.346,6.127,5.217,12.085,7.122,18.341,1.939,6.369,3.144,12.982,4.325,19.551.425,2.363.559,3.376,3.541,3.032,32-3.689,60.715-16.268,88.06-32.439,8.854-5.236,17.25-11.246,25.83-16.94,1.008-.669,1.858-1.578,3.822-3.275-4.613-1.811-8.29-3.912-12.227-4.674-10.725-2.074-21.64-3.194-32.329-5.414-13.207-2.744-23.791-9.764-31.151-21.33-4.13-6.489-5.003-13.464-3.286-20.78,3.732-15.899,8.064-31.655,17.84-45.096,13.796-18.97,29.499-36.082,49.91-48.257,5.34-3.185,10.681-6.457,17.312-5.984,6.529.466,12.139,2.955,16.126,8.166,1.498,1.958,2.911,4.751,2.764,7.062-.53,8.333-1.74,16.624-2.771,25.603ZM136.862,276.87c-2.367,1.852-4.176,3.267-5.986,4.683.152.317.303.634.454.951,1.83-.368,3.66-.736,5.531-1.112v-4.523Z"/>
    <path class="d" d="M338.528,454.824c4.709-2.578,9.266-5.495,14.15-7.682,38.59-17.282,76.417-36.028,112.845-57.558,22.592-13.353,43.298-29.256,63.397-46.003,4.59-3.824,8.692-8.228,13.09-12.289,7.739-7.146,10.59-15.408,5.649-25.891-3.907.875-8.089,1.877-12.298,2.742-9.523,1.957-19.116,4.247-28.832,1.877-12.141-2.963-21.313-9.497-24.234-22.519-1.628-7.256.68-14.109,2.79-20.816,3.284-10.438,10.02-18.499,18.895-24.793,6.952-4.931,18.91-5.071,25.52.403,7.551,6.253,14.375,13.047,19.835,21.196,2.35,3.508,4.775,6.967,7.328,10.683,10.996-4.54,21.407-9.746,29.39-18.608,1.483-1.647,2.177-4.879,1.826-7.163-2.735-17.799-5.713-35.563-8.816-53.303-3.553-20.314-7.653-40.538-10.875-60.902-2.757-17.429-4.519-35.015-6.926-52.503-.623-4.527-2.337-8.904-2.944-13.432-.433-3.23-.523-6.803.42-9.856,1.881-6.092,4.577-11.933,6.937-17.878.37-.009.74-.018,1.11-.027,3.34,7.021,6.597,14.084,10.043,21.053,3.527,7.135,7.103,14.253,10.911,21.24,3.372,6.186,5.997,12.371,2.825,19.409-.5,1.109-1.687,2.835-2.352,2.746-1.266-.168-2.752-1.199-3.486-2.308-1.418-2.141-2.377-4.586-3.636-7.125-4.041,2.612-4.746,6.369-3.994,10.442,3.289,17.834,6.866,35.617,10.038,53.472,3.761,21.174,7.605,42.346,10.668,63.627,2.239,15.55-.454,30.868-6.083,45.427-3.83,9.908-11.238,17.65-20.116,23.048-7.054,4.289-9.123,9.774-10.484,17.364-3.86,21.53-11.463,41.685-28.298,56.704-9.83,8.769-20.681,16.39-31.02,24.593-19.95,15.83-41.386,29.297-64.07,40.859-11.036,5.625-23.056,7.421-34.903,10.117-20.661,4.7-41.231,9.796-61.841,14.719-.59.141-1.196.212-1.794.316-.222-.461-.443-.921-.665-1.382ZM531.878,280.424c-2.63-2.654-5.062-5.547-7.929-7.914-6.516-5.379-13.735-8.281-21.915-3.818-2.344,1.279-4.114,3.611-6.147,5.46,2.165,1.702,4.101,3.901,6.535,5.017,9.181,4.212,18.88,3.282,29.456,1.255Z"/>
    <path class="d" d="M833.199,320.104c-1.234,5.351-2.789,10.363-3.492,15.491-1.649,12.029,1.486,23.386,5.647,34.529,2.966,7.943,7.572,14.546,13.975,20.316,8.167,7.36,21.151,5.55,28.001-3.6,3.822-5.105,7.039-10.882,9.42-16.802,5.885-14.638,10.984-29.598,20.204-42.646,6.91-9.778,14.878-18.428,25.706-23.982,10.986-5.635,15.906-3.735,20.597,8.084,3.402,8.57,7.825,16.472,14.954,22.453,14.173,11.891,34.006,12.947,50.922,3.126,9.912-5.755,16.472-14.596,22.743-23.8,4.123-6.052,8.226-12.222,15.087-14.399,2.438,5.947,4.462,11.976,7.315,17.584,4.121,8.102,11.702,11.546,20.216,13.099,3.158.576,6.426.76,9.643.76,4.56,0,5.736-1.013,6.316-5.55.851-6.663.767-13.516,2.274-20.011,3.544-15.272,8.2-30.185,17.966-42.941,5.554-7.254,13.078-6.563,17.795-1.245,6.975,7.864,11.084,17.165,11.79,27.285,1.369,19.633-4.202,37.311-19.243,50.773-5.096,4.562-11.343,8.086-17.543,11.095-5.674,2.753-8.194,6.517-8.046,12.656.072,2.979-.561,5.974-.874,8.962-.473-.001-.946-.003-1.419-.004-.672-4.798-1.345-9.597-2.066-14.745-3.168,0-6.276-.311-9.303.05-22.152,2.639-32.308-7.989-39.367-23.595-1.072-2.37-2.172-4.727-3.422-7.443-4.573,3.275-8.275,6.999-10.951,11.68-4.649,8.132-9.716,15.878-16.79,22.238-14.446,12.989-38.74,15.266-54.033,4.649-8.655-6.008-14.156-14.527-18.256-24.049-.59-1.37-1.081-2.782-1.701-4.138-3.531-7.724-8.604-9.554-16.516-6-10.656,4.786-18.036,13.104-24.071,22.717-7.619,12.136-12.889,25.386-17.932,38.744-3.364,8.911-7.854,17.204-14.855,23.912-5.129,4.914-10.274,5.98-16.677,2.94-9.515-4.518-16.036-12.157-20.736-21.304-7.548-14.687-12.01-30.244-11.428-46.911.269-7.696,1.046-15.377,1.746-23.051.142-1.557,1.006-3.041,1.482-4.576.775-2.498,2.308-3.365,4.922-2.349ZM1140.433,307.524c-1.538-9.202-4.354-16.732-11.123-22.22-2.354-1.909-4.424-1.763-6.855.526-6.517,6.136-9.891,13.915-12.401,22.192-1.647,5.432-3.495,10.862-2.287,16.73.422,2.051,1.138,3.392,3.448,2.479,9.383-3.711,18.706-7.589,26.063-14.806,1.483-1.454,2.318-3.567,3.155-4.901Z"/>
    <path class="d" d="M829.441,237.575c5.154,6.06,7.792,12.806,8.269,20.007.807,12.187.358,24.274-3.788,36.102-3.975,11.341-11.921,17.65-23.013,20.781-1.789.505-3.632,1.334-5.413,1.249-4.984-.237-5.332,2.387-5.179,6.475.671,18.009-2.666,35.335-9.592,51.983-3.668,8.816-9.585,15.935-16.504,22.329-24.628,22.758-52.721,39.794-84.41,50.8-18.209,6.324-36.973,9.203-56.163,6.705-32.285-4.203-54.586-24.258-62.416-56.3-3.365-13.768-3.211-27.907-1.517-42,2.004-16.676,7.1-32.479,13.556-47.864,1.47-3.504,4.086-6.528,6.174-9.773.473.244.947.489,1.42.733-.976,3.278-1.714,6.651-2.966,9.82-7.174,18.148-9.764,36.994-8.622,56.376,1.52,25.776,13.661,44.841,36.883,56.326,8.631,4.269,18.121,5.906,27.772,6.47,19.794,1.156,38.456-3.608,56.867-10.234,24.835-8.939,47.381-21.848,67.633-38.666,6.399-5.314,12.07-11.526,17.894-17.504,5.053-5.187,5.453-11.8,4.79-18.512-1.69-17.091-9.297-32.099-17.367-46.774-3.7-6.729-5.039-12.923-2.194-20.14,1.211-3.072,1.384-6.54,2.212-9.782.234-.915,1.173-2.381,1.692-2.341,1.134.088,2.714.696,3.215,1.592,1.998,3.576,3.682,7.33,5.427,11.044,4.052,8.627,11.236,12.02,20.31,11.787,8.092-.208,15.666-2.575,22.507-6.931,4.502-2.866,4.923-4.027,2.764-8.826-2.487-5.529-6.023-10.706-4.463-17.25,1.405-5.894,2.814-11.786,4.222-17.679Z"/>
    <path class="d" d="M1113.354,458.606c3.815-3.546,7.686-7.034,11.436-10.648,15.19-14.636,30.404-29.247,45.486-43.993,10.077-9.853,20.245-19.64,29.84-29.951,16.449-17.677,29.692-37.305,35.587-61.237,2.186-8.873.874-17.588.068-26.348-.946-10.279-2.175-20.534-3.461-30.778-1.828-14.557-3.788-29.097-5.749-43.637-2.045-15.156-4.163-30.303-6.241-45.455-1.925-14.044-3.928-28.078-5.718-42.14-.802-6.301-1.054-12.67-1.753-18.986-.969-8.762-2.25-17.49-3.124-26.26-.26-2.607-.077-5.458.723-7.932,2.202-6.809,4.839-13.476,7.653-21.155,1.634,2.724,3.151,4.747,4.148,7.001,5.415,12.246,10.529,24.628,16.094,36.804,3.488,7.631,3.876,15.259,1.39,24.432-2.632-3.443-4.862-6.36-7.254-9.489-4.138,4.357-5.236,8.166-4.594,12.602,2.936,20.289,6.003,40.56,8.706,60.88,2.524,18.972,4.522,38.014,6.989,56.994,2.093,16.1,3.722,32.265,2.741,48.461-1.658,27.409-5.981,54.46-18.733,79.133-11.42,22.095-27.612,40.517-48.239,54.663-14.238,9.764-28.63,19.333-43.313,28.408-6.735,4.162-14.334,6.926-21.542,10.324-.381-.565-.761-1.129-1.142-1.694Z"/>
    <path class="d" d="M233.245,447.584c2.996-1.797,5.848-3.91,9.008-5.345,53.633-24.351,105.456-51.982,153.805-85.747,15.805-11.038,31.778-21.994,45.547-35.677,3.002-2.984,5.799-6.178,8.628-9.331,2.559-2.851,3.507-6.307,1.751-9.699-4.438-8.567-8.595-17.382-14.011-25.316-8.467-12.405-15.025-25.687-21.249-39.267-3.414-7.449-2.158-14.507-.534-21.819.779-3.506,1.522-7.02,2.445-11.287,5.439,7.399,13.205,12.829,12.997,23.127-.15,7.408,4.83,12.583,8.498,18.289,4.705,7.32,9.652,14.491,14.169,21.924,7.032,11.573,7.923,24.414,7.067,37.524-.76,11.646-3.766,22.528-11.192,31.823-7.67,9.6-16.357,18.207-26.316,25.396-16.943,12.232-33.851,24.534-51.182,36.202-11.955,8.048-24.549,15.156-36.946,22.536-12.376,7.367-26.394,10.045-40.109,13.429-18.563,4.58-37.218,8.786-55.838,13.132-1.989.464-4.009.797-6.014,1.191-.175-.362-.349-.723-.524-1.085Z"/>
    <path class="d" d="M1217.736,342.233c-2.554-.745-4.55-1.468-4.159-4.74,2.681-22.399-6.728-41.1-19.829-57.738-13.692-17.39-28.845-33.662-43.797-50.024-20.369-22.291-41.175-44.182-61.751-66.285-15.914-17.094-30.43-35.205-41.064-56.184-1.723-3.399-4.146-6.516-6.627-9.439-3.055-3.599-5.059-7.198-3.938-12.195,1.4-6.245,2.358-12.589,3.658-19.72,2.608,2.213,4.72,3.859,6.667,5.682,10.914,10.221,21.79,20.484,32.673,30.738.817.77,1.555,1.626,2.384,2.382,3.312,3.016,4.669,6.425,1.934,10.827-2.628-1.079-5.455-2.239-8.464-3.475-.823,1.105-1.616,2.169-2.781,3.732,5.53,6.437,10.912,13.08,16.697,19.351,10.069,10.915,20.393,21.594,30.601,32.382,21.782,23.02,43.807,45.817,65.235,69.162,11.356,12.372,21.97,25.48,29.104,40.964,6.631,14.391,9.899,29.41,8.942,45.3-.485,8.05-2.374,15.128-5.488,19.281Z"/>
    <path class="d" d="M652.273,42.292c1.632,2.338,3.132,3.865,3.91,5.699,6.827,16.086,13.765,32.133,20.132,48.403,2.182,5.575,3.113,11.743.324,18.38-4.22-3.822-6.359-9.481-13.215-11.183.553,6.752.694,13.028,1.641,19.18,2.701,17.552,5.738,35.052,8.625,52.576,2.101,12.755,4.286,25.498,6.228,38.278,2.279,14.997,4.189,30.051,6.525,45.039,2.997,19.23,4.239,38.589,5.101,58.006.793,17.852-1.629,34.982-9.996,50.984-.532,1.017-1.485,1.813-2.242,2.711-.338-.162-.676-.324-1.014-.486.333-4.786.875-9.569.954-14.359.142-8.581.211-17.173-.08-25.747-.24-7.086-.839-14.177-1.639-21.225-1.498-13.21-3.072-26.416-4.953-39.576-2.424-16.966-5.146-33.89-7.804-50.822-2.774-17.668-5.666-35.317-8.43-52.987-2.746-17.551-5.646-35.084-8.001-52.689-1.467-10.962-2.028-22.045-3.049-33.069-.171-1.85-.534-3.692-.942-5.508-.949-4.221-.804-8.258.863-12.371,2.449-6.043,4.519-12.24,7.064-19.235Z"/>
    <path class="d" d="M858.128,39.7c3.178,7.075,6.169,13.442,8.915,19.913,4.845,11.42,9.808,22.803,14.158,34.412,1.609,4.293,1.699,9.172,2.308,13.807.11.835-.467,2.389-1.017,2.538-.895.243-2.288-.104-3.01-.732-1.385-1.206-2.33-2.909-3.687-4.156-.747-.686-2.475-1.496-2.879-1.167-2.452,1.993-5.536,3.796-5.058,7.686.741,6.034,1.57,12.058,2.433,18.076,1.924,13.415,3.806,26.837,5.865,40.232,2.588,16.836,5.523,33.62,7.944,50.479,1.362,9.484,2.222,19.057,2.895,28.619,1.05,14.911,2.031,29.837,2.516,44.774.469,14.432-1.677,28.559-7.446,41.925-1.636,3.789-3.89,7.311-5.86,10.956l-1.5-.503c.515-3.524,1.211-7.033,1.509-10.576.76-9.036,2.095-18.111,1.822-27.128-.423-13.928-1.538-27.875-3.182-41.717-2.713-22.848-5.988-45.631-9.204-68.416-2.815-19.945-6.161-39.819-8.721-59.794-1.598-12.471-1.944-25.097-3.275-37.608-1.168-10.983-3.051-21.889-4.333-32.862-.329-2.817-.138-5.952.781-8.608,2.256-6.523,5.074-12.851,8.027-20.149Z"/>
    <path class="d" d="M385.553,130.238c17.715-11.515,35.431-23.03,53.146-34.544-.158-.453-.315-.906-.473-1.36-1.236-.173-2.477-.527-3.706-.49-8.945.267-17.894.492-26.828.977-6.06.329-10.74,3.676-14.847,7.832-1.372,1.388-2.416,3.1-3.611,4.665-.432-.334-.863-.668-1.295-1.002.584-2.37.888-4.856,1.807-7.088,2.412-5.854,5.157-11.57,7.65-17.392,3.283-7.664,9.419-11.746,17.34-12.125,11.539-.552,23.13-.358,34.685-.02,2.929.086,5.967,1.613,8.666,3.027,3.254,1.706,4.214,4.725,3.148,8.307-4.823,16.212-14.912,28.461-28.685,37.869-5.834,3.985-12.278,6.083-19.392,7.072-9.043,1.258-17.921,3.696-26.87,5.625-.245-.451-.491-.902-.736-1.353Z"/>
    <path class="d" d="M943.369,224.346c5.466,3.842,11.072,7.874,16.774,11.764,5.384,3.673,6.111,4.807,3.603,10.677-2.469,5.779-5.662,11.25-9.046,17.846-7.832-5.505-14.978-10.513-22.104-15.549-1.941-1.372-2.121-3.209-1.192-5.271,3.254-7.225,6.346-14.529,9.825-21.644,1.548-3.167.715-4.927-1.932-6.752-4.393-3.029-8.645-6.267-12.905-9.485-4.088-3.089-4.947-5.643-2.908-10.374,2.633-6.112,5.622-12.07,8.665-18.534,6.392,4.522,12.406,8.656,18.286,12.972,5.351,3.927,4.139,9.331,2.232,14.237-2.505,6.443-5.773,12.59-9.297,20.113Z"/>
    <path class="d" d="M430.935,187.975c-.255-10.399,3.746-18.971,12.744-24.328,21.119-12.573,42.364-24.952,63.866-36.856,14.092-7.802,28.72-14.636,43.076-21.887,3.298,5.898,1.99,10.332-3.083,12.64-35.607,16.2-69.664,35.221-102.298,56.751-4.242,2.798-7.416,7.23-11.02,10.967-.918.952-1.588,2.142-2.372,3.223-.304-.17-.609-.34-.913-.51Z"/>
    <path class="d" d="M334.014,227.281c.68-1.013,1.227-2.154,2.061-3.019,5.455-5.653,10.973-11.245,16.47-16.858.175-.178.352-.356.513-.546,6.635-7.88,6.899-10.582,1.846-19.42-1.295-2.265-2.758-4.44-3.949-6.756-2.22-4.318-5.606-7.21-10.131-8.859-.933-.34-1.826-.79-2.741-1.181-6.267-2.677-8.62-10.187-4.626-15.702.641-.886,3.451-1.357,4.314-.727,3.565,2.601,7.216,5.332,9.986,8.71,3.367,4.105,5.87,8.917,8.766,13.41.698,1.083,1.471,2.117,2.779,3.987.404-6.749.476-12.448,1.159-18.072.641-5.276,1.364-10.665,3.066-15.659,2.426-7.121,6.626-8.421,12.6-3.131,5.247,4.647,5.761,7.707,2.717,13.343-2.727-1.411-5.482-2.766-8.168-4.247-2.384-1.315-3.951-.372-4.643,1.856-.872,2.809-1.906,5.745-1.888,8.621.07,11.379-.743,22.62-2.908,33.823-2.025,10.481-7.36,18.619-15.855,24.784-3.29,2.387-6.867,4.378-10.313,6.55-.351-.303-.702-.606-1.054-.908Z"/>
    <path class="d" d="M159.444,81.449c.975,4.911,2.196,9.789,2.853,14.742.579,4.367,1.513,8.248,5.571,10.787,2.665,1.667,5.025,1.545,7.601-.13,2.531-1.646,3.466-3.794,2.801-6.697-.332-1.447-.516-2.944-1.002-4.337q-3.285-9.426-.967-19.688c.829,1.562,1.839,3.056,2.452,4.699,1.73,4.635,3.367,9.309,4.912,14.01,2.056,6.255,10.143,8.613,16.047,7.038-2.162-3.608-4.004-7.226-6.354-10.478-3.613-4.999-3.13-10.142-1.205-16.438,5.737,9.608,14.117,17.109,12.423,29.189-1.091,7.78-7.091,12.021-14.43,8.976-5.37-2.228-9.232-3.222-12.782,2.775-1.818,3.07-5.598,4.067-9.365,2.816-4.707-1.563-7.378-5.099-8.396-9.709-1.233-5.581-2.326-11.23-2.884-16.908-.342-3.474.435-7.058.709-10.592.672-.018,1.343-.037,2.015-.055Z"/>
    <path class="d" d="M1102.535,112.871c.05-7.539,3.289-13.095,9.667-15.914,24.875-10.994,49.904-21.644,74.906-32.35,2.027-.868,4.261-1.339,6.447-1.716.973-.168,2.386.011,3.045.626,2.39,2.23.321,9.188-2.942,9.753-14.872,2.576-28.418,8.874-42.011,14.961-12.7,5.687-25.263,11.687-37.786,17.758-3.773,1.829-7.209,4.353-11.326,6.883Z"/>
    <path class="d" d="M961.208,95.954c.412-5.779.426-11.623,1.346-17.32.982-6.08,2.395-12.169,4.411-17.98,1.811-5.222,5.65-5.704,9.813-1.956,4.098,3.689,4.987,8.305,4.021,13.616-3.334-1.286-6.601-2.373-9.71-3.804-2.31-1.063-3.287-.358-3.574,1.909-.714,5.652-1.848,11.299-1.977,16.967-.171,7.506-1.079,14.709-3.091,22.022-4.493,16.333-16.413,25.533-29.996,33.463-1.787,1.044-3.6,2.044-5.402,3.064-.221-.264-.442-.529-.663-.793,5.071-4.549,10.094-9.154,15.226-13.634,6.235-5.442,12.17-11.194,15.849-18.689,1.006-2.049.932-5.099.274-7.378-.876-3.036-2.814-5.764-4.282-8.631-1.949-3.806-4.767-6.633-8.887-8.055-.698-.241-1.302-.745-1.991-1.027-9.955-4.081-11.067-12.091-4.796-20.688,11.646,6.509,16.569,18.4,23.428,28.913Z"/>
    <path class="d" d="M1065.042,223.528c-1.998-7.854-8.433-14.783-4.626-24.382,2.224,3.877,4.526,7.391,6.324,11.145,2.62,5.469,3.781,11.288,2.928,17.398-.968,6.925-6.046,9.841-12.343,6.839-2.646-1.261-5.021-3.088-7.619-4.72-1.688,2.564-3.138,5.3-5.096,7.604-2.38,2.801-5.48,5.198-9.377,4.008-4.325-1.32-6.82-4.625-7.64-9.223-1.411-7.904.393-16.172-3.15-23.888-1.286-2.801-1.195-6.234-1.774-9.624,4.56,1.108,7.364,4.733,7.875,10.024.419,4.336.518,8.704.762,13.057.31,5.527,2.694,8.427,6.663,8.111,4.665-.372,8.116-4.343,7.647-9.257-.447-4.684-1.398-9.319-1.903-13.999-.224-2.071-.079-4.235.276-6.291.144-.831,1.297-1.488,1.789-2.01,2.352,6.956,4.04,13.43,6.73,19.457,2.334,5.232,6.649,6.757,12.534,5.752Z"/>
    <path class="d" d="M1009.855,442.919c-7.304-4.334-14.527-8.592-21.719-12.902-2.702-1.619-3.207-3.943-1.859-6.728,2.751-5.68,5.524-11.35,8.248-17.043,1.017-2.125,2.409-2.095,4.25-1.081,7.07,3.893,14.209,7.661,21.213,11.668.787.45,1.453,2.297,1.189,3.21-2.319,7.995-5.931,15.388-11.321,22.876Z"/>
    <path class="d" d="M169.985,390.135c8.297,6.114,15.766,11.632,23.253,17.125,2.385,1.749,2.819,3.973,1.613,6.535-2.884,6.128-5.83,12.226-9.027,18.915-8.141-5.45-15.626-10.429-23.07-15.468-2.098-1.42-2.156-3.458-1.294-5.631,2.689-6.777,5.38-13.553,8.525-21.476Z"/>
    <path class="d" d="M1051.29,434.574c-8.627-5.947-16.22-11.086-23.651-16.45-.733-.529-1.016-2.674-.583-3.667,3.205-7.352,6.645-14.601,10.269-22.443,1.96,1.454,3.57,2.709,5.241,3.877,5.188,3.627,10.364,7.272,15.614,10.806,2.737,1.842,3.971,4.069,2.523,7.261-3.045,6.714-6.122,13.413-9.413,20.615Z"/>
    <path class="d" d="M1183.401,359.796c-.012,7.259-1.502,9.416-7.12,11.836-21.419,9.227-42.805,18.531-64.215,27.778-6.268,2.707-11.774,6.478-16.344,11.547-.906,1.005-1.446,2.339-2.728,2.972,1.662-10.672,7.305-18.364,16.763-22.686,18.614-8.504,37.368-16.705,56.137-24.865,5.63-2.448,11.501-4.342,17.507-6.582Z"/>
    <path class="d" d="M956.42,174.129c.148-5.122,1.997-8.963,6.173-11.821,12.574-8.607,26.21-15.173,40.159-21.135,12.671-5.416,25.407-10.678,38.116-16.003.687-.288,1.38-.704,2.094-.759,2.365-.184,4.741-.23,7.113-.329-.203,2.72-.278,5.46-.704,8.145-.101.636-1.389,1.56-2.118,1.548-8.784-.142-16.484,3.618-24.151,7.011-22.119,9.789-44.692,18.727-64.786,32.564-.486.335-1.113.464-1.896.778Z"/>
    <path class="d" d="M120.117,199.171c1.851-13.209,7.975-23.622,19.706-30.301,21.15-12.041,42.261-24.153,63.394-36.224.634-.362,1.335-.609,1.921-.872,2.538,2.03,2.211,3.871.705,6.431-3.526,5.991-9.933,7.601-15.302,10.757-18.733,11.011-37.709,21.623-56.178,33.055-4.509,2.791-7.494,8.084-11.067,12.322-1.234,1.464-2.129,3.214-3.178,4.833Z"/>
    <path class="d" d="M796.799,418.129c7.994,3.767,15.138,7.159,22.305,10.501,3.924,1.83,3.642,5.234,2.579,8.278-2.14,6.13-4.803,12.077-7.475,18.651-6.938-3.13-13.111-5.86-19.228-8.707-1.774-.826-3.546-1.808-5.012-3.073-.698-.602-1.185-2.201-.903-3.067,2.403-7.383,5.004-14.701,7.734-22.583Z"/>
    <path class="d" d="M815.415,66.334c-5.132-1.207-9.735-2.291-14.631-3.443,0,9.313-.317,17.74.1,26.13.337,6.79.88,13.407-4.127,19.733-2.059-3.643-4.268-6.887-5.806-10.422-2.495-5.737-6.478-9.932-11.8-13.009-.107-.062-.214-.126-.318-.193-9.188-5.89-10.493-9.908-6.6-20.672,5.847,2.11,9.963,6.285,13.312,11.247,3.286,4.869,6.303,9.92,9.438,14.891.339-.073.678-.145,1.017-.218,0-1.403-.066-2.81.011-4.209.473-8.671.973-17.34,1.482-26.008.028-.486.113-1.028.357-1.432,1.504-2.49,1.034-6.877,4.973-7.027,4.93-.187,10.074,1.012,12.392,5.877,1.15,2.414.2,5.828.2,8.756Z"/>
    <path class="d" d="M129.748,403.747c8.363,4.91,15.901,9.24,23.297,13.801.895.552,1.766,2.697,1.385,3.517-3.278,7.055-6.847,13.974-10.691,21.657-7.183-4.335-13.642-8.192-20.055-12.126-2.165-1.328-2.825-3.074-1.791-5.691,2.712-6.863,5.156-13.832,7.854-21.158Z"/>
    <path class="d" d="M339.457,86.717c0-4.329-.208-8.671.055-12.984.295-4.827.757-9.675,1.619-14.428,1.051-5.797,5.035-9.268,9.339-8.766,5.346.623,8.658,4.989,8.502,11.217-.015.617-.073,1.233-.132,2.17-2.363-.526-4.588-1.005-6.805-1.52-5.097-1.185-7.939.729-8.19,6.076-.28,5.962-.254,11.948-.094,17.917.16,5.991.136,11.894-3.136,18.299-2.139-3.396-4.235-6.214-5.793-9.304-3.488-6.918-8.501-11.885-15.651-15.225-8.324-3.889-9.689-8.398-7.2-18.93,8.414.635,13.044,6.514,17.389,12.682,3.046,4.324,5.888,8.792,8.821,13.196.425-.134.85-.268,1.275-.401Z"/>
    <path class="d" d="M740.604,187.773c7.291,4.054,14.495,7.848,21.409,12.112,1.155.712,1.87,3.742,1.378,5.237-2.087,6.339-4.632,12.534-7.236,18.686-.28.663-2.328,1.299-3.056.938-6.224-3.084-12.348-6.37-18.465-9.665-2.111-1.138-2.844-2.627-1.843-5.23,2.701-7.02,5.046-14.177,7.812-22.079Z"/>
    <path class="d" d="M1142,130.713c14.02,4.549,19.09,17.223,27.104,28.737,0-2.212.023-3.332-.003-4.45-.221-9.477-.503-19.001,2.675-28.095.821-2.351,2.762-5.51,4.705-5.934,1.963-.428,4.871,1.72,6.818,3.381,3.033,2.589,4.01,6.166,2.935,10.533-2.545-.865-5.088-1.467-7.387-2.574-2.978-1.434-4.603-.012-5.581,2.383-.684,1.675-.959,3.617-.979,5.445-.087,7.992.048,15.986-.037,23.977-.024,2.218-.438,4.449-.862,6.637-.144.745-.907,1.966-1.316,1.938-.831-.057-1.916-.624-2.362-1.322-1.803-2.825-3.553-5.706-5.045-8.704-2.566-5.158-6.414-8.746-11.805-10.817-2.07-.795-3.997-1.987-5.939-3.085-5.251-2.971-5.268-7.641-4.06-12.701.396-1.658.714-3.334,1.141-5.348Z"/>
    <path class="d" d="M492.636,172.757c6.755-.239,11.073,3.489,14.418,8.305,3.536,5.091,6.527,10.561,9.769,15.857.305.499.699.944,1.709,2.29.348-2.167.693-3.475.748-4.795.301-7.205.506-14.413.812-21.617.041-.969.442-1.929.717-2.88,1.438-4.964,3.514-7.007,6.716-6.635,5.065.589,7.897,3.476,8.252,8.459.069.969.01,1.948.01,3.292-2.299,0-4.384.035-6.467-.007-6.019-.12-6.065-.133-6.144,5.766-.097,7.23-.037,14.462-.196,21.691-.054,2.463-.349,4.972-.967,7.347-.275,1.055-1.493,2.203-2.543,2.574-.524.186-1.907-1.123-2.428-2.028-1.86-3.227-3.56-6.549-5.241-9.875-1.994-3.944-4.912-6.746-9.228-8.027-10.293-3.055-12.19-5.558-10.275-18.477.053-.356.189-.7.339-1.241Z"/>
    <path class="d" d="M807.163,159.861c3.83,1.63,7.551,3.266,11.313,4.803,7.988,3.264,8.515,14.674,5.208,21.537-3.344,6.94-13.208,10.757-19.686,7.35-1.838-.967-3.585-3.376-4.068-5.43-2.269-9.655,2.899-30.441,9.734-39.096-.95,4.118-1.703,7.38-2.5,10.836ZM803.712,170.34c-.116,2.219-.317,3.558-.235,4.879.566,9.059.174,7.722,8.713,7.317,3.084-.146,6.473-1.272,8.826-4.917-5.735-2.413-11.129-4.682-17.303-7.279Z"/>
    <path class="d" d="M648.733,337.635c-1.786,4.628-3.16,9.476-5.476,13.822-2.263,4.247-6.378,4.388-9.234.554-1.657-2.224-3.264-4.987-3.545-7.65-1.345-12.763,2.358-24.482,8.378-35.585.21-.387.701-.621,2.048-.707-.475,3.022-.761,6.089-1.468,9.055-1.061,4.45-2.566,8.795-3.603,13.25-.891,3.83.026,7.379,2.61,10.446,1.581,1.876,3.142,2.384,4.837.171,1.187-1.551,2.377-3.1,3.565-4.649.63.431,1.259.862,1.889,1.292Z"/>
    <path class="d" d="M279.217,88.942c.631,6.344-.727,11.268-4.923,15.331-2.167,2.098-4.06,1.908-6.183.079-3.727-3.212-5.358-7.55-5.789-12.162-1.028-10.98,2.017-21.16,6.96-30.851.148-.29.581-.435,2.039-1.469-.504,4.101-.791,7.269-1.302,10.401-.817,5.016-1.862,9.997-2.624,15.02-.172,1.132.21,2.475.697,3.56,2.703,6.023,4.717,6.36,9.396,1.71.415-.412.854-.801,1.73-1.619Z"/>
    <path class="d" d="M727.583,62.07c-.761,6.024-1.564,12.043-2.254,18.075-.167,1.464-.107,2.99.094,4.454.895,6.502,3.284,7.802,9.22,5.128.536-.242,1.088-.45,2.485-1.023-.996,3.854-1.333,7.276-2.751,10.167-2.388,4.869-8.119,4.832-11.003.222-2.656-4.246-4.06-9.003-3.342-13.886.935-6.354,2.545-12.62,4.093-18.867.415-1.673,1.662-3.139,2.528-4.7.31.143.62.287.93.43Z"/>
    <path class="d" d="M128.619,117.235c-1.119,5.975-1.736,11.425-7.285,14.816-2.411,1.473-3.475.893-4.783-1.029-2.925-4.299-4.1-8.747-3.079-14.101,1.532-8.036,4.609-15.346,8.293-22.486.437,0,.874.002,1.311.003.109,1.221.604,2.565.26,3.641-1.62,5.069-3.46,10.068-5.244,15.084-.996,2.8-.435,5.655,2,6.832,1.461.706,3.972-.648,5.97-1.22.766-.219,1.418-.836,2.557-1.541Z"/>
    <path class="d" d="M732.819,128.317c-.589,3.969-1.199,7.935-1.762,11.907-.696,4.92-.419,9.633,2.612,13.899,2.712,3.817,3.15,3.956,6.918,1.076.57-.436,1.097-.928,1.643-1.394.366.156.733.313,1.099.469-1.216,3.603-2.024,7.416-3.749,10.755-2.225,4.307-6.457,4.391-8.954.196-1.665-2.796-3.025-6.074-3.418-9.271-1.185-9.661.822-18.913,4.67-27.773.313.046.627.091.94.137Z"/>
    <path class="d" d="M525.784,445.733c1.621-3.834,2.957-7.821,4.924-11.468,3.723-6.901,4.555-13.605-.301-20.247-3.395-4.644-2.824-9.414-.843-14.333,11.625,9.174,11.673,30.171-3.781,46.048Z"/>
    
  </g>

  </a>
</svg>