<?xml version="1.0" encoding="UTF-8"?>
<svg id="manprayingsvg" xmlns="http://www.w3.org/2000/svg" width="326.9325" height="256.7374" viewBox="0 0 326.9325 256.7374">
  <defs>
    <style>
      

      @import url('../CSS/SvgStyling.css');
      

      
    </style>
  </defs>
  <g id="manpraying" class="content">
    <rect id="bg" class="bg" x="25.7503" y="21.9671" width="275.432" height="212.8032"/>
    <path  class="path" d="M283.4991,212.0922h-94.9979c1.1748-1.0286,1.1455-1.7845,1.1455-1.7845v-5.7977c-6.7716-19.0283-48.5877-25.1564-48.5877-25.1564l-1.2851-34.6489s16.911.7127,26.2261-3.8717c9.3151-4.5845,32.8227-37.2682,32.8227-37.2682l-14.0529-9.7328c4.5492-4.0029,12.6575-11.9598,13.9824-18.8677,1.8536-9.693-.9555-9.7015-.9555-9.7015-.7767-.2102-1.9783,1.5624-1.742,1.8927-.0829-.4007-1.7433-.7832-2.6244,1.3269,0,0-6.7409,13.0536-11.5525,10.6485l2.1428-4.5159s2.2028-1.4418,2.0703-3.1328c-.1325-1.6912-3.1394.7388-3.1394.7388l-2.3497,1.6317-3.1635,7.0634s-1.4359,3.8162-.5796,6.6084c.1313.5024.1095.9979-.0653,1.4868l-1.9039-1.1442v.0771l-21.6416,28.951-15.7949-11.4676s-7.002-11.1804-10.58-11.9004c-3.578-.7199-2.7256-4.4382-2.7256-4.4382l4.7313-13.6195c3.9814-.6918,7.7017-2.2191,8.2943-5.8741.1188-.7264-.4471-2.4665-.3211-4.373.2611-3.9696-2.1662-1.9287-2.3497-2.1173-.5104-.5222,1.7675-1.5665,1.6558-2.1663-.2239-1.3138-.4053-2.2361-.4053-2.2361,2.0057,0,1.293-2.2922,1.293-2.2922,0,0-7.31-3.7249-6.8832-7.31.4268-3.5852-4.1511-8.169-4.1511-8.169l-15.5736-18.9643s-1.0267,2.7087-12.634,10.018c-11.6073,7.3094-14.5072,27.1515-14.5072,27.1515l12.1869,8.028,2.0057,2.2922c.5731,4.8004.9294,3.4383,3.5845,6.7363,2.6551,3.2981.7897,10.5311-4.3044,14.9054-5.0942,4.3742-6.4426,17.3026-6.4426,17.3026l-5.4858,73.526c-7.6064,11.8305-1.4359,26.6131.2487,30.163h-41.6561l-17.6831,22.6801h275.432l-17.6831-22.6781Z"/>
    
  </g>
</svg>