<?xml version="1.0" encoding="UTF-8"?>
<svg id="NooniyahIbnAlQaiyyim" xmlns="http://www.w3.org/2000/svg" width="1040.215" height="450.377" viewBox="0 0 1040.215 450.377">
  <defs>
    <style>
      

      @import url('../CSS/SvgStyling.css');


    </style>
  </defs>
  

  <a href="../Nooniyah-Ibn-Al-Qayyim" target="_parent">
  <g class="word">


    <rect class="wordrect"  width="1040.215" height="450.377"/>
    <path class="cls-1" d="M189.142,284.924c.569-1.403,1.072-2.644,1.872-4.616,1.799,2.02,3.257,3.53,4.574,5.155,13.013,16.057,34.613,13.103,47.209,2.848,3.661-2.98,5.531-8.139,8.288-12.256,1.783-2.663,3.684-5.247,6.245-8.877.247,2.146.612,3.131.421,3.992-1.914,8.621,4.624,18.622,13.588,19.361,5.294.436,10.766-.743,16.08-1.648.867-.148,2.256-3.037,1.848-4.003-8.92-21.141,6.963-44.801,20.103-54.9,5.66-4.35,9.471-3.325,13.294,2.734,7.851,12.443,8.045,25.441,2.931,38.787-1.656,4.321-3.829,8.443-6.126,13.438,12.407,1.526,24.465,3.352,35.36-4.51,3.942-2.844,6.391-6.747,5.704-11.989-2.322-17.707-4.253-35.475-7.009-53.114-6.497-41.59-13.356-83.124-20.174-124.664-.465-2.832-1.886-5.496-2.694-8.288-.371-1.28-.793-2.833-.401-3.996,1.965-5.835,4.191-11.583,7.139-17.408,8.868,15.082,15.684,30.76,20.84,47.259-3.269-3.672-6.538-7.344-9.808-11.016-.789.537-1.577,1.074-2.366,1.611.901,5.18,1.83,10.356,2.7,15.541,6.674,39.779,13.547,79.526,19.89,119.357,2.25,14.13,3.105,28.485-1.624,42.445-4.216,12.445-11.25,22.57-24.28,27.044-10.598,3.639-21.147,1.909-31.579-1.141-.149-.044-.308-.07-.445-.139-6.133-3.08-11.45-2.644-17.53,1.404-7.598,5.059-16.647,6.738-25.905,5.558-7.773-.991-12.637-5.354-14.433-13.072-.405-1.74-1.112-3.41-2.039-6.191-8.301,13.546-17.322,24.808-34.32,25.738-.136,2.47-.015,4.944-.455,7.314-.927,4.994-1.894,10.014-3.429,14.837-.373,1.172-3.515,2.712-4.527,2.241-11.106-5.163-20.909-13.852-21.189-29.124-.097-5.267-2.144-7.604-6.844-8.743-8.53-2.067-16.631-.433-24.674,2.389-14.208,4.985-25.188,14.617-35.603,24.932-11.703,11.59-22.776,23.834-34.781,35.092-5.926,5.558-13.144,9.853-20.174,14.059-2.35,1.406-6.081,1.515-8.919.935-18.664-3.814-29.152-20.952-25.565-41.151,1.793-10.098,5.984-19.204,11.275-27.877.467-.765.876-1.565,1.416-2.534-12.582-4.517-14.868-15.378-15.747-26.282-1.524-18.911,3.538-36.993,9.04-54.835,3.013-9.771,6.799-19.306,10.365-28.9.53-1.426,1.768-2.59,2.678-3.875.433.191.866.381,1.3.572-.558,2.448-1.088,4.903-1.679,7.343-4.601,18.983-9.681,37.867-13.621,56.985-1.911,9.271-1.694,19.004,5.1,27.01,4.194,4.942,11.801,4.611,15.594-.698,2.216-3.102,4.164-6.396,6.232-9.603.444.086.888.171,1.331.257,0,2.159.406,4.412-.07,6.46-2.089,8.976-5.583,16.859-12.419,23.842-11.381,11.625-17.593,26.236-15.411,42.796,1.866,14.166,14.613,20.529,26.993,13.657,7.637-4.239,14.814-9.725,21.198-15.716,14.046-13.181,27.071-27.459,41.25-40.489,11.75-10.798,25.364-19.008,41.296-22.417,3.752-.803,7.705-1.155,11.532-.98,3.642.167,7.24,1.295,11.155,2.058ZM294.681,264.083c-.115,4.5,6.587,13.178,10.933,14.047.689.138,1.503-.069,2.201-.295,14.01-4.528,17.046-13.045,8.997-25.206-.77-1.163-1.371-2.678-2.467-3.329-1.756-1.044-3.972-2.31-5.796-2.057-5.444.753-13.725,11.232-13.868,16.841ZM197.276,309.808c2.173,5.254,5.311,8.106,9.826,9.303.898.238,2.075-.575,3.123-.903-.483-1.142-.655-2.876-1.503-3.322-3.354-1.763-6.921-3.121-11.445-5.078Z"/>
    <path class="cls-1" d="M979.077,290.999c-9.472,1.194-18.163,3.105-26.872,3.199-13.387.145-19.292-7.281-16.351-20.154,1.981-8.67,5.626-16.796,13.47-22.168,5.464-3.741,11.001-3.664,16.683-.643,6.809,3.621,11.916,8.989,15.327,15.812,1.578,3.156,3.076,4.003,6.42,2.383,5.018-2.431,10.322-4.263,15.437-6.504,4.417-1.935,5.309-4.591,3.278-8.853-5.868-12.311-11.932-24.535-17.511-36.975-3.157-7.039.799-13.406,2.41-19.935.503-.173,1.005-.346,1.508-.519,5.162,5.992,10.324,11.983,15.486,17.975-.295.368-.591.735-.886,1.103h-7.612c2.465,4.726,4.695,8.917,6.849,13.147,6.215,12.207,9.161,24.617,3.423,38.02-3.013,7.038-8.381,11.381-14.64,15.052-.67.393-1.359.765-2.071,1.071-4.757,2.044-7.614,4.548-7.344,10.827.546,12.707-5.022,23.357-13.664,32.586-14.72,15.72-31.471,28.647-51.073,37.686-9.653,4.451-19.761,6.267-30.413,4.407-11.22-1.96-18.787-8.496-23.453-18.556-5.51-11.882-6.392-24.603-3.165-36.917,2.337-8.914-1.785-16.108-2.423-24.948-2.554,1.271-4.399,2.254-6.296,3.122-31.507,14.406-64.346,22.899-99.231,21.606-15.958-.591-31.606-3.206-45.746-11.262-10.8-6.154-19.253-14.59-24.158-26.299-4.524-10.799-7.088-11.933-16.907-5.486-5.169,3.394-9.85,8.208-13.327,13.344-5.456,8.062-9.474,17.08-14.538,25.428-4.483,7.39-8.957,14.934-14.525,21.484-7.802,9.179-16.665,8.847-24.637-.162-10.444-11.803-13.938-26.059-13.596-41.422.175-7.874,1.227-15.65,4.562-22.883.469.03.938.059,1.407.089-.131,2.577-.195,5.16-.405,7.73-.902,11.032-1.8,22.134,3.292,32.459,1.948,3.948,4.524,7.865,7.692,10.873,6.143,5.833,14.015,6.161,20,.109,4.682-4.734,8.686-10.618,11.431-16.695,6.997-15.49,14.012-30.917,25.74-43.483,3.736-4.003,8.467-7.225,13.149-10.156,4.282-2.681,8.566-1.304,11.592,2.556,3.732,4.76,7.512,9.57,10.527,14.788,10.299,17.822,26.574,25.912,46.064,28.571,40.04,5.462,78.198-1.117,114.508-18.693,2.991-1.448,5.84-3.189,9.434-5.168.148,2.109.456,3.31.277,4.433-2.665,16.772,9.312,23.381,23.358,20.97,3.854-.662,7.446-3.167,10.965-5.166.639-.363.832-2.584.401-3.594q-5.321-12.489-1.3-26.232c.8.49,1.86.758,2.206,1.406,6.244,11.694,8.596,23.942,4.183,36.775-4.56,13.263-24.122,20.154-36.617,13.141-.761-.427-1.491-.908-2.395-1.463-1.784,22.065,7.923,37.55,27.011,41.17,7.433,1.41,14.554-.33,21.438-2.799,22.716-8.146,41.254-22.695,58.391-39.132,6.199-5.945,6.455-10.893,3.234-17.054ZM967.173,276.024c.188-.563.376-1.126.565-1.689-3.064-2.191-5.953-4.703-9.237-6.492-3.988-2.173-7.747-1.101-10.877,2.184-1.892,1.986-2.206,3.522.725,4.925,6.243,2.989,12.53,1.562,18.824,1.071Z"/>
    <path class="cls-1" d="M318.32,53.926c-1.285,5.01-3.308,8.442-8.674,9.799-30.028,7.594-59.617,16.703-88.905,26.764-26.074,8.957-51.681,19.115-76.743,30.619-3.237,1.486-6.442,3.043-9.92,4.355,1.251-4.182,3.172-7.964,7.017-10.316,2.971-1.817,6.125-3.357,9.277-4.851,19.82-9.395,40.428-16.798,61.117-23.981,34.392-11.941,69.194-22.547,104.374-31.916.729-.194,1.485-.288,2.457-.472Z"/>
    <path class="cls-1" d="M394.854,251.835c-1.929,6.952-4.505,13.804-5.609,20.884-1.159,7.436-2.09,15.262-1.029,22.617,2.271,15.748,12.716,25.143,27.421,29.769,16.565,5.211,33.283,3.574,49.61-.985,25.783-7.199,49.456-18.951,70.967-34.965,5.73-4.265,8.013-9.532,5.576-16.582-3.137-9.074-5.747-18.344-9.208-27.288-2.97-7.678.164-14.024,2.747-21.759,1.863,3.427,3.315,5.794,4.474,8.296,2.173,4.69,6.136,6.697,10.857,6.304,4.584-.382,9.198-1.497,13.573-2.963,3.645-1.222,5.488-3.71,2.866-7.873-5.008-7.953-3.935-16.268-.14-26.15,2.273,4.683,4.439,8.274,5.81,12.146,3.262,9.212,3.257,18.527-.108,27.788-2.937,8.082-8.942,12.405-17.098,14.143-1.96.418-3.937.76-5.861,1.129-.485,8.273-.782,16.307-1.468,24.308-.877,10.224-5.341,18.904-13.231,25.334-29.113,23.724-61.979,39.08-99.737,42.099-13.968,1.117-27.483-1.756-39.187-10.604-9.856-7.451-14.263-17.717-15.83-29.394-2.384-17.774,1.674-34.561,8.894-50.695,1.017-2.272,2.853-4.178,4.31-6.253.467.232.933.463,1.4.695Z"/>
    <path class="cls-1" d="M801.334,94.134c1.886-4.768,3.616-8.75,8.146-10.702,13.739-5.922,27.247-12.451,41.229-17.727,38.5-14.526,77.842-26.488,117.547-37.266.907-.246,1.836-.415,2.804-.631-.57,4.653-2.908,7.533-6.836,8.589-29.511,7.932-58.834,16.487-87.629,26.753-22.213,7.92-44.197,16.425-65.558,26.463-2.999,1.409-6.008,2.8-9.702,4.521Z"/>
    <path class="cls-1" d="M587.869,60.511c7.352,15.386,15.732,30.318,20.698,46.755-.432.313-.864.626-1.296.939-3.537-3.408-7.074-6.815-10.611-10.223-.309.15-.618.299-.927.449.332,1.867.673,3.732.994,5.6,6.583,38.228,13.265,76.439,19.702,114.692,3.068,18.228,6.158,36.559,4.517,55.111-.761,8.607-3.306,17.056-5.042,25.576-.69-.048-1.38-.095-2.07-.143-.377-2.468-.817-4.929-1.123-7.405-3.332-26.954-6.089-53.992-10.092-80.846-5.815-39.006-12.483-77.886-18.91-116.8-.722-4.372-2.329-8.592-3.345-12.925-.339-1.447-.545-3.177-.072-4.517,1.906-5.401,4.1-10.701,6.189-16.038.462-.075.925-.15,1.387-.225Z"/>
    <path class="cls-1" d="M412.63,113.145c-2.873-3.948-5.746-7.896-8.618-11.843l-2.08,1.496c0,.937-.137,1.897.02,2.807,6.986,40.526,14.176,81.018,20.92,121.584,2.773,16.681,5.542,33.514,3.879,50.493-.823,8.402-3.327,16.641-5.12,24.943-.076.351-.647.595-1.649,1.458-.554-3.105-1.328-5.719-1.446-8.362-1.455-32.527-7.397-64.461-12.6-96.495-5.826-35.863-11.582-71.737-17.366-107.607-.074-.46.05-1.075-.206-1.364-6.017-6.813-.403-12.743,1.452-18.925.604-2.014,1.567-3.919,2.997-7.417,8.456,16.38,16.134,31.615,21.593,47.856-.592.459-1.184.918-1.776,1.377Z"/>
    <path class="cls-1" d="M111.911,174.739c-3.845-1.291-7.375-2.687-11.022-3.625-2.325-.598-3.914.709-4.053,3.213-.604,10.857-1.24,21.715-1.601,32.581-.036,1.092,1.579,2.38,2.64,3.342,3.074,2.787,6.488,5.234,9.333,8.229,2.901,3.054,1.072,8.522-3.043,9.667-5.509,1.532-11.063,2.903-16.614,4.279-5.753,1.426-8.053,5.249-6.94,10.995,4.605,23.768,9.132,47.551,13.6,71.344.358,1.907.047,3.94-.958,5.85-4.994-24.08-10.09-48.14-14.942-72.248-2.797-13.9,1.009-20.929,13.984-27.083.658-.312,1.216-.836,1.871-1.297-3.812-3.223-5.975-2.975-10.651,1.404.237-5.112,2.279-8.665,5.746-11.728.976-.862,1.93-3.161,1.461-4.012-2.909-5.286-6.135-10.408-9.458-15.451-1.119-1.698-2.671-3.07-5.019-1.085-.611.517-2.39.21-3.311-.3-2.573-1.422-5.055-3.042-7.429-4.781-3.406-2.496-4.389-8.335-1.656-11.573.875-1.037,3.71-1.812,4.625-1.194,5.182,3.503,10.569,6.967,14.869,11.426,3.553,3.685,5.696,8.729,9.169,14.302.378-2.695.718-4.343.824-6.006.424-6.657.212-13.411,1.286-19.957,1.638-9.982,7.441-11.872,15.459-5.619,3.081,2.403,3.562,6.389,1.828,9.328Z"/>
    <path class="cls-1" d="M861.721,116.636c-1.585-1.377-2.765-2.574-4.11-3.541-5.145-3.702-10.08-1.702-10.612,4.566-.815,9.591-1.384,19.212-1.663,28.832-.049,1.669,1.534,3.731,2.915,5.024,2.697,2.525,6.209,4.277,8.546,7.054,1.376,1.635,1.754,4.695,1.484,6.985-.353,3.004-3.037,3.367-5.859,4.041-6.414,1.533-12.657,3.866-18.857,6.174-3.052,1.136-3.77,3.814-3.139,6.944,4.138,20.519,8.315,41.031,12.306,61.578,1.106,5.695,1.624,11.504,2.412,17.261-.481.101-.962.201-1.442.302-.676-2.805-1.433-5.593-2.015-8.417-4.251-20.617-8.461-41.242-12.696-61.863-3.191-15.538.073-22.469,14.05-29.827.522-.275.936-.754,1.404-1.141-3.008-3.465-4.099-3.264-10.714,1.97.27-5.064,2.036-9.018,6.06-12.021.858-.64,1.663-2.698,1.264-3.461-3.395-6.5-7.073-12.853-11.136-20.084-3.879,5.226-6.75,2.805-9.68,1.124-6.456-3.702-8.551-6.946-7.565-11.791.856-4.207,2.833-5.379,6.968-4.044,7.417,2.395,12.008,8.03,16.067,14.211,2.264,3.448,4.375,6.996,7.363,11.797.263-3.131.425-4.873.553-6.618.509-6.96.539-14.003,1.73-20.844.508-2.918,2.862-6.67,5.388-7.814,3.938-1.784,7.75.875,10.603,4.028,2.604,2.877,1.716,5.965.378,9.576Z"/>
    <path class="cls-1" d="M974.714,87.964c-3.574-2.739-6.786-4.887-9.619-7.453-3.326-3.014-4.583-7.159-2.1-10.953,3.154-4.819,6.664-9.725,11.065-13.313,3.814-3.109,7.72-1.131,8.524,3.839.785,4.848,1.168,9.998.379,14.793-.722,4.389.129,6.411,4.42,7.137,1.182.2,2.279.903,3.704,1.496-1.488,5.549-3.171,10.966-4.359,16.49-1.236,5.751-2.204,11.581-2.871,17.425-.327,2.864-.189,5.987.654,8.708.592,1.91,2.887,4.787,4.143,4.652,1.944-.209,3.703-2.564,5.426-4.134.578-.526.807-1.434,1.356-2.469,1.417,4.235-.159,11.255-2.773,13.529-2.877,2.502-7.404,1.543-9.449-2.035-3.696-6.468-3.426-13.49-2.368-20.439,1.025-6.732,2.781-13.35,3.944-20.066.267-1.54-.483-4.657-.937-4.69-2.739-.2-5.383-3.345-8.387.301-14.056,17.067-32.543,28.135-52.177,37.482-5.114,2.434-10.54,4.213-16.276,5.341,11.912-6.817,23.922-13.469,35.707-20.498,11.698-6.977,22.778-14.814,31.992-25.144ZM979.525,79.757c0-4.625.634-8.246-.27-11.431-.446-1.573-3.774-3.298-5.716-3.207-1.98.093-4.711,1.95-5.509,3.747-.611,1.375.739,4.486,2.171,5.709,2.363,2.019,5.496,3.139,9.325,5.182Z"/>
    <path class="cls-1" d="M108.964,91.546c10.105-4.564,20.209-9.129,30.314-13.693-.058-.465-.116-.93-.174-1.396-10.995-3.085-22.343-3.465-33.79-3.345,3.71-12.327,12.146-17.983,24.21-16.185,5.971.89,11.953,1.848,17.824,3.228,7.263,1.708,8.431,4.819,4.725,11.456-6.798,12.175-17.238,18.792-31.049,20.285-3.844.415-7.666,1.03-11.499,1.553-.187-.634-.374-1.269-.561-1.903Z"/>
    <path class="cls-1" d="M736.368,74.751c-10.885-1.054-21.77-2.109-32.616-3.159,1.209-7.415,10.204-16.179,17.828-15.604,8.449.638,16.867,2.272,25.164,4.087,4.924,1.078,6.098,4.575,3.755,9.214-6.249,12.37-16.045,19.916-30.014,21.641-4.421.546-8.836,1.137-13.254,1.708-.222-.518-.445-1.037-.667-1.555,10.086-4.695,20.172-9.39,30.259-14.085-.151-.749-.303-1.498-.454-2.247Z"/>
    <path class="cls-1" d="M77.797,406.554c-.682-7.944-.132-9.429,6.696-12.419,31.836-13.942,64.237-26.412,97.453-36.702,1.147-.355,2.363-.485,3.8-.77-1.221,6.111-4.508,8.888-10.295,11.025-32.321,11.934-65.084,22.827-95.937,38.439-.504.255-1.121.284-1.717.426Z"/>
    <path class="cls-1" d="M532.505,348.027c-.438,5.756-2.642,8.633-7.635,10.53-29.895,11.363-59.652,23.088-89.419,34.785-3.411,1.34-6.596,3.253-10.044,4.979-.857-8.315-.118-10.086,6.909-12.79,31.095-11.968,62.252-23.775,93.402-35.6,1.988-.755,4.107-1.163,6.787-1.904Z"/>
    <path class="cls-1" d="M698.717,342.906c-.347,5.255-2.393,8.408-7.07,10.193-28.701,10.953-57.366,22.001-85.99,33.153-4.84,1.886-9.424,4.43-14.277,6.742-.852-8.462-.542-9.197,6.319-12.289,32.24-14.53,65.355-26.76,99.025-37.522.431-.138.909-.132,1.993-.277Z"/>
    <path class="cls-1" d="M736.265,218.171c2.487,8.668-4.421,23.978-12.235,27.143-5.186,2.1-10.943-.077-14.098-4.714-7.646-11.238-6.84-23.567-4.776-35.956,3.064-18.387,7.968-36.308,14.891-53.64.995-2.491,2.42-4.81,3.647-7.209.561.17,1.123.339,1.684.509-.402,2.084-.704,4.193-1.223,6.247-4.021,15.923-8.416,31.761-11.988,47.783-1.679,7.53-2.359,15.547.769,22.956,1.283,3.039,3.739,6.276,6.544,7.824,4.662,2.571,7.849,1.074,10.969-3.479,1.664-2.428,3.296-4.877,4.98-7.29.118-.17.551-.121.836-.173Z"/>
    <path class="cls-1" d="M274.931,362.026c-3.022,5.716-5.892,11.144-8.949,16.925-6.86-3.913-13.292-7.581-19.992-11.403-2.671,4.882-5.293,9.676-8.019,14.659-6.673-3.972-12.757-7.593-19.381-11.536,2.904-5.55,5.736-10.96,8.891-16.989,6.62,3.857,12.99,7.568,19.848,11.563,2.54-4.536,5.136-9.172,7.99-14.269,6.538,3.684,12.801,7.213,19.612,11.051Z"/>
    <path class="cls-1" d="M783.104,341.529c6.629,3.915,13.086,7.729,19.894,11.749,2.566-4.874,5.063-9.617,7.753-14.726,6.706,3.85,12.979,7.452,19.8,11.369-3.149,5.6-6.27,11.148-9.501,16.893-6.539-3.897-12.743-7.595-19.546-11.65-2.046,3.75-4.152,7.119-5.761,10.711-1.316,2.936-2.848,3.818-5.709,2.091-4.516-2.726-9.162-5.247-13.575-8.127-.895-.584-1.742-2.74-1.345-3.556,2.338-4.804,5.051-9.427,7.992-14.753Z"/>
    <path class="cls-1" d="M286.214,175.455c6.857,3.972,12.981,7.52,19.816,11.479,1.536-2.874,3.34-6.191,5.089-9.536,1.833-3.507,3.45-6.049,7.826-2.21,3.204,2.811,7.31,4.701,11.224,6.559,2.88,1.367,3.172,3.003,1.806,5.491-1.94,3.534-3.944,7.036-5.761,10.632-1.087,2.151-2.391,2.611-4.443,1.352-4.368-2.678-8.782-5.281-13.155-7.95-2.605-1.59-4.614-2.013-6.177,1.532-1.596,3.62-3.791,6.976-5.904,10.772-6.613-3.915-12.704-7.521-19.323-11.439,3.065-5.68,5.915-10.96,9.003-16.682Z"/>
    <path class="cls-1" d="M679.139,186.902c-3.284,5.738-6.318,11.041-9.549,16.686-6.477-3.748-12.454-7.206-18.922-10.948,3.129-6.042,6.07-11.722,9.053-17.484-5.625-3.339-10.754-6.384-16.031-9.518,3.18-5.672,6.088-10.859,9.282-16.559,6.049,3.52,11.827,6.727,17.372,10.295.741.477.864,3.057.311,4.197-2.225,4.587-4.828,8.991-7.489,13.819,5.283,3.145,10.517,6.262,15.973,9.51Z"/>
    <path class="cls-1" d="M62.858,94.578c.854-5.29,1.505-10.623,2.616-15.859,1.284-6.051,2.623-12.133,4.585-17.985,1.952-5.822,5.558-7.56,10.274-5.949,5.806,1.983,8.912,6.769,7.673,11.936-.418,1.744-1.023,3.442-1.72,5.749-2.526-2.383-4.49-4.28-6.504-6.125-2.513-2.302-5.082-2.301-6.216,1.063-2.014,5.971-3.786,12.064-5.083,18.227-1.338,6.359-1.947,12.87-2.971,19.299-.279,1.752-.903,3.45-1.369,5.172-.613.146-1.225.292-1.838.438-1.38-3.175-2.62-6.42-4.171-9.509-2.889-5.754-5.89-11.456-9.022-17.081-.53-.951-2.309-2.221-2.901-1.96-4.191,1.848-6.726-1.526-9.741-2.938-5.374-2.518-7.259-7.879-5.1-13.347,1.444-3.657,4.896-3.982,7.372-2.501,4.017,2.403,8.194,5.311,10.849,9.041,4.004,5.623,6.775,12.126,10.023,18.28.692,1.311,1.182,2.73,1.764,4.099.494-.017.987-.033,1.481-.05Z"/>
    <path class="cls-1" d="M284.11,136.952c.566-3.953.874-7.964,1.753-11.846,1.708-7.545,3.444-15.108,5.728-22.49,1.679-5.425,5.314-7.086,9.987-5.584,5.719,1.838,8.801,6.414,7.554,11.333-.447,1.765-1.084,3.482-1.921,6.127-1.7-1.901-2.817-3.242-4.029-4.49-4.388-4.516-9.046-3.46-10.435,2.726-1.663,7.403-2.693,14.947-4.031,22.424-1.027,5.743-2.107,11.476-3.163,17.214-.625.11-1.249.221-1.874.331-1.344-3.063-2.542-6.2-4.061-9.173-3.07-6.011-6.266-11.958-9.539-17.861-.45-.812-1.872-1.901-2.443-1.703-4.471,1.549-7.372-1.509-10.649-3.368-4.246-2.409-6.573-8.844-4.136-12.892.912-1.514,4.183-3.08,5.581-2.543,3.623,1.389,7.772,3.217,9.957,6.167,4.569,6.167,8.067,13.138,11.875,19.852,1.035,1.825,1.606,3.912,2.391,5.879.485-.034.97-.068,1.455-.103Z"/>
    <path class="cls-1" d="M169.236,239.772c-1.34-6.262-.593-8.216,5.591-10.665,23.215-9.19,46.5-18.207,69.824-27.118,7.475-2.856,15.151-5.185,23.673-8.072-.776,4.813-1.707,8.013-6.128,9.557-13.464,4.704-26.968,9.337-40.223,14.587-17.012,6.739-33.796,14.053-50.683,21.109-.547.229-1.143.339-2.054.601Z"/>
    <path class="cls-1" d="M934.986,377.83c-1.467,5.225-3.632,7.92-8.159,9.67-28.794,11.131-57.43,22.671-86.124,34.063-.957.38-1.97.617-3.239,1.006-.321-5.164.584-8.531,5.842-10.817,28.29-12.299,57.006-23.409,86.467-32.574,1.427-.444,2.896-.754,5.212-1.349Z"/>
    <path class="cls-1" d="M796.318,202.233c3.011,7.603,6.01,13.949,7.971,20.601,1.127,3.825,1.038,8.192.633,12.229-.341,3.402-2.126,7.443-6.151,6.921-3.811-.494-7.408-2.914-10.984-4.715-.79-.398-1.094-1.759-2.034-3.393-2.003,2.477-3.663,4.602-5.399,6.662-4.198,4.984-10.473,5.075-14.889.185-4.532-5.019-4.295-11.411-5.016-17.55-.335-2.851-1.668-5.692-1.485-8.468.204-3.093,1.618-6.107,2.505-9.155.736.016,1.472.032,2.208.048.68,2.168,1.811,4.307,1.949,6.508.312,4.953-.002,9.942.185,14.906.226,5.97,3.417,9.575,8.066,9.49,4.587-.084,9.557-4.847,9.477-9.804-.069-4.305-1.154-8.585-1.461-12.899-.234-3.283.048-6.602.1-9.906l2.499-.201c.861,3.924,1.887,7.821,2.535,11.779.648,3.962.62,8.049,1.44,11.966.781,3.727,3.136,6.436,7.255,6.885,4.292.467,6.214-1.726,4.789-5.757-1.755-4.961-3.743-9.849-5.832-14.681-1.726-3.992-.368-7.338,1.638-11.653Z"/>
    <path class="cls-1" d="M672.476,77.253c-1.795-1.589-2.853-2.459-3.835-3.407-4.895-4.725-8.066-4.065-9.658,2.661-1.816,7.674-2.867,15.528-4.263,23.302-.698,3.892-1.422,7.779-2.135,11.668-.491.116-.982.232-1.474.347-1.177-2.508-2.275-5.055-3.545-7.514-2.892-5.601-5.748-11.229-8.93-16.664-.523-.893-2.717-1.379-3.991-1.167-6.205,1.036-14.102-7.809-12.107-13.764,1.412-4.213,5.033-5.447,8.88-2.917,8.032,5.281,12.307,13.33,15.931,21.841.885,2.079,1.771,4.157,3.768,6.112.827-4.957,1.475-9.952,2.528-14.86,1.136-5.295,2.455-10.568,4.054-15.739,1.515-4.899,4.772-6.949,8.534-5.964,5.051,1.322,8.302,5.965,7.43,10.656-.276,1.483-.644,2.948-1.189,5.411Z"/>
    <path class="cls-1" d="M535.367,76.201c8.832,8.752,13.862,18.829,14.615,30.71.35,5.521-.438,11.151-1.107,16.684-.326,2.695.52,4.046,2.841,5.052,1.988.861,3.929,1.89,5.753,3.06,10.072,6.459,10.184,19.078-.37,24.926-3.28,1.817-8.798,1.851-12.322.38-3.994-1.667-4.57-6.887-3.771-11.14,1.315-7,3.323-13.868,4.772-20.847,1.97-9.49,1.9-18.889-3.086-27.572-1.657-2.886-3.726-5.742-6.225-7.894-4.962-4.275-5.476-6.629-1.1-13.359ZM550.648,151.897c2.942-1.565,5.982-2.974,8.792-4.747,2.002-1.263,1.999-2.988-.032-4.47-2.631-1.919-5.249-3.856-7.889-5.763-2.704-1.953-4.818-1.224-5.739,1.801-.75,2.465-1.282,5.139-1.168,7.688.145,3.23,2.233,4.988,6.036,5.49Z"/>
    <path class="cls-1" d="M490.385,88.366c-1.394-1.147-2.401-1.85-3.258-2.702-4.883-4.852-8.805-3.895-10.312,3.12-1.79,8.335-2.818,16.833-4.197,25.257-.519,3.17-1.098,6.331-1.65,9.496-.502.109-1.004.218-1.506.326-1.225-2.667-2.443-5.337-3.676-8-2.142-4.624-4.123-9.334-6.507-13.83-1.423-2.683-3.027-4.752-7.221-4.213-4.83.62-11.062-6.001-10.899-10.662.074-2.128.788-5.553,2.074-6.021,2.123-.772,5.584-.453,7.336.894,3.378,2.599,6.458,5.917,8.753,9.515,3.626,5.683,6.504,11.844,10.323,18.969,1.008-6.482,1.655-11.762,2.69-16.965.907-4.557,2.106-9.07,3.438-13.524,1.75-5.853,5.037-8.085,9.277-6.652,6.49,2.193,8.752,6.417,6.562,12.289-.263.706-.622,1.377-1.227,2.701Z"/>
    <path class="cls-1" d="M207.104,141.587c3.119,4.459,2.203,9.905,3.286,14.879.761,3.493,1.98,7.133,4,10,1,1.42,4.268,1.243,6.51,1.789.391-2.122,1.504-4.429,1.02-6.329-.986-3.875-3.242-7.43-4.196-11.309-.781-3.174-.434-6.626-.587-9.955.552-.054,1.103-.109,1.655-.163,2.674,7.311,5.39,14.608,7.976,21.95.396,1.124.392,2.487.226,3.691-.511,3.714-.999,7.77-5.131,9.187-4.239,1.454-7.891-.366-10.889-3.496-.823-.859-1.586-1.775-2.801-3.142-1.415,1.93-2.536,3.532-3.731,5.076-4.011,5.18-11.467,5.443-14.352-.318-2.325-4.642-2.588-10.311-3.803-15.516-.54-2.313-1.801-4.662-1.599-6.892.258-2.855,1.662-5.606,2.573-8.401l2.353.346c.285,3.545.63,7.087.839,10.637.2,3.405.033,6.845.446,10.218.364,2.975,1.327,5.88,5.022,6.401,3.644.513,6.702-.237,8.877-3.611,2.913-4.519,1.675-9.252,1.169-14.005-.381-3.58-.561-7.182-.83-10.774l1.968-.263Z"/>
    <path class="cls-1" d="M480.199,281.283c2.079-9.567,3.544-17.81,5.79-25.833.783-2.798,3.111-6.539,5.437-7.143,2.311-.601,5.929,1.699,8.217,3.625,3.549,2.987.576,6.419,0,8.927-2.869-1.508-6.451-4.792-8.29-4.004-2.326.996-3.958,5.15-4.612,8.215-1.923,9.01-3.213,18.154-4.752,27.246-.436.095-.871.189-1.307.284-1.165-2.553-2.293-5.125-3.505-7.656-1.928-4.029-3.74-8.128-5.941-12.005-1.257-2.215-2.728-3.868-6.277-3.351-4.411.642-9.489-5.613-9.293-10.206.204-4.759,2.899-6.682,7.048-4.242,3.089,1.817,5.967,4.531,7.989,7.494,2.857,4.186,4.856,8.962,7.183,13.505.669,1.305,1.208,2.676,2.31,5.145Z"/>
    <path class="cls-1" d="M373.802,400.882c-.758-1.563-1.548-3.112-2.269-4.693-1.985-4.354-3.728-8.835-5.982-13.044-1.515-2.831-3.594-4.791-7.598-4.825-4.881-.042-9.245-5.489-8.865-9.631.455-4.95,3.43-6.473,7.668-3.839,6.484,4.029,10.231,10.214,13.205,16.989,1.019,2.322,2.083,4.625,4.143,6.745,1.107-5.984,2.081-11.997,3.375-17.94.687-3.156,1.793-6.244,2.952-9.27,1.552-4.05,4.277-5.348,8.469-3.418,4.121,1.897,6.234,5.316,5.088,9.145-.385,1.286-1.102,2.472-1.844,4.089-.907-1.238-1.479-2.125-2.155-2.923-3.307-3.909-7.806-3.235-9.058,1.787-1.605,6.435-2.363,13.079-3.559,19.619-.679,3.714-1.503,7.402-2.261,11.101-.437.036-.873.071-1.31.107Z"/>
    <path class="cls-1" d="M582.759,296.465c-3.022,5.797-5.869,11.258-8.869,17.013-6.629-3.917-13.108-7.744-19.816-11.707,3.169-5.79,6.045-11.042,9.175-16.76,6.623,3.888,12.955,7.606,19.51,11.454Z"/>
    <path class="cls-1" d="M892.126,239.401c-6.718-3.967-12.979-7.665-19.382-11.446,3.183-5.623,6.263-11.063,9.378-16.566,5.52,3.199,10.478,6.292,15.646,8.979,2.838,1.476,3.545,3.067,1.936,5.812-2.502,4.267-4.924,8.581-7.578,13.221Z"/>
    <path class="cls-1" d="M490.197,198.203c-2.928,5.458-5.762,10.74-8.99,16.758-6.055-3.681-11.744-7.019-17.255-10.63-.751-.492-1.184-2.604-.775-3.529,1.687-3.815,3.684-7.501,5.71-11.154,1.138-2.052,2.656-2.679,4.975-1.209,5.094,3.229,10.347,6.208,16.335,9.764Z"/>
    <path class="cls-1" d="M954.908,169.964c2.732-5.147,4.758-9.531,7.372-13.531.745-1.14,3.651-2.095,4.786-1.54,4.564,2.232,8.795,5.137,13.205,7.695,2.519,1.462,2.987,2.873,1.261,5.563-2.567,4-4.53,8.387-7.035,13.151-6.521-3.775-12.873-7.451-19.589-11.338Z"/>
    <path class="cls-1" d="M932.378,202.573c1.964,4.425-.095,12.219-3.592,14.38-3.257,2.013-7.872,1.16-8.872-2.574-1.53-5.714-2.95-11.858-2.411-17.632.815-8.725,3.255-17.313,5.231-25.906.559-2.431,1.906-4.681,2.892-7.015.413.122.826.244,1.239.367-1.258,5.731-2.755,11.423-3.708,17.205-1.032,6.257-1.588,12.593-2.269,18.904-.114,1.053-.116,2.317.361,3.196,1.158,2.135,2.283,5.38,4.049,5.859,3.286.89,5.774-1.37,6.396-5.03.091-.534.396-1.032.685-1.753Z"/>
    <path class="cls-1" d="M513.147,129.114c-1.476,6.772-3.203,13.502-4.348,20.329-.893,5.329-1.098,10.777-1.522,16.178-.083,1.058-.071,2.316.42,3.187,1.154,2.046,2.624,3.914,3.967,5.854,2.051-1.635,4.128-3.239,6.132-4.929.437-.369.616-1.044.955-1.653,1.786,3.848-.413,11.633-3.719,13.514-3.655,2.08-6.914,1.181-8.896-2.687-3.021-5.898-3.573-12.284-2.361-18.629,1.744-9.123,4.001-18.15,6.155-27.19.368-1.545,1.311-2.954,1.989-4.426l1.228.451Z"/>
    <path class="cls-1" d="M442.314,136.32c-1.557,6.867-3.425,13.683-4.576,20.617-.959,5.78-1.502,11.71-1.365,17.553.057,2.426,1.805,6.061,3.763,6.923,3.679,1.619,5.865-1.223,6.644-4.904.08-.377.533-.675.848-1.052,1.678,4.507-.12,10.974-3.565,13.656-3.431,2.671-6.944,1.707-8.104-1.61-1.89-5.404-3.728-11.424-3.187-16.949.961-9.811,3.628-19.466,5.801-29.138.437-1.947,1.85-3.675,2.814-5.504.309.135.617.271.926.406Z"/>
    <path class="cls-1" d="M152.766,250.841c-.811,3.398-1.067,7.085-2.631,10.092-1.033,1.986-3.949,4.123-6.016,4.118-1.968-.005-5.302-2.442-5.647-4.262-1.218-6.415-2.412-13.129-1.743-19.534.893-8.559,3.443-16.958,5.496-25.374.448-1.835,1.801-3.448,3.619-4.842-1.404,6.349-3.17,12.644-4.111,19.061-.983,6.699-1.337,13.507-1.632,20.281-.135,3.102,1.076,6.042,4.705,6.479,3.534.426,4.637-2.414,5.702-5.073.201-.501.592-.926.895-1.386.454.147.909.294,1.363.44Z"/>
    <path class="cls-1" d="M149.798,136.331c-1.441,6.456-3.157,12.865-4.24,19.38-.962,5.792-1.47,11.691-1.695,17.561-.125,3.269-.457,7.491,3.86,8.533,4.509,1.088,6.022-2.76,8.061-7.237.884,5.897-.167,10.229-3.254,13.677-3.33,3.719-7.888,3.071-9.749-1.554-1.58-3.926-3.066-8.504-2.557-12.537,1.412-11.19,3.826-22.257,6.001-33.342.334-1.702,1.498-3.242,2.277-4.857.431.125.863.25,1.294.376Z"/>
    <path class="cls-1" d="M313.25,342.371c-1.783,8.75-3.784,17.464-5.254,26.266-.708,4.238-.986,8.728-.358,12.941.368,2.473,2.899,4.624,4.457,6.919,1.883-1.535,3.828-3.003,5.618-4.64.713-.652,1.082-1.679,1.607-2.536.46.167.92.334,1.38.502-1.186,3.793-1.812,7.894-3.696,11.302-2.529,4.577-8.318,4.497-10.272-.323-1.911-4.712-3.47-10.261-2.865-15.157,1.322-10.699,4.072-21.225,6.357-31.796.298-1.378,1.294-2.606,1.966-3.904.353.142.706.283,1.059.425Z"/>
    <path class="cls-1" d="M787.882,164.37c-1.227,3.969-1.879,8.252-3.833,11.823-2.209,4.039-8.639,3.447-9.988-1.085-1.688-5.672-3.208-11.945-2.483-17.664,1.318-10.399,4.33-20.585,6.69-30.847.182-.792.803-1.484,2.293-2.007-.221,1.471-.389,2.952-.673,4.41-1.683,8.662-3.587,17.287-4.995,25.993-.534,3.305-.003,6.794.144,10.194.117,2.693.953,5.107,4.147,5.199,3.062.088,5.46-1.106,6.008-4.567.109-.689.436-1.344.663-2.014.675.188,1.35.377,2.025.565Z"/>
    <path class="cls-1" d="M899.369,77.259c-1.374,5.933-3.121,11.809-4.025,17.813-1.076,7.143-1.64,14.386-1.983,21.606-.131,2.755.897,5.571,4.446,6.204,3.673.654,4.868-1.863,6.053-4.496.241-.535.627-1.006,1.028-1.635,1.413,4.891-.7,11.379-4.393,13.911-2.531,1.734-7.122.439-8.165-3.462-1.525-5.701-2.78-11.883-2.174-17.652.98-9.336,3.483-18.523,5.545-27.727.397-1.771,1.725-3.334,2.624-4.993.348.144.696.288,1.044.432Z"/>
    <path class="cls-1" d="M564.006,339.371c-1.682,8.284-3.769,16.513-4.888,24.872-.636,4.754-.671,10.045.809,14.502,1.626,4.899,4.324,4.632,7.413.137.76-1.106,1.328-2.343,2.339-3.444.276,4.343.13,8.698-2.909,12.225-2.857,3.316-7.467,2.339-9.423-1.745-3.18-6.641-2.761-13.66-1.532-20.535,1.303-7.285,3.307-14.448,5.149-21.628.436-1.698,1.446-3.249,2.192-4.867l.852.482Z"/>
    <path class="cls-1" d="M748.247,366.402c-.83,3.235-1.161,6.731-2.668,9.611-.982,1.876-3.722,3.994-5.588,3.916-1.818-.075-4.721-2.581-5.064-4.411-1.096-5.854-2.069-11.968-1.517-17.834.692-7.341,2.851-14.558,4.579-21.78.512-2.138,1.706-4.113,3.623-5.823-1.426,6.729-3.022,13.429-4.219,20.199-.78,4.409-1.103,8.914-1.374,13.391-.099,1.639.154,3.551.956,4.924.839,1.437,2.408,3.046,3.89,3.32,1.183.218,2.904-1.261,4.033-2.352.915-.884,1.306-2.312,1.929-3.498l1.418.337Z"/>
  </g>
  </a>
</svg>