<?xml version="1.0" encoding="UTF-8"?>
<svg id="Nooniyah_Al-Qahtani_Logo" data-name="Nooniyah Al-Qahtani Logo" xmlns="http://www.w3.org/2000/svg" width="2162.998" height="862.159" viewBox="0 0 2162.998 862.159">
  <defs>
    <style>
      
       @import url('../CSS/SvgStyling.css');

    </style>
  </defs>
  
  <g class="word">

    <rect id="bg" class="wordrect" width="2162.998" height="862.159"/>
    <path class="cls-1" d="M593.528,93.041c19.642,33.524,40.013,85.166,38.361,96.989-9.016-1.226-11.236-10.599-18.882-15.379,0,2.675-.266,4.743.039,6.723,8.129,52.686,16.578,105.325,24.406,158.056,5.677,38.246,10.084,76.673,10.98,115.375.525,22.674.079,45.35-6.761,67.344-.425,1.367-.055,2.98-.055,5.895,8.816-8.496,16.542-16.132,24.476-23.546,13.435-12.554,27.954-23.699,43.916-32.89,25.843-14.881,53.316-20.421,82.762-14.149,12.534,2.67,24.058,7.493,34.127,15.733,20.892,17.094,27.41,42.953,15.468,67.362-4.773,9.756-11.911,18.366-18.092,27.416-1.81,2.65-4.029,5.02-6.459,8.008,18.912.49,149.986-39.342,184.774-55.992-2.333-1.308-3.978-2.711-5.863-3.213-20.602-5.485-41.239-10.834-61.873-16.198-1.275-.331-2.892-1.083-3.85-.616-7.934,3.868-15.668.32-23.483-.303-13.947-1.112-27.907-2.06-41.858-3.126-3.897-.298-7.781-.767-12.189-1.21,3.095-12.732,7.429-23.813,15.084-33.237,2.152-2.65,5.571-5.124,8.824-5.872,11.021-2.532,22.169-4.767,33.391-6.042,4.712-.536,9.859,1.182,14.585,2.611,27.418,8.292,54.751,16.861,82.146,25.229,50.08,15.297,101.453,22.168,153.68,23.375,3.627.084,7.258.011,12.104.011-.846,3.461-1.001,6.101-2.102,8.258-4.844,9.484-9.934,18.842-14.99,28.217-2.204,4.086-5.489,4.829-10.085,4.192-10.204-1.412-20.506-2.149-30.781-3.006-3.233-.27-6.508-.042-9.759-.042-.016,20.756,13.079,40.322,31.955,47.504,18.625,7.086,37.329,4.971,55.765-1.355,1.153-.396,2.048-1.543,2.57-1.954-1.808-10.365-4.148-20.06-5.076-29.889-1.773-18.773,2.593-36.409,11.924-52.79,8.787-15.427,18.767-29.916,32.528-41.457,18.59-15.591,29.435-13.064,40.154,8.86,16.866,34.498,10.338,67.281-6.653,99.424-1.351,2.555-2.965,4.972-4.29,7.175.843,1.179,1.126,2.051,1.602,2.173,23.475,6.007,46.646,7.247,68.941-4.595,14.74-7.83,22.177-19.491,19.914-36.668-3.656-27.745-6.351-55.635-10.716-83.264-13.465-85.223-27.477-170.36-41.456-255.501-1.092-6.653-.567-14.043-6.779-19.228-1.229-1.026-1.296-4.637-.595-6.587,4.813-13.379,9.975-26.634,15.464-41.087,2.699,2.39,4.655,3.33,5.336,4.843,14.211,31.575,28.315,63.199,42.29,94.88.949,2.152.709,4.829,1.221,8.813-11.427-5.769-16.72-16.048-26.551-22.765,0,2.954-.311,5.101.045,7.131,10.95,62.342,22.291,124.617,32.842,187.026,5.995,35.46,12.024,70.997,11.122,107.218-.611,24.521-6.998,47.35-19.759,68.33-15.479,25.449-37.971,38.56-67.94,38.121-22.51-.329-44.527-3.188-64.293-13.666-12.688,5.874-24.771,12.192-37.393,17.13-16.133,6.312-32.948,7.712-50.097,4.006-24.407-5.274-41.944-23.361-46.322-47.943-1.889-10.606-2.248-21.173-.396-31.816.605-3.477.819-7.021,1.361-11.856-5.788.432-10.347.484-14.814,1.152-36.721,5.491-72.059,16.396-107.318,27.6-39.994,12.708-79.257,27.625-120.014,38.051-54.79,14.016-110.244,22.56-166.788,24.686-24.943.938-49.803,3.931-74.736,5.394-11.609.681-23.334.475-34.948-.257-30.969-1.953-52.981-18.051-67.747-44.662-13.142-23.684-19.61-49.549-22.778-76.155-5.713-47.975-10.466-96.063-16.089-144.049-7.759-66.214-17.302-132.166-31.91-197.272-2.104-9.379-5.511-18.48-8.58-27.621-.804-2.395-2.603-4.456-4.547-7.664-4.123,6.105-7.654,11.333-11.184,16.561-.868-.23-1.736-.459-2.604-.689-.173-3.724-1.023-7.566-.403-11.153,2.87-16.584,9.177-31.992,17.479-46.537,4-7.009,8.338-7.333,12.881-.649,3.693,5.433,6.554,11.607,8.817,17.805,9.755,26.721,14.893,54.61,19.805,82.497,12.378,70.275,18.838,141.346,28.182,212.031,4.409,33.351,8.878,66.705,14.163,99.924,2.895,18.192,9.331,35.456,19.441,51.053,14.677,22.643,35.177,34.68,62.62,34.151,9.853-13.135,19.841-25.621,28.803-38.803,3.599-5.293,6.107-11.934,7.111-18.278,4.1-25.912,1.617-51.916-.874-77.779-6.072-63.047-15.963-125.579-26.201-188.059-5.873-35.84-11.332-71.747-16.875-107.64-1.226-7.941-2.521-15.651-7.51-22.453-1.703-2.322-2.608-6.601-1.699-9.234,4.562-13.217,11.664-25.185,19.555-38.136ZM609.21,592.319c1.953.37,2.914.712,3.871.703,2.659-.025,5.317-.194,7.976-.311,38.426-1.682,75.991-8.744,113.043-18.623,25.712-6.856,51.287-14.253,75.519-25.553,14.858-6.929,16.153-14.689,4.241-27.627-.672-.73-1.466-1.355-2.242-1.98-17.149-13.826-36.568-21.531-58.755-21.632-24.098-.11-45.632,7.985-65.692,20.72-29.859,18.956-54.066,44.036-76.681,70.831-.562.665-.656,1.725-1.28,3.473ZM1208.07,529.398c.569,3.316.619,5.384,1.289,7.227,4.211,11.583,13.202,18.952,23.095,25.34,1.272.822,4.112.559,5.485-.336,8.906-5.806,17.678-11.825,26.337-17.995,3.152-2.246,4.505-5.394,3.691-9.606-2.446-12.646-7.22-24.307-14.965-34.524-5.631-7.429-10.118-8.172-18.144-3.31-9.531,5.773-17.131,13.736-22.82,23.311-1.98,3.333-2.945,7.269-3.969,9.894Z"/>
    <path class="cls-1" d="M1400.475,566.508c-.261,4.443-.176,7.559-.667,10.581-2.898,17.823-4.602,35.729-3.151,53.774,1.438,17.882,5.887,34.97,17.205,49.284,4.434,5.608,10.037,10.82,16.153,14.452,10.176,6.043,18.74,4.255,27.267-3.971,10.234-9.873,17.226-22.051,23.458-34.593,6.52-13.12,12.33-26.592,18.443-39.914,10.637-23.181,23.67-44.809,42.26-62.54,4.987-4.757,10.879-8.938,17.039-12.013,11.653-5.817,20.116-3.437,27.922,7.061,6.559,8.82,12.496,18.102,19.083,26.899,23.971,32.011,68.99,37.495,100.161,12.12,3.79-3.085,6.892-7.207,9.693-11.275,6.231-9.05,11.771-18.586,18.212-27.475,2.616-3.61,4.352-9.281,11.321-8.787-.154,1.909-.096,3.531-.438,5.063-4.546,20.322,7.229,39.25,27.496,43.692,15.485,3.394,29.749-.663,43.242-8.099,4.316-2.378,6.089-6.034,3.677-10.915-2.508-5.075-5.46-10.003-7.301-15.313-1.576-4.547-3.003-9.675-2.475-14.315,1.149-10.1,2.888-20.239,7.261-31.158,2.432,2.643,4.198,4.018,5.268,5.809,15.068,25.21,17.559,52.182,9.63,79.975-5.351,18.759-16.054,27.654-39.628,35.595-6.861,31.334-8.75,62.224,12.604,90.077,12.621,16.463,29.692,23.977,50.095,25.018,23.38,1.193,44.894-5.588,65.349-15.816,37.859-18.931,71.135-44.428,101.943-73.246,3.381-3.163,6.234-6.921,9.136-10.559,8.217-10.302,8.892-21.081,1.311-33.197-2.574.72-5.35,1.367-8.04,2.271-16.228,5.455-32.766,9.416-49.995,7.839-7.2-.659-14.519-2.248-21.3-4.733-11.055-4.051-16.978-12.863-17.667-24.48-1.681-28.33,10.781-50.451,32.33-67.405,10.783-8.483,23.683-8.494,35.887-1.816,15.268,8.355,27.258,20.105,35.173,35.773,4.465,8.839,4.503,8.946,13.498,5.527,8.406-3.195,16.8-6.449,25.031-10.062,4.855-2.132,9.654-4.623,13.992-7.65,6.168-4.304,6.824-6.726,3.775-13.525-3.266-7.285-6.911-14.425-10.802-21.399-10.573-18.95-18.814-38.915-27.491-58.76-5.087-11.635-4.209-21.562-1.289-32.49,1.608-6.017,3.466-11.967,5.692-19.592,15.517,13.203,27.851,26.436,38.484,44.031h-18.457c1.942,3.939,3.307,6.798,4.749,9.617,8.656,16.922,17.792,33.778,21.763,52.487,5.544,26.118,1.354,50.479-17.123,70.923-8.38,9.272-19.125,15.676-30.388,20.713-6.665,2.98-9.393,6.491-9.442,14.05-.193,29.792-9.84,56.006-30.46,78.133-35.642,38.246-75.819,70.075-124.773,89.637-14.336,5.729-29.345,8.542-44.959,7.832-35.713-1.623-60.845-20.939-71.457-55.154-7.498-24.175-7.03-48.639-2.6-73.203,1.708-9.474,3.985-18.846,6.29-29.608-13.071,1.454-25.303.377-36.056-7.669-10.999-8.229-14.055-20.382-17.197-35.221-3.636,5.222-6.021,8.568-8.324,11.97-7.516,11.103-16.141,21.139-26.736,29.505-29.333,23.161-70.342,19.044-94.753-10.539-7.624-9.239-15.46-18.334-23.669-27.052-9.767-10.373-16.861-11.225-31.363-3.453-11.452,6.138-19.19,16.242-26.128,27.012-11.83,18.367-18.721,38.995-27.29,58.856-3.431,7.952-6.099,16.325-10.346,23.808-4.555,8.028-9.732,16.035-16.111,22.624-11.316,11.689-26.677,12.545-40.038,3.202-4.315-3.017-8.313-6.76-11.681-10.815-17.32-20.855-27.993-44.486-28.457-72.002-.355-21.088,1.684-41.962,7.283-62.353,1.227-4.469,1.828-9.755,8.877-13.044ZM2006.341,579.078c-5.283-9.197-12.506-13.566-20.602-16.56-11.344-4.195-18.017-1.326-24.417,9.999,1.351,5.145,5.219,7.501,10.097,8.042,11.175,1.24,22.336,1.22,34.922-1.481Z"/>
    <path class="cls-1" d="M282.839,538.468c4.53-12.376,8.716-23.538,12.681-34.779,1.549-4.393,4.844-5.667,8.936-6.851,18.234-5.276,36.414-10.75,54.508-16.483,5.033-1.595,9.703-4.332,14.548-6.527,4.718-2.138,5.314-5.79,3.15-9.894-2.481-4.702-5.025-9.47-8.258-13.655-8.143-10.542-16.712-20.754-25.069-31.132-11.943-14.83-22.904-30.3-30.905-47.691-.972-2.113-1.723-4.63-3.356-6.085-6.479-5.775-6.097-12.632-4.303-20.157,1.976-8.291,3.424-16.708,5.509-27.101,17.332,12.446,31.895,24.474,43.644,39.608-.274.697-.548,1.394-.823,2.091-4.628-.685-9.256-1.37-15.266-2.259,1.813,3.014,2.728,5.009,4.058,6.671,8.535,10.668,16.71,21.67,25.842,31.806,29.821,33.101,27.11,75.443,9.011,104.703-.477.771-.505,1.819-.986,3.682,8.397.997,16.592,1.463,24.564,3.053,8.431,1.682,16.979,3.633,24.891,6.889,15.437,6.353,23.107,18.435,22.807,35.287-.434,24.441-8.858,45.604-26.453,62.745-18.298,17.827-39.876,31.168-61.886,43.728-38.523,21.984-77.631,42.854-120.145,56.312-29.488,9.334-59.426,14.958-90.558,9.702-46.953-7.927-84.252-44.94-92.369-91.917-6.231-36.061-1-71.015,10.328-105.33,3.328-10.082,7.235-19.974,10.958-30.175-23.738-8.613-27.5-29.196-28.332-49.401-.689-16.748,2.293-33.841,5.228-50.503,5.391-30.606,14.859-60.126,26.907-88.776,1.575-3.746,4.119-7.085,7.397-12.605,2.487,7.921-.067,12.742-1.3,17.601-7.206,28.404-14.814,56.71-21.643,85.203-3.349,13.972-5.083,28.415-1.043,42.549,1.771,6.197,4.853,12.411,8.78,17.508,5.947,7.719,20.55,8.121,26.577-2.092,3.324-5.632,7.046-11.028,12.575-16.255.444,2.326,1.545,4.747,1.222,6.962-1.789,12.287-4.874,24.321-11.96,34.658-3.091,4.509-8.09,7.681-12.048,11.635-2.008,2.006-4.547,4.132-5.281,6.659-7.258,24.98-13.257,50.151-14.814,76.337-3.526,59.315,35.229,91.607,79.101,102.586,19.306,4.831,38.927,4.267,58.511,1.692,39.921-5.248,76.511-20.269,111.808-38.767,33.662-17.641,66.464-36.767,97.454-58.858,1.898-1.353,3.729-2.805,5.55-4.261,8.447-6.755,8.21-10.605-1.353-16.102-9.707-5.58-20.483-7.935-31.448-9.204-29.783-3.449-59.595-6.635-89.385-10.025-5.497-.626-10.941-1.721-17.562-2.785Z"/>
    <path class="cls-1" d="M1433.505,38.79c-3.657,12.035-7.764,21.979-14.733,30.607-3.294,4.079-7.763,5.834-12.732,7.205-53.945,14.89-108.168,28.885-161.678,45.21-69.145,21.095-138.014,43.196-206.457,66.465-108.929,37.034-215.26,80.679-319.429,129.551-3.609,1.693-7.161,3.512-10.778,5.187-.543.251-1.302.035-2.247.035-.257-.831-.984-1.877-.723-2.528,6.788-16.958,15.378-32.247,32.42-41.531,31.372-17.093,63.896-31.635,96.847-45.288,112.788-46.731,228.513-85.17,344.861-121.813,80.718-25.421,161.927-49.178,243.79-70.662,3.102-.814,6.26-1.412,10.859-2.439Z"/>
    <path class="cls-1" d="M1463.814,336.092c6.219-14.479,12.882-28.91,28.195-36.462,25.085-12.371,50.072-25.076,75.809-35.965,92.762-39.249,188.173-71.223,284.053-101.831,78.069-24.922,156.642-48.128,235.88-69.06,2.14-.565,4.336-.917,6.71-1.41-1.644,18.655-10.126,28.795-27.557,33.68-50.354,14.111-100.913,27.537-151.016,42.491-120.458,35.954-238.996,77.412-354.553,127.062-29.682,12.753-58.85,26.701-88.267,40.073-2.552,1.16-5.2,2.111-7.804,3.158-.484-.579-.967-1.158-1.451-1.737Z"/>
    <path class="cls-1" d="M1396.283,98.473c17.025,31.927,32.248,64.708,45.194,98.556.877,2.293.992,4.878,1.693,8.537-12.684-4.126-17.113-16.198-27.773-22.413.301,3.357.344,5.542.71,7.671,14.583,84.998,29.596,169.925,43.595,255.018,5.076,30.856,8.038,62.078,11.412,93.192,3.175,29.282-1.853,57.755-10.153,85.756-.659,2.223-1.657,4.348-2.532,6.505-.378.932-.843,1.828-1.269,2.741-.777-.161-1.553-.321-2.33-.482-.8-3.261-2.033-6.485-2.321-9.791-1.039-11.943-1.234-23.978-2.697-35.862-4.962-40.312-9.442-80.713-15.735-120.825-11.508-73.35-24.315-146.494-36.297-219.771-4.728-28.917-8.673-57.961-13.029-86.939-.737-4.905-1.349-9.749-5.26-13.691-1.468-1.48-2.17-5.095-1.467-7.131,4.755-13.774,9.979-27.385,15.052-41.049,1.068-.008,2.136-.016,3.204-.024Z"/>
    <path class="cls-1" d="M1162.387,48.863c-.369,13.544-3.998,18.709-14.82,22.591-134.187,48.138-268.218,96.704-400.557,149.766-24.396,9.782-48.128,21.24-72.024,32.234-5.268,2.424-10.891,4.903-15.222,11.295,2.759,1.879,4.838,3.98,7.345,4.867,5.95,2.105,12.086,3.695,18.178,5.382,8.941,2.476,10.488,5.144,7.658,13.535-3.159,9.367-5.273,10.78-14.714,7.434-7.172-2.542-14.229-5.754-20.784-9.608-9.062-5.327-10.219-9.181-7.068-19.149,1.602-5.069,3.941-9.904,5.599-14.958,2.677-8.161,8.218-13.463,15.813-16.994,15.099-7.02,29.871-14.844,45.302-21.03,74.503-29.869,148.956-59.885,223.867-88.704,57.183-21.999,114.977-42.422,172.612-63.233,12.822-4.63,26.097-8.017,39.211-11.81,3.042-.88,6.281-1.078,9.604-1.618Z"/>
    <path class="cls-1" d="M222.205,387.827c-2.272-2.109-4.297-4.148-6.488-5.988-4.415-3.706-9.398-4.753-14.928-2.862-5.315,1.818-6.692,6.281-6.979,11.078-1.153,19.28-2.077,38.573-3.158,57.858-.206,3.678,1.058,5.939,4.305,8.12,6.328,4.252,12.356,9.045,18.032,14.143,3.7,3.323,6.558,7.288,4.499,13.214-2.03,5.841-4.967,9.192-11.477,10.671-11.634,2.644-23.201,6.008-34.348,10.249-10.797,4.107-11.926,7.165-9.715,18.512,7.961,40.856,16.159,81.665,23.965,122.55,1.91,10.005,4.5,20.082,2.884,31.228-5.283-2.823-4.278-7.773-5.062-11.517-5.728-27.375-11.055-54.834-16.662-82.235-3.537-17.287-7.592-34.471-10.926-51.795-2.034-10.571-2.162-21.152,3.061-31.216,4.806-9.261,11.927-15.9,21.291-20.251,2.353-1.093,4.808-1.968,7.593-3.095-8.319-6.101-11.147-5.233-21.845,7.051-.52-11.466,3.292-19.673,10.322-26.467,6.151-5.944,6.405-5.787,2.805-13.032-5.629-11.329-11.884-22.252-21.028-31.804-2.506,1.602-4.656,2.977-7.669,4.904-5.371-3.19-11.217-6.302-16.678-9.984-9.695-6.537-11.099-10.733-8.161-21.853,1.823-6.898,4.908-8.871,11.7-6.727,11.476,3.623,20.78,10.676,27.944,20.132,5.606,7.4,10.225,15.547,15.297,23.353.868,1.336,1.81,2.626,4.634,3.907.373-2.99.967-5.971,1.078-8.97.344-9.318-.104-18.711.932-27.943.803-7.161,2.526-14.49,5.372-21.082,3.359-7.779,9.302-9.599,17.422-7.044,2.195.69,4.331,1.737,6.303,2.935,10.163,6.175,11.499,11.478,5.685,23.959Z"/>
    <path class="cls-1" d="M1875.97,532.177c-.74-2.135-1.728-4.219-2.182-6.413-9.039-43.696-18.032-87.401-26.985-131.115-.934-4.562-1.727-9.167-2.298-13.788-2.463-19.945,6.352-36.213,24.265-44.996,2.584-1.267,5.191-2.488,8.254-3.954-9.158-5.175-9.566-5.053-22.591,7.086,1.619-11.378,4.376-20.475,12.101-26.66,4.834-3.871,5.139-7.148,2.433-11.786-4.694-8.048-9.249-16.186-14.23-24.053-1.882-2.972-4.787-5.296-7.398-8.102-2.955,1.571-5.215,2.773-8.173,4.346-6.303-3.886-13-7.6-19.233-11.974-6.359-4.461-7.918-19.637-2.43-25.067,1.641-1.624,5.625-2.06,8.125-1.424,8.885,2.26,16.975,6.726,22.735,13.783,7.754,9.501,14.494,19.829,21.661,29.808,1.05,1.462,2.056,2.954,4.841,4.177.269-3.467.621-6.929.793-10.401.545-10.972.471-22.012,1.75-32.894.678-5.767,3.006-11.613,5.772-16.792,3.35-6.273,8.609-7.724,15.371-5.546,2.196.707,4.313,1.788,6.307,2.966,10.722,6.334,12.068,10.875,6.699,23.777-1.885-1.444-3.817-2.575-5.307-4.131-4.635-4.841-10.207-6.335-16.406-4.287-6.167,2.038-6.838,7.618-7.144,13.071-1.026,18.291-1.92,36.589-3,54.876-.264,4.469,1.275,7.384,5.122,9.903,5.546,3.632,10.734,7.857,15.82,12.132,4.488,3.772,7.486,8.043,5.789,14.759-1.76,6.966-6.183,9.257-12.564,10.777-10.328,2.459-20.682,5.209-30.574,9.011-13.546,5.206-14.639,7.8-11.864,21.854,5.999,30.386,12.293,60.714,18.209,91.115,3.052,15.686,5.645,31.464,8.243,47.234.667,4.046.569,8.219.822,12.333-.911.124-1.823.249-2.734.373Z"/>
    <path class="cls-1" d="M372.685,92.656c-2.267,10.601-6.647,16.518-15.525,19.891-37.971,14.427-75.985,28.792-113.522,44.297-43.091,17.799-85.749,36.656-128.478,55.32-12.504,5.462-24.639,11.774-36.876,17.832-3.198,1.583-6.143,3.676-10.059,6.054,2.182,2.383,3.375,4.414,5.147,5.488,5.95,3.607,12,7.088,18.217,10.207,5.553,2.787,6.944,4.894,5.23,9.779-1.884,5.369-5.581,7.641-10.963,4.624-8.036-4.505-16.139-9.527-22.677-15.904-7.736-7.545-3.89-26.346,5.816-32.768,4.422-2.926,9.236-5.345,14.078-7.54,86.48-39.198,173.994-75.927,262.711-109.771,5.595-2.134,11.326-3.937,17.066-5.656,2.75-.824,5.667-1.092,9.835-1.854Z"/>
    <path class="cls-1" d="M1125.95,248.562c.306-3.098.798-6.191.883-9.296.238-8.661-.382-17.41.652-25.965.903-7.474,2.787-15.074,5.716-21.992,3.027-7.148,9.335-8.851,16.76-6.34,13.686,4.628,17.191,12.198,11.138,26.081-2.013-1.987-3.642-3.813-5.492-5.376-3.981-3.362-8.357-5.26-13.773-3.686-5.756,1.673-7.806,5.953-8.115,11.294-1.079,18.626-1.938,37.266-3.046,55.89-.23,3.871,1.49,5.916,4.48,8.076,5.92,4.277,11.341,9.238,17.112,13.733,4.956,3.86,5.624,8.62,3.897,14.281-1.654,5.422-5.222,7.648-10.724,8.92-10.331,2.388-20.746,5.027-30.532,9.019-13.711,5.594-14.359,7.832-11.518,22.044,6.14,30.71,12.461,61.385,18.397,92.134,2.777,14.384,4.935,28.892,7.144,43.378.509,3.338.075,6.82-1.784,10.512-.658-1.649-1.578-3.243-1.937-4.954-8.607-41.081-17.193-82.167-25.671-123.275-1.277-6.19-2.181-12.472-2.945-18.75-2.359-19.381,5.673-34.517,22.988-43.628,2.575-1.355,5.195-2.624,8.132-4.103-8.296-5.168-9.176-4.919-18.998,4.807-2.157-8.97.283-14.164,13.763-28.742-4.761-13.643-12.122-26.057-21.983-37.144-4.34-.621-7.355,5.389-12.157,1.887-6.411-4.675-13.57-8.404-19.593-13.502-3.316-2.807-1.82-16.516,1.041-20.077,2.51-3.124,6.017-3.278,9.075-1.788,5.94,2.894,11.969,5.883,17.251,9.791,10.088,7.464,16.968,17.759,22.997,28.622,1.568,2.825,3.189,5.619,4.786,8.428.684-.093,1.369-.186,2.053-.279Z"/>
    <path class="cls-1" d="M200.041,790.702c-6.492,11.406-12.231,21.49-18.593,32.667-14.783-8.741-29.24-17.29-44.677-26.418,7.311-12.671,14.207-24.623,21.813-37.806,14.776,8.284,29.102,16.317,44.245,24.807,5.903-10.659,11.641-21.02,17.785-32.113,14.841,8.704,29.09,17.062,44.359,26.017-7.336,12.953-14.44,25.499-21.728,38.368-14.875-8.787-28.558-16.87-43.203-25.521Z"/>
    <path class="cls-1" d="M1743.687,709.299c-7.417,12.958-14.317,25.012-21.821,38.122-14.603-8.393-28.571-16.421-43.379-24.933-6.318,10.836-12.288,21.074-18.687,32.049-14.795-8.566-29.042-16.814-44.256-25.622,7.287-13.15,14.129-25.497,21.377-38.577,15.225,8.61,29.609,16.744,44.483,25.155,5.968-10.836,11.662-21.177,17.698-32.137,14.835,8.632,29.131,16.951,44.584,25.943Z"/>
    <path class="cls-1" d="M1503.49,401.101c7.066-12.807,13.629-24.703,20.694-37.508,14.835,8.693,29.089,17.047,44.349,25.989-6.935,12.91-13.461,25.062-20.479,38.126,11.851,7.111,23.365,14.02,35.595,21.359-7.424,13.155-14.372,25.466-21.625,38.318-14.807-8.537-28.859-16.638-43.732-25.213,7.082-13.15,13.651-25.345,20.681-38.397-11.052-8.629-24.529-13.851-35.482-22.673Z"/>
    <path class="cls-1" d="M1274.513,390.056c-15.138-8.833-28.863-16.841-43.63-25.457-6.332,10.695-12.334,20.832-18.831,31.806-14.952-8.74-29.191-17.064-44.161-25.815,7.215-12.917,13.934-24.945,21.317-38.163,14.695,8.531,28.674,16.646,43.894,25.483,5.911-10.438,11.726-20.706,18.121-31.999,14.818,8.604,29.011,16.845,44.272,25.706-7.106,13.019-13.873,25.417-20.981,38.44Z"/>
    <path class="cls-1" d="M1904.81,305.186c2.932-1.828,5.82-3.732,8.804-5.472,23.862-13.911,47.955-27.441,71.544-41.799,17.081-10.396,32.947-22.586,47.095-36.845,2.068-2.084,3.987-4.318,6.461-7.013-2.272-1.792-3.97-3.211-5.756-4.511-1.071-.78-2.311-1.321-3.416-2.059-17.681-11.812-20.287-23.868-8.117-41.105,3.962-5.612,8.826-11.043,14.398-14.964,10.226-7.195,19.439-3.172,20.766,9.229,1.049,9.801.031,19.831-.215,29.755-.056,2.249-.711,4.484-1.194,7.338,6,2.483,11.732,4.856,18.249,7.553-.982,3.765-2.009,7.198-2.766,10.689-3.732,17.221-7.981,34.361-10.815,51.73-1.305,8.001-.154,16.496.598,24.702.403,4.394,2.713,8.485,7.972,8.914,5.022.41,7.846-2.927,10.06-6.883,1.048-1.872,2.041-3.776,3.771-5.388,1.758,8.856.668,17.199-4.471,24.399-6.004,8.412-16.163,7.527-20.978-1.515-4.993-9.376-7.198-19.573-5.661-29.973,2.427-16.432,5.802-32.724,8.823-49.067.655-3.542,1.514-7.047,2.516-11.661-5.735-1.927-10.952-3.68-16.342-5.492-38.255,44.032-85.746,73.024-140.008,91.414-.439-.659-.879-1.317-1.318-1.976ZM2046.903,195.882c3.698-7.111,4.604-13.153,2.816-19.447-1.544-5.434-5.045-7.642-11.313-7.654-5.912-.011-10.184,2.599-11.897,7.243-1.953,5.295.345,9.388,4.503,11.984,4.897,3.058,10.371,5.193,15.891,7.873Z"/>
    <path class="cls-1" d="M660.791,700.587c1.648-12.187,6.72-19.907,15.028-25.461,4.533-3.031,9.028-1.239,12.851,1.907,4.11,3.382,5.628,8.02,5.874,13.258.507,10.814-1.542,21.18-5.027,31.342-1.042,3.04-1.923,6.136-1.452,10.636,3.78-2.208,7.619-4.32,11.327-6.643,9.275-5.81,18.947-5.607,28.723-1.779,7.264,2.845,9.616,6.92,9.157,14.759-.557,9.508-4.6,17.376-11.995,23.224-3.873,3.063-8.173,5.89-12.72,7.746-26.124,10.659-53.398,16.223-81.579,16.994-9.718.266-26.177-7.283-34.833-15.555,4.461-.324,7.963-.598,11.468-.83,10.284-.68,20.624-.908,30.829-2.207,4.731-.602,9.607-2.611,13.716-5.127,17.961-11,28.522-27.542,33.707-47.615,1.138-4.405,1.505-9.283.966-13.792-1.255-10.487-10.796-14.059-19.063-7.461-1.953,1.558-3.651,3.435-6.975,6.604ZM665.704,764.618c8.237,1.253,29.147-3.589,47.46-11.177,4.372-1.812,9.208-3.217,12.152-8.167-6.877-5.362-14.107-7.865-21.811-6.518-16.086,2.812-28.094,12.399-38.001,24.913-.128.162.125.626.2.949Z"/>
    <path class="cls-1" d="M1691.788,176.134c17.69-10.848,37.134-17.969,54.68-29.271-20.259-6.815-41.056-6.359-62.857-7.26,5.927-11.136,13.006-20.131,21.047-28.304,1.822-1.852,5.417-2.529,8.262-2.713,19.536-1.259,38.43,2.431,56.918,8.328,5.87,1.872,7.984,6.721,6.509,12.642-.239.959-.639,1.904-1.112,2.775-10.108,18.641-22.742,34.495-44.702,39.771-12.586,3.024-25.272,5.448-38.745,4.031Z"/>
    <path class="cls-1" d="M1632.629,338.703c3.932-7.524,4.949-15.175,12.381-19.18,4.737,3.874,4.317,9.06,4.503,13.881.333,8.644.318,17.3.526,25.95.048,1.99.368,3.978.633,5.958,1.581,11.858,6.498,17.18,15.712,17.042,9.653-.145,18.959-8.265,18.922-18.372-.037-10.236-1.542-20.538-3.235-30.672-1.054-6.308-.315-11.711,3.785-18.226,1.834,2.842,3.872,4.709,4.3,6.891,1.783,9.099,3.061,18.297,4.564,27.452.91,5.542,1.336,11.246,2.997,16.56,1.76,5.632,6.104,9.606,11.898,11.165,9.017,2.426,13.959-2.337,11.148-11.127-2.832-8.858-6.004-17.724-10.183-26.003-4.626-9.164-2.619-17.113,1.679-25.802,1.134.928,2.196,1.362,2.486,2.1,4.621,11.749,9.146,23.536,13.688,35.316,3.149,8.167,5.425,16.48,3.762,25.344-1.521,8.103-3.837,15.995-13.019,18.363-9.343,2.409-16.886-1.838-23.372-8.152-1.84-1.791-3.126-4.151-5.254-7.05-1.842,2.099-3.343,3.6-4.594,5.286-1.581,2.13-2.749,4.591-4.46,6.598-10.309,12.093-26.366,11.525-34.17-2.361-4.251-7.566-5.692-16.835-7.668-25.503-1.016-4.458-.802-9.31-.464-13.934.375-5.133-.889-9.093-6.564-11.522Z"/>
    <path class="cls-1" d="M203.959,235.106c5.724,14.151,11.837,27.417,16.356,41.205,2.307,7.039,2.916,15.117,2.261,22.546-1.492,16.924-14.952,23.377-29.346,14.393-4.593-2.866-8.177-7.349-12.879-11.698-1.83,2.789-3.558,5.483-5.344,8.137-4.922,7.315-11.286,12.49-20.586,11.815-9.743-.707-15.481-7.067-19.151-15.461-4.497-10.285-4.929-21.319-5.34-32.314-.166-4.448,1.868-9.388-3.811-12.375-.962-.506-1.326-3.894-.679-5.397,2.308-5.36,5.17-10.481,8.671-17.358,2.368,3.566,4.279,5.209,4.557,7.092.869,5.892,1.234,11.868,1.586,17.823.45,7.633.159,15.348,1.155,22.9,1.589,12.042,7.912,18.044,16.808,17.119,10.012-1.041,19.205-11.156,18.474-21.462-.658-9.27-1.999-18.556-3.92-27.648-1.337-6.328.23-11.645,2.674-18.749,2.206,2.659,3.884,4.05,4.75,5.834,3.86,7.954,4.718,16.521,5.035,25.252.204,5.621.783,11.297,1.919,16.799,1.435,6.948,6.012,11.771,12.384,14.73,3.944,1.832,7.847,1.436,11.152-1.569,2.912-2.648,2.553-5.892,1.246-9.199-3.425-8.668-6.743-17.378-10.282-25.999-4.537-11.051-4.299-14.895,2.31-26.416Z"/>
    <path class="cls-1" d="M124.209,147.888c-19.656-6.259-39.813-6.057-60.96-6.996,6.034-10.84,12.699-19.783,20.838-27.531,1.695-1.614,4.82-2.15,7.36-2.385,18.912-1.749,37.19,1.647,54.994,7.69,6.98,2.369,9.41,7.647,6.215,14.274-8.338,17.298-20.043,32.068-39.006,37.862-12.928,3.95-26.731,5.047-40.162,7.312-.723.122-1.615-.759-4.15-2.05,18.709-10.175,37.582-17.143,54.872-28.176Z"/>
    <path class="cls-1" d="M967.007,257.102c14.257,11.587,22.203,25.317,27.734,40.443,6.418,17.551,7.78,35.607,4.116,54.116-2.684,13.556-4.867,13.658,10.308,21.548,5.832,3.032,11.301,7.112,16.178,11.547,7.287,6.627,9.336,14.984,6.043,24.593-3.229,9.425-8.16,17.456-16.711,22.948-15.893,10.207-33.041,2.369-33.693-16.314-.354-10.134,1.843-20.46,3.731-30.541,1.897-10.128,5.447-19.956,7.183-30.102,2.875-16.801.817-33.165-6.473-48.783-4.056-8.69-10.015-15.859-17.588-21.414-6.468-4.745-8.071-9.98-4.787-17.133,1.354-2.95,2.24-6.114,3.958-10.909ZM1023.456,408.061c.084-1.109.168-2.218.253-3.326-5.15-3.987-10.161-8.172-15.479-11.92-12.173-8.58-15.809-7.067-18.931,7.579-.346,1.621-.573,3.288-.647,4.943-.466,10.403,7.106,16.532,16.869,12.77,6.329-2.439,11.98-6.636,17.935-10.045Z"/>
    <path class="cls-1" d="M279.419,769.25c-1.736-13.403.027-17.18,9.774-21.544,56.314-25.215,113.989-46.867,172.666-65.888,3.106-1.007,6.282-1.798,9.583-2.734.638,10.966-2.207,15.302-12.213,19.032-25.287,9.428-50.605,18.77-75.893,28.197-34.033,12.687-68.028,25.465-100.337,42.254-.815.424-1.876.375-3.581.684Z"/>
    <path class="cls-1" d="M1402.209,804.918c-.921-15.567.213-17.792,12.464-23.149,55.175-24.127,111.441-45.374,168.787-63.756,1.876-.601,3.835-.941,5.79-1.411.863,8.406-1.741,13.922-8.417,16.933-4.836,2.181-9.965,3.705-14.92,5.632-46.461,18.07-92.946,36.079-139.336,54.328-8.237,3.24-16.071,7.503-24.367,11.424Z"/>
    <path class="cls-1" d="M1043.411,743.427c-2.545,7.753-7.95,12.177-13.553,16.189-15.565,11.142-33,15.385-52.001,13.105-1.975-.237-3.936-.698-5.865-1.203-12.994-3.399-18.186-10.992-16.339-24.323,1.716-12.387,7.903-22.547,16.752-31.06,5.027-4.836,10.615-9.088,15.926-13.631,2.446-2.093,4.833-4.255,8.681-7.652-15.547-4.673-28.76-2.723-41.907,2.622.942-11.864,8.454-21.09,19.088-22.042,9.219-.826,18.617-.57,27.866.132,7.304.554,10.315,4.748,8.257,11.696-1.655,5.587-4.321,11.346-8.061,15.73-5.125,6.008-11.724,10.753-17.631,16.104-5.656,5.123-11.819,9.838-16.701,15.625-6.071,7.197-4.572,12.024,3.422,16.932,6.473,3.975,13.405,5.712,20.936,5.352,14.787-.708,28.994-3.819,42.473-10.07,2.821-1.308,5.768-2.344,8.657-3.505Z"/>
    <path class="cls-1" d="M1691.225,507.452c2.014-11.746,3.709-23.558,6.15-35.214,1.695-8.097,3.866-16.193,6.854-23.889,2.266-5.839,5.808-11.79,13.577-11.249,8.165.568,14.773,4.639,18.465,11.88,3.149,6.176-.644,12.173-2.188,20.317-3.776-3.304-6.35-5.488-8.849-7.754-7.633-6.923-13.116-6.296-16.531,3.51-3.577,10.27-5.579,21.14-7.657,31.867-1.895,9.78-2.87,19.736-4.456,29.581-.616,3.82-1.795,7.549-2.824,11.753-5.707-1.304-6.757-5.297-8.078-8.849-2.201-5.916-4.002-11.982-6.244-17.881-3.593-9.453-9.219-17.582-16.49-24.641-11.001,2.416-18.58-3.785-25.777-10.155-4.174-3.695-4.303-17.354-.813-21.687,2.843-3.53,7.017-4.715,10.755-2.659,5.732,3.153,11.625,6.603,16.178,11.189,9.469,9.539,15.719,21.352,20.799,33.758,1.468,3.583,3.103,7.098,4.661,10.644.823-.173,1.646-.347,2.469-.52Z"/>
    <path class="cls-1" d="M784.68,404.396c2.139-11.757,3.946-23.587,6.529-35.246,1.863-8.412,4.209-16.81,7.34-24.824,3.456-8.845,9.348-11.494,17.26-9.235,9.998,2.854,16.195,10.832,14.722,19.43-.596,3.481-1.986,6.826-3.483,11.782-3.681-3.369-6.187-5.74-8.776-8.018-7.142-6.285-12.979-5.543-16.132,3.453-3.381,9.648-5.29,19.869-7.187,29.963-1.842,9.802-2.683,19.788-4.305,29.637-.74,4.492-2.302,8.848-3.534,13.426-5.412-.643-6.477-4.336-7.702-7.6-1.986-5.294-3.06-11.012-5.608-15.994-4.206-8.224-9.066-16.146-14.151-23.865-1.147-1.741-4.43-3.126-6.599-2.961-9.314.711-15.792-4.531-21.879-10.097-4.853-4.437-5.22-17.621-.596-22.216,1.932-1.92,6.396-3.224,8.8-2.34,5.151,1.895,10.314,4.721,14.399,8.369,11.405,10.183,18.422,23.447,24.246,37.381,1.34,3.206,2.763,6.377,4.148,9.564.836-.203,1.672-.407,2.507-.61Z"/>
    <path class="cls-1" d="M1507.53,181.045c1.852-10.74,3.409-21.542,5.649-32.2,1.772-8.434,3.908-16.86,6.778-24.972,2.122-5.995,5.533-11.572,13.528-11.123,7.056.396,16.656,7.143,18.612,13.319,1.14,3.6-.436,9.976-4.392,17.183-3.249-2.872-6.248-5.909-9.633-8.429-6.068-4.518-9.749-4.055-12.646,2.72-2.977,6.96-5.125,14.425-6.516,21.878-2.44,13.073-3.89,26.328-6.05,39.459-.676,4.112-2.302,8.067-3.778,13.056-6.349-5.063-7.969-11.166-9.737-17.11-2.964-9.971-6.849-19.487-13.431-27.66-2.909-3.613-6.118-5.32-11.517-5.967-13.143-1.574-25.053-9.917-22.437-24.736,1.448-8.2,6.679-11.778,14.33-8.282,5,2.284,9.792,5.786,13.594,9.774,9.283,9.738,15.545,21.531,20.827,33.841,1.401,3.265,2.913,6.481,4.374,9.72.815-.157,1.629-.314,2.444-.471Z"/>
    <path class="cls-1" d="M716.82,198.19c-5.221-6.037-6.509-12.577-9.119-18.489-3.735-8.462-7.786-16.816-12.236-24.921-2.623-4.778-6.459-7.202-12.91-7.299-13.934-.209-23.526-12.399-21.453-25.379,1.249-7.819,6.492-11.536,13.49-7.885,6.315,3.294,12.785,7.789,16.926,13.417,7.036,9.562,12.358,20.395,18.263,30.772,1.701,2.989,2.93,6.246,4.375,9.38.773-.128,1.546-.256,2.319-.385.82-5.078,1.445-10.197,2.498-15.226,2.655-12.679,5.404-25.34,8.347-37.954.668-2.865,2.01-5.665,3.501-8.228,3.875-6.664,8.74-8.422,15.999-6.154,14.406,4.502,17.913,14.693,9.421,29.609-2.958-2.78-5.654-5.554-8.599-8.032-5.789-4.87-10.237-4.309-13.621,2.498-2.483,4.995-4.292,10.526-5.286,16.02-2.307,12.76-3.922,25.644-5.854,38.472-.971,6.443-1.696,12.984-6.061,19.784Z"/>
    <path class="cls-1" d="M409.282,316.344c2.236,10.44,1.981,20.91-3.137,30.61-4.857,9.206-15.607,9.667-22.179,1.386-5.996-7.555-8.697-16.3-9.061-25.943-.639-16.925,2.664-33.169,8.392-48.929,7.274-20.013,8.216-40.316,3.644-60.954-2.633-11.885-7.995-22.57-15.344-32.227-8.545-11.227-8.625-16.457.377-29.888,1.565,1.688,3.349,3.036,4.386,4.818,21.981,37.762,29.584,77.343,15.112,119.75-4.74,13.891-9.041,27.949-8.656,42.857.101,3.906.873,7.929,2.117,11.636,1.552,4.624,5.33,6.436,10.24,6.254,4.694-.174,7.497-2.803,8.86-6.823,1.364-4.021,2.052-8.271,3.037-12.421l2.212-.126Z"/>
    <path class="cls-1" d="M1217.753,781.176c-1.592-2.621-3.561-5.09-4.695-7.896-2.241-5.545-3.554-11.498-6.113-16.873-2.973-6.247-6.54-12.284-10.499-17.958-2.115-3.032-4.785-4.748-9.912-4.31-12.214,1.043-23.325-12.885-20.996-24.501,1.481-7.387,6.214-10.555,13.076-7.314,5.261,2.485,10.832,5.973,14.159,10.547,6.796,9.344,12.258,19.672,18.087,29.7,1.912,3.289,3.262,6.905,6.701,10.066.645-2.412,1.452-4.794,1.907-7.241,1.947-10.469,3.437-21.038,5.8-31.409,1.466-6.431,3.64-12.842,6.501-18.779,3.781-7.847,9.415-9.399,17.413-5.979,12.366,5.287,14.648,13.667,6.913,26.828-1.734-1.597-3.405-3.1-5.037-4.644-8.522-8.06-14.739-6.81-18.064,4.646-2.86,9.853-4.366,20.117-6.173,30.253-1.634,9.167-2.786,18.419-4.33,27.603-.374,2.225-1.454,4.331-2.209,6.492-.843.257-1.686.513-2.529.77Z"/>
    <path class="cls-1" d="M1810.638,461.583c-15.154-9.046-29.081-17.359-43.994-26.261,7.111-12.781,13.973-25.113,21.315-38.309,14.868,8.708,29.059,17.018,44.232,25.904-6.397,13.373-13.825,25.371-21.553,38.666Z"/>
    <path class="cls-1" d="M2043.262,331.604c-7.318,13.097-14.069,25.18-21.205,37.953-15.089-8.805-29.062-16.959-43.814-25.567,6.968-12.96,13.522-25.149,20.681-38.464,15.012,8.83,29.469,17.333,44.338,26.079Z"/>
    <path class="cls-1" d="M253.925,250.087c1.53-3.281,2.373-5.42,3.483-7.411,5.483-9.837,11.037-19.635,17.119-30.429,15.394,7.005,28.901,16.327,44.138,25.22-7.016,12.854-13.628,24.968-20.815,38.134-14.716-8.548-28.904-16.789-43.925-25.514Z"/>
    <path class="cls-1" d="M542.02,192.074c3.255,8.894,1.566,16.95-2.603,24.126-5.539,9.535-17.079,8.998-22.304-.773-4.502-8.419-6.148-17.632-5.592-27.094,1.299-22.087,6.83-43.389,12.744-64.572.99-3.547,3.464-6.681,5.252-10.006.85.3,1.7.6,2.55.901-.766,3.655-1.573,7.302-2.291,10.967-3.328,16.981-7.07,33.9-9.716,50.988-.989,6.391.246,13.23,1.135,19.774.609,4.489,3.215,8.283,8.198,8.912,5.133.648,7.815-2.841,9.777-6.984.979-2.066,1.901-4.159,2.85-6.239Z"/>
    <path class="cls-1" d="M559.508,347.649c-.861,4.259-1.487,7.381-2.123,10.502-3.251,15.963-7.146,31.832-9.485,47.928-1.165,8.014.179,16.478,1.055,24.667.449,4.194,3.273,7.21,8.042,7.514,4.61.293,7.519-2.043,9.464-5.949,1.252-2.514,2.501-5.03,4.681-7.238,1.041,9.314.489,18.38-5.665,25.844-6.527,7.918-16.364,6.477-21.009-2.725-5.782-11.454-6.698-23.874-4.588-36.093,3.108-17.999,7.392-35.805,11.552-53.605.906-3.876,1.872-8.455,8.075-10.845Z"/>
    <path class="cls-1" d="M926.573,370.51c2.748,8.734,1.616,16.823-2.616,23.859-5.979,9.939-17.776,9.136-22.811-1.313-4.263-8.847-5.714-18.478-5.132-28.205,1.3-21.711,7.231-42.55,12.814-63.419.812-3.036,2.85-5.744,6.133-8.263,0,1.979.337,4.028-.054,5.926-2.952,14.326-6.555,28.539-8.913,42.958-1.49,9.11-1.397,18.51-1.565,27.788-.052,2.854.9,5.98,2.22,8.558,3.687,7.202,11.444,7.375,15.685.475,1.631-2.654,2.839-5.568,4.24-8.364Z"/>
    <path class="cls-1" d="M1959.674,375.213c-.662,3.402-1.33,6.803-1.986,10.207-3.267,16.948-6.875,33.841-9.612,50.873-.979,6.096-.14,12.556.41,18.803.463,5.255,2.962,10.308,8.471,10.964,5.363.639,9.157-3.057,10.869-8.425.486-1.523,1.388-2.913,2.265-4.703,4.266,8.824-.308,24.815-7.857,28.979-6.019,3.32-12.555,1.667-16.27-4.395-4.448-7.257-6.548-15.35-6.507-23.751.035-7.275.422-14.677,1.831-21.79,2.968-14.977,6.571-29.836,10.212-44.669,1.134-4.62,2.464-9.449,8.175-12.092Z"/>
    <path class="cls-1" d="M1891.119,601.869c-2.378,10.626-5.274,21.168-7.003,31.898-2.212,13.724-3.812,27.573-4.955,41.428-.333,4.038,1.064,8.656,2.959,12.344,3.273,6.367,10.389,6.56,14.47.704,2.055-2.95,3.391-6.402,5.164-9.845,3.453,8.631.159,22.973-6.236,28.106-6.862,5.508-15.207,4.026-18.967-4.126-2.462-5.338-4.335-11.264-4.906-17.081-.74-7.537-.886-15.397.423-22.817,2.824-16.01,6.642-31.849,10.264-47.71,1.161-5.084,2.982-10.017,6.728-13.799.686.299,1.373.598,2.059.897Z"/>
    <path class="cls-1" d="M288.204,444.586c2.984,8.87,1.48,16.887-3.189,23.898-6.027,9.05-16.425,8.342-21.539-1.21-4.534-8.468-5.654-17.779-5.167-27.174,1.147-22.123,7.388-43.258,13.291-64.42.692-2.48,2.967-4.519,4.509-6.762.63.314,1.26.629,1.891.943-2.035,8.983-4.039,17.973-6.112,26.947-3.307,14.317-5.967,28.728-5.324,43.5.171,3.922.612,8.101,2.14,11.64,3.104,7.193,10.27,7.693,14.879,1.274,1.888-2.629,3.101-5.743,4.621-8.636Z"/>
    <path class="cls-1" d="M1630.12,179.476c1.137,7.987-.578,15.662-4.833,22.456-5.809,9.275-16.504,8.884-21.401-.931-2.605-5.22-4.446-11.307-4.722-17.093-.439-9.223-.146-18.668,1.403-27.753,2.285-13.402,5.737-26.624,9.123-39.811,1.281-4.986,3.759-9.664,5.691-14.483.726.096,1.451.193,2.177.289,0,1.916.329,3.901-.052,5.739-3.165,15.285-6.719,30.494-9.593,45.832-1.215,6.484-1.252,13.215-1.484,19.845-.103,2.944.215,6.051,1.097,8.846,1.301,4.12,3.029,8.445,8.271,8.862,5.096.406,7.773-2.953,9.694-7.13.815-1.773,1.689-3.519,2.536-5.278.698.204,1.395.407,2.093.611Z"/>
    <path class="cls-1" d="M270.085,610.873c-1.346,6.388-2.214,12.928-4.175,19.122-1.853,5.854-6.538,9.431-12.813,9.44-6.169.009-9.34-4.42-11.443-9.651-4.339-10.792-5.616-22.121-3.534-33.394,3.265-17.672,7.337-35.203,11.444-52.705.83-3.538,3.334-6.683,5.066-10.009.761.293,1.522.586,2.282.879-.474,2.729-.885,5.471-1.433,8.185-3.164,15.663-6.803,31.248-9.345,47.01-1.146,7.108-.62,14.613.085,21.847.439,4.51,2.021,9.372,7.731,10.451,4.707.89,7.584-1.286,11.03-7.967.718-1.391,1.552-2.721,2.333-4.079.924.29,1.849.581,2.773.871Z"/>
    <path class="cls-1" d="M1231.682,168.465c-.6,3.094-1.204,6.188-1.799,9.283-3.256,16.95-6.848,33.845-9.575,50.879-.923,5.764.052,11.912.709,17.823.499,4.491,2.619,8.486,7.632,9.331,5.509.929,8.564-2.472,10.718-7.032.905-1.917,1.999-3.744,3.688-5.365,1.639,8.454.557,16.476-4.276,23.386-6.234,8.913-16.503,7.993-21.425-1.74-4.936-9.762-6.784-20.467-4.967-31.057,3.198-18.64,7.415-37.114,11.625-55.562.873-3.825,3.58-7.232,5.442-10.832l2.229.886Z"/>
    <path class="cls-1" d="M1791.099,323.216c2.856,8.498,1.361,16.183-2.921,22.916-4.917,7.731-16.706,9.408-21.569-1.407-4.804-10.683-6.555-21.927-4.616-33.213,3.098-18.037,7.179-35.916,11.261-53.766.89-3.892,3.531-7.384,5.366-11.06.727.269,1.455.539,2.182.808-.344,2.405-.566,4.834-1.053,7.21-3.208,15.656-6.722,31.254-9.591,46.971-1.066,5.84-1.051,11.966-.781,17.927.161,3.543,1.232,7.299,2.853,10.468,3.646,7.127,10.503,7.268,14.823.564,1.522-2.361,2.707-4.94,4.046-7.419Z"/>
    <path class="cls-1" d="M2084.075,706.858c-2.902-8.201-1.27-15.602,2.659-22.097,5.852-9.674,17.321-9.145,21.731,1.355,3.018,7.184,5.121,15.381,5.068,23.108-.156,23.165-6.576,45.336-13.102,67.38-.552,1.863-1.811,3.544-2.9,5.207-.496.757-1.376,1.262-3.686,3.288.668-3.934.999-6.223,1.451-8.488,3.324-16.628,7.031-33.191,9.835-49.906,1.085-6.467.486-13.298.011-19.917-.364-5.083-1.97-10.211-7.901-11.413-5.653-1.146-8.281,3.079-10.644,7.269-.804,1.425-1.68,2.81-2.523,4.214Z"/>
    <path class="cls-1" d="M523.367,721.695c-1.341-9.584.086-16.303,3.265-22.637,2.583-5.146,6.85-8.065,12.771-7.998,5.52.062,8.7,3.867,10.134,8.296,2.223,6.87,4.744,14.104,4.693,21.166-.174,23.796-6.406,46.616-13.36,69.197-.722,2.343-2.515,4.356-5.531,6.077.319-2.322.523-4.666.977-6.961,3.222-16.283,6.859-32.495,9.572-48.861,1.068-6.445.312-13.237-.027-19.849-.131-2.558-.973-5.303-2.241-7.538-3.4-5.991-9.491-6.439-13.743-1.092-1.995,2.508-3.488,5.415-6.508,10.201Z"/>
    <path class="cls-1" d="M871.888,746.458c2.363,7.485,1.226,14.231-1.746,20.553-2.274,4.837-6.295,7.798-11.848,7.675-5.351-.119-8.236-3.707-10.277-8.196-4.101-9.024-5.77-18.672-4.101-28.246,3.189-18.294,7.278-36.436,11.289-54.576.731-3.307,2.868-6.304,4.355-9.444.784.236,1.568.472,2.352.708-.62,3.322-1.199,6.652-1.868,9.964-2.761,13.668-5.98,27.262-8.15,41.022-1.124,7.128-.931,14.587-.373,21.823.516,6.686,4.019,10.825,8.246,11.123,5.678.4,8.021-3.722,9.994-8.128.65-1.452,1.414-2.853,2.125-4.278Z"/>
  </g>
</svg>