<?xml version="1.0" encoding="UTF-8"?>
<svg id="logo" xmlns="http://www.w3.org/2000/svg" width="961.9492" height="373.1006" viewBox="0 0 961.9492 373.1006">
  <defs>
    <style>

      
      @import url('../CSS/SvgStyling.css');


      .ayah:hover {

        cursor: pointer;
      }
  
     
      

      
    </style>
  </defs>

  <a href="../Nooniyah-Al-Qahtani" target="_parent">
  <g id="Qahtani" class="ayah noonContainer">

    <title>Nooniyah Al-Qahtani</title>

    <rect class="rect"   width="961.9492" height="373.1006" opacity="0"    />
    

    <g class="word">
        <rect class="wordrect noonbg"     />
    
    <path class="nlogo" d="M304.3638,244.4868c0-36.7082-7.2011-74.5222-15.1939-110.3562-4.0602-18.2031-7.6014-36.4057-9.2193-55.0115-.8766-10.0808-1.2282-20.3305-.7011-30.4412.3963-7.602,1.6194-17.6814,6.8058-23.2619,4.3994,9.9237,2.7862,20.8087,8.3114,30.7197,5.357,9.6094,8.181,17.872,4.1294,28.5828-2.1483,5.6793-3.3845,8.1375-2.3812,14.2953.8422,5.1683,1.8819,10.313,3.0906,15.407,2.5879,10.9061,4.3265,21.9266,6.1634,32.9822,3.7577,22.6166,7.7242,45.2589,9.3694,68.1297.816,11.3435,2.2818,23.0735.4687,34.3644-.9577,5.9637-2.0023,11.9607-3.2454,17.8711-1.0891,5.1786-3.8766,10.3728-4.3793,15.5311,5.1053-3.0555,8.9723-10.6338,12.8041-15.2754,4.5028-5.4544,9.1574-10.1919,14.796-14.4754,11.0488-8.3936,20.4531-17.5348,35.5109-14.7235,12.9957,2.4263,26.031,9.7837,30.5961,22.7579,2.4829,7.0564.3308,12.575-1.9116,19.3204-2.2804,6.8594-6.2715,10.1559-10.2642,15.8871,7.1519,1.8726,17.1909-1.5048,24.3703-2.9164,9.0237-1.7743,18.2271-3.3753,27.0266-6.0805,16.2538-4.997,31.6013-12.0138,46.4812-20.2353-17.2636-1.7063-34.671-2.3829-51.888-4.4724-4.0355-.4898-8.0634-1.0427-12.1016-1.5106-4.0492-.4692-6.8852.4707-10.5624.5737-8.4297.2362-1.2478-14.2322.3778-18.5236,2.1041-5.5545,6.6122-8.3576,11.4584-11.3854,8.3364-5.2085,17.0125-9.7883,25.6272-14.5106,7.0493-3.8643,14.0263-7.8226,21.3054-11.2468,4.6379-2.1818,21.087-6.7862,21.8638-12.254.2904-2.0442-1.7336-6.6253-2.1252-8.5816-.6995-3.4944-1.9834-6.9011-2.4236-10.4312-.9423-7.5558,2.1429-16.1079,5.0692-22.9978,4.8812-11.493,20.996-22.9105,29.7001-8.67,1.9879,3.2523,3.0968,6.718,4.3349,10.2847,1.2001,3.4576,3.3224,6.7511,4.122,10.2927,1.4066,6.2308.0101,14.8041-2.6817,20.4963-3.0412,6.4313-7.6218,13.1998-13.3,17.5527-2.0004,1.5335-5.8621,2.8767-5.3182,5.938.4063,2.2869,5.2198,5.8974,6.9691,7.4485,6.5302,5.7903,14.1685,5.0622,22.1839,3.235,6.8005-1.5502,17.4508-5.564,21.5311-11.6936,3.6674-5.5092.7748-13.8957-.4097-19.8446-1.7106-8.5913-3.7758-17.1176-5.9052-25.6133-4.1475-16.5474-7.6553-33.2005-11.4457-49.8265-3.5394-15.5247-7.9977-32.2253-8.2093-48.1805-.1052-7.9296.1692-16.1715,1.8463-23.941.4793-2.2204,5.3365-22.1185,8.126-12.2538.8228,2.9098-.0979,8.1675-.2195,11.1249-.1625,3.9505.0168,6.5956,1.6776,10.3352,2.9085,6.5493,7.3213,12.8598,8.4679,20.059.5267,3.3075.4439,7.8569-.5392,11.0994-1.1366,3.7487-3.1202,5.9661-2.8104,10.2193.5458,7.4921,3.3355,15.4904,5.2203,22.7462,4.301,16.5576,9.0368,33.0175,12.9255,49.6817,4.2245,18.1034,3.8873,39.2884-3.2657,56.4637-6.2337,14.9681-22.8939,23.2122-38.801,23.537-8.3606.1707-14.8655-3.8318-20.2119-10.0271-2.5877-2.9986-4.6018-6.3027-6.2091-9.9169-1.3198-2.9678-1.5693-8.3116-5.2186-8.1471-2.9798.1343-8.2737,5.0122-10.8542,6.4381-4.0608,2.2439-8.2086,4.3101-12.3894,6.3192-8.3083,3.9925-18.5302,7.6541-24.9661,14.5276,5.0918,2.3151,12.0385,1.1095,17.5627,1.9875,6.9688,1.1076,13.7137,1.1515,20.757,1.6815,12.6418.9513,25.1021,1.7656,37.7914,1.6622,6.5763-.0536,13.1452-.2582,19.7141-.5707,3.1217-.1485,6.2472-.2823,9.3646-.501,3.0009-.2106,8.4951-1.9393,11.2565-.72,3.9413,1.7403.71,5.2894-1.0288,8.3402-2.1514,3.7747-4.7346,11.8215-8.8791,13.302-4.5396,1.6217-11.039.4475-15.8804,1.206-6.7622,1.0595-13.1565,3.6265-19.6401,5.7179-12.058,3.8897-22.7464,7.9465-33.9656,13.8025-4.597,2.3995-9.5627,3.6976-14.2127,5.9281-5.4458,2.6123-10.5236,5.9652-16.0232,8.4987-11.8483,5.4582-25.2455,9.1661-37.8267,12.5476-12.1195,3.2575-25.1005,3.9513-37.5406,5.334-13.0687,1.4525-26.1318,2.8285-39.2273,4.0191-6.2532.5685-12.4821,1.45-18.7405,1.9387-6.2594.4888-12.506-.3249-18.7691-.4264-10.2547-.1662-23.8214-3.7735-31.4106-10.9415-17.7507-16.7655-22.2273-43.5801-24.5838-66.7837-2.7825-27.399-3.6161-55.1397-4.2505-82.662-.1236-5.3634-1.7392-9.1845-1.8318-14.4698-.1321-7.5367-1.6949-15.1727-2.3428-22.6845-1.2575-14.5797-1.1507-29.0232-4.3218-43.4147-1.3303-6.0373-6.6687-36.0211-16.3404-34.1256-4.8719.9548-6.7757,12.4972-7.7879,16.4682-1.2344,4.8428-1.2684,13.481-5.221,16.8213-2.2122-4.1333.4033-12.1269,1.2829-16.6411,1.2657-6.4958,2.5802-13.1505,4.7757-19.4017,2.6745-7.6147,9.2153-27.1247,19.7211-15.591,8.5336,9.3685,10.0617,27.1441,12.7185,38.9619,1.4571,6.4814,1.496,12.8087,2.0711,19.407.6771,7.7679,2.5005,15.3674,3.2995,23.1228,3.1739,30.8078,4.8394,61.8038,7.7695,92.6419,1.4323,15.0752,2.2777,30.3543,5.3852,45.2068,2.5045,11.9705,4.2633,25.6597,11.8149,35.6369,3.8908,5.1405,8.68,8.4768,14.1749,11.6551,6.9325,4.0098,7.8974.8487,10.1462-5.8351,5.4312-16.1423,6.2221-31.6082,7.1967-48.5104-.1855-.0083-.371-.0166-.5565-.0249ZM319.4834,303.6223c.0424.2223.0848.4446.1272.6669,18.695-4.1265,36.4099-9.0849,53.828-17.2082,4.6698-2.1779,17.4265-5.1977,13.0745-12.0466-3.2292-5.0818-9.3435-10.4064-14.8353-12.8709-6.8521-3.075-16.8362-4.0735-24.0924-2.0777-8.6407,2.3767-15.3044,10.2235-21.1684,16.5312-6.1539,6.6195-12.6698,12.9571-18.0332,20.2486-1.5777,2.1449-5.071,5.3456-2.2167,7.4378,2.2855,1.6753,10.5359-.4445,13.3163-.6812ZM508.2983,156.8101c-2.9613,1.5226-7.4927,2.7364-9.4118,5.6809-2.1105,3.2382-.2349,7.9731.4434,11.4236.8154,4.148.9565,16.3947,6.4412,15.054,3.1538-.771,8.4078-5.4051,10.8153-7.4565,2.2767-1.94,3.8601-3.6385,3.4875-6.7679-.8835-7.4216-6.7254-13.1837-11.7756-17.9341Z"/>
    <path class="nlogo" d="M96.8035,300.0978c19.134-3.8771,39.0418-7.8751,56.4494-17.1535,9.1383-4.8708,18.5414-9.9663,27.2834-15.5125,3.8222-2.4249,6.9474-5.6366,10.8398-7.9986,4.401-2.6706,7.7132-4.3215,11.0316-8.2758-9.3647-4.6816-21.5795-4.8952-31.9021-6.6594-5.4267-.9275-10.8391-1.9251-16.2457-2.9624-4.104-.7874-11.6357-.2835-13.1998-4.6267-1.2372-3.4353,1.6032-10.1878,2.6236-13.3522,1.488-4.6147,3.0342-6.2973,7.699-7.5583,11.9268-3.224,22.864-4.8485,33.2854-11.9575,5.5601-3.7928,2.8385-6.2282-.1083-11.55-2.7329-4.9356-5.4627-9.885-8.0071-14.9211-5.0579-10.0109-7.5531-19.4533-6.902-30.6716.2943-5.0708-.3417-10.0603,2.0105-14.7302,2.1132-4.1954,3.4451-2.9913,5.1245.937,1.9326,4.5204,2.9673,8.662,5.7784,12.8432,2.7421,4.0785,6.5467,7.7832,7.896,12.5901,1.5739,5.607,1.4263,10.9878,3.8347,16.4258,2.2883,5.1668,4.4203,10.4698,5.2446,16.0943,1.935,13.2034-6.3386,21.2207-11.4924,32.2318,8.3493,2.9009,22.7055.0282,25.4743,11.611,2.9494,12.3389.1018,24.0438-7.9946,33.4317-14.845,17.213-37.8391,26.9531-57.5785,37.4769-10.1956,5.4357-21.7917,9.8583-32.9851,12.695-11.4329,2.8974-21.6918,2.7943-33.3145,1.7966-23.4262-2.0108-31.7291-21.5548-36.3982-41.8528-3.0707-13.3491.2974-28.075,3.287-41.2399,2.8134-12.3895,8.3231-26.018,8.6566-38.6859-16.6711,2.2675-20.7675-16.5198-20.3711-29.7572.4777-15.9481,5.7174-30.4267,11.161-45.2917,5.6398-15.4008,12.2019-30.6825,16.7728-46.4341,2.309-7.9568,4.7073-15.8829,6.1185-24.0485,1.131-6.5442,1.9711-16.6205,6.1522-21.8834,2.8524,5.4805.3844,14.2431-.7053,20.1506-1.3379,7.2527-2.9283,14.4398-5.143,21.4773-4.975,15.8085-10.7229,31.3205-15.9703,47.0183-4.5724,13.6785-11.7811,27.5182-9.0715,42.2908.8823,4.8101,4.6619,13.2538,10.0949,14.4782,7.0226,1.5826,9.5352-8.1105,14.1912-10.9806,2.6413,6.098-1.9572,13.9156-3.911,20.1019-2.2402,7.093-4.2739,14.281-5.7361,21.578-2.6993,13.4705-5.3404,27.0115-8.7845,40.2032-3.0641,11.7363.3943,27.5197,7.9543,36.945,8.3269,10.3814,24.1999,14.6328,36.8572,15.727Z"/>
    <path class="nlogo" d="M913.6914,152.8767c-1.625,6.1635,1.0811,10.1999,3.9579,15.8418,3.0274,5.9371,6.0441,11.9306,7.0734,18.6016,1.8797,12.1818-2.4624,27.9368-12.1403,36.0112-4.5845,3.825-10.3208,5.0627-15.0905,8.3307-4.9476,3.39-3.3432,11.4228-4.5082,16.8131-2.5393,11.7485-12.5461,24.3064-21.7326,31.6668-22.4954,18.0237-44.5153,36.2066-70.874,48.2804-13.0964,5.9988-26.6566,8.7045-40.7868,11.0846-13.8327,2.3299-27.4719,5.4655-41.3052,7.7745-1.0784.18-6.7789,2.0014-7.5627.5418-1.2279-2.2866,3.5382-3.8932,4.729-4.431,6.8493-3.0931,14.1731-4.764,21.0668-7.9629,13.7131-6.3634,27.8003-12.4913,41.7971-18.206,13.3594-5.4545,25.723-12.5781,37.8673-20.3561,12.1439-7.7777,25.0642-14.8319,36.7669-23.2486,5.2344-3.7646,9.6945-8.4388,14.9763-12.2156,2.6672-1.9071,5.2973-3.8226,7.7418-6.0153,2.239-2.0084,7.3341-5.5887,8.3974-8.3981.7003-1.8505-.165-3.8405-.7631-5.6019-1.1932-3.5142-.6965-2.9669-2.9282-2.9442-.8214.0083-3.521,1.1833-4.6712,1.4446-3.8825.8822-7.454,2.1309-11.4893,2.3991-12.2057.8112-24.791-4.2684-27.5036-17.5037-2.2867-11.1571,4.7479-25.1689,11.9623-33.0867,9.0659-9.9499,28.6522,3.0545,34.9972,10.3676,3.2556,3.7524,3.0216,12.2283,8.6318,11.3212,2.927-.4733,6.8028-3.3913,9.3846-4.7804,3.517-1.8924,7.3536-3.649,10.6614-5.8883,4.2349-2.867,3.055-3.8114.6749-8.2833-2.0896-3.9259-4.2627-7.8087-6.2517-11.7876-3.6506-7.3029-6.7585-14.9104-9.4625-22.6108-4.0614-11.5662-9.4554-31.3517.7609-41.1871,2.9955,5.9329,3.8684,12.8399,7.3775,18.5464,3.2702,5.3181,5.9844,9.5507,8.2453,15.4825ZM857.1329,210.5351c-4.0898.6861-5.3659,1.9116-8.3603,4.8163,5.6369,4.1382,13.5186,6.0236,20.1996,3.3807-2.6066-4.9395-6.8653-5.9888-11.8394-8.197Z"/>
    <path class="nlogo" d="M590.1164,230.0894c.0032,15.8387,2.0385,32.4386,9.9667,46.6146,2.7468,4.9113,7.7313,10.5964,12.5435,13.5534,6.2818,3.86,12.4898-1.3121,15.3467-6.9987,3.1106-6.1919,4.8668-13.1691,7.0911-19.7008,2.5684-7.5423,6.0418-14.6551,8.6087-22.1953,2.0574-6.0436,5.4169-11.2306,9.7347-15.8858,4.7329-5.1028,10.5217-12.7918,17.8587-14.0403,6.463-1.0998,11.1355,4.4912,15.0164,8.8063,5.279,5.8696,10.7811,11.701,16.5641,17.0789,11.2387,10.4513,26.6119,10.7735,38.5839,1.8622,5.6934-4.2379,10.4239-9.1275,14.6322-14.8291,1.821-2.4672,3.5742-4.9947,5.2817-7.5416,1.3131-1.9585,4.05-8.6887,6.646-9.132,5.7025-.9737,3.3616,13.6084,4.8081,17.1387,2.4602,6.0045,9.5174,7.83,15.3085,7.19,4.0066-.4428,16.151-3.2428,17.6183-7.5888,1.6285-4.8236-7.8456-12.2617-7.9924-18.0715-.098-3.8776.2701-15.5965,5.6211-13.7018,5.5866,1.9781,8.8744,12.574,9.9165,17.4868,2.4624,11.6088.9524,30.438-9.41,37.9465-9.3669,6.7872-24.7857,11.1468-32.6128-.5375-1.4912-2.2261-3.4461-14.2262-5.9952-14.2816-1.3592-.0295-4.897,6.4055-5.4478,7.1716-2.4586,3.4194-4.9113,6.8433-7.401,10.2403-4.6787,6.3837-9.0131,9.3078-15.9355,13.1678-7.8286,4.3653-12.7045,5.1057-21.3912,3.168-15.4478-3.4458-23.2317-17.2819-34.0398-27.3312-4.5341-4.2158-8.0284-6.9268-14.2114-3.8671-5.8455,2.8927-10.7678,9.3949-14.2999,14.6827-9.0039,13.4796-12.9415,30.1382-18.5108,45.2611-2.0689,5.6179-5.3375,16.2193-11.0488,19.0127-6.7091,3.2815-12.1103-2.7342-16.4229-6.9382-11.2931-11.0088-18.7004-28.9294-20.7839-44.511-1.2848-9.6089-.9407-19.6809-1.0648-29.3584-.0959-7.4688-1.8184-18.7981,4.2435-24.1669,2.2258,6.2591,1.1745,13.6768,1.1777,20.2961Z"/>
    <path class="nlogo" d="M588.9954,61.5369c0-7.3267.6854-13.8962,2.1203-21.1098,1.1607-5.8348,1.1782-10.6527,5.5413-14.8106,2.5911,4.9723,1.061,10.3242,1.8014,15.7847.5858,4.3205,2.4219,8.093,4.4153,11.9105,2.5818,4.9441,4.7332,9.6676,5.6298,15.2361.7754,4.8153-.4486,9.0762-.8192,13.811-.8445,10.7923,3.1191,21.0389,4.8929,31.5131,1.875,11.0718,5.0959,21.6209,7.7144,32.5213,2.5789,10.7357,5.6478,21.6398,7.4946,32.5186,1.9575,11.5311,2.0134,23.4982,1.9568,35.1606-.0572,11.8162-.2408,22.9875-3.7711,34.3775-1.4577,4.7032-3.3867,9.223-5.627,13.603-2.0562,4.0201-5.1114,12.0832-8.8384,14.4567-1.5632-3.0503,1.0853-7.4158,2.0985-10.54,1.3966-4.3064,2.7758-8.6702,3.8083-13.0819,2.1039-8.9895,1.5228-18.8558,1.3467-28.037-.3508-18.2892-3.7981-36.4153-7.8518-54.2124-8.2784-36.3449-17.9686-71.9646-22.6423-109.0062.2432-.0318.4864-.0635.7296-.0953Z"/>
    <path class="nlogo" d="M523.8955,54.0191c-4.3301,7.5488-5.3944,10.1395-14.1002,11.9757-9.2404,1.949-17.4737,5.4415-26.2829,8.7153-7.2919,2.7099-14.8902,4.2208-22.2076,7.0077-8.3037,3.1626-16.6901,6.0859-25.0801,9.0079-16.5845,5.7759-32.9647,12.0882-49.6367,17.4274-16.1503,5.1721-35.0027,13.0702-48.7689,23.0656-5.9763,4.3393-4.0073,9.5988.7049,14.412,2.2529,2.3012,5.0206,3.4478,5.5781,6.8553.2816,1.721-.964,9.2133-2.1268,10.1784-3.9832,3.306-10.7519-5.4679-12.7021-8.9385-4.1802-7.439-2.5483-13.9866.4795-21.5036,6.7151-16.6715,23.2206-21.0412,38.6305-27.4974,16.784-7.0319,33.6339-13.3102,50.7505-19.4996,18.9042-6.8358,37.7339-14.0325,56.9581-19.9337,9.3695-2.8761,18.4009-6.6195,27.8601-9.1738,4.4277-1.1956,8.7668-2.3872,12.9927-4.2023,4.08-1.7524,4.1946-1.5143,6.951,2.1036Z"/>
    <path class="nlogo" d="M733.1364,52.0127c-.9751,1.5269-3.4749,7.6707-5.7485,7.3947-2.3185-.2814-1.8786-3.1558-1.7016-4.8748.4607-4.4769,3.7957-11.4319,8.9214-11.9754,5.7733-.6122,9.1942,6.1563,9.6312,10.8997.6801,7.3809-2.7957,13.2892-4.8158,20.0948,6.5414.0478,14.467-4.8022,20.4467-7.2635,7.4465-3.0651,14.8688-6.2063,22.3795-9.1122,14.0776-5.4466,28.2646-10.6088,42.4842-15.6603,3.8099-1.3535,11.4008-6.4282,9.7536.5264-1.5805,6.6728-6.3258,8.0175-12.0662,10.2551-14.056,5.4789-28.0826,11.2775-42.0578,16.9894-14.1637,5.789-29.4558,9.4308-43.0626,16.5647-6.1436,3.221-12.3974,5.8812-18.7778,8.6851-6.6669,2.9298-12.4538,7.5333-19.1376,10.307-6.4163,2.6627-12.6948,4.895-18.6799,8.533-2.7069,1.6453-5.3003,3.4705-8.0138,5.1064-2.4145,1.4557-7.5259,5.7038-10.2286,5.6074-5.7397-.2047-.4564-8.766,1.4606-11.2824,4.1074-5.3918,10.9585-7.6876,16.8172-10.6064,15.0974-7.5216,30.0971-15.2488,45.5164-22.0925,10.4801-4.6515,19.5455-20.6669,6.8796-28.0963Z"/>
    <path class="nlogo" d="M420.6981,165.0142c-9.8386,1.9222-19.4518,1.5821-24.8117,10.9911-1.101,1.9328-2.9689,5.7824-4.8152,2.578-1.4431-2.5047,1.9716-8.8903,2.802-10.8671,8.2431-19.6235,25.6989-24.2308,45.5943-21.5086,4.7461.6494,9.3068,2.0029,13.8651,3.4375,4.893,1.5399,6.1019,2.8291,5.7938,8.1731-.5468,9.4831-7.5071,17.1677-12.7547,24.5537-5.8359,8.2141-11.0881,11.6207-20.7917,14.3647-6.0846,1.7206-20.9506,6.6084-25.9755,2.2627,6.1293-6.0249,16.7882-8.6579,23.9942-13.6028,6.6808-4.5845,18.1055-8.3563,22.1567-15.1932-7.0568-3.9243-16.9355-4.3917-24.9267-4.3917-.0435-.2658-.0871-.5316-.1306-.7974Z"/>
    <path class="nlogo" d="M310.3728,97.1822c2.3691-4.2649,4.1684-8.6355,8.399-11.3553,3.9265-2.5243,8.8702-4.5998,13.2176-6.2548,10.5662-4.0224,20.9702-8.1219,31.4506-12.413,11.8389-4.8474,23.7045-10.004,35.8666-13.9982,11.4049-3.7456,23.2164-6.713,34.6987-10.4842,5.7913-1.9021,11.5807-3.8131,17.3487-5.7849,2.4451-.8359,11.8645-5.6329,13.6909-3.8123,2.5002,2.4923-2.5641,7.1058-4.3382,8.9418-3.8392,3.9731-8.0737,4.7391-13.269,5.955-11.2958,2.6437-21.9436,7.8134-33.1462,10.9134-11.6123,3.2133-22.6841,7.2986-34.0296,11.3404-13.1092,4.6702-26.1229,9.6637-38.9879,14.971-6.2972,2.5978-12.5249,5.4005-18.5745,8.5362-3.1927,1.6549-10.1108,7.9182-12.3269,3.445Z"/>
    <path class="nlogo" d="M458.568,109.9392c1.7831-4.4166,3.2274-9.2771,5.5939-13.4168,2.4447-4.2766,4.4368-3.8263,8.7441-2.1145,4.4235,1.758,9.0436,3.4622,13.2759,5.6376,2.9464,1.5145,4.1066,3.6524,6.3578.6013,4.1933-5.6833,1.7795-16.1835,11.4212-11.3609,5.1623,2.5821,22.0045,8.0864,20.8311,14.3581-.6228,3.3286-3.9798,7.9196-5.4623,11.1033-1.4861,3.1915-2.1401,5.4147-5.8732,4.3564-3.8666-1.0962-8.0123-4.4053-11.7069-6.1735-3.3674-1.6116-7.5043-5.041-10.3524-2.5388-4.7808,4.2001-2.7556,15.6931-11.1728,12.6573-6.3242-2.2809-18.7203-6.6654-21.6563-13.1096Z"/>
    <path class="nlogo" d="M870.5856,54.3568c-.4097,3.0341-1.7892,6.927-.7764,9.8542,1.0838,3.1324,4.5998,5.8435,6.7562,8.2495,1.9733,2.2017,3.509,3.3385,3.4788,6.2548-.0149,1.4353-1.6428,8.7943-2.8723,9.7124-4.4993,3.3594-6.4515-9.0765-10.4128-8.6776-2.4693.2487-7.4754,14.6905-8.8697,17.286-6.4755,12.055-15.6358,23.2012-25.4616,32.5915-4.7404,4.5303-9.068,9.5311-13.8191,14.1074-4.4046,4.2425-10.5816,12.82-16.4207,14.5209,1.3338-5.9175,9.5716-12.0017,13.6059-16.5102,5.5936-6.2513,10.3951-12.7185,15.3566-19.4444,9.382-12.7184,22.7023-24.706,28.5109-39.6034,2.9853-7.6566-4.2122-9.3188-9.4868-13.6039-4.9295-4.0047-3.9325-11.0001-1.9569-16.6314,1.9353-5.5166,7.8507-12.4863,14.4814-11.8696,6.7184.6249,7.5887,8.5515,7.5887,13.7177.0992.0154.1985.0307.2976.0461ZM864.9588,61.8144c-3.2013-4.6671-3.5311-7.3315-9.1795-6.934,1.6851,3.7179,5.0065,6.934,9.1795,6.934Z"/>
    <path class="nlogo" d="M740.5329,320.9423c-7.1294-3.9335-16.3186-7.1351-22.4842-12.305-3.3193,4.4767-5.9224,15.7239-12.3798,15.2168-3.3986-.2669-7.0204-2.6204-10.1566-3.832-2.8753-1.1109-7.0567-1.7363-9.1109-4.2842-3.8067-4.7214,2.2822-13.0337,4.632-17.3785,3.4213-6.3263,8.3772-1.3236,13.1659,1.1015,2.5125,1.2724,8.7845,5.3807,11.478,4.9233,2.196-.3729,3.5898-3.7208,4.4385-5.399,2.7918-5.5203,3.7043-12.026,11.2954-9.3984,3.5219,1.219,6.6861,3.9642,9.8452,5.9173,2.0004,1.2367,8.3491,3.6637,9.1837,5.9732.8726,2.4149-2.2577,6.0427-3.3239,8.1241-2.0277,3.9579-4.1751,7.5965-6.5833,11.3409Z"/>
    <path class="nlogo" d="M639.6819,162.0973c1.7527-4.0108,5.3775-18.3273,10.8331-17.6649,3.3363.4051,8.2833,4.7119,11.3911,6.279,2.2316,1.1253,7.8916,5.2692,10.4061,4.7777,5.6907-1.1125,4.2385-15.7349,11.352-15.3264,3.1203.1792,8.9782,5.4107,11.6564,7.1712,2.5241,1.6593,7.7002,4.1372,8.3426,7.3161.8722,4.3159-7.0318,16.8628-11.4999,16.2421-5.9974-.8331-15.1553-12.8945-20.0804-8.5635-5.5427,4.8742-5.915,16.3297-15.5887,11.0292-4.4181-2.4208-15.6684-5.5986-16.8123-11.2606Z"/>
    <path class="nlogo" d="M75.6425,127.72c14.8499-9.9558,30.3095-19.3733,44.204-30.6484,6.8996-5.5989,14.3436-10.6032,19.6926-17.8106,6.1771-8.3232,3.0664-13.5333-2.2507-21.6968-2.0412-3.1339-4.6177-6.864-7.8256-8.949-3.2735-2.1277-3.651-.5997-7.2652-.617-6.9221-.0332-9.6251-7.5852-6.7123-13.2276,1.5483-2.9994,2.037-3.1896,5.1002-2.0194,3.0732,1.174,6.8152,3.1632,9.5484,5.0441,6.8612,4.7216,12.557,13.0052,15.2463,20.7328,2.9587-8.0664.1417-17.1118,4.1915-25.1573,1.9785-3.9306,4.2056-6.4163,8.7495-4.8409,3.1641,1.097,6.3443,3.7666,7.0928,7.1358,2.5833,11.6282-8.8661.8162-12.6625,3.747-2.3269,1.7964-2.3382,9.8257-2.5388,12.6942-.3033,4.3354-.069,8.4118-1.0436,12.7041-3.7886,16.6856-12.7399,30.3479-26.8947,40.0755-7.3484,5.05-15.7892,7.8716-23.6242,12.0074-6.7064,3.5401-15.3273,11.3035-23.0076,10.8262Z"/>
    <path class="nlogo" d="M206.3477,312.78c-1.9658,3.0766-3.9448,6.1448-5.9185,9.2161-1.1088,1.7253-3.0207,7.2125-5.1421,7.6287-2.4966.4898-7.2979-3.3994-9.1913-4.4419-2.388-1.3148-8.3219-5.9867-10.9444-5.5282-6.0107,1.0508-5.2013,12.7783-10.6645,13.9468-2.6449.5657-20.4842-7.5628-21.6469-10.5534-1.0776-2.7718,6.532-16.1323,8.8901-17.3137,2.8165-1.411,6.9723,1.7,9.5167,2.8374,2.572,1.1497,9.654,5.8868,12.2346,5.4874,6.234-.9647,5.0851-15.285,12.0967-14.0532,3.343.5873,7.4603,3.9781,10.4331,5.5945,3.9114,2.1267,7.537,3.7001,10.3366,7.1795Z"/>
    <path class="nlogo" d="M684.5793,65.5823c-.4746,3.0985-.1593,7.9397-2.8414,10.1401-2.6494,2.1735-6.6238,1.0719-9.264-.331-2.1237-1.1284-2.8931-2.7329-4.9132-1.467-2.461,1.5422-5.3759,7.9046-7.2043,10.19-5.9317,7.4143-12.1203,14.778-18.9656,21.3637-3.7037,3.5631-8.1664,6.5835-12.1751,9.7942-2.3377,1.8724-5.8912,6.4923-8.7486,5.2611,2.6709-5.4834,8.3656-9.4425,12.5439-13.8584,4.6115-4.8737,8.6696-10.2137,13.345-15.0326,2.3753-2.4483,4.6735-4.9437,6.9275-7.5052,2.3447-2.6645,6.5107-5.8981,7.8483-9.1395,2.105-5.1012-4.1317-3.0849-6.7024-6.6246-2.7619-3.8031-.3021-10.6595.5218-14.7137.8559-4.2116,1.6048-15.0737,6.9881-14.6533,4.6264.3613,12.7242,6.914,15.9349,10.1879,4.5796,4.6697,5.4267,10.269,6.7052,16.3883ZM672.3138,55.3294c-3.7942,6.8893.7468,10.4334,7.1063,11.8834-.3755-4.7639-4.2193-8.176-7.1063-11.8834ZM660.6348,55.2337c-1.0412,1.4143-2.4611,2.2544-1.9076,4.2149.4416,1.5642,5.253,3.4204,6.5547,2.5362,4.5129-3.0653-2.0173-6.7956-4.6472-6.7512Z"/>
    <path class="nlogo" d="M98.8839,259.3125c1.3922-6.9122,2.8819-13.8123,4.169-20.7449,1.3854-7.462.7461-7.419-6.2068-4.6721-11.8802,4.6935-22.6595,10.6421-34.0899,16.1342-4.9793-13.9509,23.7247-20.3397,32.2043-23.3601,8.2976-2.9555,16.5947-5.9358,24.8408-9.0318,3.6415-1.3672,6.8784-3.0222,10.324-4.7466,2.8697-1.4362,3.2932-2.1144,3.3932.9245.2361,7.1803-8.7974,10.3663-13.773,12.5428-5.3551,2.3425-12.0707,1.9813-13.7586,8.3935-1.3425,5.1-2.3245,12.3574-1.3141,17.5101.4043,2.0617,1.9943,7.3696,4.5469,7.9348,2.7631.6118,4.5215-3.0082,6.247-4.7302.0571,4.4649-1.4868,15.7354-8.1165,15.3416-3.8502-.2286-8.9211-7.9247-7.3849-11.5028-.3605.0023-.721.0046-1.0816.0069Z"/>
    <path class="nlogo" d="M720.9762,118.745c-.486,6.984,6.2934,20.4087,13.8208,11.2383,6.7452-8.2175-6.7702-17.4253-3.3903-26.3471,2.5108,1.9428,15.813,24.4421,20.1364,18.407,1.3444-1.8767-4.9343-8.2926-5.9982-10.4237-2.223-4.4528-3.4122-9.2902-.302-13.435,4.665,7.9333,17.906,22.8358,9.3762,32.7326-1.5261,1.7708-4.1998,2.844-6.5665,2.3976-1.9478-.3674-3.502-3.1366-5.0956-3.2638-2.7869-.2224-4.3455,7.495-7.0208,9.6806-4.7563,3.8856-10.5149,2.9539-14.5676-1.535-4.2189-4.6731-1.5868-13.0795-5.4059-17.0331-1.2871-1.3324-2.6199.204-3.5547-1.7205-.4206-.8658.7382-4.4513.9344-5.2112.4727-1.831.8442-5.1425,3.4112-4.6564,1.8296.3465,3.5673,7.4277,4.2225,9.1697Z"/>
    <path class="nlogo" d="M362.701,197.5708c0-5.5476-.0452-10.6422.8403-16.155.5824-3.6263.4443-10.1059,3.6611-12.0819,6.4949-3.9899,17.9142,8.8445,12.6357,14.1794-3.0346,3.0669-7.7275-4.8591-10.6839-4.5186-4.419.5089-2.599,8.1206-2.6403,11.18-.0836,6.1991-.2237,13.0127-1.5262,19.114-1.2755,5.9749-2.9347,3.092-4.7569-1.0491-1.7107-3.8878-3.5576-7.0305-6.875-9.7732-3.6584-3.0246-4.8497-3.2196-9.1663-2.2002-8.3536,1.9727-13.1582-5.9544-10.7088-13.7854,1.7598-5.6261,7.5376-2.3917,11.682-.7029,3.9973,1.6288,7.5055,3.8315,10.5249,6.9336,2.5311,2.6005,4.1333,6.8655,7.0135,8.8594Z"/>
    <path class="nlogo" d="M796.3986,153.1208c-2.8895,7.1887-5.0133,19.9218-14.815,16.6465-6.0448-2.0199-17.8069-4.8419-17.9134-12.5837-.0648-4.7096,4.1621-16.8376,9.4321-16.6675,3.3777.1091,8.5193,3.7557,11.4512,5.1724,4.3978,2.125,8.5118,3.8319,11.8452,7.4323Z"/>
    <path class="nlogo" d="M121.4053,200.6975c0,5.745-1.4313,12.8774-9.3357,9.4498-3.0286-1.3133-3.1033-3.877-5.7635-1.6078-2.5013,2.1337-2.8821,5.5492-6.1887,7.4379-14.1694,8.0941-17.5044-21.5707-12.2116-28.8567,3.1191,4.5589.5487,24.6488,11.6143,18.3304,11.2433-6.4198-5.3067-19.1899,2.57-26.5004,2.7154,3.2912,6.3946,23.9455,13.2987,21.2771,3.5149-1.3585-1.0977-5.9794-2.1157-8.2053-2.0297-4.4378-3.2904-10.2357-1.088-14.7789,6.3252,5.2776,8.0141,15.6598,10.0964,23.2067l-.8763.2471Z"/>
    <path class="nlogo" d="M918.1339,258.1378c-1.4881,6.7778-3.1,13.4213-5.161,20.0536-1.9139,6.159-5.015,12.076-6.6493,18.277-1.196,4.538-2.0937,12.6382,1.67,16.2518,4.8344,4.6416,7.8651-3.0718,10.9603-6.1699.2818,7.2093-1.8473,21.0836-12.1113,20.9169-8.5765-.1393-10.0073-13.7702-8.9397-19.7434,1.7092-9.5637,4.8863-18.3465,8.3512-27.3865,1.7013-4.4389,3.4104-8.92,4.3224-13.5993,1.068-5.4801.9328-9.5087,5.4408-13.2491.8624,1.5573,1.8502,2.7924,1.8502,4.5909.0888.0194.1777.0388.2665.0582Z"/>
    <path class="nlogo" d="M834.287,253.7181c.7134,5.4424-4.7046,10.6588-9.0063,13.5625-5.8483,3.9476-11.933,8.3318-18.3484,11.289-6.5012,2.9967-12.7374,6.4458-19.2034,9.5134-3.9438,1.8711-7.9742,3.5439-11.828,5.6017-1.5948.8516-5.8578,4.3564-7.6803,3.565-5.6211-2.4411,5.7012-11.3488,7.7849-12.3324,6.9953-3.3021,13.5714-6.4961,20.0003-10.8029,6.0186-4.032,12.8995-6.6027,19.0921-10.3868,6.1858-3.7798,12.6911-6.815,19.1891-10.0094Z"/>
    <path class="nlogo" d="M116.7994,153.4531c1.4685-3.4425,2.5063-6.3704,3.3206-9.9944.6676-2.9712,1.7267-6.3795,4.9674-7.3653,3.4159-1.0391,7.5707,1.8001,10.5399,3.1305,3.2643,1.4626,8.9765,2.8402,10.9883,5.9139,2.5745,3.9334-3.7795,19.7729-7.9715,21.0614-2.4332.7479-8.115-3.2272-10.33-4.2546-5.2338-2.4278-7.9159-4.0463-11.5148-8.4916Z"/>
    <path class="nlogo" d="M842.7214,140.5057c2.2085-6.3038,4.5949-18.5801,12.7948-15.6263,4.9835,1.7952,17.4781,5.4927,17.2373,11.8125-.1594,4.185-5.3294,17.1671-10.0744,16.809-3.1453-.2374-8.1919-4.4893-11.0172-5.9733-3.9034-2.0502-7.2135-2.8346-8.9405-7.0219Z"/>
    <path class="nlogo" d="M498.4886,333.6211c-7.9061-.0039-9.6854-3.4507-7.451-11.287.9299-3.2611,5.0152-7.9927,4.514-11.5298-.6449-4.5516-6.0349-2.5106-9.5135-2.706.4391-4.4906.6274-9.0189,5.718-9.8126,3.4755-.5418,7.3873-.4768,9.1153,2.7546,3.9154,7.3215-10.315,18.3172-2.7008,22.1815,4.6267,2.3481,9.3559-.2967,13.8782-1.6983,1.9696-.6104,8.2984-3.8568,8.5546-.9731.2162,2.4335-6.5733,7.7471-8.4442,8.9917-4.0347,2.6838-8.7631,4.4389-13.6706,4.079Z"/>
    <path class="nlogo" d="M669.2687,309.6323c-1.5486,6.4571-2.4401,21.7752-8.4627,24.8241-1.372-7.5808,3.4664-14.9424,1.2763-22.8012-2.0143-7.2278-10.2558-13.1119-11.0204-20.4932-.1694-1.635.758-7.6957,2.0363-8.6444,2.7852-2.067,5.3959,2.1825,6.9567,4.0172,5.3559,6.2955,8.9897,14.4768,8.1266,22.8733.3624.0747.7248.1494,1.0872.2241Z"/>
    <path class="nlogo" d="M231.3364,302.105c-.3832,4.8484.6287,14.3267-2.7207,17.994-4.1027-4.7617-2.106-15.0183-4.9149-21.1656-3.4227-7.4909-11.8386-10.1307-12.5546-18.9673-.2202-2.7174-1.1223-6.6029,2.4052-6.4061,2.4034.1341,7.1084,5.934,8.7118,7.7466,5.402,6.1065,7.1738,13.0862,9.0731,20.7985Z"/>
    <path class="nlogo" d="M800.8436,107.7977c1.9829-2.3426,3.9667-4.6675,6.0332-6.9363,4.08,4.6102,1.6554,10.3377-3.0173,14.0264-6.3048,4.977-9.6556-.3613-12.6391-6.0297-3.5755-6.7931-1.0337-13.8899.9848-20.8184,1.2501-4.2908,6.0307-16.69,11.3712-16.4557-.7347,6.6207-6.7146,12.5634-8.6046,19.2273-2.2814,8.0441-.0137,11.8217,5.8717,16.9864Z"/>
    <path class="nlogo" d="M717.6913,198.6054c2.5658-10.5028,4.1647-25.4848,12.8671-32.9713.8404,8.8645-7.7215,17.3641-7.4243,26.6749.0964,3.0203,2.3387,6.6918,5.7311,7.0505,3.3498.3542,5.9457-3.1751,8.3283-5.1332,1.9483,4.6207-.8408,14.0154-6.3133,15.7351-6.9884,2.1961-10.3619-6.8493-13.1889-11.356Z"/>
    <path class="nlogo" d="M171.994,93.4566c2.6003-9.8467,6.4976-23.2679,13.571-30.8846,1.4051,8.2149-8.3044,15.0416-7.5603,23.7253.2375,2.7719.9794,7.2602,3.3154,9.2241,3.8073,3.2007,4.4951-1.3842,7.5239-3.6045.1319,4.293-2.5301,14.9636-7.9559,14.6073-5.4056-.3549-8.8495-8.5272-8.894-13.0677Z"/>
    <path class="nlogo" d="M326.2585,55.071c1.5865-5.8301,3.0234-11.7458,5.0723-17.437,1.4369-3.991,5.2758-10.5992,4.0694-2.0998-.7613,5.3632-4.9186,12.6944-1.9522,17.9335,3.7548,6.6316,6.2887-1.7615,8.4977-4.4099,3.5152,3.4999-.1248,12.8552-3.2394,15.8263-7.1972,6.8655-10.7427-5.0301-12.4478-9.8131Z"/>
    <path class="nlogo" d="M515.5495,35.0818c-.6816,4.8234-3.8351,9.3984-8.6462,10.8082-4.7309,1.3864-9.9635.7983-10.2419-5.0323-.1237-2.5915,2.4955-14.5159,5.0626-15.2241,1.2617-.3481,5.3438,2.2897,6.5297,2.9202,3.275,1.7414,4.8769,3.7315,7.2958,6.528ZM504.484,40.549c1.4088-1.2813,2.4793-2.2549,3.5497-3.2285-2.4424-.7867-4.6617-1.8701-7.1347-2.5444-.3073,3.5748.7007,3.6873,3.585,5.7729Z"/>
    </g>
     
    
  </g>
  </a>
 
</svg>