<?xml version="1.0" encoding="UTF-8"?>
<svg id="TheMostBeautifulNames" xmlns="http://www.w3.org/2000/svg" width="2436.83" height="758.909"
  viewBox="0 0 2436.83 758.909">
  <defs>
    <style>
      @import url('../CSS/SvgStyling.css');
    </style>
  </defs>

  <a href="../Names-of-Allah" target="_parent">
    <g class="word">


      <rect class="wordrect" width="2436.83" height="758.909" />


      <path
        d="M986.139,178.719l23.643,141.86c2.989,18.485,5.843,36.829,8.561,55.032,2.712,18.211,5.158,34.995,7.338,50.344,2.174,15.357,3.87,28.676,5.098,39.949,1.217,11.281,1.832,19.097,1.832,23.44,1.082,5.981.674,13.523-1.223,22.624-1.902,9.109-4.484,21.809-7.745,38.115-1.631,8.427-4.218,15.632-7.745,21.605-3.533,5.981-7.408,11.077-11.621,15.287-4.212,4.218-8.626,7.683-13.246,10.395-4.625,2.72-8.832,4.892-12.637,6.522-3.533,1.364-9.109,2.995-16.713,4.892-7.609,1.905-16.17,2.313-25.682,1.223-9.517-1.082-19.638-4.617-30.372-10.599-10.735-5.973-20.991-16.164-30.774-30.573-4.348-11.414-7.001-21.871-7.946-31.389-.957-9.509-1.022-18.203-.207-26.089.815-7.878,2.174-14.879,4.076-20.994,1.897-6.115,3.527-11.477,4.892-16.102-2.995,0-7.946,1.294-14.882,3.873-6.925,2.587-14.947,5.848-24.046,9.783-9.109,3.943-18.752,8.294-28.948,13.045-10.186,4.759-19.909,9.313-29.144,13.656-9.24,4.351-17.599,8.153-25.067,11.414-7.479,3.261-12.985,5.441-16.512,6.522-22.828,8.968-42.667,13.248-59.516,12.841-16.855-.408-30.845-3.465-41.987-9.172-11.148-5.707-19.638-12.841-25.475-21.401-5.848-8.561-9.316-16.51-10.398-23.847-4.892,12.778-9.925,22.828-15.083,30.166-5.163,7.338-10.191,12.911-15.083,16.713-4.892,3.81-9.648,6.318-14.268,7.541-4.625,1.223-8.832,1.976-12.637,2.242-3.81.549-7.887.274-12.229-.815-4.348-1.082-8.631-3.19-12.843-6.318-4.212-3.12-8.153-7.134-11.816-12.025-3.674-4.892-6.593-11.006-8.767-18.344-2.995,6.522-6.664,12.096-11.006,16.713-4.348,4.625-9.039,8.561-14.066,11.822s-10.327,6.052-15.893,8.357c-5.577,2.313-11.213,4.28-16.92,5.911-5.707,1.364-11.963,1.427-18.752.204-6.794-1.223-13.387-3.873-19.768-7.949-6.392-4.076-12.028-9.713-16.92-16.917-4.892-7.196-8.294-15.961-10.191-26.293-11.414,16.039-22.355,27.79-32.818,35.261-10.463,7.479-20.317,11.822-29.551,13.045-9.24,1.223-17.8,0-25.682-3.669-7.887-3.669-15.018-8.694-21.404-15.083-6.386-6.381-11.816-13.515-16.306-21.401-4.479-7.878-7.946-15.349-10.392-22.42-2.446-7.063-5.37-11.477-8.762-13.248-3.402-1.764-6.935-1.764-10.599,0-3.674,1.772-7.479,4.829-11.414,9.172-3.946,4.351-7.615,9.243-11.012,14.675-3.397,5.441-6.522,10.873-9.37,16.306-2.859,5.441-5.098,10.058-6.729,13.86-2.18,5.441-5.571,11.555-10.191,18.344-4.625,6.797-9.718,13.594-15.289,20.382-5.571,6.797-11.349,13.115-17.322,18.955-5.979,5.848-11.414,10.536-16.306,14.064-4.892,3.536-10.332,7.408-16.306,11.618-5.979,4.21-11.686,8.357-17.121,12.433-5.441,4.076-10.332,7.675-14.675,10.803-4.348,3.12-7.479,5.503-9.376,7.134-3.81,2.987-5.234,5.299-4.283,6.93s2.381,3.669,4.283,6.115c2.174,3.527,6.452,6.381,12.838,8.561,6.386,2.171,13.996,3.935,22.828,5.299,8.832,1.356,18.208,2.305,28.133,2.854,9.914.541,19.496.948,28.736,1.223h15.083c8.153,0,18.958-.071,32.405-.204,13.458-.141,29.285-.274,47.493-.408,18.203-.141,38.585-.204,61.147-.204l155.72-1.223c58.967-.274,120.869-.682,185.679-1.223,64.821-.549,131.734-1.09,200.767-1.631,69.028-.549,135.881-1.09,200.561-1.631,64.674-.549,126.098-1.09,184.255-1.631,4.892,0,17.257-.141,37.096-.408,19.833-.274,44.977-.611,75.414-1.019,30.432-.408,65.288-.886,104.563-1.427,39.264-.549,80.773-1.16,124.532-1.834,43.754-.682,88.796-1.364,135.131-2.038,46.336-.682,91.856-1.294,136.566-1.834,44.699-.549,87.573-1.09,128.609-1.631,41.031-.549,78.197-1.019,111.488-1.427,33.291-.408,61.69-.753,85.203-1.019,23.502-.274,40.009-.408,49.526-.408,2.446,0,7.403.133,14.882.408,7.468.266,16.235.674,26.29,1.223,10.05.541,20.719,1.082,31.997,1.631,11.278.541,21.877,1.082,31.796,1.631,9.919.541,18.48,1.082,25.687,1.631,7.196.541,11.751.948,13.653,1.223,5.973,0,8.419,1.356,7.338,4.076-1.087,2.712-3.81,4.617-8.153,5.707-2.18.815-5.707,1.897-10.599,3.261-4.892,1.356-10.534,2.854-16.914,4.484-6.392,1.631-12.985,3.261-19.773,4.892-6.794,1.631-13.045,2.987-18.752,4.076-99.737,2.171-190.103,4.139-271.083,5.911-80.985,1.764-154.432,3.19-220.329,4.28-65.908,1.082-125.087,2.038-177.532,2.854-52.45.815-99.808,1.427-142.061,1.834-42.265.408-80.311.745-114.14,1.019-33.84.266-65.093.47-93.758.611-28.676.133-55.646.266-80.92.408-25.274.133-50.412.337-75.414.611-101.096,1.356-199.202,2.579-294.319,3.669-95.122,1.082-185.886,2.171-272.306,3.261-85.605,1.356-161.161,2.171-226.65,2.446-33.16.266-61.696.541-85.605.815-23.915.266-44.167.47-60.739.611-16.578.133-29.959.266-40.156.408-10.186.133-18.137.266-23.844.408-5.707.133-9.718.204-12.028.204h-4.685c-14.947-.274-27.176-1.701-36.688-4.28-9.517-2.587-17.056-5.778-22.622-9.58-5.577-3.81-9.517-8.153-11.827-13.045s-3.533-9.854-3.663-14.879c-.141-5.033.337-9.854,1.424-14.471,1.082-4.625,2.174-8.702,3.261-12.229,1.631-5.707,4.685-12.371,9.175-19.975,4.479-7.612,9.914-15.216,16.306-22.828,6.381-7.604,13.512-14.942,21.399-22.013,7.881-7.063,16.164-13.045,24.866-17.936,8.153-4.617,15.556-9.846,22.219-15.694,6.653-5.84,12.496-11.68,17.523-17.529,5.028-5.84,9.24-11.21,12.642-16.102,3.392-4.892,6.044-8.694,7.946-11.414,1.897-2.987,3.805-6.789,5.707-11.414,1.897-4.617,4.413-9.917,7.544-15.898,3.12-5.973,7.131-12.362,12.023-19.159,4.892-6.789,11.142-13.86,18.752-21.197,5.973-5.707,11.414-8.357,16.306-7.949s9.175,2.313,12.838,5.707c3.674,3.402,6.794,7.541,9.381,12.433,2.576,4.892,4.544,8.968,5.908,12.229,4.343,10.873,8.968,19.567,13.86,26.089s9.849,11.485,14.876,14.879c5.028,3.402,10.055,5.441,15.088,6.115,5.022.682,9.713.682,14.061,0,4.343-.674,8.289-1.764,11.822-3.261,3.527-1.489,6.381-2.783,8.561-3.873,3.527-1.631,7.81-4.688,12.843-9.172,5.022-4.484,10.05-9.376,15.077-14.675s9.718-10.254,14.066-14.879c4.343-4.617,7.604-8.012,9.783-10.191,2.446-2.446,4.484-3.669,6.115-3.669s2.854.549,3.669,1.631c.815,1.09,1.223,2.587,1.223,4.484s-.549,3.536-1.631,4.892c-.815,1.364-1.429,2.383-1.832,3.057-.413.682-.755,1.427-1.022,2.242-.272.815-.679,1.772-1.223,2.854-.549,1.09-1.364,2.587-2.446,4.484,3.261,13.045,7.952,22.42,14.061,28.127,6.12,5.707,12.642,9.313,19.567,10.803,6.935,1.497,13.588,1.701,19.98.611,6.381-1.082,11.615-2.038,15.692-2.854,4.343-.815,9.033-3.394,14.061-7.745,5.028-4.343,9.919-9.376,14.675-15.083s9.175-11.618,13.251-17.733,7.338-11.477,9.783-16.102c3.805-6.248,7.131-8.764,9.99-7.541,2.848,1.223,3.055,4.829.609,10.803-1.364,2.995-2.718,6.867-4.076,11.618-1.364,4.759-2.718,8.631-4.076,11.618,2.989,8.153,6.588,14.268,10.805,18.344,4.207,4.076,8.555,6.867,13.045,8.357,4.479,1.497,9.028,1.834,13.653,1.019,4.62-.815,8.968-2.101,13.045-3.873,4.076-1.764,7.675-3.731,10.805-5.911,3.12-2.171,5.5-3.935,7.131-5.299,1.897-2.446,4.212-6.248,6.93-11.414,2.712-5.158,5.365-10.528,7.952-16.102,2.576-5.566,4.892-10.732,6.925-15.49,2.044-4.75,3.326-7.949,3.875-9.58,1.082-2.712,2.375-4.413,3.875-5.096,1.489-.674,2.848-.745,4.076-.204,1.217.549,2.169,1.568,2.848,3.057.679,1.497.75,3.057.207,4.688-.815,1.364-1.364,2.72-1.631,4.076-.272,1.364-1.087,3.402-2.446,6.115-.272,4.892.544,9.854,2.446,14.879,1.897,5.033,4.484,9.721,7.745,14.064,3.261,4.351,6.789,8.153,10.599,11.414,3.805,3.261,7.604,5.574,11.414,6.93,16.034,4.892,32.47,6.522,49.325,4.892,16.849-1.631,33.22-4.954,49.124-9.987,15.893-5.025,31.111-10.936,45.656-17.733,14.534-6.789,27.513-12.77,38.927-17.936-3.261-1.082-9.446-3.057-18.545-5.911-9.109-2.854-18.822-5.911-29.149-9.172-10.332-3.261-19.909-6.177-28.736-8.764-8.838-2.579-14.474-4.139-16.92-4.688-5.163-1.631-9.517-2.242-13.045-1.834-3.533.408-6.256,1.294-8.153,2.65-1.631.815-2.854,2.924-3.669,6.318-.815,3.402-1.495,5.778-2.038,7.134,0,1.631-.679,2.313-2.038,2.038-1.364-.266-2.854-.408-4.484-.408-.815,0-4.625-.408-11.414-1.223-6.794-.815-14.132-1.693-22.013-2.65-7.887-.948-15.224-1.834-22.013-2.65-6.794-.815-10.599-1.356-11.414-1.631-2.18,0-3.402-.47-3.669-1.427-.272-.948-.141-2.508.408-4.688.266-.815.951-2.305,2.038-4.484,1.082-2.171,2.239-4.617,3.468-7.338,1.217-2.712,2.375-5.229,3.462-7.541,1.082-2.305,1.897-4.139,2.446-5.503,1.631-2.987,3.12-4.954,4.484-5.911,1.359-.948,3.527-2.375,6.522-4.28,1.359-.815,4.142-1.968,8.359-3.465,4.207-1.489,8.898-3.057,14.061-4.688,5.158-1.631,10.398-3.19,15.692-4.688,5.305-1.489,9.849-2.783,13.659-3.873,7.338-1.631,12.496-2.101,15.49-1.427,2.989.682,6.381,1.834,10.191,3.465,25.002,9.517,49.662,17.67,73.985,24.459,24.323,6.797,47.086,12.229,68.283,16.306,21.197,4.076,40.15,6.867,56.869,8.357,16.708,1.497,30.225,1.701,40.558.611,3.805,0,5.772.886,5.914,2.65.13,1.772-.207,3.739-1.022,5.911-.549,1.09-1.772,3.332-3.669,6.726-1.902,3.402-3.941,7.071-6.115,11.006-2.18,3.943-4.218,7.541-6.115,10.803-1.902,3.261-2.995,5.166-3.261,5.707-.815.815-1.495,1.294-2.038,1.427-.549.141-2.31-.063-5.299-.611-1.364-.266-4.348-.745-8.968-1.427-4.625-.674-9.985-1.152-16.105-1.427-6.109-.266-12.702-.266-19.768,0-7.071.274-13.594,1.223-19.567,2.854-4.625,18.752-5.571,34.313-2.854,46.675,2.712,12.371,9.783,22.899,21.197,31.592,13.045,8.153,25.41,12.637,37.096,13.452,11.68.815,22.013-.063,30.981-2.65,8.968-2.579,16.371-5.911,22.214-9.987,5.843-4.076,9.441-6.789,10.805-8.153,3.261-3.802,4.75-6.789,4.484-8.968-.272-2.171-.408-4.484-.408-6.93-.272-3.802-1.364-12.292-3.261-25.478-1.902-13.178-4.283-29.209-7.131-48.102-2.859-18.885-6.12-39.808-9.783-62.777-3.674-22.961-7.408-46.197-11.213-69.707-3.81-23.502-7.539-46.471-11.213-68.892-3.663-22.42-6.995-42.528-9.985-60.331-2.995-17.795-5.441-32.47-7.338-44.026-1.902-11.547-2.995-18.14-3.261-19.771-.549-2.171-1.495-4.21-2.854-6.115-1.364-1.897-2.446-3.12-3.261-3.669-.815-1.082-1.631-2.101-2.446-3.057-.815-.948-.815-2.242,0-3.873.266-.815,1.288-2.987,3.055-6.522,1.766-3.527,3.674-7.338,5.707-11.414,2.044-4.076,4.076-8.012,6.12-11.822,2.033-3.802,3.462-6.381,4.278-7.745,1.359-2.446,2.511-3.19,3.462-2.242.951.957,2.103,2.517,3.468,4.688.266.549,1.489,3.057,3.669,7.541,2.174,4.484,4.892,10.129,8.153,16.917,3.261,6.797,6.789,14.205,10.599,22.217,3.805,8.02,7.539,15.898,11.213,23.643,3.663,7.745,7.06,14.879,10.186,21.401s5.506,11.555,7.136,15.083c2.174,5.441,3.12,9.58,2.854,12.433-.272,2.854-1.022,4.688-2.239,5.503-1.228.815-2.794.753-4.691-.204-1.902-.948-3.402-2.375-4.484-4.28-.272-.815-1.158-2.101-2.652-3.873-1.495-1.764-3.196-3.669-5.093-5.707-1.902-2.038-3.875-4.21-5.908-6.522-2.044-2.305-3.875-4.413-5.506-6.318-1.631-1.897-2.788-2.916-3.462-3.057-.685-.133-1.092.204-1.228,1.019s-.065,1.905.207,3.261c.266,1.364.674,2.587,1.223,3.669ZM51.004,325.878c.544-1.631,1.082-3.465,1.631-5.503.544-2.038,1.223-3.802,2.038-5.299.815-1.489,1.837-2.242,3.055-2.242,1.228,0,2.652,1.223,4.283,3.669,1.082,1.631,3.468,4.688,7.131,9.172,3.674,4.484,7.68,10.395,12.028,17.733,4.343,7.338,8.626,16.102,12.843,26.293,4.207,10.191,7.397,21.676,9.577,34.446,2.174,12.778,2.783,26.975,1.837,42.599-.957,15.632-4.283,32.549-9.99,50.752-1.902,5.441-3.402,8.224-4.484,8.357-1.087.141-1.631-1.693-1.631-5.503,0-1.082.201-4.413.614-9.987.402-5.566.609-12.496.609-20.79s-.549-17.662-1.631-28.127c-1.087-10.457-3.125-21.26-6.115-32.408-2.995-11.14-7.136-22.146-12.43-33.019-5.305-10.865-12.3-20.923-20.996-30.166-1.631-2.171-2.647-3.731-3.06-4.688-.402-.948-.201-2.242.614-3.873.266-1.897,1.082-4.343,2.446-7.338l1.631-4.076ZM142.724,159.559c1.359-1.897,2.783-3.19,4.283-3.873,1.489-.674,2.446-.337,2.848,1.019.413,1.364-.065,3.943-1.424,7.745-1.364,3.81-4.076,9.109-8.153,15.898-3.81,7.071-7.68,12.025-11.621,14.879s-7.881,4.351-11.816,4.484c-3.946.141-7.685-.815-11.213-2.854-3.533-2.038-6.723-4.413-9.582-7.134-2.848-2.712-5.234-5.566-7.131-8.561-1.902-2.987-3.125-5.433-3.669-7.338-3.81-11.14-5.033-22.35-3.669-33.631,1.359-11.273,3.669-21.605,6.93-30.981s6.723-17.387,10.398-24.051c3.663-6.655,6.044-11.069,7.131-13.248,1.082-1.631,2.375-2.65,3.87-3.057s2.859-.337,4.076.204c1.228.549,2.044,1.497,2.446,2.854.413,1.364.065,2.995-1.016,4.892-3.261,8.968-6.049,16.243-8.354,21.809-2.315,5.574-4.076,10.74-5.305,15.49-1.217,4.759-2.033,9.65-2.446,14.675-.402,5.033-.342,11.352.207,18.955.266,4.351,1.696,9.109,4.283,14.268,2.576,5.166,5.837,9.039,9.783,11.618,3.935,2.587,8.419,3.128,13.447,1.631,5.028-1.489,10.256-6.726,15.697-15.694ZM359.998,110.234c5.435-2.446,9.033-3.935,10.8-4.484,1.766-.541,1.973,1.223.614,5.299-1.364,4.351-2.18,7.338-2.446,8.968-.272,1.631-.815,3.669-1.631,6.115s-2.038,4.555-3.669,6.318c-1.631,1.772-5.163,4.147-10.599,7.134-1.087.549-5.299,2.65-12.637,6.318s-16.507,8.357-27.519,14.064c-11.001,5.707-23.437,12.096-37.297,19.159-13.86,7.071-27.926,14.268-42.188,21.605-14.273,7.338-28.269,14.542-41.993,21.605-13.724,7.071-26.024,13.39-36.889,18.955-10.871,5.574-19.768,10.191-26.703,13.86-6.925,3.669-10.8,5.778-11.615,6.318-3.81,2.18-6.321,3.261-7.539,3.261-1.228,0-1.571-1.897-1.022-5.707,0-1.897.065-3.731.207-5.503.13-1.764.337-3.324.609-4.688l.815-4.076c-.549-1.082-.679-2.038-.408-2.854.266-.815.951-1.834,2.038-3.057,1.082-1.223,3.12-2.65,6.115-4.28,1.359-.815,5.707-3.12,13.045-6.93,7.338-3.802,16.572-8.623,27.72-14.471,11.142-5.84,23.709-12.362,37.704-19.567,13.996-7.196,28.193-14.534,42.601-22.013,14.403-7.471,28.6-14.738,42.601-21.809,13.99-7.063,26.627-13.452,37.905-19.159,11.278-5.707,20.654-10.395,28.133-14.064,7.468-3.669,11.881-5.77,13.246-6.318ZM226.291,333.216c.544.549,1.489,1.16,2.854,1.834,1.359.682,2.511,1.631,3.468,2.854.946,1.223,1.489,2.65,1.631,4.28.13,1.631-.614,3.402-2.245,5.299-2.995,3.261-5.37,6.797-7.136,10.599-1.766,3.81-3.734,6.93-5.908,9.376-1.902,2.446-3.81,4.351-5.707,5.707-1.902,1.364-5.299.549-10.191-2.446-5.163-2.987-10.392-6.318-15.697-9.987-5.294-3.669-9.033-6.177-11.207-7.541-.815-.541-1.902-1.152-3.261-1.834-1.364-.674-2.517-1.56-3.468-2.65-.951-1.082-1.565-2.305-1.832-3.669-.272-1.356.408-3.12,2.038-5.299,2.446-3.802,4.821-7.878,7.131-12.229,2.31-4.343,4.419-7.745,6.321-10.191,2.174-2.171,3.935-4.139,5.299-5.911,1.359-1.764,3.669-1.152,6.93,1.834,1.631,1.09,4.076,2.65,7.338,4.688l9.783,6.115c3.261,2.038,6.251,3.943,8.968,5.707,2.712,1.772,4.343,2.924,4.892,3.465ZM244.635,601.853c.544-1.631,1.223-2.783,2.038-3.465.815-.674,1.489-.611,2.038.204.544.815.609,2.65.207,5.503-.413,2.854-1.571,7.134-3.468,12.841-2.446,8.694-5.571,14.064-9.376,16.102-3.81,2.038-7.539,2.446-11.213,1.223-3.663-1.223-6.995-3.402-9.985-6.522-2.995-3.128-5.033-5.645-6.115-7.541-3.261-7.612-4.962-15.012-5.098-22.217-.136-7.196.413-13.86,1.631-19.975,1.228-6.115,2.652-11.273,4.283-15.49,1.631-4.21,2.712-7.134,3.261-8.764.815-2.987,2.305-4.21,4.484-3.669,2.174.549,2.712,2.587,1.631,6.115-1.087,6.797-2.18,11.822-3.261,15.083-1.087,3.261-1.832,6.052-2.245,8.357-.402,2.313-.544,4.759-.402,7.338.13,2.587.875,6.726,2.239,12.433.815,3.261,2.305,6.593,4.484,9.987,2.174,3.394,4.691,5.77,7.539,7.134,2.859,1.356,5.843,1.082,8.968-.815,3.125-1.905,5.914-6.522,8.359-13.86ZM332.278,201.139c1.082,8.968,1.897,18.618,2.446,28.943.266,8.702-.141,18.752-1.223,30.166-1.087,11.414-3.402,23.236-6.93,35.465-2.718,14.134-3.261,26.434-1.631,36.892,1.631,10.466,3.261,17.599,4.892,21.401,5.973,10.599,11.343,16.51,16.105,17.733,4.75,1.223,8.762.345,12.023-2.65,3.261-2.987,5.772-6.93,7.544-11.822,1.761-4.892,2.647-8.153,2.647-9.783.266-1.897,1.082-3.873,2.446-5.911,1.359-2.038,2.582-2.916,3.669-2.65,1.082.274,1.766,2.313,2.038,6.115.266,3.81-.408,10.466-2.038,19.975-1.631,9.517-4.076,16.784-7.338,21.809-3.261,5.033-7.131,8.357-11.621,9.987-4.479,1.631-9.37,1.631-14.675,0-5.294-1.631-10.8-4.484-16.507-8.561-5.441-4.076-9.24-10.05-11.414-17.936-2.18-7.878-3.462-16.164-3.875-24.866-.402-8.694-.065-17.05,1.022-25.07,1.082-8.012,2.174-14.33,3.261-18.955,3.805-12.229,6.044-23.369,6.729-33.427.674-10.05.609-18.814-.207-26.293-.815-7.471-1.902-13.452-3.261-17.936-1.364-4.484-2.18-7.267-2.446-8.357-.815-1.631-1.424-2.987-1.837-4.076-.402-1.082-.342-2.446.207-4.076.266-1.631.745-3.394,1.424-5.299.679-1.897,2.652-6.522,5.914-13.86,1.631-3.802,3.12-5.566,4.484-5.299,1.359.274,2.582,1.497,3.669,3.669,1.082,2.18,2.038,4.759,2.854,7.745.815,2.995,1.359,5.299,1.631,6.93ZM568.712,576.171c-.815,5.707-2.587,11.006-5.299,15.898-5.707,8.153-11.207,13.727-16.512,16.713-5.294,2.995-10.186,4.484-14.675,4.484s-8.289-.957-11.414-2.854-5.234-3.527-6.316-4.892c-5.163,6.256-10.191,10.395-15.083,12.433s-9.376,2.916-13.452,2.65c-4.076-.274-7.609-1.223-10.599-2.854-2.995-1.631-5.033-2.995-6.115-4.076-3.261-3.261-6.865-5.362-10.8-6.318-3.946-.948-7.751-1.223-11.414-.815-3.674.408-7.001,1.294-9.99,2.65-2.995,1.364-5.033,2.587-6.115,3.669-7.609,5.433-15.969,10.254-25.073,14.471-9.104,4.21-17.871,7.808-26.29,10.803-8.425,2.987-15.692,5.229-21.812,6.726-6.109,1.489-9.849,2.242-11.207,2.242-2.995.266-4.962-.141-5.914-1.223-.951-1.09-1.158-2.446-.609-4.076.544-1.631,1.696-3.261,3.468-4.892,1.761-1.631,3.87-2.72,6.316-3.261,10.327-2.446,20.926-5.707,31.796-9.783,10.865-4.076,20.11-8.561,27.72-13.452,7.338-5.158,15.42-9.846,24.252-14.064,8.832-4.21,16.512-6.726,23.035-7.541,3.805-.266,7.131.071,9.99,1.019,2.848.957,5.43,2.109,7.74,3.465,2.31,1.364,4.212,2.72,5.707,4.076,1.495,1.364,2.919,2.313,4.283,2.854,4.62,1.905,8.898,2.242,12.838,1.019s7.403-3.057,10.398-5.503c2.989-2.446,5.435-5.096,7.338-7.949,1.897-2.854,3.12-4.821,3.669-5.911,1.359-2.712,2.582-4.21,3.669-4.484,1.082-.266,1.897.141,2.446,1.223.544,1.09.815,2.587.815,4.484s-.408,3.536-1.223,4.892c2.989,2.72,6.251,4.351,9.783,4.892,3.527.549,6.859.549,9.99,0,3.12-.541,5.767-1.356,7.946-2.446,2.174-1.082,3.527-1.897,4.076-2.446.815-.815,1.424-2.038,1.837-3.669.402-1.631.875-3.261,1.424-4.892,0-2.712,2.038-5.973,6.115-9.783,1.631-1.631,2.712-1.285,3.261,1.019.544,2.313.544,4.147,0,5.503ZM544.253,124.502c-.549-3.261-2.245-6.248-5.093-8.968-2.859-2.712-5.984-4.484-9.381-5.299s-6.794-.337-10.186,1.427c-3.402,1.772-5.914,5.237-7.544,10.395-2.18,9.517-3.87,18.415-5.098,26.701-1.217,8.294-2.174,15.632-2.848,22.013-.685,6.389-1.163,11.689-1.429,15.898-.272,4.218-.549,6.867-.815,7.949-2.718,5.166-4.892,5.166-6.522,0-2.718-7.604-6.049-14.471-9.985-20.586-3.946-6.115-7.816-11.414-11.621-15.898-3.81-4.484-7.131-8.012-9.99-10.599-2.848-2.579-4.685-4.139-5.5-4.688l-.815.815c-.272.274-.549.478-.815.611-.272.141-.549.478-.815,1.019-.815.815-1.701,1.364-2.652,1.631-.951.274-2.511,0-4.685-.815-2.446-.815-5.778-1.968-9.99-3.465-4.212-1.489-7.81-3.324-10.8-5.503-2.995-2.171-4.756-4.21-5.299-6.115-.549-1.897-.549-3.527,0-4.892.266-.541.609-1.631,1.022-3.261.402-1.631.815-3.324,1.217-5.096.413-1.764.881-3.527,1.429-5.299.544-1.764,1.082-3.057,1.631-3.873.815-1.631,1.897-2.579,3.261-2.854,1.359-.266,3.527-.133,6.522.408,7.338,1.364,14.268,4.829,20.79,10.395,6.522,5.574,12.365,11.485,17.529,17.733,5.158,6.256,9.376,11.963,12.637,17.121,3.261,5.166,5.158,8.153,5.707,8.968,1.897-16.306,4.75-30.432,8.561-42.395,3.805-11.955,8.289-20.923,13.452-26.904,3.805-3.802,6.93-5.911,9.376-6.318s5.435-.204,8.968.611c5.707,2.18,9.985,5.096,12.843,8.764,2.848,3.669,4.75,7.479,5.707,11.414.946,3.943,1.217,7.683.815,11.21-.413,3.536-1.022,6.115-1.837,7.745-1.631,3.261-3.196,4.422-4.685,3.465-1.5-.948-2.517-2.101-3.06-3.465ZM560.151,298.974c-1.631,2.72-3.332,5.299-5.098,7.745s-3.604,4.892-5.5,7.338c-3.261,4.076-7.071,8.294-11.414,12.637-4.348,4.351-8.968,7.887-13.86,10.599-1.087.549-3.402,1.568-6.93,3.057-3.533,1.497-7.479,3.057-11.822,4.688-4.348,1.631-8.631,3.261-12.838,4.892-4.218,1.631-7.278,2.72-9.175,3.261-3.81,1.364-6.457.815-7.946-1.631-1.5-2.446-.478-4.892,3.055-7.338,1.631-1.356,5.158-3.731,10.599-7.134,5.435-3.394,11.142-6.93,17.121-10.599,5.973-3.669,11.414-6.93,16.306-9.783s7.745-4.547,8.561-5.096c1.631-1.356,2.375-2.101,2.245-2.242-.141-.133-.886-.47-2.245-1.019-.815-.266-2.647-.745-5.506-1.427-2.848-.674-6.18-1.427-9.985-2.242-3.81-.815-7.887-1.56-12.229-2.242-4.348-.674-8.294-1.285-11.822-1.834-9.24-1.082-16.648-1.223-22.219-.408s-9.985,2.109-13.246,3.873c-3.261,1.772-5.642,3.669-7.136,5.707s-2.788,3.739-3.87,5.096c-1.631,2.72-3.468,4.147-5.5,4.28-2.044.141-2.517-2.375-1.429-7.541.544-2.446,1.696-5.566,3.462-9.376,1.766-3.802,4.076-7.604,6.935-11.414,2.848-3.802,6.109-7.541,9.783-11.21,3.663-3.669,7.805-6.726,12.43-9.172,7.338-4.076,15.349-6.177,24.051-6.318,8.696-.133,17.121.682,25.274,2.446,8.153,1.772,15.49,3.943,22.013,6.522,6.522,2.587,11.414,4.555,14.675,5.911,3.261,1.364,5.299,2.995,6.115,4.892.815,1.905,1.082,3.81.815,5.707-.272,1.905-.886,3.739-1.832,5.503-.957,1.772-1.571,3.057-1.837,3.873ZM656.355,171.381c1.082-2.171,2.375-3.669,3.87-4.484s2.446-.541,2.859.815c.402,1.364,0,4.014-1.228,7.949-1.217,3.943-3.87,9.446-7.946,16.51-6.256,10.332-12.501,16.306-18.752,17.936-6.256,1.631-11.963,1.09-17.121-1.631-5.163-2.712-9.577-6.522-13.251-11.414-3.663-4.892-6.049-8.827-7.131-11.822-3.533-10.865-4.625-21.871-3.261-33.019,1.359-11.14,3.669-21.401,6.93-30.777s6.789-17.387,10.599-24.051c3.805-6.655,6.381-10.936,7.745-12.841,1.082-1.897,2.305-3.19,3.669-3.873,1.359-.674,2.582-.745,3.669-.204,1.082.549,1.766,1.497,2.038,2.854.266,1.364-.141,3.128-1.223,5.299-3.261,8.968-6.049,16.243-8.359,21.809-2.31,5.574-4.076,10.74-5.294,15.49-1.228,4.759-2.044,9.65-2.446,14.675-.413,5.033-.348,11.352.201,18.955.266,4.351,1.696,9.109,4.278,14.268,2.582,5.166,5.914,9.039,9.99,11.618,4.076,2.587,8.696,3.128,13.86,1.631,5.158-1.489,10.599-6.726,16.306-15.694ZM814.113,190.54c1.359,2.446,2.375,4.484,3.06,6.115.674,1.631.745,3.669.201,6.115-.272,1.364-.75,3.332-1.429,5.911-.679,2.587-1.495,5.033-2.446,7.338-.951,2.313-2.103,4.014-3.462,5.096-1.364,1.09-2.854.815-4.484-.815-1.631-2.987-4.011-5.84-7.131-8.561-3.131-2.712-6.185-5.158-9.175-7.338-1.902-1.356-3.739-2.508-5.5-3.465-1.772-.948-3.609-1.968-5.506-3.057l-9.376,9.376c-5.707,5.707-13.045,12.708-22.013,20.994-8.968,8.294-19.094,17.121-30.372,26.497-11.278,9.376-22.763,18.007-34.443,25.885-2.995,1.905-7.136,4.28-12.43,7.134-5.305,2.854-10.805,5.707-16.512,8.561s-11.077,5.503-16.099,7.949c-5.033,2.446-8.631,4.076-10.805,4.892-3.81,2.446-6.93,3.873-9.376,4.28s-4.076.071-4.892-1.019c-.815-1.082-.75-2.579.201-4.484.951-1.897,2.919-4.076,5.914-6.522,2.989-2.446,9.512-7.134,19.567-14.064,10.05-6.93,21.942-15.287,35.666-25.07,13.724-9.783,28.6-20.649,44.64-32.612,16.034-11.955,31.655-24.184,46.879-36.688-1.087-.541-4.419-2.038-9.99-4.484s-11.278-5.84-17.121-10.191c-5.843-4.343-10.599-9.509-14.262-15.49-3.674-5.973-4.017-12.637-1.022-19.975,1.082-2.446,2.989-6.044,5.707-10.803,2.712-4.75,5.914-9.58,9.577-14.471,3.674-4.892,7.751-9.305,12.229-13.248,4.49-3.935,9.175-6.452,14.066-7.541,4.62-1.082,9.104-.815,13.452.815,4.343,1.631,8.153,4.351,11.414,8.153,3.261,3.81,5.707,8.561,7.338,14.268s2.038,11.963,1.223,18.752c-.815,6.797-1.565,12.371-2.239,16.713-.685,4.351-1.364,7.816-2.044,10.395-.679,2.587-1.217,4.422-1.631,5.503-.402,1.09-.609,1.905-.609,2.446,3.805,2.995,8.218,5.778,13.251,8.357,5.022,2.587,8.354,5.37,9.985,8.357ZM666.138,601.038c1.631-2.712,2.989-3.527,4.076-2.446,1.082,1.09,0,6.389-3.261,15.898-2.18,7.338-4.892,11.955-8.153,13.86-3.261,1.897-6.593,2.242-9.99,1.019s-6.457-3.261-9.169-6.115c-2.718-2.854-4.625-5.237-5.707-7.134-3.261-5.973-4.962-12.025-5.093-18.14-.141-6.115.266-11.751,1.217-16.917.951-5.158,2.245-9.58,3.875-13.248s2.712-6.177,3.261-7.541c.815-2.446,2.174-3.394,4.076-2.854,1.897.549,2.174,2.038.815,4.484-.815,6.256-1.631,10.803-2.446,13.656s-1.429,5.237-1.832,7.134c-.413,1.905-.549,3.943-.413,6.115.136,2.18.881,5.441,2.245,9.783.544,2.995,1.832,5.981,3.875,8.968,2.033,2.995,4.343,5.025,6.925,6.115,2.582,1.082,5.305.815,8.153-.815,2.859-1.631,5.365-5.566,7.544-11.822ZM777.425,168.935c.544-2.171,1.223-5.566,2.038-10.191.815-4.617.881-9.305.207-14.064-.685-4.75-2.386-9.031-5.098-12.841-2.718-3.802-7.338-5.973-13.86-6.522-2.995,0-6.729.753-11.207,2.242-4.49,1.497-7.952,4.147-10.398,7.949-1.364,2.18-2.18,3.402-2.446,3.669-.272.274.544,1.223,2.446,2.854,2.446,2.995,5.772,5.981,9.985,8.968,4.212,2.995,8.495,5.848,12.843,8.561l15.49,9.376ZM783.132,576.987c-.549-.541-1.902-1.285-4.076-2.242-2.18-.948-4.756-1.631-7.745-2.038-2.995-.408-6.115-.408-9.376,0s-6.256,1.834-8.968,4.28c-1.631,1.631-3.125,2.446-4.484,2.446s-1.772-.815-1.223-2.446c.815-1.631,1.56-2.783,2.245-3.465.674-.674,1.016-1.427,1.016-2.242.266-.541.951-1.834,2.038-3.873,1.082-2.038,2.652-4.139,4.685-6.318,2.044-2.171,4.49-4.006,7.338-5.503,2.859-1.489,6.321-2.101,10.398-1.834,7.881.549,14.268,1.568,19.159,3.057,4.892,1.497,6.522,5.096,4.892,10.803-1.087,2.995-2.652,6.318-4.685,9.987-2.044,3.669-4.147,7.204-6.321,10.599-2.18,3.402-4.147,6.389-5.908,8.968-1.772,2.587-2.794,4.147-3.06,4.688-.272.549-.342,1.701-.201,3.465.13,1.772,1.016,3.536,2.647,5.299s4.278,3.057,7.952,3.873c3.663.815,8.762.541,15.284-.815,6.522-1.09,11.887-2.508,16.099-4.28,4.212-1.764,7.68-3.527,10.398-5.299,2.712-1.764,4.75-3.394,6.115-4.892,1.359-1.489,2.446-2.508,3.261-3.057.815-.266,1.897-.815,3.261-1.631,1.359-.815,2.511-1.427,3.468-1.834.946-.408,1.631-.337,2.033.204.413.549.065,1.905-1.016,4.076-2.18,5.441-6.185,10.803-12.028,16.102s-11.349,9.438-16.507,12.433c-2.446,1.356-6.185,2.916-11.213,4.688-5.028,1.764-10.256,3.057-15.692,3.873-5.441.815-10.599.745-15.49-.204-4.892-.957-8.561-3.465-11.006-7.541-1.631-3.261-1.495-7.479.408-12.637,1.897-5.158,3.669-9.376,5.299-12.637,1.897-3.261,3.669-5.77,5.299-7.541,1.631-1.764,3.261-3.873,4.892-6.318,1.631-2.171,2.582-3.873,2.854-5.096.266-1.223.266-2.242,0-3.057-.272-.815-.957-1.489-2.038-2.038ZM837.349,325.878c.815-1.897,1.766-3.19,2.854-3.873,1.082-.674,1.832-.408,2.245.815.402,1.223.201,3.606-.614,7.134-.815,3.536-2.854,8.702-6.115,15.49-4.892,10.058-10.126,16.102-15.697,18.14s-10.871,2.038-15.893,0c-5.033-2.038-9.446-5.229-13.251-9.58-3.81-4.343-6.256-7.878-7.338-10.599-3.81-9.509-5.37-19.426-4.685-29.758.674-10.324,2.239-19.975,4.685-28.943s5.229-16.713,8.359-23.236c3.12-6.522,5.093-10.865,5.908-13.045.815-1.631,1.897-2.712,3.261-3.261,1.359-.541,2.582-.674,3.669-.408,1.082.274,1.897,1.09,2.446,2.446.544,1.364.266,2.995-.815,4.892-2.446,8.702-4.625,15.765-6.522,21.197-1.902,5.441-3.332,10.395-4.283,14.879s-1.495,9.039-1.631,13.656c-.136,4.625.342,10.332,1.429,17.121.544,4.076,2.103,8.357,4.691,12.841,2.576,4.484,5.837,7.745,9.783,9.783,3.935,2.038,8.283,2.109,13.045.204,4.75-1.897,9.577-7.196,14.469-15.898ZM864.253,113.496c3.805,1.364,7.473,2.791,11.006,4.28,3.527,1.497,6.93,3.199,10.191,5.096,5.435,2.995,10.457,6.797,15.083,11.414,4.62,4.625,7.196,9.925,7.745,15.898,0,6.256-1.087,11.555-3.261,15.898-2.18,4.351-4.756,8.09-7.745,11.21-2.995,3.128-5.979,5.574-8.968,7.338-2.995,1.772-5.441,3.199-7.338,4.28-2.18,1.09-5.234,1.905-9.169,2.446-3.946.549-7.887.345-11.827-.611-3.941-.948-7.539-2.916-10.8-5.911-3.261-2.987-5.441-7.745-6.522-14.268-.815-6.789-.342-14.268,1.429-22.42,1.761-8.153,4.006-15.961,6.723-23.44,2.712-7.471,5.435-14.126,8.153-19.975,2.712-5.84,4.75-9.846,6.115-12.025,2.174-3.802,3.527-4.892,4.076-3.261.544,1.631.544,3.536,0,5.707-.272.815-.609,2.18-1.022,4.076-.402,1.905-.881,3.873-1.424,5.911-.549,2.038-1.022,3.873-1.424,5.503-.413,1.631-.755,2.587-1.022,2.854ZM892.381,166.082c2.174-1.631,3.669-2.916,4.484-3.873.815-.948-.141-2.916-2.854-5.911-2.995-4.892-6.664-8.764-11.006-11.618-4.348-2.854-8.425-4.954-12.229-6.318-4.076-1.356-8.832-2.305-14.268-2.854-.549.549-1.223,2.242-2.038,5.096s-1.364,6.052-1.631,9.58c-.272,3.536.136,7.071,1.223,10.599,1.082,3.536,3.397,6.256,6.93,8.153,1.631.549,3.734,1.09,6.316,1.631,2.582.549,5.365.815,8.359.815s5.973-.337,8.968-1.019c2.989-.674,5.566-2.101,7.745-4.28ZM927.438,303.865c.815-1.631,1.832-2.783,3.06-3.465,1.217-.674,2.033-.47,2.446.611.402,1.09.201,3.199-.614,6.318-.815,3.128-2.718,7.541-5.707,13.248-4.076,9.243-8.495,14.746-13.246,16.51-4.761,1.772-9.245,1.701-13.458-.204-4.212-1.897-7.81-4.821-10.8-8.764-2.995-3.935-4.892-6.992-5.707-9.172-3.533-8.968-5.093-18.14-4.691-27.516.413-9.376,1.696-18.069,3.875-26.089,2.174-8.012,4.62-14.942,7.338-20.79,2.712-5.84,4.484-9.713,5.299-11.618,1.631-2.987,3.669-4.006,6.115-3.057,2.446.957,2.854,3.332,1.223,7.134-2.446,7.612-4.484,13.797-6.115,18.548-1.631,4.759-2.924,9.172-3.875,13.248s-1.424,8.224-1.424,12.433.408,9.58,1.223,16.102c.815,3.536,2.375,7.338,4.691,11.414,2.305,4.076,5.093,7.001,8.354,8.764,3.261,1.772,6.789,1.905,10.599.408,3.805-1.489,7.604-6.177,11.414-14.064ZM1531.159,363.381l15.49,33.427c4.076,8.702,8.153,17.262,12.229,25.682,4.076,8.427,7.066,14.268,8.968,17.529,8.696,14.409,13.452,33.019,14.268,55.847.266,5.707.337,11.759.201,18.14-.136,6.389-.609,12.574-1.424,18.548-.815,5.981-2.038,11.555-3.669,16.713-1.631,5.166-3.669,9.376-6.115,12.637-5.441,7.338-11.207,12.911-17.328,16.713-6.109,3.81-12.365,6.46-18.752,7.949-6.386,1.497-12.572,2.109-18.545,1.834-5.979-.266-11.414-.948-16.306-2.038-17.67-4.892-32.003-11.618-43.004-20.178-11.012-8.561-19.638-17.184-25.888-25.885-6.256-8.694-10.669-16.776-13.246-24.255-2.587-7.471-4.147-12.699-4.691-15.694-2.718,11.148-5.642,20.586-8.767,28.331-3.125,7.745-6.316,14.409-9.577,19.975-3.261,5.574-6.664,10.466-10.191,14.675-3.533,4.218-7.071,8.224-10.599,12.025-10.871,10.058-21.399,17.059-31.595,20.994-10.186,3.943-19.839,5.778-28.937,5.503-9.109-.266-17.599-2.038-25.48-5.299-7.887-3.261-14.816-7.134-20.79-11.618-5.979-4.484-11.006-9.031-15.083-13.656-4.076-4.617-6.794-8.286-8.153-11.006-5.979-10.599-10.126-22.687-12.436-36.28-2.31-13.585-3.462-27.312-3.462-41.172s.951-27.375,2.854-40.561c1.897-13.178,4.212-24.796,6.93-34.854,2.712-10.05,3.527-15.694,2.446-16.917-1.087-1.223-2.995.204-5.707,4.28-2.718,4.076-5.908,9.987-9.582,17.733-3.663,7.745-6.865,15.836-9.577,24.255-1.631,4.892-3.81,12.3-6.522,22.217-2.718,9.925-5.571,20.727-8.561,32.408-2.995,11.689-6.049,23.51-9.169,35.465-3.131,11.963-5.914,22.562-8.359,31.796-2.446,9.243-5.234,16.784-8.359,22.624-3.125,5.848-6.316,10.466-9.577,13.86-3.261,3.402-6.522,5.778-9.783,7.134-3.261,1.364-6.256,2.18-8.968,2.446-8.425.815-15.833-.337-22.219-3.465-6.386-3.12-11.887-6.992-16.507-11.618-4.625-4.617-8.425-9.58-11.414-14.879-2.995-5.299-5.163-9.58-6.522-12.841-7.071-17.387-12.3-33.223-15.692-47.491-3.402-14.268-5.647-26.559-6.729-36.892-1.087-10.324-1.424-18.752-1.022-25.274.413-6.522.881-10.865,1.429-13.045,1.082-4.617,2.511-6.655,4.278-6.115,1.766.549,2.919,3.128,3.468,7.745.544,4.351,1.359,9.65,2.446,15.898,1.082,6.256,2.712,14.001,4.892,23.236,2.712,10.599,5.566,19.708,8.561,27.312,2.989,7.612,5.908,14.134,8.767,19.567,2.848,5.441,5.566,9.987,8.153,13.656,2.576,3.669,4.952,6.867,7.131,9.58,5.158,5.441,10.735,8.631,16.713,9.58,5.973.957,11.273.611,15.898-1.019,4.62-2.171,8.898-6.452,12.838-12.841,3.941-6.381,7.403-12.699,10.398-18.955,1.631-2.987,3.598-8.419,5.908-16.306,2.31-7.878,4.549-16.164,6.729-24.866,2.174-8.694,4.142-16.917,5.914-24.662,1.761-7.745,2.913-12.841,3.462-15.287,3.805-14.675,8.082-27.853,12.843-39.541,4.75-11.68,9.506-21.871,14.262-30.573,4.756-8.694,9.311-16.031,13.659-22.013,4.343-5.973,8.012-10.599,11.006-13.86,2.989-3.261,5.566-5.229,7.745-5.911,2.174-.674,4.006-.541,5.506.408,1.489.957,2.576,2.587,3.261,4.892.674,2.313,1.016,4.829,1.016,7.541.544,5.441.065,12.778-1.429,22.013-1.495,9.243-3.055,17.396-4.685,24.459-1.902,9.243-3.533,19.159-4.892,29.758-1.364,10.599-2.31,21.064-2.854,31.389-.549,10.332-.478,20.32.201,29.962.679,9.65,2.103,18.281,4.283,25.885,5.158,16.306,13.452,28.198,24.866,35.669,11.414,7.479,23.236,10.944,35.465,10.395,10.05,0,19.567-1.897,28.535-5.707,8.968-3.802,16.849-8.286,23.643-13.452,6.789-5.158,12.365-10.395,16.713-15.694,4.343-5.299,7.196-9.58,8.561-12.841,3.261-7.063,5.5-14.401,6.729-22.013,1.217-7.604,1.968-14.808,2.239-21.605.266-6.789.136-12.974-.408-18.548-.549-5.566-.957-9.846-1.223-12.841-.549-2.987-1.424-7.4-2.652-13.248-1.217-5.84-2.647-12.292-4.278-19.363-1.631-7.063-3.402-14.33-5.299-21.809-1.902-7.471-3.604-14.401-5.098-20.79-1.495-6.381-2.788-11.822-3.87-16.306-1.087-4.484-1.772-7.134-2.038-7.949-.815-2.446-1.087-4.484-.815-6.115.266-1.631.815-3.802,1.631-6.522.266-1.082.881-2.987,1.832-5.707.951-2.712,2.044-5.566,3.261-8.561,1.228-2.987,2.381-5.973,3.468-8.968,1.082-2.987,1.897-5.433,2.446-7.338.815-2.987,2.038-3.873,3.669-2.65s2.854,3.199,3.669,5.911c7.604,21.472,13.452,41.987,17.529,61.554s7.745,39.949,11.006,61.147c3.805,27.179,8.359,47.969,13.653,62.369,5.305,14.409,10.534,24.192,15.697,29.35,14.403,14.134,28.057,23.377,40.971,27.72,12.903,4.351,24.388,6.115,34.443,5.299,10.05-.815,18.409-3.12,25.073-6.93,6.653-3.802,10.936-6.655,12.838-8.561,1.631-1.356,2.446-2.579,2.446-3.669,0-1.082-.272-2.038-.815-2.854-.549-2.712-2.18-7.134-4.892-13.248-2.718-6.115-5.707-12.566-8.968-19.363-3.261-6.789-6.457-13.107-9.577-18.955-3.131-5.84-5.37-9.846-6.729-12.025-4.076-6.522-8.359-14.808-12.838-24.866-4.49-10.05-8.631-19.975-12.436-29.758-3.81-9.783-7.071-18.548-9.783-26.293-2.718-7.745-4.348-12.699-4.892-14.879-1.364-5.433-2.854-10.661-4.484-15.694-1.631-5.025-3.669-9.031-6.115-12.025-1.902-2.171-3.125-3.802-3.669-4.892-.549-1.082-.549-2.579,0-4.484.266-.815,1.016-2.579,2.245-5.299,1.217-2.712,2.576-5.77,4.076-9.172,1.489-3.394,2.913-6.859,4.278-10.395,1.359-3.527,2.305-6.381,2.854-8.561,1.631-3.802,3.12-5.433,4.484-4.892,1.359.549,2.712,1.631,4.076,3.261.544.815,2.103,2.924,4.691,6.318,2.576,3.402,5.837,7.541,9.783,12.433,3.935,4.892,8.153,10.191,12.632,15.898,4.49,5.707,8.696,11.21,12.642,16.51,3.935,5.299,7.468,9.987,10.599,14.064,3.12,4.076,5.229,6.93,6.316,8.561,1.359,2.446,1.837,4.147,1.424,5.096-.402.957-1.217,1.497-2.446,1.631-1.217.141-2.582,0-4.076-.408s-2.647-.878-3.462-1.427c-1.631-.815-3.875-1.897-6.723-3.261-2.859-1.356-6.463-3.394-10.805-6.115-4.076-2.446-5.979-2.712-5.707-.815.266,1.905.815,4.218,1.631,6.93ZM1115.362,171.381c2.712,19.567,5.365,38.256,7.946,56.051,2.582,17.803,5.098,34.854,7.544,51.159,1.897,13.86,5.158,37.166,9.783,69.911,4.62,32.753,7.066,50.485,7.338,53.198,2.174,20.382,3.12,38.052,2.854,52.994-.272,14.95-1.087,27.383-2.446,37.299-1.364,9.925-2.924,17.529-4.691,22.828s-3.055,8.498-3.87,9.58c-1.364,1.631-2.652,2.924-3.87,3.873-1.228.957-2.245,1.294-3.06,1.019-.815-.266-1.429-1.489-1.832-3.669-.413-2.171-.348-5.707.201-10.599.266-3.261.065-8.968-.614-17.121s-1.565-17.387-2.647-27.72c-1.087-10.324-2.446-21.197-4.076-32.612s-3.125-22.279-4.484-32.612c-1.364-10.324-4.147-30.166-8.359-59.516-4.212-29.35-7.272-50.955-9.169-64.815-1.902-13.86-3.81-27.853-5.707-41.987-1.902-14.126-3.81-28.057-5.707-41.783-1.902-13.719-3.604-26.089-5.093-37.096-1.5-11.006-2.794-20.178-3.875-27.516-1.087-7.338-1.772-11.822-2.038-13.452-.549-2.171-1.565-4.28-3.055-6.318-1.5-2.038-2.652-3.324-3.468-3.873-.815-.541-1.631-1.223-2.446-2.038s-.549-2.038.815-3.669c.266-1.082,1.288-3.394,3.055-6.93,1.766-3.527,3.674-7.338,5.707-11.414,2.044-4.076,4.011-7.949,5.914-11.618,1.897-3.669,3.12-6.177,3.669-7.541,1.631-2.712,2.919-3.669,3.875-2.854.946.815,1.832,2.587,2.647,5.299.266.549,1.489,3.057,3.669,7.541,2.174,4.484,4.892,10.129,8.153,16.917,3.261,6.797,6.789,14.205,10.599,22.217,3.805,8.02,7.544,15.898,11.207,23.643,3.674,7.745,7.066,14.879,10.197,21.401,3.12,6.522,5.5,11.555,7.131,15.083,2.446,5.166,3.669,9.109,3.669,11.822s-.614,4.484-1.832,5.299c-1.228.815-2.794.815-4.691,0-1.902-.815-3.402-2.038-4.484-3.669-1.364-1.897-4.218-5.229-8.561-9.987-4.348-4.75-8.294-9.031-11.822-12.841-1.631-1.631-2.788-2.446-3.468-2.446s-1.016.408-1.016,1.223.065,1.976.201,3.465c.136,1.497.207,2.791.207,3.873ZM1229.095,592.069c3.261-1.631,5.506-2.508,6.723-2.65,1.228-.133,1.429,1.019.614,3.465s-1.294,4.147-1.429,5.096c-.136.957-.473,2.242-1.016,3.873-.549,1.905-1.294,3.261-2.245,4.076s-2.919,2.313-5.908,4.484c-1.087.549-3.875,1.834-8.354,3.873-4.49,2.038-9.854,4.484-16.105,7.338-6.256,2.854-12.909,5.911-19.975,9.172-7.071,3.261-13.594,6.248-19.567,8.968-5.979,2.712-11.077,5.096-15.284,7.134-4.218,2.038-6.729,3.19-7.544,3.465-4.348,2.712-6.115,2.446-5.299-.815,0-3.261.136-5.299.408-6.115,0-1.364.136-2.313.408-2.854-.549-.549-.549-1.223,0-2.038.266-.549.745-1.223,1.429-2.038.674-.815,1.968-1.772,3.87-2.854l89.274-41.58ZM1498.547,67.024c5.435-2.712,9.234-4.28,11.414-4.688,2.174-.408,2.582,1.701,1.223,6.318-1.364,3.81-2.038,6.593-2.038,8.357s-.679,4.014-2.038,6.726c-.815,2.446-2.038,4.555-3.669,6.318-1.631,1.772-5.163,3.739-10.599,5.911-1.631.549-6.316,2.313-14.066,5.299-7.74,2.995-17.463,6.867-29.144,11.618-11.686,4.759-24.937,10.262-39.743,16.51-14.816,6.256-30.166,12.778-46.069,19.567-15.893,6.797-31.932,13.727-48.102,20.79-16.17,7.071-31.323,13.86-45.45,20.382-14.132,6.522-26.904,12.708-38.319,18.548-11.414,5.848-20.524,10.944-27.312,15.287-2.995,2.446-5.093,3.739-6.321,3.873-1.217.141-1.696-1.285-1.424-4.28.266-2.987.473-5.362.609-7.134.136-1.764.614-5.636,1.429-11.618.266-1.897,2.712-4.75,7.338-8.561,2.989-2.171,9.305-5.566,18.953-10.191,9.648-4.617,21.404-10.05,35.264-16.306,13.86-6.248,29.144-13.045,45.863-20.382,16.708-7.338,33.693-14.675,50.95-22.013,17.257-7.338,34.106-14.471,50.548-21.401,16.442-6.93,31.187-13.178,44.232-18.752,13.045-5.566,23.709-10.12,32.003-13.656,8.283-3.527,13.104-5.707,14.469-6.522ZM1251.515,121.241c.266-1.631.815-2.854,1.631-3.669s1.489-.815,2.038,0c.544.815.674,2.72.408,5.707-.272,2.995-1.364,7.338-3.261,13.045-2.718,8.427-6.049,13.594-9.99,15.49-3.941,1.905-7.881,2.242-11.816,1.019-3.946-1.223-7.408-3.394-10.398-6.522-2.995-3.12-5.033-5.636-6.115-7.541-3.81-7.338-5.848-14.605-6.115-21.809-.272-7.196.201-13.719,1.429-19.567,1.217-5.84,2.712-10.865,4.479-15.083,1.766-4.21,2.919-7.134,3.468-8.764.815-2.712,2.446-3.802,4.892-3.261,2.446.549,2.989,2.446,1.631,5.707-1.364,7.071-2.517,12.167-3.468,15.287-.951,3.128-1.631,5.778-2.033,7.949-.413,2.18-.478,4.555-.207,7.134.266,2.587,1.082,6.726,2.446,12.433.815,2.995,2.375,6.052,4.685,9.172,2.31,3.128,4.957,5.37,7.952,6.726,2.989,1.364,6.115,1.223,9.376-.408s6.251-5.973,8.968-13.045ZM1386.853,173.827c.815,3.81,2.375,8.02,4.685,12.637,2.31,4.625,4.756,9.109,7.338,13.452,2.582,4.351,4.957,8.357,7.136,12.025,2.174,3.669,3.527,6.46,4.076,8.357.544,2.72,1.016,5.574,1.429,8.561.402,2.995-.614,8.294-3.06,15.898-1.087,3.536-2.854,6.318-5.299,8.357s-5.033,3.536-7.745,4.484c-2.718.957-5.37,1.568-7.952,1.834-2.582.274-4.419.408-5.5.408-2.18-.266-4.685-1.019-7.544-2.242-2.848-1.223-5.707-2.854-8.555-4.892-2.859-2.038-5.506-4.28-7.952-6.726s-4.218-5.158-5.299-8.153c-1.902,7.887-4.756,13.931-8.561,18.14-3.81,4.218-7.745,7.338-11.822,9.376s-7.946,3.261-11.621,3.669c-3.663.408-6.316.611-7.946.611-5.163-.266-9.175-1.764-12.023-4.484-2.859-2.712-5.033-5.707-6.522-8.968-1.5-3.261-2.386-6.381-2.652-9.376-.272-2.987-.272-5.025,0-6.115,0-.815.065-2.446.207-4.892.13-2.446.337-4.954.609-7.541.266-2.579.473-4.954.609-7.134.136-2.171.207-3.527.207-4.076,0-1.356-.272-2.854-.815-4.484-.549-1.631-.815-2.854-.815-3.669,0-1.356.408-3.261,1.223-5.707s1.897-4.75,3.261-6.93c1.631-2.171,2.647-3.057,3.06-2.65.402.408,1.283,2.109,2.647,5.096.815,3.261,1.223,6.797,1.223,10.599s-.207,7.479-.609,11.006c-.413,3.536-.957,6.522-1.631,8.968-.685,2.446-1.163,3.943-1.429,4.484,0,1.631.266,2.924.815,3.873.544.957,1.631,2.791,3.261,5.503,2.712,2.72,5.772,4.555,9.169,5.503,3.397.957,6.935,1.09,10.599.408,3.674-.674,7.202-2.038,10.599-4.076s6.321-4.688,8.767-7.949c2.712-3.261,4.212-6.789,4.484-10.599.266-3.802-.071-7.471-1.022-11.006-.951-3.527-2.103-6.585-3.462-9.172-1.364-2.579-2.18-4.28-2.446-5.096-.549-.815-1.223-2.171-2.038-4.076-.815-1.897-1.223-3.261-1.223-4.076,0-1.356.201-3.873.614-7.541.402-3.669,1.283-6.177,2.647-7.541.815-1.356,1.489-1.897,2.038-1.631.544.274,1.223,1.09,2.038,2.446,1.359,1.631,3.06,4.625,5.093,8.968,2.044,4.351,3.468,9.376,4.283,15.083.815,5.441,1.837,10.191,3.055,14.268,1.228,4.076,3.468,7.745,6.729,11.006,5.158,4.351,9.783,7.338,13.86,8.968s7.745,2.587,11.006,2.854c3.261.274,5.973,0,8.153-.815,2.174-.815,3.805-1.489,4.892-2.038,2.174-.815,2.919-1.968,2.245-3.465-.685-1.489-1.701-3.057-3.06-4.688-2.18-2.446-4.484-5.566-6.93-9.376-2.446-3.802-4.685-7.675-6.729-11.618-2.033-3.935-3.734-7.471-5.093-10.599-1.364-3.12-2.18-5.096-2.446-5.911-.549-1.082-.957-1.968-1.223-2.65-.272-.674-.408-1.489-.408-2.446,0-.948.201-2.242.614-3.873.402-1.631,1.016-3.935,1.832-6.93,1.359-3.802,2.647-5.433,3.875-4.892,1.217.549,2.239,1.631,3.055,3.261ZM1315.107,365.827c10.865,14.675,19.295,29.899,25.274,45.656,2.712,7.071,5.028,14.542,6.93,22.42,1.897,7.887,2.989,16.243,3.261,25.07.266,8.835-.342,17.874-1.832,27.108-1.5,9.243-4.424,18.618-8.767,28.127-1.364,3.536-2.517,4.892-3.462,4.076-.957-.815-1.163-2.712-.614-5.707,2.712-9.783,3.805-19.771,3.261-29.962-.549-10.191-1.973-19.975-4.278-29.35-2.315-9.376-5.24-18.203-8.767-26.497-3.533-8.286-6.93-15.553-10.191-21.809-3.261-6.248-6.115-11.21-8.561-14.879-2.446-3.669-3.81-5.636-4.076-5.911-1.364-2.171-1.631-5.299-.815-9.376.544-1.631.951-2.712,1.223-3.261.266-.541,1.223-2.446,2.854-5.707,2.174-3.527,3.935-4.75,5.299-3.669,1.359,1.09,2.446,2.313,3.261,3.669ZM1458.598,612.044c.266-1.356.815-2.305,1.631-2.854.815-.541,1.424-.408,1.837.408.402.815.467,2.446.201,4.892-.272,2.446-1.223,6.115-2.854,11.006-2.446,7.063-5.441,11.414-8.968,13.045-3.533,1.631-6.93,1.897-10.191.815-3.261-1.09-6.256-2.924-8.968-5.503-2.718-2.587-4.484-4.555-5.299-5.911-3.261-6.797-5.098-13.248-5.5-19.363-.413-6.115-.071-11.751,1.016-16.917,1.082-5.158,2.375-9.509,3.875-13.045,1.489-3.527,2.506-5.973,3.055-7.338,1.082-2.712,2.652-3.935,4.685-3.669,2.044.274,2.511,2.038,1.429,5.299-1.087,5.707-2.109,9.987-3.06,12.841-.951,2.854-1.631,5.299-2.033,7.338-.413,2.038-.478,4.218-.207,6.522.266,2.313,1.082,5.911,2.446,10.803.815,2.446,2.239,5.096,4.283,7.949,2.033,2.854,4.278,4.821,6.723,5.911,2.446,1.082,5.093.878,7.952-.611,2.848-1.497,5.5-5.37,7.946-11.618ZM1517.706,201.139c.544-1.631,1.359-2.854,2.446-3.669,1.082-.815,1.897-.674,2.446.408.544,1.09.614,3.332.201,6.726-.402,3.402-1.832,8.357-4.278,14.879-3.261,10.332-7.338,16.713-12.229,19.159s-9.648,2.924-14.268,1.427c-4.625-1.489-8.832-4.139-12.637-7.949-3.81-3.802-6.256-6.789-7.338-8.968-4.348-8.968-6.723-18.406-7.136-28.331-.402-9.917.065-19.222,1.429-27.924,1.359-8.694,3.06-16.306,5.093-22.828,2.044-6.522,3.326-10.865,3.875-13.045.266-1.631.951-2.783,2.038-3.465,1.082-.674,2.174-.878,3.261-.611,1.082.274,1.897,1.09,2.446,2.446.544,1.364.408,3.128-.408,5.299-1.364,8.153-2.517,14.816-3.462,19.975-.957,5.166-1.631,9.925-2.044,14.268-.402,4.351-.402,8.764,0,13.248.413,4.484,1.429,9.987,3.06,16.51.815,3.536,2.582,7.275,5.299,11.21,2.712,3.943,5.914,6.726,9.577,8.357,3.674,1.631,7.544,1.364,11.621-.815,4.076-2.171,7.745-7.604,11.006-16.306ZM1603.719,163.636l24.051,141.045c2.712,18.485,5.707,37.166,8.968,56.051,3.261,18.893,6.321,36.759,9.169,53.605,2.859,16.855,5.435,31.867,7.751,45.045,2.305,13.186,4.006,23.44,5.093,30.777,2.174,15.49,3.12,29.962,2.854,43.414-.272,13.452-1.364,25.548-3.261,36.28-1.902,10.74-3.941,19.975-6.115,27.72-2.18,7.745-3.81,13.39-4.892,16.917-4.348,5.433-6.522,3.935-6.522-4.484.266-8.153-.071-18.548-1.016-31.185-.957-12.637-2.652-26.63-5.098-41.987-2.446-15.349-7.071-44.699-13.86-88.051-6.794-43.343-12.3-77.585-16.512-102.726-4.212-25.133-8.289-49.733-12.229-73.784s-7.473-45.656-10.599-64.815c-3.125-19.159-5.707-34.916-7.74-47.287-2.044-12.362-3.201-19.363-3.468-20.994-1.631-5.973-3.196-10.936-4.685-14.879-1.5-3.935-2.924-6.585-4.283-7.949-2.446-2.987-2.587-7.604-.408-13.86.266-1.082,1.082-3.057,2.446-5.911,1.359-2.854,2.712-5.84,4.076-8.968,1.359-3.12,2.712-6.381,4.076-9.783,1.359-3.394,2.446-6.318,3.261-8.764,1.359-2.712,2.582-4.343,3.669-4.892,1.082-.541,2.038-.611,2.854-.204s1.56,1.09,2.245,2.038c.674.957,1.283,1.834,1.832,2.65.266.549,1.766,3.402,4.484,8.561,2.712,5.166,6.115,11.618,10.191,19.363,4.076,7.745,8.419,16.173,13.045,25.274,4.62,9.109,9.169,17.803,13.659,26.089,4.479,8.294,8.213,15.694,11.207,22.217,2.989,6.522,5.028,10.873,6.115,13.045,1.359,3.536,1.56,5.848.614,6.93-.957,1.09-2.18,1.427-3.674,1.019s-3.055-1.223-4.685-2.446-2.854-2.242-3.669-3.057c-.549-.541-1.902-1.834-4.076-3.873-2.18-2.038-4.419-4.343-6.723-6.93-2.315-2.579-4.625-5.025-6.935-7.338-2.31-2.305-4.142-4.139-5.5-5.503-2.18-2.987-3.669-4.006-4.484-3.057-.815.957-1.223,2.517-1.223,4.688ZM1791.643,357.267c1.359,2.18,2.245,3.873,2.647,5.096.413,1.223.614,2.65.614,4.28-.272.815-.679,2.18-1.223,4.076-.549,1.905-1.223,3.81-2.038,5.707-.815,1.905-1.631,3.332-2.446,4.28-.815.957-1.631.753-2.446-.611-1.631-2.446-3.604-4.75-5.908-6.93-2.315-2.171-4.555-3.935-6.729-5.299-1.364-.815-2.718-1.631-4.076-2.446-1.364-.815-2.718-1.489-4.076-2.038-.549.549-1.973,2.313-4.283,5.299-2.31,2.995-5.642,6.797-9.985,11.414-4.348,4.625-9.783,9.783-16.306,15.49s-14.132,11.414-22.828,17.121c-2.446,1.364-5.707,3.057-9.783,5.096s-8.294,4.147-12.637,6.318c-4.348,2.18-8.359,4.218-12.023,6.115-3.674,1.905-6.185,3.261-7.544,4.076-5.441,3.261-8.903,3.873-10.392,1.834-1.5-2.038.06-4.954,4.685-8.764,2.446-1.631,6.381-4.28,11.822-7.949,5.435-3.669,12.088-8.357,19.975-14.064,7.881-5.707,16.849-12.292,26.904-19.771,10.05-7.471,20.79-15.961,32.204-25.478-.815-.815-3.332-2.171-7.539-4.076-4.218-1.897-8.43-4.413-12.642-7.541-4.212-3.12-7.74-6.859-10.599-11.21-2.848-4.343-3.196-9.376-1.016-15.083.815-1.631,2.245-4.139,4.278-7.541,2.044-3.394,4.49-6.93,7.338-10.599,2.859-3.669,5.979-7.063,9.381-10.191,3.392-3.12,6.99-5.096,10.8-5.911,3.261-.541,6.522-.133,9.783,1.223,3.261,1.364,6.044,3.402,8.354,6.115,2.31,2.72,4.076,6.115,5.305,10.191,1.217,4.076,1.424,8.561.609,13.452-1.631,10.332-2.854,17.121-3.669,20.382s-1.223,5.441-1.223,6.522c2.989,2.18,6.316,4.076,9.99,5.707,3.663,1.631,5.908,3.536,6.723,5.707ZM1748.433,184.426c.815-2.446,1.832-4.21,3.06-5.299,1.217-1.082,2.098-.948,2.647.408.544,1.364.544,4.147,0,8.357-.549,4.218-2.18,10.395-4.892,18.548-4.076,11.963-8.968,19.434-14.675,22.42-5.707,2.995-11.349,3.606-16.92,1.834-5.571-1.764-10.664-4.821-15.284-9.172-4.625-4.343-7.745-8.012-9.376-11.006-5.441-10.865-8.425-22.35-8.968-34.446-.549-12.088,0-23.44,1.631-34.038,1.631-10.599,3.805-19.833,6.522-27.72,2.712-7.878,4.484-13.178,5.299-15.898.544-1.897,1.489-3.261,2.854-4.076,1.359-.815,2.647-1.019,3.875-.611,1.217.408,2.033,1.427,2.446,3.057.402,1.631.06,3.669-1.022,6.115-1.364,9.783-2.652,17.874-3.87,24.255-1.228,6.389-2.109,12.229-2.652,17.529-.549,5.299-.549,10.599,0,15.898.544,5.299,1.897,11.892,4.076,19.771,1.082,4.625,3.326,9.376,6.729,14.268,3.392,4.892,7.338,8.357,11.816,10.395,4.49,2.038,9.104,1.772,13.86-.815,4.756-2.579,9.033-9.172,12.843-19.771ZM1831.592,542.745l-4.484,6.522c-1.364,1.631-2.587,3.199-3.669,4.688-1.087,1.497-1.902,2.517-2.446,3.057-.549.815-.957,1.294-1.223,1.427-.272.141-1.902.478-4.892,1.019-15.49,2.18-28.877,5.096-40.156,8.764-11.278,3.669-20.784,7.338-28.535,11.006-7.74,3.669-13.795,7.071-18.137,10.191-4.348,3.128-7.071,5.096-8.153,5.911-2.446,2.446-3.402,2.65-2.854.611.544-2.038,1.223-4.139,2.038-6.318.815-2.171,2.305-5.362,4.484-9.58,2.174-4.21,3.935-7.134,5.299-8.764.815-.541,1.359-.948,1.631-1.223.266-.266.614-.674,1.016-1.223.413-.541,1.228-1.285,2.446-2.242,1.228-.948,3.196-2.242,5.914-3.873-10.055-7.878-17.73-15.145-23.035-21.809-5.294-6.655-6.18-14.33-2.647-23.032,1.359-4.617,3.935-9.58,7.745-14.879,3.805-5.299,8.082-10.324,12.838-15.083,4.756-4.75,9.582-9.031,14.474-12.841,4.892-3.802,9.234-6.522,13.045-8.153,3.805-1.631,7.403-2.101,10.8-1.427,3.397.682,6.522,1.834,9.381,3.465,2.848,1.631,5.294,3.465,7.338,5.503,2.033,2.038,3.462,3.606,4.278,4.688,1.631,2.18,2.446,3.669,2.446,4.484s-.272,1.905-.815,3.261c-.549.549-1.294,1.631-2.245,3.261s-2.033,3.465-3.261,5.503c-1.217,2.038-2.381,4.014-3.462,5.911-1.087,1.905-1.902,3.128-2.446,3.669-2.18,2.995-3.669,2.995-4.484,0l-14.675-12.637c-2.446-1.897-5.37-2.65-8.762-2.242-3.402.408-6.729,1.294-9.99,2.65-3.261,1.364-6.185,2.854-8.762,4.484-2.587,1.631-4.283,2.854-5.098,3.669-1.902,1.631-2.924,2.72-3.055,3.261-.141.549,1.152,2.446,3.87,5.707,3.527,5.441,7.473,10.129,11.822,14.064,4.343,3.943,8.696,7.275,13.045,9.987,4.343,2.72,8.49,4.688,12.43,5.911s7.272,1.834,9.99,1.834,6.18-.266,10.392-.815c4.212-.541,8.566-1.285,13.045-2.242,4.49-.948,8.968-1.968,13.458-3.057,4.479-1.082,8.354-2.171,11.615-3.261,3.261-1.082,5.365-1.356,6.321-.815.946.549,1.283,1.427,1.016,2.65-.272,1.223-.957,2.65-2.038,4.28-1.087,1.631-2.038,2.995-2.854,4.076ZM1765.146,341.369c.544-1.356,1.152-3.731,1.837-7.134.674-3.394.815-6.859.402-10.395-.402-3.527-1.631-6.726-3.663-9.58-2.044-2.854-5.506-4.547-10.398-5.096-2.18,0-5.093.611-8.767,1.834-3.663,1.223-6.316,3.057-7.946,5.503-.815,1.364-1.364,2.18-1.631,2.446-.272.274.266,1.09,1.631,2.446,1.897,2.18,4.484,4.351,7.745,6.522,3.261,2.18,6.381,4.351,9.376,6.522,1.897,1.364,3.734,2.587,5.5,3.669,1.766,1.09,3.734,2.18,5.914,3.261ZM2318.319,417.598v6.115c0,2.18-.141,4.351-.408,6.522-.272,3.81-.609,8.224-1.022,13.248-.402,5.033-1.288,10.262-2.647,15.694-1.631,7.887-4.218,15.836-7.745,23.847-3.533,8.02-9.24,14.613-17.121,19.771-5.441,3.261-12.164,5.707-20.176,7.338-8.022,1.631-14.746,1.905-20.181.815-5.441-1.356-10.871-3.465-16.306-6.318-5.441-2.854-10.398-6.177-14.876-9.987-4.49-3.802-8.294-8.082-11.414-12.841-3.131-4.75-5.24-9.713-6.321-14.879-6.256,13.045-12.909,22.899-19.975,29.554-7.071,6.664-14.409,12.3-22.013,16.917-10.055,5.707-19.638,8.02-28.742,6.93-9.104-1.082-17.463-3.873-25.067-8.357-7.609-4.484-14.338-9.783-20.176-15.898-5.848-6.115-10.398-11.477-13.659-16.102-3.261-4.343-6.185-7.541-8.767-9.58s-5.093-3.19-7.539-3.465c-2.446-.266-4.892.204-7.338,1.427s-4.892,2.65-7.338,4.28c-6.522,4.076-11.756,8.906-15.692,14.471-3.946,5.574-6.935,11.006-8.968,16.306-2.044,5.299-3.261,10.191-3.674,14.675-.402,4.484-.342,7.683.207,9.58,7.604-1.897,14.74-3.394,21.404-4.484,6.653-1.082,13.104-1.489,19.36-1.223,6.251.274,12.436,1.16,18.545,2.65,6.12,1.497,12.436,3.873,18.958,7.134,6.789,3.261,11.822,7.479,15.083,12.637,3.261,5.166,5.435,11.077,6.522,17.733,1.082,6.664,1.223,13.931.408,21.809-.815,7.887-2.038,16.173-3.669,24.866-1.364,8.419-4.278,15.083-8.767,19.975-4.479,4.892-9.648,8.419-15.49,10.599-5.843,2.171-11.887,3.324-18.137,3.465-6.256.133-11.822-.345-16.713-1.427-4.892-1.09-10.126-4.147-15.697-9.172-5.571-5.033-10.8-10.74-15.692-17.121-4.892-6.381-9.311-12.77-13.246-19.159-3.946-6.381-6.87-11.618-8.767-15.694-16.855,10.332-33.699,17.059-50.548,20.178-16.855,3.128-31.938.549-45.248-7.745-13.316-8.286-23.507-20.241-30.573-35.873-7.071-15.624-14.61-47.287-22.627-94.981-8.017-47.694-16.507-107.618-25.475-179.771-8.968-72.153-16.855-125.484-23.643-160-1.364-3.527-2.038-6.381-2.038-8.561s.408-4.892,1.223-8.153c.815-1.631,1.832-4.076,3.06-7.338,1.217-3.261,2.576-6.726,4.076-10.395,1.489-3.669,2.913-7.338,4.278-11.006,1.359-3.669,2.582-6.859,3.669-9.58,1.359-2.712,2.511-4.28,3.468-4.688.946-.408,1.761-.133,2.446.815.674.957,1.217,2.242,1.631,3.873.402,1.631.745,2.995,1.016,4.076l8.968,46.879c.266,2.18.951,7.071,2.038,14.675,1.082,7.612,2.375,16.51,3.87,26.701s6.386,47.694,14.675,112.51,16.719,122.434,25.274,172.841c8.566,50.415,20.317,84.994,35.264,103.745,6.789,6.256,14.534,9.58,23.236,9.987,8.696.408,17.121-.674,25.274-3.261,8.153-2.579,15.626-5.911,22.42-9.987,6.789-4.076,11.822-7.338,15.083-9.783-.815-14.401.337-27.171,3.462-38.319,3.125-11.14,7.066-20.79,11.827-28.943,4.75-8.153,9.577-14.808,14.469-19.975,4.892-5.158,8.827-9.234,11.822-12.229,2.712-3.261,5.973-6.177,9.783-8.764,3.805-2.579,7.881-4.006,12.229-4.28,4.343-.266,9.033,1.16,14.061,4.28,5.028,3.128,10.256,8.764,15.697,16.917,5.435,8.427,11.414,14.95,17.936,19.567,6.522,4.625,13.251,7.745,20.176,9.376,6.935,1.631,13.86,2.038,20.795,1.223,6.925-.815,13.512-2.446,19.768-4.892,5.707-2.446,11.006-6.452,15.898-12.025,4.892-5.566,9.175-11.414,12.838-17.529,3.674-6.115,6.794-11.822,9.381-17.121,2.576-5.299,4.544-9.031,5.908-11.21,2.712-3.802,5.093-4.688,7.136-2.65,2.033,2.038,2.239,4.688.609,7.949-.549.815-1.087,2.038-1.631,3.669-.549,1.631-1.495,3.669-2.854,6.115,3.527,13.319,9.169,22.899,16.92,28.739,7.74,5.848,15.692,9.58,23.844,11.21s15.556,1.905,22.214.815c6.658-1.082,10.805-2.038,12.436-2.854,5.973-3.261,8.968-6.381,8.968-9.376.266-1.082,0-3.324-.815-6.726-.815-3.394-1.772-6.93-2.854-10.599-1.087-3.669-2.18-6.992-3.261-9.987-1.087-2.987-1.772-4.75-2.038-5.299-1.902-2.712-2.446-5.433-1.631-8.153,0-1.356,1.022-5.025,3.055-11.006,2.044-5.973,4.283-12.088,6.729-18.344,1.359-3.261,2.652-5.096,3.87-5.503,1.228-.408,2.31-.133,3.261.815.951.957,1.837,2.242,2.652,3.873s1.489,2.995,2.038,4.076c.815,2.446,2.103,6.664,3.875,12.637,1.761,5.981,2.913,11.555,3.462,16.713ZM1849.121,610.413c.815-1.356,1.696-2.375,2.652-3.057.946-.674,1.631-.611,2.033.204.413.815.342,2.517-.201,5.096-.549,2.579-1.772,6.318-3.669,11.21-2.18,7.063-4.892,11.414-8.153,13.045s-6.522,1.834-9.783.611-6.256-3.128-8.968-5.707c-2.718-2.587-4.484-4.688-5.299-6.318-3.261-6.522-5.093-13.39-5.506-20.586-.402-7.196-.201-13.86.614-19.975s1.968-11.414,3.462-15.898,2.511-7.4,3.06-8.764c.815-2.446,2.174-3.527,4.076-3.261,1.897.274,2.446,1.905,1.631,4.892-1.087,5.707-2.038,10.466-2.854,14.268-.815,3.81-1.364,7.338-1.631,10.599-.272,3.261-.207,6.522.207,9.783.402,3.261,1.283,7.071,2.647,11.414.266,2.72,1.359,5.503,3.261,8.357,1.897,2.854,4.142,4.892,6.723,6.115s5.305,1.082,8.153-.408c2.859-1.497,5.365-5.37,7.544-11.618ZM2005.248,95.967c-.549-3.261-2.245-6.248-5.093-8.968-2.859-2.712-5.984-4.484-9.381-5.299s-6.794-.337-10.186,1.427c-3.402,1.772-5.914,5.237-7.544,10.395-2.18,9.783-3.87,18.822-5.098,27.108-1.217,8.294-2.239,15.561-3.055,21.809-.815,6.256-1.364,11.485-1.631,15.694-.272,4.218-.408,6.867-.408,7.949-2.446,5.981-4.625,6.256-6.522.815-2.995-7.338-6.457-14.126-10.398-20.382-3.941-6.248-7.74-11.68-11.414-16.306-3.663-4.617-6.925-8.286-9.783-11.006-2.848-2.712-4.685-4.343-5.5-4.892l-.815,1.223c-.272.549-.549.957-.815,1.223-.272.274-.549.682-.815,1.223-1.364,1.364-3.81,1.364-7.338,0-2.446-1.082-5.778-2.375-9.99-3.873-4.212-1.489-7.81-3.324-10.8-5.503-2.995-1.631-4.625-3.394-4.892-5.299-.272-1.897-.408-3.802-.408-5.707.544-1.356,1.359-4.006,2.446-7.949,1.082-3.935,2.038-6.859,2.854-8.764,1.359-2.987,4.62-4.076,9.783-3.261,7.338,1.631,14.268,5.237,20.79,10.803,6.522,5.574,12.365,11.485,17.529,17.733,5.158,6.256,9.376,11.963,12.637,17.121,3.261,5.166,5.158,8.294,5.707,9.376,2.174-16.572,5.158-30.91,8.968-43.006,3.805-12.088,8.419-20.852,13.86-26.293,3.261-4.076,6.115-6.381,8.561-6.93,2.446-.541,5.435-.408,8.968.408,5.707,2.446,9.985,5.574,12.843,9.376,2.848,3.81,4.75,7.683,5.707,11.618.946,3.943,1.217,7.612.815,11.006-.413,3.402-1.022,5.778-1.837,7.134-.815,1.905-1.631,3.128-2.446,3.669-.815.549-1.565.682-2.239.408-.685-.266-1.294-.815-1.837-1.631-.549-.815-.957-1.631-1.223-2.446ZM2120.611,215.407c5.435-2.446,9.234-3.935,11.414-4.484,2.174-.541,2.582,1.223,1.223,5.299-1.364,4.351-2.109,7.338-2.245,8.968s-.881,3.669-2.239,6.115c-.815,2.446-2.109,4.555-3.87,6.318-1.772,1.772-5.098,4.147-9.99,7.134-1.364.549-34.036,17.121-98.041,49.733-63.995,32.612-99.123,50.548-105.373,53.809-6.256,3.261-9.783,5.166-10.599,5.707-3.261,2.18-5.441,3.261-6.522,3.261-1.087,0-1.364-1.897-.815-5.707v-5.299c0-1.631.136-3.12.408-4.484,0-1.897.136-3.394.408-4.484-.272-.815-.272-1.764,0-2.854.544-.815,1.359-1.834,2.446-3.057,1.082-1.223,2.989-2.508,5.707-3.873,1.359-.815,5.365-2.987,12.028-6.522,6.653-3.527,38.992-20.178,97.019-49.936,58.016-29.758,90.356-46.33,97.019-49.733,6.653-3.394,10.659-5.362,12.023-5.911ZM1966.93,438.388c.544-1.356,1.288-2.375,2.245-3.057.946-.674,1.631-.541,2.033.408.413.957.272,2.791-.402,5.503-.685,2.72-2.245,6.797-4.691,12.229-2.995,7.887-6.386,12.637-10.191,14.268-3.81,1.631-7.544,1.701-11.207.204-3.674-1.489-6.935-3.802-9.783-6.93-2.859-3.12-4.691-5.636-5.506-7.541-3.261-7.604-4.892-15.42-4.892-23.44s.745-15.49,2.245-22.42c1.489-6.93,3.261-12.903,5.294-17.936,2.044-5.025,3.326-8.215,3.875-9.58,1.359-2.987,3.12-4.076,5.299-3.261,2.174.815,2.712,2.72,1.631,5.707-1.631,6.522-3.055,11.822-4.283,15.898-1.217,4.076-2.174,7.887-2.848,11.414-.685,3.536-.957,7.134-.815,10.803.13,3.669.745,8.224,1.832,13.656.815,2.72,2.245,5.778,4.278,9.172,2.044,3.402,4.49,5.911,7.338,7.541,2.859,1.631,5.914,1.701,9.175.204,3.261-1.489,6.381-5.77,9.376-12.841ZM1997.911,219.483c.266-1.631.815-2.783,1.631-3.465.815-.674,1.489-.611,2.038.204.544.815.745,2.517.609,5.096-.136,2.587-1.016,6.46-2.647,11.618-2.18,8.153-5.299,13.248-9.376,15.287s-8.153,2.587-12.229,1.631c-4.076-.948-7.745-2.783-11.006-5.503-3.261-2.712-5.441-4.892-6.522-6.522-4.625-6.248-7.408-13.107-8.354-20.586-.957-7.471-1.092-14.534-.413-21.197.679-6.655,1.766-12.496,3.261-17.529,1.495-5.025,2.511-8.215,3.06-9.58.815-2.987,2.305-4.343,4.484-4.076,2.174.274,2.854,2.18,2.038,5.707-.549,6.256-1.087,11.352-1.631,15.287-.549,3.943-.957,7.541-1.223,10.803-.272,3.261-.141,6.522.408,9.783.544,3.261,1.631,7.338,3.261,12.229,1.082,2.72,2.919,5.574,5.506,8.561,2.576,2.995,5.5,5.096,8.762,6.318s6.522.957,9.783-.815c3.261-1.764,6.115-6.177,8.561-13.248ZM2096.56,593.7c0-1.082-.75-3.527-2.245-7.338-1.495-3.802-4.756-7.541-9.783-11.21-5.028-3.669-12.365-6.522-22.013-8.561s-22.622-1.693-38.927,1.019c2.446,4.351,5.707,8.968,9.783,13.86,3.261,3.81,7.338,7.479,12.229,11.006,4.892,3.536,10.735,6.115,17.529,7.745,3.527,1.364,7.338,1.905,11.414,1.631,4.076-.266,7.745-.878,11.006-1.834,3.261-.948,5.973-2.038,8.153-3.261,2.174-1.223,3.12-2.242,2.854-3.057ZM2099.822,360.935c.544-1.631,1.288-2.854,2.245-3.669.946-.815,1.631-.745,2.033.204.413.957.342,2.791-.201,5.503-.549,2.72-1.902,6.664-4.076,11.822-3.261,7.887-6.865,12.708-10.8,14.471-3.946,1.772-7.685,1.976-11.213.611-3.533-1.356-6.664-3.669-9.376-6.93-2.718-3.261-4.484-5.973-5.299-8.153-3.261-7.338-4.892-14.942-4.892-22.828s.745-15.287,2.245-22.217c1.489-6.93,3.261-12.974,5.294-18.14,2.044-5.158,3.326-8.561,3.875-10.191.266-1.082.881-1.897,1.832-2.446.951-.541,1.902-.674,2.859-.408.946.274,1.56.815,1.832,1.631.266.815,0,2.038-.815,3.669-1.364,6.797-2.587,12.3-3.669,16.51-1.087,4.218-1.902,8.09-2.446,11.618-.549,3.536-.75,7.071-.609,10.599.13,3.536.745,7.887,1.832,13.045.266,3.261,1.429,6.593,3.462,9.987,2.044,3.402,4.49,5.848,7.338,7.338,2.859,1.497,5.914,1.497,9.175,0,3.261-1.489,6.381-5.503,9.376-12.025ZM2095.745,87.814c3.805,1.364,7.473,2.791,11.006,4.28,3.527,1.497,6.93,3.199,10.191,5.096,5.435,2.995,10.457,6.797,15.083,11.414,4.62,4.625,7.196,9.925,7.745,15.898,0,5.981-1.087,11.148-3.261,15.49-2.18,4.351-4.756,8.02-7.745,11.006-2.995,2.995-5.979,5.37-8.968,7.134-2.995,1.772-5.441,3.057-7.338,3.873-2.446,1.364-5.571,2.446-9.376,3.261-3.81.815-7.68.753-11.615-.204-3.946-.948-7.544-3.057-10.805-6.318s-5.571-8.286-6.93-15.083c-.815-6.789-.342-14.197,1.429-22.217,1.761-8.012,4.006-15.694,6.723-23.032,2.712-7.338,5.506-13.86,8.354-19.567,2.859-5.707,4.957-9.642,6.321-11.822,1.082-2.171,1.968-3.465,2.647-3.873s1.228-.266,1.631.408c.413.682.679,1.568.815,2.65.136,1.09.065,2.18-.201,3.261-.549.815-1.087,2.18-1.631,4.076-.549,1.905-1.087,3.873-1.631,5.911-.549,2.038-1.016,3.873-1.429,5.503-.402,1.631-.75,2.587-1.016,2.854ZM2123.873,140.4c2.174-1.631,3.669-2.987,4.484-4.076.815-1.082-.141-3.12-2.854-6.115-2.995-4.892-6.664-8.827-11.006-11.822-4.348-2.987-8.425-5.158-12.229-6.522-4.892-1.897-9.648-2.987-14.268-3.261-.272.815-.886,2.72-1.837,5.707-.951,2.995-1.565,6.318-1.832,9.987-.272,3.669.065,7.204,1.016,10.599.951,3.402,3.196,6.052,6.729,7.949,1.631.815,3.805,1.427,6.522,1.834,2.712.408,5.566.549,8.561.408,2.989-.133,5.908-.541,8.767-1.223,2.848-.674,5.5-1.834,7.946-3.465ZM2329.325,546.821c.815,4.076,1.082,8.153.815,12.229-.272,3.81-.886,8.02-1.837,12.637-.951,4.625-2.788,9.517-5.5,14.675-2.446,4.625-5.571,7.612-9.376,8.968-3.81,1.364-7.745,1.905-11.822,1.631-4.076-.266-8.017-1.019-11.822-2.242-3.81-1.223-6.794-2.101-8.968-2.65-5.441,6.522-10.669,10.74-15.692,12.637-5.033,1.905-9.653,2.446-13.86,1.631-4.218-.815-8.093-2.375-11.621-4.688-3.533-2.305-6.522-4.413-8.968-6.318-2.18-1.897-4.892-2.375-8.153-1.427-3.261.957-6.729,2.587-10.392,4.892-3.674,2.313-7.278,5.096-10.805,8.357-3.533,3.261-6.522,6.248-8.968,8.968-2.18,3.261-5.914,6.452-11.207,9.58-5.305,3.12-10.876,6.044-16.719,8.764-5.843,2.712-11.615,5.096-17.322,7.134s-10.055,3.598-13.045,4.688c-3.261,1.082-5.571,1.56-6.93,1.427-1.364-.141-2.109-.611-2.239-1.427-.141-.815.13-1.701.815-2.65.674-.957,1.424-1.701,2.239-2.242,1.359-.815,5.098-2.854,11.207-6.115,6.12-3.261,13.18-7.408,21.197-12.433,8.017-5.033,16.241-10.669,24.665-16.917,8.419-6.248,15.626-12.77,21.605-19.567,1.897-2.446,4.142-4.821,6.723-7.134,2.582-2.305,5.365-4.076,8.359-5.299,2.989-1.223,6.115-1.693,9.376-1.427,3.261.274,6.522,1.772,9.783,4.484,6.251,5.441,11.751,8.427,16.507,8.968,4.756.549,9.311-.266,13.659-2.446,1.897-1.082,3.598-2.916,5.093-5.503,1.495-2.579,2.919-5.362,4.283-8.357,1.359-2.987,2.582-5.973,3.669-8.968,1.082-2.987,2.038-5.299,2.854-6.93,1.631-2.987,3.12-4.006,4.484-3.057,1.359.957,2.305,2.517,2.854,4.688,0,1.631-.478,4.555-1.424,8.764-.957,4.218-1.837,7.134-2.652,8.764,1.631,1.905,3.805,3.199,6.522,3.873,2.712.682,5.5,1.019,8.359,1.019s5.359-.204,7.539-.611c2.174-.408,3.527-.745,4.076-1.019.266-.266.473-1.427.614-3.465.13-2.038.201-4.28.201-6.726v-12.229c0-1.897.745-3.873,2.245-5.911,1.489-2.038,3.055-4.28,4.685-6.726,2.174-2.712,3.527-2.987,4.076-.815.544,2.18.815,4.351.815,6.522ZM2271.032,284.706c-3.533,5.441-6.93,10.466-10.191,15.083-2.995,4.076-6.664,8.224-11.006,12.433-4.348,4.218-8.968,7.541-13.86,9.987l-41.987,16.713c-3.81,1.09-6.256.408-7.338-2.038-1.087-2.446-.272-4.75,2.446-6.93,1.631-1.631,5.158-4.139,10.599-7.541,5.435-3.394,11.142-6.859,17.121-10.395,5.973-3.527,11.479-6.726,16.512-9.58,5.022-2.854,7.805-4.547,8.354-5.096,1.359-1.356,2.038-2.101,2.038-2.242,0-.133-.679-.47-2.038-1.019-.549-.266-2.18-.745-4.892-1.427-2.718-.674-5.979-1.489-9.783-2.446-3.81-.948-7.887-1.834-12.229-2.65-4.348-.815-8.425-1.489-12.229-2.038-9.24-1.082-16.648-1.152-22.214-.204-5.577.957-10.061,2.313-13.458,4.076-3.397,1.772-5.843,3.669-7.338,5.707s-2.788,3.606-3.87,4.688c-1.631,2.995-3.468,4.555-5.5,4.688-2.044.141-2.386-2.242-1.022-7.134.544-2.987,1.631-6.381,3.261-10.191,1.631-3.802,3.87-7.604,6.729-11.414,2.848-3.802,6.174-7.471,9.985-11.006,3.805-3.527,8.012-6.522,12.637-8.968,7.338-3.802,15.349-5.707,24.051-5.707s17.121.815,25.274,2.446c8.153,1.631,15.49,3.669,22.013,6.115s11.273,4.218,14.268,5.299c3.261,1.364,5.299,2.995,6.115,4.892.815,1.905,1.082,3.873.815,5.911-.272,2.038-.815,3.943-1.631,5.707-.815,1.772-1.364,3.199-1.631,4.28ZM2258.395,94.336c-.549.549-1.022,1.09-1.424,1.631-.413.549-.886.957-1.429,1.223-.815.549-1.495.753-2.038.611-.549-.133-1.087-1.285-1.631-3.465-1.902-5.433-4.076-8.561-6.522-9.376s-4.756-1.223-6.93-1.223-5.033.957-8.561,2.854c-3.533,1.905-5.979,3.128-7.338,3.669-1.364,1.364-2.038,2.242-2.038,2.65s.408,1.427,1.223,3.057c4.62,6.797,10.865,11.689,18.752,14.675,7.881,2.995,14.403,4.759,19.567,5.299,2.446.549,5.299.611,8.561.204s6.522-.948,9.783-1.631c3.261-.674,6.18-1.356,8.767-2.038,2.576-.674,4.413-1.152,5.5-1.427,1.082-.266,1.631.815,1.631,3.261-.272.549-.815,1.364-1.631,2.446-.815,1.09-1.701,2.383-2.652,3.873-.951,1.497-1.902,2.854-2.848,4.076-.957,1.223-1.701,1.976-2.245,2.242-.815,1.364-1.701,2.109-2.647,2.242-.957.141-2.517.204-4.691.204-6.522.815-13.246,2.313-20.181,4.484-6.925,2.18-13.387,4.422-19.36,6.726-5.979,2.313-11.077,4.422-15.284,6.318-4.218,1.905-6.87,2.995-7.952,3.261-1.631,1.09-2.587,1.294-2.854.611-.272-.674-.141-1.693.408-3.057.544-1.631,1.631-3.527,3.261-5.707,1.631-2.171,2.854-4.076,3.669-5.707,1.359-1.897,2.989-3.394,4.892-4.484,1.897-1.082,3.527-1.897,4.892-2.446-3.533-1.082-6.386-2.242-8.561-3.465-2.18-1.223-4.011-2.508-5.506-3.873-1.495-1.356-2.788-2.783-3.87-4.28-1.087-1.489-2.31-3.19-3.669-5.096-3.261-3.261-3.261-7.134,0-11.618s7.473-9.987,12.637-16.51c2.174-3.261,4.957-6.115,8.359-8.561,3.392-2.446,6.789-4.484,10.186-6.115s6.522-2.783,9.381-3.465c2.848-.674,4.952-1.019,6.316-1.019,2.989,0,5.158,1.223,6.522,3.669,1.359,2.446,2.712,5.299,4.076,8.561,1.082,3.536.544,6.797-1.631,9.783-2.18,2.995-3.81,5.299-4.892,6.93ZM2357.045,142.031l19.159,138.599c2.446,18.211,4.957,36.625,7.539,55.236,2.582,18.618,5.028,36.147,7.338,52.586,2.31,16.447,4.348,31.185,6.12,44.229,1.761,13.045,3.055,23.236,3.87,30.573,1.897,14.95,2.511,29.013,1.837,42.191-.685,13.186-2.044,25.07-4.076,35.669-2.044,10.599-4.218,19.638-6.522,27.108-2.315,7.479-4.147,12.841-5.506,16.102-4.076,5.441-5.979,4.076-5.707-4.076.266-8.153.136-18.406-.408-30.777-.549-12.362-1.772-26.152-3.669-41.376-1.902-15.216-5.642-44.088-11.213-86.624-5.571-42.528-9.985-76.159-13.246-100.892-3.261-24.725-6.457-48.917-9.582-72.561-3.125-23.643-5.979-44.903-8.555-63.796-2.587-18.885-4.691-34.375-6.321-46.471-1.631-12.088-2.587-18.955-2.854-20.586-1.364-5.973-2.652-10.936-3.87-14.879-1.228-3.935-2.517-6.585-3.875-7.949-2.446-2.712-2.446-7.196,0-13.452.266-1.082,1.016-2.987,2.245-5.707,1.217-2.712,2.576-5.566,4.076-8.561,1.489-2.987,2.984-6.115,4.479-9.376s2.652-6.115,3.468-8.561c1.082-2.712,2.174-4.343,3.261-4.892,1.082-.541,2.038-.611,2.854-.204s1.56,1.16,2.245,2.242c.674,1.09,1.283,2.038,1.832,2.854.266.549,1.631,3.332,4.076,8.357,2.446,5.033,5.506,11.414,9.169,19.159,3.674,7.745,7.68,16.102,12.028,25.07,4.343,8.968,8.49,17.599,12.43,25.885,3.941,8.294,7.338,15.632,10.197,22.013,2.848,6.389,4.685,10.669,5.5,12.841,1.082,3.536,1.223,5.848.408,6.93-.815,1.09-1.973,1.427-3.462,1.019-1.5-.408-3.06-1.223-4.691-2.446s-2.718-2.242-3.261-3.057c-.549-.541-1.832-1.897-3.875-4.076-2.033-2.171-4.142-4.484-6.316-6.93-2.18-2.446-4.348-4.892-6.522-7.338-2.18-2.446-3.81-4.343-4.892-5.707-2.18-2.987-3.669-4.006-4.484-3.057-.815.957-1.223,2.517-1.223,4.688Z" />
    </g>
  </a>
</svg>