<?xml version="1.0" encoding="UTF-8"?>
<svg id="Logo" xmlns="http://www.w3.org/2000/svg" viewBox="0 0 600 600">
  <defs>
    <style>
      @import url('../CSS/SvgStyling.css');
      
    </style>
  </defs>
  

  <a href="../index.html" target="_parent">
  <g class="logo">

    <rect id="bg" class="bg" x="-.029" y="-.002" width="600.029" height="600.029"/>

    <path class="cls-1" d="M497.694,99.802v118.962l82.056,82.071-82.056,82.071v117.304h-118.962l-78.754,81.227-46.468-47.261,7.929-20.7,37.71,37.288,70.837-71.654,105.771.065,1.213-.934v-101.967c0-.173-.667-.557-.415-1.244l72.478-74.309c-22.496-25.94-48.204-49.046-72.166-73.667-.886-.711.102-1.404.102-1.658v-103.625l-1.244-1.065c-.337-.024-.623.65-.829.65h-35.233c3.38-7.042,7.463-13.8,9.119-21.554h48.911Z"/>
    <g>
      <path class="cls-1" d="M122.157,121.356v105.698l-72.949,73.785,72.949,72.948v104.454l1.213.934c22.157.201,44.694,1.161,66.761-.515.423,2.327-1.959,4.693-1.5,6.845.669,3.141,8.071,10.255,8.137,14.705h-95.335v-117.304l-81.182-82.185,81.182-82.786v-118.133h118.962l78.869-78.695,51.684,50.924-17.691,12.762-34.107-33.887-70.465,70.45h-106.527Z"/>
      <g>
        <path class="cls-1" d="M365.889,158.671l7.629-.251c21.467-3.561,35.545-10.077,54.104-20.507.612-.344,1.405-1.7,2.088-.398-6.807,17.815-17.187,33.831-32.411,45.515-25.732,19.75-60.821,20.691-85.298,42.368l17.886-6.155c22.146-5.388,45.127-7.282,65.835-17.471-4.663,13.86-13.063,28.039-22.782,38.97-22.439,25.239-56.019,33.66-80.835,55.95l64.303-22.751c1.223-.252,1.418-.11,1.13,1.13-.735,3.163-4.678,10.332-6.437,13.468-7.143,12.737-18.241,25.824-29.145,35.517-19.541,17.368-46.145,27.017-62.045,48.212-9.981,13.305-12.215,26.206-12.939,42.604l-8.761.78c6.192-75.302,27.487-150.061,66.808-214.646,26.32-43.231,61.127-79.932,95.674-116.555l-.404-1.228c-35.279,30.418-67.399,63.223-93.943,101.701-46.606,67.559-72.248,147.56-79.032,229.356-.581,1.857-3.331,1.703-4.894.986-1.104-.676-.455-1.372-.437-2.093.425-17.206,5.162-33.919-.115-51.229-1.719-5.641-4.931-11.415-6.881-17.16-10.212-30.08-15.176-65.566-1.764-95.478.417-.93.604-2.873,1.771-2.77l4.967,18.663,15.759,40.186c-1.093-6.11-.996-12.386-1.756-18.542-2.096-16.988-6.3-32.287-4.855-49.833,2.349-28.538,28.403-76.277,50.545-94.53.752-.62,4.295-3.546,4.985-2.882-5.644,14.826-6.483,31.154-4.965,46.821l2.469,10.367c-1.107-44.321,27.863-75.446,60.146-101.099,33.651-26.741,72.651-47.096,103.594-77.128,5.359,20.598.347,43.554-6.206,63.431-4.116,12.484-10.102,26.338-17.579,37.135-13.373,19.314-34.859,31.018-56.212,39.541Z"/>
        <path class="cls-1" d="M248.906,440.612c1.489,14.79,6.281,28.667,11.554,42.399-13.719,20.212-23.936,43.987-25.564,68.591-1.008,1.36-1.501-.015-1.655-1.224-.747-5.851.737-11.889.865-17.39.21-9.015-1.077-20.517-.053-29.068.627-5.234,8.987-9.439,2.56-14.952-5.096-4.371-12.447.572-10.45,7.133.699,2.298,3.799,4.168,3.801,6.972-1.273,15.104,2.69,32.454.794,47.305-.154,1.21-.647,2.584-1.655,1.224-1.907-24.929-12.114-49.06-25.524-69.894,5.549-13.233,9.842-26.902,12.37-41.076l32.957-.021Z"/>
        <path class="cls-1" d="M253.968,421.454c.74.467,1.915,12.021-.415,13.264h-39.792c-2.036-2.993-2.011-10.369,0-13.264h40.207Z"/>
      </g>
    </g>
  </g>
  </a>
</svg>