<?xml version="1.0" encoding="UTF-8"?>
<svg id="Layer_1" data-name="Layer 1" xmlns="http://www.w3.org/2000/svg" xmlns:xlink="http://www.w3.org/1999/xlink" viewBox="0 0 473.443 131.138">
  <defs>
    <style>
      .cls-1 {
        fill: none;
      }

      .cls-2 {
        clip-path: url(#clippath-1);
      }

      .cls-3 {
        clip-path: url(#clippath);
      }
    </style>
    <clipPath id="clippath">
      <rect class="cls-1" y="0" width="473.443" height="131.137"/>
    </clipPath>
    <clipPath id="clippath-1">
      <rect class="cls-1" y="0" width="473.443" height="131.137"/>
    </clipPath>
  </defs>
  <g id="Al-Aqeedah-As-Safariniyyah">
    <g class="cls-3">
      <g class="cls-2">
        <path d="M278.81,43.07c.859-.145,1.398.41,2.04.826,1.353.877,7.145,5.199,7.876,6.194.334.455.7.552.503,1.315l-3.12.26c1.925,3.068,4.949,5.341,8.091,7.059,1.538,0,8.637-11.663,9.896-13.576.399-.606-.128-1.345,1.287-1.034-.82,6.442-5.007,11.38-7.823,16.956l.248.756c8.531,5.39,10.588,15.982,2.893,23.198-4.78,4.483-13.342,8.867-19.785,6.004-1.407,4.829-6.428,15.907,1.113,17.871,9.505,2.476,24.783-6.718,31.941-12.69,1.493-1.246,7.036-6.215,7.465-7.647,1.585-5.282-3.611-21.786-5.749-27.392-1.457-3.821-5.365-9.83-5.047-13.605.167-1.981,1.328-4.495,1.528-6.579,5.681,8.047,9.649,18.379,11.817,28.04,1.923,8.566,1.242,24.093,10.062,27.98,10.142,4.47,15.304-5.02,20.587-11.724.577,3.09-.416,5.972,1.816,8.601,3.376,3.977,10.115,3.258,14.583,1.794-1.453-4.919-1.305-7.476.608-12.148,1.986-4.849,9.246-17.065,15.046-10.358,5.462,6.316.525,15.95-4.167,21.229,9.711,5.26,21.043-2.599,30.21-6.003.131-.775-.011-1.231-.484-1.849-1.208-1.577-9.31-5.877-11.299-5.958-1.384-.057-1.588,1.108-2.801,1.039.426-10.553,14.327-12.631,22.687-12.005,3.421.256,18.497,4.523,19.788,7.331.601,1.308-1.376,6.503-2.589,7.308l-12.277,4.41c3.824,5.931,10.591,11.016,17.889,7.456,3.648-1.779,4.056-4.605,4.052-8.503-.019-16.586-4.533-36.071-6.749-52.707-.87-6.532-1.339-13.129-2.221-19.666-.191-1.42-.959-2.879-.997-4.254-.069-2.485,1.943-5.743,2.882-8.051,1.96,3.554,4.205,7.078,5.92,10.755.797,1.71,4.115,8.735,2.677,10.084-1.72.084-5.084-5.875-5.024-1.402.152,11.24,4.155,26.015,5.482,37.689,1.26,11.081,4.475,31.146-3.763,39.617-12.328,12.676-18.919.015-28.204-7.625-10.853,3.719-26.555,15.521-38.149,9.986-1.242-.593-3.3-2.684-4.507-2.586-9.027,5.563-22.072,9.417-23.535-5.322-5.049,6.849-10.241,14.664-19.817,10.432-5.794-2.56-6.977-9.537-7.801-15.122-3.645,8.02-11.136,14.315-18.339,19.181-6.427,4.341-24.445,14.44-29.209,3.872-3.382-7.503,2.345-16.434,3.916-23.434.947-4.22.803-8.135,2.475-12.637,1.757-4.733,4.889-8.114,7.397-12.266-.045-.542-4.99-4.961-5.852-5.979-.721-.852-5.465-6.595-5.465-7.041v-8.078ZM284.148,83.591c3.136,3.019,17.765-4.08,18.561-7.025.742-2.746-6.941-8.996-9.53-10.035-2.338,3.763-5.911,7.522-7.878,11.433-.671,1.334-2.331,4.493-1.153,5.627M429.406,80.076c-5.251-1.633-10.519-3.653-16.15-3.13-.267,1.026.424,1.007.875,1.465.873.885,5.443,5.194,6.184,5.315,2.39.39,7.132-2.157,9.091-3.649M378.706,79.136c-1.159.352-4.795,4.566-4.841,5.881,1.47,5.022,3.635,7.903,8.608,4.138,4.531-3.431,1.226-11.534-3.767-10.018"/>
        <path d="M175.004,100.295l.411-1.211c-4.228-8.772,4.003-21.793,11.956-25.78,8.276,5.238,3.158,16.816-.187,23.8l.376.979c1.286,1.412,6.739,1.488,8.658,1.27,6.861-.781,9.841-8.093,14.071-12.506.84,1.832-1.026,3.56-1.471,5.305-1.488,5.827,4.225,8.223,9.187,7.496,6.306-.923,6.642-6.42,10.523-10.196.291,3.055-2.065,3.886.577,6.714,1.832,1.962,4.313,2.088,6.752,1.136,3.659-1.428,2.678-7.17,5.703-9.412,1.362-.1.548.205.37.888-.252.969-.858,1.795-.561,2.899.841,3.127,9.37,4.746,11.14,2.996,1.117-1.105.888-6.828.79-8.633-.99-18.204-5.398-37.632-7.764-55.813-1.077-8.275-3.826-20.92.392-28.103.285-.486-.259-1.017,1.091-.745,1.143,6.382,6.392,14.256,6.795,20.582.052.817.071.897-.79.781l-2.604-2.078c-.758.481-.723,1.016-.813,1.797-.716,6.195,1.751,14.68,2.566,20.933,1.839,14.112,7.064,41.63,1.883,54.39-2.941,7.243-10.644,7.304-15.629,2.109-3.949,4.855-7.552,9.444-12.995,3.073-.753-.881-.803-2.79-2.369-2.569-2.082,6.403-12.07,10.668-16.398,4.14-1.441-2.175-.804-4.247-2.11-6.217-3.642,5.437-8.92,10.366-16.03,9.243-3.186-.503-5.836-2.882-8.964-3.538-13.57,9.875-24.55,5.798-27.224-10.818-3.441-21.38.027-44.636-3.408-66.943-.714-4.639-4.018-14.599-3.962-18.379.03-2.047,2.155-5.084,1.488-7.543,1.268-1.55,2.772,5.699,2.89,6.225,3.407,15.205,4.734,30.587,5.467,46.124.516,10.943-.989,33.46,3.947,42.432,3.659,6.65,9.521,7.031,16.247,5.173M181.028,93.432c3.374,2.984,7.232-1.719,7.152-5.285-.099-4.399-2.79-8.03-6.832-4.186-3.263,3.104-3.896,6.307-.319,9.471"/>
        <path d="M7.836,44.115c-.347,7.797-8.541,19.868-2.606,26.838.646.759,1.212,1.422,2.334,1.336,1.812-.163,2.197-4.027,2.835-5.458l1.607-.313c1.075,1.05-2.105,9.829-3.016,11.313-1.244,2.027-3.277,2.048-3.239,4.571.069,4.577,2.306,14.66,5.294,18.173,7.141,8.396,9.418-9.457,10.988-13.869,2.06-5.788,5.082-12.103,10.563-15.323,7.121,4.55,9.577,17.632,20.588,14.165,6.349-1.998,7.78-9.222,12.245-13.291,1.146-.219.764.522.793,1.309.123,3.344-2.445,6.541.741,9.654,2.352,2.299,7.813,1.871,10.035-.165,1.904-1.745-1.422-16.1-2.089-19.248-1.21-5.707-3.906-10.232-1.929-16.566,1.152-.206,1.399.759,1.847,1.535,5.573,9.641,4.092,25.846,11.702,33.114,6.499,6.206,16.99,5.894,24.997,3.117,1.228-.426,7.592-3.509,8.323-4.182,3.524-3.24-3.16-8.055-3.464-10.983-.076-.734,1.126-6.965,1.668-6.96,5.267,5.277,6.334,12.632,4.594,19.696-1.64,6.659-13.528,11.815-19.762,12.546-10.386,1.218-18.222-1.86-22.872-11.413-.368.005-1.334,3.735-1.732,4.527-2.77,5.505-12.422,7.586-15.155.902-.691-1.689-.262-3.996-1.605-4.898-5.574,10.178-14.072,15.152-22.92,4.931-1.673-1.933-4.633-7.589-5.976-8.618-1.549-1.188-4.389,1.628-5.492,2.913-5.554,6.472-5.814,22.677-11.279,26.247-3.869,2.528-8.532-7.292-9.588-10.093-2.937-7.79-1.309-13.024-2.605-19.803-.42-2.198-3.282-4.324-3.626-8.876-.422-5.577,3.264-20.778,6.139-25.632.421-.712.631-1.4,1.664-1.197"/>
        <path d="M141.244,70.167c-.733.219-2.125-.697-2.106.792.026,2.021,2.908,6.442,3.518,8.993.999,4.176-.028,10.787-2.546,14.362-4.453,6.324-35.181,22.891-43.048,24.695l-25.65,4.308c3.715-2.736,9.16-3.568,13.679-5.336,15.252-5.966,38.028-15.935,50.895-25.707,3.349-2.543,5.504-3.625,3.945-8.019-2.785-7.847-8.677-13.185-6.27-22.447.145-.557.418-2.188,1.328-1.81.727,1.618,7.545,8.854,6.254,10.168"/>
        <path d="M463.271,3.467c.641,2.811,9.321,17.716,7.821,19.277-1.926.571-3.223-3.155-4.67-1.309,1.353,10.78,3.417,21.535,4.669,32.322,1.384,11.923,4.467,34.191.098,44.906-.906,2.222-2.214,4.824-4.005,6.418.261-2.889,1.405-5.763,1.763-8.659,2.404-19.423-4.257-56.45-7.295-76.999-.377-2.551-2.064-6.848-2.038-8.938.012-.962,2.357-7.99,3.657-7.018"/>
        <path d="M272.554,21.702c-1.878.483-2.335-1.833-3.905-2.098-.949-.309-1.214,1.189-1.21,1.82.081,11.665,3.975,26.466,5.115,38.586.99,10.534,2.821,26.864-3.024,36.054-.416.655-.846,1.505-1.659,1.724,1.585-6.71,1.823-13.691,1.553-20.578-.879-22.466-5.823-45.698-7.697-68.155l2.499-6.85,1.046-.053c1.079,2.519,8.663,18.118,7.281,19.551"/>
        <path d="M425.236,19.623c-.151,2.115-2.292,3.823-4.156,4.437-7.682,2.533-17.904,3.837-26.178,6.13-15.062,4.174-30.293,9.519-44.533,15.914-6.585,2.957-12.953,6.342-19.446,9.47,0-2.369.911-3.548,2.764-4.787,7.554-5.052,22.688-11.049,31.487-14.37,19.444-7.337,39.775-12.366,60.062-16.795"/>
        <path d="M336.009.986c2.079,2.184.35,8.017-1.214,10.263-.577.829-5.612,5.108-4.915,5.762,5.572-1.083,44.966-14.861,46.894-13.022.107,2.466-1.205,3.117-3.231,3.799-5.646,1.902-12.98,3.094-19.052,4.918-15.963,4.797-32.602,10.053-47.015,18.378-.243-4.719,5.92-6.699,9.543-8.43,5.487-2.621,7.951-2.52,12.605-7.197.629-.632,4.116-4.556,4.357-5.023,1.019-1.977.666-3.886.06-5.925-1.663-.298-2.335,1.143-3.388,2.078-1.314.199-.779-.875-.53-1.575.682-1.922,3.815-6.204,5.887-4.027"/>
        <path d="M237.638,5.029l-1.932,4.055c-25.864,7.232-51.334,15.926-75.44,27.749-2.303,1.129-.345-2.259.49-3.168,2.437-2.649,15.98-7.919,20.096-9.607,18.508-7.59,37.752-12.949,56.786-19.029"/>
        <path d="M188.662,131.137c-.284-1.492.406-.837,1.139-1.178,6.851-3.185,13.75-3.975,20.755-7.929,5.204-2.937,13.902-11.468,19.944-10.061,1.884.439,2.948,3.388,5.434,1.298.622-.523,2.073-3.919,3.012-4.004,1.219-.11-.126,2.84.329,3.568l2.534.594c-.246-2.334,1.276-4.051,3.124-5.213,1.665,3.975-1.004,10.574-5.853,9.801-1.126-.179-2.606-1.468-3.17-1.38-.531.083-1.299,1.133-2.281,1.372-3.432.837-3.514-1.232-5.858-1.767-5.284-1.205-12.61,5.94-17.065,8.547-6.976,4.083-13.819,6.401-22.043,6.352"/>
        <path d="M376.769,56.099c.01-1.291,3.023-5.193,3.893-5.221,1.599.595,8.121,4.767,8.108,5.993-.008.792-3.672,5.822-4.512,5.964l-8.234-5.204c-.633,1.085-3.18,5.23-4.481,5.027l-8.712-6.293c.738-1.263,3.532-6.035,4.824-6.019l9.113,5.754Z"/>
        <path d="M162.607,51.927c-2.052-1.946,9.676-7.747,10.753-8.262,15.074-7.198,31.563-11.528,46.56-18.833l-1.559,4.428c-.81.395-1.795.187-2.61.517-12.622,5.112-25.58,9.66-38.027,15.126-1.857.815-14.511,7.599-15.117,7.024"/>
        <path d="M330.931,110.817l8.522,5.172c1.469-.675,2.63-4.736,4.144-4.582.415.042,6.755,3.954,7.123,4.369,1.589,1.795-2.381,5.416-3.438,6.988l-8.232-4.607-4.126,4.576-8.077-5.398,4.085-6.518Z"/>
        <path d="M292.433,35.171l6.578,5.024-3.093,5.909c-1.536.902-6.905-3.748-8.188-4.958l2.921-6.681-6.975-5.713,3.457-6.296c.858-.406,7.462,4.266,7.756,5.358.579,2.152-3.253,5.992-2.455,7.357"/>
        <path d="M226.174,58.183c-.571.492-4.641-2.716-6.167-.181-1.32,2.194-.49,10.168-.888,13.468-.226,1.871-1.119,4.475-1.284,6.513-.763.566-2.724-5.926-3.031-6.603-.488-1.076-2.492-5.192-3.204-5.656-.677-.441-.849-.288-1.333.259l-.246,2.103c-3.834-.727-7.681-2.978-6.57-7.479,2.458-9.954,13.624,5.41,13.356,10.08l1.552.003c-.153-4.008-1.113-16.434,4.022-17.608,4.389-1.004,4.89,1.51,3.791,5.099"/>
        <path d="M68.804,11.285c.2,1.799-.042,2.873-1.607,3.859-16.046,7.026-32.177,13.971-47.368,22.715l.667-2.981c14.903-10.016,32.156-15.897,48.308-23.593"/>
        <path d="M30.689,62.282c-1.676.977-5.681-4.097-7.94-3.618l-3.7,5.104c-1.583-.903-6.775-3.184-6.454-5.206.058-.364,3.499-6.031,3.851-6.113l6.26,4.193,4.667-5.264,6.476,4.543-3.159,6.362Z"/>
        <path d="M38.592,105.604l6.958,4.096,3.497-5.109.654.03c6.411,3.457,8.839,4.41,3.159,10.841l-7.168-3.572-4.238,5.056-6.484-4.356,3.621-6.984Z"/>
        <path d="M90.217,106.154l-3.5,5.111c-.851.163-5.873-3.026-6.494-3.816-1.194-1.519,2.535-5.624,3.474-7.047l6.679,4.138,4.223-5.656,6.966,4.884c-.865,1.204-2.71,5.63-3.939,5.943-1.789.457-5.197-3.648-7.408-3.557"/>
        <path d="M92.771,71.728l-.582-8.527c-.63-3.231-1.099-6.486-1.752-9.713-1.472-7.277-7.278-18.435.831-23.131,1.46-.846,3.084-.265,2.519-2.358-2.019-1.025-3.036-.195-4.653,1.002.909-5.715,4.148-7.546,8.354-2.887,1.407,1.558,2.067,2.731,1.149,4.84-1.491,3.424-8.81,1.151-10.03,5.614,2.017,11.572,7.05,23.306,4.163,35.162"/>
        <path d="M408.566,108.734c.245,2.465,4.419,3.449,6.393,3.026.596-.128,2.888-2.215,2.968-.69.199,3.763-8.366,4.709-9.876,7.823,5.16,4.011,11.502.314,17.184-.003-3.173,3.938-14.579,6.961-18.73,4.147-2.923-1.982,1.497-5.698,2.554-7.8-.078-.881-7.102-2.672-1.534-8.325,3.389-3.442,9.389-1.685,4.954,2.808l-3.914-.986Z"/>
        <path d="M220.968,30.303c.045-.176.709-.798,1.037-.782-.992,3.104,1.642,11.714,5.751,7.568,1.268-1.279.066-9.552.511-11.994.163-.894.556-1.464,1.557-1.303.162,2.981.274,10.719,4.036,11.384.605.107,2.451-.154,2.692-.497,1.015-1.444-4.671-10.484-.733-12.442,2.459,4.631,3.992,9.997,1.315,14.878-1.911,3.484-5.067,2.638-7.573.237-.681.054-2.853,7.18-6.507,4.94-.189-.116-2.087-2.941-2.087-3.129,0-2.131-.415-7.228,0-8.859"/>
        <path d="M122.483,39.946c.174,1.216-.408,1.95-1.046,2.862-1.081,1.547-6.753,6.906-8.388,7.766-3.021,1.588-7.625,2.074-10.891,3.435.508-.956,1.841-1.654,2.769-2.176,1.332-.749,9.891-4.694,10.196-5.177.206-.327,0-1.031.065-1.5-3.033-.009-6.035-.971-9.09-.49-1.522.239-2.449,1.46-3.938,1.528-.234-.902.372-1.042.775-1.564.711-.921,4.992-5.247,5.802-5.663,3.971-2.04,9.535.978,13.745.978"/>
        <path d="M99.026,5.03l-3.28-.98c-3.076.793-1.701,10.908-1.936,13.738-.139,1.674-.751,3.316-1.039,4.959l-5.192-10.173-1.047.09-.786,1.734c-.918-.962-5.076-3.083-5.386-3.981-.502-1.453.352-7.047,2.159-6.883,4.553,1.566,6.227,6.011,8.569,9.684.33.517-.05.931,1.166.669-.297-3.107.454-12.998,4.111-13.811,2.808-.624,3.633,2.829,2.661,4.955"/>
        <path d="M425.633,36.423c1.15,1.157.778,4.469-.911,5.083.477-2.048-1.769-2.514-3.111-1.288-3.098,2.831-.32,15.531-4.183,19.005-.893-4.316-1.911-9.054-5.478-11.975l-1.556,2.059c-3.397-2.275-6.452-2.594-4.472-7.576,1.754-4.413,8.153,2.315,9.643,4.499.925,1.356,1.149,2.611,1.726,4.03.318.78-.312,1.414,1.171,1.144-.23-3.549.19-14.737,4.556-15.549.776-.144,2.064.012,2.616.567"/>
        <path d="M53.029,48.131c-3.534,3.012-5.903-1.486-6.893-1.401-6.374,12.606-10.521-.09-8.067-7.827,1.451.539.4,2.367.557,3.835.227,2.125,1.028,3.876,2.941,4.946,8.004-.193-.002-11.241,4.829-14.515.253,4.128.888,14.95,7.143,10.188-.375-3.806-4.622-8.587-1.145-11.741,2.858,3.38,4.007,13.641.636,16.514"/>
        <path d="M180.583,54.544l8.491,7.096c.226,1.153-3.353,6.738-4.397,6.91l-8.47-6.029c-.62-1.879,3.104-6.497,4.376-7.978"/>
        <path d="M311.115,86.847c.142,2.428-1.858,3.8-3.688,4.906l-22.883,11.765,2.635-4.395,23.936-12.276Z"/>
        <path d="M12.526,22.228c.838,5.466-7.983,13.782-9.331,4.384-1.013-7.066,4.403-14.515,7.512-20.539.314,4.607-5.608,10.284-5.358,14.714.111,1.956,1.046,4.971,3.378,4.98,2.031.008,1.636-3.577,3.798-3.539"/>
        <path d="M66.04,55.212c1.546,1.831-1.794,5.804-3.301,7.084l-6.909-4.892,4.379-6.508c1.249,1.776,4.612,2.873,5.831,4.317"/>
        <path d="M137.589,111.34c.128,1.801-.977,3.234-2.575,3.934l-21.911,8.568.58-2.281c7.174-4.857,16.125-6.455,23.906-10.221"/>
        <path d="M422.999,4.665c4.135,3.73-.549,10.206-5.323,9.786-6.164-.543,1.267-13.318,2.341-12.549.007,1.982,2.08,1.949,2.982,2.763M418.215,7.112c-.89.184-1.09,2.421-.567,3.165.684.971,4.668.813,3.694-1.088l-3.127-2.077Z"/>
        <path d="M338.743,69.648c6.219,2.007,7.67,10.396.656,11.865-8.285,1.735-2.357-8.491-.656-11.865M341.201,75.509c-.719-.647-2.462-.82-3.251-1.681l-1.297,3.629c1.43.903,6.826.1,4.548-1.948"/>
        <polygon points="384.593 108.737 383.412 111.199 360.104 120.194 361.45 117.636 384.593 108.737"/>
        <path d="M149.394,121.055c-.583.616-3.1,2.904-3.983,2.531,2.134-3.511,9.613-8.783,5.971-13.269-1.912-2.356-3.116,1.334-3.887.497.182-3.127,2.714-8.988,5.977-4.675,3.313,4.378-.893,11.553-4.079,14.917"/>
        <path d="M130.423,15.84c1.8,1.87,3.316-1.253,4.302-2.463,2.22-.127-1.138,5.332-1.824,5.983-3.25,3.083-5.546.544-5.755-3.147-.274-4.843,3.752-12.21,6.793-15.873-.825,4.077-7.153,11.722-3.516,15.501"/>
        <path d="M163.647,26.39c2.35-4.731,10.402-9.098,6.267-14.867-1.665-1.032-3.147,1.343-3.658.799.2-2.69,2.861-8.517,5.66-4.877,3.621,4.708.071,10.611-3.069,14.509-.527.654-4.583,4.987-5.2,4.436"/>
        <path d="M135.514,42.551c3.591,2.586-4.28,11.059-6.291,6.048-2.554-6.361,2.734-13.509,5.249-19.074.95-.131.43,1.087.288,1.59-1.27,4.508-7.439,10.848-2.105,14.596,1.719.158,2.68-1.734,2.859-3.161"/>
        <path d="M168.903,70.876c3.074,2.214-3.664,9.468-5.386,5.179-2.187-5.446,2.34-11.566,4.495-16.331.813-.112.368.931.247,1.362-1.087,3.86-6.369,9.288-1.803,12.497,1.471.135,2.295-1.484,2.448-2.706"/>
        <path d="M181.867,118.949c2.704,1.947-3.223,8.327-4.737,4.554-1.923-4.79,2.059-10.172,3.953-14.363.715-.098.324.819.217,1.197-.956,3.395-5.602,8.169-1.585,10.991,1.294.119,2.018-1.306,2.153-2.38"/>
        <path d="M253.802,124.886c1.997-5.01,10.519-9.055,5.741-14.88l-2.875.815c-1.099.041,1.769-9.89,5.476-3.925,3.81,6.132-3.133,14.641-8.342,17.989"/>
        <path d="M21.39,23.786c-.489-.47,6.653-8.092,7.059-9.347,1.135-3.506-1.17-7.963-4.451-4.199-.215-3.729,2.762-9.365,5.946-4.128,3.237,5.324-2.657,13.232-6.732,16.636-.585.49-.844,1.262-1.822,1.039"/>
        <path d="M74.018,20.147c-1.77,4.147-6.624,10.496-3.807,14.982,1.733,2.759,3.725-1.423,4.844-2.481.241,8.192-9.405,11.351-7.577-.027.486-3.026,3.392-8.949,5.191-11.499.437-.619.015-1.28,1.349-.975"/>
        <path d="M29.731,115.507c2.936,2.225-2.724,9.222-5.787,6.558-4.307-3.745,2.548-15.687,5.002-19.585.681.332.043,1.424-.157,1.928-1.511,3.811-6.123,9.317-3.183,13.39,1.634,2.263,4.019-.211,4.125-2.291"/>
        <path d="M304.87,126.97c-.316-1.418.423-.891,1.031-1.29,2.918-1.914,9.896-5.654,9.961-9.387.011-.672.015-1.694-.551-2.114-1.356-1.007-4.13,2.933-3.68.54.188-.999,3.313-5.924,4.694-5.237,6.46,6.994-4.857,15.733-11.454,17.489"/>
        <path d="M191.206,15.547c-.26-1.17.349-.735.851-1.065,2.409-1.58,8.171-4.668,8.224-7.751.01-.555.012-1.398-.455-1.745-1.12-.831-3.41,2.421-3.039.446.155-.825,2.735-4.891,3.875-4.324,5.334,5.775-4.01,12.989-9.457,14.44"/>
        <path d="M332.48,25.355c-1.098,3.923-5.027,7.16-4.053,11.604.592,2.698,3.551,2.87,3.541-.141,2.539.818-.383,6.743-1.808,6.777-6.265-1.903-3.382-10.494-1.082-14.613.254-.455,2.691-4.383,3.402-3.628"/>
        <path d="M397.094,14.409c.82,4.309-6.18,10.211-7.258,3.88-.996-5.848,2.987-10.865,5.186-15.862.962-.118.453,1.087.275,1.577-1.006,2.777-5.989,9.886-2.673,12.535,2.338,1.868,2.862-1.277,4.47-2.131"/>
        <path d="M70.898,112.377l3.115-1.561c.236,6.747-6.828,9.148-5.68.302.569-4.383,4.793-10.666,7.765-13.852-1.594,5.127-7.507,9.244-5.2,15.11"/>
        <path d="M398.136,118.112c.033,3.406-4.004,11.455-6.878,5.582-2.213-4.523.786-10.087,2.199-14.437,1.006-.091.405,1.036.261,1.564-1.118,4.127-3.674,8.302,1.565,10.831l2.853-3.538Z"/>
        <path d="M440.353,122.797l6.726-4.47c2.179-2.068,5.24-4.083,3.974-7.534-.802-1.217-2.484.107-3.403.544-.679-.875,3.557-5.538,4.697-4.986,3.003,2.912.639,6.848-1.352,9.64-2.817,3.952-6.103,5.389-10.643,6.806"/>
        <path d="M235.558,61.836c-1.728,3.653-3.196,9.387,1.772,10.9l2.406-3.342c-4.392,15.554-10.113,3.746-5.358-6.422.342-.73-.315-1.426,1.18-1.136"/>
        <path d="M109.982,11.284c1.5-.263,1.091.522.813,1.598-.503,1.949-2.382,6.297-4.761,4.693-4.139-2.791.385-12.161,1.862-15.669.97-.137.297.967.172,1.473-.714,2.879-3.19,6.747-.992,9.498,1.657,2.073,2.53.392,2.906-1.593"/>
        <path d="M362.192,73.299c1.053.027.472,2.559.282,3.151-.451,1.407-2.487,3.454-4.08,3.021-4.118-1.119-1.064-12.264,1.449-14.512.312,3.72-4.692,8.474.527,10.808l1.822-2.469Z"/>
        <path d="M305.839,16.423c.536-.325-.025-2.509,1.629-2.011-.185,1.671-2.065,6.267-3.906,6.266-5.905-3.101-1.816-12.016,1.045-16.168.655,2.091-1.826,4.182-2.227,6.106-.487,2.334.181,7.796,3.46,5.807"/>
        <path d="M108.406,70.69c-.157,1.915-2.038,7.742-4.675,6.532-4.553-3.674-.447-10.036,1.039-14.346,1.079-.077.234.927.092,1.395-.842,2.774-2.106,5.726-.365,8.507l1.516.482,2.393-2.571Z"/>
        <path d="M362.192,24.314c.992-.106.438,1.643.291,2.117-.547,1.776-1.813,2.903-2.442,4.591-7.513-1.807-1.462-11.495.067-16.088.979-.107.435,1.06.267,1.57-.895,2.721-2.898,5.503-2.243,8.471.688,3.114,3.846,2.423,4.06-.66"/>
        <path d="M42.366,12.701c.286.286.794.401,1.177.546l2.077-2.484c-.613,10.628-8.662,6.312-5.319-2.714l2.967-6.145c-.466,3.126-3.695,8.003-.902,10.797"/>
        <path d="M283.476,13.868l1.582-2.586c.264,1.41-2.127,6.619-3.375,6.653-5.627-2.945-1.214-10.043.26-14.466,1.009-.116.282.949.143,1.445-.885,3.183-4.038,8.064,1.39,8.954"/>
      </g>
    </g>
  </g>
</svg>