<?xml version="1.0" encoding="UTF-8"?>
<svg id="Layer_1" data-name="Layer 1" xmlns="http://www.w3.org/2000/svg" viewBox="0 0 1117.361 349.236">
  <path d="M9.381,24.9c-5.325-2.491-7.195-7.802-5.054-13.219,1.436-3.621,4.853-3.944,7.305-2.477,3.98,2.384,8.12,5.261,10.747,8.957,3.966,5.563,6.709,12.006,9.924,18.099.685,1.301,1.171,2.707,1.748,4.063.489-.017.975-.03,1.467-.05.842-5.242,1.489-10.52,2.588-15.71,1.276-5.991,2.602-12.014,4.541-17.809,1.936-5.772,5.507-7.493,10.178-5.894,5.753,1.958,8.833,6.703,7.601,11.818-.412,1.729-1.008,3.411-1.699,5.695-2.505-2.361-4.452-4.245-6.444-6.071-2.491-2.276-5.035-2.276-6.159,1.055-1.994,5.913-3.748,11.951-5.035,18.049-1.326,6.297-1.928,12.746-2.941,19.112-.282,1.735-.9,3.416-1.362,5.123-.599.144-1.21.293-1.817.436-1.364-3.146-2.593-6.361-4.126-9.421-2.861-5.701-5.836-11.349-8.935-16.92-.525-.945-2.284-2.199-2.872-1.939-4.148,1.828-6.659-1.516-9.647-2.911l-.006.011Z"/>
  <path d="M41.063,116.207c5.129,3.466,10.468,6.897,14.727,11.316,3.516,3.649,5.64,8.642,9.081,14.16.376-2.665.713-4.295.818-5.944.417-6.593.213-13.282,1.273-19.764,1.616-9.888,7.369-11.757,15.307-5.565,3.052,2.381,3.527,6.328,1.812,9.239-3.803-1.282-7.305-2.66-10.915-3.59-2.295-.588-3.875.704-4.01,3.184-.594,10.752-1.229,21.51-1.585,32.27-.039,1.085,1.566,2.361,2.613,3.312,3.046,2.762,6.424,5.187,9.247,8.15,2.872,3.03,1.061,8.443-3.016,9.576-5.455,1.522-10.954,2.872-16.453,4.24-5.692,1.409-7.968,5.192-6.872,10.885,4.563,23.537,9.045,47.093,13.47,70.655.351,1.892.047,3.908-.95,5.797-4.941-23.846-9.987-47.682-14.796-71.553-2.77-13.768,1.003-20.728,13.851-26.824.646-.309,1.204-.829,1.85-1.287-3.77-3.19-5.913-2.944-10.545,1.392.24-5.06,2.256-8.579,5.692-11.614.972-.853,1.917-3.132,1.45-3.972-2.881-5.234-6.073-10.307-9.368-15.301-1.108-1.682-2.646-3.041-4.969-1.074-.608.511-2.367.207-3.281-.298-2.546-1.409-5.005-3.013-7.355-4.734-3.37-2.472-4.339-8.255-1.635-11.465.867-1.027,3.673-1.798,4.579-1.185l-.019-.006Z"/>
  <path d="M153.46,300.59c1.138-.348,2.342-.478,3.764-.762-1.21,6.054-4.463,8.805-10.197,10.921-32.011,11.818-64.455,22.604-95.01,38.065-.5.254-1.113.279-1.704.423-.671-7.869-.13-9.338,6.631-12.299,31.527-13.807,63.615-26.158,96.515-36.347"/>
  <path d="M111.032,22.312c-10.887-3.052-22.134-3.428-33.469-3.312,3.676-12.208,12.028-17.812,23.976-16.033,5.922.881,11.84,1.831,17.657,3.196,7.189,1.696,8.347,4.775,4.679,11.349-6.736,12.053-17.074,18.607-30.751,20.087-3.803.414-7.587,1.022-11.385,1.541-.188-.627-.37-1.254-.558-1.884,10.009-4.521,20.016-9.037,30.025-13.561-.058-.458-.116-.922-.174-1.384"/>
  <polygon points="84.099 119.655 84.099 119.649 84.104 119.649 84.099 119.655"/>
  <path d="M113.011,60.632c2.944-1.806,6.062-3.325,9.186-4.808,19.629-9.302,40.042-16.632,60.53-23.747C216.791,20.248,251.259,9.741,286.098.464c.726-.188,1.469-.284,2.433-.464-1.273,4.96-3.278,8.358-8.592,9.703-29.74,7.518-59.047,16.544-88.05,26.506-25.827,8.871-51.181,18.93-76.005,30.323-3.209,1.475-6.386,3.016-9.827,4.317,1.235-4.143,3.138-7.888,6.949-10.216h.006Z"/>
  <path d="M117.715,155.594c-1.392,6.289-3.138,12.525-4.071,18.878-.975,6.637-1.326,13.379-1.616,20.087-.135,3.074,1.061,5.985,4.657,6.419,3.502.42,4.596-2.395,5.648-5.027.202-.497.588-.92.887-1.373.453.144.9.293,1.353.434-.804,3.364-1.061,7.021-2.607,9.995-1.025,1.969-3.914,4.077-5.96,4.077-1.953,0-5.253-2.414-5.596-4.217-1.21-6.352-2.386-13.006-1.726-19.344.878-8.476,3.408-16.795,5.441-25.128.445-1.817,1.784-3.416,3.585-4.795l.006-.006Z"/>
  <path d="M127.548,119.473c.873,5.841-.16,10.131-3.223,13.547-3.289,3.682-7.808,3.041-9.65-1.538-1.56-3.889-3.035-8.424-2.53-12.415,1.398-11.084,3.789-22.043,5.946-33.022.334-1.682,1.486-3.209,2.256-4.808.428.13.853.254,1.282.376-1.431,6.399-3.124,12.746-4.198,19.195-.958,5.734-1.464,11.575-1.682,17.392-.124,3.234-.456,7.421,3.823,8.449,4.466,1.074,5.966-2.737,7.982-7.17l-.006-.006Z"/>
  <path d="M140.869,184.066c-1.326-6.206-.588-8.139,5.538-10.564,22.993-9.103,46.058-18.033,69.153-26.857,7.402-2.834,15.006-5.137,23.446-7.996-.768,4.767-1.688,7.938-6.068,9.465-13.335,4.657-26.705,9.244-39.832,14.445-16.853,6.67-33.474,13.917-50.198,20.905-.539.226-1.132.337-2.033.597l-.006.006Z"/>
  <path d="M176.096,111.619c2.886-4.477,1.657-9.161,1.157-13.87-.373-3.546-.555-7.109-.82-10.669l1.947-.26c3.085,4.422,2.182,9.816,3.254,14.74.751,3.461,1.961,7.065,3.961,9.904.989,1.403,4.231,1.229,6.449,1.773.389-2.102,1.489-4.386,1.011-6.27-.978-3.836-3.209-7.355-4.154-11.2-.776-3.143-.434-6.56-.583-9.86.544-.05,1.085-.11,1.638-.16,2.646,7.239,5.336,14.467,7.899,21.736.395,1.113.389,2.466.226,3.657-.505,3.673-.983,7.692-5.079,9.095-4.198,1.444-7.813-.362-10.785-3.461-.815-.853-1.572-1.759-2.776-3.113-1.403,1.911-2.511,3.502-3.693,5.029-3.972,5.129-11.354,5.388-14.213-.318-2.303-4.593-2.563-10.208-3.767-15.367-.539-2.29-1.784-4.618-1.585-6.825.26-2.825,1.652-5.551,2.549-8.319l2.328.342c.279,3.505.621,7.018.829,10.531.193,3.372.033,6.783.442,10.12.359,2.95,1.312,5.822,4.974,6.339,3.61.505,6.637-.232,8.791-3.577"/>
  <path d="M218.226,308.322c2.519-4.491,5.085-9.084,7.913-14.13,6.477,3.648,12.674,7.142,19.422,10.945-2.994,5.662-5.836,11.039-8.863,16.765-6.792-3.875-13.161-7.512-19.797-11.296-2.646,4.833-5.248,9.581-7.943,14.517-6.612-3.933-12.636-7.518-19.198-11.426,2.872-5.499,5.681-10.854,8.805-16.826,6.554,3.817,12.862,7.49,19.657,11.451h.006Z"/>
  <path d="M238.328,69.359c-4.427,1.533-7.3-1.494-10.545-3.336-4.206-2.389-6.51-8.761-4.096-12.774.898-1.494,4.14-3.046,5.524-2.516,3.585,1.378,7.7,3.184,9.86,6.109,4.53,6.107,7.99,13.009,11.763,19.659,1.022,1.806,1.591,3.875,2.367,5.822.486-.03.964-.072,1.442-.102.558-3.914.862-7.885,1.734-11.73,1.696-7.471,3.411-14.964,5.673-22.275,1.663-5.377,5.267-7.018,9.893-5.532,5.662,1.826,8.714,6.355,7.479,11.224-.439,1.748-1.074,3.45-1.903,6.071-1.682-1.884-2.787-3.209-3.991-4.444-4.342-4.477-8.954-3.43-10.332,2.696-1.649,7.336-2.665,14.804-3.991,22.211-1.016,5.687-2.083,11.365-3.132,17.047-.621.11-1.235.221-1.856.331-1.331-3.035-2.516-6.14-4.024-9.084-3.041-5.952-6.206-11.84-9.446-17.687-.447-.809-1.856-1.884-2.419-1.69"/>
  <path d="M281.409,122.275c1.817-3.474,3.416-5.991,7.75-2.187,3.171,2.781,7.239,4.659,11.117,6.496,2.845,1.359,3.138,2.975,1.784,5.441-1.922,3.499-3.908,6.968-5.706,10.531-1.074,2.129-2.367,2.588-4.4,1.34-4.328-2.651-8.703-5.226-13.028-7.871-2.582-1.574-4.577-1.994-6.12,1.519-1.585,3.585-3.762,6.91-5.85,10.669-6.549-3.878-12.583-7.449-19.137-11.329,3.035-5.629,5.855-10.857,8.915-16.522,6.786,3.93,12.854,7.443,19.621,11.365,1.522-2.845,3.309-6.131,5.04-9.446l.014-.006Z"/>
  <path d="M287.931,326.746c.704-.646,1.074-1.663,1.591-2.511.453.168.911.331,1.364.497-1.177,3.753-1.798,7.816-3.66,11.194-2.505,4.535-8.236,4.458-10.172-.318-1.895-4.662-3.441-10.156-2.839-15.008,1.306-10.592,4.03-21.021,6.294-31.489.298-1.364,1.282-2.582,1.947-3.867.351.141.699.276,1.047.417-1.765,8.672-3.742,17.301-5.201,26.015-.704,4.201-.975,8.645-.356,12.818.365,2.444,2.867,4.579,4.414,6.852,1.864-1.522,3.789-2.972,5.565-4.596l.006-.006Z"/>
  <path d="M358.423,301.095c4.082,1.884,6.173,5.267,5.04,9.056-.381,1.276-1.088,2.447-1.826,4.052-.9-1.224-1.461-2.105-2.135-2.892-3.278-3.869-7.731-3.204-8.973,1.77-1.591,6.375-2.342,12.953-3.524,19.43-.674,3.676-1.489,7.33-2.24,10.99-.428.033-.859.072-1.295.105-.748-1.544-1.53-3.08-2.243-4.646-1.966-4.314-3.693-8.753-5.927-12.92-1.502-2.806-3.557-4.748-7.523-4.781-4.833-.039-9.156-5.433-8.78-9.534.453-4.905,3.397-6.413,7.595-3.806,6.419,3.994,10.133,10.12,13.075,16.828,1.011,2.303,2.066,4.579,4.101,6.684,1.102-5.927,2.063-11.879,3.345-17.767.679-3.124,1.781-6.184,2.925-9.178,1.536-4.013,4.231-5.292,8.385-3.386v-.006Z"/>
  <path d="M540.413,185.341c-2.906,8.001-8.852,12.285-16.931,14.006-1.942.414-3.894.757-5.803,1.121-.481,8.189-.776,16.146-1.456,24.073-.867,10.122-5.286,18.723-13.1,25.087-28.837,23.498-61.386,38.711-98.78,41.699-13.832,1.105-27.219-1.74-38.811-10.501-9.758-7.383-14.124-17.546-15.677-29.113-2.356-17.596,1.663-34.226,8.811-50.203,1.011-2.251,2.828-4.135,4.273-6.192.458.226.917.458,1.384.685-1.917,6.885-4.466,13.672-5.56,20.684-1.143,7.363-2.063,15.113-1.014,22.396,2.251,15.599,12.594,24.904,27.158,29.483,16.4,5.157,32.964,3.538,49.132-.978,25.534-7.129,48.98-18.767,70.285-34.623,5.681-4.226,7.938-9.44,5.527-16.422-3.113-8.985-5.695-18.165-9.125-27.023-2.941-7.601.163-13.89,2.718-21.551,1.845,3.397,3.287,5.739,4.433,8.217,2.154,4.646,6.073,6.631,10.752,6.245,4.541-.381,9.109-1.489,13.442-2.939,3.613-1.21,5.435-3.673,2.842-7.794-4.955-7.874-3.894-16.11-.135-25.899,2.251,4.637,4.391,8.189,5.75,12.028,3.229,9.12,3.223,18.347-.11,27.52l-.006-.006Z"/>
  <path d="M358.093,37.329c-.069-.461.052-1.069-.199-1.353-5.96-6.747-.403-12.622,1.436-18.74.602-1.994,1.552-3.883,2.969-7.344,8.371,16.224,15.972,31.312,21.383,47.397-.591.458-1.174.911-1.762,1.364-2.845-3.908-5.687-7.822-8.532-11.73l-2.058,1.48c0,.934-.135,1.884.019,2.784,6.916,40.136,14.039,80.234,20.714,120.411,2.751,16.522,5.493,33.195,3.845,50.01-.818,8.319-3.3,16.478-5.074,24.7-.069.351-.638.588-1.63,1.444-.544-3.074-1.312-5.662-1.431-8.283-1.442-32.218-7.33-63.842-12.478-95.568-5.764-35.518-11.47-71.05-17.198-106.574h-.006Z"/>
  <path d="M500.651,291.274c-.434,5.698-2.621,8.554-7.562,10.429-29.608,11.258-59.075,22.863-88.558,34.452-3.383,1.323-6.532,3.22-9.948,4.927-.848-8.236-.116-9.99,6.844-12.666,30.795-11.854,61.654-23.551,92.502-35.259,1.967-.746,4.071-1.152,6.723-1.884"/>
  <path d="M413.065,133.9c-3.403,2.646-6.877,1.696-8.029-1.591-1.87-5.358-3.695-11.316-3.157-16.79.95-9.716,3.591-19.278,5.745-28.859.434-1.936,1.831-3.643,2.79-5.455.309.13.613.265.917.4-1.544,6.8-3.394,13.556-4.535,20.419-.95,5.725-1.489,11.6-1.351,17.384.058,2.408,1.784,6.004,3.726,6.858,3.643,1.605,5.808-1.21,6.579-4.858.077-.376.53-.666.842-1.041,1.66,4.458-.124,10.863-3.533,13.522l.006.011Z"/>
  <path d="M420.978,43.469c-4.781.613-10.954-5.938-10.791-10.559.077-2.107.782-5.499,2.058-5.966,2.102-.762,5.529-.447,7.264.887,3.345,2.577,6.399,5.861,8.67,9.426,3.591,5.629,6.438,11.73,10.222,18.789,1.003-6.419,1.643-11.647,2.665-16.804.9-4.51,2.082-8.979,3.403-13.39,1.735-5.8,4.991-8.004,9.189-6.587,6.43,2.165,8.67,6.352,6.502,12.169-.26.699-.616,1.364-1.215,2.679-1.386-1.141-2.384-1.839-3.229-2.679-4.842-4.8-8.722-3.856-10.216,3.093-1.773,8.253-2.79,16.665-4.154,25.009-.516,3.146-1.094,6.275-1.638,9.407-.497.11-.994.215-1.494.323-1.215-2.646-2.419-5.284-3.643-7.924-2.121-4.582-4.082-9.244-6.444-13.696-1.403-2.66-2.994-4.709-7.148-4.173v-.006Z"/>
  <path d="M459.964,192.515c2.29-.594,5.875,1.682,8.139,3.591,3.513,2.964.569,6.361,0,8.844-2.842-1.494-6.394-4.748-8.211-3.966-2.303.992-3.919,5.107-4.568,8.139-1.9,8.921-3.176,17.977-4.704,26.984-.434.091-.859.182-1.293.279-1.16-2.53-2.27-5.079-3.474-7.581-1.908-3.994-3.701-8.048-5.88-11.893-1.248-2.193-2.704-3.828-6.217-3.32-4.375.641-9.402-5.554-9.208-10.103.202-4.709,2.872-6.612,6.982-4.198,3.06,1.798,5.905,4.483,7.913,7.419,2.834,4.14,4.814,8.877,7.115,13.373.668,1.287,1.199,2.646,2.292,5.093,2.055-9.479,3.505-17.643,5.731-25.589.776-2.767,3.08-6.477,5.383-7.071"/>
  <path d="M458.741,142.88c-2.897,5.402-5.706,10.636-8.902,16.594-5.999-3.643-11.628-6.946-17.088-10.526-.743-.486-1.177-2.574-.768-3.494,1.668-3.778,3.648-7.427,5.654-11.042,1.132-2.033,2.635-2.654,4.93-1.199,5.046,3.204,10.247,6.154,16.179,9.672l-.006-.006Z"/>
  <path d="M483.351,126.441c-3.624,2.063-6.85,1.171-8.811-2.66-2.988-5.841-3.533-12.169-2.337-18.452,1.726-9.031,3.958-17.969,6.093-26.926.365-1.533,1.295-2.93,1.969-4.386l1.215.447c-1.464,6.709-3.176,13.37-4.309,20.134-.887,5.278-1.085,10.672-1.508,16.025-.083,1.047-.072,2.295.414,3.157,1.138,2.024,2.593,3.875,3.927,5.797,2.03-1.624,4.09-3.209,6.073-4.886.436-.362.608-1.033.947-1.638,1.77,3.811-.409,11.523-3.682,13.387h.006Z"/>
  <path d="M525.37,77.026c-1.804-1.157-3.726-2.179-5.698-3.027-2.298-.997-3.138-2.337-2.814-5.002.66-5.48,1.442-11.056,1.094-16.525-.746-11.766-5.725-21.742-14.472-30.411-4.336,6.664-3.825,8.998,1.085,13.23h.008c2.477,2.129,4.521,4.963,6.165,7.816,4.936,8.598,5.007,17.908,3.055,27.307-1.436,6.91-3.425,13.716-4.723,20.645-.79,4.212-.221,9.382,3.731,11.031,3.488,1.456,8.954,1.422,12.202-.376,10.454-5.792,10.346-18.289.367-24.689M527.325,92.327c-2.781,1.754-5.797,3.151-8.708,4.704-3.764-.5-5.836-2.237-5.977-5.441-.111-2.524.414-5.17,1.157-7.615.911-2.997,3.008-3.72,5.687-1.787l-.006.008c2.613,1.889,5.206,3.803,7.813,5.703,2.013,1.469,2.013,3.179.033,4.427"/>
  <path d="M522.014,245.469c3.143-5.739,5.991-10.94,9.089-16.602,6.56,3.85,12.835,7.532,19.325,11.343-2.997,5.737-5.817,11.144-8.786,16.845-6.568-3.875-12.987-7.667-19.629-11.592v.006Z"/>
  <path d="M535.14,321.836c.751-1.094,1.315-2.314,2.317-3.408.276,4.295.13,8.609-2.881,12.103-2.825,3.287-7.394,2.317-9.33-1.726-3.149-6.579-2.734-13.533-1.519-20.342,1.287-7.214,3.273-14.31,5.098-21.421.434-1.682,1.436-3.215,2.174-4.82l.842.481c-1.663,8.203-3.734,16.348-4.842,24.631-.627,4.709-.666,9.948.804,14.362,1.61,4.853,4.284,4.585,7.341.135l-.006.006Z"/>
  <path d="M580.091,235.661c-3.301-26.694-6.029-53.471-9.995-80.068-5.759-38.631-12.362-77.138-18.729-115.677-.713-4.333-2.303-8.512-3.314-12.802-.337-1.436-.536-3.151-.069-4.477,1.881-5.35,4.054-10.598,6.126-15.884.453-.072.911-.149,1.37-.218,7.286,15.235,15.586,30.025,20.504,46.301-.428.309-.856.621-1.282.934-3.499-3.378-7.007-6.75-10.506-10.125-.304.146-.616.296-.92.445.329,1.85.666,3.695.983,5.546,6.521,37.86,13.138,75.701,19.513,113.587,3.035,18.049,6.096,36.203,4.472,54.578-.76,8.521-3.276,16.889-4.996,25.327-.685-.044-1.364-.097-2.052-.141-.373-2.447-.807-4.886-1.11-7.338l.006.014Z"/>
  <g>
    <path d="M1023.079,275.629c.33-.14.659-.283.996-.408.194-.072.389-.165.59-.214.03-.007.06-.012.09-.018,1.815-7.69,4.146-15.293,5.773-23.027-.511.125-1.032.216-1.57.309-1.04.179-2.071.393-3.116.546-.431.063-.863.117-1.295.171-5.289,1.316-11.448,2.093-14.078,2.302-21.486,1.702-48.949.389-56.951-23.116-8.856-26.016-6.225-76.053-8.394-105.456-1.616-21.896-3.171-44.254-5.619-66.064-.746-6.65-6.064-55.409-11.934-55.504-2.564,4.421-8.963,15.781-8.949,20.356.013,4.26,5.069,14.648,6.21,20.305,11.339,56.213,7.658,123.127,13.301,180.664,5.174,52.746,40.739,55.29,84.14,49.357.251-.116.526-.18.805-.203Z"/>
    <path d="M562.881,210.344c2.432-.006,1.544,6.156,1.455,7.787-.613,11.212-2.383,22.169-1.526,33.721,1.086,14.656,9.405,45.334,29.424,36.335,14.548-6.539,28.035-50.47,39.737-65.666,31.588-41.019,40.048,5.553,60.926,22.921,32.41,26.961,100.884,19.301,134.06-3.612,6.978-4.819,22.35-23.373,26.156-24.448,3.192-.902,1.795,1.777,2.025,3.527,2.847,21.683,15.036,29.792,36.677,25.336,16.342-3.364,13.058-8.651,8.016-22.223-1.494-4.021-6.361-10.903-6.49-14.316-.083-2.19,3.172-20.438,4.718-20.429,15.418,16.79,19.702,50.919,6.611,69.833-9.605,13.878-36.457,15.074-48.061,2.516-5.88-6.363-5.601-13.167-9.145-20.343-13.21,16.611-26.622,27.343-46.737,34.753-38.206,14.075-94.481,15.613-122.586-18.648-9.765-11.903-17.136-37.858-35.862-24.56-20.24,14.374-23.298,47.568-38.077,65.931-19.749,24.537-38.647-3.465-43.459-23.757-4.897-20.651-4.013-44.464,2.139-64.659Z"/>
    <path d="M863.618,54.324c.734.735-3.878,12.975-6.583,13.782-62.952,22.891-126.617,44.256-188.75,69.138,1.391-5.89,2.748-12.937,8.848-15.734l186.486-67.186Z"/>
    <path d="M1096.921,93.681c.547.49-3.131,12.786-5.983,12.977l-127.513,47.453c-.85-1.118,2.995-14.966,6.92-14.851l120.943-44.901,5.633-.678Z"/>
    <path d="M806.029,319.974c-.381,1.827-5.779,11.323-6.43,11.322-1.159-.002-19.526-10.535-20.115-11.534-1.507-2.558,8.258-17.392,10.327-20.721,4.365,1.198,15.929,11.559,19.518,10.882,3.359-.634,6.043-10.88,8.611-10.879,1.213,0,17.399,11.682,20.28,13.331l-10.623,18.763-21.568-11.163Z"/>
    <path d="M648.621,166.769l-6.485,11.156-20.171-11.281,10.454-20.924c1.375-.095,14.884,10.642,18.546,10.979,5.236.482,4.418-10.266,10.643-9.413,2.051.281,18.875,10.57,19.188,11.889.323,1.364-9.377,18.401-10.608,18.757l-21.568-11.162Z"/>
    <path d="M751.362,33.419c-4.192,2.59-6.051,36.079-8.974,43.719-.933,2.438-1.719,5.817-5.242,5.284-.582-6.655-9.018-33.51-14.054-35.944-1.358-.657-2.355,1.726-4.31,1.587-6.143-.437-12.308-6.055-10.919-12.403,3.924-17.937,21.628-.752,25.816,8.761l7.661,19.726c.635-8.268,3.846-41.093,12.28-43.355,7.482-2.006,17.97,11.154,9.375,16.564-2.536.592-7.802-6.306-11.633-3.939Z"/>
    <path d="M1040.717,85.232c-.167-6.596-7.563-31.976-12.683-34.468-3.093-1.506-13.838,1.463-16.278-7.655-.594-2.218,3.689-11.979,5.906-12.505,4.856-1.152,15.378,8.455,17.702,12.895l9.544,23.457c3.182-10.368,2.607-34.429,11.164-41.556,7.858-6.544,19.815,9.666,10.641,16.24-12.392-12.462-13.652-.293-15.774,10.96-.406,2.155-3.391,39.774-10.222,32.632Z"/>
    <path d="M965.098,323.501c-.093-3.687-4.228-17.876-7.09-19.269-1.729-.842-7.736.818-9.1-4.279-.332-1.24,2.062-6.697,3.302-6.991,2.715-.644,8.597,4.727,9.896,7.209l5.336,13.113c1.779-5.796,1.457-19.247,6.241-23.231,4.393-3.658,11.077,5.404,5.949,9.079-6.927-6.967-7.632-.164-8.818,6.127-.227,1.205-1.896,22.235-5.715,18.242Z"/>
    <path d="M1016.237,181.414c-.671.391-6.304,9.477-9.385,12.39-12.74,12.044-32.718,23.424-49.925,26.659,18.718-13.278,40.522-22.852,56.189-40.044-14.3-5.54-8.797-7.903-7.297-18.591.721-5.137-3.88-13.188,7.388-11.044,9.902,1.884,21.652,11.563,20.951,22.43-.886,13.749-12.622,5.111-17.921,8.202ZM1017.353,171.274c.313-3.226-1.115-6.378-3.55-8.428-10.38,5.312-6.781,8.98,3.55,8.428ZM1031.415,174.079c.606-.446-7.614-10.948-9.824-11.23.939,2.09-1.799,9.434-1.428,9.829.389.413,10.583,1.894,11.252,1.402Z"/>
    <path d="M665.126,91.934c-3.812,3.819-13.913.292-15.192,1.022-1.126.643-4.666,7.631-6.909,9.904-9.963,10.094-28.173,19.834-42.215,21.72,7.653-7.16,41.576-23.195,44.961-31.63,1.15-2.866-4.723-2.34-6.97-4.236-6.133-5.172-.075-11.976,1.371-16.859.263-.886-3.094.096-2.883-2.668,1.076-14.068,22.192-1.575,26.774,5.502,2.6,4.017,4.608,13.694,1.063,17.245ZM648.577,75.407c-11.057,1.897-9.973,8.181,1.415,8.42l-1.415-8.42ZM664.054,86.63c-2.345-4.442-4.62-9.605-9.824-11.23-1.063,10.161-.323,10.957,9.824,11.23Z"/>
    <path d="M850.991,331.211c-.788-1.033,2.766-12.75,5.055-13.905l69.404-26.855c1.129,1.511-1.999,11.603-4.276,13.279-23.237,9.467-47.606,16.755-70.183,27.482Z"/>
    <path d="M777.77,161.001c2.336-3.306-10.715-20.242-4.071-26.563,2.597-2.471,2.311.847,2.798,2.081,4.311,10.915,10.473,20.67,1.38,30.927-6.467,7.294-12.745,5.51-17.544-2.086-4.99,11.926-21.402,14.633-24.277.374-.412-2.043-1.426-21.817-1.134-22.927.585-2.218,3.642-6.097,6.424-5.556,2.714,3.054-9.19,34.304,11.336,27.48,13.587-4.517-2.847-24.594,6.927-30.297,3.068,8.426.896,26.546,12.317,27.813,1.302.144,5.37-.576,5.844-1.246Z"/>
    <path d="M682.319,290.459c.494.475-3.005,11.594-5.04,12.515l-62.406,22.61c-.981-1.091,1.866-11.503,3.747-12.754l63.699-22.371Z"/>
    <path d="M894.206,133.363c3.102,3.096,1.958,11.06-1.769,13.694-7.28-12.609-28.351-1.28-12.938,7.336,9.096,5.085,21.563-.714,30.492-4.498l-.632,8.491-38.699,16.802c-1.512-3.17,3.915-9.574,3.888-10.563-.03-1.078-5.135-4.608-6.099-7.637-3.168-9.951,16.244-33.12,25.757-23.625Z"/>
    <path d="M983.087,84.536c-.694-5.168-4.752-13.132-7.551-17.748-2.993-4.934-18.378-20.138-18.589-21.545-.23-1.534,1.69-8.911,2.213-11.366.417-1.958-1.193-4.061,2.124-3.443,21.996,18.951,32.99,48.261,24.803,76.846-.68,2.375,1.06,3.913-2.999,3.258-.78-8.186,1.067-18.064,0-26.003Z"/>
    <path d="M835.534,168.177c2.342-.375,1.491,3.382,1.445,4.952-.62,20.867-17.757,17.506-16.811-1.231.806-15.966,12.556-31.154,4.383-48.285-3.198-6.702-13.679-11.138-5.179-18.693,9.865,7.275,12.839,21.122,11.75,32.858-.965,10.394-10.884,28.858-4.69,37.36,5.036,6.912,8.267-1.65,9.102-6.962Z"/>
    <path d="M590.973,65.547c5.692-10.372,17.287-19.904,15.533-33.077-1.629-12.233-12.455-2.38-16.244,3.567-1.527-8.124,12.652-31.788,21.839-20.41,7.961,9.86-1.635,28.328-7.895,37.166-1.345,1.9-11.394,14.444-13.233,12.754Z"/>
    <path d="M811.638,62.749l12.452-20.564c8.251-18.405-4.322-24.018-14.581-7.554-.104-24.711,32.213-36.913,23.642-1.657-2.649,10.894-12.706,23.108-21.512,29.775Z"/>
    <path d="M768.074,220.183c2.35-.376,1.525,3.411,1.436,4.945-1.451,25.114-22.44,21.988-21.151.011.611-10.423,8.52-24.393,11.974-34.476,1.838,9.587-12.547,32.197-2.909,39.452,5.798,4.364,10.198-5.066,10.649-9.932Z"/>
    <path d="M1099.787,205.749c-13.595-7.627-25.312-15.585-35.149-23.875.663-.884,1.269-1.216,1.824-.995l8.953.332c2.874-.44,3.093-1.658.663-3.648-8.844-4.311-18.68-8.896-29.512-13.761l1.161,22.051,1.492.166c-7.627,5.969-14.037,14.59-19.232,25.864-3.095,5.416-4.753,11-4.974,16.745.109,8.621,4.145,15.419,12.103,20.393-7.627,3.758-14.535,5.694-20.725,5.803-.995.111-1.99.442-2.984.995-3.425,2.653-5.14,6.3-5.14,10.943-.109,4.753.497,7.295,1.824,7.627,3.09,0,6.263-.299,9.511-.867-.033.628.159,1.26.621,1.724.256.358.579.601.936.75.151-.05.307-.084.466-.084.055.002.11-.002.165-.005.014-.003.02-.004.038-.008.154-.052.314-.09.468-.145.271-.097.535-.211.811-.294.255-.077.52-.126.787-.165.061-.024.121-.052.182-.075.194-.072.389-.165.59-.214.204-.05.404-.065.601-.148.126-.053.265-.065.406-.062,1.845-.858,3.676-1.746,5.471-2.706,2.359-1.262,5.192-2.501,7.029-4.497.008-.008.014-.017.022-.025,5.683-2.578,11.566-5.878,17.656-9.925,13.816,3.758,25.367,5.694,34.652,5.803h.663c8.953,0,14.865-1.161,17.74-3.482,1.99-1.99,3.922-5.637,5.803-10.943,1.435-5.746,2.238-8.925,2.404-9.533.166-.606.249-2.181.249-4.725,0-11.937-5.86-21.609-17.574-29.014ZM1054.524,237.251c-12.269-3.979-20.006-9.837-23.212-17.574,8.398-13.595,16.138-20.502,23.212-20.725,1.658.223,3.482.886,5.471,1.99,5.858,4.974,9.119,13.043,9.782,24.206-3.758,4.421-8.844,8.456-15.253,12.103ZM1095.476,245.126c-7.627.057-17.077-1.133-28.351-3.565,2.653-4.419,4.698-10.388,6.135-17.906,1.216-5.746,1.824-10.777,1.824-15.087,1.99,1.549,5.444,3.953,10.362,7.212,4.917,3.261,8.647,5.831,11.191,7.71,7.848,5.748,12.6,12.492,14.259,20.227-2.653.886-7.793,1.354-15.419,1.409Z"/>
  </g>
  <path d="M338.374,178.062c-6.281-39.446-13.089-78.811-19.701-118.207-.859-5.137-1.779-10.258-2.671-15.389.784-.53,1.558-1.061,2.342-1.599,3.24,3.637,6.477,7.272,9.711,10.91-5.107-16.342-11.86-31.87-20.64-46.803-2.917,5.772-5.123,11.465-7.07,17.243-.387,1.152.033,2.693.395,3.961.801,2.762,2.207,5.402,2.665,8.208,6.756,41.142,13.547,82.275,19.98,123.466,2.729,17.469,4.637,35.065,6.941,52.604.679,5.19-1.746,9.059-5.648,11.873-10.791,7.789-22.733,5.977-35.021,4.463,2.279-4.949,4.427-9.031,6.071-13.307,5.065-13.219,4.872-26.092-2.906-38.418-3.784-5.996-7.565-7.013-13.166-2.709-13.011,10.001-28.746,33.433-19.905,54.368.4.958-.972,3.82-1.831,3.966-5.261.9-10.683,2.066-15.931,1.632-8.874-.732-15.351-10.636-13.456-19.176.188-.853-.174-1.831-.411-3.952-2.538,3.596-4.422,6.151-6.187,8.791-2.732,4.077-4.579,9.186-8.211,12.136-12.473,10.158-33.867,13.083-46.757-2.82-1.306-1.61-2.748-3.104-4.527-5.104-.79,1.953-1.287,3.184-1.85,4.568-3.875-.757-7.441-1.87-11.05-2.038-3.792-.174-7.706.174-11.418.969-15.779,3.378-29.263,11.509-40.901,22.203-14.044,12.909-26.94,27.045-40.857,40.1-6.319,5.933-13.431,11.368-20.993,15.566-12.26,6.805-24.882.503-26.733-13.528-2.16-16.4,3.994-30.873,15.262-42.382,6.767-6.919,10.227-14.727,12.299-23.614.472-2.033.072-4.259.072-6.399-.442-.083-.881-.168-1.32-.251-2.052,3.173-3.98,6.435-6.173,9.509-3.759,5.259-11.288,5.582-15.442.69-6.728-7.929-6.943-17.569-5.054-26.752,3.903-18.936,8.935-37.634,13.492-56.432.586-2.414,1.11-4.847,1.66-7.275-.425-.185-.859-.373-1.287-.569-.898,1.276-2.129,2.428-2.651,3.839-3.532,9.501-7.278,18.941-10.266,28.619C3.779,188.693-1.234,206.601.271,225.33c.876,10.799,3.132,21.557,15.599,26.026-.536.958-.936,1.754-1.403,2.511-5.239,8.592-9.388,17.61-11.166,27.608-3.555,20.002,6.83,36.979,25.321,40.749,2.809.577,6.51.467,8.83-.922,6.963-4.168,14.111-8.418,19.98-13.923,11.89-11.15,22.858-23.277,34.444-34.756,10.313-10.216,21.187-19.75,35.259-24.694,7.965-2.795,15.989-4.414,24.437-2.367,4.651,1.124,6.681,3.441,6.778,8.656.279,15.127,9.99,23.73,20.988,28.84,1.003.467,4.115-1.061,4.483-2.218,1.522-4.775,2.48-9.75,3.397-14.693.434-2.348.318-4.8.453-7.245,16.834-.92,25.769-12.072,33.994-25.49.917,2.754,1.616,4.405,2.019,6.131,1.779,7.642,6.598,11.965,14.29,12.945,9.167,1.171,18.126-.492,25.658-5.505,6.024-4.01,11.288-4.438,17.364-1.392.135.072.293.099.439.138,10.332,3.019,20.781,4.734,31.273,1.13,12.909-4.43,19.869-14.459,24.048-26.782l.008.025c4.684-13.823,3.836-28.039,1.61-42.039ZM178.38,262.626v.006c-4.472-1.182-7.584-4.01-9.73-9.211,4.483,1.942,8.015,3.278,11.335,5.027.84.439,1.008,2.16,1.489,3.287-1.036.323-2.207,1.132-3.093.892ZM278.123,221.758v-.006c-.69.227-1.494.425-2.182.29-4.3-.859-10.937-9.451-10.83-13.909.144-5.557,8.347-15.936,13.735-16.679,1.806-.251,3.999,1.003,5.739,2.038,1.085.646,1.682,2.146,2.447,3.298,7.968,12.047,4.96,20.477-8.91,24.968Z"/>
</svg>