<?xml version="1.0" encoding="UTF-8"?>
<svg id="Layer_1" data-name="Layer 1" xmlns="http://www.w3.org/2000/svg" viewBox="0 0 1145.641 379.235">
  <g id="Layer_1-2" data-name="Layer 1-2">
    <g>
      <path d="M903.958,269.81c-.712-.73-6.77,9.2-7.508,10.101-12.129,14.791-29.587,21.926-46.73,10.009-6.693-4.653-17.544-22.768-24.595-22.705-21.813.194-30.551,43.95-40.239,58.6-12.835,19.41-27.518,7.581-35.808-8.026-6.631-12.484-7.24-24.725-5.603-38.603.401-3.401,2.959-18.563,5.627-19.863,1.655-.299,1.12.659,1.037,1.782-1.076,14.578-4.255,25.936.618,40.768,4.255,12.953,16.661,26.662,28.688,12.509,13.433-15.807,24.387-61.05,45.36-67.092,12.416-3.577,15.334,9.802,22.184,17.626,10.575,12.077,24.094,14.713,38.967,8.256,13.153-5.71,14.18-18.263,24.39-26.578,1.521,1.028.734,1.106.602,2.064-.702,5.078-1.756,6.316.721,11.581,6.181,13.138,25.964,12.644,34.896,3.097l-5.746-14.1c1.095-4.022,1.407-8.432,2.51-12.413,1.84-6.64,3.261-3.039,5.531,1.241,9.512,17.937,6.39,47.794-17.713,51.039-15.775,2.124-24.854-3.234-27.189-19.292h0Z"/>
      <path d="M521.462,0c-1.411,5.872-4.187,13.326-10.093,15.763-95.427,24.927-189.687,55.282-279.912,95.022-11.319,4.985-22.399,11.026-33.987,15.12-1.48-1.532,5.935-12.905,7.498-14.609,5.103-5.564,26.893-14.972,34.741-18.497,30.563-13.726,63.669-25.615,95.368-36.607,61.255-21.24,123.598-40.04,186.385-56.193h0Z"/>
      <g>
        <path d="M216.966,164.133c1.792-.066,3.418.663,5.006,1.368,3.308,1.469,19.476,11.005,21.263,13.227,3.223,4.007-6.687,1.334-6.017,4.506,9.116,7.504,19.027,14.456,29.493,20.001,25.255,13.379,51.242,15.574,43.656,52.361-3.578,17.347-16.801,23.664-30.465,32.512-21.836,14.141-55.36,35.114-79.445,43.525-49.312,17.22-29.128-52.903-16.477-74.559l1.492.374c-1.591,11.67-8.127,21.681-8.994,33.734-2.881,40.01,39.441,14.565,57.493,4.988,19.751-10.478,48.294-25.969,65.732-39.241,3.402-2.59,7.085-3.714,5.176-8.647-4.032-10.419-38.253-23.746-48.928-29.796-15.3-8.671-28-20.096-38.984-33.743v-20.611h0Z"/>
        <path d="M168.956,40.471c4.139,8.856,8.952,17.52,12.893,26.473,2.343,5.323,7.197,15.124,8.052,20.437.165,1.023.713,2.926-1.05,2.548-2.302-2.232-4.816-4.142-7.155-6.345-1.399-1.318-2.147-4.586-4.491-3.008,6.555,36.479,13.66,72.993,19.292,109.632,2.512,16.337,5.691,34.393,6.96,50.754,1.288,16.609-.164,33.396-6.004,49.08-1.825.529-1.939-1.313-2.163-2.679-1.27-7.758-.792-16.094-1.581-23.918-4.929-48.895-15.054-98.513-23.119-147.029-2.552-15.352-3.781-32.724-7.083-47.634-.677-3.059-3.428-7.019-3.528-8.494-.096-1.412,5.56-16.367,6.586-18.095.604-1.018.885-2.017,2.389-1.722h.002Z"/>
      </g>
      <path d="M759.962,89.931c-1.447,1.579-10.959-9.438-12.375-10.485l-.395,1.132c6.144,37.322,13.553,74.493,19.305,111.879,3.656,23.764,9.345,52.382,6.094,76.105-.94,6.857-2.666,15.631-6.251,21.469-2.207.08-2.395-21.094-2.632-23.586-4.971-52.287-16.093-105.623-24.618-157.523-2.061-12.546-2.964-30.897-6.325-42.396-.678-2.321-3.247-4.788-3.399-5.549-.518-2.601,6.925-16.279,7.359-20.082.141-.88.964-.503,1.502-.064,2.385,1.949,11.742,22.58,13.62,26.862,1.238,2.822,9.22,21.031,8.114,22.238h0Z"/>
      <path d="M1004.462,3.748c.845.897-3.99,12.024-6.546,12.563l-129.589,44.38-93.357,35.236c1.152-8.416,5.616-11.993,12.771-15.336,18.904-8.832,41.572-16.764,61.29-24.193,51.169-19.278,103.16-36.573,155.431-52.65h0Z"/>
      <path d="M573.212,8.245c.582.587-1.886,7.557-3.529,8.083-59.803,23.182-122.118,42.537-180.943,68.01-6.533,2.829-23.093,9.304-27.726,13.529-4.795,4.374,8.03,5.729,10.465,6.668,4.416,1.702,2.445,7.839-.019,9.044-2.564,1.254-15.499-5.186-16.384-8.447-.554-2.039,3.994-13.472,5.55-15.163,2.524-2.743,13.837-7.328,17.832-9.162,38.176-17.53,80.787-33.028,120.324-47.643,24.5-9.057,49.041-18.699,74.431-24.919h0Z"/>
      <path d="M810.274,209.9l-8.005,14.147c-1.068.245-18.323-10-19.05-10.839-.427-.493-.742-.638-.761-1.448-.034-1.497,8.416-15.777,9.53-16.059l20.782,10.46c2.557-4.26,4.494-9.07,7.007-13.345.361-.615-.159-1.222,1.293-.967l19.857,11.73c.277.947-8.539,16.397-9.457,16.696-3.227,1.052-18.978-11.951-21.197-10.375h0Z"/>
      <path d="M906.125,338.669c-2.69,1.696-17.147-10.279-21.169-10.339l-9.1,13.996-19.913-11.467,10.131-17.483,19.542,11.175c2.434.007,7.119-12.098,9.006-14.293l20.518,11.626-9.014,16.785h0Z"/>
      <path d="M426.935,354.536l-9.38,17.99-20.119-11.22c-2.349.397-6.744,14.231-9.834,14.193l-19.067-11.773,9.404-16.682,20.162,11.161,8.337-14.258c3.45-.739,16.116,9.648,20.496,10.588h.001Z"/>
      <g>
        <path d="M466.712,166.377l-7.491-.376c6.348,10.576,18.935,20.229,22.704,32.023,2.793,8.739,2.179,17.409-.578,26.072-1.198,3.763-3.375,6.896-4.877,10.483,22.138.718,39.241,5.799,32.358,31.969-5.33,20.262-33.647,35.501-51.096,44.873-29.522,15.856-75.119,37.292-106.752,16.708-34.113-22.198-27.8-69.622-11.379-101.034,1.81-.352,1.15,1.453,1.035,2.533-.531,4.97-3.137,11.508-4.188,16.804-3.963,19.962-5.862,41.46,10.666,56.332,37.618,33.847,102.669-2.43,137.539-25.148,2.773-1.807,17.209-10.944,17.057-13.421-.03-.481-1.559-2.537-2.053-2.951-9.144-7.641-46.834-7.987-60.209-10.278-1.053-.18-5.512-.644-5.608-1.741l6.032-17.489c9.452-2.574,19.595-4.888,28.733-8.38,3.657-1.397,10.225-2.642,9.217-7.699-1.08-5.422-15.882-20.886-19.978-26.543-5.479-7.566-9.65-15.871-14.38-23.888.622-5.495.742-12.015,3.4-16.831,2.153-.476,16.813,13.227,18.733,15.733.576.752,1.455.95,1.117,2.249h-.002Z"/>
        <path d="M408.957,140.148c-3.255-4.428-13.142-8.607-14.831-.962-.473,2.143-.736,7.712-.903,10.34-.483,7.627-.169,15.463-.64,23.108,3.411,2.801,13.151,8.117,13.444,12.854.51,8.225-6.943,7.08-12.381,8.681-3.678,1.083-15.556,4.51-16.193,8.607l14.165,75.001-.275,6.27c-1.197-.79-.967-2.076-1.267-3.23-4.935-18.974-10.79-45.664-13.754-64.951-1.388-9.034-2.622-16.542,3.396-24.373,3.375-4.391,6.897-4.671,11.039-6.95.86-.473,1.268.043.959-1.665-6.555-2.188-7.766.582-11.243,5.239-.212-3.919,1.198-9.382,3.729-12.38,1.867-2.21,5.044-2.204,4.201-5.61-.699-2.827-8.844-15.683-11.275-17.27-3.706-2.42-2.185,2.171-5.128,1.415-.892-.229-9.921-5.803-10.676-6.605-2.187-2.324-1.564-10.405.362-11.664,4.98-3.254,14.863,5.436,18.007,9.041,4.094,4.693,6.504,10.621,10.515,15.342,1.779-7.731-1.846-30.33,7.099-33.789,3.901-1.508,11.883,2.351,12.444,6.394.333,2.404-.176,4.861-.795,7.157h.001Z"/>
        <path d="M338.462,117.669c1.178,1.397-5.493,21.978-6.376,25.473-3.392,13.417-14.089,49.282-.743,58.464,8.784,6.044,14.059-4.222,18.009-10.485,1.686-.313,1.046.741,1.123,1.865,1.258,18.231-19.07,40.009-29.392,16.625-9.023-20.442,3.307-65.644,12.753-85.704.302-.642,3.336-7.767,4.626-6.237h0Z"/>
      </g>
      <path d="M927.972,191.864c.045-1.851-1.095-5.061-3.321-5.182-2.075-.113-11.779,2.332-11.766,4.801.957,4.665,10.354,9.435,14.705,9.435,6.144,0,15.125-7.442,21.367-9.053.075,3.693-1.748,9.886-4.978,11.881-7.18,4.433-16.771,7.389-24.497,12.244-3.746,2.354-7.346,5.587-11.01,8.102-.964-1.216,4.879-11.216,6.729-12.366-4.5-2.842-11.713-7.467-11.281-13.481.458-6.376,18.215-22.976,24.492-23.613,3.245-.329,6.31,2.217,6.331,5.603.012,1.889-4.805,13.513-6.772,11.63h0Z"/>
      <path d="M882.209,134.902c1.203,11.498,14.609,26.117,6.335,37.428-3.618,4.947-11.446,3.541-15.276-.379-1.097-1.124-1.841-4.41-3.415-4.066-2.476.541-4.049,10.439-13.496,9.754-8.353-.606-10.958-10.712-11.63-17.639-.416-4.282,2.005-11.192-3.07-12.028-.451-2.06,3.692-10.52,5.672-10.069,5.875,6.018-.57,24.887,5.643,29.597,3.082,2.336,9.109,1.276,11.739-1.371,8.111-8.161-2.269-21.272,2.515-30.472,1.728-.37,1.197.206,1.675.955,4.95,7.752.598,25.798,9.004,29.203,3.507,1.421,8.421,1.261,8.041-3.461-.74-9.196-11.021-16.275-5.41-26.495.476-.868-.028-1.261,1.67-.956h.003Z"/>
      <path d="M1051.341,317.776c-1.922.328-4.832,3.306-7.12,1.879,4.222-11.172,11.53-12.766,22.776-11.528,16.825,1.851,3.163,16.056-3.272,22.025-4.787,4.441-20.47,12.927-10.012,19.73,10.09,6.563,29.484.576,39.245-5.124,1.574,2.019-8.769,10.222-10.722,11.387-7.727,4.612-19.034,6.561-27.814,4.271-9.619-2.509-9.979-10.09-7.432-18.507,3.227-10.665,13.433-15.317,20.472-23.012.101-.217-1.762-1.121-1.871-1.121-4.021,0-10.669-.612-14.25,0h0Z"/>
      <path d="M179.461,14.24c.47.496-2.168,8.135-3.956,8.406-31.056,12.086-63.178,21.888-92.782,37.309l1.252-9.795c31.226-13.443,62.876-26.14,95.486-35.92Z"/>
      <path d="M846.216,320.782c-1.465,3.064-1.568,7.136-5.065,8.796-27.184,10.59-55.111,19.464-81.692,31.536-3.642,1.654-7.056,3.838-10.739,5.375-.135-2.256.252-8.346,2.019-9.788,31.16-13.581,62.861-26.135,95.477-35.919h0Z"/>
      <path d="M1008.966,314.036c-1.539,2.77-1.585,6.859-4.719,8.393-31.23,11.438-62.567,22.645-92.777,36.565-.66-.733.718-9.512,3.205-9.905,30.887-12.976,61.959-26.052,94.291-35.052h0Z"/>
      <path d="M697.713,325.276l-3.955,7.726-52.479,19.439-40.309,17.047c-.664-7.863.861-8.358,6.988-11.371,20.8-10.23,63.907-27.759,85.973-32.504,1.265-.272,2.485-.487,3.782-.336h0Z"/>
      <path d="M887.461,87.684c-1.721,1.645-6.955-10.177-11.891-4.013-4.828,6.03-5.031,26.226-7.199,34.772-.95,3.745-1.796,5.649-4.303,1.245-3.802-6.678-3.755-14.459-9.968-20.764-3.502-3.554-2.669-1.343-5.971-1.52-2.636-.141-9.646-4.99-10.116-7.889-2.732-16.854,10.389-8.918,16.436-1.437,2.799,3.462,9.879,19.348,10.902,19.838,1.566.751.991-1.318,1.089-1.88,1.175-6.738,3.887-28.731,8.624-32.614,4.74-3.886,14.091,1.917,13.939,7.099-.067,2.312-1.576,4.762-1.543,7.163h.001Z"/>
      <path d="M1098.962,65.948c-4.276-.597-5.479-6.728-10.724-5.104-7.174,2.222-7.015,40.322-10.647,40.318-5.755-6.574-5.449-15.222-11.313-22.407-4.416-5.41-3.441-2.375-7.997-3.186-1.408-.251-7.099-3.688-8.017-4.793-2.55-3.07-2.54-12.903,2.564-12.985,9.672-.155,21.083,20.772,22.896,29.147,1.699.422,1.75-.682,2.037-2.05,1.542-7.364,2.993-28.188,8.404-32.848,3.714-3.198,9.559-.527,12.366,2.724,3.17,3.673.107,6.95.432,11.184h-.001Z"/>
      <path d="M249.958,56.205c-1.922,1.456-6.974-10.166-11.888-4.012-5.379,6.736-5.023,27.891-8.155,37.582-.191.592.06,2.334-1.314,1.653-2.945-1.459-8.135-24.667-14.406-26.113-1.249-.288-2.558.873-4.73.321-8.296-2.105-11.249-8.929-8.062-16.741,14.473-2.434,21.137,17.952,26.438,28.283,1.179-.688.894-1.607,1.137-2.596,1.784-7.26,3.179-28.198,8.585-32.637,4.572-3.754,13.972,1.756,13.935,7.092-.015,2.151-1.283,4.949-1.54,7.168h0Z"/>
      <path d="M297.958,139.397c-1.492,1.078-7.617-9.525-11.914-4.04-4.346,5.549-6.167,39.295-9.454,39.254-5.135-7.083-6.043-19.338-13.076-25.151-2.353-1.945-3.297.068-6.051-.631-1.544-.392-7.993-4.323-8.614-5.69-1.48-3.26-1.39-11.479,3.731-11.625,9.902-.282,20.296,20.631,22.894,28.87,1.529-.436,1.611-2.418,1.903-3.709,1.499-6.626,3.055-27.043,7.864-31.115,4.368-3.699,14.295,1.035,14.257,6.669-.014,2.151-1.283,4.949-1.54,7.168h0Z"/>
      <path d="M933.216,156.264c-1.044,6.284-7.875,10.556-12.746,4.494-11.59-14.422,1.776-35.166,2.985-50.224.642-7.999-.503-16.743-3.609-24.101-1.326-3.142-9.01-13.913-9.057-14.825-.134-2.604,2.41-6.744,2.938-9.401,1.366-.995,5.745,6.891,6.398,8.208,6.139,12.385,8.291,27.807,6.995,41.533-.75,7.943-5.009,15.582-6.432,23.551-1.09,6.101-3.405,21.913,7.318,18.548,3.789-1.189,3.179-5.214,3.734-8.273.226-1.247-.472-1.279,1.478-1.127-.411,3.572.566,8.212,0,11.617h-.002Z"/>
      <path d="M529.711,334.268c.15,2.776-1.066,5.968-3.698,7.164-26.415,9.992-53.124,19.25-78.793,31.053.447-3.321-.047-6.589,3.222-8.389,10.732-5.91,27.54-11.7,39.336-16.152,13.155-4.965,26.531-9.43,39.933-13.675h0Z"/>
      <path d="M489.782,77.385c-1.796-1.793-16.744.476-8.308,7.17,10.557,8.377,16.206-.355,26.488-3.611-.02,3.265-1.473,7.692-4.23,9.63-3.932,2.764-12.402,5.425-17.269,8.225-3.984,2.292-7.496,5.359-11.489,7.623l5.229-9.37c-14.855-8.04-8.616-16.371,1.505-24.74,12.281-10.157,19.245-4.711,10.134,8.613-1.311-.708-1.305-2.788-2.059-3.541h0Z"/>
      <rect x="486.95" y="300.957" width="20.928" height="24.391" transform="translate(-17.844 595.986) rotate(-60.956)"/>
      <rect x="707.874" y="277.714" width="20.541" height="24.319" transform="translate(110.985 770.618) rotate(-60.353)"/>
      <path d="M291.222,350.754c1.204.217,1.621-.252,2.072-1.297,1.61-3.731,2.035-13.376,3.391-18.347,1.702-6.242,3.244-13.827,11.442-9.616,4.956,2.546,5.364,7.756,2.215,12.006-2.153-2.01-3.766-4.561-6.898-5.084-3.821-.035-5.5,10.329-6.019,13.175-.475,2.602-2.129,21.905-4.332,21.887-4.173-5.527-4.438-12.713-8.626-18.346-4.009-5.393-4.227-2.653-8.254-3.681-1.297-.331-6.586-3.794-7.11-4.948-1.05-2.316-.938-9.207,2.261-9.76,8.326-1.44,18.745,16.776,19.861,24.01h-.003Z"/>
      <path d="M130.707,370.988c-5.575-4.586-5.34-16.093-11.181-20.669-2.369-1.856-11.1-1.383-13.169-6.327-1.429-3.415-1.277-10.08,3.639-9.708,8.99.681,15.868,17.819,19.595,24.699,1.277.017,1.799-9.002,2.093-10.635.69-3.83,3.212-18.102,6.526-19.706,7.003-3.39,14.949,6.192,9.381,12.353-15.847-16.767-12.704,21.998-16.884,29.993Z"/>
      <path d="M1117.724,357.499c1.362-12.741,7.709-27.782,5.927-40.781-1.443-10.528-10.03-9.056-11.944.304-1.314-.193-.849-3.948-.768-4.894.502-5.843,2.332-12.258,9.412-11.655,3.267.278,5.313,4.611,6.156,7.396,3.207,10.603-1.296,30.645-4.669,41.384-.858,2.732-1.676,6.562-4.114,8.247h0Z"/>
      <path d="M246.208,258.568c.956,19.345-15.225,22.506-16.403,1.02-.36-6.565,4.66-32.114,8.017-37.514.578-.929,1.15-1.791,2.022-2.476l-6.406,34.81c.814,3.535.545,12.422,6.234,11.536,3.867-.602,4.18-5.231,6.535-7.377h.001Z"/>
      <path d="M807.212,113.173c-1.847,9.633-10.115,35.461-4.105,43.447,3.78,5.022,8.849-.716,9.369-5.226,1.342-.057,1.581-.378,1.492,1.111-.338,5.649-1.959,15.131-9.38,14.7-6.772-.393-7.487-15.869-7.149-20.71.402-5.749,5.054-27.517,7.826-31.926.621-.987.086-1.79,1.947-1.396h0Z"/>
      <path d="M873.963,190.369c-2.732,12.261-7.639,26.592-5.931,39.278,1.345,9.989,9.564,6.814,11.194-1.053,1.342.178.839,3.94.734,4.86-1.74,15.134-14.218,14.551-15.736-.751-1.012-10.199,2.475-25.72,5.621-35.59.208-.654,2.395-8.58,4.119-6.744h0Z"/>
      <path d="M137.466,96.68v-12.366c0-5.411-6.778-14.827-10.204-19.033-1.083-1.33-2.475-.778-2.626-3.439-.066-1.165,1.969-6.755,2.416-7.036,2.612-1.645,7.269,4.716,8.476,6.712,5.234,8.649,7.266,20.774,4.396,30.5-.444,1.505-.85,4.008-2.459,4.663h.001Z"/>
      <path d="M446.458,118.415c-1.012,4.304-.361,11.175-4.523,13.835-8.157,5.213-11.084-5.24-11.762-11.419-.916-8.356,2.262-21.967,4.511-30.303,1.015-3.762,1.753-8.421,4.66-11.082-.673,9.662-4.781,19.131-5.533,28.947-.333,4.355-1.251,17.254,5.529,16.842,4.21-.256,3.926-5.116,7.118-6.821h0Z"/>
      <path d="M165.026,193.168c1.218-1.162.781-4.82,3.188-4.296-.965,4.288-.536,10.14-5.438,12.166-4.524,1.87-6.112-1.131-7.35-5.01-2.851-8.927-.145-19.116,2.052-28.011,1.011-4.093,1.593-8.873,4.368-12.124.067,6.805-3.381,13.859-4.038,20.698-.337,3.506-1.072,15.609,2.159,17.16,1.353.691,3.998.431,5.06-.582h0Z"/>
      <path d="M718.723,368.74c1.269-6.698,3.425-13.204,4.369-19.985.6-4.312,2.671-17.176-2.846-18.674-4.022-.603-4.51,2.407-6.408,4.929-2.18-14.06,11.235-17.652,13.048-1.789.847,7.41-2.326,21.597-4.634,28.934-.73,2.32-1.101,5.494-3.528,6.585h0Z"/>
      <path d="M233.474,379.234c.933-8.732,8.763-29.374,3.352-36.703-1.624-2.199-3.893-2.57-6.011-.796-1.897,1.588-1.181,5.499-3.361,4.137-.215-4.72,3.606-16.433,10.197-11.659,7.605,5.509,1.648,29.901-.647,37.689-.701,2.378-1.334,6-3.529,7.333h-.001Z"/>
      <g>
        <path d="M48.966,49.463c1.26-1.299,25.732,12.386,26.998,16.479-1.559.812-7.251.227-6.744,2.619,9.571,8.236,20.288,15.181,31.48,21.014,25.77,13.43,50.274,16.264,41.045,53.727-3.377,13.707-13.999,19.624-24.889,26.842-18.546,12.292-40.594,25.458-60.375,35.601-24.051,12.332-58.132,29.557-55.508-14.998.928-15.753,6.647-30.622,12.774-44.923-8.481-2.717-12.776-14.449-13.519-22.55-1.314-14.308,3.303-34.255,7.288-48.154,1.367-4.769,9.484-30.12,12.584-31.648,1.94-.409,1.061,2.134.921,3.172-.899,6.66-4.599,15.247-6.336,22.149-3.308,13.141-9.64,34.657-6.761,47.54,1.659,7.422,4.794,14.17,13.632,12.533,5.31-.984,8.101-10.933,10.546-11.944,1.528-.632,1.064,1.033,1.122,1.863.446,6.348-4.263,19.569-9.383,23.612-1.792,1.415-5.681,2.424-6.714,3.784-1.151,1.514-5.455,15.032-6.198,17.79-5.222,19.385-4.94,40.512,21.509,32.736,24.307-7.147,75.487-37.718,97.014-52.949,6.265-4.433,11.155-6.213,4.994-13.706-10.102-12.288-48.345-25.275-64.834-38.639-2.787-2.259-20.646-19.581-20.646-21.339v-20.611Z"/>
        <path d="M31.712,234.588c-1.378,9.773-5.54,18.918-6.738,28.859-2.969,24.645,9.138,49.185,37.105,46.823,22.092-1.866,64.679-32.396,81.398-47.57,3.995-3.626,10.143-7.915,5.564-13.077-6.178-6.965-23.817-4.36-32.614-6.38-35.108-8.065-4.181-67.455,25.142-40.864,18.981,17.213,21.06,53.467,4.875,73.03-16.105,19.466-62.032,52.277-87.364,54.348-50.346,4.116-48.064-59.518-31.477-90.664.318-.598,3.025-5.781,4.11-4.504h-.001ZM120.791,214.494c-10.878,1.522-9.23,9.751,2.798,9.661,1.594-.012,9.919-.976,10.123-1.949-2.156-4.298-8.09-8.388-12.922-7.712h.001Z"/>
        <path d="M66.962,101.181c-2.564,12.98-7.834,27.365-5.948,40.792.704,5.011,5.341,7.684,8.971,3.068,1.308-1.664,1.133-3.947,2.974-4.891,2.202,15.521-13.771,23.914-15.735,4.115-.91-9.174,3.211-33.715,7.878-41.608.572-.967-.135-1.89,1.862-1.476h-.002Z"/>
        <path d="M78.213,223.347c-2.451,11.617-7.889,25.841-6.653,37.75,1.171,11.294,8.337,10.49,12.285,1.221,2.778,7.522-6.558,23.191-13.019,12.253-5.542-9.381-.241-35.504,3.425-45.823.209-.589,2.678-6.924,3.962-5.402h0Z"/>
      </g>
      <g>
        <path d="M698.503,245.112c.47,22.787-.323,39.897-18.435,55.404-33.154,28.386-133.431,69.471-155.423,10.711-7.953-21.249-2.329-53.034,10.706-71.389,1.626-.316,1.14.754,1.142,1.884.009,4.188-3.965,12.588-5.057,17.441-4.724,20.975-2.877,41.756,17.278,53.494,35.168,20.482,97.133-5.757,127.487-27.247,4.141-2.932,14.72-10.347,15.481-15.272.763-4.935-2.769-15.935-4.456-20.951-1.621-4.822-8.027-17.199-8.207-21.027-.108-2.291,2.527-12.017,3.65-14.233.549-1.083.672-2.131,2.285-1.826,3.867,11.18,8.9,15.388,21.208,13.312,2.286-.386,10.513-3.821,11.439-5.838,1.534-3.343-4.913-10.264-4.953-15.349-.017-2.164,2.405-16.142,4.191-16.096,14.016,19.316,11.661,56.328-18.338,56.981h.002Z"/>
        <path d="M528.952,40.475c4.562,9.294,9.488,18.468,13.646,27.968,1.923,4.393,7.415,15.509,7.394,19.602-.006,1.131.488,2.199-1.141,1.884-3.021-2.224-6.081-7.062-8.976-9.021-.684-.463-2.098-1.363-2.646-.355,6.729,36.201,13.655,72.508,19.269,108.906,2.546,16.508,5.599,34.169,6.965,50.75,1.434,17.405.314,33.454-6.008,49.834-1.602,1.519-2.092-3.742-2.15-4.208-1.029-8.14-.745-16.481-1.592-24.64-5.348-51.533-16.254-104.049-24.621-155.271-1.575-9.644-3.161-33.439-6.328-40.894-.625-1.47-2.417-2.496-2.671-4.109-.572-3.633,6.349-15.733,7.323-19.991l1.537-.454h0Z"/>
        <path d="M594.216,57.332c.244-2.064,2.082-7.714,3.239-9.506,5.11-7.919,20.848,2.096,14.374,10.627-1.316.275-3.41-3.254-5.054-3.925-4.762-1.942-9.316-.439-9.581,5.035l-1.51,32.12c3.403,2.036,13.25,8.275,13.599,12.106.808,8.868-8.643,8.013-14.89,9.931-3.57,1.096-13.04,3.974-13.69,8.109,3.434,21.657,9.157,42.978,12.546,64.632.862,5.51,1.916,11.061,1.714,16.641-2.253.364-1.207-.545-1.517-1.816-5.932-24.319-9.501-50.416-15.012-74.963-.959-7.583,2.802-15.97,9.081-20.226,2.491-1.688,5.811-1.75,7.45-4.162l-6.216-.605-5.028,5.089c-.108-6.594,2.917-11.671,8.109-15.452.292-1.466-3.088-7.543-4.048-9.217-.763-1.331-6.668-10.066-7.214-10.385-2.816-1.647-3.27,1.867-4.016,2.056-1.193.302-11.996-6.568-12.695-8.235-.812-1.935-.663-9.724,1.079-10.88,7.695-5.104,25.913,17.948,27.776,24.773l1.505-.761c.567-6.667-.769-14.479,0-20.985h0Z"/>
        <path d="M527.48,183.624l1.883.727c1.752,20.26-21.715,43.49-31.171,13.908-4.414-13.81-1.025-29.138,2.037-42.983,3.388-15.319,8.477-30.996,15.252-45.101l1.918,1.531c-2.971,12.098-6.881,23.923-9.67,36.074-2.671,11.636-9.567,38.855,2.524,46.671,8.376,5.415,14.28-4.026,17.228-10.827h0Z"/>
        <path d="M668.457,113.17c2.501,1.863-2.18,15.656-3.609,18.492-6.598,13.089-19.561,14.341-25.765.002-6.424-14.848-2.331-33.933,1.25-49.233,1.272-5.435,12.149-42.388,15.758-42.697,1.764,1.295.285,4.768-.13,6.6-3.963,17.481-21.286,61.524-8.378,76.086,3.399,3.835,9.048,4.835,13.018,1.249,1.186-1.071,6.768-11.312,7.857-10.5h0Z"/>
        <path d="M658.716,167.131c-.98-.939,7.323-12.408,8.584-13.532,5.289-4.712,25.154-.943,31.75,1.327,7.212,2.482,6.839,6.295,3.043,12.457-8.994,14.597-23.986,18.78-40.377,18.478,3.926-3.972,10.86-5.835,16.019-8.343,1.668-.811,11.547-5.51,11.729-6.274.301-1.262-1.013-1.517-1.879-1.858-1.804-.711-12.927-2.254-14.994-2.254h-13.875,0Z"/>
        <path d="M695.836,48.731c8.472,6.188,14.207,17.996,15.942,28.276,1.628,9.648-1.153,14.195-1.336,22.339-.135,5.981,7.089,6.461,11.293,9.683,8.199,6.284,8.448,14.376,2.104,22.374-6.663,8.4-19.94,8.734-21.427-3.812-2.272-19.172,14.682-34.429,1.431-56.894-1.843-3.125-11.044-11.872-11.207-12.705-.205-1.051,2.353-9.2,3.2-9.26h0ZM710.239,112.511c-3.721.95-8.357,18.675,4.169,16.244,2.274-.441,10.707-5.012,8.855-7.74-1.122-1.653-11.325-8.938-13.024-8.504Z"/>
        <path d="M645.961,257.815c-1.388,1.246-6.235-7.889-11.241-4.863-6.329,3.827-6.366,40.125-10.129,40.076-5.107-6.629-5.359-15.282-10.893-22.077-4.471-5.49-3.886-2.687-8.232-3.695-2.31-.536-8.244-4.331-9.181-6.631-1.099-2.698-.658-9.962,2.383-10.75,10.88-2.819,21.509,21.356,25.176,28.925,3.109-7.317,3.393-30.174,9.31-34.906,3.89-3.111,9.57-.604,12.467,2.649,3.442,3.866.618,6.834.34,11.272h0Z"/>
        <rect x="611.235" y="174.828" width="20.505" height="24.303" transform="translate(153.082 636.207) rotate(-60.547)"/>
      </g>
      <g>
        <path d="M951.954,41.221c13.891,31.724,19.196,67.418,23.905,101.658,3.652,26.555,5.383,53.484,9.202,79.992,2.098,14.561,5.681,32.121,16.022,43.198.763.818,5.587,5.374,6.378,4.486-2.855-12.553-7.906-20.3-5.038-33.89,5.359-25.404,28.123-26.993,49.449-22.099,31.412,7.209,60.96,23.565,93.595,25.268,1.45,1.481-6.588,16.097-8.246,18.414-6.003-1.404-10.631.639-16.144,2.554-15.4,5.35-30.294,13.707-45.372,19.864-18.629,7.607-38.152,14.156-58.421,15.446-.269,1.498-.535,3.036-1.19,4.433-3.286,7.006-2.769-3.788-4.451-5.306-1.253-1.131-4.806-1.504-6.601-2.397-23.209-11.552-27.56-38.259-30.569-61.638-6.447-50.087-8.796-101.785-22.568-150.578-1.576-5.585-7.006-17.692-6.515-22.338.366-3.463,2.628-9.908,3.947-13.326.265-.687,1.125-5.14,2.617-3.741h0ZM1101.964,251.082c-13.773-4.764-27.413-10.363-41.423-14.449-9.565-2.79-21.78-6.542-31.688-5.785-4.307.329-20.111,4.241-20.638,9.368-.242,2.349,5.286,16.63,6.246,20.73,1.076,4.598,1.672,9.306,2.112,14,12.474,3.642,26.445-.667,38.533-4.372,13.317-4.082,32.994-11.344,45.136-17.852.5-.268,2.086-1.153,1.723-1.641h0Z"/>
        <path d="M1009.712,35.976c1.088,1.293-5.09,20.38-5.937,23.664-3.544,13.733-10.49,36.431-7.372,49.97,1.449,6.293,6.186,14.345,13.704,11.85,5.82-1.932,8.126-10.572,9.757-11.265.326-.138,1.861-.301,1.856.357,1.55,18.589-20.042,42.575-30.37,15.35-7.495-19.757,4.248-62.877,12.985-82.189.324-.715,4.047-9.315,5.376-7.736h.001Z"/>
        <path d="M1097.462,129.661l-3.531,8.274c-31.306,11.607-62.992,22.431-93.211,36.687-.163-5.335-.743-7.733,4.213-10.397,6.268-3.37,15.277-6.624,22.057-9.436,22.997-9.541,46.636-17.904,70.472-25.128h0Z"/>
        <path d="M1120.709,169.381l-7.29-5.865c-1.122-.327-2.123-.241-3.188.247-6.33,2.9-6.237,31.075-9.017,38.217-.338.869-.606,2.175-1.863,1.875-5.09-6.872-5.785-18.493-12.364-24.373-2.238-2-3.516-.176-6.403-1.038-2.067-.617-8.631-4.596-9.213-6.595-1.058-3.636-1.029-10.792,3.967-10.787,10.359.011,20.01,20.032,22.888,28.553,1.454-.334,1.447-1.95,1.754-3.108,1.745-6.592,3.472-28.833,9.061-32.165,4.874-2.906,13.241,2.128,13.242,7.916,0,2.576-1.499,4.609-1.573,7.125v-.002Z"/>
      </g>
    </g>
  </g>
</svg>