<?xml version="1.0" encoding="UTF-8"?>
<svg class="laamiyah-ibn-al-qayyim" id="Layer_1" data-name="Layer 1" xmlns="http://www.w3.org/2000/svg" viewBox="0 0 1609.049 615.821">
  <path d="M16.541,43.91c-9.39-4.392-12.686-13.758-8.911-23.307,2.533-6.389,8.556-6.96,12.881-4.37,7.015,4.198,14.317,9.275,18.948,15.789,6.994,9.811,11.83,21.173,17.5,31.919,1.209,2.293,2.065,4.768,3.081,7.165.866-.034,1.722-.057,2.589-.092,1.483-9.24,2.625-18.549,4.563-27.698,2.248-10.564,4.586-21.186,8.008-31.407,3.412-10.177,9.709-13.21,17.946-10.393,10.142,3.457,15.571,11.819,13.404,20.843-.73,3.046-1.78,6.012-3.001,10.039-4.414-4.164-7.849-7.483-11.362-10.7-4.391-4.017-8.876-4.017-10.861,1.859-3.514,10.427-6.605,21.07-8.874,31.828-2.339,11.101-3.401,22.474-5.191,33.7-.491,3.057-1.586,6.024-2.396,9.035-1.061.251-2.133.514-3.206.764-2.407-5.544-4.575-11.214-7.278-16.61-5.042-10.051-10.291-20.01-15.755-29.833-.924-1.666-4.028-3.878-5.065-3.422-7.313,3.228-11.739-2.669-17.009-5.134l-.011.024h0Z"/>
  <path d="M72.406,204.912c9.047,6.115,18.459,12.162,25.965,19.953,6.205,6.434,9.947,15.242,16.016,24.972.661-4.699,1.255-7.574,1.437-10.484.742-11.625.377-23.421,2.248-34.852,2.852-17.431,12.994-20.728,26.991-9.811,5.384,4.199,6.218,11.157,3.194,16.292-6.708-2.259-12.88-4.689-19.245-6.332-4.051-1.037-6.834,1.244-7.074,5.613-1.049,18.961-2.167,37.932-2.795,56.903-.068,1.917,2.761,4.165,4.609,5.841,5.373,4.871,11.328,9.15,16.303,14.374,5.065,5.339,1.871,14.887-5.317,16.884-9.617,2.681-19.314,5.066-29.01,7.473-10.04,2.487-14.055,9.161-12.115,19.201,8.042,41.502,15.948,83.038,23.752,124.588.616,3.33.079,6.891-1.677,10.221-8.716-42.05-17.614-84.077-26.091-126.173-4.882-24.277,1.769-36.552,24.425-47.298,1.14-.547,2.122-1.46,3.262-2.27-6.65-5.623-10.427-5.19-18.595,2.453.421-8.921,3.981-15.126,10.039-20.477,1.711-1.506,3.377-5.521,2.556-7.005-5.076-9.229-10.712-18.174-16.519-26.98-1.951-2.966-4.665-5.362-8.761-1.893-1.072.901-4.175.365-5.784-.525-4.494-2.487-8.829-5.315-12.97-8.35-5.944-4.359-7.655-14.557-2.886-20.215,1.529-1.814,6.479-3.172,8.076-2.088l-.034-.011v-.004Z"/>
  <path d="M270.599,530.043c2.008-.616,4.129-.845,6.639-1.346-2.133,10.678-7.872,15.526-17.979,19.256-56.448,20.843-113.659,39.86-167.54,67.125-.879.446-1.962.491-3,.743-1.187-13.872-.229-16.463,11.693-21.687,55.592-24.344,112.176-46.122,170.186-64.09h0Z"/>
  <path d="M195.784,39.347c-19.199-5.384-39.026-6.047-59.014-5.841,6.479-21.528,21.208-31.407,42.278-28.27,10.438,1.551,20.877,3.228,31.132,5.636,12.675,2.988,14.716,8.419,8.248,20.009-11.875,21.254-30.105,32.811-54.223,35.423-6.708.729-13.381,1.802-20.078,2.714-.331-1.106-.65-2.213-.981-3.319,17.648-7.974,35.296-15.937,52.944-23.911-.102-.811-.205-1.632-.308-2.441h.002Z"/>
  <polygon points="148.292 210.993 148.292 210.981 148.303 210.981 148.292 210.993"/>
  <path d="M199.275,106.917c5.191-3.183,10.69-5.865,16.2-8.477,34.612-16.405,70.605-29.33,106.733-41.879,60.064-20.854,120.846-39.381,182.279-55.74,1.277-.331,2.59-.502,4.289-.821-2.248,8.75-5.784,14.739-15.15,17.113-52.443,13.256-104.121,29.17-155.264,46.739-45.541,15.64-90.249,33.379-134.023,53.47-5.658,2.601-11.259,5.315-17.329,7.608,2.179-7.3,5.533-13.907,12.252-18.013h.013Z"/>
  <path d="M207.569,274.364c-2.453,11.089-5.533,22.087-7.176,33.29-1.722,11.704-2.338,23.592-2.851,35.422-.24,5.418,1.871,10.553,8.213,11.317,6.173.741,8.1-4.222,9.959-8.864.354-.879,1.038-1.62,1.564-2.419.798.251,1.585.513,2.384.764-1.414,5.933-1.871,12.378-4.597,17.625-1.803,3.468-6.902,7.187-10.506,7.187-3.446,0-9.264-4.255-9.869-7.439-2.133-11.203-4.209-22.93-3.046-34.11,1.551-14.945,6.013-29.615,9.595-44.309.787-3.206,3.148-6.024,6.32-8.454l.011-.011h-.001Z"/>
  <path d="M224.909,210.673c1.54,10.301-.284,17.864-5.681,23.889-5.807,6.491-13.769,5.362-17.021-2.715-2.749-6.857-5.35-14.853-4.46-21.892,2.464-19.541,6.686-38.868,10.485-58.227.592-2.966,2.624-5.658,3.981-8.476.752.228,1.505.445,2.258.661-2.521,11.283-5.51,22.474-7.403,33.848-1.688,10.108-2.578,20.409-2.966,30.665-.217,5.704-.799,13.085,6.742,14.899,7.871,1.894,10.518-4.825,14.077-12.64l-.011-.011h0Z"/>
  <path d="M248.399,324.571c-2.339-10.94-1.038-14.352,9.765-18.629,40.545-16.051,81.214-31.795,121.941-47.356,13.051-4.996,26.456-9.058,41.343-14.1-1.358,8.408-2.977,13.998-10.701,16.69-23.512,8.214-47.092,16.303-70.239,25.475-29.718,11.761-59.025,24.539-88.516,36.859-.947.4-1.996.593-3.582,1.05l-.011.011h0Z"/>
  <path d="M310.515,196.823c5.088-7.894,2.92-16.153,2.042-24.458-.661-6.252-.981-12.538-1.448-18.812l3.433-.456c5.442,7.792,3.844,17.306,5.739,25.988,1.323,6.102,3.456,12.457,6.981,17.466,1.746,2.475,7.461,2.167,11.375,3.125.684-3.707,2.624-7.734,1.779-11.054-1.722-6.765-5.658-12.971-7.324-19.748-1.369-5.544-.764-11.567-1.026-17.385.958-.092,1.916-.195,2.885-.285,4.667,12.765,9.412,25.508,13.929,38.331.696,1.962.685,4.346.4,6.445-.89,6.479-1.734,13.564-8.955,16.04-7.405,2.543-13.781-.64-19.018-6.104-1.437-1.506-2.772-3.104-4.894-5.488-2.475,3.365-4.425,6.171-6.513,8.864-7.005,9.047-20.022,9.503-25.064-.559-4.061-8.1-4.517-18.001-6.639-27.094-.947-4.038-3.148-8.145-2.795-12.035.456-4.986,2.909-9.788,4.494-14.671l4.107.605c.49,6.183,1.095,12.378,1.461,18.572.342,5.944.057,11.956.776,17.843.639,5.202,2.316,10.267,8.773,11.18,6.365.889,11.704-.411,15.503-6.31h0Z"/>
  <path d="M596.664,313.985c-11.077-69.555-23.078-138.973-34.737-208.437-1.517-9.058-3.138-18.093-4.712-27.14,1.38-.935,2.749-1.872,4.13-2.819,5.715,6.412,11.419,12.823,17.124,19.235-9.001-28.817-20.912-56.197-36.392-82.527-5.146,10.177-9.035,20.215-12.469,30.403-.685,2.03.057,4.746.695,6.981,1.414,4.871,3.891,9.526,4.701,14.477,11.91,72.544,23.889,145.076,35.228,217.711,4.814,30.802,8.179,61.832,12.241,92.76,1.198,9.148-3.08,15.971-9.959,20.933-19.03,13.736-40.088,10.541-61.752,7.872,4.015-8.727,7.803-15.926,10.701-23.466,8.932-23.308,8.59-46.01-5.123-67.741-6.673-10.575-13.336-12.367-23.215-4.781-22.942,17.637-50.686,58.957-35.103,95.874.707,1.688-1.712,6.731-3.23,6.994-9.274,1.585-18.834,3.638-28.086,2.874-15.652-1.289-27.071-18.754-23.729-33.813.332-1.506-.308-3.228-.729-6.971-4.473,6.344-7.792,10.849-10.907,15.503-4.814,7.187-8.076,16.2-14.476,21.402-21.995,17.911-59.722,23.068-82.446-4.973-2.304-2.841-4.849-5.476-7.986-9.001-1.392,3.445-2.27,5.613-3.262,8.053-6.834-1.334-13.12-3.296-19.486-3.593-6.684-.308-13.586.308-20.135,1.711-27.825,5.955-51.599,20.296-72.122,39.153-24.766,22.759-47.503,47.686-72.042,70.707-11.146,10.461-23.683,20.044-37.019,27.448-21.618,12.002-43.876.89-47.139-23.854-3.81-28.92,7.039-54.44,26.912-74.735,11.933-12.196,18.035-25.965,21.686-41.64.833-3.582.126-7.507.126-11.283-.776-.147-1.551-.296-2.327-.444-3.617,5.601-7.016,11.351-10.883,16.769-6.628,9.275-19.907,9.845-27.231,1.221-11.864-13.986-12.241-30.984-8.91-47.173,6.879-33.392,15.755-66.361,23.786-99.512,1.038-4.255,1.962-8.545,2.932-12.823-.753-.331-1.517-.661-2.269-1.003-1.586,2.247-3.754,4.277-4.678,6.765-6.229,16.758-12.834,33.403-18.104,50.469-9.606,31.155-18.448,62.733-15.789,95.76,1.54,19.04,5.521,38.012,27.504,45.894-.947,1.688-1.654,3.093-2.475,4.426-9.24,15.15-16.553,31.053-19.69,48.679-6.263,35.274,12.046,65.209,44.651,71.858,4.951,1.017,11.477.822,15.573-1.631,12.275-7.347,24.881-14.841,35.228-24.55,20.967-19.656,40.304-41.046,60.736-61.284,18.185-18.013,37.362-34.829,62.174-43.544,14.043-4.928,28.189-7.781,43.088-4.175,8.202,1.985,11.785,6.068,11.956,15.263.49,26.672,17.614,41.845,37.007,50.857,1.769.822,7.256-1.871,7.906-3.912,2.68-8.419,4.369-17.193,5.989-25.908.764-4.141.559-8.466.798-12.778,29.684-1.619,45.439-21.288,59.938-44.948,1.62,4.86,2.852,7.769,3.56,10.814,3.137,13.473,11.635,21.094,25.2,22.828,16.165,2.065,31.966-.866,45.244-9.708,10.622-7.073,19.907-7.826,30.62-2.453.24.126.513.171.776.24,18.219,5.327,36.643,8.35,55.147,1.996,22.76-7.815,35.035-25.498,42.404-47.23l.011.046c8.26-24.379,6.765-49.443,2.84-74.13v.004ZM314.542,463.1v.011c-7.883-2.087-13.37-7.073-17.158-16.245,7.906,3.422,14.135,5.784,19.988,8.864,1.482.776,1.779,3.81,2.624,5.796-1.825.57-3.891,1.996-5.454,1.574ZM490.421,391.035v-.011c-1.221.399-2.635.753-3.844.513-7.587-1.517-19.291-16.667-19.098-24.527.251-9.8,14.716-28.098,24.219-29.41,3.183-.445,7.05,1.769,10.119,3.593,1.917,1.141,2.967,3.788,4.313,5.818,14.054,21.242,8.75,36.107-15.71,44.025h.001Z"/>
  <path d="M384.805,543.674c4.438-7.916,8.966-16.016,13.952-24.915,11.419,6.434,22.349,12.594,34.247,19.303-5.281,9.983-10.29,19.463-15.629,29.56-11.978-6.835-23.204-13.247-34.908-19.919-4.667,8.52-9.253,16.895-14.01,25.599-11.659-6.935-22.28-13.256-33.848-20.147,5.065-9.695,10.017-19.142,15.527-29.672,11.556,6.731,22.679,13.21,34.658,20.191h.011Z"/>
  <path d="M420.25,122.306c-7.803,2.704-12.868-2.635-18.595-5.886-7.416-4.21-11.477-15.447-7.221-22.52,1.585-2.635,7.3-5.373,9.742-4.438,6.321,2.43,13.576,5.612,17.387,10.769,7.986,10.769,14.089,22.942,20.74,34.669,1.803,3.183,2.806,6.834,4.175,10.267.856-.057,1.7-.125,2.544-.182.981-6.902,1.517-13.907,3.057-20.683,2.988-13.176,6.012-26.387,10.005-39.278,2.932-9.48,9.287-12.378,17.443-9.754,9.982,3.217,15.366,11.203,13.188,19.793-.776,3.08-1.893,6.081-3.354,10.701-2.966-3.319-4.917-5.658-7.039-7.837-7.655-7.894-15.789-6.046-18.219,4.757-2.909,12.937-4.699,26.101-7.039,39.164-1.79,10.027-3.673,20.043-5.521,30.06-1.095.194-2.179.387-3.274.582-2.35-5.35-4.438-10.827-7.095-16.017-5.362-10.495-10.941-20.877-16.656-31.189-.787-1.427-3.274-3.32-4.267-2.978h0Z"/>
  <path d="M496.217,215.613c3.206-6.126,6.023-10.564,13.667-3.856,5.591,4.905,12.765,8.213,19.599,11.454,5.02,2.395,5.533,5.247,3.148,9.594-3.388,6.173-6.889,12.286-10.061,18.572-1.894,3.754-4.175,4.563-7.758,2.362-7.632-4.678-15.344-9.218-22.976-13.884-4.551-2.772-8.065-3.514-10.792,2.681-2.795,6.32-6.628,12.183-10.313,18.812-11.546-6.834-22.189-13.131-33.746-19.976,5.35-9.925,10.325-19.143,15.721-29.136,11.967,6.936,22.668,13.131,34.601,20.044,2.68-5.02,5.829-10.815,8.887-16.656l.023-.011h0Z"/>
  <path d="M507.716,576.165c1.243-1.139,1.893-2.931,2.806-4.425.799.297,1.609.582,2.407.879-2.077,6.615-3.172,13.781-6.457,19.735-4.415,7.997-14.523,7.861-17.933-.559-3.343-8.223-6.07-17.91-5.009-26.466,2.304-18.675,7.107-37.065,11.101-55.523.524-2.407,2.258-4.552,3.433-6.823.616.251,1.232.49,1.848.742-3.114,15.287-6.605,30.505-9.172,45.873-1.243,7.403-1.722,15.24-.627,22.598.639,4.314,5.054,8.078,7.781,12.082,3.285-2.681,6.686-5.236,9.811-8.101l.011-.011h0Z"/>
  <path d="M632.018,530.933c7.199,3.319,10.883,9.286,8.887,15.971-.673,2.247-1.917,4.312-3.217,7.141-1.585-2.156-2.578-3.707-3.764-5.098-5.784-6.823-13.634-5.648-15.824,3.125-2.806,11.238-4.13,22.838-6.217,34.259-1.187,6.479-2.624,12.925-3.947,19.382-.753.057-1.517.125-2.282.181-1.324-2.725-2.704-5.429-3.959-8.189-3.467-7.61-6.513-15.437-10.45-22.783-2.646-4.951-6.275-8.373-13.268-8.429-8.521-.068-16.142-9.582-15.481-16.816.799-8.647,5.989-11.306,13.394-6.708,11.317,7.039,17.864,17.842,23.055,29.673,1.78,4.061,3.639,8.076,7.233,11.784,1.94-10.45,3.639-20.944,5.899-31.326,1.198-5.51,3.137-10.906,5.157-16.187,2.703-7.073,7.46-9.332,14.784-5.967v-.013Z"/>
  <path d="M952.928,326.819c-5.122,14.112-15.606,21.664-29.855,24.698-3.422.73-6.867,1.335-10.232,1.974-.845,14.442-1.369,28.475-2.567,42.449-1.529,17.853-9.321,33.015-23.102,44.24-50.846,41.435-108.24,68.255-174.178,73.525-24.391,1.951-47.995-3.069-68.438-18.516-17.203-13.016-24.904-30.938-27.642-51.336-4.152-31.029,2.933-60.348,15.539-88.526,1.78-3.97,4.985-7.29,7.529-10.918.81.4,1.62.811,2.441,1.209-3.377,12.139-7.871,24.106-9.8,36.472-2.019,12.983-3.639,26.649-1.791,39.495,3.97,27.505,22.212,43.91,47.892,51.986,28.92,9.093,58.124,6.241,86.633-1.722,45.028-12.572,86.371-33.095,123.938-61.056,10.016-7.45,13.997-16.645,9.743-28.954-5.488-15.847-10.04-32.034-16.085-47.652-5.191-13.405.284-24.493,4.791-38,3.251,5.989,5.796,10.119,7.815,14.488,3.799,8.192,10.712,11.694,18.961,11.009,8.008-.673,16.062-2.624,23.705-5.18,6.366-2.133,9.583-6.479,5.009-13.746-8.739-13.884-6.868-28.407-.24-45.667,3.97,8.179,7.747,14.442,10.143,21.207,5.692,16.085,5.681,32.353-.195,48.53l-.011-.011-.003.002Z"/>
  <path d="M631.436,65.824c-.126-.81.092-1.882-.353-2.384-10.507-11.899-.708-22.257,2.533-33.05,1.06-3.514,2.737-6.844,5.236-12.948,14.762,28.611,28.167,55.215,37.704,83.575-1.038.81-2.065,1.609-3.103,2.407-5.02-6.891-10.028-13.792-15.048-20.683l-3.627,2.612c0,1.643-.24,3.32.034,4.905,12.195,70.776,24.755,141.483,36.528,212.328,4.849,29.136,9.685,58.535,6.776,88.184-1.437,14.671-5.818,29.057-8.944,43.556-.126.616-1.129,1.038-2.875,2.544-.958-5.42-2.316-9.982-2.521-14.602-2.544-56.813-12.926-112.575-22.007-168.521-10.164-62.631-20.227-125.284-30.323-187.926h-.011v.003Z"/>
  <path d="M882.814,513.615c-.764,10.05-4.62,15.081-13.336,18.39-52.204,19.849-104.168,40.316-156.154,60.749-5.967,2.337-11.523,5.68-17.546,8.692-1.495-14.522-.205-17.615,12.07-22.337,54.302-20.899,108.719-41.525,163.112-62.174,3.468-1.311,7.176-2.03,11.854-3.319h0Z"/>
  <path d="M728.371,236.113c-6,4.665-12.127,2.988-14.157-2.807-3.297-9.445-6.515-19.953-5.568-29.604,1.677-17.135,6.331-33.996,10.13-50.891.764-3.411,3.228-6.423,4.917-9.617.548.229,1.084.468,1.62.708-2.727,11.99-5.989,23.9-7.997,36.004-1.677,10.096-2.624,20.454-2.385,30.653.103,4.244,3.149,10.587,6.571,12.093,6.423,2.829,10.245-2.133,11.602-8.568.137-.661.935-1.175,1.482-1.837,2.933,7.86-.216,19.154-6.228,23.843l.011.023h.002Z"/>
  <path d="M742.323,76.651c-8.431,1.084-19.314-10.472-19.028-18.617.137-3.72,1.38-9.698,3.627-10.519,3.709-1.346,9.754-.787,12.812,1.563,5.897,4.541,11.283,10.336,15.287,16.622,6.331,9.924,11.351,20.683,18.024,33.129,1.769-11.317,2.898-20.535,4.701-29.626,1.585-7.952,3.673-15.835,6-23.616,3.057-10.221,8.795-14.112,16.2-11.613,11.34,3.822,15.287,11.203,11.465,21.459-.456,1.232-1.084,2.406-2.145,4.723-2.441-2.009-4.199-3.241-5.694-4.723-8.532-8.466-15.378-6.8-18.013,5.452-3.125,14.557-4.917,29.387-7.324,44.104-.913,5.544-1.927,11.066-2.886,16.587-.878.195-1.756.377-2.635.571-2.145-4.665-4.267-9.321-6.423-13.975-3.741-8.077-7.199-16.303-11.362-24.151-2.475-4.688-5.281-8.305-12.606-7.358v-.011h0Z"/>
  <path d="M811.069,339.47c4.038-1.05,10.358,2.967,14.351,6.332,6.195,5.225,1.004,11.214,0,15.594-5.009-2.635-11.271-8.373-14.476-6.992-4.062,1.745-6.913,9-8.055,14.351-3.354,15.732-5.601,31.703-8.294,47.584-.764.16-1.517.319-2.282.49-2.042-4.46-4.004-8.955-6.126-13.37-3.365-7.039-6.525-14.192-10.369-20.968-2.202-3.867-4.77-6.754-10.964-5.852-7.711,1.129-16.576-9.8-16.234-17.819.353-8.306,5.065-11.66,12.309-7.405,5.397,3.172,10.416,7.906,13.952,13.086,4.997,7.3,8.488,15.652,12.549,23.581,1.175,2.269,2.111,4.665,4.039,8.977,3.627-16.713,6.183-31.11,10.108-45.118,1.368-4.883,5.43-11.42,9.492-12.47h0Z"/>
  <path d="M808.912,251.947c-5.11,9.526-10.061,18.756-15.697,29.262-10.575-6.423-20.501-12.252-30.129-18.561-1.311-.856-2.076-4.541-1.357-6.16,2.943-6.663,6.434-13.097,9.971-19.474,1.996-3.583,4.643-4.678,8.692-2.111,8.898,5.647,18.071,10.849,28.533,17.055l-.012-.011h0Z"/>
  <path d="M852.309,222.96c-6.389,3.639-12.081,2.064-15.539-4.689-5.27-10.301-6.228-21.459-4.118-32.536,3.046-15.926,6.982-31.692,10.746-47.481.64-2.703,2.282-5.168,3.468-7.734l2.145.787c-2.578,11.83-5.601,23.581-7.597,35.502-1.564,9.308-1.917,18.822-2.659,28.257-.148,1.848-.126,4.049.73,5.567,2.008,3.572,4.575,6.834,6.924,10.222,3.583-2.864,7.21-5.658,10.712-8.613.764-.639,1.072-1.825,1.666-2.886,3.125,6.72-.719,20.317-6.492,23.603h.014Z"/>
  <path d="M926.404,135.824c-3.183-2.042-6.571-3.844-10.051-5.339-4.049-1.756-5.533-4.117-4.962-8.818,1.164-9.663,2.544-19.496,1.928-29.136-1.312-20.752-10.096-38.342-25.52-53.629-7.644,11.751-6.742,15.868,1.917,23.329h.011c4.369,3.754,7.974,8.75,10.872,13.781,8.703,15.161,8.829,31.578,5.384,48.153-2.533,12.184-6.034,24.185-8.329,36.404-1.392,7.426-.387,16.542,6.584,19.451,6.149,2.566,15.788,2.509,21.515-.662,18.435-10.21,18.241-32.25.65-43.533h.001ZM929.85,162.804c-4.905,3.093-10.222,5.557-15.356,8.295-6.639-.879-10.29-3.947-10.54-9.595-.195-4.449.729-9.116,2.042-13.428,1.608-5.281,5.305-6.56,10.027-3.148l-.011.011c4.609,3.331,9.184,6.708,13.781,10.061,3.548,2.59,3.548,5.602.058,7.803h0Z"/>
  <path d="M920.484,432.846c5.544-10.119,10.563-19.291,16.028-29.273,11.568,6.787,22.634,13.278,34.076,19.998-5.281,10.119-10.255,19.656-15.492,29.707-11.579-6.834-22.896-13.518-34.611-20.443v.011h0Z"/>
  <path d="M943.631,567.506c1.323-1.927,2.316-4.083,4.083-6.011.49,7.573.229,15.183-5.076,21.343-4.985,5.796-13.039,4.086-16.45-3.046-5.557-11.602-4.826-23.866-2.681-35.867,2.27-12.719,5.773-25.234,8.99-37.772.764-2.966,2.532-5.67,3.833-8.499l1.483.844c-2.932,14.465-6.583,28.828-8.534,43.43-1.106,8.306-1.175,17.546,1.414,25.326,2.841,8.556,7.553,8.09,12.949.24l-.011.011h0Z"/>
  <path d="M1022.894,415.551c-5.818-47.07-10.633-94.289-17.625-141.187-10.154-68.117-21.802-136.018-33.027-203.977-1.255-7.644-4.061-15.013-5.841-22.576-.593-2.533-.947-5.555-.126-7.895,3.32-9.434,7.153-18.687,10.804-28.006.798-.126,1.608-.263,2.419-.388,12.845,26.866,27.482,52.946,36.151,81.648-.752.547-1.505,1.095-2.258,1.643-6.171-5.955-12.355-11.899-18.527-17.854-.537.263-1.084.525-1.62.787.582,3.264,1.175,6.515,1.735,9.777,11.499,66.761,23.17,133.486,34.406,200.292,5.35,31.829,10.746,63.84,7.884,96.239-1.335,15.024-5.773,29.787-8.808,44.663-1.209-.08-2.407-.172-3.616-.251-.662-4.312-1.427-8.613-1.962-12.936l.011.023v-.002Z"/>
  <path d="M999.081,404.956c-1.821,7.895-4.115,15.29-5.152,22.856-2.433,17.748,2.193,34.505,8.332,50.946,4.376,11.719,11.172,21.462,20.619,29.975,12.05,10.859,31.207,8.189,41.314-5.312,5.639-7.532,10.386-16.056,13.899-24.79,8.683-21.598,16.206-43.67,29.81-62.922,10.195-14.427,21.952-27.189,37.928-35.384,16.209-8.314,23.468-5.511,30.39,11.927,5.019,12.645,11.545,24.303,22.064,33.128,20.911,17.544,50.174,19.103,75.132,4.612,14.625-8.491,24.304-21.536,33.556-35.115,6.083-8.929,12.137-18.033,22.26-21.245,3.597,8.774,6.583,17.67,10.793,25.944,6.08,11.954,17.266,17.035,29.827,19.327,4.659.85,9.481,1.121,14.228,1.121,6.728,0,8.463-1.495,9.319-8.189,1.256-9.831,1.132-19.942,3.355-29.525,5.229-22.533,12.099-44.536,26.508-63.357,8.195-10.703,19.296-9.683,26.256-1.837,10.291,11.603,16.354,25.326,17.396,40.257,2.02,28.967-6.2,55.05-28.392,74.913-7.519,6.731-16.736,11.93-25.884,16.37-8.372,4.062-12.09,9.615-11.871,18.673.106,4.395-.828,8.814-1.29,13.223-.698-.001-1.396-.004-2.094-.006-.991-7.079-1.984-14.16-3.048-21.755-4.674,0-9.26-.459-13.726.074-32.684,3.894-47.669-11.787-58.084-34.813-1.582-3.497-3.205-6.974-5.049-10.982-6.747,4.832-12.209,10.327-16.158,17.233-6.859,11.998-14.335,23.427-24.773,32.811-21.314,19.165-57.159,22.524-79.723,6.859-12.77-8.864-20.886-21.434-26.936-35.483-.871-2.021-1.595-4.105-2.51-6.105-5.21-11.396-12.695-14.096-24.368-8.853-15.722,7.061-26.611,19.334-35.515,33.518-11.241,17.906-19.017,37.456-26.458,57.164-4.963,13.148-11.588,25.384-21.918,35.281-7.568,7.25-15.159,8.823-24.606,4.338-14.039-6.666-23.66-17.937-30.595-31.433-11.137-21.67-17.72-44.623-16.861-69.214.397-11.355,1.543-22.688,2.576-34.01.21-2.297,1.484-4.487,2.187-6.752,1.144-3.686,3.405-4.965,7.262-3.466v-.003h0ZM1452.387,386.395c-2.269-13.577-6.424-24.687-16.411-32.784-3.473-2.817-6.527-2.601-10.114.776-9.615,9.053-14.594,20.531-18.297,32.743-2.43,8.015-5.157,16.026-3.374,24.684.623,3.026,1.679,5.005,5.087,3.658,13.844-5.475,27.6-11.197,38.454-21.845,2.188-2.145,3.42-5.263,4.655-7.231h0Z"/>
  <path d="M1412.433,609.308c5.629-5.232,11.34-10.378,16.873-15.711,22.412-21.595,44.859-43.152,67.112-64.909,14.868-14.538,29.87-28.978,44.027-44.191,24.269-26.081,43.809-55.041,52.507-90.352,3.225-13.092,1.29-25.95.1-38.875-1.396-15.166-3.209-30.297-5.107-45.411-2.697-21.478-5.589-42.931-8.482-64.384-3.017-22.362-6.142-44.71-9.208-67.066-2.84-20.721-5.796-41.427-8.437-62.175-1.183-9.297-1.555-18.694-2.587-28.013-1.43-12.928-3.32-25.805-4.609-38.745-.384-3.846-.114-8.053,1.067-11.703,3.249-10.046,7.14-19.883,11.291-31.213,2.411,4.019,4.649,7.004,6.12,10.33,7.99,18.068,15.535,36.337,23.746,54.302,5.146,11.259,5.719,22.514,2.051,36.048-3.883-5.08-7.174-9.384-10.703-14-6.105,6.429-7.725,12.048-6.778,18.594,4.332,29.935,8.857,59.844,12.845,89.825,3.724,27.992,6.672,56.087,10.312,84.091,3.088,23.755,5.492,47.605,4.044,71.501-2.446,40.44-8.825,80.353-27.639,116.756-16.85,32.6-40.74,59.78-71.174,80.652-21.007,14.406-42.242,28.525-63.906,41.914-9.937,6.141-21.149,10.219-31.784,15.232-.562-.834-1.123-1.666-1.685-2.499h.003v.002Z"/>
  <path d="M1566.443,437.606c-3.768-1.099-6.713-2.166-6.136-6.994,3.956-33.048-9.927-60.641-29.256-85.189-20.202-25.658-42.559-49.666-64.62-73.807-30.053-32.889-60.751-65.188-91.11-97.8-23.48-25.221-44.898-51.943-60.587-82.896-2.542-5.015-6.117-9.614-9.778-13.927-4.508-5.31-7.464-10.62-5.81-17.993,2.066-9.214,3.479-18.574,5.397-29.096,3.848,3.265,6.964,5.694,9.837,8.383,16.103,15.08,32.15,30.223,48.207,45.352,1.205,1.136,2.294,2.399,3.518,3.514,4.887,4.45,6.889,9.48,2.853,15.975-3.878-1.592-8.048-3.304-12.488-5.127-1.214,1.63-2.384,3.2-4.103,5.506,8.159,9.497,16.1,19.299,24.635,28.551,14.856,16.104,30.089,31.861,45.15,47.778,32.138,33.965,64.635,67.6,96.25,102.044,16.755,18.254,32.415,37.594,42.941,60.44,9.784,21.233,14.605,43.393,13.193,66.837-.716,11.877-3.503,22.32-8.097,28.448h.005,0Z"/>
  <path d="M1119.819,279.554c8.065,5.669,16.336,11.618,24.749,17.357,7.944,5.419,9.016,7.092,5.316,15.753-3.643,8.527-8.354,16.599-13.347,26.331-11.556-8.122-22.099-15.511-32.613-22.942-2.864-2.024-3.129-4.735-1.759-7.777,4.801-10.66,9.363-21.437,14.496-31.934,2.284-4.673,1.055-7.27-2.851-9.962-6.482-4.469-12.755-9.247-19.041-13.995-6.032-4.558-7.299-8.326-4.291-15.306,3.885-9.018,8.295-17.809,12.785-27.346,9.431,6.672,18.304,12.771,26.98,19.139,7.895,5.794,6.107,13.767,3.293,21.006-3.696,9.506-8.518,18.576-13.717,29.676h0,.001Z"/>
  <path d="M1396.47,99.196c.074-11.123,4.853-19.321,14.263-23.48,36.702-16.221,73.63-31.934,110.519-47.731,2.991-1.281,6.287-1.976,9.512-2.532,1.436-.248,3.52.016,4.493.924,3.526,3.29.474,13.556-4.341,14.39-21.943,3.801-41.929,13.093-61.985,22.074-18.738,8.391-37.274,17.243-55.751,26.201-5.567,2.699-10.636,6.423-16.711,10.155h0Z"/>
  <path d="M1147.546,90.561c.608-8.527.629-17.149,1.986-25.555,1.449-8.971,3.534-17.955,6.508-26.528,2.672-7.705,8.336-8.416,14.478-2.886,6.046,5.443,7.358,12.254,5.933,20.09-4.919-1.897-9.739-3.501-14.327-5.613-3.408-1.568-4.85-.528-5.273,2.817-1.053,8.339-2.727,16.671-2.917,25.034-.252,11.075-1.592,21.702-4.561,32.492-6.629,24.098-24.216,37.672-44.257,49.373-2.637,1.54-5.312,3.016-7.97,4.521-.326-.39-.652-.781-.978-1.17,7.482-6.712,14.893-13.506,22.465-20.116,9.199-8.029,17.956-16.516,23.384-27.575,1.484-3.023,1.375-7.523.404-10.886-1.292-4.479-4.152-8.504-6.318-12.735-2.876-5.616-7.033-9.787-13.112-11.885-1.03-.356-1.921-1.099-2.938-1.515-14.688-6.021-16.329-17.84-7.076-30.524,17.183,9.604,24.447,27.148,34.567,42.659h.002v.002Z"/>
  <path d="M1304.161,289.695c-2.948-11.588-12.442-21.811-6.825-35.974,3.281,5.72,6.678,10.905,9.331,16.444,3.866,8.069,5.579,16.655,4.32,25.67-1.428,10.217-8.921,14.52-18.211,10.091-3.904-1.861-7.408-4.556-11.241-6.964-2.491,3.783-4.63,7.82-7.519,11.219-3.512,4.133-8.085,7.669-13.835,5.914-6.381-1.948-10.062-6.824-11.272-13.608-2.082-11.662.58-23.861-4.648-35.245-1.897-4.133-1.763-9.198-2.617-14.2,6.728,1.635,10.865,6.983,11.619,14.79.618,6.398.764,12.842,1.124,19.265.457,8.155,3.975,12.434,9.831,11.967,6.883-.549,11.975-6.408,11.283-13.658-.66-6.911-2.063-13.75-2.808-20.655-.33-3.056-.117-6.248.407-9.282.213-1.226,1.914-2.195,2.639-2.966,3.47,10.263,5.961,19.815,9.93,28.708,3.444,7.72,9.81,9.97,18.493,8.487h0v-.002h-.001Z"/>
  <path d="M1259.726,586.162c-10.777-6.395-21.434-12.677-32.045-19.036-3.987-2.389-4.732-5.818-2.743-9.927,4.059-8.38,8.15-16.746,12.169-25.146,1.501-3.135,3.554-3.091,6.271-1.595,10.431,5.744,20.965,11.303,31.299,17.215,1.161.664,2.144,3.389,1.754,4.736-3.422,11.796-8.751,22.704-16.703,33.752h-.002,0Z"/>
  <path d="M1320.861,573.85c-12.729-8.774-23.932-16.357-34.896-24.271-1.082-.78-1.499-3.945-.86-5.41,4.729-10.847,9.804-21.543,15.151-33.113,2.892,2.145,5.267,3.997,7.733,5.72,7.655,5.351,15.291,10.729,23.038,15.944,4.038,2.718,5.859,6.004,3.722,10.713-4.493,9.906-9.033,19.79-13.888,30.416h0Z"/>
  <path d="M1515.783,463.519c-.018,10.71-2.216,13.893-10.505,17.463-31.602,13.614-63.156,27.341-94.745,40.985-9.248,3.994-17.372,9.558-24.115,17.037-1.337,1.483-2.134,3.451-4.025,4.385,2.452-15.746,10.778-27.095,24.733-33.472,27.464-12.547,55.134-24.647,82.827-36.687,8.307-3.612,16.969-6.406,25.83-9.711h0Z"/>
  <path d="M1171.453,533.915c-.018,10.71-2.216,13.893-10.505,17.463-31.602,13.614-63.156,27.341-94.745,40.985-9.248,3.994-17.372,9.558-24.115,17.037-1.337,1.483-2.134,3.451-4.025,4.385,2.452-15.746,10.778-27.095,24.733-33.472,27.464-12.547,55.134-24.647,82.827-36.687,8.307-3.612,16.969-6.406,25.83-9.711h0Z"/>
  <path d="M1175.968,245.324c.218-7.557,2.946-13.224,9.108-17.441,18.552-12.699,38.671-22.387,59.252-31.183,18.695-7.991,37.487-15.755,56.238-23.611,1.014-.425,2.036-1.039,3.09-1.12,3.489-.271,6.995-.339,10.495-.485-.3,4.013-.41,8.056-1.039,12.017-.149.938-2.049,2.302-3.125,2.284-12.96-.21-24.321,5.338-35.633,10.344-32.635,14.443-65.94,27.631-95.588,48.046-.717.494-1.642.685-2.797,1.148h0Z"/>
  <path d="M1454.699,125.521c20.686,6.712,28.166,25.412,39.99,42.4,0-3.264.034-4.916-.005-6.566-.326-13.983-.742-28.035,3.947-41.453,1.211-3.469,4.075-8.13,6.942-8.755,2.896-.631,7.187,2.538,10.06,4.988,4.475,3.82,5.917,9.098,4.331,15.541-3.755-1.276-7.507-2.164-10.899-3.798-4.394-2.116-6.791-.018-8.235,3.516-1.009,2.471-1.415,5.337-1.444,8.034-.128,11.792.071,23.586-.055,35.377-.035,3.273-.646,6.564-1.272,9.792-.213,1.099-1.338,2.901-1.942,2.859-1.226-.084-2.827-.921-3.485-1.951-2.66-4.168-5.242-8.419-7.444-12.842-3.786-7.61-9.463-12.904-17.418-15.96-3.054-1.173-5.897-2.932-8.763-4.552-7.748-4.384-7.773-11.274-5.99-18.74.584-2.446,1.053-4.919,1.683-7.891h-.003.002Z"/>
  <path d="M1213.437,87.325c20.686,6.712,28.166,25.412,39.99,42.4,0-3.264.034-4.916-.005-6.566-.326-13.983-.742-28.035,3.947-41.453,1.211-3.469,4.075-8.13,6.942-8.755,2.896-.631,7.187,2.538,10.06,4.988,4.475,3.82,5.917,9.098,4.331,15.541-3.755-1.276-7.507-2.164-10.899-3.798-4.394-2.116-6.791-.018-8.235,3.516-1.009,2.471-1.415,5.337-1.444,8.034-.128,11.792.071,23.586-.055,35.377-.035,3.273-.646,6.564-1.272,9.792-.213,1.099-1.338,2.901-1.942,2.859-1.226-.084-2.827-.921-3.485-1.951-2.66-4.168-5.242-8.419-7.444-12.842-3.786-7.61-9.463-12.904-17.418-15.96-3.054-1.173-5.897-2.932-8.763-4.552-7.748-4.384-7.773-11.274-5.99-18.74.584-2.446,1.053-4.919,1.683-7.891h-.003.002Z"/>
</svg>