<?xml version="1.0" encoding="UTF-8"?>
<svg id="Layer_1" data-name="Layer 1" xmlns="http://www.w3.org/2000/svg" viewBox="0 0 1099.236 383.568">
  <path d="M215.768,132.813c-3.5-3.266-5.938-5.99-8.807-8.125-7.073-5.25-14.661-6.333-22.521-1.667-16.901,10.036-31.526,22.646-43.13,38.604-1.797,2.474-3.682,4.932-5.089,7.63-4.51,8.677-2.813,14.984,4.714,21.245,8.214,6.833,17.969,9.359,28.109,10.974,6.708,1.068,13.49,1.698,20.198,2.76,13.323,2.099,16.38,7.578,17.438,20.286.896,10.828-2.542,20.38-9.167,29.115-6.38,8.406-10.51,18-11.427,28.688-.823,9.646,4.734,15.901,14.323,15.443,4.625-.224,9.531-1.172,13.708-3.089,35.479-16.276,69.646-34.917,101.594-57.458,6.401-4.516,6.667-6.26,1.234-11.865-6.208-6.406-14.224-10.005-22.203-13.583-10.844-4.865-21.823-9.438-32.516-14.604-14.979-7.24-26.964-18.328-37.88-30.682-2.099-2.38-4.771-4.302-6.609-6.849-1.365-1.891-2.406-4.411-2.552-6.719-.354-5.667-.115-11.375-.115-18.172,6.901,4.406,13.281,8.359,19.49,12.563,1.078.729,1.818,2.448,2.073,3.828,1.031,5.635,4.917,8.859,9.167,12.089,9.505,7.24,20.349,11.781,31.198,16.458,11.714,5.052,23.667,9.802,34.719,16.089,11.927,6.781,16.734,18.286,16.354,31.969-.214,7.771-.318,15.677-5.26,22.125-3.13,4.078-6.833,8.005-11.026,10.938-26.427,18.479-53.922,35.198-82.792,49.615-6.995,3.49-13.833,7.307-20.875,10.698-4.99,2.411-10.276,3.302-15.88,2.068-7.146-1.578-12.406-6.995-13.396-14.375-1.5-11.182-.484-22.188,2.438-33.052.849-3.135,1.615-6.297,2.688-10.526-4.771,2.818-8.755,5.031-12.604,7.458-21.469,13.563-44.307,24.068-68.828,30.792-16.057,4.401-32.318,6.031-48.849,3.172-10.172-1.76-19.182-6.182-27.115-12.635-12.328-10.031-20.828-22.766-24.276-38.307-2.693-12.135-2.891-24.505-1.24-36.932,2.188-16.505,5.839-32.677,13.292-47.526,9.578-19.104,16.88-39.083,24.849-58.823,2.016-4.984,5.115-9.536,7.766-14.255.297-.526.911-.875,1.375-1.302.297.135.594.276.885.411-1.422,4.427-2.641,8.932-4.302,13.271-3.688,9.625-7.797,19.089-11.339,28.76-2.99,8.161-2.443,16.073,3.536,22.969,1.031,1.182,2.219,2.307,3.531,3.151,3.406,2.203,5.573,1.677,7.438-1.932,2.005-3.875,3.745-7.885,6.219-11.74,0,2.745.792,5.802-.146,8.172-3.318,8.396-7.156,16.594-10.984,24.776-.688,1.464-2.182,2.625-3.479,3.708-2.734,2.292-6.672,2.141-9.542-.807-3.219-3.302-6.01-7.031-9.505-11.193-2.469,6.203-4.901,12.115-7.182,18.089-3.234,8.484-2.719,17.411-3.073,26.26-.464,11.568,2.016,22.406,8,32.177,9.62,15.703,23.464,25.698,41.896,28.474,7.229,1.083,14.589,1.323,22.375,1.984-.24-7.333-2.37-13.214-4.651-19.078-2.458-6.313-5.016-12.604-7.068-19.052-1.849-5.823.141-11.354,3.453-16.031,3.38-4.766,6.542-9.495,8.052-15.188.115-.432.307-.849.5-1.255,1.13-2.401,3.651-5.146,3.151-7.13-1.313-5.224-3.62-10.323-8.104-13.885-1.599-1.271-3.224-2.552-4.984-3.563-4.427-2.547-6.453-6.135-5.661-11.307.271-1.771.042-3.615.042-5.625,4.104.052,7.172,1.609,9.266,4.568,3.714,5.26,7.167,10.708,11.073,16.594.333-3.432.573-6.484.943-9.521.458-3.828.786-7.698,1.599-11.453,1.229-5.688,3.974-8.422,7.594-8.208,3.448.203,8.021,5.229,8.484,9.573.219,2.083.036,4.208.036,6.057-4.203-2.094-8.089-4.036-13.083-6.526-.781,5.177-1.656,9.109-1.906,13.089-.427,6.698-.536,13.417-.583,20.13-.005,1.135.688,2.573,1.531,3.354,2.411,2.219,5.01,4.25,7.646,6.208,2.625,1.958,2.776,4.563,2.104,7.333-.661,2.755-2.328,4.443-5.328,5-4.661.87-9.281,1.995-13.865,3.214-1.599.422-3.125,1.318-4.526,2.24-4.911,3.224-5.849,6.083-3.766,11.531,2.141,5.583,4.755,11.021,6.49,16.724,1.771,5.807,2.87,11.839,3.943,17.828.391,2.156.51,3.078,3.229,2.766,29.161-3.365,55.333-14.833,80.255-29.583,8.068-4.776,15.719-10.255,23.542-15.448.917-.609,1.693-1.438,3.479-2.984-4.203-1.651-7.552-3.568-11.141-4.266-9.776-1.891-19.724-2.911-29.464-4.938-12.036-2.5-21.682-8.901-28.391-19.448-3.766-5.922-4.557-12.281-2.995-18.953,3.401-14.5,7.349-28.87,16.26-41.125,12.573-17.302,26.88-32.906,45.484-44.01,4.865-2.901,9.734-5.885,15.776-5.453,5.953.422,11.063,2.693,14.698,7.448,1.365,1.781,2.651,4.328,2.521,6.438-.484,7.599-1.589,15.161-2.526,23.349h-.005ZM87.851,216.286c-2.161,1.693-3.807,2.979-5.458,4.271.141.292.276.578.417.87,1.667-.339,3.333-.672,5.036-1.016v-4.125h.005Z"/>
  <path d="M271.643,378.573c4.292-2.349,8.443-5.01,12.896-7.005,35.167-15.76,69.641-32.854,102.839-52.49,20.594-12.177,39.464-26.682,57.781-41.953,4.182-3.49,7.922-7.505,11.927-11.208,7.052-6.516,9.651-14.052,5.151-23.609-3.563.797-7.375,1.714-11.208,2.5-8.682,1.786-17.422,3.875-26.276,1.714-11.068-2.703-19.427-8.661-22.089-20.536-1.484-6.62.62-12.87,2.542-18.984,2.995-9.521,9.135-16.87,17.224-22.609,6.333-4.5,17.234-4.625,23.255.365,6.88,5.703,13.104,11.901,18.078,19.333,2.141,3.198,4.349,6.354,6.677,9.74,10.021-4.141,19.51-8.885,26.786-16.969,1.349-1.5,1.984-4.448,1.661-6.531-2.49-16.234-5.203-32.432-8.031-48.609-3.24-18.526-6.974-36.969-9.911-55.542-2.516-15.896-4.12-31.932-6.313-47.88-.568-4.13-2.13-8.12-2.682-12.25-.396-2.943-.479-6.203.38-8.984,1.714-5.557,4.172-10.885,6.323-16.307.339-.005.677-.016,1.01-.026,3.047,6.406,6.016,12.849,9.156,19.203,3.214,6.505,6.474,12.995,9.943,19.37,3.073,5.641,5.464,11.281,2.573,17.698-.453,1.01-1.536,2.589-2.141,2.505-1.156-.151-2.51-1.094-3.177-2.104-1.292-1.953-2.167-4.182-3.318-6.5-3.682,2.385-4.323,5.807-3.635,9.526,2.995,16.26,6.255,32.479,9.146,48.76,3.427,19.313,6.932,38.62,9.724,58.026,2.042,14.182-.417,28.151-5.547,41.427-3.49,9.036-10.24,16.099-18.333,21.021-6.427,3.911-8.313,8.911-9.552,15.833-3.521,19.635-10.448,38.016-25.792,51.714-8.958,7.995-18.849,14.943-28.271,22.427-18.182,14.432-37.714,26.714-58.391,37.26-10.057,5.13-21.01,6.766-31.807,9.224-18.828,4.286-37.578,8.938-56.359,13.427-.536.125-1.089.193-1.635.286-.203-.422-.406-.839-.604-1.26ZM447.851,219.531c-2.396-2.422-4.609-5.063-7.224-7.219-5.938-4.906-12.521-7.552-19.974-3.484-2.135,1.167-3.75,3.297-5.604,4.979,1.974,1.552,3.74,3.557,5.958,4.578,8.37,3.839,17.208,2.99,26.844,1.146Z"/>
  <path d="M722.466,255.714c-1.125,4.88-2.542,9.453-3.182,14.13-1.505,10.969,1.354,21.323,5.146,31.49,2.703,7.24,6.901,13.26,12.734,18.526,7.443,6.708,19.276,5.063,25.521-3.286,3.484-4.651,6.417-9.922,8.583-15.318,5.365-13.354,10.01-26.995,18.417-38.896,6.297-8.917,13.557-16.802,23.427-21.87,10.01-5.135,14.495-3.406,18.771,7.375,3.099,7.813,7.13,15.021,13.63,20.474,12.917,10.844,30.99,11.807,46.406,2.854,9.031-5.25,15.01-13.313,20.729-21.708,3.755-5.516,7.495-11.146,13.75-13.13,2.219,5.422,4.063,10.922,6.667,16.036,3.755,7.391,10.661,10.531,18.422,11.948,2.88.521,5.854.693,8.786.693,4.156,0,5.229-.927,5.76-5.063.771-6.078.698-12.328,2.068-18.25,3.234-13.927,7.474-27.526,16.375-39.161,5.063-6.615,11.922-5.984,16.219-1.135,6.354,7.172,10.099,15.656,10.745,24.885,1.25,17.901-3.828,34.026-17.536,46.302-4.646,4.161-10.339,7.375-15.99,10.115-5.172,2.516-7.469,5.948-7.333,11.542.068,2.719-.51,5.448-.797,8.177-.427,0-.859-.005-1.292-.005-.615-4.375-1.224-8.75-1.885-13.448-2.885,0-5.719-.281-8.474.047-20.193,2.406-29.448-7.286-35.88-21.516-.974-2.161-1.979-4.313-3.12-6.792-4.167,2.99-7.542,6.385-9.979,10.651-4.234,7.417-8.854,14.484-15.302,20.281-13.167,11.849-35.307,13.922-49.245,4.24-7.885-5.479-12.901-13.245-16.635-21.932-.536-1.245-.984-2.536-1.552-3.771-3.219-7.047-7.839-8.714-15.052-5.474-9.708,4.365-16.438,11.953-21.938,20.719-6.943,11.068-11.745,23.151-16.344,35.333-3.063,8.125-7.156,15.688-13.536,21.807-4.672,4.479-9.365,5.453-15.198,2.677-8.672-4.12-14.615-11.083-18.896-19.427-6.88-13.391-10.948-27.578-10.417-42.781.245-7.016.953-14.021,1.589-21.021.13-1.417.917-2.771,1.354-4.172.703-2.276,2.104-3.068,4.484-2.141v-.005ZM1002.466,244.245c-1.401-8.396-3.969-15.26-10.135-20.266-2.146-1.74-4.031-1.609-6.245.479-5.943,5.599-9.016,12.693-11.302,20.24-1.505,4.953-3.188,9.906-2.089,15.255.385,1.87,1.042,3.094,3.146,2.26,8.552-3.385,17.047-6.922,23.75-13.5,1.354-1.328,2.115-3.255,2.875-4.469Z"/>
  <path d="M719.038,180.453c4.698,5.526,7.104,11.677,7.536,18.245.74,11.115.328,22.135-3.453,32.922-3.62,10.344-10.859,16.099-20.969,18.953-1.63.458-3.313,1.219-4.938,1.141-4.542-.219-4.859,2.177-4.719,5.901.615,16.427-2.427,32.224-8.74,47.406-3.344,8.042-8.734,14.531-15.042,20.365-22.448,20.755-48.047,36.292-76.927,46.328-16.599,5.766-33.698,8.391-51.188,6.115-29.422-3.833-49.745-22.125-56.885-51.344-3.063-12.557-2.922-25.448-1.38-38.302,1.828-15.208,6.469-29.62,12.354-43.651,1.339-3.193,3.724-5.953,5.625-8.911.432.224.865.448,1.297.667-.891,2.99-1.563,6.068-2.703,8.958-6.536,16.552-8.901,33.734-7.859,51.411,1.385,23.505,12.453,40.891,33.615,51.365,7.865,3.896,16.516,5.391,25.313,5.901,18.036,1.057,35.047-3.286,51.823-9.333,22.635-8.151,43.182-19.922,61.641-35.26,5.833-4.844,11-10.51,16.307-15.964,4.604-4.729,4.969-10.76,4.365-16.88-1.542-15.589-8.474-29.271-15.828-42.656-3.37-6.135-4.589-11.786-2-18.365,1.104-2.802,1.266-5.964,2.016-8.922.214-.833,1.073-2.172,1.542-2.135,1.036.078,2.474.635,2.932,1.453,1.823,3.26,3.354,6.682,4.948,10.068,3.693,7.87,10.24,10.964,18.51,10.75,7.375-.188,14.276-2.349,20.51-6.318,4.104-2.615,4.484-3.672,2.521-8.052-2.271-5.042-5.49-9.76-4.068-15.729,1.276-5.375,2.563-10.75,3.844-16.125Z"/>
  <path d="M977.788,382.021c3.479-3.234,7.005-6.411,10.422-9.708,13.844-13.349,27.708-26.672,41.453-40.12,9.188-8.984,18.453-17.911,27.198-27.313,14.99-16.12,27.057-34.021,32.432-55.849,1.99-8.089.797-16.036.063-24.026-.865-9.375-1.984-18.724-3.156-28.068-1.667-13.276-3.453-26.536-5.24-39.797-1.865-13.818-3.792-27.635-5.688-41.453-1.755-12.807-3.578-25.604-5.208-38.427-.734-5.745-.964-11.557-1.599-17.313-.885-7.995-2.052-15.953-2.849-23.948-.234-2.38-.068-4.979.661-7.234,2.005-6.214,4.406-12.292,6.974-19.292,1.49,2.484,2.87,4.328,3.781,6.38,4.932,11.172,9.594,22.464,14.667,33.568,3.177,6.958,3.531,13.911,1.266,22.281-2.401-3.141-4.432-5.802-6.609-8.656-3.771,3.974-4.776,7.448-4.188,11.495,2.677,18.5,5.469,36.984,7.932,55.516,2.302,17.302,4.12,34.667,6.37,51.979,1.906,14.682,3.391,29.422,2.5,44.193-1.51,24.995-5.453,49.667-17.073,72.167-10.406,20.146-25.167,36.948-43.964,49.849-12.974,8.906-26.094,17.63-39.474,25.906-6.141,3.797-13.063,6.318-19.635,9.417-.344-.516-.693-1.031-1.036-1.547Z"/>
  <path d="M175.69,371.969c2.729-1.635,5.328-3.563,8.208-4.87,48.88-22.208,96.109-47.406,140.172-78.198,14.406-10.068,28.964-20.057,41.51-32.536,2.734-2.724,5.286-5.635,7.865-8.51,2.333-2.599,3.198-5.75,1.594-8.844-4.042-7.813-7.833-15.854-12.766-23.089-7.719-11.313-13.698-23.427-19.37-35.807-3.109-6.797-1.964-13.229-.484-19.901.708-3.198,1.385-6.401,2.229-10.292,4.958,6.745,12.031,11.698,11.844,21.089-.135,6.755,4.401,11.479,7.745,16.682,4.286,6.672,8.797,13.214,12.911,19.99,6.411,10.557,7.224,22.266,6.443,34.224-.693,10.62-3.432,20.542-10.198,29.021-6.995,8.755-14.911,16.604-23.984,23.156-15.443,11.156-30.854,22.375-46.646,33.016-10.896,7.339-22.375,13.823-33.672,20.552-11.281,6.719-24.057,9.161-36.552,12.25-16.922,4.172-33.922,8.01-50.891,11.974-1.813.422-3.656.724-5.479,1.083-.161-.328-.318-.656-.479-.99Z"/>
  <path d="M1072.919,275.896c-2.328-.677-4.146-1.339-3.792-4.323,2.443-20.427-6.13-37.479-18.073-52.656-12.474-15.854-26.286-30.698-39.911-45.62-18.563-20.328-37.526-40.292-56.276-60.448-14.505-15.589-27.734-32.104-37.427-51.234-1.568-3.099-3.776-5.943-6.042-8.609-2.781-3.281-4.609-6.563-3.589-11.12,1.276-5.698,2.151-11.479,3.333-17.984,2.38,2.016,4.302,3.521,6.078,5.182,9.948,9.318,19.859,18.677,29.776,28.031.745.703,1.417,1.484,2.172,2.172,3.021,2.75,4.255,5.859,1.766,9.875-2.396-.984-4.974-2.042-7.714-3.172-.75,1.01-1.474,1.979-2.536,3.406,5.042,5.87,9.948,11.927,15.219,17.646,9.177,9.953,18.583,19.693,27.885,29.531,19.854,20.995,39.927,41.781,59.453,63.073,10.349,11.281,20.026,23.234,26.526,37.354,6.042,13.125,9.021,26.823,8.151,41.313-.443,7.344-2.167,13.797-5.005,17.583h.005Z"/>
  <path d="M557.575,2.365c1.49,2.13,2.854,3.526,3.563,5.198,6.224,14.667,12.547,29.302,18.349,44.141,1.99,5.083,2.839,10.708.297,16.76-3.849-3.484-5.797-8.646-12.047-10.198.505,6.156.635,11.88,1.5,17.49,2.458,16.01,5.229,31.969,7.859,47.948,1.911,11.63,3.906,23.255,5.677,34.906,2.073,13.677,3.818,27.406,5.943,41.078,2.734,17.536,3.865,35.188,4.651,52.896.724,16.281-1.484,31.901-9.109,46.495-.484.927-1.354,1.656-2.047,2.474-.307-.151-.615-.297-.922-.443.302-4.365.797-8.729.87-13.099.13-7.823.193-15.656-.073-23.479-.219-6.458-.766-12.927-1.495-19.354-1.365-12.047-2.797-24.089-4.51-36.094-2.214-15.469-4.693-30.906-7.115-46.344-2.526-16.115-5.161-32.208-7.682-48.323-2.505-16.005-5.146-31.995-7.292-48.052-1.339-9.995-1.849-20.104-2.781-30.156-.156-1.688-.484-3.365-.859-5.021-.865-3.849-.729-7.531.786-11.281,2.234-5.51,4.12-11.161,6.443-17.542h-.005Z"/>
  <path d="M745.184,0c2.896,6.453,5.625,12.26,8.125,18.161,4.417,10.411,8.938,20.792,12.901,31.38,1.469,3.917,1.552,8.365,2.104,12.594.104.76-.422,2.177-.927,2.313-.813.224-2.083-.094-2.74-.667-1.266-1.099-2.125-2.656-3.365-3.792-.677-.625-2.255-1.365-2.62-1.063-2.234,1.818-5.047,3.458-4.609,7.01.672,5.5,1.427,10.995,2.214,16.484,1.755,12.229,3.469,24.474,5.349,36.688,2.359,15.354,5.031,30.661,7.24,46.036,1.24,8.646,2.026,17.375,2.635,26.099.958,13.594,1.854,27.208,2.297,40.828.427,13.161-1.531,26.047-6.786,38.234-1.495,3.458-3.547,6.667-5.344,9.995l-1.365-.464c.469-3.214,1.104-6.411,1.375-9.641.693-8.245,1.906-16.516,1.661-24.74-.385-12.703-1.406-25.422-2.901-38.047-2.474-20.833-5.458-41.609-8.391-62.391-2.563-18.188-5.615-36.313-7.948-54.531-1.453-11.37-1.771-22.885-2.984-34.297-1.063-10.016-2.781-19.958-3.948-29.969-.302-2.568-.125-5.427.714-7.849,2.052-5.948,4.625-11.719,7.313-18.375Z"/>
  <path d="M314.497,82.568c16.146-10.5,32.292-21.005,48.438-31.505-.146-.411-.286-.823-.432-1.24-1.125-.156-2.26-.479-3.38-.448-8.151.245-16.307.453-24.448.891-5.521.302-9.786,3.354-13.531,7.146-1.25,1.266-2.203,2.828-3.292,4.255-.391-.307-.786-.609-1.177-.917.531-2.161.807-4.427,1.646-6.464,2.198-5.339,4.698-10.552,6.969-15.859,2.995-6.99,8.589-10.714,15.807-11.057,10.516-.505,21.078-.328,31.609-.021,2.667.078,5.438,1.474,7.896,2.76,2.969,1.557,3.844,4.313,2.87,7.578-4.396,14.781-13.589,25.953-26.141,34.536-5.318,3.63-11.193,5.547-17.677,6.448-8.24,1.146-16.328,3.37-24.484,5.13l-.672-1.234Z"/>
  <path d="M822.872,168.391c4.979,3.5,10.089,7.177,15.286,10.724,4.906,3.354,5.568,4.385,3.281,9.74-2.25,5.271-5.156,10.26-8.245,16.276-7.135-5.021-13.646-9.589-20.141-14.182-1.771-1.25-1.932-2.927-1.089-4.807,2.964-6.589,5.786-13.25,8.953-19.74,1.411-2.885.651-4.49-1.76-6.156-4-2.76-7.88-5.714-11.76-8.651-3.724-2.813-4.51-5.146-2.651-9.458,2.401-5.573,5.125-11.005,7.896-16.901,5.828,4.125,11.307,7.891,16.667,11.828,4.875,3.583,3.771,8.51,2.036,12.984-2.286,5.875-5.26,11.479-8.474,18.344Z"/>
  <path d="M355.856,135.219c-.234-9.484,3.417-17.297,11.615-22.182,19.245-11.469,38.609-22.755,58.203-33.615,12.844-7.115,26.177-13.344,39.26-19.958,3.005,5.38,1.813,9.422-2.813,11.526-32.448,14.776-63.484,32.12-93.229,51.755-3.865,2.552-6.755,6.594-10.042,10-.839.87-1.448,1.953-2.161,2.943-.276-.156-.557-.313-.833-.469Z"/>
  <path d="M267.528,171.068c.62-.927,1.115-1.969,1.875-2.755,4.974-5.156,10-10.255,15.01-15.375.161-.161.323-.323.469-.495,6.047-7.188,6.286-9.651,1.682-17.714-1.182-2.063-2.516-4.047-3.599-6.161-2.021-3.938-5.109-6.573-9.234-8.078-.849-.307-1.661-.719-2.495-1.078-5.714-2.438-7.859-9.286-4.219-14.318.583-.807,3.146-1.24,3.932-.661,3.25,2.37,6.578,4.859,9.099,7.943,3.073,3.745,5.354,8.13,7.99,12.229.635.984,1.344,1.927,2.536,3.635.365-6.156.432-11.354,1.052-16.479.589-4.813,1.245-9.729,2.797-14.281,2.208-6.495,6.036-7.682,11.484-2.854,4.781,4.234,5.25,7.026,2.474,12.167-2.484-1.286-4.995-2.521-7.443-3.875-2.172-1.198-3.604-.339-4.234,1.693-.792,2.563-1.734,5.24-1.719,7.865.063,10.375-.677,20.625-2.651,30.844-1.844,9.557-6.708,16.979-14.448,22.599-3,2.177-6.26,3.995-9.401,5.974-.318-.276-.641-.552-.958-.828v.005Z"/>
  <path d="M108.429,38.073c.891,4.479,2,8.927,2.599,13.443.531,3.984,1.38,7.526,5.078,9.839,2.427,1.521,4.578,1.411,6.927-.12,2.307-1.5,3.161-3.458,2.552-6.104-.302-1.323-.469-2.688-.911-3.958-1.995-5.729-2.292-11.714-.88-17.953.755,1.427,1.677,2.786,2.234,4.286,1.578,4.224,3.068,8.49,4.474,12.776,1.875,5.703,9.245,7.854,14.625,6.417-1.969-3.292-3.646-6.589-5.792-9.552-3.292-4.563-2.849-9.25-1.094-14.995,5.224,8.766,12.865,15.604,11.318,26.62-.995,7.094-6.458,10.964-13.151,8.188-4.891-2.031-8.411-2.938-11.646,2.531-1.656,2.797-5.104,3.708-8.536,2.568-4.292-1.427-6.724-4.651-7.651-8.854-1.125-5.089-2.12-10.24-2.63-15.422-.313-3.167.396-6.438.646-9.656.615-.016,1.224-.036,1.839-.052Z"/>
  <path d="M967.929,66.729c.047-6.875,2.995-11.943,8.807-14.516,22.672-10.026,45.484-19.734,68.271-29.5,1.844-.792,3.88-1.219,5.875-1.563.885-.156,2.172.01,2.776.568,2.177,2.036.292,8.38-2.682,8.896-13.557,2.349-25.901,8.094-38.286,13.646-11.578,5.182-23.026,10.656-34.438,16.193-3.438,1.667-6.573,3.969-10.323,6.276Z"/>
  <path d="M839.127,51.302c.375-5.271.391-10.599,1.229-15.797.896-5.542,2.182-11.099,4.021-16.396,1.646-4.76,5.146-5.203,8.943-1.786,3.734,3.365,4.542,7.578,3.661,12.422-3.036-1.177-6.016-2.167-8.849-3.469-2.104-.974-2.995-.328-3.255,1.74-.651,5.151-1.688,10.302-1.802,15.474-.156,6.844-.984,13.411-2.818,20.083-4.094,14.891-14.958,23.281-27.339,30.516-1.625.953-3.281,1.865-4.922,2.792-.203-.24-.401-.479-.604-.724,4.62-4.146,9.198-8.344,13.875-12.432,5.682-4.964,11.094-10.208,14.448-17.042.917-1.87.849-4.651.25-6.729-.802-2.771-2.568-5.255-3.906-7.87-1.776-3.474-4.344-6.052-8.099-7.349-.635-.219-1.188-.677-1.813-.938-9.073-3.719-10.089-11.026-4.37-18.865,10.609,5.938,15.099,16.781,21.349,26.37Z"/>
  <path d="M933.757,167.641c-1.818-7.161-7.682-13.479-4.214-22.234,2.026,3.536,4.125,6.74,5.76,10.167,2.391,4.984,3.448,10.292,2.672,15.865-.885,6.313-5.51,8.974-11.25,6.234-2.411-1.146-4.578-2.813-6.943-4.302-1.542,2.339-2.859,4.833-4.646,6.932-2.167,2.557-4.995,4.745-8.547,3.656-3.943-1.203-6.214-4.219-6.964-8.411-1.281-7.208.359-14.745-2.87-21.781-1.172-2.557-1.089-5.688-1.615-8.781,4.156,1.01,6.708,4.318,7.177,9.146.38,3.953.469,7.938.693,11.906.281,5.042,2.453,7.682,6.073,7.396,4.25-.339,7.396-3.958,6.969-8.443-.406-4.271-1.276-8.5-1.734-12.766-.203-1.891-.073-3.859.25-5.734.135-.76,1.182-1.359,1.63-1.833,2.146,6.344,3.682,12.245,6.135,17.74,2.125,4.771,6.063,6.167,11.422,5.25v-.005Z"/>
  <path d="M883.466,367.719c-6.661-3.953-13.24-7.839-19.797-11.766-2.464-1.479-2.922-3.599-1.693-6.141,2.505-5.177,5.031-10.349,7.516-15.542.927-1.938,2.198-1.906,3.875-.984,6.443,3.552,12.948,6.984,19.333,10.641.714.411,1.323,2.094,1.083,2.927-2.115,7.292-5.406,14.031-10.318,20.865Z"/>
  <path d="M118.038,319.578c7.557,5.578,14.365,10.609,21.188,15.62,2.177,1.594,2.573,3.625,1.474,5.958-2.63,5.589-5.313,11.151-8.229,17.25-7.417-4.969-14.24-9.51-21.026-14.104-1.911-1.297-1.964-3.156-1.177-5.135,2.448-6.182,4.901-12.359,7.771-19.589Z"/>
  <path d="M921.226,360.104c-7.865-5.422-14.781-10.109-21.557-15-.667-.484-.922-2.438-.531-3.344,2.922-6.703,6.057-13.318,9.359-20.469,1.786,1.328,3.255,2.474,4.776,3.536,4.729,3.307,9.448,6.635,14.234,9.854,2.495,1.682,3.615,3.714,2.297,6.625-2.776,6.12-5.578,12.229-8.578,18.797Z"/>
  <path d="M1041.627,291.911c-.01,6.62-1.37,8.589-6.49,10.797-19.521,8.411-39.01,16.896-58.521,25.328-5.714,2.469-10.734,5.911-14.896,10.531-.828.917-1.318,2.135-2.49,2.714,1.516-9.734,6.661-16.75,15.281-20.693,16.964-7.755,34.052-15.234,51.161-22.672,5.13-2.234,10.479-3.964,15.953-6.005Z"/>
  <path d="M834.762,122.594c.135-4.672,1.823-8.177,5.63-10.781,11.458-7.849,23.885-13.839,36.599-19.276,11.547-4.938,23.151-9.734,34.734-14.594.625-.26,1.26-.641,1.911-.693,2.156-.167,4.318-.208,6.479-.297-.182,2.479-.25,4.979-.641,7.427-.094.578-1.266,1.422-1.927,1.411-8.01-.13-15.026,3.302-22.01,6.396-20.161,8.927-40.734,17.078-59.047,29.693-.443.307-1.016.427-1.729.714Z"/>
  <path d="M72.591,145.432c1.682-12.047,7.266-21.547,17.958-27.635,19.276-10.979,38.516-22.026,57.776-33.036.573-.328,1.214-.552,1.75-.792,2.313,1.849,2.016,3.531.641,5.865-3.214,5.464-9.052,6.932-13.948,9.807-17.068,10.042-34.365,19.719-51.198,30.146-4.109,2.547-6.828,7.37-10.083,11.24-1.125,1.333-1.943,2.927-2.896,4.406Z"/>
  <path d="M689.294,345.109c7.281,3.438,13.797,6.526,20.328,9.578,3.573,1.667,3.318,4.771,2.349,7.547-1.953,5.589-4.38,11.016-6.813,17.01-6.323-2.854-11.948-5.344-17.526-7.943-1.615-.75-3.229-1.646-4.568-2.802-.635-.547-1.078-2.005-.823-2.797,2.193-6.734,4.563-13.406,7.052-20.594Z"/>
  <path d="M706.257,24.292c-4.677-1.104-8.87-2.094-13.333-3.141,0,8.49-.292,16.177.089,23.828.307,6.193.802,12.224-3.76,17.995-1.875-3.323-3.891-6.281-5.292-9.505-2.271-5.229-5.901-9.057-10.75-11.865-.099-.052-.198-.115-.292-.172-8.375-5.375-9.563-9.036-6.016-18.854,5.328,1.922,9.078,5.734,12.13,10.255,2.995,4.443,5.745,9.047,8.604,13.583.307-.068.615-.135.927-.203,0-1.276-.063-2.563.01-3.833.432-7.911.885-15.818,1.349-23.719.026-.443.104-.938.328-1.307,1.37-2.271.938-6.271,4.531-6.406,4.49-.172,9.177.922,11.292,5.359,1.047,2.198.182,5.313.182,7.984Z"/>
  <path d="M81.367,331.995c7.62,4.474,14.49,8.427,21.229,12.583.818.505,1.609,2.458,1.266,3.208-2.99,6.432-6.24,12.745-9.745,19.75-6.547-3.953-12.432-7.469-18.276-11.057-1.974-1.214-2.578-2.802-1.635-5.193,2.474-6.255,4.703-12.609,7.161-19.292Z"/>
  <path d="M272.486,42.875c0-3.948-.188-7.906.052-11.839.266-4.401.688-8.823,1.474-13.156.958-5.286,4.589-8.453,8.51-7.995,4.875.568,7.891,4.547,7.75,10.229-.016.563-.068,1.125-.12,1.979-2.156-.479-4.182-.917-6.203-1.385-4.646-1.083-7.234.661-7.464,5.542-.255,5.438-.234,10.896-.089,16.339.146,5.464.125,10.844-2.854,16.688-1.953-3.099-3.859-5.667-5.281-8.484-3.177-6.313-7.745-10.839-14.266-13.885-7.583-3.547-8.828-7.656-6.557-17.266,7.667.583,11.885,5.943,15.844,11.568,2.776,3.943,5.37,8.016,8.042,12.036.385-.125.776-.245,1.161-.37Z"/>
  <path d="M638.08,135.036c6.641,3.698,13.208,7.156,19.51,11.047,1.052.646,1.703,3.411,1.255,4.776-1.901,5.781-4.224,11.427-6.594,17.036-.255.604-2.125,1.188-2.786.859-5.672-2.813-11.255-5.813-16.828-8.818-1.927-1.036-2.594-2.396-1.682-4.766,2.464-6.406,4.599-12.932,7.12-20.135h.005Z"/>
  <path d="M1003.898,83c12.776,4.146,17.396,15.708,24.698,26.208,0-2.021.021-3.042,0-4.063-.203-8.641-.458-17.328,2.438-25.62.745-2.141,2.516-5.026,4.286-5.411,1.792-.391,4.438,1.568,6.214,3.083,2.766,2.359,3.656,5.625,2.677,9.604-2.323-.786-4.641-1.333-6.734-2.344-2.714-1.307-4.193-.01-5.083,2.172-.625,1.526-.875,3.297-.896,4.964-.078,7.292.047,14.578-.031,21.87-.021,2.021-.401,4.057-.786,6.052-.13.677-.828,1.792-1.198,1.766-.76-.052-1.75-.568-2.156-1.203-1.641-2.578-3.234-5.203-4.594-7.938-2.339-4.708-5.849-7.979-10.76-9.865-1.885-.729-3.646-1.813-5.411-2.818-4.786-2.708-4.802-6.964-3.703-11.578.359-1.516.651-3.042,1.042-4.88Z"/>
  <path d="M412.091,121.344c6.156-.219,10.089,3.182,13.141,7.573,3.219,4.641,5.948,9.63,8.901,14.458.276.458.635.865,1.557,2.089.318-1.974.63-3.167.682-4.37.276-6.573.458-13.146.74-19.714.036-.885.401-1.76.651-2.63,1.313-4.526,3.203-6.391,6.125-6.047,4.615.536,7.193,3.167,7.521,7.714.063.88.005,1.776.005,3-2.094,0-3.995.031-5.891-.005-5.49-.109-5.531-.12-5.599,5.26-.089,6.589-.036,13.188-.182,19.781-.047,2.245-.318,4.531-.88,6.698-.25.964-1.359,2.01-2.318,2.349-.479.167-1.74-1.026-2.214-1.849-1.693-2.948-3.245-5.974-4.776-9.01-1.818-3.594-4.474-6.151-8.411-7.318-9.38-2.786-11.109-5.068-9.365-16.849.052-.328.177-.641.313-1.135v.005Z"/>
  <path d="M698.736,109.583c3.49,1.484,6.88,2.974,10.313,4.38,7.276,2.974,7.76,13.38,4.745,19.641-3.047,6.328-12.036,9.807-17.943,6.703-1.672-.885-3.266-3.083-3.703-4.953-2.073-8.807,2.641-27.76,8.87-35.656-.865,3.755-1.552,6.729-2.281,9.885ZM695.591,119.135c-.104,2.026-.286,3.245-.214,4.453.516,8.26.161,7.042,7.943,6.672,2.807-.135,5.896-1.161,8.042-4.484-5.224-2.203-10.141-4.271-15.771-6.641Z"/>
  <path d="M554.351,271.703c-1.63,4.219-2.88,8.641-4.99,12.604-2.063,3.875-5.813,4-8.417.505-1.51-2.026-2.974-4.547-3.234-6.974-1.224-11.641,2.151-22.328,7.635-32.453.193-.354.641-.568,1.87-.646-.432,2.755-.693,5.552-1.339,8.26-.969,4.057-2.339,8.021-3.286,12.083-.807,3.49.026,6.729,2.38,9.526,1.443,1.708,2.865,2.172,4.411.156,1.078-1.417,2.167-2.828,3.245-4.24.578.391,1.151.781,1.724,1.177Z"/>
  <path d="M217.585,44.906c.578,5.786-.661,10.276-4.484,13.979-1.974,1.917-3.703,1.745-5.635.073-3.396-2.927-4.885-6.885-5.276-11.089-.938-10.016,1.839-19.297,6.344-28.135.135-.266.526-.396,1.859-1.339-.464,3.74-.724,6.625-1.188,9.484-.745,4.573-1.698,9.115-2.391,13.698-.161,1.031.188,2.255.63,3.245,2.464,5.495,4.302,5.802,8.568,1.563.375-.38.776-.734,1.573-1.479Z"/>
  <path d="M626.21,20.401c-.693,5.495-1.427,10.984-2.052,16.484-.156,1.333-.099,2.724.083,4.063.818,5.927,2.995,7.115,8.401,4.677.49-.224.995-.411,2.266-.938-.906,3.516-1.214,6.635-2.505,9.276-2.177,4.438-7.401,4.406-10.026.198-2.422-3.87-3.703-8.208-3.047-12.661.849-5.792,2.318-11.51,3.729-17.203.38-1.526,1.516-2.865,2.302-4.286.286.13.568.26.849.391Z"/>
  <path d="M80.335,70.708c-1.021,5.448-1.583,10.417-6.635,13.51-2.198,1.344-3.172.818-4.359-.938-2.667-3.922-3.74-7.979-2.807-12.859,1.396-7.328,4.198-13.995,7.557-20.505h1.193c.099,1.115.552,2.339.24,3.323-1.479,4.62-3.156,9.182-4.781,13.755-.906,2.552-.396,5.156,1.823,6.229,1.333.646,3.62-.589,5.443-1.109.698-.203,1.292-.766,2.328-1.406Z"/>
  <path d="M630.981,80.813c-.536,3.62-1.094,7.24-1.604,10.859-.635,4.49-.38,8.786,2.38,12.677,2.474,3.479,2.87,3.609,6.307.979.516-.396,1-.844,1.495-1.271.333.146.667.286,1,.427-1.104,3.286-1.844,6.766-3.417,9.813-2.026,3.927-5.885,4-8.156.177-1.521-2.552-2.76-5.542-3.12-8.453-1.078-8.813.75-17.25,4.26-25.328.281.042.568.083.854.125v-.005Z"/>
  <path d="M442.299,370.281c1.479-3.495,2.693-7.13,4.49-10.458,3.391-6.292,4.151-12.406-.276-18.464-3.094-4.234-2.573-8.583-.771-13.068,10.599,8.365,10.641,27.51-3.443,41.99Z"/>
</svg>