<?xml version="1.0" encoding="UTF-8"?>
<svg id="Layer_1" data-name="Layer 1" xmlns="http://www.w3.org/2000/svg" viewBox="0 0 887.283 231.474">
  <path d="M486.554,55.735c1.703-5.099.359-15.854-4.276-18.958-6.833-4.568-11.865,10.76-14.469,15-7.62,12.359-16.208,18.276-28.531,25.5.802,1.229,1.62,1.177,2.896,1.313,5.422.599,12.151-.271,17.813-.068,14.297.51,28.646,1.281,43.063.922,5.219-.135,11.729-2.333,16.927-.083,1.719,2.401-4.141,10.927-5.266,13.635-6.052,1.719-23.776,4.177-27.047,9.068-1.417,2.115-3.531,7.724-4.109,10.245-2.896,12.406-.24,21.339,12.068,26.01,9.917,3.766,25.714-1.26,33.557-8.266,2.948-2.641,11.979-15.292,15.271-15.156,1.036.036,1.516.443,1.99,1.313-.422,4.823-4.703,7.995-1.615,12.599,5.552,8.302,18.453,6.75,24.828.323,1.651-1.672,5.026-6.802,6.24-8.964,1.568-2.813.885-7.484,5.672-8.698,2.901-.526.276,6.24.443,7.964.531,5.776,12.391,11.521,16.958,6.75-4.005-7.552-1.432-11.708,1.245-18.906.323-.849.172-2.297,1.635-1.688,3.188,1.333,7.245,11.422,7.26,14.766.016,3.339-4.786,14.813-6.661,17.911-5.37,8.88-15.255,5.526-22.359.885-1.943-1.276-2.661-4.26-5.677-4.021-4.073,14.948-23.979,20.76-34.646,8.88-1.568-1.74-2.167-6.083-5.406-5.557-.51.089-4.547,6.443-6.391,8.099-13.719,12.286-37.422,12.781-48.516-3.016-8.745-12.479-1.333-28.5,2.896-41.302-2.542-.818-4.943,0-7.464.563-34.854,7.599-76.797,52.875-50.313,88.005,26.724,35.469,101.708,23.115,140.109,20.333,3.865.359,3.458,5.76.729,6.615-1.755.563-4.688.031-7.089.51-13.156,2.641-26.245,9.427-39.318,11.333-41.24,6.036-109.021-.609-109.635-55.208-.219-19.141,9.307-47.385,22.328-61.635,6.068-6.63,15.031-10.057,21.115-16.448l-43.714-3.104c-3.734-4.328-1.26-13.156,3.24-16.688,17.078-13.396,39.026-16.599,52.151-33.99,4.328-5.745,7.599-12.938,11.995-18.391.953-1.177,7.38-7.724,8.167-7.943,2.365-.646,5.177,5.625,6.323,7.771,1.755,3.307,4.052,7.333,4.141,11.115.068,2.661-3.99,18.359-5.573,19.823-1.057.974-1.5,1.042-2.932.854l-.052-.016Z"/>
  <path d="M241.315,152.516c2.297-2.896,8.385-12.286,7.99-1.771-.188,4.927-4.276,7.906.068,13.365,5.76,7.224,17.01,6.833,23.724,1.411,8.438-6.802,7.792-13.62,12.286-21.714.547-.99,1.776-3.068,3.12-2.781,3.51,3.839-1.464,9.344,1.229,13.776.151.255,4.224,4.073,4.5,4.224,2.214,1.245,11.74,3.599,12.354.052-4.906-6.99-2.453-15.87,2.198-22.245,11.234,7.401,7.089,27.224.292,36.583-6.802,9.354-22.005,2.094-27.318-5.339-6.427,12-13.193,19.38-27.865,17.714-5.646-.651-12.271-7.385-13.125-12.938.151-.99-1.448-.703-1.995-.479-1.823.714-7.771,10.057-11.214,12.427-16.599,11.422-30.542,2.88-40.135-11.932l-5.318-10.703c-2.229,3.115-2.146,7.38-3.422,10.922-8.76,24.276-20.281,35.714-45.146,42.682-4.281,1.193-9.458,1.313-13.516,2.526-3.036.917-15.339,10.448-12.51,1.021,1.141-3.833,17.266-12.151,21.406-14.932,12.37-8.302,28.323-18.359,37.578-29.964,4.807-6.021,3.63-10.297.99-17.083-7.469-19.141-31.156-43.313-43.578-60.271-8.609-11.745-16.292-24.667-23.453-37.344-4.005-7.109-19.479-34.401-19.307-40.641.036-1.036,1.792-10.958,2.115-11.453.729-1.109,1.943-1.125,3-.427,9.766,11.083,21.354,21.156,27.844,34.589-2.13,4.38-8.318-3.172-9.271-2.063-.563,3.151,1.214,5.37,2.542,8.01,16.208,32.182,46.474,59.281,63.208,91.313l5.182,12.12-.802-71.37c.479-18.016-5.693-41.813-4.292-59.099.542-6.682,4.635-12.427,5.245-19.224l1.177-1.401c1.005-.24,1.792.089,2.542.734,2.948,2.557,7.464,39.901,7.943,46.089,2.536,32.917-.516,68.016,4.328,100.365,2.063,13.807,9.526,27.531,25.563,25.755,10.891-1.208,17.859-12.901,23.844-20.484v-.021Z"/>
  <path d="M383.414.948l15.255,36.719-.359,1.208-2.49.75-4.432-4.911c-1.104-.188-2.349,1.229-2.656,2.219-1.792,5.896,3.24,18.901,2.349,25.568.771.953,4.042-2.693,4.656-3.359,11.927-13.177,25.135-30.099,33.813-45.563,1.208-2.146,1.854-7.365,4.875-7.464,3.203-.104,2.349,2.521,1.599,4.651-7.875,22.74-27.063,40.703-39.724,59.917-3.818,5.797-3.854,11.302-3.464,18.271,1.401,25.214,6.443,50.88,7.5,76.109.479,11.505-1.479,23.354-7.141,33.359-3.802-.938-1.328-6.531-1.26-8.865.63-21.698-3.563-50.453-5.911-72.599-.906-8.573-2.13-17.229-3.375-25.755l-23.656,31.635c-5.333,7.078,3.135,11.609,6.083,18.443,4.432,10.266,3.922,27.292-5.281,34.688-5.219,4.177-21.234,11.578-27.438,9-10.516-4.344-5.286-29.146-1.859-37.448,1.396-3.375,8.589-12.766,7.854-14.911-.542-1.589-4.922-5.646-6.443-7.125-17.74-17.302-35.073-31.792-51.927-50.646-5.964-6.661-19.615-20.708-23.484-27.609-1.089-1.943-2.094-4.042-2.214-6.307-.12-2.526.901-13.109,4.547-12.104,5.969,4.417,11.333,9.547,17.047,14.234,2.198,1.786,10.156,6.12,10.563,8.88.375,2.438-6.458,1.448-3.458,5.964,13.974,13.604,26.792,28.417,40.99,41.797,5.453,5.13,14.859,14.542,20.516,18.495,1.193.833,2.302,1.807,3.906,1.807,8.094-10.125,16.922-19.995,24.521-30.51,3.615-5.016,9.12-10.995,8.948-17.219-.323-12.083-2.964-28.021-4.26-40.568-.458-4.484-2.932-13.229-2.609-16.891.344-3.87,5.203-9.75,6.089-13.823h2.349l-.016-.036ZM358.685,160.136c2.453-4.583.271-6.969-2.354-10.943-1.771-2.677-6.833-9.083-10.224-8.078-2.828.833-13.516,21.099-12.833,24.474.172.839,1.349,2.49,2.099,2.865,3.661,1.792,21.406-4.755,23.313-8.318Z"/>
  <path d="M34.706,58.271c.411,1.568.922,2.693.719,4.417-1.214,10.021-8.88,27.255-11.797,38.115-1.688,6.323-3.578,13.38-4.682,19.786-.802,4.568-4.177,22.708,2.724,23.813,9,1.432,6.255-10.635,13.891-10.974,2.385,1.651-3.802,20.745-6.052,23.911-3.526,4.995-5.13,3.208-9.083,5.271-4.427,2.318-13.411,20.401-14.214,25.464-1.208,7.656,2.078,17.146,11.115,16.208,17.229-1.786,35.755-31.036,49.099-42.135,8.078-6.714,18.625-12.615,28.151-17.01.906-1.568-4.193-6.99-4.771-9.802-1.974-9.578,5.542-17.813,13.583-21.474,5.984-2.729,10.344-.068,14.948,3.938,2.13,1.839,11.964,14.453,12.865,16.688,2.01,4.995-.495,13.958-3.307,18.406-3.714,1.313-15.625-1.208-16.734,4.057-.323,1.536,1.432,6.734-1.807,7.656-3.646,1.052-3.766-4.453-4.073-6.734-.766-1.328-5.573.24-6.969.714-32.604,11.182-44.583,46.635-70.609,60.276-6.865,3.594-11.927,4.057-18.589-.292-17.88-11.677-5.781-45.323,5.161-58.672-.427-2.964-2.797-4.974-3.87-7.651-4.021-9.99,1.193-33,4.109-43.656,4.599-16.771,11.708-33.12,17.161-49.531l3.016-.75.016-.036ZM113.101,137.485c1.807-3.188-6.542-8.573-9.458-8.302-1.5.135-3.099,1.432-4.62,1.807-1.104,1.74,2.969,7.365,4.094,7.927,2.063,1.021,8.911.458,9.969-1.432h.016Z"/>
  <path d="M723.054,38.058c2.078-1.448,13.786,8.813,16.068,10.432,2.542,1.807,13.552,6.75,11.385,9.833-1.906,2.198-9.115-.714-6.818,4.177.719,1.516,7.094,6.974,8.849,9.083,7.682,9.188,15.266,17.25,23.651,25.943,3.172,3.292,21.818,24.104,24.099,24.104,3.224-1.74,5.641-4.807,7.979-7.464,10.99-12.479,20.927-27.208,31.302-40.266,12.391-15.578,26.776-31.005,37.839-47.438,1.276-1.906,4.99-10.823,7.24-10.359,1.146.219,2.474,2.896,2.625,4.073.495,4.125-17.536,30.547-21.182,35.505-12.286,16.719-26.365,32.318-39.182,48.63-6.203,7.891-12.271,15.974-18.25,24.036-.885,2.74,4.703,7.24,5.979,10.99,2.526,7.417,2.693,26.234-2.214,32.391-1.021,1.276-9.188,5.776-11.13,6.609-3.391,1.469-14.552,5.438-17.484,3.651-5.198-3.156-1.875-26.234.224-31.891,1.599-4.365,8.859-14.151,7.906-17.526-14.094-16.245-30.797-30.135-44.859-46.411-6.833-7.911-12.609-16.672-19-24.906-1.568-2.026-5.677-5.333-6.646-6.854-2.167-3.406.135-12.661,1.651-16.328l-.031-.016ZM802.148,142.12c-1.021-.854-2.729-1.516-3.974-.734-3.698,8.063-13.307,15.188-10.036,24.885,5.917-.203,23.724-7.224,21.526-14.318-.276-.849-6.667-9.135-7.5-9.833h-.016Z"/>
  <path d="M739.039,187.443l-3.24-1.396-1.005-7.875c-11.573,2.641-23.5.271-29.089-10.979-4.635,6.104-6.802,12.495-13.672,16.724-11.469,7.036-25.969,3.068-33.74-7.333-5.745-7.703-6.547-19.005-18.802-7.193-8.911,8.609-10.104,23.198-14.635,34.328-4.073,10.026-8.01,19.057-20.656,14.286-15.901-6.016-18.286-32.469-17.146-46.995.188-2.318,1.906-16.635,5.49-11.438.714,1.042-.818,12.974-.771,16.161.156,8.708,1.073,18.323,8.333,24.391,10.771,9.016,18.51-3.224,22.193-12.458,5.182-12.99,10.089-39.906,29.38-38.25,9.234.781,6.729,10.172,12.286,15.578,11.984,11.677,27.849,7.672,36.594-5.474,3.083-4.635,4-11.026,9.339-13.479l1.974,1.432c-2.198,13.104,12.458,20.74,22.974,14.063-.833-8.609,3.682-34.042,11.521-38.182,6.51-3.443,13.823,9.443,14.552,14.776,1.536,11.13-2.74,25.755-11.823,32.781-2.833,2.198-6.24,3.135-8.797,5.552l-1.276,10.979h.016ZM739.893,160.427c4.495-.63,12.646-5.49,12.693-10.536.036-4.599-4.719-14.25-9.339-8.49-.286.359-3.339,6.411-3.339,6.786v12.24h-.016Z"/>
  <path d="M73.565,23.651c-3.224.599-3.698-2.318-5.474-4.208-3.474-.052-4.448,19.792-4.839,23.01-.172,1.448-1.5,3-1.448,4.432.224,5.198,13.141,8.693,10.755,16.688-1.755,5.88-17.297,2.984-18.422,8.609-1.229,6.135,5.094,24.901,6.49,32.37,2.625,13.958,4.891,31.479.089,45.151-.938,2.677-4.109,1.844-4.094-1.464,0-1.38.839-2.833.885-4.281.24-6.458-.167-12.901-.953-19.292-1.906-15.839-12.286-42.188-7.073-56.271.75-2.042,4.38-5.672,4.38-7.177,0-1.635-3.271-3.885-2.932-5.76.411-2.281,4.38-7.224,7.401-6.526l-5.849-19.042c-5.964,1.672-8.693-1.005-13.328-4.089,1.943-3.307,1.589-15.75,4.005-16.964,7.703-3.818,12.443,12.396,15.443,16.672.682.974.646,1.859,2.302,1.5.188-7.276,3.203-14.438,7.26-20.302,7.344,1.349,7.87,11.115,5.401,16.927v.016Z"/>
  <path d="M735.679,13.084c-.167-1.172.464-1.448-1.292-1.276l-36.797,19.297c-.406.609-.901,1.193-1.464,1.703-.802.734-1.943.969-2.901.578l-2.318,1.214c.104-1.266.359-2.438.682-3.599-.031-.63.156-1.26.563-1.755.75-2.13,1.708-4.141,2.505-6.224.104-1.073.156-2.161.12-3.234,0-.615-.052-1.245-.099-1.859-.021-.276-.052-.531-.089-.802v-.135c0-.036,0-.068-.016-.156-.391-2.453-1.396-4.807-3.547-5.979-.443-.24-1.036-.615-1.568-.615-.63,0-1.38.495-1.974.734-.443.167-.854.271-1.281.375,0,.016-.016.047-.031.068-1.193,1.599-2.625,2.979-4.021,4.38l-4.776,9.083c5.167,4.859,3.854-7.62,10.448-5.401,5.917,9.099-4.635,19.359-12.234,23.911-13.74,8.234-28.891,14.474-43,22.026-4.854,2.589-21.76,11.063-24.693,13.906-2.896,2.813-5.776,11.594,2.25,8.385,7.104-2.844,17.604-10.057,24.948-13.875,22.208-11.536,44.807-22.583,66.771-34.547,8.354-4.552,20.641-10.589,28.141-15.786,3.443-2.385,6.286-6.068,5.641-10.417h.031Z"/>
  <path d="M316.95,193.547l-2.745,12.443c-1.177.969-4.656-2.318-4.875-3.036-.667-2.078.901-7.141-1.516-7.839-5.13-1.484-4.125,6.766-6.24,8.792-6.563,6.344-14.62-2.74-21.969,0-11.484,6.906-23.229,13.521-35.839,18.188-4.042,1.5-21.677,5.932-23.245,7.161-.276.224-.427.495-.531.818.323-.068.682-.068,1.057,0,2.266.411,4.464.974,6.698,1.401,1.005-.208,1.995-.464,3-.682,3.802-.818,7.667-1.161,11.469-1.964s7.651-1.411,11.49-1.943c.083,0,.188-.016.271-.031,1.177-.531,2.401-1.109,3.714-1.776,5.047-2.521,17.438-12.427,21.714-12.969,6.339-.802,11.536,7.156,18.167,3.87,2.13-1.057,3.391-3.87,6.135-4.026,10.208,9.135,17.349-1.411,18.781-11.625.547-3.901-1.448-8.656-5.557-6.781h.021Z"/>
  <path d="M862.273,16.974c4.38,3.099-6.458,12.391-8.932,14.13-16.87,11.896-43.693,22.688-62.495,32.932-2.161,1.172-16.135,10.516-17.161,9.422.427-3.422-.151-9.495,3.052-11.724,13.568-5.115,25.651-13.214,38.313-19.964,13.359-7.104,27.542-13.073,40.339-21.219,2.047-1.313,2.88-4.792,6.885-3.578Z"/>
  <path d="M269.997,98.448c-3.307,4.656-9.563,12.906-14.266,15.719-2.948,1.755-21.354,8.776-23.62,8.146-2.557-.698-2.948-2.849-.547-4.448,3.646-2.422,11.438-4.245,15.901-6.885.901-.531,6.661-4.62,6.818-5.016.969-2.333-6.203-2.177-7.193-2.13-3.083.156-14.438,3.906-15.63,3.052-1.104-.802-.953-2.063-.646-3.219.271-1.005,6.016-11.578,6.63-11.984l16.516-2.917c3.953,1.349,16.906-.542,19,1.964,2.099,2.505-1.448,5.589-2.964,7.734v-.016Z"/>
  <path d="M494.409,181.802c-1.427,1.943-.609,6.307-4,5.656-1.688-.323-9.651-6.87-12.036-8.297-1.208-.734-2.521-1.604-3.969-1.724-2.505.479-4.26,7.245-5.557,8.797-2.964,3.542-8.177-2.833-10.734-4.552-3.719-2.505-9.255-2.797-8.76-8.969l7.328-10.464c2.813-.531,12.865,9,16,9.172,4.5.234,5.745-6.974,7.943-8.063,3.615-1.807,9.99,4.943,13.26,7.036,3.271,2.099,7.891,1.297,5.521,6.698-1.156,2.661-4.057,3.411-5.01,4.708h.016Z"/>
  <path d="M597.789,6.933c2.234-.599,3.719-.083,3.276,2.385-.719,3.974-3.375,5.932-6.698,7.724-21.354,11.469-48.88,18.661-71.24,29.25-4.875,2.297-9.729,5.776-14.589,8.229l-1.719-.938c.594-3.354.885-6.661,3.901-8.724,5.469-3.698,18.031-8.797,24.594-11.714,19.083-8.484,38.87-15.781,58.198-23.708,1.536-.63,3.135-2.214,4.26-2.521l.016.016Z"/>
  <path d="M163.002,31.802l-1.464-1.026c-.224.922-.922,1.708-1.875,2.016-2.896.938-5.849,2.932-8.745,4.432-1.464.75-2.948,1.5-4.38,2.349-.698.411-1.38.854-2.042,1.313-.599.427-.839.63-1.5,1.245-1.042.974-2.693,1.042-3.75.036-.427.188-.906.234-1.484.047,1.651-8.964,11.656-19.719,8.625-29.318-.51-1.583-3.104-6.953-4.792-6.984-4.24-.104-11.109,10.208-11.385,14.026-.234,3.323,1.708,5.182,4.656,2.932.474-.359,3.609-6,5.026-3.458,3.682,17.484-21.354,24.047-19.87,40.547,2.88,2.88,17.521-7.807,20.536-9.458,6.151-3.375,25.052-10.193,22.443-18.698Z"/>
  <path d="M583.851,86.755c-.323-.135-3.578-3.802-4.958-4.703-1.042-.682-7.656-4.365-8.198-4.245-3.818,1.62-3.682,10.635-8.37,9.922-2.385-.375-14.792-9.188-15.474-11.693-.458-1.708,5.078-11.271,7.021-11.745l14.177,8.385c3.922-.719,6.854-9.698,10.583-9.016,1.432.271,14.813,8.693,15.083,9.542,1.057,3.255-2.604,5.354-4.005,7.589-1.396,2.229-1.396,5.708-3.969,6.234-.698.172-1.245,0-1.891-.271Z"/>
  <path d="M243.94,27.641c-3.922,3.786-6.224-5.453-8.219-3.99-3.766,8.932-2.161,18.682-3.51,28.161l-1.245,1.328c-5.875,1.927-7.12-14.708-10.411-18.135-1.958-2.026-3.219-.271-5.693-.974-3.609-1.036-7.38-6.526-7.682-10.141-.089-.969.594-8.094.833-8.932,1.297-4.464,7.875-.422,10.005,1.484,5.229,4.672,6.37,12.339,9.661,18.172,1.328,0,2.896-12.12,3.547-14.167,6.849-21.818,19.24.885,12.693,7.193h.021Z"/>
  <path d="M714.804,219.266c-.75-.646-1.057-2.161-2.333-3.135-1.146-.854-6.323-3.526-7.62-3.411-3.031.276-3.391,10.792-9.099,9.224-1.073-.292-13.672-9.526-13.974-10.62-.734-2.49,3.917-11.844,6.594-12.563,1.411-.375,8.146,3.344,10.073,4.396,1.688.922,2.198,3.156,4.688,2.917,4.208-.406,5.469-8.745,8.979-8.078.734.135,12.422,6.615,13.052,7.156,3.396,2.932-4.599,14.953-7.615,15.208-1.021-.089-1.943-.396-2.729-1.078l-.016-.016Z"/>
  <path d="M644.643,109.563c4.516,2.677,7.479-6.953,11.943-7.313,2.286,1.651,3.854,4.057,6.172,5.677,3.167,2.214,8.625,2.557,7.906,7.26-.203,1.38-6.031,9.766-7.599,10.26-4.38,1.396-9.547-7.859-14.813-8.182-6.578-.427-2.964,8.661-9.234,7.703-1.38-.219-12.099-10.021-12.307-11.469-.391-2.745,4.005-11.302,7.276-11.333,1.755-.021,7.193,3.849,9.12,5.177.938.651,1.208,2.016,1.536,2.203v.016Z"/>
  <path d="M691.747,97.953c.219,2.354,2.13,4.073,2.505,6.396.849,5.333-3.224,13.052,2.979,17.078,10.536-4.755,3.292-13.604,2.932-22.245-.167-4.125,2.781-5.286,4.62-2.01,2.078,3.698,2.729,17.948,7.224,19.807l1.688-.891c-.984-7.193-3.339-14.094-2.521-21.49,3.172-3.141,5.76,9.422,6.323,10.974.698,1.943,2.76,3.292,2.932,5.526.099,1.411-2.318,14.094-2.932,14.724-4.089,4.245-8.318-2.656-10.62-2.146-3.391,1.552-3.271,5.88-6.901,7.432-4.104,1.755-6.375-.75-7.958-4.26-1.807-3.99-3.802-23.849-2.656-27.464.354-1.109,1.224-1.635,2.37-1.411l.016-.021Z"/>
  <path d="M330.31,40.12c-.391,2.641-1.656,6.135-4.703,3.854-2.573-1.927-6.922-19.297-10.021-18.599-1.38.682-2.828,4.193-4.74,2.964-.854-.563-5.115-10.328-5.115-11.844,0-2.828,1.453-10.672,5.385-9.63.734.188,6.885,5.656,7.703,6.734,2.797,3.609,4.146,8.484,5.969,12.594,2.026-.87,1.021-6.427,1.464-8.656,1.417-7.125,5.609-17.625,13.021-8.766,2.474,2.953,2.505,6.208,1.62,9.891-2.063,8.469-5.453-.99-7.807-1.62-1.141-.307-2.813.375-2.813,1.141,0,6.375.854,16.089,0,21.953l.036-.016Z"/>
  <path d="M355.909,199.818c-2.76-2.063-4.776-6.255-6.188,1.141,3.646.188,8.76,1.844,12.219,1.74,3.885-.104,9.068-4.771,10.922-4.229,5.505,1.641-4.563,11.203-6.797,12.495-5.047,2.932-11.865,4.62-17.604,8.578-2.865,1.958-4.328,6.766-8.917,4.667-3.406-4.875,7.552-11.625,6.766-14.318-.271-.901-1.958-1.073-2.536-1.927-4.755-7.125,7.786-25.396,16.906-17.536,2.37,2.042.24,8.792-2.182,10.448-1.042.052-1.807-.458-2.589-1.057Z"/>
  <path d="M803.206,193.375c3.391,2.401-5.88,9.188-7.823,10.276-14.25,8.031-32.823,13.552-47.62,20.781-2.198,1.073-12.458,9.427-9.781.427s7.448-7.589,13.479-10.245c14.865-6.563,33.047-16.297,48.385-20.865,1.109-.323,2.198-.63,3.359-.375Z"/>
  <path d="M645.956,22.599c-4.005,4.052-6.036-4.401-8.234-2.323-.833.786-1.229,19.469-1.891,23.031-.323,1.719-1.109,4.792-3.578,3.99-1.245-.411-5.542-14.693-8.026-17.318-4.995-5.302-11.88,1.172-11.917-10.109-.016-10.141,4.38-10.583,10.958-4.125,4.417,4.328,5.063,11.37,9.375,15.526-.172-5.469.219-11.693,2.13-16.875,6.255-17.01,16.411,2.932,11.182,8.219v-.016Z"/>
  <path d="M790.815,23.38c-1.281-1.125-1.297-3.885-4.464-3.12-.396.411-.667,9.016-.891,10.516-.219,1.401-1.26,2.49-1.427,3.651-.682,4.568,1.359,10.448-3.172,13.688-2.167,0-5.828-15.479-8.438-17.729-1.516-1.313-3.714-.63-5.521-1.224-7.755-2.542-5.656-12.922-4.193-19.026,11.349,2.099,12.271,14.01,18.151,21.938l1.516-11.13c2.318-6.24,4.703-18.547,12.443-8.708,3.646,4.635.339,14.964-3.99,11.146h-.016Z"/>
  <path d="M452.216,25.052c3.099,3,7.599,3.781,7.359,9.151-.099,2.219-6.135,11.219-8.063,11.37-3.271.255-3.323-3.188-4.958-4.74-2.604-2.469-9.885-6.375-9.917-9.969,0-1.964,5.88-12.698,7.359-12.99,3.974.51,5.849,4.891,8.219,7.193v-.016Z"/>
  <path d="M538.008,174.828c-1.964-1.396-9.818,4.995-10.839-.375,3.714-5.453,7.073-10.089,14.516-7.943,6.323,1.823.854,15.375-1.568,19.177-4.396,6.938-12.745,12.781-20.057,16.245-2.677,1.26-10.875,5.25-13.26,3.682-2.536-3.036,3.51-3.734,5.37-4.807,3.885-2.266,8.88-5.219,12.51-7.755,5.536-3.885,16.052-10.62,13.344-18.203l-.016-.021Z"/>
  <path d="M93.638,203.261c1.125-1.193,1.401-4.125,2.391-5.609,2.844-4.208,4.224-.047,3.677,3.667-.151,1.057-4.599,10.891-5.401,12.339-1.688,3.052-2.911,4.62-6.714,4.161-5.146-.646-4.141-5.474-3.87-9.667.578-9.219,4.552-21.422,9.75-29.078,2.25-3.292,5.76-1.208,5.318,1.844-.682,4.599-7.74,11.094-8.333,17.927-.208,2.37.167,7.604,3.167,4.417h.016Z"/>
  <path d="M558.898,43.188c2.865-.938,13.719,5.849,16.297,7.943,4.495,3.646-4.005,10.958-6.411,14.641-1.276.255-14.927-9.63-15.406-11.453.052-1.859,4.38-10.74,5.521-11.115v-.016Z"/>
  <path d="M333.888,49.203c.615-.646,2.302-1.245,3.172-.698,3.698,3.734-1.073,6.734-2.318,10.417-1.177,3.474-3.51,15.031-2.573,18.188,2.604,8.776,8.401-6.99,9.542-6.99,1.021.849,1.859,2.677,1.891,3.938,0,.667-4.328,11.266-4.958,12.406-3.203,5.849-7.5,3.464-10.411-1.193-1.979-3.151-1.635-10.807-1.109-14.536.323-2.203,5.932-20.646,6.766-21.516v-.016Z"/>
  <path d="M839.554,150.302c4.552.833,4.141-8.505,8.318-3.667.901,2.813-4.005,13.365-5.88,15.802-4.365,5.708-7.568-5.557-7.583-9.188,0-7.073,5.708-22.516,8.932-29.13,1.719-3.531,6.115-5.219,6.391-1.245.188,2.708-12.901,20.964-10.193,27.427h.016Z"/>
  <path d="M211.232,80.209c.224,10.755-8.74,21-4.958,31.964,5.589,1.854,3.75-6.156,6.188-8.37,2.026-1.859,2.984.016,3.031,2.115.021.818-3.474,13.104-3.901,13.906-3.969,7.365-11.365-1.26-11.266-7.823.135-9.599,4.995-20.286,6.615-29.76.526-2.286,2.281-2.182,4.313-2.031h-.021Z"/>
  <path d="M90.471,97.953c2.094,2.047,8.266-6.682,9.255-2.047.219,1.042-5.167,13.094-6.224,13.948-2.708,2.198-5.859-.823-7.141-3.141-2.25-4.073-1.411-11.161-.849-15.818.917-7.62,3.646-14.948,4.974-22.479,7.516,1.344,0,10.396,0,13.922v15.615h-.016Z"/>
  <path d="M573.523,160.427c2.229,2.146-10.635,20.13-2.948,23.625,1.635-2.271,2.182-3.99,5.484-3.359-.255,17.063-16.089,19.875-13.427-.359.255-1.943,6.495-18.167,7.448-19.38.833-1.057,2.302-.391,3.458-.526h-.016Z"/>
  <path d="M157.174,56.584c-1.156,6.906-5.865,13.995-5.604,21.411.219,6.563,4.12-3.068,5.589-1.979,0,1.401,1.479,2.25,1.5,3.63,0,.547-2.609,9.771-2.948,10.521-1.896,4.073-7.177,2.229-8.286-1.432-.422-1.417-1.104-7.979-1.021-9.547.135-2.438,6.359-19.365,7.807-20.917.849-.917,1.547-1.943,2.979-1.651l-.016-.036Z"/>
  <path d="M651.851,210.844c1.224-1.208.969-4.427,4.005-4.854,1.802-.255,2.146,3.526,1.958,4.464-.203,1.042-7.328,10.724-8.302,11.182-6.594,3.068-6.25-9.802-5.896-13.516.307-3.156,4.313-17.542,7.193-18.156,4.568,1.313-.698,8.849-1.703,12.667-.766,2.896-2.625,13.448,2.724,8.198l.021.016Z"/>
  <path d="M615.752,135.948c-.135,7.807-7.344,18.667-4.922,26.453,1.974,6.344,5.266-9.646,9.151-6.188,1.313,1.266-4.823,13.807-6.323,15.208-1.688,1.568-3.188.984-4.74-.359-3.969-3.443-2.302-15.135-1.208-19.943.255-1.141,5.505-18.104,8.042-15.172Z"/>
  <path d="M762.711,187.443c1.042,1.229,6.375-7.62,7.583-2.917.188.719-5.281,12.276-5.88,12.651-6.526,4.073-6.188-9.464-5.844-12.599.406-3.63,8.964-27.443,11.318-27.51,1.292-.031,1.224,2.49,1.089,3.578-1.057,7.828-10.823,17.234-8.266,26.797Z"/>
  <path d="M293.138,97.104c2.693,7.224-5.266,13.208-3.354,21.099l4.615-4.839,2.047.714c1.297,2.063-4.156,15.208-7.599,14.693-8.286-1.26-3.359-16.875-1.635-22.005.474-1.432,3.865-11.161,5.948-9.661h-.021Z"/>
  <path d="M407.153,195.047c1.26,1.313-3.922,8.708-4.651,10.958-1.073,3.323-1.516,6.646-1.245,10.141,2.609.885,2.724-4.552,3.427-5.01,6.813-4.484-.156,15.224-3.135,15.922-12.344-1.349-2.693-25.38,2.365-30.63.734-.771,2.286-2.385,3.255-1.38h-.016Z"/>
  <path d="M695.138,53.193c.406,6.427-4.448,11.865-3.359,18.578l5.896-5.063c.073,1.859.958,3.479.823,5.391-.073.901-4.177,10.26-4.589,10.667-1.771,1.807-5.245,1.026-6.167-1.479-2.948-8.083,2.25-19.484,3.938-27.583l3.458-.51Z"/>
  <path d="M737.351,97.953c2.474-.714,6.563,2.286,6.802,4.688.12,1.177-2.729,9.818-3.766,10.568-3.75,2.693-4.214-.422-5.339-3.219-1.906-4.708-2.266-8.115-1.786-13.193.151-1.776,1.891-14.318,4.125-12.786,3.49,3.922.12,9.323,0,13.943h-.036Z"/>
  <path d="M804.924,89.5l6.75-4.208c.99,3.578-3.833,18.047-8.865,13.516-.953-.854-2.401-5.234-2.484-6.63-.172-2.948,5.266-22.927,6.714-26.286,1.651-3.833,4.057-3.271,3.443.87-.563,3.87-7.651,20.333-5.557,22.771v-.031Z"/>
  <path d="M535.502,76.854c2.505,1.635-5.49,17.948-3.344,21.938,3.276.286,2.438-4.708,5.474-5.083,2.37-.391,1.62,3.563,1.359,4.672-.677,2.813-5.432,10.432-8.776,9.599-7.411-1.859.411-19.859,1.724-24.172.885-2.948-.391-8.047,3.578-6.938l-.016-.016Z"/>
  <path d="M410.528,104.703c.833.786-8.469,17.406-3.781,19.401,2.214.953,2.672-3.052,5.026-2.526,2.557.583-.682,8.557-1.688,10.094-1.177,1.807-2.729,2.911-4.995,2.589-8.438-1.193-1.297-23.677,2.182-28.193,1.089-1.417,1.344-1.651,3.255-1.38v.016Z"/>
  <path d="M522.857,18.589c2.401.396,3.953-1.073,4.224-3.375,4.688,3.87-2.521,10.026-4.208,13.964l-2.896.339c-6.068-3.391,2.214-26.979,4.974-26.932.443,0,1.943,1.776,1.943,2.781,0,3.359-5.828,8.589-4.036,13.245v-.021Z"/>
</svg>