<?xml version="1.0" encoding="UTF-8"?>
<svg id="Layer_1" data-name="Layer 1" xmlns="http://www.w3.org/2000/svg" viewBox="0 0 353.642 141.556">
  <path d="M3.397,18.381c-1.928-.902-2.605-2.825-1.83-4.786.52-1.312,1.757-1.429,2.645-.897,1.441.862,2.94,1.904,3.891,3.242,1.436,2.014,2.429,4.347,3.593,6.554.248.471.424.979.632,1.471.178-.007.354-.012.532-.019.304-1.897.539-3.809.937-5.688.461-2.169.941-4.35,1.644-6.449.701-2.089,1.994-2.712,3.685-2.134,2.082.709,3.197,2.427,2.752,4.279-.15.625-.365,1.234-.616,2.062-.907-.855-1.612-1.537-2.333-2.197-.902-.825-1.823-.825-2.23.382-.722,2.141-1.356,4.327-1.823,6.535-.48,2.279-.698,4.615-1.065,6.92-.101.627-.326,1.237-.492,1.855-.218.052-.438.105-.658.157-.494-1.139-.939-2.303-1.495-3.411-1.035-2.064-2.113-4.109-3.235-6.125-.189-.342-.827-.796-1.04-.703-1.501.663-2.41-.548-3.493-1.054l-.002.004Z"/>
  <path d="M14.867,51.44c1.857,1.255,3.79,2.497,5.332,4.097,1.274,1.321,2.042,3.129,3.289,5.127.136-.965.258-1.555.295-2.152.152-2.387.077-4.809.461-7.156.585-3.579,2.668-4.256,5.542-2.015,1.105.862,1.277,2.291.656,3.345-1.377-.464-2.645-.963-3.952-1.3-.832-.213-1.403.255-1.452,1.153-.215,3.893-.445,7.789-.574,11.684-.014.394.567.855.946,1.199,1.103,1,2.326,1.878,3.347,2.951,1.04,1.097.384,3.057-1.091,3.467-1.975.551-3.966,1.04-5.957,1.535-2.062.51-2.886,1.881-2.488,3.942,1.651,8.522,3.275,17.051,4.877,25.582.126.684.017,1.415-.344,2.099-1.79-8.634-3.617-17.264-5.357-25.907-1.003-4.985.363-7.505,5.015-9.712.234-.112.436-.3.67-.466-1.366-1.155-2.141-1.066-3.818.503.087-1.832.817-3.106,2.062-4.205.351-.309.693-1.134.524-1.438-1.042-1.895-2.199-3.731-3.392-5.54-.401-.609-.958-1.101-1.799-.389-.22.185-.857.075-1.188-.107-.923-.511-1.813-1.092-2.663-1.715-1.221-.895-1.572-2.989-.593-4.151.314-.372,1.331-.651,1.658-.429l-.007-.002Z"/>
  <path d="M55.563,118.199c.412-.126.848-.173,1.363-.276-.438,2.192-1.616,3.188-3.692,3.954-11.59,4.279-23.337,8.184-34.401,13.783-.18.091-.403.101-.616.152-.244-2.849-.047-3.38,2.401-4.453,11.415-4.999,23.033-9.47,34.945-13.16Z"/>
  <path d="M40.201,17.444c-3.942-1.105-8.014-1.241-12.118-1.199,1.331-4.42,4.355-6.449,8.681-5.805,2.144.319,4.287.663,6.393,1.157,2.603.614,3.022,1.729,1.694,4.109-2.438,4.364-6.182,6.737-11.134,7.273-1.377.15-2.748.37-4.123.558-.068-.227-.134-.454-.202-.682,3.624-1.637,7.248-3.272,10.871-4.91-.021-.167-.042-.335-.063-.501Z"/>
  <polygon points="30.449 52.688 30.449 52.686 30.452 52.686 30.449 52.688"/>
  <path d="M40.918,31.318c1.066-.654,2.195-1.204,3.326-1.741,7.107-3.368,14.498-6.022,21.916-8.599,12.333-4.282,24.813-8.086,37.427-11.445.262-.068.532-.103.881-.168-.461,1.796-1.188,3.026-3.111,3.513-10.768,2.722-21.379,5.99-31.88,9.597-9.351,3.211-18.531,6.854-27.519,10.979-1.162.534-2.312,1.091-3.558,1.562.447-1.5,1.136-2.855,2.516-3.699h.002Z"/>
  <path d="M42.621,65.701c-.504,2.277-1.136,4.535-1.474,6.835-.354,2.403-.48,4.844-.585,7.273-.049,1.113.384,2.167,1.687,2.324,1.267.152,1.663-.867,2.045-1.82.073-.18.213-.333.321-.497.164.052.326.105.49.157-.291,1.218-.384,2.542-.944,3.619-.37.712-1.417,1.476-2.157,1.476-.708,0-1.902-.874-2.026-1.527-.438-2.3-.864-4.708-.625-7.004.318-3.069,1.234-6.081,1.97-9.098.162-.658.646-1.237,1.298-1.736l.002-.002Z"/>
  <path d="M46.181,52.623c.316,2.115-.058,3.668-1.167,4.905-1.192,1.333-2.827,1.101-3.495-.558-.564-1.408-1.099-3.05-.916-4.495.506-4.013,1.373-7.98,2.153-11.956.122-.609.539-1.162.817-1.741.155.047.309.091.464.136-.518,2.317-1.131,4.615-1.52,6.95-.347,2.076-.53,4.19-.609,6.296-.044,1.171-.164,2.687,1.384,3.06,1.617.389,2.16-.991,2.891-2.596l-.002-.002Z"/>
  <path d="M51.004,76.01c-.48-2.247-.213-2.947,2.005-3.825,8.325-3.296,16.676-6.528,25.038-9.724,2.68-1.026,5.432-1.86,8.489-2.895-.278,1.726-.611,2.874-2.197,3.427-4.828,1.687-9.67,3.347-14.422,5.23-6.102,2.415-12.12,5.039-18.175,7.568-.194.082-.41.122-.735.216l-.002.002Z"/>
  <path d="M63.758,49.779c1.045-1.621.6-3.317.419-5.022-.136-1.284-.201-2.574-.297-3.863l.705-.094c1.117,1.6.79,3.554,1.178,5.336.271,1.253.709,2.558,1.434,3.586.358.508,1.532.445,2.335.642.141-.761.539-1.588.365-2.27-.354-1.389-1.162-2.663-1.504-4.055-.281-1.139-.157-2.375-.21-3.57.196-.019.393-.04.592-.059.958,2.621,1.933,5.238,2.86,7.871.143.403.141.893.082,1.323-.183,1.331-.356,2.785-1.839,3.293-1.521.522-2.83-.131-3.905-1.253-.295-.309-.569-.637-1.005-1.127-.508.691-.909,1.268-1.338,1.82-1.438,1.857-4.111,1.951-5.146-.115-.834-1.663-.928-3.696-1.363-5.563-.195-.829-.646-1.672-.574-2.471.094-1.023.598-2.01.923-3.012l.843.124c.101,1.27.225,2.542.3,3.813.07,1.22.011,2.455.159,3.664.131,1.068.476,2.108,1.801,2.295,1.307.183,2.403-.084,3.183-1.295Z"/>
  <path d="M64.586,104.454c.321.087.745-.206,1.12-.323-.173-.408-.234-1.031-.539-1.19-1.202-.632-2.481-1.117-4.104-1.82.777,1.883,1.904,2.907,3.523,3.335v-.002Z"/>
  <path d="M79.012,120.999c.912-1.626,1.841-3.289,2.865-5.116,2.345,1.321,4.588,2.586,7.032,3.963-1.084,2.05-2.113,3.997-3.209,6.069-2.459-1.403-4.765-2.72-7.168-4.09-.958,1.75-1.9,3.469-2.876,5.256-2.394-1.424-4.575-2.722-6.95-4.137,1.04-1.991,2.057-3.931,3.188-6.093,2.373,1.382,4.657,2.713,7.117,4.146h.002Z"/>
  <path d="M86.291,34.478c-1.603.555-2.643-.541-3.818-1.208-1.522-.864-2.356-3.172-1.483-4.624.326-.541,1.5-1.103,2-.911,1.298.499,2.788,1.152,3.57,2.211,1.64,2.211,2.893,4.71,4.259,7.119.37.653.576,1.403.857,2.108.175-.012.349-.026.522-.038.202-1.417.312-2.855.628-4.247.614-2.706,1.234-5.418,2.054-8.065.602-1.947,1.907-2.542,3.582-2.003,2.05.661,3.155,2.3,2.708,4.064-.159.633-.389,1.249-.688,2.197-.609-.682-1.01-1.162-1.445-1.609-1.572-1.621-3.242-1.242-3.741.977-.598,2.656-.965,5.359-1.445,8.042-.368,2.059-.754,4.116-1.134,6.172-.225.04-.448.08-.672.12-.482-1.099-.911-2.223-1.457-3.289-1.101-2.155-2.247-4.287-3.42-6.404-.162-.293-.672-.682-.876-.612Z"/>
  <path d="M101.889,53.637c.658-1.258,1.237-2.169,2.806-.792,1.148,1.007,2.621,1.687,4.024,2.352,1.031.492,1.136,1.077.646,1.97-.696,1.267-1.415,2.523-2.066,3.813-.389.771-.857.937-1.593.485-1.567-.96-3.151-1.893-4.718-2.851-.935-.569-1.656-.722-2.216.55-.574,1.298-1.361,2.502-2.118,3.863-2.371-1.403-4.556-2.696-6.929-4.102,1.099-2.038,2.12-3.931,3.228-5.982,2.457,1.424,4.654,2.696,7.104,4.115.551-1.03,1.197-2.22,1.825-3.42l.005-.002Z"/>
  <path d="M122.514,73.836c-2.274-14.282-4.739-28.536-7.133-42.799-.312-1.86-.644-3.715-.967-5.573.284-.192.564-.384.848-.579,1.173,1.317,2.345,2.633,3.516,3.95-1.848-5.917-4.293-11.539-7.472-16.945-1.057,2.089-1.855,4.151-2.56,6.243-.141.417.012.975.143,1.434.291,1,.799,1.956.965,2.973,2.445,14.896,4.905,29.789,7.233,44.703.988,6.325,1.679,12.696,2.513,19.046.246,1.879-.632,3.279-2.045,4.298-3.907,2.82-8.231,2.165-12.68,1.616.825-1.792,1.603-3.27,2.197-4.818,1.834-4.786,1.764-9.447-1.052-13.909-1.37-2.171-2.738-2.539-4.767-.981-4.711,3.621-10.408,12.105-7.208,19.686.145.347-.352,1.382-.663,1.436-1.904.326-3.867.747-5.767.59-3.214-.265-5.559-3.851-4.872-6.943.068-.309-.063-.663-.15-1.431-.918,1.302-1.6,2.228-2.24,3.183-.988,1.476-1.658,3.326-2.973,4.395-4.516,3.678-12.262,4.736-16.929-1.021-.473-.583-.995-1.124-1.64-1.848-.286.708-.466,1.153-.67,1.654-1.403-.274-2.694-.677-4.001-.738-1.373-.063-2.79.063-4.134.352-5.713,1.223-10.595,4.167-14.809,8.039-5.085,4.673-9.754,9.792-14.792,14.519-2.289,2.148-4.863,4.116-7.602,5.636-4.438,2.464-9.009.183-9.679-4.898-.782-5.938,1.445-11.178,5.526-15.345,2.45-2.504,3.703-5.332,4.453-8.55.171-.736.025-1.542.025-2.317-.159-.03-.318-.061-.478-.091-.743,1.15-1.441,2.331-2.235,3.443-1.361,1.904-4.087,2.021-5.591.25-2.436-2.872-2.514-6.362-1.83-9.686,1.413-6.856,3.235-13.626,4.884-20.433.213-.874.403-1.755.602-2.633-.154-.068-.312-.136-.466-.206-.326.461-.771.878-.96,1.389-1.279,3.441-2.635,6.858-3.717,10.363-1.973,6.397-3.788,12.881-3.242,19.663.316,3.91,1.134,7.805,5.647,9.423-.194.347-.339.635-.508.909-1.897,3.111-3.398,6.376-4.043,9.995-1.286,7.243,2.474,13.389,9.168,14.755,1.017.208,2.356.168,3.197-.335,2.521-1.508,5.109-3.047,7.233-5.041,4.306-4.036,8.276-8.428,12.471-12.583,3.734-3.699,7.671-7.151,12.766-8.941,2.884-1.012,5.789-1.598,8.848-.857,1.684.408,2.419,1.246,2.455,3.134.101,5.477,3.617,8.592,7.599,10.442.363.169,1.49-.384,1.623-.803.551-1.729.897-3.53,1.23-5.32.157-.85.115-1.738.164-2.624,6.095-.333,9.33-4.371,12.307-9.229.333.998.585,1.595.731,2.22.644,2.767,2.389,4.332,5.174,4.688,3.319.424,6.563-.178,9.29-1.994,2.181-1.452,4.087-1.607,6.287-.503.049.026.105.035.159.049,3.741,1.094,7.524,1.714,11.323.41,4.673-1.604,7.194-5.235,8.707-9.698l.002.01c1.696-5.006,1.389-10.152.583-15.221ZM100.699,89.657v-.002c-.25.082-.541.154-.79.105-1.558-.312-3.961-3.422-3.921-5.036.052-2.012,3.022-5.77,4.973-6.039.654-.091,1.448.363,2.078.738.394.234.609.778.886,1.195,2.886,4.361,1.796,7.414-3.226,9.04Z"/>
  <path d="M104.25,127.669c.255-.234.389-.602.576-.909.164.061.33.12.494.18-.426,1.359-.651,2.83-1.326,4.053-.907,1.642-2.982,1.614-3.683-.115-.686-1.689-1.246-3.678-1.028-5.435.473-3.834,1.459-7.611,2.279-11.401.108-.494.464-.935.705-1.4.126.051.253.101.379.152-.639,3.139-1.356,6.264-1.883,9.419-.255,1.521-.354,3.13-.129,4.641.131.885,1.038,1.658,1.598,2.48.675-.55,1.373-1.075,2.015-1.663l.002-.002Z"/>
  <path d="M129.773,118.382c1.478.682,2.235,1.907,1.825,3.279-.138.461-.394.886-.661,1.466-.326-.442-.529-.761-.773-1.047-1.188-1.401-2.799-1.16-3.249.642-.576,2.308-.848,4.69-1.276,7.035-.244,1.331-.539,2.654-.811,3.979-.155.012-.312.026-.469.038-.271-.56-.555-1.115-.812-1.682-.712-1.562-1.337-3.169-2.146-4.678-.543-1.017-1.288-1.719-2.724-1.731-1.75-.014-3.314-1.967-3.179-3.453.164-1.775,1.23-2.321,2.75-1.377,2.324,1.445,3.668,3.664,4.734,6.093.365.834.747,1.658,1.485,2.42.398-2.146.747-4.301,1.211-6.433.246-1.131.645-2.239,1.059-3.324.555-1.453,1.532-1.916,3.036-1.225v-.002Z"/>
  <path d="M195.666,76.471c-1.052,2.897-3.205,4.448-6.13,5.071-.703.15-1.41.274-2.102.405-.173,2.965-.281,5.847-.527,8.716-.314,3.666-1.914,6.779-4.743,9.083-10.44,8.508-22.225,14.015-35.765,15.097-5.008.4-9.854-.63-14.052-3.802-3.532-2.673-5.113-6.353-5.676-10.541-.853-6.371.602-12.392,3.19-18.177.366-.815,1.024-1.497,1.546-2.242.166.082.333.167.501.249-.693,2.492-1.616,4.949-2.012,7.489-.415,2.666-.747,5.472-.368,8.109.815,5.647,4.561,9.016,9.833,10.674,5.938,1.867,11.935,1.281,17.789-.354,9.246-2.582,17.734-6.795,25.448-12.537,2.057-1.53,2.874-3.418,2-5.945-1.127-3.253-2.062-6.578-3.303-9.784-1.065-2.752.059-5.029.984-7.803.668,1.229,1.19,2.078,1.605,2.975.78,1.682,2.199,2.401,3.893,2.261,1.644-.138,3.298-.539,4.867-1.063,1.307-.438,1.968-1.331,1.028-2.823-1.794-2.851-1.41-5.833-.049-9.376.815,1.679,1.59,2.965,2.083,4.354,1.168,3.303,1.167,6.643-.04,9.964l-.002-.002Z"/>
  <path d="M129.653,22.881c-.025-.167.019-.387-.072-.49-2.158-2.443-.146-4.57.52-6.786.218-.722.562-1.406,1.075-2.659,3.031,5.875,5.783,11.337,7.742,17.161-.213.166-.424.33-.637.494-1.031-1.415-2.059-2.832-3.09-4.247l-.745.537c0,.337-.049.682.007,1.007,2.504,14.532,5.083,29.051,7.5,43.597.996,5.982,1.989,12.019,1.392,18.107-.295,3.013-1.195,5.966-1.836,8.943-.026.126-.232.213-.59.522-.197-1.112-.476-2.049-.518-2.998-.522-11.666-2.654-23.115-4.519-34.603-2.087-12.86-4.153-25.725-6.226-38.587h-.002Z"/>
  <path d="M181.269,114.826c-.157,2.063-.949,3.097-2.738,3.776-10.719,4.076-21.389,8.278-32.063,12.474-1.225.48-2.366,1.167-3.603,1.785-.307-2.982-.042-3.617,2.479-4.586,11.15-4.292,22.323-8.526,33.492-12.766.712-.27,1.474-.417,2.434-.682Z"/>
  <path d="M149.557,57.846c-1.232.958-2.49.614-2.907-.576-.677-1.939-1.338-4.097-1.143-6.079.344-3.518,1.3-6.98,2.08-10.45.157-.7.663-1.318,1.009-1.975.112.047.223.096.333.146-.56,2.462-1.229,4.907-1.642,7.393-.344,2.073-.539,4.2-.489,6.294.021.872.646,2.174,1.349,2.483,1.319.581,2.104-.438,2.382-1.759.028-.136.192-.241.305-.377.602,1.614-.045,3.933-1.279,4.896l.002.004Z"/>
  <path d="M152.422,25.104c-1.731.222-3.966-2.15-3.907-3.823.028-.763.284-1.991.745-2.16.761-.276,2.002-.162,2.63.321,1.211.932,2.317,2.122,3.139,3.413,1.3,2.038,2.331,4.247,3.701,6.803.363-2.324.595-4.217.965-6.083.326-1.633.754-3.251,1.232-4.849.628-2.099,1.806-2.898,3.326-2.385,2.329.785,3.139,2.3,2.354,4.406-.094.253-.223.494-.44.97-.501-.413-.862-.666-1.169-.97-1.752-1.738-3.158-1.396-3.699,1.12-.642,2.989-1.01,6.034-1.504,9.056-.188,1.139-.396,2.272-.593,3.406-.18.04-.36.078-.541.117-.44-.958-.876-1.914-1.319-2.869-.768-1.659-1.478-3.348-2.333-4.959-.508-.963-1.084-1.706-2.588-1.511v-.002Z"/>
  <path d="M166.538,79.069c.829-.215,2.127.609,2.947,1.3,1.272,1.073.206,2.303,0,3.202-1.028-.541-2.314-1.719-2.973-1.436-.834.358-1.419,1.848-1.654,2.947-.688,3.23-1.15,6.509-1.703,9.77-.157.033-.312.065-.468.101-.419-.916-.822-1.838-1.258-2.745-.691-1.445-1.34-2.914-2.129-4.305-.452-.794-.979-1.387-2.251-1.202-1.583.232-3.404-2.012-3.333-3.659.073-1.705,1.04-2.394,2.528-1.52,1.108.651,2.138,1.623,2.865,2.687,1.026,1.499,1.743,3.214,2.577,4.842.241.466.433.958.829,1.844.745-3.432,1.27-6.388,2.075-9.265.281-1.002,1.115-2.345,1.949-2.56Z"/>
  <path d="M166.095,61.098c-1.049,1.956-2.066,3.851-3.223,6.008-2.171-1.319-4.209-2.516-6.187-3.811-.269-.176-.426-.933-.279-1.265.604-1.368,1.321-2.689,2.047-3.999.41-.735.954-.96,1.785-.433,1.827,1.159,3.71,2.228,5.858,3.502l-.002-.002Z"/>
  <path d="M175.005,55.146c-1.312.747-2.48.424-3.19-.963-1.082-2.115-1.279-4.406-.846-6.681.625-3.27,1.434-6.507,2.207-9.749.131-.555.469-1.061.712-1.588l.44.162c-.529,2.429-1.15,4.842-1.56,7.29-.321,1.911-.394,3.865-.546,5.802-.031.379-.026.832.15,1.143.412.733.939,1.403,1.422,2.099.735-.588,1.48-1.162,2.199-1.769.157-.131.22-.375.342-.593.642,1.38-.147,4.172-1.333,4.847h.002Z"/>
  <path d="M190.219,37.254c-.653-.419-1.349-.789-2.063-1.096-.832-.361-1.136-.846-1.019-1.811.239-1.984.522-4.003.396-5.983-.27-4.261-2.073-7.873-5.24-11.012-1.569,2.413-1.384,3.258.394,4.791h.002c.897.771,1.637,1.796,2.232,2.83,1.787,3.113,1.813,6.484,1.105,9.887-.52,2.502-1.239,4.966-1.71,7.475-.286,1.525-.08,3.396,1.352,3.994,1.263.527,3.242.515,4.418-.136,3.785-2.097,3.746-6.622.133-8.939ZM190.927,42.794c-1.007.635-2.099,1.141-3.153,1.703-1.363-.181-2.113-.811-2.165-1.97-.04-.914.15-1.872.419-2.757.33-1.085,1.089-1.347,2.059-.647l-.002.002c.946.684,1.886,1.377,2.83,2.066.729.532.729,1.15.012,1.603Z"/>
  <path d="M189.004,98.242c1.138-2.078,2.169-3.961,3.291-6.011,2.375,1.394,4.647,2.727,6.997,4.106-1.084,2.078-2.105,4.036-3.181,6.1-2.378-1.403-4.702-2.776-7.107-4.198v.002Z"/>
  <path d="M193.756,125.892c.272-.396.476-.838.839-1.234.101,1.555.047,3.118-1.042,4.383-1.023,1.19-2.677.838-3.378-.625-1.141-2.382-.991-4.9-.55-7.365.466-2.612,1.185-5.182,1.846-7.756.157-.609.52-1.164.787-1.745l.305.173c-.602,2.97-1.352,5.919-1.752,8.918-.227,1.705-.241,3.603.291,5.2.583,1.757,1.551,1.661,2.659.049l-.002.002Z"/>
  <path d="M210.032,94.69c-1.195-9.665-2.183-19.36-3.619-28.99-2.084-13.987-4.476-27.929-6.781-41.883-.258-1.569-.834-3.083-1.199-4.636-.122-.52-.194-1.141-.026-1.621.682-1.937,1.469-3.837,2.218-5.75.164-.026.33-.054.497-.08,2.638,5.516,5.643,10.871,7.423,16.765-.155.112-.31.225-.464.337-1.267-1.223-2.537-2.443-3.804-3.666-.11.054-.223.108-.333.162.119.67.241,1.337.356,2.007,2.361,13.708,4.757,27.409,7.065,41.126,1.099,6.535,2.207,13.108,1.619,19.761-.274,3.085-1.186,6.116-1.809,9.17-.248-.016-.494-.035-.743-.051-.136-.886-.292-1.769-.403-2.657l.002.005Z"/>
  <path d="M240.155,113.088c.155-.049.326-.047.715-.098-.125,1.883-.857,3.015-2.535,3.654-10.291,3.929-20.569,7.89-30.833,11.888-1.736.677-3.38,1.588-5.121,2.417-.307-3.034-.194-3.298,2.265-4.406,11.56-5.209,23.436-9.597,35.509-13.455Z"/>
  <path d="M217.896,21.04c-2.223.373-5.055-2.799-4.341-4.936.506-1.511,1.804-1.954,3.184-1.047,2.881,1.893,4.413,4.779,5.713,7.831.319.748.635,1.492,1.352,2.193.298-1.778.53-3.57.907-5.329.408-1.897.881-3.788,1.455-5.643.543-1.757,1.71-2.492,3.059-2.139,1.811.473,2.975,2.139,2.664,3.821-.099.532-.232,1.056-.426,1.939-.644-.569-1.024-.881-1.375-1.221-1.754-1.696-2.891-1.459-3.462.954-.651,2.752-1.028,5.568-1.529,8.355-.251,1.396-.511,2.79-.766,4.184-.176.042-.354.082-.529.124-.424-.899-.818-1.813-1.272-2.694-1.038-2.007-2.062-4.026-3.202-5.976-.188-.321-.975-.494-1.431-.419l.002.002Z"/>
  <path d="M223.639,59.106c1.122-2.164,2.176-4.202,3.247-6.268-2.017-1.197-3.856-2.289-5.749-3.413,1.141-2.033,2.183-3.893,3.329-5.938,2.169,1.263,4.24,2.413,6.229,3.691.267.173.312,1.099.112,1.506-.796,1.645-1.731,3.223-2.684,4.954,1.895,1.127,3.771,2.247,5.727,3.411-1.178,2.057-2.265,3.959-3.425,5.983-2.324-1.345-4.467-2.584-6.786-3.926Z"/>
  <path d="M249.944,77.996c-1.86.752-3.923-.028-5.055-1.691-2.741-4.029-2.453-8.449-1.712-12.893,1.101-6.592,2.858-13.02,5.341-19.234.356-.895.867-1.727,1.307-2.586.201.061.403.122.604.183-.143.747-.253,1.504-.438,2.239-1.44,5.711-3.017,11.389-4.298,17.135-.602,2.701-.846,5.575.276,8.231.461,1.092,1.342,2.251,2.347,2.806,1.67.921,2.813.384,3.933-1.249.595-.871,1.181-1.75,1.785-2.614.042-.063.197-.044.3-.063.893,3.108-1.585,8.599-4.387,9.733l-.002.002Z"/>
  <path d="M254.372,16.833c-3.902-.379-7.807-.756-11.696-1.134.434-2.659,3.659-5.802,6.393-5.596,3.029.229,6.048.815,9.023,1.466,1.766.389,2.188,1.642,1.347,3.305-2.242,4.437-5.755,7.142-10.764,7.76-1.586.194-3.169.408-4.753.611-.08-.185-.159-.372-.239-.557,3.617-1.685,7.233-3.366,10.85-5.05-.054-.27-.107-.537-.162-.806Z"/>
  <path d="M258.117,121.291l.508.122c-.297,1.159-.415,2.413-.956,3.446-.352.672-1.333,1.431-2.003,1.403-.651-.026-1.693-.925-1.815-1.581-.394-2.099-.74-4.292-.543-6.395.249-2.633,1.021-5.219,1.642-7.81.185-.766.614-1.473,1.3-2.087-.511,2.413-1.085,4.816-1.513,7.243-.279,1.581-.396,3.197-.492,4.802-.035.588.054,1.274.342,1.767.302.515.865,1.091,1.396,1.19.424.077,1.04-.452,1.445-.843.328-.316.468-.827.691-1.253l-.002-.002Z"/>
  <path d="M263.006,70.053c-.12-1.021-.597-2.04-.532-3.036.073-1.108.579-2.188.897-3.282l.792.016c.244.778.649,1.544.698,2.333.11,1.776-.002,3.565.065,5.346.082,2.141,1.225,3.434,2.893,3.403,1.645-.03,3.427-1.738,3.399-3.516-.025-1.544-.415-3.081-.524-4.626-.084-1.176.016-2.366.035-3.551l.897-.073c.309,1.408.677,2.804.909,4.224.232,1.422.22,2.886.516,4.292.281,1.337,1.125,2.307,2.603,2.469,1.539.168,2.228-.618,1.717-2.063-.63-1.778-1.342-3.53-2.092-5.264-.618-1.434-.131-2.633.588-4.179,1.08,2.727,2.155,5.003,2.858,7.388.405,1.373.373,2.938.227,4.385-.124,1.218-.764,2.668-2.207,2.48-1.366-.178-2.656-1.044-3.938-1.691-.283-.143-.391-.63-.729-1.216-.717.888-1.312,1.651-1.935,2.389-1.503,1.787-3.755,1.82-5.338.065-1.625-1.801-1.541-4.092-1.799-6.294Z"/>
  <path d="M271.467,53.206c-.792,1.448-3.099,1.237-3.582-.389-.604-2.033-1.15-4.284-.89-6.333.473-3.729,1.553-7.381,2.398-11.061.066-.284.288-.532.822-.719-.08.527-.138,1.059-.241,1.581-.604,3.106-1.286,6.198-1.792,9.321-.192,1.185-.002,2.436.052,3.656.042.965.342,1.832,1.487,1.865,1.099.033,1.958-.396,2.155-1.638.04-.246.157-.48.239-.721.241.065.485.133.726.202-.44,1.424-.675,2.958-1.375,4.24v-.002Z"/>
  <path d="M278.262,116.705c.92-1.748,1.815-3.448,2.78-5.28,2.406,1.38,4.655,2.67,7.1,4.076-1.129,2.008-2.247,3.999-3.406,6.058-2.345-1.396-4.57-2.722-7.009-4.176-.733,1.344-1.49,2.553-2.066,3.841-.473,1.052-1.021,1.368-2.047.75-1.619-.977-3.284-1.881-4.868-2.914-.321-.208-.625-.981-.482-1.274.838-1.722,1.811-3.38,2.865-5.29,2.377,1.403,4.692,2.771,7.133,4.212v-.002Z"/>
  <path d="M281.148,22.164c-1.075.506-2.155,1.005-3.479,1.621.677-1.71,1.298-3.137,2.921-3.837,4.926-2.125,9.771-4.465,14.783-6.357,13.804-5.209,27.913-9.499,42.15-13.364.326-.089.658-.15,1.005-.227-.206,1.668-1.045,2.701-2.453,3.08-10.581,2.844-21.096,5.91-31.421,9.592-7.967,2.839-15.849,5.889-23.509,9.489l.002.002Z"/>
  <path d="M294.039,32.22c-.293,3.441-.497,6.889-.598,10.339-.019.597.551,1.337,1.045,1.801.967.907,2.225,1.534,3.064,2.53.494.586.628,1.682.532,2.504-.126,1.077-1.089,1.208-2.101,1.45-2.3.551-4.54,1.387-6.763,2.214-1.096.407-1.354,1.368-1.127,2.49,1.485,7.357,2.982,14.713,4.413,22.08.396,2.041.581,4.125.865,6.189-.173.035-.347.073-.518.108-.241-1.007-.513-2.008-.721-3.02-1.522-7.393-3.034-14.788-4.551-22.183-1.143-5.572.025-8.058,5.039-10.695.187-.098.335-.272.503-.41-1.078-1.241-1.469-1.168-3.841.708.098-1.815.73-3.232,2.173-4.31.307-.229.595-.967.452-1.241-1.218-2.331-2.537-4.608-3.994-7.201-1.392,1.874-2.42,1.005-3.472.403-2.314-1.328-3.066-2.49-2.712-4.228.307-1.509,1.017-1.928,2.5-1.45,2.661.857,4.308,2.879,5.762,5.095.811,1.237,1.569,2.509,2.64,4.23.096-1.122.152-1.748.199-2.373.183-2.497.195-5.022.621-7.475.183-1.044,1.026-2.392,1.933-2.801,1.412-.64,2.778.314,3.802,1.445.935,1.033.616,2.139.136,3.434-.567-.495-.991-.923-1.474-1.27-1.846-1.328-3.617-.611-3.806,1.638Z"/>
  <path d="M323.724,125.997c.513-.159,1.04-.27,1.869-.482-.527,1.874-1.302,2.839-2.926,3.467-10.325,3.991-20.592,8.128-30.882,12.213-.345.136-.708.22-1.162.361-.115-1.853.208-3.06,2.094-3.879,10.143-4.411,20.44-8.395,31.004-11.682l.002.002Z"/>
  <path d="M312.246,69.045c1.017.529,1.27,1.101.693,2.085-.897,1.529-1.766,3.078-2.717,4.741-2.408-1.422-4.654-2.748-6.95-4.104,1.143-2.017,2.246-3.968,3.364-5.94,1.979,1.147,3.757,2.258,5.61,3.221v-.002Z"/>
  <path d="M314.797,31.89c.508,1.755-.25,4.081-1.574,4.99-.909.621-2.553.157-2.928-1.242-.548-2.045-.998-4.261-.78-6.329.352-3.35,1.249-6.643,1.989-9.944.143-.635.619-1.194.942-1.79l.375.155c-.492,2.127-1.12,4.235-1.443,6.388-.386,2.56-.59,5.158-.712,7.747-.047.988.323,1.998,1.595,2.225,1.319.234,1.748-.667,2.171-1.612.087-.192.225-.36.368-.585l-.002-.002Z"/>
  <path d="M321.347,55.075c-.37,2.244-.569,4.516-.813,6.779-.042.377-.042.829.129,1.145.415.766.82,1.93,1.452,2.102,1.178.318,2.071-.492,2.293-1.804.033-.192.143-.37.246-.628.703,1.586-.035,4.38-1.288,5.156-1.167.721-2.823.417-3.181-.923-.548-2.05-1.059-4.251-.864-6.322.293-3.129,1.169-6.21,1.876-9.29.201-.872.684-1.68,1.038-2.516.15.042.297.087.445.131-.452,2.057-.988,4.097-1.331,6.17h-.002Z"/>
  <path d="M351.311,72.091v.004c-.773-1.518-1.572-3.019-2.455-4.715h2.729c.105-.131.211-.265.318-.396-1.85-2.148-3.701-4.296-5.554-6.447-.18.061-.361.125-.541.185-.579,2.343-1.996,4.624-.864,7.149,2,4.46,4.174,8.845,6.28,13.258.729,1.527.408,2.481-1.176,3.174-1.834.803-3.736,1.459-5.535,2.333-1.199.581-1.736.276-2.303-.855-1.223-2.445-3.054-4.371-5.495-5.669-2.038-1.082-4.022-1.11-5.983.23-2.813,1.925-4.12,4.839-4.83,7.948-1.054,4.617,1.063,7.278,5.863,7.227,3.123-.033,6.24-.719,9.637-1.148,1.155,2.209,1.063,3.984-1.159,6.116-6.145,5.894-12.792,11.11-20.939,14.031-2.469.886-5.022,1.509-7.688,1.003-6.845-1.298-10.326-6.852-9.686-14.762.323.199.585.373.859.525,4.481,2.516,11.495.044,13.129-4.713,1.583-4.601.74-8.993-1.499-13.188-.124-.232-.503-.328-.792-.504-.96,3.287-.806,6.421.466,9.407.155.363.084,1.16-.143,1.289-1.263.717-2.551,1.614-3.933,1.853-5.036.865-9.333-1.506-8.376-7.519.063-.403-.047-.834-.099-1.59-1.288.709-2.31,1.333-3.382,1.853-13.02,6.304-26.704,8.663-41.061,6.704-6.99-.953-12.825-3.853-16.519-10.246-1.082-1.872-2.436-3.596-3.776-5.303-1.084-1.384-2.621-1.879-4.155-.916-1.68,1.052-3.375,2.207-4.715,3.643-4.205,4.507-6.721,10.037-9.229,15.591-.983,2.178-2.419,4.289-4.099,5.987-2.146,2.169-4.968,2.052-7.172-.04-1.136-1.08-2.059-2.483-2.757-3.898-1.825-3.703-1.504-7.683-1.18-11.64.075-.92.098-1.848.145-2.771-.168-.012-.337-.021-.503-.033-1.195,2.593-1.574,5.383-1.635,8.206-.122,5.509,1.129,10.621,4.875,14.854,2.858,3.23,6.037,3.35,8.833.059,1.996-2.35,3.6-5.055,5.209-7.705,1.815-2.994,3.256-6.226,5.214-9.119,1.246-1.841,2.926-3.567,4.778-4.785,3.521-2.312,4.441-1.905,6.062,1.967,1.759,4.198,4.79,7.224,8.662,9.431,5.071,2.888,10.682,3.825,16.404,4.039,12.508.464,24.284-2.582,35.582-7.747.679-.312,1.342-.663,2.258-1.12.23,3.169,1.708,5.749.869,8.946-1.157,4.416-.841,8.976,1.134,13.237,1.672,3.607,4.387,5.952,8.409,6.655,3.821.667,7.444.016,10.907-1.582,7.029-3.242,13.036-7.877,18.313-13.513,3.099-3.31,5.095-7.128,4.9-11.684-.096-2.251.928-3.148,2.633-3.881.255-.11.501-.244.743-.384,2.244-1.316,4.169-2.874,5.25-5.397,2.057-4.807,1-9.255-1.228-13.633ZM337.133,89.008v-.002c-2.258.176-4.512.687-6.751-.384-1.052-.503-.939-1.054-.26-1.766,1.122-1.178,2.472-1.562,3.9-.782,1.178.642,2.213,1.541,3.312,2.328-.068.202-.136.403-.201.607Z"/>
  <path d="M341.829,48.329c.904.524,1.071,1.031.452,1.996-.92,1.434-1.625,3.008-2.523,4.715-2.34-1.354-4.617-2.673-7.025-4.066.981-1.846,1.708-3.417,2.645-4.851.267-.41,1.309-.752,1.717-.553,1.635.801,3.153,1.841,4.734,2.759Z"/>
  <path d="M347.263,34.56c-.197.37-.279.696-.487.886-.618.562-1.249,1.408-1.946,1.482-.45.049-1.274-.984-1.485-1.667-.302-.977-.351-2.097-.234-3.123.239-2.097.586-4.186,1.028-6.248.426-1.981,1.031-3.923,1.562-5.912-.511-.213-.904-.464-1.328-.536-1.539-.26-1.843-.986-1.586-2.561.284-1.719.146-3.565-.136-5.306-.288-1.783-1.689-2.492-3.057-1.377-1.579,1.286-2.837,3.045-3.968,4.774l.009-.002c-.89,1.361-.44,2.846.752,3.929,1.017.92,2.167,1.691,3.448,2.672-3.303,3.704-7.278,6.515-11.471,9.016-4.226,2.521-8.533,4.905-12.804,7.351,2.057-.405,4.003-1.042,5.837-1.916,7.042-3.352,13.67-7.32,18.709-13.441,1.078-1.307,2.026-.181,3.008-.108.164.012.431,1.129.335,1.682-.417,2.408-1.047,4.781-1.415,7.196-.379,2.492-.475,5.01.848,7.33.733,1.284,2.356,1.628,3.387.73.937-.815,1.501-3.333.993-4.851ZM341.562,18.629c-1.373-.733-2.497-1.134-3.342-1.857-.513-.438-.998-1.553-.778-2.047.286-.645,1.265-1.31,1.975-1.345.696-.033,1.891.585,2.05,1.15.323,1.143.096,2.44.096,4.099Z"/>
</svg>