<?xml version="1.0" encoding="UTF-8"?>
<svg id="Layer_1" data-name="Layer 1" xmlns="http://www.w3.org/2000/svg" viewBox="0 0 1224.835 544.162">
  <path d="M568.676,87.373c-3.257,3.272-13.988-11.976-17.435-13.085.324,40.531,5.622,80.72,7.563,121.166l69.395,87.395c.549,1.561,2.235,1.18,3.498.705,3.49-1.31,16.379-16.919,19.87-20.914,21.735-24.876,41.511-51.684,62.273-77.374-2.068-34.819-4.34-69.659-6.942-104.448-.466-6.227.508-12.668-.037-18.874-.639-7.275-5.07-16.967-5.345-22.051-.26-4.805,10.153-34.017,13.369-33.95,2.024,1.639,2.799,4.032,3.892,6.261,8.108,16.532,19.35,46.454,24.524,64.215,1.523,5.228,3.332,10.497,2.867,16.046-.788,5.754-15.454-12.02-17.45-12.359l4.405,74.864,2.833,3.69L850.888,8.825c-.349,15.573-8.068,29.894-15.957,42.945-27.828,46.04-66.277,88.275-98.661,131.189-.926,70.833,21.574,151.391-1.08,220.04-1.146,3.472-7.461,19.83-9.387,21.177-1.767,1.18-2.867-1.394-2.949-2.896-.359-6.574,2.726-18.891,3-26.162,1.708-45.167-4.013-93.123-7.318-138.276-1.144-15.627-.244-31.791-3.645-47.256l-71.445,84.33c-2.002,4.818,3.388,6.888,5.854,10.341,30.578,42.823,29.861,89.842-19.493,117.013-16.336,8.993-43.528,18.774-51.018-5.768-4.614-15.117-1.796-40.696,2.249-56.093,5.352-20.368,18.184-36.675,28.361-54.579l-46.522-57.426c2.391,46.179,7.562,98.617-18.321,139.532-23.718,37.491-64.699,34.161-81.973-6.259l-2.98-.881c-15.836,32.082-37.06,48.505-73.898,36.763-31.724-10.112-32.362-39.331-74.524-28.784-55.201,13.81-98.433,81.978-134.532,121.502-22.321,24.438-53.236,49.649-82.956,17.452-35.238-38.175-6.25-102.068,13.831-141.108-22.418-2.705-42.321-10.507-56.699-28.416-31.946-39.79-20.884-117.948.63-160.783,2.565-5.107,12.752-22.805,16.768-25.421,1.97-1.283,3.519-1.377,2.856,1.387-15.882,38.577-35.75,80.128-23.602,122.7,30.344,106.339,205.614,21.541,259.228-22.35,7.831-6.411,11.301-10.277.134-15.891-26.201-13.173-95.915-8.812-100.394-47.991-4.784-41.841,30.594-99.748,61.083-126.587,11.192-9.852,32.877-26.881,48.029-20.34,16.189,6.989,17.214,30.911,11.906,45.36-1.099,2.991-6.127,13.503-10.377,10.574-10.131-34.504-37.031-13.58-53.921,2.228-10.043,9.4-42.208,48.645-42.249,61.117-.037,11.331,21.485,18.883,30.616,21.839,24.175,7.827,76.47,9.6,80.032,40.713,4.94,43.148-32.105,68.451-64.137,88.62-45.219,28.472-101.13,53.251-155.331,53.424-6.206,21.87-16.325,42.789-21.61,64.948-4.031,16.899-8.836,43.398,7.573,55.607,23.045,17.146,54.93-13.158,69.862-29.088,40.101-42.784,105.364-143.083,173.905-128.849,17.155,3.563,30.765,22.822,47.939,29.162,24.616,9.088,44.745,3.83,60.255-16.812,5.036-6.702,12.904-23.612,18.234-28.317,2.499-2.206,4.023-2.532,7.317-2.124-11.736,35.669,20.296,52.856,51.257,38.876,11.906-5.376,17.312-10.325,18.55-23.637,3.783-40.662-6.274-87.386-6.751-128.486-24.132-34.706-52.599-66.458-75.292-102.187-11.878-18.702-21.348-42.865-33.095-60.008-2.248-3.28-8.143-7.415-9.189-9.723-3.69-8.139,2.164-28.383,2.164-37.803,2.533-2.441,18.921,12.695,21.833,15.261,10.123,8.921,25.187,21.901,34.01,31.453.952,1.03,4.865,6.162,3.786,7.11-7.152.505-13.849-2.004-20.719-3.279-1.147-.213-3.74-2.557-2.528,1.076,3.533,10.593,22.094,35.86,29.343,46.311,14.384,20.74,30.4,40.464,45.561,60.635-.654-27.156-3.5-54.809-5.158-82.126-.784-12.92.556-24.241-1.764-37.514-.764-4.374-4.034-8.999-4.032-13.462.002-3.27,10.116-31.577,11.701-32.722,2.915-.585,3.459,1.37,4.629,3.337,6.849,11.519,18.329,45.741,23.012,59.908,2.584,7.816,5.493,15.664,5.785,24.022ZM623.439,317.337c-5.991,1.014-35.642,54.421-35.917,63.231-.762,24.431,41.751,5.096,52.316-1.639,6.681-4.259,20.695-13.555,17.96-21.989-2.049-6.32-29.954-40.349-34.359-39.603Z"/>
  <path d="M993.485,387.061c-13.095,26.26-42.376,44.298-72.026,44.801-23.07.392-39.365-4.627-53.7-23.11-14.94-19.263-18.734-53.764-50.219-33.964-30.449,19.147-38.155,62.315-53.662,91.812-30.838,58.659-64.386,25.656-77.741-21.698-9.794-34.728-6.99-76.331,4.769-110.208,2.146-2.035,2.636.158,2.901,2.161,1.07,8.089-2.656,23.071-2.984,31.959-.905,24.499-1.984,87.209,27.327,96.436,17.801,5.603,27.923-6.066,36.039-19.977,20.439-35.032,27.425-75.914,61.117-103.269,45.564-36.994,47.019,26.916,77.879,44.234,22.265,12.495,63.01,7.062,82.866-8.596,7.357-5.801,30.543-34.807,35.585-35.704,2.567-.253,2.262-.074,2.247,2.227-.053,8.238-4.423,14.712-2.859,24.621,4.051,25.659,55.503,21.687,58.842,6.797,1.262-5.625-11.036-20.057-11.067-28.519-.015-4.16,8.19-32.702,11.042-32.713,27.781,35.529,13.655,128.169-46.223,108.748-8.525-2.765-17.269-9.821-21.698-17.58-3.679-6.445-3.756-13.879-8.436-18.456Z"/>
  <path d="M100.334,90.212c10.326,1.867,25.574,12.524,24.741,24.063-1.411,19.562-30.942,12.976-40.624,26.485,9.295,34.002,16.847,70.11,9.267,105.181-2.42-1.653-2.086-3.974-2.266-6.462-.828-11.412-.171-23.071-1.558-34.811-2.179-18.448-12.189-47.355-11.512-64.113.311-7.687,4.431-18.239,11.177-22.412,1.685-1.042,15.009-4.394,12.148-7.462l-7.399-2.29-11.5,9.533c.863-9.006,2.203-17.487,7.242-25.071.939-1.414,3.817-1.851,4.173-3.387.764-3.294-12.641-37.73-15.728-40.705-4.322-4.165-7.893.978-14.231-1.754-7.757-3.344-8.944-9.626-6.042-16.944,7.358-18.557,20.756-6.569,28.26,4.903l12.306,33.497c2.047-13.371,7.221-48.523,19.865-55.083,13.113-6.803,22.062,18.666,13.653,23.87-3.826,2.367-7.159-6.815-11.03-6.678-7.968-.775-11.197,14.765-12.763,20.697-3.358,12.72-5.033,26.154-8.18,38.945Z"/>
  <path d="M415.954,253.232c2.647-.264,1.479,4.829,1.277,6.372-1.048,7.995-8.071,28.96-15.302,32.708-13.84,7.174-21.215-3.248-23.164-15.741-9.895-63.446,51.711-97.089-.052-167.243-2.372-3.214-14.57-15.832-14.941-17.18-1.353-4.919,6.079-15.355,9.36-19.282,35.676,22.981,41.975,73.671,33.642,112.277-4.83,22.376-24.351,55.239-17.829,76.888,5.81,19.284,24.072,3.855,27.009-8.798Z"/>
  <path d="M921.066,135.044c1.624,1.672,6.221,2.382,8.352,1.097l10.21-12.384c-.115,10.242-7.792,36.339-22.183,28.784-10.124-5.315-6.89-26.662-4.765-36.114,2.323-10.331,15.491-29.637,1.484-34.502-25.642,29.698-60.111,48.639-98.175,57.813.389-1.931,2.428-3.021,3.899-4.087,27.24-19.745,63.127-31.738,86.288-57.732-8.904-5.491-18.648-11.264-17.352-23.116,2.081-19.027,39.525-46.575,36.24-5.991-.351,4.331-3.219,11.125-2.878,14.549.392,3.932,5.289,5.361,6.514,8.04,3.761,8.225-6.606,25.636-8.747,34.842-1.544,6.637-3.815,23.726,1.113,28.802ZM913.106,45.553c-3.795-3.843-12.814.181-12.791,4.727.021,4.271,10.362,10.032,14.59,9.456-.174-3.751.895-11.454-1.799-14.182Z"/>
  <path d="M740.357,533.985c-2.129-2.013,7.508-7.019,8.836-7.883,26.632-17.32,57.133-29.745,79.882-52.495-14.23-4.193-18.293-10.949-15.648-25.835.644-3.624,3.749-7.46,3.824-10.453.146-5.811-4.364-12.114,3.137-17.497,14.643-10.508,50.486,20.323,50.652,34.857.053,4.663-4.642,17.431-8.556,20.368-5.493,4.121-17.76-1.598-24.667-.046-23.787,31.891-60.887,46.862-97.46,58.985ZM836.349,458.342c-.341-6.748,2.19-14.03-4.405-18.253l-2.896-.116c-16.797,10.484-9.432,17.565,7.3,18.369ZM862.533,462.697c2.554-5.335-15.402-21.288-17.441-18.898l-1.289,15.82,18.73,3.077Z"/>
  <path d="M834.684,305.395c-4.839,2.816-26.207-18.676-33.228-18.718.205,4.138-8.686,22.199-12.138,21.685l-31.172-22.384,15.074-28.283c1.535-.355,8.612,3.943,10.651,5.097,3.729,2.111,19.788,15.568,21.922,13.707,1.073-5.37,6.464-20.919,12.279-20.412,3.088.269,29.037,18.336,29.625,21.333l-13.011,27.975Z"/>
  <g>
    <path d="M1127.312,157.201l75.638-26.163-6.677,12.948-67.607,25.752c.439,15.469-.253,30.979.032,46.448.335,18.128,2.363,37.02,3.029,55.16,1.049,28.577-2.615,78.283,8.851,103.164,8.425,18.28,28.634,22.32,46.685,16.501,32.288-10.408-1.841-36.502-3.214-51.369-.405-4.38,5.35-31.079,9.444-31.112,22.609,21.619,25.953,73.341,12.632,99.888-10.37,20.665-25.076,25.089-47.422,22.159-25.656-3.364-35.803-29.743-39.705-51.944-6.981-39.73-3.026-83.145-7.758-123.169l-1.404-77.882-69.818,26.165,7.344-16.644,60.83-23.546c-1.168-38.139-3.101-78.332-17.279-113.994-6.756-4.942-17.992,34.898-23.241,36.364-.017-15.235,3.255-31.667,8.68-45.858,13.959-36.513,28.126-32.744,37.748,3.052,9.79,36.419,10.45,76.629,13.209,114.081Z"/>
    <path d="M1179.695,263.406l-12.377,21.668-30.632-21.621c-1.097-1.861,11.587-28.18,14.899-29.009l30.239,18.785c3.057-.664,7.878-22.172,12.884-21.679,3.506.345,29.533,18.348,30.097,22.479.676,4.948-10.205,27.351-14.049,28.089l-31.06-18.712Z"/>
  </g>
  <path d="M334.395,471.553l-26.233-17.046,13.432-29.43c2.911-1.699,30.553,16.874,32.198,20.551,2.735,6.113-8.563,20.247-10.402,26.334.702,3.703,23.746,12.807,24.559,20.599.416,3.988-11.43,27.624-13.98,28.24l-31.912-21.702,12.338-27.547Z"/>
  <path d="M34.879,448.023c4.969,2.19,23.119,12.702,24.402,17.19,2.042,7.145-8.667,24.354-13.848,29.362l-3.31-.574-27.526-20.667,10.731-26.688L0,428.367l14.386-29.028c2.736-1.297,28.364,17.072,31.898,20.678l-11.404,28.006Z"/>
  <path d="M917.937,455.529c6.65-2.053,31.038,20.537,33.321,18.81,1.325-3.738,8.553-22.017,12.143-21.667,1.725.168,27.386,17.608,28.721,19.393,4.66,6.23-8.36,25.32-12.65,31.297l-30.232-18.746-13.227,21.579-31.084-22.587,13.008-28.079Z"/>
  <path d="M1042.928,136.856c-2.548,5.904-3.461,12.821-10.64,14.803l-197.381,75.368c2.078-7.669,3.378-16.521,12.086-19.176,61.627-20.476,122.024-47.822,183.549-68.121,4.035-1.331,7.961-3.244,12.386-2.874Z"/>
  <path d="M631.252,115.02c1.173-4.529-.007-15.813-6.462-14.522-1.095.219-4.673,9.781-13.524,12.729-13.571,4.52-14.569-3.355-22.553-2.316-5.245.682-10.977,6.497-14.938,9.901-2.649-1.798-1.743-2.136-1.543-4.381.506-5.665,4.65-13.533,8.824-17.404,13.861-12.853,21.066,4.079,36.457-4.268,2.175-12.094-8.252-20.271.658-32.097,3.31-.638,2.305.208,3.213,1.845,2.452,4.421,3.332,11.053,6.279,15.535,11.012,16.749,14.001,4.245,22.467-3.59,6.757-6.253,31.791-27.489,36.067-8.405,5.98,26.692-26.92,39.15-48.189,38.471l-6.758,8.501ZM647.246,90.282c5.325,1.857,31.878-6.641,30.537-12.339-5.729-11.358-34.158,9.284-30.537,12.339Z"/>
  <path d="M1185.485,453.982c.951.951-5.718,14.596-9.153,14.836l-153.763,59.341c-.872-.866,5.57-17.031,9.124-17.773l153.792-56.403Z"/>
  <path d="M935.256,308.507c-4.262-.784-2.703,4.756-5.132,8.665-5.827,9.378-18.675,12.759-25.177,2.022-6.321-10.437-.804-22.091-3.098-31.492-.396-1.622-4.103-1.883-5.215-3.921-1.803-3.307,2.653-11.467,5.298-13.714,11.999-10.194,5.571,18.618,5.654,23.089.244,13.165,10.639,24.193,20.42,10.256,9.167-13.063-7.117-30.34,3.635-42.887,10.065,9.914,1.915,42.644,17.846,44.802,15.489,2.099,4.383-12.032,2.141-18.267-3.303-9.186-6.962-22.795,2.547-29.474.637,20.652,15.827,31.083,7.36,53.17-6.18,16.123-22.875,13.348-26.28-2.249Z"/>
  <path d="M184.625,225.588c.709,18.746,14.381,28.411,8.33,48.32-5.837,19.204-20.251,18.183-27.955,1.141-4.793,8.968-12.454,22.135-24.544,15.807-12.983-6.796-5.762-26.68-8.164-36.614-.576-2.383-11.579-3.062-2.109-15.464,14.34-18.78,7.189,21.459,8.227,26.486,2.346,11.358,11.594,15.334,19.376,5.481,10.761-13.623-7.789-30.945,4.296-43.681,10.497,10.61.067,48.139,21.499,44.769,10.69-1.681-2.139-17.471-4.033-24.43-1.779-6.537-3.501-19.866,5.075-21.815Z"/>
  <path d="M970.206,122.294c-1.004-1.049,6.094-9.463,7.298-10.871,10.154-11.876,37.849-38.165,32.759-54.665-3.305-10.713-20.694-5.352-26.963.073-.713-10.482,5.497-27.384,15.649-31.616,14.055-5.859,26.306-.803,27.978,14.877,3.273,30.71-30.975,68.647-56.72,82.201Z"/>
  <path d="M1053.089,269.217c-4.053.781-2.932-3.43-6.731-5.672-6.264-3.698-17.928,5.879-14.798,11.248,16.699,13.777,26.462-2.911,41.911-8.472l-3.664,14.506-51.594,33.493c.562-7.833,3.361-16.712,11.615-18.938,2.066-2.913-6.918-6.046-8.807-7.888-13.811-13.463,22.925-51.663,34.219-38.583,5.454,6.317-.495,13.85-2.15,20.307Z"/>
  <path d="M629.809,472.879c-2.102-10.614-16.017-5.455-18.992,2.184,12.312,20.2,27.971,1.255,42.226-5.086l-2.864,13.851-50.932,34.155c-1.967-10.235,5.433-14.765,11.616-21.101-31.388-6.501,2.326-47.419,18.221-47.116,14.188.271,5.665,26.733.724,23.112Z"/>
  <path d="M488.667,211.042l-7.083,20.938c15.455,11.553,22.166,22.174,16.84,41.902-6.049,22.405-39.314,31.48-37.363.453.626-9.958,14.21-58.122,21.806-62.561,1.846-1.079,3.815-.78,5.801-.731ZM469.96,276.293c4.905,3.066,25.204-6.459,23.957-11.505-.679-3.677-17.325-14.824-18.972-14.462-5.736,6.679-8.636,17.611-4.985,25.967Z"/>
  <path d="M645.777,129.575l-5.864,21.033c.343,3.462,7.257,6.891,10.203,10.27,7.753,8.889,8.757,18.873,7.18,30.389-3.178,23.214-38.268,32.503-38.863,7.42-.29-12.229,13.527-58.062,22.235-66.233,1.588-1.49,2.508-3.424,5.108-2.879ZM649.689,180.914c-1.612-1.95-16.901-11.735-18.428-10.611-2.278,5.447-7.218,19.822-3.751,24.811,3.01,4.331,30.369-4.296,22.179-14.2Z"/>
  <polygon points="298.094 485.987 292.744 499.173 174.457 544.162 181.797 527.514 298.094 485.987"/>
  <polygon points="558.493 469.985 553.102 483.146 434.862 529.621 441.662 512.067 558.493 469.985"/>
  <path d="M203.529,80.107c-1.382,12.979-7.422,42.213-23.989,42.206-26.618-.011-14.839-55.864-10.198-71.316,4.202-13.992,11.39-28.22,18.934-40.71,1.897.935.058,3.994-.329,5.49-4.697,18.127-23.887,65.108-9.785,80.251,10.191,10.943,20.205-9.523,25.367-15.92Z"/>
  <path d="M462.169,457.182c3.824,6.522-9.198,25.837-13.479,31.617l-31.395-21.261c-.588-2.774,11.908-28.788,14.138-29.446,4.272.206,8.853,3.654,12.596,5.975,2.35,1.457,17.575,12.15,18.141,13.115Z"/>
  <path d="M199.179,411.802l-7.668,13.411-83.966,33.126c-.947-1.214,4.035-16.843,7.334-18.109l84.3-28.427Z"/>
  <path d="M1169.506,115.02c-1.256-6.655,1.626-13.282,1.486-19.555-.513-22.937-16.658-40.607-31.897-55.663l5.688-13.52c16.436,6.814,30.232,29.88,31.969,47.292,1.226,12.287,1.697,32.262-7.245,41.445Z"/>
  <path d="M788.721,200.464c9.169,8.6,15.339-6.335,18.75-11.77.93-1.483,2.998-4.467,2.692-.234-2.319,11.908-8.881,41.203-26.739,31.133-10.994-6.199-6.528-37.915-3.99-48.753,1.999-8.537,5.567-16.641,8.663-24.796l8.966-16.47c-2.226,14.39-19.892,60.055-8.342,70.889Z"/>
</svg>