<?xml version="1.0" encoding="UTF-8"?>
<svg id="Adam" xmlns="http://www.w3.org/2000/svg" viewBox="0 0 303.0502 303.4317">
  <defs>
    <style>
      

      @import url('../../CSS/SvgStyling.css');
      
    </style>
  </defs>
  
  <g class="content">
    <rect id="bg" class="bg" x="0" width="303.0502" height="303.4317"/>
    <path class="cls-1" d="M147.3694,143.958c-.3983-.6444-.724-1.1443-1.0227-1.6597-1.0179-1.7568-2.0753-3.4932-3.0243-5.2867-.9031-1.7068-1.4417-3.558-1.8373-5.4475-.7406-3.5369-.0823-6.8893,1.4231-10.0965,1.4167-3.0182,3.4193-5.6247,5.8755-7.877,1.0573-.9695,2.2394-1.7631,3.5091-2.4368,2.643-1.4022,5.4182-1.6679,8.3133-1.0505,2.1626.4611,4.2014,1.2624,6.1895,2.2103,3.4322,1.6364,6.6298,3.6672,9.7502,5.8232,2.984,2.0617,5.9191,4.1924,8.6251,6.615.8159.7304,1.5675,1.5373,2.3071,2.3469.5307.5808.8009,1.2794.8204,2.0973.087,3.6497-.2549,7.2464-1.3496,10.74-.3264,1.0415-.7787,2.0519-1.2587,3.0349-.6796,1.3917-1.7868,2.3017-3.2648,2.8415-2.8873,1.0545-5.7533,2.1694-8.6126,3.2986-2.7063,1.0688-5.3939,2.185-8.0868,3.2876-.4492.1839-.8831.4052-1.3331.6134-.0619.7014.3388,1.2107.4551,1.787.1401.6941.3031,1.3944.3335,2.0973.0451,1.0453-1.1196,2.2281-2.429,1.4755-.8042-.4622-1.5706-.9965-2.3219-1.5426-.4816-.35-.9048-.7803-1.3507-1.1716-.3968.109-.7182.1708-1.0203.284-13.1156,4.9133-25.5988,11.0612-37.1334,19.0548-5.5199,3.8254-10.7036,8.063-15.5277,12.7375-2.5695,2.4898-4.8673,5.2244-7.1348,7.9831-7.1191,8.6613-13.7904,17.6661-20.4375,26.6892-1.4987,2.0344-2.991,4.0742-4.524,6.0826-2.0419,2.6751-4.3553,5.0914-7.0375,7.1382-4.6246,3.5291-9.8129,5.5663-15.6488,5.825-6.7853.3007-12.3552-2.1576-16.5454-7.5297-4.2598-5.4614-6.7296-11.6472-7.3818-18.5692-.8984-9.5343.6356-18.7186,3.8542-27.6676,2.2977-6.3884,5.4508-12.3507,9.1556-18.0273.9041-1.3853,1.9658-2.6503,3.2119-3.7407.4899-.4287,1.0437-.8116,1.6251-1.1017.7974-.3979,1.5952.0898,1.6225.9872.0163.5365-.0473,1.1143-.2386,1.6105-.453,1.1752-.9529,2.3388-1.525,3.4605-1.3222,2.5925-2.7593,5.1276-4.0403,7.7397-2.7134,5.5331-5.0196,11.2278-6.5522,17.2148-1.0944,4.2752-1.7692,8.6092-1.7226,13.028.0313,2.9719.3577,5.9177,1.1985,8.7877.4814,1.6433,1.1434,3.2033,2.0439,4.662,1.63,2.6406,3.9479,4.4139,6.9026,5.2908,4.2061,1.2483,8.3475,1.0852,12.3627-.8104,2.6042-1.2295,4.9153-2.8946,7.1011-4.7493,3.5321-2.9969,6.6711-6.3783,9.5818-9.9656,3.7034-4.5643,7.3222-9.1971,10.9929-13.7881,4.3225-5.4063,8.6843-10.7813,12.9875-16.2028,5.043-6.3536,10.8006-11.9996,16.9759-17.2288,10.0134-8.4794,21.0752-15.2368,33.2775-20.0995.5586-.2226,1.1071-.4708,1.8652-.7946ZM157.0791,139.6c2.1148-.8424,4.1093-1.6035,6.0764-2.4299,1.9371-.8138,3.9699-1.4099,5.9493-2.4583-.3504-.3234-.5719-.559-.8239-.7556-2.3839-1.8599-4.8968-3.5249-7.6454-4.7932-1.1889-.5486-2.4388-.9827-3.6909-1.3724-1.5296-.476-3.1134-.6465-4.7133-.4472-.5388.0671-1.0875.1807-1.5918.3761-1.3641.5287-1.6904,1.4834-.9667,2.7403.2454.4261.523.84.8319,1.2223,1.9634,2.4298,3.938,4.8505,5.9149,7.2693.1687.2064.3812.3772.6596.6486Z"/>
    <path class="cls-1" d="M150.3931,163.7283c.6416-.242,1.178-.1347,1.7004.0438,1.1422.3902,2.3021.742,3.4122,1.2105,4.3547,1.8381,8.5771,3.9512,12.6963,6.2675.8599.4836,1.6818,1.0396,2.4937,1.602.4402.3049.9141.6203,1.0269,1.3399-1.419,1.4007-3.4409,1.1251-5.1664,1.7332-.1936.4249.2096.5466.4367.7166,3.0829,2.3076,6.3372,4.3521,9.6866,6.2461,6.472,3.6597,13.284,6.5628,20.2637,9.0937,4.7487,1.722,9.4844,3.4797,14.0901,5.5628,1.3999.6332,2.783,1.3085,4.1455,2.0187,4.4179,2.3028,7.2493,5.9451,8.8558,10.6016.9043,2.6213,1.2419,5.3423,1.3776,8.0937.2014,4.0853-.0788,8.1246-1.2379,12.0711-1.2023,4.0934-3.2561,7.644-6.483,10.5097-3.4945,3.1034-7.1151,6.0478-10.8256,8.8835-12.223,9.3414-24.6582,18.3883-37.5017,26.8629-5.6854,3.7514-11.4677,7.3466-17.5285,10.4725-2.3923,1.2338-4.8213,2.3867-7.3596,3.2928-2.6122.9325-5.2894,1.4915-8.0777,1.2096-4.3113-.4359-7.5278-2.5281-9.5296-6.4132-1.2498-2.4255-1.8898-5.0296-2.2292-7.7141-.7627-6.0324-.5795-12.0516.2432-18.0673.9793-7.1614,2.8377-14.093,5.3783-20.8467.4426-1.1765,1.0356-2.2997,1.6092-3.422.2433-.4761.54-.9772,1.2019-1.0124.666.3194.727.9299.6596,1.5414-.0961.8716-.2093,1.7489-.4158,2.5993-.518,2.1333-1.0582,4.2625-1.6521,6.3757-.9819,3.4935-1.8495,7.0097-2.2781,10.619-.4421,3.7232-.5742,7.4461.148,11.1556.3064,1.5741.8045,3.0782,1.6208,4.4682,1.4345,2.4429,3.6026,3.762,6.3626,4.2138,2.1627.3541,4.2658.0902,6.3489-.504,2.1173-.604,4.1456-1.4373,6.1438-2.3529,4.5017-2.0626,8.7848-4.5261,13.0021-7.1066,6.3742-3.9003,12.5579-8.0895,18.6776-12.3753,9.4934-6.6485,18.9983-13.2817,28.2554-20.2588,2.7187-2.0491,5.3744-4.1838,8.0165-6.3316.9759-.7933,1.836-1.7304,2.7364-2.6146.5291-.5196.5736-1.1276.3441-1.8224-.4615-1.3976-1.2653-2.5776-2.3571-3.5183-1.1613-1.0006-2.3761-1.9589-3.6601-2.7933-2.8619-1.8598-5.9221-3.3607-9.0941-4.6129-6.1782-2.4388-12.3715-4.8393-18.5629-7.2443-8.1876-3.1804-15.8301-7.3422-22.8436-12.6427-3.3819-2.5559-6.5187-5.3848-9.4741-8.4225-.6842-.7033-1.4397-1.354-2.2354-1.9275-.9193-.6626-1.3806-1.5018-1.4801-2.6164-.1611-1.8046-.4015-3.602-.5651-5.4065-.2032-2.2422-.3753-4.4874-.5329-6.7333-.049-.6986-.1245-1.4184.1569-2.0456Z"/>
    <path class="cls-1" d="M232.2813,66.1664c.7122.2526,1.437.4862,2.1443.7643,6.5405,2.5716,12.5091,6.1337,18.0438,10.4437,6.2791,4.8897,11.7317,10.5948,16.5896,16.8791,7.3358,9.4896,13.2889,19.7633,17.5161,31.0108,2.5396,6.7572,4.3718,13.7016,5.3864,20.8474.3778,2.6605.5714,5.3491.7893,8.0298.2761,3.3972.2988,6.8041.2016,10.2095-.399,13.9785-2.9886,27.4836-8.7758,40.2881-4.3633,9.654-10.203,18.3123-17.6384,25.8657-7.9605,8.0869-17.2556,14.2284-27.6377,18.7613-6.864,2.9969-13.9942,5.1793-21.2587,6.9428-2.2922.5564-4.6061,1.0277-6.9199,1.4885-.8027.1598-1.634.1992-2.4548.2349-.3596.0157-.7257-.1155-1.2234-.204.1131-.3425.1238-.6486.2823-.8057.5823-.577,1.162-1.181,1.8363-1.6362,1.8196-1.2281,3.6598-2.4307,5.5407-3.5622,8.658-5.2087,17.3533-10.3558,25.9948-15.5918,6.5501-3.9688,4.5565-2.5152,10.1439-7.545,7.2374-6.5152,14.0213-13.4684,20.1497-21.0458,4.7424-5.8636,8.996-12.0596,12.623-18.6781.1583-.2889.3096-.5818.4703-.8694,1.5772-2.8228,2.4347-5.8445,2.758-9.0677.4333-4.3205.7758-8.6412.8145-12.984.0832-9.3439-.9421-18.52-4.0323-27.4014-1.9079-5.4834-4.5204-10.5954-7.8194-15.367-3.2891-4.7574-7.0166-9.153-11.0109-13.3238-5.6689-5.9193-11.7618-11.3786-18.1168-16.5488-.383-.3116-.7751-.6127-1.1731-.9049-.0778-.0571-.2025-.0504-.3781-.0892.0018.6931.3224,1.277.5415,1.8768,3.2031,8.7668,6.456,17.5157,9.6188,26.2969,4.8744,13.5333,9.7009,27.0839,14.519,40.6374,1.0108,2.8433,2.0563,5.6885,2.6053,8.6672.6567,3.5628,1.2259,7.1419,1.8128,10.7172.0685.4174.0093.8559.0093,1.4642-.2665-.2186-.4809-.3112-.5558-.4698-.3747-.7932-.744-1.5917-1.0591-2.4099-2.7037-7.0195-5.395-14.0439-8.0907-21.0665-9.0315-23.529-18.0613-47.0586-27.0988-70.5853-.71-1.8484-1.3136-3.7235-1.7656-5.6534-1.1015-4.7036-2.2384-9.3989-3.3576-14.0984-.1117-.4692-.3349-.9385-.0244-1.5175Z"/>
    <path class="cls-1" d="M221.415,62.9095c.3618,1.3899-.1991,2.3608-.8631,3.2991-.125.1766-.2945.327-.4621.4673-1.814,1.5179-3.6799,2.9652-5.7692,4.0935-2.2569,1.2187-4.6783,1.8644-7.2304,2.0711-3.513.2845-8.3457-2.1676-9.9981-5.5703-.2116-.4358-.4575-.8549-.801-1.4922-.2319.7706-.3913,1.3289-.5677,1.8819-1.0016,3.1392-3.1772,4.9296-6.3917,5.4506-2.6689.4326-4.6156-.7941-5.4652-3.3709-.2029-.6155-.3546-1.2479-.5638-1.9939-.436.1701-.7839.2835-1.1127.4374-7.3603,3.4459-15.1159,5.5983-23.0765,7.0966-3.511.6608-7.0411,1.1886-10.5981,1.4872-4.7097.3954-9.4256.5883-14.1547.2366-2.5754-.1915-5.1491-.3628-7.7005-.7751-1.7911-.2894-3.5544-.6861-5.2703-1.2927-1.7801-.6293-3.1679-1.7233-4.1497-3.3353-.4285-.7037-.8544-1.4092-1.2961-2.1045-.2351-.37-.4832-.7348-.7581-1.0756-.4165-.5164-.9537-.6809-1.6169-.5434-.7809.1619-1.4351.5406-2.0187,1.0564-1.2071,1.0671-2.2067,2.3026-2.8733,3.7754-.6338,1.4003-1.1977,2.8323-1.8292,4.2337-.428.9497-.8654,1.9036-1.4021,2.7931-.3622.6003-.8453,1.1613-1.3789,1.6175-1.085.9278-2.3203.9298-3.4857.1082-.7372-.5197-1.2346-1.2428-1.6553-2.022-1.2762-2.3639-1.917-4.8938-1.987-7.577-.0196-.7494.1092-1.5127-.0866-2.2495-.5475-.0909-.7106.3277-.9861.5577-.7564.6312-1.4499,1.3615-2.2762,1.8807-2.3276,1.4624-4.7173.9888-6.4111-1.1932-.9368-1.2067-1.4259-2.5878-1.4991-4.1134-.0691-1.4396.1184-2.85.5061-4.2352.6243-2.2308,1.5369-4.3457,2.5933-6.4012.0704-.137.2068-.24.3212-.3686.3774.1764.212.4709.1448.6746-.327.9905-.7129,1.9617-1.0307,2.9549-.4681,1.4627-.9681,2.9216-1.3144,4.4146-.2075.8944-.2507,1.8577-.1882,2.7779.1488,2.1916,1.9108,3.4132,4.0422,2.9076,1.3745-.3261,2.5477-1.0361,3.5692-1.9689,1.0531-.9616,2.0399-1.9973,3.0328-3.0228,1.2607-1.3021,2.4495-2.6774,3.7551-3.9319,3.6403-3.4979,7.7727-6.2635,12.4694-8.1569.2997-.1208.5908-.2628.9004-.4015.0664-.7086-.3631-1.1872-.6104-1.7104-.4638-.9811-.593-1.9945-.4513-3.0513.3414-2.547,2.5321-3.9343,4.9348-3.0478,2.0361.7513,3.774,2.0071,5.315,3.5258.6748.6651.9849,1.4468.5938,2.3967-.1038.2521-.1492.5278-.2288.7905-.515,1.6992-.5174,1.6934-2.2386,2.2299-1.3592.4237-2.7135.8634-3.9488,1.2573-.508.5899.0127,1.3498-.6219,1.7775-.6276-.0056-.5073-.7835-1.0038-.9841-.1179,0-.2969-.0469-.4375.0068-5.0181,1.9151-9.7398,4.3192-13.5316,8.2478-1.1443,1.1856-2.2839,2.3759-3.4432,3.5466-.528.5332-.7992,1.1205-.8112,1.8952-.0315,2.0399.0425,4.0653.5422,6.0523.1332.5295.2945,1.0672.5457,1.5473.2503.4785.5703.9533.9633,1.3182,1.2676,1.1773,2.9635,1.121,4.0839-.1871.5627-.657.9998-1.444,1.3855-2.2257.8258-1.674,1.5811-3.3829,2.3656-5.0773.7434-1.6055,1.6424-3.1193,2.8839-4.3856.6473-.6602,1.3684-1.283,2.1526-1.7661,1.3564-.8355,2.4639-.6134,3.4927.625.4882.5877.8782,1.259,1.2919,1.9057.4141.6473.7926,1.3174,1.2043,1.9664.7383,1.164,1.7775,1.9565,3.11,2.2887,1.5431.3847,3.0958.7487,4.6621,1.0184,3.5245.6069,7.0885.8694,10.659.9332,13.2913.2377,26.2752-1.6401,38.9203-5.776,2.5088-.8206,4.9404-1.8308,7.3055-3.0034.4812-.2386.9815-.4383,1.4217-.6332.4179.3012.2992.6444.3051.9531.0124.6583-.0475,1.325.0364,1.9735.1928,1.4896,1.1161,2.412,2.5929,2.5334,1.7374.1428,3.3911-.2104,4.8931-1.1326,1.0293-.632,1.681-1.5689,2.0388-2.7046.4152-1.3177.6102-2.6774.6243-4.057.0732-7.2021-.1922-14.3909-1.0176-21.5485-.2828-2.4525-.7319-4.8866-1.1317-7.3247-.2624-1.6002.0052-3.3853.8097-4.9201.4838.097.5027.5473.5788.8758.4955,2.1385,1.0185,4.2737,1.4133,6.4318.9716,5.3109,1.2087,10.6883,1.3569,16.0729.0876,3.1834.1942,6.3679.6153,9.5309.1817,1.3647.4421,2.71.9881,3.9839.4396,1.0257,1.0752,1.8766,2.129,2.4572.1373-.5756-.1719-.9345-.332-1.319-.9846-2.3639-.8792-4.7533.0145-7.0751,1.1468-2.9794,3.4308-4.6362,6.5799-5.0278,3.628-.4512,6.8433.589,9.666,2.8825.1902.1546.3236.3792.6905.8204-.6155-.1291-.9306-.1593-1.2204-.2614-4.4307-1.5613-8.6713-.7589-12.7907,1.1012-1.8646.842-1.7277,1.0089-1.3598,2.8161.4839,2.3775,1.6953,4.4158,3.5924,5.9546,2.2128,1.7949,4.695,2.2764,7.4131,1.2451,2.4394-.9256,4.5974-2.3265,6.6617-3.8917.3819-.2896.7755-.5638,1.2794-.929ZM119.9632,49.7751c-1.0927-.9702-2.2209-1.3609-3.3664-1.7096-.5179-.1577-1.0499-.3279-1.569.006.181,1.2513.5325,2.0217,1.4289,3.0954,1.1198-.297,2.2615-.6045,3.5065-1.3917Z"/>
    <path class="cls-1" d="M123.281,214.5465c-.1159.6779-.2088,1.0979-.2568,1.5229-.2673,2.3682-.9485,4.6145-1.9212,6.7851-.5925,1.3221-1.4039,2.4781-2.4161,3.5058-1.7003,1.7263-3.5644,3.2626-5.4893,4.7258-3.7624,2.8601-7.6801,5.4966-11.6616,8.0393-5.5532,3.5464-11.085,7.1271-16.6701,10.6226-8.1751,5.1165-6.2025,3.9999-13.9667,6.9086-5.5,2.0605-11.0579,3.9513-16.6695,5.6828-.7805.2409-1.5978.3714-2.4057.5076-.1698.0286-.458-.0914-.5437-.2327-.1774-.2924.0643-.5213.2937-.6696.4141-.2677.8471-.5075,1.2801-.7444,13.5388-7.407,26.8233-15.2488,39.9-23.4405,5.2108-3.2643,10.4268-6.5272,15.4241-10.1201,2.9445-2.117,5.8462-4.2855,8.4854-6.7859,1.324-1.2544,2.4728-2.6431,3.4426-4.1873.9428-1.5013,1.6651-3.0828,2.0083-4.8368.6618-3.3818,2.0154-6.4962,3.818-9.4121.6023-.9744,1.3128-1.8994,2.0813-2.7498,1.4219-1.5734,3.2064-1.8499,5.1069-1.0392.8966.3825,1.7658.9154,2.5169,1.5377,2.8036,2.3228,4.6686,5.2342,5.1767,8.8966.1882,1.3563.2873,2.7286.3505,4.0971.0326.7062-.0291,1.436-.1779,2.1272-.2828,1.3137-.8831,2.2482-2.6338,2.4841-4.3884.5913-8.5233-.1737-12.506-1.9971-.7927-.3629-1.5736-.7519-2.5661-1.2277ZM135.9133,210.9342c.0933-1.0425-.2935-1.9424-.6898-2.8352-1.469-3.3093-4.951-2.9967-6.9637-1.6878-.2241.1457-.421.3586-.5778.578-.6697.9367-.4638,1.7637.556,2.2911.1945.1006.4012.1784.6046.2609,1.7388.7053,3.5481,1.1559,5.3947,1.4579.5328.0871,1.082.155,1.676-.0649Z"/>
    <path class="cls-1" d="M25.4296,159.4042c2.3546-.0051,3.9639-.7748,5.2491-2.1571,1.5327-1.6485,2.9759-3.377,4.1767-5.2939.3192-.5096.6658-1.0099,1.0588-1.4634.425-.4904.962-.4549,1.4287.0165.3205.3237.5533.7034.5375,1.1639-.0225.655.0017,1.3358-.1699,1.957-.4817,1.7429-.9914,3.4833-1.6048,5.1834-.8393,2.3263-1.8843,4.5668-3.1954,6.6727-.9322,1.4972-1.9941,2.8913-3.2854,4.1028-2.0009,1.8773-4.3799,3.0265-7.1045,3.0527-3.8153.0367-6.9934-1.3097-8.7725-4.9738-1.9367-3.9885-3.1222-8.1807-3.5565-12.6064-.4021-4.0973.0721-8.1186.8776-12.1071,2.2227-11.0067,5.5907-21.6684,9.839-32.0563,2.0574-5.0307,4.2827-9.9874,6.6856-14.8617.7266-1.4739,1.5813-2.8874,2.426-4.2993.5369-.8973,1.2101-1.7016,2.061-2.3315.5612-.4155,1.14-.2005,1.1839.4869.038.5933.0223,1.2212-.133,1.7891-.3321,1.215-.6755,2.4424-1.1793,3.5925-3.8603,8.8135-6.8551,17.9415-9.8709,27.0608-1.223,3.6981-2.4151,7.4116-3.4504,11.1651-1.0235,3.7109-1.5908,7.5134-1.6272,11.3813-.0282,2.9903.2771,5.9186,1.4383,8.7105.4448,1.0694.9565,2.1033,1.6991,2.9977,1.4826,1.7855,3.3827,2.7484,5.2885,2.8176Z"/>
    <path class="cls-1" d="M113.58,135.0807c-1.5819-.1069-2.9997-.7864-4.5983-.9997-.1478.1832-.3601.3663-.4727.5979-1.648,3.3889-3.9142,6.3503-6.3516,9.1906-4.4493,5.1848-9.4097,9.8337-14.7519,14.0876-7.8732,6.2693-16.1787,11.9186-24.7024,17.2522-3.9555,2.4751-7.9686,4.8586-11.9726,7.2553-.4149.2483-.9528.9227-1.405.306-.3218-.4389.3363-.8375.6623-1.1741.4576-.4725.9355-.9328,1.4493-1.3423,7.9453-6.3311,15.8788-12.6772,23.8561-18.9678,4.4408-3.502,9.0001-6.8541,13.4273-10.3729,4.3441-3.4528,8.5228-7.1079,12.3048-11.1811,1.4917-1.6065,2.8412-3.3458,4.2399-5.0375.275-.3326.4785-.7244.761-1.1601-.3502-.3327-.7542-.45-1.1461-.6066-1.5786-.6308-3.1781-1.2199-4.7145-1.9422-.985-.4631-1.9241-1.0649-2.7938-1.7233-1.6535-1.2515-2.3957-2.9351-2.1853-5.0398.1213-1.2131.3577-2.3956.7847-3.5261,1.4535-3.8484,3.5764-7.2826,6.4757-10.2176.7769-.7864,1.6551-1.4421,2.6605-1.9154.7548-.3553,1.5464-.5795,2.3847-.5324,1.6048.09,2.8024.8588,3.6146,2.2411.7073,1.2036,1.0268,2.5346,1.3016,3.8839.5022,2.4659.3327,4.9192-.1374,7.3634-.3108,1.6159-.6619,3.224-1.0134,4.9251,1.3712,1.1086,3.2597,1.1545,4.7057,2.1092.285.8346-.0346,1.5657-.2891,2.2697-.5362,1.4839-1.009,3.0112-2.0939,4.2566ZM109.0129,125.7451c.3352-1.3514.2363-2.6636.1165-3.9636-.1476-1.6023-.6634-3.0973-1.5236-4.4679-1.3671-2.1782-2.5383-2.5888-4.8133-.7944-1.1199.8832-2.0615,1.9649-2.8597,3.1554-.2121.3163-.3957.6592-.5405,1.0113-.2634.6404-.1979,1.0514.3419,1.4589.5634.4255,1.1613.8546,1.8121,1.1061,2.1936.8478,4.4155,1.6233,6.6328,2.4086.2435.0863.5279.0573.8337.0855Z"/>
    <path class="cls-1" d="M152.8445,49.0478c-.0257.3469-.0305.7109-.0827,1.068-.299,2.0485.4952,3.2461,2.5019,3.7695,1.3779.3594,2.7206.2281,4.0433-.2566,1.2593-.4615,2.3508-1.178,3.275-2.1494.6813-.7161,1.3522-1.4426,2.0478-2.1445.2555-.2578.4665-.6254,1.0178-.5731-.0679.4252-.1485.8361-.1972,1.2508-.2574,2.1937,1.4012,3.7025,3.577,3.2719,1.0639-.2105,1.9809-.7181,2.6754-1.518.7515-.8655,1.3904-1.829,2.0743-2.7528.2468-.3334.4817-.6755.8545-1.1999.1196.4131.2098.5999.222.7918.0278.4369-.0265.8819.03,1.3135.2345,1.7911,1.6188,2.9533,3.4279,2.8423,1.2897-.0792,2.45-.5651,3.4984-1.3191.429-.3085.6552-.745.7298-1.2452.0807-.5413.1487-1.0922.1401-1.6376-.0252-1.5918-.0483-3.1856-.1498-4.7737-.2768-4.3283-.6146-8.6528-.8885-12.9813-.267-4.2185-.4723-8.4409-.7358-12.6596-.0475-.7614-.182-1.5314-.3919-2.2643-.1923-.6714-.1905-1.2869.0561-1.9269.2728-.7079.4676-1.4527,1.0362-2.1555.2065.1885.4213.2928.4841.4557,1.006,2.6098,1.9967,5.2255,2.9747,7.8459.0681.1824.0089.4124.0089.613-.7739.2708-.9513-.73-1.7093-.6217-.1853.5343-.0893,1.1315-.0544,1.7069.1129,1.8633.2644,3.7241.3923,5.5865.3385,4.9298.6272,9.8635,1.0267,14.7883.2065,2.5463.0171,5.0447-.4718,7.5312-.2983,1.5168-.816,2.9632-1.6404,4.2846-.5889.9441-1.3117,1.7627-2.275,2.3411-1.9834,1.1909-4.3316.7305-5.7053-1.1391-.3227-.4392-.5562-.9437-.8336-1.4164-.1625-.277-.3308-.5506-.5682-.9447-.2901.5456-.4933.992-.7533,1.4023-.4099.6469-.8071,1.313-1.3018,1.8924-.7393.866-1.7179,1.3444-2.8629,1.464-1.745.1822-3.1316-.5886-3.8434-2.1978-.2828-.6393-.4786-1.3171-.7648-2.1196-.3689.425-.6506.7447-.9272,1.069-1.0765,1.2622-2.2631,2.3955-3.7449,3.1785-1.4605.7717-2.9765,1.0479-4.613.6138-1.4076-.3734-2.3105-1.2103-2.6714-2.6169-.1624-.6329-.2889-1.275-.4607-2.0421-.3109.1483-.5828.2023-.7402.3663-.6843.7126-1.3243,1.4675-2.0007,2.1881-1.3897,1.4803-3.0552,2.5146-5.0609,2.8955-.7429.1411-1.5379.1868-2.2854.0906-2.0171-.2595-3.4619-1.32-4.1151-3.306-.2397-.7287-.4159-1.478-.6362-2.2134-.0902-.3012-.2205-.5904-.4282-1.1364-.3283,1.2178-.622,2.1477-.8274,3.0967-.9648,4.4586-5.2915,8.1045-8.66,8.9469-1.9158.4791-3.8156,1.022-5.7316,1.5003-.6173.1541-1.2601.2768-2.0824.1241.3847-.5117.8351-.7028,1.2301-.9417,2.5839-1.5626,5.1975-3.0775,7.7538-4.6838,1.1091-.697,2.1782-1.495,3.1385-2.3842,2.3755-2.1995,3.7915-4.961,4.3174-8.1445.2226-1.3481.3463-2.7272.3556-4.0934.0381-5.5488-.2422-11.0872-.7014-16.6162-.0582-.7012-.1935-1.396-.3047-2.1749-1.3784.2008-2.4791.8354-3.6461,1.2577-1.1346.4106-2.2439.8909-3.3666,1.3351-1.166.4613-2.3346.9158-3.6291,1.423-.0689-.4335-.1953-.7453-.1509-1.0304.2219-1.4241.7499-2.5368,2.3342-3.03,2.2492-.7002,4.4321-1.6142,6.6415-2.4415.4565-.1709.9052-.3625,1.3989-.5612,0-.3805.0397-.705-.0067-1.0167-.2264-1.5198-.4786-3.0358-.7163-4.554-.2525-1.6123.1994-3.1009.7449-4.7343.4815.4007.5723.8257.6608,1.2225.466,2.0883.911,4.1813,1.3628,6.2728.1255.581.2492,1.1624.3756,1.7525.7938.0529,1.3695-.3096,1.9703-.5306,5.664-2.0839,11.3203-4.1887,16.9809-6.2819,1.1319-.4186,2.2706-.8192,3.4106-1.2151.2379-.0826.4958-.1077.9036-.1924-.197,1.0896-.5509,1.9583-1.1649,2.6286-.3792.414-1.0173.6242-1.5732.8371-2.7157,1.0401-5.4486,2.035-8.1643,3.0749-3.5359,1.3538-7.0623,2.7325-10.5901,4.1072-.4528.1764-.8898.3933-1.3392.5937-.0209.2861-.0681.5042-.0478.7159.6131,6.4005.6646,12.828.9379,19.2449.0584,1.3706.1404,2.7465.3316,4.103.1366.969.3919,1.9411.7416,2.8556.4963,1.2978,1.5057,1.9716,2.9267,2.0086,2.4629.064,4.6688-.6223,6.5241-2.2649,1.0683-.9458,2.0635-1.9737,3.1125-2.942.3459-.3193.6623-.7693,1.3685-.5772Z"/>
    <path class="cls-1" d="M186.0955,166.6483c-.201.8504-.0397,1.6108.0323,2.3632.1748,1.8272-.0084,3.6204-.4792,5.3838-.14.5245-.366,1.0345-.6185,1.5167-.1161.2217-.3729.3897-.5986.5288-.2888.178-.7274-.0694-.736-.3973-.0057-.2168-.0128-.446.0471-.6501.9272-3.1574.3005-6.2004-.6833-9.2109-.8963-2.7428-2.3377-5.1983-4.0414-7.51-1.2843-1.7426-1.298-1.7489-.6073-3.7401.172-.4957.2142-1.0893.7884-1.4329.6522.4333,1.0806,1.0898,1.4948,1.7152,1.9839,2.9959,4.8669,4.6711,8.1912,5.7484,2.5197.8166,5.1142,1.2756,7.7304,1.5799,3.2737.3809,6.5626.5372,9.8645.4465,5.9635-.1638,11.785-1.1767,17.5146-2.7903,6.6203-1.8645,12.9798-4.4187,19.2341-7.2536.9492-.4302,1.9099-.8351,2.8683-1.2447.4725-.2019.9467-.2317,1.4375-.025.6114.2576,1.028.6825,1.0301,1.3527.0022.7089-.043,1.4286-.1689,2.1252-.3333,1.8432-.9324,3.6123-1.6324,5.3462-1.4211,3.5201-3.1642,6.8817-5.0454,10.1735-.207.3622-.4994.6757-.7326.9856-.5736-.2087-.627-.6167-.5724-.9832.1044-.7011.2438-1.4049.4553-2.0804.4953-1.5823,1.3003-3.022,2.1698-4.4245,1.0173-1.6409,1.8707-3.3569,2.4025-5.2189.1011-.354.1253-.73.1796-1.0631-.466-.3542-.7954-.0757-1.1208.0697-2.1546.9628-4.2885,1.9735-6.458,2.9012-6.4207,2.7454-12.9875,5.056-19.8254,6.5422-5.9342,1.2899-11.9267,1.8909-17.9954,1.4359-3.8367-.2876-7.6259-.9267-11.3818-1.7593-.6428-.1425-1.2824-.302-1.9292-.4229-.2497-.0466-.5153-.0076-.814-.0076Z"/>
    <path class="cls-1" d="M83.2074,106.8622c-.3246-.3117-.6133-.5491-.854-.828-.6094-.706-1.1807-1.4453-1.7984-2.1437-.6321-.7148-1.4233-1.1779-2.3525-1.439-.8807-.2475-1.6177-.0513-2.2873.5348-.632.5531-1.123,1.2218-1.4306,1.989-.4686,1.1685-.9344,2.3473-1.2702,3.5581-.8974,3.2357-1.2769,6.5659-1.6722,9.8902-.4405,3.7049-.8514,7.4148-1.678,11.06-.1692.7461-.3949,1.4877-.6795,2.1972-.3151.7855-.9384.9015-1.5424.2709-.4491-.4688-.8613-1.0095-1.1486-1.5882-.462-.9305-.8479-1.9046-1.1922-2.8862-.49-1.3974-.8876-2.8271-1.37-4.2275-1.2704-3.6877-3.1964-6.9746-6.0248-9.6972-.158-.152-.3202-.3008-.4915-.4372-.0831-.0661-.1916-.1003-.2887-.1489-.0999.0343-.2503.0383-.2921.1077-.5738.953-1.3579.9576-2.2778.5706-1.9293-.8118-3.7762-1.7701-5.4615-3.0171-.3947-.292-.745-.6476-1.0965-.9935-.5251-.5167-.8158-1.1417-.9185-1.8833-.2128-1.5363-.2329-3.0668.0859-4.5849.1112-.5292.293-1.0644.5517-1.5371.4478-.8184,1.1589-1.2909,2.1274-1.3329,1.0556-.0457,2.075.0676,3.059.4909,1.3291.5717,2.485,1.3936,3.5458,2.3608,1.3858,1.2634,2.5841,2.6928,3.6566,4.2258,2.1128,3.02,4.0051,6.1627,5.3819,9.5998.4891,1.2208,1.0807,2.401,1.6388,3.5935.1583.3382.3638.6543.6583,1.1769.1872-.4705.3494-.7327.3948-1.0139.594-3.6828,1.1193-7.3774,1.7708-11.0498.4594-2.5898,1.0215-5.1661,1.6623-7.7171.318-1.266.9112-2.4638,1.393-3.6873.0998-.2533.2495-.4886.3896-.7243,1.766-2.9697,4.0093-3.4612,6.9997-2.0895,1.6741.7679,2.9799,2.0384,4.1093,3.4831.3457.4422.5858.9276.5664,1.5083-.0647,1.937-.4454,3.8091-1.2061,5.5928-.1192.2795-.3917.4936-.658.8163Z"/>
    <path class="cls-1" d="M170.4244,236.4191c.334-2.2215.623-4.4509,1.0124-6.6627.6182-3.5115,1.2717-7.0176,1.9737-10.5133.3569-1.7772.9008-3.5174,1.7572-5.124.4341-.8145.9749-1.5927,1.5788-2.2909.7572-.8755,1.7909-1.2198,2.9574-1.1721,1.1204.0458,2.1649.3331,3.133.8958,1.3479.7835,2.4596,1.8329,3.4174,3.0532.4969.6331.7338,1.3527.632,2.1535-.1939,1.5262-.4661,3.0384-1.0015,4.4881-.1508.4083-.325.822-.903,1.011-.1961-.1727-.4577-.3577-.6625-.5922-.6135-.7023-1.1903-1.4368-1.809-2.1344-.5563-.6272-1.2566-1.037-2.0509-1.3248-.9974-.3615-1.8887-.1826-2.5544.5801-.5683.6511-1.0578,1.4056-1.4296,2.187-.9266,1.9477-1.4044,4.0473-1.732,6.1623-.5038,3.2525-.8658,6.5268-1.3516,9.7823-.3885,2.603-.8472,5.1964-1.3281,7.7842-.1473.7927-.3387,1.613-1.0042,2.2685-.6746.0144-1.1274-.4056-1.4609-.8909-.4318-.6285-.8311-1.3009-1.1117-2.0071-.5057-1.273-.9378-2.5772-1.3551-3.8829-.6188-1.9363-1.2684-3.8556-2.2241-5.6606-1.0874-2.0538-2.4257-3.9177-4.0888-5.5427-.2702-.2641-.5806-.4869-.9576-.7994-.3708.3387-.7173.6553-1.1152,1.0188-.3552-.0838-.732-.1368-1.0834-.2615-2.0306-.7205-3.8927-1.7559-5.6477-3.0037-1.3087-.9305-2.0155-2.155-1.9672-3.7656.0344-1.1478.1019-2.2967.2172-3.4387.0428-.4241.2167-.8543.4131-1.2397.4835-.9487,1.2386-1.4811,2.3536-1.5137,1.2434-.0364,2.3931.24,3.4829.8146,1.3746.7247,2.5964,1.666,3.6155,2.8253,1.0851,1.2343,2.1487,2.5017,3.0843,3.8501,1.8796,2.709,3.5445,5.5461,4.766,8.6286.4844,1.2225,1.0783,2.4023,1.6399,3.5932.1325.281.336.5284.5069.7912.0991-.0223.1982-.0447.2973-.067Z"/>
    <path class="cls-1" d="M228.2914,207.012c-.4391-.3308-.4571-.78-.4814-1.2177-.1497-2.6965.8144-4.9404,2.7895-6.7564.5582-.5133,1.1592-.9801,1.843-1.5542-.4355-.306-.7718-.5533-1.119-.7843-1.3784-.9171-2.3184-2.1785-2.8317-3.736-.9723-2.9505-1.0289-5.9376-.1372-8.9116.6581-2.1951,2.0146-3.8752,4.0262-5.0039,2.4081-1.3511,5.0297-1.9037,7.7522-1.8644,2.5675.0371,4.2014,1.6242,4.4589,4.1677.1274,1.2577.1559,2.5236-.3357,3.736-.4773,1.1769-1.3395,1.8092-2.6479,1.9692-.2119-.3787-.4098-.6972-.5742-1.032-.8416-1.7138-2.296-2.4685-4.1208-2.5294-1.0981-.0366-2.1927.163-3.2202.5828-1.3952.57-2.0481,1.5704-1.9902,3.084.077,2.0132,1.1027,3.3942,2.9271,4.2009,1.4374.6356,2.9679.7464,4.5107.7827,1.802.0424,3.4597-.3962,4.9997-1.3611,1.6735-1.0486,3.3845-2.0381,5.0919-3.0314.5527-.3215,1.0676-.8018,1.7975-.6421.3555.5334.1822,1.0854.0553,1.6015-.3275,1.3313-.7321,2.6436-1.0586,3.9751-.2429.9903-.8112,1.5558-1.7628,1.9738-2.5097,1.1025-4.9897,2.2811-7.4296,3.5308-1.7062.874-3.3479,1.881-4.9804,2.89-2.2023,1.3612-4.2173,2.9662-6.0192,4.835-.4451.4616-.8531,1.0126-1.543,1.0949Z"/>
    <path class="cls-1" d="M232.6834,96.1514c.2061,1.4478-.2192,2.6802-.9789,3.7723-.2894.416-.8548.6685-1.3343.9192-3.5,1.8298-7.0131,3.6346-10.5164,5.4581-6.0824,3.1657-12.2266,6.2191-18.1388,9.6989-2.9769,1.7522-5.8698,3.6473-8.8011,5.477-.278.1735-.5541.3518-.8434.5045-.0835.0441-.2101.0068-.3692.0068-.5806-1.2575-.3577-2.543-.0487-3.8186.1211-.4997.5022-.8323.9409-1.0965,1.0811-.6508,2.1471-1.3269,3.2343-1.9672,11.4479-6.7424,23.225-12.8551,35.285-18.4256.3483-.1609.7024-.3099,1.0585-.4525.0969-.0388.2114-.0338.5121-.0764Z"/>
    <path class="cls-1" d="M104.0095,244.039c.3684.7023.1479,1.2745-.0563,1.8348-.3378.927-.7355,1.8332-1.049,2.7679-1.71,5.0985-3.2236,10.252-4.1936,15.5494-.4851,2.6494-.7684,5.3175-.5499,8.0185.0716.8855.264,1.736.684,2.5214.9167,1.7139,2.5498,2.1031,4.1468.9991.8439-.5835,1.3377-1.4307,1.7685-2.3301.2588-.5404.5194-1.0834.8336-1.5916.0794-.1285.3726-.1841.5572-.1662.1108.0107.2734.2205.2882.3547.0479.4323.0916.8772.0413,1.3061-.2307,1.9689-.6886,3.89-1.4363,5.7258-.7332,1.8003-2.1216,2.8907-3.9793,3.3923-1.8339.4951-3.2498-.0744-4.1818-1.7162-1.1574-2.0389-1.7191-4.2671-1.9169-6.5836-.2683-3.1422.0244-6.2431.8061-9.2995,1.4002-5.4737,3.0995-10.858,4.8316-16.2328.5143-1.5959,1.3433-3.0016,2.5828-4.1401.2133-.1959.5368-.2719.8232-.41Z"/>
    <path class="cls-1" d="M132.3661,55.4082c-.1844-.973-.3448-1.6086-.4198-2.254-.2456-2.1134-1.0123-4.0319-2.1204-5.8261-1.187-1.9221-2.5942-3.6752-4.1897-5.2699-2.483-2.4817-4.9987-4.9306-7.4854-7.4086-1.0488-1.0451-2.0701-2.1185-3.0842-3.1974-2.0321-2.1619-3.8989-4.4566-5.5451-6.9295-.3936-.5913-.7866-1.2188-1.3128-1.677-.6611-.5757-.8377-1.2348-.7746-2.0398.0628-.8021-.0124-1.6171.1167-2.3893.2179-.0244.3581-.0857.4193-.0404,2.0249,1.4977,4.0443,3.0027,6.0548,4.5196.1084.0818.1322.2757.2387.5143h-2.1647c.2309.3992.3393.6939.5353.9085,1.4426,1.5787,2.8658,3.1779,4.3653,4.7016,2.9627,3.0106,5.9854,5.9621,8.9549,8.9661,2.0489,2.0727,3.9156,4.2979,5.3536,6.8521.8125,1.4431,1.4624,2.9513,1.6907,4.6051.0819.5934.1244,1.2042.0833,1.8-.0678.9837-.2047,1.9637-.3418,2.9411-.0432.3083-.1802.6034-.374,1.2236Z"/>
    <path class="cls-1" d="M188.8193,62.5068c0-.3306-.0201-.599.0031-.8636.2927-3.3458.1658-6.6862-.0954-10.0273-.1539-1.9686-.2599-3.9409-.3924-5.9112-.4231-6.2934-.8513-12.5864-1.2702-18.8801-.0583-.8757-.1006-1.7539-.1054-2.6312-.006-1.1052-.1304-2.1853-.4515-3.2466-.0918-.3034-.1661-.6622-.0925-.9567.264-1.0562.6228-2.0834,1.2384-3.0605.1858.1546.3609.2276.4076.3497,1.0371,2.7129,2.0641,5.4297,3.0766,8.1518.0688.185.009.4179.009.7995-.6238-.3705-1.1113-.6601-1.5739-.9349-.3674.2094-.2906.5096-.2732.7592.2391,3.4476.4879,6.8946.7386,10.3414.1433,1.9693.3009,3.9376.4405,5.9071.217,3.0638.4636,6.1263.625,9.1931.1836,3.4898-.2819,6.8964-1.5463,10.1741-.1223.3171-.1182.3186-.7379.8361Z"/>
    <path class="cls-1" d="M141.236,34.9239c-.3783-1.183.1433-2.1594.747-3.076.186-.2825.6146-.4392.9627-.5751,1.4292-.5576,2.8683-1.0903,4.3072-1.6226,9.1996-3.4035,18.3999-6.8049,27.6007-10.2049.5135-.1897,1.0287-.3781,1.5533-.5326.1882-.0554.4064-.0089.7106-.0089-.1303,1.0431-.5445,1.8725-1.1514,2.5587-.3006.3399-.8348.4996-1.2893.6726-3.073,1.1702-6.165,2.2911-9.2282,3.4862-7.556,2.9479-15.0988,5.9296-22.6507,8.888-.493.1931-.9541.5529-1.562.4147Z"/>
    <path class="cls-1" d="M105.3664,40.7486c.7025.576,1.3302,1.0908,1.9532,1.6016-.1224,1.1843-.7318,2.0091-1.3574,2.932-.7012-.4548-1.3333-.8647-2.0606-1.3364-.991,1.0256-1.9107,2.1013-2.9605,3.0297-1.1064.9784-2.2996,1.8719-3.5244,2.6995-1.1787.7964-2.409,1.5377-3.6854,2.1626-1.3256.649-2.724,1.1555-4.1086,1.6763-1.2957.4874-2.5641,1.0823-4.0435,1.1009.4861-.3268.9587-.6763,1.4607-.9767,2.3541-1.4088,4.7197-2.7984,7.0747-4.2058,2.121-1.2675,4.2112-2.5826,6.1284-4.1514.7155-.5855,1.4322-1.1716,2.1172-1.9735-.2944-.248-.5244-.4544-.7675-.6439-.4319-.3365-.8993-.6324-1.3029-.9991-1.0969-.9965-1.3486-2.2266-.8568-3.5998.6656-1.8585,1.9885-3.1455,3.7322-3.9719,1.3658-.6473,2.406-.1052,2.7156,1.3604.122.5773.1399,1.2023.0691,1.7892-.1375,1.1396-.3714,2.2676-.5834,3.5062ZM103.7294,39.929c.4871-1.0892.5056-1.7436.1001-2.5291-.2112-.4092-.6228-.6273-1.0928-.4973-.3608.0998-.7214.2517-1.0372.4514-.5238.3311-.566.7883-.1351,1.2248.614.6221,1.3237,1.0945,2.165,1.3502Z"/>
    <path class="cls-1" d="M102.4454,90.1114c-.0603-1.3092.4095-1.9574,1.4274-2.3247,2.8342-1.0228,5.6498-2.0969,8.4741-3.1471,2.9787-1.1076,5.9552-2.2215,8.9424-3.3059.4865-.1766.9661-.523,1.6232-.3431-.1205.7965-.392,1.3919-1.1481,1.6727-.3081.1144-.6128.2379-.9193.3567-5.5683,2.159-11.1363,4.3188-16.7056,6.4755-.5038.1951-1.0155.3698-1.6942.6158Z"/>
    <path class="cls-1" d="M147.7282,84.1604c.3969-1.1769.9054-2.1275,1.505-3.1118,1.3212.2845,2.1717,1.2982,3.3701,1.8824.4762-.7164.9433-1.419,1.4281-2.1483,1.3808.5558,2.4494,1.3575,3.4671,2.3053-.3264,1.2021-.8123,2.2042-1.6783,3.1351-1.0495-.6707-2.05-1.3101-3.0853-1.9718-.8212.491-.8121,1.5471-1.5854,2.1731-1.1722-.5746-2.2164-1.4198-3.4212-2.2641Z"/>
    <path class="cls-1" d="M154.1372,68.3367c1.3759-.8098,2.4953-1.383,3.5178-2.0952.9854-.6863,1.8551-1.5364,2.8048-2.2772.8643-.6742,1.7766-1.2775,2.8351-1.6284.9177-.3043,1.8183-.3602,2.7197.0465.2492.1124.5009.2287.7632.3005.6197.1697,1.1931.0921,1.6693-.3878.3442-.3468.6933-.6888,1.0969-1.0892.1415.4076.187.7845.3897,1.0338.1301.16.4914.132.7669.1922.2861-.5584.5474-1.0685.7912-1.5444.4731.075.5533.3274.5385.6167-.0406.793-.4011,1.467-.817,2.1184-.2719.4258-.6775.5501-1.1388.4582-.4252-.0847-.8382-.2311-1.3551-.3784-.1728.0745-.4307.1597-.6629.2905-.8673.4888-1.7309.5789-2.667.1525-1.1745-.535-2.3753-.371-3.5065.131-.7437.33-1.4409.7815-2.1197,1.2371-.9088.61-1.7698,1.2907-2.6698,1.9145-.7729.5357-1.6206.8831-2.9562.9086Z"/>
    <path class="cls-1" d="M117.1936,20.0552c.4171-1.8157,1.0492-2.4438,2.5778-2.5017,1.0386-.0394,2.0815.0078,3.1217.0426.7215.0242,1.391.2171,2.0123.766-1.0653,2.1719-2.3497,4.0067-4.8002,4.6733-.7827.2129-1.5604.4439-2.4364.5074.1762-.1453.3358-.3199.5315-.4312,1.0474-.5955,2.1113-1.1623,3.1525-1.7681.3074-.1788.5597-.4523.9567-.7813-1.7595-.7161-3.4812-.2278-5.1159-.507Z"/>
    <path class="cls-1" d="M160.4126,32.0743c.0943.0688.2267.1132.2567.1952.3193.8725.6009,1.7593.9356,2.6257.3983,1.0308.089,1.9427-.4334,2.8103-.4413.7331-1.0938.8497-1.8133.3535-.2583-.1781-.4712-.422-.7539-.6807-.4068.4159-.7425.8438-1.1595,1.1666-.696.5386-1.5669.3675-1.9252-.4369-.2589-.5814-.3374-1.2544-.4277-1.8962-.0822-.5836-.0039-1.155-.3271-1.7364-.3753-.6753-.115-1.029.9125-1.6047.3699.55.1951,1.1473.1819,1.7284-.0124.5408-.013,1.0864.0466,1.6227.0438.3943.2718.7321.6775.8545.4799.1448.8417-.1085,1.1646-.4309.5197-.5188.5814-1.1461.449-1.8282-.1145-.5896-.2209-1.1812-.3094-1.775-.0319-.2137.0335-.2751.4921-.7631.4078.4944.4578,1.1034.5604,1.6907.1037.5935.1621,1.1957.2856,1.7846.111.529.4524.8561,1.0094.9349.504.0713.8985-.3207.7359-.7831-.2355-.6699-.5359-1.3171-.7706-1.9873-.2232-.6373-.3021-1.2798.2123-1.8447Z"/>
    <path class="cls-1" d="M202.6875,44.9658c-1.1674-1.2112-1.2417-1.7653-.325-2.9052.4015-.4993.9367-.9019,1.4532-1.2929.2378-.18.5283-.0536.6952.2124.1659.2643.0665.7598-.1959.8676-.1892.0777-.4192.0496-.6199.1075-.2495.072-.5226.1376-.7227.2889-.3296.2494-.264.7695.0741.9757.4048.2469.8359.3045,1.2473.0756.4243-.236.8129-.5361,1.2116-.8044.3609.3107.2178.6318.0193.8684-.3483.4151-.7693.7683-1.1401,1.1658-.5946.6375-1.1914,1.2749-1.7491,1.9442-.203.2436-.3232.5686-.4335.8737-.1392.3852.0602.7719.4388.94.6242.277,1.2805.277,1.9346.1814.8564-.1252,1.7075-.2868,2.5975-.4391-.1821.6043-.6766.7598-1.0985.9801-.9971.5206-2.0676.7047-3.1799.5677-.9571-.1179-1.484-.7343-1.3771-1.6847.0598-.5313.2542-1.0578.4542-1.5601.1792-.45.449-.8638.7158-1.3627Z"/>
  </g>
</svg>