<?xml version="1.0" encoding="UTF-8"?>
<svg id="Ali" xmlns="http://www.w3.org/2000/svg" width="461.4673" height="464.8362" viewBox="0 0 461.4673 464.8362">
  <defs>
    <style>
      

      @import url('../../CSS/SvgStyling.css');

      
    </style>
  </defs>
  
  <g class="content">


    <rect id="bg" class="bg" width="461.4673" height="464.8362"/>
    <path class="cls-1" d="M255.9043,35.2515c2.1356-9.3035,5.5328-18.4195,8.85-27.3865,3.2955,9.9947,6.7816,20.0008,8.1991,30.4799,9.8753,61.092,13.9876,122.9644,20.9278,184.3839,2.5591,20.7024,5.2467,45.806,25.2493,57.3239-8.542-14.9599-14.5084-31.6466-15.1393-48.9997.6994-14.3755,5.1294-29.5809,16.5586-39.0842,20.188-15.631,48.6785-18.6549,72.2046-9.3511,11.9025,5.1502,23.6757,12.0217,31.7261,22.442-34.4438-16.8766-76.4478-8.4234-107.3767,12.289,3.7018,27.0608,19.5289,55.8813,46.9555,64.5444,7.2046,3.0343,14.7358-.3074,21.6073-2.6136,24.2664-9.5969,45.3619-25.5175,65.2159-42.1658-6.0938,8.9089-2.639,22.4535-12.304,28.9506-25.8032,23.0555-56.8181,43.0863-92.0119,46.2801-10.1099.5128-20.1294-2.5315-29.3555-6.4666-18.2491-9.1153-28.9687-28.3063-33.1537-47.694-2.0283,12.0321-4.5956,24.2207-10.3263,35.0976-3.8862,7.2478-10.5033,12.3091-16.9513,17.1149,13.872,4.2425,28.4978,5.0022,42.4965,8.6814,7.8462,2.0664,14.8046,8.4621,16.1452,16.71,1.9281,11.2301-1.5066,22.5814-6.1939,32.704-2.4398,5.4762-7.6683,8.8083-12.0978,12.5176-19.4791,14.4153-39.7482,27.7735-60.9246,39.5364-20.5234,8.8889-41.0394,19.5862-63.7285,21.1875-22.0695,3.7183-45.98-.1362-64.152-13.8-14.5984-10.4322-23.5277-27.2292-27.8294-44.3831-9.6663-41.0615,5.0221-82.8127,24.1663-118.7735-9.1644,2.4814-20.198,1.5634-26.6853-6.1398-6.9016-9.6872-5.1693-22.6187-1.8316-33.3106,1.4673-3.528-.6201-6.9676-1.7818-10.229.0876,9.469-8.5456,20.7396-18.704,15.5612-10.9666-6.7422-6.1239-21.3176-5.4424-31.7491-6.5171,8.4059-4.2051,19.7657-7.6984,29.2476-1.0845,3.3213-4.8918,6.5455-8.3086,4.1415-9.6858-5.8227-10.3648-19.4579-8.1907-29.3838,1.5562,7.4047-.452,16.4613,5.5044,22.3037,1.6526,2.118,4.4776,1.6827,6.8407,1.8106,7.0681-11.0639,2.3422-27.9716,13.9301-36.6401,2.6765,9.5511-3.2,19.5357.8057,28.8979,3.6826,7.1503,15.908,5.9807,18.3978-1.6605,3.0138-8.6115-.0486-17.8835-2.373-26.3083-1.1817-3.0963.7682-6.1198,1.7332-8.9774,5.1697,9.3726,5.3356,20.1807,7.6595,30.3523,1.4671,7.1474,10.0998,10.2716,15.9068,5.9603-2.5887-9.2923-7.8247-17.6964-9.4505-27.3166-1.5841-3.6864-.7482-7.5925,1.3699-10.8536,2.4608,3.8158,5.0887,7.5527,7.0967,11.6436-1.2984-.4938-2.6086-.9882-3.9079-1.4892,1.5064,6.8812,5.4814,12.8619,7.284,19.6231,1.2113,6.525-.4135,14.2469-6.0039,18.3314-4.7164.2845-8.8808-1.9579-12.6109-4.5797-2.9524,8.9197-5.0192,19.5991.5024,27.9609,6.2418,7.0618,16.8234,7.6337,25.377,5.3204,12.738-3.8774,23.9217-11.4989,34.4155-19.5185-3.958-5.0509-10.8797-2.491-16.2522-3.7957-3.7034-.6822-8.5639-2.5011-8.4566-7.0582-.3732-10.9653,7.019-23.3041,18.3491-25.1441,2.3832,4.1028,4.0365,8.7911,7.7784,11.916,5.8177-8.2285,10.9637-17.7692,19.9814-22.8992,9.6863-6.505,25.3765,5.1706,21.0836,16.342-1.7694,8.6803-11.1698,12.1123-18.5035,14.8521-3.5759,1.7092-8.9801.7518-10.771,5.0616-3.7887,6.6426-7.2832,14.3963-5.2465,22.1944,2.4317,4.3317,9.225,2.7784,12.3657-.0774,11.123-9.5898,19.8825-22.5628,33.892-28.3167,5.0778-2.2721,12.5688-2.7297,16.0763,2.4226.8637,2.4617.4502,5.172.5889,7.7415-5.2763-5.6353-14.175-4.5381-20.2787-.9191-12.4316,6.5655-19.2646,19.8227-30.7703,27.5248-6.3998,4.1332-13.6764-2.333-14.6677-8.8097-1.1638-8.8685,3.542-16.9167,7.3812-24.5106-4.8522.5443-10.0989-4.9022-14.2526-.9872.3447-5.2999-4.1069-9.1082-6.1837-13.6434-6.8513-.3465-14.4296,7.0091-13.9675,13.9498,6.2893,5.9331,16.1519.526,22.6102,6.0223,3.2582,3.5284,1.802,8.9376.1974,12.9014-7.3035,8.8398-18.6153,12.9325-27.3381,19.9033-14.9703,27.3668-26.3805,58.3121-23.9566,90.0103.5889,11.6454,4.4878,22.9379,10.158,33.0404,13.6545,21.6225,39.9464,34.32,65.2442,31.5703,29.5891-.4171,56.8883-13.9706,83.1434-26.4187,20.3673-11.39,40.6729-23.2536,58.826-38.0326-5.2449-6.6361-13.9878-8.6312-21.8633-10.1541-16.4779-2.027-32.7704-5.3802-48.7265-9.9674-7.2549-1.8407-14.4326-4.5184-22.0221-4.4109,2.0467-8.5205,4.6372-16.9045,7.4721-25.1903,19.7578-4.8542,39.7604-13.6925,52.6944-30.0671,4.4002-4.9337,3.277-12.002,3.456-18.0734-.9757-38.0541-5.2569-75.891-8.9484-113.7509-3.0626-35.333-6.3011-70.6921-11.6852-105.7492M162.142,195.9858c-9.1359,2.5398-15.0905,10.9141-19.433,18.8516,12.471,5.1129,26.4991-.0967,36.5319-8.0859-2.373-6.7045-9.9726-11.8837-17.0989-10.7658Z"/>
    <path class="cls-1" d="M168.5705,49.1716c7.3705-18.3102,22.7371-36.3144,43.2236-38.846,11.5358,2.8393,8.6522,18.589,2.244,25.2896,2.3819-6.5039,2.0786-18.4765-7.2549-18.25-16.8429,3.0457-29.8777,17.3033-36.638,32.4481-3.1011,5.4884-.3246,15.0975,7.1263,14.0505,4.7146,1.0205,7.5196-3.0859,10.2573-6.1198-1.1918,7.6734-8.5452,16.6791-17.0104,13.0605-7.4721-4.656-4.5974-14.9183-1.9478-21.6329"/>
    <path class="cls-1" d="M190.7774,36.8826c2.4801-3.5993,8.4458-6.3459,11.6643-2.1453,3.7806,5.7736,1.9969,13.2876-.3447,19.3003,4.6075,3.1246,5.4728,8.542,3.0513,13.4066-2.0082-2.4223-4.1436-4.718-6.4066-6.8819-15.6527,27.7624-43.0994,45.4301-69.075,62.3275,21.8531-20.7346,47.436-38.1641,66.0227-62.2787.4033-4.2121-5.9863-4.8542-8.0533-8.0192-4.723-4.8054-.0889-11.5061,3.1414-15.7092M192.3033,40.3131c-1.0739,1.2667-2.1569,2.5297-3.2213,3.7968,3.1212,3.251,6.9615,5.6249,10.771,7.9881,2.3529-5.636-.0401-13.9989-7.5496-11.7848Z"/>
    <path class="cls-1" d="M324.3386,48.4714c2.5204-5.5181,4.2927-11.3993,7.2949-16.6992-.561,11.7343-10.5336,21.495-8.1102,33.5661.3916,3.074,3.3168,3.7151,5.9345,3.4488,1.0628-2.156,2.3343-4.2207,3.9949-5.9703-.7482,4.7134-2.2728,9.5507-5.2732,13.3174-2.6965,2.7197-6.6859.2082-7.6029-2.8974-3.3055-8.326.9067-16.9773,3.762-24.7654"/>
    <path class="cls-1" d="M91.7668,90.6691c1.8595-15.4963,8.5237-29.9603,15.062-43.9384-1.2504,13.9613-11.4878,25.7862-10.7195,40.0431-.2062,4.833,4.9808,9.4507,9.6553,7.2166,2.9635-1.9195,3.5347-5.8442,5.5527-8.5825-.3447,7.2582-2.7765,15.6411-9.1759,19.6951-7.8927,1.7096-11.419-8.0784-10.3747-14.4339"/>
    <path class="cls-1" d="M379.4243,99.9138c9.4624-3.8276,18.7142-8.2059,28.3531-11.5892-.7677,2.2434-1.36,4.6765-2.945,6.5164-33.8429,14.9467-67.756,30.4903-99.936,48.9897.5309-2.6982,1.1918-5.3698,1.9785-8.0092,23.5474-13.2199,48.2657-24.1444,72.5495-35.9077"/>
    <path class="cls-1" d="M219.8154,121.5757c3.3173,6.7622,3.3585,14.4844,5.6703,21.5322,2.0181,4.1623,7.1189,4.1332,11.0252,3.3216-2.3212-8.0167-9.7856-16.1639-4.1839-24.5389,3.4659,10.0953,9.9445,21.2072,3.6921,31.6276-5.6015,4.2723-12.2042-1.1466-14.2542-6.6336-.8363,4.7639-2.7664,10.7683-8.2588,11.6562-5.7391.9209-9.8424-5.1691-9.1042-10.459.8951-7.3653-1.9199-15.2082,1.4661-22.1271,3.434,6.7522-.2274,14.7209,2.1954,21.7304,2.3243,4.6664,9.521,3.8158,11.4073-.7801,3.2312-8.4747-4.7734-17.1736.3447-25.3294"/>
    <path class="cls-1" d="M420.9761,130.7115c2.9149-4.0659,7,.6134,9.7076,2.5082-.01,2.8587-.2661,5.7045-.8969,8.4933-2.0851-2.6186-6.821-6.9486-9.5579-2.8469-4.1436,10.2129-1.36,22.0378-6.0047,32.1228-4.2741-6.1488-4.5774-14.1877-8.8312-20.4257-4.0168-.4461-6.8511-3.767-9.9126-6.0718-1.5259-2.7881.2173-6.2688,1.2332-9.0465,11.3084,2.2553,14.2709,15.6411,17.6278,25.0237,2.7564-9.7678.5997-21.0481,6.6347-29.7571"/>
    <path class="cls-1" d="M61.044,153.9834c10.7778-3.915,21.4108-8.3152,32.5137-11.2215-1.5551,3.2038-5.3155,3.5112-8.2573,4.7076-11.4699,4.0519-23.1646,7.7193-33.9812,13.3553,1.3774-4.2794,6.0836-5.2695,9.7248-6.8414"/>
    <path class="cls-1" d="M126.1332,155.5278c.7957-3.5897.8743-10.707,6.0936-9.9574.1274,1.5924.2447,3.1941.3336,4.7954-.7097-.4665-2.1161-1.4043-2.8252-1.8686-3.8609,3.3503-1.2219,9.2934-3.5531,13.5349-1.5162-3.3517-2.3918-7.5946-6.3713-8.8287-2.6473-.6439-2.2411-3.461-1.6221-5.478,4.1929-.3343,5.7776,5.0029,7.9445,7.8024"/>
    <path class="cls-1" d="M31.5126,156.8106c.304-3.1027,2.9732-6.8597,6.4071-6.2172,2.5597,3.8068-.5,9.0548,2.3149,13.0404-1.1533-.5833-2.3047-1.1771-3.4653-1.7619-5.9759,9.1762-15.4562,15.2476-25.2113,19.6969,7.9266-6.8719,18.3392-11.4491,23.981-20.6823-1.2701-1.4347-2.7859-2.6218-4.0265-4.0759M32.7325,154.7939c1.3878,1.3258,2.9037,2.5125,4.5978,3.422-.0681-1.6705-.1888-3.3413-.3436-5.0025-1.5573.0892-3.0418.5636-4.2542,1.5806Z"/>
    <path class="cls-1" d="M98.8344,156.2476c.4723-2.0066,1.5847-3.7781,2.5692-5.5669,2.6591,6.4964,6.0445,12.7845,7.7197,19.626-1.4405-1.2928-2.8967-2.5702-4.3609-3.8143,1.1124,19.8918,6.6725,39.387,6.1619,59.4082-.5235,2.8307-.3549,6.7913-3.3471,8.2167-1.0642-26.1094-6.5557-51.8781-8.7427-77.8697"/>
    <path class="cls-1" d="M126.122,172.6802c10.3859-4.9735,20.3272-11.0739,31.2467-14.7818-3.4485,4.856-9.8348,5.6862-14.6715,8.6029-8.5908,4.9936-17.9827,8.4933-26.1231,14.2755,1.071-4.5467,6.0348-5.9227,9.5478-8.0966"/>
    <path class="cls-1" d="M74.815,162.3778c1.8221,3.2829,4.8053,7.1894,2.7385,11.0535-.8578,3.1826-4.3712,1.1653-6.3312.377-1.4086,1.7092-3.9582,3.9347-5.8457,1.491-1.5082-3.4306-1.1533-7.5036-.3169-11.0908.6788,3.1231.9845,6.3065,1.4573,9.4618,6.7719.4221,2.1768-6.9812,3.4273-10.8571,1.4852,3.1045,2.4697,6.4161,3.5341,9.6797.8956-.0881,2.6871-.2677,3.5922-.3555-1.4571-3.0547-3.4648-6.2509-2.2556-9.7596"/>
    <path class="cls-1" d="M155.5466,179.5317c8.112-4.4077,16.448-8.4836,25.0905-11.716-.9442,1.4541-2.1739,2.7093-3.8279,3.3116-8.3492,3.7785-16.4898,7.9787-24.5212,12.3897.7365-1.5917,1.5248-3.293,3.2586-3.9852"/>
    <path class="cls-1" d="M35.3221,181.3993c.9929-3.2213.6896-7.7494,3.2693-9.9534,4.4985,1.3319,9.3497,5.7539,9.1829,10.8055-.867,4.636-6.683-.2877-8.9181,2.6806-7.7084,8.4026-17.543,14.5919-28.273,18.3285,9.1461-6.5942,19.5801-11.6164,27.6026-19.7539-.965-.7023-1.9193-1.4046-2.8637-2.1073M36.3078,178.7516c1.4951.6994,3.021,1.3849,4.5471,2.0252.3922-1.9765.0279-3.9548-1.2991-5.5149-1.2505.9886-2.3629,2.1449-3.248,3.4897ZM42.8424,177.3259c-.1168.8815-.3447,2.6412-.452,3.5201,1.4059.1795,2.815.3461,4.2336.4845-.9845-1.582-2.2451-2.9558-3.7815-4.0046Z"/>
    <path class="cls-1" d="M133.171,185.5436c2.5989,1.2058,5.1276,2.5391,7.6498,3.8864-.7801,2.2141-1.4293,4.4794-1.9014,6.7895-3.1697-.9463-6.0345-2.639-8.6923-4.5754.994-2.0274,1.9898-4.0558,2.944-6.1004"/>
    <path class="cls-1" d="M195.011,204.3888c-4.371-4.3805-2.6116-11.2036-.2376-16.1155.1276,4.2905-2.1567,9.2726.7471,13.0289.9465-1.0166,1.8919-2.0371,2.8463-3.0443-.5108,2.352-1.6535,4.4396-3.3559,6.1309"/>
    <path class="cls-1" d="M152.663,240.5248c3.2267-7.1087,11.988-9.1745,18.3659-12.6441-1.6148,4.0343-6.1416,5.0713-9.5175,7.1084-3.2201,1.4322-5.473,4.4278-8.8484,5.5357"/>
    <path class="cls-1" d="M197.47,247.2881c6.9615-3.7491,13.8821-7.6835,21.2911-10.4716-.8951,3.1346-4.1336,4.0444-6.7613,5.2508-5.3053,2.2352-10.1486,5.3974-15.2863,7.9891.1856-.6923.5704-2.0758.7566-2.7684"/>
    <path class="cls-1" d="M99.8687,240.829c2.5489-5.0194,10.1301-2.113,7.8555,3.2743-2.6005,4.2511-8.3974,1.3244-7.8555-3.2743"/>
    <path class="cls-1" d="M91.1462,240.4237c3.5244-3.0024,6.8814,1.5644,6.2036,5.0831-1.5264.9782-3.0826,1.9306-4.6578,2.8476-2.9424-1.5214-5.1772-5.8027-1.5458-7.9307"/>
    <path class="cls-1" d="M169.9579,256.3346c8.3946-6.8826,21.7046-5.7654,29.5789,1.3738-10.5805-2.8676-22.0894.0975-31.0768,6.0796,3.8408,9.5898,14.5201,16.9167,24.9447,14.0906,6.6657-2.7075,12.7679-6.6358,19.156-9.9359-1.0628,3.5979-1.8394,7.9271-5.8863,9.2726-11.0739,5.2404-21.2526,12.3581-32.7002,16.7479-6.0243,2.5014-11.9208-2.3732-13.5841-8.0364-1.8713,2.5387-3.4376,5.2999-5.3669,7.7999-4.1927,5.4777-13.5546,5.8242-18.0329.5239-3.4347-3.8742-3.8408-9.3454-5.2283-14.1397-1.692,7.7422-9.5491,11.2538-16.8511,9.6521-2.581-9.5998,5.01-19.063,12.9918-23.6116-.4916-4.2006-.8363-8.6703,1.3679-12.4972,1.36,3.0554,2.6104,6.1509,3.8034,9.283,2.6858-1.8586,5.1761-3.982,7.8442-5.8614-1.3102,3.8262-4.3203,6.5558-6.6943,9.6804-.0889,6.2864.8655,12.6455,2.5702,18.6847,3.5621,7.4638,15.1393,7.2277,19.5303.693,1.967-3.007,3.5821-6.29,6.1524-8.8602.7265,3.4596,1.24,7.6616,4.9221,9.2755,4.0164,1.4218,8.3853.1573,12.2243-1.2674-3.6721-3.6563-8.8271-5.7138-11.4761-10.4304-4.3912-5.4074-3.0726-13.8907,1.811-18.517M115.9533,281.9012c4.6956.5249,10.5033,1.3552,14.1653-2.3918,1.3398-2.9479.0899-6.377-.1661-9.4514-5.8075,2.2538-10.771,6.525-13.9993,11.8432Z"/>
    <path class="cls-1" d="M145.5053,274.7237c.9254-2.2553,1.8909-4.4976,2.8822-6.7228,2.4233,1.1463,4.9549,2.1345,7.1179,3.7462-.5611,2.3735-1.7228,4.5371-2.7653,6.7235-2.4601-1.1563-4.8818-2.3936-7.2347-3.747"/>
    <path class="cls-1" d="M39.3486,304.2339c1.1309-9.4396,4.0447-18.9208,9.1153-26.9988-.7983,9.1161-7.6883,17.1539-5.573,26.6441.4538,2.9766,3.733,3.4205,6.1827,3.2041.7677-2.0464,1.5745-4.0834,2.4697-6.08.5816,5.0513-.0969,11.5978-4.7535,14.5543-5.7668.5016-7.6582-6.725-7.4413-11.3237"/>
    <path class="cls-1" d="M26.2845,320.5401c-.6203-12.022,3.6033-23.6012,6.9206-34.9392-.8378,10.736-8.6719,22.1564-2.8429,32.4872.6968-.3268,1.3951-.6435,2.1041-.9599.7691.7023,1.5469,1.405,2.3151,2.1076,1.5438-2.1761,2.8451-4.5098,3.986-6.9217-.4135,4.3099-2.1354,8.2948-3.9168,12.1912-3.4171.2558-6.231-1.7024-8.566-3.9652"/>
    <path class="cls-1" d="M172.6455,332.1683c6.6044-1.0488,13.5641,3.322,15.0794,9.9459,2.1852,7.1073-2.7266,15.4415-10.0099,16.9249-7.4024,2.0371-16.0266-3.5872-16.667-11.3781-1.1717-7.1482,4.4985-14.5443,11.5974-15.4927"/>
    <path class="cls-1" d="M141.2127,335.2717c9.4608-3.9265,20.702,6.4763,17.3546,16.2742-1.9193,9.9061-15.4254,14.1179-22.5628,6.9704-7.7956-6.673-4.4783-20.3971,5.2082-23.2447"/>
    <path class="cls-1" d="M365.8215,359.6132c1.9982-7.9784,7.6197-15.3437,15.2466-18.5994,4.3527,4.2153,1.8634,9.9377-.7269,14.3092-.6593-2.1363-1.279-4.2812-1.9007-6.4175-3.9467-.3175-6.2214,3.3428-8.5908,5.8543,7.1843,6.83,17.7279,3.1421,25.0099-1.5039-.8756,3.676-2.3904,7.5724-6.2993,8.8796-8.84,5.1-21.6949,8.3733-24.1166,19.7725,3.2871,3.47,8.1119,4.3217,12.6874,4.0139,11.5476.7331,22.2168-4.7159,31.9553-10.3003-5.7215,10.2315-17.4635,14.8001-28.2144,17.5685-6.6146,1.3638-15.7801,1.5906-19.7267-4.9649-.3732-9.1547,5.7684-17.036,11.9796-23.1142-2.6277-1.2559-7.0172-2.0474-7.3035-5.4977"/>
    <path class="cls-1" d="M255.5983,448.1218c23.9119-13.675,47.9694-27.14,72.7664-39.124-.8564,2.9261-.7965,7.0711-4.2425,8.246-14.7057,7.1392-28.9911,15.0287-43.1548,23.1949-2.3527,1.6712-4.9706,2.9268-7.6398,4.0057l-.1586.6134c-7.2035,3.3016-13.8876,7.591-20.5134,11.9213.2861-3.0834-.5921-7.3757,2.9425-8.8573"/>
  </g>
</svg>