<?xml version="1.0" encoding="UTF-8"?>
<svg id="DayOfJudgement" xmlns="http://www.w3.org/2000/svg" width="226.8715" height="224.7341" viewBox="0 0 226.8715 224.7341">
  <defs>
    <style>
      

      @import url('../../CSS/SvgStyling.css');


    </style>
  </defs>
  
  <g class="content">

    <title>Day of Judgement</title>

    <rect id="bg" class="bg" width="226.8715" height="224.7341"/>
    <g id="path">
      <path class="cls-1" d="M71.5226,84.4622c.1717.4319.2706.9106.2706,1.405,0,18.8166-15.2572,34.0738-34.0738,34.0738S3.6456,104.6838,3.6456,85.8672c0-.4944.0989-.9731.2706-1.405L31.7664,14.8316c-1.0147-1.2905-1.6183-2.9141-1.6183-4.6833,0-4.1786,3.3928-7.5714,7.5714-7.5714,2.7996,0,5.2453,1.5247,6.5567,3.7883h138.3194c1.3113-2.2636,3.7571-3.7883,6.5567-3.7883,4.1786,0,7.5714,3.3928,7.5714,7.5714,0,1.7693-.6036,3.3928-1.6236,4.6833l27.8554,69.6306c.1717.4319.2706.9106.2706,1.405,0,18.8166-15.2572,34.0738-34.0738,34.0738s-34.0738-15.2572-34.0738-34.0738c0-.4944.0989-.9731.2706-1.405l27.8554-69.6306c-.2238-.281-.4267-.5828-.6088-.895h-64.4582l21.3299,97.7566c48.0457,11.6979,83.7587,55.0499,83.7587,106.6758,0,2.0919-1.6964,3.7883-3.7883,3.7883H7.4339c-2.0919,0-3.7883-1.6964-3.7883-3.7883,0-23.0211,7.103-44.3979,19.2329-62.0593.2029-.4735.5048-.9106.8846-1.2645,15.0751-21.2987,37.5395-36.9983,63.6412-43.352L108.7342,13.9366H44.2761c-.1821.3122-.3851.614-.6088.895l27.8554,69.6306ZM13.0227,82.0789h49.3935l-24.6967-61.7366-24.6967,61.7366ZM213.8489,82.0789l-24.6967-61.7366-24.6967,61.7366h49.3935ZM131.3547,110.0384l-1.9722-9.0284h-31.8934l-1.9722,9.0284c5.8333-.9575,11.8176-1.457,17.9163-1.457,6.1039,0,12.0882.4996,17.9215,1.457ZM127.7329,93.4386l-14.2998-65.5301-14.2946,65.5301h28.5943ZM72.2147,214.5859h68.0695c.1249-.3174.2862-.6765.4475-1.0251-.7337-.1925-1.5611-.4215-2.1491-.6088-3.2315-1.0199-5.3182-3.0442-5.3182-6.2236,0-4.4804,2.3208-7.5402,5.7501-9.6633,2.7215-1.6808,6.2809-2.6643,9.2782-3.5021-.4059-1.8889-.9159-4.293-.9159-4.6053,0-1.5975.6817-2.8152,1.941-3.7206.4735-.3382,1.6912-.8378,2.0659-.9887,1.6288-1.3061,3.1638-3.0442,4.8967-4.4388,1.6392-1.3165,3.424-2.3677,5.4431-2.8828,2.9349-.7545,5.7709.3434,8.3467,2.5654,1.2437,1.0772,2.4509,2.4145,3.6166,3.6374.3799.4007.7441.791,1.1032,1.1292.5724-.4059,1.2957-.9002,1.8265-1.1968,2.3208-1.3061,4.8967-1.7693,7.7483.1301,1.5871,1.0616,4.47,2.5446,5.8021,3.8715.0468.0468.0937.0989.1457.1561,1.15-.843,2.4874-1.2177,4.0693-.9523,2.0919.3486,4.0277,1.379,5.9166,2.529,1.2749.7754,2.4613,1.8109,3.9184,1.8941.3591-.5828,1.1604-1.9254,1.5663-2.8516.9106-2.0919,1.6756-4.1942,2.196-5.1152.2706-.4839.562-.8586.843-1.1448-1.5819-4.0953-3.424-8.0657-5.5003-11.8904-1.5351.4683-3.7102,1.0043-5.646,1.0147-2.784.0208-5.7085-.7337-8.1698-2.9505-1.9566-1.7588-3.372-3.9236-4.8342-6.0207-.9939-1.4206-1.993-2.8308-3.5541-3.7519-1.9514-1.1552-4.2878-.8014-6.6399-.6192-3.7831.2914-7.613.4996-11.0006-1.0095-.6973-.3122-1.2905-.7181-1.7797-1.2073-.7389,1.0407-1.5507,2.0294-2.4874,2.8881-.1613.1509-2.9141,2.1127-4.5428,2.3729-1.6496.2654-2.9401-.2914-3.8299-1.176-.9367-.9367-1.4102-2.0451-1.5403-3.3096-.0572-.5724.0312-1.634.1041-2.3365-.2134-.0364-.4423-.0676-.6765-.1093-1.0564-.1873-2.196-.3382-3.2419-.588-2.3729-.5672-4.3087-1.7068-5.4066-3.5333-.7858-1.3113-1.0251-3.1378-.4891-5.1933.5412-2.0711,2.1387-4.6053,2.4041-5.7241.4527-1.9254.6661-4.7822-1.6236-9.1741-1.5143-2.8985-5.3702-7.3164-6.8429-9.7309-.3382-.5516-.588-1.0772-.7701-1.5507-6.2548-1.1968-12.7126-1.8265-19.3213-1.8265-20.3204,0-39.2619,5.9426-55.1852,16.1835,1.7276,2.2584,4.0745,5.0528,6.3485,7.0666.8378.7389,2.1127,1.5143,2.6071,1.8057.1041-.1249.1561-.3018.2394-.4579.1977-.3799.3591-.8014.5048-1.2385.4839-1.405.843-2.9505,1.3373-4.3399,1.3686-3.8768,3.653-6.6399,8.1178-6.7128,1.8837-.0312,3.1482.562,4.0381,1.3009,1.3321,1.1032,2.0711,2.8204,1.993,5.0164-.026.817-.229,2.1751-.4163,3.3096,1.5559-.5828,2.9401-1.5663,4.3503-2.5134,2.5914-1.738,5.2297-3.4292,8.3207-4.1421,2.7684-.6401,4.1942.052,5.2505.8222.3434.2498.6557.536.9419.8534.1769.1977.5204.6244.6349.7649,2.0815.9991,5.3026,1.2489,7.587,1.3738.3695-.0781,4.5688-.9627,6.7752-1.2957,1.5455-.2394,2.8464-.255,3.5385-.1249,1.9098.3539,2.7736,1.5351,3.1586,2.503,1.8733,4.6729-.0572,8.123-3.6634,10.8549-1.4726,1.1188-3.2731,2.0919-4.9331,3.0442h2.2428c2.0919,0,3.7883,1.6964,3.7883,3.7883,0,2.0867-1.6964,3.7831-3.7883,3.7831h-1.2905c.2029,1.457-.1249,2.9141-1.15,4.3503-2.4093,3.372-5.5003,4.8498-8.8411,5.8802-2.2792.7025-4.7093,1.098-6.8689,2.4457-.562.3539-.6869.9991-.9471,1.5559-.4944,1.0668-1.0147,2.1231-1.7328,3.0494-3.2471,4.1786-6.8325,8.1542-10.3189,12.1766-.5724.6609-1.1604,2.0607-1.8525,3.0546-.6765.9627-1.4466,1.7068-2.196,2.1543-1.5403.9263-4.6937,2.9661-7.3684,3.9028-1.8525.6453-3.5853.7754-4.9071.4423-.3486-.0885-1.1292-.3851-2.0086-1.0824-.2758-.2134-.6609-.5412-1.0668-.895-1.1604,1.5299-2.3,3.0754-4.0277,4.2826-.8274.5776-1.7693.9471-2.7632,1.2073-.2081.052-.4891.1249-.7545.1925.0104.3539.0156.7181.0104.9731-.0104.7806-.1249,1.4726-.2966,1.993-.1613.4839-.4007.9679-.7077,1.457,1.5247.1873,3.2419.4059,4.3763.5516,1.7224.229,3.1222.6088,3.9132,1.0251,2.7996,1.4778,4.2566,3.3148,5.0424,5.0528.4631,1.0303.6817,2.0555.7493,3.0181ZM148.5945,214.5859h66.9872c-.281-7.7899-1.4414-15.3561-3.3772-22.6101-.4787.9939-.9731,1.9306-1.431,2.6279-1.405,2.1439-3.2055,3.3252-4.8238,3.5541-2.6227.3747-4.9539-.3174-7.1603-1.4778-1.5351-.8066-2.9349-2.0034-4.496-2.6175-.4839.6661-1.176,1.5715-1.6548,1.9878-1.0355.9054-2.222,1.3946-3.5801,1.3946-.9783,0-2.019-.3174-2.9297-1.2749-.3226-.3382-.6921-.8586-.9835-1.5611-.2342-.5672-.6192-1.9202-.8014-2.6018-1.098-.843-2.8412-1.6704-3.9548-2.3677-.1613.0885-.3851.2186-.5204.3122-.588.4059-1.1448.843-1.6652,1.1864-2.0555,1.3582-4.0381,1.5299-5.7345.6817-2.0555-1.0251-4.2202-3.5281-6.4057-5.7137-.5672-.5672-1.1344-1.098-1.7328-1.4935-.2498-.1665-.4527-.4215-.7285-.3486-1.2853.3278-2.3208,1.1864-3.3252,2.0815-1.5299,1.3582-2.9505,2.8724-4.4388,4.0329-.1041.0833-.2446.1717-.4007.2602.2394,1.0043.5048,2.1595.6609,2.9765.2446,1.2489.307,2.3.2446,2.8412-.2446,2.2116-1.6704,3.0754-2.6747,3.4084-2.4509.817-6.1664,1.4935-9.2574,2.8985-1.5039.6817-2.9557,1.4831-3.4188,2.9349.895.2446,2.4197.6609,3.2523.9159,2.5654.791,4.1265,2.3469,4.5793,4.163.3174,1.2645.2029,2.5446-.229,3.8091ZM199.3202,162.9548c-12.8479-19.8677-32.4086-35.0001-55.4558-42.1864,1.2905,1.8265,2.5498,3.7154,3.2159,4.9903,3.5853,6.8741,2.9869,11.4013,2.2792,14.409-.1613.6921-.6505,1.8057-1.2541,3.0598-.2862.5932-.6713,1.5715-.9367,2.2792.5828.1457,1.2021.2394,1.8109.333,1.8837.3018,3.679.7129,4.9123,1.4518,1.0616.6401,1.7536,1.6027,2.2012,2.6435.2342-.3747.4631-.7493.6921-1.124,1.1344-1.8525,2.2688-3.679,3.7206-5.1308,1.1812-1.176,2.3417-1.2489,3.1222-1.1916,1.0824.0833,2.0711.536,2.836,1.5663.3122.4215.6973,1.1344.8066,2.1491.0729.6505-.0416,1.9046-.0416,2.5082,0,.2342.0312.6661.0572.9991,2.6851.8482,5.7137.1093,8.5965-.0312,3.2523-.1509,6.3589.1665,9.0909,1.7797,2.5238,1.4935,4.2878,3.6322,5.901,5.9374,1.1396,1.6236,2.1751,3.3616,3.6946,4.725,1.0355.9367,2.3261,1.0668,3.4813.9939.4371-.026.8638-.0833,1.2697-.1613ZM48.4026,214.5859h16.1106c-.2498-.4839-.7597-.9054-1.5195-1.3165-.1925-.0364-1.5767-.2914-2.581-.4007-2.7892-.2914-6.1091-.5464-7.946-1.1344-2.3625-.7545-3.4501-2.2948-3.7675-3.5645-.3695-1.4831-.0989-2.9661.7545-4.3919.3903-.6505.9367-1.3113,1.5039-1.9566.1717-.1873.4267-.4944.5984-.7025-.0208-.5568-.052-1.7016-.0104-2.2688.0781-1.0095.3643-1.8421.7181-2.4301.9419-1.5715,2.2792-2.4353,3.8455-2.9401.5204-.1717,1.0668-.2914,1.6131-.4215.1977-.052.4163-.0312.5828-.1457,1.176-.8274,1.9098-1.9306,2.6851-2.9921.791-1.0772,1.5871-2.1491,2.555-3.117.5048-.5048,2.4353-2.0659,4.9175-.4215.4683.3122,2.3833,1.993,3.4084,2.8985.333-.1041.7649-.2394,1.0772-.3747,1.8629-.817,3.8039-2.0919,4.9591-2.7996.1353-.2134.6921-1.0928.9887-1.6027.4996-.8794.9991-1.6808,1.457-2.2064,3.398-3.9236,6.8949-7.7899,10.0639-11.8696.7025-.9002,1.0147-2.0451,1.5663-3.0338.7337-1.3113,1.6808-2.4666,3.0754-3.3408,2.274-1.4206,4.7406-2.1439,7.1759-2.8308,2.0971-.588,4.2306-1.0459,5.8438-2.81-.5152-.6973-1.5143-2.0659-2.0294-2.8568-1.2905-1.9878-1.7172-4.0277-1.0772-5.953.4163-1.2541,1.2957-2.477,2.6175-3.5697,1.1968-.9939,2.8568-1.941,4.5688-2.9037.4944-.281.9939-.562,1.4831-.8534-.3226.0676-.6296.1301-.9159.1873-1.3478.2706-2.3937.3799-2.7944.3591-3.2263-.1717-7.9304-.7389-10.9017-2.2272-.8014-.3955-1.5767-1.1136-2.1075-1.6652-1.9722.5724-3.6426,1.7953-5.339,2.9349-2.6383,1.7641-5.3078,3.4188-8.43,4.0277-3.0494.5984-4.8655-.1561-5.9738-1.0459-1.0043-.8066-1.6652-1.8993-1.941-3.2627-1.1864,3.5801-3.1378,6.3901-6.6243,7.1655-1.9098.4215-4.522-.2342-7.1707-2.1699-3.2419-2.3625-6.9417-6.6815-9.4083-9.913-8.149,6.1352-15.3509,13.462-21.3456,21.715.4735.7181,1.1448,1.4883,1.8005,2.3104,1.6704,2.1023,3.4813,4.3087,4.5272,6.3173,1.5611,3.0025,1.6027,5.8021.0364,8.0761-.6765.9835-2.0711,3.0702-2.7632,4.7041.6036.4527,1.353,1.0459,1.8057,1.5247,1.6912,1.7849,2.8985,4.1786,1.3686,8.1386-.4215,1.0928-1.2229,2.1647-2.3677,3.1222-1.0616.8846-2.4926,1.712-3.9444,2.4874-.5048.2706-1.1136.6244-1.6704.9523,1.2281,1.0824,2.6539,2.0815,3.9704,2.7684.4111.0676,1.9306.3278,2.6539.5932,1.3582.5048,2.3417,1.3738,2.9141,2.503.8118,1.5923.8222,3.3876.1873,5.2765-.1301.3799-.2862.7649-.4527,1.1552.7806-.0729,1.5455-.1301,2.0242-.1197,1.7641.052,3.0233.7493,3.7883,1.6079.5412.5984.9627,1.3426,1.1032,2.3l2.7319,2.4874ZM26.2557,165.005c-8.9191,14.5339-14.305,31.4563-14.971,49.5808h20.565c-.1769-.1873-.3278-.3851-.4683-.588-1.3894-2.0867-1.2957-4.4231-.3747-6.8064.1145-.307.2758-.7025.4371-1.098-.4371-.1197-.8274-.2602-1.15-.4215-2.8672-1.4362-6.1456-3.9704-8.2374-6.411-1.0772-1.2541-1.405-2.503-1.3894-3.653.026-1.4622.6921-2.9973,2.222-4.3347,1.2593-1.0876,3.4032-2.1647,5.4014-3.2679.7806-.4319,1.915-1.2697,2.1699-1.4622.0104-.0364.0208-.0676.026-.1041-.2498-.1977-.7701-.6036-1.0668-.8118-.614-.4319-1.1604-.869-1.5819-1.3217-1.1708-1.2489-1.6756-2.6643-1.4362-4.3295.3226-2.2792,2.7892-6.7128,4.1682-8.8151-.0676-.1925-.1717-.4735-.2706-.6661-.4475-.8586-1.1032-1.7536-1.8057-2.6643-.7285-.9419-1.5039-1.8941-2.2376-2.8256ZM63.1238,93.4386c.3643-1.2281.6401-2.4926.8274-3.7883H11.4876c.1821,1.2957.4631,2.5602.8274,3.7883h50.8089ZM15.968,101.01c4.7874,6.8689,12.7439,11.3597,21.7514,11.3597,9.0024,0,16.9588-4.496,21.7514-11.3597H15.968ZM214.5566,93.4386c.3643-1.2281.6401-2.4926.8274-3.7883h-52.4637c.1821,1.2957.4631,2.5602.8274,3.7883h50.8089ZM167.4007,101.01c4.7874,6.8689,12.7439,11.3597,21.7514,11.3597s16.964-4.496,21.7514-11.3597h-43.5029Z"/>
    </g>
  </g>
</svg>