<?xml version="1.0" encoding="UTF-8"?>
<svg id="Dog" xmlns="http://www.w3.org/2000/svg" viewBox="0 0 287.9123 170.2236">
  <defs>
    <style>
      

      @import url('../../CSS/SvgStyling.css');
      
    </style>
  </defs>
  
  <g class="content">

    <rect id="bg" class="bg" width="287.9123" height="170.2236"/>


    <path class="cls-1" d="M279.0691,70.8286l-6.3714-7.4975c-2.4097-2.1705-2.4097-6.4998-2.4097-6.4998,1.3828-7.1066-9.7147-15.0709-14.1082-17.9124-.0525-9.9772-3.845-12.9763-6.2781-13.869-2.258-6.6282-8.3786-6.3773-8.3786-6.3773-7.5442-.811-11.0158,9.1371-12.0485,12.9121-14.7617-5.2278-46.5021-13.2446-46.5021-13.2446-15.6719-3.1682-23.4203-.3326-23.4203-.3326-13.9506,2.8298-53.0369-.8344-53.0369-.8344-17.9124-1.8321-42.3654,5.6654-42.3654,5.6654-14.8258,3.3199-20.7422,22.5159-21.7224,26.0925q0,.0058-.0058.0117c-.5835,1.7562-1.412,3.4074-2.2813,5.047-.7818.8577-1.7621,1.7154-2.2813,2.1997l-.0175.0117c-.7235.5426-1.307.8869-1.6279,1.1436-.1692.1167-.2859.2276-.3501.2917-.0583.0759-.0875.1109-.0875.1109,0,0,.035-.0292.1109-.0934.0875-.0467.2042-.1225.3909-.21.3734-.1984.9627-.4143,1.8321-.8985-.0058,0-.0117.0058-.0175.0117.0175-.0058.035-.0175.0583-.0233-.2276.175-.4609.3501-.7002.5193-.2976.21-.601.3968-.8752.5835-.2859.1692-.5543.3267-.7818.4609-.4784.2392-.7877.3968-.7877.3968,0,0,.3501-.0408.8869-.1109.1342-.0233.2917-.0525.4551-.0817-.2509.2567-.4901.5134-.706.7585-.2217.2917-.4318.5543-.5776.7818-.2684.4668-.4493.7818-.4493.7818,0,0,.2742-.2334.6943-.5951.1459-.1109.3151-.2217.4901-.3384-.2509.4143-.4143.846-.4726,1.1844-.0642.3092-.0642.5251-.0642.6418-.1342.0992-.2684.1984-.3968.2976-.2451.1692-.4784.3092-.6827.4434-.4376.2276-.7293.3617-.7293.3617,0,0,.3209-.0175.8169-.07.2392-.0525.5426-.0992.8635-.1809.1809-.0467.3793-.105.5718-.1634-.035.0583-.0642.1167-.105.175-.4259.4318-.9627.9335-1.5695,1.3536-.6126.4434-1.2953.776-1.8379.9394-.2684.07-.5018.1342-.671.1575s-.2626.0408-.2626.0408c0,0,.0934.0117.2626.0408.1634.035.4026.0467.7177.0642.3968.0058.8927-.0467,1.412-.1575-.07.0408-.1459.0759-.2334.1225-.4026.21-.9627.4843-1.4762.7935-.2567.1692-.5018.3267-.7235.5018-.21.1925-.4143.3442-.5485.4959-.2684.3092-.4434.5134-.4434.5134,0,0,.2451-.105.6301-.2684.1167-.0467.2509-.0875.3909-.1225-.1575.105-.3151.21-.4609.3267-.2334.1692-.4318.3851-.6243.5543-.175.2159-.3209.4084-.4376.566-.1692.3384-.2742.566-.2742.566,0,0,.2042-.1459.5193-.3793.1634-.07.3559-.1575.5601-.2509.07-.0175.1342-.035.2042-.0583-.0934.105-.175.21-.2684.3151-.14-.0583-.2684-.0642-.3559-.0175-.0642.0233-.1867.175-.4143.3384-.2217.1809-.5543.3559-.916.5193-.3676.1575-.7527.2859-1.0444.3851-.2917.0875-.4843.1517-.4843.1517,0,0,.1925.0583.4843.1517.2976.0817.7002.1984,1.1494.2801.0058,0,.0175,0,.0292.0058-.2276.1634-.4843.3384-.7643.4901-.2217.1284-.4551.2276-.6768.3326-.2276.0759-.4318.1575-.6126.2159l-.6418.1459s.2567.0642.6418.1634c.2042.0175.4493.0525.7118.0817h.035c-.3734.175-.7935.3968-1.1844.6418-.2334.1517-.4551.3151-.6651.4668-.1984.1634-.3793.3092-.5193.4376-.2626.2801-.4376.4609-.4376.4609,0,0,.2392-.0817.6068-.2042.1867-.0525.4026-.0934.6243-.1459.0992-.0175.21-.0292.3151-.0467-.3384.1867-.7177.4084-1.0677.6593-.2217.1575-.4259.3151-.6185.4726-.1809.1634-.3501.3092-.4843.4434-.2451.2684-.4084.4434-.4084.4434,0,0,.2276-.0759.5835-.1984.1809-.0467.3909-.0934.6068-.1459.2217-.0408.4609-.0875.706-.1167.0642-.0117.1225-.0175.1867-.0233-.0467.0642-.0934.1284-.1342.1867-.3501.3209-.7877.6593-1.2603.9394-.5601.3326-1.1844.5718-1.6745.6301-.2334.0233-.4376.0408-.5893.0058-.1517-.0175-.2334-.0233-.2334-.0233,0,0,.07.035.2042.105.1225.0759.3384.1459.6068.2159.2859.0642.6418.0934,1.0211.0817-.1925.1225-.4026.2392-.6185.3442-.2567.1517-.531.2334-.7877.3501-.2567.0875-.4901.1342-.7118.1984-.2217.0408-.4143.0408-.5426.0583-.1284.0117-.2042.0175-.2042.0175l.1925.0642c.1284.035.3034.1109.5251.1634.1984.0292.4551.07.7235.0934-.0292.0117-.0583.0292-.0875.0467-.1284.0642-.2509.1342-.3793.1984l-.4084.1692c-.5426.2334-1.1027.3968-1.5228.5018-.21.0642-.3968.0759-.5251.105-.1284.0233-.1984.035-.1984.035,0,0,.07.0175.1925.0467.1284.0292.3034.0934.5251.1167.2042.035.4434.07.7002.0992-.105.035-.2042.0817-.3092.1284-.2451.1109-.4901.2159-.7002.3209-.1984.1225-.3851.2392-.5368.3384-.3151.1984-.5193.3209-.5193.3209,0,0,.2451-.0117.6185-.035.1867-.0117.4026-.0292.636-.0408.2334.0058.4784.0292.7235.0408.0525.0058.1109.0117.1634.0175-.4784.14-1.1261.3617-1.7154.601-1.0152.4084-1.9721.7935-1.9721.7935,0,0,.8285.0642,1.7854.14-.1459.035-.3034.07-.4551.0934-.531.0934-1.0677.1109-1.4587.0583-.1984-.0292-.3559-.0583-.4726-.105-.1109-.0408-.175-.0642-.175-.0642,0,0,.0467.0525.1284.1342.0759.0875.2217.1925.4026.3151.2276.1517.5368.2976.881.4259-.2334.0467-.4434.0875-.6301.1225-.3968.0759-.6535.1284-.6535.1284l.6418.175c.1925.0525.4201.1109.671.1809.0467.0117.0992.0175.1517.0292-.1634.0583-.3209.1225-.4784.1809-1.0386.4143-2.0188.8052-2.0188.8052,0,0,.7643.0583,1.6804.1167-.3442.0992-.706.2042-1.0677.3151-.3267.105-.6476.21-.9452.3209-.3034.1284-.5718.2392-.7877.3501-.4143.2392-.6885.4026-.6885.4026,0,0,.3151-.0467.7935-.1225.2451-.0175.5193-.0175.8052-.0292.0817.0058.175.0058.2567.0117-.3676.2159-.7935.4493-1.2369.636-.5193.2159-1.0561.3559-1.4762.3559-.1984-.0058-.3734-.0117-.5018-.0583-.1225-.0292-.1925-.0467-.1925-.0467,0,0,.0583.0467.1575.1225.0875.0817.2567.175.4726.2801.4201.1809,1.0444.2917,1.6862.2976-.0233.0175-.0408.0408-.0642.0642-.3676.1459-.7643.2917-1.1786.4084-.6768.1867-1.3653.2859-1.8846.2859-.2567-.0058-.4726-.0117-.6301-.0467-.1517-.0233-.2392-.035-.2392-.035,0,0,.0817.0408.21.1167s.3442.1634.601.2626c.4026.1459.9394.2626,1.517.3326-.1809.0759-.3676.14-.566.2042-.566.175-1.1319.3209-1.5637.4201s-.7118.1575-.7118.1575c0,0,.2859.0642.7177.1459.3501.07.7993.14,1.2895.1984-.2509.1634-.5193.3326-.7993.4726-.2334.1225-.4726.2276-.7002.3267-.2217.0759-.4376.1517-.6301.2159-.3909.0875-.6535.1459-.6535.1459,0,0,.2626.0583.6535.1575.1984.0292.4493.0583.7235.0875.2626.0117.5601.0233.8577.0117.14-.0058.2859-.0175.4318-.0292-.0525.0292-.105.0525-.1575.0817-.2917.1692-.6126.3326-.9277.4901-.636.3267-1.2778.6418-1.7446.8869-.4434.2626-.741.4376-.741.4376,0,0,.3442-.0583.8577-.1517.5193-.0642,1.2136-.1517,1.9313-.2451.0583-.0058.1167-.0175.175-.0233-.2976.2042-.6126.4143-.9452.6068,0,0-.0058,0-.0058.0058-.1692.0525-.3209.105-.4434.1225-.175.035-.2742.0583-.2742.0583,0,0,.0992.0117.2801.0292h.0292c-.1284.0583-.2567.1225-.3793.1809-.2509.0934-.4959.1867-.7235.2509-.4551.105-.7585.1634-.7585.1634,0,0,.3034.0583.7643.1459.1342.0117.2976.0233.4668.0292-.035.0117-.07.0292-.0992.0408-.5251.2509-.8752.4084-.8752.4084,0,0,.3851-.0467.9686-.1167.2917-.035.6301-.0759.9977-.1225.3734-.0583.7702-.1342,1.1786-.1984.21-.0408.4201-.0817.6243-.1225-.0175.0117-.035.035-.0525.0525-.2334.2159-.4901.3851-.7235.5776-.2392.1459-.4726.2801-.6768.4026-.4609.1692-.7643.2801-.7643.2801,0,0,.3209.0058.811.0175.2509-.035.5543-.0759.8869-.14.2684-.0817.5718-.1575.8694-.2684-.4609.3851-.7585.6418-.7585.6418,0,0,.3734-.1634.9452-.3968.1809-.0817.3909-.1692.6068-.2626-.0759.0759-.1575.1517-.2276.2217-.2042.2451-.3851.4726-.5485.671-.3092.3851-.5193.6418-.5193.6418,0,0,.2859-.1634.7293-.4143.2217-.1284.4784-.2742.7527-.4376.0233-.0058.0408-.0117.0525-.0233-.2276.3092-.3676.4959-.3676.4959,0,0,.3267-.2392.8344-.601.1459-.0875.3151-.1925.4901-.3092.2276-.105.4668-.1984.706-.2859-.3034.2976-.566.5951-.7468.8635-.1342.2159-.2392.3851-.2859.5134-.0642.1225-.0934.1925-.0934.1925,0,0,.0583-.0467.1634-.14.0934-.105.2626-.2217.4434-.3559.1692-.1109.3676-.2217.5893-.3267.0233-.0058.0525-.0175.0817-.0233.2684-.0875.5835-.2042.9277-.3326.0875-.035.1809-.0759.2742-.1167-.1225.1284-.2451.2567-.3676.3734-.2042.1517-.3851.3151-.5718.4376-.3851.2217-.636.3617-.636.3617,0,0,.2859-.0292.7352-.07.2159-.0408.4843-.1167.7818-.1925.2801-.105.5835-.2217.881-.3676.0233-.0175.0467-.0292.07-.0408l-.0875.0875c-.175.21-.3909.3209-.5076.4318-.1284.0992-.1984.1517-.1984.1517,0,0,.0875-.0292.2392-.0817.1517-.0583.3851-.0992.6301-.2392.3793-.1809.8402-.4434,1.3011-.7468-.035.0817-.0759.1692-.1225.2509-.2042.4143-.4843.7818-.7643,1.0036-.2567.2159-.5193.3092-.5076.3092.0058-.0117.2334.0408.6418-.035.1692-.035.3617-.0992.5601-.1809-.0233.0642-.0408.0934-.0408.0934,0,0,.0467-.0467.105-.1167.2451-.1109.5076-.2509.7527-.4259.2217-.1459.4201-.3151.6126-.4843-.0292.1809-.0525.3501-.0642.4843.0117.4026.0175.6651.0175.6651,0,0,.1167-.2392.2917-.601.105-.175.2451-.3501.3734-.5426.0408-.0525.0992-.105.1459-.1575-.1809.4143-.2976.6768-.2976.6768,0,0,.2451-.2567.6185-.6535.0583-.0583.1225-.1284.1867-.1925-.0233.175-.0408.3442-.0467.4843.0117.3676.0175.6126.0175.6126,0,0,.1167-.2159.2859-.5485.105-.1575.2276-.3267.3501-.5018.1517-.175.3034-.3617.4726-.531.2276-.2334.4726-.4434.706-.6185-.175.3092-.3326.6126-.4901.8577-.3326.5076-.5485.8402-.5485.8402,0,0,.2917-.2334.741-.601-.0583.2217-.0992.3559-.0992.3559,0,0,.1692-.1692.4318-.4201.2451-.2742.6418-.5601,1.0094-.846.0583-.0467.1225-.0934.1809-.1342-.0934.2159-.175.4259-.2509.601-.2801.4843-.4668.7993-.4668.7993,0,0,.2801-.2451.706-.6068.1984-.2159.4259-.4668.671-.7352.0292-.0467.0642-.0934.0992-.1342-.0058.0117-.0117.0233-.0117.0292-.1225.2159-.2334.4376-.3501.6243-.2801.3442-.4668.5718-.4668.5718,0,0,.2626-.1342.6651-.3384.1867-.1284.4084-.2976.6593-.4901.0292-.0292.0642-.0642.0992-.0934v.0467s.0058-.0292.0292-.0759c.175-.175.3617-.3617.531-.566.2859-.3559.531-.7468.7293-1.1203-.0525.2801-.0992.5426-.14.7643-.07.531-.1167.8752-.1167.8752,0,0,.1634-.3092.4143-.7818.1342-.2276.2917-.4959.4609-.776.1809-.2684.3676-.5543.566-.8285-.3734,1.1203-.6651,2.0071-.6651,2.0071,0,0,.9277-1.2778,1.9079-2.6198.2159-.2917.4259-.5951.6301-.881-.035.1109-.0817.2159-.1284.3267-.1575.3617-.3267.7235-.4901,1.0619-.1809.3267-.3442.6301-.4901.8927-.3209.5134-.531.846-.531.846,0,0,.3034-.2626.7702-.6535.2276-.2042.4843-.4551.7702-.7293.2684-.2859.5543-.5951.8344-.9277.3851-.4784.7585-.9919,1.0561-1.4878-.1225.3676-.2801.7177-.4084,1.0619-.1984.3501-.3734.6827-.5426.9744-.4026.5368-.671.8869-.671.8869,0,0,.3559-.2684.8985-.6768.2451-.2334.531-.5251.846-.8519.2626-.3442.5776-.7177.8402-1.1203.035-.0525.0642-.1109.0992-.1634-.0233.1867-.0467.3676-.07.5426-.0233.3384-.0467.6535-.0525.916.0117.5134.0233.8519.0233.8519,0,0,.1109-.3209.2859-.811.0992-.2392.2276-.5134.3559-.7935.1517-.2917.3092-.5951.4843-.9044.14-.2392.2859-.4726.4318-.7002-.0117.3559-.0058.6827-.0058.9452.0759.5426.1284.8927.1284.8927,0,0,.0759-.3501.1867-.881.0875-.2451.1984-.5368.3092-.846.1575-.3034.2976-.6301.4726-.9452.1225-.2217.2509-.4376.3793-.6535-.0642.3851-.1225.741-.175,1.0386-.0817.5485-.14.9102-.14.9102,0,0,.7002-1.2953,1.4353-2.6664.0292-.0525.0525-.105.0817-.1575-.0175.1284-.0292.2509-.0467.3734-.0583.2976-.1109.5718-.1575.8052-.0875.4668-.1517.7702-.1517.7702,0,0,.175-.2626.4434-.6593.1342-.2042.2859-.4376.4609-.6885.1517-.2626.3092-.5601.4726-.8577.2917-.4959.5018-1.0327.6885-1.5112v.0175c.0058.3209.0233.6418.0175.9452-.0292.3092-.0525.5893-.0759.8285-.0408.4843-.07.8052-.07.8052,0,0,.1517-.2859.3734-.7177.1109-.2217.2451-.4726.3851-.741.1225-.2917.2334-.6126.3559-.9394.0817-.21.1575-.4201.2217-.6301.0175.3384.0292.6535.0642.9102.0934.5251.1517.8635.1517.8635,0,0,.0642-.3384.1575-.8635.0642-.2567.1634-.5426.2509-.8519.1167-.3034.2451-.636.3909-.951.0292-.0642.0583-.1225.0875-.1809,0,.2917.0058.566.0058.7877.0875.4901.14.811.14.811,0,0,.07-.3209.175-.8052.0875-.2217.1867-.4843.2976-.7702.1459-.2742.2801-.566.4493-.8577.0525-.0875.105-.1692.1634-.2626-.0233.3326-.0233.636.0058.8927.0292.2509.07.4668.1225.5951.0525.1342.0759.2042.0759.2042,0,0,.0058-.0759.0117-.2217,0-.14.0408-.3267.105-.5543.1284-.4493.4026-1.0269.7468-1.5754.1342-.2159.2742-.4259.4201-.6301-.1109.6476-.2684,1.2544-.4784,1.692-.0525.1342-.1225.2392-.1867.3384-.0525.0992-.1109.1867-.175.2509-.1167.1284-.1809.2042-.1809.2042,0,0,.0817-.0525.2334-.14.0817-.0408.1634-.105.2626-.1925.0934-.0817.21-.175.3092-.2976.4318-.4551.8752-1.1786,1.2369-1.9546.2392-.5193.4493-1.0502.6301-1.552.0117.1284.0292.2567.035.3734,0,.2217.0058.4376-.0117.6301-.07.3793-.1167.6301-.1167.6301,0,0,.1634-.1984.4026-.5076.1109-.1634.2217-.3793.3501-.6185.105-.2451.2042-.5018.3034-.7702.0117-.0467.0292-.0934.0408-.14.0117.1459.0233.2801.0408.4084.0934.4551.1575.7585.1575.7585,0,0,.0583-.3034.1517-.7585.07-.2159.1517-.4668.2392-.741.0292-.0642.0525-.1225.0759-.1867.0233.2742.0408.5251.0583.7352.07.4259.1167.7002.1167.7002,0,0,.0759-.2684.1925-.6827.0759-.1925.1634-.4201.2567-.6651.1167-.2392.2276-.4959.3676-.7468.0992-.1867.2042-.3676.3092-.5485.0292.1109.0583.2159.0875.3092.0817.2276.1575.4201.2334.5251.0642.1167.105.1809.105.1809,0,0-.0117-.07-.0292-.2042-.0233-.14-.0117-.3209.0058-.5426.0233-.3326.1167-.7468.2334-1.1844.0292.2334.0583.4551.0875.6418.0525.4026.0934.6651.0934.6651,0,0,.0817-.2509.2159-.6418.0642-.1867.1459-.4143.2276-.6593.0642-.2567.1342-.531.1984-.811.0817-.3151.1517-.6243.2159-.9219.0058.0875.0175.175.035.2626.0175.3267.035.6301.0467.8869-.0233.5368-.0408.8869-.0408.8869,0,0,.14-.3267.3501-.8227.0759-.2626.175-.5718.2742-.9044.07-.3384.1634-.706.2217-1.0852.035-.2334.0642-.4668.0934-.7002.1984,1.2019.3559,2.1355.3559,2.1355,0,0,.1225-.8752.2684-2.0305.035.1575.0642.3209.0934.4668.2509.7177.4084,1.1903.4084,1.1903,0,0-.0408-.4959-.0992-1.2544.0117-.2509.0292-.5368.0467-.8402.035.2334.0875.4493.1517.6476.035.175.1284.3326.1867.4726.0467.14.1167.2451.1809.3267.1167.175.1809.2742.1809.2742,0,0-.035-.1109-.105-.3092-.035-.0992-.0759-.2159-.0875-.3559s-.0583-.2859-.0467-.4668c-.0117-.1634,0-.3442.0117-.5368.0058.0467.0117.0992.0233.1459.07.2859.14.5251.2217.6651.07.1459.1109.2334.1109.2334,0,0-.0058-.0934-.0292-.2567-.0292-.1634-.0175-.3968.0117-.6593.0408-.3676.1634-.8169.3442-1.272.0175.4084.0292.7993.0583,1.1203.0817.7177.1342,1.1903.1342,1.1903,0,0,.07-.4668.1809-1.1844.0642-.3559.1575-.7643.2509-1.2019.0759.3909.2276.6943.3676.8752.0642.0992.1342.1459.1692.1984l.0642.0642s-.0175-.0233-.0467-.0817c-.0233-.0525-.0759-.1225-.1109-.2276-.0875-.1925-.1517-.4959-.1342-.8577.0233-.7235.4201-1.6395.9452-2.5089.1109-.1809.2276-.3501.3442-.5251-.2451.7235-.4084,1.4295-.4668,1.9838-.0233.3384-.0408.6126-.0292.7935.0117.1925.0175.2976.0175.2976,0,0,.0233-.105.07-.2859.0408-.1867.1342-.4376.2509-.7352.2392-.5951.6768-1.342,1.2019-2.0596.2334-.3151.4784-.6301.7177-.9335-1.3653,10.8816-5.1753,28.3914-15.7652,40.2532,0,0-4.8194,4.341-3.2674,9.1721,0,0,3.7867,15.3276,4.1309,20.4913l.3442,4.8369s-1.0911,6.7799,5.1753,7.4392c1.2544,1.0327,3.3608,1.4295,5.1987,1.4295.9044,0,1.9429-.1984,2.7014-.636l.0117.0175c1.0969,0,3.4191.1517,4.4285-.8402,1.1903-1.1728.1984-3.0048-.7118-4.0084-2.1413-2.3864-5.2979-2.4447-8.3144-1.9021-1.6512-4.8136-1.9488-20.3337-1.9488-20.3337,1.2136-11.3251,16.5354-27.4929,16.5354-27.4929,8.3377-8.3844,12.0485-15.4501,13.6472-19.5402.2684,3.9967-.3851,10.199-5.3795,16.0394l-9.6447,9.668s-4.4752,3.5008-2.2405,9.0029c0,0,8.5011,19.5927,10.0881,24.6105-.2334.3968-.4551.7993-.5776,1.1669-.3267.9627-.3793,2.328-.1517,3.3841.3734,1.7504,1.7796,2.3922,3.3374,2.6198.3326,1.3828,1.692,2.5439,3.1565,2.8473.2276,2.0305,3.6817,2.1296,5.1637,2.2697,1.9021.1867,4.4343.105,4.3877-2.3689-.0525-3.1565-3.4599-5.8697-5.4554-8.0868-.3851-.4201-.8169-.8402-1.2486-1.272-1.8437-4.6385-5.7821-17.5098-5.7821-17.5098-1.7212-8.5011,7.9235-18.6592,7.9235-18.6592l17.5681-14.6683c6.3831-5.6771,6.9491-14.0207,6.8499-17.7432,3.4366,1.3011,19.867,7.1066,32.7499,4.5802,0,0,11.1442-3.0223,16.5937-2.2463-1.6629,1.517-3.8684,4.6385-1.7796,9.5805,0,0,2.4155,7.1649,2.2347,11.996,0,0-.1692,17.4923-1.0327,22.16,0,0-.8869,4.8077.07,7.6317-.2509.2976-.5426.5835-.8869.776-.7877.4551-1.8029.4784-2.5789.846-1.3186.6126-1.7387,1.9138-1.4412,3.1565-.881.9627-1.6862,2.293-2.9232,3.1215-1.3653.9044-2.9232,1.4703-4.4168,2.0888-2.3689.9977-4.7494,1.5637-6.4531,3.1099-1.1728.0934-2.4097.5601-3.2382,1.2603-.4143.3501-.7235.7177-.9569,1.1086-3.3608.3326-4.9303,7.445-2.0071,8.892,3.3257,1.6454,8.4894-1.8904,11.0975-3.5241.3326-.2159.6535-.4376.9569-.6651,3.9034-.7293,8.3027-3.4716,8.3027-3.4716l8.787-6.494c5.6829-3.5008,6.1964-16.6696,6.1964-16.6696,1.3828-11.8793,4.8544-25.0423,6.1906-29.8092,1.7796,1.9954,4.481,5.7705,5.6946,11.3134,0,0,6.1964,25.83,4.9886,33.3275,0,0-1.6687,8.752,2.8648,6.8907,1.0036,1.3128,2.0013,2.5731,2.6839,4.1076.8577,1.9488,1.0969,4.0084,1.6395,5.998.4609,1.6862.776,3.8625,2.328,5.0295,1.552,1.1553,4.3468.7527,6.2022.846,1.3828.0642,2.8882.035,4.0376-.5426,1.2253,1.1494,6.7215.3267,7.5559-1.1086.9394-1.6279-.5776-3.2616-2.3105-4.1193-.8402-1.1086-2.2813-2.118-3.3433-2.2288-1.6862-.1867-3.2791.5193-4.8661.6476-4.8136-4.6852-5.5954-18.8576-5.5954-18.8576,0-5.1637-1.2078-11.1617-1.2078-11.1617l-2.2405-25.159c-.1692-10.1698,6.7157-14.4991,6.7157-14.4991,3.2557-2.4797,5.152-5.8813,6.1789-8.3435.0817.1459.1634.2976.2392.4493.1225.2509.2392.5018.3442.7352.0875.2392.1809.4609.2451.6593.1109.4026.1867.6651.1867.6651,0,0,.0525-.2684.1225-.6768.035-.21.0467-.4609.07-.741.0117-.2742.0117-.566.0058-.8694-.0058-.1575-.0117-.3034-.0233-.4551.0467.0525.0992.1167.14.1692.0525.1109.0934.2217.1342.3384.0817.2334.1517.4784.21.706.035.2217.0817.4376.0992.6301.0117.3909.0175.6476.0175.6476,0,0,.1109-.2276.2917-.5835.07-.1809.14-.4143.2276-.671v-.0175c.0817.2859.1575.5485.2276.776.0934.531.1575.8752.1575.8752,0,0,.0583-.3442.1575-.8752.0175-.2742.0408-.5893.0642-.9335.035.0934.0759.1925.1109.2859.1634.4668.2626.9335.2567,1.2953-.0058.1692-.0117.3267-.0408.4318-.0233.1109-.035.1692-.035.1692,0,0,.0408-.0467.1109-.1342.0759-.0759.1634-.2159.2684-.3968s.1984-.4201.2742-.6885c.0175.1984,0,.3676-.035.4843-.0408.1517-.105.2334-.0992.2334-.0058-.0058.0759-.0525.175-.1925.035-.0525.07-.1109.0992-.1809.0058.0117.0058.0233.0117.035.0233.2509.0467.4784.07.671.0175.4084.0292.671.0292.671,0,0,.1109-.2451.2801-.6126.07-.1925.1575-.4201.2509-.671.0408-.1284.0817-.2684.1225-.4084.105.2801.1867.5543.2217.7935.035.2626.0642.4843.0408.6476-.0058.1575-.0117.2509-.0117.2509,0,0,.035-.0817.0992-.2334.07-.1459.1225-.3734.1867-.6593.0759-.3968.0817-.916.0292-1.4645.0583.105.1167.21.1692.3151.175.3384.3092.6768.4609.9977.105.3267.21.6243.3034.881.105.5543.175.916.175.916,0,0,.0525-.3617.1342-.9219.0058-.2859.0058-.6301.0117-.9977-.0175-.1459-.035-.3034-.0467-.4609.0408.0817.0817.1634.1167.2392.2742.6126.4784,1.2311.5134,1.7096.0175.1284.0117.2276.0058.3267,0,.0992-.0117.1867-.035.2567-.0292.14-.0525.2217-.0525.2217,0,0,.0467-.07.1342-.1925.0467-.0525.0875-.1342.1284-.2334.0467-.0992.105-.2159.1284-.3442.1342-.4318.1809-1.0211.1634-1.6279.0292.0467.0525.0875.0759.1284.3851.6768.6476,1.3828.7002,1.9488.0175.2684.0292.5134-.0058.6827-.0233.1634-.035.2626-.035.2626,0,0,.0408-.0875.1167-.2392.0875-.1517.1517-.3851.2392-.6885.1167-.4843.1109-1.1378.0117-1.8087.0292.0583.0525.1225.0759.1867.1517.3909.2684.7877.3909,1.1553.0992.3734.1867.7177.2684,1.0094.1167.6068.1925,1.0094.1925,1.0094,0,0,.0467-.4026.1225-1.0152.0117-.3209.0292-.6885.0467-1.0852-.0058-.3092-.0117-.6476-.0292-.9861.0759.1342.1517.2626.2276.3968.1634.3092.3151.6243.4668.9219.1167.2976.2392.5718.3326.811.1517.5018.2509.8285.2509.8285,0,0,.0233-.3384.0642-.8635-.0058-.2567-.0233-.5776-.035-.9219-.0117-.0875-.0175-.1809-.0292-.2742.0759.1984.1517.3909.2276.5718.14.2742.2626.5251.3793.7293.2567.3851.4318.636.4318.636,0,0-.0583-.2976-.14-.7468-.0233-.2276-.035-.4901-.0525-.7527.0058-.1634.0058-.3326.0117-.4959.0175.0408.0292.0817.0467.1225.1109.2626.2159.5193.3151.7643.1109.2334.21.4493.2976.6301.175.3617.2917.601.2917.601,0,0,.0058-.2626.0175-.6593.0058-.2042.0117-.4434.0175-.6943,0-.0525.0058-.1167.0117-.1692.0117.0467.0292.0992.0408.1517.0525.2567.105.4959.1517.7002l.1459.671s.07-.2626.1692-.6651c.0467-.2042.105-.4434.1634-.7002.0525-.2567.0992-.5426.1517-.8285.0117-.0759.0233-.14.035-.2159.0292.07.0467.14.07.2159.105.3501.1809.6943.2567,1.0211.0408.3151.0817.6243.105.8985-.0292.5426-.0467.8985-.0467.8985,0,0,.14-.3326.3501-.8344.07-.2509.1342-.5485.2159-.8927.0292.1925.0583.3793.0992.5601.0175.3326.035.636.0525.8927-.0408.5485-.07.8985-.07.8985,0,0,.1459-.3209.3734-.8227.0817-.2684.175-.5893.2742-.9335.0408-.2334.0817-.4843.1167-.7352.035.1809.0642.3676.0934.5426.0292.3384.0583.6476.0759.916-.0175.5485-.0292.9102-.0292.9102,0,0,.1342-.3384.3326-.8519.0817-.2684.1634-.5835.2567-.9452.0292-.1867.0642-.3734.0992-.5718.0292.1634.0642.3267.0992.4784.0408.3267.0759.6243.105.881.0058.5368.0058.8869.0058.8869,0,0,.1225-.3326.3034-.8344.0583-.2217.1225-.4901.1867-.776.0175.0759.0408.1575.0583.2276.0817.3676.1575.7118.2159,1.0094.0875.601.14.9977.14.9977l.175-.9919c.0233-.2042.0467-.4493.07-.7002.0525.2276.105.4376.1459.6243.0759.4143.1284.6943.1284.6943,0,0,.07-.2742.1809-.6885.0175-.0583.0292-.1284.0467-.1925.0875.21.2042.3851.2859.4726.0875.0992.1342.1575.1342.1575,0,0-.0233-.07-.0583-.1925-.0233-.0642-.0292-.14-.0408-.2276-.0117-.0759-.0175-.175-.0175-.2801-.0058-.3559.0583-.8169.1692-1.2895v.0175c.0934.5835.21,1.1319.3092,1.5462.0934.4026.1517.671.1517.671,0,0,.0642-.2626.1634-.671.0117-.0583.0292-.1284.0467-.1925.0525.2917.105.5543.1517.7818.0992.4259.1575.7118.1575.7118,0,0,.0583-.2859.1575-.7118.0525-.2217.1109-.4784.175-.7527.175.811.3151,1.4645.3151,1.4645,0,0,.2684-1.0211.5426-2.1121.0058.035.0175.0642.0233.0934.07.3326.0817.6593.1284.9744-.0058.3092-.0058.5893-.0117.8344-.0992.5018-.1692.8344-.1692.8344,0,0,.1867-.2859.4609-.7235.0934-.2334.2159-.5193.3384-.8402.035.2392.07.4668.105.6535.0817.4726.1284.7818.1284.7818,0,0,.0759-.3034.1867-.7702.0934-.4259.2334-.9861.3851-1.5637.0175.1517.035.2976.0525.4493.0175.3034.035.5835.0408.8227-.0058.4901-.0175.8169-.0175.8169,0,0,.1284-.3034.3267-.7527.0817-.2334.1867-.5134.2801-.8227.0817-.3092.1809-.6418.2509-.9861.0058-.0175.0117-.035.0117-.0525.035.1342.0642.2684.0875.4026.14.7352.1634,1.4587.035,1.9896-.0642.2509-.1284.4784-.2217.6185-.0759.14-.1225.2276-.1225.2276,0,0,.07-.0642.1925-.175.1284-.105.2742-.3034.4434-.5543.2859-.4551.5018-1.1203.6301-1.8321.0992.6126.1517,1.2136.0875,1.6454-.0292.2217-.0934.4026-.1692.5076-.0759.1109-.1575.1517-.1517.1575,0-.0117.0759-.0058.21-.0934.1284-.0875.2801-.2451.4084-.4726.1692-.2859.3092-.6593.4259-1.0677.0058.21.0175.4201.0233.6185.035.3092.0642.601.0875.846.0817.4784.1342.7877.1342.7877,0,0,.07-.3034.1809-.7818.07-.2276.1459-.4959.2334-.7877.0292-.0875.0642-.1809.0934-.2742.0058.0642.0058.1342.0117.1984.0292.2801.0583.531.0934.7293.0992.4084.1634.671.1634.671,0,0,.0583-.2684.1517-.671.0583-.1984.14-.4201.2159-.6535.0058-.0058.0058-.0117.0117-.0175.0058.2859.0408.5485.0992.7643.07.2334.1342.4143.2042.5251.0583.1109.0934.175.0934.175,0,0-.0058-.07-.0117-.1984-.0175-.1342,0-.3151.0292-.5134.0583-.3676.2451-.8169.5018-1.2486-.035.4084-.0525.8052-.0175,1.1203.0175.2334.0583.4318.1284.5601s.1517.1517.1459.1575c.0058,0-.0583-.0642-.0642-.1809-.0058-.1225.0292-.2976.0992-.5018.14-.4084.4201-.9394.7293-1.4703.0233-.0408.0525-.0875.0759-.1284-.0175.1459-.035.2917-.0583.4318,0,.3326-.0058.6418-.0058.9044.0759.4959.1284.8227.1284.8227,0,0,.07-.3267.1809-.8169.0292-.0642.0583-.14.0934-.2159-.0117.1342-.0233.2567-.035.3734.0117.4726.0175.7818.0175.7818l.2917-.7293c.105-.2042.2334-.4434.3676-.7002.1575-.2451.3151-.5134.5018-.7643.07-.0992.14-.1867.21-.2801-.0525.21-.0934.4201-.1342.6068-.0408.2917-.07.5543-.0875.776.0117.4318.0117.7177.0117.7177,0,0,.1167-.2626.2976-.6593.105-.1809.2334-.3909.3734-.6185.1575-.2159.3209-.4493.5018-.6651.105-.1167.2042-.2334.3034-.3442-.0992.2684-.1867.5368-.2684.7818-.0642.3209-.1284.6068-.1634.846-.0058.4726-.0058.7818-.0058.7818,0,0,.1225-.2859.3151-.7177.1225-.2042.2801-.4259.4318-.6535.1575-.1867.3326-.3851.5076-.5776-.0525.1459-.1109.2917-.1634.4318-.0992.3384-.175.6535-.2392.9102-.0467.5134-.0817.8577-.0817.8577,0,0,.1517-.3092.3851-.7818.14-.2042.3151-.4434.5018-.706.2217-.2451.4318-.5076.6827-.7585.2567-.2626.5426-.5134.8169-.741-.0233.0642-.0408.1225-.0642.1867-.2042.6126-.4434,1.1844-.6476,1.6045-.2276.4201-.3793.6943-.3793.6943,0,0,.2451-.1984.6243-.5018.3617-.3267.8402-.8052,1.2778-1.3245.105-.1225.21-.2451.3092-.3734-.0583.1867-.1167.3676-.1692.5426-.1109.2626-.2217.5076-.3209.7293-.2567.4084-.4318.6827-.4318.6827,0,0,.2626-.1925.6593-.4726.1809-.175.4084-.3793.636-.6185.175-.2159.3793-.4551.566-.7002-.0934.4784-.1925.9335-.2742,1.2895-.0992.4493-.1692.7468-.1692.7468,0,0,.1809-.2451.4551-.6243.2684-.3676.6185-.8577.9627-1.3828-.0292.0934-.0525.1925-.0817.2801-.0467.3034-.0934.5893-.1342.8285-.0233.4668-.035.776-.035.776,0,0,.1342-.2801.3384-.7002.1225-.1984.2684-.4201.4201-.6651.1342-.175.2684-.3559.4143-.531-.07.2451-.0992.5018-.14.6885-.0292.2159,0,.3909-.0058.5134,0,.1225.0058.1925.0058.1925,0,0,.0292-.0642.0817-.175.0583-.1109.105-.2859.2276-.4609.1284-.175.2392-.3617.4143-.5601.1867-.1984.3501-.4143.5718-.6068.1925-.1867.3968-.3676.5951-.5368-.105.2801-.175.5718-.2451.8227-.0467.2801-.0817.5251-.105.7235.0058.4026.0058.671.0058.671,0,0,.1225-.2392.3034-.601.1109-.1692.2451-.3559.3793-.5426.1109-.1284.2276-.2567.3501-.3909-.0992.2451-.1984.4726-.2742.6651-.1459.4493-.2392.741-.2392.741,0,0,.2042-.2334.5134-.5951.1634-.1692.3617-.3617.566-.5718.14-.1167.2801-.2451.4259-.3734-.1459.3676-.2451.7352-.2392,1.0269.0058.4376.1692.6301.1517.6418.0117.0117-.0117-.2859.1575-.5718.1634-.3151.5076-.6418.916-.9219.3384-.2392.7002-.4493,1.0327-.6243-.0408.1225-.0759.2451-.1109.3559-.0467.2859-.0934.531-.0992.7293.0233.3968.0408.6535.0408.6535,0,0,.1109-.2334.2684-.601.0934-.175.2392-.3442.3676-.5193.1634-.175.3384-.3559.5251-.5134.0875-.07.1692-.1342.2567-.1984-.14.4551-.3034.9044-.4259,1.2369-.1284.3617-.2159.601-.2159.601,0,0,.1925-.175.4784-.4376.2684-.2392.6185-.5601.9744-.9219-.0583.3676-.1109.7352-.14,1.0094-.0117.2801-.0175.4726-.0175.4726,0,0,.1225-.1459.3092-.3676.1984-.21.4668-.4668.7585-.7585.0467-.0408.0934-.0934.14-.14,0,.1634,0,.3151.0058.4434.0467.3501.0759.5718.0759.5718,0,0,.0934-.21.2392-.531.0817-.1459.1867-.3151.2917-.4901.1225-.1692.2567-.3559.4026-.5251.0467-.0642.0992-.1167.1517-.1809-.0292.1167-.0467.2276-.07.3326-.0233.2392-.035.4434-.0408.6068.035.3267.0583.5368.0583.5368,0,0,.0992-.1925.2509-.4843.0934-.1225.1984-.2626.3151-.4201.1459-.14.2801-.2917.4376-.4318.3034-.2684.636-.4843.916-.6535l10.0006,5.8638c3.1507,1.5695,5.047,1.0036,6.0622.2626,3.2674.4843,5.6538-1.7912,6.7974-3.2032,5.1228-1.9838,2.2989-4.7202,2.2989-4.7202ZM35.6243,61.2364c-.0934.0817-.1925.1517-.2859.2276.0583-.1225.1459-.2917.2801-.4784.2451-.3501.6593-.741,1.1611-1.0036.0934-.0525.1925-.0992.2917-.1459-.0233.0467-.0467.0875-.0642.1225-.3734.3851-.8577.8519-1.3828,1.2778Z"/>
  </g>
</svg>