<?xml version="1.0" encoding="UTF-8"?>
<svg id="Envy" xmlns="http://www.w3.org/2000/svg" viewBox="0 0 308.0716 237.9843">
  <defs>
    <style>
      

      @import url('../../CSS/SvgStyling.css');

    </style>
  </defs>
  
  <g class="content">

    <rect id="bg" class="bg" width="308.0716" height="237.9843"/>

    <path class="cls-1" d="M48.6581,7.7018h-.1816c-2.3311.0469-4.5274,1.1421-6.5129,2.3603-1.5287.902-3.1217,2.0558-3.5844,3.7543-.164.6384-.1816,1.3295-.4861,1.9152l-.3046.4568c-.2636,1.0952,1.1597,1.6458.9898,2.4658-.123.5974,0,1.2182.1289,1.8156l.3748,1.9445c-.0527.0117-.1113.0176-.164.0176-.328,0-.6618-.1699-.9722-.1699-.0937,0-.1874.0117-.2753.0527l-.41.3924c-.8961,2.2198-.6677,4.4747.0117,6.4895.123.4041.3104,1.0542.656,1.3295.3514.2928,1.0894.369,1.5228.4686.7731,2.0089,1.2065,4.1174,1.3178,6.2669-.3866.1699-.738.4744-1.0191.779-1.3705,1.4935-2.5712,3.1452-3.5903,4.8964-1.3998.2577-2.7118,1.0542-3.8714,1.8684l-2.1553,1.3705c-1.6692.861-3.5552,1.1831-5.3298,1.7629-1.7805.5798-3.5669,1.5287-4.4513,3.1745-.4803.8903-.7321,1.9562-.738,2.9577v.041l.082,1.2885c.2811,2.987.7028,5.9331.7438,8.9142l.0351,1.7629c.1464,2.5126.8375,4.9198,1.4994,7.3387.6677,2.4658,1.4291,4.9315,2.5068,7.2626.7263,1.5814,1.6048,3.0925,2.4892,4.6035l3.4556,5.9331c-.287,1.2475-.5798,2.5068-.8903,3.766l-3.8129,35.1122c1.4877.1171,2.9695.2284,4.4513.3338.3866.0234.8083.0703,1.1304.3046.5623.4158.2811,1.4877.615,2.0968l.1874.4393.0703.1874v8.844c.0586.1406.1113.2811.1523.4276l.0703,1.2475c-.1523,3.5376-.082,7.0869.2108,10.6245,0,.492-.164,1.6868-.0351,2.3662l.4393,26.2156h.1113l1.4877,23.7264c-.0059.5915-.0586,1.2358,0,1.8215.0644.861.4978,1.6048,1.3647,1.9152l.4334.246c0,.6208-.1874,1.0542-.3748,1.4877-.8024,1.9152-1.4818,3.8949-1.6048,5.9975-.0644.8668-.1874,1.7336-.5623,2.536l-.1816.5564c-.3748,1.6692.0586,2.536,1.3588,3.2155l1.5462.6853c1.0484.369,1.9152.861,2.782,1.5462,1.5462,1.1714,3.2799,2.0968,5.2537,2.3486l.5564.123c2.0382.3924,3.889.7731,5.7515.7731.5154,0,1.0308-.0293,1.5462-.0937,2.782-.3748,5.6285-.4978,8.4105-1.1772.4978-.6208.6208-1.2944.4978-2.0968-.2518-1.3002-.6853-2.4716-1.4232-3.5844-.6794-1.0542-1.4818-1.9796-2.4716-2.782-1.7922-1.5462-3.397-3.2799-4.8202-5.1951l-2.536-3.4673c-.246-.3046-.4978-.6794-.6794-1.0484-.3104-.4978-.4334-.9898-.2518-1.5462.1874-.5564.1874-1.1714.123-1.7922l-.246-5.2537c-.123-2.1671-.369-4.3283-.369-6.4953,0-2.782.123-5.5641.369-8.3461l1.2358-12.6158c.5564-5.4762,1.0484-11.0227,1.7219-16.5048l-.0176-.1054.0586-.4686c.0937-.3104.1289-.4334.1757-.5506.2284-1.1245.6677-2.2022,1.0132-3.2974l.0996-.4744c.1171-.533.164-.8317.1933-1.1245l.0293-.3221v-.1113l.0059-.1113.0234-.0644v-.1581l.1113-.3456.0527-.1933.0059-.0351.0059-.1054.082-.2401c.1816-.3221.287-.5681.3631-.8258l.0761-.164.082-.1054.0644-.2167.0527-.0351.0059.0234.3397-.2987.3046-.0234.205-.041.2343.0469.2167.1464.1464.1581.1757.2284.0644.1523c.3514.4393.5974.9313.8141,1.4115l.9195,2.0265c.1406.287.2577.5857.3807.8785l.0879.123c.1991.3163.3807.5564.5213.8141l.3924,1.1187c.0527.123.1699.3163.2343.4627l.1816.4861.0469.2577.0469.1054.0234.0644.0059.0234.0176.1054.0059.0644v.0527l-.0117.0879-.0351,2.8523c-.0644,3.028-.1874,6.1205-.3104,9.1485-.3104,7.2333-.123,14.4666.369,21.6413.3104,4.3283.6208,8.5921.4978,12.9204l.123,1.1128c.1874.4978.1289.8668-.123,1.3588l-.615,1.7336c-.6208,1.9211-.8024,3.8949-.8024,5.8745l-.246,2.782c-.3104,1.3002-.3104,2.659.123,3.9593l.4334.1874c1.9562.328,3.7601.5564,5.5582.5564.5388,0,1.0718-.0176,1.6165-.0644.1347-.0059.2694-.0117.4041-.0117.7145,0,1.3822.1464,2.0089.5096l1.3588.6853c1.8566.738,3.7074,1.4174,5.6929,1.7278,1.1187.164,2.2432.2343,3.3677.2343,2.7118,0,5.4177-.3983,8.1294-.7907.3104-.0586.738-.246.9254-.4978.8024-.984,1.2944-2.0382.5564-3.274l-.123-.3104c-.738-1.7336-1.8566-2.9109-3.4029-3.6489-3.1569-1.4818-6.0561-3.4029-9.0255-5.1951l-2.9695-2.2842c-.4334-.369-.861-.8024-1.0484-1.3002l.4334-1.8508c.0527-.4451.0996-.8903.1464-1.3354l.1347-.1757c.3221-.574.4627-1.1655.6384-1.6927l.0586-.2108.0351-.123.0176-.0351.3104-1.3237c.0117-.1054.0703-.1816.1406-.2518l2.1378-19.4918,2.864-23.5507h.0293l.0293-.1347.082-.1933.0469-.1171.0117-.0469.0527-.2167.1171-.2928.1581-.1347.041-.0351.0351-.1113c.0527-.3866.1113-.6853.1406-.984l.0234-1.025c-.0176-.3221-.0703-.6501-.0703-.9722l.0059-.041.0059-.1289-.0234-.3631.0293-.3456v-.123l-.0176-.0996c-.0586-.3104-.0527-.5681-.0586-.8317l-.0176-.3631c-.0469-.492-.0879-.8024-.123-1.1128-.5857-5.6988-1.3705-11.3683-2.3486-17.0144l-.3221-1.4291c-.1699-.5096-.4217-.9957-.5447-1.5228-.1523-.697-.0703-1.3998-.0703-2.0968.0117-.6208-.1816-1.0952.1699-1.6634.205.5681.7263,1.0425,1.2944,1.2768.2694.0996.5506.1523.8375.1523.328,0,.6501-.0703.9547-.2108.2518-.123-.5037-4.4923-.5564-4.9784l-.7263-4.3575c-.5623-3.3384-1.0074-6.712-1.5872-10.0563l-1.5462-9.8279c-.3514-2.0382-.6911-4.0881-1.0367-6.1263l-.3046-2.0968c-.0761-.7087-.1113-.943.2753-.943.1289,0,.3046.0293.533.0703.8961.1581,1.7922.2284,2.6942.2284.5096,0,1.0191-.0234,1.5287-.0586,2.782-.2401,5.4821-.984,8.1763-1.6517.7731-.1933,1.6107-.4276,2.0558-1.0777.2694-.3924.3514-.8785.4217-1.3295l.4627-2.7762c.1171-.697.205-1.2944.2108-1.9035v-.0527c0-.4803-.0586-.9722-.2108-1.5228-.2811-1.1362-.7028-2.2315-1.23-3.2857-.3514-.6794-.6325-1.2651-.7731-2.0148-.1289-.6735-.1933-1.3822-.6033-1.9621l-1.6224-1.9445c-.2753-.3338-.5681-.6618-.8551-.9957-.4217-.4978-.8493-.9957-1.4232-1.3002l-1.0894-.4744c-.7438-.3866-1.2358-1.0777-1.7512-1.7044l-.615-.6501c-.8375-.7614-1.4584-1.7922-1.9621-2.7996-1.0484-2.0792-1.6927-4.3693-3.0339-6.2962l-.9195-1.5111c-.1699-.4158-.2811-.8493-.41-1.2651-.5037-1.6458-.9371-3.766-2.4775-4.5743-1.6927-.8844-3.6899-.902-5.5231-1.4408-1.9621-.5857-3.7074-1.7746-5.7105-2.2315-1.0015-.2343-2.1495-.3221-3.0925-.7614l-.5681-1.3764c-.1581-.3748-.3221-.7731-.2928-1.1772.0234-.4568.2928-.8727.533-1.2768,1.7629-2.8992,2.8523-5.8921,3.5669-9.1954.3046-1.4115.5037-2.8406.5857-4.2814.0293-.4568.041-.943-.0937-1.3881l-.2401-.5388c-.1933-.943.1406-1.5989.4041-2.2198.3807-.861.656-1.7805.8258-2.7059.1406-.7087.1933-1.4408.0117-2.1495-.3046-1.1772-1.3647-2.0089-2.2901-2.8113.1406-1.4467-.7145-2.8406-1.8625-3.7426-1.148-.9195-2.5419-1.4174-3.93-1.9035-1.6341-.5623-3.3092-1.1245-5.0194-1.1245Z"/>
    <path class="cls-1" d="M225.5605,8.0591s19.0877,1.9211,28.3592.9605c0,0,2.4072-.205,1.4467.8903l-7.3504,7.7429s.4803,7.6081.4803,9.8689c0,0,1.1011.0703,1.3705,1.3705,0,0,.6208,5.2068-1.5755,6.5773,0,0-1.7864,1.1011-2.3369.9605,0,0-.3456,2.3311-.9605,3.7719,0,0-.6208,1.6458-.6208,3.0807,0,0,.8258.1406,1.6517,1.7805,0,0,1.0952,3.2213,2.8172,4.3224,0,0,5.0135,2.1202,12.6334,4.0413l-11.4679-13.1605s1.9914-3.561,4.463-4.5215l16.7567,20.1478s2.8875,1.0952,4.3283,1.5111l-.41,1.6399-2.4072-1.3002,4.8788,5.6226s1.4408-1.5814,2.5419-1.0308c0,0,.82.6853.6853,1.9211,0,0,1.9211-.0703,2.1261,2.1202,0,0,1.9914.3456,1.7864,2.4013,0,0,.9605.1347,1.2358,1.0952,0,0,.8961,2.1261-1.5755,3.9768,0,0,4.873,9.0431,3.0163,19.5973,0,0-1.6458,6.5832-4.8027,7.4734,0,0-7.1454,1.5755-12.7095,1.4349,0,0-2.2666,0-3.9124-1.6399,0,0-3.1569-3.4966-4.258-6.5129,0,0,0,4.2463-.4803,7.0576,0,0-.8258,2.1963-.3456,7.1982,0,0,1.9269,21.7936-2.5419,37.1446,0,0-.82.615,0,3.4263,0,0,1.0308,8.3578-.615,16.7859,0,0-1.0308,7.8834.41,14.4607,0,0,1.5814,10.0095-.82,16.5165,0,0-1.7864,3.7719-1.1714,8.639,0,0,2.9519,2.6005,2.9519,4.7265,0,0-.1347,2.6063-1.2358,4.5215,0,0-1.0952,1.5111-.82,3.8363,0,0,.4803,1.8508,1.1655,3.0163,0,0,.6208,1.3705.5506,2.946,0,0,.205,2.536-1.6517,3.6371,0,0-4.668,1.7102-11.6026.205,0,0-1.0308-.2753-1.2358-1.7864,0,0-.2108-2.4658,1.0952-4.8612,0,0,.7555-2.946-.1347-5.6226,0,0-4.1877-4.3166-4.1877-10.0739,0,0,.205-5.2068,2.536-6.9873,0,0,1.9914-.5506.5506-3.0163,0,0-2.7469-5.6226-2.4716-10.9642l-1.8566-1.5111s-1.3705-.7497-4.3224-.41l1.7864,5.8276s1.1655,3.7016-.6911,7.8776c0,0-1.7805,3.2213-.6853,6.8526,0,0,2.2666,5.8979,1.2358,12.4752l-.0703,3.766s.2108.9605-2.0558,1.9914c0,0-2.8172,1.1655-3.7133,2.8757,0,0-1.025,2.4013-4.9432,2.4013,0,0-7.6901.5447-9.5468-1.8508,0,0-1.0308-2.2608.5506-4.0471,0,0,.8258-1.3002,2.9519-1.8449,0,0,3.438-1.8508,4.1936-4.3224,0,0-.8961-4.1116-2.7469-6.302,0,0-1.3764-1.5755-.8961-4.4571,0,0,.3456-3.2857-.205-5.6168,0,0-1.7864-8.9787-.8258-15.2807,0,0-7.4851-2.536-10.9173-2.536l5.1482-35.8444s2.5419-17.0612,1.1011-20.0775l-1.6458,3.0163s-.4861,1.23.0644,2.1202c0,0,.8258,2.1261.205,3.7719,0,0,.0703,1.4408-.4803,2.0558,0,0,.8258.0703.8258.615,0,0,0,.615-1.4408.6853,0,0-.4803.615-2.6122.0703,0,0-1.1655-.4803-1.9211-1.2358,0,0-1.9211-2.8757-1.9211-5.2068,0,0,.0644-2.0558.2694-5.1424l-12.7037-6.4368s-.5506-.2753-.2753-1.3061c0,0,17.6528-47.4235,19.2341-56.6071,0,0,1.0952-4.8612,3.9827-6.4426,0,0,6.8643-3.0807,10.7123-4.176,0,0,1.7161-.5506,1.9914-2.0558,0,0,.5506-2.4716,1.1655-2.8816l-.0644-1.5755s-2.9577-2.4658-3.848-6.4426c0,0-2.0616-2.1905-2.5419-4.3166,0,0-1.3764-4.3166.9605-3.4966l.0703-1.1655s-2.2666-5.3415-2.0616-8.2875l-1.8508-.1406s-.6911,18.8476-1.9972,23.2988c0,0-2.536,1.1655-3.6371-.6853,0,0,3.4322-16.1007,3.7777-22.6839l-4.7382-.41s-.6208-.1347.3397-1.0952l8.3813-10.4195s.205-.6853,2.1319-.3397Z"/>
  </g>
</svg>