<?xml version="1.0" encoding="UTF-8"?>
<svg id="EvilEye" xmlns="http://www.w3.org/2000/svg" viewBox="0 0 249.009 237.9843">
  <defs>
    <style>
      

      @import url('../../CSS/SvgStyling.css');

    </style>
  </defs>
  
  <g class="content">

    <rect id="bg" class="bg" width="249.009" height="237.9843"/>

    <path class="cls-1" d="M124.5042,171.1451c-30.2804,0-57.3719-13.3113-74.7668-24.4725-18.7296-12.027-30.2804-23.9242-30.7638-24.4292-1.746-1.8109-1.746-4.6896,0-6.5005.4834-.505,12.0343-12.4022,30.7638-24.4292,17.3948-11.1685,44.4863-24.4725,74.7668-24.4725s57.3719,13.3041,74.7668,24.4725c18.7296,12.027,30.2804,23.9242,30.7638,24.422,1.746,1.8181,1.746,4.6896,0,6.5077-.4834.4978-12.0343,12.4022-30.7638,24.422-17.3948,11.1685-44.4863,24.4797-74.7668,24.4797ZM29.1104,118.9895c4.6175,4.2711,13.7369,12.1353,25.8938,19.92,16.291,10.4254,41.5788,22.8636,69.5,22.8636s53.209-12.4383,69.5072-22.8636c12.1569-7.7847,21.2692-15.6489,25.8866-19.92-4.6175-4.2639-13.7297-12.128-25.8866-19.9128-16.2982-10.4326-41.586-22.8636-69.5072-22.8636s-53.209,12.4311-69.5,22.8636c-12.1569,7.7847-21.2764,15.6489-25.8938,19.9128Z"/>
    <path class="cls-1" d="M124.5042,75.2174c-24.1767,0-43.7721,19.5953-43.7721,43.7721s19.5953,43.7721,43.7721,43.7721,43.7721-19.5953,43.7721-43.7721-19.5953-43.7721-43.7721-43.7721ZM124.5042,132.1853c-7.2869,0-13.1886-5.9089-13.1886-13.1958,0-7.2797,5.9017-13.1886,13.1886-13.1886s13.1886,5.9089,13.1886,13.1886c0,7.2869-5.9017,13.1958-13.1886,13.1958Z"/>
    <path class="cls-1" d="M72.2692,71.5956c-1.7676,0-3.4631-1.0029-4.2567-2.7128l-18.3905-39.4648c-1.0894-2.3448-.0794-5.1297,2.2727-6.2264,2.3448-1.0894,5.1297-.0794,6.2264,2.2727l18.3905,39.4576c1.0894,2.352.0794,5.1369-2.2727,6.2336-.6349.2958-1.3131.4401-1.9696.4401Z"/>
    <path class="cls-1" d="M176.7825,71.6533c-.671,0-1.3419-.1443-1.9841-.4473-2.3448-1.0894-3.3549-3.8816-2.2654-6.2264l18.4265-39.4504c1.0966-2.3448,3.8816-3.3549,6.2264-2.2654,2.3448,1.0966,3.3621,3.8888,2.2654,6.2336l-18.4193,39.4504c-.8008,1.7027-2.4891,2.7055-4.2495,2.7055Z"/>
    <path class="cls-1" d="M53.8716,215.2274c-.6638,0-1.3419-.1371-1.9768-.4401-2.352-1.0894-3.3621-3.8816-2.2727-6.2264l18.3905-39.4648c1.0966-2.3448,3.8816-3.3621,6.2264-2.2654,2.352,1.0966,3.3621,3.8816,2.2727,6.2264l-18.3905,39.4648c-.7936,1.7027-2.4891,2.7055-4.2495,2.7055Z"/>
    <path class="cls-1" d="M195.2091,215.1553c-1.7676,0-3.4559-.9956-4.2495-2.7055l-18.4265-39.4432c-1.0894-2.3448-.0794-5.1369,2.2654-6.2336s5.1369-.0794,6.2336,2.2654l18.4193,39.4504c1.0966,2.3448.0794,5.1297-2.2654,6.2264-.6421.303-1.3131.4401-1.9768.4401Z"/>
    <path class="cls-1" d="M13.4616,190.6972c-1.0029,0-2.0129-.3247-2.8643-.9812-2.049-1.5873-2.4242-4.5309-.8369-6.5799l26.5937-34.364c1.5873-2.049,4.5309-2.4242,6.5799-.8369,2.0418,1.5873,2.417,4.5309.8369,6.5727l-26.6009,34.3712c-.9235,1.1904-2.3087,1.8181-3.7084,1.8181Z"/>
    <path class="cls-1" d="M149.2654,229.8229c-2.2438,0-4.2279-1.6161-4.6102-3.9032l-7.3086-42.9207c-.4401-2.554,1.277-4.971,3.831-5.4111,2.554-.4329,4.9782,1.2842,5.4111,3.8383l7.3014,42.9207c.4401,2.554-1.277,4.971-3.831,5.4039-.2669.0505-.5339.0721-.7936.0721Z"/>
    <path class="cls-1" d="M99.6565,229.8229c-.2597,0-.5267-.0216-.7936-.0721-2.5468-.4329-4.2639-2.8571-3.831-5.4039l7.3086-42.9207c.4329-2.554,2.8498-4.2711,5.4039-3.8383,2.554.4401,4.2711,2.8571,3.8383,5.4111l-7.3086,42.9207c-.3896,2.2871-2.3737,3.9032-4.6175,3.9032Z"/>
    <path class="cls-1" d="M235.5469,190.524c-1.3997,0-2.7849-.6277-3.7084-1.8181l-26.6297-34.3351c-1.5873-2.0418-1.2193-4.9854.8297-6.5727s4.9926-1.2193,6.5727.8297l26.637,34.3351c1.5873,2.049,1.2121,4.9926-.8297,6.5727-.8586.6638-1.8686.9884-2.8715.9884Z"/>
    <path class="cls-1" d="M40.0625,91.025c-1.3997,0-2.7849-.6205-3.7084-1.8181L9.7604,54.8429c-1.5873-2.0418-1.2121-4.9854.8369-6.5727s4.9926-1.2121,6.5727.8369l26.6009,34.364c1.58,2.049,1.2049,4.9926-.8369,6.5727-.8586.6638-1.8686.9812-2.8715.9812Z"/>
    <path class="cls-1" d="M141.9712,60.456c-.2597,0-.5267-.0216-.7936-.0649-2.554-.4329-4.2711-2.8571-3.831-5.4039l7.3014-42.9207c.4401-2.554,2.8571-4.2711,5.4111-3.8383,2.554.4401,4.2639,2.8571,3.831,5.4111l-7.3086,42.9207c-.3824,2.2871-2.3664,3.896-4.6102,3.896Z"/>
    <path class="cls-1" d="M106.9507,60.456c-2.2438,0-4.2206-1.6089-4.6102-3.896l-7.3086-42.9207c-.4329-2.554,1.2842-4.971,3.831-5.4111,2.5612-.4329,4.9782,1.2842,5.4111,3.8383l7.3086,42.9207c.4329,2.554-1.2842,4.971-3.8383,5.4039-.2669.0433-.5267.0649-.7936.0649Z"/>
    <path class="cls-1" d="M208.9099,91.1693c-1.0029,0-2.0129-.3175-2.8715-.9812-2.049-1.5873-2.417-4.5309-.8297-6.5727l26.6297-34.3423c1.5873-2.0418,4.5309-2.417,6.5799-.8297,2.0418,1.5873,2.417,4.5309.8297,6.5799l-26.637,34.3351c-.9163,1.1904-2.3015,1.8109-3.7012,1.8109Z"/>
  </g>
</svg>