<?xml version="1.0" encoding="UTF-8"?>
<svg id="Fasting" xmlns="http://www.w3.org/2000/svg" viewBox="0 0 238.6129 237.5594">
  <defs>
    <style>
      
      @import url('../../CSS/SvgStyling.css');

      
    </style>
  </defs>
  
  <g class="content">

    <rect id="bg" class="bg" width="238.6129" height="237.5594"/>

    <path class="cls-1" d="M110.6102,62.471v24.4006c.0064,1.5334-.2163,3.0286-.6553,4.492-.4454,1.4634-1.0944,2.825-1.9406,4.0975-.8526,1.2662-1.877,2.3796-3.0604,3.3467-1.1834.9608-2.4878,1.7243-3.9003,2.2969-.299.1145-.6172.2354-.9608.3436-2.3542.7699-4.7529.9608-7.1961.5663-.8081-.1273-1.597-.3181-2.3669-.579-.3309-.0954-.6426-.2163-.878-.3309-1.4252-.5663-2.7359-1.3298-3.9257-2.2842-1.1962-.9608-2.2206-2.0742-3.0795-3.3467-.859-1.2662-1.5143-2.6341-1.9597-4.1039-.4454-1.4634-.6681-2.965-.6681-4.4984v-24.4006c0-.5408.1018-1.0562.3118-1.5525.2036-.5026.4963-.9417.878-1.3234.3818-.3754.8208-.6744,1.3171-.878s1.0117-.3118,1.5525-.3118h3.7985v19.6732c0,.2354.0445.4581.1336.6744s.2163.4072.3818.5726.3499.2927.5663.3818.439.1336.6744.1336c.2291,0,.4581-.0445.6681-.1336.2163-.0891.4072-.2163.5726-.3818s.2927-.3563.3818-.5726.1336-.439.1336-.6744v-19.6732h7.896v19.7305c0,.2291.0445.4517.1336.6681s.2163.4072.3818.5726.3563.2927.5726.3818c.21.0891.439.1336.6681.1336.2354,0,.4581-.0445.6744-.1336s.4008-.2163.5663-.3818.2927-.3563.3818-.5726.1336-.439.1336-.6681v-19.7305h3.7921c.5345,0,1.0498.1018,1.5461.3118.4963.2036.9353.4963,1.3107.878.3818.3818.6681.8271.8717,1.3234.1972.4963.299,1.018.2927,1.5525Z"/>
    <path class="cls-1" d="M98.8903,105.3868v70.4468c0,.7253-.2036,1.387-.6044,1.9851s-.9289,1.0371-1.597,1.3171c-.6681.2736-1.3552.3436-2.0615.2036s-1.3171-.4645-1.8261-.9735c-.7062-.6935-1.0626-1.5398-1.0562-2.5323v-70.4468h.2545c.3881.0573.7635.1145,1.1516.1591l.4899.0573c.5535.0445,1.1135.0827,1.6797.0827.5599,0,1.1198,0,1.6734-.0827l.4836-.0573c.3881,0,.7826-.1018,1.158-.1718l.2545.0127Z"/>
    <path class="cls-1" d="M147.9588,144.8605v30.9541c-.0255.4581-.1336.8971-.3245,1.3171s-.4517.7826-.7826,1.1007-.7126.5599-1.1389.7317-.8653.2545-1.3234.2545-.9035-.0827-1.3298-.2545c-.4199-.1718-.8017-.4136-1.1325-.7317s-.5917-.6808-.7826-1.1007c-.1972-.4199-.299-.859-.3245-1.3171v-29.2362h.3627c.4199-.0445.8208-.0891,1.2343-.1527l.5917-.0954c.369-.0636.7444-.14,1.1198-.2227l.5726-.1273c.3881-.1082.789-.2227,1.1834-.3436l.4581-.1336c.5345-.1845,1.0626-.3754,1.5907-.5981l.0255-.0445Z"/>
    <path class="cls-1" d="M158.597,100.8821v22.67c-.0064,1.7179-.2291,3.404-.6744,5.0646-.4454,1.6543-1.1007,3.2322-1.9533,4.7147-.859,1.4889-1.8897,2.8441-3.0986,4.0593s-2.5578,2.2524-4.0339,3.1177c-.3436.2036-.6935.3881-1.0498.5663l-.3309.1527-.7444.3372-.3945.1654-.7317.2736-.3945.14c-.2609.0891-.5345.1654-.7953.2354l-.3436.1018c-.3818.1018-.7635.1909-1.1516.2736h-.1336c-.3372.07-.6808.1209-1.0244.1718h-.4008l-.5217.0509V60.3268c2.9077,2.685,5.4973,5.6436,7.7751,8.8822.7508,1.0562,1.4443,2.1251,2.106,3.2258,4.0084,6.6617,6.4962,13.845,7.4633,21.5629.1591,1.2725.2736,2.5514.3436,3.8367.0636.9671.0891,1.966.0891,3.0477Z"/>
    <path class="cls-1" d="M137.3077,83.4358v34.8035l-5.1155,5.1283-29.7897,29.847v-34.8035l34.9053-34.9753Z"/>
    <path class="cls-1" d="M220.7279,84.263c-1.0053-2.9841-2.1442-5.9172-3.4104-8.7995s-2.6596-5.7073-4.1739-8.4686c-1.5143-2.755-3.1495-5.4464-4.8992-8.0614s-3.614-5.1537-5.5864-7.6033-4.053-4.8101-6.229-7.0816c-2.1824-2.2651-4.4602-4.4347-6.8334-6.5026s-4.8292-4.0275-7.3743-5.8791-5.1601-3.5821-7.8578-5.2046c-2.6977-1.6161-5.4591-3.1177-8.2905-4.492-2.825-1.3743-5.7073-2.6214-8.6468-3.7476-2.9395-1.1198-5.9236-2.106-8.9458-2.965s-6.0827-1.5843-9.1685-2.1696c-3.0922-.5917-6.1972-1.0435-9.3276-1.3552s-6.2672-.4899-9.4103-.5281-6.2799.0636-9.4167.3054c-3.1368.2354-6.2544.6172-9.353,1.1325-3.105.5154-6.1781,1.1644-9.2194,1.947-3.0477.789-6.0508,1.7052-9.0158,2.7614-2.9586,1.0498-5.8727,2.2269-8.7359,3.5376-2.8568,1.3043-5.6564,2.7359-8.3859,4.2948-2.7359,1.5525-5.3955,3.2258-7.9851,5.0137-2.5896,1.7943-5.0901,3.6903-7.5079,5.7009-2.4242,2.0106-4.7529,4.1293-6.9861,6.3435s-4.3647,4.5238-6.3944,6.9289c-2.036,2.4051-3.9575,4.8928-5.7645,7.4697-1.8133,2.5705-3.5122,5.2237-5.0901,7.9469s-3.035,5.51-4.3711,8.3605-2.5387,5.7582-3.6203,8.7168-2.0233,5.9618-2.8441,9.0031c-.8144,3.0413-1.4952,6.1145-2.036,9.2131-.5472,3.105-.9544,6.2226-1.228,9.3658-.2672,3.1368-.4008,6.2799-.3945,9.4294-.0191,5.8791.4454,11.7263,1.3934,17.529.948,5.8027,2.3669,11.4845,4.2566,17.0518s4.2311,10.9437,7.0116,16.1229,5.9681,10.0911,9.563,14.7422c5.6691,7.3679,12.178,13.8896,19.5396,19.565,4.6383,3.6012,9.5439,6.8016,14.7104,9.5885,5.1664,2.7868,10.5301,5.1283,16.091,7.0243,5.5546,1.8961,11.23,3.3149,17.02,4.2693,5.7963.948,11.6245,1.4125,17.4972,1.3934,2.1187,0,4.2375-.07,6.3499-.1972s4.2248-.3181,6.3244-.5726c2.106-.2545,4.1993-.5726,6.2799-.9544,2.0869-.3754,4.1548-.8144,6.2163-1.3171,2.0551-.5026,4.0975-1.0626,6.1272-1.6861,2.0233-.6235,4.0275-1.3043,6.0127-2.0488,1.9851-.7381,3.9448-1.5398,5.8854-2.3987,1.9342-.859,3.843-1.7688,5.7263-2.7423s3.7412-1.9979,5.5609-3.0795c1.8261-1.0816,3.614-2.2142,5.37-3.404s3.474-2.4242,5.1537-3.7158c1.6861-1.2916,3.3276-2.6278,4.931-4.0148s3.1622-2.825,4.6829-4.3011c1.5143-1.4825,2.9904-3.0032,4.4157-4.5747,1.4316-1.5652,2.8123-3.1749,4.1421-4.8229,1.3361-1.6479,2.615-3.334,3.8494-5.0646,1.2343-1.7243,2.4178-3.4867,3.544-5.281,1.1325-1.7943,2.2078-3.6203,3.2258-5.4782,1.0244-1.8642,1.9851-3.7476,2.895-5.6691.9099-1.9151,1.7624-3.8557,2.5578-5.8218.7953-1.9724,1.5334-3.9575,2.2078-5.9681s1.2916-4.0403,1.8515-6.089c.5535-2.0488,1.0498-4.1102,1.4889-6.1908.4327-2.0742.8081-4.1611,1.1198-6.2608s.5599-4.2057.7444-6.3244c.1845-2.1124.3118-4.2311.3754-6.3499.0573-2.1187.0573-4.2439-.0064-6.3626-.0636-2.1251-.1909-4.2439-.3754-6.3562-.1909-2.1124-.4454-4.2184-.7572-6.3181s-.6872-4.1866-1.1262-6.2608c-.439-2.0806-.9353-4.1421-1.4952-6.1908-.5599-2.0424-1.1771-4.0721-1.8579-6.0827ZM119.3079,202.4166c-8.5832.0191-16.9691-1.2662-25.1514-3.8621-8.1823-2.5896-15.7793-6.369-22.7909-11.3318-.4454-.3118-.6872-.7444-.7381-1.2852-.0445-.5408.1273-1.0053.509-1.387l17.0963-17.1409v-34.8035l-34.4726,34.5299c-.0827.0891-.1718.1654-.2736.2291l-.1782.0954-.14.0636c-.07.0318-.14.0573-.2163.07h-.579c-.5408-.0445-.9671-.2927-1.2852-.7381-1.387-1.9915-2.6914-4.0403-3.9066-6.1463-1.2089-2.106-2.3287-4.2629-3.3531-6.4644-1.0307-2.2078-1.9533-4.4538-2.7868-6.738-.8271-2.2842-1.5588-4.6002-2.1824-6.948-.6299-2.3542-1.1516-4.7211-1.5779-7.1198-.4199-2.3923-.7317-4.8038-.948-7.2279-.21-2.4178-.3118-4.8483-.3118-7.2788s.1082-4.861.3181-7.2788c.21-2.4242.5281-4.8356.948-7.2279.4263-2.3923.948-4.7656,1.5779-7.1134s1.3552-4.6702,2.1887-6.9543,1.7624-4.5302,2.7868-6.7316,2.1442-4.3584,3.3595-6.4644,2.5196-4.1548,3.9066-6.1463c1.3934-1.9915,2.8695-3.9194,4.4347-5.7772,1.5588-1.8642,3.194-3.6585,4.9119-5.3764s3.5058-3.3595,5.3637-4.9247c1.8642-1.5588,3.7858-3.0413,5.7772-4.4347,1.9851-1.3934,4.0339-2.6977,6.1336-3.913s4.2566-2.3351,6.4517-3.3658c2.2015-1.0244,4.4411-1.9533,6.7253-2.7868,2.2778-.8271,4.5938-1.5588,6.9352-2.1887,2.3478-.6299,4.7147-1.1516,7.107-1.5779,2.386-.4199,4.791-.7381,7.2088-.948s4.8419-.3181,7.2661-.3181c2.4305.0064,4.8547.1082,7.2725.3245,2.4178.21,4.8165.5281,7.2088.9544,2.3923.4199,4.7592.948,7.1007,1.5779,2.3478.6299,4.6574,1.3616,6.9416,2.1887,2.2778.8335,4.5175,1.7688,6.7189,2.7932,2.1951,1.0307,4.3457,2.1506,6.4517,3.3658,2.0997,1.2216,4.1421,2.526,6.1336,3.9194.4454.3118.6872.7444.7381,1.2852.0445.5408-.1273,1.0053-.509,1.387l-15.1685,15.2066.1018.1782c.5472.8208,1.0626,1.6606,1.5652,2.5005l.3181.5408c.4963.878.9798,1.7561,1.4379,2.6341,0,.0827.07.1527.1145.2291.4263.8844.878,1.7624,1.228,2.6405l.21.4645c.3881.878.7572,1.8197,1.1007,2.7423l.21.5663c.3372.9417.6553,1.8897.9544,2.8504l.0764.28c.2736.878.5281,1.8452.7572,2.7868,0,.1527.0764.299.1145.4517.2291.9544.4327,1.9342.6172,2.9077l.1018.5917c.1782.9862.3245,1.9788.4454,2.9777v.0954l23.1726-23.2108c.3818-.3945.8462-.5663,1.387-.5154s.9735.299,1.2852.7444c2.1824,3.1113,4.1421,6.3562,5.8791,9.7412,1.7434,3.3785,3.2449,6.8653,4.5111,10.4538,1.2598,3.5885,2.2778,7.247,3.0413,10.9691.7699,3.7285,1.2789,7.4888,1.527,11.2873.2545,3.7985.2481,7.5906-.0127,11.3891-.2672,3.7921-.789,7.5524-1.5652,11.2745-.7762,3.7285-1.807,7.3806-3.0795,10.9628-1.2789,3.5821-2.7932,7.0625-4.5429,10.441-1.7497,3.3785-3.7221,6.6171-5.9109,9.7221-2.1951,3.1113-4.5874,6.0508-7.177,8.8313-2.5959,2.7805-5.37,5.37-8.3159,7.7687s-6.0381,4.5874-9.283,6.5662c-3.2449,1.9724-6.6108,3.7221-10.0975,5.2364-3.4803,1.5143-7.0498,2.7868-10.7083,3.8112s-7.3679,1.8006-11.1282,2.3224c-3.7603.5154-7.5397.7762-11.3382.7762Z"/>
  </g>
</svg>