<?xml version="1.0" encoding="UTF-8"?>
<svg id="Ishaq" xmlns="http://www.w3.org/2000/svg" viewBox="0 0 401.7392 293.7299">
  <defs>
    <style>
      

      @import url('../../CSS/SvgStyling.css');
      
    </style>
  </defs>
  
  <g class="content">

    <rect id="bg" class="bg" width="401.7392" height="293.7299"/>

    <path class="cls-1" d="M220.713,152.6025c.2061-1.5442.363-3.0976.6283-4.6308.6279-3.6294,1.266-7.2581,1.9842-10.869.3343-1.6809.9441-3.2835,1.9015-4.7146,1.1104-1.6599,2.3004-2.1247,4.1775-1.6271,1.9511.5172,3.3157,1.8715,4.4685,3.4788.2539.3541.3952.9316.3351,1.3685-.1869,1.3589-.49,2.7008-.7633,4.046-.0356.175-.1448.3421-.2474.4926-.38.5576-.6634.5827-1.0978.0632-.5172-.6184-.9772-1.291-1.5191-1.8837-.3643-.3985-.7897-.7738-1.2542-1.0284-1.039-.5697-1.9575-.3832-2.6763.589-.4521.6114-.8214,1.3159-1.1037,2.0317-.8214,2.0829-1.1981,4.2908-1.5068,6.505-.5295,3.7988-.9965,7.6072-1.5407,11.4037-.147,1.0258-.4225,2.0424-.74,3.0279-.2836.8801-.8581,1.0165-1.4316.3167-.5022-.6127-.9334-1.3335-1.2241-2.0791-.5243-1.3444-.9358-2.7378-1.3664-4.1202-.9509-3.0523-2.3172-5.8566-4.4642-8.2001-.3424-.3737-.7176-.7147-1.1521-1.1446-.6699,1.1659-1.5606.9217-2.4197.4567-1.3005-.7039-2.5902-1.4358-3.843-2.2271-1.2555-.793-1.9244-1.9712-1.8345-3.5467.0529-.9283.0011-1.8784.1761-2.781.4318-2.2258,1.578-2.5509,3.008-2.3976,1.5335.1643,2.7787.9307,3.9346,1.8991,1.7818,1.493,3.1069,3.3981,4.3406,5.371,1.4092,2.2536,2.639,4.6071,3.5859,7.1188.4018,1.0658.9124,2.0873,1.3736,3.1289.0904-.0159.1807-.0317.2711-.0476Z"/>
    <path class="cls-1" d="M219.8289,268.7771c-.624.9316-1.339.8025-2.0459.3932-1.1946-.6916-2.3938-1.3809-3.5428-2.1494-.7976-.5335-1.1885-1.3606-1.1236-2.3809.0586-.9214.0105-1.8647.1877-2.7601.2809-1.42,1.0157-1.8549,2.3896-1.6872,1.7822.2174,3.1148,1.2617,4.2776,2.5535,2.3187,2.5759,4.0784,5.5379,5.4137,8.7792.4958,1.2037,1.0224,2.3937,1.5349,3.5899.0781-.0075.1563-.015.2344-.0225.0667-.2436.1557-.4832.1967-.7314.6039-3.6545,1.1514-7.3202,1.8254-10.9606.2637-1.4246.7974-2.7964,1.2317-4.1843.1048-.3348.2873-.6477.4614-.9539,1.1623-2.0432,2.6364-2.5206,4.6949-1.5062,1.141.5622,2.0625,1.4205,2.7679,2.4944.2348.3574.411.8818.358,1.2943-.14,1.0899-.3961,2.1668-.6595,3.2345-.076.3084-.3331.5684-.5951.9929-.4264-.5395-.7217-.9684-1.0713-1.3425-.5216-.5584-1.0244-1.1671-1.6384-1.5935-.9071-.6299-1.7973-.4726-2.4678.4163-.4362.5783-.783,1.2604-1.0399,1.9486-.8509,2.2784-1.1568,4.6889-1.4841,7.0919-.3991,2.9299-.7971,5.8602-1.2328,8.7844-.0988.6628-.3064,1.3192-.5457,1.9447-.2062.5391-.5802.6174-.9523.1875-.3603-.4162-.6882-.9045-.8886-1.4208-.4742-1.2219-.8897-2.4706-1.283-3.7241-.7416-2.3637-1.7656-4.5676-3.3214-6.4711-.5041-.6168-1.0796-1.1704-1.6819-1.8167Z"/>
    <path class="cls-1" d="M271.3744,124.6542c.3638.91.0663,1.5689-.1633,2.2328-.9217,2.6658-1.9292,5.3035-2.7445,8.004-.815,2.6993-1.5521,5.4366-2.1062,8.2044-.3722,1.8591-.4298,3.7977-.4986,5.7059-.0277.768.2003,1.5859.471,2.3173.5606,1.5149,2.1222,1.9235,3.4012.9613.7761-.5839,1.1999-1.4289,1.5854-2.3102.1553-.355.347-.7228.6116-.9882.3369-.3378.7686-.1809.8687.3016.0706.3406.0936.7311.0061,1.0615-.4369,1.6502-.8021,3.3359-1.4114,4.9178-.7681,1.9942-2.3503,3.001-4.4,3.128-1.0889.0674-1.9049-.4749-2.4614-1.4575-.978-1.7268-1.3899-3.6217-1.5388-5.5904-.2476-3.2743.2493-6.456,1.2332-9.5533,1.3603-4.2818,2.7762-8.5443,4.1652-12.8162.4129-1.2699,1.0567-2.3945,1.9697-3.338.2751-.2842.6268-.4881,1.0119-.7808Z"/>
    <path class="cls-1" d="M57.8065,191.7334c.0939.213.2058.348.2048.4822-.0192,2.6174-.6395,5.0578-2.1654,7.1661-.7556,1.0441-1.8641,1.549-3.1172,1.6977-1.2906.1531-2.2565-.3393-2.8818-1.5286-.8943-1.7007-1.3408-3.5384-1.4676-5.4583-.1632-2.4708.0088-4.929.7332-7.2883,1.4942-4.8662,3.0295-9.7203,4.6555-14.54.3707-1.0989,1.1482-2.0601,1.8028-3.0381.2165-.3235.6352-.5004,1.0302-.7958.474,1.0751.0007,1.8249-.2465,2.6084-1.3652,4.3285-2.789,8.6385-4.0622,12.9963-.7434,2.5442-1.1441,5.1829-.9702,7.8658.0478.7385.1683,1.5039.4231,2.1894.5642,1.5179,2.0869,1.958,3.2734.8811.6257-.5679,1.0262-1.4191,1.4774-2.1753.2978-.4991.4394-1.1378,1.3107-1.0626Z"/>
    <path class="cls-1" d="M154.4583,252.797c.0717.1627.1572.2658.1564.3683-.0147,1.9991-.4884,3.863-1.6539,5.4733-.5771.7974-1.4238,1.1831-2.3808,1.2966-.9857.1169-1.7234-.2592-2.2011-1.1675-.6831-1.2989-1.024-2.7025-1.1209-4.1689-.1247-1.8871.0067-3.7647.56-5.5666,1.1412-3.7167,2.3138-7.4241,3.5557-11.1053.2831-.8393.8769-1.5735,1.3769-2.3204.1654-.2471.4851-.3822.7868-.6078.3621.8212.0005,1.3938-.1883,1.9922-1.0427,3.306-2.1302,6.5979-3.1026,9.9262-.5678,1.9432-.8738,3.9586-.741,6.0077.0365.5641.1285,1.1486.3231,1.6722.4309,1.1593,1.5939,1.4955,2.5001.6729.4779-.4337.7838-1.0839,1.1284-1.6615.2275-.3812.3356-.869,1.001-.8116Z"/>
    <path class="cls-1" d="M221.6281,238.025c.0739.1676.1619.2738.1612.3794-.0151,2.0596-.5032,3.98-1.7039,5.6389-.5946.8216-1.4669,1.2189-2.4529,1.3359-1.0156.1205-1.7756-.267-2.2677-1.2028-.7037-1.3382-1.055-2.7843-1.1548-4.2951-.1284-1.9443.0069-3.8786.577-5.7351,1.1758-3.8292,2.3839-7.6488,3.6634-11.4414.2917-.8647.9035-1.6211,1.4186-2.3906.1704-.2546.4998-.3938.8106-.6262.373.846.0005,1.436-.194,2.0525-1.0743,3.4061-2.1947,6.7976-3.1965,10.2266-.5849,2.002-.9003,4.0784-.7635,6.1895.0376.5812.1324,1.1834.3329,1.7228.444,1.1944,1.6421,1.5408,2.5758.6933.4923-.4469.8075-1.1167,1.1625-1.7117.2344-.3928.3458-.8953,1.0313-.8361Z"/>
    <path class="cls-1" d="M386.6168,256.8371c.0453,2.713-1.5424,5.0582-3.7446,5.7822-12.7148,4.1795-25.4608,8.2612-38.1242,12.6028-5.1234,1.7565-10.065,4.0866-15.0895,6.1551-.2294.0944-.4605.1842-.896.358-.2287-2.1514.1649-4.0314,1.2313-5.7185.2648-.419.9116-.6288,1.4225-.8195,8.0352-2.9998,16.0105-6.196,24.1342-8.9107,9.8059-3.2769,19.7385-6.144,29.6191-9.178.4585-.1408.9458-.1799,1.4472-.2714Z"/>
    <path class="cls-1" d="M259.9922,275.3578c.6155-.3175,1.2098-.6936,1.8496-.9437,8.3075-3.2469,15.3807-8.382,21.4504-15.0762,2.8995-3.1978,6.1964-5.8622,10.0002-7.8141.4867-.2498.9835-.4913,1.4974-.6686,1.8478-.6376,3.6414-.6133,5.3042.5882,2.6266,1.898,6.571.5659,7.8439-2.4967.2375-.5714.4611-1.1492.7079-1.7161.3204-.7361.7129-1.4038,1.6927-1.6016.0762.2952.252.6035.208.873-.1613.9883-.6462,2.0329.4306,2.7719,1.0645.7305,2.1529.5369,3.3571-.105-1.6626-1.8856-.552-3.3663.485-4.8771.9325.0496,1.1746.7409,1.2889,1.3829.3297,1.8506.406,3.7255-.147,5.5465-.853,2.809-3.5694,3.8487-6.0263,2.3555-.3665-.2227-.735-.4419-1.2054-.7244-.3591.4138-.6814.7749-.9929,1.1459-2.1779,2.5937-4.9729,3.194-7.9219,1.686-3.188-1.6303-6.1568-.8761-8.9473,1.0048-1.3181.8886-2.5085,1.9917-3.7128,3.0517-2.618,2.3042-5.1822,4.675-7.8154,6.9599-3.3732,2.9269-7.202,5.0749-11.2481,6.797-1.9092.8125-3.8729,1.4954-5.8382,2.152-.6711.2242-1.4223.1887-2.1369.2718-.0413-.1878-.0825-.3756-.1238-.5633Z"/>
    <path class="cls-1" d="M241.0605,206.9393c-.4588.0584-.851.089-1.2363.1602-8.9784,1.6574-17.5455,4.6985-25.906,8.4101-5.5299,2.4549-11.0012,5.0542-16.5489,7.4634-5.9357,2.5777-12.0095,4.7597-18.3314,6.0857-1.7719.3716-3.5818.7305-5.3787.7561-7.2671.1037-13.5213-2.2723-18.1939-8.3722-3.0889-4.0325-5.0919-8.6096-6.4999-13.5104-1.4884-5.1808-2.3532-10.4815-2.8845-15.8511-.6305-6.3714-1.2465-12.7448-1.9367-19.1093-.7423-6.845-1.5382-13.6839-2.3574-20.5195-.704-5.8746-1.4023-11.7515-2.2298-17.608-1.6104-11.3979-3.2739-22.7903-5.8482-34.0078-.5524-2.4071-1.3147-4.7644-2.0405-7.1247-.2468-.8027-.5796-1.6163-1.4311-2.1478-1.3902,1.1518-1.324,3.5606-3.241,4.2887-.8486-.8623-.7814-1.7883-.6224-2.7742.7378-4.5747,2.4071-8.8001,4.4185-12.8991.1879-.3828.4076-.7558.6584-1.0969.9742-1.3252,1.8607-1.4094,2.926-.153.6096.719,1.1701,1.5469,1.5224,2.4258.8761,2.1859,1.7467,4.39,2.3936,6.6567,1.9335,6.7751,3.2732,13.6964,4.3619,20.6667,1.0622,6.8007,2.1023,13.6063,3.0366,20.427.5617,4.1006.8861,8.2361,1.3477,12.3522.3537,3.1535.7614,6.3004,1.1336,9.4516.2651,2.2443.4956,4.4931.7688,6.7363.4811,3.9495.9942,7.8949,1.4734,11.8446.5831,4.8064,1.1671,9.6129,1.7103,14.4242.6473,5.7332,1.4462,11.4301,3.3457,16.8926,1.4585,4.1942,3.305,8.1594,6.3799,11.3637,4.2039,4.3808,9.3743,5.9495,15.1897,5.5118,8.6484-.6509,16.6805-3.6828,24.5999-7.0693,3.9288-1.6801,7.7698-3.5828,11.6468-5.3935.4181-.1953.8111-.4488,1.4239-.7918-.4862-.2063-.7729-.3969-1.0811-.4486-6.6352-1.113-13.2729-2.2101-19.91-3.3115-1.0709-.1777-2.1539-.3032-3.2076-.559-1.032-.2506-1.9626-.0681-2.8329.4769-1.0313.6459-2.088.7062-3.2743.5661-4.7273-.558-9.465-1.0223-14.2009-1.4991-2.0577-.2072-4.1203-.3606-6.1807-.5384-1.9102-.1648-2.4273-.9487-1.6768-2.7717,1.4856-3.6084,3.4588-6.9009,6.3472-9.4775.7546-.6732,1.7601-1.1974,2.7298-1.4275,4.8688-1.1556,9.7637-1.2184,14.6015.1838,9.8354,2.8506,19.7978,5.0758,29.8925,6.6432,3.0147.4681,6.0703.6474,9.0891,1.0922,6.793,1.001,13.6363.9658,20.4662,1.1205,3.4659.0785,6.939-.2073,10.4094-.3092,1.1289-.0331,2.2595-.0052,3.6214-.0052-.0984.7392-.0608,1.3355-.2621,1.8256-1.2424,3.0252-2.5041,6.043-3.8321,9.0282-.624,1.4027-.9987,1.4478-2.4725,1.3697-2.3269-.1234-4.6599-.1441-6.9905-.1537-.5526-.0023-1.106.2117-1.7278.3405-.0326.4803-.1309.9099-.0781,1.3183.2989,2.3112.8155,4.566,1.8923,6.6338,1.5429,2.9631,3.7859,5.1208,6.89,6.1922,3.7718,1.3018,7.6037,1.6593,11.4456.3827,3.1709-1.0536,5.7986-3.0604,8.2286-5.3762,3.0755-2.931,5.4994-6.4402,8.111-9.7869.741-.9496,1.6973-1.73,2.618-2.5068.2583-.2179.7414-.1472,1.1214-.2089.0509.4059.2077.836.1281,1.2119-.1208.571-.4129,1.1014-.6196,1.6542-.8009,2.1421-1.2806,4.3054-.6999,6.6247.6153,2.4574,2.0624,4.0621,4.3431,4.8644,2.5398.8935,5.1185,1.1297,7.8043.7609,2.665-.366,5.0051-1.3816,7.0148-3.1716,1.951-1.7376,3.4522-3.879,4.5552-6.2923.6443-1.4097,1.1345-2.895,1.7606-4.3145.7111-1.6121,1.4036-3.2477,2.2876-4.7568.4676-.7981,1.1112-1.7328,2.5159-1.459-.0805.65-.1172,1.2711-.2407,1.8728-.2159,1.0515-.6468,2.0818-.7028,3.1373-.1924,3.6286,1.6242,6.16,4.4503,7.9535,2.81,1.7833,5.9242,1.8417,9.0362,1.1915,2.0746-.4334,2.6896-1.8587,1.8256-3.873-.3124-.7283-.7899-1.3878-1.2419-2.0414-.6092-.8809-.9783-1.8298-.5887-2.8792,1.1009-2.9652,2.2499-5.9111,3.3998-8.8562.1085-.2779.3572-.4966.6973-.9525.3895.81.7716,1.4289.9965,2.1045.7146,2.147,1.15,4.3586,1.2261,6.638.1423,4.2687.0561,8.5195-1.0118,12.6814-.6755,2.6324-1.6487,5.1007-3.5373,7.0951-1.3561,1.432-2.939,2.4017-4.834,2.7341-2.5886.454-5.1672.3813-7.6563-.5805-3.3472-1.2934-5.1785-3.978-6.1285-7.4283-.1697-.6161-.2935-1.246-.494-2.1083-.3234.3972-.5779.6201-.7238.9037-.979,1.9029-1.8742,3.8552-2.9099,5.7233-2.7163,4.8996-6.8294,7.8909-12.0771,9.1462-7.743,1.8523-14.0565-4.9562-14.5615-11.7354-.0195-.2619-.0605-.522-.1196-1.0187-.3882.4593-.6549.7554-.901,1.069-2.2584,2.8782-4.3096,5.971-6.8193,8.5876-3.3344,3.4763-7.4752,5.4615-12.2807,5.979-3.7449.4033-7.2521-.166-10.4953-2.0586-4.2753-2.4949-6.5107-6.5666-7.3623-11.4446-.663-3.7975-.4762-7.6237.4105-11.3924.0984-.4181.1862-.8393.2627-1.2622.0178-.0982-.0307-.2095-.0958-.5899Z"/>
    <path class="cls-1" d="M15.1214,217.2152c.1213-10.0247,2.0357-19.0115,5.5916-27.6277.3442-.834.8162-1.6336,1.3535-2.3477.2277-.3027.7772-.343,1.1804-.5026.0702.3912.2673.8124.1897,1.1688-.4461,2.0495-.9704,4.0804-1.4438,6.1237-1.2046,5.1997-2.1379,10.4397-1.985,15.8224.1307,4.6009.6489,9.1357,2.2561,13.4709,3.2164,8.676,9.2018,14.1452,17.7736,16.6045,4.7907,1.3745,9.6354,1.1514,14.4919.4775,7.7766-1.0792,15.0853-3.7678,22.2266-7.0197,6.2721-2.8562,12.4214-5.9742,18.3403-9.5632,6.4988-3.9405,12.8479-8.1232,18.7411-13.0064,1.9833-1.6434,3.8656-3.419,5.7904-5.1387.1961-.1752.3741-.3744.5479-.5743,1.1817-1.3597,1.2549-2.186.3119-3.7508-1.0891-1.8074-2.7106-2.9632-4.5238-3.8236-2.3561-1.118-4.8523-1.4232-7.4329-1.2949-3.4086.1696-6.8184.6821-10.235.0991-2.5885-.4417-5.041-1.1496-6.9818-3.189-1.8209-1.9136-2.6086-4.2209-2.7679-6.8387-.277-4.5515,1.0712-8.6002,3.4437-12.3565,1.3541-2.1438,2.9057-4.0917,5.0353-5.4205,3.61-2.2523,7.3603-2.6649,11.2567-.7561,3.0157,1.4774,5.4078,3.7421,7.6102,6.2852,2.4535,2.8329,4.4593,5.9484,5.7894,9.5149,1.4764,3.9588,2.2113,8.071,2.3349,12.3081.1025,3.5141-.0758,7.0034-.8252,10.4455-1.2465,5.725-4.2116,10.3673-8.2527,14.3599-2.9032,2.8683-6.0398,5.431-9.3336,7.7773-8.223,5.8576-16.7358,11.2265-25.6538,15.8579-7.6746,3.9857-15.6403,7.1749-24.133,8.7519-4.1967.7792-8.4142,1.1681-12.6741.7085-5.8084-.6267-11.307-2.1658-15.9864-6.024-2.9613-2.4416-5.3154-5.4193-7.1347-8.8709-2.6857-5.0954-4.1125-10.5681-4.5857-16.3285-.163-1.9848-.2373-3.9775-.3161-5.3422ZM109.011,183.7199c-2.2104-2.7582-4.5897-4.7331-7.8817-4.9197-1.4559-.0825-3.022.152-3.969,1.6804-1.0415,1.6809-.5441,3.0886,1.3404,3.4448,3.4218.6468,6.8321.2613,10.5103-.2055Z"/>
    <path class="cls-1" d="M350.7752,230.6952c-.8071-1.5169-.722-3.1094-.8452-4.6345-.4509-5.5804-.6419-11.1917-1.3013-16.7437-1.0335-8.7024-2.3193-17.3737-3.5885-26.0439-1.3088-8.9399-2.692-17.8685-4.1051-26.7913-1.27-8.02-2.6504-16.0209-3.9335-24.0387-.9091-5.681-1.7528-11.3735-2.5972-17.0655-.8678-5.85-1.7117-11.704-2.539-17.5604-.1327-.9393-.3716-1.7451-1.1104-2.3886-.8352-.7275-1.0205-1.6072-.5707-2.7406,1.2855-3.2398,2.4671-6.5241,3.705-9.7846.1676-.4414.4236-.8465.784-1.5536.4477.6843.8379,1.1518,1.0918,1.6892,2.2411,4.7437,4.5319,9.4643,6.6587,14.2634,1.6699,3.7682,3.1439,7.6312,4.6677,11.4681.3067.7724.6749,1.5835.3751,2.5241-.9761.2548-1.579-.3595-2.163-.9553-1.2591-1.2847-2.4925-2.5967-3.7426-3.891-.3588-.3716-.7387-.7211-1.3351-1.3005,0,.559-.0404.8456.0058,1.1162,2.0343,11.9257,4.1045,23.8448,6.1074,35.7762,1.3532,8.0616,2.6471,16.1344,3.9044,24.2129,1.0584,6.8009,2.0678,13.6109,3.0175,20.4292.5415,3.8873.9555,7.7952,1.36,11.7014.2936,2.8355.5345,5.6797.6982,8.5263.331,5.7571-.5119,11.393-1.8024,16.9671-.3877,1.6746-.8516,3.3326-1.3476,4.9764-.2093.6937-.4131,1.4669-1.3941,1.8421Z"/>
    <path class="cls-1" d="M269.5366,84.053c-.5351,2.0281-1.172,3.6657-2.1768,5.1041-.3.4294-.9144.688-1.4346.8734-8.7795,3.1285-17.5751,6.2081-26.3503,9.3496-9.6085,3.4398-19.2255,6.8567-28.7921,10.4195-13.5703,5.0539-27.1211,10.1684-40.3857,16.059-.3269.1452-.674.2411-1.0349.3681-.0803-.2003-.2119-.3616-.1833-.4816.6576-2.764,1.7707-5.2051,4.5216-6.3284,11.0524-4.513,22.0709-9.1206,33.179-13.4803,17.8545-7.0075,35.9562-13.2782,54.1522-19.2535,2.3234-.763,4.6529-1.5063,6.9822-2.2494.3854-.123.785-.198,1.5227-.3804Z"/>
    <path class="cls-1" d="M111.3534,146.2068c-3.7691-2.2962-7.5574-4.6041-11.4768-6.9918-1.6265,2.9808-3.1788,5.8258-4.8374,8.8653-4.0638-2.2329-7.8759-4.7547-11.9518-7.1833,1.9468-3.6567,3.8147-7.1653,5.732-10.7667,3.952,2.4099,7.7711,4.7387,11.7344,7.1554,1.6436-3.0256,3.2123-5.9136,4.8656-8.9571,3.9913,2.4328,7.8614,4.7916,11.6996,7.131-.3468,1.5688-4.7888,9.8286-5.7656,10.7472Z"/>
    <path class="cls-1" d="M297.5635,165.4916c-.0845-1.0013.5939-1.0672,1.0763-1.2981,4.0474-1.9372,8.1022-3.8579,12.15-5.7944.7765-.3715,1.532-.7903,2.493-1.2889-1.1978-.9967-2.3779-1.1876-3.5221-1.3559-4.2104-.6195-8.4422-.9234-12.6983-.7297-.4134.0188-.8284.0098-1.2422-.0035-.0911-.0029-.1801-.0789-.3739-.1702.127-.3252.1956-.6987.392-.9729,1.6709-2.3332,3.3786-4.6379,5.0451-6.9745.5795-.8124,1.4123-.7983,2.2263-.903,3.7014-.4762,7.3343.0459,10.9404.8545,1.5168.3402,3.0338.7096,4.5144,1.1876,2.2868.7382,3.0249,2.3131,2.1088,4.6213-.4697,1.1831-1.0673,2.3753-1.8563,3.3432-1.5036,1.8446-3.1455,3.5744-4.8072,5.2698-1.2805,1.3063-2.8923,2.0739-4.6128,2.574-3.5046,1.0186-7.0787,1.5969-10.7107,1.7823-.3786.0193-.7635-.0933-1.1228-.1417Z"/>
    <path class="cls-1" d="M357.7427,246.919c-.1405-.2184-.2525-.3398-.3068-.4847-.858-2.2928-2.6945-2.9389-4.9376-2.6594-1.3044.1626-2.5182.5459-2.84,2.0615-.3335,1.5709-.0696,3.108,1.3116,4.0276.936.6232,2.0482,1.0189,3.1309,1.3316,1.914.5528,3.7792.3504,5.5582-.6737,1.1317-.6515,2.324-1.1899,3.4951-1.7659.4436-.2182.9039-.3999,1.5782-.6954-.2617,1.8957-.8739,3.3767-1.5832,4.7872-.2165.4306-.902.6539-1.413.8676-2.5465,1.0654-5.1295,2.0394-7.6553,3.1543-2.6845,1.1849-5.1675,2.7416-7.3542,4.7785-.2111.1966-.5016.3008-.9585.5657-.3153-3.5851,1.6972-5.4821,4.1232-7.0608-.1933-.2947-.2491-.4769-.3656-.5434-3.9633-2.2605-3.1745-10.1377-.6824-12.7913,1.4231-1.5153,3.2269-2.1189,5.1351-2.4302.962-.157,1.9697-.1028,2.9491-.031,1.7812.1307,2.874,1.2585,2.9912,3.0952.0509.7984.0133,1.6304-.1498,2.4096-.2179,1.0411-.7459,1.8886-2.0262,2.0571Z"/>
    <path class="cls-1" d="M76.0557,108.044c.499-.3311.9872-.6814,1.4986-.9903,4.9303-2.9784,9.8982-5.8913,14.7872-8.9414,4.0516-2.5277,7.8798-5.4009,11.3483-8.7597.792-.767,1.5303-1.5942,2.4068-2.5128-.4464-.3063-.7804-.5169-1.0952-.7549-1.0427-.7886-2.1934-1.4683-3.0907-2.4089-1.45-1.5199-1.7064-3.4259-.9109-5.3951.8385-2.0757,2.1849-3.7823,3.8601-5.1986.3169-.2679.6963-.4724,1.0729-.6442,1.7946-.8189,3.0314-.2714,3.6004,1.6977.7023,2.43.6074,4.9015.1214,7.3661-.1124.57-.2373,1.1373-.372,1.7799,1.4206.6079,2.7415,1.1731,4.0903,1.7503-.0759,1.4292-.8447,2.3776-1.5423,3.5652-1.2388-.3836-2.4698-.7454-3.6876-1.15-.6013-.1997-1.0826-.2103-1.4896.4048-2.5395,3.8379-5.9303,6.7687-9.5219,9.4446-3.9649,2.954-8.0702,5.7015-12.5605,7.7247-2.7356,1.2326-5.5541,2.2659-8.3353,3.3888l-.1798-.3663ZM107.9685,82.8058c.1548-.7397.2999-1.2554.3625-1.7818.0632-.5306.0766-1.073.0561-1.6079-.086-2.2397-1.4923-3.2597-3.5911-2.6379-.9208.2728-1.5377.8375-1.7577,1.833-.2156.9755.2151,1.6813.9056,2.2352,1.1519.9239,2.4536,1.5267,4.0246,1.9595Z"/>
    <g>
      <path class="cls-1" d="M181.7955,12.7252c.9231.7833.9802,1.6905,1.1598,2.5054,1.4926,6.7724,2.9497,13.5532,4.4332,20.3278.4364,1.9927.7804,4.0243,1.4142,5.9497,1.6305,4.9532,5.119,7.8627,9.9009,9.1396,3.5388.945,7.1231,1.0969,10.7842.7791,5.2838-.4587,10.4744-1.3092,15.5469-2.9162.3424-.1085.6756-.2483,1.1274-.4159-.0542-.5417-.0725-1.0667-.163-1.5778-1.4998-8.4706-3.008-16.9396-4.5161-25.4087-.2696-1.5139.319-3.7624,1.463-5.235.3034.9536.6214,1.7915.8371,2.657,1.6387,6.5759,2.7644,13.2587,3.7849,19.9619.3642,2.3918.672,4.7928,1.0247,7.1866.0611.4145.2179.8138.381,1.4021,1.4326-.5376,2.7951-1.0144,4.1325-1.5582,2.8096-1.1422,5.4749-2.5731,7.9657-4.357.8498-.6086,1.3339-1.3493,1.1549-2.4411-.4429-2.7021-.8392-5.4147-1.3692-8.0984-.6976-3.5325-1.4893-7.0454-2.2719-10.5591-.4658-2.0913.3129-3.7528,1.4663-5.4022.2956.1521.5157.2002.6421.34,2.2364,2.4723,4.4433,4.9738,6.6933,7.4325,3.0313,3.3124,5.1785,7.107,6.1431,11.6105,1.2629,5.8957.1491,11.3377-2.7952,16.4391-1.2647,2.1913-3.1474,3.6124-5.5455,4.0917-1.8711.374-3.7931.4712-5.6921.6958-1.128.1335-2.2756.1817-3.3766.4414-1.0226.2412-1.2645.7108-.7906,1.6585,1.471,2.9414,3.2636,5.547,6.8139,5.9367,1.5492.1701,2.9766-.288,4.3696-.9016,2.0278-.8932,3.7684-2.2468,5.4428-3.7102.455-.3976.9921-.6933,1.4916-1.0358.1014.0678.2028.1357.3043.2035-.1206.5965-.15,1.2341-.3785,1.7818-.7601,1.8216-1.942,3.321-3.5372,4.4152-2.6109,1.7909-5.4186,3.1905-8.4192,4.0935-4.4548,1.3407-8.7547-.2952-11.4995-4.2476-.1761-.2536-.3566-.504-.7428-1.0492-.252,1.1139-.5364,1.9124-.5905,2.7275-.0666,1.0024-.475,1.7422-1.1655,2.3695-.2339.2125-.471.423-.7203.6151-3.3522,2.5841-6.823,1.2355-7.7832-3.0172-.0811-.3592-.2064-.7076-.3722-1.2666-.5662.2595-1.07.4691-1.556.7166-2.6049,1.3269-5.1589,2.7759-7.8199,3.966-2.9038,1.2987-5.944,2.2723-9.0974,2.6342-2.8486.3269-5.6901.1617-8.3996-1.0135-1.8092-.7847-3.3278-1.9517-4.5509-3.5495-.6773-.8847-1.3971-1.734-2.0942-2.6024-.53-.6603-1.1328-.6671-1.7916-.2319-1.7945,1.1855-3.2359,2.7005-3.9983,4.8044-.5301,1.4628-.9866,2.9543-1.4888,4.4282-.1902.5584-.3846,1.1195-.6318,1.6518-1.0579,2.278-3.569,2.5424-4.948.4432-.6615-1.007-1.1939-2.1654-1.5288-3.3346-1.2042-4.2045-1.4296-8.4726-.4335-12.772.0482-.2079.0821-.4197.1132-.6312.0072-.0487-.0246-.1035-.0622-.2444-.2624-.1218-.5761-.2674-.9417-.437.0998-.1522.1503-.3192.2557-.3764,1.837-.9969,3.7086-1.9284,5.5169-2.9782,3.0972-1.7978,5.9051-3.9809,8.092-6.9384-1.9738-3.7852-4.3034-7.2393-7.1048-10.3636-3.4276-3.8227-6.8053-7.6951-10.1429-11.6031-.7814-.9149-1.3699-2.0274-1.9465-3.1072-.5256-.9841-.8707-2.0677-1.8332-2.7443-.2344-.1648-.4637-.5056-.4938-.7887-.1412-1.3265-.2223-2.6624.4112-4.1499,2.9032,1.8812,5.1858,4.2893,7.5805,6.5581-.0553.1211-.1107.2422-.166.3632-.7763-.1364-1.5526-.2728-2.7108-.4763.9433,1.2304,1.6236,2.2234,2.4062,3.1196,2.8229,3.2325,5.7471,6.3719,8.4995,9.6673,1.6592,1.9865,3.1246,4.1579,4.5754,6.3201.936,1.3949,1.3229,3.0277,1.3053,4.7488-.0052.5127.0486,1.026.092,1.8569,1.1729-1.2309,1.7482-2.4253,1.6425-3.7899-.1743-2.2489-.4518-4.4965-.8211-6.7203-1.1187-6.7363-2.3157-13.4586-3.449-20.1923-.2153-1.2792-.039-2.5266.7721-3.7972ZM171.3087,58.2167c-.1786,1.0554-.4105,2.0496-.5056,3.0577-.2925,3.1-.0286,6.1387,1.1919,9.0213.4942,1.1673,1.1953,2.3351,2.5505,2.2938,1.3914-.0424,2.1372-1.2013,2.6149-2.4618.4943-1.3041.9266-2.6335,1.3967-3.9477.7566-2.1149,1.9345-3.928,3.6116-5.3714,1.8921-1.6283,3.2426-1.496,4.7538.4546.1624.2096.297.4425.4591.6523,2.3842,3.0865,5.4376,4.9014,9.2387,5.3845,3.4924.4439,6.7995-.3885,10.0751-1.4563,3.931-1.2815,7.5243-3.3403,11.1461-5.3316,2.2512-1.2377,2.2418-1.2175,2.577,1.3169.1734,1.311.5068,2.5802,1.8096,3.1927,1.6699.7851,3.2211.4197,4.7154-.5779,1.3885-.9269,1.3541-2.3156,1.1859-3.7402-.2017-1.7086-.449-3.4117-.6955-5.1142-.1683-1.162-.369-2.3189-.5766-3.6108-.6156.1722-1.1038.3021-1.5883.4455-1.3448.3979-2.6815.8269-4.0331,1.1978-3.8114,1.0458-7.6832,1.6969-11.616,2.0281-4.5352.3819-8.9939.1643-13.3422-1.3564-4.2052-1.4707-7.0636-4.3666-8.5665-8.7163-.1432-.4144-.3683-.7981-.6854-1.4727-1.3803,3.8911-2.8416,7.3236-5.56,10.0003-2.8376,2.7941-6.5079,3.3423-10.157,4.112ZM241.1546,21.1119c.1499.8874.2347,1.4444.339,1.9974.7266,3.8526,1.5122,7.6942,2.1712,11.5592.6616,3.8802.035,7.4303-2.9865,10.1428-.8559.7684-1.8097,1.4657-2.8155,1.9969-2.3518,1.2419-4.7536,2.3829-7.1525,3.5255-1.2438.5924-1.3309.6417-1.0658,2.0606.2661,1.4246.4823,2.876.9255,4.2437.5589,1.7249,1.2865,3.3959,2.0253,5.0495.2398.5367.7432.9459,1.126,1.4134.091-.0639.182-.1278.273-.1917-.1327-.3192-.2544-.644-.3999-.9568-1.4688-3.1555-.9502-6.0626,1.0091-8.7898,1.0622-1.4785,2.3895-2.3029,4.2559-2.1032,1.5313.1638,3.0598.3257,4.6237.0481,3.6007-.6393,6.4002-2.3104,7.9292-5.9419,1.0583-2.5134,1.1739-5.1061.8452-7.7604-.3549-2.8664-1.5644-5.3837-3.2977-7.5609-2.2096-2.7755-4.6013-5.3941-6.9232-8.0721-.1584-.1826-.3898-.2966-.8819-.6603Z"/>
      <path class="cls-1" d="M162.1922,42.5645c-.9318-.6095-.9564-1.44-.6561-2.397.3852-1.2278.6222-2.5103,1.0634-3.7135.4969-1.3551.9407-1.5854,2.1159-.8974,1.4794.8659,2.8504,1.9389,4.2352,2.9707.6309.4701.8095,1.1951.8188,2.0029.0297,2.5851-.783,3.8085-3.1722,4.6838-1.3683.5013-2.7434.9851-4.097,1.5265-.6724.2689-1.3525.5752-1.9428.9958-1.2301.8765-1.7874,2.1121-1.3104,3.6474,1.1149,3.5885,2.3008,7.1532,3.416,10.7416.8915,2.8689,1.8915,5.7185,2.5296,8.6507.6222,2.8591.4691,5.7916-.471,8.6116-1.2772,3.8311-4.0673,5.6852-7.7477,6.3431-.1352.0242-.2901-.0706-.6958-.1802.4703-.4543.8102-.8112,1.1784-1.1331,1.1882-1.0387,2.4067-2.0408,3.5725-3.1057.5413-.4944,1.0206-1.074,1.4717-1.6618,2.148-2.7989,1.7087-5.8164.6691-8.8871-1.7045-5.0347-3.4283-10.0628-5.074-15.1184-.6664-2.0472-1.0213-4.1504-.6552-6.3591.4443-2.68,1.6833-4.7139,3.9832-6.0291.1811-.1036.3495-.2323.5196-.3555.0403-.0292.0638-.0834.2488-.3363Z"/>
      <path class="cls-1" d="M217.9576,21.8613c.4411,1.816.2781,2.0438-1.3758,2.7152-3.9065,1.5858-7.8303,3.1328-11.6855,4.8455-3.1899,1.4171-6.289,3.055-9.4346,4.5809-.6936.3365-1.4139.6134-2.0979.9074-.6283-1.0542-.587-1.7887.1792-2.4631.4681-.4119,1.0222-.743,1.5807-1.0146,6.8076-3.3098,13.7342-6.3255,20.7861-9.0255.6585-.2521,1.3653-.3676,2.0478-.546Z"/>
      <path class="cls-1" d="M213.8339,76.7267c.7307-1.1594,1.3721-2.1772,2.1379-3.3923,1.3962.8764,2.6954,1.692,4.1516,2.6061-.5948,1.1656-1.1196,2.1932-1.6436,3.2213-.3164.6208-.7889.6358-1.3103.3372-.9489-.5435-1.8869-1.1076-3.029-1.7808-.3383.6571-.6755,1.28-.984,1.9181-.7053,1.4587-.849,1.5257-2.2191.7302-.7205-.4183-1.3979-.9165-2.1019-1.3664-.7091-.4532-.7879-1.0689-.4602-1.8026.0436-.0976.0859-.196.134-.2912,1.3248-2.6223,1.327-2.2406,3.3392-1.1946.5983.311,1.2005.6141,1.9854,1.015Z"/>
      <path class="cls-1" d="M214.3007,45.1885c-.7284,1.1492-1.632,1.7277-2.9171,1.6046-1.0979-.1052-1.9102-.6146-2.2529-1.6769-.5778-1.7909-.3301-3.5683.2097-5.4112.7081.2167.7037.729.7991,1.1747.1566.7316.275,1.4757.4871,2.1896.2084.7017.7068,1.0622,1.4363.9026.7718-.1688.9524-.7756.8639-1.4791-.0802-.6372-.2396-1.264-.3711-1.8938-.174-.8337-.2755-1.663.1234-2.9035.3585.6862.5855,1.052.7486,1.4464.3879.9383.6783,1.9271,1.134,2.8263.4803.9478.9455,1.0573,2.0977.7175-.2795-1.563-1.3775-3.0816-.3606-4.8421.1418.1404.3258.2473.4007.409.562,1.2121,1.1523,2.4145,1.6275,3.6638.2204.5795.3242,1.2684.2696,1.8875-.1237,1.4029-1.5306,2.3271-2.8396,1.9445-.4441-.1298-.8688-.3313-1.4563-.56Z"/>
      <path class="cls-1" d="M197.7264,22.5151c.1767-1.429.2637-2.4767.4453-3.5063.1954-1.1078.4362-2.2119.7401-3.2923.205-.7289.5477-1.5287,1.4036-1.5292.8824-.0005,1.5563.5921,1.9553,1.4003.3063.6204.5572,1.3052-.0938,2.0456-.3171-.2056-.6554-.4091-.9778-.6371-.9831-.695-1.6602-.4775-1.9019.7257-.179.891-.2281,1.8177-.2601,2.7313-.0452,1.2938.0126,2.5918-.0413,3.885-.0278.6671-.2016,1.3276-.3095,1.991-.1217.0191-.2434.0382-.3651.0573-.2808-.4831-.5594-.9675-.8428-1.449-.6753-1.1474-1.336-2.3047-2.0358-3.4357-.417-.674-.909-1.023-1.8146-.7806-1.0793.289-1.6471-.2098-1.9432-1.3195-.0276-.1034-.0515-.212-.0521-.3183-.0043-.7833-.3528-1.7374.4734-2.2183.8134-.4735,1.5269.1397,2.043.7345.8643.9959,1.6367,2.0797,2.4265,3.1436.3389.4566.6243.9561,1.1507,1.772Z"/>
      <path class="cls-1" d="M210.2239,11.2437c.3074.1842.3873.2069.3901.2373.1396,1.5223.9519,2.543,2.052,3.5236,1.273,1.1347,1.0347,2.6949.4902,4.1826-.5379,1.4696-1.7305,1.9336-3.073,2.0414-1.1824.095-2.1092-.6651-2.348-1.8835-.1219-.622-.1641-1.2971-.0736-1.9217.3296-2.2771,1.476-4.182,2.5624-6.1798ZM210.5849,19.0583c.9627.0278,1.7806-.4946,1.8-1.1498.0198-.6702-1.3427-1.8889-2.0897-1.8691-.6873.0182-1.2449.7301-1.2383,1.5809.0067.8685.5827,1.4106,1.528,1.4379Z"/>
      <path class="cls-1" d="M176.6331,27.2328c-.0967-.9987-.2272-1.7381-.2299-2.4779-.0125-3.4402-1.3052-6.2572-3.7495-8.5301-.424-.3943-.8923-.7389-1.2995-1.15-.7957-.8034-.8183-1.5673-.0752-2.7607.3035.1331.6832.2007.9341.4247,3.6362,3.2468,5.8661,7.1871,5.5484,12.3627-.0473.7708-.2117,1.4698-1.1284,2.1313Z"/>
      <path class="cls-1" d="M200.7295,34.5713c-.1532.4651-.2902.844-.403,1.2305-.4044,1.3847-.8068,2.7701-1.1942,4.16-.0709.2544-.0943.5311-.0947.7975-.0012.8028-.1323,1.781.7247,2.1273.8891.3592,1.1903-.5806,1.5907-1.1834.0523-.0787.1687-.1112.3249-.2084.7043.6812.3384,1.4813.1337,2.187-.2252.7761-.6292,1.4989-1.4723,1.7424-.6603.1907-1.3897-.1392-1.7094-1.0467-.4211-1.1952-.8448-2.4714-.8626-3.719-.0255-1.7793.5333-3.4952,1.4567-5.0362.4529-.7557.4763-.7609,1.5057-1.051Z"/>
      <path class="cls-1" d="M233.0849,80.9318c-.1865-.3677-.271-.459-.276-.5548-.1544-3.0101-1.4939-5.3083-3.8361-7.0312-.2796-.2056-.6086-.5662-.6283-.8748-.0314-.4926.0746-1.0735.3307-1.4722.1183-.1843.7966-.1663,1.1038-.0022,2.4552,1.3113,5.0228,6.0603,3.7402,9.1104-.0946.225-.2265.4331-.4343.8249Z"/>
      <path class="cls-1" d="M179.1225,78.7504c-.0224-1.1224.168-1.9316,1.0149-2.3738,2.3975-1.2518,4.8071-2.4788,7.2173-3.704.1162-.0591.2842-.0076.5033-.0076.2475.9612-.0441,1.7723-.8159,2.2096-2.3112,1.3096-4.6702,2.5281-7.0204,3.7618-.2057.108-.4839.0665-.8992.1141Z"/>
      <path class="cls-1" d="M236.8178,29.9827c.268,1.0318-.0009,1.6616-.6292,2.0419-2.418,1.4637-4.8603,2.8839-7.2983,4.3116-.0727.0425-.1978-.0121-.2985-.0215-.4005-.9673-.2505-1.9207.597-2.4576,2.3888-1.5132,4.906-2.7675,7.629-3.8744Z"/>
      <path class="cls-1" d="M232.5435,14.2612c-.1831.5675-.3542,1.0955-.5239,1.6241-.4074,1.2694-.8852,2.5208-1.1912,3.8161-.153.6475-.108,1.4068.0545,2.0598.2528,1.0162,1.2323,1.1774,1.8866.3778.2422-.296.4421-.6295.8208-1.1763.4779,1.4472.2934,2.4755-.4486,3.3872-.8884,1.0916-2.1707.9781-2.7058-.3411-.4121-1.016-.6634-2.1454-.7638-3.2463-.1876-2.0573.5846-3.9018,1.5264-5.6532.2288-.4255.4647-1.0071,1.345-.848Z"/>
      <path class="cls-1" d="M166.8742,47.3062c-.1721.5754-.3619,1.1458-.5117,1.7274-.1709.6638-.3695,1.3304-.4395,2.0088-.0731.7074.2456,1.2369,1.0513,1.4433.29-.3875.5902-.7885.911-1.217.7275,1.3852.1965,3.2665-1.0238,3.8477-.554.2638-1.0266.0689-1.3966-.3541-.6801-.7777-1.1559-1.7172-1.102-2.7626.0962-1.8695.8963-3.4548,2.0386-4.8447.1576.0504.3152.1009.4728.1513Z"/>
      <path class="cls-1" d="M198.2416,66.5452c-.2349-.3879-.4839-.7675-.7019-1.1654-.4615-.8422-.9185-1.6876-1.3557-2.5436-.4953-.9696-1.125-1.4935-2.3081-1.5108-1.6246-.0238-2.3061-1.4426-1.6281-2.9953.3449-.79,1.185-1.0574,1.9542-.4353.7231.5849,1.3282,1.3462,1.9146,2.0903.5376.6822.9809,1.4448,1.4658,2.172.117-.0283.234-.0565.3509-.0848,0-.622-.0336-1.2465.0089-1.8653.0477-.6947.0931-1.4043.2669-2.0715.2731-1.049,1.0749-1.755,1.8118-1.7412.8013.015,1.9124.9585,2.0883,1.9142.1109.6027.0207,1.2456.0207,2.1377-.4965-.3331-.7897-.4913-1.0398-.7042-1.1865-1.0101-1.8133-.8028-2.0257.8064-.1684,1.2756-.1489,2.5777-.2243,3.8673-.0398.6806-.1041,1.3596-.1574,2.0394l-.4411.09Z"/>
      <path class="cls-1" d="M249.4324,33.7442c-.3247.8099-.548,1.3196-.7351,1.8433-.377,1.0556-.7753,2.1063-1.0797,3.1851-.1247.442-.0838.9595-.0201,1.4282.0822.6055.3251,1.1554.9844,1.3105.6546.154.8868-.3543,1.1849-.8107.1781-.2727.4808-.4573.7769-.7264.4093,1.4979-.2572,3.4405-1.3667,4.0039-.3082.1565-.9133.1528-1.1298-.0581-.6248-.6085-1.332-1.2754-1.6271-2.0718-.8143-2.1974.7387-6.4814,3.0124-8.104Z"/>
    </g>
  </g>
</svg>