<?xml version="1.0" encoding="UTF-8"?>
<svg id="Judaism" xmlns="http://www.w3.org/2000/svg" xmlns:xlink="http://www.w3.org/1999/xlink" viewBox="0 0 263.1382 293.7299">
  <defs>
    <style>
      
      @import url('../../CSS/SvgStyling.css');
      
    </style>
    
  </defs>
  
  <g class="content">
    

      <rect id="bg" class="bg" width="263.1382" height="293.7299"/>

      <path class="cls-1" d="M209.7359,156.5732l32.3505,55.969h-64.7l32.3476-55.969h.0019ZM131.569,272.3848l-28.9791-50.1342h57.9593l-28.9797,50.1342h-.0005ZM21.0546,212.5421l32.3505-55.969,32.3505,55.969H21.0507h.0039ZM21.0546,81.1873h64.7001l-32.3524,55.9691-32.3476-55.9691ZM131.569,21.3447l28.9792,50.1343h-57.9593l28.9796-50.1343h.0005ZM204.1228,146.8649l-37.9623,65.6773h-69.1809l-37.9656-65.6774,37.9623-65.6774h69.1809l37.9657,65.6774v.0002ZM242.0836,81.1873l-32.3476,55.9691-32.3505-55.9691h64.7001-.002ZM215.3443,146.8649l43.574-75.3858h-87.148L131.5691,1.9278l-40.2027,69.5512-87.148-.0002,43.574,75.3858L4.2184,222.2505h87.148l40.2012,69.551,40.2027-69.551h87.148l-43.574-75.3858v.0002Z"/>
    
  </g>
</svg>