<?xml version="1.0" encoding="UTF-8"?>
<svg id="Khadijah" xmlns="http://www.w3.org/2000/svg" width="432.1351" height="237.9843" viewBox="0 0 432.1351 237.9843">
  <defs>
    <style>
      
      @import url('../../CSS/SvgStyling.css');

      
    </style>
  </defs>
  
  <g class="content">

    <rect id="bg" class="bg" width="432.1351" height="237.9843"/>
    <path class="cls-1" d="M38.725,127.584c-.8877,1.1731-1.7905,2.3352-2.6597,3.5219-1.5283,2.0864-2.9993,4.2159-4.5681,6.2711-.7835,1.0265-.936,2.1227-.9839,3.363-.1238,3.2037-.521,6.4-.5675,9.6028-.1288,8.874.8149,17.6581,3.2053,26.2049,1.4063,5.0281,3.9566,9.5825,7.7774,13.2447,4.4809,4.295,9.7199,4.4488,14.4564.3836,3.3303-2.8583,5.372-6.637,7.0684-10.5806,1.9749-4.5912,3.7307-9.2762,5.6433-13.895,2.0574-4.9681,3.9836-10.0117,6.9879-14.5176,4.1697-6.2538,9.1569-11.7414,15.4692-15.9128,1.9408-1.2826,4.0544-2.1571,6.4278-2.3993,2.157-.2201,3.7656.5601,4.7266,2.4165,1.0735,2.0739,2.1526,4.1842,2.868,6.3955,1.1981,3.7031,2.0243,7.5249,3.1614,11.2497,1.8786,6.1535,5.1213,11.4124,10.3636,15.3303,3.1391,2.346,6.7047,2.9143,10.4688,2.7692,8.1154-.3129,15.173-3.731,22.1147-7.5259,8.894-4.8621,17.8211-9.6636,26.7382-14.4832.7127-.3852,1.4588-.7086,2.1894-1.0608-.0167-.0926-.0335-.1851-.0502-.2777-.3186-.0521-.6355-.1231-.9562-.1536-11.2254-1.0654-22.4598-2.0437-33.6743-3.2124-11.3286-1.1806-22.6551-2.2434-34.0644-1.9433-.5415.0142-1.0837.0018-1.8935.0018.573-1.4017,1.0613-2.5963,1.5497-3.791,1.5-3.6695,2.9809-7.347,4.5227-10.9988.2071-.4905.643-.9898,1.1052-1.2513,6.1716-3.4907,12.7998-5.9651,19.3333-8.6564,8.5213-3.5101,16.9269-7.2674,24.5406-12.552,6.7956-4.7167,12.7324-10.3507,17.7462-16.9337,2.7974-3.6728,5.4427-7.4632,8.2931-11.0934,2.6986-3.4368,5.8994-6.3757,9.6241-8.7036.436-.2725.9067-.5047,1.387-.6884,1.3954-.5337,2.4712-.2444,3.3742.9643,2.1789,2.9166,3.6267,6.172,4.3981,9.7291,1.7552,8.0938.8144,15.982-1.8439,23.7291-1.2055,3.5131-2.7751,6.8413-5.3018,9.6288-.3881.4282-.8855.7573-1.3324,1.1322l-.3231-.2153c.149-.5776.2972-1.1555.4473-1.7329.9276-3.5665,2.0774-7.0928,2.7303-10.7088.9198-5.0947-.4865-9.8541-2.974-14.2987-.829-1.4811-1.6316-1.7288-3.2039-1.0905-3.3336,1.3534-6.0986,3.5728-8.3439,6.3015-3.1289,3.8027-6.0523,7.778-8.9857,11.7372-7.2514,9.7871-16.3567,17.3978-27.0163,23.2102-.9204.5019-1.8163,1.0489-2.7236,1.5749.0126.1038.0251.2076.0377.3114.9582.1539,1.9127.3375,2.8752.4569,6.8439.8491,13.6797,1.7776,20.5373,2.4986,6.5162.6852,13.0529,1.1822,19.5853,1.7031,12.1276.9671,24.2645.6383,36.4066.2872,4.856-.1404,9.7237.1201,14.5859.2036.1943.0033.3876.0639.7724.1313-.3493.8054-.6048,1.5445-.9742,2.2216-2.1469,3.9351-4.3694,7.8299-6.4554,11.7967-.6246,1.1878-1.434,1.143-2.5339,1.0981-6.8276-.2786-13.5685.3981-20.225,1.9656-5.9882,1.4101-11.8254,3.2805-17.5065,5.6316-.4866.2014-1.054.65-1.2215,1.1144-2.8908,8.0156-5.6575,16.0813-7.378,24.4399-.7682,3.7321-1.4535,7.5185-1.017,11.3957.503,4.4672,2.2046,8.2955,5.6402,11.2807,1.7229,1.497,3.7199,2.3168,5.9835,2.5645,4.5982.5031,8.9943-.3306,13.2837-1.9305,6.3666-2.3746,12.233-5.7154,17.982-9.2863,12.6111-7.8333,23.9201-17.2863,34.2952-27.8551,3.4968-3.5621,6.6131-7.4969,9.9212-11.2455,1.0497-1.1894,1.3268-2.5036.9546-4.0327-2.4064-9.8854-4.7027-19.7984-7.207-29.6588-3.6518-14.3783-7.8524-28.6018-12.4588-42.7042-.9208-2.819-1.8173-5.6463-2.7771-8.4519-.5836-1.7061-.7916-3.4059-.3822-5.1808,1.0309-4.4685,2.0353-8.9432,3.058-13.4136.0428-.187.1614-.3568.332-.7212.3996.5061.7328.8786,1.0114,1.2883,3.8956,5.7283,6.9176,11.9147,9.701,18.2417,5.2034,11.8275,8.9959,24.0932,11.58,36.737,1.602,7.8382,3.3321,15.662,4.5645,23.5609,1.5358,9.8439,2.6454,19.7551,3.8876,29.6437.9462,7.5323,2.8627,14.752,6.6664,21.3815,1.6587,2.8909,4.047,5.1284,6.6718,7.1274.2306.1756.5384.2499,1.0308.4696-.0836-.5589-.0885-.9224-.195-1.2532-1.6058-4.9854-3.1851-9.9798-4.8501-14.9455-2.6095-7.7825-1.6966-15.2984,1.5824-22.6557,1.5282-3.4289,3.3824-6.6749,6.2176-9.1878,4.68-4.148,10.0767-6.8815,16.2388-8.2201,5.0506-1.0972,9.9742-.7789,14.9549.3197,13.6527,3.0114,26.9852,7.1704,40.3756,11.1267,13.1092,3.8732,26.4464,6.7992,39.8346,9.5066,2.1627.4374,4.3322.8435,6.5045,1.2311,1.1921.2127,1.294.3131.8247,1.4655-.7541,1.8516-1.5321,3.6939-2.3319,5.5262-.9379,2.1488-1.9023,4.286-2.8704,6.4215-.4242.9358-.9932,1.5678-2.1369,1.8502-10.0426,2.4795-19.7448,5.9682-29.0431,10.4795-5.2381,2.5414-10.2216,5.6019-15.4042,8.2642-6.8083,3.4974-13.6459,6.9476-20.5729,10.2006-5.2392,2.4604-10.5642,4.7787-15.9842,6.8037-7.6117,2.8438-15.5618,3.9055-23.6866,3.507-.8509-.0417-.8236.4345-.9137,1.0127-.3593,2.3076-.7233,4.6158-1.1707,6.9072-.1285.6579-.5092,1.2788-.8423,1.8788-.153.2757-.5391.6857-.6985.6373-.2982-.0908-.6418-.4328-.7299-.7386-.2752-.9547-.5181-1.9322-.6318-2.9172-.2725-2.3617-.4946-4.7305-.672-7.1013-.0626-.8371-.6692-.8881-1.2061-1.0245-2.7348-.695-5.307-1.7971-7.6441-3.3465-6.726-4.4591-11.0802-10.7238-13.6698-18.2942-1.8812-5.4993-2.5838-11.208-3.0724-16.9598-.3211-3.7798-.6892-7.5555-1.0403-11.3327-.0151-.1627-.0714-.3216-.316-.5437-.1864.5118-.3977,1.016-.5552,1.5365-1.4132,4.6712-3.2178,9.1732-5.7614,13.3555-2.7049,4.4475-6.0856,8.3585-9.7194,12.0509-7.6117,7.7345-15.8081,14.8054-24.5671,21.207-7.1437,5.2211-14.6592,9.8251-22.8031,13.365-4.4643,1.9404-9.1224,3.1255-13.9475,3.0344-6.7656-.1277-11.7477-3.472-14.9768-9.4152-3.3921-6.2433-3.8348-12.9942-3.5345-19.9083.2415-5.5601,1.5505-10.909,2.8474-16.2747,1.5682-6.4878,3.6969-12.78,6.4073-18.8779.1303-.293.1965-.6145.3918-1.2409-1.5033.7754-2.7464,1.3478-3.9225,2.0349-6.1337,3.5832-12.2468,7.2014-18.3736,10.7964-8.7188,5.1159-17.5336,10.0549-26.6705,14.3966-5.1152,2.4306-10.4256,3.7415-16.1424,2.9886-6.9219-.9117-12.2308-4.385-16.2026-10.0299-3.5-4.9744-5.572-10.5961-7.3711-16.3406-.8758-2.7964-1.7205-5.6046-2.6893-8.3689-.3588-1.0239-1.0203-1.9444-1.5665-2.8991-.4188-.7319-.9838-.7914-1.7508-.4556-3.3414,1.4626-6.1913,3.5923-8.6767,6.2366-5.7383,6.1051-9.8729,13.2012-13.2843,20.8211-3.1116,6.9504-6.4889,13.7888-9.9644,20.5661-1.5862,3.0931-3.7261,5.9231-6.5527,8.0478-4.5299,3.4049-6.1085,3.5456-10.8918.3754-3.9611-2.6253-6.9382-6.2815-9.3494-10.3666-4.8162-8.1598-6.8839-17.1667-8.027-26.4409-1.0937-8.8735-.4869-17.6998.8764-26.496.0896-.578.1428-1.2015.4037-1.7049.5525-1.0661.0376-1.5358-.7825-2.137-4.5586-3.3421-9.0744-6.7429-13.5754-10.1624-.1728-.1313-.1899-.7572-.0345-.9866,1.933-2.8525,3.9002-5.6822,5.8841-8.4998.7341-1.0427,1.5405-2.0342,2.3035-3.0568.7816-1.0475,1.0219-1.0928,2.0819-.3221,3.3746,2.4533,6.7492,4.9068,10.1199,7.3655,1.3644.9953,2.7307,1.9888,4.07,3.0172.37.2842.6459.6909.965,1.0414l.0121-.0264ZM385.1604,167.4697c-.6766-.2612-1.016-.4153-1.3691-.5252-7.0779-2.2024-14.1369-4.4685-21.241-6.583-12.7243-3.7873-25.4655-7.5451-38.6659-9.3462-3.6767-.5017-7.3936-1.0072-11.1188-.3368-1.7972.3234-3.6117.6122-5.3649,1.1065-4.0943,1.1543-7.6886,3.1855-10.552,6.403-.8239.9258-1.1454,1.9394-.7589,3.1448.3261,1.017.6108,2.0482.9658,3.0547,1.193,3.3817,2.4489,6.7417,3.6078,10.1349,2.058,6.0253,3.3767,12.2256,4.2276,18.5288.0804.5955.2174,1.004.9413,1.1226,3.8405.6294,7.6939.702,11.5515.2857,10.4735-1.1302,20.3282-4.5044,29.8737-8.7261,9.2665-4.0983,18.3666-8.5754,27.5099-12.9485,3.4137-1.6327,6.743-3.4418,10.3928-5.3153Z"/>
    <path class="cls-1" d="M137.9353,95.4155c-.5889.2855-1.1552.6374-1.7702.8457-4.3387,1.4697-8.8377,2.1897-13.3702,2.6607-4.3209.449-8.657.7591-12.9906,1.0713-.8382.0604-1.0427.3143-.9532,1.1287.377,3.4277,2.1859,5.8812,5.0648,7.6254,1.3001.7876,2.7586.8183,4.2167.7514,4.2677-.1958,8.1164-1.7515,11.55-4.1225,3.6515-2.5214,7.0656-5.3875,10.5693-8.1211.7893-.6159.751-1.3452.2615-2.1957-2.0438-3.5511-4.0431-7.1279-6.0576-10.6958-.0507-.0898-.0846-.189-.134-.2795-.4242-.777-1.2078-1.557-1.1993-2.3285.0165-1.4829.4815-2.9609.7724-4.5045,1.6626.9219,5.2421,5.0023,5.3577,6.0474-.359.0643-.7218.1293-1.237.2216.1727.3709.2926.707.4742,1.0055,1.0736,1.765,2.2581,3.4702,3.2223,5.2924,1.5012,2.8372,1.1625,5.8076.2896,8.7555-.7256,2.4508-2.3142,4.3148-4.2792,5.8285-3.1117,2.3972-6.2593,4.754-9.4788,7.0033-2.8375,1.9825-6.0774,3.1223-9.4594,3.7481-4.7677.8822-9.5721-2.3938-10.9778-7.387-.6205-2.2041-.9989-4.4505-.6812-6.7477.1264-.9141-.4256-.8478-.9994-.8379-3.6565.0631-7.3148.2301-10.9691.1652-5.7203-.1016-11.4429-.2728-17.1529-.6115-1.4845-.088-3.0088-.7429-4.3647-1.4326-1.5483-.7876-1.9472-1.9975-1.4544-3.6766,1.4338-4.8854,4.6403-8.1748,9.2493-10.2315,2.479-1.1062,4.9231-2.303,7.3192-3.5787,2.0802-1.1076,3.3527-3.022,4.4999-5.0131.8156-1.4156,1.7477-2.7167,3.2298-3.544.7162-.3998,1.0619-.2556,1.2332.5247.2286,1.0417.5156,2.071.7273,3.1158.2884,1.4233.8784,2.6628,1.91,3.7112.8307.8442.9844.8968,1.754-.0515,1.4545-1.792,2.8332-3.6468,4.3184-5.4123,2.5184-2.9938,5.3678-5.6324,8.5474-7.9323,2.8569-2.0665,5.9933-2.7173,9.4096-2.1627.8369.1359,1.6976.3965,2.4395.7987,2.8496,1.5449,4.9418,3.8542,6.2528,6.8012.3021.6791.2741,1.6099.1169,2.3665-.3127,1.5051-.7665,2.988-1.2597,4.447-.9047,2.6764-2.8555,4.413-5.3037,5.6652-4.5583,2.3314-9.3565,3.889-14.4609,4.4225-.9674.1011-1.4331.4505-1.589,1.4937-.1971,1.3192-.6695,2.5977-1.03,3.8919-.3429,1.2311-.2521,1.384,1.045,1.367,4.4845-.0588,8.9685-.1489,13.453-.2108,4.2083-.0581,8.4169-.0993,12.6255-.1361.3904-.0034.7816.0791,1.1725.1218.0301.112.0601.224.0902.336ZM97.5026,86.4326c1.3417-1.3024.1743-2.1034-.3132-3.0873-.4538-.916-.7582-1.913-1.0602-2.8954-.2727-.887-.4252-1.8104-.6825-2.7028-.234-.8117-.5817-.9058-1.1099-.2629-.8284,1.0082-1.7229,1.9987-2.3488,3.1298-2.0046,3.6224-5.081,5.8832-8.8137,7.4624-2.407,1.0183-4.7742,2.1516-7.0775,3.3859-1.3244.7097-1.2189,1.4414.1372,2.1797.4513.2457.9323.4975,1.4288.5888,1.9262.3541,3.8594.8788,5.7985.9178,7.9278.1596,15.8587.1594,23.7883.2322.7511.0069,1.0919-.3287,1.308-1.0297.4661-1.5116,1.0253-2.9943,1.5338-4.493.1065-.3139.1592-.646.2535-1.0404-.442-.0374-.7785-.0804-1.1162-.0921-2.7335-.0944-5.4509-.2875-7.9433-1.5725-1.12-.5774-2.1419-1.516-3.783-.7205ZM110.5003,83.2118l.0575-.3426c.7918,0,1.5885.0577,2.3746-.0091,6.1838-.5257,11.8356-2.7491,17.3333-5.4633.7102-.3506.6739-.8145.2676-1.3226-.9878-1.2353-1.8968-2.5615-3.0359-3.6419-2.2592-2.1428-4.8622-3.6751-8.151-3.3087-2.5461.2837-4.9859,1.0776-6.9028,2.786-3.105,2.7674-6.0507,5.7145-9.0386,8.6116-.5571.5402-.4584,1.0932.3598,1.2741,2.24.4953,4.4897.9474,6.7355,1.4165Z"/>
    <path class="cls-1" d="M16.3203,12.1525c.4239,1.6526.9893,3.2834,1.2461,4.9616.9124,5.9635,1.9882,11.9197,2.5103,17.9215,1.0639,12.2301,1.7676,24.491,2.7094,36.7324.2666,3.4656.6832,6.9377,1.3293,10.3503.5222,2.758,1.9981,5.0221,4.9618,5.8066,2.006.531,3.9871.1229,5.8889-.5327.3955-.1364.773-.8182.8539-1.2999,1.1058-6.5841,3.6699-12.7031,5.9672-18.907.1498-.4044.3913-.7748.7124-1.3987.2429.4565.4471.6867.4901.9439.6942,4.1452,1.3955,8.2896,2.0329,12.4437.2652,1.7286.0816,3.4392-.6347,5.0669-.1054.2395-.1406.5098-.2908,1.0778.5961-.3041.9946-.4458,1.3222-.6846,2.2493-1.6393,4.11-3.6574,5.7828-5.8741.3477-.4607.9865-.7017,1.4912-1.0439.0978.0775.1956.155.2933.2326-.0502.4549-.0616.9181-.1572,1.3632-.4815,2.2415.6425,4.0066,2.8567,4.6344,2.6822.7604,5.1633.0855,7.8225-.9212-.6525-.4732-1.183-.8753-1.7307-1.2524-2.564-1.7648-4.6222-4.0025-5.6764-6.9364-.8904-2.4779-.5601-4.9713.5129-7.4227,2.0882-4.7705,7.2178-7.8659,12.7225-7.4327,2.975.2341,5.7687.9541,8.335,2.4929.236.1415.4608.3042.6771.4744.0726.0571.1027.1682.2669.4547-.5576,0-.9974.0426-1.4268-.0064-6.4883-.7411-12.4688.6962-17.9601,4.1958-1.195.7616-1.3693,1.3359-.7592,2.6115,2.1768,4.5512,5.6014,7.684,10.4842,9.1683,1.8726.5693,3.641.2045,5.3463-.4993,3.9181-1.6169,7.8003-3.3205,11.7029-4.975.6975-.2957,1.4165-.546,2.1394-.7731.231-.0726.5555-.0831.7438.0315.1138.0692.1357.4743.0496.659-.9272,1.9897-1.6236,3.9427-4.0864,4.9247-6.851,2.7318-13.5678,5.8002-20.3368,8.7375-2.3872,1.0359-4.8303,1.8574-7.4635,1.9433-3.1889.104-5.0009-1.0849-5.9187-3.9208-.1744-.5389-.2124-1.1219-.3209-1.7267-1.7706,2.0684-3.4993,4.0879-5.2842,6.1729.4508.2767,1.0756.6773,1.7162,1.0507,3.0275,1.7646,4.2086,4.3924,3.7781,7.8417-.1858,1.4885-.4394,2.9146-1.2912,4.2001-.8948,1.3503-2.0601,2.0424-3.7141,1.9954-2.9806-.0846-5.2179-1.6173-7.1915-3.6291-1.7638-1.7978-2.999-3.9389-3.7948-6.3355-.4135-1.2452-1.6348-1.9987-2.9136-1.861-.3772.0406-.7554.0725-1.1334.104-4.8658.4053-7.5993-1.5017-8.9974-6.183-1.3047-4.3685-1.6993-8.8743-1.9896-13.3791-.9961-15.4564-1.9439-30.9163-3.821-46.2982-.3839-3.146-.8944-6.2878-1.5733-9.3818-.3597-1.639-.2216-3.0496.5902-4.455.2716-.4702.5319-.9469.7974-1.4206.1109-.0141.2219-.0283.3328-.0424ZM37.6066,86.0766c.6422-.2258.9457-.2842,1.1989-.4299,1.1034-.6346,2.1566-1.3676,3.297-1.9233.9927-.4837,1.1986-1.1855,1.0311-2.169-.4164-2.4456-.7962-4.8974-1.22-7.3416-.0592-.3417-.2833-.6549-.4311-.9812-.1033-.0001-.2067-.0003-.31-.0004-1.5751,4.0607-2.979,8.1695-3.566,12.8455ZM39.9507,94.1429c.4732,1.7826,2.5068,3.717,4.5723,4.6089.9272.4004,1.9518.5963,2.9499.7973.2688.0541.7538-.138.8616-.3552.099-.1994-.0861-.6979-.3014-.8695-1.2799-1.0198-2.5121-2.1597-3.9429-2.912-1.2553-.66-2.7503-.864-4.1394-1.2694Z"/>
    <path class="cls-1" d="M225.7099,167.8066c3.229-4.4619,6.4508-8.9139,9.7217-13.4337,1.1294.8349,2.0908,1.5505,3.0574,2.2593,4.0871,2.9971,8.1742,5.9944,12.2648,8.9868,1.2542.9175,1.2868.93.3494,2.2414-1.7845,2.4964-3.6031,4.9683-5.4086,7.4496-.9939,1.3658-2.0028,2.7209-2.9796,4.0987-.4773.6734-.8555.6084-1.498.1203-4.9125-3.7327-9.8616-7.4171-14.8027-11.1119-.185-.1383-.4057-.2289-.6216-.3483-3.254,4.4662-6.4765,8.8892-9.7775,13.4198-1.3539-.9683-2.6407-1.8633-3.9008-2.7945-3.8816-2.8684-7.7424-5.7653-11.6386-8.6135-.6743-.4929-.8224-.8837-.3097-1.5867,2.8825-3.9523,5.7451-7.9192,8.5929-11.8965.5109-.7136.9224-.4188,1.4424-.0392,4.9002,3.5772,9.8103,7.1409,14.7184,10.7073.2225.1617.4538.3114.7901.5411Z"/>
    <path class="cls-1" d="M395.0144,27.9173c-.6843,1.8898-1.1613,3.5466-1.9004,5.0768-.2844.5889-1.12.9813-1.7813,1.3076-6.4001,3.1579-12.8266,6.2622-19.2261,9.4211-13.2642,6.5472-26.531,13.0893-39.77,19.6873-16.1094,8.0285-32.1906,16.1135-48.2867,24.1686-.6311.3158-1.2901.5761-2.2233.9895.1969-.547.2472-.7998.37-1.0102,1.1291-1.9341,2.2237-3.8912,3.4372-5.7713.3669-.5684,1.0136-1.036,1.6336-1.3487,5.6318-2.8412,11.2829-5.6443,16.9345-8.4462,10.3454-5.1289,20.6766-10.2869,31.0483-15.3622,9.2876-4.5449,18.635-8.9675,27.9303-13.4968,5.8559-2.8534,11.6409-5.8526,17.502-8.695,4.4026-2.135,8.8753-4.1255,13.3189-6.1758.2133-.0984.4464-.1538,1.013-.3446Z"/>
    <path class="cls-1" d="M47.411,35.2425c-.4141.5843-.9352,1.1202-1.2247,1.7608-1.7008,3.763-2.6079,7.7612-3.4797,11.7783-.6417,2.9573-1.4255,5.8882-2.2702,8.7948-.2995,1.0306-.8446,2.02-2.0111,2.4805-1.4951.5903-2.6893.0315-3.7838-.8819-1.9848-1.6563-2.6559-4.0416-3.4586-6.3587-1.3965-4.0312-1.3446-8.2062-1.3018-12.3836.0015-.151.0731-.3012.3461-.456.0699.5144.1705,1.0267.2046,1.5434.2368,3.5887.6057,7.1537,1.9438,10.5362.669,1.6911,1.4726,3.2781,3.3184,4.0202,1.6938.681,3.3024.1446,3.8481-1.5934.731-2.3282,1.3098-4.7148,1.7894-7.1093.9436-4.711,1.9555-9.3857,4.3028-13.6513,1.005-1.8264,2.41-3.3374,3.6653-3.8264.6387.7194.7647,1.588.617,2.4945-.3382,2.0743-.8189,4.1305-1.0538,6.2152-.3039,2.697-.5679,5.4138-.5834,8.1236-.0149,2.5918,1.3418,4.6908,3.2378,6.3609,1.7515,1.5429,3.8583,1.8786,6.0032.9807,3.1352-1.3125,5.1863-3.6162,5.6965-7.0644.5573-3.7663.0987-7.5061-.5106-11.2217-.351-2.1406-.8347-4.2603-1.29-6.3826-.3626-1.6903.4162-4.669,1.8174-6.4475.372.9382.7373,1.7771,1.0405,2.6379,1.4787,4.1988,2.0399,8.5641,2.4418,12.9738.2277,2.4978.6102,4.9968,1.1516,7.4447.2909,1.315.8734,2.6603,1.6566,3.7539,2.4813,3.4647,7.3364,3.1409,10.015,1.6064.2875-.1647.4258-.9985.2947-1.4155-.6094-1.938-1.3113-3.8485-2.0292-5.7503-1.7841-4.7262-3.1168-9.5684-3.854-14.5706-.0445-.3019-.0906-.6583-.2721-.8758-.7366-.8826-.4529-1.7165.0005-2.5858.4618-.8855.886-1.7906,1.3359-2.6824.0401-.0795.1488-.1244.3313-.2692,1.5964,2.7328,3.5121,5.2369,4.3626,8.4183-.593-.3709-1.1861-.7419-2.0496-1.282.1208.7947.1265,1.2749.2706,1.7091,1.0192,3.0726,1.98,6.1686,3.1269,9.1937,1.4617,3.8551,1.4332,7.7348.1832,11.552-.8661,2.6447-2.6983,4.6319-5.6563,4.9906-3.183.386-5.8502-.7833-7.8288-3.2961-1.341-1.703-2.1117-3.6993-2.4652-5.8508-.0871-.5303-.2757-1.0439-.4176-1.5652-.0997-.0081-.1995-.0162-.2992-.0244-.1533.5279-.3754,1.0465-.4486,1.5854-.4516,3.3232-1.8971,6.2195-4.0659,8.6868-1.9965,2.2713-6.6824,3.5454-9.9326,1.1141-3.2978-2.4669-4.0887-6.0621-4.0557-9.8337.0247-2.8125.5086-5.625.8579-8.4287.1401-1.124.4772-2.2227.7052-3.3369.0934-.4563.1355-.9232.201-1.3852-.1411-.0754-.2822-.1508-.4233-.2261Z"/>
    <path class="cls-1" d="M252.9468,13.0474c-.479,1.8388-.8649,3.5379-1.3924,5.1917-.131.4105-.6707.7743-1.1063.9919-13.6058,6.7981-27.2332,13.5531-40.8326,20.364-8.7566,4.3855-17.4802,8.8371-26.2079,13.2801-7.4063,3.7703-14.7969,7.5716-22.1963,11.3554-.3606.1844-.7395.3331-1.2415.5572,0-.4231-.07-.7301.0115-.9895.4749-1.5115.9181-3.0396,1.5228-4.4996.1932-.4664.7986-.8347,1.2961-1.0915,9.0998-4.6963,18.1804-9.4316,27.3282-14.0329,17.1868-8.6448,34.4119-17.2136,51.6263-25.8036,3.4846-1.7389,6.9916-3.433,10.4909-5.1423.1423-.0695.312-.0829.7012-.1809Z"/>
    <path class="cls-1" d="M313.888,106.8883c1.3609-1.998,2.636-3.9588,4.0027-5.8535,1.6315-2.2618,3.3419-4.4667,5.0169-6.6971.4815-.6412.8923-.811,1.6697-.228,4.7946,3.5952,9.6405,7.1219,14.4726,10.6672.8427.6183.893.9776.1751,1.9697-2.2409,3.0967-4.488,6.189-6.7387,9.2786-.5674.7789-1.1955,1.5162-1.7252,2.3192-.4233.6416-.8123.5718-1.3495.1702-3.5308-2.6396-7.0718-5.2655-10.612-7.8925-1.3271-.9847-2.6641-1.956-3.9896-2.9428-.2957-.2202-.5619-.48-.922-.7909Z"/>
    <path class="cls-1" d="M38.7128,127.6104c.6126-.8701,1.2157-1.747,1.8395-2.609,2.3649-3.2675,4.7582-6.5149,7.0893-9.8063.5356-.7562.9816-.6588,1.6039-.2068,4.7431,3.4456,9.4933,6.8814,14.2414,10.3201.2231.1616.4476.3214.6708.483.5134.3718.5762.7445.1717,1.2962-2.6699,3.6416-5.3037,7.3097-7.9649,10.9577-.4402.6034-.9567,1.1512-1.5291,1.8332-5.4344-4.1507-10.7703-8.2262-16.1084-12.2982-.0021.0034-.0142.0299-.0142.0299Z"/>
    <path class="cls-1" d="M149.6676,230.0295c-1.9291-1.4186-3.7637-2.7524-5.582-4.1081-3.2596-2.4301-6.4954-4.8927-9.7744-7.2963-.7286-.5341-.7746-.8896-.2308-1.6296,2.2434-3.0526,4.3994-6.1692,6.6087-9.2472.6218-.8662,1.3232-1.6748,1.9739-2.5208.439-.5709.8071-.2537,1.2137.0442,3.5582,2.6075,7.1221,5.2071,10.6826,7.8114,1.3623.9964,2.6958,2.0344,4.089,2.9854.8666.5915.3756,1.149.0328,1.6561-.984,1.4554-2.0067,2.8858-3.0494,4.3-1.9408,2.6323-3.9065,5.2462-5.964,8.0047Z"/>
    <path class="cls-1" d="M224.0898,232.1357c.6496-1.8218,1.0716-3.4737,1.8349-4.949.383-.7403,1.3224-1.283,2.1218-1.702,3.389-1.7763,6.7948-3.5246,10.24-5.1888,11.4541-5.5329,22.9264-11.028,34.3967-16.5272.884-.4238,1.8072-.7661,2.7536-1.1637.2392,2.7718-1.3692,5.6389-3.6049,6.7099-13.4045,6.4211-26.8042,12.852-40.2041,19.2824-2.207,1.0591-4.4067,2.1336-6.6124,3.1957-.2104.1013-.4391.1643-.9256.3427Z"/>
    <path class="cls-1" d="M378.2163,95.6911c.0826-.7403.139-1.4846.2523-2.2202.5555-3.6067.9481-7.2519,1.7622-10.8.4444-1.9368,1.4672-3.7926,2.4901-5.5315,1.2128-2.0617,2.8232-2.2743,4.8037-.9278.3979.2706.78.573,1.1325.9005,2.2127,2.0555,2.4711,3.1209,1.415,5.9314-.2654.7062-.6099,1.3827-.9855,2.2241-.3682-.2856-.6864-.5048-.9729-.7597-.8749-.7783-1.6941-1.6265-2.6171-2.3414-.9555-.74-1.6581-.6777-2.2491.3625-.724,1.2741-1.4543,2.6395-1.7313,4.0536-.6613,3.3757-1.0384,6.8063-1.5685,10.2088-.3706,2.3792-.7699,4.7553-1.2332,7.1177-.1219.6213-.5024,1.2011-.8126,1.7737-.3759.6938-.8738.5434-1.1509-.0273-.3417-.7038-.5777-1.4721-.7645-2.2358-1.003-4.1013-2.198-8.1253-4.5113-11.7199-.3726-.5789-.7795-1.1357-1.1553-1.7127-.4382-.6727-.8514-.8275-1.4401-.1114-.1824.2218-.7687.3971-.971.272-1.6374-1.0133-3.2303-2.099-4.8305-3.1719-.7813-.5238-1.1699-1.2278-1.0163-2.2038.208-1.3213.2365-2.6886.5976-3.9639.5925-2.0927,2.0228-2.677,3.9946-1.7349,2.0695.9889,3.6553,2.5666,4.991,4.4021,2.417,3.3213,4.0306,7.0508,5.496,10.856.1909.4956.4701.9571.7084,1.4344.1223-.0249.2446-.0499.367-.0748Z"/>
    <path class="cls-1" d="M314.2641,35.2707c.0862-.668.1884-1.3344.2562-2.0043.4024-3.982.7177-7.9919,2.0665-11.7912.605-1.7042,1.4267-3.3734,2.4086-4.8913,1.1986-1.853,2.4404-2.0401,4.3289-.8918.8145.4952,1.5814,1.1233,2.2344,1.8183,1.4371,1.5296,1.5083,3.4583.3408,5.7775-.9106,1.8091-.8945,1.7895-2.2656.2939-.6021-.6567-1.2729-1.2685-1.9874-1.7999-1.1258-.8373-1.9861-.697-2.6226.5707-.659,1.3125-1.3295,2.6984-1.5743,4.1244-.6761,3.9379-1.1045,7.9177-1.689,11.8724-.2564,1.7345-.6506,3.4489-.9918,5.1705-.0466.2349-.0987.4965-.236.6803-.3733.4996-.7936.964-1.1953,1.4423-.3237-.5191-.7643-.9994-.9517-1.5637-1.0635-3.2038-1.9277-6.4814-3.144-9.6239-.6858-1.772-1.9074-3.3388-2.9091-4.985-.3409-.5603-.7069-.73-1.3189-.1819-.2932.2626-1.0445.3777-1.364.1858-1.6784-1.0078-3.3205-2.0865-4.9007-3.2425-.7276-.5324-.9535-1.3546-.7258-2.3201.2755-1.1683.3019-2.3994.6189-3.5531.5758-2.0959,1.6461-2.5602,3.662-1.728,2.9057,1.1995,5.0122,3.3324,6.45,6.0327,1.6825,3.1598,3.1234,6.4481,4.6723,9.6791.1579.3293.3375.6482.5071.9719l.3308-.0429Z"/>
    <path class="cls-1" d="M88.1301,5.8828c1.554,4.7685,4.1528,9.1739,5.0003,14.1879-.1061.0626-.2121.1252-.3182.1878-.6614-.7371-1.3228-1.4742-1.9841-2.2114-.1043.0231-.2085.0462-.3128.0693,0,.5124-.0544,1.0315.0084,1.536.6433,5.1673,1.3371,10.3285,1.9555,15.4988,1.0155,8.4896,2.3128,16.9518,2.4175,25.5309.0375,3.0667-.3857,6.0527-1.2289,8.9822-.2345.8148-.6863,1.5672-1.0384,2.3482-.1424-.0301-.2848-.0601-.4273-.0902-.0668-.4047-.1683-.8072-.1953-1.2146-.4689-7.0866-.7365-14.1928-1.4365-21.2563-.9862-9.9507-2.2949-19.8694-3.4573-29.8027-.2525-2.1576-.4679-4.3195-.7044-6.4791-.0337-.3079-.0144-.6517-.1476-.9138-.773-1.5205-.2038-2.8551.4931-4.1974.3738-.7199.6851-1.4722,1.0246-2.2099.117.0114.2341.0228.3511.0341Z"/>
    <path class="cls-1" d="M230.48,67.5707c-.2607,1.0035-.3945,2.0627-.8057,3.0002-1.245,2.8385-2.7229,5.5801-3.8657,8.4565-.8194,2.0624-1.413,4.2512-1.7987,6.4381-.346,1.9618-.2188,3.972,1.8916,5.1466,1.2021.6691,1.739.5771,2.4881-.6.405-.6363.6584-1.3692,1.0656-2.0038.2712-.4225.6931-.7483,1.0475-1.1174.0971.0444.1941.0888.2912.1332.0382.2823.1461.5754.1039.8451-.5372,3.4261-1.9917,6.3724-4.7293,8.5672-1.5734,1.2615-3.6396.8989-4.5736-.8902-.5551-1.0633-.8709-2.3199-1.004-3.5218-.3416-3.0832.4451-6.0071,1.5015-8.8864,1.9193-5.231,4.6008-10.0893,7.2154-14.9815.1625-.304.4825-.5239.7292-.7829.1477.0657.2953.1315.443.1972Z"/>
    <path class="cls-1" d="M173.3913,11.0445c-.3099.9852-.5356,2.0069-.9447,2.949-1.4825,3.4137-3.1419,6.7553-4.5041,10.2149-.813,2.0649-1.4072,4.2738-.9918,6.5683.2123,1.1728.6067,2.2644,1.6493,3.0002,1.122.7919,2.0584.6441,2.772-.5146.4323-.702.7425-1.4842,1.2152-2.1543.2221-.3149.6984-.4505,1.0595-.6674.0553.3761.2136.7707.1497,1.1252-.5425,3.0079-1.9172,5.6105-4.1117,7.7189-1.8734,1.7999-4.1542,1.3317-5.3719-.967-1.1736-2.2154-.9212-4.574-.5818-6.8866.5054-3.4435,1.8809-6.6267,3.3848-9.7318,1.622-3.3491,3.3647-6.6399,5.0757-9.9453.1773-.3426.4972-.6113.751-.9144.1496.0683.2992.1366.4488.2049Z"/>
    <path class="cls-1" d="M93.0098,199.4677c-.2926,1.0322-.4756,2.1118-.8983,3.0877-1.2728,2.9387-2.7642,5.7881-3.9258,8.7676-.8173,2.0965-1.39,4.3225-1.7655,6.5425-.1817,1.0742.155,2.3496.6083,3.3793.3202.7274,1.159,1.3188,1.8967,1.7457.8545.4946,1.7006.1909,2.2003-.6934.4222-.7471.7086-1.5729,1.1512-2.3058.1929-.3195.6259-.494.9499-.7343.0626.3448.2454.7191.169,1.0297-.7566,3.0792-2.1142,5.8379-4.6249,7.8712-1.6779,1.3589-3.7181.9181-4.5958-1.0642-.5018-1.1334-.7933-2.4291-.8667-3.6702-.2308-3.8995,1.1136-7.4839,2.6759-10.9412,1.8567-4.1086,3.9435-8.1135,5.9438-12.1567.1773-.3585.4524-.6686.6821-1.0012.1333.0477.2665.0955.3998.1432Z"/>
    <path class="cls-1" d="M395.3547,195.9678c-.5709,1.4921-1.1136,2.9958-1.7184,4.474-1.4598,3.5674-3.0597,7.0824-4.3805,10.6998-.6937,1.8999-.9919,3.9822.0367,5.9414.2801.5335.6385,1.0985,1.1105,1.4454,1.704,1.2522,2.753.9525,3.6592-.9569.2806-.5912.4775-1.2246.7875-1.7983.121-.2238.4478-.3364.6809-.4996.0966.2583.3188.543.2709.7711-.6536,3.117-2.0136,5.9036-4.4098,8.0176-2.1583,1.904-4.0322.8512-5.0283-1.6352-1.1231-2.8037-.7305-5.6977.175-8.4271,1.1042-3.3279,2.4442-6.5912,3.8924-9.7871,1.2213-2.6951,2.7416-5.2549,4.1353-7.8714.1055-.198.2572-.3713.3875-.5561l.401.1825Z"/>
    <path class="cls-1" d="M63.3012,100.0126c-.008,1.2872-.6179,1.8427-1.2903,2.3025-1.251.8555-2.5498,1.6408-3.8108,2.4822-.4277.2854-.8236.6286-1.195.9859-.7089.6819-.6269,1.5836.2264,2.0646.4061.2289.8989.3525,1.3669.4151,3.0391.4069,5.7994-.4336,8.4085-1.9296.5854-.3356,1.1934-.6319,2.0142-1.0638-.1227.3722-.1249.5182-.1982.5809-2.3545,2.0133-4.8343,3.8682-7.9984,4.2876-1.3656.181-2.8235.0537-4.1833-.2163-1.4651-.2909-1.9242-1.3173-1.2234-2.6378.572-1.0777,1.3874-2.042,2.1881-2.9768.4951-.578.4566-.9732-.1422-1.3219-2.1891-1.2747-1.9316-1.9027-.1652-3.9302.7879-.9044,1.6409-1.77,2.5624-2.5352.8823-.7326,1.3285-.4863,1.4103.6717.0237.3354-.0218.6937-.1234,1.0137-.0733.2308-.2637.5407-.454.5836-.1718.0387-.5192-.1899-.6066-.3832-.2873-.6355-.6784-.4188-1.0962-.2181-1.019.4893-1.4808,1.3157-1.1256,2.0162.5998,1.1826,1.9368,1.8224,2.8521,1.327.7999-.433,1.5707-.9197,2.5837-1.5182Z"/>
    <path class="cls-1" d="M109.69,41.942c.1478.0831.3057.1525.442.2516,1.417,1.03,2.85,2.04,4.2243,3.1244.2109.1664.325.8041.1801,1.0149-.7946,1.1555-1.6615,2.2648-2.5644,3.3388-.1402.1668-.6991.2115-.886.0726-1.4038-1.0434-2.7722-2.1353-4.1306-3.238-.4715-.3828-.5169-.7509-.0281-1.2825.7857-.8544,1.4379-1.8328,2.1289-2.7719.1601-.2176.2491-.4875.3707-.7334.0877.0745.1754.149.263.2235Z"/>
    <path class="cls-1" d="M50.9909,72.3759c-.2033-.1143-.3916-.1966-.5534-.315-1.1642-.8523-2.324-1.7106-3.4831-2.5698-1.0516-.7794-1.0817-.9428-.3472-1.9693.6168-.8621,1.2456-1.7156,1.8616-2.5782.347-.4859.7194-.5614,1.2133-.1824,1.2812.9832,2.5994,1.9195,3.8552,2.9334.2394.1933.4677.7946.3487.974-.7954,1.1999-1.6834,2.3386-2.5512,3.4897-.0733.0972-.2181.1404-.344.2175Z"/>
    <path class="cls-1" d="M67.1304,12.2247c.0588.3392.1603.6774.1681,1.0177.0215.9294-.0503,1.8635.0143,2.7887.0883,1.2635.82,2.1567,1.5825,2.0661.8745-.1039,2.0192-1.5425,1.9455-2.5154-.0598-.7887-.2043-1.5708-.3023-2.357-.0468-.3756-.1287-.7598-.0888-1.1286.0281-.2591.2352-.4987.3623-.7471.1922.1983.4956.3674.5567.6002.2269.8648.3132,1.7687.5682,2.6234.2529.8474.5823,1.6869.9977,2.4661.3126.5864.9677.9719,1.5544.5176.3194-.2473.4749-.9586.4007-1.4108-.166-1.0129-.5752-1.9838-.7798-2.9932-.1153-.5689-.0208-1.1803-.0208-1.7726.1013-.0358.2025-.0715.3038-.1073.1941.2289.4845.428.5659.6916.3859,1.25.7826,2.5038,1.0452,3.7829.2711,1.3208-.1289,2.4407-1.3207,3.2229-.7918.5197-1.501.4863-2.1167-.2205-.5134-.5893-.9626-1.2344-1.4816-1.9087-.3381.6867-.6161,1.341-.9715,1.9502-.4497.771-1.1206,1.2787-2.0538,1.041-.8616-.2195-1.322-.9116-1.3494-1.7645-.0573-1.786-.033-3.5748-.0239-5.3623.0008-.1622.1341-.3236.2058-.4854.0793.0016.1586.0033.2379.0049Z"/>
    <path class="cls-1" d="M121.7755,53.6426c.1798.9339-.0119,1.5035-.7555,1.8589-5.6561,2.7034-11.3055,5.4206-16.9706,8.1048-.298.1412-.7192.0224-1.083.0247.1718-.3712.2427-.9243.5315-1.0846,2.1965-1.2192,4.4103-2.4134,6.6672-3.5161,3.5269-1.7232,7.0911-3.3702,10.6425-5.043.2701-.1272.5644-.2027.9679-.3446Z"/>
    <path class="cls-1" d="M85.2922,66.1624c.205,1.0516-.2367,1.5207-.9038,1.8432-3.5005,1.6921-7.003,3.3803-10.5073,5.0645-2.0756.9975-4.1474,2.0041-6.2437,2.9564-.3068.1394-.7405-.0005-1.1154-.0111.2063-.3514.3265-.8556.6333-1.0286,1.556-.8773,3.1453-1.6995,4.7508-2.4842,4.0792-1.9937,8.1721-3.9593,12.2633-5.9283.3244-.1561.6784-.2509,1.1228-.4119Z"/>
    <path class="cls-1" d="M90.4957,112.2437c-.1377-.2989-.3971-.6126-.3241-.7507.2085-.3943.4807-.8614.8535-1.0462,4.0706-2.0178,8.1633-3.9912,12.2595-5.9568.2021-.097.6813-.0737.7075.0035.0887.2617.1549.704.0083.8415-.5157.4841-1.0739.9735-1.7047,1.276-3.2921,1.5789-6.6134,3.0967-9.9195,4.6466-.5877.2755-1.1516.6019-1.8805.986Z"/>
    <path class="cls-1" d="M110.3732,19.3568c-.7842,1.7046-1.6738,3.3707-2.3179,5.1267-.4768,1.2999-.6517,2.7134-.92,4.0844-.0562.2872-.0345.6889.1292.8997.3729.4802.8189,1.1537,1.3058,1.2186.4144.0552.9616-.5958,1.3816-1.0047.1914-.1864.218-.5422.3193-.8212l.3141.0439c-.0577.4957.0266,1.0727-.2013,1.471-.5422.9474-1.1503,1.8847-1.8824,2.689-.9918,1.0899-2.2534.7862-2.7146-.6151-.6239-1.8955-.2924-3.8069.4427-5.5524,1.0509-2.4957,2.3573-4.884,3.5601-7.3154.0714-.1443.1926-.2639.2906-.395.0976.0568.1953.1137.2929.1705Z"/>
    <path class="cls-1" d="M55.6274,37.0496c.69.6164,1.3664,1.2201,2.0423,1.8243,1.1038.9867,1.3896,2.8531.6543,4.2708-.6994,1.3483-1.9234,1.9174-3.438,1.5983-1.1568-.2437-1.5496-.7575-1.5994-1.926-.0729-1.7121.7005-3.1206,1.5351-4.5138.2623-.4378.5514-.8595.8057-1.2536ZM56.4225,42.9256c.2147-.1262.6976-.3516,1.0958-.6797.1192-.0982.1063-.6006-.0248-.7177-.6852-.6123-1.4029-1.1968-2.1603-1.7166-.4465-.3064-.8081-.1124-1.0623.3975-.6827,1.3696.1919,2.6855,2.1515,2.7165Z"/>
    <path class="cls-1" d="M31.5518,12.1212c-.7364,1.6565-1.6113,3.2682-2.1661,4.9835-.4562,1.4103-.729,2.9446-.7212,4.422.0077,1.4555,1.2875,2.0986,2.3507,1.3447.3826-.2713.5283-.8765.8486-1.4477,0,.4211.1289.8413-.0225,1.0925-.6329,1.0501-1.2654,2.1227-2.0635,3.0437-.613.7074-1.4545.6318-1.9145-.177-.4191-.7368-.7829-1.6884-.6928-2.4917.1664-1.4832.539-2.9838,1.0867-4.3743.8437-2.1422,1.9061-4.1983,2.8823-6.2879.0396-.0849.1455-.1389.2204-.2072.064.0331.128.0663.1921.0994Z"/>
    <path class="cls-1" d="M42.4474,26.1239c.2638.2673.4975.5763.7974.7938.7651.5549.8462,1.2468.5192,2.1567-.2881-.0902-.5779-.1099-.7764-.2547-1.1443-.8345-2.2685-1.6966-3.3966-2.5531-1.169-.8877-1.4519-1.6596-.7339-2.9267.4528-.799,1.1845-1.4856,1.9137-2.0695.7483-.5992,1.5573-.3302,1.8597.6016.4635,1.4285.5957,2.8885-.2024,4.2759-.1871-.9956-.2958-2.0153-.614-2.9648-.0995-.297-.7881-.5981-1.1638-.5511-.4957.062-.9488.4649-1.4202.7213.2455.3802.4146.8586.7518,1.1209.7785.6056,1.6385,1.1065,2.4654,1.6499Z"/>
    <path class="cls-1" d="M32.6799,77.5345c-.0384-.1896-.0975-.3777-.1121-.5691-.2469-3.248-1.8301-5.7634-4.1946-7.9054-.5151-.4667-.8149-1.212-1.09-1.8801-.0937-.2275.1106-.7545.3305-.8812.1924-.1109.658.0712.8968.2589.5388.4234,1.07.8828,1.5021,1.4112,2.2726,2.7794,3.4382,5.9027,2.6674,9.5658Z"/>
    <path class="cls-1" d="M55.3992,24.9186c-.2302-1.3979-.3811-2.7235-.6757-4.0164-.5845-2.5648-2.1174-4.517-4.1726-6.0879-.8886-.6792-.6475-1.5619-.5424-2.4457,3.2819.4719,6.8512,8.7293,5.3907,12.55Z"/>
    <path class="cls-1" d="M29.1948,39.5604c4.0732-3.6439,8.4309-6.9652,11.9661-11.1677-2.9095,4.8716-7.3054,8.1695-11.9661,11.1677Z"/>
  </g>
</svg>