<?xml version="1.0" encoding="UTF-8"?>
<svg id="Knight" xmlns="http://www.w3.org/2000/svg" viewBox="0 0 212.9612 237.5594">
  <defs>
    <style>
      

      @import url('../../CSS/SvgStyling.css');

      
    </style>
  </defs>
  
  <g class="content">

    <rect id="bg" class="bg" width="212.9612" height="237.5594"/>


    <path class="cls-1" d="M154.9977,44.8501l.1745,1.2162c.0897.6928.0449,1.3458-.0847,1.5202-.1097.1097-.2044.1545-.2841.1545-.324,0-.4286-.7427-.1545-1.6747l.3489-1.2162ZM171.9443,52.0225c.2193,0,.0847.3938-.3489.8723-.3639.3987-.7327.6828-.9171.6828-.0349,0-.0648-.01-.0847-.0349-.304-.2592.7825-1.5152,1.3507-1.5202ZM132.7827,54.1957c.8274.0449.8673.0449.1296.4785-.3938.2642-.6529.6081-.5234.8723.1745.2143-.0449.3888-.3938.3888-.6978,0-.957-.9121-.3888-1.4355.1296-.1695.6928-.304,1.1763-.304ZM123.2528,69.0389c.3987,0,.643.0997.643.2941,0,.3439-2.8361,1.3906-3.6635,1.3906-.7377,0-.1296-.8723.962-1.2162.8174-.314,1.5601-.4685,2.0585-.4685ZM113.6979,91.1642c.3489,0,.5234.1695.3938.4336-.1296.2143-.5682.4336-.9171.4336s-.5184-.2193-.3888-.4336c.1296-.2642.5632-.4336.9121-.4336ZM114.4006,92.7193c.5582,0,.638.8723.0847,2.1831-.3389.8174-.4087,1.3208-.2492,1.4454h-.005c-.3788.324-.7626.643-1.1564.967-.628.5184-1.3109,1.0567-2.0585,1.6099-.314-.2143-.5533-.5184-.7277-.9071.0349-.3639.0698-.7277.0947-1.0916.0598-.5881.0399-1.4704-.0548-2.6467-.005-.0648-.01-.1296-.0199-.1944.2193-.648.5433-.7476,1.5152-.7476.7875,0,1.6996-.1745,2.0485-.4336.2093-.1296.3838-.1844.5283-.1844ZM155.6407,86.5786c.0199,0,.0349.005.0548.015.2193.1346,1.2212.2642,2.2629.2642,1.4405.0449,2.527.5184,4.8398,2.0436,1.6099,1.0866,2.9158,2.1283,2.9158,2.3027,0,.3489-8.5381,8.3487-9.1013,8.568-.0199.005-.0349.01-.0548.01-.6081,0-1.4754-3.6585-1.5152-6.664-.0847-3.7083.1944-6.5394.5981-6.5394ZM48.4285,174.6462c.0598,0,.1396.0847.2293.2293.304.5234.5234,2.3027.4785,4.3912-.0449,1.9588-.2592,3.9127-.5234,4.3513-.0698.1146-.1296.1794-.1844.1794-.2343,0-.2941-1.2909-.2941-4.5756,0-3.3993.0548-4.5756.2941-4.5756ZM131.1529,10.7326l-.3738,4.8298-1.3059.5234c-.5134.1994-1.0317.3738-1.5601.5234-2.7314.7626-4.6803,1.1813-5.8516,1.2511-.9919.0897-1.7794.1396-2.3576.1396-.3688,0-.648-.0199-.8473-.0548-.2442-.0349-.5632-.1097-.962-.2243-1.0417-.4885-2.2629-.8872-3.6684-1.2062-.8025-.0249-2.4024-.314-4.7949-.8673l-2.0635-.0947h-.0349c-.4785,0-1.2959.1944-2.4573.5782-.5333.1296-1.8043.6978-3.813,1.7046-.3688.1595-1.0567.3389-2.0585.5433-1.261.2293-2.0485.3439-2.3526.3439-.0847,0-.1346-.01-.1396-.0299l-4.9245-1.0367c-.8124.1794-1.4355.6181-1.8791,1.3208-.5732,1.0517-.8673,2.0535-.8822,3.0005-.0748.6928.0698,2.7115.4386,6.0609.0249,1.2062.01,2.0834-.0548,2.6267-.0797.9969-.5682,2.3526-1.4704,4.0622l-1.8043,2.7065-.623.6629c-.8224.6679-1.4405,1.0716-1.8492,1.2112-.9071.324-1.8093.5134-2.7164.5632-.2044.0498-.3838.1346-.5383.2492-1.1514,1.0567-1.9638,2.1233-2.4473,3.2049-.1146.3489.0199.7526.4087,1.1962l3.2896,3.5987.962.8523c1.2461.9869,2.1133,1.4803,2.5968,1.4903.3639.0698.7476.1047,1.1514.1047.8872,0,1.8741-.1645,2.9607-.4934l4.9943-1.4953,3.3694-1.2461c.2741-.0797,1.0517-.5134,2.3426-1.3109,1.2162-.4286,1.8841-.7128,2.0037-.8523l2.8959-2.4971c.1994-.1695.3987-.304.6031-.4137,1.4704-.5283,2.6516-.7925,3.5438-.7925.0748,0,.1445,0,.2143.005,1.0916.3838,2.2379,1.0268,3.4491,1.9389.1196.0797.2642.2143.4336.3987.6529,1.0018,1.1514,1.6299,1.4853,1.8841.4037.3639,1.0866.7626,2.0535,1.2012l1.8292.4486,1.4604.1047c1.7644.3589,2.9358.5433,3.5139.5433h.0249l2.233.4984c.5881.1047,1.0517.1745,1.3806.2193.2442.5134.6031,1.0766.942,1.4454.0598.0648.1146.1296.1695.1894h-.005l-.623,8.0147c-.9271-.0797-2.6616-1.266-2.8111-2.0735-.0847-.4885-.1296-.7377-.1545-.7377-.0299,0-.0399.2692-.0648.8274-.0847,1.3906.2642,1.914,2.0037,2.7812.3489.1844.6729.3938.9221.5881l-.0847,1.0816h-.005c-.3539.1296-.8374.2093-1.3707.2093-.4037,0-.8274-.0449-1.2461-.1396l-1.3956-.304,1.0916.9121,1.0866.9121-2.3925.0449-2.3974.0449,1.0467.8274c.5632.4785,1.3059.8673,1.6099.8673.5234,0,.4785.2193-.1296,1.1314-.4436.7028-.623.9869-.4885.9869.0947,0,.324-.1246.7078-.3339.4486-.2442.957-.3738,1.2959-.3738.0897,0,.1645.005.2293.0249.304.0847-.1346.4785-.9171.9121-.6181.324-1.0567.4735-1.4454.4735-.2941,0-.5632-.0847-.8623-.2542-.329-.1545-.5333-.2392-.643-.2442h-.005c-.1695.005-.1196.2044.0349.6779.2193.6978-.0847,1.2162-1.261,2.2629-.8723.7377-1.4355,1.5651-1.3059,1.7844.1296.1944.7476.2891,1.5501.2891.2642,0,.5483-.01.8423-.0299.648-.0748,1.2311-.1047,1.6249-.1047.319,0,.5134.0199.5134.0598,0,.0897-.6131.5234-1.3956,1.0018l-1.3956.8274,1.0916.4336q1.0467.4336-.2642.4336c-.0449.005-.0897.005-.1396.005-.6978,0-1.7296-.2841-2.3426-.5682-.5034-.2592-.8772-.3788-1.1165-.3788-.5184,0-.3639.5682.5931,1.4654,1.0018.9121,1.0018,1.0417.309,1.3059-.4386.1695-1.4853.3439-2.3127.3439-1.6099.0449-3.484,1.0467-3.484,1.8741,0,.1396.0449.2044.1346.2044.1047,0,.2642-.0847.4735-.2492.3489-.304,1.6996-.6081,2.9657-.7427,1.261-.1296,2.5669-.304,2.8759-.3888.1196-.0498.2193-.0698.2941-.0698h.005c.4087,0,.1595.643-.648,1.3757-.4785.4336-1.0916,1.4355-1.3956,2.2579-.4037,1.0766-.5732,1.3707-1.2311,1.3707-.1944,0-.4286-.0249-.7277-.0648-.324-.0548-.5881-.0797-.7975-.0797h-.005c-.957,0-.7576.5283.6679,1.1663.7427.304,1.3109.8274,1.3109,1.1763s-.9171,1.4754-2.0485,2.5669c-1.4056,1.3009-1.8093,1.7046-1.4255,1.7046.1146,0,.2991-.0349.5533-.0997.2143-.0548.4037-.0847.5582-.0847h.005c1.0218.005.8324,1.1015-.5632,1.7395-.6978.2592-1.3059.6529-1.4355.7825-.1346.1745-.6131.3938-1.0916.4785-.0449.005-.0897.01-.1346.01-.5533,0-1.0666-.5234-1.9538-2.0535-.3688-.6828-.6779-1.1564-.8573-1.3607h-.005c-.1346-.2492-.2741-.4984-.4187-.7526-.4735-.7726-.9271-1.3607-1.3657-1.7545l-2.7264-1.4953c-.4885-.329-1.0417-.8723-1.6598-1.6348h-.01c-.1346,0-.5832-.942-1.3408-2.8261.0548.0199.1047.0299.1595.0299.2791,0,.5483-.2791.7277-.8174.2193-.7078-.4586-1.7844-1.2012-2.233.2692-.0449.5682-.0997.8822-.1595.6779-.1346,1.1863-.304,1.5302-.5134.2193-.1396.4635-.319.7327-.5383,1.2062-.4735,2.1981-1.3607,2.1981-2.0785,0-.1994-.0847-.3888-.2343-.5582.015-.1894.01-.3888-.01-.5931l-.0598-1.5003-.2941-3.3445-.0997-.8174c-.0199-.1595-.0797-.4486-.1944-.8723-.0349-.3439-.0748-.6081-.1146-.7925l-.2293-.9321c.643-.3489.3938-1.4803-.5981-2.0286-.0698-.0349-.1396-.0698-.2044-.1047h-.005c-.0498-.0548-.1097-.1196-.1695-.1894-.2093-.2542-.3788-.3938-.5034-.4187l-.2741-.0698c-.1346-1.3707-.2193-2.1283-.2592-2.2828l-.4386-1.7545c.0299-.0449-.2143-.5632-.7427-1.5601-.0897-.1346-.2044-.2143-.3539-.2392l-.0249-.005c-.1595-.005-.314-.01-.4635-.01-.6828,0-1.2859.0698-1.7943.2143-1.6149.4286-2.8809.8423-3.808,1.2361l-1.7096.4486-1.0317.4586-1.4205.5034c-.2741.1047-.5084.2293-.6928.3688l-1.0965.937c-.3389.2841-.5881.5981-.7427.937-.1047.2243-.1695.4336-.1994.638l-.2193,2.1084c.005.1246.0199.2392.0498.3439l.304,1.261.1396,1.2411.2044.8075c0,.1097.0847.3539.2642.7327l-.01.01c-.0947.0947-.2093.5034-.3439,1.2261l-.1495,2.8809c-.2741,1.4554-.4137,2.5221-.4237,3.1899h-.005c-.2442.0748-.4486.1097-.5782.1097-.2542,0-.2343-.1396.2392-.4486.4635-.314.4187-.4586.0698-.4586-.4336,0-1.3308.2243-2.2928.633l-1.4803.6081,2.0884.304c.7227.1097,1.4106.2741,1.8442.4336-.6529.2991-1.6199.8623-2.9058,1.6847-.7227.5084-1.2162.9769-1.4704,1.3956l-1.4106,2.7763-1.261,1.9887c-.3489,1.7196-.5234,3.3245-.5234,4.8049-.005.7676.3489,2.3576,1.0716,4.77.0548.2193.1994.5383.4286.952l.0847.1396h-.005c.7726,3.3843,2.0186,6.7936,3.0155,7.8852l.0897.1047c-.1894.9819-.4037,1.9239-.6529,2.8311h-.005c-.5034.8822-1.1763,2.1233-1.7395,3.2847-.8723,1.6498-1.6548,3.1301-1.7894,3.2597-.005.01-.015.01-.0299.01-.1445,0-.623-.4137-1.1015-1.0517-.5682-.6928-.8174-.9919-1.2261-.9919-.314,0-.7177.1695-1.4305.4685-.5383.2243-.937.324-1.1863.324-.623,0-.3339-.5881.967-1.2361.957-.5234.962-.5632.1346-.5632h-.005c-.9121,0-2.0884,1.0866-3.3494,3.1301-.3938.6081-1.1763,1.2162-1.6996,1.3009-2.2679.309-1.2212,4.2616,1.9588,7.611l2.1333,2.2629-1.2212.2592c-2.7862.5682-4.7899,1.2212-5.398,1.6996-.3489.304-2.0485,1.3458-3.7482,2.3476-5.2285,3.0454-9.844,7.9151-11.7181,12.391-.3938,1.0018-1.0467,1.5651-2.2679,2.0037-4.0074,1.4355-8.7973,6.6092-12.6751,13.652-2.4423,4.436-4.0522,8.6976-6.664,17.8338-2.2679,7.9998-4.4909,12.1766-8.2341,15.6557-1.5701,1.3906-3.2697,2.7812-3.793,3.0404-.5632.2642-1.0018.6081-1.0018.8274,0,.1246.1097.1894.324.1894.3888,0,1.1265-.2044,2.2479-.623.1196-.0399.2093-.0598.2791-.0598.1595,0,.1794.1047.0249.319-.2193.3688-.2293.5433-.0598.5433.319,0,1.2909-.6529,2.5868-1.8043.9719-.8523,1.8043-1.4604,1.9738-1.4604.0199,0,.0299.005.0299.0249,0,.1745-.9121,1.3507-2.0037,2.6516-2.3526,2.7414-6.7537,6.3949-10.4571,8.6577-1.3358.8025-1.8591,1.2062-1.5701,1.2062.324,0,1.6498-.5034,3.9675-1.5102,1.3458-.6031,2.0286-.8822,2.218-.8872.1495.005-.0249.1894-.4336.5383-.5732.4735-.7526.7078-.5832.7078.0498,0,.1296-.0199.2392-.0548.2841-.0847.4885-.1246.6131-.1296h.005c.5881.005-.4835.8922-2.8859,2.4323-1.6996,1.0417-3.0504,1.9588-3.0504,2.0436,0,.0399.0399.0598.1196.0598,1.1015,0,9.5549-3.8279,12.0371-5.4927,3.2647-2.1981,5.6372-3.6186,6.0709-3.6186.0449,0,.0698.015.0698.0498,0,.4336-2.4822,3.0005-4.0074,4.132-.5981.4486-.8075.6081-.623.6081.0847,0,.2492-.0299.4934-.0847,3.0055-.7427,4.6603-1.6548,7.6658-4.3064,1.8741-1.6099,3.6186-2.9158,3.8329-2.9158.2642,0,.6978-.4336.962-.9969.6928-1.271,2.1632-3.0105,2.5021-3.0105.0399,0,.0648.0299.0648.0947,0,1.3059-2.4373,4.7401-4.6155,6.4796-1.266,1.0866-2.223,2.0436-2.1333,2.1333.015.015.0449.0249.0797.0249.7227,0,5.0242-3.0354,6.8434-4.8547,1.0916-1.1314,2.4822-3.3046,3.5289-5.6073.957-2.0884,1.8741-3.7831,2.0037-3.8279h.005c.2991.0199-.2243,4.6105-.7028,6.0858-.1495.5234-.1695.8573-.0897.8573.015,0,.0299-.01.0498-.0299.1745-.1745.5632-1.3059.9121-2.5669s.9171-2.6068,1.3059-3.0404c1.7894-1.9588,2.1781-8.7873.6978-12.4807-.4785-1.261-1.261-3.7881-1.7395-5.6572-2.0037-7.9151-1.1364-16.8718,1.9588-19.7428l1.1314-1.0417-.3888,2.6068c-.1745,1.4355-.3489,4.9594-.3489,7.8303,0,5.7818.5632,7.6958,3.2647,11.1299,2.0934,2.6118,6.7986,4.7401,11.1549,5.0441,4.6155.3489,5.094.6131,4.8796,2.871-.1346,1.0018-.4386,2.6965-.6978,3.7831-.2642,1.0866-.7427,3.2647-1.1314,4.8746-.4386,1.9987-1.3109,3.8678-2.6616,5.9114-2.7015,4.0472-2.8759,5.393-1.0417,8.7873,1.0417,1.9538,2.6965,3.8678,6.2702,7.1724,3.3096,3.0903,5.2734,5.3083,6.3201,7.1774,2.6118,4.5208,2.8311,4.7849,5.1388,4.7849,2.6118,0,2.9607.2592,3.3544,2.4772.5682,3.6086,3.6136,5.7419,8.1045,5.7818,4.3114,0,4.8348-1.6099,1.8292-5.5226-.8274-1.0866-1.6996-2.4323-1.9638-3.0005-.2592-.5632-1.1314-1.261-1.914-1.5651-.7825-.2592-1.5701-.8274-1.6996-1.1713-.6978-1.7844-3.18-4.8746-4.4859-5.4827-1.9638-.957-9.0614-7.3917-10.5866-9.6546-.957-1.3458-1.266-2.3027-1.266-3.8678,0-1.8691.3489-2.5669,3.1401-6.654,5.3332-7.8852,12.386-16.0993,13.7317-16.0993.0299,0,.0548,0,.0748.01.2642.0847-.5632,1.6498-1.8292,3.4342-1.3507,1.8691-2.8759,4.7401-3.6136,6.7388-1.0467,2.871-1.7445,3.9575-4.1818,6.5693-1.6149,1.6947-3.2697,3.823-3.6186,4.6952-.6529,1.5202-.6529,1.7395.2193,3.5638,1.0018,2.0037,3.2647,4.0921,7.8403,7.1325,4.75,3.175,6.1008,4.3961,7.0129,6.35.7626,1.5501,1.5451,2.2828,2.5769,2.2828.2692,0,.5582-.0498.8673-.1495.1745-.0598.3639-.0847.5582-.0847.967,0,2.0535.6629,2.0535,1.3856,0,.3489.3938.8274.8723,1.0916.4785.2592.8723.7377.8723,1.0417,0,.6978,1.5701,2.1283,3.2647,3.0005,1.3657.6579,2.9607.9869,4.3712.9869,1.5651,0,2.9009-.4037,3.4292-1.2062.5234-.8673-.6529-3.7831-2.1781-5.1737-.5682-.5234-1.0467-1.2162-1.0467-1.5202,0-1.2212-4.5756-4.5257-9.7144-7.0478-6.1855-3.0005-9.8888-6.0858-9.8888-8.2191,0-.6529-.2193-1.9987-.4785-2.9108l-.4785-1.6996,4.2267-3.9575c2.527-2.3476,6.3151-5.2584,9.3655-7.2173,6.1407-3.9127,7.5811-5.1288,10.1929-8.7425,2.527-3.4342,3.0952-5.3033,2.3974-7.9998-.2642-1.0866-.3938-2.0884-.2642-2.2629.0548-.0498.2991-.0748.6779-.0748.5832,0,1.4654.0598,2.4174.1645l2.8311.304-.1745,1.7844c-.6081,5.2186-4.137,44.6593-4.2715,47.2711-.0548,1.4155.2442,2.1482.8673,2.1482.2941,0,.6629-.1645,1.0965-.4984.5632-.4785.9121-2.9557,1.8292-12.9592,2.6118-29.1781,3.3544-36.7891,3.484-37.2227.1296-.2642,2.0934-.5682,4.9245-.7427,2.6118-.1296,6.0958-.6529,7.8403-1.1713,1.7445-.4785,3.5737-.8723,4.0522-.8723.957,0,5.8815-2.3476,6.2702-3.0005.2642-.4087,4.8198-.7227,8.5132-.7227,1.7844,0,3.3694.0748,4.1669.2442,1.2212.2642,5.403.6081,9.3655.8274,10.4571.6081,10.2377.304,4.0971,5.7419l-5.0989,4.5208h-4.2715c-3.6983,0-4.3114-.0847-4.4859-.7825-.0847-.4336-.6081-.7377-1.2162-.7377-.5234,0-1.3956-.304-1.8342-.6529-.5533-.4237-1.2959-.623-2.1432-.623-1.9439,0-4.4111,1.0517-6.2603,2.841-2.6168,2.4772-2.5719,3.6934.2143,4.8697,1.1314.4785,3.3096,1.0018,4.8348,1.1314,1.6149.1745,3.7482.7825,5.0142,1.4355,1.1763.5981,1.8043.8573,2.3974.8573.3539,0,.6928-.0897,1.1314-.2492.7377-.2642,2.0037-.4785,2.7862-.4785,2.3077,0,4.3563-1.1763,7.8403-4.4809,4.8796-4.6952,7.4964-6.6092,10.9355-7.9151,1.6996-.6529,3.2697-1.5202,3.484-1.9538,1.5252-2.871-.9121-7.2621-5.2285-9.4403l-1.5252-.7377,2.4423-.3489c1.3507-.1745,3.484-.6928,4.7899-1.1713,1.5501-.6081,2.6766-.9171,3.5737-.9171,1.1663,0,1.9489.5283,2.7862,1.6099,1.8741,2.3925,1.8741,2.4373,2.527,6.4796.6131,3.6086.6131,3.7831-.304,5.0042-.7825,1.0417-.8723,1.3906-.3888,2.3875.2592.6529.3439,1.3507.1296,1.6548-.2193.2592-.3938,1.4803-.4386,2.6965-.0399,1.6947.1346,2.5221.8274,3.3943,1.2212,1.5202,3.9226,2.866,5.7967,2.866,1.3059,0,1.6099-.1745,1.8292-1.1265.1745-.6131.1296-2.3526-.0449-3.7881-.1745-1.4754-.304-3.7382-.2592-4.9992.0847-2.4772-.6978-5.2186-3.2248-11.1748-.8274-1.914-1.6099-4.5656-1.7844-5.8715-.3489-2.7414-1.1364-4.5656-2.1383-4.9594-.3888-.1296-1.4355-.2592-2.3077-.2592s-4.6603-.4785-8.3636-1.0866c-6.0011-.967-10.5667-1.4554-13.3928-1.4554-1.2361,0-2.1383.0947-2.6816.2791-.4536.1695-.7776.2592-1.0467.2592-.4286,0-.7227-.2293-1.1763-.7377-.5234-.5184-.7825-1.2162-.6081-1.6099,2.0037-5.1288,2.4822-7.3469,2.527-12.1766.0399-5.5226-.8723-9.216-3.0952-12.4807-.6081-.9121-1.3956-2.4323-1.7445-3.3893-.304-.957-.8673-2.1333-1.2162-2.6516-.304-.4785-1.1763-2.3925-1.8741-4.2217l-1.266-3.2597,9.849-9.829,1.6548,1.1314c.9121.5632,2.1781,1.3906,2.8311,1.7844.6529.3888,1.6996,1.6099,2.3077,2.6516.6529,1.0866,1.5252,2.0884,2.0037,2.218.2492.0797.5682.1196.9171.1196,1.1265,0,2.527-.3838,2.527-.8174,0-.2143.3888-.3888.8723-.3888.4785,0,1.1314-.5234,1.4803-1.2212.3489-.648,1.3507-1.7395,2.223-2.4323,1.5651-1.2162,1.6099-1.261,1.4355-3.9127-.1296-2.5221-.2193-2.6965-1.6548-3.3943-.5134-.2542-1.1962-.4586-1.9688-.5981-.0648-.3888-.1894-.937-.3738-1.6498-.3439-.8423-.942-2.0087-1.7943-3.5089l-1.9289-4.0024-.8274-1.8741c-.4187-1.1165-.7177-2.3526-.8972-3.7033l-.6779-2.0984-.5881-2.3077-.2093-.4835-.4237-2.4672c-.015-.0997-.0847-.2841-.2093-.5533-.1595-.4785-.7726-1.5701-1.8392-3.2647.329-.015.6629-.0199,1.0018-.0199.1645,0,.3339,0,.4984.005,3.0903,0,3.2248-.0449,1.2212-.304-2.223-.2642-4.0522-1.3906-4.0522-2.5221,0-.3838.7028-.5782,1.4853-.5782.7427,0,1.5501.1745,1.909.5333.1994.1944.3639.2941.5234.2941.1645,0,.329-.0997.5234-.2941.4386-.4336.2193-.6529-.8723-1.0417-.8673-.3489-1.3059-.7825-1.1763-1.1314.1097-.2692.0698-.3888-.1545-.3888-.1396,0-.3439.0449-.628.1246l-.957.2642,1.0018-1.0467c.6529-.7377.957-1.6049.957-2.7812,0-.7726-.1146-1.261-.2492-1.261-.0299,0-.0648.0299-.0997.0847-.1894.2941-.7227.4386-1.2212.4386-.5433,0-1.0417-.1645-1.0417-.4785,0-.2193.3489-.7825.7825-1.261.4436-.5283.6081-.7177.3938-.7227h-.005c-.1246,0-.3639.0648-.7377.1545-.2841.0748-.4835.1196-.5931.1196-.2741,0,.0299-.2891,1.0317-1.1613.9719-.8423,1.3258-1.266,1.0567-1.271h-.005c-.1894.005-.6878.2093-1.4903.6181-.5582.2791-.8772.4386-1.0617.4386-.2442,0-.2442-.2891-.2442-.962,0-.5732-.0498-.8374-.1645-.8374-.0698,0-.1595.0947-.2692.2741-.1396.2343-.2392.3539-.3339.3539-.1146,0-.2193-.1844-.3639-.5732-.4785-1.256-2.5221-4.122-2.9607-4.132h-.005c-.2143.005-.0399.3938.3489.8274.8274.9121.8274,4.0024,0,4.2616-.0299.01-.0648.015-.0997.015-.633,0-1.3707-1.8691-1.1613-3.2298.0797-.5782.1246-.8822.0748-.8922h-.005c-.0598.01-.2343.3688-.5931,1.1065-.3938.7427-.8523,1.2361-1.1962,1.2361-.0399,0-.0748-.005-.1097-.0199-.0698-.0199-.1296-.0349-.1844-.0349-.2392,0-.3838.2243-.3838.648,0,.4436-.1894.8124-.4237.8623l-.2692-.3788-.0349-.0498c-.015.0199-.0299.0399-.0399.0548-.0897-.329-.1097-.8573-.0598-1.5352.0997-1.0617.01-1.5701-.1994-1.5701-.2492,0-.6729.7476-1.1514,2.1781-.4336,1.3009-.8075,1.9738-1.0417,1.9738-.1695,0-.2642-.3339-.2642-1.0168,0-.6928.3888-1.7794.9121-2.4323.4785-.6081.6978-1.1314.4386-1.1314h-.005c-.2592,0-.8224.5234-1.2162,1.1713l-.7825,1.1763-.2642-1.261-.304-1.3059-.0449,1.5252-.0847,1.5202-1.3059-1.6548c-.8822-1.0517-1.8043-1.6697-2.2031-1.6747h-.005c-.2841.005-.2941.3339.2044,1.0666.5632.9171.5632,1.0866-.2642,2.0436l-.8723,1.0916.2642-1.3059c.0997-.5582.1445-.8673.1097-.8772h-.005c-.01.005-.0349.0349-.0598.0947-.1645.3688-.4087.5433-.6181.5433-.2343,0-.4286-.2193-.4286-.633,0-.8673-1.914-2.8211-2.7463-2.8261-.5234,0-.5234.309.0897,2.0436.5184,1.5651.5632,2.0436.1745,2.1732-.309.1346-.5682.5682-.5682,1.0467,0,.4336-.1745.8274-.4336.8274-.2193,0-.4386-.3938-.4386-.8274,0-.4785-.1745-1.0018-.4336-1.1314-.0449-.0249-.0847-.0399-.1246-.0399-.1695,0-.314.2093-.314.5632,0,.4785-.304,1.2162-.6529,1.6947-.2891.3788-.4436.5632-.5283.5632-.0797,0-.1047-.1595-.1246-.4785,0-.3738-.1346-.5632-.4037-.5632-.0748,0-.1545.015-.2492.0449-.1246.0498-.2293.0748-.319.0748-.5881,0-.3688-1.0766.5782-2.2529q.8723-1.1265.0498-1.1265h-.005c-.5632,0-1.0866.4785-1.4803,1.3009-.3688.8374-.6679,1.2411-1.0068,1.2411-.2642,0-.5483-.2442-.9121-.7177-.2243-.2841-.3639-.4436-.4486-.4436-.1097,0-.1346.2642-.1595.8772v1.1763l-1.3956-.7825c-1.2261-.7028-2.7115-1.1912-3.3445-1.1912-.2692,0-.3838.0847-.2692.2791.1296.2143.4336.4336.6978.4336.5632,0,3.4392,1.8691,3.4392,2.2629,0,.2143-.304.3439-.7377.3439-.6131,0-.6131.0897.0847.8723.4386.4785.6529,1.0018.4785,1.1713-.0698.0698-.1495.1047-.2343.1047-.4436,0-1.0417-.8822-1.1165-1.7993-.0399-.5981-.2193-.8922-.4336-.8922-.2343,0-.5134.3589-.6978,1.0666l-.2592,1.0018-.4785-1.0866c-.1894-.4286-.304-.6629-.3738-.6629-.0947,0-.1097.4286-.1097,1.4006-.0399,1.0417-.2143,1.8691-.4336,1.8691s-.957-.6529-1.5701-1.4355l-1.1763-1.3906.2642,1.7844c.2592,1.6947.1745,1.8243-.962,2.0436-.3589.0698-.7177.1047-.9969.1047-.2293,0-.4037-.0249-.4835-.0598-.0698-.0548-.1097-.5931-.1246-1.4604h-.005l2.7862-35.7872c.0847-.3838.1645-.7626.2392-1.1314l.0249-.0399-.1745.015.2791-3.5837v-.0748l-3.504-.2741h-.015Z"/>
  </g>
</svg>