<?xml version="1.0" encoding="UTF-8"?>
<svg id="saeed" xmlns="http://www.w3.org/2000/svg" width="483.4375" height="464.8362" viewBox="0 0 483.4375 464.8362">
  <defs>
    <style>
      
      @import url('../../CSS/SvgStyling.css');
      
    </style>
  </defs>
  
  <g class="content">

    <rect id="bg" class="bg" width="483.4375" height="464.8362"/>
    <path class="cls-1" d="M202.0721,44.9766c32.4019-13.6439,66.309-23.1162,100.1236-32.5367-.9741,2.838-2.2007,5.5785-3.8165,8.1087-31.1349,8.4984-62.0024,18.1354-92.1347,29.7682-12.2248,5.8323-25.3522,9.9136-36.7807,17.3363.58-2.6653,1.2187-5.3321,1.7482-7.9978,9.3836-6.6208,20.6262-9.7073,30.8601-14.6788"/>
    <path class="cls-1" d="M335.4454,66.556c2.59-7.2986,8.0548-16.6989,16.9458-15.8888,7.4562,3.6892,4.6847,13.7975,1.9829,19.8879-2.005,3.2187,2.8048,4.5801,3.6335,7.2462.0284,2.9014-1.5055,5.5037-2.4262,8.1704-1.9322-2.1215-3.9297-4.1827-6.0277-6.1397-8.3356,13.8258-19.7549,25.6588-32.7708,35.1382-11.5092,7.946-23.9807,14.331-36.144,21.1698,1.4723-3.8743,5.6336-5.3707,8.6558-7.8017,20.7474-14.9252,41.7129-30.323,57.7128-50.4863-4.6735-2.7884-9.7695-5.7699-11.5622-11.2959M340.2441,61.7571c2.7112,3.7438,6.8441,5.9156,10.3658,8.7756,1.729-3.8331,2.1089-9.0734-1.7925-11.737-3.2925-1.0448-6.2593.7789-8.5733,2.9614Z"/>
    <path class="cls-1" d="M100.5027,79.9017c2.3645-9.0702,6.9601-17.9075,13.0868-24.9214-.6367,3.674-1.902,7.1859-3.4581,10.5617,3.3951,2.1711,7.5392,3.8853,9.4125,7.6982,3.1427,6.6616-.2574,16.8921-8.5014,17.3126-6.2629,1.9176-12.4426-4.4082-10.5399-10.651M105.9763,72.8594c-.9489,2.3264-2.71,5.1768-.6231,7.4529,3.0493,3.446,7.9907,1.5791,11.6747.368-2.9778-3.5251-7.0492-5.7079-11.0517-7.8209Z"/>
    <path class="cls-1" d="M232.7838,67.2221c7.1015.9033,14.2647-.1134,21.2937-1.088,17.1156.6984,33.1902,8.3048,47.4826,17.3257,3.5105,2.3973,7.7352,4.8992,8.7283,9.3691-7.357-1.3933-13.9979-5.3491-21.4574-6.4595-34.7838-5.0006-71.3632,5.0141-99.0464,26.6863,6.466,29.3676,32.4727,51.4787,60.5864,59.5165,10.7131,3.9969,22.9914,2.5108,32.782-3.24,25.3447-15.0355,49.6236-31.8273,75.1717-46.4983-1.9045,7.8131-5.2495,15.1822-7.745,22.8187-1.1472,2.777-1.5776,6.2733-4.3603,7.9761-35.7469,24.0064-75.2922,43.4047-105.4861,74.8029,6.8035-2.1534,14.2757-.2187,21.1815.9108,1.1036-2.6249,2.1158-5.291,3.4568-7.8024,3.0487.4098,4.1239,3.9381,6.3955,5.6501,13.4415,12.4439,32.5152,15.6137,50.1229,16.7602,20.2266,1.1465,40.6275-.5421,60.7653,2.0499,16.5929,1.3231,32.115,10.5379,41.9894,23.8738,7.2339,10.991,9.6662,24.5513,8.9711,37.5295.5848,15.3251-3.6731,30.3528-9.1663,44.5115-16.1859,40.7673-51.5233,71.6126-91.3563,88.3015-16.7487,6.1815-34.2332,12.1074-52.3441,11.2045-23.2858.9636-46.7691-6.9796-65.0405-21.424-22.5603-19.6418-31.6464-50.4963-32.6083-79.538-1.1145-29.748,6.0394-59.3137,17.8554-86.4775-28.332,16.4227-51.8651,39.7623-73.8503,63.7616-13.6484,13.8478-27.2455,28.9169-45.4579,36.7187-17.8036,5.0541-37.0978-5.4232-45.0578-21.6495-11.7359-21.1089-10.1926-47.4644-1.7616-69.4726,4.1939-12.558,10.1483-24.6431,18.4168-35.0371,2.2007-2.3374-.5917-5.2076-.8689-7.7691-.9333-7.2713,0-14.6295-.4105-21.9292,2.4567-2.5636,2.6926-5.7901.931-8.8355-2.2408,6.9718-7.7032,13.9301-15.7032,13.6457-7.9192-1.2426-11.5923-10.272-11.9009-17.4916-1.0226,7.8829-9.4432,11.1853-16.5121,10.438-.4928-.6045-1.4755-1.806-1.965-2.4115-.3497-9.8186,6.6089-17.989,14.8151-22.4383-1.8109-3.7208-.5928-7.6883.2352-11.482,3.1725,1.0256,3.2242,4.9123,4.5418,7.4738,2.2114-1.8145,4.3492-3.7208,6.5382-5.5561-1.155,3.7115-2.9654,7.1781-5.5338,10.0987.6731,6.0472,1.3399,12.229,3.5479,17.9475,2.7446,6.1723,11.9631,5.8851,16.1774,1.5085,3.8892-3.005,4.4303-8.6643,8.7175-11.2261-.3793,3.9487.695,8.0875,4.5227,9.936,4.2758.8182,8.6847.1106,12.7179-1.4387-7.7168-3.3294-14.7242-9.7151-15.6873-18.501.4928-7.1171,5.6708-13.7152,12.6474-15.519,7.8792-1.5702,16.8907.0394,22.6211,6.0174-10.4654-3.3042-21.7229-.412-30.6617,5.504,3.0984,9.451,12.7474,16.8092,22.846,15.7339,7.7856-2.069,14.2302-7.2965,21.6784-10.2284-1.165-14.833-4.2752-29.4516-5.4624-44.2857.6225-2.7291,2.3645-5.0254,3.703-7.4323,2.2415,7.5759,6.231,14.7401,6.8271,22.7383-1.2518-1.4876-2.4593-2.9837-3.6559-4.4922.4102,16.4337,6.7833,32.6083,3.8073,49.1352-.7062,3.7083-2.7618,6.9267-5.1169,9.7998,3.3466.3173,7.3064-.4421,9.8853,2.2537,5.35,4.6624,3.4157,13.6854-1.4234,18.0316-8.205,7.3412-17.9261,12.814-27.9317,17.2739-9.1969,3.926-20.4938,4.16-28.4316-2.6253-13.5794,19.1916-23.8717,42.2645-22.1723,66.2535-.3676,9.3896,1.8731,19.8155,9.229,26.2413,7.7241,7.9861,19.6736,8.6632,29.8233,5.7728-.6436-.4201-1.9214-1.2713-2.5574-1.6914,5.1077,1.0033,9.4951-1.6202,13.4124-4.5106,20.8332-15.1,36.7826-35.6937,55.5979-53.0308,21.5566-21.8239,46.666-41.4746,76.2971-50.6586,8.3578-10.857,16.8682-21.7215,26.9699-31.0711-28.7104-7.6975-55.6298-28.1923-64.6022-57.4379-6.7216-21.3319-.7677-47.1141,17.3115-61.0349,10.1898-7.2348,22.2845-12.692,34.7345-13.7865M101.2694,191.2177c-12.0309,5.5788-22.9561,13.4805-35.6551,17.6132-3.058.809-6.1682-.4829-9.2599-.5467-1.2685,7.8655-2.8029,16.5082,2.1601,23.5175,3.5997-3.2691,6.3935-7.7691,11.1614-9.4623-.7465,5.2101-3.9374,9.5141-6.8555,13.7166,8.0118,5.465,18.4182,3.3854,26.6657-.4091,9.4531-4.4394,18.9773-9.3687,26.4255-16.8326-8.1243-4.5929-18.0284-4.7666-27.063-6.5212,1.1386-2.8983,2.2938-5.7887,3.5105-8.6501,5.6891.1624,10.907-2.2668,15.9422-4.6124.3465-5.4012-.6545-10.7145-1.2914-16.043-1.6569,2.8795-2.2918,6.8987-5.7407,8.23ZM9.5678,198.0658c4.7577.7392,9.6672-.4403,13.5867-3.2386.931-2.7972.165-5.8834.0812-8.7852-5.0534,3.3503-10.3853,6.7349-13.6679,12.0238ZM220.4458,256.435c-3.652.5449-5.6981,3.886-7.4685,6.7661-11.9397,20.8103-19.8891,44.5831-18.8658,68.8044-1.2167,28.4887,10.9889,57.9934,34.1218,75.1624,19.6128,14.6792,45.3849,18.5219,69.2234,16.0023,36.5387-4.3685,70.2801-23.0258,96.3089-48.6318,13.5344-14.5973,25.4864-31.3869,30.766-50.8153,1.5732-24.6336-20.37-46.037-43.79-49.5433-22.857-3.1149-46.0509-1.5479-69.0502-2.2746-4.3614-1.3646-9.1902-1.6695-12.0449,2.5735,1.0627,11.8068-3.6915,22.9605-7.6516,33.8076-7.8263-3.5077-14.2406-9.4318-19.9925-15.674-9.649-9.1032-13.6282-22.7978-14.1828-35.7044-12.122-3.2712-25.1886-3.5889-37.3738-.4729Z"/>
    <path class="cls-1" d="M415.3222,133.3821c-.3152-4.4787.6041-8.9486,3.479-12.4942,1.8432,1.5766,3.6842,3.3627,3.7156,6.0046-1.442-.5921-2.8658-1.1887-4.2864-1.7939-1.8552,4.6156-.4822,9.792-2.4069,14.4228-1.5636-2.4065-2.8628-4.9701-3.9785-7.606-1.955-.9001-3.8892-1.8258-5.8215-2.7469.0296-1.7212.0709-3.4332.112-5.1548,4.8185.8927,7.1627,5.4126,9.1867,9.3684"/>
    <path class="cls-1" d="M381.5803,130.0896c1.2678-2.4764,2.2605-5.2151,4.4206-7.093,2.0141,7.5479,8.8601,13.6681,6.7936,22.2136-2.7648.0227-3.1932-3.1252-4.4716-4.918,3.1305,15.519,1.7586,31.5326,4.224,47.1765.7587,8.353.3801,17.1484-3.293,24.8246-.6649.1957-1.9951.5754-2.6605.7598.9204-27.7608-2.1596-55.4791-5.013-82.9634"/>
    <path class="cls-1" d="M136.4675,140.3113c7.8579-4.4982,16.4096-7.6145,24.5419-11.5742-.7025,3.8161-4.8061,4.4607-7.7111,5.9468-6.856,3.323-14.071,6.0397-20.2702,10.5596.8718-1.8049,1.445-4.0288,3.4394-4.9322"/>
    <path class="cls-1" d="M122.2848,128.737c2.9592,4.1735,2.9777,9.5056,4.1558,14.3126,1.2591,11.4498,2.9981,22.8606,3.6096,34.3596,1.8035,9.0418-1.2986,19.5309,4.3791,27.513,7.7679,4.6971,16.545-.8388,23.4828-4.6308-3.8571-3.9891-9.5683-7.9549-15.2136-4.8992.9822-2.6962,1.9946-5.3732,2.995-8.0598,11.8609-4.6018,24.9982-4.2323,36.5572,1.0756-.6114,2.8429-1.431,5.6306-2.4728,8.336-3.7266,1.0962-7.2247,2.7593-10.6424,4.5723,5.3505,6.4563,14.5186,1.3316,19.5216-3.067-2.9569-6.7743-8.0518-12.362-11.1713-19.0948.3863-2.6664.6319-5.3544.8572-8.0371,4.1368,2.5317,7.6138,6.0266,10.3251,10.0462-1.5037-.4424-2.9888-.8923-4.4704-1.3649,2.6171,3.5697,5.3799,7.0728,7.4784,10.98,2.9367,10.2203-4.5934,21.0528-15.2149,21.8349-6.0566,1.3018-10.2923-3.7523-14.1477-7.5064-7.9008,4.4092-16.0241,11.5842-25.6206,10.0462-9.4533-2.3881-9.8553-13.611-10.5395-21.5463-2.2603-18.7895-1.1364-38.0836-6.4031-56.4307-.298-2.9936,1.5633-5.7221,2.5345-8.4395M159.2329,191.8842c1.6774,1.4454,3.3565,2.8809,5.0118,4.3561,2.005-1.126,4.0634-2.1828,6.1601-3.1159-3.7562-.0195-7.4594-.7378-11.1718-1.2401Z"/>
    <path class="cls-1" d="M58.464,144.2377c-1.1269-4.8184,1.3091-9.502,3.6502-13.5415.0112,1.0753.0408,3.2297.0511,4.305,3.7248,1.3242,5.0967,4.5617,4.1368,8.325-2.3338,1.3426-5.7112,4.2128-7.838.9115M60.4467,138.0877c-.1212,1.3011-.2345,2.6029-.357,3.915,1.7081-.1851,3.4272-.3793,5.1373-.5938-1.5672-1.1497-3.1725-2.2438-4.7803-3.3212Z"/>
    <path class="cls-1" d="M400.1609,154.6239c16.0634-8.9915,33.2308-15.7069,50.4495-22.1033-.5295,1.3738-1.2988,2.5331-2.3221,3.4868-16.3607,6.837-33.7412,12.1787-48.4537,22.3259.0807-.9331.2427-2.7869.3263-3.7094"/>
    <path class="cls-1" d="M46.0515,160.4452c15.4914-8.5714,31.6773-15.92,48.2911-22.0072-.6325,1.3298-1.269,2.6614-1.8903,3.9962-17.7635,6.2322-34.7759,14.5569-51.0238,24.0472.9101-2.4367,2.0461-4.9811,4.623-6.0362"/>
    <path class="cls-1" d="M367.1444,139.8504c.675.0216,2.0461.0503,2.7205.0723.2857,3.0025.8892,5.956,1.6773,8.8575,1.1559.246,2.3221.4797,3.4889.7257-.9902-2.3973-1.9217-4.818-2.8848-7.2267.9106-.9097,1.8208-1.8244,2.7334-2.7465.6034,4.55,3.2124,9.2868.2234,13.5936-.8385-.022-2.5373-.0503-3.3861-.0727-.7973-.7484-1.5947-1.4975-2.3828-2.2459-.9317,1.3947-1.8622,2.7795-2.7938,4.1522-.695.011-2.096.0316-2.793.0316-2.6595-3.915-1.5776-8.7557-1.6189-13.1738l1.7925-.0691c-.011,3.167.0406,6.346.2476,9.5127,6.9753.9916,3.4359-7.5071,2.9759-11.4108"/>
    <path class="cls-1" d="M29.4875,148.5838c1.505-2.6246,3.3861-5.0144,5.6891-6.9902.9094.8182,1.8107,1.6489,2.7123,2.4817-.0516,1.9471-.1544,3.8927-.2062,5.8511,1.3614,1.6188,2.0979,3.6112,2.149,5.7522-1.6668-.491-3.0799-1.4752-4.3578-2.6249-5.3207,9.2677-13.9683,16.238-23.4298,20.9234,7.1288-7.3816,16.1146-12.886,22.0771-21.4148-1.5647-1.3121-3.0991-2.6451-4.6337-3.9785M31.8822,145.9404c1.2377,1.3532,2.537,2.6433,3.8769,3.8945-.0191-1.3422-.0413-2.6958-.0709-4.0384-1.269.0415-2.5386.0929-3.806.1439Z"/>
    <path class="cls-1" d="M138.1651,159.4915c10.3332-5.7494,21.0353-10.8776,31.9224-15.4893-.8996,1.2412-1.4532,2.8302-2.7334,3.731-11.0387,5.3821-22.4249,10.2306-32.7184,17.0268.5213-2.1523,1.3398-4.3546,3.5293-5.2686"/>
    <path class="cls-1" d="M438.8055,159.2355c7.7019-3.8856,15.7537-7.0409,23.8892-9.925-.4306,3.3116-4.0623,3.6516-6.5056,4.8407-7.1331,2.6664-13.9063,6.1298-20.6373,9.6566.3054-1.979,1.3288-3.7941,3.2537-4.5723"/>
    <path class="cls-1" d="M86.0575,150.5234c6.63,3.6169,11.3367,10.661,10.9175,18.3999-2.9273-2.5526-2.2824-7.5142-5.5973-10.0778-1.6792-2.8497-8.0116-4.5316-5.3202-8.3222"/>
    <path class="cls-1" d="M368.9836,157.9862c3.479,4.3132,7.2056,8.7735,8.8325,14.1669-1.332-.9225-2.62-1.8669-3.8998-2.8302-.019,7.0834,5.0446,12.7002,5.9649,19.5794,1.6991,6.5704-.6857,14.2176-6.2928,18.1964-5.3406,1.6918-10.782-.34-14.353-4.4699-2.3546,9.0511-2.5171,20.2981,5.9225,26.2938,10.0904,5.894,22.9912,3.351,32.7412-2.0726,7.6941-2.9833,14.5794-7.6248,21.1183-12.5985-7.204-5.1254-18.4262-.1741-23.8915-8.609-2.199-12.0982,8.0644-24.4379,19.6225-27.0426,2.1311,3.9264,4.5145,7.6883,7.2056,11.2466,6.4143-9.5063,13.5757-20.6597,25.6599-23.0556,6.7723.9728,13.7094,5.0336,16.7188,11.3885-.3276,4.2111-1.2513,8.6618-3.5105,12.2897-7.2859,8.949-19.3577,10.8265-30.1429,11.872-1.6046,4.9403-1.1852,10.1586-1.1145,15.2652,3.3042,4.7741,8.769,7.584,14.6097,6.2304,11.2456-2.47,20.8945-9.7073,28.8421-17.7852-3.6711-5.4732-5.9316-11.6657-8.6839-17.6026.5706-2.7245,1.0831-5.4707,1.4723-8.2303,3.2019,3.5587,7.8786,6.2436,9.2296,11.1034-.9712-.4222-2.9367-1.2618-3.9095-1.6819,1.739,3.3815,3.9507,6.529,5.3927,10.065.4385,6.0904-1.1162,12.8863-6.0798,16.8755-7.4373,5.8408-15.0069,12.0429-24.2367,14.7483-5.5563,1.6298-12.4419,1.2026-16.1951-3.7906-6.0787-7.4323-4.2992-17.7345-1.0042-25.985-2.9888-1.0366-5.9747-2.186-9.1163-2.6554-.1952,1.9237-1.1036,3.2365-2.7304,3.9565.3061-2.1654.806-4.2767,1.3701-6.3793-2.2303-3.1032-3.6507-6.8055-6.2499-9.6119-6.0787.8402-13.2623,5.9135-13.4057,12.3698,6.6933,7.1274,19.8085.3506,24.7112,10.5202-1.2297,4.2026-1.4755,9.123-5.1786,12.0745-9.7087,8.2743-21.2586,14.0439-32.8933,19.1072-9.8007,1.6397-21.9165.6165-27.9207-8.5288-4.5652-8.9075-4.8503-19.9063-.6144-29.0212,2.0554-3.6463-.1122-7.4919-.7082-11.2115-1.4814,6.5594-3.3338,15.5488-10.9476,17.2913-7.1391,1.723-12.8282-4.5489-14.7198-10.7936-.8911-7.0331.7358-14.0017,2.0461-20.8589-5.9982,8.5065-4.165,19.505-8.2364,28.6922-1.4016,2.9316-4.9533,6.7739-8.3204,4.1005-7.9588-4.6057-8.4888-14.9479-8.9819-23.1176.6761-2.7178-.1953-6.6112,2.546-8.2413.2758,8.6838-1.2063,19.2309,6.3559,25.4522,5.3718.3694,7.0067-5.6086,7.8563-9.7892,1.2403-9.9633,3.2347-20.9823,11.2754-27.8527,4.9717,10.5092-7.2018,24.9909,4.3165,33.2953,2.7758-.0078,5.5671.2464,8.3195-.1627,6.7833-3.4846,8.1639-12.0762,6.3529-18.8516.758-7.0019-6.0973-16.3008,1.1995-21.2712.9377,5.5264,3.8337,10.5153,4.3791,16.1458.755,5.966-.7585,12.4028,2.4023,17.8851,2.2197,5.6083,9.6569,6.6665,14.4266,3.8158-3.92-12.7931-12.1959-26.387-7.5523-39.9268M424.8793,191.9885c12.1954,3.2588,26.1724.4506,35.9839-7.6581-2.9777-4.974-8.309-9.1652-14.3337-8.889-10.3965-1.0958-16.5456,9.1354-21.6502,16.5472Z"/>
    <path class="cls-1" d="M165.1146,160.4452c2.7112,1.6705,5.4113,3.3627,8.0093,5.2073-1.4298,2.2661-2.7919,4.5929-4.0701,6.9491-2.3948-1.7404-4.8708-3.3815-7.316-5.052-1.4816,2.2867-2.8435,4.6429-4.0512,7.0927-2.8151-1.5273-5.4654-3.3304-7.8483-5.4618,1.3096-2.3388,2.6527-4.6652,3.9594-7.014,2.2734,1.6602,4.6046,3.2492,6.9691,4.7797,1.4945-2.1452,2.9557-4.2958,4.3479-6.501"/>
    <path class="cls-1" d="M416.1436,166.8415c1.5005-2.2555,3.0172-4.5103,4.5523-6.764,2.3837,1.8652,4.7987,3.6906,7.1914,5.5636-1.3811,2.297-2.7322,4.6042-4.0824,6.9211-2.5684-1.8857-5.1139-3.814-7.6613-5.7206"/>
    <path class="cls-1" d="M340.7566,172.9114c5.0442,3.3418,9.4339,11.9022,5.1981,16.8616.0604-4.7765-1.6673-9.3471-5.2394-12.558.011-1.0774.0314-3.2265.0413-4.3036"/>
    <path class="cls-1" d="M41.2633,175.32c2.9883,1.4858,5.9433,3.034,8.7993,4.7663-1.0233,2.3679-1.965,4.7666-2.8337,7.1976-3.4595-.965-6.4556-2.9645-9.465-4.8411,1.1565-2.3789,2.322-4.7446,3.4994-7.1228"/>
    <path class="cls-1" d="M442.8567,211.3821c6.9482-3.4247,13.9439-6.7424,20.7793-10.3944.0931,4.377-4.7966,5.2991-7.7744,7.1639-6.2741,2.8398-12.2803,6.1918-18.532,9.0518,1.2297-2.459,2.9291-4.7336,5.5271-5.8213"/>
    <path class="cls-1" d="M73.2873,218.3216c.8307-3.8427,3.5616-6.9604,7.2745-8.2505.0518,2.0311.0924,4.0586.1251,6.0901-1.5567-1.7741-3.5407-2.3704-4.8505-.0113,1.5856.2655,3.1613.5134,4.7469.7378,1.4617-1.2096,2.9445-2.4005,4.4305-3.5775-.1244.9009-.3676,2.6962-.4921,3.5889-3.3233,2.2963-6.691,4.8265-8.5116,8.5568,5.6476,1.9176,11.0681-.932,15.6211-4.1001-2.822,6.1829-10.782,10.6408-17.2777,7.4326.0074-3.0957.8868-6.0383,2.5758-8.6122-1.2174-.6112-2.4248-1.2384-3.6422-1.8545"/>
    <path class="cls-1" d="M370.3062,217.0499c1.5542-.8608,3.109-1.7212,4.6533-2.6022,4.718,1.4369,5.6171,6.2336,2.4152,9.7587-2.4546-.1627-4.8801-.5414-7.1313-1.5479.0314-1.8779.0505-3.7395.0628-5.6086"/>
    <path class="cls-1" d="M380.4139,217.3878c1.1965-.9725,2.3931-1.957,3.5812-2.9592,4.7359-.9746,6.6399,2.849,5.8215,7.009-.971,1.1501-1.913,2.3299-2.8263,3.5272-5.0125,1.4876-6.1774-3.8551-6.5765-7.5769"/>
    <path class="cls-1" d="M152.1523,227.5691c.0112-3.7417,2.0242-8.303,6.0358-9.022,1.3318,1.6503,1.166,3.8221,1.4013,5.8142-1.3621-.7094-2.7112-1.417-4.0732-2.1321-.1324.9523-.276,1.8953-.4082,2.8472,3.4469.4836,6.4065-1.0955,9.0147-3.1964-.6348,4.9183-6.1195,6.4371-8.8905,10.0147-.011.697-.022,2.0899-.0331,2.7898,6.2124,1.5379,11.7283-2.3693,16.793-5.3526-3.2943,6.3152-10.9827,10.3529-18.0005,8.56-3.5984-2.3884.3283-6.6112,1.558-9.4116-1.1368-.3067-2.2642-.6126-3.3972-.9111"/>
    <path class="cls-1" d="M31.0737,235.5956c-4.6766-4.8077.338-11.482,3.7649-15.4687-1.0746,3.781-4.1029,7.2352-3.1909,11.3792.9305-.5112,2.7924-1.5479,3.7321-2.0612-1.1963,2.2052-2.6095,4.2962-4.3061,6.1507"/>
    <path class="cls-1" d="M129.9589,236.6425c.1842-4.8407,1.7624-10.2125,5.3202-13.6457-1.0629,4.3873-3.2932,8.5792-2.4877,13.2334,1.0671-1.003,2.1312-2.0087,3.2063-3.0131-.0413,1.148-.1322,3.4336-.1767,4.5723-2.0648,1.456-5.2161,2.1431-5.8621-1.1469"/>
    <path class="cls-1" d="M240.3251,296.9176c2.0382-2.2442,4.5955-4.0696,7.7764-3.3432.3487,1.1575.7044,2.3186,1.0733,3.4783-1.8503,3.0918-2.5771,6.775.4194,9.4488-.8794.9324-1.7372,1.8762-2.598,2.8195-.6133-1.444-1.2167-2.8823-1.8221-4.3057-7.9593,8.6614-18.3139,14.6487-28.8613,19.5894,9.0449-8.8781,22.3146-13.0884,29.2819-24.1202-.0707-1.2813-.1324-2.5625-.1952-3.8431-1.1552.0918-2.2998.1925-3.4588.2847,1.0437,1.3451,2.0683,2.688,3.0916,4.0505-1.168.2673-3.49.7789-4.6551,1.0331-.0129-1.6992-.0314-3.402-.0523-5.0921"/>
    <path class="cls-1" d="M340.9911,294.0162c6.1711,5.7192,9.0043,14.7409,4.2683,22.3061,1.5119.9019,3.0365,1.7826,4.5734,2.6565.0931,2.7054-.9521,5.1534-2.3553,7.4107-1.912-.011-3.8145.011-5.7063.0408-3.2143-6.017,4.3571-10.7634,3.1797-16.9641.8276-4.5837-2.0352-8.213-4.9722-11.3193.3485-1.3727.6858-2.7579,1.0124-4.1306M343.5292,319.5708c-.0209.7098-.0613,2.102-.0807,2.8004,1.5025.0092,3.0174.0092,4.5321.0206-1.4853-.954-2.9669-1.8875-4.4514-2.821Z"/>
    <path class="cls-1" d="M355.0694,301.2439c1.1889-2.4703,2.4673-4.9293,4.2985-7.0015,1.2692,7.3993,6.1498,13.9811,5.7081,21.6392-1.166-1.6188-2.2505-3.3006-3.2647-5.0226-1.3683,22.1306,10.5807,45.3918.218,66.5489-3.0807,7.9049-13.0271,6.8558-19.7469,5.4739-3.9914,1.6191-7.9531,3.7105-12.4316,2.9837-7.4876.6268-11.7579-7.1246-12.7292-13.5621-7.448,5.392-15.0804,11.8802-24.5337,12.9576-6.9691,1.8871-14.3546,1.6797-20.9754,4.9286.175-.6853.5224-2.0797.6872-2.7763,15.2751-5.5958,30.6841-12.2592,43.7691-21.9675-.7266-14.1991-2.1374-28.3752-2.0961-42.6449-3.8498,1.2206-7.1035,3.7718-10.9384,5.0222,2.404-3.691,6.6502-5.3193,10.0886-7.8099.5518-7.5131-4.4612-15.3677,1.3695-21.9594,1.843,5.3019,1.9045,11.0091,3.6226,16.3306-.2267.6155-.6651,1.8464-.8904,2.459,3.9094-2.6107,7.5805-5.6161,10.6213-9.2365-1.5745-1.4334-3.1324-2.8791-4.6879-4.3242,1.9244-3.3811,4.9022-8.9263,9.3948-5.3796-.1244,2.5398-.452,5.0843-1.1995,7.5323,1.2802,1.8152,2.1896,3.8239,2.2119,6.0979-1.7703-.4088-3.1516-1.4844-4.3492-2.7763-3.2021,4.2738-7.3258,7.6996-11.3277,11.1722,2.4687,9.6899.2792,19.7851,1.5968,29.6072.8195,4.4287.5437,8.949.6447,13.439,4.7985-3.3843,9.5775-6.8278,13.7223-11.019-2.2119-7.4436-7.0512-13.9223-10.5807-20.832,1.2075-2.2948,2.0461-4.746,2.5473-7.2781,3.5518,3.2092,7.0382,6.6647,9.3099,10.9389-1.502-.5846-2.9885-1.1799-4.4704-1.7847,2.2732,3.7633,4.9715,7.2997,6.7234,11.3473,1.0228,9.78-5.2415,18.094-13.1171,23.0956-3.9599,1.723-1.6379,6.3347,1.0007,8.1307,3.0002,3.0433,7.5117,1.9063,11.3172,1.9995-.982-8.8383,2.4354-20.1768,11.8571-22.8599,6.4884,5.4927,6.354,14.3087,1.9545,21.105,3.8385-.123,7.3885-1.6205,10.8157-3.2184-.6231-19.3951-2.9888-38.6856-5.035-57.9906-.2427-4.4699.4414-9.061-1.1052-13.366M326.1967,300.6274c1.1052,1.5784,2.1786,3.3928,4.2988,3.6506-.2255-1.2511-.441-2.4813-.6665-3.7211-.9101.0206-2.7302.0603-3.6323.0706ZM339.1611,368.8791c1.5652,1.8765,2.7618,5.1977,5.7396,4.7666,2.0773-1.0756,3.5609-2.9628,5.1766-4.6003-1.3601-2.2463-2.8972-4.3894-4.7654-6.2358-2.2241,1.8556-4.258,3.8966-6.1509,6.0695Z"/>
    <path class="cls-1" d="M375.9719,293.9942c3.2237,7.2277,5.6194,14.8653,7.7888,22.4816-2.8343.044-3.5405-2.5636-4.442-4.6741-.5222,14.3112,2.6809,28.3961,3.4081,42.6449,1.5746,7.6046.3972,15.7562-2.7017,22.8163-.667.2177-1.9848.6268-2.6393.8335.9599-25.7422-3.2852-51.3283-4.625-76.9262.9599-2.4377,2.0272-4.8272,3.2111-7.176"/>
    <path class="cls-1" d="M269.4734,317.1643c-9.7179,1.2394-4.4293-11.3718-.5628-15.1939-.276,1.2603-.5701,2.5115-.8886,3.7637,1.9637,1.3617,3.7544,2.9614,5.4225,4.6826-.9599,2.442-2.2918,4.7166-3.9711,6.7477M265.8829,309.4661c0,1.216.0112,2.4367.0214,3.6576,1.6571-.0518,3.3233-.112,4.9944-.1844-1.1476-1.8262-2.9179-3.0248-5.0158-3.4733Z"/>
    <path class="cls-1" d="M296.0873,307.4854c1.7888.9842,3.3749,2.2874,4.798,3.753-.3893.7261-1.1472,2.1729-1.5351,2.8919-1.1983-.5641-2.423-1.0661-3.6933-1.4468-.1436,2.4714-.2648,4.9417-.4497,7.4117-3.7973-3.5282-.5024-8.7118.8801-12.6098"/>
    <path class="cls-1" d="M284.3415,310.9289c.861.0628,2.5678.1844,3.4254.2588,2.5285,2.9011,4.707,6.0869,6.8167,9.3166-.0635,1.7737-.114,3.5587-.1627,5.3434-3.8496.1719-2.3342-4.2965-4.453-6.1532-1.7186-1.5684-3.7124-2.777-5.6263-4.0689v-4.6968"/>
    <path class="cls-1" d="M237.7777,318.7104c3.0695,1.5982,6.0284,3.4049,9.0135,5.136-1.0935,2.4927-2.4446,4.8694-4.1219,7.0221,2.2089,1.5489,4.3048,3.2489,6.3116,5.0552-1.1664,2.3565-2.1576,4.8077-2.8529,7.3582-3.5103-.4811-6.2333-2.7873-8.9022-4.8992-.0608-1.5996-.1244-3.1883-.1952-4.7772,1.1873-.9225,2.3961-1.834,3.6098-2.7178-2.8516-.7899-5.1245-2.6745-6.9138-4.9818,1.3398-2.4069,2.6896-4.807,4.051-7.1955"/>
    <path class="cls-1" d="M258.0374,338.9156c-2.0369-6.5499,2.4932-17.3147,10.5264-15.53,10.6817,4.7556,14.375,19.2827,9.4854,29.3888-6.3529,8.0183-15.5634,12.9257-24.2081,18.0426-4.7765,3.1879-10.4988,4.4291-16,5.6905-11.082,1.7719-22.8276-6.3871-24.0351-17.7756-.9629-11.0712,1.1258-23.2392,8.1626-32.0882-.7358,9.0936-7.0592,17.1708-5.082,26.5934,1.042,7.8209,8.6742,14.9444,16.7659,14.2275,10.3375.7069,20.6373-3.3201,28.7119-9.6059.2549.3205.766.9537,1.0228,1.2618,3.8369-5.2282,9.6378-8.4264,14.1718-12.9877-.6041-1.0356-1.2002-2.0609-1.7703-3.095-5.6483-3.2095-13.4059,1.6283-17.7513-4.1221M260.9851,333.3686c3.343.3173,6.6995.2762,10.0554.1251-3.0284-1.6734-7.5321-3.6396-10.0554-.1251Z"/>
    <path class="cls-1" d="M292.875,326.2044c14.2115,1.3121,17.6673,21.8239,9.3804,31.45-9.9138,10.1178-22.436,17.119-34.7353,23.8231-8.7985,2.1233-17.8848,3.2811-26.7437,5.3101,1.4514-3.1868,5.1669-3.6073,8.0093-4.9304,20.1582-7.913,40.424-17.7632,55.5995-33.5921-5.0857-5.6079-14.4173,1.0863-18.6938-5.2988-2.4028-6.8069,2.0238-12.8562,7.1836-16.762M289.2535,335.0728c.0807.6158.2537,1.8538.3356,2.481,2.5684.0301,5.1472.0301,7.7241.0188-2.4253-1.5791-5.0011-3.842-8.0596-2.4998Z"/>
    <path class="cls-1" d="M346.2195,332.6117c2.3221,1.9063,4.7187,3.7211,7.1317,5.5249-1.3492,2.3487-2.7302,4.6854-4.1125,7.0235-2.5776-1.2618-4.9513-2.8915-7.1503-4.7382.867-2.86,2.4352-5.3902,4.1311-7.8102"/>
    <path class="cls-1" d="M244.5832,345.6399c1.6551.073,3.3226.1337,4.9999.1943.0112,1.9885.0523,3.9902.1041,5.9986-1.9323-1.0976-3.9895-1.9173-6.242-1.7939.2882-1.0962.8509-3.3006,1.138-4.399"/>
    <path class="cls-1" d="M235.4353,347.7c1.5227.0223,3.0597.0518,4.5954.0929,1.3068,2.2551,2.8628,4.3656,4.6324,6.3045-.154,2.7469-.1932,5.4937-.0498,8.2417-.7777.0106-2.322.0106-3.101.0206-.2051-2.3594-.6872-4.6528-1.4124-6.8881-2.1786-1.0973-4.2655-2.348-6.3338-3.6389.5646-1.3848,1.1162-2.7575,1.6693-4.1327"/>
    <path class="cls-1" d="M141.4092,349.7307c7.2437-.7186,11.2727,6.0585,15.3175,10.8457-.1766,3.1081-1.3952,5.9872-2.7222,8.7543-7.335-.2556-15.5228-.1751-21.2937,5.0935,1.1891,9.0326,5.4354,17.2963,7.154,26.2038,1.7698,10.1692,3.7025,20.4594,3.1207,30.8229.1626,1.9084-1.2908,3.2209-2.6829,4.2664-.0408-16.4731-3.8762-32.7519-9.3097-48.233-2.2089-6.8874-2.1484-15.4364,3.1606-20.9319,3.6835-3.0745,8.3105-4.9921,13.0567-5.6075-2.4544-1.2798-4.9526-3.5477-7.9194-2.6334-1.7691,1.6191-3.1101,3.6286-4.6773,5.4427.1657-5.3902,2.8454-10.4461,6.7957-14.0233"/>
  </g>
</svg>