<?xml version="1.0" encoding="UTF-8"?>
<svg id="Philosophy" xmlns="http://www.w3.org/2000/svg" viewBox="0 0 304.64 304.6438">
  <defs>
    <style>
      

      @import url('../../CSS/SvgStyling.css');
      
    </style>
  </defs>
  
  <g class="content">

    <rect id="bg" class="bg" width="304.64" height="304.6438"/>

    <path id="path" class="cls-1" d="M280.216,140.0563c-1.9856-16.3908-8.3123-30.9724-18.3443-44.0511-14.7331-19.2074-34.503-30.1587-57.7664-35.49-10.4437-2.3934-21.037-3.5884-31.724-4.0779-.5674-.0259-1.1321-.1083-1.6923-.1639.9682-18.1167,11.5879-26.7191,24.8415-29.1589,3.6923-.6796,7.468-.907,11.4836-1.3743v-7.0034h-109.7371v7.07c3.4797.335,6.6627.4628,9.7767.9934,2.8993.494,5.8248,1.1557,8.5659,2.1974,10.7954,4.1026,16.1913,12.4285,17.9028,23.4904.1847,1.1936.2759,2.4016.4341,3.8132-2.869.2339-5.6207.439-8.3687.6854-15.7055,1.4081-30.9481,4.7433-45.413,11.1496-14.9049,6.6012-28.0015,15.6908-38.366,28.4134-9.1852,11.2751-14.6666,24.2081-16.9705,38.5063-.6063,3.7624-.9512,7.5669-1.4162,11.352v11.4799c.3194,2.5127.6245,5.0272.9605,7.5376,2.4995,18.6769,10.4734,34.7529,23.1202,48.6269,16.4379,18.0329,37.0245,28.3108,60.9207,32.0936,7.649,1.2109,15.454,1.4409,23.1889,2.1049.6823.0585,1.374.0078,2.3407.0078-.2049,1.6914-.3026,3.2257-.586,4.7251-2.7154,14.3701-11.419,22.6732-26.1465,24.8631-3.1445.4676-6.3331.6398-9.9438.9912v7.0688h109.7371v-7.0308c-3.69-.4127-7.276-.6284-10.7932-1.2394-15.1335-2.6288-24.0094-12.2633-25.4694-27.4655-.054-.5624-.1022-1.1254-.2001-2.2067,3.417,0,6.7205.1599,10.0044-.0268,17.032-.9683,33.5106-4.3753,48.6667-12.4539,24.1731-12.8848,41.0578-31.98,48.6915-58.6174,1.9224-6.7082,2.834-13.6031,3.0506-20.5838.0266-.8582.1657-1.7129.2526-2.5693v-2.783c-.3285-3.6254-.5639-7.2619-1.0015-10.8741ZM133.8401,237.4763c-3.015-.3202-5.993-.5583-8.9477-.9646-9.914-1.3636-19.394-4.109-28.093-9.1738-13.599-7.9179-22.1087-19.8326-27.011-34.5385-3.3455-10.0359-4.7991-20.4071-5.1338-30.9284-.4564-14.3467.2426-28.6284,3.3447-42.701,2.0987-9.5206,5.2355-18.662,11.1936-26.5337,7.6271-10.0765,17.8646-16.5476,29.6788-20.673,8.0397-2.8074,16.3524-4.2277,24.9685-4.7075v170.2205ZM235.547,189.8438c-3.5386,13.5577-10.0031,25.2194-21.6972,33.579-8.3429,5.964-17.4926,10.0187-27.5183,11.9961-5.1429,1.0142-10.3812,1.5465-15.7386,2.32V67.1593c3.1051.3305,6.1438.5715,9.1578.9899,9.8497,1.3676,19.2717,4.0979,27.9301,9.1057,12.3538,7.1452,20.6732,17.6814,25.8154,30.8488,4.1344,10.587,5.9744,21.6482,6.438,32.9329.6758,16.4483-.2061,32.7877-4.3872,48.8072Z"/>
  </g>
</svg>