<?xml version="1.0" encoding="UTF-8"?>
<svg id="Tayammum" xmlns="http://www.w3.org/2000/svg" viewBox="0 0 315.8938 237.9843">
  <defs>
    <style>
      

      @import url('../../CSS/SvgStyling.css');
      
    </style>
  </defs>
  
  <g class="content">

    <rect id="bg" class="bg" width="315.8938" height="237.9843"/>


    <path class="cls-1" d="M283.5302,146.5918c-.8456,0-1.6431,0-2.3169-.6256l-81.2623-76.1198-61.6686,65.5805c-1.3406,1.3887-3.025.8387-4.455-.4606-1.3887-1.3406-1.98-2.9425-.6737-4.3244l64.0611-68.138c1.3475-1.43,3.5337-1.4712,4.9637-.1719l83.8336,78.5123c1.3819,1.3406,1.4712,3.5269.1237,4.95-.6737.715-1.6431.7975-2.6056.7975Z"/>
    <path class="cls-1" d="M208.5722,35.5058c-7.4044,0-13.42-6.0019-13.42-13.3925,0-7.4319,6.0156-13.4337,13.42-13.4337s13.4612,6.0019,13.4612,13.4337c0,7.3906-6.0569,13.3925-13.4612,13.3925ZM208.5722,15.6921c-3.5337,0-6.435,2.8531-6.435,6.4212,0,3.5269,2.9012,6.4212,6.435,6.4212s6.435-2.8944,6.435-6.4212c0-3.5681-2.9012-6.4212-6.435-6.4212Z"/>
    <path class="cls-1" d="M246.089,78.33c-7.3975,0-13.4131-6.0019-13.4131-13.3925,0-7.4319,6.0156-13.4337,13.4131-13.4337,7.4044,0,13.4612,6.0019,13.4612,13.4337,0,7.3906-6.0569,13.3925-13.4612,13.3925ZM246.089,58.5163c-3.5337,0-6.435,2.8531-6.435,6.4212,0,3.5269,2.9012,6.38,6.435,6.38s6.435-2.8531,6.435-6.38c0-3.5681-2.9012-6.4212-6.435-6.4212Z"/>
    <path class="cls-1" d="M189.556,232.371c-9.8381,0-16.9468-2.6056-17.4075-2.7775-.0481-.0412-.1306-.0412-.2131-.0825-1.3062-.5844-2.9012-1.3406-4.7094-2.1794-14.5956-6.8887-48.7505-22.9281-58.513-22.9281-18.2943.0481-65.9517,15.3725-66.4124,15.5375-1.8562.5844-3.8294-.4194-4.4206-2.2687s.4194-3.8225,2.2756-4.4069c1.9731-.6325,49.1699-15.8262,68.5574-15.8675,9.9687,0,35.4612,11.33,61.4967,23.5949,1.7256.7975,3.2794,1.5056,4.5444,2.0969,1.2581.4194,14.3,4.7437,28.4349.2062,10.7662-3.3962,51.1911-27.1631,85.4286-48.1936,10.2644-6.2975,13.3718-15.4893,11.1444-21.3262-2.145-5.7131-9.2125-8.1469-18.8031-6.5106-12.155,2.1037-28.1806,7.2669-44.2062,14.19-2.2275,9.4875-10.7662,16.5825-20.9481,16.5825h-63.3461c-1.9319,0-3.4925-1.5537-3.4925-3.4787,0-1.9319,1.5606-3.5269,3.4925-3.5269h63.3049c7.3219,0,13.3787-5.3762,14.3893-12.43.0412-.0412.0412-.1237.0412-.165.0825-.6325.1237-1.265.1237-1.8906,0-5.9194-4.84-10.7525-10.7662-10.7525h-52.4561c-2.4819,0-6.7306-1.3819-14.6781-3.9875-10.9794-3.5681-26.0356-8.5181-37.4755-9.0681-16.0256-.9212-29.4868,7.81-42.4874,16.2937-2.2687,1.4644-4.6269,2.9769-6.9369,4.4069-7.5694,4.7437-33.8181,20.3637-53.0818,23.1756-1.9387.2956-3.7056-1.0106-4.0012-2.9425-.2887-1.9319,1.0519-3.6919,2.9494-3.9875,17.9575-2.6469,43.1543-17.6343,50.428-22.165,2.2756-1.3887,4.5856-2.9012,6.82-4.3656,13.9631-9.0681,28.3868-18.4318,46.688-17.38,12.32.5844,27.8849,5.665,39.2837,9.3981,5.1769,1.7256,11.0206,3.6162,12.4918,3.6162h52.4561c8.8344,0,16.1493,6.4625,17.5381,14.905,10.725-4.4962,27.2593-10.67,42.6937-13.31,13.1656-2.2687,23.0931,1.8012,26.5443,10.9106,3.8225,10.12-1.9387,22.3368-14.0112,29.7687-16.8231,10.3262-72.7236,44.378-86.9823,48.9086-5.5962,1.8081-11.0206,2.3994-15.7781,2.3994Z"/>
    <path class="cls-1" d="M163.9398,32.6526c-7.4387,0-13.4543-6.05-13.4543-13.4337,0-7.3906,6.0156-13.3925,13.4543-13.3925,7.4044,0,13.42,6.0019,13.42,13.3925,0,7.3837-6.0156,13.4337-13.42,13.4337ZM163.9398,12.7908c-3.575,0-6.435,2.9012-6.435,6.4281,0,3.5681,2.86,6.4212,6.435,6.4212,3.5337,0,6.3937-2.8531,6.3937-6.4212,0-3.5269-2.86-6.4281-6.3937-6.4281Z"/>
    <path class="cls-1" d="M251.4308,32.4395c-7.3975,0-13.4543-6.0431-13.4543-13.4337s6.0569-13.3925,13.4543-13.3925c7.4044,0,13.42,6.0019,13.42,13.3925s-6.0156,13.4337-13.42,13.4337ZM251.4308,12.5846c-3.5337,0-6.435,2.8944-6.435,6.4212,0,3.5681,2.9012,6.4212,6.435,6.4212s6.435-2.8531,6.435-6.4212c0-3.5269-2.9012-6.4212-6.435-6.4212Z"/>
  </g>
</svg>