<?xml version="1.0" encoding="UTF-8"?>
<svg id="Zainab" xmlns="http://www.w3.org/2000/svg" viewBox="0 0 370.9902 237.9843">
  <defs>
    <style>
      

      @import url('../../CSS/SvgStyling.css');

      
    </style>
  </defs>
  
  <g class="content">

    <rect id="bg" class="bg" width="370.9902" height="237.9843"/>

    <path class="cls-1" d="M303.9816,92.3598c.3126.4354.6254.8708.9379,1.3063,4.1042,5.7206,7.6548,11.7499,10.499,18.2076,3.3968,7.7125,4.1816,15.7196,2.8976,23.9565-.4819,3.0914-1.2451,6.1478-2.034,9.1802-.962,3.6976-3.3243,6.4383-6.4926,8.437-5.5465,3.4989-11.5454,5.5999-18.1943,5.5992-5.2452-.0006-9.5129-1.8458-12.313-6.4319-1.0861-1.7789-2.1465-3.6128-2.8992-5.546-.9679-2.4858-1.6154-5.0964-2.3988-7.6539-.1141-.3724-.2168-.7482-.4617-1.1097-.2268,1.3448-.3997,2.7014-.6907,4.0322-.7619,3.4842-2.1058,6.7467-3.8341,9.8628-2.0585,3.7116-5.3271,5.8731-9.1918,7.2964-.4622.1702-.9099.4205-1.3868.5026-1.5225.2623-2.0926,1.2416-2.4584,2.6573-1.3336,5.1615-2.6746,10.3211-3.1841,15.6416-.6589,6.8805-.0346,13.679,2.7962,20.0014,2.8892,6.4528,7.2534,11.8646,13.7986,14.9846,5.2271,2.4917,10.8162,3.2655,16.5826,2.306,10.0869-1.6785,19.6806-4.8846,28.5392-9.9664,5.2216-2.9954,10.2052-6.4391,15.1156-9.9346,5.1614-3.6742,10.1571-7.5882,15.1279-11.5204,2.6518-2.0977,5.1233-4.4275,7.624-6.7096.9728-.8878,1.7482-1.9907,2.7126-2.8892.9352-.8713.7593-1.7292.2087-2.6412-1.4155-2.3448-2.8958-4.6515-4.2709-7.0194-2.2393-3.856-4.3796-7.7695-6.6267-11.6208-3.5099-6.0154-6.5691-12.2574-9.5945-18.5241-.8696-1.8012-2.1912-3.3977-3.4032-5.0148-.6719-.8965-1.1645-1.6831-.927-2.9144.9383-4.8652,1.7686-9.7511,2.646-14.6281.036-.1998.143-.3868.2757-.7328.4441.4729.8061.8669,1.1771,1.2522,3.2254,3.3488,6.5188,6.6354,9.6584,10.0627,2.5716,2.8073,5.2656,5.547,6.9853,9.0252.1211.245.2423.49.4604.9311-2.2902.1421-4.1429-1.114-6.3903-1.4465.2039.4815.2947.7936.4564,1.0632,2.8651,4.7754,5.6429,9.6067,8.6347,14.3017,3.8337,6.0161,6.5629,12.3945,6.4575,19.6283-.1138,7.8065-1.7175,15.292-5.9949,21.9872-1.899,2.9724-4.3685,5.4793-6.882,7.9355-4.809,4.6994-10.0527,8.885-15.3764,12.9714-6.4771,4.9717-13.1278,9.706-20.2035,13.7914-8.183,4.7247-16.8596,8.3066-26.141,10.1791-8.1902,1.6524-15.8297-.0303-22.8886-4.4922-6.9602-4.3995-11.4044-10.574-13.6236-18.501-3.0178-10.7801-3.1205-21.59-.586-32.4285,1.1624-4.9711,2.6566-9.8648,4.0097-14.791.1184-.4312.307-.8431.5057-1.3793-.6996.0762-1.2728.1238-1.8416.2029-4.5224.6295-8.3792-.8783-11.7471-3.7718-3.6729-3.1555-5.4963-7.4311-6.8757-11.917-.8798-2.8612-1.4165-5.8001-1.4322-8.8131-.0007-.1415-.0561-.2827-.1112-.5424-1.5596.7564-3.0372,1.485-4.5249,2.1925-8.6445,4.1111-17.2258,8.3631-25.9542,12.2877-10.6502,4.7887-21.6277,8.7358-32.8476,12.0045-8.5795,2.4995-17.2223,4.7379-26.0234,6.2876-8.6781,1.5281-17.4297,2.4355-26.2319,2.9829-10.7369.6677-21.2407-.5769-31.4929-3.6434-8.5934-2.5703-16.0224-7.1354-21.4478-14.4632-3.5425-4.7848-5.3103-10.3066-6.0758-16.1709-.8933-6.8441-.6724-13.6368.8942-20.3752,1.0654-4.5827,2.8558-8.9001,4.7421-13.1853.0927-.2105.1768-.4249.3546-.854-1.1998.4223-2.1707.9189-3.1961,1.0917-1.9277.3248-3.8907.6655-5.832.6285-2.6387-.0503-4.1748-1.6298-4.8771-4.4917-.1082-.441-.1898-.8884-.4245-1.4098-1.5185,2.4204-3.1512,4.7046-5.7117,6.3648.6931.3761,1.2056.6332,1.6977.9249,2.2081,1.3086,4.1089,2.8869,4.5062,5.6272.408,2.8143-.1065,5.4609-1.657,7.8675-.803,1.2465-1.9997,1.7508-3.462,1.7469-2.8278-.0076-5.0725-1.3389-7.1036-3.1232-2.3468-2.0615-3.9366-4.6124-4.8601-7.6037-.1414-.458-.6791-.7821-.986-1.2028-.8163-1.1192-1.868-.6057-2.8717-.4491-2.8681.4473-5.4967-.0259-7.5565-2.2183-1.586-1.6882-2.4098-3.8531-2.7975-6.0536-.7252-4.1165-1.3536-8.2682-1.6876-12.4321-1.0215-12.7366-1.8193-25.491-2.8346-38.2281-.5454-6.8422-1.2808-13.6734-2.6978-20.4071-.038-.1807-.0538-.3719-.1248-.5391-1.1065-2.6057.4108-4.5297,1.7506-6.7723.1692.5004.2854.791.3663,1.0911,1.8027,6.6817,2.6839,13.5198,3.4885,20.374,1.5303,13.0372,2.1239,26.1429,2.972,39.2313.2745,4.2355.7956,8.4581,1.3092,12.6738.2708,2.2232.9462,4.3297,2.673,5.9432,1.2017,1.1229,2.5852,1.8658,4.2364,1.7148,1.6109-.1473,3.2095-.4829,4.7932-.8286.3124-.0682.7249-.5339.7667-.8581.6473-5.0252,2.3696-9.7428,4.1037-14.4529.9241-2.51,1.9672-4.9761,2.9628-7.4596.0652-.1627.1836-.3042.3553-.5818.1298.2842.2501.4477.2792.6262.7339,4.4959,1.4476,8.9951,2.1888,13.4897.3446,2.0894.1234,4.1051-.6384,6.0726-.0968.2501-.1487.5176-.2855,1.006.4207-.1981.6952-.2805.9156-.4385,2.0859-1.4957,4.0044-3.1581,5.5225-5.2638.5516-.765,1.2886-1.4024,1.9793-2.0574.1998-.1895.5331-.2384.8052-.3518.0716.3083.2232.6232.1981.9234-.051.6094-.2732,1.2086-.2907,1.8158-.0539,1.8725.8219,3.0272,2.8295,3.8742,1.6698.7045,3.3829.58,5.0855.2136,1.1476-.247,2.2684-.6187,3.6602-1.0068-.9237-.6421-1.5835-1.0816-2.2231-1.5487-2.8791-2.1025-5.3511-4.6091-6.0522-8.21-.9908-5.0892.9098-9.1642,5.0097-12.2635,3.1112-2.352,6.6507-2.8852,10.4162-2.493,2.7437.2858,5.2709,1.2017,7.6217,2.6226.4262.2576.8185.5713,1.2265.8591-.0318.0829-.0635.1659-.0953.2488-.3788-.0194-.7611-.0123-1.1359-.0621-6.9003-.916-13.2657.6561-19.2178,4.1337-1.4776.8633-1.6983,1.267-.9818,2.8447,2.0528,4.52,5.2403,7.8932,10.014,9.6396,2.1197.7755,4.1692.6988,6.203-.1448,4.0932-1.6978,8.1654-3.4458,12.2526-5.1583,1.3017-.5454,2.6231-1.0438,4.2078-1.6715-.4585,1.1529-.8577,2.0913-1.2066,3.048-.6142,1.6841-1.7257,2.7297-3.4271,3.4448-5.3346,2.2418-10.5467,4.7815-15.9161,6.9315-2.15.8609-3.3803,1.9751-3.9209,4.2624-.7841,3.318-2.019,6.5271-2.8758,9.8308-1.9381,7.4734-.7563,14.3965,3.5896,20.8721,3.9476,5.8822,9.3866,9.7365,15.7413,12.5112,5.3018,2.3149,10.894,3.4434,16.6044,4.1557,7.496.935,15.0085,1.6451,22.5654,1.3209,8.8649-.3802,17.6805-1.3272,26.4488-2.7107,10.2064-1.6105,20.248-3.9158,30.112-6.9973,10.0895-3.1519,19.9394-6.9245,29.6157-11.1803,8.0846-3.5558,16.228-6.9796,24.3753-10.3903,2.6085-1.092,5.2954-2.0332,8.321-1.8576,0,.3562.0581.7169-.0103,1.0517-.2647,1.2968-.5114,2.6019-.8709,3.8739-.9431,3.337-.3398,6.5233.8248,9.6708,1.6609,4.4884,5.0063,6.9188,9.5717,7.9127,4.6261,1.0072,9.0796.3349,13.3844-1.4168,2.332-.9489,4.5574-2.1582,6.8409-3.2286.6044-.2833.6448-.7502.5776-1.3051-.6548-5.4092-1.2045-10.8335-1.9812-16.2252-1.3578-9.4266-3.3427-18.7309-5.916-27.9026-.7481-2.6664-1.6753-5.2821-2.4501-7.9416-.1883-.6465-.28-1.4241-.1065-2.0564,1.2382-4.5119,2.5618-9.0003,3.8465-13.4995.3719-1.3022.7019-2.6163,1.0593-3.9228.0761-.278.1878-.5462.3797-1.0952.6179,1.0757,1.1317,1.8987,1.5772,2.7571,4.0246,7.7545,6.6277,16.0184,8.8444,24.434,2.1266,8.0735,2.989,16.3424,4.0607,24.5841.7268,5.5889,2.1429,11.01,4.4479,16.155.7456,1.6642,1.8188,3.2164,2.9354,4.6715,1.7887,2.3308,4.2162,3.6164,7.187,3.8413,6.5853.4985,12.5051-1.1608,17.641-5.3869,1.245-1.0245,1.237-1.0989.784-2.5839-1.7906-5.87-4.4815-11.3244-7.6627-16.547-1.1521-1.8914-2.3752-3.7412-3.6159-5.5761-.4284-.6336-.5799-1.2397-.4419-1.9893.8803-4.7844,1.7365-9.5733,2.5977-14.3613.1405-.7812.2665-1.565.3992-2.3476.0765-.0339.153-.0677.2295-.1016ZM35.094,101.9473c.3723-.1251.664-.1733.9032-.3119,1.2746-.7384,2.5081-1.5531,3.8118-2.2343.8979-.4691,1.1101-1.1108.95-2.0332-.4672-2.6915-.8992-5.389-1.3648-8.0808-.0595-.344-.2358-.6677-.3747-1.0463-.9574,1.0166-3.9094,11.2963-3.9255,13.7065ZM37.2203,110.9243c1.1757,2.5772,5.7723,5.527,8.3093,5.4756.7134-.0145.9978-.4148.5278-1.0104-.674-.854-1.4746-1.6448-2.3433-2.3007-1.863-1.4065-4.0254-2.0132-6.4938-2.1646Z"/>
    <path class="cls-1" d="M137.2692,92.5917c1.1686,1.1693,2.3517,2.3244,3.4998,3.5135.6191.6412,1.2137,1.3138,1.7465,2.0267.2042.2733.2056.6982.2994,1.054-.3098-.0374-.6195-.0752-.9293-.1118-.0879-.0104-.1762-.0173-.5164-.0502.2418.5339.3949.9655.6209,1.3546.989,1.7023,1.9896,3.3981,3.0035,5.0857,2.7402,4.5612,1.1438,11.1957-2.091,14.1654-5.4395,4.9938-11.1105,9.6596-18.1859,12.2178-1.9165.6929-3.8663,1.2077-5.9537,1.0546-4.0583-.2976-7.6059-2.9935-8.9434-6.8149-.9194-2.6267-1.2934-5.3239-1.1067-8.0866.0612-.9061-.2463-1.0722-1.0767-1.0619-7.2016.089-14.4049.2401-21.605.1502-3.3692-.042-6.7369-.5321-10.0947-.9122-.8304-.094-1.6662-.4625-2.4188-.8582-1.9512-1.026-2.528-2.4409-1.8403-4.5403,1.4668-4.4782,4.2178-7.8876,8.5249-9.9311,1.5566-.7385,3.1297-1.45,4.7297-2.0874,3.9205-1.5616,6.9057-4.1767,9.0979-7.7667.6217-1.0181,1.4285-1.9238,2.1593-2.8743.1297-.1686.2888-.3226.4588-.451,1.2336-.9315,1.9372-.669,2.2577.8446.2356,1.1126.4451,2.2309.6857,3.3424.3713,1.7158,1.3791,2.9914,2.9576,4.0818.6608-.8378,1.3329-1.6946,2.0099-2.5476,3.4136-4.3011,7.0242-8.399,11.4631-11.7081,3.0167-2.2489,6.213-3.7092,10.0978-3.187,2.0802.2797,3.9857.9658,5.486,2.4081,1.4119,1.3573,2.7185,2.8479,3.9016,4.4086.5436.7171,1.0151,1.7691.9462,2.623-.3499,4.3342-1.6137,8.391-5.4435,10.9033-2.237,1.4675-4.7927,2.4998-7.297,3.4967-3.242,1.2905-6.6464,2.0267-10.1408,2.2973-.2697.0209-.6967.1921-.7581.3861-.7021,2.2161-1.3475,4.4503-2.0181,6.7138h30.7913c.0323.0673.0646.1345.0969.2018-.4665.2079-.9201.4538-1.4016.618-5.3362,1.82-10.8551,2.7459-16.4468,3.2672-4.0449.3771-8.0973.6738-12.1478.9884-1.4195.1102-1.4036.0828-1.1642,1.5261.6065,3.6574,2.4879,6.3638,5.8797,7.9587,1.6288.766,3.3487.7846,5.0711.5239,3.4733-.5257,6.7651-1.6154,9.7713-3.4565,4.417-2.7052,8.6401-5.6806,12.4145-9.2484,1.1523-1.0892,1.1142-1.1412.347-2.5053-2.4583-4.3706-4.9179-8.7406-7.3433-13.1296-.2375-.4297-.3769-1.0012-.3297-1.4842.1423-1.4546.3993-2.8981.6115-4.3459.1078-.0178.2156-.0355.3234-.0533ZM98.5106,102.7006c.1162-.3085.146-.5332.2671-.6849.634-.7942.4504-1.4347-.1568-2.2003-.5214-.6573-.9016-1.476-1.1585-2.2825-.4472-1.4035-.7086-2.8653-1.13-4.2782-.3004-1.0074-.7149-1.083-1.3388-.2764-.9024,1.1666-1.8528,2.3165-2.5925,3.5845-1.8377,3.15-4.463,5.3783-7.7193,6.9033-2.0335.9524-4.1254,1.7813-6.1495,2.7523-1.1852.5685-2.302,1.2857-3.4238,1.9777-.6582.406-.5579.9796.0008,1.3345.8195.5207,1.6799,1.143,2.598,1.3109,2.5639.4689,5.1617.9719,7.7546,1.0214,7.8449.15,15.6937.0882,23.541.1217.5991.0026.8651-.2619,1.041-.8117.6093-1.9041,1.2666-3.7929,1.8961-5.6907.0613-.1849.057-.3916.1036-.7423-.8909,0-1.686.0055-2.481-.001-2.7548-.0224-5.4207-.5024-7.7736-1.9842-1.0268-.6466-1.8623-1.1432-2.8566-.0856-.044.0468-.1704.0161-.4215.0316ZM112.6542,99.0335c2.6665-.4551,5.199-.7863,7.6838-1.3336,4.4744-.9855,8.6498-2.8133,12.7353-4.8439.9534-.4738.9975-.6707.3638-1.5377-.8334-1.1402-1.6214-2.3532-2.6386-3.3127-4.7572-4.4874-8.6934-5.5543-14.5933-2.2657-4.7267,2.6347-8.2721,6.6409-11.6442,10.7879-.55.6763-.007.8801.4926.9838,2.5515.5298,5.1098,1.0265,7.6005,1.5219Z"/>
    <path class="cls-1" d="M153.8853,69.7125c.63-1.0726,1.2581-2.1462,1.8904-3.2174.7819-1.3246,1.5236-2.6762,2.3737-3.9557.3222-.4848.8425-.91,1.3668-1.1769,3.7581-1.9129,7.5412-3.7766,11.3151-5.6584,9.5029-4.7385,18.9871-9.515,28.5122-14.2087,12.8903-6.3521,25.813-12.6385,38.7194-18.9579,8.346-4.0865,16.6755-8.2069,25.0373-12.2608,3.5435-1.7179,7.1507-3.3046,10.7304-4.9477.1075-.0494.2314-.0632.445-.119-.0378.2579-.0376.4617-.0993.6446-.452,1.3409-.9035,2.6822-1.3814,4.014-.3334.9291-.9126,1.6049-1.8479,2.0594-5.8681,2.8515-11.7107,5.7554-17.5684,8.6284-9.8374,4.825-19.6871,9.625-29.5179,14.4635-8.643,4.2538-17.2762,8.5277-25.8969,12.8264-8.1531,4.0655-16.2885,8.1666-24.4237,12.2678-6.2661,3.159-12.5196,6.343-18.7805,9.5124-.2126.1076-.4441.1781-.6668.266-.0692-.06-.1384-.1201-.2076-.1801Z"/>
    <path class="cls-1" d="M45.2735,48.0865c-.306.4651-.6585.9063-.9103,1.399-1.5964,3.1248-2.4771,6.484-3.2447,9.8863-.853,3.7806-1.7504,7.5517-2.6862,11.3126-.1898.7627-.5831,1.4919-.9758,2.1837-1.1995,2.113-3.0425,2.4903-5.0576,1.1206-1.9371-1.3167-3.0172-3.2726-3.7342-5.371-1.5863-4.6424-2.2525-9.4517-2.1121-14.363.0105-.3671.0802-.7336.14-1.0974.0181-.1103.0959-.2107.4154-.3787.0992.3827.2468.76.2896,1.1489.283,2.5688.4117,5.1627.8475,7.7043.4535,2.6447,1.2486,5.2223,3.0741,7.319.7444.855,1.6018,1.5017,2.8468,1.4651,1.0988-.0323,1.9536-.4835,2.3966-1.4387.5139-1.108.9682-2.27,1.247-3.4559.9015-3.8351,1.5456-7.7384,2.6108-11.5249.769-2.7336,1.9287-5.3814,3.1575-7.9511.5746-1.2016,1.6875-2.1634,2.6358-3.1582.2988-.3134.9398-.6123,1.2696-.4925.3013.1095.5796.8089.5467,1.2228-.1627,2.0501-.3162,4.1131-.6902,6.1314-.5788,3.1235-1.1793,6.2303-1.0727,9.429.0883,2.6497.9058,4.9971,2.6945,6.9953,2.3237,2.596,5.7017,2.9073,8.7639.9008,3.3406-2.189,4.5297-5.445,4.5505-9.182.0303-5.444-.7971-10.8044-2.1786-16.0638-.3004-1.1436-.3337-2.1647.1214-3.2217.5527-1.2836,1.1153-2.563,1.7779-4.0837.3044.6144.5181.9722.666,1.3554,1.8569,4.8118,2.6943,9.8387,3.1664,14.9467.3117,3.3719.5999,6.7548,1.6856,9.9946,1.4728,4.3948,5.5519,6.5055,9.9902,5.1658.6697-.2022,1.2997-.5526,1.9258-.8773.568-.2945.4789-.8036.3091-1.2925-.5655-1.628-1.0803-3.277-1.7243-4.8737-2.0248-5.0197-3.3465-10.2305-4.3854-15.5273-.188-.9583-.5803-1.8748-.8279-2.8238-.0963-.3693-.1782-.8222-.0522-1.156.5632-1.4916,1.2039-2.9539,1.9281-4.6949,2.0152,3.1835,4.1727,6.0095,5.2403,9.447-.0601.0668-.1201.1336-.1802.2003-.6574-.362-1.3148-.724-1.9722-1.0859-.0762.0461-.1524.0923-.2286.1385.0903.489.1259.9959.2798,1.464.9801,2.9799,1.8606,6.001,3.0142,8.9134,1.6071,4.0571,1.9447,8.1308.6276,12.2826-.9012,2.8406-2.5641,5.1023-5.6591,5.7819-3.3587.7375-6.2023-.3803-8.5122-2.8444-1.7629-1.8805-2.5783-4.2327-3.081-6.7121-.1185-.5844-.2649-1.1632-.3985-1.7446-.0865-.0027-.173-.0055-.2595-.0082-.1183.5814-.2321,1.1637-.3557,1.7439-.7438,3.4916-2.0629,6.7322-4.5577,9.3386-3.3184,3.4669-10.0881,3.8147-13.1387-1.9228-1.6732-3.1468-1.8527-6.5672-1.4912-9.9969.3736-3.5451.9931-7.0642,1.4939-10.5963.0441-.3106.0059-.633.0059-.9499-.0772-.034-.1545-.0681-.2317-.1021Z"/>
    <path class="cls-1" d="M357.4409,28.2954c-.7402,2.3732-1.4571,4.7541-2.2436,7.1118-.1301.3901-.4981.8148-.8675.9944-10.0443,4.8824-20.1272,9.686-30.1531,14.6058-10.5769,5.1902-21.1033,10.4835-31.6482,15.739-2.0095,1.0015-4.0016,2.0379-6.0038,3.0541-.1534.0779-.3233.1232-.5649.2131.012-.2275-.012-.3831.0321-.5161.716-2.16,1.4598-4.3109,2.1549-6.4776.3273-1.02,1.022-1.625,1.938-2.0961,4.3504-2.2374,8.6455-4.5866,13.039-6.735,13.0733-6.3925,26.1809-12.7149,39.2808-19.0528,4.5411-2.197,9.0987-4.36,13.6502-6.5356.379-.1811.7687-.3396,1.1535-.5086.0775.0678.155.1356.2325.2035Z"/>
    <path class="cls-1" d="M49.3276,162.3973c-.0669.958-.0676,1.9262-.2126,2.8723-.5121,3.3422-2.158,6.254-3.5397,9.275-3.0931,6.7631-6.6664,13.328-8.5339,20.6045-.872,3.3975-1.0213,6.8027-.4282,10.2489.4184,2.4311,1.7374,4.2323,3.8597,5.4622,1.9886,1.1524,3.7279.7658,4.8588-1.2279.8477-1.4944,1.5167-3.09,2.2722-4.6371.4588-.9395,1.0129-1.7382,2.1938-1.885.7575-.0941,1.1002.1578.9318.8828-.4375,1.8844-.8055,3.7977-1.4221,5.625-1.3567,4.021-3.6326,7.5306-6.4536,10.674-1.4508,1.6167-3.0916,3.0167-5.3808,3.3203-2.0872.2768-3.7204-.5704-5.0685-2.0756-1.5633-1.7453-2.1783-3.9082-2.5527-6.1417-.8894-5.3066-.1784-10.5075,1.3136-15.6021,1.6628-5.6778,3.8354-11.1798,6.4766-16.4709,3.2263-6.4631,6.6018-12.8519,9.9366-19.2605.3404-.6542.8433-1.2238,1.2708-1.8327.1594.0562.3189.1123.4783.1685Z"/>
    <path class="cls-1" d="M261.0399,58.4194c-2.4483-1.8254-4.8149-3.5857-7.177-5.3521-3.0314-2.2669-6.0651-4.5306-9.0851-6.8125-1.057-.7986-1.0286-.8135-.2752-1.8631,2.7635-3.8504,5.5092-7.7138,8.2823-11.5573,1.1713-1.6234,1.1725-1.5762,2.7723-.4005,4.9107,3.6092,9.8382,7.1956,14.7636,10.7848,1.2405.9039,1.239.887.3614,2.0974-2.7282,3.7628-5.4444,7.5343-8.177,11.2939-.4319.5943-.9243,1.1446-1.4652,1.8093Z"/>
    <path class="cls-1" d="M295.0296,195.6452c-5.6745-3.5141-11.2187-6.9426-16.7547-10.3844-.4924-.3061-1.1335-.6146-1.3247-1.0789-.1285-.3119.3961-.9117.661-1.3636,2.4269-4.1392,4.8584-8.2757,7.2969-12.408.2289-.3879.5154-.7419.8315-1.1919,6.1414,3.7254,12.2108,7.4072,18.4238,11.1761-2.8228,5.2077-5.9741,10.2128-9.1339,15.2507Z"/>
    <path class="cls-1" d="M304.2108,180.3439c2.95-4.9973,5.8961-9.9881,8.9234-15.1165,6.1829,3.7527,12.2433,7.4311,18.4558,11.2017-.2892.6119-.5452,1.291-.9108,1.9049-2.4703,4.1478-4.975,8.2751-7.4394,12.4264-.4461.7515-.8467.819-1.5919.3577-5.0996-3.1562-10.2273-6.2668-15.3418-9.3989-.6507-.3985-1.2771-.8366-2.0953-1.3752Z"/>
    <path class="cls-1" d="M148.6311,198.0509c1.8961-2.6781,3.7343-5.2898,5.5897-7.8893,1.2687-1.7776,2.5995-3.5122,3.825-5.3186.5008-.7382.8877-.8351,1.608-.3049,4.8059,3.5378,9.6337,7.0459,14.4551,10.5627.4471.3262.8772.6835,1.354.9594.7125.4123.7281.8669.2709,1.4981-2.5978,3.5867-5.1764,7.1875-7.765,10.781-.4672.6485-1.0136,1.2492-1.4097,1.9373-.4936.8573-.9694.5769-1.5444.142-2.3547-1.781-4.7194-3.5487-7.0801-5.3219-2.9504-2.2161-5.9006-4.4324-8.8497-6.6503-.1201-.0904-.2277-.1975-.4537-.3956Z"/>
    <path class="cls-1" d="M339.031,90.7301c-1.3409-1.0241-2.6447-2.0393-3.9686-3.0276-4.1642-3.1086-8.3297-6.2156-12.512-9.2998-.5677-.4187-.6706-.7559-.2378-1.3464,3.0342-4.1403,6.0452-8.2977,9.062-12.4507.2129-.2932.4134-.5954.6767-.9759.5762.4359,1.1239.8648,1.6862,1.2733,3.3094,2.4045,6.6315,4.7916,9.9301,7.2108,1.6858,1.2364,3.3441,2.5117,4.9782,3.8153.189.1508.2908.6714.1787.8905-.3476.6797-.8017,1.3081-1.2432,1.9361-2.6858,3.8198-5.3788,7.6346-8.0735,11.4481-.1203.1702-.2807.312-.4766.5262Z"/>
    <path class="cls-1" d="M178.2432,105.1581c.0619-.3446.1461-.6869.1824-1.0342.4758-4.5606.9064-9.1325,2.1722-13.5612.6369-2.2283,1.5538-4.3444,3.1547-6.0929.9758-1.0657,2.1656-1.2757,3.4503-.7767,2.0497.7962,3.4693,2.3005,4.3711,4.2759.1776.389.2286.9465.0963,1.3463-.4809,1.4529-1.042,2.8811-1.621,4.2989-.219.5363-.5388.4235-.904.0348-.8806-.9373-1.7559-1.8905-2.7258-2.7305-1.2356-1.07-2.2437-.9097-2.9883.556-.677,1.3326-1.3726,2.7375-1.6284,4.1866-.7049,3.9931-1.205,8.0232-1.7439,12.0444-.3354,2.5027-.6083,5.013-1.6561,7.3511-.1118.2494-.2569.4902-.4223.7078-.4372.5749-.8604.431-1.1235-.1319-.2847-.6092-.491-1.259-.6894-1.9041-.8681-2.8221-1.5241-5.7297-2.641-8.4486-.9117-2.2195-2.3173-4.247-3.6041-6.2966-.596-.9493-.7822-.8603-1.5075-.0204-.1578.1827-.6225.3107-.8242.2129-2.2208-1.076-4.3375-2.3183-6.0822-4.1059-.516-.5287-.6447-1.0991-.484-1.8486.2247-1.0477.2345-2.1397.4257-3.1965.56-3.0951,2.2186-3.8487,5.0577-2.4121,2.3893,1.209,4.2552,3.0055,5.519,5.2939,1.6907,3.0613,3.1452,6.2537,4.6797,9.4002.4627.9488.8541,1.9324,1.2782,2.9.0861-.0163.1722-.0326.2583-.0489Z"/>
    <path class="cls-1" d="M166.3749,8.6406c-.0259.3188-.0026.6511-.0858.9542-.4479,1.6299-.8815,3.2659-1.4073,4.8712-.2124.6485-.1004.9534.4615,1.3533,1.9016,1.3534,3.8813,2.6441,5.5747,4.2322,2.7083,2.54,3.69,5.7556,2.807,9.4297-.7816,3.252-1.8586,6.3985-4.8134,8.3494-3.0428,2.009-6.3959,2.2082-9.7071.8068-3.0028-1.2709-4.6646-5.1511-3.9621-8.5729.8995-4.3811,2.8957-8.2889,5.2065-12.0565.9972-1.6259,2.096-3.1899,3.0816-4.8225.682-1.1297,1.2467-2.3299,1.8694-3.4957.2097-.3927.4364-.7763.6554-1.164l.3197.1149ZM164.6784,32.0187c2.0244-.0125,3.8421-.7534,5.6241-1.6086.5633-.2703.5498-.6205.1576-1.0898-2.3836-2.8516-5.3808-4.9256-8.5335-6.8105-.4892-.2925-.8842-.2708-1.143.2627-.6285,1.2958-1.3233,2.569-1.8284,3.9126-.5887,1.5659-.0474,2.8975,1.2385,3.9228,1.3095,1.0442,2.8399,1.4147,4.4847,1.4108Z"/>
    <path class="cls-1" d="M301.7979,4.3066c-.073.4922-.0886,1.0014-.2296,1.4733-.4397,1.4718-.9055,2.9367-1.4068,4.3886-.1822.5278-.0901.815.3821,1.145,1.6634,1.1627,3.3324,2.326,4.9142,3.5951,3.8354,3.0771,4.718,7.0513,3.2382,11.6044-.7037,2.165-1.5589,4.2928-3.218,5.9597-1.3985,1.4051-3.0802,2.2286-5.0649,2.397-2.0742.176-4.1533.199-6.0526-.7872-2.7113-1.4079-4.1921-4.5471-3.6896-7.8338.4217-2.7583,1.2905-5.4102,2.6555-7.8357,2.1266-3.7787,4.4107-7.4685,6.6052-11.2094.4187-.7137.7278-1.4914,1.0953-2.2356.1285-.2603.2806-.509.4219-.763.1164.0339.2328.0678.3492.1016ZM299.8229,27.8494c.0268-.0877.0537-.1754.0805-.2631,1.7875.0389,3.474-.3774,5.0885-1.1224,1.495-.6898,1.5479-.9384.4617-2.2304-.0791-.0941-.1648-.1825-.2489-.2722-2.3383-2.4942-5.1398-4.377-8.0754-6.0746-.1812-.1048-.6651-.0398-.7538.1036-.985,1.5923-2.0384,3.1691-2.1837,5.1182-.1154,1.5471.4053,2.8645,1.8349,3.5239,1.1977.5524,2.5258.8221,3.7962,1.217Z"/>
    <path class="cls-1" d="M94.0098,32.5224c-1.4247-.6895-1.8264-2.1012-3.0894-3.0543.1372,1.3771.2279,2.5143.3669,3.6455,1.2195,9.9256,2.5133,19.8427,3.6457,29.7782.5673,4.9777,1.1104,9.9742.6987,15.0096-.2275,2.7821-.8561,5.4666-1.8015,8.0815-.1535.4246-.4483.798-.6778,1.1951-.1012-.0278-.2023-.0555-.3035-.0833-.0503-.3384-.1281-.6753-.1469-1.0154-.3153-5.7145-.4481-11.4455-.9752-17.1401-.7287-7.8725-1.7443-15.7186-2.6536-23.5742-.7571-6.5406-1.5312-13.0793-2.3155-19.6168-.1244-1.0369-.4144-2.057-.4931-3.0951-.0608-.8009-.0722-1.6731.1814-2.4156.4512-1.3209,1.1196-2.5676,1.8281-3.8372,1.8558,5.3453,4.9006,10.2167,5.7356,16.122Z"/>
    <path class="cls-1" d="M220.2367,175.5338c0,.376.0427.7578-.0069,1.1271-.3327,2.478-1.4132,4.688-2.438,6.9313-1.7495,3.8298-3.4917,7.6674-5.0746,11.5676-1.2012,2.9596-1.4532,6.0915-.9037,9.2559.3165,1.8226,1.3685,3.0475,3.1282,3.6578,1.1335.3931,2.078.0595,2.6391-1.0139.4552-.8711.8051-1.7993,1.2901-2.6519.3113-.5473.7342-1.0583,1.2041-1.4765.227-.2021.6777-.1529,1.0271-.2175.0436.3207.1961.6732.113.9568-.5175,1.7681-.9653,3.5716-1.67,5.2662-.9883,2.3766-2.4676,4.4735-4.4062,6.1915-2.774,2.4584-5.7552,1.8068-7.2953-1.5871-1.1041-2.4329-1.1219-5.0141-.8939-7.6137.3958-4.5137,2.0598-8.654,3.7719-12.779,2.3741-5.7201,5.3071-11.1609,8.3156-16.5624.2379-.4271.6171-.7755.9307-1.1604.0896.036.1792.0721.2688.1081Z"/>
    <path class="cls-1" d="M229.9845,61.498c-.3372,1.1562-.5651,2.3588-1.0316,3.4602-1.5237,3.5971-3.1918,7.1335-4.6896,10.7409-.8624,2.0771-1.4672,4.2577-1.3193,6.5559.1075,1.671.668,3.1191,2.1585,4.0746,1.1621.745,1.8068.6333,2.5193-.5312.3847-.6287.6995-1.2999,1.0535-1.9478.1768-.3237.3215-.686.5714-.9425.2328-.239.5859-.3608.886-.5343.117.3182.3807.6656.3242.9491-.1856.9309-.4284,1.8603-.7564,2.7508-.7744,2.1025-1.9377,3.9899-3.4968,5.5966-2.5267,2.6038-4.8263,1.726-6.1385-1.1671-.7846-1.7298-.7454-3.5917-.5805-5.4499.2445-2.7565.9156-5.4221,2.0808-7.9097,2.3207-4.9549,4.7708-9.8494,7.1871-14.7591.1932-.3925.5385-.7102.8131-1.0626.1397.0587.2794.1173.4191.176Z"/>
    <path class="cls-1" d="M100.9921,219.9324c.3308-.6308.6287-1.2816.9979-1.889,2.0254-3.3322,4.1574-6.6041,6.0536-10.0077.6105-1.0958.7547-2.5177.8571-3.8106.0934-1.1783-.4613-2.2589-1.5753-2.8196-1.0581-.5326-2.0506-.0603-2.928.5514-.4978.3471-.8866.8467-1.3539,1.2429-.2247.1905-.5175.3006-.8713.3552.3459-2.0782,1.1242-3.9022,2.5101-5.4424.2253-.2504.4859-.4704.7391-.6943,1.1566-1.0228,2.4342-1.807,4.0142-1.1378,1.6858.714,2.6338,2.0746,2.8325,3.9074.1936,1.7862-.1968,3.5-.8455,5.1388-2.0759,5.2441-5.3354,9.7384-8.996,13.9655-.3097.3576-.7545.5983-1.1365.8933-.0994-.0844-.1987-.1688-.2981-.2532Z"/>
    <path class="cls-1" d="M52.5112,83.0569c-.1185.2425-.1958.4837-.3378.6775-.8156,1.1139-1.6496,2.2142-2.4709,3.324-.3717.5022-.7516.5138-1.2384.1298-1.3965-1.1017-2.8365-2.1499-4.2029-3.2869-.2264-.1884-.3571-.835-.2109-1.0702.7431-1.1949,1.5699-2.3408,2.4247-3.4601.1471-.1926.684-.3404.8486-.2278,1.6711,1.1426,3.3042,2.3409,4.9405,3.5338.1115.0813.1626.2457.247.3797Z"/>
    <path class="cls-1" d="M111.1563,55.0059c1.8565,1.3091,3.5967,2.5105,5.2937,3.7701.1842.1367.2753.7194.1429.9104-.8902,1.2849-1.8342,2.5346-2.8137,3.7531-.1288.1602-.6565.2143-.8339.087-1.5457-1.109-3.0678-2.2528-4.5551-3.4387-.1882-.1501-.2943-.7083-.1683-.8988.9261-1.401,1.9209-2.7565,2.9344-4.1831Z"/>
    <path class="cls-1" d="M74.0207,22.2181c.1401.124.2761.1845.3014.2758.4671,1.6841.9966,3.3567,1.339,5.0666.1291.6446-.0717,1.4194-.3187,2.0591-.3176.8229-.8875,1.4456-1.9326,1.4278-1.0607-.0181-1.849-.3564-2.2434-1.407-.122-.3251-.3262-.6195-.58-1.0894-.2636.5344-.4182.896-.6144,1.2333-.246.423-.4355.9752-.812,1.2041-.6192.3764-1.3726.7466-2.0632.7355-.8146-.0132-1.2821-.8273-1.2918-1.5792-.0289-2.2328.0672-4.4673.1264-6.7008.0027-.1002.1225-.1972.3678-.5674.1348.5693.2736.9041.2834,1.2426.0338,1.1679-.0091,2.3385.0399,3.5054.0321.7663.0976,1.5892,1.038,1.8486.6902.1904,1.8288-.3279,2.139-1.1232.2543-.652.3239-1.4196.2946-2.1285-.043-1.0376-.2966-2.0658-.3535-3.1039-.0172-.3128.3208-.645.496-.9683.1915.2855.4839.5474.557.8605.2999,1.2857.4722,2.6032.8103,3.8774.2598.979.6417,1.9563,1.7877,2.2827.8969.2554,1.2988-.0015,1.1387-.9007-.2091-1.1738-.5702-2.3226-.9014-3.472-.262-.9092-.1302-1.7297.3916-2.5788Z"/>
    <path class="cls-1" d="M23.3848,54.3704c2.7391-2.2793,5.49-4.5446,8.214-6.8418,2.7026-2.2791,5.193-4.7623,7.3122-7.6696-.7499-.4941-1.4144-.8743-2.0135-1.339-1.1474-.8899-1.4497-1.9152-.7197-3.1586.498-.8482,1.2334-1.6041,2.0004-2.2334.726-.5956,1.4193-.3393,1.9157.4748.7712,1.2649.8989,2.6121.4029,3.9865-.2277.6308-.0638.9494.4032,1.4145.4538.4519.6793,1.1676.8921,1.8052.0608.1822-.2181.5886-.4416.7152-.1437.0814-.5174-.1048-.7074-.266-1.2044-1.0216-1.2073-1.0379-2.1689.2871-2.7061,3.7286-6.0384,6.7945-9.8299,9.3897-1.4914,1.0208-2.9324,2.1151-4.3984,3.173-.2361.1704-.4833.3255-.7254.4877-.0452-.0751-.0905-.1502-.1357-.2253ZM39.9901,37.0169c-.0395-2.071-1.1146-2.907-2.5049-2.2032-.7123.3606-.8338.7969-.2983,1.3688.4388.4686.9382.8901,1.4559,1.2711.2705.1991.7766.4599.9318.3494.2708-.1927.3527-.6509.4155-.786Z"/>
    <path class="cls-1" d="M124.4332,67.3664c.0082,1.2429-.4713,1.9491-1.4328,2.4035-3.2837,1.5518-6.5586,3.1224-9.8314,4.6971-2.6896,1.2941-5.3704,2.6062-8.0581,3.9042-.2689.1299-.5585.2168-.8981.3464-.1825-.929.1442-1.5373.8567-1.9178,2.3055-1.2315,4.5972-2.4936,6.9452-3.6395,3.7887-1.8491,7.6174-3.6162,11.4314-5.4133.2715-.1279.561-.2176.9871-.3805Z"/>
    <path class="cls-1" d="M85.5514,80.7012c.0176,1.0465-.0869,1.7864-1.0669,2.2454-4.3986,2.06-8.7753,4.1671-13.1514,6.2749-1.579.7606-3.1326,1.5738-4.7014,2.3557-.3215.1602-.6593.2878-1.1368.494-.0277-.974.0987-1.6697.9405-2.0932,3.0195-1.5191,6.0154-3.086,9.0511-4.5719,3.0364-1.4864,6.1091-2.8985,9.1677-4.3396.2614-.1232.5357-.219.8973-.3653Z"/>
    <path class="cls-1" d="M112.1416,30.597c-.239.7304-.4331,1.4793-.7257,2.1874-.7504,1.8159-1.614,3.5882-2.2901,5.4301-.309.8416-.3653,1.805-.3771,2.7152-.0067.514.2178,1.0899.4987,1.537.6982,1.111,1.3961,1.0584,2.0336-.0808.2748-.491.5466-.9837.8198-1.4757.0802.0164.1605.0328.2407.0492.0313.2463.1319.5076.0827.7366-.3714,1.7301-1.1142,3.2572-2.5907,4.3189-1.0189.7327-2.0544.5379-2.4558-.6351-.3448-1.0075-.5439-2.1699-.4079-3.2116.1882-1.4421.6075-2.8972,1.1848-4.2359,1.0084-2.3383,2.2106-4.5931,3.3384-6.8796.0994-.2016.2492-.3784.3756-.5667l.2729.1108Z"/>
    <path class="cls-1" d="M54.5949,48.5127c.1034.1536.1401.1846.1346.2032-.4574,1.555.4934,2.3304,1.5827,3.1727,1.2702.9823,1.5029,2.6991.7943,4.1974-.7386,1.5618-2.0741,2.3841-3.5979,2.2154-1.234-.1366-2.1017-.8144-2.1007-2.047.0009-1.0656.2739-2.1869.6792-3.1805.4124-1.0109,1.1556-1.883,1.7105-2.8411.2992-.5165.5074-1.0857.7974-1.7201ZM54.3131,56.2008c.0406-.0626.0812-.1252.1219-.1878.2127-.0215.4624.0206.6305-.0773.3742-.218.9146-.4551.995-.7811.0699-.2832-.344-.7577-.6439-1.0428-.4182-.3976-.9335-.6917-1.3993-1.0407-.5207-.3901-1.0067-.2584-1.1941.2836-.1973.5708-.4319,1.3692-.1823,1.7919.298.5046,1.0926.716,1.6721,1.0543Z"/>
    <path class="cls-1" d="M105.606,121.0194c-.1269,1.295-.5044,2.0662-1.5538,2.5411-3.8922,1.7616-7.755,3.5881-11.6244,5.3997-.627.2936-1.2316.6351-1.996,1.0321-.0409-1.2057.5457-1.8222,1.3621-2.2396,2.4359-1.2455,4.8843-2.4667,7.3372-3.6784,1.7089-.8442,3.432-1.66,5.1518-2.4821.3771-.1802.7671-.3332,1.3231-.5729Z"/>
    <path class="cls-1" d="M29.1218,33.1909c-.0379.2914-.0032.6185-.1263.8679-.5148,1.043-1.0073,2.1086-1.6447,3.0758-.4678.7098-1.2965,1.3159-2.1194.924-.5885-.2803-1.0306-1.0676-1.313-1.7253-.213-.4961-.1125-1.1478-.0769-1.7256.1187-1.9302.6591-3.7451,1.5123-5.4817,1.0817-2.2017,2.1191-4.4252,3.1755-6.6392l.2676.0676c-.089.3737-.1303.767-.2749,1.1178-.9256,2.2458-1.9395,4.4579-2.7813,6.734-.3194.8636-.3375,1.8671-.339,2.8071-.0007.4358.2803.948.5836,1.2942.9451,1.079,1.5988.9344,2.2258-.4024.1684-.3591.3787-.6985.5698-1.0469.1136.0443.2272.0885.3408.1328Z"/>
    <path class="cls-1" d="M24.0388,80.4361c2.2013,1.1863,3.775,2.8132,4.8031,4.9224,1.4707,3.0173,1.4885,6.2367,1.2991,9.465-.1086.0222-.2172.0443-.3258.0665-.0642-.1992-.1635-.3944-.1864-.5982-.0893-.7953-.1733-1.5921-.2251-2.3905-.2091-3.2239-1.8313-5.6719-4.1784-7.7476-1.5244-1.3481-1.5059-1.369-1.1865-3.7175Z"/>
    <path class="cls-1" d="M53.6859,37.6887c-.0607-.5585-.1585-1.1159-.1763-1.6758-.1209-3.8145-1.5447-7.031-4.5944-9.3523-1.2285-.9351-.9753-1.9818-.8676-3.3422,2.1838,1.1744,3.6992,2.7858,4.7045,4.8713,1.4567,3.0217,1.421,6.2432,1.3947,9.4555-.1537.0145-.3074.029-.461.0435Z"/>
  </g>
</svg>